<svg width="107" height="36" viewBox="0 0 107 36" fill="none" xmlns="http://www.w3.org/2000/svg">
<rect y="0.5" width="107" height="35" rx="17.5" fill="white"/>
<path d="M46.5209 19.1505C44.4091 19.1505 42.6888 17.4158 42.6888 15.2866C42.6888 13.157 44.4091 11.4227 46.5209 11.4227C48.6326 11.4227 50.353 13.157 50.353 15.2866C50.353 17.4158 48.6326 19.1505 46.5209 19.1505ZM46.5209 12.9132C45.2229 12.9132 44.1667 13.9778 44.1667 15.2869C44.1667 16.5956 45.2226 17.6602 46.5209 17.6602C47.8191 17.6602 48.8747 16.5956 48.8747 15.2869C48.8747 13.9778 47.8188 12.9132 46.5209 12.9132ZM93.2835 18.0236C93.5722 17.7328 93.5722 17.2603 93.2835 16.9693C92.9952 16.6785 92.5265 16.6785 92.2382 16.9693C91.3214 17.8937 89.8279 17.8937 88.9055 16.9693C87.9887 16.0448 87.9887 14.5336 88.9055 13.6092C89.3484 13.1626 89.9409 12.9132 90.5694 12.9132C91.1978 12.9132 91.7897 13.1626 92.2332 13.6092C92.5216 13.8999 92.9902 13.8999 93.2786 13.6092C93.5669 13.3185 93.5669 12.8456 93.2786 12.5549C92.5526 11.8226 91.5942 11.4227 90.5694 11.4227C89.5445 11.4227 88.5811 11.8226 87.8599 12.5549C86.3661 14.0611 86.3661 16.5121 87.8599 18.0183C88.6069 18.7715 89.5905 19.1505 90.5694 19.1505C91.5529 19.1558 92.5365 18.7762 93.2835 18.0236ZM34.0512 15.2916C34.0512 17.4209 35.7303 19.1555 37.7958 19.1555C38.6816 19.1555 39.4597 18.8335 40.0621 18.2987V18.4129C40.0621 18.8232 40.3917 19.1558 40.7986 19.1558C41.2055 19.1558 41.5351 18.8232 41.5351 18.4129V8.74262C41.5351 8.33235 41.2055 8 40.7986 8C40.3917 8 40.0621 8.33235 40.0621 8.74262V12.2795C39.4594 11.7447 38.6816 11.4227 37.7958 11.4227C35.7303 11.4277 34.0512 13.157 34.0512 15.2916ZM35.5295 15.2916C35.5295 13.9829 36.5441 12.9182 37.7958 12.9182C39.0475 12.9182 40.0621 13.9829 40.0621 15.2916C40.0621 16.6003 39.0475 17.6653 37.7958 17.6653C36.5441 17.6653 35.5295 16.6003 35.5295 15.2916ZM62.0088 14.4244C62.0035 12.7677 60.6696 11.4227 59.0265 11.4227C58.1301 11.4227 57.3266 11.8226 56.781 12.456C56.2344 11.8226 55.4312 11.4227 54.5349 11.4227C52.8918 11.4227 51.5526 12.773 51.5526 14.4297V14.435V18.4076C51.5526 18.8181 51.8822 19.1508 52.2891 19.1508C52.696 19.1508 53.0256 18.8181 53.0256 18.4076V14.435C53.0256 13.5989 53.7003 12.9132 54.5346 12.9132C55.3639 12.9132 56.0436 13.5935 56.0436 14.435V18.4076C56.0436 18.8181 56.3735 19.1508 56.7807 19.1508C57.1873 19.1508 57.5172 18.8181 57.5172 18.4076V14.435C57.5172 13.5989 58.1919 12.9132 59.0262 12.9132C59.8552 12.9132 60.5349 13.5935 60.5349 14.435V18.4076C60.5349 18.8181 60.8651 19.1508 61.2717 19.1508C61.6786 19.1508 62.0085 18.8181 62.0085 18.4076V14.435C62.0088 14.4294 62.0088 14.4294 62.0088 14.4244ZM85.511 18.4073V12.1653C85.511 11.755 85.1817 11.4227 84.7745 11.4227C84.3673 11.4227 84.038 11.755 84.038 12.1653V18.4026C84.038 18.8128 84.3673 19.1455 84.7745 19.1455C85.1817 19.1455 85.511 18.8178 85.511 18.4073ZM84.7748 8.00029C84.2494 8.00029 83.8273 8.43123 83.8273 8.95572C83.8273 9.48022 84.2549 9.91145 84.7748 9.91145C85.2947 9.91145 85.7224 9.48051 85.7224 8.95572C85.7224 8.43093 85.3003 8.00029 84.7748 8.00029ZM77.8006 16.8757C77.8006 15.2866 76.1628 14.9076 75.0091 14.6319C73.6959 14.3255 73.2323 14.1281 73.2323 13.6349C73.2323 13.2196 73.7524 12.8869 74.5612 12.8869C75.1845 12.8869 75.7974 13.0478 76.3847 13.3751C76.735 13.5673 77.1677 13.4374 77.3583 13.0894C77.5485 12.7364 77.42 12.3002 77.0749 12.108C76.2763 11.6665 75.4318 11.4433 74.5612 11.4433C73.0625 11.4433 71.7385 12.4197 71.7385 13.6452C71.7385 15.3798 73.4641 15.7695 74.6845 16.0549C75.8332 16.3249 76.3123 16.5534 76.3123 16.9274C76.3123 17.5454 75.4933 17.7063 74.7981 17.7063C74.01 17.7063 73.4228 17.5091 72.6295 16.9743C72.2999 16.7509 71.8518 16.8391 71.6305 17.1715C71.4089 17.5038 71.4964 17.9557 71.8263 18.1791C72.8564 18.8748 73.7161 19.1602 74.7931 19.1602C76.8325 19.1505 77.8006 18.0389 77.8006 16.8757ZM82.0191 17.6599C81.1901 17.6599 80.5871 16.9796 80.5871 16.1384V12.9185H82.1221C82.4933 12.9185 82.7969 12.6172 82.7969 12.2382C82.7969 11.8592 82.4933 11.5578 82.1221 11.5578H80.5871V9.8961C80.5871 9.48583 80.2577 9.15348 79.8505 9.15348C79.4434 9.15348 79.114 9.48583 79.114 9.8961V16.1334C79.114 17.7951 80.376 19.1405 82.024 19.1405C82.4309 19.1405 82.7606 18.8078 82.7606 18.3978C82.7556 17.9923 82.426 17.6599 82.0191 17.6599ZM70.5799 14.9696C70.5799 12.8453 68.6997 11.4224 66.943 11.4224C64.8365 11.4224 63.1214 13.1517 63.1214 15.2759C63.1214 17.4885 64.7956 19.1555 67.01 19.1555C68.1845 19.1555 69.0653 18.7296 69.4821 18.4805C69.6783 18.3663 69.8428 18.1272 69.8428 17.8571C69.8428 17.5194 69.5694 17.1924 69.1677 17.1924C69.0495 17.1924 68.9055 17.239 68.7919 17.2963C68.3384 17.5507 67.7258 17.8261 67.0098 17.8261C65.8664 17.8261 64.862 17.1301 64.6302 15.9772H69.6469C70.1469 15.9719 70.5799 15.5047 70.5799 14.9696ZM64.6357 14.6166C64.8213 13.5053 65.8465 12.7211 66.943 12.7211C68.1125 12.7211 69.0135 13.7234 69.1789 14.6166H64.6357ZM24.1465 18.4073V12.1653C24.1465 11.755 23.8169 11.4227 23.41 11.4227C23.0031 11.4227 22.6735 11.755 22.6735 12.1653V18.4026C22.6735 18.8128 23.0031 19.1455 23.41 19.1455C23.8169 19.1505 24.1465 18.8178 24.1465 18.4073ZM32.9333 15.0528C32.9128 13.0481 31.2853 11.4227 29.2921 11.4227C27.2834 11.4227 25.6505 13.069 25.6505 15.0944V18.4026C25.6505 18.8128 25.9802 19.1455 26.387 19.1455C26.7939 19.1455 27.1235 18.8128 27.1235 18.4026V15.0944C27.1235 13.8896 28.0972 12.9079 29.2921 12.9079C30.487 12.9079 31.4606 13.8896 31.4606 15.0944C31.4606 15.0997 31.4606 15.1101 31.4606 15.1154V18.4026C31.4606 18.8128 31.7902 19.1455 32.1971 19.1455C32.604 19.1455 32.9336 18.8128 32.9336 18.4026V15.0944C32.9386 15.0841 32.9333 15.0685 32.9333 15.0528ZM23.4097 8.00029C22.8843 8.00029 22.4622 8.43123 22.4622 8.95572C22.4622 9.48022 22.8895 9.91145 23.4097 9.91145C23.9349 9.91145 24.3576 9.48051 24.3576 8.95572C24.3576 8.43093 23.9352 8.00029 23.4097 8.00029ZM18.9339 20.2877H14.1698C13.7989 20.2877 13.5 20.5891 13.5 20.9631C13.5 21.337 13.7989 21.6384 14.1698 21.6384H18.9342C19.3051 21.6384 19.6037 21.337 19.6037 20.9631C19.6037 20.5941 19.3048 20.2877 18.9339 20.2877ZM17.2858 14.6892V18.4073C17.2858 18.8178 16.9562 19.1505 16.5493 19.1505C16.1425 19.1505 15.8128 18.8178 15.8128 18.4073V12.1653C15.8128 11.5888 15.9364 11.0071 16.2042 10.4566C16.6574 9.53217 17.4354 8.83618 18.4035 8.50885C19.3718 8.1765 20.4072 8.2441 21.324 8.701C21.6899 8.88252 21.8389 9.32939 21.6589 9.69805C21.4786 10.067 21.0357 10.2172 20.6751 10.0357C20.1136 9.75531 19.4749 9.71369 18.8774 9.91617C18.2852 10.1186 17.806 10.5446 17.5279 11.1107C17.3631 11.4483 17.2858 11.8067 17.2858 12.1597V13.3282H20.2011C20.572 13.3282 20.8709 13.6296 20.8709 14.0035C20.8709 14.3775 20.572 14.6785 20.2011 14.6785H17.2858V14.6892Z" fill="#378E2B"/>
<path d="M93.5 21.6435H87.1958V28H93.5V21.6435Z" fill="#008D54"/>
<path d="M92.1148 23.3155C91.7234 23.5492 91.5996 23.5649 91.1825 23.8193C91.4246 23.5492 91.5121 23.4347 91.6664 23.2116C91.2805 23.2322 90.7086 23.2739 90.3066 23.3671C90.6567 23.1803 91.3572 22.9672 91.7278 22.9155C91.6403 22.7963 90.9503 22.417 90.7806 22.3494C91.3262 22.391 91.996 22.5985 92.3206 22.7963C92.4491 22.7544 92.5829 22.7544 92.8147 22.7337C92.7582 22.8376 92.7582 22.8999 92.5211 23.0557C92.5882 23.2272 92.4336 24.188 92.3051 24.4424C92.2951 24.0428 92.2588 23.5389 92.1148 23.3155Z" fill="white"/>
<path d="M89.2667 26.7538C89.0398 26.6705 88.88 26.5722 88.7049 26.4055C88.7565 26.2605 88.8182 26.141 88.9163 25.9952C88.7363 26.0212 88.6022 26.0421 88.4427 26.0734C88.3139 25.845 88.2571 25.6319 88.19 25.3305C88.1593 25.6469 88.1438 25.876 88.1851 26.1304C88.0457 26.1667 87.943 26.208 87.8247 26.2603C87.9892 26.3639 88.1236 26.4418 88.3086 26.5247C88.4119 26.7428 88.5094 26.8883 88.6798 27.0545C88.6382 26.9146 88.628 26.8001 88.6435 26.6549C88.8542 26.7172 89.0346 26.7484 89.2667 26.7538Z" fill="white"/>
<path d="M89.8483 23.5703C89.776 23.6585 89.694 23.83 89.6732 23.9079C90.2502 23.9909 90.7136 24.2869 90.7136 24.2869C90.2086 24.1936 89.9411 24.204 89.7558 24.2246C89.5652 24.2403 89.5292 24.2662 89.5292 24.2662C89.3954 24.5623 89.3129 25.0764 89.3129 25.0764C89.2204 24.8583 89.0866 24.4061 89.0866 24.4061C88.829 24.5413 88.2471 25.0971 88.2471 25.0971C88.5664 24.4481 88.896 24.1517 88.896 24.1517C88.7877 24.0378 88.4892 23.9808 88.2728 23.9702C88.3861 23.9236 88.6744 23.8713 88.8908 23.8613C89.1071 23.8509 89.2461 23.8666 89.2461 23.8666C89.4467 23.7155 89.745 23.5806 89.8483 23.5703Z" fill="white"/>
<path d="M90.4562 26.3488C90.3531 26.4887 90.2656 26.5979 90.1573 26.7278C89.9614 26.7797 89.8072 26.8001 89.6216 26.8001C89.7355 26.8573 89.8482 26.8933 89.9667 26.9196C89.8485 27.0341 89.7451 27.1118 89.6269 27.1897C89.8282 27.1377 90.085 27.0545 90.2758 26.9403C90.3739 26.9459 90.472 26.935 90.5387 26.9246C90.5229 26.8677 90.5129 26.8207 90.4922 26.7481C90.6722 26.6029 90.8065 26.4781 90.9558 26.3225C90.7963 26.4364 90.657 26.5194 90.472 26.6079C90.4661 26.5197 90.4661 26.4474 90.4562 26.3488Z" fill="white"/>
<path d="M45.3053 25.1334C45.2951 25.3618 45.2795 25.845 45.2746 26.1251C45.0275 26.255 44.6358 26.3279 44.26 26.3279C43.4052 26.3279 42.854 25.788 42.854 25.1177C42.854 24.4114 43.4257 23.8816 44.363 23.8816C44.5793 23.8816 44.8987 23.9179 45.1253 23.9749L44.9605 24.4318C44.8009 24.3279 44.5381 24.2503 44.3577 24.2503C43.8171 24.2503 43.6265 24.7334 43.6265 25.1227C43.6265 25.7718 43.9716 25.9849 44.363 25.9849C44.4093 25.9849 44.5588 25.9799 44.6051 25.9642C44.6051 25.6838 44.5998 25.3252 44.5793 25.1334H45.3053ZM45.7587 23.9389C45.795 24.1779 45.795 24.6502 45.795 25.0451C45.795 25.5073 45.7898 25.9229 45.7488 26.2656H46.5163C46.48 25.9126 46.48 25.2476 46.48 25.0451C46.48 24.8893 46.4853 24.5466 46.4955 24.2612C46.5471 24.2556 46.6914 24.2556 46.7686 24.2556C46.9387 24.2556 47.2888 24.3438 47.2888 24.6552C47.2888 24.9775 47.0005 25.1331 46.6709 25.0861C46.9437 25.4967 47.2218 25.9849 47.3714 26.2606H48.1954C48.0821 26.141 47.5207 25.4085 47.4536 25.2839C47.7885 25.1487 47.9996 24.9412 47.9996 24.6552C47.9996 24.1154 47.3968 23.9336 46.8922 23.9336H45.759L45.7587 23.9389ZM57.4251 26.3276C58.1408 26.3276 58.6765 25.8291 58.6765 25.1021C58.6765 24.3698 58.1356 23.8766 57.4251 23.8766C56.7035 23.8766 56.1681 24.3698 56.1681 25.1021C56.1629 25.8291 56.7035 26.3276 57.4251 26.3276ZM57.4251 24.1776C57.7544 24.1776 57.9605 24.5047 57.9605 25.1071C57.9605 25.7042 57.7544 26.0315 57.4251 26.0315C57.0902 26.0315 56.8792 25.7092 56.8792 25.1071C56.8792 24.505 57.0905 24.1776 57.4251 24.1776ZM48.4679 23.9389C48.4937 24.105 48.4987 24.4583 48.4987 24.6765V25.5177C48.4987 26.1771 48.9108 26.3232 49.5753 26.3232C50.3118 26.3232 50.6827 26.0891 50.6827 25.5543V24.8949C50.6827 24.5209 50.6827 24.1419 50.7085 23.9341H50.0697C50.0853 24.0327 50.0902 24.0587 50.0902 24.2975V25.4244C50.0902 25.8969 49.8379 26.0008 49.5803 26.0008C49.2867 26.0008 49.1889 25.8243 49.1889 25.523V24.417C49.1889 24.2509 49.1942 24.0947 49.2094 23.9338H48.4676V23.9389H48.4679ZM51.1821 23.9336C51.2131 24.157 51.2234 24.7075 51.2234 25.0398C51.2234 25.4138 51.2131 25.9436 51.1821 26.2606H51.9391C51.9186 26.0425 51.9236 25.6472 51.9031 25.3252C51.9444 25.3308 52.0834 25.3308 52.1349 25.3308C53.0002 25.3308 53.4332 25.0971 53.4332 24.6192C53.4332 24.0791 52.8252 23.9389 52.3308 23.9389H51.1821V23.9336ZM52.1095 24.2556C52.372 24.2556 52.7172 24.3075 52.7172 24.6189C52.7172 24.9356 52.3823 25.0035 52.1402 25.0035C52.0629 25.0035 51.9447 25.0035 51.9189 24.9979C51.9136 24.9153 51.9084 24.8267 51.9084 24.7175C51.9084 24.567 51.9189 24.4114 51.9189 24.2609L52.1095 24.2556ZM53.7007 23.9336C53.7315 24.157 53.7423 24.7075 53.7423 25.0398C53.7423 25.4138 53.7318 25.9436 53.7007 26.2606H54.4583C54.4375 26.0425 54.4422 25.6472 54.422 25.3252C54.4633 25.3308 54.6023 25.3308 54.6539 25.3308C55.5192 25.3308 55.9518 25.0971 55.9518 24.6192C55.9518 24.0791 55.3441 23.9389 54.8494 23.9389H53.7007V23.9336ZM54.6278 24.2556C54.8907 24.2556 55.2358 24.3075 55.2358 24.6189C55.2358 24.9356 54.9009 25.0035 54.6588 25.0035C54.5816 25.0035 54.463 25.0035 54.4372 24.9979C54.432 24.9153 54.4273 24.8267 54.4273 24.7175C54.4273 24.567 54.4372 24.4114 54.4372 24.2609L54.6278 24.2556ZM59.8972 23.9336C59.9279 24.2349 59.9332 24.7231 59.9332 25.0398C59.9332 25.5227 59.923 25.9586 59.8916 26.2606H61.1486C61.6945 26.2606 62.2768 26.0994 62.2768 25.616C62.2768 25.3409 62.071 25.1281 61.7051 24.9929C61.9832 24.8996 62.1635 24.7021 62.1635 24.4893C62.1635 24.0894 61.6945 23.9336 61.2672 23.9336H59.8972ZM60.9171 24.2296C61.2467 24.2296 61.453 24.3232 61.453 24.5463C61.453 24.7541 61.2367 24.8423 61.0716 24.8423H60.9323L60.7985 25.1957H60.994C61.3134 25.1957 61.5555 25.3202 61.5555 25.59C61.5555 25.8341 61.3699 25.9486 60.9736 25.9486H60.6387C60.6185 25.616 60.6185 25.4604 60.6185 25.0398C60.6185 24.6971 60.6235 24.5463 60.6387 24.2452C60.6902 24.2399 60.8038 24.2296 60.9171 24.2296ZM64.1927 23.9389V25.2892C64.1772 25.2373 64.1619 25.206 64.1256 25.1487L63.3891 23.9386H62.6834C62.6992 24.2033 62.7091 24.8267 62.7091 25.0448C62.7091 25.2473 62.7039 25.912 62.6679 26.2653H63.2911C63.2653 26.0681 63.2603 25.6685 63.2603 25.3875V24.6499C63.2808 24.7644 63.3326 24.863 63.4047 24.9666L64.2799 26.265H64.8212C64.7904 25.9483 64.7849 25.2523 64.7849 25.0445C64.7849 24.8161 64.8007 24.203 64.8212 23.9383H64.1927V23.9389ZM65.3519 23.9336C65.3826 24.157 65.3929 24.7075 65.3929 25.0398C65.3929 25.4138 65.3829 25.9436 65.3519 26.2606H66.1089C66.0884 26.0425 66.0934 25.6472 66.0781 25.3252C66.1141 25.3308 66.2582 25.3308 66.31 25.3308C67.1806 25.3308 67.6082 25.0971 67.6082 24.6192C67.6082 24.0791 67.0052 23.9389 66.5005 23.9389H65.3522V23.9336H65.3519ZM66.2842 24.2556C66.5465 24.2556 66.8919 24.3075 66.8919 24.6189C66.8919 24.9356 66.557 25.0035 66.31 25.0035C66.2324 25.0035 66.1141 25.0035 66.0834 24.9979C66.0834 24.9153 66.0781 24.8267 66.0781 24.7175C66.0781 24.567 66.0834 24.4114 66.0834 24.2609L66.2842 24.2556ZM68.8441 23.9336C68.8749 24.157 68.8801 24.7075 68.8801 25.0398C68.8801 25.4138 68.8696 25.9436 68.8441 26.2606H69.6008C69.5806 26.0425 69.5856 25.6472 69.5651 25.3252C69.6064 25.3308 69.7454 25.3308 69.797 25.3308C70.6675 25.3308 71.0949 25.0971 71.0949 24.6192C71.0949 24.0791 70.4922 23.9389 69.9878 23.9389H68.8444L68.8441 23.9336ZM69.7765 24.2556C70.0387 24.2556 70.3842 24.3075 70.3842 24.6189C70.3842 24.9356 70.044 25.0035 69.8022 25.0035C69.7247 25.0035 69.6064 25.0035 69.5806 24.9979C69.5754 24.9153 69.5701 24.8267 69.5701 24.7175C69.5701 24.567 69.5806 24.4114 69.5806 24.2609L69.7765 24.2556ZM71.9034 23.9389C71.7641 24.3075 71.0071 25.9746 70.8783 26.2656H71.5378C71.5943 26.1047 71.6511 25.9539 71.7234 25.7621C71.8469 25.7567 71.9602 25.7514 72.1145 25.7514C72.2743 25.7514 72.3926 25.7514 72.5108 25.757C72.6244 26.0528 72.6812 26.1773 72.7122 26.2659H73.4692C73.2942 25.8919 72.5319 24.2142 72.4444 23.9392H71.9034V23.9389ZM72.3771 25.4034C72.274 25.4088 72.2175 25.4088 72.1092 25.4088C72.0322 25.4088 71.9189 25.4034 71.8311 25.4034C71.8982 25.206 72.0372 24.9049 72.099 24.7021C72.1663 24.8943 72.2895 25.1747 72.3771 25.4034ZM73.742 23.9389C73.7728 24.1779 73.7781 24.6502 73.7781 25.0451C73.7781 25.5073 73.7681 25.9229 73.7318 26.2656H74.4993C74.463 25.9126 74.463 25.2476 74.463 25.0451C74.463 24.8893 74.4686 24.5466 74.4788 24.2612C74.5304 24.2556 74.6747 24.2556 74.752 24.2556C74.9217 24.2556 75.2774 24.3438 75.2774 24.6552C75.2774 24.9775 74.9888 25.1331 74.6592 25.0861C74.9323 25.4967 75.2104 25.9849 75.3597 26.2606H76.1837C76.0704 26.141 75.5142 25.4085 75.4422 25.2839C75.7774 25.1487 75.9881 24.9412 75.9881 24.6552C75.9881 24.1154 75.3854 23.9336 74.8811 23.9336H73.7423L73.742 23.9389ZM76.4978 23.9389C76.5133 24.2036 76.5233 24.827 76.5233 25.0504C76.5233 25.2476 76.5183 25.9126 76.4823 26.2656H77.2445C77.2135 25.9489 77.2135 25.2529 77.2135 25.0504C77.2135 24.827 77.224 24.2039 77.2445 23.9389H76.4978ZM77.7442 23.9336C77.775 24.2349 77.7802 24.7231 77.7802 25.0398C77.7802 25.5227 77.7697 25.9586 77.7387 26.2606H78.9904C79.5363 26.2606 80.1185 26.0994 80.1185 25.616C80.1185 25.3409 79.9125 25.1281 79.5468 24.9929C79.82 24.8996 80.005 24.7021 80.005 24.4893C80.005 24.0894 79.5363 23.9336 79.1086 23.9336H77.7442ZM78.7641 24.2296C79.0993 24.2296 79.2998 24.3232 79.2998 24.5463C79.2998 24.7541 79.0837 24.8423 78.9184 24.8423H78.7796L78.6455 25.1957H78.8414C79.1607 25.1957 79.4081 25.3202 79.4081 25.59C79.4081 25.8341 79.2175 25.9486 78.8258 25.9486H78.491C78.4708 25.616 78.4708 25.4604 78.4708 25.0398C78.4708 24.6971 78.4757 24.5463 78.491 24.2452C78.5428 24.2399 78.6558 24.2296 78.7641 24.2296ZM81.2312 23.9389C81.0974 24.3075 80.3349 25.9746 80.2113 26.2656H80.8705C80.927 26.1047 80.9888 25.9539 81.0561 25.7621C81.1797 25.7567 81.2933 25.7514 81.4478 25.7514C81.6071 25.7514 81.7256 25.7514 81.8392 25.757C81.9525 26.0528 82.009 26.1773 82.04 26.2659H82.7973C82.6219 25.8919 81.86 24.2142 81.7724 23.9392H81.2312V23.9389ZM81.7101 25.4034C81.6068 25.4088 81.5506 25.4088 81.4478 25.4088C81.3702 25.4088 81.252 25.4034 81.1697 25.4034C81.2365 25.206 81.3758 24.9049 81.4376 24.7021C81.499 24.8943 81.6226 25.1747 81.7101 25.4034ZM83.9866 23.8766C83.3789 23.8766 82.9671 24.1157 82.9671 24.531C82.9671 25.2842 84.2753 25.2423 84.2753 25.6838C84.2753 25.8394 84.1415 25.9229 83.9612 25.9229C83.7399 25.9229 83.4823 25.8503 82.9981 25.6163V26.1824C83.2042 26.2609 83.5028 26.3232 83.8221 26.3232C84.5276 26.3232 84.95 26.0321 84.95 25.5752C84.95 24.8739 83.6368 24.8686 83.6368 24.4743C83.6368 24.3964 83.6573 24.2928 83.9149 24.2928C84.2445 24.2928 84.4919 24.4173 84.7442 24.5625V23.9704C84.5689 23.9179 84.2802 23.8766 83.9866 23.8766Z" fill="black"/>
</svg>
