<svg width="48" height="48" viewBox="0 0 48 48" fill="none" xmlns="http://www.w3.org/2000/svg">
<path fill-rule="evenodd" clip-rule="evenodd" d="M44.3785 0H30.4775V12.8167C30.4775 13.3375 30.1818 13.8205 29.6973 14.0906C29.2128 14.3609 28.61 14.3789 28.1074 14.1385L24.0129 12.1798L20.0761 14.1286C19.8358 14.2477 19.5713 14.3069 19.3072 14.3069C19.0192 14.3069 18.7315 14.2364 18.4759 14.0961C17.9859 13.827 17.6858 13.3411 17.6858 12.8167V0H3.62144C2.72597 0 2 0.667205 2 1.49019V38.4998C2 39.3228 2.72597 39.99 3.62144 39.99H10.6658C9.99542 38.3577 9.66411 36.5874 9.66411 34.6425V26.6442C9.66411 25.4521 10.6388 24.4417 11.9313 24.2943C13.6893 24.0938 15.244 23.0469 15.9889 21.5623C16.2538 21.0344 16.8287 20.6961 17.4614 20.6961H30.5385C31.1712 20.6961 31.746 21.0343 32.0109 21.5623C32.756 23.047 34.3106 24.0938 36.0686 24.2943C37.3611 24.4417 38.3358 25.452 38.3358 26.6442V34.6425C38.3358 36.5875 38.0045 38.3577 37.3341 39.99H44.3786C45.274 39.99 46 39.3228 46 38.4998V1.49019C45.9999 0.667205 45.2739 0 44.3785 0ZM20.9286 10.3214L23.2309 9.18172C23.7038 8.94767 24.2721 8.94399 24.7485 9.17179L27.2346 10.3611V0H20.9286V10.3214ZM35.0929 27.1671V34.6426C35.0929 39.5409 32.6427 42.9591 26.8999 46.0726L24.8238 47.1982C24.3156 47.4738 23.6843 47.4738 23.1761 47.1982L21.1 46.0727C15.3572 42.9592 12.9069 39.541 12.9069 34.6427V27.1672C15.1793 26.7554 17.1915 25.4751 18.4227 23.6766H29.5773C30.8083 25.475 32.8206 26.7554 35.0929 27.1671ZM21.3581 39.7196C21.6746 40.0107 22.0896 40.1561 22.5046 40.1561C22.9195 40.1561 23.3345 40.0106 23.651 39.7197L29.9299 33.9491C30.5631 33.3671 30.5631 32.4236 29.9299 31.8417C29.2967 31.2597 28.27 31.2597 27.6369 31.8417L22.5046 36.5585L20.3629 34.5902C19.7296 34.0082 18.7029 34.0082 18.0698 34.5902C17.4366 35.1721 17.4366 36.1157 18.0698 36.6976L21.3581 39.7196Z" fill="black"/>
<path fill-rule="evenodd" clip-rule="evenodd" d="M44.3785 0H30.4775V12.8167C30.4775 13.3375 30.1818 13.8205 29.6973 14.0906C29.2128 14.3609 28.61 14.3789 28.1074 14.1385L24.0129 12.1798L20.0761 14.1286C19.8358 14.2477 19.5713 14.3069 19.3072 14.3069C19.0192 14.3069 18.7315 14.2364 18.4759 14.0961C17.9859 13.827 17.6858 13.3411 17.6858 12.8167V0H3.62144C2.72597 0 2 0.667205 2 1.49019V38.4998C2 39.3228 2.72597 39.99 3.62144 39.99H10.6658C9.99542 38.3577 9.66411 36.5874 9.66411 34.6425V26.6442C9.66411 25.4521 10.6388 24.4417 11.9313 24.2943C13.6893 24.0938 15.244 23.0469 15.9889 21.5623C16.2538 21.0344 16.8287 20.6961 17.4614 20.6961H30.5385C31.1712 20.6961 31.746 21.0343 32.0109 21.5623C32.756 23.047 34.3106 24.0938 36.0686 24.2943C37.3611 24.4417 38.3358 25.452 38.3358 26.6442V34.6425C38.3358 36.5875 38.0045 38.3577 37.3341 39.99H44.3786C45.274 39.99 46 39.3228 46 38.4998V1.49019C45.9999 0.667205 45.2739 0 44.3785 0ZM20.9286 10.3214L23.2309 9.18172C23.7038 8.94767 24.2721 8.94399 24.7485 9.17179L27.2346 10.3611V0H20.9286V10.3214ZM35.0929 27.1671V34.6426C35.0929 39.5409 32.6427 42.9591 26.8999 46.0726L24.8238 47.1982C24.3156 47.4738 23.6843 47.4738 23.1761 47.1982L21.1 46.0727C15.3572 42.9592 12.9069 39.541 12.9069 34.6427V27.1672C15.1793 26.7554 17.1915 25.4751 18.4227 23.6766H29.5773C30.8083 25.475 32.8206 26.7554 35.0929 27.1671ZM21.3581 39.7196C21.6746 40.0107 22.0896 40.1561 22.5046 40.1561C22.9195 40.1561 23.3345 40.0106 23.651 39.7197L29.9299 33.9491C30.5631 33.3671 30.5631 32.4236 29.9299 31.8417C29.2967 31.2597 28.27 31.2597 27.6369 31.8417L22.5046 36.5585L20.3629 34.5902C19.7296 34.0082 18.7029 34.0082 18.0698 34.5902C17.4366 35.1721 17.4366 36.1157 18.0698 36.6976L21.3581 39.7196Z" fill="black" fill-opacity="0.2"/>
<path fill-rule="evenodd" clip-rule="evenodd" d="M44.3785 0H30.4775V12.8167C30.4775 13.3375 30.1818 13.8205 29.6973 14.0906C29.2128 14.3609 28.61 14.3789 28.1074 14.1385L24.0129 12.1798L20.0761 14.1286C19.8358 14.2477 19.5713 14.3069 19.3072 14.3069C19.0192 14.3069 18.7315 14.2364 18.4759 14.0961C17.9859 13.827 17.6858 13.3411 17.6858 12.8167V0H3.62144C2.72597 0 2 0.667205 2 1.49019V38.4998C2 39.3228 2.72597 39.99 3.62144 39.99H10.6658C9.99542 38.3577 9.66411 36.5874 9.66411 34.6425V26.6442C9.66411 25.4521 10.6388 24.4417 11.9313 24.2943C13.6893 24.0938 15.244 23.0469 15.9889 21.5623C16.2538 21.0344 16.8287 20.6961 17.4614 20.6961H30.5385C31.1712 20.6961 31.746 21.0343 32.0109 21.5623C32.756 23.047 34.3106 24.0938 36.0686 24.2943C37.3611 24.4417 38.3358 25.452 38.3358 26.6442V34.6425C38.3358 36.5875 38.0045 38.3577 37.3341 39.99H44.3786C45.274 39.99 46 39.3228 46 38.4998V1.49019C45.9999 0.667205 45.2739 0 44.3785 0ZM20.9286 10.3214L23.2309 9.18172C23.7038 8.94767 24.2721 8.94399 24.7485 9.17179L27.2346 10.3611V0H20.9286V10.3214ZM35.0929 27.1671V34.6426C35.0929 39.5409 32.6427 42.9591 26.8999 46.0726L24.8238 47.1982C24.3156 47.4738 23.6843 47.4738 23.1761 47.1982L21.1 46.0727C15.3572 42.9592 12.9069 39.541 12.9069 34.6427V27.1672C15.1793 26.7554 17.1915 25.4751 18.4227 23.6766H29.5773C30.8083 25.475 32.8206 26.7554 35.0929 27.1671ZM21.3581 39.7196C21.6746 40.0107 22.0896 40.1561 22.5046 40.1561C22.9195 40.1561 23.3345 40.0106 23.651 39.7197L29.9299 33.9491C30.5631 33.3671 30.5631 32.4236 29.9299 31.8417C29.2967 31.2597 28.27 31.2597 27.6369 31.8417L22.5046 36.5585L20.3629 34.5902C19.7296 34.0082 18.7029 34.0082 18.0698 34.5902C17.4366 35.1721 17.4366 36.1157 18.0698 36.6976L21.3581 39.7196Z" fill="black" fill-opacity="0.2"/>
<path fill-rule="evenodd" clip-rule="evenodd" d="M44.3785 0H30.4775V12.8167C30.4775 13.3375 30.1818 13.8205 29.6973 14.0906C29.2128 14.3609 28.61 14.3789 28.1074 14.1385L24.0129 12.1798L20.0761 14.1286C19.8358 14.2477 19.5713 14.3069 19.3072 14.3069C19.0192 14.3069 18.7315 14.2364 18.4759 14.0961C17.9859 13.827 17.6858 13.3411 17.6858 12.8167V0H3.62144C2.72597 0 2 0.667205 2 1.49019V38.4998C2 39.3228 2.72597 39.99 3.62144 39.99H10.6658C9.99542 38.3577 9.66411 36.5874 9.66411 34.6425V26.6442C9.66411 25.4521 10.6388 24.4417 11.9313 24.2943C13.6893 24.0938 15.244 23.0469 15.9889 21.5623C16.2538 21.0344 16.8287 20.6961 17.4614 20.6961H30.5385C31.1712 20.6961 31.746 21.0343 32.0109 21.5623C32.756 23.047 34.3106 24.0938 36.0686 24.2943C37.3611 24.4417 38.3358 25.452 38.3358 26.6442V34.6425C38.3358 36.5875 38.0045 38.3577 37.3341 39.99H44.3786C45.274 39.99 46 39.3228 46 38.4998V1.49019C45.9999 0.667205 45.2739 0 44.3785 0ZM20.9286 10.3214L23.2309 9.18172C23.7038 8.94767 24.2721 8.94399 24.7485 9.17179L27.2346 10.3611V0H20.9286V10.3214ZM35.0929 27.1671V34.6426C35.0929 39.5409 32.6427 42.9591 26.8999 46.0726L24.8238 47.1982C24.3156 47.4738 23.6843 47.4738 23.1761 47.1982L21.1 46.0727C15.3572 42.9592 12.9069 39.541 12.9069 34.6427V27.1672C15.1793 26.7554 17.1915 25.4751 18.4227 23.6766H29.5773C30.8083 25.475 32.8206 26.7554 35.0929 27.1671ZM21.3581 39.7196C21.6746 40.0107 22.0896 40.1561 22.5046 40.1561C22.9195 40.1561 23.3345 40.0106 23.651 39.7197L29.9299 33.9491C30.5631 33.3671 30.5631 32.4236 29.9299 31.8417C29.2967 31.2597 28.27 31.2597 27.6369 31.8417L22.5046 36.5585L20.3629 34.5902C19.7296 34.0082 18.7029 34.0082 18.0698 34.5902C17.4366 35.1721 17.4366 36.1157 18.0698 36.6976L21.3581 39.7196Z" fill="black" fill-opacity="0.2"/>
<path fill-rule="evenodd" clip-rule="evenodd" d="M44.3785 0H30.4775V12.8167C30.4775 13.3375 30.1818 13.8205 29.6973 14.0906C29.2128 14.3609 28.61 14.3789 28.1074 14.1385L24.0129 12.1798L20.0761 14.1286C19.8358 14.2477 19.5713 14.3069 19.3072 14.3069C19.0192 14.3069 18.7315 14.2364 18.4759 14.0961C17.9859 13.827 17.6858 13.3411 17.6858 12.8167V0H3.62144C2.72597 0 2 0.667205 2 1.49019V38.4998C2 39.3228 2.72597 39.99 3.62144 39.99H10.6658C9.99542 38.3577 9.66411 36.5874 9.66411 34.6425V26.6442C9.66411 25.4521 10.6388 24.4417 11.9313 24.2943C13.6893 24.0938 15.244 23.0469 15.9889 21.5623C16.2538 21.0344 16.8287 20.6961 17.4614 20.6961H30.5385C31.1712 20.6961 31.746 21.0343 32.0109 21.5623C32.756 23.047 34.3106 24.0938 36.0686 24.2943C37.3611 24.4417 38.3358 25.452 38.3358 26.6442V34.6425C38.3358 36.5875 38.0045 38.3577 37.3341 39.99H44.3786C45.274 39.99 46 39.3228 46 38.4998V1.49019C45.9999 0.667205 45.2739 0 44.3785 0ZM20.9286 10.3214L23.2309 9.18172C23.7038 8.94767 24.2721 8.94399 24.7485 9.17179L27.2346 10.3611V0H20.9286V10.3214ZM35.0929 27.1671V34.6426C35.0929 39.5409 32.6427 42.9591 26.8999 46.0726L24.8238 47.1982C24.3156 47.4738 23.6843 47.4738 23.1761 47.1982L21.1 46.0727C15.3572 42.9592 12.9069 39.541 12.9069 34.6427V27.1672C15.1793 26.7554 17.1915 25.4751 18.4227 23.6766H29.5773C30.8083 25.475 32.8206 26.7554 35.0929 27.1671ZM21.3581 39.7196C21.6746 40.0107 22.0896 40.1561 22.5046 40.1561C22.9195 40.1561 23.3345 40.0106 23.651 39.7197L29.9299 33.9491C30.5631 33.3671 30.5631 32.4236 29.9299 31.8417C29.2967 31.2597 28.27 31.2597 27.6369 31.8417L22.5046 36.5585L20.3629 34.5902C19.7296 34.0082 18.7029 34.0082 18.0698 34.5902C17.4366 35.1721 17.4366 36.1157 18.0698 36.6976L21.3581 39.7196Z" fill="black" fill-opacity="0.2"/>
<path fill-rule="evenodd" clip-rule="evenodd" d="M44.3785 0H30.4775V12.8167C30.4775 13.3375 30.1818 13.8205 29.6973 14.0906C29.2128 14.3609 28.61 14.3789 28.1074 14.1385L24.0129 12.1798L20.0761 14.1286C19.8358 14.2477 19.5713 14.3069 19.3072 14.3069C19.0192 14.3069 18.7315 14.2364 18.4759 14.0961C17.9859 13.827 17.6858 13.3411 17.6858 12.8167V0H3.62144C2.72597 0 2 0.667205 2 1.49019V38.4998C2 39.3228 2.72597 39.99 3.62144 39.99H10.6658C9.99542 38.3577 9.66411 36.5874 9.66411 34.6425V26.6442C9.66411 25.4521 10.6388 24.4417 11.9313 24.2943C13.6893 24.0938 15.244 23.0469 15.9889 21.5623C16.2538 21.0344 16.8287 20.6961 17.4614 20.6961H30.5385C31.1712 20.6961 31.746 21.0343 32.0109 21.5623C32.756 23.047 34.3106 24.0938 36.0686 24.2943C37.3611 24.4417 38.3358 25.452 38.3358 26.6442V34.6425C38.3358 36.5875 38.0045 38.3577 37.3341 39.99H44.3786C45.274 39.99 46 39.3228 46 38.4998V1.49019C45.9999 0.667205 45.2739 0 44.3785 0ZM20.9286 10.3214L23.2309 9.18172C23.7038 8.94767 24.2721 8.94399 24.7485 9.17179L27.2346 10.3611V0H20.9286V10.3214ZM35.0929 27.1671V34.6426C35.0929 39.5409 32.6427 42.9591 26.8999 46.0726L24.8238 47.1982C24.3156 47.4738 23.6843 47.4738 23.1761 47.1982L21.1 46.0727C15.3572 42.9592 12.9069 39.541 12.9069 34.6427V27.1672C15.1793 26.7554 17.1915 25.4751 18.4227 23.6766H29.5773C30.8083 25.475 32.8206 26.7554 35.0929 27.1671ZM21.3581 39.7196C21.6746 40.0107 22.0896 40.1561 22.5046 40.1561C22.9195 40.1561 23.3345 40.0106 23.651 39.7197L29.9299 33.9491C30.5631 33.3671 30.5631 32.4236 29.9299 31.8417C29.2967 31.2597 28.27 31.2597 27.6369 31.8417L22.5046 36.5585L20.3629 34.5902C19.7296 34.0082 18.7029 34.0082 18.0698 34.5902C17.4366 35.1721 17.4366 36.1157 18.0698 36.6976L21.3581 39.7196Z" fill="black" fill-opacity="0.2"/>
<path fill-rule="evenodd" clip-rule="evenodd" d="M44.3785 0H30.4775V12.8167C30.4775 13.3375 30.1818 13.8205 29.6973 14.0906C29.2128 14.3609 28.61 14.3789 28.1074 14.1385L24.0129 12.1798L20.0761 14.1286C19.8358 14.2477 19.5713 14.3069 19.3072 14.3069C19.0192 14.3069 18.7315 14.2364 18.4759 14.0961C17.9859 13.827 17.6858 13.3411 17.6858 12.8167V0H3.62144C2.72597 0 2 0.667205 2 1.49019V38.4998C2 39.3228 2.72597 39.99 3.62144 39.99H10.6658C9.99542 38.3577 9.66411 36.5874 9.66411 34.6425V26.6442C9.66411 25.4521 10.6388 24.4417 11.9313 24.2943C13.6893 24.0938 15.244 23.0469 15.9889 21.5623C16.2538 21.0344 16.8287 20.6961 17.4614 20.6961H30.5385C31.1712 20.6961 31.746 21.0343 32.0109 21.5623C32.756 23.047 34.3106 24.0938 36.0686 24.2943C37.3611 24.4417 38.3358 25.452 38.3358 26.6442V34.6425C38.3358 36.5875 38.0045 38.3577 37.3341 39.99H44.3786C45.274 39.99 46 39.3228 46 38.4998V1.49019C45.9999 0.667205 45.2739 0 44.3785 0ZM20.9286 10.3214L23.2309 9.18172C23.7038 8.94767 24.2721 8.94399 24.7485 9.17179L27.2346 10.3611V0H20.9286V10.3214ZM35.0929 27.1671V34.6426C35.0929 39.5409 32.6427 42.9591 26.8999 46.0726L24.8238 47.1982C24.3156 47.4738 23.6843 47.4738 23.1761 47.1982L21.1 46.0727C15.3572 42.9592 12.9069 39.541 12.9069 34.6427V27.1672C15.1793 26.7554 17.1915 25.4751 18.4227 23.6766H29.5773C30.8083 25.475 32.8206 26.7554 35.0929 27.1671ZM21.3581 39.7196C21.6746 40.0107 22.0896 40.1561 22.5046 40.1561C22.9195 40.1561 23.3345 40.0106 23.651 39.7197L29.9299 33.9491C30.5631 33.3671 30.5631 32.4236 29.9299 31.8417C29.2967 31.2597 28.27 31.2597 27.6369 31.8417L22.5046 36.5585L20.3629 34.5902C19.7296 34.0082 18.7029 34.0082 18.0698 34.5902C17.4366 35.1721 17.4366 36.1157 18.0698 36.6976L21.3581 39.7196Z" fill="black" fill-opacity="0.2"/>
<path fill-rule="evenodd" clip-rule="evenodd" d="M44.3785 0H30.4775V12.8167C30.4775 13.3375 30.1818 13.8205 29.6973 14.0906C29.2128 14.3609 28.61 14.3789 28.1074 14.1385L24.0129 12.1798L20.0761 14.1286C19.8358 14.2477 19.5713 14.3069 19.3072 14.3069C19.0192 14.3069 18.7315 14.2364 18.4759 14.0961C17.9859 13.827 17.6858 13.3411 17.6858 12.8167V0H3.62144C2.72597 0 2 0.667205 2 1.49019V38.4998C2 39.3228 2.72597 39.99 3.62144 39.99H10.6658C9.99542 38.3577 9.66411 36.5874 9.66411 34.6425V26.6442C9.66411 25.4521 10.6388 24.4417 11.9313 24.2943C13.6893 24.0938 15.244 23.0469 15.9889 21.5623C16.2538 21.0344 16.8287 20.6961 17.4614 20.6961H30.5385C31.1712 20.6961 31.746 21.0343 32.0109 21.5623C32.756 23.047 34.3106 24.0938 36.0686 24.2943C37.3611 24.4417 38.3358 25.452 38.3358 26.6442V34.6425C38.3358 36.5875 38.0045 38.3577 37.3341 39.99H44.3786C45.274 39.99 46 39.3228 46 38.4998V1.49019C45.9999 0.667205 45.2739 0 44.3785 0ZM20.9286 10.3214L23.2309 9.18172C23.7038 8.94767 24.2721 8.94399 24.7485 9.17179L27.2346 10.3611V0H20.9286V10.3214ZM35.0929 27.1671V34.6426C35.0929 39.5409 32.6427 42.9591 26.8999 46.0726L24.8238 47.1982C24.3156 47.4738 23.6843 47.4738 23.1761 47.1982L21.1 46.0727C15.3572 42.9592 12.9069 39.541 12.9069 34.6427V27.1672C15.1793 26.7554 17.1915 25.4751 18.4227 23.6766H29.5773C30.8083 25.475 32.8206 26.7554 35.0929 27.1671ZM21.3581 39.7196C21.6746 40.0107 22.0896 40.1561 22.5046 40.1561C22.9195 40.1561 23.3345 40.0106 23.651 39.7197L29.9299 33.9491C30.5631 33.3671 30.5631 32.4236 29.9299 31.8417C29.2967 31.2597 28.27 31.2597 27.6369 31.8417L22.5046 36.5585L20.3629 34.5902C19.7296 34.0082 18.7029 34.0082 18.0698 34.5902C17.4366 35.1721 17.4366 36.1157 18.0698 36.6976L21.3581 39.7196Z" fill="black" fill-opacity="0.2"/>
<path fill-rule="evenodd" clip-rule="evenodd" d="M44.3785 0H30.4775V12.8167C30.4775 13.3375 30.1818 13.8205 29.6973 14.0906C29.2128 14.3609 28.61 14.3789 28.1074 14.1385L24.0129 12.1798L20.0761 14.1286C19.8358 14.2477 19.5713 14.3069 19.3072 14.3069C19.0192 14.3069 18.7315 14.2364 18.4759 14.0961C17.9859 13.827 17.6858 13.3411 17.6858 12.8167V0H3.62144C2.72597 0 2 0.667205 2 1.49019V38.4998C2 39.3228 2.72597 39.99 3.62144 39.99H10.6658C9.99542 38.3577 9.66411 36.5874 9.66411 34.6425V26.6442C9.66411 25.4521 10.6388 24.4417 11.9313 24.2943C13.6893 24.0938 15.244 23.0469 15.9889 21.5623C16.2538 21.0344 16.8287 20.6961 17.4614 20.6961H30.5385C31.1712 20.6961 31.746 21.0343 32.0109 21.5623C32.756 23.047 34.3106 24.0938 36.0686 24.2943C37.3611 24.4417 38.3358 25.452 38.3358 26.6442V34.6425C38.3358 36.5875 38.0045 38.3577 37.3341 39.99H44.3786C45.274 39.99 46 39.3228 46 38.4998V1.49019C45.9999 0.667205 45.2739 0 44.3785 0ZM20.9286 10.3214L23.2309 9.18172C23.7038 8.94767 24.2721 8.94399 24.7485 9.17179L27.2346 10.3611V0H20.9286V10.3214ZM35.0929 27.1671V34.6426C35.0929 39.5409 32.6427 42.9591 26.8999 46.0726L24.8238 47.1982C24.3156 47.4738 23.6843 47.4738 23.1761 47.1982L21.1 46.0727C15.3572 42.9592 12.9069 39.541 12.9069 34.6427V27.1672C15.1793 26.7554 17.1915 25.4751 18.4227 23.6766H29.5773C30.8083 25.475 32.8206 26.7554 35.0929 27.1671ZM21.3581 39.7196C21.6746 40.0107 22.0896 40.1561 22.5046 40.1561C22.9195 40.1561 23.3345 40.0106 23.651 39.7197L29.9299 33.9491C30.5631 33.3671 30.5631 32.4236 29.9299 31.8417C29.2967 31.2597 28.27 31.2597 27.6369 31.8417L22.5046 36.5585L20.3629 34.5902C19.7296 34.0082 18.7029 34.0082 18.0698 34.5902C17.4366 35.1721 17.4366 36.1157 18.0698 36.6976L21.3581 39.7196Z" fill="black" fill-opacity="0.2"/>
<path fill-rule="evenodd" clip-rule="evenodd" d="M44.3785 0H30.4775V12.8167C30.4775 13.3375 30.1818 13.8205 29.6973 14.0906C29.2128 14.3609 28.61 14.3789 28.1074 14.1385L24.0129 12.1798L20.0761 14.1286C19.8358 14.2477 19.5713 14.3069 19.3072 14.3069C19.0192 14.3069 18.7315 14.2364 18.4759 14.0961C17.9859 13.827 17.6858 13.3411 17.6858 12.8167V0H3.62144C2.72597 0 2 0.667205 2 1.49019V38.4998C2 39.3228 2.72597 39.99 3.62144 39.99H10.6658C9.99542 38.3577 9.66411 36.5874 9.66411 34.6425V26.6442C9.66411 25.4521 10.6388 24.4417 11.9313 24.2943C13.6893 24.0938 15.244 23.0469 15.9889 21.5623C16.2538 21.0344 16.8287 20.6961 17.4614 20.6961H30.5385C31.1712 20.6961 31.746 21.0343 32.0109 21.5623C32.756 23.047 34.3106 24.0938 36.0686 24.2943C37.3611 24.4417 38.3358 25.452 38.3358 26.6442V34.6425C38.3358 36.5875 38.0045 38.3577 37.3341 39.99H44.3786C45.274 39.99 46 39.3228 46 38.4998V1.49019C45.9999 0.667205 45.2739 0 44.3785 0ZM20.9286 10.3214L23.2309 9.18172C23.7038 8.94767 24.2721 8.94399 24.7485 9.17179L27.2346 10.3611V0H20.9286V10.3214ZM35.0929 27.1671V34.6426C35.0929 39.5409 32.6427 42.9591 26.8999 46.0726L24.8238 47.1982C24.3156 47.4738 23.6843 47.4738 23.1761 47.1982L21.1 46.0727C15.3572 42.9592 12.9069 39.541 12.9069 34.6427V27.1672C15.1793 26.7554 17.1915 25.4751 18.4227 23.6766H29.5773C30.8083 25.475 32.8206 26.7554 35.0929 27.1671ZM21.3581 39.7196C21.6746 40.0107 22.0896 40.1561 22.5046 40.1561C22.9195 40.1561 23.3345 40.0106 23.651 39.7197L29.9299 33.9491C30.5631 33.3671 30.5631 32.4236 29.9299 31.8417C29.2967 31.2597 28.27 31.2597 27.6369 31.8417L22.5046 36.5585L20.3629 34.5902C19.7296 34.0082 18.7029 34.0082 18.0698 34.5902C17.4366 35.1721 17.4366 36.1157 18.0698 36.6976L21.3581 39.7196Z" fill="black" fill-opacity="0.2"/>
</svg>
