<svg width="48" height="48" viewBox="0 0 48 48" fill="none" xmlns="http://www.w3.org/2000/svg">
<rect width="48" height="48" rx="24" fill="black"/>
<rect width="48" height="48" rx="24" fill="black" fill-opacity="0.2"/>
<rect width="48" height="48" rx="24" fill="black" fill-opacity="0.2"/>
<rect width="48" height="48" rx="24" fill="black" fill-opacity="0.2"/>
<rect width="48" height="48" rx="24" fill="black" fill-opacity="0.2"/>
<rect width="48" height="48" rx="24" fill="black" fill-opacity="0.2"/>
<rect width="48" height="48" rx="24" fill="black" fill-opacity="0.2"/>
<rect width="48" height="48" rx="24" fill="black" fill-opacity="0.2"/>
<rect width="48" height="48" rx="24" fill="black" fill-opacity="0.2"/>
<rect width="48" height="48" rx="24" fill="black" fill-opacity="0.2"/>
<path d="M19.991 33.1269L11.8661 24.8455C11.6317 24.6065 11.5 24.2825 11.5 23.9446C11.5 23.6067 11.6317 23.2826 11.8661 23.0436L13.6339 21.2418C13.8683 21.0029 14.1863 20.8686 14.5178 20.8686C14.8493 20.8686 15.1672 21.0029 15.4017 21.2418L20.8749 26.8204L32.5983 14.8731C32.8328 14.6342 33.1507 14.5 33.4822 14.5C33.8137 14.5 34.1317 14.6342 34.3661 14.8731L36.1339 16.675C36.3683 16.9139 36.5 17.238 36.5 17.5759C36.5 17.9138 36.3683 18.2379 36.1339 18.4768L21.7588 33.1269C21.5243 33.3658 21.2064 33.5 20.8749 33.5C20.5433 33.5 20.2254 33.3658 19.991 33.1269Z" fill="white"/>
</svg>
