<svg width="48" height="48" viewBox="0 0 48 48" fill="none" xmlns="http://www.w3.org/2000/svg">
<path fill-rule="evenodd" clip-rule="evenodd" d="M48 20.4917L42.6752 19.1825L42.4081 18.3168C42.055 17.1729 41.5945 16.0634 41.0348 15.0053L40.6108 14.2042L43.4505 9.51038L38.4902 4.54894L33.7961 7.38891L32.9951 6.96534C31.9365 6.40556 30.8265 5.94525 29.6824 5.59153L28.8173 5.32416L27.5079 9.375e-05L20.4917 0L19.1825 5.32594L18.3165 5.59294C17.1727 5.94563 16.063 6.40584 15.0049 6.96544L14.2039 7.38891L9.51028 4.54931L4.54884 9.50972L7.389 14.2039L6.96544 15.0049C6.40566 16.0636 5.94516 17.1734 5.59153 18.3175L5.32416 19.1826L0 20.492V27.5083L5.32463 28.8176L5.59172 29.6832C5.94469 30.8271 6.40519 31.9366 6.96506 32.9947L7.38891 33.7957L4.54922 38.4895L9.50972 43.451L14.2042 40.611L15.0051 41.0345C16.0637 41.5942 17.1733 42.0547 18.3173 42.4083L19.1823 42.6757L20.492 48L27.5083 47.9998L28.818 42.6752L29.6835 42.4081C30.8272 42.0552 31.9366 41.5946 32.9946 41.0348L33.7957 40.6108L38.4895 43.4505L43.4509 38.4901L40.6113 33.7959L41.0348 32.995C41.5945 31.9364 42.0546 30.8265 42.4083 29.6825L42.6757 28.8174L47.9999 27.5079L48 20.4917ZM24.0002 13.0341C30.0459 13.0341 34.966 17.9543 34.966 24C34.966 30.046 30.046 34.9659 24 34.9659C17.9543 34.9659 13.034 30.0457 13.034 24C13.0339 17.9542 17.9543 13.0341 24.0002 13.0341Z" fill="black"/>
<path fill-rule="evenodd" clip-rule="evenodd" d="M48 20.4917L42.6752 19.1825L42.4081 18.3168C42.055 17.1729 41.5945 16.0634 41.0348 15.0053L40.6108 14.2042L43.4505 9.51038L38.4902 4.54894L33.7961 7.38891L32.9951 6.96534C31.9365 6.40556 30.8265 5.94525 29.6824 5.59153L28.8173 5.32416L27.5079 9.375e-05L20.4917 0L19.1825 5.32594L18.3165 5.59294C17.1727 5.94563 16.063 6.40584 15.0049 6.96544L14.2039 7.38891L9.51028 4.54931L4.54884 9.50972L7.389 14.2039L6.96544 15.0049C6.40566 16.0636 5.94516 17.1734 5.59153 18.3175L5.32416 19.1826L0 20.492V27.5083L5.32463 28.8176L5.59172 29.6832C5.94469 30.8271 6.40519 31.9366 6.96506 32.9947L7.38891 33.7957L4.54922 38.4895L9.50972 43.451L14.2042 40.611L15.0051 41.0345C16.0637 41.5942 17.1733 42.0547 18.3173 42.4083L19.1823 42.6757L20.492 48L27.5083 47.9998L28.818 42.6752L29.6835 42.4081C30.8272 42.0552 31.9366 41.5946 32.9946 41.0348L33.7957 40.6108L38.4895 43.4505L43.4509 38.4901L40.6113 33.7959L41.0348 32.995C41.5945 31.9364 42.0546 30.8265 42.4083 29.6825L42.6757 28.8174L47.9999 27.5079L48 20.4917ZM24.0002 13.0341C30.0459 13.0341 34.966 17.9543 34.966 24C34.966 30.046 30.046 34.9659 24 34.9659C17.9543 34.9659 13.034 30.0457 13.034 24C13.0339 17.9542 17.9543 13.0341 24.0002 13.0341Z" fill="black" fill-opacity="0.2"/>
<path fill-rule="evenodd" clip-rule="evenodd" d="M48 20.4917L42.6752 19.1825L42.4081 18.3168C42.055 17.1729 41.5945 16.0634 41.0348 15.0053L40.6108 14.2042L43.4505 9.51038L38.4902 4.54894L33.7961 7.38891L32.9951 6.96534C31.9365 6.40556 30.8265 5.94525 29.6824 5.59153L28.8173 5.32416L27.5079 9.375e-05L20.4917 0L19.1825 5.32594L18.3165 5.59294C17.1727 5.94563 16.063 6.40584 15.0049 6.96544L14.2039 7.38891L9.51028 4.54931L4.54884 9.50972L7.389 14.2039L6.96544 15.0049C6.40566 16.0636 5.94516 17.1734 5.59153 18.3175L5.32416 19.1826L0 20.492V27.5083L5.32463 28.8176L5.59172 29.6832C5.94469 30.8271 6.40519 31.9366 6.96506 32.9947L7.38891 33.7957L4.54922 38.4895L9.50972 43.451L14.2042 40.611L15.0051 41.0345C16.0637 41.5942 17.1733 42.0547 18.3173 42.4083L19.1823 42.6757L20.492 48L27.5083 47.9998L28.818 42.6752L29.6835 42.4081C30.8272 42.0552 31.9366 41.5946 32.9946 41.0348L33.7957 40.6108L38.4895 43.4505L43.4509 38.4901L40.6113 33.7959L41.0348 32.995C41.5945 31.9364 42.0546 30.8265 42.4083 29.6825L42.6757 28.8174L47.9999 27.5079L48 20.4917ZM24.0002 13.0341C30.0459 13.0341 34.966 17.9543 34.966 24C34.966 30.046 30.046 34.9659 24 34.9659C17.9543 34.9659 13.034 30.0457 13.034 24C13.0339 17.9542 17.9543 13.0341 24.0002 13.0341Z" fill="black" fill-opacity="0.2"/>
<path fill-rule="evenodd" clip-rule="evenodd" d="M48 20.4917L42.6752 19.1825L42.4081 18.3168C42.055 17.1729 41.5945 16.0634 41.0348 15.0053L40.6108 14.2042L43.4505 9.51038L38.4902 4.54894L33.7961 7.38891L32.9951 6.96534C31.9365 6.40556 30.8265 5.94525 29.6824 5.59153L28.8173 5.32416L27.5079 9.375e-05L20.4917 0L19.1825 5.32594L18.3165 5.59294C17.1727 5.94563 16.063 6.40584 15.0049 6.96544L14.2039 7.38891L9.51028 4.54931L4.54884 9.50972L7.389 14.2039L6.96544 15.0049C6.40566 16.0636 5.94516 17.1734 5.59153 18.3175L5.32416 19.1826L0 20.492V27.5083L5.32463 28.8176L5.59172 29.6832C5.94469 30.8271 6.40519 31.9366 6.96506 32.9947L7.38891 33.7957L4.54922 38.4895L9.50972 43.451L14.2042 40.611L15.0051 41.0345C16.0637 41.5942 17.1733 42.0547 18.3173 42.4083L19.1823 42.6757L20.492 48L27.5083 47.9998L28.818 42.6752L29.6835 42.4081C30.8272 42.0552 31.9366 41.5946 32.9946 41.0348L33.7957 40.6108L38.4895 43.4505L43.4509 38.4901L40.6113 33.7959L41.0348 32.995C41.5945 31.9364 42.0546 30.8265 42.4083 29.6825L42.6757 28.8174L47.9999 27.5079L48 20.4917ZM24.0002 13.0341C30.0459 13.0341 34.966 17.9543 34.966 24C34.966 30.046 30.046 34.9659 24 34.9659C17.9543 34.9659 13.034 30.0457 13.034 24C13.0339 17.9542 17.9543 13.0341 24.0002 13.0341Z" fill="black" fill-opacity="0.2"/>
<path fill-rule="evenodd" clip-rule="evenodd" d="M48 20.4917L42.6752 19.1825L42.4081 18.3168C42.055 17.1729 41.5945 16.0634 41.0348 15.0053L40.6108 14.2042L43.4505 9.51038L38.4902 4.54894L33.7961 7.38891L32.9951 6.96534C31.9365 6.40556 30.8265 5.94525 29.6824 5.59153L28.8173 5.32416L27.5079 9.375e-05L20.4917 0L19.1825 5.32594L18.3165 5.59294C17.1727 5.94563 16.063 6.40584 15.0049 6.96544L14.2039 7.38891L9.51028 4.54931L4.54884 9.50972L7.389 14.2039L6.96544 15.0049C6.40566 16.0636 5.94516 17.1734 5.59153 18.3175L5.32416 19.1826L0 20.492V27.5083L5.32463 28.8176L5.59172 29.6832C5.94469 30.8271 6.40519 31.9366 6.96506 32.9947L7.38891 33.7957L4.54922 38.4895L9.50972 43.451L14.2042 40.611L15.0051 41.0345C16.0637 41.5942 17.1733 42.0547 18.3173 42.4083L19.1823 42.6757L20.492 48L27.5083 47.9998L28.818 42.6752L29.6835 42.4081C30.8272 42.0552 31.9366 41.5946 32.9946 41.0348L33.7957 40.6108L38.4895 43.4505L43.4509 38.4901L40.6113 33.7959L41.0348 32.995C41.5945 31.9364 42.0546 30.8265 42.4083 29.6825L42.6757 28.8174L47.9999 27.5079L48 20.4917ZM24.0002 13.0341C30.0459 13.0341 34.966 17.9543 34.966 24C34.966 30.046 30.046 34.9659 24 34.9659C17.9543 34.9659 13.034 30.0457 13.034 24C13.0339 17.9542 17.9543 13.0341 24.0002 13.0341Z" fill="black" fill-opacity="0.2"/>
<path fill-rule="evenodd" clip-rule="evenodd" d="M48 20.4917L42.6752 19.1825L42.4081 18.3168C42.055 17.1729 41.5945 16.0634 41.0348 15.0053L40.6108 14.2042L43.4505 9.51038L38.4902 4.54894L33.7961 7.38891L32.9951 6.96534C31.9365 6.40556 30.8265 5.94525 29.6824 5.59153L28.8173 5.32416L27.5079 9.375e-05L20.4917 0L19.1825 5.32594L18.3165 5.59294C17.1727 5.94563 16.063 6.40584 15.0049 6.96544L14.2039 7.38891L9.51028 4.54931L4.54884 9.50972L7.389 14.2039L6.96544 15.0049C6.40566 16.0636 5.94516 17.1734 5.59153 18.3175L5.32416 19.1826L0 20.492V27.5083L5.32463 28.8176L5.59172 29.6832C5.94469 30.8271 6.40519 31.9366 6.96506 32.9947L7.38891 33.7957L4.54922 38.4895L9.50972 43.451L14.2042 40.611L15.0051 41.0345C16.0637 41.5942 17.1733 42.0547 18.3173 42.4083L19.1823 42.6757L20.492 48L27.5083 47.9998L28.818 42.6752L29.6835 42.4081C30.8272 42.0552 31.9366 41.5946 32.9946 41.0348L33.7957 40.6108L38.4895 43.4505L43.4509 38.4901L40.6113 33.7959L41.0348 32.995C41.5945 31.9364 42.0546 30.8265 42.4083 29.6825L42.6757 28.8174L47.9999 27.5079L48 20.4917ZM24.0002 13.0341C30.0459 13.0341 34.966 17.9543 34.966 24C34.966 30.046 30.046 34.9659 24 34.9659C17.9543 34.9659 13.034 30.0457 13.034 24C13.0339 17.9542 17.9543 13.0341 24.0002 13.0341Z" fill="black" fill-opacity="0.2"/>
<path fill-rule="evenodd" clip-rule="evenodd" d="M48 20.4917L42.6752 19.1825L42.4081 18.3168C42.055 17.1729 41.5945 16.0634 41.0348 15.0053L40.6108 14.2042L43.4505 9.51038L38.4902 4.54894L33.7961 7.38891L32.9951 6.96534C31.9365 6.40556 30.8265 5.94525 29.6824 5.59153L28.8173 5.32416L27.5079 9.375e-05L20.4917 0L19.1825 5.32594L18.3165 5.59294C17.1727 5.94563 16.063 6.40584 15.0049 6.96544L14.2039 7.38891L9.51028 4.54931L4.54884 9.50972L7.389 14.2039L6.96544 15.0049C6.40566 16.0636 5.94516 17.1734 5.59153 18.3175L5.32416 19.1826L0 20.492V27.5083L5.32463 28.8176L5.59172 29.6832C5.94469 30.8271 6.40519 31.9366 6.96506 32.9947L7.38891 33.7957L4.54922 38.4895L9.50972 43.451L14.2042 40.611L15.0051 41.0345C16.0637 41.5942 17.1733 42.0547 18.3173 42.4083L19.1823 42.6757L20.492 48L27.5083 47.9998L28.818 42.6752L29.6835 42.4081C30.8272 42.0552 31.9366 41.5946 32.9946 41.0348L33.7957 40.6108L38.4895 43.4505L43.4509 38.4901L40.6113 33.7959L41.0348 32.995C41.5945 31.9364 42.0546 30.8265 42.4083 29.6825L42.6757 28.8174L47.9999 27.5079L48 20.4917ZM24.0002 13.0341C30.0459 13.0341 34.966 17.9543 34.966 24C34.966 30.046 30.046 34.9659 24 34.9659C17.9543 34.9659 13.034 30.0457 13.034 24C13.0339 17.9542 17.9543 13.0341 24.0002 13.0341Z" fill="black" fill-opacity="0.2"/>
<path fill-rule="evenodd" clip-rule="evenodd" d="M48 20.4917L42.6752 19.1825L42.4081 18.3168C42.055 17.1729 41.5945 16.0634 41.0348 15.0053L40.6108 14.2042L43.4505 9.51038L38.4902 4.54894L33.7961 7.38891L32.9951 6.96534C31.9365 6.40556 30.8265 5.94525 29.6824 5.59153L28.8173 5.32416L27.5079 9.375e-05L20.4917 0L19.1825 5.32594L18.3165 5.59294C17.1727 5.94563 16.063 6.40584 15.0049 6.96544L14.2039 7.38891L9.51028 4.54931L4.54884 9.50972L7.389 14.2039L6.96544 15.0049C6.40566 16.0636 5.94516 17.1734 5.59153 18.3175L5.32416 19.1826L0 20.492V27.5083L5.32463 28.8176L5.59172 29.6832C5.94469 30.8271 6.40519 31.9366 6.96506 32.9947L7.38891 33.7957L4.54922 38.4895L9.50972 43.451L14.2042 40.611L15.0051 41.0345C16.0637 41.5942 17.1733 42.0547 18.3173 42.4083L19.1823 42.6757L20.492 48L27.5083 47.9998L28.818 42.6752L29.6835 42.4081C30.8272 42.0552 31.9366 41.5946 32.9946 41.0348L33.7957 40.6108L38.4895 43.4505L43.4509 38.4901L40.6113 33.7959L41.0348 32.995C41.5945 31.9364 42.0546 30.8265 42.4083 29.6825L42.6757 28.8174L47.9999 27.5079L48 20.4917ZM24.0002 13.0341C30.0459 13.0341 34.966 17.9543 34.966 24C34.966 30.046 30.046 34.9659 24 34.9659C17.9543 34.9659 13.034 30.0457 13.034 24C13.0339 17.9542 17.9543 13.0341 24.0002 13.0341Z" fill="black" fill-opacity="0.2"/>
<path fill-rule="evenodd" clip-rule="evenodd" d="M48 20.4917L42.6752 19.1825L42.4081 18.3168C42.055 17.1729 41.5945 16.0634 41.0348 15.0053L40.6108 14.2042L43.4505 9.51038L38.4902 4.54894L33.7961 7.38891L32.9951 6.96534C31.9365 6.40556 30.8265 5.94525 29.6824 5.59153L28.8173 5.32416L27.5079 9.375e-05L20.4917 0L19.1825 5.32594L18.3165 5.59294C17.1727 5.94563 16.063 6.40584 15.0049 6.96544L14.2039 7.38891L9.51028 4.54931L4.54884 9.50972L7.389 14.2039L6.96544 15.0049C6.40566 16.0636 5.94516 17.1734 5.59153 18.3175L5.32416 19.1826L0 20.492V27.5083L5.32463 28.8176L5.59172 29.6832C5.94469 30.8271 6.40519 31.9366 6.96506 32.9947L7.38891 33.7957L4.54922 38.4895L9.50972 43.451L14.2042 40.611L15.0051 41.0345C16.0637 41.5942 17.1733 42.0547 18.3173 42.4083L19.1823 42.6757L20.492 48L27.5083 47.9998L28.818 42.6752L29.6835 42.4081C30.8272 42.0552 31.9366 41.5946 32.9946 41.0348L33.7957 40.6108L38.4895 43.4505L43.4509 38.4901L40.6113 33.7959L41.0348 32.995C41.5945 31.9364 42.0546 30.8265 42.4083 29.6825L42.6757 28.8174L47.9999 27.5079L48 20.4917ZM24.0002 13.0341C30.0459 13.0341 34.966 17.9543 34.966 24C34.966 30.046 30.046 34.9659 24 34.9659C17.9543 34.9659 13.034 30.0457 13.034 24C13.0339 17.9542 17.9543 13.0341 24.0002 13.0341Z" fill="black" fill-opacity="0.2"/>
<path fill-rule="evenodd" clip-rule="evenodd" d="M48 20.4917L42.6752 19.1825L42.4081 18.3168C42.055 17.1729 41.5945 16.0634 41.0348 15.0053L40.6108 14.2042L43.4505 9.51038L38.4902 4.54894L33.7961 7.38891L32.9951 6.96534C31.9365 6.40556 30.8265 5.94525 29.6824 5.59153L28.8173 5.32416L27.5079 9.375e-05L20.4917 0L19.1825 5.32594L18.3165 5.59294C17.1727 5.94563 16.063 6.40584 15.0049 6.96544L14.2039 7.38891L9.51028 4.54931L4.54884 9.50972L7.389 14.2039L6.96544 15.0049C6.40566 16.0636 5.94516 17.1734 5.59153 18.3175L5.32416 19.1826L0 20.492V27.5083L5.32463 28.8176L5.59172 29.6832C5.94469 30.8271 6.40519 31.9366 6.96506 32.9947L7.38891 33.7957L4.54922 38.4895L9.50972 43.451L14.2042 40.611L15.0051 41.0345C16.0637 41.5942 17.1733 42.0547 18.3173 42.4083L19.1823 42.6757L20.492 48L27.5083 47.9998L28.818 42.6752L29.6835 42.4081C30.8272 42.0552 31.9366 41.5946 32.9946 41.0348L33.7957 40.6108L38.4895 43.4505L43.4509 38.4901L40.6113 33.7959L41.0348 32.995C41.5945 31.9364 42.0546 30.8265 42.4083 29.6825L42.6757 28.8174L47.9999 27.5079L48 20.4917ZM24.0002 13.0341C30.0459 13.0341 34.966 17.9543 34.966 24C34.966 30.046 30.046 34.9659 24 34.9659C17.9543 34.9659 13.034 30.0457 13.034 24C13.0339 17.9542 17.9543 13.0341 24.0002 13.0341Z" fill="black" fill-opacity="0.2"/>
</svg>
