<svg width="48" height="48" viewBox="0 0 48 48" fill="none" xmlns="http://www.w3.org/2000/svg">
<path fill-rule="evenodd" clip-rule="evenodd" d="M32.7994 6.2538C32.0195 5.47887 30.9414 5 29.7501 5H9.6251C7.24334 5 5.3126 6.91637 5.3126 9.28039C5.3126 10.0699 5.95588 10.7072 6.7501 10.7072H19.6814C20.6176 10.7072 21.5424 10.4852 22.3674 10.0459C25.384 8.43938 28.7317 7.71734 32.084 7.87464C32.9387 7.91468 33.4358 6.88551 32.7994 6.2538ZM31.1875 10.7073C22.4685 10.7073 15.375 17.7479 15.375 26.402C15.375 35.0562 22.4685 42.0968 31.1875 42.0968C39.9066 42.0968 47 35.0562 47 26.402C47 17.7479 39.9066 10.7073 31.1875 10.7073ZM29.75 22.835C30.5439 22.835 31.1875 23.4739 31.1875 24.2618C31.1875 25.0498 30.5439 25.6886 29.75 25.6886H26.9098C26.8646 26.1669 26.8623 26.6124 26.9098 27.1154H29.75C30.5439 27.1154 31.1875 27.7543 31.1875 28.5422C31.1875 29.3302 30.5439 29.969 29.75 29.969H27.8327C28.7507 31.4641 30.0248 32.1092 31.1875 32.1092C32.5791 32.1092 33.6426 30.9146 34.2898 29.9125C34.7182 29.2491 35.6074 29.056 36.2757 29.4812C36.9441 29.9065 37.1386 30.789 36.7102 31.4524C32.9984 37.2004 26.6908 35.3041 24.6471 29.969H24C23.2062 29.969 22.5625 29.3302 22.5625 28.5422C22.5625 27.7543 23.2062 27.1154 24 27.1154L24.0074 27.1157L24.0112 27.116C24.0169 27.1164 24.0207 27.1167 24.0232 27.115C24.0285 27.1113 24.0273 27.0981 24.0235 27.0564C24.0163 26.9787 24 26.8018 24 26.402C24 26.0025 24.0162 25.8256 24.0234 25.7478V25.7478V25.7478C24.0272 25.706 24.0284 25.6928 24.023 25.6891C24.0206 25.6874 24.0167 25.6877 24.0111 25.6881L24.0111 25.6881C24.008 25.6884 24.0043 25.6886 24 25.6886C23.2062 25.6886 22.5625 25.0498 22.5625 24.2618C22.5625 23.4739 23.2062 22.835 24 22.835H24.6471C26.6914 17.4989 32.9959 15.5999 36.7102 21.3517C37.1387 22.0151 36.9442 22.8976 36.2757 23.3228C35.6075 23.7481 34.7182 23.555 34.2898 22.8916C33.6426 21.8894 32.579 20.6948 31.1875 20.6948C30.0257 20.6948 28.7511 21.3392 27.8327 22.835H29.75ZM12.8197 22.9705C12.9028 22.5299 12.5659 22.1218 12.1143 22.1218H9.6251C7.24334 22.1218 5.3126 24.0382 5.3126 26.4022C5.3126 27.1917 5.95588 27.829 6.7501 27.829H11.0878C11.8456 27.829 12.5001 27.2276 12.5001 26.4022C12.5001 25.2297 12.61 24.0827 12.8197 22.9705ZM2.43759 17.8413C2.43759 15.4773 4.36833 13.5609 6.75009 13.5609H16.111C16.7162 13.5609 17.0494 14.2572 16.6682 14.7236C15.7375 15.8625 14.9401 17.1128 14.2991 18.4513C14.0606 18.9495 13.5562 19.2681 13.0005 19.2681H3.87509C3.08087 19.2681 2.43759 18.6308 2.43759 17.8413ZM5.3125 30.6823H11.8972C12.5327 30.6823 13.0929 31.0966 13.274 31.7012C14.3638 35.3374 16.5472 38.5065 19.4459 40.8324C19.9705 41.2534 19.6642 42.0967 18.9896 42.0967H5.3125C2.93074 42.0967 1 40.1803 1 37.8163V34.9627C1 32.5987 2.93074 30.6823 5.3125 30.6823Z" fill="black"/>
<path fill-rule="evenodd" clip-rule="evenodd" d="M32.7994 6.2538C32.0195 5.47887 30.9414 5 29.7501 5H9.6251C7.24334 5 5.3126 6.91637 5.3126 9.28039C5.3126 10.0699 5.95588 10.7072 6.7501 10.7072H19.6814C20.6176 10.7072 21.5424 10.4852 22.3674 10.0459C25.384 8.43938 28.7317 7.71734 32.084 7.87464C32.9387 7.91468 33.4358 6.88551 32.7994 6.2538ZM31.1875 10.7073C22.4685 10.7073 15.375 17.7479 15.375 26.402C15.375 35.0562 22.4685 42.0968 31.1875 42.0968C39.9066 42.0968 47 35.0562 47 26.402C47 17.7479 39.9066 10.7073 31.1875 10.7073ZM29.75 22.835C30.5439 22.835 31.1875 23.4739 31.1875 24.2618C31.1875 25.0498 30.5439 25.6886 29.75 25.6886H26.9098C26.8646 26.1669 26.8623 26.6124 26.9098 27.1154H29.75C30.5439 27.1154 31.1875 27.7543 31.1875 28.5422C31.1875 29.3302 30.5439 29.969 29.75 29.969H27.8327C28.7507 31.4641 30.0248 32.1092 31.1875 32.1092C32.5791 32.1092 33.6426 30.9146 34.2898 29.9125C34.7182 29.2491 35.6074 29.056 36.2757 29.4812C36.9441 29.9065 37.1386 30.789 36.7102 31.4524C32.9984 37.2004 26.6908 35.3041 24.6471 29.969H24C23.2062 29.969 22.5625 29.3302 22.5625 28.5422C22.5625 27.7543 23.2062 27.1154 24 27.1154L24.0074 27.1157L24.0112 27.116C24.0169 27.1164 24.0207 27.1167 24.0232 27.115C24.0285 27.1113 24.0273 27.0981 24.0235 27.0564C24.0163 26.9787 24 26.8018 24 26.402C24 26.0025 24.0162 25.8256 24.0234 25.7478V25.7478V25.7478C24.0272 25.706 24.0284 25.6928 24.023 25.6891C24.0206 25.6874 24.0167 25.6877 24.0111 25.6881L24.0111 25.6881C24.008 25.6884 24.0043 25.6886 24 25.6886C23.2062 25.6886 22.5625 25.0498 22.5625 24.2618C22.5625 23.4739 23.2062 22.835 24 22.835H24.6471C26.6914 17.4989 32.9959 15.5999 36.7102 21.3517C37.1387 22.0151 36.9442 22.8976 36.2757 23.3228C35.6075 23.7481 34.7182 23.555 34.2898 22.8916C33.6426 21.8894 32.579 20.6948 31.1875 20.6948C30.0257 20.6948 28.7511 21.3392 27.8327 22.835H29.75ZM12.8197 22.9705C12.9028 22.5299 12.5659 22.1218 12.1143 22.1218H9.6251C7.24334 22.1218 5.3126 24.0382 5.3126 26.4022C5.3126 27.1917 5.95588 27.829 6.7501 27.829H11.0878C11.8456 27.829 12.5001 27.2276 12.5001 26.4022C12.5001 25.2297 12.61 24.0827 12.8197 22.9705ZM2.43759 17.8413C2.43759 15.4773 4.36833 13.5609 6.75009 13.5609H16.111C16.7162 13.5609 17.0494 14.2572 16.6682 14.7236C15.7375 15.8625 14.9401 17.1128 14.2991 18.4513C14.0606 18.9495 13.5562 19.2681 13.0005 19.2681H3.87509C3.08087 19.2681 2.43759 18.6308 2.43759 17.8413ZM5.3125 30.6823H11.8972C12.5327 30.6823 13.0929 31.0966 13.274 31.7012C14.3638 35.3374 16.5472 38.5065 19.4459 40.8324C19.9705 41.2534 19.6642 42.0967 18.9896 42.0967H5.3125C2.93074 42.0967 1 40.1803 1 37.8163V34.9627C1 32.5987 2.93074 30.6823 5.3125 30.6823Z" fill="black" fill-opacity="0.2"/>
<path fill-rule="evenodd" clip-rule="evenodd" d="M32.7994 6.2538C32.0195 5.47887 30.9414 5 29.7501 5H9.6251C7.24334 5 5.3126 6.91637 5.3126 9.28039C5.3126 10.0699 5.95588 10.7072 6.7501 10.7072H19.6814C20.6176 10.7072 21.5424 10.4852 22.3674 10.0459C25.384 8.43938 28.7317 7.71734 32.084 7.87464C32.9387 7.91468 33.4358 6.88551 32.7994 6.2538ZM31.1875 10.7073C22.4685 10.7073 15.375 17.7479 15.375 26.402C15.375 35.0562 22.4685 42.0968 31.1875 42.0968C39.9066 42.0968 47 35.0562 47 26.402C47 17.7479 39.9066 10.7073 31.1875 10.7073ZM29.75 22.835C30.5439 22.835 31.1875 23.4739 31.1875 24.2618C31.1875 25.0498 30.5439 25.6886 29.75 25.6886H26.9098C26.8646 26.1669 26.8623 26.6124 26.9098 27.1154H29.75C30.5439 27.1154 31.1875 27.7543 31.1875 28.5422C31.1875 29.3302 30.5439 29.969 29.75 29.969H27.8327C28.7507 31.4641 30.0248 32.1092 31.1875 32.1092C32.5791 32.1092 33.6426 30.9146 34.2898 29.9125C34.7182 29.2491 35.6074 29.056 36.2757 29.4812C36.9441 29.9065 37.1386 30.789 36.7102 31.4524C32.9984 37.2004 26.6908 35.3041 24.6471 29.969H24C23.2062 29.969 22.5625 29.3302 22.5625 28.5422C22.5625 27.7543 23.2062 27.1154 24 27.1154L24.0074 27.1157L24.0112 27.116C24.0169 27.1164 24.0207 27.1167 24.0232 27.115C24.0285 27.1113 24.0273 27.0981 24.0235 27.0564C24.0163 26.9787 24 26.8018 24 26.402C24 26.0025 24.0162 25.8256 24.0234 25.7478V25.7478V25.7478C24.0272 25.706 24.0284 25.6928 24.023 25.6891C24.0206 25.6874 24.0167 25.6877 24.0111 25.6881L24.0111 25.6881C24.008 25.6884 24.0043 25.6886 24 25.6886C23.2062 25.6886 22.5625 25.0498 22.5625 24.2618C22.5625 23.4739 23.2062 22.835 24 22.835H24.6471C26.6914 17.4989 32.9959 15.5999 36.7102 21.3517C37.1387 22.0151 36.9442 22.8976 36.2757 23.3228C35.6075 23.7481 34.7182 23.555 34.2898 22.8916C33.6426 21.8894 32.579 20.6948 31.1875 20.6948C30.0257 20.6948 28.7511 21.3392 27.8327 22.835H29.75ZM12.8197 22.9705C12.9028 22.5299 12.5659 22.1218 12.1143 22.1218H9.6251C7.24334 22.1218 5.3126 24.0382 5.3126 26.4022C5.3126 27.1917 5.95588 27.829 6.7501 27.829H11.0878C11.8456 27.829 12.5001 27.2276 12.5001 26.4022C12.5001 25.2297 12.61 24.0827 12.8197 22.9705ZM2.43759 17.8413C2.43759 15.4773 4.36833 13.5609 6.75009 13.5609H16.111C16.7162 13.5609 17.0494 14.2572 16.6682 14.7236C15.7375 15.8625 14.9401 17.1128 14.2991 18.4513C14.0606 18.9495 13.5562 19.2681 13.0005 19.2681H3.87509C3.08087 19.2681 2.43759 18.6308 2.43759 17.8413ZM5.3125 30.6823H11.8972C12.5327 30.6823 13.0929 31.0966 13.274 31.7012C14.3638 35.3374 16.5472 38.5065 19.4459 40.8324C19.9705 41.2534 19.6642 42.0967 18.9896 42.0967H5.3125C2.93074 42.0967 1 40.1803 1 37.8163V34.9627C1 32.5987 2.93074 30.6823 5.3125 30.6823Z" fill="black" fill-opacity="0.2"/>
<path fill-rule="evenodd" clip-rule="evenodd" d="M32.7994 6.2538C32.0195 5.47887 30.9414 5 29.7501 5H9.6251C7.24334 5 5.3126 6.91637 5.3126 9.28039C5.3126 10.0699 5.95588 10.7072 6.7501 10.7072H19.6814C20.6176 10.7072 21.5424 10.4852 22.3674 10.0459C25.384 8.43938 28.7317 7.71734 32.084 7.87464C32.9387 7.91468 33.4358 6.88551 32.7994 6.2538ZM31.1875 10.7073C22.4685 10.7073 15.375 17.7479 15.375 26.402C15.375 35.0562 22.4685 42.0968 31.1875 42.0968C39.9066 42.0968 47 35.0562 47 26.402C47 17.7479 39.9066 10.7073 31.1875 10.7073ZM29.75 22.835C30.5439 22.835 31.1875 23.4739 31.1875 24.2618C31.1875 25.0498 30.5439 25.6886 29.75 25.6886H26.9098C26.8646 26.1669 26.8623 26.6124 26.9098 27.1154H29.75C30.5439 27.1154 31.1875 27.7543 31.1875 28.5422C31.1875 29.3302 30.5439 29.969 29.75 29.969H27.8327C28.7507 31.4641 30.0248 32.1092 31.1875 32.1092C32.5791 32.1092 33.6426 30.9146 34.2898 29.9125C34.7182 29.2491 35.6074 29.056 36.2757 29.4812C36.9441 29.9065 37.1386 30.789 36.7102 31.4524C32.9984 37.2004 26.6908 35.3041 24.6471 29.969H24C23.2062 29.969 22.5625 29.3302 22.5625 28.5422C22.5625 27.7543 23.2062 27.1154 24 27.1154L24.0074 27.1157L24.0112 27.116C24.0169 27.1164 24.0207 27.1167 24.0232 27.115C24.0285 27.1113 24.0273 27.0981 24.0235 27.0564C24.0163 26.9787 24 26.8018 24 26.402C24 26.0025 24.0162 25.8256 24.0234 25.7478V25.7478V25.7478C24.0272 25.706 24.0284 25.6928 24.023 25.6891C24.0206 25.6874 24.0167 25.6877 24.0111 25.6881L24.0111 25.6881C24.008 25.6884 24.0043 25.6886 24 25.6886C23.2062 25.6886 22.5625 25.0498 22.5625 24.2618C22.5625 23.4739 23.2062 22.835 24 22.835H24.6471C26.6914 17.4989 32.9959 15.5999 36.7102 21.3517C37.1387 22.0151 36.9442 22.8976 36.2757 23.3228C35.6075 23.7481 34.7182 23.555 34.2898 22.8916C33.6426 21.8894 32.579 20.6948 31.1875 20.6948C30.0257 20.6948 28.7511 21.3392 27.8327 22.835H29.75ZM12.8197 22.9705C12.9028 22.5299 12.5659 22.1218 12.1143 22.1218H9.6251C7.24334 22.1218 5.3126 24.0382 5.3126 26.4022C5.3126 27.1917 5.95588 27.829 6.7501 27.829H11.0878C11.8456 27.829 12.5001 27.2276 12.5001 26.4022C12.5001 25.2297 12.61 24.0827 12.8197 22.9705ZM2.43759 17.8413C2.43759 15.4773 4.36833 13.5609 6.75009 13.5609H16.111C16.7162 13.5609 17.0494 14.2572 16.6682 14.7236C15.7375 15.8625 14.9401 17.1128 14.2991 18.4513C14.0606 18.9495 13.5562 19.2681 13.0005 19.2681H3.87509C3.08087 19.2681 2.43759 18.6308 2.43759 17.8413ZM5.3125 30.6823H11.8972C12.5327 30.6823 13.0929 31.0966 13.274 31.7012C14.3638 35.3374 16.5472 38.5065 19.4459 40.8324C19.9705 41.2534 19.6642 42.0967 18.9896 42.0967H5.3125C2.93074 42.0967 1 40.1803 1 37.8163V34.9627C1 32.5987 2.93074 30.6823 5.3125 30.6823Z" fill="black" fill-opacity="0.2"/>
<path fill-rule="evenodd" clip-rule="evenodd" d="M32.7994 6.2538C32.0195 5.47887 30.9414 5 29.7501 5H9.6251C7.24334 5 5.3126 6.91637 5.3126 9.28039C5.3126 10.0699 5.95588 10.7072 6.7501 10.7072H19.6814C20.6176 10.7072 21.5424 10.4852 22.3674 10.0459C25.384 8.43938 28.7317 7.71734 32.084 7.87464C32.9387 7.91468 33.4358 6.88551 32.7994 6.2538ZM31.1875 10.7073C22.4685 10.7073 15.375 17.7479 15.375 26.402C15.375 35.0562 22.4685 42.0968 31.1875 42.0968C39.9066 42.0968 47 35.0562 47 26.402C47 17.7479 39.9066 10.7073 31.1875 10.7073ZM29.75 22.835C30.5439 22.835 31.1875 23.4739 31.1875 24.2618C31.1875 25.0498 30.5439 25.6886 29.75 25.6886H26.9098C26.8646 26.1669 26.8623 26.6124 26.9098 27.1154H29.75C30.5439 27.1154 31.1875 27.7543 31.1875 28.5422C31.1875 29.3302 30.5439 29.969 29.75 29.969H27.8327C28.7507 31.4641 30.0248 32.1092 31.1875 32.1092C32.5791 32.1092 33.6426 30.9146 34.2898 29.9125C34.7182 29.2491 35.6074 29.056 36.2757 29.4812C36.9441 29.9065 37.1386 30.789 36.7102 31.4524C32.9984 37.2004 26.6908 35.3041 24.6471 29.969H24C23.2062 29.969 22.5625 29.3302 22.5625 28.5422C22.5625 27.7543 23.2062 27.1154 24 27.1154L24.0074 27.1157L24.0112 27.116C24.0169 27.1164 24.0207 27.1167 24.0232 27.115C24.0285 27.1113 24.0273 27.0981 24.0235 27.0564C24.0163 26.9787 24 26.8018 24 26.402C24 26.0025 24.0162 25.8256 24.0234 25.7478V25.7478V25.7478C24.0272 25.706 24.0284 25.6928 24.023 25.6891C24.0206 25.6874 24.0167 25.6877 24.0111 25.6881L24.0111 25.6881C24.008 25.6884 24.0043 25.6886 24 25.6886C23.2062 25.6886 22.5625 25.0498 22.5625 24.2618C22.5625 23.4739 23.2062 22.835 24 22.835H24.6471C26.6914 17.4989 32.9959 15.5999 36.7102 21.3517C37.1387 22.0151 36.9442 22.8976 36.2757 23.3228C35.6075 23.7481 34.7182 23.555 34.2898 22.8916C33.6426 21.8894 32.579 20.6948 31.1875 20.6948C30.0257 20.6948 28.7511 21.3392 27.8327 22.835H29.75ZM12.8197 22.9705C12.9028 22.5299 12.5659 22.1218 12.1143 22.1218H9.6251C7.24334 22.1218 5.3126 24.0382 5.3126 26.4022C5.3126 27.1917 5.95588 27.829 6.7501 27.829H11.0878C11.8456 27.829 12.5001 27.2276 12.5001 26.4022C12.5001 25.2297 12.61 24.0827 12.8197 22.9705ZM2.43759 17.8413C2.43759 15.4773 4.36833 13.5609 6.75009 13.5609H16.111C16.7162 13.5609 17.0494 14.2572 16.6682 14.7236C15.7375 15.8625 14.9401 17.1128 14.2991 18.4513C14.0606 18.9495 13.5562 19.2681 13.0005 19.2681H3.87509C3.08087 19.2681 2.43759 18.6308 2.43759 17.8413ZM5.3125 30.6823H11.8972C12.5327 30.6823 13.0929 31.0966 13.274 31.7012C14.3638 35.3374 16.5472 38.5065 19.4459 40.8324C19.9705 41.2534 19.6642 42.0967 18.9896 42.0967H5.3125C2.93074 42.0967 1 40.1803 1 37.8163V34.9627C1 32.5987 2.93074 30.6823 5.3125 30.6823Z" fill="black" fill-opacity="0.2"/>
<path fill-rule="evenodd" clip-rule="evenodd" d="M32.7994 6.2538C32.0195 5.47887 30.9414 5 29.7501 5H9.6251C7.24334 5 5.3126 6.91637 5.3126 9.28039C5.3126 10.0699 5.95588 10.7072 6.7501 10.7072H19.6814C20.6176 10.7072 21.5424 10.4852 22.3674 10.0459C25.384 8.43938 28.7317 7.71734 32.084 7.87464C32.9387 7.91468 33.4358 6.88551 32.7994 6.2538ZM31.1875 10.7073C22.4685 10.7073 15.375 17.7479 15.375 26.402C15.375 35.0562 22.4685 42.0968 31.1875 42.0968C39.9066 42.0968 47 35.0562 47 26.402C47 17.7479 39.9066 10.7073 31.1875 10.7073ZM29.75 22.835C30.5439 22.835 31.1875 23.4739 31.1875 24.2618C31.1875 25.0498 30.5439 25.6886 29.75 25.6886H26.9098C26.8646 26.1669 26.8623 26.6124 26.9098 27.1154H29.75C30.5439 27.1154 31.1875 27.7543 31.1875 28.5422C31.1875 29.3302 30.5439 29.969 29.75 29.969H27.8327C28.7507 31.4641 30.0248 32.1092 31.1875 32.1092C32.5791 32.1092 33.6426 30.9146 34.2898 29.9125C34.7182 29.2491 35.6074 29.056 36.2757 29.4812C36.9441 29.9065 37.1386 30.789 36.7102 31.4524C32.9984 37.2004 26.6908 35.3041 24.6471 29.969H24C23.2062 29.969 22.5625 29.3302 22.5625 28.5422C22.5625 27.7543 23.2062 27.1154 24 27.1154L24.0074 27.1157L24.0112 27.116C24.0169 27.1164 24.0207 27.1167 24.0232 27.115C24.0285 27.1113 24.0273 27.0981 24.0235 27.0564C24.0163 26.9787 24 26.8018 24 26.402C24 26.0025 24.0162 25.8256 24.0234 25.7478V25.7478V25.7478C24.0272 25.706 24.0284 25.6928 24.023 25.6891C24.0206 25.6874 24.0167 25.6877 24.0111 25.6881L24.0111 25.6881C24.008 25.6884 24.0043 25.6886 24 25.6886C23.2062 25.6886 22.5625 25.0498 22.5625 24.2618C22.5625 23.4739 23.2062 22.835 24 22.835H24.6471C26.6914 17.4989 32.9959 15.5999 36.7102 21.3517C37.1387 22.0151 36.9442 22.8976 36.2757 23.3228C35.6075 23.7481 34.7182 23.555 34.2898 22.8916C33.6426 21.8894 32.579 20.6948 31.1875 20.6948C30.0257 20.6948 28.7511 21.3392 27.8327 22.835H29.75ZM12.8197 22.9705C12.9028 22.5299 12.5659 22.1218 12.1143 22.1218H9.6251C7.24334 22.1218 5.3126 24.0382 5.3126 26.4022C5.3126 27.1917 5.95588 27.829 6.7501 27.829H11.0878C11.8456 27.829 12.5001 27.2276 12.5001 26.4022C12.5001 25.2297 12.61 24.0827 12.8197 22.9705ZM2.43759 17.8413C2.43759 15.4773 4.36833 13.5609 6.75009 13.5609H16.111C16.7162 13.5609 17.0494 14.2572 16.6682 14.7236C15.7375 15.8625 14.9401 17.1128 14.2991 18.4513C14.0606 18.9495 13.5562 19.2681 13.0005 19.2681H3.87509C3.08087 19.2681 2.43759 18.6308 2.43759 17.8413ZM5.3125 30.6823H11.8972C12.5327 30.6823 13.0929 31.0966 13.274 31.7012C14.3638 35.3374 16.5472 38.5065 19.4459 40.8324C19.9705 41.2534 19.6642 42.0967 18.9896 42.0967H5.3125C2.93074 42.0967 1 40.1803 1 37.8163V34.9627C1 32.5987 2.93074 30.6823 5.3125 30.6823Z" fill="black" fill-opacity="0.2"/>
<path fill-rule="evenodd" clip-rule="evenodd" d="M32.7994 6.2538C32.0195 5.47887 30.9414 5 29.7501 5H9.6251C7.24334 5 5.3126 6.91637 5.3126 9.28039C5.3126 10.0699 5.95588 10.7072 6.7501 10.7072H19.6814C20.6176 10.7072 21.5424 10.4852 22.3674 10.0459C25.384 8.43938 28.7317 7.71734 32.084 7.87464C32.9387 7.91468 33.4358 6.88551 32.7994 6.2538ZM31.1875 10.7073C22.4685 10.7073 15.375 17.7479 15.375 26.402C15.375 35.0562 22.4685 42.0968 31.1875 42.0968C39.9066 42.0968 47 35.0562 47 26.402C47 17.7479 39.9066 10.7073 31.1875 10.7073ZM29.75 22.835C30.5439 22.835 31.1875 23.4739 31.1875 24.2618C31.1875 25.0498 30.5439 25.6886 29.75 25.6886H26.9098C26.8646 26.1669 26.8623 26.6124 26.9098 27.1154H29.75C30.5439 27.1154 31.1875 27.7543 31.1875 28.5422C31.1875 29.3302 30.5439 29.969 29.75 29.969H27.8327C28.7507 31.4641 30.0248 32.1092 31.1875 32.1092C32.5791 32.1092 33.6426 30.9146 34.2898 29.9125C34.7182 29.2491 35.6074 29.056 36.2757 29.4812C36.9441 29.9065 37.1386 30.789 36.7102 31.4524C32.9984 37.2004 26.6908 35.3041 24.6471 29.969H24C23.2062 29.969 22.5625 29.3302 22.5625 28.5422C22.5625 27.7543 23.2062 27.1154 24 27.1154L24.0074 27.1157L24.0112 27.116C24.0169 27.1164 24.0207 27.1167 24.0232 27.115C24.0285 27.1113 24.0273 27.0981 24.0235 27.0564C24.0163 26.9787 24 26.8018 24 26.402C24 26.0025 24.0162 25.8256 24.0234 25.7478V25.7478V25.7478C24.0272 25.706 24.0284 25.6928 24.023 25.6891C24.0206 25.6874 24.0167 25.6877 24.0111 25.6881L24.0111 25.6881C24.008 25.6884 24.0043 25.6886 24 25.6886C23.2062 25.6886 22.5625 25.0498 22.5625 24.2618C22.5625 23.4739 23.2062 22.835 24 22.835H24.6471C26.6914 17.4989 32.9959 15.5999 36.7102 21.3517C37.1387 22.0151 36.9442 22.8976 36.2757 23.3228C35.6075 23.7481 34.7182 23.555 34.2898 22.8916C33.6426 21.8894 32.579 20.6948 31.1875 20.6948C30.0257 20.6948 28.7511 21.3392 27.8327 22.835H29.75ZM12.8197 22.9705C12.9028 22.5299 12.5659 22.1218 12.1143 22.1218H9.6251C7.24334 22.1218 5.3126 24.0382 5.3126 26.4022C5.3126 27.1917 5.95588 27.829 6.7501 27.829H11.0878C11.8456 27.829 12.5001 27.2276 12.5001 26.4022C12.5001 25.2297 12.61 24.0827 12.8197 22.9705ZM2.43759 17.8413C2.43759 15.4773 4.36833 13.5609 6.75009 13.5609H16.111C16.7162 13.5609 17.0494 14.2572 16.6682 14.7236C15.7375 15.8625 14.9401 17.1128 14.2991 18.4513C14.0606 18.9495 13.5562 19.2681 13.0005 19.2681H3.87509C3.08087 19.2681 2.43759 18.6308 2.43759 17.8413ZM5.3125 30.6823H11.8972C12.5327 30.6823 13.0929 31.0966 13.274 31.7012C14.3638 35.3374 16.5472 38.5065 19.4459 40.8324C19.9705 41.2534 19.6642 42.0967 18.9896 42.0967H5.3125C2.93074 42.0967 1 40.1803 1 37.8163V34.9627C1 32.5987 2.93074 30.6823 5.3125 30.6823Z" fill="black" fill-opacity="0.2"/>
<path fill-rule="evenodd" clip-rule="evenodd" d="M32.7994 6.2538C32.0195 5.47887 30.9414 5 29.7501 5H9.6251C7.24334 5 5.3126 6.91637 5.3126 9.28039C5.3126 10.0699 5.95588 10.7072 6.7501 10.7072H19.6814C20.6176 10.7072 21.5424 10.4852 22.3674 10.0459C25.384 8.43938 28.7317 7.71734 32.084 7.87464C32.9387 7.91468 33.4358 6.88551 32.7994 6.2538ZM31.1875 10.7073C22.4685 10.7073 15.375 17.7479 15.375 26.402C15.375 35.0562 22.4685 42.0968 31.1875 42.0968C39.9066 42.0968 47 35.0562 47 26.402C47 17.7479 39.9066 10.7073 31.1875 10.7073ZM29.75 22.835C30.5439 22.835 31.1875 23.4739 31.1875 24.2618C31.1875 25.0498 30.5439 25.6886 29.75 25.6886H26.9098C26.8646 26.1669 26.8623 26.6124 26.9098 27.1154H29.75C30.5439 27.1154 31.1875 27.7543 31.1875 28.5422C31.1875 29.3302 30.5439 29.969 29.75 29.969H27.8327C28.7507 31.4641 30.0248 32.1092 31.1875 32.1092C32.5791 32.1092 33.6426 30.9146 34.2898 29.9125C34.7182 29.2491 35.6074 29.056 36.2757 29.4812C36.9441 29.9065 37.1386 30.789 36.7102 31.4524C32.9984 37.2004 26.6908 35.3041 24.6471 29.969H24C23.2062 29.969 22.5625 29.3302 22.5625 28.5422C22.5625 27.7543 23.2062 27.1154 24 27.1154L24.0074 27.1157L24.0112 27.116C24.0169 27.1164 24.0207 27.1167 24.0232 27.115C24.0285 27.1113 24.0273 27.0981 24.0235 27.0564C24.0163 26.9787 24 26.8018 24 26.402C24 26.0025 24.0162 25.8256 24.0234 25.7478V25.7478V25.7478C24.0272 25.706 24.0284 25.6928 24.023 25.6891C24.0206 25.6874 24.0167 25.6877 24.0111 25.6881L24.0111 25.6881C24.008 25.6884 24.0043 25.6886 24 25.6886C23.2062 25.6886 22.5625 25.0498 22.5625 24.2618C22.5625 23.4739 23.2062 22.835 24 22.835H24.6471C26.6914 17.4989 32.9959 15.5999 36.7102 21.3517C37.1387 22.0151 36.9442 22.8976 36.2757 23.3228C35.6075 23.7481 34.7182 23.555 34.2898 22.8916C33.6426 21.8894 32.579 20.6948 31.1875 20.6948C30.0257 20.6948 28.7511 21.3392 27.8327 22.835H29.75ZM12.8197 22.9705C12.9028 22.5299 12.5659 22.1218 12.1143 22.1218H9.6251C7.24334 22.1218 5.3126 24.0382 5.3126 26.4022C5.3126 27.1917 5.95588 27.829 6.7501 27.829H11.0878C11.8456 27.829 12.5001 27.2276 12.5001 26.4022C12.5001 25.2297 12.61 24.0827 12.8197 22.9705ZM2.43759 17.8413C2.43759 15.4773 4.36833 13.5609 6.75009 13.5609H16.111C16.7162 13.5609 17.0494 14.2572 16.6682 14.7236C15.7375 15.8625 14.9401 17.1128 14.2991 18.4513C14.0606 18.9495 13.5562 19.2681 13.0005 19.2681H3.87509C3.08087 19.2681 2.43759 18.6308 2.43759 17.8413ZM5.3125 30.6823H11.8972C12.5327 30.6823 13.0929 31.0966 13.274 31.7012C14.3638 35.3374 16.5472 38.5065 19.4459 40.8324C19.9705 41.2534 19.6642 42.0967 18.9896 42.0967H5.3125C2.93074 42.0967 1 40.1803 1 37.8163V34.9627C1 32.5987 2.93074 30.6823 5.3125 30.6823Z" fill="black" fill-opacity="0.2"/>
<path fill-rule="evenodd" clip-rule="evenodd" d="M32.7994 6.2538C32.0195 5.47887 30.9414 5 29.7501 5H9.6251C7.24334 5 5.3126 6.91637 5.3126 9.28039C5.3126 10.0699 5.95588 10.7072 6.7501 10.7072H19.6814C20.6176 10.7072 21.5424 10.4852 22.3674 10.0459C25.384 8.43938 28.7317 7.71734 32.084 7.87464C32.9387 7.91468 33.4358 6.88551 32.7994 6.2538ZM31.1875 10.7073C22.4685 10.7073 15.375 17.7479 15.375 26.402C15.375 35.0562 22.4685 42.0968 31.1875 42.0968C39.9066 42.0968 47 35.0562 47 26.402C47 17.7479 39.9066 10.7073 31.1875 10.7073ZM29.75 22.835C30.5439 22.835 31.1875 23.4739 31.1875 24.2618C31.1875 25.0498 30.5439 25.6886 29.75 25.6886H26.9098C26.8646 26.1669 26.8623 26.6124 26.9098 27.1154H29.75C30.5439 27.1154 31.1875 27.7543 31.1875 28.5422C31.1875 29.3302 30.5439 29.969 29.75 29.969H27.8327C28.7507 31.4641 30.0248 32.1092 31.1875 32.1092C32.5791 32.1092 33.6426 30.9146 34.2898 29.9125C34.7182 29.2491 35.6074 29.056 36.2757 29.4812C36.9441 29.9065 37.1386 30.789 36.7102 31.4524C32.9984 37.2004 26.6908 35.3041 24.6471 29.969H24C23.2062 29.969 22.5625 29.3302 22.5625 28.5422C22.5625 27.7543 23.2062 27.1154 24 27.1154L24.0074 27.1157L24.0112 27.116C24.0169 27.1164 24.0207 27.1167 24.0232 27.115C24.0285 27.1113 24.0273 27.0981 24.0235 27.0564C24.0163 26.9787 24 26.8018 24 26.402C24 26.0025 24.0162 25.8256 24.0234 25.7478V25.7478V25.7478C24.0272 25.706 24.0284 25.6928 24.023 25.6891C24.0206 25.6874 24.0167 25.6877 24.0111 25.6881L24.0111 25.6881C24.008 25.6884 24.0043 25.6886 24 25.6886C23.2062 25.6886 22.5625 25.0498 22.5625 24.2618C22.5625 23.4739 23.2062 22.835 24 22.835H24.6471C26.6914 17.4989 32.9959 15.5999 36.7102 21.3517C37.1387 22.0151 36.9442 22.8976 36.2757 23.3228C35.6075 23.7481 34.7182 23.555 34.2898 22.8916C33.6426 21.8894 32.579 20.6948 31.1875 20.6948C30.0257 20.6948 28.7511 21.3392 27.8327 22.835H29.75ZM12.8197 22.9705C12.9028 22.5299 12.5659 22.1218 12.1143 22.1218H9.6251C7.24334 22.1218 5.3126 24.0382 5.3126 26.4022C5.3126 27.1917 5.95588 27.829 6.7501 27.829H11.0878C11.8456 27.829 12.5001 27.2276 12.5001 26.4022C12.5001 25.2297 12.61 24.0827 12.8197 22.9705ZM2.43759 17.8413C2.43759 15.4773 4.36833 13.5609 6.75009 13.5609H16.111C16.7162 13.5609 17.0494 14.2572 16.6682 14.7236C15.7375 15.8625 14.9401 17.1128 14.2991 18.4513C14.0606 18.9495 13.5562 19.2681 13.0005 19.2681H3.87509C3.08087 19.2681 2.43759 18.6308 2.43759 17.8413ZM5.3125 30.6823H11.8972C12.5327 30.6823 13.0929 31.0966 13.274 31.7012C14.3638 35.3374 16.5472 38.5065 19.4459 40.8324C19.9705 41.2534 19.6642 42.0967 18.9896 42.0967H5.3125C2.93074 42.0967 1 40.1803 1 37.8163V34.9627C1 32.5987 2.93074 30.6823 5.3125 30.6823Z" fill="black" fill-opacity="0.2"/>
<path fill-rule="evenodd" clip-rule="evenodd" d="M32.7994 6.2538C32.0195 5.47887 30.9414 5 29.7501 5H9.6251C7.24334 5 5.3126 6.91637 5.3126 9.28039C5.3126 10.0699 5.95588 10.7072 6.7501 10.7072H19.6814C20.6176 10.7072 21.5424 10.4852 22.3674 10.0459C25.384 8.43938 28.7317 7.71734 32.084 7.87464C32.9387 7.91468 33.4358 6.88551 32.7994 6.2538ZM31.1875 10.7073C22.4685 10.7073 15.375 17.7479 15.375 26.402C15.375 35.0562 22.4685 42.0968 31.1875 42.0968C39.9066 42.0968 47 35.0562 47 26.402C47 17.7479 39.9066 10.7073 31.1875 10.7073ZM29.75 22.835C30.5439 22.835 31.1875 23.4739 31.1875 24.2618C31.1875 25.0498 30.5439 25.6886 29.75 25.6886H26.9098C26.8646 26.1669 26.8623 26.6124 26.9098 27.1154H29.75C30.5439 27.1154 31.1875 27.7543 31.1875 28.5422C31.1875 29.3302 30.5439 29.969 29.75 29.969H27.8327C28.7507 31.4641 30.0248 32.1092 31.1875 32.1092C32.5791 32.1092 33.6426 30.9146 34.2898 29.9125C34.7182 29.2491 35.6074 29.056 36.2757 29.4812C36.9441 29.9065 37.1386 30.789 36.7102 31.4524C32.9984 37.2004 26.6908 35.3041 24.6471 29.969H24C23.2062 29.969 22.5625 29.3302 22.5625 28.5422C22.5625 27.7543 23.2062 27.1154 24 27.1154L24.0074 27.1157L24.0112 27.116C24.0169 27.1164 24.0207 27.1167 24.0232 27.115C24.0285 27.1113 24.0273 27.0981 24.0235 27.0564C24.0163 26.9787 24 26.8018 24 26.402C24 26.0025 24.0162 25.8256 24.0234 25.7478V25.7478V25.7478C24.0272 25.706 24.0284 25.6928 24.023 25.6891C24.0206 25.6874 24.0167 25.6877 24.0111 25.6881L24.0111 25.6881C24.008 25.6884 24.0043 25.6886 24 25.6886C23.2062 25.6886 22.5625 25.0498 22.5625 24.2618C22.5625 23.4739 23.2062 22.835 24 22.835H24.6471C26.6914 17.4989 32.9959 15.5999 36.7102 21.3517C37.1387 22.0151 36.9442 22.8976 36.2757 23.3228C35.6075 23.7481 34.7182 23.555 34.2898 22.8916C33.6426 21.8894 32.579 20.6948 31.1875 20.6948C30.0257 20.6948 28.7511 21.3392 27.8327 22.835H29.75ZM12.8197 22.9705C12.9028 22.5299 12.5659 22.1218 12.1143 22.1218H9.6251C7.24334 22.1218 5.3126 24.0382 5.3126 26.4022C5.3126 27.1917 5.95588 27.829 6.7501 27.829H11.0878C11.8456 27.829 12.5001 27.2276 12.5001 26.4022C12.5001 25.2297 12.61 24.0827 12.8197 22.9705ZM2.43759 17.8413C2.43759 15.4773 4.36833 13.5609 6.75009 13.5609H16.111C16.7162 13.5609 17.0494 14.2572 16.6682 14.7236C15.7375 15.8625 14.9401 17.1128 14.2991 18.4513C14.0606 18.9495 13.5562 19.2681 13.0005 19.2681H3.87509C3.08087 19.2681 2.43759 18.6308 2.43759 17.8413ZM5.3125 30.6823H11.8972C12.5327 30.6823 13.0929 31.0966 13.274 31.7012C14.3638 35.3374 16.5472 38.5065 19.4459 40.8324C19.9705 41.2534 19.6642 42.0967 18.9896 42.0967H5.3125C2.93074 42.0967 1 40.1803 1 37.8163V34.9627C1 32.5987 2.93074 30.6823 5.3125 30.6823Z" fill="black" fill-opacity="0.2"/>
</svg>
