<svg width="48" height="48" viewBox="0 0 48 48" fill="none" xmlns="http://www.w3.org/2000/svg">
<path fill-rule="evenodd" clip-rule="evenodd" d="M12.6586 0C12.1889 0 11.7494 0.234843 11.4884 0.626249L6.27978 8.43749H19.7851V0H12.6586ZM31.0379 11.25V21.2812C31.0379 21.8003 30.7522 22.2768 30.2948 22.5213C29.8432 22.7635 29.2868 22.7417 28.8511 22.4513L25.4117 20.1593L21.9722 22.4513C21.5408 22.737 20.9846 22.7658 20.5285 22.5213C20.0711 22.2769 19.7854 21.8004 19.7854 21.2812V11.25H5.62616V25.6421C7.00045 25.9222 8.23033 26.6039 9.18697 27.5594L9.64663 27.2399C11.7949 25.7485 14.3099 24.9603 16.9211 24.9603C19.9844 24.9603 22.9348 26.0685 25.2315 28.0817C25.4238 28.2438 25.6834 28.3125 25.8524 28.3125H31.1318C34.1771 28.3125 36.6165 30.6649 36.7524 33.6985L41.0174 28.7766C42.1272 27.5716 43.6284 26.9176 45.1971 26.9093V11.25H31.0379ZM22.5981 0H28.2243V8.43749H22.5981V0ZM22.5984 11.25V18.6542L24.6313 17.2987C25.1037 16.9828 25.7192 16.9828 26.1917 17.2987L28.2246 18.6542V11.25H22.5984ZM38.1641 0C38.6339 0 39.0735 0.234843 39.3345 0.626249L44.543 8.43749H31.0376V0H38.1641ZM47.5882 31.0408C47.4194 30.7597 47.1944 30.5346 46.9413 30.3377C45.9056 29.4319 44.1606 29.5175 43.1437 30.6191L36.7579 37.9878C35.8894 38.9795 34.8652 39.5628 33.4666 39.5628H22.3643C21.5766 39.5628 20.9578 38.944 20.9578 38.1565C20.9578 37.369 21.5766 36.7503 22.3643 36.7503H31.1318C32.679 36.7503 33.9449 35.4847 33.9449 33.9378V33.9097C33.9167 32.3628 32.679 31.1253 31.1318 31.1253H25.8526C25.009 31.1253 24.1051 30.8156 23.377 30.1971C19.9452 27.1877 14.9378 26.9908 11.2526 29.5503V46.8471C14.0376 47.6065 16.9069 48.0003 19.8043 48.0003H32.5383C35.6326 48.0003 38.5583 46.5377 40.415 44.0627L47.1665 35.0627C48.1514 33.7699 48.2256 31.9972 47.5882 31.0408ZM1.40654 28.3125H4.21963C6.54653 28.3125 8.43927 30.2049 8.43927 32.5312V43.7812C8.43927 46.1075 6.54643 47.9999 4.21963 47.9999H1.40654C0.6291 47.9999 0 47.371 0 46.5937V29.7187C0 28.9414 0.6291 28.3125 1.40654 28.3125Z" fill="black"/>
<path fill-rule="evenodd" clip-rule="evenodd" d="M12.6586 0C12.1889 0 11.7494 0.234843 11.4884 0.626249L6.27978 8.43749H19.7851V0H12.6586ZM31.0379 11.25V21.2812C31.0379 21.8003 30.7522 22.2768 30.2948 22.5213C29.8432 22.7635 29.2868 22.7417 28.8511 22.4513L25.4117 20.1593L21.9722 22.4513C21.5408 22.737 20.9846 22.7658 20.5285 22.5213C20.0711 22.2769 19.7854 21.8004 19.7854 21.2812V11.25H5.62616V25.6421C7.00045 25.9222 8.23033 26.6039 9.18697 27.5594L9.64663 27.2399C11.7949 25.7485 14.3099 24.9603 16.9211 24.9603C19.9844 24.9603 22.9348 26.0685 25.2315 28.0817C25.4238 28.2438 25.6834 28.3125 25.8524 28.3125H31.1318C34.1771 28.3125 36.6165 30.6649 36.7524 33.6985L41.0174 28.7766C42.1272 27.5716 43.6284 26.9176 45.1971 26.9093V11.25H31.0379ZM22.5981 0H28.2243V8.43749H22.5981V0ZM22.5984 11.25V18.6542L24.6313 17.2987C25.1037 16.9828 25.7192 16.9828 26.1917 17.2987L28.2246 18.6542V11.25H22.5984ZM38.1641 0C38.6339 0 39.0735 0.234843 39.3345 0.626249L44.543 8.43749H31.0376V0H38.1641ZM47.5882 31.0408C47.4194 30.7597 47.1944 30.5346 46.9413 30.3377C45.9056 29.4319 44.1606 29.5175 43.1437 30.6191L36.7579 37.9878C35.8894 38.9795 34.8652 39.5628 33.4666 39.5628H22.3643C21.5766 39.5628 20.9578 38.944 20.9578 38.1565C20.9578 37.369 21.5766 36.7503 22.3643 36.7503H31.1318C32.679 36.7503 33.9449 35.4847 33.9449 33.9378V33.9097C33.9167 32.3628 32.679 31.1253 31.1318 31.1253H25.8526C25.009 31.1253 24.1051 30.8156 23.377 30.1971C19.9452 27.1877 14.9378 26.9908 11.2526 29.5503V46.8471C14.0376 47.6065 16.9069 48.0003 19.8043 48.0003H32.5383C35.6326 48.0003 38.5583 46.5377 40.415 44.0627L47.1665 35.0627C48.1514 33.7699 48.2256 31.9972 47.5882 31.0408ZM1.40654 28.3125H4.21963C6.54653 28.3125 8.43927 30.2049 8.43927 32.5312V43.7812C8.43927 46.1075 6.54643 47.9999 4.21963 47.9999H1.40654C0.6291 47.9999 0 47.371 0 46.5937V29.7187C0 28.9414 0.6291 28.3125 1.40654 28.3125Z" fill="black" fill-opacity="0.2"/>
<path fill-rule="evenodd" clip-rule="evenodd" d="M12.6586 0C12.1889 0 11.7494 0.234843 11.4884 0.626249L6.27978 8.43749H19.7851V0H12.6586ZM31.0379 11.25V21.2812C31.0379 21.8003 30.7522 22.2768 30.2948 22.5213C29.8432 22.7635 29.2868 22.7417 28.8511 22.4513L25.4117 20.1593L21.9722 22.4513C21.5408 22.737 20.9846 22.7658 20.5285 22.5213C20.0711 22.2769 19.7854 21.8004 19.7854 21.2812V11.25H5.62616V25.6421C7.00045 25.9222 8.23033 26.6039 9.18697 27.5594L9.64663 27.2399C11.7949 25.7485 14.3099 24.9603 16.9211 24.9603C19.9844 24.9603 22.9348 26.0685 25.2315 28.0817C25.4238 28.2438 25.6834 28.3125 25.8524 28.3125H31.1318C34.1771 28.3125 36.6165 30.6649 36.7524 33.6985L41.0174 28.7766C42.1272 27.5716 43.6284 26.9176 45.1971 26.9093V11.25H31.0379ZM22.5981 0H28.2243V8.43749H22.5981V0ZM22.5984 11.25V18.6542L24.6313 17.2987C25.1037 16.9828 25.7192 16.9828 26.1917 17.2987L28.2246 18.6542V11.25H22.5984ZM38.1641 0C38.6339 0 39.0735 0.234843 39.3345 0.626249L44.543 8.43749H31.0376V0H38.1641ZM47.5882 31.0408C47.4194 30.7597 47.1944 30.5346 46.9413 30.3377C45.9056 29.4319 44.1606 29.5175 43.1437 30.6191L36.7579 37.9878C35.8894 38.9795 34.8652 39.5628 33.4666 39.5628H22.3643C21.5766 39.5628 20.9578 38.944 20.9578 38.1565C20.9578 37.369 21.5766 36.7503 22.3643 36.7503H31.1318C32.679 36.7503 33.9449 35.4847 33.9449 33.9378V33.9097C33.9167 32.3628 32.679 31.1253 31.1318 31.1253H25.8526C25.009 31.1253 24.1051 30.8156 23.377 30.1971C19.9452 27.1877 14.9378 26.9908 11.2526 29.5503V46.8471C14.0376 47.6065 16.9069 48.0003 19.8043 48.0003H32.5383C35.6326 48.0003 38.5583 46.5377 40.415 44.0627L47.1665 35.0627C48.1514 33.7699 48.2256 31.9972 47.5882 31.0408ZM1.40654 28.3125H4.21963C6.54653 28.3125 8.43927 30.2049 8.43927 32.5312V43.7812C8.43927 46.1075 6.54643 47.9999 4.21963 47.9999H1.40654C0.6291 47.9999 0 47.371 0 46.5937V29.7187C0 28.9414 0.6291 28.3125 1.40654 28.3125Z" fill="black" fill-opacity="0.2"/>
<path fill-rule="evenodd" clip-rule="evenodd" d="M12.6586 0C12.1889 0 11.7494 0.234843 11.4884 0.626249L6.27978 8.43749H19.7851V0H12.6586ZM31.0379 11.25V21.2812C31.0379 21.8003 30.7522 22.2768 30.2948 22.5213C29.8432 22.7635 29.2868 22.7417 28.8511 22.4513L25.4117 20.1593L21.9722 22.4513C21.5408 22.737 20.9846 22.7658 20.5285 22.5213C20.0711 22.2769 19.7854 21.8004 19.7854 21.2812V11.25H5.62616V25.6421C7.00045 25.9222 8.23033 26.6039 9.18697 27.5594L9.64663 27.2399C11.7949 25.7485 14.3099 24.9603 16.9211 24.9603C19.9844 24.9603 22.9348 26.0685 25.2315 28.0817C25.4238 28.2438 25.6834 28.3125 25.8524 28.3125H31.1318C34.1771 28.3125 36.6165 30.6649 36.7524 33.6985L41.0174 28.7766C42.1272 27.5716 43.6284 26.9176 45.1971 26.9093V11.25H31.0379ZM22.5981 0H28.2243V8.43749H22.5981V0ZM22.5984 11.25V18.6542L24.6313 17.2987C25.1037 16.9828 25.7192 16.9828 26.1917 17.2987L28.2246 18.6542V11.25H22.5984ZM38.1641 0C38.6339 0 39.0735 0.234843 39.3345 0.626249L44.543 8.43749H31.0376V0H38.1641ZM47.5882 31.0408C47.4194 30.7597 47.1944 30.5346 46.9413 30.3377C45.9056 29.4319 44.1606 29.5175 43.1437 30.6191L36.7579 37.9878C35.8894 38.9795 34.8652 39.5628 33.4666 39.5628H22.3643C21.5766 39.5628 20.9578 38.944 20.9578 38.1565C20.9578 37.369 21.5766 36.7503 22.3643 36.7503H31.1318C32.679 36.7503 33.9449 35.4847 33.9449 33.9378V33.9097C33.9167 32.3628 32.679 31.1253 31.1318 31.1253H25.8526C25.009 31.1253 24.1051 30.8156 23.377 30.1971C19.9452 27.1877 14.9378 26.9908 11.2526 29.5503V46.8471C14.0376 47.6065 16.9069 48.0003 19.8043 48.0003H32.5383C35.6326 48.0003 38.5583 46.5377 40.415 44.0627L47.1665 35.0627C48.1514 33.7699 48.2256 31.9972 47.5882 31.0408ZM1.40654 28.3125H4.21963C6.54653 28.3125 8.43927 30.2049 8.43927 32.5312V43.7812C8.43927 46.1075 6.54643 47.9999 4.21963 47.9999H1.40654C0.6291 47.9999 0 47.371 0 46.5937V29.7187C0 28.9414 0.6291 28.3125 1.40654 28.3125Z" fill="black" fill-opacity="0.2"/>
<path fill-rule="evenodd" clip-rule="evenodd" d="M12.6586 0C12.1889 0 11.7494 0.234843 11.4884 0.626249L6.27978 8.43749H19.7851V0H12.6586ZM31.0379 11.25V21.2812C31.0379 21.8003 30.7522 22.2768 30.2948 22.5213C29.8432 22.7635 29.2868 22.7417 28.8511 22.4513L25.4117 20.1593L21.9722 22.4513C21.5408 22.737 20.9846 22.7658 20.5285 22.5213C20.0711 22.2769 19.7854 21.8004 19.7854 21.2812V11.25H5.62616V25.6421C7.00045 25.9222 8.23033 26.6039 9.18697 27.5594L9.64663 27.2399C11.7949 25.7485 14.3099 24.9603 16.9211 24.9603C19.9844 24.9603 22.9348 26.0685 25.2315 28.0817C25.4238 28.2438 25.6834 28.3125 25.8524 28.3125H31.1318C34.1771 28.3125 36.6165 30.6649 36.7524 33.6985L41.0174 28.7766C42.1272 27.5716 43.6284 26.9176 45.1971 26.9093V11.25H31.0379ZM22.5981 0H28.2243V8.43749H22.5981V0ZM22.5984 11.25V18.6542L24.6313 17.2987C25.1037 16.9828 25.7192 16.9828 26.1917 17.2987L28.2246 18.6542V11.25H22.5984ZM38.1641 0C38.6339 0 39.0735 0.234843 39.3345 0.626249L44.543 8.43749H31.0376V0H38.1641ZM47.5882 31.0408C47.4194 30.7597 47.1944 30.5346 46.9413 30.3377C45.9056 29.4319 44.1606 29.5175 43.1437 30.6191L36.7579 37.9878C35.8894 38.9795 34.8652 39.5628 33.4666 39.5628H22.3643C21.5766 39.5628 20.9578 38.944 20.9578 38.1565C20.9578 37.369 21.5766 36.7503 22.3643 36.7503H31.1318C32.679 36.7503 33.9449 35.4847 33.9449 33.9378V33.9097C33.9167 32.3628 32.679 31.1253 31.1318 31.1253H25.8526C25.009 31.1253 24.1051 30.8156 23.377 30.1971C19.9452 27.1877 14.9378 26.9908 11.2526 29.5503V46.8471C14.0376 47.6065 16.9069 48.0003 19.8043 48.0003H32.5383C35.6326 48.0003 38.5583 46.5377 40.415 44.0627L47.1665 35.0627C48.1514 33.7699 48.2256 31.9972 47.5882 31.0408ZM1.40654 28.3125H4.21963C6.54653 28.3125 8.43927 30.2049 8.43927 32.5312V43.7812C8.43927 46.1075 6.54643 47.9999 4.21963 47.9999H1.40654C0.6291 47.9999 0 47.371 0 46.5937V29.7187C0 28.9414 0.6291 28.3125 1.40654 28.3125Z" fill="black" fill-opacity="0.2"/>
<path fill-rule="evenodd" clip-rule="evenodd" d="M12.6586 0C12.1889 0 11.7494 0.234843 11.4884 0.626249L6.27978 8.43749H19.7851V0H12.6586ZM31.0379 11.25V21.2812C31.0379 21.8003 30.7522 22.2768 30.2948 22.5213C29.8432 22.7635 29.2868 22.7417 28.8511 22.4513L25.4117 20.1593L21.9722 22.4513C21.5408 22.737 20.9846 22.7658 20.5285 22.5213C20.0711 22.2769 19.7854 21.8004 19.7854 21.2812V11.25H5.62616V25.6421C7.00045 25.9222 8.23033 26.6039 9.18697 27.5594L9.64663 27.2399C11.7949 25.7485 14.3099 24.9603 16.9211 24.9603C19.9844 24.9603 22.9348 26.0685 25.2315 28.0817C25.4238 28.2438 25.6834 28.3125 25.8524 28.3125H31.1318C34.1771 28.3125 36.6165 30.6649 36.7524 33.6985L41.0174 28.7766C42.1272 27.5716 43.6284 26.9176 45.1971 26.9093V11.25H31.0379ZM22.5981 0H28.2243V8.43749H22.5981V0ZM22.5984 11.25V18.6542L24.6313 17.2987C25.1037 16.9828 25.7192 16.9828 26.1917 17.2987L28.2246 18.6542V11.25H22.5984ZM38.1641 0C38.6339 0 39.0735 0.234843 39.3345 0.626249L44.543 8.43749H31.0376V0H38.1641ZM47.5882 31.0408C47.4194 30.7597 47.1944 30.5346 46.9413 30.3377C45.9056 29.4319 44.1606 29.5175 43.1437 30.6191L36.7579 37.9878C35.8894 38.9795 34.8652 39.5628 33.4666 39.5628H22.3643C21.5766 39.5628 20.9578 38.944 20.9578 38.1565C20.9578 37.369 21.5766 36.7503 22.3643 36.7503H31.1318C32.679 36.7503 33.9449 35.4847 33.9449 33.9378V33.9097C33.9167 32.3628 32.679 31.1253 31.1318 31.1253H25.8526C25.009 31.1253 24.1051 30.8156 23.377 30.1971C19.9452 27.1877 14.9378 26.9908 11.2526 29.5503V46.8471C14.0376 47.6065 16.9069 48.0003 19.8043 48.0003H32.5383C35.6326 48.0003 38.5583 46.5377 40.415 44.0627L47.1665 35.0627C48.1514 33.7699 48.2256 31.9972 47.5882 31.0408ZM1.40654 28.3125H4.21963C6.54653 28.3125 8.43927 30.2049 8.43927 32.5312V43.7812C8.43927 46.1075 6.54643 47.9999 4.21963 47.9999H1.40654C0.6291 47.9999 0 47.371 0 46.5937V29.7187C0 28.9414 0.6291 28.3125 1.40654 28.3125Z" fill="black" fill-opacity="0.2"/>
<path fill-rule="evenodd" clip-rule="evenodd" d="M12.6586 0C12.1889 0 11.7494 0.234843 11.4884 0.626249L6.27978 8.43749H19.7851V0H12.6586ZM31.0379 11.25V21.2812C31.0379 21.8003 30.7522 22.2768 30.2948 22.5213C29.8432 22.7635 29.2868 22.7417 28.8511 22.4513L25.4117 20.1593L21.9722 22.4513C21.5408 22.737 20.9846 22.7658 20.5285 22.5213C20.0711 22.2769 19.7854 21.8004 19.7854 21.2812V11.25H5.62616V25.6421C7.00045 25.9222 8.23033 26.6039 9.18697 27.5594L9.64663 27.2399C11.7949 25.7485 14.3099 24.9603 16.9211 24.9603C19.9844 24.9603 22.9348 26.0685 25.2315 28.0817C25.4238 28.2438 25.6834 28.3125 25.8524 28.3125H31.1318C34.1771 28.3125 36.6165 30.6649 36.7524 33.6985L41.0174 28.7766C42.1272 27.5716 43.6284 26.9176 45.1971 26.9093V11.25H31.0379ZM22.5981 0H28.2243V8.43749H22.5981V0ZM22.5984 11.25V18.6542L24.6313 17.2987C25.1037 16.9828 25.7192 16.9828 26.1917 17.2987L28.2246 18.6542V11.25H22.5984ZM38.1641 0C38.6339 0 39.0735 0.234843 39.3345 0.626249L44.543 8.43749H31.0376V0H38.1641ZM47.5882 31.0408C47.4194 30.7597 47.1944 30.5346 46.9413 30.3377C45.9056 29.4319 44.1606 29.5175 43.1437 30.6191L36.7579 37.9878C35.8894 38.9795 34.8652 39.5628 33.4666 39.5628H22.3643C21.5766 39.5628 20.9578 38.944 20.9578 38.1565C20.9578 37.369 21.5766 36.7503 22.3643 36.7503H31.1318C32.679 36.7503 33.9449 35.4847 33.9449 33.9378V33.9097C33.9167 32.3628 32.679 31.1253 31.1318 31.1253H25.8526C25.009 31.1253 24.1051 30.8156 23.377 30.1971C19.9452 27.1877 14.9378 26.9908 11.2526 29.5503V46.8471C14.0376 47.6065 16.9069 48.0003 19.8043 48.0003H32.5383C35.6326 48.0003 38.5583 46.5377 40.415 44.0627L47.1665 35.0627C48.1514 33.7699 48.2256 31.9972 47.5882 31.0408ZM1.40654 28.3125H4.21963C6.54653 28.3125 8.43927 30.2049 8.43927 32.5312V43.7812C8.43927 46.1075 6.54643 47.9999 4.21963 47.9999H1.40654C0.6291 47.9999 0 47.371 0 46.5937V29.7187C0 28.9414 0.6291 28.3125 1.40654 28.3125Z" fill="black" fill-opacity="0.2"/>
<path fill-rule="evenodd" clip-rule="evenodd" d="M12.6586 0C12.1889 0 11.7494 0.234843 11.4884 0.626249L6.27978 8.43749H19.7851V0H12.6586ZM31.0379 11.25V21.2812C31.0379 21.8003 30.7522 22.2768 30.2948 22.5213C29.8432 22.7635 29.2868 22.7417 28.8511 22.4513L25.4117 20.1593L21.9722 22.4513C21.5408 22.737 20.9846 22.7658 20.5285 22.5213C20.0711 22.2769 19.7854 21.8004 19.7854 21.2812V11.25H5.62616V25.6421C7.00045 25.9222 8.23033 26.6039 9.18697 27.5594L9.64663 27.2399C11.7949 25.7485 14.3099 24.9603 16.9211 24.9603C19.9844 24.9603 22.9348 26.0685 25.2315 28.0817C25.4238 28.2438 25.6834 28.3125 25.8524 28.3125H31.1318C34.1771 28.3125 36.6165 30.6649 36.7524 33.6985L41.0174 28.7766C42.1272 27.5716 43.6284 26.9176 45.1971 26.9093V11.25H31.0379ZM22.5981 0H28.2243V8.43749H22.5981V0ZM22.5984 11.25V18.6542L24.6313 17.2987C25.1037 16.9828 25.7192 16.9828 26.1917 17.2987L28.2246 18.6542V11.25H22.5984ZM38.1641 0C38.6339 0 39.0735 0.234843 39.3345 0.626249L44.543 8.43749H31.0376V0H38.1641ZM47.5882 31.0408C47.4194 30.7597 47.1944 30.5346 46.9413 30.3377C45.9056 29.4319 44.1606 29.5175 43.1437 30.6191L36.7579 37.9878C35.8894 38.9795 34.8652 39.5628 33.4666 39.5628H22.3643C21.5766 39.5628 20.9578 38.944 20.9578 38.1565C20.9578 37.369 21.5766 36.7503 22.3643 36.7503H31.1318C32.679 36.7503 33.9449 35.4847 33.9449 33.9378V33.9097C33.9167 32.3628 32.679 31.1253 31.1318 31.1253H25.8526C25.009 31.1253 24.1051 30.8156 23.377 30.1971C19.9452 27.1877 14.9378 26.9908 11.2526 29.5503V46.8471C14.0376 47.6065 16.9069 48.0003 19.8043 48.0003H32.5383C35.6326 48.0003 38.5583 46.5377 40.415 44.0627L47.1665 35.0627C48.1514 33.7699 48.2256 31.9972 47.5882 31.0408ZM1.40654 28.3125H4.21963C6.54653 28.3125 8.43927 30.2049 8.43927 32.5312V43.7812C8.43927 46.1075 6.54643 47.9999 4.21963 47.9999H1.40654C0.6291 47.9999 0 47.371 0 46.5937V29.7187C0 28.9414 0.6291 28.3125 1.40654 28.3125Z" fill="black" fill-opacity="0.2"/>
<path fill-rule="evenodd" clip-rule="evenodd" d="M12.6586 0C12.1889 0 11.7494 0.234843 11.4884 0.626249L6.27978 8.43749H19.7851V0H12.6586ZM31.0379 11.25V21.2812C31.0379 21.8003 30.7522 22.2768 30.2948 22.5213C29.8432 22.7635 29.2868 22.7417 28.8511 22.4513L25.4117 20.1593L21.9722 22.4513C21.5408 22.737 20.9846 22.7658 20.5285 22.5213C20.0711 22.2769 19.7854 21.8004 19.7854 21.2812V11.25H5.62616V25.6421C7.00045 25.9222 8.23033 26.6039 9.18697 27.5594L9.64663 27.2399C11.7949 25.7485 14.3099 24.9603 16.9211 24.9603C19.9844 24.9603 22.9348 26.0685 25.2315 28.0817C25.4238 28.2438 25.6834 28.3125 25.8524 28.3125H31.1318C34.1771 28.3125 36.6165 30.6649 36.7524 33.6985L41.0174 28.7766C42.1272 27.5716 43.6284 26.9176 45.1971 26.9093V11.25H31.0379ZM22.5981 0H28.2243V8.43749H22.5981V0ZM22.5984 11.25V18.6542L24.6313 17.2987C25.1037 16.9828 25.7192 16.9828 26.1917 17.2987L28.2246 18.6542V11.25H22.5984ZM38.1641 0C38.6339 0 39.0735 0.234843 39.3345 0.626249L44.543 8.43749H31.0376V0H38.1641ZM47.5882 31.0408C47.4194 30.7597 47.1944 30.5346 46.9413 30.3377C45.9056 29.4319 44.1606 29.5175 43.1437 30.6191L36.7579 37.9878C35.8894 38.9795 34.8652 39.5628 33.4666 39.5628H22.3643C21.5766 39.5628 20.9578 38.944 20.9578 38.1565C20.9578 37.369 21.5766 36.7503 22.3643 36.7503H31.1318C32.679 36.7503 33.9449 35.4847 33.9449 33.9378V33.9097C33.9167 32.3628 32.679 31.1253 31.1318 31.1253H25.8526C25.009 31.1253 24.1051 30.8156 23.377 30.1971C19.9452 27.1877 14.9378 26.9908 11.2526 29.5503V46.8471C14.0376 47.6065 16.9069 48.0003 19.8043 48.0003H32.5383C35.6326 48.0003 38.5583 46.5377 40.415 44.0627L47.1665 35.0627C48.1514 33.7699 48.2256 31.9972 47.5882 31.0408ZM1.40654 28.3125H4.21963C6.54653 28.3125 8.43927 30.2049 8.43927 32.5312V43.7812C8.43927 46.1075 6.54643 47.9999 4.21963 47.9999H1.40654C0.6291 47.9999 0 47.371 0 46.5937V29.7187C0 28.9414 0.6291 28.3125 1.40654 28.3125Z" fill="black" fill-opacity="0.2"/>
<path fill-rule="evenodd" clip-rule="evenodd" d="M12.6586 0C12.1889 0 11.7494 0.234843 11.4884 0.626249L6.27978 8.43749H19.7851V0H12.6586ZM31.0379 11.25V21.2812C31.0379 21.8003 30.7522 22.2768 30.2948 22.5213C29.8432 22.7635 29.2868 22.7417 28.8511 22.4513L25.4117 20.1593L21.9722 22.4513C21.5408 22.737 20.9846 22.7658 20.5285 22.5213C20.0711 22.2769 19.7854 21.8004 19.7854 21.2812V11.25H5.62616V25.6421C7.00045 25.9222 8.23033 26.6039 9.18697 27.5594L9.64663 27.2399C11.7949 25.7485 14.3099 24.9603 16.9211 24.9603C19.9844 24.9603 22.9348 26.0685 25.2315 28.0817C25.4238 28.2438 25.6834 28.3125 25.8524 28.3125H31.1318C34.1771 28.3125 36.6165 30.6649 36.7524 33.6985L41.0174 28.7766C42.1272 27.5716 43.6284 26.9176 45.1971 26.9093V11.25H31.0379ZM22.5981 0H28.2243V8.43749H22.5981V0ZM22.5984 11.25V18.6542L24.6313 17.2987C25.1037 16.9828 25.7192 16.9828 26.1917 17.2987L28.2246 18.6542V11.25H22.5984ZM38.1641 0C38.6339 0 39.0735 0.234843 39.3345 0.626249L44.543 8.43749H31.0376V0H38.1641ZM47.5882 31.0408C47.4194 30.7597 47.1944 30.5346 46.9413 30.3377C45.9056 29.4319 44.1606 29.5175 43.1437 30.6191L36.7579 37.9878C35.8894 38.9795 34.8652 39.5628 33.4666 39.5628H22.3643C21.5766 39.5628 20.9578 38.944 20.9578 38.1565C20.9578 37.369 21.5766 36.7503 22.3643 36.7503H31.1318C32.679 36.7503 33.9449 35.4847 33.9449 33.9378V33.9097C33.9167 32.3628 32.679 31.1253 31.1318 31.1253H25.8526C25.009 31.1253 24.1051 30.8156 23.377 30.1971C19.9452 27.1877 14.9378 26.9908 11.2526 29.5503V46.8471C14.0376 47.6065 16.9069 48.0003 19.8043 48.0003H32.5383C35.6326 48.0003 38.5583 46.5377 40.415 44.0627L47.1665 35.0627C48.1514 33.7699 48.2256 31.9972 47.5882 31.0408ZM1.40654 28.3125H4.21963C6.54653 28.3125 8.43927 30.2049 8.43927 32.5312V43.7812C8.43927 46.1075 6.54643 47.9999 4.21963 47.9999H1.40654C0.6291 47.9999 0 47.371 0 46.5937V29.7187C0 28.9414 0.6291 28.3125 1.40654 28.3125Z" fill="black" fill-opacity="0.2"/>
</svg>
