<svg width="24" height="24" viewBox="0 0 24 24" fill="none" xmlns="http://www.w3.org/2000/svg">
<g clip-path="url(#clip0_664_4585)">
<path fill-rule="evenodd" clip-rule="evenodd" d="M13.5 0H5.625C4.1325 0 2.70371 0.592502 1.64621 1.64738C0.59246 2.70225 0 4.13325 0 5.625V18.375C0 19.8668 0.59246 21.2977 1.64621 22.3526C2.70371 23.4075 4.1325 24 5.625 24H15.375C16.8675 24 18.2963 23.4075 19.3538 22.3526C20.4075 21.2977 21 19.8668 21 18.375V13.5C21 12.879 20.4975 12.375 19.875 12.375C19.2525 12.375 18.75 12.879 18.75 13.5V18.375C18.75 19.2701 18.3938 20.1285 17.76 20.7615C17.13 21.3945 16.2712 21.75 15.375 21.75C12.4237 21.75 8.57625 21.75 5.625 21.75C4.72875 21.75 3.86996 21.3945 3.23996 20.7615C2.60621 20.1285 2.25 19.2701 2.25 18.375C2.25 14.6415 2.25 9.3585 2.25 5.625C2.25 4.72988 2.60621 3.87149 3.23996 3.23849C3.86996 2.60549 4.72875 2.25 5.625 2.25H13.5C14.1225 2.25 14.625 1.746 14.625 1.125C14.625 0.504 14.1225 0 13.5 0ZM16.92 0.988495L5.57996 12.3296C5.40746 12.5017 5.29501 12.7249 5.26126 12.966L4.51126 18.216C4.46251 18.5666 4.57871 18.9202 4.82996 19.1704C5.08121 19.4209 5.43372 19.5386 5.78247 19.4888L11.0325 18.7388C11.2762 18.7043 11.4975 18.5925 11.67 18.4204C11.67 18.4204 18.8738 11.2159 23.01 7.07962C23.6438 6.44662 24 5.58826 24 4.69313C24 3.79801 23.6438 2.93963 23.01 2.30663C22.5825 1.87875 22.1213 1.41637 21.6938 0.988495C21.06 0.355495 20.2012 0 19.3087 0C18.4125 0 17.5538 0.355495 16.92 0.988495ZM15.375 5.71613L18.285 8.625L10.3463 16.5645L6.95251 17.049L7.43628 13.6553L15.375 5.71613ZM15.045 10.5454L16.17 9.42038C16.6088 8.98163 16.6088 8.26837 16.17 7.82962C15.7313 7.3905 15.0187 7.3905 14.58 7.82962L13.455 8.95462C13.0162 9.39337 13.0162 10.1066 13.455 10.5454C13.8937 10.9845 14.6063 10.9845 15.045 10.5454ZM19.875 7.03387L16.965 4.125L18.51 2.57962C18.7238 2.3685 19.0087 2.25 19.3087 2.25C19.605 2.25 19.89 2.3685 20.1038 2.57962L21.42 3.89738C21.63 4.1085 21.75 4.39463 21.75 4.69313C21.75 4.99126 21.63 5.27737 21.42 5.48849L19.875 7.03387Z" fill="black"/>
<path fill-rule="evenodd" clip-rule="evenodd" d="M13.5 0H5.625C4.1325 0 2.70371 0.592502 1.64621 1.64738C0.59246 2.70225 0 4.13325 0 5.625V18.375C0 19.8668 0.59246 21.2977 1.64621 22.3526C2.70371 23.4075 4.1325 24 5.625 24H15.375C16.8675 24 18.2963 23.4075 19.3538 22.3526C20.4075 21.2977 21 19.8668 21 18.375V13.5C21 12.879 20.4975 12.375 19.875 12.375C19.2525 12.375 18.75 12.879 18.75 13.5V18.375C18.75 19.2701 18.3938 20.1285 17.76 20.7615C17.13 21.3945 16.2712 21.75 15.375 21.75C12.4237 21.75 8.57625 21.75 5.625 21.75C4.72875 21.75 3.86996 21.3945 3.23996 20.7615C2.60621 20.1285 2.25 19.2701 2.25 18.375C2.25 14.6415 2.25 9.3585 2.25 5.625C2.25 4.72988 2.60621 3.87149 3.23996 3.23849C3.86996 2.60549 4.72875 2.25 5.625 2.25H13.5C14.1225 2.25 14.625 1.746 14.625 1.125C14.625 0.504 14.1225 0 13.5 0ZM16.92 0.988495L5.57996 12.3296C5.40746 12.5017 5.29501 12.7249 5.26126 12.966L4.51126 18.216C4.46251 18.5666 4.57871 18.9202 4.82996 19.1704C5.08121 19.4209 5.43372 19.5386 5.78247 19.4888L11.0325 18.7388C11.2762 18.7043 11.4975 18.5925 11.67 18.4204C11.67 18.4204 18.8738 11.2159 23.01 7.07962C23.6438 6.44662 24 5.58826 24 4.69313C24 3.79801 23.6438 2.93963 23.01 2.30663C22.5825 1.87875 22.1213 1.41637 21.6938 0.988495C21.06 0.355495 20.2012 0 19.3087 0C18.4125 0 17.5538 0.355495 16.92 0.988495ZM15.375 5.71613L18.285 8.625L10.3463 16.5645L6.95251 17.049L7.43628 13.6553L15.375 5.71613ZM15.045 10.5454L16.17 9.42038C16.6088 8.98163 16.6088 8.26837 16.17 7.82962C15.7313 7.3905 15.0187 7.3905 14.58 7.82962L13.455 8.95462C13.0162 9.39337 13.0162 10.1066 13.455 10.5454C13.8937 10.9845 14.6063 10.9845 15.045 10.5454ZM19.875 7.03387L16.965 4.125L18.51 2.57962C18.7238 2.3685 19.0087 2.25 19.3087 2.25C19.605 2.25 19.89 2.3685 20.1038 2.57962L21.42 3.89738C21.63 4.1085 21.75 4.39463 21.75 4.69313C21.75 4.99126 21.63 5.27737 21.42 5.48849L19.875 7.03387Z" fill="black" fill-opacity="0.2"/>
<path fill-rule="evenodd" clip-rule="evenodd" d="M13.5 0H5.625C4.1325 0 2.70371 0.592502 1.64621 1.64738C0.59246 2.70225 0 4.13325 0 5.625V18.375C0 19.8668 0.59246 21.2977 1.64621 22.3526C2.70371 23.4075 4.1325 24 5.625 24H15.375C16.8675 24 18.2963 23.4075 19.3538 22.3526C20.4075 21.2977 21 19.8668 21 18.375V13.5C21 12.879 20.4975 12.375 19.875 12.375C19.2525 12.375 18.75 12.879 18.75 13.5V18.375C18.75 19.2701 18.3938 20.1285 17.76 20.7615C17.13 21.3945 16.2712 21.75 15.375 21.75C12.4237 21.75 8.57625 21.75 5.625 21.75C4.72875 21.75 3.86996 21.3945 3.23996 20.7615C2.60621 20.1285 2.25 19.2701 2.25 18.375C2.25 14.6415 2.25 9.3585 2.25 5.625C2.25 4.72988 2.60621 3.87149 3.23996 3.23849C3.86996 2.60549 4.72875 2.25 5.625 2.25H13.5C14.1225 2.25 14.625 1.746 14.625 1.125C14.625 0.504 14.1225 0 13.5 0ZM16.92 0.988495L5.57996 12.3296C5.40746 12.5017 5.29501 12.7249 5.26126 12.966L4.51126 18.216C4.46251 18.5666 4.57871 18.9202 4.82996 19.1704C5.08121 19.4209 5.43372 19.5386 5.78247 19.4888L11.0325 18.7388C11.2762 18.7043 11.4975 18.5925 11.67 18.4204C11.67 18.4204 18.8738 11.2159 23.01 7.07962C23.6438 6.44662 24 5.58826 24 4.69313C24 3.79801 23.6438 2.93963 23.01 2.30663C22.5825 1.87875 22.1213 1.41637 21.6938 0.988495C21.06 0.355495 20.2012 0 19.3087 0C18.4125 0 17.5538 0.355495 16.92 0.988495ZM15.375 5.71613L18.285 8.625L10.3463 16.5645L6.95251 17.049L7.43628 13.6553L15.375 5.71613ZM15.045 10.5454L16.17 9.42038C16.6088 8.98163 16.6088 8.26837 16.17 7.82962C15.7313 7.3905 15.0187 7.3905 14.58 7.82962L13.455 8.95462C13.0162 9.39337 13.0162 10.1066 13.455 10.5454C13.8937 10.9845 14.6063 10.9845 15.045 10.5454ZM19.875 7.03387L16.965 4.125L18.51 2.57962C18.7238 2.3685 19.0087 2.25 19.3087 2.25C19.605 2.25 19.89 2.3685 20.1038 2.57962L21.42 3.89738C21.63 4.1085 21.75 4.39463 21.75 4.69313C21.75 4.99126 21.63 5.27737 21.42 5.48849L19.875 7.03387Z" fill="black" fill-opacity="0.2"/>
<path fill-rule="evenodd" clip-rule="evenodd" d="M13.5 0H5.625C4.1325 0 2.70371 0.592502 1.64621 1.64738C0.59246 2.70225 0 4.13325 0 5.625V18.375C0 19.8668 0.59246 21.2977 1.64621 22.3526C2.70371 23.4075 4.1325 24 5.625 24H15.375C16.8675 24 18.2963 23.4075 19.3538 22.3526C20.4075 21.2977 21 19.8668 21 18.375V13.5C21 12.879 20.4975 12.375 19.875 12.375C19.2525 12.375 18.75 12.879 18.75 13.5V18.375C18.75 19.2701 18.3938 20.1285 17.76 20.7615C17.13 21.3945 16.2712 21.75 15.375 21.75C12.4237 21.75 8.57625 21.75 5.625 21.75C4.72875 21.75 3.86996 21.3945 3.23996 20.7615C2.60621 20.1285 2.25 19.2701 2.25 18.375C2.25 14.6415 2.25 9.3585 2.25 5.625C2.25 4.72988 2.60621 3.87149 3.23996 3.23849C3.86996 2.60549 4.72875 2.25 5.625 2.25H13.5C14.1225 2.25 14.625 1.746 14.625 1.125C14.625 0.504 14.1225 0 13.5 0ZM16.92 0.988495L5.57996 12.3296C5.40746 12.5017 5.29501 12.7249 5.26126 12.966L4.51126 18.216C4.46251 18.5666 4.57871 18.9202 4.82996 19.1704C5.08121 19.4209 5.43372 19.5386 5.78247 19.4888L11.0325 18.7388C11.2762 18.7043 11.4975 18.5925 11.67 18.4204C11.67 18.4204 18.8738 11.2159 23.01 7.07962C23.6438 6.44662 24 5.58826 24 4.69313C24 3.79801 23.6438 2.93963 23.01 2.30663C22.5825 1.87875 22.1213 1.41637 21.6938 0.988495C21.06 0.355495 20.2012 0 19.3087 0C18.4125 0 17.5538 0.355495 16.92 0.988495ZM15.375 5.71613L18.285 8.625L10.3463 16.5645L6.95251 17.049L7.43628 13.6553L15.375 5.71613ZM15.045 10.5454L16.17 9.42038C16.6088 8.98163 16.6088 8.26837 16.17 7.82962C15.7313 7.3905 15.0187 7.3905 14.58 7.82962L13.455 8.95462C13.0162 9.39337 13.0162 10.1066 13.455 10.5454C13.8937 10.9845 14.6063 10.9845 15.045 10.5454ZM19.875 7.03387L16.965 4.125L18.51 2.57962C18.7238 2.3685 19.0087 2.25 19.3087 2.25C19.605 2.25 19.89 2.3685 20.1038 2.57962L21.42 3.89738C21.63 4.1085 21.75 4.39463 21.75 4.69313C21.75 4.99126 21.63 5.27737 21.42 5.48849L19.875 7.03387Z" fill="black" fill-opacity="0.2"/>
<path fill-rule="evenodd" clip-rule="evenodd" d="M13.5 0H5.625C4.1325 0 2.70371 0.592502 1.64621 1.64738C0.59246 2.70225 0 4.13325 0 5.625V18.375C0 19.8668 0.59246 21.2977 1.64621 22.3526C2.70371 23.4075 4.1325 24 5.625 24H15.375C16.8675 24 18.2963 23.4075 19.3538 22.3526C20.4075 21.2977 21 19.8668 21 18.375V13.5C21 12.879 20.4975 12.375 19.875 12.375C19.2525 12.375 18.75 12.879 18.75 13.5V18.375C18.75 19.2701 18.3938 20.1285 17.76 20.7615C17.13 21.3945 16.2712 21.75 15.375 21.75C12.4237 21.75 8.57625 21.75 5.625 21.75C4.72875 21.75 3.86996 21.3945 3.23996 20.7615C2.60621 20.1285 2.25 19.2701 2.25 18.375C2.25 14.6415 2.25 9.3585 2.25 5.625C2.25 4.72988 2.60621 3.87149 3.23996 3.23849C3.86996 2.60549 4.72875 2.25 5.625 2.25H13.5C14.1225 2.25 14.625 1.746 14.625 1.125C14.625 0.504 14.1225 0 13.5 0ZM16.92 0.988495L5.57996 12.3296C5.40746 12.5017 5.29501 12.7249 5.26126 12.966L4.51126 18.216C4.46251 18.5666 4.57871 18.9202 4.82996 19.1704C5.08121 19.4209 5.43372 19.5386 5.78247 19.4888L11.0325 18.7388C11.2762 18.7043 11.4975 18.5925 11.67 18.4204C11.67 18.4204 18.8738 11.2159 23.01 7.07962C23.6438 6.44662 24 5.58826 24 4.69313C24 3.79801 23.6438 2.93963 23.01 2.30663C22.5825 1.87875 22.1213 1.41637 21.6938 0.988495C21.06 0.355495 20.2012 0 19.3087 0C18.4125 0 17.5538 0.355495 16.92 0.988495ZM15.375 5.71613L18.285 8.625L10.3463 16.5645L6.95251 17.049L7.43628 13.6553L15.375 5.71613ZM15.045 10.5454L16.17 9.42038C16.6088 8.98163 16.6088 8.26837 16.17 7.82962C15.7313 7.3905 15.0187 7.3905 14.58 7.82962L13.455 8.95462C13.0162 9.39337 13.0162 10.1066 13.455 10.5454C13.8937 10.9845 14.6063 10.9845 15.045 10.5454ZM19.875 7.03387L16.965 4.125L18.51 2.57962C18.7238 2.3685 19.0087 2.25 19.3087 2.25C19.605 2.25 19.89 2.3685 20.1038 2.57962L21.42 3.89738C21.63 4.1085 21.75 4.39463 21.75 4.69313C21.75 4.99126 21.63 5.27737 21.42 5.48849L19.875 7.03387Z" fill="black" fill-opacity="0.2"/>
<path fill-rule="evenodd" clip-rule="evenodd" d="M13.5 0H5.625C4.1325 0 2.70371 0.592502 1.64621 1.64738C0.59246 2.70225 0 4.13325 0 5.625V18.375C0 19.8668 0.59246 21.2977 1.64621 22.3526C2.70371 23.4075 4.1325 24 5.625 24H15.375C16.8675 24 18.2963 23.4075 19.3538 22.3526C20.4075 21.2977 21 19.8668 21 18.375V13.5C21 12.879 20.4975 12.375 19.875 12.375C19.2525 12.375 18.75 12.879 18.75 13.5V18.375C18.75 19.2701 18.3938 20.1285 17.76 20.7615C17.13 21.3945 16.2712 21.75 15.375 21.75C12.4237 21.75 8.57625 21.75 5.625 21.75C4.72875 21.75 3.86996 21.3945 3.23996 20.7615C2.60621 20.1285 2.25 19.2701 2.25 18.375C2.25 14.6415 2.25 9.3585 2.25 5.625C2.25 4.72988 2.60621 3.87149 3.23996 3.23849C3.86996 2.60549 4.72875 2.25 5.625 2.25H13.5C14.1225 2.25 14.625 1.746 14.625 1.125C14.625 0.504 14.1225 0 13.5 0ZM16.92 0.988495L5.57996 12.3296C5.40746 12.5017 5.29501 12.7249 5.26126 12.966L4.51126 18.216C4.46251 18.5666 4.57871 18.9202 4.82996 19.1704C5.08121 19.4209 5.43372 19.5386 5.78247 19.4888L11.0325 18.7388C11.2762 18.7043 11.4975 18.5925 11.67 18.4204C11.67 18.4204 18.8738 11.2159 23.01 7.07962C23.6438 6.44662 24 5.58826 24 4.69313C24 3.79801 23.6438 2.93963 23.01 2.30663C22.5825 1.87875 22.1213 1.41637 21.6938 0.988495C21.06 0.355495 20.2012 0 19.3087 0C18.4125 0 17.5538 0.355495 16.92 0.988495ZM15.375 5.71613L18.285 8.625L10.3463 16.5645L6.95251 17.049L7.43628 13.6553L15.375 5.71613ZM15.045 10.5454L16.17 9.42038C16.6088 8.98163 16.6088 8.26837 16.17 7.82962C15.7313 7.3905 15.0187 7.3905 14.58 7.82962L13.455 8.95462C13.0162 9.39337 13.0162 10.1066 13.455 10.5454C13.8937 10.9845 14.6063 10.9845 15.045 10.5454ZM19.875 7.03387L16.965 4.125L18.51 2.57962C18.7238 2.3685 19.0087 2.25 19.3087 2.25C19.605 2.25 19.89 2.3685 20.1038 2.57962L21.42 3.89738C21.63 4.1085 21.75 4.39463 21.75 4.69313C21.75 4.99126 21.63 5.27737 21.42 5.48849L19.875 7.03387Z" fill="black" fill-opacity="0.2"/>
<path fill-rule="evenodd" clip-rule="evenodd" d="M13.5 0H5.625C4.1325 0 2.70371 0.592502 1.64621 1.64738C0.59246 2.70225 0 4.13325 0 5.625V18.375C0 19.8668 0.59246 21.2977 1.64621 22.3526C2.70371 23.4075 4.1325 24 5.625 24H15.375C16.8675 24 18.2963 23.4075 19.3538 22.3526C20.4075 21.2977 21 19.8668 21 18.375V13.5C21 12.879 20.4975 12.375 19.875 12.375C19.2525 12.375 18.75 12.879 18.75 13.5V18.375C18.75 19.2701 18.3938 20.1285 17.76 20.7615C17.13 21.3945 16.2712 21.75 15.375 21.75C12.4237 21.75 8.57625 21.75 5.625 21.75C4.72875 21.75 3.86996 21.3945 3.23996 20.7615C2.60621 20.1285 2.25 19.2701 2.25 18.375C2.25 14.6415 2.25 9.3585 2.25 5.625C2.25 4.72988 2.60621 3.87149 3.23996 3.23849C3.86996 2.60549 4.72875 2.25 5.625 2.25H13.5C14.1225 2.25 14.625 1.746 14.625 1.125C14.625 0.504 14.1225 0 13.5 0ZM16.92 0.988495L5.57996 12.3296C5.40746 12.5017 5.29501 12.7249 5.26126 12.966L4.51126 18.216C4.46251 18.5666 4.57871 18.9202 4.82996 19.1704C5.08121 19.4209 5.43372 19.5386 5.78247 19.4888L11.0325 18.7388C11.2762 18.7043 11.4975 18.5925 11.67 18.4204C11.67 18.4204 18.8738 11.2159 23.01 7.07962C23.6438 6.44662 24 5.58826 24 4.69313C24 3.79801 23.6438 2.93963 23.01 2.30663C22.5825 1.87875 22.1213 1.41637 21.6938 0.988495C21.06 0.355495 20.2012 0 19.3087 0C18.4125 0 17.5538 0.355495 16.92 0.988495ZM15.375 5.71613L18.285 8.625L10.3463 16.5645L6.95251 17.049L7.43628 13.6553L15.375 5.71613ZM15.045 10.5454L16.17 9.42038C16.6088 8.98163 16.6088 8.26837 16.17 7.82962C15.7313 7.3905 15.0187 7.3905 14.58 7.82962L13.455 8.95462C13.0162 9.39337 13.0162 10.1066 13.455 10.5454C13.8937 10.9845 14.6063 10.9845 15.045 10.5454ZM19.875 7.03387L16.965 4.125L18.51 2.57962C18.7238 2.3685 19.0087 2.25 19.3087 2.25C19.605 2.25 19.89 2.3685 20.1038 2.57962L21.42 3.89738C21.63 4.1085 21.75 4.39463 21.75 4.69313C21.75 4.99126 21.63 5.27737 21.42 5.48849L19.875 7.03387Z" fill="black" fill-opacity="0.2"/>
<path fill-rule="evenodd" clip-rule="evenodd" d="M13.5 0H5.625C4.1325 0 2.70371 0.592502 1.64621 1.64738C0.59246 2.70225 0 4.13325 0 5.625V18.375C0 19.8668 0.59246 21.2977 1.64621 22.3526C2.70371 23.4075 4.1325 24 5.625 24H15.375C16.8675 24 18.2963 23.4075 19.3538 22.3526C20.4075 21.2977 21 19.8668 21 18.375V13.5C21 12.879 20.4975 12.375 19.875 12.375C19.2525 12.375 18.75 12.879 18.75 13.5V18.375C18.75 19.2701 18.3938 20.1285 17.76 20.7615C17.13 21.3945 16.2712 21.75 15.375 21.75C12.4237 21.75 8.57625 21.75 5.625 21.75C4.72875 21.75 3.86996 21.3945 3.23996 20.7615C2.60621 20.1285 2.25 19.2701 2.25 18.375C2.25 14.6415 2.25 9.3585 2.25 5.625C2.25 4.72988 2.60621 3.87149 3.23996 3.23849C3.86996 2.60549 4.72875 2.25 5.625 2.25H13.5C14.1225 2.25 14.625 1.746 14.625 1.125C14.625 0.504 14.1225 0 13.5 0ZM16.92 0.988495L5.57996 12.3296C5.40746 12.5017 5.29501 12.7249 5.26126 12.966L4.51126 18.216C4.46251 18.5666 4.57871 18.9202 4.82996 19.1704C5.08121 19.4209 5.43372 19.5386 5.78247 19.4888L11.0325 18.7388C11.2762 18.7043 11.4975 18.5925 11.67 18.4204C11.67 18.4204 18.8738 11.2159 23.01 7.07962C23.6438 6.44662 24 5.58826 24 4.69313C24 3.79801 23.6438 2.93963 23.01 2.30663C22.5825 1.87875 22.1213 1.41637 21.6938 0.988495C21.06 0.355495 20.2012 0 19.3087 0C18.4125 0 17.5538 0.355495 16.92 0.988495ZM15.375 5.71613L18.285 8.625L10.3463 16.5645L6.95251 17.049L7.43628 13.6553L15.375 5.71613ZM15.045 10.5454L16.17 9.42038C16.6088 8.98163 16.6088 8.26837 16.17 7.82962C15.7313 7.3905 15.0187 7.3905 14.58 7.82962L13.455 8.95462C13.0162 9.39337 13.0162 10.1066 13.455 10.5454C13.8937 10.9845 14.6063 10.9845 15.045 10.5454ZM19.875 7.03387L16.965 4.125L18.51 2.57962C18.7238 2.3685 19.0087 2.25 19.3087 2.25C19.605 2.25 19.89 2.3685 20.1038 2.57962L21.42 3.89738C21.63 4.1085 21.75 4.39463 21.75 4.69313C21.75 4.99126 21.63 5.27737 21.42 5.48849L19.875 7.03387Z" fill="black" fill-opacity="0.2"/>
<path fill-rule="evenodd" clip-rule="evenodd" d="M13.5 0H5.625C4.1325 0 2.70371 0.592502 1.64621 1.64738C0.59246 2.70225 0 4.13325 0 5.625V18.375C0 19.8668 0.59246 21.2977 1.64621 22.3526C2.70371 23.4075 4.1325 24 5.625 24H15.375C16.8675 24 18.2963 23.4075 19.3538 22.3526C20.4075 21.2977 21 19.8668 21 18.375V13.5C21 12.879 20.4975 12.375 19.875 12.375C19.2525 12.375 18.75 12.879 18.75 13.5V18.375C18.75 19.2701 18.3938 20.1285 17.76 20.7615C17.13 21.3945 16.2712 21.75 15.375 21.75C12.4237 21.75 8.57625 21.75 5.625 21.75C4.72875 21.75 3.86996 21.3945 3.23996 20.7615C2.60621 20.1285 2.25 19.2701 2.25 18.375C2.25 14.6415 2.25 9.3585 2.25 5.625C2.25 4.72988 2.60621 3.87149 3.23996 3.23849C3.86996 2.60549 4.72875 2.25 5.625 2.25H13.5C14.1225 2.25 14.625 1.746 14.625 1.125C14.625 0.504 14.1225 0 13.5 0ZM16.92 0.988495L5.57996 12.3296C5.40746 12.5017 5.29501 12.7249 5.26126 12.966L4.51126 18.216C4.46251 18.5666 4.57871 18.9202 4.82996 19.1704C5.08121 19.4209 5.43372 19.5386 5.78247 19.4888L11.0325 18.7388C11.2762 18.7043 11.4975 18.5925 11.67 18.4204C11.67 18.4204 18.8738 11.2159 23.01 7.07962C23.6438 6.44662 24 5.58826 24 4.69313C24 3.79801 23.6438 2.93963 23.01 2.30663C22.5825 1.87875 22.1213 1.41637 21.6938 0.988495C21.06 0.355495 20.2012 0 19.3087 0C18.4125 0 17.5538 0.355495 16.92 0.988495ZM15.375 5.71613L18.285 8.625L10.3463 16.5645L6.95251 17.049L7.43628 13.6553L15.375 5.71613ZM15.045 10.5454L16.17 9.42038C16.6088 8.98163 16.6088 8.26837 16.17 7.82962C15.7313 7.3905 15.0187 7.3905 14.58 7.82962L13.455 8.95462C13.0162 9.39337 13.0162 10.1066 13.455 10.5454C13.8937 10.9845 14.6063 10.9845 15.045 10.5454ZM19.875 7.03387L16.965 4.125L18.51 2.57962C18.7238 2.3685 19.0087 2.25 19.3087 2.25C19.605 2.25 19.89 2.3685 20.1038 2.57962L21.42 3.89738C21.63 4.1085 21.75 4.39463 21.75 4.69313C21.75 4.99126 21.63 5.27737 21.42 5.48849L19.875 7.03387Z" fill="black" fill-opacity="0.2"/>
<path fill-rule="evenodd" clip-rule="evenodd" d="M13.5 0H5.625C4.1325 0 2.70371 0.592502 1.64621 1.64738C0.59246 2.70225 0 4.13325 0 5.625V18.375C0 19.8668 0.59246 21.2977 1.64621 22.3526C2.70371 23.4075 4.1325 24 5.625 24H15.375C16.8675 24 18.2963 23.4075 19.3538 22.3526C20.4075 21.2977 21 19.8668 21 18.375V13.5C21 12.879 20.4975 12.375 19.875 12.375C19.2525 12.375 18.75 12.879 18.75 13.5V18.375C18.75 19.2701 18.3938 20.1285 17.76 20.7615C17.13 21.3945 16.2712 21.75 15.375 21.75C12.4237 21.75 8.57625 21.75 5.625 21.75C4.72875 21.75 3.86996 21.3945 3.23996 20.7615C2.60621 20.1285 2.25 19.2701 2.25 18.375C2.25 14.6415 2.25 9.3585 2.25 5.625C2.25 4.72988 2.60621 3.87149 3.23996 3.23849C3.86996 2.60549 4.72875 2.25 5.625 2.25H13.5C14.1225 2.25 14.625 1.746 14.625 1.125C14.625 0.504 14.1225 0 13.5 0ZM16.92 0.988495L5.57996 12.3296C5.40746 12.5017 5.29501 12.7249 5.26126 12.966L4.51126 18.216C4.46251 18.5666 4.57871 18.9202 4.82996 19.1704C5.08121 19.4209 5.43372 19.5386 5.78247 19.4888L11.0325 18.7388C11.2762 18.7043 11.4975 18.5925 11.67 18.4204C11.67 18.4204 18.8738 11.2159 23.01 7.07962C23.6438 6.44662 24 5.58826 24 4.69313C24 3.79801 23.6438 2.93963 23.01 2.30663C22.5825 1.87875 22.1213 1.41637 21.6938 0.988495C21.06 0.355495 20.2012 0 19.3087 0C18.4125 0 17.5538 0.355495 16.92 0.988495ZM15.375 5.71613L18.285 8.625L10.3463 16.5645L6.95251 17.049L7.43628 13.6553L15.375 5.71613ZM15.045 10.5454L16.17 9.42038C16.6088 8.98163 16.6088 8.26837 16.17 7.82962C15.7313 7.3905 15.0187 7.3905 14.58 7.82962L13.455 8.95462C13.0162 9.39337 13.0162 10.1066 13.455 10.5454C13.8937 10.9845 14.6063 10.9845 15.045 10.5454ZM19.875 7.03387L16.965 4.125L18.51 2.57962C18.7238 2.3685 19.0087 2.25 19.3087 2.25C19.605 2.25 19.89 2.3685 20.1038 2.57962L21.42 3.89738C21.63 4.1085 21.75 4.39463 21.75 4.69313C21.75 4.99126 21.63 5.27737 21.42 5.48849L19.875 7.03387Z" fill="black" fill-opacity="0.2"/>
</g>
<defs>
<clipPath id="clip0_664_4585">
<rect width="24" height="24" fill="white"/>
</clipPath>
</defs>
</svg>
