<svg width="32" height="32" viewBox="0 0 32 32" fill="none" xmlns="http://www.w3.org/2000/svg">
<g clip-path="url(#clip0_321_437)">
<path d="M23.4118 17.2419L14.4461 20.3927L11.2952 11.427L20.2609 8.27702L23.4118 17.2419ZM24.8209 19.2656L15.4704 22.4422C15.5946 23.0279 15.4988 23.639 15.2013 24.1586C14.9038 24.6783 14.4253 25.0702 13.8572 25.2596C13.2389 25.4676 12.5635 25.4228 11.9781 25.1349C11.3927 24.847 10.9448 24.3394 10.7321 23.7227C10.536 23.1559 10.5555 22.5366 10.787 21.9833C11.0185 21.4299 11.4456 20.9812 11.9869 20.7227L7.96522 8.86588L6.42837 9.38016C6.35256 9.40538 6.27252 9.41541 6.19284 9.40969C6.11315 9.40398 6.03536 9.38262 5.96393 9.34684C5.8925 9.31107 5.82881 9.26157 5.7765 9.20118C5.72419 9.14079 5.6843 9.07069 5.65908 8.99488C5.63387 8.91907 5.62383 8.83903 5.62955 8.75934C5.63527 8.67966 5.65662 8.60187 5.6924 8.53044C5.72818 8.459 5.77767 8.39532 5.83807 8.34301C5.89846 8.2907 5.96856 8.25081 6.04437 8.22559L8.14523 7.50816C8.22102 7.48142 8.30142 7.47018 8.38164 7.4751C8.46187 7.48003 8.54028 7.50103 8.61224 7.53684C8.68419 7.57266 8.74821 7.62257 8.80051 7.68361C8.8528 7.74464 8.8923 7.81557 8.91665 7.89216L13.1912 20.4699C13.5294 20.488 13.8604 20.5745 14.1642 20.7242C14.468 20.8739 14.7382 21.0836 14.9587 21.3407L24.4618 18.1136C24.5376 18.0868 24.618 18.0756 24.6982 18.0805C24.7784 18.0855 24.8569 18.1065 24.9288 18.1423C25.0008 18.1781 25.0648 18.228 25.1171 18.289C25.1694 18.3501 25.2089 18.421 25.2332 18.4976C25.279 18.6542 25.2618 18.8225 25.1852 18.9666C25.1087 19.1107 24.9789 19.2192 24.8235 19.269M13.9884 22.9547C13.9884 22.7672 13.9328 22.584 13.8286 22.4281C13.7244 22.2722 13.5764 22.1506 13.4032 22.0789C13.2299 22.0071 13.0393 21.9884 12.8554 22.025C12.6715 22.0615 12.5026 22.1518 12.37 22.2844C12.2375 22.417 12.1472 22.5859 12.1106 22.7698C12.074 22.9537 12.0928 23.1443 12.1645 23.3175C12.2363 23.4907 12.3578 23.6388 12.5137 23.743C12.6696 23.8471 12.8529 23.9027 13.0404 23.9027C13.1655 23.9052 13.2899 23.8823 13.406 23.8356C13.5221 23.7888 13.6276 23.719 13.7162 23.6305C13.8047 23.542 13.8744 23.4365 13.9212 23.3204C13.968 23.2043 13.9908 23.0799 13.9884 22.9547Z" fill="black"/>
<path d="M23.4118 17.2419L14.4461 20.3927L11.2952 11.427L20.2609 8.27702L23.4118 17.2419ZM24.8209 19.2656L15.4704 22.4422C15.5946 23.0279 15.4988 23.639 15.2013 24.1586C14.9038 24.6783 14.4253 25.0702 13.8572 25.2596C13.2389 25.4676 12.5635 25.4228 11.9781 25.1349C11.3927 24.847 10.9448 24.3394 10.7321 23.7227C10.536 23.1559 10.5555 22.5366 10.787 21.9833C11.0185 21.4299 11.4456 20.9812 11.9869 20.7227L7.96522 8.86588L6.42837 9.38016C6.35256 9.40538 6.27252 9.41541 6.19284 9.40969C6.11315 9.40398 6.03536 9.38262 5.96393 9.34684C5.8925 9.31107 5.82881 9.26157 5.7765 9.20118C5.72419 9.14079 5.6843 9.07069 5.65908 8.99488C5.63387 8.91907 5.62383 8.83903 5.62955 8.75934C5.63527 8.67966 5.65662 8.60187 5.6924 8.53044C5.72818 8.459 5.77767 8.39532 5.83807 8.34301C5.89846 8.2907 5.96856 8.25081 6.04437 8.22559L8.14523 7.50816C8.22102 7.48142 8.30142 7.47018 8.38164 7.4751C8.46187 7.48003 8.54028 7.50103 8.61224 7.53684C8.68419 7.57266 8.74821 7.62257 8.80051 7.68361C8.8528 7.74464 8.8923 7.81557 8.91665 7.89216L13.1912 20.4699C13.5294 20.488 13.8604 20.5745 14.1642 20.7242C14.468 20.8739 14.7382 21.0836 14.9587 21.3407L24.4618 18.1136C24.5376 18.0868 24.618 18.0756 24.6982 18.0805C24.7784 18.0855 24.8569 18.1065 24.9288 18.1423C25.0008 18.1781 25.0648 18.228 25.1171 18.289C25.1694 18.3501 25.2089 18.421 25.2332 18.4976C25.279 18.6542 25.2618 18.8225 25.1852 18.9666C25.1087 19.1107 24.9789 19.2192 24.8235 19.269M13.9884 22.9547C13.9884 22.7672 13.9328 22.584 13.8286 22.4281C13.7244 22.2722 13.5764 22.1506 13.4032 22.0789C13.2299 22.0071 13.0393 21.9884 12.8554 22.025C12.6715 22.0615 12.5026 22.1518 12.37 22.2844C12.2375 22.417 12.1472 22.5859 12.1106 22.7698C12.074 22.9537 12.0928 23.1443 12.1645 23.3175C12.2363 23.4907 12.3578 23.6388 12.5137 23.743C12.6696 23.8471 12.8529 23.9027 13.0404 23.9027C13.1655 23.9052 13.2899 23.8823 13.406 23.8356C13.5221 23.7888 13.6276 23.719 13.7162 23.6305C13.8047 23.542 13.8744 23.4365 13.9212 23.3204C13.968 23.2043 13.9908 23.0799 13.9884 22.9547Z" fill="black" fill-opacity="0.2"/>
<path d="M23.4118 17.2419L14.4461 20.3927L11.2952 11.427L20.2609 8.27702L23.4118 17.2419ZM24.8209 19.2656L15.4704 22.4422C15.5946 23.0279 15.4988 23.639 15.2013 24.1586C14.9038 24.6783 14.4253 25.0702 13.8572 25.2596C13.2389 25.4676 12.5635 25.4228 11.9781 25.1349C11.3927 24.847 10.9448 24.3394 10.7321 23.7227C10.536 23.1559 10.5555 22.5366 10.787 21.9833C11.0185 21.4299 11.4456 20.9812 11.9869 20.7227L7.96522 8.86588L6.42837 9.38016C6.35256 9.40538 6.27252 9.41541 6.19284 9.40969C6.11315 9.40398 6.03536 9.38262 5.96393 9.34684C5.8925 9.31107 5.82881 9.26157 5.7765 9.20118C5.72419 9.14079 5.6843 9.07069 5.65908 8.99488C5.63387 8.91907 5.62383 8.83903 5.62955 8.75934C5.63527 8.67966 5.65662 8.60187 5.6924 8.53044C5.72818 8.459 5.77767 8.39532 5.83807 8.34301C5.89846 8.2907 5.96856 8.25081 6.04437 8.22559L8.14523 7.50816C8.22102 7.48142 8.30142 7.47018 8.38164 7.4751C8.46187 7.48003 8.54028 7.50103 8.61224 7.53684C8.68419 7.57266 8.74821 7.62257 8.80051 7.68361C8.8528 7.74464 8.8923 7.81557 8.91665 7.89216L13.1912 20.4699C13.5294 20.488 13.8604 20.5745 14.1642 20.7242C14.468 20.8739 14.7382 21.0836 14.9587 21.3407L24.4618 18.1136C24.5376 18.0868 24.618 18.0756 24.6982 18.0805C24.7784 18.0855 24.8569 18.1065 24.9288 18.1423C25.0008 18.1781 25.0648 18.228 25.1171 18.289C25.1694 18.3501 25.2089 18.421 25.2332 18.4976C25.279 18.6542 25.2618 18.8225 25.1852 18.9666C25.1087 19.1107 24.9789 19.2192 24.8235 19.269M13.9884 22.9547C13.9884 22.7672 13.9328 22.584 13.8286 22.4281C13.7244 22.2722 13.5764 22.1506 13.4032 22.0789C13.2299 22.0071 13.0393 21.9884 12.8554 22.025C12.6715 22.0615 12.5026 22.1518 12.37 22.2844C12.2375 22.417 12.1472 22.5859 12.1106 22.7698C12.074 22.9537 12.0928 23.1443 12.1645 23.3175C12.2363 23.4907 12.3578 23.6388 12.5137 23.743C12.6696 23.8471 12.8529 23.9027 13.0404 23.9027C13.1655 23.9052 13.2899 23.8823 13.406 23.8356C13.5221 23.7888 13.6276 23.719 13.7162 23.6305C13.8047 23.542 13.8744 23.4365 13.9212 23.3204C13.968 23.2043 13.9908 23.0799 13.9884 22.9547Z" fill="black" fill-opacity="0.2"/>
<path d="M23.4118 17.2419L14.4461 20.3927L11.2952 11.427L20.2609 8.27702L23.4118 17.2419ZM24.8209 19.2656L15.4704 22.4422C15.5946 23.0279 15.4988 23.639 15.2013 24.1586C14.9038 24.6783 14.4253 25.0702 13.8572 25.2596C13.2389 25.4676 12.5635 25.4228 11.9781 25.1349C11.3927 24.847 10.9448 24.3394 10.7321 23.7227C10.536 23.1559 10.5555 22.5366 10.787 21.9833C11.0185 21.4299 11.4456 20.9812 11.9869 20.7227L7.96522 8.86588L6.42837 9.38016C6.35256 9.40538 6.27252 9.41541 6.19284 9.40969C6.11315 9.40398 6.03536 9.38262 5.96393 9.34684C5.8925 9.31107 5.82881 9.26157 5.7765 9.20118C5.72419 9.14079 5.6843 9.07069 5.65908 8.99488C5.63387 8.91907 5.62383 8.83903 5.62955 8.75934C5.63527 8.67966 5.65662 8.60187 5.6924 8.53044C5.72818 8.459 5.77767 8.39532 5.83807 8.34301C5.89846 8.2907 5.96856 8.25081 6.04437 8.22559L8.14523 7.50816C8.22102 7.48142 8.30142 7.47018 8.38164 7.4751C8.46187 7.48003 8.54028 7.50103 8.61224 7.53684C8.68419 7.57266 8.74821 7.62257 8.80051 7.68361C8.8528 7.74464 8.8923 7.81557 8.91665 7.89216L13.1912 20.4699C13.5294 20.488 13.8604 20.5745 14.1642 20.7242C14.468 20.8739 14.7382 21.0836 14.9587 21.3407L24.4618 18.1136C24.5376 18.0868 24.618 18.0756 24.6982 18.0805C24.7784 18.0855 24.8569 18.1065 24.9288 18.1423C25.0008 18.1781 25.0648 18.228 25.1171 18.289C25.1694 18.3501 25.2089 18.421 25.2332 18.4976C25.279 18.6542 25.2618 18.8225 25.1852 18.9666C25.1087 19.1107 24.9789 19.2192 24.8235 19.269M13.9884 22.9547C13.9884 22.7672 13.9328 22.584 13.8286 22.4281C13.7244 22.2722 13.5764 22.1506 13.4032 22.0789C13.2299 22.0071 13.0393 21.9884 12.8554 22.025C12.6715 22.0615 12.5026 22.1518 12.37 22.2844C12.2375 22.417 12.1472 22.5859 12.1106 22.7698C12.074 22.9537 12.0928 23.1443 12.1645 23.3175C12.2363 23.4907 12.3578 23.6388 12.5137 23.743C12.6696 23.8471 12.8529 23.9027 13.0404 23.9027C13.1655 23.9052 13.2899 23.8823 13.406 23.8356C13.5221 23.7888 13.6276 23.719 13.7162 23.6305C13.8047 23.542 13.8744 23.4365 13.9212 23.3204C13.968 23.2043 13.9908 23.0799 13.9884 22.9547Z" fill="black" fill-opacity="0.2"/>
<path d="M23.4118 17.2419L14.4461 20.3927L11.2952 11.427L20.2609 8.27702L23.4118 17.2419ZM24.8209 19.2656L15.4704 22.4422C15.5946 23.0279 15.4988 23.639 15.2013 24.1586C14.9038 24.6783 14.4253 25.0702 13.8572 25.2596C13.2389 25.4676 12.5635 25.4228 11.9781 25.1349C11.3927 24.847 10.9448 24.3394 10.7321 23.7227C10.536 23.1559 10.5555 22.5366 10.787 21.9833C11.0185 21.4299 11.4456 20.9812 11.9869 20.7227L7.96522 8.86588L6.42837 9.38016C6.35256 9.40538 6.27252 9.41541 6.19284 9.40969C6.11315 9.40398 6.03536 9.38262 5.96393 9.34684C5.8925 9.31107 5.82881 9.26157 5.7765 9.20118C5.72419 9.14079 5.6843 9.07069 5.65908 8.99488C5.63387 8.91907 5.62383 8.83903 5.62955 8.75934C5.63527 8.67966 5.65662 8.60187 5.6924 8.53044C5.72818 8.459 5.77767 8.39532 5.83807 8.34301C5.89846 8.2907 5.96856 8.25081 6.04437 8.22559L8.14523 7.50816C8.22102 7.48142 8.30142 7.47018 8.38164 7.4751C8.46187 7.48003 8.54028 7.50103 8.61224 7.53684C8.68419 7.57266 8.74821 7.62257 8.80051 7.68361C8.8528 7.74464 8.8923 7.81557 8.91665 7.89216L13.1912 20.4699C13.5294 20.488 13.8604 20.5745 14.1642 20.7242C14.468 20.8739 14.7382 21.0836 14.9587 21.3407L24.4618 18.1136C24.5376 18.0868 24.618 18.0756 24.6982 18.0805C24.7784 18.0855 24.8569 18.1065 24.9288 18.1423C25.0008 18.1781 25.0648 18.228 25.1171 18.289C25.1694 18.3501 25.2089 18.421 25.2332 18.4976C25.279 18.6542 25.2618 18.8225 25.1852 18.9666C25.1087 19.1107 24.9789 19.2192 24.8235 19.269M13.9884 22.9547C13.9884 22.7672 13.9328 22.584 13.8286 22.4281C13.7244 22.2722 13.5764 22.1506 13.4032 22.0789C13.2299 22.0071 13.0393 21.9884 12.8554 22.025C12.6715 22.0615 12.5026 22.1518 12.37 22.2844C12.2375 22.417 12.1472 22.5859 12.1106 22.7698C12.074 22.9537 12.0928 23.1443 12.1645 23.3175C12.2363 23.4907 12.3578 23.6388 12.5137 23.743C12.6696 23.8471 12.8529 23.9027 13.0404 23.9027C13.1655 23.9052 13.2899 23.8823 13.406 23.8356C13.5221 23.7888 13.6276 23.719 13.7162 23.6305C13.8047 23.542 13.8744 23.4365 13.9212 23.3204C13.968 23.2043 13.9908 23.0799 13.9884 22.9547Z" fill="black" fill-opacity="0.2"/>
<path d="M23.4118 17.2419L14.4461 20.3927L11.2952 11.427L20.2609 8.27702L23.4118 17.2419ZM24.8209 19.2656L15.4704 22.4422C15.5946 23.0279 15.4988 23.639 15.2013 24.1586C14.9038 24.6783 14.4253 25.0702 13.8572 25.2596C13.2389 25.4676 12.5635 25.4228 11.9781 25.1349C11.3927 24.847 10.9448 24.3394 10.7321 23.7227C10.536 23.1559 10.5555 22.5366 10.787 21.9833C11.0185 21.4299 11.4456 20.9812 11.9869 20.7227L7.96522 8.86588L6.42837 9.38016C6.35256 9.40538 6.27252 9.41541 6.19284 9.40969C6.11315 9.40398 6.03536 9.38262 5.96393 9.34684C5.8925 9.31107 5.82881 9.26157 5.7765 9.20118C5.72419 9.14079 5.6843 9.07069 5.65908 8.99488C5.63387 8.91907 5.62383 8.83903 5.62955 8.75934C5.63527 8.67966 5.65662 8.60187 5.6924 8.53044C5.72818 8.459 5.77767 8.39532 5.83807 8.34301C5.89846 8.2907 5.96856 8.25081 6.04437 8.22559L8.14523 7.50816C8.22102 7.48142 8.30142 7.47018 8.38164 7.4751C8.46187 7.48003 8.54028 7.50103 8.61224 7.53684C8.68419 7.57266 8.74821 7.62257 8.80051 7.68361C8.8528 7.74464 8.8923 7.81557 8.91665 7.89216L13.1912 20.4699C13.5294 20.488 13.8604 20.5745 14.1642 20.7242C14.468 20.8739 14.7382 21.0836 14.9587 21.3407L24.4618 18.1136C24.5376 18.0868 24.618 18.0756 24.6982 18.0805C24.7784 18.0855 24.8569 18.1065 24.9288 18.1423C25.0008 18.1781 25.0648 18.228 25.1171 18.289C25.1694 18.3501 25.2089 18.421 25.2332 18.4976C25.279 18.6542 25.2618 18.8225 25.1852 18.9666C25.1087 19.1107 24.9789 19.2192 24.8235 19.269M13.9884 22.9547C13.9884 22.7672 13.9328 22.584 13.8286 22.4281C13.7244 22.2722 13.5764 22.1506 13.4032 22.0789C13.2299 22.0071 13.0393 21.9884 12.8554 22.025C12.6715 22.0615 12.5026 22.1518 12.37 22.2844C12.2375 22.417 12.1472 22.5859 12.1106 22.7698C12.074 22.9537 12.0928 23.1443 12.1645 23.3175C12.2363 23.4907 12.3578 23.6388 12.5137 23.743C12.6696 23.8471 12.8529 23.9027 13.0404 23.9027C13.1655 23.9052 13.2899 23.8823 13.406 23.8356C13.5221 23.7888 13.6276 23.719 13.7162 23.6305C13.8047 23.542 13.8744 23.4365 13.9212 23.3204C13.968 23.2043 13.9908 23.0799 13.9884 22.9547Z" fill="black" fill-opacity="0.2"/>
<path d="M23.4118 17.2419L14.4461 20.3927L11.2952 11.427L20.2609 8.27702L23.4118 17.2419ZM24.8209 19.2656L15.4704 22.4422C15.5946 23.0279 15.4988 23.639 15.2013 24.1586C14.9038 24.6783 14.4253 25.0702 13.8572 25.2596C13.2389 25.4676 12.5635 25.4228 11.9781 25.1349C11.3927 24.847 10.9448 24.3394 10.7321 23.7227C10.536 23.1559 10.5555 22.5366 10.787 21.9833C11.0185 21.4299 11.4456 20.9812 11.9869 20.7227L7.96522 8.86588L6.42837 9.38016C6.35256 9.40538 6.27252 9.41541 6.19284 9.40969C6.11315 9.40398 6.03536 9.38262 5.96393 9.34684C5.8925 9.31107 5.82881 9.26157 5.7765 9.20118C5.72419 9.14079 5.6843 9.07069 5.65908 8.99488C5.63387 8.91907 5.62383 8.83903 5.62955 8.75934C5.63527 8.67966 5.65662 8.60187 5.6924 8.53044C5.72818 8.459 5.77767 8.39532 5.83807 8.34301C5.89846 8.2907 5.96856 8.25081 6.04437 8.22559L8.14523 7.50816C8.22102 7.48142 8.30142 7.47018 8.38164 7.4751C8.46187 7.48003 8.54028 7.50103 8.61224 7.53684C8.68419 7.57266 8.74821 7.62257 8.80051 7.68361C8.8528 7.74464 8.8923 7.81557 8.91665 7.89216L13.1912 20.4699C13.5294 20.488 13.8604 20.5745 14.1642 20.7242C14.468 20.8739 14.7382 21.0836 14.9587 21.3407L24.4618 18.1136C24.5376 18.0868 24.618 18.0756 24.6982 18.0805C24.7784 18.0855 24.8569 18.1065 24.9288 18.1423C25.0008 18.1781 25.0648 18.228 25.1171 18.289C25.1694 18.3501 25.2089 18.421 25.2332 18.4976C25.279 18.6542 25.2618 18.8225 25.1852 18.9666C25.1087 19.1107 24.9789 19.2192 24.8235 19.269M13.9884 22.9547C13.9884 22.7672 13.9328 22.584 13.8286 22.4281C13.7244 22.2722 13.5764 22.1506 13.4032 22.0789C13.2299 22.0071 13.0393 21.9884 12.8554 22.025C12.6715 22.0615 12.5026 22.1518 12.37 22.2844C12.2375 22.417 12.1472 22.5859 12.1106 22.7698C12.074 22.9537 12.0928 23.1443 12.1645 23.3175C12.2363 23.4907 12.3578 23.6388 12.5137 23.743C12.6696 23.8471 12.8529 23.9027 13.0404 23.9027C13.1655 23.9052 13.2899 23.8823 13.406 23.8356C13.5221 23.7888 13.6276 23.719 13.7162 23.6305C13.8047 23.542 13.8744 23.4365 13.9212 23.3204C13.968 23.2043 13.9908 23.0799 13.9884 22.9547Z" fill="black" fill-opacity="0.2"/>
<path d="M23.4118 17.2419L14.4461 20.3927L11.2952 11.427L20.2609 8.27702L23.4118 17.2419ZM24.8209 19.2656L15.4704 22.4422C15.5946 23.0279 15.4988 23.639 15.2013 24.1586C14.9038 24.6783 14.4253 25.0702 13.8572 25.2596C13.2389 25.4676 12.5635 25.4228 11.9781 25.1349C11.3927 24.847 10.9448 24.3394 10.7321 23.7227C10.536 23.1559 10.5555 22.5366 10.787 21.9833C11.0185 21.4299 11.4456 20.9812 11.9869 20.7227L7.96522 8.86588L6.42837 9.38016C6.35256 9.40538 6.27252 9.41541 6.19284 9.40969C6.11315 9.40398 6.03536 9.38262 5.96393 9.34684C5.8925 9.31107 5.82881 9.26157 5.7765 9.20118C5.72419 9.14079 5.6843 9.07069 5.65908 8.99488C5.63387 8.91907 5.62383 8.83903 5.62955 8.75934C5.63527 8.67966 5.65662 8.60187 5.6924 8.53044C5.72818 8.459 5.77767 8.39532 5.83807 8.34301C5.89846 8.2907 5.96856 8.25081 6.04437 8.22559L8.14523 7.50816C8.22102 7.48142 8.30142 7.47018 8.38164 7.4751C8.46187 7.48003 8.54028 7.50103 8.61224 7.53684C8.68419 7.57266 8.74821 7.62257 8.80051 7.68361C8.8528 7.74464 8.8923 7.81557 8.91665 7.89216L13.1912 20.4699C13.5294 20.488 13.8604 20.5745 14.1642 20.7242C14.468 20.8739 14.7382 21.0836 14.9587 21.3407L24.4618 18.1136C24.5376 18.0868 24.618 18.0756 24.6982 18.0805C24.7784 18.0855 24.8569 18.1065 24.9288 18.1423C25.0008 18.1781 25.0648 18.228 25.1171 18.289C25.1694 18.3501 25.2089 18.421 25.2332 18.4976C25.279 18.6542 25.2618 18.8225 25.1852 18.9666C25.1087 19.1107 24.9789 19.2192 24.8235 19.269M13.9884 22.9547C13.9884 22.7672 13.9328 22.584 13.8286 22.4281C13.7244 22.2722 13.5764 22.1506 13.4032 22.0789C13.2299 22.0071 13.0393 21.9884 12.8554 22.025C12.6715 22.0615 12.5026 22.1518 12.37 22.2844C12.2375 22.417 12.1472 22.5859 12.1106 22.7698C12.074 22.9537 12.0928 23.1443 12.1645 23.3175C12.2363 23.4907 12.3578 23.6388 12.5137 23.743C12.6696 23.8471 12.8529 23.9027 13.0404 23.9027C13.1655 23.9052 13.2899 23.8823 13.406 23.8356C13.5221 23.7888 13.6276 23.719 13.7162 23.6305C13.8047 23.542 13.8744 23.4365 13.9212 23.3204C13.968 23.2043 13.9908 23.0799 13.9884 22.9547Z" fill="black" fill-opacity="0.2"/>
<path d="M23.4118 17.2419L14.4461 20.3927L11.2952 11.427L20.2609 8.27702L23.4118 17.2419ZM24.8209 19.2656L15.4704 22.4422C15.5946 23.0279 15.4988 23.639 15.2013 24.1586C14.9038 24.6783 14.4253 25.0702 13.8572 25.2596C13.2389 25.4676 12.5635 25.4228 11.9781 25.1349C11.3927 24.847 10.9448 24.3394 10.7321 23.7227C10.536 23.1559 10.5555 22.5366 10.787 21.9833C11.0185 21.4299 11.4456 20.9812 11.9869 20.7227L7.96522 8.86588L6.42837 9.38016C6.35256 9.40538 6.27252 9.41541 6.19284 9.40969C6.11315 9.40398 6.03536 9.38262 5.96393 9.34684C5.8925 9.31107 5.82881 9.26157 5.7765 9.20118C5.72419 9.14079 5.6843 9.07069 5.65908 8.99488C5.63387 8.91907 5.62383 8.83903 5.62955 8.75934C5.63527 8.67966 5.65662 8.60187 5.6924 8.53044C5.72818 8.459 5.77767 8.39532 5.83807 8.34301C5.89846 8.2907 5.96856 8.25081 6.04437 8.22559L8.14523 7.50816C8.22102 7.48142 8.30142 7.47018 8.38164 7.4751C8.46187 7.48003 8.54028 7.50103 8.61224 7.53684C8.68419 7.57266 8.74821 7.62257 8.80051 7.68361C8.8528 7.74464 8.8923 7.81557 8.91665 7.89216L13.1912 20.4699C13.5294 20.488 13.8604 20.5745 14.1642 20.7242C14.468 20.8739 14.7382 21.0836 14.9587 21.3407L24.4618 18.1136C24.5376 18.0868 24.618 18.0756 24.6982 18.0805C24.7784 18.0855 24.8569 18.1065 24.9288 18.1423C25.0008 18.1781 25.0648 18.228 25.1171 18.289C25.1694 18.3501 25.2089 18.421 25.2332 18.4976C25.279 18.6542 25.2618 18.8225 25.1852 18.9666C25.1087 19.1107 24.9789 19.2192 24.8235 19.269M13.9884 22.9547C13.9884 22.7672 13.9328 22.584 13.8286 22.4281C13.7244 22.2722 13.5764 22.1506 13.4032 22.0789C13.2299 22.0071 13.0393 21.9884 12.8554 22.025C12.6715 22.0615 12.5026 22.1518 12.37 22.2844C12.2375 22.417 12.1472 22.5859 12.1106 22.7698C12.074 22.9537 12.0928 23.1443 12.1645 23.3175C12.2363 23.4907 12.3578 23.6388 12.5137 23.743C12.6696 23.8471 12.8529 23.9027 13.0404 23.9027C13.1655 23.9052 13.2899 23.8823 13.406 23.8356C13.5221 23.7888 13.6276 23.719 13.7162 23.6305C13.8047 23.542 13.8744 23.4365 13.9212 23.3204C13.968 23.2043 13.9908 23.0799 13.9884 22.9547Z" fill="black" fill-opacity="0.2"/>
<path d="M23.4118 17.2419L14.4461 20.3927L11.2952 11.427L20.2609 8.27702L23.4118 17.2419ZM24.8209 19.2656L15.4704 22.4422C15.5946 23.0279 15.4988 23.639 15.2013 24.1586C14.9038 24.6783 14.4253 25.0702 13.8572 25.2596C13.2389 25.4676 12.5635 25.4228 11.9781 25.1349C11.3927 24.847 10.9448 24.3394 10.7321 23.7227C10.536 23.1559 10.5555 22.5366 10.787 21.9833C11.0185 21.4299 11.4456 20.9812 11.9869 20.7227L7.96522 8.86588L6.42837 9.38016C6.35256 9.40538 6.27252 9.41541 6.19284 9.40969C6.11315 9.40398 6.03536 9.38262 5.96393 9.34684C5.8925 9.31107 5.82881 9.26157 5.7765 9.20118C5.72419 9.14079 5.6843 9.07069 5.65908 8.99488C5.63387 8.91907 5.62383 8.83903 5.62955 8.75934C5.63527 8.67966 5.65662 8.60187 5.6924 8.53044C5.72818 8.459 5.77767 8.39532 5.83807 8.34301C5.89846 8.2907 5.96856 8.25081 6.04437 8.22559L8.14523 7.50816C8.22102 7.48142 8.30142 7.47018 8.38164 7.4751C8.46187 7.48003 8.54028 7.50103 8.61224 7.53684C8.68419 7.57266 8.74821 7.62257 8.80051 7.68361C8.8528 7.74464 8.8923 7.81557 8.91665 7.89216L13.1912 20.4699C13.5294 20.488 13.8604 20.5745 14.1642 20.7242C14.468 20.8739 14.7382 21.0836 14.9587 21.3407L24.4618 18.1136C24.5376 18.0868 24.618 18.0756 24.6982 18.0805C24.7784 18.0855 24.8569 18.1065 24.9288 18.1423C25.0008 18.1781 25.0648 18.228 25.1171 18.289C25.1694 18.3501 25.2089 18.421 25.2332 18.4976C25.279 18.6542 25.2618 18.8225 25.1852 18.9666C25.1087 19.1107 24.9789 19.2192 24.8235 19.269M13.9884 22.9547C13.9884 22.7672 13.9328 22.584 13.8286 22.4281C13.7244 22.2722 13.5764 22.1506 13.4032 22.0789C13.2299 22.0071 13.0393 21.9884 12.8554 22.025C12.6715 22.0615 12.5026 22.1518 12.37 22.2844C12.2375 22.417 12.1472 22.5859 12.1106 22.7698C12.074 22.9537 12.0928 23.1443 12.1645 23.3175C12.2363 23.4907 12.3578 23.6388 12.5137 23.743C12.6696 23.8471 12.8529 23.9027 13.0404 23.9027C13.1655 23.9052 13.2899 23.8823 13.406 23.8356C13.5221 23.7888 13.6276 23.719 13.7162 23.6305C13.8047 23.542 13.8744 23.4365 13.9212 23.3204C13.968 23.2043 13.9908 23.0799 13.9884 22.9547Z" fill="black" fill-opacity="0.2"/>
<path d="M16 31C24.2843 31 31 24.2843 31 16C31 7.71573 24.2843 1 16 1C7.71573 1 1 7.71573 1 16C1 24.2843 7.71573 31 16 31Z" stroke="black"/>
<path d="M16 31C24.2843 31 31 24.2843 31 16C31 7.71573 24.2843 1 16 1C7.71573 1 1 7.71573 1 16C1 24.2843 7.71573 31 16 31Z" stroke="black" stroke-opacity="0.2"/>
<path d="M16 31C24.2843 31 31 24.2843 31 16C31 7.71573 24.2843 1 16 1C7.71573 1 1 7.71573 1 16C1 24.2843 7.71573 31 16 31Z" stroke="black" stroke-opacity="0.2"/>
<path d="M16 31C24.2843 31 31 24.2843 31 16C31 7.71573 24.2843 1 16 1C7.71573 1 1 7.71573 1 16C1 24.2843 7.71573 31 16 31Z" stroke="black" stroke-opacity="0.2"/>
<path d="M16 31C24.2843 31 31 24.2843 31 16C31 7.71573 24.2843 1 16 1C7.71573 1 1 7.71573 1 16C1 24.2843 7.71573 31 16 31Z" stroke="black" stroke-opacity="0.2"/>
<path d="M16 31C24.2843 31 31 24.2843 31 16C31 7.71573 24.2843 1 16 1C7.71573 1 1 7.71573 1 16C1 24.2843 7.71573 31 16 31Z" stroke="black" stroke-opacity="0.2"/>
<path d="M16 31C24.2843 31 31 24.2843 31 16C31 7.71573 24.2843 1 16 1C7.71573 1 1 7.71573 1 16C1 24.2843 7.71573 31 16 31Z" stroke="black" stroke-opacity="0.2"/>
<path d="M16 31C24.2843 31 31 24.2843 31 16C31 7.71573 24.2843 1 16 1C7.71573 1 1 7.71573 1 16C1 24.2843 7.71573 31 16 31Z" stroke="black" stroke-opacity="0.2"/>
<path d="M16 31C24.2843 31 31 24.2843 31 16C31 7.71573 24.2843 1 16 1C7.71573 1 1 7.71573 1 16C1 24.2843 7.71573 31 16 31Z" stroke="black" stroke-opacity="0.2"/>
<path d="M16 31C24.2843 31 31 24.2843 31 16C31 7.71573 24.2843 1 16 1C7.71573 1 1 7.71573 1 16C1 24.2843 7.71573 31 16 31Z" stroke="black" stroke-opacity="0.2"/>
</g>
<defs>
<clipPath id="clip0_321_437">
<rect width="32" height="32" fill="white"/>
</clipPath>
</defs>
</svg>
