<svg width="32" height="32" viewBox="0 0 32 32" fill="none" xmlns="http://www.w3.org/2000/svg">
<g clip-path="url(#clip0_314_402)">
<path fill-rule="evenodd" clip-rule="evenodd" d="M0 16C0 7.16344 7.16344 0 16 0C24.8366 0 32 7.16344 32 16C32 24.8366 24.8366 32 16 32C7.16344 32 0 24.8366 0 16ZM16.1519 9.87858L7.94926 17.9295L10.0507 20.0705L16.1119 14.1214L21.9293 20.0505L24.0707 17.9495L16.1519 9.87858Z" fill="black"/>
<path fill-rule="evenodd" clip-rule="evenodd" d="M0 16C0 7.16344 7.16344 0 16 0C24.8366 0 32 7.16344 32 16C32 24.8366 24.8366 32 16 32C7.16344 32 0 24.8366 0 16ZM16.1519 9.87858L7.94926 17.9295L10.0507 20.0705L16.1119 14.1214L21.9293 20.0505L24.0707 17.9495L16.1519 9.87858Z" fill="black" fill-opacity="0.2"/>
<path fill-rule="evenodd" clip-rule="evenodd" d="M0 16C0 7.16344 7.16344 0 16 0C24.8366 0 32 7.16344 32 16C32 24.8366 24.8366 32 16 32C7.16344 32 0 24.8366 0 16ZM16.1519 9.87858L7.94926 17.9295L10.0507 20.0705L16.1119 14.1214L21.9293 20.0505L24.0707 17.9495L16.1519 9.87858Z" fill="black" fill-opacity="0.2"/>
<path fill-rule="evenodd" clip-rule="evenodd" d="M0 16C0 7.16344 7.16344 0 16 0C24.8366 0 32 7.16344 32 16C32 24.8366 24.8366 32 16 32C7.16344 32 0 24.8366 0 16ZM16.1519 9.87858L7.94926 17.9295L10.0507 20.0705L16.1119 14.1214L21.9293 20.0505L24.0707 17.9495L16.1519 9.87858Z" fill="black" fill-opacity="0.2"/>
<path fill-rule="evenodd" clip-rule="evenodd" d="M0 16C0 7.16344 7.16344 0 16 0C24.8366 0 32 7.16344 32 16C32 24.8366 24.8366 32 16 32C7.16344 32 0 24.8366 0 16ZM16.1519 9.87858L7.94926 17.9295L10.0507 20.0705L16.1119 14.1214L21.9293 20.0505L24.0707 17.9495L16.1519 9.87858Z" fill="black" fill-opacity="0.2"/>
<path fill-rule="evenodd" clip-rule="evenodd" d="M0 16C0 7.16344 7.16344 0 16 0C24.8366 0 32 7.16344 32 16C32 24.8366 24.8366 32 16 32C7.16344 32 0 24.8366 0 16ZM16.1519 9.87858L7.94926 17.9295L10.0507 20.0705L16.1119 14.1214L21.9293 20.0505L24.0707 17.9495L16.1519 9.87858Z" fill="black" fill-opacity="0.2"/>
<path fill-rule="evenodd" clip-rule="evenodd" d="M0 16C0 7.16344 7.16344 0 16 0C24.8366 0 32 7.16344 32 16C32 24.8366 24.8366 32 16 32C7.16344 32 0 24.8366 0 16ZM16.1519 9.87858L7.94926 17.9295L10.0507 20.0705L16.1119 14.1214L21.9293 20.0505L24.0707 17.9495L16.1519 9.87858Z" fill="black" fill-opacity="0.2"/>
<path fill-rule="evenodd" clip-rule="evenodd" d="M0 16C0 7.16344 7.16344 0 16 0C24.8366 0 32 7.16344 32 16C32 24.8366 24.8366 32 16 32C7.16344 32 0 24.8366 0 16ZM16.1519 9.87858L7.94926 17.9295L10.0507 20.0705L16.1119 14.1214L21.9293 20.0505L24.0707 17.9495L16.1519 9.87858Z" fill="black" fill-opacity="0.2"/>
<path fill-rule="evenodd" clip-rule="evenodd" d="M0 16C0 7.16344 7.16344 0 16 0C24.8366 0 32 7.16344 32 16C32 24.8366 24.8366 32 16 32C7.16344 32 0 24.8366 0 16ZM16.1519 9.87858L7.94926 17.9295L10.0507 20.0705L16.1119 14.1214L21.9293 20.0505L24.0707 17.9495L16.1519 9.87858Z" fill="black" fill-opacity="0.2"/>
<path fill-rule="evenodd" clip-rule="evenodd" d="M0 16C0 7.16344 7.16344 0 16 0C24.8366 0 32 7.16344 32 16C32 24.8366 24.8366 32 16 32C7.16344 32 0 24.8366 0 16ZM16.1519 9.87858L7.94926 17.9295L10.0507 20.0705L16.1119 14.1214L21.9293 20.0505L24.0707 17.9495L16.1519 9.87858Z" fill="black" fill-opacity="0.2"/>
</g>
<defs>
<clipPath id="clip0_314_402">
<rect width="32" height="32" fill="white"/>
</clipPath>
</defs>
</svg>
