<svg width="24" height="24" viewBox="0 0 24 24" fill="none" xmlns="http://www.w3.org/2000/svg">
<g clip-path="url(#clip0_243_38)">
<path fill-rule="evenodd" clip-rule="evenodd" d="M17.6852 3.49157C16.0023 2.36715 14.0239 1.767 12 1.767C9.28608 1.767 6.68326 2.84512 4.7642 4.76418C2.84514 6.68324 1.76701 9.28604 1.76701 12C1.76701 14.0239 2.36714 16.0023 3.49155 17.6852C4.61597 19.368 6.21419 20.6796 8.08402 21.4541C9.95386 22.2286 12.0114 22.4312 13.9964 22.0364C15.9814 21.6415 17.8047 20.6669 19.2358 19.2358C20.6669 17.8047 21.6416 15.9814 22.0364 13.9964C22.4313 12.0114 22.2286 9.95384 21.4541 8.084C20.6796 6.21416 19.368 4.61599 17.6852 3.49157ZM5.88877 2.85384C7.69771 1.64514 9.82444 1 12 1C14.9164 1.00318 17.7125 2.16312 19.7747 4.22533C21.8369 6.28755 22.9969 9.08359 23 12C23 14.1756 22.3549 16.3023 21.1462 18.1113C19.9375 19.9202 18.2195 21.3301 16.2095 22.1627C14.1995 22.9952 11.9878 23.2131 9.85404 22.7886C7.72025 22.3642 5.76022 21.3166 4.22184 19.7782C2.68346 18.2398 1.63584 16.2798 1.2114 14.146C0.786965 12.0122 1.00475 9.80047 1.83732 7.79048C2.66988 5.78049 4.07983 4.06253 5.88877 2.85384ZM11.5061 14.3787C11.5949 14.4194 11.6913 14.4407 11.7889 14.441H11.835C11.9976 14.4409 12.1548 14.3823 12.278 14.2761C12.4011 14.1698 12.482 14.0229 12.506 13.862C12.5548 13.422 12.7346 13.0067 13.022 12.67L13.852 11.849C14.5913 11.1707 15.0344 10.229 15.0859 9.227C15.1073 8.83789 15.0471 8.44861 14.9094 8.08407C14.7716 7.71953 14.5593 7.38777 14.286 7.11C13.6703 6.56608 12.8639 6.28878 12.044 6.339C11.2259 6.30233 10.4235 6.57227 9.79395 7.096C9.44818 7.39324 9.19111 7.78009 9.05097 8.214C9.02043 8.3157 9.0142 8.42315 9.03278 8.52771C9.05137 8.63226 9.09424 8.73098 9.15797 8.81592C9.2217 8.90086 9.30449 8.96965 9.39967 9.01673C9.49485 9.06382 9.59975 9.08789 9.70594 9.087C9.8562 9.09021 10.0036 9.04539 10.1266 8.95906C10.2496 8.87273 10.3419 8.74939 10.39 8.607C10.4624 8.36426 10.6034 8.14758 10.796 7.983C11.1468 7.6964 11.5914 7.54998 12.044 7.572C12.2674 7.55677 12.4916 7.58919 12.7015 7.66711C12.9115 7.74503 13.1026 7.86668 13.262 8.024C13.5574 8.37116 13.7075 8.81892 13.681 9.274C13.6703 9.85279 13.4418 10.4063 13.041 10.824L12.041 11.85C11.7099 12.1841 11.4464 12.579 11.265 13.013C11.192 13.2234 11.1414 13.441 11.114 13.662C11.1004 13.7587 11.1077 13.8572 11.1354 13.9508C11.1631 14.0445 11.2105 14.1311 11.2744 14.2049C11.3384 14.2787 11.4174 14.338 11.5061 14.3787ZM11.208 16.279C11.067 16.4387 10.9923 16.6461 10.999 16.859C10.9915 16.9686 11.0081 17.0785 11.0476 17.181C11.0871 17.2835 11.1486 17.3761 11.2277 17.4523C11.3068 17.5285 11.4016 17.5865 11.5054 17.6222C11.6093 17.6579 11.7197 17.6705 11.829 17.659C11.9431 17.667 12.0576 17.6509 12.165 17.6118C12.2725 17.5726 12.3706 17.5114 12.4529 17.432C12.597 17.2767 12.6736 17.0707 12.666 16.859C12.6724 16.6454 12.596 16.4377 12.4529 16.279C12.372 16.1973 12.2743 16.1339 12.1666 16.0934C12.0589 16.0528 11.9438 16.036 11.829 16.044C11.7146 16.0356 11.5998 16.0523 11.4925 16.0929C11.3852 16.1335 11.2881 16.197 11.208 16.279Z" fill="#333333"/>
<path fill-rule="evenodd" clip-rule="evenodd" d="M17.6852 3.49157C16.0023 2.36715 14.0239 1.767 12 1.767C9.28608 1.767 6.68326 2.84512 4.7642 4.76418C2.84514 6.68324 1.76701 9.28604 1.76701 12C1.76701 14.0239 2.36714 16.0023 3.49155 17.6852C4.61597 19.368 6.21419 20.6796 8.08402 21.4541C9.95386 22.2286 12.0114 22.4312 13.9964 22.0364C15.9814 21.6415 17.8047 20.6669 19.2358 19.2358C20.6669 17.8047 21.6416 15.9814 22.0364 13.9964C22.4313 12.0114 22.2286 9.95384 21.4541 8.084C20.6796 6.21416 19.368 4.61599 17.6852 3.49157ZM5.88877 2.85384C7.69771 1.64514 9.82444 1 12 1C14.9164 1.00318 17.7125 2.16312 19.7747 4.22533C21.8369 6.28755 22.9969 9.08359 23 12C23 14.1756 22.3549 16.3023 21.1462 18.1113C19.9375 19.9202 18.2195 21.3301 16.2095 22.1627C14.1995 22.9952 11.9878 23.2131 9.85404 22.7886C7.72025 22.3642 5.76022 21.3166 4.22184 19.7782C2.68346 18.2398 1.63584 16.2798 1.2114 14.146C0.786965 12.0122 1.00475 9.80047 1.83732 7.79048C2.66988 5.78049 4.07983 4.06253 5.88877 2.85384ZM11.5061 14.3787C11.5949 14.4194 11.6913 14.4407 11.7889 14.441H11.835C11.9976 14.4409 12.1548 14.3823 12.278 14.2761C12.4011 14.1698 12.482 14.0229 12.506 13.862C12.5548 13.422 12.7346 13.0067 13.022 12.67L13.852 11.849C14.5913 11.1707 15.0344 10.229 15.0859 9.227C15.1073 8.83789 15.0471 8.44861 14.9094 8.08407C14.7716 7.71953 14.5593 7.38777 14.286 7.11C13.6703 6.56608 12.8639 6.28878 12.044 6.339C11.2259 6.30233 10.4235 6.57227 9.79395 7.096C9.44818 7.39324 9.19111 7.78009 9.05097 8.214C9.02043 8.3157 9.0142 8.42315 9.03278 8.52771C9.05137 8.63226 9.09424 8.73098 9.15797 8.81592C9.2217 8.90086 9.30449 8.96965 9.39967 9.01673C9.49485 9.06382 9.59975 9.08789 9.70594 9.087C9.8562 9.09021 10.0036 9.04539 10.1266 8.95906C10.2496 8.87273 10.3419 8.74939 10.39 8.607C10.4624 8.36426 10.6034 8.14758 10.796 7.983C11.1468 7.6964 11.5914 7.54998 12.044 7.572C12.2674 7.55677 12.4916 7.58919 12.7015 7.66711C12.9115 7.74503 13.1026 7.86668 13.262 8.024C13.5574 8.37116 13.7075 8.81892 13.681 9.274C13.6703 9.85279 13.4418 10.4063 13.041 10.824L12.041 11.85C11.7099 12.1841 11.4464 12.579 11.265 13.013C11.192 13.2234 11.1414 13.441 11.114 13.662C11.1004 13.7587 11.1077 13.8572 11.1354 13.9508C11.1631 14.0445 11.2105 14.1311 11.2744 14.2049C11.3384 14.2787 11.4174 14.338 11.5061 14.3787ZM11.208 16.279C11.067 16.4387 10.9923 16.6461 10.999 16.859C10.9915 16.9686 11.0081 17.0785 11.0476 17.181C11.0871 17.2835 11.1486 17.3761 11.2277 17.4523C11.3068 17.5285 11.4016 17.5865 11.5054 17.6222C11.6093 17.6579 11.7197 17.6705 11.829 17.659C11.9431 17.667 12.0576 17.6509 12.165 17.6118C12.2725 17.5726 12.3706 17.5114 12.4529 17.432C12.597 17.2767 12.6736 17.0707 12.666 16.859C12.6724 16.6454 12.596 16.4377 12.4529 16.279C12.372 16.1973 12.2743 16.1339 12.1666 16.0934C12.0589 16.0528 11.9438 16.036 11.829 16.044C11.7146 16.0356 11.5998 16.0523 11.4925 16.0929C11.3852 16.1335 11.2881 16.197 11.208 16.279Z" fill="black" fill-opacity="0.2"/>
<path fill-rule="evenodd" clip-rule="evenodd" d="M17.6852 3.49157C16.0023 2.36715 14.0239 1.767 12 1.767C9.28608 1.767 6.68326 2.84512 4.7642 4.76418C2.84514 6.68324 1.76701 9.28604 1.76701 12C1.76701 14.0239 2.36714 16.0023 3.49155 17.6852C4.61597 19.368 6.21419 20.6796 8.08402 21.4541C9.95386 22.2286 12.0114 22.4312 13.9964 22.0364C15.9814 21.6415 17.8047 20.6669 19.2358 19.2358C20.6669 17.8047 21.6416 15.9814 22.0364 13.9964C22.4313 12.0114 22.2286 9.95384 21.4541 8.084C20.6796 6.21416 19.368 4.61599 17.6852 3.49157ZM5.88877 2.85384C7.69771 1.64514 9.82444 1 12 1C14.9164 1.00318 17.7125 2.16312 19.7747 4.22533C21.8369 6.28755 22.9969 9.08359 23 12C23 14.1756 22.3549 16.3023 21.1462 18.1113C19.9375 19.9202 18.2195 21.3301 16.2095 22.1627C14.1995 22.9952 11.9878 23.2131 9.85404 22.7886C7.72025 22.3642 5.76022 21.3166 4.22184 19.7782C2.68346 18.2398 1.63584 16.2798 1.2114 14.146C0.786965 12.0122 1.00475 9.80047 1.83732 7.79048C2.66988 5.78049 4.07983 4.06253 5.88877 2.85384ZM11.5061 14.3787C11.5949 14.4194 11.6913 14.4407 11.7889 14.441H11.835C11.9976 14.4409 12.1548 14.3823 12.278 14.2761C12.4011 14.1698 12.482 14.0229 12.506 13.862C12.5548 13.422 12.7346 13.0067 13.022 12.67L13.852 11.849C14.5913 11.1707 15.0344 10.229 15.0859 9.227C15.1073 8.83789 15.0471 8.44861 14.9094 8.08407C14.7716 7.71953 14.5593 7.38777 14.286 7.11C13.6703 6.56608 12.8639 6.28878 12.044 6.339C11.2259 6.30233 10.4235 6.57227 9.79395 7.096C9.44818 7.39324 9.19111 7.78009 9.05097 8.214C9.02043 8.3157 9.0142 8.42315 9.03278 8.52771C9.05137 8.63226 9.09424 8.73098 9.15797 8.81592C9.2217 8.90086 9.30449 8.96965 9.39967 9.01673C9.49485 9.06382 9.59975 9.08789 9.70594 9.087C9.8562 9.09021 10.0036 9.04539 10.1266 8.95906C10.2496 8.87273 10.3419 8.74939 10.39 8.607C10.4624 8.36426 10.6034 8.14758 10.796 7.983C11.1468 7.6964 11.5914 7.54998 12.044 7.572C12.2674 7.55677 12.4916 7.58919 12.7015 7.66711C12.9115 7.74503 13.1026 7.86668 13.262 8.024C13.5574 8.37116 13.7075 8.81892 13.681 9.274C13.6703 9.85279 13.4418 10.4063 13.041 10.824L12.041 11.85C11.7099 12.1841 11.4464 12.579 11.265 13.013C11.192 13.2234 11.1414 13.441 11.114 13.662C11.1004 13.7587 11.1077 13.8572 11.1354 13.9508C11.1631 14.0445 11.2105 14.1311 11.2744 14.2049C11.3384 14.2787 11.4174 14.338 11.5061 14.3787ZM11.208 16.279C11.067 16.4387 10.9923 16.6461 10.999 16.859C10.9915 16.9686 11.0081 17.0785 11.0476 17.181C11.0871 17.2835 11.1486 17.3761 11.2277 17.4523C11.3068 17.5285 11.4016 17.5865 11.5054 17.6222C11.6093 17.6579 11.7197 17.6705 11.829 17.659C11.9431 17.667 12.0576 17.6509 12.165 17.6118C12.2725 17.5726 12.3706 17.5114 12.4529 17.432C12.597 17.2767 12.6736 17.0707 12.666 16.859C12.6724 16.6454 12.596 16.4377 12.4529 16.279C12.372 16.1973 12.2743 16.1339 12.1666 16.0934C12.0589 16.0528 11.9438 16.036 11.829 16.044C11.7146 16.0356 11.5998 16.0523 11.4925 16.0929C11.3852 16.1335 11.2881 16.197 11.208 16.279Z" fill="black" fill-opacity="0.2"/>
<path fill-rule="evenodd" clip-rule="evenodd" d="M17.6852 3.49157C16.0023 2.36715 14.0239 1.767 12 1.767C9.28608 1.767 6.68326 2.84512 4.7642 4.76418C2.84514 6.68324 1.76701 9.28604 1.76701 12C1.76701 14.0239 2.36714 16.0023 3.49155 17.6852C4.61597 19.368 6.21419 20.6796 8.08402 21.4541C9.95386 22.2286 12.0114 22.4312 13.9964 22.0364C15.9814 21.6415 17.8047 20.6669 19.2358 19.2358C20.6669 17.8047 21.6416 15.9814 22.0364 13.9964C22.4313 12.0114 22.2286 9.95384 21.4541 8.084C20.6796 6.21416 19.368 4.61599 17.6852 3.49157ZM5.88877 2.85384C7.69771 1.64514 9.82444 1 12 1C14.9164 1.00318 17.7125 2.16312 19.7747 4.22533C21.8369 6.28755 22.9969 9.08359 23 12C23 14.1756 22.3549 16.3023 21.1462 18.1113C19.9375 19.9202 18.2195 21.3301 16.2095 22.1627C14.1995 22.9952 11.9878 23.2131 9.85404 22.7886C7.72025 22.3642 5.76022 21.3166 4.22184 19.7782C2.68346 18.2398 1.63584 16.2798 1.2114 14.146C0.786965 12.0122 1.00475 9.80047 1.83732 7.79048C2.66988 5.78049 4.07983 4.06253 5.88877 2.85384ZM11.5061 14.3787C11.5949 14.4194 11.6913 14.4407 11.7889 14.441H11.835C11.9976 14.4409 12.1548 14.3823 12.278 14.2761C12.4011 14.1698 12.482 14.0229 12.506 13.862C12.5548 13.422 12.7346 13.0067 13.022 12.67L13.852 11.849C14.5913 11.1707 15.0344 10.229 15.0859 9.227C15.1073 8.83789 15.0471 8.44861 14.9094 8.08407C14.7716 7.71953 14.5593 7.38777 14.286 7.11C13.6703 6.56608 12.8639 6.28878 12.044 6.339C11.2259 6.30233 10.4235 6.57227 9.79395 7.096C9.44818 7.39324 9.19111 7.78009 9.05097 8.214C9.02043 8.3157 9.0142 8.42315 9.03278 8.52771C9.05137 8.63226 9.09424 8.73098 9.15797 8.81592C9.2217 8.90086 9.30449 8.96965 9.39967 9.01673C9.49485 9.06382 9.59975 9.08789 9.70594 9.087C9.8562 9.09021 10.0036 9.04539 10.1266 8.95906C10.2496 8.87273 10.3419 8.74939 10.39 8.607C10.4624 8.36426 10.6034 8.14758 10.796 7.983C11.1468 7.6964 11.5914 7.54998 12.044 7.572C12.2674 7.55677 12.4916 7.58919 12.7015 7.66711C12.9115 7.74503 13.1026 7.86668 13.262 8.024C13.5574 8.37116 13.7075 8.81892 13.681 9.274C13.6703 9.85279 13.4418 10.4063 13.041 10.824L12.041 11.85C11.7099 12.1841 11.4464 12.579 11.265 13.013C11.192 13.2234 11.1414 13.441 11.114 13.662C11.1004 13.7587 11.1077 13.8572 11.1354 13.9508C11.1631 14.0445 11.2105 14.1311 11.2744 14.2049C11.3384 14.2787 11.4174 14.338 11.5061 14.3787ZM11.208 16.279C11.067 16.4387 10.9923 16.6461 10.999 16.859C10.9915 16.9686 11.0081 17.0785 11.0476 17.181C11.0871 17.2835 11.1486 17.3761 11.2277 17.4523C11.3068 17.5285 11.4016 17.5865 11.5054 17.6222C11.6093 17.6579 11.7197 17.6705 11.829 17.659C11.9431 17.667 12.0576 17.6509 12.165 17.6118C12.2725 17.5726 12.3706 17.5114 12.4529 17.432C12.597 17.2767 12.6736 17.0707 12.666 16.859C12.6724 16.6454 12.596 16.4377 12.4529 16.279C12.372 16.1973 12.2743 16.1339 12.1666 16.0934C12.0589 16.0528 11.9438 16.036 11.829 16.044C11.7146 16.0356 11.5998 16.0523 11.4925 16.0929C11.3852 16.1335 11.2881 16.197 11.208 16.279Z" fill="black" fill-opacity="0.2"/>
<path fill-rule="evenodd" clip-rule="evenodd" d="M17.6852 3.49157C16.0023 2.36715 14.0239 1.767 12 1.767C9.28608 1.767 6.68326 2.84512 4.7642 4.76418C2.84514 6.68324 1.76701 9.28604 1.76701 12C1.76701 14.0239 2.36714 16.0023 3.49155 17.6852C4.61597 19.368 6.21419 20.6796 8.08402 21.4541C9.95386 22.2286 12.0114 22.4312 13.9964 22.0364C15.9814 21.6415 17.8047 20.6669 19.2358 19.2358C20.6669 17.8047 21.6416 15.9814 22.0364 13.9964C22.4313 12.0114 22.2286 9.95384 21.4541 8.084C20.6796 6.21416 19.368 4.61599 17.6852 3.49157ZM5.88877 2.85384C7.69771 1.64514 9.82444 1 12 1C14.9164 1.00318 17.7125 2.16312 19.7747 4.22533C21.8369 6.28755 22.9969 9.08359 23 12C23 14.1756 22.3549 16.3023 21.1462 18.1113C19.9375 19.9202 18.2195 21.3301 16.2095 22.1627C14.1995 22.9952 11.9878 23.2131 9.85404 22.7886C7.72025 22.3642 5.76022 21.3166 4.22184 19.7782C2.68346 18.2398 1.63584 16.2798 1.2114 14.146C0.786965 12.0122 1.00475 9.80047 1.83732 7.79048C2.66988 5.78049 4.07983 4.06253 5.88877 2.85384ZM11.5061 14.3787C11.5949 14.4194 11.6913 14.4407 11.7889 14.441H11.835C11.9976 14.4409 12.1548 14.3823 12.278 14.2761C12.4011 14.1698 12.482 14.0229 12.506 13.862C12.5548 13.422 12.7346 13.0067 13.022 12.67L13.852 11.849C14.5913 11.1707 15.0344 10.229 15.0859 9.227C15.1073 8.83789 15.0471 8.44861 14.9094 8.08407C14.7716 7.71953 14.5593 7.38777 14.286 7.11C13.6703 6.56608 12.8639 6.28878 12.044 6.339C11.2259 6.30233 10.4235 6.57227 9.79395 7.096C9.44818 7.39324 9.19111 7.78009 9.05097 8.214C9.02043 8.3157 9.0142 8.42315 9.03278 8.52771C9.05137 8.63226 9.09424 8.73098 9.15797 8.81592C9.2217 8.90086 9.30449 8.96965 9.39967 9.01673C9.49485 9.06382 9.59975 9.08789 9.70594 9.087C9.8562 9.09021 10.0036 9.04539 10.1266 8.95906C10.2496 8.87273 10.3419 8.74939 10.39 8.607C10.4624 8.36426 10.6034 8.14758 10.796 7.983C11.1468 7.6964 11.5914 7.54998 12.044 7.572C12.2674 7.55677 12.4916 7.58919 12.7015 7.66711C12.9115 7.74503 13.1026 7.86668 13.262 8.024C13.5574 8.37116 13.7075 8.81892 13.681 9.274C13.6703 9.85279 13.4418 10.4063 13.041 10.824L12.041 11.85C11.7099 12.1841 11.4464 12.579 11.265 13.013C11.192 13.2234 11.1414 13.441 11.114 13.662C11.1004 13.7587 11.1077 13.8572 11.1354 13.9508C11.1631 14.0445 11.2105 14.1311 11.2744 14.2049C11.3384 14.2787 11.4174 14.338 11.5061 14.3787ZM11.208 16.279C11.067 16.4387 10.9923 16.6461 10.999 16.859C10.9915 16.9686 11.0081 17.0785 11.0476 17.181C11.0871 17.2835 11.1486 17.3761 11.2277 17.4523C11.3068 17.5285 11.4016 17.5865 11.5054 17.6222C11.6093 17.6579 11.7197 17.6705 11.829 17.659C11.9431 17.667 12.0576 17.6509 12.165 17.6118C12.2725 17.5726 12.3706 17.5114 12.4529 17.432C12.597 17.2767 12.6736 17.0707 12.666 16.859C12.6724 16.6454 12.596 16.4377 12.4529 16.279C12.372 16.1973 12.2743 16.1339 12.1666 16.0934C12.0589 16.0528 11.9438 16.036 11.829 16.044C11.7146 16.0356 11.5998 16.0523 11.4925 16.0929C11.3852 16.1335 11.2881 16.197 11.208 16.279Z" fill="black" fill-opacity="0.2"/>
<path fill-rule="evenodd" clip-rule="evenodd" d="M17.6852 3.49157C16.0023 2.36715 14.0239 1.767 12 1.767C9.28608 1.767 6.68326 2.84512 4.7642 4.76418C2.84514 6.68324 1.76701 9.28604 1.76701 12C1.76701 14.0239 2.36714 16.0023 3.49155 17.6852C4.61597 19.368 6.21419 20.6796 8.08402 21.4541C9.95386 22.2286 12.0114 22.4312 13.9964 22.0364C15.9814 21.6415 17.8047 20.6669 19.2358 19.2358C20.6669 17.8047 21.6416 15.9814 22.0364 13.9964C22.4313 12.0114 22.2286 9.95384 21.4541 8.084C20.6796 6.21416 19.368 4.61599 17.6852 3.49157ZM5.88877 2.85384C7.69771 1.64514 9.82444 1 12 1C14.9164 1.00318 17.7125 2.16312 19.7747 4.22533C21.8369 6.28755 22.9969 9.08359 23 12C23 14.1756 22.3549 16.3023 21.1462 18.1113C19.9375 19.9202 18.2195 21.3301 16.2095 22.1627C14.1995 22.9952 11.9878 23.2131 9.85404 22.7886C7.72025 22.3642 5.76022 21.3166 4.22184 19.7782C2.68346 18.2398 1.63584 16.2798 1.2114 14.146C0.786965 12.0122 1.00475 9.80047 1.83732 7.79048C2.66988 5.78049 4.07983 4.06253 5.88877 2.85384ZM11.5061 14.3787C11.5949 14.4194 11.6913 14.4407 11.7889 14.441H11.835C11.9976 14.4409 12.1548 14.3823 12.278 14.2761C12.4011 14.1698 12.482 14.0229 12.506 13.862C12.5548 13.422 12.7346 13.0067 13.022 12.67L13.852 11.849C14.5913 11.1707 15.0344 10.229 15.0859 9.227C15.1073 8.83789 15.0471 8.44861 14.9094 8.08407C14.7716 7.71953 14.5593 7.38777 14.286 7.11C13.6703 6.56608 12.8639 6.28878 12.044 6.339C11.2259 6.30233 10.4235 6.57227 9.79395 7.096C9.44818 7.39324 9.19111 7.78009 9.05097 8.214C9.02043 8.3157 9.0142 8.42315 9.03278 8.52771C9.05137 8.63226 9.09424 8.73098 9.15797 8.81592C9.2217 8.90086 9.30449 8.96965 9.39967 9.01673C9.49485 9.06382 9.59975 9.08789 9.70594 9.087C9.8562 9.09021 10.0036 9.04539 10.1266 8.95906C10.2496 8.87273 10.3419 8.74939 10.39 8.607C10.4624 8.36426 10.6034 8.14758 10.796 7.983C11.1468 7.6964 11.5914 7.54998 12.044 7.572C12.2674 7.55677 12.4916 7.58919 12.7015 7.66711C12.9115 7.74503 13.1026 7.86668 13.262 8.024C13.5574 8.37116 13.7075 8.81892 13.681 9.274C13.6703 9.85279 13.4418 10.4063 13.041 10.824L12.041 11.85C11.7099 12.1841 11.4464 12.579 11.265 13.013C11.192 13.2234 11.1414 13.441 11.114 13.662C11.1004 13.7587 11.1077 13.8572 11.1354 13.9508C11.1631 14.0445 11.2105 14.1311 11.2744 14.2049C11.3384 14.2787 11.4174 14.338 11.5061 14.3787ZM11.208 16.279C11.067 16.4387 10.9923 16.6461 10.999 16.859C10.9915 16.9686 11.0081 17.0785 11.0476 17.181C11.0871 17.2835 11.1486 17.3761 11.2277 17.4523C11.3068 17.5285 11.4016 17.5865 11.5054 17.6222C11.6093 17.6579 11.7197 17.6705 11.829 17.659C11.9431 17.667 12.0576 17.6509 12.165 17.6118C12.2725 17.5726 12.3706 17.5114 12.4529 17.432C12.597 17.2767 12.6736 17.0707 12.666 16.859C12.6724 16.6454 12.596 16.4377 12.4529 16.279C12.372 16.1973 12.2743 16.1339 12.1666 16.0934C12.0589 16.0528 11.9438 16.036 11.829 16.044C11.7146 16.0356 11.5998 16.0523 11.4925 16.0929C11.3852 16.1335 11.2881 16.197 11.208 16.279Z" fill="black" fill-opacity="0.2"/>
<path d="M17.6852 3.49157L17.4074 3.9073L17.6852 3.49157ZM4.7642 4.76418L5.11775 5.11773L4.7642 4.76418ZM3.49155 17.6852L3.07582 17.9629L3.49155 17.6852ZM8.08402 21.4541L8.27536 20.9921L8.08402 21.4541ZM21.4541 8.084L21.916 7.89266V7.89266L21.4541 8.084ZM12 1L12.0006 0.5H12V1ZM5.88877 2.85384L5.61098 2.4381L5.88877 2.85384ZM23 12H23.5V11.9995L23 12ZM16.2095 22.1627L16.0182 21.7007V21.7007L16.2095 22.1627ZM4.22184 19.7782L4.57539 19.4246H4.57539L4.22184 19.7782ZM1.2114 14.146L1.70179 14.0485L1.2114 14.146ZM1.83732 7.79048L1.37538 7.59914L1.83732 7.79048ZM11.7889 14.441L11.7872 14.941H11.7889V14.441ZM11.5061 14.3787L11.2976 14.8331L11.2976 14.8332L11.5061 14.3787ZM11.835 14.441V14.941H11.8354L11.835 14.441ZM12.278 14.2761L11.9513 13.8975L11.9513 13.8975L12.278 14.2761ZM12.506 13.862L13.0005 13.9356L13.0019 13.9264L13.0029 13.9172L12.506 13.862ZM13.022 12.67L12.6704 12.3145L12.6554 12.3294L12.6417 12.3454L13.022 12.67ZM13.852 11.849L13.514 11.4806L13.5071 11.4869L13.5004 11.4935L13.852 11.849ZM15.0859 9.227L14.5867 9.19965L14.5866 9.20133L15.0859 9.227ZM14.9094 8.08407L14.4417 8.26082V8.26082L14.9094 8.08407ZM14.286 7.11L14.6424 6.75931L14.6301 6.74685L14.617 6.73529L14.286 7.11ZM12.044 6.339L12.0216 6.8385L12.0481 6.83969L12.0745 6.83806L12.044 6.339ZM9.79395 7.096L9.47415 6.71156L9.46801 6.71684L9.79395 7.096ZM9.05097 8.214L8.57507 8.0603L8.5721 8.07018L9.05097 8.214ZM9.03278 8.52771L8.5405 8.61523L8.5405 8.61523L9.03278 8.52771ZM9.15797 8.81592L8.75802 9.11599L8.75802 9.116L9.15797 8.81592ZM9.39967 9.01673L9.17797 9.4649L9.17797 9.4649L9.39967 9.01673ZM9.70594 9.087L9.71663 8.58712L9.7092 8.58696L9.70177 8.58702L9.70594 9.087ZM10.1266 8.95906L9.83938 8.54979L9.83938 8.54979L10.1266 8.95906ZM10.39 8.607L10.8637 8.76694L10.8665 8.75852L10.8691 8.75L10.39 8.607ZM10.796 7.983L10.4796 7.59566L10.4711 7.60291L10.796 7.983ZM12.044 7.572L12.0196 8.07141L12.0488 8.07283L12.078 8.07084L12.044 7.572ZM12.7015 7.66711L12.5276 8.13587L12.5276 8.13587L12.7015 7.66711ZM13.262 8.024L13.6428 7.69996L13.6287 7.68339L13.6132 7.6681L13.262 8.024ZM13.681 9.274L13.1818 9.24492L13.1812 9.25484L13.1811 9.26478L13.681 9.274ZM13.041 10.824L13.399 11.173L13.4017 11.1702L13.041 10.824ZM12.041 11.85L12.3962 12.2019L12.399 12.199L12.041 11.85ZM11.265 13.013L10.8037 12.8201L10.7976 12.8345L10.7925 12.8493L11.265 13.013ZM11.114 13.662L11.6092 13.7315L11.6101 13.7237L11.114 13.662ZM11.1354 13.9508L10.6559 14.0925L10.6559 14.0925L11.1354 13.9508ZM11.2744 14.2049L10.8965 14.5324L10.8965 14.5324L11.2744 14.2049ZM10.999 16.859L11.4978 16.8929L11.4995 16.8682L11.4987 16.8433L10.999 16.859ZM11.208 16.279L10.8504 15.9294L10.8415 15.9386L10.833 15.9482L11.208 16.279ZM11.0476 17.181L10.5811 17.3608L10.5811 17.3608L11.0476 17.181ZM11.2277 17.4523L10.8807 17.8123L10.8807 17.8123L11.2277 17.4523ZM11.5054 17.6222L11.3429 18.0951H11.3429L11.5054 17.6222ZM11.829 17.659L11.8637 17.1602L11.8202 17.1572L11.7767 17.1617L11.829 17.659ZM12.165 17.6118L12.336 18.0816L12.336 18.0816L12.165 17.6118ZM12.4529 17.432L12.8001 17.7919L12.8101 17.7822L12.8195 17.7721L12.4529 17.432ZM12.666 16.859L12.1662 16.844L12.1657 16.8605L12.1663 16.8771L12.666 16.859ZM12.4529 16.279L12.8243 15.9441L12.8164 15.9354L12.8081 15.9271L12.4529 16.279ZM12.1666 16.0934L11.9904 16.5613L11.9904 16.5613L12.1666 16.0934ZM11.829 16.044L11.7925 16.5427L11.8281 16.5453L11.8638 16.5428L11.829 16.044ZM11.4925 16.0929L11.3155 15.6253L11.3155 15.6253L11.4925 16.0929ZM12 2.267C13.925 2.267 15.8068 2.83783 17.4074 3.9073L17.9629 3.07583C16.1979 1.89648 14.1228 1.267 12 1.267V2.267ZM5.11775 5.11773C6.94304 3.29244 9.41868 2.267 12 2.267V1.267C9.15347 1.267 6.42347 2.39779 4.41064 4.41062L5.11775 5.11773ZM2.26701 12C2.26701 9.41865 3.29246 6.94302 5.11775 5.11773L4.41064 4.41062C2.39782 6.42345 1.26701 9.15343 1.26701 12H2.26701ZM3.90729 17.4074C2.83781 15.8068 2.26701 13.925 2.26701 12H1.26701C1.26701 14.1228 1.89646 16.1979 3.07582 17.9629L3.90729 17.4074ZM8.27536 20.9921C6.49689 20.2555 4.97676 19.0079 3.90729 17.4074L3.07582 17.9629C4.25518 19.728 5.93148 21.1036 7.89268 21.916L8.27536 20.9921ZM13.8988 21.546C12.0108 21.9215 10.0538 21.7288 8.27536 20.9921L7.89268 21.916C9.85388 22.7284 12.0119 22.9409 14.0939 22.5268L13.8988 21.546ZM18.8823 18.8823C17.5211 20.2435 15.7868 21.1704 13.8988 21.546L14.0939 22.5268C16.1759 22.1126 18.0883 21.0904 19.5894 19.5894L18.8823 18.8823ZM21.546 13.8988C21.1705 15.7868 20.2435 17.5211 18.8823 18.8823L19.5894 19.5894C21.0904 18.0883 22.1127 16.1759 22.5268 14.0939L21.546 13.8988ZM20.9921 8.27534C21.7288 10.0538 21.9216 12.0108 21.546 13.8988L22.5268 14.0939C22.9409 12.0119 22.7284 9.85386 21.916 7.89266L20.9921 8.27534ZM17.4074 3.9073C19.008 4.97678 20.2555 6.49687 20.9921 8.27534L21.916 7.89266C21.1037 5.93146 19.728 4.25519 17.9629 3.07583L17.4074 3.9073ZM12 0.5C9.72555 0.5 7.50215 1.17447 5.61098 2.4381L6.16656 3.26957C7.89327 2.11582 9.92333 1.5 12 1.5V0.5ZM20.1283 3.87178C17.9724 1.71593 15.0494 0.503321 12.0006 0.5L11.9995 1.5C14.7835 1.50303 17.4526 2.61031 19.4211 4.57889L20.1283 3.87178ZM23.5 11.9995C23.4967 8.95063 22.2841 6.02763 20.1283 3.87178L19.4211 4.57889C21.3897 6.54747 22.497 9.21656 22.5 12.0005L23.5 11.9995ZM21.5619 18.3891C22.8255 16.4979 23.5 14.2745 23.5 12H22.5C22.5 14.0767 21.8842 16.1068 20.7304 17.8335L21.5619 18.3891ZM16.4009 22.6246C18.5022 21.7542 20.2983 20.2802 21.5619 18.3891L20.7304 17.8335C19.5767 19.5602 17.9368 20.906 16.0182 21.7007L16.4009 22.6246ZM9.7565 23.279C11.9873 23.7228 14.2995 23.495 16.4009 22.6246L16.0182 21.7007C14.0995 22.4955 11.9884 22.7034 9.95159 22.2983L9.7565 23.279ZM3.86829 20.1317C5.47659 21.74 7.52572 22.8353 9.7565 23.279L9.95159 22.2983C7.91478 21.8931 6.04384 20.8931 4.57539 19.4246L3.86829 20.1317ZM0.721009 14.2435C1.16474 16.4743 2.25998 18.5234 3.86829 20.1317L4.57539 19.4246C3.10694 17.9562 2.10694 16.0853 1.70179 14.0485L0.721009 14.2435ZM1.37538 7.59914C0.504967 9.7005 0.277281 12.0128 0.721009 14.2435L1.70179 14.0485C1.29665 12.0116 1.50454 9.90044 2.29926 7.98182L1.37538 7.59914ZM5.61098 2.4381C3.71983 3.70173 2.24579 5.49778 1.37538 7.59914L2.29926 7.98182C3.09398 6.06321 4.43983 4.42333 6.16656 3.26957L5.61098 2.4381ZM11.7907 13.941C11.7644 13.9409 11.7385 13.9352 11.7146 13.9242L11.2976 14.8332C11.4512 14.9036 11.6182 14.9404 11.7872 14.941L11.7907 13.941ZM11.835 13.941H11.7889V14.941H11.835V13.941ZM11.9513 13.8975C11.9189 13.9255 11.8774 13.941 11.8345 13.941L11.8354 14.941C12.1178 14.9407 12.3908 14.8391 12.6046 14.6546L11.9513 13.8975ZM12.0114 13.7884C12.0051 13.8307 11.9838 13.8695 11.9513 13.8975L12.6046 14.6546C12.8184 14.4701 12.9589 14.215 13.0005 13.9356L12.0114 13.7884ZM12.6417 12.3454C12.2893 12.7583 12.0689 13.2674 12.009 13.8068L13.0029 13.9172C13.0407 13.5766 13.1799 13.2552 13.4023 12.9946L12.6417 12.3454ZM13.5004 11.4935L12.6704 12.3145L13.3736 13.0255L14.2036 12.2045L13.5004 11.4935ZM14.5866 9.20133C14.5418 10.0724 14.1566 10.8909 13.514 11.4806L14.19 12.2174C15.026 11.4504 15.527 10.3857 15.5853 9.25268L14.5866 9.20133ZM14.4417 8.26082C14.5548 8.56025 14.6042 8.88001 14.5867 9.19965L15.5852 9.25435C15.6103 8.79576 15.5394 8.33697 15.3771 7.90732L14.4417 8.26082ZM13.9296 7.46069C14.1541 7.68885 14.3285 7.96138 14.4417 8.26082L15.3771 7.90732C15.2147 7.47769 14.9645 7.08668 14.6424 6.75931L13.9296 7.46069ZM12.0745 6.83806C12.7622 6.79594 13.4386 7.02852 13.9549 7.48471L14.617 6.73529C13.9021 6.10364 12.9656 5.78162 12.0134 5.83993L12.0745 6.83806ZM10.1137 7.48038C10.6475 7.0363 11.3279 6.80741 12.0216 6.8385L12.0663 5.8395C11.1238 5.79726 10.1995 6.10824 9.47419 6.71161L10.1137 7.48038ZM9.52677 8.36766C9.63865 8.02126 9.84387 7.71244 10.1199 7.47515L9.46801 6.71684C9.05249 7.07404 8.74357 7.53893 8.57517 8.06033L9.52677 8.36766ZM9.52506 8.44018C9.52018 8.41274 9.52182 8.38453 9.52984 8.35782L8.5721 8.07018C8.51903 8.24687 8.50821 8.43357 8.5405 8.61523L9.52506 8.44018ZM9.55791 8.51585C9.54122 8.4936 9.52995 8.46769 9.52506 8.44018L8.5405 8.61523C8.57279 8.79682 8.64725 8.96836 8.75802 9.11599L9.55791 8.51585ZM9.62137 8.56857C9.59639 8.55622 9.57465 8.53816 9.55791 8.51585L8.75802 9.116C8.86874 9.26356 9.01258 9.38308 9.17797 9.4649L9.62137 8.56857ZM9.70177 8.58702C9.67389 8.58725 9.64635 8.58093 9.62136 8.56857L9.17797 9.4649C9.34334 9.5467 9.52562 9.58852 9.71011 9.58698L9.70177 8.58702ZM9.83938 8.54979C9.8035 8.57497 9.76049 8.58805 9.71663 8.58712L9.69525 9.58689C9.95191 9.59237 10.2037 9.51582 10.4138 9.36834L9.83938 8.54979ZM9.91623 8.44706C9.90221 8.4886 9.87528 8.52459 9.83938 8.54979L10.4138 9.36834C10.6239 9.22087 10.7816 9.01019 10.8637 8.76694L9.91623 8.44706ZM10.4711 7.60291C10.2054 7.83003 10.0108 8.12902 9.91085 8.46399L10.8691 8.75C10.914 8.5995 11.0014 8.46514 11.1208 8.36309L10.4711 7.60291ZM12.0683 7.07259C11.4923 7.04456 10.9263 7.23094 10.4797 7.59576L11.1123 8.37023C11.3674 8.16185 11.6906 8.0554 12.0196 8.07141L12.0683 7.07259ZM12.8755 7.19835C12.5991 7.09578 12.3041 7.05311 12.0099 7.07316L12.078 8.07084C12.2308 8.06043 12.384 8.0826 12.5276 8.13587L12.8755 7.19835ZM13.6132 7.6681C13.4033 7.46103 13.1519 7.30091 12.8755 7.19835L12.5276 8.13587C12.6712 8.18915 12.8018 8.27233 12.9108 8.37989L13.6132 7.6681ZM14.1801 9.30307C14.2141 8.71944 14.0216 8.1452 13.6428 7.69996L12.8812 8.34803C13.0931 8.59713 13.2008 8.9184 13.1818 9.24492L14.1801 9.30307ZM13.4017 11.1702C13.8897 10.6617 14.1679 9.98784 14.1809 9.28321L13.1811 9.26478C13.1727 9.71775 12.9938 10.1509 12.6802 10.4778L13.4017 11.1702ZM12.399 12.199L13.399 11.173L12.6829 10.475L11.6829 11.501L12.399 12.199ZM11.7263 13.2059C11.8829 12.8312 12.1103 12.4904 12.3961 12.2019L11.6858 11.4981C11.3094 11.8779 11.0099 12.3268 10.8037 12.8201L11.7263 13.2059ZM11.6101 13.7237C11.6333 13.5374 11.6759 13.3541 11.7374 13.1767L10.7925 12.8493C10.7081 13.0928 10.6496 13.3446 10.6178 13.6003L11.6101 13.7237ZM11.6149 13.8091C11.6074 13.7839 11.6055 13.7574 11.6091 13.7314L10.6188 13.5926C10.5953 13.76 10.608 13.9305 10.6559 14.0925L11.6149 13.8091ZM11.6523 13.8775C11.6351 13.8576 11.6223 13.8343 11.6149 13.8091L10.6559 14.0925C10.7038 14.2547 10.7859 14.4046 10.8965 14.5324L11.6523 13.8775ZM11.7146 13.9242C11.6908 13.9133 11.6695 13.8974 11.6523 13.8775L10.8965 14.5324C11.0072 14.6601 11.1439 14.7627 11.2976 14.8331L11.7146 13.9242ZM11.4987 16.8433C11.496 16.7576 11.5261 16.6741 11.5829 16.6098L10.833 15.9482C10.6079 16.2033 10.4886 16.5346 10.4992 16.8746L11.4987 16.8433ZM11.5142 17.0011C11.5009 16.9667 11.4953 16.9298 11.4978 16.8929L10.5001 16.825C10.4877 17.0074 10.5153 17.1902 10.5811 17.3608L11.5142 17.0011ZM11.5747 17.0923C11.5481 17.0667 11.5274 17.0355 11.5142 17.0011L10.5811 17.3608C10.6468 17.5314 10.7491 17.6855 10.8807 17.8123L11.5747 17.0923ZM11.668 17.1494C11.6331 17.1374 11.6012 17.1179 11.5747 17.0923L10.8807 17.8123C11.0123 17.9391 11.1701 18.0357 11.3429 18.0951L11.668 17.1494ZM11.7767 17.1617C11.74 17.1656 11.7029 17.1614 11.668 17.1494L11.3429 18.0951C11.5157 18.1545 11.6995 18.1754 11.8813 18.1563L11.7767 17.1617ZM11.9941 17.1419C11.9524 17.1571 11.908 17.1633 11.8637 17.1602L11.7942 18.1578C11.9782 18.1706 12.1627 18.1447 12.336 18.0816L11.9941 17.1419ZM12.1058 17.0721C12.0739 17.1029 12.0358 17.1267 11.9941 17.1419L12.336 18.0816C12.5092 18.0186 12.6674 17.9199 12.8001 17.7919L12.1058 17.0721ZM12.1663 16.8771C12.1692 16.9564 12.1404 17.0337 12.0864 17.0919L12.8195 17.7721C13.0536 17.5198 13.1781 17.1849 13.1656 16.8409L12.1663 16.8771ZM12.0816 16.6139C12.1384 16.6768 12.1687 16.7593 12.1662 16.844L13.1657 16.874C13.176 16.5316 13.0536 16.1985 12.8243 15.9441L12.0816 16.6139ZM11.9904 16.5613C12.0307 16.5765 12.0673 16.6002 12.0978 16.6309L12.8081 15.9271C12.6766 15.7943 12.5179 15.6914 12.3429 15.6255L11.9904 16.5613ZM11.8638 16.5428C11.9069 16.5398 11.95 16.5461 11.9904 16.5613L12.3429 15.6255C12.1678 15.5596 11.9807 15.5322 11.7942 15.5452L11.8638 16.5428ZM11.6695 16.5605C11.7086 16.5457 11.7506 16.5396 11.7925 16.5427L11.8655 15.5453C11.6786 15.5316 11.4909 15.5589 11.3155 15.6253L11.6695 16.5605ZM11.5655 16.6286C11.5948 16.5986 11.6303 16.5754 11.6695 16.5605L11.3155 15.6253C11.1402 15.6916 10.9815 15.7954 10.8504 15.9294L11.5655 16.6286Z" fill="#333333"/>
<path d="M17.6852 3.49157L17.4074 3.9073L17.6852 3.49157ZM4.7642 4.76418L5.11775 5.11773L4.7642 4.76418ZM3.49155 17.6852L3.07582 17.9629L3.49155 17.6852ZM8.08402 21.4541L8.27536 20.9921L8.08402 21.4541ZM21.4541 8.084L21.916 7.89266V7.89266L21.4541 8.084ZM12 1L12.0006 0.5H12V1ZM5.88877 2.85384L5.61098 2.4381L5.88877 2.85384ZM23 12H23.5V11.9995L23 12ZM16.2095 22.1627L16.0182 21.7007V21.7007L16.2095 22.1627ZM4.22184 19.7782L4.57539 19.4246H4.57539L4.22184 19.7782ZM1.2114 14.146L1.70179 14.0485L1.2114 14.146ZM1.83732 7.79048L1.37538 7.59914L1.83732 7.79048ZM11.7889 14.441L11.7872 14.941H11.7889V14.441ZM11.5061 14.3787L11.2976 14.8331L11.2976 14.8332L11.5061 14.3787ZM11.835 14.441V14.941H11.8354L11.835 14.441ZM12.278 14.2761L11.9513 13.8975L11.9513 13.8975L12.278 14.2761ZM12.506 13.862L13.0005 13.9356L13.0019 13.9264L13.0029 13.9172L12.506 13.862ZM13.022 12.67L12.6704 12.3145L12.6554 12.3294L12.6417 12.3454L13.022 12.67ZM13.852 11.849L13.514 11.4806L13.5071 11.4869L13.5004 11.4935L13.852 11.849ZM15.0859 9.227L14.5867 9.19965L14.5866 9.20133L15.0859 9.227ZM14.9094 8.08407L14.4417 8.26082V8.26082L14.9094 8.08407ZM14.286 7.11L14.6424 6.75931L14.6301 6.74685L14.617 6.73529L14.286 7.11ZM12.044 6.339L12.0216 6.8385L12.0481 6.83969L12.0745 6.83806L12.044 6.339ZM9.79395 7.096L9.47415 6.71156L9.46801 6.71684L9.79395 7.096ZM9.05097 8.214L8.57507 8.0603L8.5721 8.07018L9.05097 8.214ZM9.03278 8.52771L8.5405 8.61523L8.5405 8.61523L9.03278 8.52771ZM9.15797 8.81592L8.75802 9.11599L8.75802 9.116L9.15797 8.81592ZM9.39967 9.01673L9.17797 9.4649L9.17797 9.4649L9.39967 9.01673ZM9.70594 9.087L9.71663 8.58712L9.7092 8.58696L9.70177 8.58702L9.70594 9.087ZM10.1266 8.95906L9.83938 8.54979L9.83938 8.54979L10.1266 8.95906ZM10.39 8.607L10.8637 8.76694L10.8665 8.75852L10.8691 8.75L10.39 8.607ZM10.796 7.983L10.4796 7.59566L10.4711 7.60291L10.796 7.983ZM12.044 7.572L12.0196 8.07141L12.0488 8.07283L12.078 8.07084L12.044 7.572ZM12.7015 7.66711L12.5276 8.13587L12.5276 8.13587L12.7015 7.66711ZM13.262 8.024L13.6428 7.69996L13.6287 7.68339L13.6132 7.6681L13.262 8.024ZM13.681 9.274L13.1818 9.24492L13.1812 9.25484L13.1811 9.26478L13.681 9.274ZM13.041 10.824L13.399 11.173L13.4017 11.1702L13.041 10.824ZM12.041 11.85L12.3962 12.2019L12.399 12.199L12.041 11.85ZM11.265 13.013L10.8037 12.8201L10.7976 12.8345L10.7925 12.8493L11.265 13.013ZM11.114 13.662L11.6092 13.7315L11.6101 13.7237L11.114 13.662ZM11.1354 13.9508L10.6559 14.0925L10.6559 14.0925L11.1354 13.9508ZM11.2744 14.2049L10.8965 14.5324L10.8965 14.5324L11.2744 14.2049ZM10.999 16.859L11.4978 16.8929L11.4995 16.8682L11.4987 16.8433L10.999 16.859ZM11.208 16.279L10.8504 15.9294L10.8415 15.9386L10.833 15.9482L11.208 16.279ZM11.0476 17.181L10.5811 17.3608L10.5811 17.3608L11.0476 17.181ZM11.2277 17.4523L10.8807 17.8123L10.8807 17.8123L11.2277 17.4523ZM11.5054 17.6222L11.3429 18.0951H11.3429L11.5054 17.6222ZM11.829 17.659L11.8637 17.1602L11.8202 17.1572L11.7767 17.1617L11.829 17.659ZM12.165 17.6118L12.336 18.0816L12.336 18.0816L12.165 17.6118ZM12.4529 17.432L12.8001 17.7919L12.8101 17.7822L12.8195 17.7721L12.4529 17.432ZM12.666 16.859L12.1662 16.844L12.1657 16.8605L12.1663 16.8771L12.666 16.859ZM12.4529 16.279L12.8243 15.9441L12.8164 15.9354L12.8081 15.9271L12.4529 16.279ZM12.1666 16.0934L11.9904 16.5613L11.9904 16.5613L12.1666 16.0934ZM11.829 16.044L11.7925 16.5427L11.8281 16.5453L11.8638 16.5428L11.829 16.044ZM11.4925 16.0929L11.3155 15.6253L11.3155 15.6253L11.4925 16.0929ZM12 2.267C13.925 2.267 15.8068 2.83783 17.4074 3.9073L17.9629 3.07583C16.1979 1.89648 14.1228 1.267 12 1.267V2.267ZM5.11775 5.11773C6.94304 3.29244 9.41868 2.267 12 2.267V1.267C9.15347 1.267 6.42347 2.39779 4.41064 4.41062L5.11775 5.11773ZM2.26701 12C2.26701 9.41865 3.29246 6.94302 5.11775 5.11773L4.41064 4.41062C2.39782 6.42345 1.26701 9.15343 1.26701 12H2.26701ZM3.90729 17.4074C2.83781 15.8068 2.26701 13.925 2.26701 12H1.26701C1.26701 14.1228 1.89646 16.1979 3.07582 17.9629L3.90729 17.4074ZM8.27536 20.9921C6.49689 20.2555 4.97676 19.0079 3.90729 17.4074L3.07582 17.9629C4.25518 19.728 5.93148 21.1036 7.89268 21.916L8.27536 20.9921ZM13.8988 21.546C12.0108 21.9215 10.0538 21.7288 8.27536 20.9921L7.89268 21.916C9.85388 22.7284 12.0119 22.9409 14.0939 22.5268L13.8988 21.546ZM18.8823 18.8823C17.5211 20.2435 15.7868 21.1704 13.8988 21.546L14.0939 22.5268C16.1759 22.1126 18.0883 21.0904 19.5894 19.5894L18.8823 18.8823ZM21.546 13.8988C21.1705 15.7868 20.2435 17.5211 18.8823 18.8823L19.5894 19.5894C21.0904 18.0883 22.1127 16.1759 22.5268 14.0939L21.546 13.8988ZM20.9921 8.27534C21.7288 10.0538 21.9216 12.0108 21.546 13.8988L22.5268 14.0939C22.9409 12.0119 22.7284 9.85386 21.916 7.89266L20.9921 8.27534ZM17.4074 3.9073C19.008 4.97678 20.2555 6.49687 20.9921 8.27534L21.916 7.89266C21.1037 5.93146 19.728 4.25519 17.9629 3.07583L17.4074 3.9073ZM12 0.5C9.72555 0.5 7.50215 1.17447 5.61098 2.4381L6.16656 3.26957C7.89327 2.11582 9.92333 1.5 12 1.5V0.5ZM20.1283 3.87178C17.9724 1.71593 15.0494 0.503321 12.0006 0.5L11.9995 1.5C14.7835 1.50303 17.4526 2.61031 19.4211 4.57889L20.1283 3.87178ZM23.5 11.9995C23.4967 8.95063 22.2841 6.02763 20.1283 3.87178L19.4211 4.57889C21.3897 6.54747 22.497 9.21656 22.5 12.0005L23.5 11.9995ZM21.5619 18.3891C22.8255 16.4979 23.5 14.2745 23.5 12H22.5C22.5 14.0767 21.8842 16.1068 20.7304 17.8335L21.5619 18.3891ZM16.4009 22.6246C18.5022 21.7542 20.2983 20.2802 21.5619 18.3891L20.7304 17.8335C19.5767 19.5602 17.9368 20.906 16.0182 21.7007L16.4009 22.6246ZM9.7565 23.279C11.9873 23.7228 14.2995 23.495 16.4009 22.6246L16.0182 21.7007C14.0995 22.4955 11.9884 22.7034 9.95159 22.2983L9.7565 23.279ZM3.86829 20.1317C5.47659 21.74 7.52572 22.8353 9.7565 23.279L9.95159 22.2983C7.91478 21.8931 6.04384 20.8931 4.57539 19.4246L3.86829 20.1317ZM0.721009 14.2435C1.16474 16.4743 2.25998 18.5234 3.86829 20.1317L4.57539 19.4246C3.10694 17.9562 2.10694 16.0853 1.70179 14.0485L0.721009 14.2435ZM1.37538 7.59914C0.504967 9.7005 0.277281 12.0128 0.721009 14.2435L1.70179 14.0485C1.29665 12.0116 1.50454 9.90044 2.29926 7.98182L1.37538 7.59914ZM5.61098 2.4381C3.71983 3.70173 2.24579 5.49778 1.37538 7.59914L2.29926 7.98182C3.09398 6.06321 4.43983 4.42333 6.16656 3.26957L5.61098 2.4381ZM11.7907 13.941C11.7644 13.9409 11.7385 13.9352 11.7146 13.9242L11.2976 14.8332C11.4512 14.9036 11.6182 14.9404 11.7872 14.941L11.7907 13.941ZM11.835 13.941H11.7889V14.941H11.835V13.941ZM11.9513 13.8975C11.9189 13.9255 11.8774 13.941 11.8345 13.941L11.8354 14.941C12.1178 14.9407 12.3908 14.8391 12.6046 14.6546L11.9513 13.8975ZM12.0114 13.7884C12.0051 13.8307 11.9838 13.8695 11.9513 13.8975L12.6046 14.6546C12.8184 14.4701 12.9589 14.215 13.0005 13.9356L12.0114 13.7884ZM12.6417 12.3454C12.2893 12.7583 12.0689 13.2674 12.009 13.8068L13.0029 13.9172C13.0407 13.5766 13.1799 13.2552 13.4023 12.9946L12.6417 12.3454ZM13.5004 11.4935L12.6704 12.3145L13.3736 13.0255L14.2036 12.2045L13.5004 11.4935ZM14.5866 9.20133C14.5418 10.0724 14.1566 10.8909 13.514 11.4806L14.19 12.2174C15.026 11.4504 15.527 10.3857 15.5853 9.25268L14.5866 9.20133ZM14.4417 8.26082C14.5548 8.56025 14.6042 8.88001 14.5867 9.19965L15.5852 9.25435C15.6103 8.79576 15.5394 8.33697 15.3771 7.90732L14.4417 8.26082ZM13.9296 7.46069C14.1541 7.68885 14.3285 7.96138 14.4417 8.26082L15.3771 7.90732C15.2147 7.47769 14.9645 7.08668 14.6424 6.75931L13.9296 7.46069ZM12.0745 6.83806C12.7622 6.79594 13.4386 7.02852 13.9549 7.48471L14.617 6.73529C13.9021 6.10364 12.9656 5.78162 12.0134 5.83993L12.0745 6.83806ZM10.1137 7.48038C10.6475 7.0363 11.3279 6.80741 12.0216 6.8385L12.0663 5.8395C11.1238 5.79726 10.1995 6.10824 9.47419 6.71161L10.1137 7.48038ZM9.52677 8.36766C9.63865 8.02126 9.84387 7.71244 10.1199 7.47515L9.46801 6.71684C9.05249 7.07404 8.74357 7.53893 8.57517 8.06033L9.52677 8.36766ZM9.52506 8.44018C9.52018 8.41274 9.52182 8.38453 9.52984 8.35782L8.5721 8.07018C8.51903 8.24687 8.50821 8.43357 8.5405 8.61523L9.52506 8.44018ZM9.55791 8.51585C9.54122 8.4936 9.52995 8.46769 9.52506 8.44018L8.5405 8.61523C8.57279 8.79682 8.64725 8.96836 8.75802 9.11599L9.55791 8.51585ZM9.62137 8.56857C9.59639 8.55622 9.57465 8.53816 9.55791 8.51585L8.75802 9.116C8.86874 9.26356 9.01258 9.38308 9.17797 9.4649L9.62137 8.56857ZM9.70177 8.58702C9.67389 8.58725 9.64635 8.58093 9.62136 8.56857L9.17797 9.4649C9.34334 9.5467 9.52562 9.58852 9.71011 9.58698L9.70177 8.58702ZM9.83938 8.54979C9.8035 8.57497 9.76049 8.58805 9.71663 8.58712L9.69525 9.58689C9.95191 9.59237 10.2037 9.51582 10.4138 9.36834L9.83938 8.54979ZM9.91623 8.44706C9.90221 8.4886 9.87528 8.52459 9.83938 8.54979L10.4138 9.36834C10.6239 9.22087 10.7816 9.01019 10.8637 8.76694L9.91623 8.44706ZM10.4711 7.60291C10.2054 7.83003 10.0108 8.12902 9.91085 8.46399L10.8691 8.75C10.914 8.5995 11.0014 8.46514 11.1208 8.36309L10.4711 7.60291ZM12.0683 7.07259C11.4923 7.04456 10.9263 7.23094 10.4797 7.59576L11.1123 8.37023C11.3674 8.16185 11.6906 8.0554 12.0196 8.07141L12.0683 7.07259ZM12.8755 7.19835C12.5991 7.09578 12.3041 7.05311 12.0099 7.07316L12.078 8.07084C12.2308 8.06043 12.384 8.0826 12.5276 8.13587L12.8755 7.19835ZM13.6132 7.6681C13.4033 7.46103 13.1519 7.30091 12.8755 7.19835L12.5276 8.13587C12.6712 8.18915 12.8018 8.27233 12.9108 8.37989L13.6132 7.6681ZM14.1801 9.30307C14.2141 8.71944 14.0216 8.1452 13.6428 7.69996L12.8812 8.34803C13.0931 8.59713 13.2008 8.9184 13.1818 9.24492L14.1801 9.30307ZM13.4017 11.1702C13.8897 10.6617 14.1679 9.98784 14.1809 9.28321L13.1811 9.26478C13.1727 9.71775 12.9938 10.1509 12.6802 10.4778L13.4017 11.1702ZM12.399 12.199L13.399 11.173L12.6829 10.475L11.6829 11.501L12.399 12.199ZM11.7263 13.2059C11.8829 12.8312 12.1103 12.4904 12.3961 12.2019L11.6858 11.4981C11.3094 11.8779 11.0099 12.3268 10.8037 12.8201L11.7263 13.2059ZM11.6101 13.7237C11.6333 13.5374 11.6759 13.3541 11.7374 13.1767L10.7925 12.8493C10.7081 13.0928 10.6496 13.3446 10.6178 13.6003L11.6101 13.7237ZM11.6149 13.8091C11.6074 13.7839 11.6055 13.7574 11.6091 13.7314L10.6188 13.5926C10.5953 13.76 10.608 13.9305 10.6559 14.0925L11.6149 13.8091ZM11.6523 13.8775C11.6351 13.8576 11.6223 13.8343 11.6149 13.8091L10.6559 14.0925C10.7038 14.2547 10.7859 14.4046 10.8965 14.5324L11.6523 13.8775ZM11.7146 13.9242C11.6908 13.9133 11.6695 13.8974 11.6523 13.8775L10.8965 14.5324C11.0072 14.6601 11.1439 14.7627 11.2976 14.8331L11.7146 13.9242ZM11.4987 16.8433C11.496 16.7576 11.5261 16.6741 11.5829 16.6098L10.833 15.9482C10.6079 16.2033 10.4886 16.5346 10.4992 16.8746L11.4987 16.8433ZM11.5142 17.0011C11.5009 16.9667 11.4953 16.9298 11.4978 16.8929L10.5001 16.825C10.4877 17.0074 10.5153 17.1902 10.5811 17.3608L11.5142 17.0011ZM11.5747 17.0923C11.5481 17.0667 11.5274 17.0355 11.5142 17.0011L10.5811 17.3608C10.6468 17.5314 10.7491 17.6855 10.8807 17.8123L11.5747 17.0923ZM11.668 17.1494C11.6331 17.1374 11.6012 17.1179 11.5747 17.0923L10.8807 17.8123C11.0123 17.9391 11.1701 18.0357 11.3429 18.0951L11.668 17.1494ZM11.7767 17.1617C11.74 17.1656 11.7029 17.1614 11.668 17.1494L11.3429 18.0951C11.5157 18.1545 11.6995 18.1754 11.8813 18.1563L11.7767 17.1617ZM11.9941 17.1419C11.9524 17.1571 11.908 17.1633 11.8637 17.1602L11.7942 18.1578C11.9782 18.1706 12.1627 18.1447 12.336 18.0816L11.9941 17.1419ZM12.1058 17.0721C12.0739 17.1029 12.0358 17.1267 11.9941 17.1419L12.336 18.0816C12.5092 18.0186 12.6674 17.9199 12.8001 17.7919L12.1058 17.0721ZM12.1663 16.8771C12.1692 16.9564 12.1404 17.0337 12.0864 17.0919L12.8195 17.7721C13.0536 17.5198 13.1781 17.1849 13.1656 16.8409L12.1663 16.8771ZM12.0816 16.6139C12.1384 16.6768 12.1687 16.7593 12.1662 16.844L13.1657 16.874C13.176 16.5316 13.0536 16.1985 12.8243 15.9441L12.0816 16.6139ZM11.9904 16.5613C12.0307 16.5765 12.0673 16.6002 12.0978 16.6309L12.8081 15.9271C12.6766 15.7943 12.5179 15.6914 12.3429 15.6255L11.9904 16.5613ZM11.8638 16.5428C11.9069 16.5398 11.95 16.5461 11.9904 16.5613L12.3429 15.6255C12.1678 15.5596 11.9807 15.5322 11.7942 15.5452L11.8638 16.5428ZM11.6695 16.5605C11.7086 16.5457 11.7506 16.5396 11.7925 16.5427L11.8655 15.5453C11.6786 15.5316 11.4909 15.5589 11.3155 15.6253L11.6695 16.5605ZM11.5655 16.6286C11.5948 16.5986 11.6303 16.5754 11.6695 16.5605L11.3155 15.6253C11.1402 15.6916 10.9815 15.7954 10.8504 15.9294L11.5655 16.6286Z" fill="black" fill-opacity="0.2"/>
<path d="M17.6852 3.49157L17.4074 3.9073L17.6852 3.49157ZM4.7642 4.76418L5.11775 5.11773L4.7642 4.76418ZM3.49155 17.6852L3.07582 17.9629L3.49155 17.6852ZM8.08402 21.4541L8.27536 20.9921L8.08402 21.4541ZM21.4541 8.084L21.916 7.89266V7.89266L21.4541 8.084ZM12 1L12.0006 0.5H12V1ZM5.88877 2.85384L5.61098 2.4381L5.88877 2.85384ZM23 12H23.5V11.9995L23 12ZM16.2095 22.1627L16.0182 21.7007V21.7007L16.2095 22.1627ZM4.22184 19.7782L4.57539 19.4246H4.57539L4.22184 19.7782ZM1.2114 14.146L1.70179 14.0485L1.2114 14.146ZM1.83732 7.79048L1.37538 7.59914L1.83732 7.79048ZM11.7889 14.441L11.7872 14.941H11.7889V14.441ZM11.5061 14.3787L11.2976 14.8331L11.2976 14.8332L11.5061 14.3787ZM11.835 14.441V14.941H11.8354L11.835 14.441ZM12.278 14.2761L11.9513 13.8975L11.9513 13.8975L12.278 14.2761ZM12.506 13.862L13.0005 13.9356L13.0019 13.9264L13.0029 13.9172L12.506 13.862ZM13.022 12.67L12.6704 12.3145L12.6554 12.3294L12.6417 12.3454L13.022 12.67ZM13.852 11.849L13.514 11.4806L13.5071 11.4869L13.5004 11.4935L13.852 11.849ZM15.0859 9.227L14.5867 9.19965L14.5866 9.20133L15.0859 9.227ZM14.9094 8.08407L14.4417 8.26082V8.26082L14.9094 8.08407ZM14.286 7.11L14.6424 6.75931L14.6301 6.74685L14.617 6.73529L14.286 7.11ZM12.044 6.339L12.0216 6.8385L12.0481 6.83969L12.0745 6.83806L12.044 6.339ZM9.79395 7.096L9.47415 6.71156L9.46801 6.71684L9.79395 7.096ZM9.05097 8.214L8.57507 8.0603L8.5721 8.07018L9.05097 8.214ZM9.03278 8.52771L8.5405 8.61523L8.5405 8.61523L9.03278 8.52771ZM9.15797 8.81592L8.75802 9.11599L8.75802 9.116L9.15797 8.81592ZM9.39967 9.01673L9.17797 9.4649L9.17797 9.4649L9.39967 9.01673ZM9.70594 9.087L9.71663 8.58712L9.7092 8.58696L9.70177 8.58702L9.70594 9.087ZM10.1266 8.95906L9.83938 8.54979L9.83938 8.54979L10.1266 8.95906ZM10.39 8.607L10.8637 8.76694L10.8665 8.75852L10.8691 8.75L10.39 8.607ZM10.796 7.983L10.4796 7.59566L10.4711 7.60291L10.796 7.983ZM12.044 7.572L12.0196 8.07141L12.0488 8.07283L12.078 8.07084L12.044 7.572ZM12.7015 7.66711L12.5276 8.13587L12.5276 8.13587L12.7015 7.66711ZM13.262 8.024L13.6428 7.69996L13.6287 7.68339L13.6132 7.6681L13.262 8.024ZM13.681 9.274L13.1818 9.24492L13.1812 9.25484L13.1811 9.26478L13.681 9.274ZM13.041 10.824L13.399 11.173L13.4017 11.1702L13.041 10.824ZM12.041 11.85L12.3962 12.2019L12.399 12.199L12.041 11.85ZM11.265 13.013L10.8037 12.8201L10.7976 12.8345L10.7925 12.8493L11.265 13.013ZM11.114 13.662L11.6092 13.7315L11.6101 13.7237L11.114 13.662ZM11.1354 13.9508L10.6559 14.0925L10.6559 14.0925L11.1354 13.9508ZM11.2744 14.2049L10.8965 14.5324L10.8965 14.5324L11.2744 14.2049ZM10.999 16.859L11.4978 16.8929L11.4995 16.8682L11.4987 16.8433L10.999 16.859ZM11.208 16.279L10.8504 15.9294L10.8415 15.9386L10.833 15.9482L11.208 16.279ZM11.0476 17.181L10.5811 17.3608L10.5811 17.3608L11.0476 17.181ZM11.2277 17.4523L10.8807 17.8123L10.8807 17.8123L11.2277 17.4523ZM11.5054 17.6222L11.3429 18.0951H11.3429L11.5054 17.6222ZM11.829 17.659L11.8637 17.1602L11.8202 17.1572L11.7767 17.1617L11.829 17.659ZM12.165 17.6118L12.336 18.0816L12.336 18.0816L12.165 17.6118ZM12.4529 17.432L12.8001 17.7919L12.8101 17.7822L12.8195 17.7721L12.4529 17.432ZM12.666 16.859L12.1662 16.844L12.1657 16.8605L12.1663 16.8771L12.666 16.859ZM12.4529 16.279L12.8243 15.9441L12.8164 15.9354L12.8081 15.9271L12.4529 16.279ZM12.1666 16.0934L11.9904 16.5613L11.9904 16.5613L12.1666 16.0934ZM11.829 16.044L11.7925 16.5427L11.8281 16.5453L11.8638 16.5428L11.829 16.044ZM11.4925 16.0929L11.3155 15.6253L11.3155 15.6253L11.4925 16.0929ZM12 2.267C13.925 2.267 15.8068 2.83783 17.4074 3.9073L17.9629 3.07583C16.1979 1.89648 14.1228 1.267 12 1.267V2.267ZM5.11775 5.11773C6.94304 3.29244 9.41868 2.267 12 2.267V1.267C9.15347 1.267 6.42347 2.39779 4.41064 4.41062L5.11775 5.11773ZM2.26701 12C2.26701 9.41865 3.29246 6.94302 5.11775 5.11773L4.41064 4.41062C2.39782 6.42345 1.26701 9.15343 1.26701 12H2.26701ZM3.90729 17.4074C2.83781 15.8068 2.26701 13.925 2.26701 12H1.26701C1.26701 14.1228 1.89646 16.1979 3.07582 17.9629L3.90729 17.4074ZM8.27536 20.9921C6.49689 20.2555 4.97676 19.0079 3.90729 17.4074L3.07582 17.9629C4.25518 19.728 5.93148 21.1036 7.89268 21.916L8.27536 20.9921ZM13.8988 21.546C12.0108 21.9215 10.0538 21.7288 8.27536 20.9921L7.89268 21.916C9.85388 22.7284 12.0119 22.9409 14.0939 22.5268L13.8988 21.546ZM18.8823 18.8823C17.5211 20.2435 15.7868 21.1704 13.8988 21.546L14.0939 22.5268C16.1759 22.1126 18.0883 21.0904 19.5894 19.5894L18.8823 18.8823ZM21.546 13.8988C21.1705 15.7868 20.2435 17.5211 18.8823 18.8823L19.5894 19.5894C21.0904 18.0883 22.1127 16.1759 22.5268 14.0939L21.546 13.8988ZM20.9921 8.27534C21.7288 10.0538 21.9216 12.0108 21.546 13.8988L22.5268 14.0939C22.9409 12.0119 22.7284 9.85386 21.916 7.89266L20.9921 8.27534ZM17.4074 3.9073C19.008 4.97678 20.2555 6.49687 20.9921 8.27534L21.916 7.89266C21.1037 5.93146 19.728 4.25519 17.9629 3.07583L17.4074 3.9073ZM12 0.5C9.72555 0.5 7.50215 1.17447 5.61098 2.4381L6.16656 3.26957C7.89327 2.11582 9.92333 1.5 12 1.5V0.5ZM20.1283 3.87178C17.9724 1.71593 15.0494 0.503321 12.0006 0.5L11.9995 1.5C14.7835 1.50303 17.4526 2.61031 19.4211 4.57889L20.1283 3.87178ZM23.5 11.9995C23.4967 8.95063 22.2841 6.02763 20.1283 3.87178L19.4211 4.57889C21.3897 6.54747 22.497 9.21656 22.5 12.0005L23.5 11.9995ZM21.5619 18.3891C22.8255 16.4979 23.5 14.2745 23.5 12H22.5C22.5 14.0767 21.8842 16.1068 20.7304 17.8335L21.5619 18.3891ZM16.4009 22.6246C18.5022 21.7542 20.2983 20.2802 21.5619 18.3891L20.7304 17.8335C19.5767 19.5602 17.9368 20.906 16.0182 21.7007L16.4009 22.6246ZM9.7565 23.279C11.9873 23.7228 14.2995 23.495 16.4009 22.6246L16.0182 21.7007C14.0995 22.4955 11.9884 22.7034 9.95159 22.2983L9.7565 23.279ZM3.86829 20.1317C5.47659 21.74 7.52572 22.8353 9.7565 23.279L9.95159 22.2983C7.91478 21.8931 6.04384 20.8931 4.57539 19.4246L3.86829 20.1317ZM0.721009 14.2435C1.16474 16.4743 2.25998 18.5234 3.86829 20.1317L4.57539 19.4246C3.10694 17.9562 2.10694 16.0853 1.70179 14.0485L0.721009 14.2435ZM1.37538 7.59914C0.504967 9.7005 0.277281 12.0128 0.721009 14.2435L1.70179 14.0485C1.29665 12.0116 1.50454 9.90044 2.29926 7.98182L1.37538 7.59914ZM5.61098 2.4381C3.71983 3.70173 2.24579 5.49778 1.37538 7.59914L2.29926 7.98182C3.09398 6.06321 4.43983 4.42333 6.16656 3.26957L5.61098 2.4381ZM11.7907 13.941C11.7644 13.9409 11.7385 13.9352 11.7146 13.9242L11.2976 14.8332C11.4512 14.9036 11.6182 14.9404 11.7872 14.941L11.7907 13.941ZM11.835 13.941H11.7889V14.941H11.835V13.941ZM11.9513 13.8975C11.9189 13.9255 11.8774 13.941 11.8345 13.941L11.8354 14.941C12.1178 14.9407 12.3908 14.8391 12.6046 14.6546L11.9513 13.8975ZM12.0114 13.7884C12.0051 13.8307 11.9838 13.8695 11.9513 13.8975L12.6046 14.6546C12.8184 14.4701 12.9589 14.215 13.0005 13.9356L12.0114 13.7884ZM12.6417 12.3454C12.2893 12.7583 12.0689 13.2674 12.009 13.8068L13.0029 13.9172C13.0407 13.5766 13.1799 13.2552 13.4023 12.9946L12.6417 12.3454ZM13.5004 11.4935L12.6704 12.3145L13.3736 13.0255L14.2036 12.2045L13.5004 11.4935ZM14.5866 9.20133C14.5418 10.0724 14.1566 10.8909 13.514 11.4806L14.19 12.2174C15.026 11.4504 15.527 10.3857 15.5853 9.25268L14.5866 9.20133ZM14.4417 8.26082C14.5548 8.56025 14.6042 8.88001 14.5867 9.19965L15.5852 9.25435C15.6103 8.79576 15.5394 8.33697 15.3771 7.90732L14.4417 8.26082ZM13.9296 7.46069C14.1541 7.68885 14.3285 7.96138 14.4417 8.26082L15.3771 7.90732C15.2147 7.47769 14.9645 7.08668 14.6424 6.75931L13.9296 7.46069ZM12.0745 6.83806C12.7622 6.79594 13.4386 7.02852 13.9549 7.48471L14.617 6.73529C13.9021 6.10364 12.9656 5.78162 12.0134 5.83993L12.0745 6.83806ZM10.1137 7.48038C10.6475 7.0363 11.3279 6.80741 12.0216 6.8385L12.0663 5.8395C11.1238 5.79726 10.1995 6.10824 9.47419 6.71161L10.1137 7.48038ZM9.52677 8.36766C9.63865 8.02126 9.84387 7.71244 10.1199 7.47515L9.46801 6.71684C9.05249 7.07404 8.74357 7.53893 8.57517 8.06033L9.52677 8.36766ZM9.52506 8.44018C9.52018 8.41274 9.52182 8.38453 9.52984 8.35782L8.5721 8.07018C8.51903 8.24687 8.50821 8.43357 8.5405 8.61523L9.52506 8.44018ZM9.55791 8.51585C9.54122 8.4936 9.52995 8.46769 9.52506 8.44018L8.5405 8.61523C8.57279 8.79682 8.64725 8.96836 8.75802 9.11599L9.55791 8.51585ZM9.62137 8.56857C9.59639 8.55622 9.57465 8.53816 9.55791 8.51585L8.75802 9.116C8.86874 9.26356 9.01258 9.38308 9.17797 9.4649L9.62137 8.56857ZM9.70177 8.58702C9.67389 8.58725 9.64635 8.58093 9.62136 8.56857L9.17797 9.4649C9.34334 9.5467 9.52562 9.58852 9.71011 9.58698L9.70177 8.58702ZM9.83938 8.54979C9.8035 8.57497 9.76049 8.58805 9.71663 8.58712L9.69525 9.58689C9.95191 9.59237 10.2037 9.51582 10.4138 9.36834L9.83938 8.54979ZM9.91623 8.44706C9.90221 8.4886 9.87528 8.52459 9.83938 8.54979L10.4138 9.36834C10.6239 9.22087 10.7816 9.01019 10.8637 8.76694L9.91623 8.44706ZM10.4711 7.60291C10.2054 7.83003 10.0108 8.12902 9.91085 8.46399L10.8691 8.75C10.914 8.5995 11.0014 8.46514 11.1208 8.36309L10.4711 7.60291ZM12.0683 7.07259C11.4923 7.04456 10.9263 7.23094 10.4797 7.59576L11.1123 8.37023C11.3674 8.16185 11.6906 8.0554 12.0196 8.07141L12.0683 7.07259ZM12.8755 7.19835C12.5991 7.09578 12.3041 7.05311 12.0099 7.07316L12.078 8.07084C12.2308 8.06043 12.384 8.0826 12.5276 8.13587L12.8755 7.19835ZM13.6132 7.6681C13.4033 7.46103 13.1519 7.30091 12.8755 7.19835L12.5276 8.13587C12.6712 8.18915 12.8018 8.27233 12.9108 8.37989L13.6132 7.6681ZM14.1801 9.30307C14.2141 8.71944 14.0216 8.1452 13.6428 7.69996L12.8812 8.34803C13.0931 8.59713 13.2008 8.9184 13.1818 9.24492L14.1801 9.30307ZM13.4017 11.1702C13.8897 10.6617 14.1679 9.98784 14.1809 9.28321L13.1811 9.26478C13.1727 9.71775 12.9938 10.1509 12.6802 10.4778L13.4017 11.1702ZM12.399 12.199L13.399 11.173L12.6829 10.475L11.6829 11.501L12.399 12.199ZM11.7263 13.2059C11.8829 12.8312 12.1103 12.4904 12.3961 12.2019L11.6858 11.4981C11.3094 11.8779 11.0099 12.3268 10.8037 12.8201L11.7263 13.2059ZM11.6101 13.7237C11.6333 13.5374 11.6759 13.3541 11.7374 13.1767L10.7925 12.8493C10.7081 13.0928 10.6496 13.3446 10.6178 13.6003L11.6101 13.7237ZM11.6149 13.8091C11.6074 13.7839 11.6055 13.7574 11.6091 13.7314L10.6188 13.5926C10.5953 13.76 10.608 13.9305 10.6559 14.0925L11.6149 13.8091ZM11.6523 13.8775C11.6351 13.8576 11.6223 13.8343 11.6149 13.8091L10.6559 14.0925C10.7038 14.2547 10.7859 14.4046 10.8965 14.5324L11.6523 13.8775ZM11.7146 13.9242C11.6908 13.9133 11.6695 13.8974 11.6523 13.8775L10.8965 14.5324C11.0072 14.6601 11.1439 14.7627 11.2976 14.8331L11.7146 13.9242ZM11.4987 16.8433C11.496 16.7576 11.5261 16.6741 11.5829 16.6098L10.833 15.9482C10.6079 16.2033 10.4886 16.5346 10.4992 16.8746L11.4987 16.8433ZM11.5142 17.0011C11.5009 16.9667 11.4953 16.9298 11.4978 16.8929L10.5001 16.825C10.4877 17.0074 10.5153 17.1902 10.5811 17.3608L11.5142 17.0011ZM11.5747 17.0923C11.5481 17.0667 11.5274 17.0355 11.5142 17.0011L10.5811 17.3608C10.6468 17.5314 10.7491 17.6855 10.8807 17.8123L11.5747 17.0923ZM11.668 17.1494C11.6331 17.1374 11.6012 17.1179 11.5747 17.0923L10.8807 17.8123C11.0123 17.9391 11.1701 18.0357 11.3429 18.0951L11.668 17.1494ZM11.7767 17.1617C11.74 17.1656 11.7029 17.1614 11.668 17.1494L11.3429 18.0951C11.5157 18.1545 11.6995 18.1754 11.8813 18.1563L11.7767 17.1617ZM11.9941 17.1419C11.9524 17.1571 11.908 17.1633 11.8637 17.1602L11.7942 18.1578C11.9782 18.1706 12.1627 18.1447 12.336 18.0816L11.9941 17.1419ZM12.1058 17.0721C12.0739 17.1029 12.0358 17.1267 11.9941 17.1419L12.336 18.0816C12.5092 18.0186 12.6674 17.9199 12.8001 17.7919L12.1058 17.0721ZM12.1663 16.8771C12.1692 16.9564 12.1404 17.0337 12.0864 17.0919L12.8195 17.7721C13.0536 17.5198 13.1781 17.1849 13.1656 16.8409L12.1663 16.8771ZM12.0816 16.6139C12.1384 16.6768 12.1687 16.7593 12.1662 16.844L13.1657 16.874C13.176 16.5316 13.0536 16.1985 12.8243 15.9441L12.0816 16.6139ZM11.9904 16.5613C12.0307 16.5765 12.0673 16.6002 12.0978 16.6309L12.8081 15.9271C12.6766 15.7943 12.5179 15.6914 12.3429 15.6255L11.9904 16.5613ZM11.8638 16.5428C11.9069 16.5398 11.95 16.5461 11.9904 16.5613L12.3429 15.6255C12.1678 15.5596 11.9807 15.5322 11.7942 15.5452L11.8638 16.5428ZM11.6695 16.5605C11.7086 16.5457 11.7506 16.5396 11.7925 16.5427L11.8655 15.5453C11.6786 15.5316 11.4909 15.5589 11.3155 15.6253L11.6695 16.5605ZM11.5655 16.6286C11.5948 16.5986 11.6303 16.5754 11.6695 16.5605L11.3155 15.6253C11.1402 15.6916 10.9815 15.7954 10.8504 15.9294L11.5655 16.6286Z" fill="black" fill-opacity="0.2"/>
<path d="M17.6852 3.49157L17.4074 3.9073L17.6852 3.49157ZM4.7642 4.76418L5.11775 5.11773L4.7642 4.76418ZM3.49155 17.6852L3.07582 17.9629L3.49155 17.6852ZM8.08402 21.4541L8.27536 20.9921L8.08402 21.4541ZM21.4541 8.084L21.916 7.89266V7.89266L21.4541 8.084ZM12 1L12.0006 0.5H12V1ZM5.88877 2.85384L5.61098 2.4381L5.88877 2.85384ZM23 12H23.5V11.9995L23 12ZM16.2095 22.1627L16.0182 21.7007V21.7007L16.2095 22.1627ZM4.22184 19.7782L4.57539 19.4246H4.57539L4.22184 19.7782ZM1.2114 14.146L1.70179 14.0485L1.2114 14.146ZM1.83732 7.79048L1.37538 7.59914L1.83732 7.79048ZM11.7889 14.441L11.7872 14.941H11.7889V14.441ZM11.5061 14.3787L11.2976 14.8331L11.2976 14.8332L11.5061 14.3787ZM11.835 14.441V14.941H11.8354L11.835 14.441ZM12.278 14.2761L11.9513 13.8975L11.9513 13.8975L12.278 14.2761ZM12.506 13.862L13.0005 13.9356L13.0019 13.9264L13.0029 13.9172L12.506 13.862ZM13.022 12.67L12.6704 12.3145L12.6554 12.3294L12.6417 12.3454L13.022 12.67ZM13.852 11.849L13.514 11.4806L13.5071 11.4869L13.5004 11.4935L13.852 11.849ZM15.0859 9.227L14.5867 9.19965L14.5866 9.20133L15.0859 9.227ZM14.9094 8.08407L14.4417 8.26082V8.26082L14.9094 8.08407ZM14.286 7.11L14.6424 6.75931L14.6301 6.74685L14.617 6.73529L14.286 7.11ZM12.044 6.339L12.0216 6.8385L12.0481 6.83969L12.0745 6.83806L12.044 6.339ZM9.79395 7.096L9.47415 6.71156L9.46801 6.71684L9.79395 7.096ZM9.05097 8.214L8.57507 8.0603L8.5721 8.07018L9.05097 8.214ZM9.03278 8.52771L8.5405 8.61523L8.5405 8.61523L9.03278 8.52771ZM9.15797 8.81592L8.75802 9.11599L8.75802 9.116L9.15797 8.81592ZM9.39967 9.01673L9.17797 9.4649L9.17797 9.4649L9.39967 9.01673ZM9.70594 9.087L9.71663 8.58712L9.7092 8.58696L9.70177 8.58702L9.70594 9.087ZM10.1266 8.95906L9.83938 8.54979L9.83938 8.54979L10.1266 8.95906ZM10.39 8.607L10.8637 8.76694L10.8665 8.75852L10.8691 8.75L10.39 8.607ZM10.796 7.983L10.4796 7.59566L10.4711 7.60291L10.796 7.983ZM12.044 7.572L12.0196 8.07141L12.0488 8.07283L12.078 8.07084L12.044 7.572ZM12.7015 7.66711L12.5276 8.13587L12.5276 8.13587L12.7015 7.66711ZM13.262 8.024L13.6428 7.69996L13.6287 7.68339L13.6132 7.6681L13.262 8.024ZM13.681 9.274L13.1818 9.24492L13.1812 9.25484L13.1811 9.26478L13.681 9.274ZM13.041 10.824L13.399 11.173L13.4017 11.1702L13.041 10.824ZM12.041 11.85L12.3962 12.2019L12.399 12.199L12.041 11.85ZM11.265 13.013L10.8037 12.8201L10.7976 12.8345L10.7925 12.8493L11.265 13.013ZM11.114 13.662L11.6092 13.7315L11.6101 13.7237L11.114 13.662ZM11.1354 13.9508L10.6559 14.0925L10.6559 14.0925L11.1354 13.9508ZM11.2744 14.2049L10.8965 14.5324L10.8965 14.5324L11.2744 14.2049ZM10.999 16.859L11.4978 16.8929L11.4995 16.8682L11.4987 16.8433L10.999 16.859ZM11.208 16.279L10.8504 15.9294L10.8415 15.9386L10.833 15.9482L11.208 16.279ZM11.0476 17.181L10.5811 17.3608L10.5811 17.3608L11.0476 17.181ZM11.2277 17.4523L10.8807 17.8123L10.8807 17.8123L11.2277 17.4523ZM11.5054 17.6222L11.3429 18.0951H11.3429L11.5054 17.6222ZM11.829 17.659L11.8637 17.1602L11.8202 17.1572L11.7767 17.1617L11.829 17.659ZM12.165 17.6118L12.336 18.0816L12.336 18.0816L12.165 17.6118ZM12.4529 17.432L12.8001 17.7919L12.8101 17.7822L12.8195 17.7721L12.4529 17.432ZM12.666 16.859L12.1662 16.844L12.1657 16.8605L12.1663 16.8771L12.666 16.859ZM12.4529 16.279L12.8243 15.9441L12.8164 15.9354L12.8081 15.9271L12.4529 16.279ZM12.1666 16.0934L11.9904 16.5613L11.9904 16.5613L12.1666 16.0934ZM11.829 16.044L11.7925 16.5427L11.8281 16.5453L11.8638 16.5428L11.829 16.044ZM11.4925 16.0929L11.3155 15.6253L11.3155 15.6253L11.4925 16.0929ZM12 2.267C13.925 2.267 15.8068 2.83783 17.4074 3.9073L17.9629 3.07583C16.1979 1.89648 14.1228 1.267 12 1.267V2.267ZM5.11775 5.11773C6.94304 3.29244 9.41868 2.267 12 2.267V1.267C9.15347 1.267 6.42347 2.39779 4.41064 4.41062L5.11775 5.11773ZM2.26701 12C2.26701 9.41865 3.29246 6.94302 5.11775 5.11773L4.41064 4.41062C2.39782 6.42345 1.26701 9.15343 1.26701 12H2.26701ZM3.90729 17.4074C2.83781 15.8068 2.26701 13.925 2.26701 12H1.26701C1.26701 14.1228 1.89646 16.1979 3.07582 17.9629L3.90729 17.4074ZM8.27536 20.9921C6.49689 20.2555 4.97676 19.0079 3.90729 17.4074L3.07582 17.9629C4.25518 19.728 5.93148 21.1036 7.89268 21.916L8.27536 20.9921ZM13.8988 21.546C12.0108 21.9215 10.0538 21.7288 8.27536 20.9921L7.89268 21.916C9.85388 22.7284 12.0119 22.9409 14.0939 22.5268L13.8988 21.546ZM18.8823 18.8823C17.5211 20.2435 15.7868 21.1704 13.8988 21.546L14.0939 22.5268C16.1759 22.1126 18.0883 21.0904 19.5894 19.5894L18.8823 18.8823ZM21.546 13.8988C21.1705 15.7868 20.2435 17.5211 18.8823 18.8823L19.5894 19.5894C21.0904 18.0883 22.1127 16.1759 22.5268 14.0939L21.546 13.8988ZM20.9921 8.27534C21.7288 10.0538 21.9216 12.0108 21.546 13.8988L22.5268 14.0939C22.9409 12.0119 22.7284 9.85386 21.916 7.89266L20.9921 8.27534ZM17.4074 3.9073C19.008 4.97678 20.2555 6.49687 20.9921 8.27534L21.916 7.89266C21.1037 5.93146 19.728 4.25519 17.9629 3.07583L17.4074 3.9073ZM12 0.5C9.72555 0.5 7.50215 1.17447 5.61098 2.4381L6.16656 3.26957C7.89327 2.11582 9.92333 1.5 12 1.5V0.5ZM20.1283 3.87178C17.9724 1.71593 15.0494 0.503321 12.0006 0.5L11.9995 1.5C14.7835 1.50303 17.4526 2.61031 19.4211 4.57889L20.1283 3.87178ZM23.5 11.9995C23.4967 8.95063 22.2841 6.02763 20.1283 3.87178L19.4211 4.57889C21.3897 6.54747 22.497 9.21656 22.5 12.0005L23.5 11.9995ZM21.5619 18.3891C22.8255 16.4979 23.5 14.2745 23.5 12H22.5C22.5 14.0767 21.8842 16.1068 20.7304 17.8335L21.5619 18.3891ZM16.4009 22.6246C18.5022 21.7542 20.2983 20.2802 21.5619 18.3891L20.7304 17.8335C19.5767 19.5602 17.9368 20.906 16.0182 21.7007L16.4009 22.6246ZM9.7565 23.279C11.9873 23.7228 14.2995 23.495 16.4009 22.6246L16.0182 21.7007C14.0995 22.4955 11.9884 22.7034 9.95159 22.2983L9.7565 23.279ZM3.86829 20.1317C5.47659 21.74 7.52572 22.8353 9.7565 23.279L9.95159 22.2983C7.91478 21.8931 6.04384 20.8931 4.57539 19.4246L3.86829 20.1317ZM0.721009 14.2435C1.16474 16.4743 2.25998 18.5234 3.86829 20.1317L4.57539 19.4246C3.10694 17.9562 2.10694 16.0853 1.70179 14.0485L0.721009 14.2435ZM1.37538 7.59914C0.504967 9.7005 0.277281 12.0128 0.721009 14.2435L1.70179 14.0485C1.29665 12.0116 1.50454 9.90044 2.29926 7.98182L1.37538 7.59914ZM5.61098 2.4381C3.71983 3.70173 2.24579 5.49778 1.37538 7.59914L2.29926 7.98182C3.09398 6.06321 4.43983 4.42333 6.16656 3.26957L5.61098 2.4381ZM11.7907 13.941C11.7644 13.9409 11.7385 13.9352 11.7146 13.9242L11.2976 14.8332C11.4512 14.9036 11.6182 14.9404 11.7872 14.941L11.7907 13.941ZM11.835 13.941H11.7889V14.941H11.835V13.941ZM11.9513 13.8975C11.9189 13.9255 11.8774 13.941 11.8345 13.941L11.8354 14.941C12.1178 14.9407 12.3908 14.8391 12.6046 14.6546L11.9513 13.8975ZM12.0114 13.7884C12.0051 13.8307 11.9838 13.8695 11.9513 13.8975L12.6046 14.6546C12.8184 14.4701 12.9589 14.215 13.0005 13.9356L12.0114 13.7884ZM12.6417 12.3454C12.2893 12.7583 12.0689 13.2674 12.009 13.8068L13.0029 13.9172C13.0407 13.5766 13.1799 13.2552 13.4023 12.9946L12.6417 12.3454ZM13.5004 11.4935L12.6704 12.3145L13.3736 13.0255L14.2036 12.2045L13.5004 11.4935ZM14.5866 9.20133C14.5418 10.0724 14.1566 10.8909 13.514 11.4806L14.19 12.2174C15.026 11.4504 15.527 10.3857 15.5853 9.25268L14.5866 9.20133ZM14.4417 8.26082C14.5548 8.56025 14.6042 8.88001 14.5867 9.19965L15.5852 9.25435C15.6103 8.79576 15.5394 8.33697 15.3771 7.90732L14.4417 8.26082ZM13.9296 7.46069C14.1541 7.68885 14.3285 7.96138 14.4417 8.26082L15.3771 7.90732C15.2147 7.47769 14.9645 7.08668 14.6424 6.75931L13.9296 7.46069ZM12.0745 6.83806C12.7622 6.79594 13.4386 7.02852 13.9549 7.48471L14.617 6.73529C13.9021 6.10364 12.9656 5.78162 12.0134 5.83993L12.0745 6.83806ZM10.1137 7.48038C10.6475 7.0363 11.3279 6.80741 12.0216 6.8385L12.0663 5.8395C11.1238 5.79726 10.1995 6.10824 9.47419 6.71161L10.1137 7.48038ZM9.52677 8.36766C9.63865 8.02126 9.84387 7.71244 10.1199 7.47515L9.46801 6.71684C9.05249 7.07404 8.74357 7.53893 8.57517 8.06033L9.52677 8.36766ZM9.52506 8.44018C9.52018 8.41274 9.52182 8.38453 9.52984 8.35782L8.5721 8.07018C8.51903 8.24687 8.50821 8.43357 8.5405 8.61523L9.52506 8.44018ZM9.55791 8.51585C9.54122 8.4936 9.52995 8.46769 9.52506 8.44018L8.5405 8.61523C8.57279 8.79682 8.64725 8.96836 8.75802 9.11599L9.55791 8.51585ZM9.62137 8.56857C9.59639 8.55622 9.57465 8.53816 9.55791 8.51585L8.75802 9.116C8.86874 9.26356 9.01258 9.38308 9.17797 9.4649L9.62137 8.56857ZM9.70177 8.58702C9.67389 8.58725 9.64635 8.58093 9.62136 8.56857L9.17797 9.4649C9.34334 9.5467 9.52562 9.58852 9.71011 9.58698L9.70177 8.58702ZM9.83938 8.54979C9.8035 8.57497 9.76049 8.58805 9.71663 8.58712L9.69525 9.58689C9.95191 9.59237 10.2037 9.51582 10.4138 9.36834L9.83938 8.54979ZM9.91623 8.44706C9.90221 8.4886 9.87528 8.52459 9.83938 8.54979L10.4138 9.36834C10.6239 9.22087 10.7816 9.01019 10.8637 8.76694L9.91623 8.44706ZM10.4711 7.60291C10.2054 7.83003 10.0108 8.12902 9.91085 8.46399L10.8691 8.75C10.914 8.5995 11.0014 8.46514 11.1208 8.36309L10.4711 7.60291ZM12.0683 7.07259C11.4923 7.04456 10.9263 7.23094 10.4797 7.59576L11.1123 8.37023C11.3674 8.16185 11.6906 8.0554 12.0196 8.07141L12.0683 7.07259ZM12.8755 7.19835C12.5991 7.09578 12.3041 7.05311 12.0099 7.07316L12.078 8.07084C12.2308 8.06043 12.384 8.0826 12.5276 8.13587L12.8755 7.19835ZM13.6132 7.6681C13.4033 7.46103 13.1519 7.30091 12.8755 7.19835L12.5276 8.13587C12.6712 8.18915 12.8018 8.27233 12.9108 8.37989L13.6132 7.6681ZM14.1801 9.30307C14.2141 8.71944 14.0216 8.1452 13.6428 7.69996L12.8812 8.34803C13.0931 8.59713 13.2008 8.9184 13.1818 9.24492L14.1801 9.30307ZM13.4017 11.1702C13.8897 10.6617 14.1679 9.98784 14.1809 9.28321L13.1811 9.26478C13.1727 9.71775 12.9938 10.1509 12.6802 10.4778L13.4017 11.1702ZM12.399 12.199L13.399 11.173L12.6829 10.475L11.6829 11.501L12.399 12.199ZM11.7263 13.2059C11.8829 12.8312 12.1103 12.4904 12.3961 12.2019L11.6858 11.4981C11.3094 11.8779 11.0099 12.3268 10.8037 12.8201L11.7263 13.2059ZM11.6101 13.7237C11.6333 13.5374 11.6759 13.3541 11.7374 13.1767L10.7925 12.8493C10.7081 13.0928 10.6496 13.3446 10.6178 13.6003L11.6101 13.7237ZM11.6149 13.8091C11.6074 13.7839 11.6055 13.7574 11.6091 13.7314L10.6188 13.5926C10.5953 13.76 10.608 13.9305 10.6559 14.0925L11.6149 13.8091ZM11.6523 13.8775C11.6351 13.8576 11.6223 13.8343 11.6149 13.8091L10.6559 14.0925C10.7038 14.2547 10.7859 14.4046 10.8965 14.5324L11.6523 13.8775ZM11.7146 13.9242C11.6908 13.9133 11.6695 13.8974 11.6523 13.8775L10.8965 14.5324C11.0072 14.6601 11.1439 14.7627 11.2976 14.8331L11.7146 13.9242ZM11.4987 16.8433C11.496 16.7576 11.5261 16.6741 11.5829 16.6098L10.833 15.9482C10.6079 16.2033 10.4886 16.5346 10.4992 16.8746L11.4987 16.8433ZM11.5142 17.0011C11.5009 16.9667 11.4953 16.9298 11.4978 16.8929L10.5001 16.825C10.4877 17.0074 10.5153 17.1902 10.5811 17.3608L11.5142 17.0011ZM11.5747 17.0923C11.5481 17.0667 11.5274 17.0355 11.5142 17.0011L10.5811 17.3608C10.6468 17.5314 10.7491 17.6855 10.8807 17.8123L11.5747 17.0923ZM11.668 17.1494C11.6331 17.1374 11.6012 17.1179 11.5747 17.0923L10.8807 17.8123C11.0123 17.9391 11.1701 18.0357 11.3429 18.0951L11.668 17.1494ZM11.7767 17.1617C11.74 17.1656 11.7029 17.1614 11.668 17.1494L11.3429 18.0951C11.5157 18.1545 11.6995 18.1754 11.8813 18.1563L11.7767 17.1617ZM11.9941 17.1419C11.9524 17.1571 11.908 17.1633 11.8637 17.1602L11.7942 18.1578C11.9782 18.1706 12.1627 18.1447 12.336 18.0816L11.9941 17.1419ZM12.1058 17.0721C12.0739 17.1029 12.0358 17.1267 11.9941 17.1419L12.336 18.0816C12.5092 18.0186 12.6674 17.9199 12.8001 17.7919L12.1058 17.0721ZM12.1663 16.8771C12.1692 16.9564 12.1404 17.0337 12.0864 17.0919L12.8195 17.7721C13.0536 17.5198 13.1781 17.1849 13.1656 16.8409L12.1663 16.8771ZM12.0816 16.6139C12.1384 16.6768 12.1687 16.7593 12.1662 16.844L13.1657 16.874C13.176 16.5316 13.0536 16.1985 12.8243 15.9441L12.0816 16.6139ZM11.9904 16.5613C12.0307 16.5765 12.0673 16.6002 12.0978 16.6309L12.8081 15.9271C12.6766 15.7943 12.5179 15.6914 12.3429 15.6255L11.9904 16.5613ZM11.8638 16.5428C11.9069 16.5398 11.95 16.5461 11.9904 16.5613L12.3429 15.6255C12.1678 15.5596 11.9807 15.5322 11.7942 15.5452L11.8638 16.5428ZM11.6695 16.5605C11.7086 16.5457 11.7506 16.5396 11.7925 16.5427L11.8655 15.5453C11.6786 15.5316 11.4909 15.5589 11.3155 15.6253L11.6695 16.5605ZM11.5655 16.6286C11.5948 16.5986 11.6303 16.5754 11.6695 16.5605L11.3155 15.6253C11.1402 15.6916 10.9815 15.7954 10.8504 15.9294L11.5655 16.6286Z" fill="black" fill-opacity="0.2"/>
<path d="M17.6852 3.49157L17.4074 3.9073L17.6852 3.49157ZM4.7642 4.76418L5.11775 5.11773L4.7642 4.76418ZM3.49155 17.6852L3.07582 17.9629L3.49155 17.6852ZM8.08402 21.4541L8.27536 20.9921L8.08402 21.4541ZM21.4541 8.084L21.916 7.89266V7.89266L21.4541 8.084ZM12 1L12.0006 0.5H12V1ZM5.88877 2.85384L5.61098 2.4381L5.88877 2.85384ZM23 12H23.5V11.9995L23 12ZM16.2095 22.1627L16.0182 21.7007V21.7007L16.2095 22.1627ZM4.22184 19.7782L4.57539 19.4246H4.57539L4.22184 19.7782ZM1.2114 14.146L1.70179 14.0485L1.2114 14.146ZM1.83732 7.79048L1.37538 7.59914L1.83732 7.79048ZM11.7889 14.441L11.7872 14.941H11.7889V14.441ZM11.5061 14.3787L11.2976 14.8331L11.2976 14.8332L11.5061 14.3787ZM11.835 14.441V14.941H11.8354L11.835 14.441ZM12.278 14.2761L11.9513 13.8975L11.9513 13.8975L12.278 14.2761ZM12.506 13.862L13.0005 13.9356L13.0019 13.9264L13.0029 13.9172L12.506 13.862ZM13.022 12.67L12.6704 12.3145L12.6554 12.3294L12.6417 12.3454L13.022 12.67ZM13.852 11.849L13.514 11.4806L13.5071 11.4869L13.5004 11.4935L13.852 11.849ZM15.0859 9.227L14.5867 9.19965L14.5866 9.20133L15.0859 9.227ZM14.9094 8.08407L14.4417 8.26082V8.26082L14.9094 8.08407ZM14.286 7.11L14.6424 6.75931L14.6301 6.74685L14.617 6.73529L14.286 7.11ZM12.044 6.339L12.0216 6.8385L12.0481 6.83969L12.0745 6.83806L12.044 6.339ZM9.79395 7.096L9.47415 6.71156L9.46801 6.71684L9.79395 7.096ZM9.05097 8.214L8.57507 8.0603L8.5721 8.07018L9.05097 8.214ZM9.03278 8.52771L8.5405 8.61523L8.5405 8.61523L9.03278 8.52771ZM9.15797 8.81592L8.75802 9.11599L8.75802 9.116L9.15797 8.81592ZM9.39967 9.01673L9.17797 9.4649L9.17797 9.4649L9.39967 9.01673ZM9.70594 9.087L9.71663 8.58712L9.7092 8.58696L9.70177 8.58702L9.70594 9.087ZM10.1266 8.95906L9.83938 8.54979L9.83938 8.54979L10.1266 8.95906ZM10.39 8.607L10.8637 8.76694L10.8665 8.75852L10.8691 8.75L10.39 8.607ZM10.796 7.983L10.4796 7.59566L10.4711 7.60291L10.796 7.983ZM12.044 7.572L12.0196 8.07141L12.0488 8.07283L12.078 8.07084L12.044 7.572ZM12.7015 7.66711L12.5276 8.13587L12.5276 8.13587L12.7015 7.66711ZM13.262 8.024L13.6428 7.69996L13.6287 7.68339L13.6132 7.6681L13.262 8.024ZM13.681 9.274L13.1818 9.24492L13.1812 9.25484L13.1811 9.26478L13.681 9.274ZM13.041 10.824L13.399 11.173L13.4017 11.1702L13.041 10.824ZM12.041 11.85L12.3962 12.2019L12.399 12.199L12.041 11.85ZM11.265 13.013L10.8037 12.8201L10.7976 12.8345L10.7925 12.8493L11.265 13.013ZM11.114 13.662L11.6092 13.7315L11.6101 13.7237L11.114 13.662ZM11.1354 13.9508L10.6559 14.0925L10.6559 14.0925L11.1354 13.9508ZM11.2744 14.2049L10.8965 14.5324L10.8965 14.5324L11.2744 14.2049ZM10.999 16.859L11.4978 16.8929L11.4995 16.8682L11.4987 16.8433L10.999 16.859ZM11.208 16.279L10.8504 15.9294L10.8415 15.9386L10.833 15.9482L11.208 16.279ZM11.0476 17.181L10.5811 17.3608L10.5811 17.3608L11.0476 17.181ZM11.2277 17.4523L10.8807 17.8123L10.8807 17.8123L11.2277 17.4523ZM11.5054 17.6222L11.3429 18.0951H11.3429L11.5054 17.6222ZM11.829 17.659L11.8637 17.1602L11.8202 17.1572L11.7767 17.1617L11.829 17.659ZM12.165 17.6118L12.336 18.0816L12.336 18.0816L12.165 17.6118ZM12.4529 17.432L12.8001 17.7919L12.8101 17.7822L12.8195 17.7721L12.4529 17.432ZM12.666 16.859L12.1662 16.844L12.1657 16.8605L12.1663 16.8771L12.666 16.859ZM12.4529 16.279L12.8243 15.9441L12.8164 15.9354L12.8081 15.9271L12.4529 16.279ZM12.1666 16.0934L11.9904 16.5613L11.9904 16.5613L12.1666 16.0934ZM11.829 16.044L11.7925 16.5427L11.8281 16.5453L11.8638 16.5428L11.829 16.044ZM11.4925 16.0929L11.3155 15.6253L11.3155 15.6253L11.4925 16.0929ZM12 2.267C13.925 2.267 15.8068 2.83783 17.4074 3.9073L17.9629 3.07583C16.1979 1.89648 14.1228 1.267 12 1.267V2.267ZM5.11775 5.11773C6.94304 3.29244 9.41868 2.267 12 2.267V1.267C9.15347 1.267 6.42347 2.39779 4.41064 4.41062L5.11775 5.11773ZM2.26701 12C2.26701 9.41865 3.29246 6.94302 5.11775 5.11773L4.41064 4.41062C2.39782 6.42345 1.26701 9.15343 1.26701 12H2.26701ZM3.90729 17.4074C2.83781 15.8068 2.26701 13.925 2.26701 12H1.26701C1.26701 14.1228 1.89646 16.1979 3.07582 17.9629L3.90729 17.4074ZM8.27536 20.9921C6.49689 20.2555 4.97676 19.0079 3.90729 17.4074L3.07582 17.9629C4.25518 19.728 5.93148 21.1036 7.89268 21.916L8.27536 20.9921ZM13.8988 21.546C12.0108 21.9215 10.0538 21.7288 8.27536 20.9921L7.89268 21.916C9.85388 22.7284 12.0119 22.9409 14.0939 22.5268L13.8988 21.546ZM18.8823 18.8823C17.5211 20.2435 15.7868 21.1704 13.8988 21.546L14.0939 22.5268C16.1759 22.1126 18.0883 21.0904 19.5894 19.5894L18.8823 18.8823ZM21.546 13.8988C21.1705 15.7868 20.2435 17.5211 18.8823 18.8823L19.5894 19.5894C21.0904 18.0883 22.1127 16.1759 22.5268 14.0939L21.546 13.8988ZM20.9921 8.27534C21.7288 10.0538 21.9216 12.0108 21.546 13.8988L22.5268 14.0939C22.9409 12.0119 22.7284 9.85386 21.916 7.89266L20.9921 8.27534ZM17.4074 3.9073C19.008 4.97678 20.2555 6.49687 20.9921 8.27534L21.916 7.89266C21.1037 5.93146 19.728 4.25519 17.9629 3.07583L17.4074 3.9073ZM12 0.5C9.72555 0.5 7.50215 1.17447 5.61098 2.4381L6.16656 3.26957C7.89327 2.11582 9.92333 1.5 12 1.5V0.5ZM20.1283 3.87178C17.9724 1.71593 15.0494 0.503321 12.0006 0.5L11.9995 1.5C14.7835 1.50303 17.4526 2.61031 19.4211 4.57889L20.1283 3.87178ZM23.5 11.9995C23.4967 8.95063 22.2841 6.02763 20.1283 3.87178L19.4211 4.57889C21.3897 6.54747 22.497 9.21656 22.5 12.0005L23.5 11.9995ZM21.5619 18.3891C22.8255 16.4979 23.5 14.2745 23.5 12H22.5C22.5 14.0767 21.8842 16.1068 20.7304 17.8335L21.5619 18.3891ZM16.4009 22.6246C18.5022 21.7542 20.2983 20.2802 21.5619 18.3891L20.7304 17.8335C19.5767 19.5602 17.9368 20.906 16.0182 21.7007L16.4009 22.6246ZM9.7565 23.279C11.9873 23.7228 14.2995 23.495 16.4009 22.6246L16.0182 21.7007C14.0995 22.4955 11.9884 22.7034 9.95159 22.2983L9.7565 23.279ZM3.86829 20.1317C5.47659 21.74 7.52572 22.8353 9.7565 23.279L9.95159 22.2983C7.91478 21.8931 6.04384 20.8931 4.57539 19.4246L3.86829 20.1317ZM0.721009 14.2435C1.16474 16.4743 2.25998 18.5234 3.86829 20.1317L4.57539 19.4246C3.10694 17.9562 2.10694 16.0853 1.70179 14.0485L0.721009 14.2435ZM1.37538 7.59914C0.504967 9.7005 0.277281 12.0128 0.721009 14.2435L1.70179 14.0485C1.29665 12.0116 1.50454 9.90044 2.29926 7.98182L1.37538 7.59914ZM5.61098 2.4381C3.71983 3.70173 2.24579 5.49778 1.37538 7.59914L2.29926 7.98182C3.09398 6.06321 4.43983 4.42333 6.16656 3.26957L5.61098 2.4381ZM11.7907 13.941C11.7644 13.9409 11.7385 13.9352 11.7146 13.9242L11.2976 14.8332C11.4512 14.9036 11.6182 14.9404 11.7872 14.941L11.7907 13.941ZM11.835 13.941H11.7889V14.941H11.835V13.941ZM11.9513 13.8975C11.9189 13.9255 11.8774 13.941 11.8345 13.941L11.8354 14.941C12.1178 14.9407 12.3908 14.8391 12.6046 14.6546L11.9513 13.8975ZM12.0114 13.7884C12.0051 13.8307 11.9838 13.8695 11.9513 13.8975L12.6046 14.6546C12.8184 14.4701 12.9589 14.215 13.0005 13.9356L12.0114 13.7884ZM12.6417 12.3454C12.2893 12.7583 12.0689 13.2674 12.009 13.8068L13.0029 13.9172C13.0407 13.5766 13.1799 13.2552 13.4023 12.9946L12.6417 12.3454ZM13.5004 11.4935L12.6704 12.3145L13.3736 13.0255L14.2036 12.2045L13.5004 11.4935ZM14.5866 9.20133C14.5418 10.0724 14.1566 10.8909 13.514 11.4806L14.19 12.2174C15.026 11.4504 15.527 10.3857 15.5853 9.25268L14.5866 9.20133ZM14.4417 8.26082C14.5548 8.56025 14.6042 8.88001 14.5867 9.19965L15.5852 9.25435C15.6103 8.79576 15.5394 8.33697 15.3771 7.90732L14.4417 8.26082ZM13.9296 7.46069C14.1541 7.68885 14.3285 7.96138 14.4417 8.26082L15.3771 7.90732C15.2147 7.47769 14.9645 7.08668 14.6424 6.75931L13.9296 7.46069ZM12.0745 6.83806C12.7622 6.79594 13.4386 7.02852 13.9549 7.48471L14.617 6.73529C13.9021 6.10364 12.9656 5.78162 12.0134 5.83993L12.0745 6.83806ZM10.1137 7.48038C10.6475 7.0363 11.3279 6.80741 12.0216 6.8385L12.0663 5.8395C11.1238 5.79726 10.1995 6.10824 9.47419 6.71161L10.1137 7.48038ZM9.52677 8.36766C9.63865 8.02126 9.84387 7.71244 10.1199 7.47515L9.46801 6.71684C9.05249 7.07404 8.74357 7.53893 8.57517 8.06033L9.52677 8.36766ZM9.52506 8.44018C9.52018 8.41274 9.52182 8.38453 9.52984 8.35782L8.5721 8.07018C8.51903 8.24687 8.50821 8.43357 8.5405 8.61523L9.52506 8.44018ZM9.55791 8.51585C9.54122 8.4936 9.52995 8.46769 9.52506 8.44018L8.5405 8.61523C8.57279 8.79682 8.64725 8.96836 8.75802 9.11599L9.55791 8.51585ZM9.62137 8.56857C9.59639 8.55622 9.57465 8.53816 9.55791 8.51585L8.75802 9.116C8.86874 9.26356 9.01258 9.38308 9.17797 9.4649L9.62137 8.56857ZM9.70177 8.58702C9.67389 8.58725 9.64635 8.58093 9.62136 8.56857L9.17797 9.4649C9.34334 9.5467 9.52562 9.58852 9.71011 9.58698L9.70177 8.58702ZM9.83938 8.54979C9.8035 8.57497 9.76049 8.58805 9.71663 8.58712L9.69525 9.58689C9.95191 9.59237 10.2037 9.51582 10.4138 9.36834L9.83938 8.54979ZM9.91623 8.44706C9.90221 8.4886 9.87528 8.52459 9.83938 8.54979L10.4138 9.36834C10.6239 9.22087 10.7816 9.01019 10.8637 8.76694L9.91623 8.44706ZM10.4711 7.60291C10.2054 7.83003 10.0108 8.12902 9.91085 8.46399L10.8691 8.75C10.914 8.5995 11.0014 8.46514 11.1208 8.36309L10.4711 7.60291ZM12.0683 7.07259C11.4923 7.04456 10.9263 7.23094 10.4797 7.59576L11.1123 8.37023C11.3674 8.16185 11.6906 8.0554 12.0196 8.07141L12.0683 7.07259ZM12.8755 7.19835C12.5991 7.09578 12.3041 7.05311 12.0099 7.07316L12.078 8.07084C12.2308 8.06043 12.384 8.0826 12.5276 8.13587L12.8755 7.19835ZM13.6132 7.6681C13.4033 7.46103 13.1519 7.30091 12.8755 7.19835L12.5276 8.13587C12.6712 8.18915 12.8018 8.27233 12.9108 8.37989L13.6132 7.6681ZM14.1801 9.30307C14.2141 8.71944 14.0216 8.1452 13.6428 7.69996L12.8812 8.34803C13.0931 8.59713 13.2008 8.9184 13.1818 9.24492L14.1801 9.30307ZM13.4017 11.1702C13.8897 10.6617 14.1679 9.98784 14.1809 9.28321L13.1811 9.26478C13.1727 9.71775 12.9938 10.1509 12.6802 10.4778L13.4017 11.1702ZM12.399 12.199L13.399 11.173L12.6829 10.475L11.6829 11.501L12.399 12.199ZM11.7263 13.2059C11.8829 12.8312 12.1103 12.4904 12.3961 12.2019L11.6858 11.4981C11.3094 11.8779 11.0099 12.3268 10.8037 12.8201L11.7263 13.2059ZM11.6101 13.7237C11.6333 13.5374 11.6759 13.3541 11.7374 13.1767L10.7925 12.8493C10.7081 13.0928 10.6496 13.3446 10.6178 13.6003L11.6101 13.7237ZM11.6149 13.8091C11.6074 13.7839 11.6055 13.7574 11.6091 13.7314L10.6188 13.5926C10.5953 13.76 10.608 13.9305 10.6559 14.0925L11.6149 13.8091ZM11.6523 13.8775C11.6351 13.8576 11.6223 13.8343 11.6149 13.8091L10.6559 14.0925C10.7038 14.2547 10.7859 14.4046 10.8965 14.5324L11.6523 13.8775ZM11.7146 13.9242C11.6908 13.9133 11.6695 13.8974 11.6523 13.8775L10.8965 14.5324C11.0072 14.6601 11.1439 14.7627 11.2976 14.8331L11.7146 13.9242ZM11.4987 16.8433C11.496 16.7576 11.5261 16.6741 11.5829 16.6098L10.833 15.9482C10.6079 16.2033 10.4886 16.5346 10.4992 16.8746L11.4987 16.8433ZM11.5142 17.0011C11.5009 16.9667 11.4953 16.9298 11.4978 16.8929L10.5001 16.825C10.4877 17.0074 10.5153 17.1902 10.5811 17.3608L11.5142 17.0011ZM11.5747 17.0923C11.5481 17.0667 11.5274 17.0355 11.5142 17.0011L10.5811 17.3608C10.6468 17.5314 10.7491 17.6855 10.8807 17.8123L11.5747 17.0923ZM11.668 17.1494C11.6331 17.1374 11.6012 17.1179 11.5747 17.0923L10.8807 17.8123C11.0123 17.9391 11.1701 18.0357 11.3429 18.0951L11.668 17.1494ZM11.7767 17.1617C11.74 17.1656 11.7029 17.1614 11.668 17.1494L11.3429 18.0951C11.5157 18.1545 11.6995 18.1754 11.8813 18.1563L11.7767 17.1617ZM11.9941 17.1419C11.9524 17.1571 11.908 17.1633 11.8637 17.1602L11.7942 18.1578C11.9782 18.1706 12.1627 18.1447 12.336 18.0816L11.9941 17.1419ZM12.1058 17.0721C12.0739 17.1029 12.0358 17.1267 11.9941 17.1419L12.336 18.0816C12.5092 18.0186 12.6674 17.9199 12.8001 17.7919L12.1058 17.0721ZM12.1663 16.8771C12.1692 16.9564 12.1404 17.0337 12.0864 17.0919L12.8195 17.7721C13.0536 17.5198 13.1781 17.1849 13.1656 16.8409L12.1663 16.8771ZM12.0816 16.6139C12.1384 16.6768 12.1687 16.7593 12.1662 16.844L13.1657 16.874C13.176 16.5316 13.0536 16.1985 12.8243 15.9441L12.0816 16.6139ZM11.9904 16.5613C12.0307 16.5765 12.0673 16.6002 12.0978 16.6309L12.8081 15.9271C12.6766 15.7943 12.5179 15.6914 12.3429 15.6255L11.9904 16.5613ZM11.8638 16.5428C11.9069 16.5398 11.95 16.5461 11.9904 16.5613L12.3429 15.6255C12.1678 15.5596 11.9807 15.5322 11.7942 15.5452L11.8638 16.5428ZM11.6695 16.5605C11.7086 16.5457 11.7506 16.5396 11.7925 16.5427L11.8655 15.5453C11.6786 15.5316 11.4909 15.5589 11.3155 15.6253L11.6695 16.5605ZM11.5655 16.6286C11.5948 16.5986 11.6303 16.5754 11.6695 16.5605L11.3155 15.6253C11.1402 15.6916 10.9815 15.7954 10.8504 15.9294L11.5655 16.6286Z" fill="black" fill-opacity="0.2"/>
<path d="M17.6852 3.49157L17.4074 3.9073L17.6852 3.49157ZM4.7642 4.76418L5.11775 5.11773L4.7642 4.76418ZM3.49155 17.6852L3.07582 17.9629L3.49155 17.6852ZM8.08402 21.4541L8.27536 20.9921L8.08402 21.4541ZM21.4541 8.084L21.916 7.89266V7.89266L21.4541 8.084ZM12 1L12.0006 0.5H12V1ZM5.88877 2.85384L5.61098 2.4381L5.88877 2.85384ZM23 12H23.5V11.9995L23 12ZM16.2095 22.1627L16.0182 21.7007V21.7007L16.2095 22.1627ZM4.22184 19.7782L4.57539 19.4246H4.57539L4.22184 19.7782ZM1.2114 14.146L1.70179 14.0485L1.2114 14.146ZM1.83732 7.79048L1.37538 7.59914L1.83732 7.79048ZM11.7889 14.441L11.7872 14.941H11.7889V14.441ZM11.5061 14.3787L11.2976 14.8331L11.2976 14.8332L11.5061 14.3787ZM11.835 14.441V14.941H11.8354L11.835 14.441ZM12.278 14.2761L11.9513 13.8975L11.9513 13.8975L12.278 14.2761ZM12.506 13.862L13.0005 13.9356L13.0019 13.9264L13.0029 13.9172L12.506 13.862ZM13.022 12.67L12.6704 12.3145L12.6554 12.3294L12.6417 12.3454L13.022 12.67ZM13.852 11.849L13.514 11.4806L13.5071 11.4869L13.5004 11.4935L13.852 11.849ZM15.0859 9.227L14.5867 9.19965L14.5866 9.20133L15.0859 9.227ZM14.9094 8.08407L14.4417 8.26082V8.26082L14.9094 8.08407ZM14.286 7.11L14.6424 6.75931L14.6301 6.74685L14.617 6.73529L14.286 7.11ZM12.044 6.339L12.0216 6.8385L12.0481 6.83969L12.0745 6.83806L12.044 6.339ZM9.79395 7.096L9.47415 6.71156L9.46801 6.71684L9.79395 7.096ZM9.05097 8.214L8.57507 8.0603L8.5721 8.07018L9.05097 8.214ZM9.03278 8.52771L8.5405 8.61523L8.5405 8.61523L9.03278 8.52771ZM9.15797 8.81592L8.75802 9.11599L8.75802 9.116L9.15797 8.81592ZM9.39967 9.01673L9.17797 9.4649L9.17797 9.4649L9.39967 9.01673ZM9.70594 9.087L9.71663 8.58712L9.7092 8.58696L9.70177 8.58702L9.70594 9.087ZM10.1266 8.95906L9.83938 8.54979L9.83938 8.54979L10.1266 8.95906ZM10.39 8.607L10.8637 8.76694L10.8665 8.75852L10.8691 8.75L10.39 8.607ZM10.796 7.983L10.4796 7.59566L10.4711 7.60291L10.796 7.983ZM12.044 7.572L12.0196 8.07141L12.0488 8.07283L12.078 8.07084L12.044 7.572ZM12.7015 7.66711L12.5276 8.13587L12.5276 8.13587L12.7015 7.66711ZM13.262 8.024L13.6428 7.69996L13.6287 7.68339L13.6132 7.6681L13.262 8.024ZM13.681 9.274L13.1818 9.24492L13.1812 9.25484L13.1811 9.26478L13.681 9.274ZM13.041 10.824L13.399 11.173L13.4017 11.1702L13.041 10.824ZM12.041 11.85L12.3962 12.2019L12.399 12.199L12.041 11.85ZM11.265 13.013L10.8037 12.8201L10.7976 12.8345L10.7925 12.8493L11.265 13.013ZM11.114 13.662L11.6092 13.7315L11.6101 13.7237L11.114 13.662ZM11.1354 13.9508L10.6559 14.0925L10.6559 14.0925L11.1354 13.9508ZM11.2744 14.2049L10.8965 14.5324L10.8965 14.5324L11.2744 14.2049ZM10.999 16.859L11.4978 16.8929L11.4995 16.8682L11.4987 16.8433L10.999 16.859ZM11.208 16.279L10.8504 15.9294L10.8415 15.9386L10.833 15.9482L11.208 16.279ZM11.0476 17.181L10.5811 17.3608L10.5811 17.3608L11.0476 17.181ZM11.2277 17.4523L10.8807 17.8123L10.8807 17.8123L11.2277 17.4523ZM11.5054 17.6222L11.3429 18.0951H11.3429L11.5054 17.6222ZM11.829 17.659L11.8637 17.1602L11.8202 17.1572L11.7767 17.1617L11.829 17.659ZM12.165 17.6118L12.336 18.0816L12.336 18.0816L12.165 17.6118ZM12.4529 17.432L12.8001 17.7919L12.8101 17.7822L12.8195 17.7721L12.4529 17.432ZM12.666 16.859L12.1662 16.844L12.1657 16.8605L12.1663 16.8771L12.666 16.859ZM12.4529 16.279L12.8243 15.9441L12.8164 15.9354L12.8081 15.9271L12.4529 16.279ZM12.1666 16.0934L11.9904 16.5613L11.9904 16.5613L12.1666 16.0934ZM11.829 16.044L11.7925 16.5427L11.8281 16.5453L11.8638 16.5428L11.829 16.044ZM11.4925 16.0929L11.3155 15.6253L11.3155 15.6253L11.4925 16.0929ZM12 2.267C13.925 2.267 15.8068 2.83783 17.4074 3.9073L17.9629 3.07583C16.1979 1.89648 14.1228 1.267 12 1.267V2.267ZM5.11775 5.11773C6.94304 3.29244 9.41868 2.267 12 2.267V1.267C9.15347 1.267 6.42347 2.39779 4.41064 4.41062L5.11775 5.11773ZM2.26701 12C2.26701 9.41865 3.29246 6.94302 5.11775 5.11773L4.41064 4.41062C2.39782 6.42345 1.26701 9.15343 1.26701 12H2.26701ZM3.90729 17.4074C2.83781 15.8068 2.26701 13.925 2.26701 12H1.26701C1.26701 14.1228 1.89646 16.1979 3.07582 17.9629L3.90729 17.4074ZM8.27536 20.9921C6.49689 20.2555 4.97676 19.0079 3.90729 17.4074L3.07582 17.9629C4.25518 19.728 5.93148 21.1036 7.89268 21.916L8.27536 20.9921ZM13.8988 21.546C12.0108 21.9215 10.0538 21.7288 8.27536 20.9921L7.89268 21.916C9.85388 22.7284 12.0119 22.9409 14.0939 22.5268L13.8988 21.546ZM18.8823 18.8823C17.5211 20.2435 15.7868 21.1704 13.8988 21.546L14.0939 22.5268C16.1759 22.1126 18.0883 21.0904 19.5894 19.5894L18.8823 18.8823ZM21.546 13.8988C21.1705 15.7868 20.2435 17.5211 18.8823 18.8823L19.5894 19.5894C21.0904 18.0883 22.1127 16.1759 22.5268 14.0939L21.546 13.8988ZM20.9921 8.27534C21.7288 10.0538 21.9216 12.0108 21.546 13.8988L22.5268 14.0939C22.9409 12.0119 22.7284 9.85386 21.916 7.89266L20.9921 8.27534ZM17.4074 3.9073C19.008 4.97678 20.2555 6.49687 20.9921 8.27534L21.916 7.89266C21.1037 5.93146 19.728 4.25519 17.9629 3.07583L17.4074 3.9073ZM12 0.5C9.72555 0.5 7.50215 1.17447 5.61098 2.4381L6.16656 3.26957C7.89327 2.11582 9.92333 1.5 12 1.5V0.5ZM20.1283 3.87178C17.9724 1.71593 15.0494 0.503321 12.0006 0.5L11.9995 1.5C14.7835 1.50303 17.4526 2.61031 19.4211 4.57889L20.1283 3.87178ZM23.5 11.9995C23.4967 8.95063 22.2841 6.02763 20.1283 3.87178L19.4211 4.57889C21.3897 6.54747 22.497 9.21656 22.5 12.0005L23.5 11.9995ZM21.5619 18.3891C22.8255 16.4979 23.5 14.2745 23.5 12H22.5C22.5 14.0767 21.8842 16.1068 20.7304 17.8335L21.5619 18.3891ZM16.4009 22.6246C18.5022 21.7542 20.2983 20.2802 21.5619 18.3891L20.7304 17.8335C19.5767 19.5602 17.9368 20.906 16.0182 21.7007L16.4009 22.6246ZM9.7565 23.279C11.9873 23.7228 14.2995 23.495 16.4009 22.6246L16.0182 21.7007C14.0995 22.4955 11.9884 22.7034 9.95159 22.2983L9.7565 23.279ZM3.86829 20.1317C5.47659 21.74 7.52572 22.8353 9.7565 23.279L9.95159 22.2983C7.91478 21.8931 6.04384 20.8931 4.57539 19.4246L3.86829 20.1317ZM0.721009 14.2435C1.16474 16.4743 2.25998 18.5234 3.86829 20.1317L4.57539 19.4246C3.10694 17.9562 2.10694 16.0853 1.70179 14.0485L0.721009 14.2435ZM1.37538 7.59914C0.504967 9.7005 0.277281 12.0128 0.721009 14.2435L1.70179 14.0485C1.29665 12.0116 1.50454 9.90044 2.29926 7.98182L1.37538 7.59914ZM5.61098 2.4381C3.71983 3.70173 2.24579 5.49778 1.37538 7.59914L2.29926 7.98182C3.09398 6.06321 4.43983 4.42333 6.16656 3.26957L5.61098 2.4381ZM11.7907 13.941C11.7644 13.9409 11.7385 13.9352 11.7146 13.9242L11.2976 14.8332C11.4512 14.9036 11.6182 14.9404 11.7872 14.941L11.7907 13.941ZM11.835 13.941H11.7889V14.941H11.835V13.941ZM11.9513 13.8975C11.9189 13.9255 11.8774 13.941 11.8345 13.941L11.8354 14.941C12.1178 14.9407 12.3908 14.8391 12.6046 14.6546L11.9513 13.8975ZM12.0114 13.7884C12.0051 13.8307 11.9838 13.8695 11.9513 13.8975L12.6046 14.6546C12.8184 14.4701 12.9589 14.215 13.0005 13.9356L12.0114 13.7884ZM12.6417 12.3454C12.2893 12.7583 12.0689 13.2674 12.009 13.8068L13.0029 13.9172C13.0407 13.5766 13.1799 13.2552 13.4023 12.9946L12.6417 12.3454ZM13.5004 11.4935L12.6704 12.3145L13.3736 13.0255L14.2036 12.2045L13.5004 11.4935ZM14.5866 9.20133C14.5418 10.0724 14.1566 10.8909 13.514 11.4806L14.19 12.2174C15.026 11.4504 15.527 10.3857 15.5853 9.25268L14.5866 9.20133ZM14.4417 8.26082C14.5548 8.56025 14.6042 8.88001 14.5867 9.19965L15.5852 9.25435C15.6103 8.79576 15.5394 8.33697 15.3771 7.90732L14.4417 8.26082ZM13.9296 7.46069C14.1541 7.68885 14.3285 7.96138 14.4417 8.26082L15.3771 7.90732C15.2147 7.47769 14.9645 7.08668 14.6424 6.75931L13.9296 7.46069ZM12.0745 6.83806C12.7622 6.79594 13.4386 7.02852 13.9549 7.48471L14.617 6.73529C13.9021 6.10364 12.9656 5.78162 12.0134 5.83993L12.0745 6.83806ZM10.1137 7.48038C10.6475 7.0363 11.3279 6.80741 12.0216 6.8385L12.0663 5.8395C11.1238 5.79726 10.1995 6.10824 9.47419 6.71161L10.1137 7.48038ZM9.52677 8.36766C9.63865 8.02126 9.84387 7.71244 10.1199 7.47515L9.46801 6.71684C9.05249 7.07404 8.74357 7.53893 8.57517 8.06033L9.52677 8.36766ZM9.52506 8.44018C9.52018 8.41274 9.52182 8.38453 9.52984 8.35782L8.5721 8.07018C8.51903 8.24687 8.50821 8.43357 8.5405 8.61523L9.52506 8.44018ZM9.55791 8.51585C9.54122 8.4936 9.52995 8.46769 9.52506 8.44018L8.5405 8.61523C8.57279 8.79682 8.64725 8.96836 8.75802 9.11599L9.55791 8.51585ZM9.62137 8.56857C9.59639 8.55622 9.57465 8.53816 9.55791 8.51585L8.75802 9.116C8.86874 9.26356 9.01258 9.38308 9.17797 9.4649L9.62137 8.56857ZM9.70177 8.58702C9.67389 8.58725 9.64635 8.58093 9.62136 8.56857L9.17797 9.4649C9.34334 9.5467 9.52562 9.58852 9.71011 9.58698L9.70177 8.58702ZM9.83938 8.54979C9.8035 8.57497 9.76049 8.58805 9.71663 8.58712L9.69525 9.58689C9.95191 9.59237 10.2037 9.51582 10.4138 9.36834L9.83938 8.54979ZM9.91623 8.44706C9.90221 8.4886 9.87528 8.52459 9.83938 8.54979L10.4138 9.36834C10.6239 9.22087 10.7816 9.01019 10.8637 8.76694L9.91623 8.44706ZM10.4711 7.60291C10.2054 7.83003 10.0108 8.12902 9.91085 8.46399L10.8691 8.75C10.914 8.5995 11.0014 8.46514 11.1208 8.36309L10.4711 7.60291ZM12.0683 7.07259C11.4923 7.04456 10.9263 7.23094 10.4797 7.59576L11.1123 8.37023C11.3674 8.16185 11.6906 8.0554 12.0196 8.07141L12.0683 7.07259ZM12.8755 7.19835C12.5991 7.09578 12.3041 7.05311 12.0099 7.07316L12.078 8.07084C12.2308 8.06043 12.384 8.0826 12.5276 8.13587L12.8755 7.19835ZM13.6132 7.6681C13.4033 7.46103 13.1519 7.30091 12.8755 7.19835L12.5276 8.13587C12.6712 8.18915 12.8018 8.27233 12.9108 8.37989L13.6132 7.6681ZM14.1801 9.30307C14.2141 8.71944 14.0216 8.1452 13.6428 7.69996L12.8812 8.34803C13.0931 8.59713 13.2008 8.9184 13.1818 9.24492L14.1801 9.30307ZM13.4017 11.1702C13.8897 10.6617 14.1679 9.98784 14.1809 9.28321L13.1811 9.26478C13.1727 9.71775 12.9938 10.1509 12.6802 10.4778L13.4017 11.1702ZM12.399 12.199L13.399 11.173L12.6829 10.475L11.6829 11.501L12.399 12.199ZM11.7263 13.2059C11.8829 12.8312 12.1103 12.4904 12.3961 12.2019L11.6858 11.4981C11.3094 11.8779 11.0099 12.3268 10.8037 12.8201L11.7263 13.2059ZM11.6101 13.7237C11.6333 13.5374 11.6759 13.3541 11.7374 13.1767L10.7925 12.8493C10.7081 13.0928 10.6496 13.3446 10.6178 13.6003L11.6101 13.7237ZM11.6149 13.8091C11.6074 13.7839 11.6055 13.7574 11.6091 13.7314L10.6188 13.5926C10.5953 13.76 10.608 13.9305 10.6559 14.0925L11.6149 13.8091ZM11.6523 13.8775C11.6351 13.8576 11.6223 13.8343 11.6149 13.8091L10.6559 14.0925C10.7038 14.2547 10.7859 14.4046 10.8965 14.5324L11.6523 13.8775ZM11.7146 13.9242C11.6908 13.9133 11.6695 13.8974 11.6523 13.8775L10.8965 14.5324C11.0072 14.6601 11.1439 14.7627 11.2976 14.8331L11.7146 13.9242ZM11.4987 16.8433C11.496 16.7576 11.5261 16.6741 11.5829 16.6098L10.833 15.9482C10.6079 16.2033 10.4886 16.5346 10.4992 16.8746L11.4987 16.8433ZM11.5142 17.0011C11.5009 16.9667 11.4953 16.9298 11.4978 16.8929L10.5001 16.825C10.4877 17.0074 10.5153 17.1902 10.5811 17.3608L11.5142 17.0011ZM11.5747 17.0923C11.5481 17.0667 11.5274 17.0355 11.5142 17.0011L10.5811 17.3608C10.6468 17.5314 10.7491 17.6855 10.8807 17.8123L11.5747 17.0923ZM11.668 17.1494C11.6331 17.1374 11.6012 17.1179 11.5747 17.0923L10.8807 17.8123C11.0123 17.9391 11.1701 18.0357 11.3429 18.0951L11.668 17.1494ZM11.7767 17.1617C11.74 17.1656 11.7029 17.1614 11.668 17.1494L11.3429 18.0951C11.5157 18.1545 11.6995 18.1754 11.8813 18.1563L11.7767 17.1617ZM11.9941 17.1419C11.9524 17.1571 11.908 17.1633 11.8637 17.1602L11.7942 18.1578C11.9782 18.1706 12.1627 18.1447 12.336 18.0816L11.9941 17.1419ZM12.1058 17.0721C12.0739 17.1029 12.0358 17.1267 11.9941 17.1419L12.336 18.0816C12.5092 18.0186 12.6674 17.9199 12.8001 17.7919L12.1058 17.0721ZM12.1663 16.8771C12.1692 16.9564 12.1404 17.0337 12.0864 17.0919L12.8195 17.7721C13.0536 17.5198 13.1781 17.1849 13.1656 16.8409L12.1663 16.8771ZM12.0816 16.6139C12.1384 16.6768 12.1687 16.7593 12.1662 16.844L13.1657 16.874C13.176 16.5316 13.0536 16.1985 12.8243 15.9441L12.0816 16.6139ZM11.9904 16.5613C12.0307 16.5765 12.0673 16.6002 12.0978 16.6309L12.8081 15.9271C12.6766 15.7943 12.5179 15.6914 12.3429 15.6255L11.9904 16.5613ZM11.8638 16.5428C11.9069 16.5398 11.95 16.5461 11.9904 16.5613L12.3429 15.6255C12.1678 15.5596 11.9807 15.5322 11.7942 15.5452L11.8638 16.5428ZM11.6695 16.5605C11.7086 16.5457 11.7506 16.5396 11.7925 16.5427L11.8655 15.5453C11.6786 15.5316 11.4909 15.5589 11.3155 15.6253L11.6695 16.5605ZM11.5655 16.6286C11.5948 16.5986 11.6303 16.5754 11.6695 16.5605L11.3155 15.6253C11.1402 15.6916 10.9815 15.7954 10.8504 15.9294L11.5655 16.6286Z" fill="black" fill-opacity="0.2"/>
</g>
<defs>
<clipPath id="clip0_243_38">
<rect width="24" height="24" fill="white"/>
</clipPath>
</defs>
</svg>
