<svg width="24" height="24" viewBox="0 0 24 24" fill="none" xmlns="http://www.w3.org/2000/svg">
<path d="M7.67114 11.4345L11.209 14.9723L23 3.18024" stroke="black" stroke-width="1.5" stroke-linecap="round" stroke-linejoin="round"/>
<path d="M7.67114 11.4345L11.209 14.9723L23 3.18024" stroke="black" stroke-opacity="0.2" stroke-width="1.5" stroke-linecap="round" stroke-linejoin="round"/>
<path d="M7.67114 11.4345L11.209 14.9723L23 3.18024" stroke="black" stroke-opacity="0.2" stroke-width="1.5" stroke-linecap="round" stroke-linejoin="round"/>
<path d="M7.67114 11.4345L11.209 14.9723L23 3.18024" stroke="black" stroke-opacity="0.2" stroke-width="1.5" stroke-linecap="round" stroke-linejoin="round"/>
<path d="M7.67114 11.4345L11.209 14.9723L23 3.18024" stroke="black" stroke-opacity="0.2" stroke-width="1.5" stroke-linecap="round" stroke-linejoin="round"/>
<path d="M7.67114 11.4345L11.209 14.9723L23 3.18024" stroke="black" stroke-opacity="0.2" stroke-width="1.5" stroke-linecap="round" stroke-linejoin="round"/>
<path d="M7.67114 11.4345L11.209 14.9723L23 3.18024" stroke="black" stroke-opacity="0.2" stroke-width="1.5" stroke-linecap="round" stroke-linejoin="round"/>
<path d="M7.67114 11.4345L11.209 14.9723L23 3.18024" stroke="black" stroke-opacity="0.2" stroke-width="1.5" stroke-linecap="round" stroke-linejoin="round"/>
<path d="M7.67114 11.4345L11.209 14.9723L23 3.18024" stroke="black" stroke-opacity="0.2" stroke-width="1.5" stroke-linecap="round" stroke-linejoin="round"/>
<path d="M7.67114 11.4345L11.209 14.9723L23 3.18024" stroke="black" stroke-opacity="0.2" stroke-width="1.5" stroke-linecap="round" stroke-linejoin="round"/>
<path d="M21.8205 12.4207V20.5262C21.8208 20.8302 21.7612 21.1313 21.6451 21.4122C21.529 21.6932 21.3586 21.9485 21.1438 22.1636C20.929 22.3787 20.6739 22.5494 20.3931 22.6659C20.1123 22.7823 19.8114 22.8424 19.5074 22.8425H3.31316C3.00917 22.8424 2.70818 22.7823 2.42739 22.6659C2.1466 22.5494 1.89151 22.3787 1.6767 22.1636C1.46189 21.9485 1.29157 21.6932 1.17546 21.4122C1.05935 21.1313 0.999726 20.8302 1 20.5262V4.3163C0.999726 4.01231 1.05935 3.71124 1.17546 3.43029C1.29157 3.14935 1.46189 2.89403 1.6767 2.67893C1.89151 2.46382 2.1466 2.29315 2.42739 2.17666C2.70818 2.06017 3.00917 2.00014 3.31316 2H16.0376" stroke="black" stroke-width="1.5" stroke-linecap="round" stroke-linejoin="round"/>
<path d="M21.8205 12.4207V20.5262C21.8208 20.8302 21.7612 21.1313 21.6451 21.4122C21.529 21.6932 21.3586 21.9485 21.1438 22.1636C20.929 22.3787 20.6739 22.5494 20.3931 22.6659C20.1123 22.7823 19.8114 22.8424 19.5074 22.8425H3.31316C3.00917 22.8424 2.70818 22.7823 2.42739 22.6659C2.1466 22.5494 1.89151 22.3787 1.6767 22.1636C1.46189 21.9485 1.29157 21.6932 1.17546 21.4122C1.05935 21.1313 0.999726 20.8302 1 20.5262V4.3163C0.999726 4.01231 1.05935 3.71124 1.17546 3.43029C1.29157 3.14935 1.46189 2.89403 1.6767 2.67893C1.89151 2.46382 2.1466 2.29315 2.42739 2.17666C2.70818 2.06017 3.00917 2.00014 3.31316 2H16.0376" stroke="black" stroke-opacity="0.2" stroke-width="1.5" stroke-linecap="round" stroke-linejoin="round"/>
<path d="M21.8205 12.4207V20.5262C21.8208 20.8302 21.7612 21.1313 21.6451 21.4122C21.529 21.6932 21.3586 21.9485 21.1438 22.1636C20.929 22.3787 20.6739 22.5494 20.3931 22.6659C20.1123 22.7823 19.8114 22.8424 19.5074 22.8425H3.31316C3.00917 22.8424 2.70818 22.7823 2.42739 22.6659C2.1466 22.5494 1.89151 22.3787 1.6767 22.1636C1.46189 21.9485 1.29157 21.6932 1.17546 21.4122C1.05935 21.1313 0.999726 20.8302 1 20.5262V4.3163C0.999726 4.01231 1.05935 3.71124 1.17546 3.43029C1.29157 3.14935 1.46189 2.89403 1.6767 2.67893C1.89151 2.46382 2.1466 2.29315 2.42739 2.17666C2.70818 2.06017 3.00917 2.00014 3.31316 2H16.0376" stroke="black" stroke-opacity="0.2" stroke-width="1.5" stroke-linecap="round" stroke-linejoin="round"/>
<path d="M21.8205 12.4207V20.5262C21.8208 20.8302 21.7612 21.1313 21.6451 21.4122C21.529 21.6932 21.3586 21.9485 21.1438 22.1636C20.929 22.3787 20.6739 22.5494 20.3931 22.6659C20.1123 22.7823 19.8114 22.8424 19.5074 22.8425H3.31316C3.00917 22.8424 2.70818 22.7823 2.42739 22.6659C2.1466 22.5494 1.89151 22.3787 1.6767 22.1636C1.46189 21.9485 1.29157 21.6932 1.17546 21.4122C1.05935 21.1313 0.999726 20.8302 1 20.5262V4.3163C0.999726 4.01231 1.05935 3.71124 1.17546 3.43029C1.29157 3.14935 1.46189 2.89403 1.6767 2.67893C1.89151 2.46382 2.1466 2.29315 2.42739 2.17666C2.70818 2.06017 3.00917 2.00014 3.31316 2H16.0376" stroke="black" stroke-opacity="0.2" stroke-width="1.5" stroke-linecap="round" stroke-linejoin="round"/>
<path d="M21.8205 12.4207V20.5262C21.8208 20.8302 21.7612 21.1313 21.6451 21.4122C21.529 21.6932 21.3586 21.9485 21.1438 22.1636C20.929 22.3787 20.6739 22.5494 20.3931 22.6659C20.1123 22.7823 19.8114 22.8424 19.5074 22.8425H3.31316C3.00917 22.8424 2.70818 22.7823 2.42739 22.6659C2.1466 22.5494 1.89151 22.3787 1.6767 22.1636C1.46189 21.9485 1.29157 21.6932 1.17546 21.4122C1.05935 21.1313 0.999726 20.8302 1 20.5262V4.3163C0.999726 4.01231 1.05935 3.71124 1.17546 3.43029C1.29157 3.14935 1.46189 2.89403 1.6767 2.67893C1.89151 2.46382 2.1466 2.29315 2.42739 2.17666C2.70818 2.06017 3.00917 2.00014 3.31316 2H16.0376" stroke="black" stroke-opacity="0.2" stroke-width="1.5" stroke-linecap="round" stroke-linejoin="round"/>
<path d="M21.8205 12.4207V20.5262C21.8208 20.8302 21.7612 21.1313 21.6451 21.4122C21.529 21.6932 21.3586 21.9485 21.1438 22.1636C20.929 22.3787 20.6739 22.5494 20.3931 22.6659C20.1123 22.7823 19.8114 22.8424 19.5074 22.8425H3.31316C3.00917 22.8424 2.70818 22.7823 2.42739 22.6659C2.1466 22.5494 1.89151 22.3787 1.6767 22.1636C1.46189 21.9485 1.29157 21.6932 1.17546 21.4122C1.05935 21.1313 0.999726 20.8302 1 20.5262V4.3163C0.999726 4.01231 1.05935 3.71124 1.17546 3.43029C1.29157 3.14935 1.46189 2.89403 1.6767 2.67893C1.89151 2.46382 2.1466 2.29315 2.42739 2.17666C2.70818 2.06017 3.00917 2.00014 3.31316 2H16.0376" stroke="black" stroke-opacity="0.2" stroke-width="1.5" stroke-linecap="round" stroke-linejoin="round"/>
<path d="M21.8205 12.4207V20.5262C21.8208 20.8302 21.7612 21.1313 21.6451 21.4122C21.529 21.6932 21.3586 21.9485 21.1438 22.1636C20.929 22.3787 20.6739 22.5494 20.3931 22.6659C20.1123 22.7823 19.8114 22.8424 19.5074 22.8425H3.31316C3.00917 22.8424 2.70818 22.7823 2.42739 22.6659C2.1466 22.5494 1.89151 22.3787 1.6767 22.1636C1.46189 21.9485 1.29157 21.6932 1.17546 21.4122C1.05935 21.1313 0.999726 20.8302 1 20.5262V4.3163C0.999726 4.01231 1.05935 3.71124 1.17546 3.43029C1.29157 3.14935 1.46189 2.89403 1.6767 2.67893C1.89151 2.46382 2.1466 2.29315 2.42739 2.17666C2.70818 2.06017 3.00917 2.00014 3.31316 2H16.0376" stroke="black" stroke-opacity="0.2" stroke-width="1.5" stroke-linecap="round" stroke-linejoin="round"/>
<path d="M21.8205 12.4207V20.5262C21.8208 20.8302 21.7612 21.1313 21.6451 21.4122C21.529 21.6932 21.3586 21.9485 21.1438 22.1636C20.929 22.3787 20.6739 22.5494 20.3931 22.6659C20.1123 22.7823 19.8114 22.8424 19.5074 22.8425H3.31316C3.00917 22.8424 2.70818 22.7823 2.42739 22.6659C2.1466 22.5494 1.89151 22.3787 1.6767 22.1636C1.46189 21.9485 1.29157 21.6932 1.17546 21.4122C1.05935 21.1313 0.999726 20.8302 1 20.5262V4.3163C0.999726 4.01231 1.05935 3.71124 1.17546 3.43029C1.29157 3.14935 1.46189 2.89403 1.6767 2.67893C1.89151 2.46382 2.1466 2.29315 2.42739 2.17666C2.70818 2.06017 3.00917 2.00014 3.31316 2H16.0376" stroke="black" stroke-opacity="0.2" stroke-width="1.5" stroke-linecap="round" stroke-linejoin="round"/>
<path d="M21.8205 12.4207V20.5262C21.8208 20.8302 21.7612 21.1313 21.6451 21.4122C21.529 21.6932 21.3586 21.9485 21.1438 22.1636C20.929 22.3787 20.6739 22.5494 20.3931 22.6659C20.1123 22.7823 19.8114 22.8424 19.5074 22.8425H3.31316C3.00917 22.8424 2.70818 22.7823 2.42739 22.6659C2.1466 22.5494 1.89151 22.3787 1.6767 22.1636C1.46189 21.9485 1.29157 21.6932 1.17546 21.4122C1.05935 21.1313 0.999726 20.8302 1 20.5262V4.3163C0.999726 4.01231 1.05935 3.71124 1.17546 3.43029C1.29157 3.14935 1.46189 2.89403 1.6767 2.67893C1.89151 2.46382 2.1466 2.29315 2.42739 2.17666C2.70818 2.06017 3.00917 2.00014 3.31316 2H16.0376" stroke="black" stroke-opacity="0.2" stroke-width="1.5" stroke-linecap="round" stroke-linejoin="round"/>
<path d="M21.8205 12.4207V20.5262C21.8208 20.8302 21.7612 21.1313 21.6451 21.4122C21.529 21.6932 21.3586 21.9485 21.1438 22.1636C20.929 22.3787 20.6739 22.5494 20.3931 22.6659C20.1123 22.7823 19.8114 22.8424 19.5074 22.8425H3.31316C3.00917 22.8424 2.70818 22.7823 2.42739 22.6659C2.1466 22.5494 1.89151 22.3787 1.6767 22.1636C1.46189 21.9485 1.29157 21.6932 1.17546 21.4122C1.05935 21.1313 0.999726 20.8302 1 20.5262V4.3163C0.999726 4.01231 1.05935 3.71124 1.17546 3.43029C1.29157 3.14935 1.46189 2.89403 1.6767 2.67893C1.89151 2.46382 2.1466 2.29315 2.42739 2.17666C2.70818 2.06017 3.00917 2.00014 3.31316 2H16.0376" stroke="black" stroke-opacity="0.2" stroke-width="1.5" stroke-linecap="round" stroke-linejoin="round"/>
</svg>
