<svg width="24" height="24" viewBox="0 0 24 24" fill="none" xmlns="http://www.w3.org/2000/svg">
<path d="M2 20.8441C2.00033 21.4157 2.23746 21.9639 2.65929 22.3682C3.08111 22.7724 3.65313 22.9997 4.24968 23H20.7503C21.3469 22.9997 21.9189 22.7724 22.3407 22.3682C22.7625 21.9639 22.9997 21.4157 23 20.8441V8.625H2V20.8441ZM17 12.0387C17.0007 11.896 17.0601 11.7594 17.1654 11.6585C17.2706 11.5576 17.4132 11.5006 17.5621 11.5H19.4316C19.5805 11.5006 19.723 11.5576 19.8283 11.6585C19.9336 11.7594 19.993 11.896 19.9937 12.0387V13.8363C19.993 13.979 19.9336 14.1156 19.8283 14.2165C19.723 14.3174 19.5805 14.3744 19.4316 14.375H17.5621C17.4132 14.3744 17.2706 14.3174 17.1654 14.2165C17.0601 14.1156 17.0007 13.979 17 13.8363V12.0387ZM17 17.7887C17.0007 17.646 17.0601 17.5094 17.1654 17.4085C17.2706 17.3076 17.4132 17.2506 17.5621 17.25H19.4316C19.5805 17.2506 19.723 17.3076 19.8283 17.4085C19.9336 17.5094 19.993 17.646 19.9937 17.7887V19.5863C19.993 19.729 19.9336 19.8656 19.8283 19.9665C19.723 20.0674 19.5805 20.1244 19.4316 20.125H17.5621C17.4132 20.1244 17.2706 20.0674 17.1654 19.9665C17.0601 19.8656 17.0007 19.729 17 19.5863V17.7887ZM11 12.0387C11.0007 11.896 11.0601 11.7594 11.1654 11.6585C11.2706 11.5576 11.4132 11.5006 11.5621 11.5H13.4379C13.5868 11.5006 13.7294 11.5576 13.8346 11.6585C13.9399 11.7594 13.9993 11.896 14 12.0387V13.8363C13.9993 13.979 13.9399 14.1156 13.8346 14.2165C13.7294 14.3174 13.5868 14.3744 13.4379 14.375H11.5621C11.4132 14.3744 11.2706 14.3174 11.1654 14.2165C11.0601 14.1156 11.0007 13.979 11 13.8363V12.0387ZM11 17.7887C11.0007 17.646 11.0601 17.5094 11.1654 17.4085C11.2706 17.3076 11.4132 17.2506 11.5621 17.25H13.4379C13.5121 17.2503 13.5856 17.2647 13.6541 17.2922C13.7225 17.3198 13.7846 17.36 13.8369 17.4106C13.8891 17.4612 13.9304 17.5212 13.9584 17.5871C13.9863 17.653 14.0005 17.7236 14 17.7947V19.5863C13.9993 19.729 13.9399 19.8656 13.8346 19.9665C13.7294 20.0674 13.5868 20.1244 13.4379 20.125H11.5621C11.4132 20.1244 11.2706 20.0674 11.1654 19.9665C11.0601 19.8656 11.0007 19.729 11 19.5863V17.7887ZM5 12.0387C5.00066 11.896 5.0601 11.7594 5.16537 11.6585C5.27064 11.5576 5.41323 11.5006 5.5621 11.5H7.43158C7.58045 11.5006 7.72304 11.5576 7.82831 11.6585C7.93358 11.7594 7.99302 11.896 7.99368 12.0387V13.8363C7.99302 13.979 7.93358 14.1156 7.82831 14.2165C7.72304 14.3174 7.58045 14.3744 7.43158 14.375H5.5621C5.41323 14.3744 5.27064 14.3174 5.16537 14.2165C5.0601 14.1156 5.00066 13.979 5 13.8363V12.0387ZM5 17.7887C5.00066 17.646 5.0601 17.5094 5.16537 17.4085C5.27064 17.3076 5.41323 17.2506 5.5621 17.25H7.43158C7.58045 17.2506 7.72304 17.3076 7.82831 17.4085C7.93358 17.5094 7.99302 17.646 7.99368 17.7887V19.5863C7.99302 19.729 7.93358 19.8656 7.82831 19.9665C7.72304 20.0674 7.58045 20.1244 7.43158 20.125H5.5621C5.41323 20.1244 5.27064 20.0674 5.16537 19.9665C5.0601 19.8656 5.00066 19.729 5 19.5863V17.7887ZM20.7503 2.875H18.5006V0.719053C18.4987 0.528934 18.419 0.347138 18.2787 0.212697C18.1384 0.0782564 17.9487 0.00189186 17.7503 0L16.2497 0C16.0513 0.00189186 15.8616 0.0782564 15.7213 0.212697C15.581 0.347138 15.5013 0.528934 15.4994 0.719053V2.875H9.50063V0.719053C9.49866 0.528934 9.41897 0.347138 9.27869 0.212697C9.1384 0.0782564 8.9487 0.00189186 8.75032 0L7.24968 0C7.0513 0.00189186 6.8616 0.0782564 6.72131 0.212697C6.58103 0.347138 6.50134 0.528934 6.49937 0.719053V2.875H4.24968C3.65313 2.87532 3.08111 3.10257 2.65929 3.50682C2.23746 3.91107 2.00033 4.45925 2 5.03095V7.18811H23V5.03095C22.9997 4.45925 22.7625 3.91107 22.3407 3.50682C21.9189 3.10257 21.3469 2.87532 20.7503 2.875Z" fill="black"/>
<path d="M2 20.8441C2.00033 21.4157 2.23746 21.9639 2.65929 22.3682C3.08111 22.7724 3.65313 22.9997 4.24968 23H20.7503C21.3469 22.9997 21.9189 22.7724 22.3407 22.3682C22.7625 21.9639 22.9997 21.4157 23 20.8441V8.625H2V20.8441ZM17 12.0387C17.0007 11.896 17.0601 11.7594 17.1654 11.6585C17.2706 11.5576 17.4132 11.5006 17.5621 11.5H19.4316C19.5805 11.5006 19.723 11.5576 19.8283 11.6585C19.9336 11.7594 19.993 11.896 19.9937 12.0387V13.8363C19.993 13.979 19.9336 14.1156 19.8283 14.2165C19.723 14.3174 19.5805 14.3744 19.4316 14.375H17.5621C17.4132 14.3744 17.2706 14.3174 17.1654 14.2165C17.0601 14.1156 17.0007 13.979 17 13.8363V12.0387ZM17 17.7887C17.0007 17.646 17.0601 17.5094 17.1654 17.4085C17.2706 17.3076 17.4132 17.2506 17.5621 17.25H19.4316C19.5805 17.2506 19.723 17.3076 19.8283 17.4085C19.9336 17.5094 19.993 17.646 19.9937 17.7887V19.5863C19.993 19.729 19.9336 19.8656 19.8283 19.9665C19.723 20.0674 19.5805 20.1244 19.4316 20.125H17.5621C17.4132 20.1244 17.2706 20.0674 17.1654 19.9665C17.0601 19.8656 17.0007 19.729 17 19.5863V17.7887ZM11 12.0387C11.0007 11.896 11.0601 11.7594 11.1654 11.6585C11.2706 11.5576 11.4132 11.5006 11.5621 11.5H13.4379C13.5868 11.5006 13.7294 11.5576 13.8346 11.6585C13.9399 11.7594 13.9993 11.896 14 12.0387V13.8363C13.9993 13.979 13.9399 14.1156 13.8346 14.2165C13.7294 14.3174 13.5868 14.3744 13.4379 14.375H11.5621C11.4132 14.3744 11.2706 14.3174 11.1654 14.2165C11.0601 14.1156 11.0007 13.979 11 13.8363V12.0387ZM11 17.7887C11.0007 17.646 11.0601 17.5094 11.1654 17.4085C11.2706 17.3076 11.4132 17.2506 11.5621 17.25H13.4379C13.5121 17.2503 13.5856 17.2647 13.6541 17.2922C13.7225 17.3198 13.7846 17.36 13.8369 17.4106C13.8891 17.4612 13.9304 17.5212 13.9584 17.5871C13.9863 17.653 14.0005 17.7236 14 17.7947V19.5863C13.9993 19.729 13.9399 19.8656 13.8346 19.9665C13.7294 20.0674 13.5868 20.1244 13.4379 20.125H11.5621C11.4132 20.1244 11.2706 20.0674 11.1654 19.9665C11.0601 19.8656 11.0007 19.729 11 19.5863V17.7887ZM5 12.0387C5.00066 11.896 5.0601 11.7594 5.16537 11.6585C5.27064 11.5576 5.41323 11.5006 5.5621 11.5H7.43158C7.58045 11.5006 7.72304 11.5576 7.82831 11.6585C7.93358 11.7594 7.99302 11.896 7.99368 12.0387V13.8363C7.99302 13.979 7.93358 14.1156 7.82831 14.2165C7.72304 14.3174 7.58045 14.3744 7.43158 14.375H5.5621C5.41323 14.3744 5.27064 14.3174 5.16537 14.2165C5.0601 14.1156 5.00066 13.979 5 13.8363V12.0387ZM5 17.7887C5.00066 17.646 5.0601 17.5094 5.16537 17.4085C5.27064 17.3076 5.41323 17.2506 5.5621 17.25H7.43158C7.58045 17.2506 7.72304 17.3076 7.82831 17.4085C7.93358 17.5094 7.99302 17.646 7.99368 17.7887V19.5863C7.99302 19.729 7.93358 19.8656 7.82831 19.9665C7.72304 20.0674 7.58045 20.1244 7.43158 20.125H5.5621C5.41323 20.1244 5.27064 20.0674 5.16537 19.9665C5.0601 19.8656 5.00066 19.729 5 19.5863V17.7887ZM20.7503 2.875H18.5006V0.719053C18.4987 0.528934 18.419 0.347138 18.2787 0.212697C18.1384 0.0782564 17.9487 0.00189186 17.7503 0L16.2497 0C16.0513 0.00189186 15.8616 0.0782564 15.7213 0.212697C15.581 0.347138 15.5013 0.528934 15.4994 0.719053V2.875H9.50063V0.719053C9.49866 0.528934 9.41897 0.347138 9.27869 0.212697C9.1384 0.0782564 8.9487 0.00189186 8.75032 0L7.24968 0C7.0513 0.00189186 6.8616 0.0782564 6.72131 0.212697C6.58103 0.347138 6.50134 0.528934 6.49937 0.719053V2.875H4.24968C3.65313 2.87532 3.08111 3.10257 2.65929 3.50682C2.23746 3.91107 2.00033 4.45925 2 5.03095V7.18811H23V5.03095C22.9997 4.45925 22.7625 3.91107 22.3407 3.50682C21.9189 3.10257 21.3469 2.87532 20.7503 2.875Z" fill="black" fill-opacity="0.2"/>
<path d="M2 20.8441C2.00033 21.4157 2.23746 21.9639 2.65929 22.3682C3.08111 22.7724 3.65313 22.9997 4.24968 23H20.7503C21.3469 22.9997 21.9189 22.7724 22.3407 22.3682C22.7625 21.9639 22.9997 21.4157 23 20.8441V8.625H2V20.8441ZM17 12.0387C17.0007 11.896 17.0601 11.7594 17.1654 11.6585C17.2706 11.5576 17.4132 11.5006 17.5621 11.5H19.4316C19.5805 11.5006 19.723 11.5576 19.8283 11.6585C19.9336 11.7594 19.993 11.896 19.9937 12.0387V13.8363C19.993 13.979 19.9336 14.1156 19.8283 14.2165C19.723 14.3174 19.5805 14.3744 19.4316 14.375H17.5621C17.4132 14.3744 17.2706 14.3174 17.1654 14.2165C17.0601 14.1156 17.0007 13.979 17 13.8363V12.0387ZM17 17.7887C17.0007 17.646 17.0601 17.5094 17.1654 17.4085C17.2706 17.3076 17.4132 17.2506 17.5621 17.25H19.4316C19.5805 17.2506 19.723 17.3076 19.8283 17.4085C19.9336 17.5094 19.993 17.646 19.9937 17.7887V19.5863C19.993 19.729 19.9336 19.8656 19.8283 19.9665C19.723 20.0674 19.5805 20.1244 19.4316 20.125H17.5621C17.4132 20.1244 17.2706 20.0674 17.1654 19.9665C17.0601 19.8656 17.0007 19.729 17 19.5863V17.7887ZM11 12.0387C11.0007 11.896 11.0601 11.7594 11.1654 11.6585C11.2706 11.5576 11.4132 11.5006 11.5621 11.5H13.4379C13.5868 11.5006 13.7294 11.5576 13.8346 11.6585C13.9399 11.7594 13.9993 11.896 14 12.0387V13.8363C13.9993 13.979 13.9399 14.1156 13.8346 14.2165C13.7294 14.3174 13.5868 14.3744 13.4379 14.375H11.5621C11.4132 14.3744 11.2706 14.3174 11.1654 14.2165C11.0601 14.1156 11.0007 13.979 11 13.8363V12.0387ZM11 17.7887C11.0007 17.646 11.0601 17.5094 11.1654 17.4085C11.2706 17.3076 11.4132 17.2506 11.5621 17.25H13.4379C13.5121 17.2503 13.5856 17.2647 13.6541 17.2922C13.7225 17.3198 13.7846 17.36 13.8369 17.4106C13.8891 17.4612 13.9304 17.5212 13.9584 17.5871C13.9863 17.653 14.0005 17.7236 14 17.7947V19.5863C13.9993 19.729 13.9399 19.8656 13.8346 19.9665C13.7294 20.0674 13.5868 20.1244 13.4379 20.125H11.5621C11.4132 20.1244 11.2706 20.0674 11.1654 19.9665C11.0601 19.8656 11.0007 19.729 11 19.5863V17.7887ZM5 12.0387C5.00066 11.896 5.0601 11.7594 5.16537 11.6585C5.27064 11.5576 5.41323 11.5006 5.5621 11.5H7.43158C7.58045 11.5006 7.72304 11.5576 7.82831 11.6585C7.93358 11.7594 7.99302 11.896 7.99368 12.0387V13.8363C7.99302 13.979 7.93358 14.1156 7.82831 14.2165C7.72304 14.3174 7.58045 14.3744 7.43158 14.375H5.5621C5.41323 14.3744 5.27064 14.3174 5.16537 14.2165C5.0601 14.1156 5.00066 13.979 5 13.8363V12.0387ZM5 17.7887C5.00066 17.646 5.0601 17.5094 5.16537 17.4085C5.27064 17.3076 5.41323 17.2506 5.5621 17.25H7.43158C7.58045 17.2506 7.72304 17.3076 7.82831 17.4085C7.93358 17.5094 7.99302 17.646 7.99368 17.7887V19.5863C7.99302 19.729 7.93358 19.8656 7.82831 19.9665C7.72304 20.0674 7.58045 20.1244 7.43158 20.125H5.5621C5.41323 20.1244 5.27064 20.0674 5.16537 19.9665C5.0601 19.8656 5.00066 19.729 5 19.5863V17.7887ZM20.7503 2.875H18.5006V0.719053C18.4987 0.528934 18.419 0.347138 18.2787 0.212697C18.1384 0.0782564 17.9487 0.00189186 17.7503 0L16.2497 0C16.0513 0.00189186 15.8616 0.0782564 15.7213 0.212697C15.581 0.347138 15.5013 0.528934 15.4994 0.719053V2.875H9.50063V0.719053C9.49866 0.528934 9.41897 0.347138 9.27869 0.212697C9.1384 0.0782564 8.9487 0.00189186 8.75032 0L7.24968 0C7.0513 0.00189186 6.8616 0.0782564 6.72131 0.212697C6.58103 0.347138 6.50134 0.528934 6.49937 0.719053V2.875H4.24968C3.65313 2.87532 3.08111 3.10257 2.65929 3.50682C2.23746 3.91107 2.00033 4.45925 2 5.03095V7.18811H23V5.03095C22.9997 4.45925 22.7625 3.91107 22.3407 3.50682C21.9189 3.10257 21.3469 2.87532 20.7503 2.875Z" fill="black" fill-opacity="0.2"/>
<path d="M2 20.8441C2.00033 21.4157 2.23746 21.9639 2.65929 22.3682C3.08111 22.7724 3.65313 22.9997 4.24968 23H20.7503C21.3469 22.9997 21.9189 22.7724 22.3407 22.3682C22.7625 21.9639 22.9997 21.4157 23 20.8441V8.625H2V20.8441ZM17 12.0387C17.0007 11.896 17.0601 11.7594 17.1654 11.6585C17.2706 11.5576 17.4132 11.5006 17.5621 11.5H19.4316C19.5805 11.5006 19.723 11.5576 19.8283 11.6585C19.9336 11.7594 19.993 11.896 19.9937 12.0387V13.8363C19.993 13.979 19.9336 14.1156 19.8283 14.2165C19.723 14.3174 19.5805 14.3744 19.4316 14.375H17.5621C17.4132 14.3744 17.2706 14.3174 17.1654 14.2165C17.0601 14.1156 17.0007 13.979 17 13.8363V12.0387ZM17 17.7887C17.0007 17.646 17.0601 17.5094 17.1654 17.4085C17.2706 17.3076 17.4132 17.2506 17.5621 17.25H19.4316C19.5805 17.2506 19.723 17.3076 19.8283 17.4085C19.9336 17.5094 19.993 17.646 19.9937 17.7887V19.5863C19.993 19.729 19.9336 19.8656 19.8283 19.9665C19.723 20.0674 19.5805 20.1244 19.4316 20.125H17.5621C17.4132 20.1244 17.2706 20.0674 17.1654 19.9665C17.0601 19.8656 17.0007 19.729 17 19.5863V17.7887ZM11 12.0387C11.0007 11.896 11.0601 11.7594 11.1654 11.6585C11.2706 11.5576 11.4132 11.5006 11.5621 11.5H13.4379C13.5868 11.5006 13.7294 11.5576 13.8346 11.6585C13.9399 11.7594 13.9993 11.896 14 12.0387V13.8363C13.9993 13.979 13.9399 14.1156 13.8346 14.2165C13.7294 14.3174 13.5868 14.3744 13.4379 14.375H11.5621C11.4132 14.3744 11.2706 14.3174 11.1654 14.2165C11.0601 14.1156 11.0007 13.979 11 13.8363V12.0387ZM11 17.7887C11.0007 17.646 11.0601 17.5094 11.1654 17.4085C11.2706 17.3076 11.4132 17.2506 11.5621 17.25H13.4379C13.5121 17.2503 13.5856 17.2647 13.6541 17.2922C13.7225 17.3198 13.7846 17.36 13.8369 17.4106C13.8891 17.4612 13.9304 17.5212 13.9584 17.5871C13.9863 17.653 14.0005 17.7236 14 17.7947V19.5863C13.9993 19.729 13.9399 19.8656 13.8346 19.9665C13.7294 20.0674 13.5868 20.1244 13.4379 20.125H11.5621C11.4132 20.1244 11.2706 20.0674 11.1654 19.9665C11.0601 19.8656 11.0007 19.729 11 19.5863V17.7887ZM5 12.0387C5.00066 11.896 5.0601 11.7594 5.16537 11.6585C5.27064 11.5576 5.41323 11.5006 5.5621 11.5H7.43158C7.58045 11.5006 7.72304 11.5576 7.82831 11.6585C7.93358 11.7594 7.99302 11.896 7.99368 12.0387V13.8363C7.99302 13.979 7.93358 14.1156 7.82831 14.2165C7.72304 14.3174 7.58045 14.3744 7.43158 14.375H5.5621C5.41323 14.3744 5.27064 14.3174 5.16537 14.2165C5.0601 14.1156 5.00066 13.979 5 13.8363V12.0387ZM5 17.7887C5.00066 17.646 5.0601 17.5094 5.16537 17.4085C5.27064 17.3076 5.41323 17.2506 5.5621 17.25H7.43158C7.58045 17.2506 7.72304 17.3076 7.82831 17.4085C7.93358 17.5094 7.99302 17.646 7.99368 17.7887V19.5863C7.99302 19.729 7.93358 19.8656 7.82831 19.9665C7.72304 20.0674 7.58045 20.1244 7.43158 20.125H5.5621C5.41323 20.1244 5.27064 20.0674 5.16537 19.9665C5.0601 19.8656 5.00066 19.729 5 19.5863V17.7887ZM20.7503 2.875H18.5006V0.719053C18.4987 0.528934 18.419 0.347138 18.2787 0.212697C18.1384 0.0782564 17.9487 0.00189186 17.7503 0L16.2497 0C16.0513 0.00189186 15.8616 0.0782564 15.7213 0.212697C15.581 0.347138 15.5013 0.528934 15.4994 0.719053V2.875H9.50063V0.719053C9.49866 0.528934 9.41897 0.347138 9.27869 0.212697C9.1384 0.0782564 8.9487 0.00189186 8.75032 0L7.24968 0C7.0513 0.00189186 6.8616 0.0782564 6.72131 0.212697C6.58103 0.347138 6.50134 0.528934 6.49937 0.719053V2.875H4.24968C3.65313 2.87532 3.08111 3.10257 2.65929 3.50682C2.23746 3.91107 2.00033 4.45925 2 5.03095V7.18811H23V5.03095C22.9997 4.45925 22.7625 3.91107 22.3407 3.50682C21.9189 3.10257 21.3469 2.87532 20.7503 2.875Z" fill="black" fill-opacity="0.2"/>
<path d="M2 20.8441C2.00033 21.4157 2.23746 21.9639 2.65929 22.3682C3.08111 22.7724 3.65313 22.9997 4.24968 23H20.7503C21.3469 22.9997 21.9189 22.7724 22.3407 22.3682C22.7625 21.9639 22.9997 21.4157 23 20.8441V8.625H2V20.8441ZM17 12.0387C17.0007 11.896 17.0601 11.7594 17.1654 11.6585C17.2706 11.5576 17.4132 11.5006 17.5621 11.5H19.4316C19.5805 11.5006 19.723 11.5576 19.8283 11.6585C19.9336 11.7594 19.993 11.896 19.9937 12.0387V13.8363C19.993 13.979 19.9336 14.1156 19.8283 14.2165C19.723 14.3174 19.5805 14.3744 19.4316 14.375H17.5621C17.4132 14.3744 17.2706 14.3174 17.1654 14.2165C17.0601 14.1156 17.0007 13.979 17 13.8363V12.0387ZM17 17.7887C17.0007 17.646 17.0601 17.5094 17.1654 17.4085C17.2706 17.3076 17.4132 17.2506 17.5621 17.25H19.4316C19.5805 17.2506 19.723 17.3076 19.8283 17.4085C19.9336 17.5094 19.993 17.646 19.9937 17.7887V19.5863C19.993 19.729 19.9336 19.8656 19.8283 19.9665C19.723 20.0674 19.5805 20.1244 19.4316 20.125H17.5621C17.4132 20.1244 17.2706 20.0674 17.1654 19.9665C17.0601 19.8656 17.0007 19.729 17 19.5863V17.7887ZM11 12.0387C11.0007 11.896 11.0601 11.7594 11.1654 11.6585C11.2706 11.5576 11.4132 11.5006 11.5621 11.5H13.4379C13.5868 11.5006 13.7294 11.5576 13.8346 11.6585C13.9399 11.7594 13.9993 11.896 14 12.0387V13.8363C13.9993 13.979 13.9399 14.1156 13.8346 14.2165C13.7294 14.3174 13.5868 14.3744 13.4379 14.375H11.5621C11.4132 14.3744 11.2706 14.3174 11.1654 14.2165C11.0601 14.1156 11.0007 13.979 11 13.8363V12.0387ZM11 17.7887C11.0007 17.646 11.0601 17.5094 11.1654 17.4085C11.2706 17.3076 11.4132 17.2506 11.5621 17.25H13.4379C13.5121 17.2503 13.5856 17.2647 13.6541 17.2922C13.7225 17.3198 13.7846 17.36 13.8369 17.4106C13.8891 17.4612 13.9304 17.5212 13.9584 17.5871C13.9863 17.653 14.0005 17.7236 14 17.7947V19.5863C13.9993 19.729 13.9399 19.8656 13.8346 19.9665C13.7294 20.0674 13.5868 20.1244 13.4379 20.125H11.5621C11.4132 20.1244 11.2706 20.0674 11.1654 19.9665C11.0601 19.8656 11.0007 19.729 11 19.5863V17.7887ZM5 12.0387C5.00066 11.896 5.0601 11.7594 5.16537 11.6585C5.27064 11.5576 5.41323 11.5006 5.5621 11.5H7.43158C7.58045 11.5006 7.72304 11.5576 7.82831 11.6585C7.93358 11.7594 7.99302 11.896 7.99368 12.0387V13.8363C7.99302 13.979 7.93358 14.1156 7.82831 14.2165C7.72304 14.3174 7.58045 14.3744 7.43158 14.375H5.5621C5.41323 14.3744 5.27064 14.3174 5.16537 14.2165C5.0601 14.1156 5.00066 13.979 5 13.8363V12.0387ZM5 17.7887C5.00066 17.646 5.0601 17.5094 5.16537 17.4085C5.27064 17.3076 5.41323 17.2506 5.5621 17.25H7.43158C7.58045 17.2506 7.72304 17.3076 7.82831 17.4085C7.93358 17.5094 7.99302 17.646 7.99368 17.7887V19.5863C7.99302 19.729 7.93358 19.8656 7.82831 19.9665C7.72304 20.0674 7.58045 20.1244 7.43158 20.125H5.5621C5.41323 20.1244 5.27064 20.0674 5.16537 19.9665C5.0601 19.8656 5.00066 19.729 5 19.5863V17.7887ZM20.7503 2.875H18.5006V0.719053C18.4987 0.528934 18.419 0.347138 18.2787 0.212697C18.1384 0.0782564 17.9487 0.00189186 17.7503 0L16.2497 0C16.0513 0.00189186 15.8616 0.0782564 15.7213 0.212697C15.581 0.347138 15.5013 0.528934 15.4994 0.719053V2.875H9.50063V0.719053C9.49866 0.528934 9.41897 0.347138 9.27869 0.212697C9.1384 0.0782564 8.9487 0.00189186 8.75032 0L7.24968 0C7.0513 0.00189186 6.8616 0.0782564 6.72131 0.212697C6.58103 0.347138 6.50134 0.528934 6.49937 0.719053V2.875H4.24968C3.65313 2.87532 3.08111 3.10257 2.65929 3.50682C2.23746 3.91107 2.00033 4.45925 2 5.03095V7.18811H23V5.03095C22.9997 4.45925 22.7625 3.91107 22.3407 3.50682C21.9189 3.10257 21.3469 2.87532 20.7503 2.875Z" fill="black" fill-opacity="0.2"/>
<path d="M2 20.8441C2.00033 21.4157 2.23746 21.9639 2.65929 22.3682C3.08111 22.7724 3.65313 22.9997 4.24968 23H20.7503C21.3469 22.9997 21.9189 22.7724 22.3407 22.3682C22.7625 21.9639 22.9997 21.4157 23 20.8441V8.625H2V20.8441ZM17 12.0387C17.0007 11.896 17.0601 11.7594 17.1654 11.6585C17.2706 11.5576 17.4132 11.5006 17.5621 11.5H19.4316C19.5805 11.5006 19.723 11.5576 19.8283 11.6585C19.9336 11.7594 19.993 11.896 19.9937 12.0387V13.8363C19.993 13.979 19.9336 14.1156 19.8283 14.2165C19.723 14.3174 19.5805 14.3744 19.4316 14.375H17.5621C17.4132 14.3744 17.2706 14.3174 17.1654 14.2165C17.0601 14.1156 17.0007 13.979 17 13.8363V12.0387ZM17 17.7887C17.0007 17.646 17.0601 17.5094 17.1654 17.4085C17.2706 17.3076 17.4132 17.2506 17.5621 17.25H19.4316C19.5805 17.2506 19.723 17.3076 19.8283 17.4085C19.9336 17.5094 19.993 17.646 19.9937 17.7887V19.5863C19.993 19.729 19.9336 19.8656 19.8283 19.9665C19.723 20.0674 19.5805 20.1244 19.4316 20.125H17.5621C17.4132 20.1244 17.2706 20.0674 17.1654 19.9665C17.0601 19.8656 17.0007 19.729 17 19.5863V17.7887ZM11 12.0387C11.0007 11.896 11.0601 11.7594 11.1654 11.6585C11.2706 11.5576 11.4132 11.5006 11.5621 11.5H13.4379C13.5868 11.5006 13.7294 11.5576 13.8346 11.6585C13.9399 11.7594 13.9993 11.896 14 12.0387V13.8363C13.9993 13.979 13.9399 14.1156 13.8346 14.2165C13.7294 14.3174 13.5868 14.3744 13.4379 14.375H11.5621C11.4132 14.3744 11.2706 14.3174 11.1654 14.2165C11.0601 14.1156 11.0007 13.979 11 13.8363V12.0387ZM11 17.7887C11.0007 17.646 11.0601 17.5094 11.1654 17.4085C11.2706 17.3076 11.4132 17.2506 11.5621 17.25H13.4379C13.5121 17.2503 13.5856 17.2647 13.6541 17.2922C13.7225 17.3198 13.7846 17.36 13.8369 17.4106C13.8891 17.4612 13.9304 17.5212 13.9584 17.5871C13.9863 17.653 14.0005 17.7236 14 17.7947V19.5863C13.9993 19.729 13.9399 19.8656 13.8346 19.9665C13.7294 20.0674 13.5868 20.1244 13.4379 20.125H11.5621C11.4132 20.1244 11.2706 20.0674 11.1654 19.9665C11.0601 19.8656 11.0007 19.729 11 19.5863V17.7887ZM5 12.0387C5.00066 11.896 5.0601 11.7594 5.16537 11.6585C5.27064 11.5576 5.41323 11.5006 5.5621 11.5H7.43158C7.58045 11.5006 7.72304 11.5576 7.82831 11.6585C7.93358 11.7594 7.99302 11.896 7.99368 12.0387V13.8363C7.99302 13.979 7.93358 14.1156 7.82831 14.2165C7.72304 14.3174 7.58045 14.3744 7.43158 14.375H5.5621C5.41323 14.3744 5.27064 14.3174 5.16537 14.2165C5.0601 14.1156 5.00066 13.979 5 13.8363V12.0387ZM5 17.7887C5.00066 17.646 5.0601 17.5094 5.16537 17.4085C5.27064 17.3076 5.41323 17.2506 5.5621 17.25H7.43158C7.58045 17.2506 7.72304 17.3076 7.82831 17.4085C7.93358 17.5094 7.99302 17.646 7.99368 17.7887V19.5863C7.99302 19.729 7.93358 19.8656 7.82831 19.9665C7.72304 20.0674 7.58045 20.1244 7.43158 20.125H5.5621C5.41323 20.1244 5.27064 20.0674 5.16537 19.9665C5.0601 19.8656 5.00066 19.729 5 19.5863V17.7887ZM20.7503 2.875H18.5006V0.719053C18.4987 0.528934 18.419 0.347138 18.2787 0.212697C18.1384 0.0782564 17.9487 0.00189186 17.7503 0L16.2497 0C16.0513 0.00189186 15.8616 0.0782564 15.7213 0.212697C15.581 0.347138 15.5013 0.528934 15.4994 0.719053V2.875H9.50063V0.719053C9.49866 0.528934 9.41897 0.347138 9.27869 0.212697C9.1384 0.0782564 8.9487 0.00189186 8.75032 0L7.24968 0C7.0513 0.00189186 6.8616 0.0782564 6.72131 0.212697C6.58103 0.347138 6.50134 0.528934 6.49937 0.719053V2.875H4.24968C3.65313 2.87532 3.08111 3.10257 2.65929 3.50682C2.23746 3.91107 2.00033 4.45925 2 5.03095V7.18811H23V5.03095C22.9997 4.45925 22.7625 3.91107 22.3407 3.50682C21.9189 3.10257 21.3469 2.87532 20.7503 2.875Z" fill="black" fill-opacity="0.2"/>
<path d="M2 20.8441C2.00033 21.4157 2.23746 21.9639 2.65929 22.3682C3.08111 22.7724 3.65313 22.9997 4.24968 23H20.7503C21.3469 22.9997 21.9189 22.7724 22.3407 22.3682C22.7625 21.9639 22.9997 21.4157 23 20.8441V8.625H2V20.8441ZM17 12.0387C17.0007 11.896 17.0601 11.7594 17.1654 11.6585C17.2706 11.5576 17.4132 11.5006 17.5621 11.5H19.4316C19.5805 11.5006 19.723 11.5576 19.8283 11.6585C19.9336 11.7594 19.993 11.896 19.9937 12.0387V13.8363C19.993 13.979 19.9336 14.1156 19.8283 14.2165C19.723 14.3174 19.5805 14.3744 19.4316 14.375H17.5621C17.4132 14.3744 17.2706 14.3174 17.1654 14.2165C17.0601 14.1156 17.0007 13.979 17 13.8363V12.0387ZM17 17.7887C17.0007 17.646 17.0601 17.5094 17.1654 17.4085C17.2706 17.3076 17.4132 17.2506 17.5621 17.25H19.4316C19.5805 17.2506 19.723 17.3076 19.8283 17.4085C19.9336 17.5094 19.993 17.646 19.9937 17.7887V19.5863C19.993 19.729 19.9336 19.8656 19.8283 19.9665C19.723 20.0674 19.5805 20.1244 19.4316 20.125H17.5621C17.4132 20.1244 17.2706 20.0674 17.1654 19.9665C17.0601 19.8656 17.0007 19.729 17 19.5863V17.7887ZM11 12.0387C11.0007 11.896 11.0601 11.7594 11.1654 11.6585C11.2706 11.5576 11.4132 11.5006 11.5621 11.5H13.4379C13.5868 11.5006 13.7294 11.5576 13.8346 11.6585C13.9399 11.7594 13.9993 11.896 14 12.0387V13.8363C13.9993 13.979 13.9399 14.1156 13.8346 14.2165C13.7294 14.3174 13.5868 14.3744 13.4379 14.375H11.5621C11.4132 14.3744 11.2706 14.3174 11.1654 14.2165C11.0601 14.1156 11.0007 13.979 11 13.8363V12.0387ZM11 17.7887C11.0007 17.646 11.0601 17.5094 11.1654 17.4085C11.2706 17.3076 11.4132 17.2506 11.5621 17.25H13.4379C13.5121 17.2503 13.5856 17.2647 13.6541 17.2922C13.7225 17.3198 13.7846 17.36 13.8369 17.4106C13.8891 17.4612 13.9304 17.5212 13.9584 17.5871C13.9863 17.653 14.0005 17.7236 14 17.7947V19.5863C13.9993 19.729 13.9399 19.8656 13.8346 19.9665C13.7294 20.0674 13.5868 20.1244 13.4379 20.125H11.5621C11.4132 20.1244 11.2706 20.0674 11.1654 19.9665C11.0601 19.8656 11.0007 19.729 11 19.5863V17.7887ZM5 12.0387C5.00066 11.896 5.0601 11.7594 5.16537 11.6585C5.27064 11.5576 5.41323 11.5006 5.5621 11.5H7.43158C7.58045 11.5006 7.72304 11.5576 7.82831 11.6585C7.93358 11.7594 7.99302 11.896 7.99368 12.0387V13.8363C7.99302 13.979 7.93358 14.1156 7.82831 14.2165C7.72304 14.3174 7.58045 14.3744 7.43158 14.375H5.5621C5.41323 14.3744 5.27064 14.3174 5.16537 14.2165C5.0601 14.1156 5.00066 13.979 5 13.8363V12.0387ZM5 17.7887C5.00066 17.646 5.0601 17.5094 5.16537 17.4085C5.27064 17.3076 5.41323 17.2506 5.5621 17.25H7.43158C7.58045 17.2506 7.72304 17.3076 7.82831 17.4085C7.93358 17.5094 7.99302 17.646 7.99368 17.7887V19.5863C7.99302 19.729 7.93358 19.8656 7.82831 19.9665C7.72304 20.0674 7.58045 20.1244 7.43158 20.125H5.5621C5.41323 20.1244 5.27064 20.0674 5.16537 19.9665C5.0601 19.8656 5.00066 19.729 5 19.5863V17.7887ZM20.7503 2.875H18.5006V0.719053C18.4987 0.528934 18.419 0.347138 18.2787 0.212697C18.1384 0.0782564 17.9487 0.00189186 17.7503 0L16.2497 0C16.0513 0.00189186 15.8616 0.0782564 15.7213 0.212697C15.581 0.347138 15.5013 0.528934 15.4994 0.719053V2.875H9.50063V0.719053C9.49866 0.528934 9.41897 0.347138 9.27869 0.212697C9.1384 0.0782564 8.9487 0.00189186 8.75032 0L7.24968 0C7.0513 0.00189186 6.8616 0.0782564 6.72131 0.212697C6.58103 0.347138 6.50134 0.528934 6.49937 0.719053V2.875H4.24968C3.65313 2.87532 3.08111 3.10257 2.65929 3.50682C2.23746 3.91107 2.00033 4.45925 2 5.03095V7.18811H23V5.03095C22.9997 4.45925 22.7625 3.91107 22.3407 3.50682C21.9189 3.10257 21.3469 2.87532 20.7503 2.875Z" fill="black" fill-opacity="0.2"/>
<path d="M2 20.8441C2.00033 21.4157 2.23746 21.9639 2.65929 22.3682C3.08111 22.7724 3.65313 22.9997 4.24968 23H20.7503C21.3469 22.9997 21.9189 22.7724 22.3407 22.3682C22.7625 21.9639 22.9997 21.4157 23 20.8441V8.625H2V20.8441ZM17 12.0387C17.0007 11.896 17.0601 11.7594 17.1654 11.6585C17.2706 11.5576 17.4132 11.5006 17.5621 11.5H19.4316C19.5805 11.5006 19.723 11.5576 19.8283 11.6585C19.9336 11.7594 19.993 11.896 19.9937 12.0387V13.8363C19.993 13.979 19.9336 14.1156 19.8283 14.2165C19.723 14.3174 19.5805 14.3744 19.4316 14.375H17.5621C17.4132 14.3744 17.2706 14.3174 17.1654 14.2165C17.0601 14.1156 17.0007 13.979 17 13.8363V12.0387ZM17 17.7887C17.0007 17.646 17.0601 17.5094 17.1654 17.4085C17.2706 17.3076 17.4132 17.2506 17.5621 17.25H19.4316C19.5805 17.2506 19.723 17.3076 19.8283 17.4085C19.9336 17.5094 19.993 17.646 19.9937 17.7887V19.5863C19.993 19.729 19.9336 19.8656 19.8283 19.9665C19.723 20.0674 19.5805 20.1244 19.4316 20.125H17.5621C17.4132 20.1244 17.2706 20.0674 17.1654 19.9665C17.0601 19.8656 17.0007 19.729 17 19.5863V17.7887ZM11 12.0387C11.0007 11.896 11.0601 11.7594 11.1654 11.6585C11.2706 11.5576 11.4132 11.5006 11.5621 11.5H13.4379C13.5868 11.5006 13.7294 11.5576 13.8346 11.6585C13.9399 11.7594 13.9993 11.896 14 12.0387V13.8363C13.9993 13.979 13.9399 14.1156 13.8346 14.2165C13.7294 14.3174 13.5868 14.3744 13.4379 14.375H11.5621C11.4132 14.3744 11.2706 14.3174 11.1654 14.2165C11.0601 14.1156 11.0007 13.979 11 13.8363V12.0387ZM11 17.7887C11.0007 17.646 11.0601 17.5094 11.1654 17.4085C11.2706 17.3076 11.4132 17.2506 11.5621 17.25H13.4379C13.5121 17.2503 13.5856 17.2647 13.6541 17.2922C13.7225 17.3198 13.7846 17.36 13.8369 17.4106C13.8891 17.4612 13.9304 17.5212 13.9584 17.5871C13.9863 17.653 14.0005 17.7236 14 17.7947V19.5863C13.9993 19.729 13.9399 19.8656 13.8346 19.9665C13.7294 20.0674 13.5868 20.1244 13.4379 20.125H11.5621C11.4132 20.1244 11.2706 20.0674 11.1654 19.9665C11.0601 19.8656 11.0007 19.729 11 19.5863V17.7887ZM5 12.0387C5.00066 11.896 5.0601 11.7594 5.16537 11.6585C5.27064 11.5576 5.41323 11.5006 5.5621 11.5H7.43158C7.58045 11.5006 7.72304 11.5576 7.82831 11.6585C7.93358 11.7594 7.99302 11.896 7.99368 12.0387V13.8363C7.99302 13.979 7.93358 14.1156 7.82831 14.2165C7.72304 14.3174 7.58045 14.3744 7.43158 14.375H5.5621C5.41323 14.3744 5.27064 14.3174 5.16537 14.2165C5.0601 14.1156 5.00066 13.979 5 13.8363V12.0387ZM5 17.7887C5.00066 17.646 5.0601 17.5094 5.16537 17.4085C5.27064 17.3076 5.41323 17.2506 5.5621 17.25H7.43158C7.58045 17.2506 7.72304 17.3076 7.82831 17.4085C7.93358 17.5094 7.99302 17.646 7.99368 17.7887V19.5863C7.99302 19.729 7.93358 19.8656 7.82831 19.9665C7.72304 20.0674 7.58045 20.1244 7.43158 20.125H5.5621C5.41323 20.1244 5.27064 20.0674 5.16537 19.9665C5.0601 19.8656 5.00066 19.729 5 19.5863V17.7887ZM20.7503 2.875H18.5006V0.719053C18.4987 0.528934 18.419 0.347138 18.2787 0.212697C18.1384 0.0782564 17.9487 0.00189186 17.7503 0L16.2497 0C16.0513 0.00189186 15.8616 0.0782564 15.7213 0.212697C15.581 0.347138 15.5013 0.528934 15.4994 0.719053V2.875H9.50063V0.719053C9.49866 0.528934 9.41897 0.347138 9.27869 0.212697C9.1384 0.0782564 8.9487 0.00189186 8.75032 0L7.24968 0C7.0513 0.00189186 6.8616 0.0782564 6.72131 0.212697C6.58103 0.347138 6.50134 0.528934 6.49937 0.719053V2.875H4.24968C3.65313 2.87532 3.08111 3.10257 2.65929 3.50682C2.23746 3.91107 2.00033 4.45925 2 5.03095V7.18811H23V5.03095C22.9997 4.45925 22.7625 3.91107 22.3407 3.50682C21.9189 3.10257 21.3469 2.87532 20.7503 2.875Z" fill="black" fill-opacity="0.2"/>
<path d="M2 20.8441C2.00033 21.4157 2.23746 21.9639 2.65929 22.3682C3.08111 22.7724 3.65313 22.9997 4.24968 23H20.7503C21.3469 22.9997 21.9189 22.7724 22.3407 22.3682C22.7625 21.9639 22.9997 21.4157 23 20.8441V8.625H2V20.8441ZM17 12.0387C17.0007 11.896 17.0601 11.7594 17.1654 11.6585C17.2706 11.5576 17.4132 11.5006 17.5621 11.5H19.4316C19.5805 11.5006 19.723 11.5576 19.8283 11.6585C19.9336 11.7594 19.993 11.896 19.9937 12.0387V13.8363C19.993 13.979 19.9336 14.1156 19.8283 14.2165C19.723 14.3174 19.5805 14.3744 19.4316 14.375H17.5621C17.4132 14.3744 17.2706 14.3174 17.1654 14.2165C17.0601 14.1156 17.0007 13.979 17 13.8363V12.0387ZM17 17.7887C17.0007 17.646 17.0601 17.5094 17.1654 17.4085C17.2706 17.3076 17.4132 17.2506 17.5621 17.25H19.4316C19.5805 17.2506 19.723 17.3076 19.8283 17.4085C19.9336 17.5094 19.993 17.646 19.9937 17.7887V19.5863C19.993 19.729 19.9336 19.8656 19.8283 19.9665C19.723 20.0674 19.5805 20.1244 19.4316 20.125H17.5621C17.4132 20.1244 17.2706 20.0674 17.1654 19.9665C17.0601 19.8656 17.0007 19.729 17 19.5863V17.7887ZM11 12.0387C11.0007 11.896 11.0601 11.7594 11.1654 11.6585C11.2706 11.5576 11.4132 11.5006 11.5621 11.5H13.4379C13.5868 11.5006 13.7294 11.5576 13.8346 11.6585C13.9399 11.7594 13.9993 11.896 14 12.0387V13.8363C13.9993 13.979 13.9399 14.1156 13.8346 14.2165C13.7294 14.3174 13.5868 14.3744 13.4379 14.375H11.5621C11.4132 14.3744 11.2706 14.3174 11.1654 14.2165C11.0601 14.1156 11.0007 13.979 11 13.8363V12.0387ZM11 17.7887C11.0007 17.646 11.0601 17.5094 11.1654 17.4085C11.2706 17.3076 11.4132 17.2506 11.5621 17.25H13.4379C13.5121 17.2503 13.5856 17.2647 13.6541 17.2922C13.7225 17.3198 13.7846 17.36 13.8369 17.4106C13.8891 17.4612 13.9304 17.5212 13.9584 17.5871C13.9863 17.653 14.0005 17.7236 14 17.7947V19.5863C13.9993 19.729 13.9399 19.8656 13.8346 19.9665C13.7294 20.0674 13.5868 20.1244 13.4379 20.125H11.5621C11.4132 20.1244 11.2706 20.0674 11.1654 19.9665C11.0601 19.8656 11.0007 19.729 11 19.5863V17.7887ZM5 12.0387C5.00066 11.896 5.0601 11.7594 5.16537 11.6585C5.27064 11.5576 5.41323 11.5006 5.5621 11.5H7.43158C7.58045 11.5006 7.72304 11.5576 7.82831 11.6585C7.93358 11.7594 7.99302 11.896 7.99368 12.0387V13.8363C7.99302 13.979 7.93358 14.1156 7.82831 14.2165C7.72304 14.3174 7.58045 14.3744 7.43158 14.375H5.5621C5.41323 14.3744 5.27064 14.3174 5.16537 14.2165C5.0601 14.1156 5.00066 13.979 5 13.8363V12.0387ZM5 17.7887C5.00066 17.646 5.0601 17.5094 5.16537 17.4085C5.27064 17.3076 5.41323 17.2506 5.5621 17.25H7.43158C7.58045 17.2506 7.72304 17.3076 7.82831 17.4085C7.93358 17.5094 7.99302 17.646 7.99368 17.7887V19.5863C7.99302 19.729 7.93358 19.8656 7.82831 19.9665C7.72304 20.0674 7.58045 20.1244 7.43158 20.125H5.5621C5.41323 20.1244 5.27064 20.0674 5.16537 19.9665C5.0601 19.8656 5.00066 19.729 5 19.5863V17.7887ZM20.7503 2.875H18.5006V0.719053C18.4987 0.528934 18.419 0.347138 18.2787 0.212697C18.1384 0.0782564 17.9487 0.00189186 17.7503 0L16.2497 0C16.0513 0.00189186 15.8616 0.0782564 15.7213 0.212697C15.581 0.347138 15.5013 0.528934 15.4994 0.719053V2.875H9.50063V0.719053C9.49866 0.528934 9.41897 0.347138 9.27869 0.212697C9.1384 0.0782564 8.9487 0.00189186 8.75032 0L7.24968 0C7.0513 0.00189186 6.8616 0.0782564 6.72131 0.212697C6.58103 0.347138 6.50134 0.528934 6.49937 0.719053V2.875H4.24968C3.65313 2.87532 3.08111 3.10257 2.65929 3.50682C2.23746 3.91107 2.00033 4.45925 2 5.03095V7.18811H23V5.03095C22.9997 4.45925 22.7625 3.91107 22.3407 3.50682C21.9189 3.10257 21.3469 2.87532 20.7503 2.875Z" fill="black" fill-opacity="0.2"/>
<path d="M2 20.8441C2.00033 21.4157 2.23746 21.9639 2.65929 22.3682C3.08111 22.7724 3.65313 22.9997 4.24968 23H20.7503C21.3469 22.9997 21.9189 22.7724 22.3407 22.3682C22.7625 21.9639 22.9997 21.4157 23 20.8441V8.625H2V20.8441ZM17 12.0387C17.0007 11.896 17.0601 11.7594 17.1654 11.6585C17.2706 11.5576 17.4132 11.5006 17.5621 11.5H19.4316C19.5805 11.5006 19.723 11.5576 19.8283 11.6585C19.9336 11.7594 19.993 11.896 19.9937 12.0387V13.8363C19.993 13.979 19.9336 14.1156 19.8283 14.2165C19.723 14.3174 19.5805 14.3744 19.4316 14.375H17.5621C17.4132 14.3744 17.2706 14.3174 17.1654 14.2165C17.0601 14.1156 17.0007 13.979 17 13.8363V12.0387ZM17 17.7887C17.0007 17.646 17.0601 17.5094 17.1654 17.4085C17.2706 17.3076 17.4132 17.2506 17.5621 17.25H19.4316C19.5805 17.2506 19.723 17.3076 19.8283 17.4085C19.9336 17.5094 19.993 17.646 19.9937 17.7887V19.5863C19.993 19.729 19.9336 19.8656 19.8283 19.9665C19.723 20.0674 19.5805 20.1244 19.4316 20.125H17.5621C17.4132 20.1244 17.2706 20.0674 17.1654 19.9665C17.0601 19.8656 17.0007 19.729 17 19.5863V17.7887ZM11 12.0387C11.0007 11.896 11.0601 11.7594 11.1654 11.6585C11.2706 11.5576 11.4132 11.5006 11.5621 11.5H13.4379C13.5868 11.5006 13.7294 11.5576 13.8346 11.6585C13.9399 11.7594 13.9993 11.896 14 12.0387V13.8363C13.9993 13.979 13.9399 14.1156 13.8346 14.2165C13.7294 14.3174 13.5868 14.3744 13.4379 14.375H11.5621C11.4132 14.3744 11.2706 14.3174 11.1654 14.2165C11.0601 14.1156 11.0007 13.979 11 13.8363V12.0387ZM11 17.7887C11.0007 17.646 11.0601 17.5094 11.1654 17.4085C11.2706 17.3076 11.4132 17.2506 11.5621 17.25H13.4379C13.5121 17.2503 13.5856 17.2647 13.6541 17.2922C13.7225 17.3198 13.7846 17.36 13.8369 17.4106C13.8891 17.4612 13.9304 17.5212 13.9584 17.5871C13.9863 17.653 14.0005 17.7236 14 17.7947V19.5863C13.9993 19.729 13.9399 19.8656 13.8346 19.9665C13.7294 20.0674 13.5868 20.1244 13.4379 20.125H11.5621C11.4132 20.1244 11.2706 20.0674 11.1654 19.9665C11.0601 19.8656 11.0007 19.729 11 19.5863V17.7887ZM5 12.0387C5.00066 11.896 5.0601 11.7594 5.16537 11.6585C5.27064 11.5576 5.41323 11.5006 5.5621 11.5H7.43158C7.58045 11.5006 7.72304 11.5576 7.82831 11.6585C7.93358 11.7594 7.99302 11.896 7.99368 12.0387V13.8363C7.99302 13.979 7.93358 14.1156 7.82831 14.2165C7.72304 14.3174 7.58045 14.3744 7.43158 14.375H5.5621C5.41323 14.3744 5.27064 14.3174 5.16537 14.2165C5.0601 14.1156 5.00066 13.979 5 13.8363V12.0387ZM5 17.7887C5.00066 17.646 5.0601 17.5094 5.16537 17.4085C5.27064 17.3076 5.41323 17.2506 5.5621 17.25H7.43158C7.58045 17.2506 7.72304 17.3076 7.82831 17.4085C7.93358 17.5094 7.99302 17.646 7.99368 17.7887V19.5863C7.99302 19.729 7.93358 19.8656 7.82831 19.9665C7.72304 20.0674 7.58045 20.1244 7.43158 20.125H5.5621C5.41323 20.1244 5.27064 20.0674 5.16537 19.9665C5.0601 19.8656 5.00066 19.729 5 19.5863V17.7887ZM20.7503 2.875H18.5006V0.719053C18.4987 0.528934 18.419 0.347138 18.2787 0.212697C18.1384 0.0782564 17.9487 0.00189186 17.7503 0L16.2497 0C16.0513 0.00189186 15.8616 0.0782564 15.7213 0.212697C15.581 0.347138 15.5013 0.528934 15.4994 0.719053V2.875H9.50063V0.719053C9.49866 0.528934 9.41897 0.347138 9.27869 0.212697C9.1384 0.0782564 8.9487 0.00189186 8.75032 0L7.24968 0C7.0513 0.00189186 6.8616 0.0782564 6.72131 0.212697C6.58103 0.347138 6.50134 0.528934 6.49937 0.719053V2.875H4.24968C3.65313 2.87532 3.08111 3.10257 2.65929 3.50682C2.23746 3.91107 2.00033 4.45925 2 5.03095V7.18811H23V5.03095C22.9997 4.45925 22.7625 3.91107 22.3407 3.50682C21.9189 3.10257 21.3469 2.87532 20.7503 2.875Z" fill="black" fill-opacity="0.2"/>
</svg>
