<svg width="32" height="32" viewBox="0 0 32 32" fill="none" xmlns="http://www.w3.org/2000/svg">
<path fill-rule="evenodd" clip-rule="evenodd" d="M8 9H0V13.3333H8V9ZM8 17.6667H0V22H8V17.6667ZM12 9H20V13.3333H12V9ZM20 17.6667H12V22.0001H20V17.6667ZM24 9H32V13.3333H24V9ZM32 17.6667H24V22.0001H32V17.6667Z" fill="black"/>
<path fill-rule="evenodd" clip-rule="evenodd" d="M8 9H0V13.3333H8V9ZM8 17.6667H0V22H8V17.6667ZM12 9H20V13.3333H12V9ZM20 17.6667H12V22.0001H20V17.6667ZM24 9H32V13.3333H24V9ZM32 17.6667H24V22.0001H32V17.6667Z" fill="black" fill-opacity="0.2"/>
<path fill-rule="evenodd" clip-rule="evenodd" d="M8 9H0V13.3333H8V9ZM8 17.6667H0V22H8V17.6667ZM12 9H20V13.3333H12V9ZM20 17.6667H12V22.0001H20V17.6667ZM24 9H32V13.3333H24V9ZM32 17.6667H24V22.0001H32V17.6667Z" fill="black" fill-opacity="0.2"/>
<path fill-rule="evenodd" clip-rule="evenodd" d="M8 9H0V13.3333H8V9ZM8 17.6667H0V22H8V17.6667ZM12 9H20V13.3333H12V9ZM20 17.6667H12V22.0001H20V17.6667ZM24 9H32V13.3333H24V9ZM32 17.6667H24V22.0001H32V17.6667Z" fill="black" fill-opacity="0.2"/>
<path fill-rule="evenodd" clip-rule="evenodd" d="M8 9H0V13.3333H8V9ZM8 17.6667H0V22H8V17.6667ZM12 9H20V13.3333H12V9ZM20 17.6667H12V22.0001H20V17.6667ZM24 9H32V13.3333H24V9ZM32 17.6667H24V22.0001H32V17.6667Z" fill="black" fill-opacity="0.2"/>
<path fill-rule="evenodd" clip-rule="evenodd" d="M8 9H0V13.3333H8V9ZM8 17.6667H0V22H8V17.6667ZM12 9H20V13.3333H12V9ZM20 17.6667H12V22.0001H20V17.6667ZM24 9H32V13.3333H24V9ZM32 17.6667H24V22.0001H32V17.6667Z" fill="black" fill-opacity="0.2"/>
<path fill-rule="evenodd" clip-rule="evenodd" d="M8 9H0V13.3333H8V9ZM8 17.6667H0V22H8V17.6667ZM12 9H20V13.3333H12V9ZM20 17.6667H12V22.0001H20V17.6667ZM24 9H32V13.3333H24V9ZM32 17.6667H24V22.0001H32V17.6667Z" fill="black" fill-opacity="0.2"/>
<path fill-rule="evenodd" clip-rule="evenodd" d="M8 9H0V13.3333H8V9ZM8 17.6667H0V22H8V17.6667ZM12 9H20V13.3333H12V9ZM20 17.6667H12V22.0001H20V17.6667ZM24 9H32V13.3333H24V9ZM32 17.6667H24V22.0001H32V17.6667Z" fill="black" fill-opacity="0.2"/>
<path fill-rule="evenodd" clip-rule="evenodd" d="M8 9H0V13.3333H8V9ZM8 17.6667H0V22H8V17.6667ZM12 9H20V13.3333H12V9ZM20 17.6667H12V22.0001H20V17.6667ZM24 9H32V13.3333H24V9ZM32 17.6667H24V22.0001H32V17.6667Z" fill="black" fill-opacity="0.2"/>
<path fill-rule="evenodd" clip-rule="evenodd" d="M8 9H0V13.3333H8V9ZM8 17.6667H0V22H8V17.6667ZM12 9H20V13.3333H12V9ZM20 17.6667H12V22.0001H20V17.6667ZM24 9H32V13.3333H24V9ZM32 17.6667H24V22.0001H32V17.6667Z" fill="black" fill-opacity="0.2"/>
</svg>
