<svg width="24" height="24" viewBox="0 0 24 24" fill="none" xmlns="http://www.w3.org/2000/svg">
<path d="M8.15132 19.6661L0.351436 12.2565C0.126413 12.0427 0 11.7527 0 11.4504C0 11.1481 0.126413 10.8581 0.351436 10.6443L2.04853 9.03211C2.27359 8.81835 2.57881 8.69826 2.89707 8.69826C3.21533 8.69826 3.52056 8.81835 3.74562 9.03211L8.99987 14.0235L20.2544 3.33385C20.4794 3.12009 20.7847 3 21.1029 3C21.4212 3 21.7264 3.12009 21.9515 3.33385L23.6486 4.94604C23.8736 5.15984 24 5.4498 24 5.75213C24 6.05447 23.8736 6.34442 23.6486 6.55823L9.84841 19.6661C9.62335 19.8799 9.31813 20 8.99987 20C8.68161 20 8.37638 19.8799 8.15132 19.6661Z" fill="black"/>
<path d="M8.15132 19.6661L0.351436 12.2565C0.126413 12.0427 0 11.7527 0 11.4504C0 11.1481 0.126413 10.8581 0.351436 10.6443L2.04853 9.03211C2.27359 8.81835 2.57881 8.69826 2.89707 8.69826C3.21533 8.69826 3.52056 8.81835 3.74562 9.03211L8.99987 14.0235L20.2544 3.33385C20.4794 3.12009 20.7847 3 21.1029 3C21.4212 3 21.7264 3.12009 21.9515 3.33385L23.6486 4.94604C23.8736 5.15984 24 5.4498 24 5.75213C24 6.05447 23.8736 6.34442 23.6486 6.55823L9.84841 19.6661C9.62335 19.8799 9.31813 20 8.99987 20C8.68161 20 8.37638 19.8799 8.15132 19.6661Z" fill="black" fill-opacity="0.2"/>
<path d="M8.15132 19.6661L0.351436 12.2565C0.126413 12.0427 0 11.7527 0 11.4504C0 11.1481 0.126413 10.8581 0.351436 10.6443L2.04853 9.03211C2.27359 8.81835 2.57881 8.69826 2.89707 8.69826C3.21533 8.69826 3.52056 8.81835 3.74562 9.03211L8.99987 14.0235L20.2544 3.33385C20.4794 3.12009 20.7847 3 21.1029 3C21.4212 3 21.7264 3.12009 21.9515 3.33385L23.6486 4.94604C23.8736 5.15984 24 5.4498 24 5.75213C24 6.05447 23.8736 6.34442 23.6486 6.55823L9.84841 19.6661C9.62335 19.8799 9.31813 20 8.99987 20C8.68161 20 8.37638 19.8799 8.15132 19.6661Z" fill="black" fill-opacity="0.2"/>
<path d="M8.15132 19.6661L0.351436 12.2565C0.126413 12.0427 0 11.7527 0 11.4504C0 11.1481 0.126413 10.8581 0.351436 10.6443L2.04853 9.03211C2.27359 8.81835 2.57881 8.69826 2.89707 8.69826C3.21533 8.69826 3.52056 8.81835 3.74562 9.03211L8.99987 14.0235L20.2544 3.33385C20.4794 3.12009 20.7847 3 21.1029 3C21.4212 3 21.7264 3.12009 21.9515 3.33385L23.6486 4.94604C23.8736 5.15984 24 5.4498 24 5.75213C24 6.05447 23.8736 6.34442 23.6486 6.55823L9.84841 19.6661C9.62335 19.8799 9.31813 20 8.99987 20C8.68161 20 8.37638 19.8799 8.15132 19.6661Z" fill="black" fill-opacity="0.2"/>
<path d="M8.15132 19.6661L0.351436 12.2565C0.126413 12.0427 0 11.7527 0 11.4504C0 11.1481 0.126413 10.8581 0.351436 10.6443L2.04853 9.03211C2.27359 8.81835 2.57881 8.69826 2.89707 8.69826C3.21533 8.69826 3.52056 8.81835 3.74562 9.03211L8.99987 14.0235L20.2544 3.33385C20.4794 3.12009 20.7847 3 21.1029 3C21.4212 3 21.7264 3.12009 21.9515 3.33385L23.6486 4.94604C23.8736 5.15984 24 5.4498 24 5.75213C24 6.05447 23.8736 6.34442 23.6486 6.55823L9.84841 19.6661C9.62335 19.8799 9.31813 20 8.99987 20C8.68161 20 8.37638 19.8799 8.15132 19.6661Z" fill="black" fill-opacity="0.2"/>
<path d="M8.15132 19.6661L0.351436 12.2565C0.126413 12.0427 0 11.7527 0 11.4504C0 11.1481 0.126413 10.8581 0.351436 10.6443L2.04853 9.03211C2.27359 8.81835 2.57881 8.69826 2.89707 8.69826C3.21533 8.69826 3.52056 8.81835 3.74562 9.03211L8.99987 14.0235L20.2544 3.33385C20.4794 3.12009 20.7847 3 21.1029 3C21.4212 3 21.7264 3.12009 21.9515 3.33385L23.6486 4.94604C23.8736 5.15984 24 5.4498 24 5.75213C24 6.05447 23.8736 6.34442 23.6486 6.55823L9.84841 19.6661C9.62335 19.8799 9.31813 20 8.99987 20C8.68161 20 8.37638 19.8799 8.15132 19.6661Z" fill="black" fill-opacity="0.2"/>
<path d="M8.15132 19.6661L0.351436 12.2565C0.126413 12.0427 0 11.7527 0 11.4504C0 11.1481 0.126413 10.8581 0.351436 10.6443L2.04853 9.03211C2.27359 8.81835 2.57881 8.69826 2.89707 8.69826C3.21533 8.69826 3.52056 8.81835 3.74562 9.03211L8.99987 14.0235L20.2544 3.33385C20.4794 3.12009 20.7847 3 21.1029 3C21.4212 3 21.7264 3.12009 21.9515 3.33385L23.6486 4.94604C23.8736 5.15984 24 5.4498 24 5.75213C24 6.05447 23.8736 6.34442 23.6486 6.55823L9.84841 19.6661C9.62335 19.8799 9.31813 20 8.99987 20C8.68161 20 8.37638 19.8799 8.15132 19.6661Z" fill="black" fill-opacity="0.2"/>
<path d="M8.15132 19.6661L0.351436 12.2565C0.126413 12.0427 0 11.7527 0 11.4504C0 11.1481 0.126413 10.8581 0.351436 10.6443L2.04853 9.03211C2.27359 8.81835 2.57881 8.69826 2.89707 8.69826C3.21533 8.69826 3.52056 8.81835 3.74562 9.03211L8.99987 14.0235L20.2544 3.33385C20.4794 3.12009 20.7847 3 21.1029 3C21.4212 3 21.7264 3.12009 21.9515 3.33385L23.6486 4.94604C23.8736 5.15984 24 5.4498 24 5.75213C24 6.05447 23.8736 6.34442 23.6486 6.55823L9.84841 19.6661C9.62335 19.8799 9.31813 20 8.99987 20C8.68161 20 8.37638 19.8799 8.15132 19.6661Z" fill="black" fill-opacity="0.2"/>
<path d="M8.15132 19.6661L0.351436 12.2565C0.126413 12.0427 0 11.7527 0 11.4504C0 11.1481 0.126413 10.8581 0.351436 10.6443L2.04853 9.03211C2.27359 8.81835 2.57881 8.69826 2.89707 8.69826C3.21533 8.69826 3.52056 8.81835 3.74562 9.03211L8.99987 14.0235L20.2544 3.33385C20.4794 3.12009 20.7847 3 21.1029 3C21.4212 3 21.7264 3.12009 21.9515 3.33385L23.6486 4.94604C23.8736 5.15984 24 5.4498 24 5.75213C24 6.05447 23.8736 6.34442 23.6486 6.55823L9.84841 19.6661C9.62335 19.8799 9.31813 20 8.99987 20C8.68161 20 8.37638 19.8799 8.15132 19.6661Z" fill="black" fill-opacity="0.2"/>
<path d="M8.15132 19.6661L0.351436 12.2565C0.126413 12.0427 0 11.7527 0 11.4504C0 11.1481 0.126413 10.8581 0.351436 10.6443L2.04853 9.03211C2.27359 8.81835 2.57881 8.69826 2.89707 8.69826C3.21533 8.69826 3.52056 8.81835 3.74562 9.03211L8.99987 14.0235L20.2544 3.33385C20.4794 3.12009 20.7847 3 21.1029 3C21.4212 3 21.7264 3.12009 21.9515 3.33385L23.6486 4.94604C23.8736 5.15984 24 5.4498 24 5.75213C24 6.05447 23.8736 6.34442 23.6486 6.55823L9.84841 19.6661C9.62335 19.8799 9.31813 20 8.99987 20C8.68161 20 8.37638 19.8799 8.15132 19.6661Z" fill="black" fill-opacity="0.2"/>
</svg>
