<svg width="24" height="24" viewBox="0 0 24 24" fill="none" xmlns="http://www.w3.org/2000/svg">
<path d="M22.1251 9.10231C21.744 8.68553 21.2539 8.38504 20.7109 8.23521L20.7266 6.00813C20.7405 4.98784 20.366 4.00078 19.6799 3.24897C19.3555 2.88879 18.9607 2.59981 18.5201 2.4001C18.0795 2.2004 17.6027 2.09427 17.1195 2.08836L7.12288 2.00007C6.63957 1.99692 6.16086 2.09465 5.71705 2.28707C5.27323 2.4795 4.87396 2.76244 4.54449 3.118C3.84836 3.85905 3.46037 4.83968 3.45999 5.85903L3.4437 8.06565C2.87293 8.19813 2.35405 8.49785 1.95273 8.9269C1.37024 9.54688 1.04532 10.3672 1.04442 11.2201L1.00139 16.9097C0.980279 17.5212 1.20039 18.1163 1.61375 18.5653C2.02711 19.0143 2.60022 19.2809 3.2082 19.3069H3.42103L3.40707 21.0902C3.40031 21.2845 3.47036 21.4735 3.60191 21.616C3.73345 21.7584 3.91576 21.8427 4.10894 21.8503C4.26862 21.8482 4.42301 21.7924 4.54763 21.692C4.67225 21.5916 4.75996 21.4523 4.79686 21.296L5.30451 19.3291L5.73483 19.3321L16.859 19.4285L19.3333 19.4513L19.8119 21.434C19.8458 21.5909 19.931 21.7319 20.0539 21.8345C20.1768 21.937 20.3303 21.9953 20.4899 22C20.5857 21.9978 20.6802 21.9766 20.7678 21.9377C20.8555 21.8988 20.9347 21.8428 21.0008 21.7731C21.067 21.7034 21.1188 21.6212 21.1534 21.5313C21.188 21.4415 21.2046 21.3456 21.2022 21.2493L21.2162 19.4034C21.6285 19.3061 22.003 19.0885 22.2926 18.7778C22.7184 18.3241 22.956 17.7241 22.9566 17.1003L22.9997 11.4118C23.0117 10.5579 22.6992 9.73165 22.1251 9.10231ZM4.79221 5.86897C4.79245 5.22358 5.03815 4.60272 5.47897 4.13361C5.6868 3.90771 5.93934 3.72802 6.22034 3.60608C6.50135 3.48414 6.80462 3.42264 7.11066 3.42555L17.1125 3.51091C17.4187 3.51466 17.7208 3.58198 17.9999 3.70866C18.279 3.83533 18.529 4.01862 18.7343 4.24704C19.1676 4.72315 19.4037 5.34765 19.3943 5.99293L19.3769 8.1861C19.2891 8.20306 19.2024 8.22937 19.1135 8.25451L19.0635 8.27088C18.9914 8.29368 18.9198 8.32175 18.8506 8.3504C18.8326 8.35917 18.8157 8.36502 18.7977 8.3732C18.6289 8.44832 18.4672 8.53853 18.3145 8.64274C18.2965 8.65736 18.2773 8.67081 18.2563 8.6825C18.1982 8.72577 18.14 8.76787 18.0865 8.81347C18.0685 8.83043 18.0464 8.84797 18.0284 8.86434C17.9592 8.9269 17.8906 8.98947 17.8237 9.05787C17.4632 9.43751 17.1987 9.89874 17.0526 10.4027C16.9635 10.7105 16.9171 11.0292 16.9148 11.3499V11.3551V11.7679C16.9047 11.7627 16.8939 11.7588 16.8828 11.7562C16.8381 11.7369 16.7898 11.7194 16.745 11.7024C16.7241 11.6936 16.7028 11.686 16.681 11.6796C16.6113 11.6573 16.5402 11.6393 16.4682 11.6258H16.4601L16.4362 11.62L16.3083 11.5972V11.6001L15.6064 11.4832C15.4866 11.4668 15.3698 11.4493 15.2575 11.4352L15.1226 11.4183L14.376 11.3335C14.1922 11.3165 14.0067 11.299 13.823 11.2855C13.5281 11.2627 13.2327 11.2458 12.935 11.2318C12.8234 11.2259 12.7117 11.223 12.6024 11.2201C12.2459 11.2084 11.8895 11.2084 11.5318 11.2142C11.3719 11.2171 11.2126 11.2171 11.0533 11.223L10.7765 11.2318H10.7625C10.6666 11.2347 10.5689 11.2405 10.4718 11.2464C10.3746 11.2522 10.2781 11.2581 10.181 11.2627C10.0839 11.2674 9.98736 11.2774 9.89374 11.2826L9.20291 11.3452H9.19186C9.01102 11.3616 8.82726 11.3849 8.64758 11.4037C8.57373 11.4124 8.49871 11.42 8.42719 11.4317L7.78753 11.5259V11.5229L7.61774 11.5516H7.60378H7.59273C7.52281 11.5633 7.45368 11.5793 7.38572 11.5995C7.36478 11.6054 7.34268 11.6141 7.31884 11.6223L7.17521 11.6732C7.16416 11.679 7.15137 11.682 7.14032 11.6878V11.2645C7.15337 10.4109 6.84131 9.58467 6.26807 8.95497C6.17805 8.85698 6.08086 8.7659 5.97731 8.6825C5.95108 8.65908 5.92351 8.63721 5.89474 8.61702C5.80695 8.54764 5.71552 8.48303 5.62085 8.42348C5.60515 8.41179 5.58596 8.40127 5.57084 8.38957C5.46196 8.3242 5.34845 8.26695 5.23125 8.21826L5.14344 8.18376C5.04703 8.14555 4.94838 8.11333 4.84803 8.08729C4.82928 8.07965 4.80979 8.07397 4.78988 8.07033L4.79221 5.86897ZM7.09903 14.851L7.10718 13.8301C7.10397 13.626 7.17266 13.4273 7.3011 13.2691C7.42955 13.111 7.60947 13.0036 7.80905 12.9659L7.83813 12.9601L8.57489 12.8513L8.78481 12.8262C8.95926 12.8034 9.13837 12.7829 9.31398 12.7677L9.97282 12.7093C10.0635 12.7034 10.1566 12.6946 10.2496 12.69C10.2897 12.687 10.3293 12.6841 10.3694 12.6841L10.5264 12.6754C10.6171 12.6695 10.7073 12.6666 10.798 12.6607L11.0765 12.649C11.3213 12.6403 11.5679 12.6374 11.8127 12.6374C12.0575 12.6374 12.3047 12.6403 12.5495 12.649C12.6553 12.652 12.7594 12.6549 12.8652 12.6607C13.1467 12.6724 13.4287 12.6888 13.7107 12.7116C13.8852 12.7262 14.0596 12.7397 14.237 12.7572L15.079 12.8572C15.1877 12.8718 15.2947 12.8853 15.4035 12.9028C15.413 12.9052 15.4228 12.9062 15.4326 12.9057L16.2112 13.0338H16.2193C16.415 13.0782 16.5892 13.1895 16.7123 13.3487C16.8354 13.5079 16.8998 13.7051 16.8945 13.9067L16.8863 14.9305L13.2397 14.8989L7.09903 14.851ZM3.2175 17.8826C2.97362 17.8724 2.74366 17.7656 2.57783 17.5855C2.41201 17.4054 2.32379 17.1667 2.33245 16.9214L2.37548 11.2329C2.37503 10.754 2.55808 10.2933 2.88662 9.9466C3.04022 9.78129 3.22583 9.64932 3.43204 9.55882C3.63824 9.46833 3.86069 9.42121 4.08568 9.42038H4.09964C4.32694 9.42324 4.5512 9.47321 4.75842 9.56717C4.96563 9.66114 5.15134 9.79707 5.30393 9.96648C5.62592 10.3204 5.80182 10.7843 5.79589 11.2639V11.2967L5.77553 13.8196L5.75751 16.2665L5.74413 17.9037L3.2175 17.8826ZM7.07694 17.9142L7.08508 17.0155L7.09089 16.2765L11.9261 16.3197L16.8828 16.3624V16.5378L16.8718 17.9995L7.07694 17.9142ZM21.6221 17.0851C21.6273 17.329 21.5367 17.5652 21.37 17.7425C21.2032 17.9198 20.9737 18.0239 20.7312 18.0323H20.7231L18.1976 18.0095L18.2116 16.3724L18.2168 15.5538L18.2488 11.3674C18.2486 10.8886 18.4316 10.428 18.7599 10.0811C18.9149 9.91391 19.1026 9.78085 19.3113 9.69028C19.52 9.59971 19.7451 9.5536 19.9724 9.55486L20.0305 9.55778C20.2477 9.56817 20.4608 9.62154 20.6575 9.71485C20.8541 9.80816 21.0306 9.93957 21.1766 10.1015C21.4986 10.4554 21.6744 10.9194 21.668 11.399L21.6221 17.0851Z" fill="black"/>
<path d="M22.1251 9.10231C21.744 8.68553 21.2539 8.38504 20.7109 8.23521L20.7266 6.00813C20.7405 4.98784 20.366 4.00078 19.6799 3.24897C19.3555 2.88879 18.9607 2.59981 18.5201 2.4001C18.0795 2.2004 17.6027 2.09427 17.1195 2.08836L7.12288 2.00007C6.63957 1.99692 6.16086 2.09465 5.71705 2.28707C5.27323 2.4795 4.87396 2.76244 4.54449 3.118C3.84836 3.85905 3.46037 4.83968 3.45999 5.85903L3.4437 8.06565C2.87293 8.19813 2.35405 8.49785 1.95273 8.9269C1.37024 9.54688 1.04532 10.3672 1.04442 11.2201L1.00139 16.9097C0.980279 17.5212 1.20039 18.1163 1.61375 18.5653C2.02711 19.0143 2.60022 19.2809 3.2082 19.3069H3.42103L3.40707 21.0902C3.40031 21.2845 3.47036 21.4735 3.60191 21.616C3.73345 21.7584 3.91576 21.8427 4.10894 21.8503C4.26862 21.8482 4.42301 21.7924 4.54763 21.692C4.67225 21.5916 4.75996 21.4523 4.79686 21.296L5.30451 19.3291L5.73483 19.3321L16.859 19.4285L19.3333 19.4513L19.8119 21.434C19.8458 21.5909 19.931 21.7319 20.0539 21.8345C20.1768 21.937 20.3303 21.9953 20.4899 22C20.5857 21.9978 20.6802 21.9766 20.7678 21.9377C20.8555 21.8988 20.9347 21.8428 21.0008 21.7731C21.067 21.7034 21.1188 21.6212 21.1534 21.5313C21.188 21.4415 21.2046 21.3456 21.2022 21.2493L21.2162 19.4034C21.6285 19.3061 22.003 19.0885 22.2926 18.7778C22.7184 18.3241 22.956 17.7241 22.9566 17.1003L22.9997 11.4118C23.0117 10.5579 22.6992 9.73165 22.1251 9.10231ZM4.79221 5.86897C4.79245 5.22358 5.03815 4.60272 5.47897 4.13361C5.6868 3.90771 5.93934 3.72802 6.22034 3.60608C6.50135 3.48414 6.80462 3.42264 7.11066 3.42555L17.1125 3.51091C17.4187 3.51466 17.7208 3.58198 17.9999 3.70866C18.279 3.83533 18.529 4.01862 18.7343 4.24704C19.1676 4.72315 19.4037 5.34765 19.3943 5.99293L19.3769 8.1861C19.2891 8.20306 19.2024 8.22937 19.1135 8.25451L19.0635 8.27088C18.9914 8.29368 18.9198 8.32175 18.8506 8.3504C18.8326 8.35917 18.8157 8.36502 18.7977 8.3732C18.6289 8.44832 18.4672 8.53853 18.3145 8.64274C18.2965 8.65736 18.2773 8.67081 18.2563 8.6825C18.1982 8.72577 18.14 8.76787 18.0865 8.81347C18.0685 8.83043 18.0464 8.84797 18.0284 8.86434C17.9592 8.9269 17.8906 8.98947 17.8237 9.05787C17.4632 9.43751 17.1987 9.89874 17.0526 10.4027C16.9635 10.7105 16.9171 11.0292 16.9148 11.3499V11.3551V11.7679C16.9047 11.7627 16.8939 11.7588 16.8828 11.7562C16.8381 11.7369 16.7898 11.7194 16.745 11.7024C16.7241 11.6936 16.7028 11.686 16.681 11.6796C16.6113 11.6573 16.5402 11.6393 16.4682 11.6258H16.4601L16.4362 11.62L16.3083 11.5972V11.6001L15.6064 11.4832C15.4866 11.4668 15.3698 11.4493 15.2575 11.4352L15.1226 11.4183L14.376 11.3335C14.1922 11.3165 14.0067 11.299 13.823 11.2855C13.5281 11.2627 13.2327 11.2458 12.935 11.2318C12.8234 11.2259 12.7117 11.223 12.6024 11.2201C12.2459 11.2084 11.8895 11.2084 11.5318 11.2142C11.3719 11.2171 11.2126 11.2171 11.0533 11.223L10.7765 11.2318H10.7625C10.6666 11.2347 10.5689 11.2405 10.4718 11.2464C10.3746 11.2522 10.2781 11.2581 10.181 11.2627C10.0839 11.2674 9.98736 11.2774 9.89374 11.2826L9.20291 11.3452H9.19186C9.01102 11.3616 8.82726 11.3849 8.64758 11.4037C8.57373 11.4124 8.49871 11.42 8.42719 11.4317L7.78753 11.5259V11.5229L7.61774 11.5516H7.60378H7.59273C7.52281 11.5633 7.45368 11.5793 7.38572 11.5995C7.36478 11.6054 7.34268 11.6141 7.31884 11.6223L7.17521 11.6732C7.16416 11.679 7.15137 11.682 7.14032 11.6878V11.2645C7.15337 10.4109 6.84131 9.58467 6.26807 8.95497C6.17805 8.85698 6.08086 8.7659 5.97731 8.6825C5.95108 8.65908 5.92351 8.63721 5.89474 8.61702C5.80695 8.54764 5.71552 8.48303 5.62085 8.42348C5.60515 8.41179 5.58596 8.40127 5.57084 8.38957C5.46196 8.3242 5.34845 8.26695 5.23125 8.21826L5.14344 8.18376C5.04703 8.14555 4.94838 8.11333 4.84803 8.08729C4.82928 8.07965 4.80979 8.07397 4.78988 8.07033L4.79221 5.86897ZM7.09903 14.851L7.10718 13.8301C7.10397 13.626 7.17266 13.4273 7.3011 13.2691C7.42955 13.111 7.60947 13.0036 7.80905 12.9659L7.83813 12.9601L8.57489 12.8513L8.78481 12.8262C8.95926 12.8034 9.13837 12.7829 9.31398 12.7677L9.97282 12.7093C10.0635 12.7034 10.1566 12.6946 10.2496 12.69C10.2897 12.687 10.3293 12.6841 10.3694 12.6841L10.5264 12.6754C10.6171 12.6695 10.7073 12.6666 10.798 12.6607L11.0765 12.649C11.3213 12.6403 11.5679 12.6374 11.8127 12.6374C12.0575 12.6374 12.3047 12.6403 12.5495 12.649C12.6553 12.652 12.7594 12.6549 12.8652 12.6607C13.1467 12.6724 13.4287 12.6888 13.7107 12.7116C13.8852 12.7262 14.0596 12.7397 14.237 12.7572L15.079 12.8572C15.1877 12.8718 15.2947 12.8853 15.4035 12.9028C15.413 12.9052 15.4228 12.9062 15.4326 12.9057L16.2112 13.0338H16.2193C16.415 13.0782 16.5892 13.1895 16.7123 13.3487C16.8354 13.5079 16.8998 13.7051 16.8945 13.9067L16.8863 14.9305L13.2397 14.8989L7.09903 14.851ZM3.2175 17.8826C2.97362 17.8724 2.74366 17.7656 2.57783 17.5855C2.41201 17.4054 2.32379 17.1667 2.33245 16.9214L2.37548 11.2329C2.37503 10.754 2.55808 10.2933 2.88662 9.9466C3.04022 9.78129 3.22583 9.64932 3.43204 9.55882C3.63824 9.46833 3.86069 9.42121 4.08568 9.42038H4.09964C4.32694 9.42324 4.5512 9.47321 4.75842 9.56717C4.96563 9.66114 5.15134 9.79707 5.30393 9.96648C5.62592 10.3204 5.80182 10.7843 5.79589 11.2639V11.2967L5.77553 13.8196L5.75751 16.2665L5.74413 17.9037L3.2175 17.8826ZM7.07694 17.9142L7.08508 17.0155L7.09089 16.2765L11.9261 16.3197L16.8828 16.3624V16.5378L16.8718 17.9995L7.07694 17.9142ZM21.6221 17.0851C21.6273 17.329 21.5367 17.5652 21.37 17.7425C21.2032 17.9198 20.9737 18.0239 20.7312 18.0323H20.7231L18.1976 18.0095L18.2116 16.3724L18.2168 15.5538L18.2488 11.3674C18.2486 10.8886 18.4316 10.428 18.7599 10.0811C18.9149 9.91391 19.1026 9.78085 19.3113 9.69028C19.52 9.59971 19.7451 9.5536 19.9724 9.55486L20.0305 9.55778C20.2477 9.56817 20.4608 9.62154 20.6575 9.71485C20.8541 9.80816 21.0306 9.93957 21.1766 10.1015C21.4986 10.4554 21.6744 10.9194 21.668 11.399L21.6221 17.0851Z" fill="black" fill-opacity="0.2"/>
<path d="M22.1251 9.10231C21.744 8.68553 21.2539 8.38504 20.7109 8.23521L20.7266 6.00813C20.7405 4.98784 20.366 4.00078 19.6799 3.24897C19.3555 2.88879 18.9607 2.59981 18.5201 2.4001C18.0795 2.2004 17.6027 2.09427 17.1195 2.08836L7.12288 2.00007C6.63957 1.99692 6.16086 2.09465 5.71705 2.28707C5.27323 2.4795 4.87396 2.76244 4.54449 3.118C3.84836 3.85905 3.46037 4.83968 3.45999 5.85903L3.4437 8.06565C2.87293 8.19813 2.35405 8.49785 1.95273 8.9269C1.37024 9.54688 1.04532 10.3672 1.04442 11.2201L1.00139 16.9097C0.980279 17.5212 1.20039 18.1163 1.61375 18.5653C2.02711 19.0143 2.60022 19.2809 3.2082 19.3069H3.42103L3.40707 21.0902C3.40031 21.2845 3.47036 21.4735 3.60191 21.616C3.73345 21.7584 3.91576 21.8427 4.10894 21.8503C4.26862 21.8482 4.42301 21.7924 4.54763 21.692C4.67225 21.5916 4.75996 21.4523 4.79686 21.296L5.30451 19.3291L5.73483 19.3321L16.859 19.4285L19.3333 19.4513L19.8119 21.434C19.8458 21.5909 19.931 21.7319 20.0539 21.8345C20.1768 21.937 20.3303 21.9953 20.4899 22C20.5857 21.9978 20.6802 21.9766 20.7678 21.9377C20.8555 21.8988 20.9347 21.8428 21.0008 21.7731C21.067 21.7034 21.1188 21.6212 21.1534 21.5313C21.188 21.4415 21.2046 21.3456 21.2022 21.2493L21.2162 19.4034C21.6285 19.3061 22.003 19.0885 22.2926 18.7778C22.7184 18.3241 22.956 17.7241 22.9566 17.1003L22.9997 11.4118C23.0117 10.5579 22.6992 9.73165 22.1251 9.10231ZM4.79221 5.86897C4.79245 5.22358 5.03815 4.60272 5.47897 4.13361C5.6868 3.90771 5.93934 3.72802 6.22034 3.60608C6.50135 3.48414 6.80462 3.42264 7.11066 3.42555L17.1125 3.51091C17.4187 3.51466 17.7208 3.58198 17.9999 3.70866C18.279 3.83533 18.529 4.01862 18.7343 4.24704C19.1676 4.72315 19.4037 5.34765 19.3943 5.99293L19.3769 8.1861C19.2891 8.20306 19.2024 8.22937 19.1135 8.25451L19.0635 8.27088C18.9914 8.29368 18.9198 8.32175 18.8506 8.3504C18.8326 8.35917 18.8157 8.36502 18.7977 8.3732C18.6289 8.44832 18.4672 8.53853 18.3145 8.64274C18.2965 8.65736 18.2773 8.67081 18.2563 8.6825C18.1982 8.72577 18.14 8.76787 18.0865 8.81347C18.0685 8.83043 18.0464 8.84797 18.0284 8.86434C17.9592 8.9269 17.8906 8.98947 17.8237 9.05787C17.4632 9.43751 17.1987 9.89874 17.0526 10.4027C16.9635 10.7105 16.9171 11.0292 16.9148 11.3499V11.3551V11.7679C16.9047 11.7627 16.8939 11.7588 16.8828 11.7562C16.8381 11.7369 16.7898 11.7194 16.745 11.7024C16.7241 11.6936 16.7028 11.686 16.681 11.6796C16.6113 11.6573 16.5402 11.6393 16.4682 11.6258H16.4601L16.4362 11.62L16.3083 11.5972V11.6001L15.6064 11.4832C15.4866 11.4668 15.3698 11.4493 15.2575 11.4352L15.1226 11.4183L14.376 11.3335C14.1922 11.3165 14.0067 11.299 13.823 11.2855C13.5281 11.2627 13.2327 11.2458 12.935 11.2318C12.8234 11.2259 12.7117 11.223 12.6024 11.2201C12.2459 11.2084 11.8895 11.2084 11.5318 11.2142C11.3719 11.2171 11.2126 11.2171 11.0533 11.223L10.7765 11.2318H10.7625C10.6666 11.2347 10.5689 11.2405 10.4718 11.2464C10.3746 11.2522 10.2781 11.2581 10.181 11.2627C10.0839 11.2674 9.98736 11.2774 9.89374 11.2826L9.20291 11.3452H9.19186C9.01102 11.3616 8.82726 11.3849 8.64758 11.4037C8.57373 11.4124 8.49871 11.42 8.42719 11.4317L7.78753 11.5259V11.5229L7.61774 11.5516H7.60378H7.59273C7.52281 11.5633 7.45368 11.5793 7.38572 11.5995C7.36478 11.6054 7.34268 11.6141 7.31884 11.6223L7.17521 11.6732C7.16416 11.679 7.15137 11.682 7.14032 11.6878V11.2645C7.15337 10.4109 6.84131 9.58467 6.26807 8.95497C6.17805 8.85698 6.08086 8.7659 5.97731 8.6825C5.95108 8.65908 5.92351 8.63721 5.89474 8.61702C5.80695 8.54764 5.71552 8.48303 5.62085 8.42348C5.60515 8.41179 5.58596 8.40127 5.57084 8.38957C5.46196 8.3242 5.34845 8.26695 5.23125 8.21826L5.14344 8.18376C5.04703 8.14555 4.94838 8.11333 4.84803 8.08729C4.82928 8.07965 4.80979 8.07397 4.78988 8.07033L4.79221 5.86897ZM7.09903 14.851L7.10718 13.8301C7.10397 13.626 7.17266 13.4273 7.3011 13.2691C7.42955 13.111 7.60947 13.0036 7.80905 12.9659L7.83813 12.9601L8.57489 12.8513L8.78481 12.8262C8.95926 12.8034 9.13837 12.7829 9.31398 12.7677L9.97282 12.7093C10.0635 12.7034 10.1566 12.6946 10.2496 12.69C10.2897 12.687 10.3293 12.6841 10.3694 12.6841L10.5264 12.6754C10.6171 12.6695 10.7073 12.6666 10.798 12.6607L11.0765 12.649C11.3213 12.6403 11.5679 12.6374 11.8127 12.6374C12.0575 12.6374 12.3047 12.6403 12.5495 12.649C12.6553 12.652 12.7594 12.6549 12.8652 12.6607C13.1467 12.6724 13.4287 12.6888 13.7107 12.7116C13.8852 12.7262 14.0596 12.7397 14.237 12.7572L15.079 12.8572C15.1877 12.8718 15.2947 12.8853 15.4035 12.9028C15.413 12.9052 15.4228 12.9062 15.4326 12.9057L16.2112 13.0338H16.2193C16.415 13.0782 16.5892 13.1895 16.7123 13.3487C16.8354 13.5079 16.8998 13.7051 16.8945 13.9067L16.8863 14.9305L13.2397 14.8989L7.09903 14.851ZM3.2175 17.8826C2.97362 17.8724 2.74366 17.7656 2.57783 17.5855C2.41201 17.4054 2.32379 17.1667 2.33245 16.9214L2.37548 11.2329C2.37503 10.754 2.55808 10.2933 2.88662 9.9466C3.04022 9.78129 3.22583 9.64932 3.43204 9.55882C3.63824 9.46833 3.86069 9.42121 4.08568 9.42038H4.09964C4.32694 9.42324 4.5512 9.47321 4.75842 9.56717C4.96563 9.66114 5.15134 9.79707 5.30393 9.96648C5.62592 10.3204 5.80182 10.7843 5.79589 11.2639V11.2967L5.77553 13.8196L5.75751 16.2665L5.74413 17.9037L3.2175 17.8826ZM7.07694 17.9142L7.08508 17.0155L7.09089 16.2765L11.9261 16.3197L16.8828 16.3624V16.5378L16.8718 17.9995L7.07694 17.9142ZM21.6221 17.0851C21.6273 17.329 21.5367 17.5652 21.37 17.7425C21.2032 17.9198 20.9737 18.0239 20.7312 18.0323H20.7231L18.1976 18.0095L18.2116 16.3724L18.2168 15.5538L18.2488 11.3674C18.2486 10.8886 18.4316 10.428 18.7599 10.0811C18.9149 9.91391 19.1026 9.78085 19.3113 9.69028C19.52 9.59971 19.7451 9.5536 19.9724 9.55486L20.0305 9.55778C20.2477 9.56817 20.4608 9.62154 20.6575 9.71485C20.8541 9.80816 21.0306 9.93957 21.1766 10.1015C21.4986 10.4554 21.6744 10.9194 21.668 11.399L21.6221 17.0851Z" fill="black" fill-opacity="0.2"/>
<path d="M22.1251 9.10231C21.744 8.68553 21.2539 8.38504 20.7109 8.23521L20.7266 6.00813C20.7405 4.98784 20.366 4.00078 19.6799 3.24897C19.3555 2.88879 18.9607 2.59981 18.5201 2.4001C18.0795 2.2004 17.6027 2.09427 17.1195 2.08836L7.12288 2.00007C6.63957 1.99692 6.16086 2.09465 5.71705 2.28707C5.27323 2.4795 4.87396 2.76244 4.54449 3.118C3.84836 3.85905 3.46037 4.83968 3.45999 5.85903L3.4437 8.06565C2.87293 8.19813 2.35405 8.49785 1.95273 8.9269C1.37024 9.54688 1.04532 10.3672 1.04442 11.2201L1.00139 16.9097C0.980279 17.5212 1.20039 18.1163 1.61375 18.5653C2.02711 19.0143 2.60022 19.2809 3.2082 19.3069H3.42103L3.40707 21.0902C3.40031 21.2845 3.47036 21.4735 3.60191 21.616C3.73345 21.7584 3.91576 21.8427 4.10894 21.8503C4.26862 21.8482 4.42301 21.7924 4.54763 21.692C4.67225 21.5916 4.75996 21.4523 4.79686 21.296L5.30451 19.3291L5.73483 19.3321L16.859 19.4285L19.3333 19.4513L19.8119 21.434C19.8458 21.5909 19.931 21.7319 20.0539 21.8345C20.1768 21.937 20.3303 21.9953 20.4899 22C20.5857 21.9978 20.6802 21.9766 20.7678 21.9377C20.8555 21.8988 20.9347 21.8428 21.0008 21.7731C21.067 21.7034 21.1188 21.6212 21.1534 21.5313C21.188 21.4415 21.2046 21.3456 21.2022 21.2493L21.2162 19.4034C21.6285 19.3061 22.003 19.0885 22.2926 18.7778C22.7184 18.3241 22.956 17.7241 22.9566 17.1003L22.9997 11.4118C23.0117 10.5579 22.6992 9.73165 22.1251 9.10231ZM4.79221 5.86897C4.79245 5.22358 5.03815 4.60272 5.47897 4.13361C5.6868 3.90771 5.93934 3.72802 6.22034 3.60608C6.50135 3.48414 6.80462 3.42264 7.11066 3.42555L17.1125 3.51091C17.4187 3.51466 17.7208 3.58198 17.9999 3.70866C18.279 3.83533 18.529 4.01862 18.7343 4.24704C19.1676 4.72315 19.4037 5.34765 19.3943 5.99293L19.3769 8.1861C19.2891 8.20306 19.2024 8.22937 19.1135 8.25451L19.0635 8.27088C18.9914 8.29368 18.9198 8.32175 18.8506 8.3504C18.8326 8.35917 18.8157 8.36502 18.7977 8.3732C18.6289 8.44832 18.4672 8.53853 18.3145 8.64274C18.2965 8.65736 18.2773 8.67081 18.2563 8.6825C18.1982 8.72577 18.14 8.76787 18.0865 8.81347C18.0685 8.83043 18.0464 8.84797 18.0284 8.86434C17.9592 8.9269 17.8906 8.98947 17.8237 9.05787C17.4632 9.43751 17.1987 9.89874 17.0526 10.4027C16.9635 10.7105 16.9171 11.0292 16.9148 11.3499V11.3551V11.7679C16.9047 11.7627 16.8939 11.7588 16.8828 11.7562C16.8381 11.7369 16.7898 11.7194 16.745 11.7024C16.7241 11.6936 16.7028 11.686 16.681 11.6796C16.6113 11.6573 16.5402 11.6393 16.4682 11.6258H16.4601L16.4362 11.62L16.3083 11.5972V11.6001L15.6064 11.4832C15.4866 11.4668 15.3698 11.4493 15.2575 11.4352L15.1226 11.4183L14.376 11.3335C14.1922 11.3165 14.0067 11.299 13.823 11.2855C13.5281 11.2627 13.2327 11.2458 12.935 11.2318C12.8234 11.2259 12.7117 11.223 12.6024 11.2201C12.2459 11.2084 11.8895 11.2084 11.5318 11.2142C11.3719 11.2171 11.2126 11.2171 11.0533 11.223L10.7765 11.2318H10.7625C10.6666 11.2347 10.5689 11.2405 10.4718 11.2464C10.3746 11.2522 10.2781 11.2581 10.181 11.2627C10.0839 11.2674 9.98736 11.2774 9.89374 11.2826L9.20291 11.3452H9.19186C9.01102 11.3616 8.82726 11.3849 8.64758 11.4037C8.57373 11.4124 8.49871 11.42 8.42719 11.4317L7.78753 11.5259V11.5229L7.61774 11.5516H7.60378H7.59273C7.52281 11.5633 7.45368 11.5793 7.38572 11.5995C7.36478 11.6054 7.34268 11.6141 7.31884 11.6223L7.17521 11.6732C7.16416 11.679 7.15137 11.682 7.14032 11.6878V11.2645C7.15337 10.4109 6.84131 9.58467 6.26807 8.95497C6.17805 8.85698 6.08086 8.7659 5.97731 8.6825C5.95108 8.65908 5.92351 8.63721 5.89474 8.61702C5.80695 8.54764 5.71552 8.48303 5.62085 8.42348C5.60515 8.41179 5.58596 8.40127 5.57084 8.38957C5.46196 8.3242 5.34845 8.26695 5.23125 8.21826L5.14344 8.18376C5.04703 8.14555 4.94838 8.11333 4.84803 8.08729C4.82928 8.07965 4.80979 8.07397 4.78988 8.07033L4.79221 5.86897ZM7.09903 14.851L7.10718 13.8301C7.10397 13.626 7.17266 13.4273 7.3011 13.2691C7.42955 13.111 7.60947 13.0036 7.80905 12.9659L7.83813 12.9601L8.57489 12.8513L8.78481 12.8262C8.95926 12.8034 9.13837 12.7829 9.31398 12.7677L9.97282 12.7093C10.0635 12.7034 10.1566 12.6946 10.2496 12.69C10.2897 12.687 10.3293 12.6841 10.3694 12.6841L10.5264 12.6754C10.6171 12.6695 10.7073 12.6666 10.798 12.6607L11.0765 12.649C11.3213 12.6403 11.5679 12.6374 11.8127 12.6374C12.0575 12.6374 12.3047 12.6403 12.5495 12.649C12.6553 12.652 12.7594 12.6549 12.8652 12.6607C13.1467 12.6724 13.4287 12.6888 13.7107 12.7116C13.8852 12.7262 14.0596 12.7397 14.237 12.7572L15.079 12.8572C15.1877 12.8718 15.2947 12.8853 15.4035 12.9028C15.413 12.9052 15.4228 12.9062 15.4326 12.9057L16.2112 13.0338H16.2193C16.415 13.0782 16.5892 13.1895 16.7123 13.3487C16.8354 13.5079 16.8998 13.7051 16.8945 13.9067L16.8863 14.9305L13.2397 14.8989L7.09903 14.851ZM3.2175 17.8826C2.97362 17.8724 2.74366 17.7656 2.57783 17.5855C2.41201 17.4054 2.32379 17.1667 2.33245 16.9214L2.37548 11.2329C2.37503 10.754 2.55808 10.2933 2.88662 9.9466C3.04022 9.78129 3.22583 9.64932 3.43204 9.55882C3.63824 9.46833 3.86069 9.42121 4.08568 9.42038H4.09964C4.32694 9.42324 4.5512 9.47321 4.75842 9.56717C4.96563 9.66114 5.15134 9.79707 5.30393 9.96648C5.62592 10.3204 5.80182 10.7843 5.79589 11.2639V11.2967L5.77553 13.8196L5.75751 16.2665L5.74413 17.9037L3.2175 17.8826ZM7.07694 17.9142L7.08508 17.0155L7.09089 16.2765L11.9261 16.3197L16.8828 16.3624V16.5378L16.8718 17.9995L7.07694 17.9142ZM21.6221 17.0851C21.6273 17.329 21.5367 17.5652 21.37 17.7425C21.2032 17.9198 20.9737 18.0239 20.7312 18.0323H20.7231L18.1976 18.0095L18.2116 16.3724L18.2168 15.5538L18.2488 11.3674C18.2486 10.8886 18.4316 10.428 18.7599 10.0811C18.9149 9.91391 19.1026 9.78085 19.3113 9.69028C19.52 9.59971 19.7451 9.5536 19.9724 9.55486L20.0305 9.55778C20.2477 9.56817 20.4608 9.62154 20.6575 9.71485C20.8541 9.80816 21.0306 9.93957 21.1766 10.1015C21.4986 10.4554 21.6744 10.9194 21.668 11.399L21.6221 17.0851Z" fill="black" fill-opacity="0.2"/>
<path d="M22.1251 9.10231C21.744 8.68553 21.2539 8.38504 20.7109 8.23521L20.7266 6.00813C20.7405 4.98784 20.366 4.00078 19.6799 3.24897C19.3555 2.88879 18.9607 2.59981 18.5201 2.4001C18.0795 2.2004 17.6027 2.09427 17.1195 2.08836L7.12288 2.00007C6.63957 1.99692 6.16086 2.09465 5.71705 2.28707C5.27323 2.4795 4.87396 2.76244 4.54449 3.118C3.84836 3.85905 3.46037 4.83968 3.45999 5.85903L3.4437 8.06565C2.87293 8.19813 2.35405 8.49785 1.95273 8.9269C1.37024 9.54688 1.04532 10.3672 1.04442 11.2201L1.00139 16.9097C0.980279 17.5212 1.20039 18.1163 1.61375 18.5653C2.02711 19.0143 2.60022 19.2809 3.2082 19.3069H3.42103L3.40707 21.0902C3.40031 21.2845 3.47036 21.4735 3.60191 21.616C3.73345 21.7584 3.91576 21.8427 4.10894 21.8503C4.26862 21.8482 4.42301 21.7924 4.54763 21.692C4.67225 21.5916 4.75996 21.4523 4.79686 21.296L5.30451 19.3291L5.73483 19.3321L16.859 19.4285L19.3333 19.4513L19.8119 21.434C19.8458 21.5909 19.931 21.7319 20.0539 21.8345C20.1768 21.937 20.3303 21.9953 20.4899 22C20.5857 21.9978 20.6802 21.9766 20.7678 21.9377C20.8555 21.8988 20.9347 21.8428 21.0008 21.7731C21.067 21.7034 21.1188 21.6212 21.1534 21.5313C21.188 21.4415 21.2046 21.3456 21.2022 21.2493L21.2162 19.4034C21.6285 19.3061 22.003 19.0885 22.2926 18.7778C22.7184 18.3241 22.956 17.7241 22.9566 17.1003L22.9997 11.4118C23.0117 10.5579 22.6992 9.73165 22.1251 9.10231ZM4.79221 5.86897C4.79245 5.22358 5.03815 4.60272 5.47897 4.13361C5.6868 3.90771 5.93934 3.72802 6.22034 3.60608C6.50135 3.48414 6.80462 3.42264 7.11066 3.42555L17.1125 3.51091C17.4187 3.51466 17.7208 3.58198 17.9999 3.70866C18.279 3.83533 18.529 4.01862 18.7343 4.24704C19.1676 4.72315 19.4037 5.34765 19.3943 5.99293L19.3769 8.1861C19.2891 8.20306 19.2024 8.22937 19.1135 8.25451L19.0635 8.27088C18.9914 8.29368 18.9198 8.32175 18.8506 8.3504C18.8326 8.35917 18.8157 8.36502 18.7977 8.3732C18.6289 8.44832 18.4672 8.53853 18.3145 8.64274C18.2965 8.65736 18.2773 8.67081 18.2563 8.6825C18.1982 8.72577 18.14 8.76787 18.0865 8.81347C18.0685 8.83043 18.0464 8.84797 18.0284 8.86434C17.9592 8.9269 17.8906 8.98947 17.8237 9.05787C17.4632 9.43751 17.1987 9.89874 17.0526 10.4027C16.9635 10.7105 16.9171 11.0292 16.9148 11.3499V11.3551V11.7679C16.9047 11.7627 16.8939 11.7588 16.8828 11.7562C16.8381 11.7369 16.7898 11.7194 16.745 11.7024C16.7241 11.6936 16.7028 11.686 16.681 11.6796C16.6113 11.6573 16.5402 11.6393 16.4682 11.6258H16.4601L16.4362 11.62L16.3083 11.5972V11.6001L15.6064 11.4832C15.4866 11.4668 15.3698 11.4493 15.2575 11.4352L15.1226 11.4183L14.376 11.3335C14.1922 11.3165 14.0067 11.299 13.823 11.2855C13.5281 11.2627 13.2327 11.2458 12.935 11.2318C12.8234 11.2259 12.7117 11.223 12.6024 11.2201C12.2459 11.2084 11.8895 11.2084 11.5318 11.2142C11.3719 11.2171 11.2126 11.2171 11.0533 11.223L10.7765 11.2318H10.7625C10.6666 11.2347 10.5689 11.2405 10.4718 11.2464C10.3746 11.2522 10.2781 11.2581 10.181 11.2627C10.0839 11.2674 9.98736 11.2774 9.89374 11.2826L9.20291 11.3452H9.19186C9.01102 11.3616 8.82726 11.3849 8.64758 11.4037C8.57373 11.4124 8.49871 11.42 8.42719 11.4317L7.78753 11.5259V11.5229L7.61774 11.5516H7.60378H7.59273C7.52281 11.5633 7.45368 11.5793 7.38572 11.5995C7.36478 11.6054 7.34268 11.6141 7.31884 11.6223L7.17521 11.6732C7.16416 11.679 7.15137 11.682 7.14032 11.6878V11.2645C7.15337 10.4109 6.84131 9.58467 6.26807 8.95497C6.17805 8.85698 6.08086 8.7659 5.97731 8.6825C5.95108 8.65908 5.92351 8.63721 5.89474 8.61702C5.80695 8.54764 5.71552 8.48303 5.62085 8.42348C5.60515 8.41179 5.58596 8.40127 5.57084 8.38957C5.46196 8.3242 5.34845 8.26695 5.23125 8.21826L5.14344 8.18376C5.04703 8.14555 4.94838 8.11333 4.84803 8.08729C4.82928 8.07965 4.80979 8.07397 4.78988 8.07033L4.79221 5.86897ZM7.09903 14.851L7.10718 13.8301C7.10397 13.626 7.17266 13.4273 7.3011 13.2691C7.42955 13.111 7.60947 13.0036 7.80905 12.9659L7.83813 12.9601L8.57489 12.8513L8.78481 12.8262C8.95926 12.8034 9.13837 12.7829 9.31398 12.7677L9.97282 12.7093C10.0635 12.7034 10.1566 12.6946 10.2496 12.69C10.2897 12.687 10.3293 12.6841 10.3694 12.6841L10.5264 12.6754C10.6171 12.6695 10.7073 12.6666 10.798 12.6607L11.0765 12.649C11.3213 12.6403 11.5679 12.6374 11.8127 12.6374C12.0575 12.6374 12.3047 12.6403 12.5495 12.649C12.6553 12.652 12.7594 12.6549 12.8652 12.6607C13.1467 12.6724 13.4287 12.6888 13.7107 12.7116C13.8852 12.7262 14.0596 12.7397 14.237 12.7572L15.079 12.8572C15.1877 12.8718 15.2947 12.8853 15.4035 12.9028C15.413 12.9052 15.4228 12.9062 15.4326 12.9057L16.2112 13.0338H16.2193C16.415 13.0782 16.5892 13.1895 16.7123 13.3487C16.8354 13.5079 16.8998 13.7051 16.8945 13.9067L16.8863 14.9305L13.2397 14.8989L7.09903 14.851ZM3.2175 17.8826C2.97362 17.8724 2.74366 17.7656 2.57783 17.5855C2.41201 17.4054 2.32379 17.1667 2.33245 16.9214L2.37548 11.2329C2.37503 10.754 2.55808 10.2933 2.88662 9.9466C3.04022 9.78129 3.22583 9.64932 3.43204 9.55882C3.63824 9.46833 3.86069 9.42121 4.08568 9.42038H4.09964C4.32694 9.42324 4.5512 9.47321 4.75842 9.56717C4.96563 9.66114 5.15134 9.79707 5.30393 9.96648C5.62592 10.3204 5.80182 10.7843 5.79589 11.2639V11.2967L5.77553 13.8196L5.75751 16.2665L5.74413 17.9037L3.2175 17.8826ZM7.07694 17.9142L7.08508 17.0155L7.09089 16.2765L11.9261 16.3197L16.8828 16.3624V16.5378L16.8718 17.9995L7.07694 17.9142ZM21.6221 17.0851C21.6273 17.329 21.5367 17.5652 21.37 17.7425C21.2032 17.9198 20.9737 18.0239 20.7312 18.0323H20.7231L18.1976 18.0095L18.2116 16.3724L18.2168 15.5538L18.2488 11.3674C18.2486 10.8886 18.4316 10.428 18.7599 10.0811C18.9149 9.91391 19.1026 9.78085 19.3113 9.69028C19.52 9.59971 19.7451 9.5536 19.9724 9.55486L20.0305 9.55778C20.2477 9.56817 20.4608 9.62154 20.6575 9.71485C20.8541 9.80816 21.0306 9.93957 21.1766 10.1015C21.4986 10.4554 21.6744 10.9194 21.668 11.399L21.6221 17.0851Z" fill="black" fill-opacity="0.2"/>
<path d="M22.1251 9.10231C21.744 8.68553 21.2539 8.38504 20.7109 8.23521L20.7266 6.00813C20.7405 4.98784 20.366 4.00078 19.6799 3.24897C19.3555 2.88879 18.9607 2.59981 18.5201 2.4001C18.0795 2.2004 17.6027 2.09427 17.1195 2.08836L7.12288 2.00007C6.63957 1.99692 6.16086 2.09465 5.71705 2.28707C5.27323 2.4795 4.87396 2.76244 4.54449 3.118C3.84836 3.85905 3.46037 4.83968 3.45999 5.85903L3.4437 8.06565C2.87293 8.19813 2.35405 8.49785 1.95273 8.9269C1.37024 9.54688 1.04532 10.3672 1.04442 11.2201L1.00139 16.9097C0.980279 17.5212 1.20039 18.1163 1.61375 18.5653C2.02711 19.0143 2.60022 19.2809 3.2082 19.3069H3.42103L3.40707 21.0902C3.40031 21.2845 3.47036 21.4735 3.60191 21.616C3.73345 21.7584 3.91576 21.8427 4.10894 21.8503C4.26862 21.8482 4.42301 21.7924 4.54763 21.692C4.67225 21.5916 4.75996 21.4523 4.79686 21.296L5.30451 19.3291L5.73483 19.3321L16.859 19.4285L19.3333 19.4513L19.8119 21.434C19.8458 21.5909 19.931 21.7319 20.0539 21.8345C20.1768 21.937 20.3303 21.9953 20.4899 22C20.5857 21.9978 20.6802 21.9766 20.7678 21.9377C20.8555 21.8988 20.9347 21.8428 21.0008 21.7731C21.067 21.7034 21.1188 21.6212 21.1534 21.5313C21.188 21.4415 21.2046 21.3456 21.2022 21.2493L21.2162 19.4034C21.6285 19.3061 22.003 19.0885 22.2926 18.7778C22.7184 18.3241 22.956 17.7241 22.9566 17.1003L22.9997 11.4118C23.0117 10.5579 22.6992 9.73165 22.1251 9.10231ZM4.79221 5.86897C4.79245 5.22358 5.03815 4.60272 5.47897 4.13361C5.6868 3.90771 5.93934 3.72802 6.22034 3.60608C6.50135 3.48414 6.80462 3.42264 7.11066 3.42555L17.1125 3.51091C17.4187 3.51466 17.7208 3.58198 17.9999 3.70866C18.279 3.83533 18.529 4.01862 18.7343 4.24704C19.1676 4.72315 19.4037 5.34765 19.3943 5.99293L19.3769 8.1861C19.2891 8.20306 19.2024 8.22937 19.1135 8.25451L19.0635 8.27088C18.9914 8.29368 18.9198 8.32175 18.8506 8.3504C18.8326 8.35917 18.8157 8.36502 18.7977 8.3732C18.6289 8.44832 18.4672 8.53853 18.3145 8.64274C18.2965 8.65736 18.2773 8.67081 18.2563 8.6825C18.1982 8.72577 18.14 8.76787 18.0865 8.81347C18.0685 8.83043 18.0464 8.84797 18.0284 8.86434C17.9592 8.9269 17.8906 8.98947 17.8237 9.05787C17.4632 9.43751 17.1987 9.89874 17.0526 10.4027C16.9635 10.7105 16.9171 11.0292 16.9148 11.3499V11.3551V11.7679C16.9047 11.7627 16.8939 11.7588 16.8828 11.7562C16.8381 11.7369 16.7898 11.7194 16.745 11.7024C16.7241 11.6936 16.7028 11.686 16.681 11.6796C16.6113 11.6573 16.5402 11.6393 16.4682 11.6258H16.4601L16.4362 11.62L16.3083 11.5972V11.6001L15.6064 11.4832C15.4866 11.4668 15.3698 11.4493 15.2575 11.4352L15.1226 11.4183L14.376 11.3335C14.1922 11.3165 14.0067 11.299 13.823 11.2855C13.5281 11.2627 13.2327 11.2458 12.935 11.2318C12.8234 11.2259 12.7117 11.223 12.6024 11.2201C12.2459 11.2084 11.8895 11.2084 11.5318 11.2142C11.3719 11.2171 11.2126 11.2171 11.0533 11.223L10.7765 11.2318H10.7625C10.6666 11.2347 10.5689 11.2405 10.4718 11.2464C10.3746 11.2522 10.2781 11.2581 10.181 11.2627C10.0839 11.2674 9.98736 11.2774 9.89374 11.2826L9.20291 11.3452H9.19186C9.01102 11.3616 8.82726 11.3849 8.64758 11.4037C8.57373 11.4124 8.49871 11.42 8.42719 11.4317L7.78753 11.5259V11.5229L7.61774 11.5516H7.60378H7.59273C7.52281 11.5633 7.45368 11.5793 7.38572 11.5995C7.36478 11.6054 7.34268 11.6141 7.31884 11.6223L7.17521 11.6732C7.16416 11.679 7.15137 11.682 7.14032 11.6878V11.2645C7.15337 10.4109 6.84131 9.58467 6.26807 8.95497C6.17805 8.85698 6.08086 8.7659 5.97731 8.6825C5.95108 8.65908 5.92351 8.63721 5.89474 8.61702C5.80695 8.54764 5.71552 8.48303 5.62085 8.42348C5.60515 8.41179 5.58596 8.40127 5.57084 8.38957C5.46196 8.3242 5.34845 8.26695 5.23125 8.21826L5.14344 8.18376C5.04703 8.14555 4.94838 8.11333 4.84803 8.08729C4.82928 8.07965 4.80979 8.07397 4.78988 8.07033L4.79221 5.86897ZM7.09903 14.851L7.10718 13.8301C7.10397 13.626 7.17266 13.4273 7.3011 13.2691C7.42955 13.111 7.60947 13.0036 7.80905 12.9659L7.83813 12.9601L8.57489 12.8513L8.78481 12.8262C8.95926 12.8034 9.13837 12.7829 9.31398 12.7677L9.97282 12.7093C10.0635 12.7034 10.1566 12.6946 10.2496 12.69C10.2897 12.687 10.3293 12.6841 10.3694 12.6841L10.5264 12.6754C10.6171 12.6695 10.7073 12.6666 10.798 12.6607L11.0765 12.649C11.3213 12.6403 11.5679 12.6374 11.8127 12.6374C12.0575 12.6374 12.3047 12.6403 12.5495 12.649C12.6553 12.652 12.7594 12.6549 12.8652 12.6607C13.1467 12.6724 13.4287 12.6888 13.7107 12.7116C13.8852 12.7262 14.0596 12.7397 14.237 12.7572L15.079 12.8572C15.1877 12.8718 15.2947 12.8853 15.4035 12.9028C15.413 12.9052 15.4228 12.9062 15.4326 12.9057L16.2112 13.0338H16.2193C16.415 13.0782 16.5892 13.1895 16.7123 13.3487C16.8354 13.5079 16.8998 13.7051 16.8945 13.9067L16.8863 14.9305L13.2397 14.8989L7.09903 14.851ZM3.2175 17.8826C2.97362 17.8724 2.74366 17.7656 2.57783 17.5855C2.41201 17.4054 2.32379 17.1667 2.33245 16.9214L2.37548 11.2329C2.37503 10.754 2.55808 10.2933 2.88662 9.9466C3.04022 9.78129 3.22583 9.64932 3.43204 9.55882C3.63824 9.46833 3.86069 9.42121 4.08568 9.42038H4.09964C4.32694 9.42324 4.5512 9.47321 4.75842 9.56717C4.96563 9.66114 5.15134 9.79707 5.30393 9.96648C5.62592 10.3204 5.80182 10.7843 5.79589 11.2639V11.2967L5.77553 13.8196L5.75751 16.2665L5.74413 17.9037L3.2175 17.8826ZM7.07694 17.9142L7.08508 17.0155L7.09089 16.2765L11.9261 16.3197L16.8828 16.3624V16.5378L16.8718 17.9995L7.07694 17.9142ZM21.6221 17.0851C21.6273 17.329 21.5367 17.5652 21.37 17.7425C21.2032 17.9198 20.9737 18.0239 20.7312 18.0323H20.7231L18.1976 18.0095L18.2116 16.3724L18.2168 15.5538L18.2488 11.3674C18.2486 10.8886 18.4316 10.428 18.7599 10.0811C18.9149 9.91391 19.1026 9.78085 19.3113 9.69028C19.52 9.59971 19.7451 9.5536 19.9724 9.55486L20.0305 9.55778C20.2477 9.56817 20.4608 9.62154 20.6575 9.71485C20.8541 9.80816 21.0306 9.93957 21.1766 10.1015C21.4986 10.4554 21.6744 10.9194 21.668 11.399L21.6221 17.0851Z" fill="black" fill-opacity="0.2"/>
<path d="M22.1251 9.10231C21.744 8.68553 21.2539 8.38504 20.7109 8.23521L20.7266 6.00813C20.7405 4.98784 20.366 4.00078 19.6799 3.24897C19.3555 2.88879 18.9607 2.59981 18.5201 2.4001C18.0795 2.2004 17.6027 2.09427 17.1195 2.08836L7.12288 2.00007C6.63957 1.99692 6.16086 2.09465 5.71705 2.28707C5.27323 2.4795 4.87396 2.76244 4.54449 3.118C3.84836 3.85905 3.46037 4.83968 3.45999 5.85903L3.4437 8.06565C2.87293 8.19813 2.35405 8.49785 1.95273 8.9269C1.37024 9.54688 1.04532 10.3672 1.04442 11.2201L1.00139 16.9097C0.980279 17.5212 1.20039 18.1163 1.61375 18.5653C2.02711 19.0143 2.60022 19.2809 3.2082 19.3069H3.42103L3.40707 21.0902C3.40031 21.2845 3.47036 21.4735 3.60191 21.616C3.73345 21.7584 3.91576 21.8427 4.10894 21.8503C4.26862 21.8482 4.42301 21.7924 4.54763 21.692C4.67225 21.5916 4.75996 21.4523 4.79686 21.296L5.30451 19.3291L5.73483 19.3321L16.859 19.4285L19.3333 19.4513L19.8119 21.434C19.8458 21.5909 19.931 21.7319 20.0539 21.8345C20.1768 21.937 20.3303 21.9953 20.4899 22C20.5857 21.9978 20.6802 21.9766 20.7678 21.9377C20.8555 21.8988 20.9347 21.8428 21.0008 21.7731C21.067 21.7034 21.1188 21.6212 21.1534 21.5313C21.188 21.4415 21.2046 21.3456 21.2022 21.2493L21.2162 19.4034C21.6285 19.3061 22.003 19.0885 22.2926 18.7778C22.7184 18.3241 22.956 17.7241 22.9566 17.1003L22.9997 11.4118C23.0117 10.5579 22.6992 9.73165 22.1251 9.10231ZM4.79221 5.86897C4.79245 5.22358 5.03815 4.60272 5.47897 4.13361C5.6868 3.90771 5.93934 3.72802 6.22034 3.60608C6.50135 3.48414 6.80462 3.42264 7.11066 3.42555L17.1125 3.51091C17.4187 3.51466 17.7208 3.58198 17.9999 3.70866C18.279 3.83533 18.529 4.01862 18.7343 4.24704C19.1676 4.72315 19.4037 5.34765 19.3943 5.99293L19.3769 8.1861C19.2891 8.20306 19.2024 8.22937 19.1135 8.25451L19.0635 8.27088C18.9914 8.29368 18.9198 8.32175 18.8506 8.3504C18.8326 8.35917 18.8157 8.36502 18.7977 8.3732C18.6289 8.44832 18.4672 8.53853 18.3145 8.64274C18.2965 8.65736 18.2773 8.67081 18.2563 8.6825C18.1982 8.72577 18.14 8.76787 18.0865 8.81347C18.0685 8.83043 18.0464 8.84797 18.0284 8.86434C17.9592 8.9269 17.8906 8.98947 17.8237 9.05787C17.4632 9.43751 17.1987 9.89874 17.0526 10.4027C16.9635 10.7105 16.9171 11.0292 16.9148 11.3499V11.3551V11.7679C16.9047 11.7627 16.8939 11.7588 16.8828 11.7562C16.8381 11.7369 16.7898 11.7194 16.745 11.7024C16.7241 11.6936 16.7028 11.686 16.681 11.6796C16.6113 11.6573 16.5402 11.6393 16.4682 11.6258H16.4601L16.4362 11.62L16.3083 11.5972V11.6001L15.6064 11.4832C15.4866 11.4668 15.3698 11.4493 15.2575 11.4352L15.1226 11.4183L14.376 11.3335C14.1922 11.3165 14.0067 11.299 13.823 11.2855C13.5281 11.2627 13.2327 11.2458 12.935 11.2318C12.8234 11.2259 12.7117 11.223 12.6024 11.2201C12.2459 11.2084 11.8895 11.2084 11.5318 11.2142C11.3719 11.2171 11.2126 11.2171 11.0533 11.223L10.7765 11.2318H10.7625C10.6666 11.2347 10.5689 11.2405 10.4718 11.2464C10.3746 11.2522 10.2781 11.2581 10.181 11.2627C10.0839 11.2674 9.98736 11.2774 9.89374 11.2826L9.20291 11.3452H9.19186C9.01102 11.3616 8.82726 11.3849 8.64758 11.4037C8.57373 11.4124 8.49871 11.42 8.42719 11.4317L7.78753 11.5259V11.5229L7.61774 11.5516H7.60378H7.59273C7.52281 11.5633 7.45368 11.5793 7.38572 11.5995C7.36478 11.6054 7.34268 11.6141 7.31884 11.6223L7.17521 11.6732C7.16416 11.679 7.15137 11.682 7.14032 11.6878V11.2645C7.15337 10.4109 6.84131 9.58467 6.26807 8.95497C6.17805 8.85698 6.08086 8.7659 5.97731 8.6825C5.95108 8.65908 5.92351 8.63721 5.89474 8.61702C5.80695 8.54764 5.71552 8.48303 5.62085 8.42348C5.60515 8.41179 5.58596 8.40127 5.57084 8.38957C5.46196 8.3242 5.34845 8.26695 5.23125 8.21826L5.14344 8.18376C5.04703 8.14555 4.94838 8.11333 4.84803 8.08729C4.82928 8.07965 4.80979 8.07397 4.78988 8.07033L4.79221 5.86897ZM7.09903 14.851L7.10718 13.8301C7.10397 13.626 7.17266 13.4273 7.3011 13.2691C7.42955 13.111 7.60947 13.0036 7.80905 12.9659L7.83813 12.9601L8.57489 12.8513L8.78481 12.8262C8.95926 12.8034 9.13837 12.7829 9.31398 12.7677L9.97282 12.7093C10.0635 12.7034 10.1566 12.6946 10.2496 12.69C10.2897 12.687 10.3293 12.6841 10.3694 12.6841L10.5264 12.6754C10.6171 12.6695 10.7073 12.6666 10.798 12.6607L11.0765 12.649C11.3213 12.6403 11.5679 12.6374 11.8127 12.6374C12.0575 12.6374 12.3047 12.6403 12.5495 12.649C12.6553 12.652 12.7594 12.6549 12.8652 12.6607C13.1467 12.6724 13.4287 12.6888 13.7107 12.7116C13.8852 12.7262 14.0596 12.7397 14.237 12.7572L15.079 12.8572C15.1877 12.8718 15.2947 12.8853 15.4035 12.9028C15.413 12.9052 15.4228 12.9062 15.4326 12.9057L16.2112 13.0338H16.2193C16.415 13.0782 16.5892 13.1895 16.7123 13.3487C16.8354 13.5079 16.8998 13.7051 16.8945 13.9067L16.8863 14.9305L13.2397 14.8989L7.09903 14.851ZM3.2175 17.8826C2.97362 17.8724 2.74366 17.7656 2.57783 17.5855C2.41201 17.4054 2.32379 17.1667 2.33245 16.9214L2.37548 11.2329C2.37503 10.754 2.55808 10.2933 2.88662 9.9466C3.04022 9.78129 3.22583 9.64932 3.43204 9.55882C3.63824 9.46833 3.86069 9.42121 4.08568 9.42038H4.09964C4.32694 9.42324 4.5512 9.47321 4.75842 9.56717C4.96563 9.66114 5.15134 9.79707 5.30393 9.96648C5.62592 10.3204 5.80182 10.7843 5.79589 11.2639V11.2967L5.77553 13.8196L5.75751 16.2665L5.74413 17.9037L3.2175 17.8826ZM7.07694 17.9142L7.08508 17.0155L7.09089 16.2765L11.9261 16.3197L16.8828 16.3624V16.5378L16.8718 17.9995L7.07694 17.9142ZM21.6221 17.0851C21.6273 17.329 21.5367 17.5652 21.37 17.7425C21.2032 17.9198 20.9737 18.0239 20.7312 18.0323H20.7231L18.1976 18.0095L18.2116 16.3724L18.2168 15.5538L18.2488 11.3674C18.2486 10.8886 18.4316 10.428 18.7599 10.0811C18.9149 9.91391 19.1026 9.78085 19.3113 9.69028C19.52 9.59971 19.7451 9.5536 19.9724 9.55486L20.0305 9.55778C20.2477 9.56817 20.4608 9.62154 20.6575 9.71485C20.8541 9.80816 21.0306 9.93957 21.1766 10.1015C21.4986 10.4554 21.6744 10.9194 21.668 11.399L21.6221 17.0851Z" fill="black" fill-opacity="0.2"/>
<path d="M22.1251 9.10231C21.744 8.68553 21.2539 8.38504 20.7109 8.23521L20.7266 6.00813C20.7405 4.98784 20.366 4.00078 19.6799 3.24897C19.3555 2.88879 18.9607 2.59981 18.5201 2.4001C18.0795 2.2004 17.6027 2.09427 17.1195 2.08836L7.12288 2.00007C6.63957 1.99692 6.16086 2.09465 5.71705 2.28707C5.27323 2.4795 4.87396 2.76244 4.54449 3.118C3.84836 3.85905 3.46037 4.83968 3.45999 5.85903L3.4437 8.06565C2.87293 8.19813 2.35405 8.49785 1.95273 8.9269C1.37024 9.54688 1.04532 10.3672 1.04442 11.2201L1.00139 16.9097C0.980279 17.5212 1.20039 18.1163 1.61375 18.5653C2.02711 19.0143 2.60022 19.2809 3.2082 19.3069H3.42103L3.40707 21.0902C3.40031 21.2845 3.47036 21.4735 3.60191 21.616C3.73345 21.7584 3.91576 21.8427 4.10894 21.8503C4.26862 21.8482 4.42301 21.7924 4.54763 21.692C4.67225 21.5916 4.75996 21.4523 4.79686 21.296L5.30451 19.3291L5.73483 19.3321L16.859 19.4285L19.3333 19.4513L19.8119 21.434C19.8458 21.5909 19.931 21.7319 20.0539 21.8345C20.1768 21.937 20.3303 21.9953 20.4899 22C20.5857 21.9978 20.6802 21.9766 20.7678 21.9377C20.8555 21.8988 20.9347 21.8428 21.0008 21.7731C21.067 21.7034 21.1188 21.6212 21.1534 21.5313C21.188 21.4415 21.2046 21.3456 21.2022 21.2493L21.2162 19.4034C21.6285 19.3061 22.003 19.0885 22.2926 18.7778C22.7184 18.3241 22.956 17.7241 22.9566 17.1003L22.9997 11.4118C23.0117 10.5579 22.6992 9.73165 22.1251 9.10231ZM4.79221 5.86897C4.79245 5.22358 5.03815 4.60272 5.47897 4.13361C5.6868 3.90771 5.93934 3.72802 6.22034 3.60608C6.50135 3.48414 6.80462 3.42264 7.11066 3.42555L17.1125 3.51091C17.4187 3.51466 17.7208 3.58198 17.9999 3.70866C18.279 3.83533 18.529 4.01862 18.7343 4.24704C19.1676 4.72315 19.4037 5.34765 19.3943 5.99293L19.3769 8.1861C19.2891 8.20306 19.2024 8.22937 19.1135 8.25451L19.0635 8.27088C18.9914 8.29368 18.9198 8.32175 18.8506 8.3504C18.8326 8.35917 18.8157 8.36502 18.7977 8.3732C18.6289 8.44832 18.4672 8.53853 18.3145 8.64274C18.2965 8.65736 18.2773 8.67081 18.2563 8.6825C18.1982 8.72577 18.14 8.76787 18.0865 8.81347C18.0685 8.83043 18.0464 8.84797 18.0284 8.86434C17.9592 8.9269 17.8906 8.98947 17.8237 9.05787C17.4632 9.43751 17.1987 9.89874 17.0526 10.4027C16.9635 10.7105 16.9171 11.0292 16.9148 11.3499V11.3551V11.7679C16.9047 11.7627 16.8939 11.7588 16.8828 11.7562C16.8381 11.7369 16.7898 11.7194 16.745 11.7024C16.7241 11.6936 16.7028 11.686 16.681 11.6796C16.6113 11.6573 16.5402 11.6393 16.4682 11.6258H16.4601L16.4362 11.62L16.3083 11.5972V11.6001L15.6064 11.4832C15.4866 11.4668 15.3698 11.4493 15.2575 11.4352L15.1226 11.4183L14.376 11.3335C14.1922 11.3165 14.0067 11.299 13.823 11.2855C13.5281 11.2627 13.2327 11.2458 12.935 11.2318C12.8234 11.2259 12.7117 11.223 12.6024 11.2201C12.2459 11.2084 11.8895 11.2084 11.5318 11.2142C11.3719 11.2171 11.2126 11.2171 11.0533 11.223L10.7765 11.2318H10.7625C10.6666 11.2347 10.5689 11.2405 10.4718 11.2464C10.3746 11.2522 10.2781 11.2581 10.181 11.2627C10.0839 11.2674 9.98736 11.2774 9.89374 11.2826L9.20291 11.3452H9.19186C9.01102 11.3616 8.82726 11.3849 8.64758 11.4037C8.57373 11.4124 8.49871 11.42 8.42719 11.4317L7.78753 11.5259V11.5229L7.61774 11.5516H7.60378H7.59273C7.52281 11.5633 7.45368 11.5793 7.38572 11.5995C7.36478 11.6054 7.34268 11.6141 7.31884 11.6223L7.17521 11.6732C7.16416 11.679 7.15137 11.682 7.14032 11.6878V11.2645C7.15337 10.4109 6.84131 9.58467 6.26807 8.95497C6.17805 8.85698 6.08086 8.7659 5.97731 8.6825C5.95108 8.65908 5.92351 8.63721 5.89474 8.61702C5.80695 8.54764 5.71552 8.48303 5.62085 8.42348C5.60515 8.41179 5.58596 8.40127 5.57084 8.38957C5.46196 8.3242 5.34845 8.26695 5.23125 8.21826L5.14344 8.18376C5.04703 8.14555 4.94838 8.11333 4.84803 8.08729C4.82928 8.07965 4.80979 8.07397 4.78988 8.07033L4.79221 5.86897ZM7.09903 14.851L7.10718 13.8301C7.10397 13.626 7.17266 13.4273 7.3011 13.2691C7.42955 13.111 7.60947 13.0036 7.80905 12.9659L7.83813 12.9601L8.57489 12.8513L8.78481 12.8262C8.95926 12.8034 9.13837 12.7829 9.31398 12.7677L9.97282 12.7093C10.0635 12.7034 10.1566 12.6946 10.2496 12.69C10.2897 12.687 10.3293 12.6841 10.3694 12.6841L10.5264 12.6754C10.6171 12.6695 10.7073 12.6666 10.798 12.6607L11.0765 12.649C11.3213 12.6403 11.5679 12.6374 11.8127 12.6374C12.0575 12.6374 12.3047 12.6403 12.5495 12.649C12.6553 12.652 12.7594 12.6549 12.8652 12.6607C13.1467 12.6724 13.4287 12.6888 13.7107 12.7116C13.8852 12.7262 14.0596 12.7397 14.237 12.7572L15.079 12.8572C15.1877 12.8718 15.2947 12.8853 15.4035 12.9028C15.413 12.9052 15.4228 12.9062 15.4326 12.9057L16.2112 13.0338H16.2193C16.415 13.0782 16.5892 13.1895 16.7123 13.3487C16.8354 13.5079 16.8998 13.7051 16.8945 13.9067L16.8863 14.9305L13.2397 14.8989L7.09903 14.851ZM3.2175 17.8826C2.97362 17.8724 2.74366 17.7656 2.57783 17.5855C2.41201 17.4054 2.32379 17.1667 2.33245 16.9214L2.37548 11.2329C2.37503 10.754 2.55808 10.2933 2.88662 9.9466C3.04022 9.78129 3.22583 9.64932 3.43204 9.55882C3.63824 9.46833 3.86069 9.42121 4.08568 9.42038H4.09964C4.32694 9.42324 4.5512 9.47321 4.75842 9.56717C4.96563 9.66114 5.15134 9.79707 5.30393 9.96648C5.62592 10.3204 5.80182 10.7843 5.79589 11.2639V11.2967L5.77553 13.8196L5.75751 16.2665L5.74413 17.9037L3.2175 17.8826ZM7.07694 17.9142L7.08508 17.0155L7.09089 16.2765L11.9261 16.3197L16.8828 16.3624V16.5378L16.8718 17.9995L7.07694 17.9142ZM21.6221 17.0851C21.6273 17.329 21.5367 17.5652 21.37 17.7425C21.2032 17.9198 20.9737 18.0239 20.7312 18.0323H20.7231L18.1976 18.0095L18.2116 16.3724L18.2168 15.5538L18.2488 11.3674C18.2486 10.8886 18.4316 10.428 18.7599 10.0811C18.9149 9.91391 19.1026 9.78085 19.3113 9.69028C19.52 9.59971 19.7451 9.5536 19.9724 9.55486L20.0305 9.55778C20.2477 9.56817 20.4608 9.62154 20.6575 9.71485C20.8541 9.80816 21.0306 9.93957 21.1766 10.1015C21.4986 10.4554 21.6744 10.9194 21.668 11.399L21.6221 17.0851Z" fill="black" fill-opacity="0.2"/>
<path d="M22.1251 9.10231C21.744 8.68553 21.2539 8.38504 20.7109 8.23521L20.7266 6.00813C20.7405 4.98784 20.366 4.00078 19.6799 3.24897C19.3555 2.88879 18.9607 2.59981 18.5201 2.4001C18.0795 2.2004 17.6027 2.09427 17.1195 2.08836L7.12288 2.00007C6.63957 1.99692 6.16086 2.09465 5.71705 2.28707C5.27323 2.4795 4.87396 2.76244 4.54449 3.118C3.84836 3.85905 3.46037 4.83968 3.45999 5.85903L3.4437 8.06565C2.87293 8.19813 2.35405 8.49785 1.95273 8.9269C1.37024 9.54688 1.04532 10.3672 1.04442 11.2201L1.00139 16.9097C0.980279 17.5212 1.20039 18.1163 1.61375 18.5653C2.02711 19.0143 2.60022 19.2809 3.2082 19.3069H3.42103L3.40707 21.0902C3.40031 21.2845 3.47036 21.4735 3.60191 21.616C3.73345 21.7584 3.91576 21.8427 4.10894 21.8503C4.26862 21.8482 4.42301 21.7924 4.54763 21.692C4.67225 21.5916 4.75996 21.4523 4.79686 21.296L5.30451 19.3291L5.73483 19.3321L16.859 19.4285L19.3333 19.4513L19.8119 21.434C19.8458 21.5909 19.931 21.7319 20.0539 21.8345C20.1768 21.937 20.3303 21.9953 20.4899 22C20.5857 21.9978 20.6802 21.9766 20.7678 21.9377C20.8555 21.8988 20.9347 21.8428 21.0008 21.7731C21.067 21.7034 21.1188 21.6212 21.1534 21.5313C21.188 21.4415 21.2046 21.3456 21.2022 21.2493L21.2162 19.4034C21.6285 19.3061 22.003 19.0885 22.2926 18.7778C22.7184 18.3241 22.956 17.7241 22.9566 17.1003L22.9997 11.4118C23.0117 10.5579 22.6992 9.73165 22.1251 9.10231ZM4.79221 5.86897C4.79245 5.22358 5.03815 4.60272 5.47897 4.13361C5.6868 3.90771 5.93934 3.72802 6.22034 3.60608C6.50135 3.48414 6.80462 3.42264 7.11066 3.42555L17.1125 3.51091C17.4187 3.51466 17.7208 3.58198 17.9999 3.70866C18.279 3.83533 18.529 4.01862 18.7343 4.24704C19.1676 4.72315 19.4037 5.34765 19.3943 5.99293L19.3769 8.1861C19.2891 8.20306 19.2024 8.22937 19.1135 8.25451L19.0635 8.27088C18.9914 8.29368 18.9198 8.32175 18.8506 8.3504C18.8326 8.35917 18.8157 8.36502 18.7977 8.3732C18.6289 8.44832 18.4672 8.53853 18.3145 8.64274C18.2965 8.65736 18.2773 8.67081 18.2563 8.6825C18.1982 8.72577 18.14 8.76787 18.0865 8.81347C18.0685 8.83043 18.0464 8.84797 18.0284 8.86434C17.9592 8.9269 17.8906 8.98947 17.8237 9.05787C17.4632 9.43751 17.1987 9.89874 17.0526 10.4027C16.9635 10.7105 16.9171 11.0292 16.9148 11.3499V11.3551V11.7679C16.9047 11.7627 16.8939 11.7588 16.8828 11.7562C16.8381 11.7369 16.7898 11.7194 16.745 11.7024C16.7241 11.6936 16.7028 11.686 16.681 11.6796C16.6113 11.6573 16.5402 11.6393 16.4682 11.6258H16.4601L16.4362 11.62L16.3083 11.5972V11.6001L15.6064 11.4832C15.4866 11.4668 15.3698 11.4493 15.2575 11.4352L15.1226 11.4183L14.376 11.3335C14.1922 11.3165 14.0067 11.299 13.823 11.2855C13.5281 11.2627 13.2327 11.2458 12.935 11.2318C12.8234 11.2259 12.7117 11.223 12.6024 11.2201C12.2459 11.2084 11.8895 11.2084 11.5318 11.2142C11.3719 11.2171 11.2126 11.2171 11.0533 11.223L10.7765 11.2318H10.7625C10.6666 11.2347 10.5689 11.2405 10.4718 11.2464C10.3746 11.2522 10.2781 11.2581 10.181 11.2627C10.0839 11.2674 9.98736 11.2774 9.89374 11.2826L9.20291 11.3452H9.19186C9.01102 11.3616 8.82726 11.3849 8.64758 11.4037C8.57373 11.4124 8.49871 11.42 8.42719 11.4317L7.78753 11.5259V11.5229L7.61774 11.5516H7.60378H7.59273C7.52281 11.5633 7.45368 11.5793 7.38572 11.5995C7.36478 11.6054 7.34268 11.6141 7.31884 11.6223L7.17521 11.6732C7.16416 11.679 7.15137 11.682 7.14032 11.6878V11.2645C7.15337 10.4109 6.84131 9.58467 6.26807 8.95497C6.17805 8.85698 6.08086 8.7659 5.97731 8.6825C5.95108 8.65908 5.92351 8.63721 5.89474 8.61702C5.80695 8.54764 5.71552 8.48303 5.62085 8.42348C5.60515 8.41179 5.58596 8.40127 5.57084 8.38957C5.46196 8.3242 5.34845 8.26695 5.23125 8.21826L5.14344 8.18376C5.04703 8.14555 4.94838 8.11333 4.84803 8.08729C4.82928 8.07965 4.80979 8.07397 4.78988 8.07033L4.79221 5.86897ZM7.09903 14.851L7.10718 13.8301C7.10397 13.626 7.17266 13.4273 7.3011 13.2691C7.42955 13.111 7.60947 13.0036 7.80905 12.9659L7.83813 12.9601L8.57489 12.8513L8.78481 12.8262C8.95926 12.8034 9.13837 12.7829 9.31398 12.7677L9.97282 12.7093C10.0635 12.7034 10.1566 12.6946 10.2496 12.69C10.2897 12.687 10.3293 12.6841 10.3694 12.6841L10.5264 12.6754C10.6171 12.6695 10.7073 12.6666 10.798 12.6607L11.0765 12.649C11.3213 12.6403 11.5679 12.6374 11.8127 12.6374C12.0575 12.6374 12.3047 12.6403 12.5495 12.649C12.6553 12.652 12.7594 12.6549 12.8652 12.6607C13.1467 12.6724 13.4287 12.6888 13.7107 12.7116C13.8852 12.7262 14.0596 12.7397 14.237 12.7572L15.079 12.8572C15.1877 12.8718 15.2947 12.8853 15.4035 12.9028C15.413 12.9052 15.4228 12.9062 15.4326 12.9057L16.2112 13.0338H16.2193C16.415 13.0782 16.5892 13.1895 16.7123 13.3487C16.8354 13.5079 16.8998 13.7051 16.8945 13.9067L16.8863 14.9305L13.2397 14.8989L7.09903 14.851ZM3.2175 17.8826C2.97362 17.8724 2.74366 17.7656 2.57783 17.5855C2.41201 17.4054 2.32379 17.1667 2.33245 16.9214L2.37548 11.2329C2.37503 10.754 2.55808 10.2933 2.88662 9.9466C3.04022 9.78129 3.22583 9.64932 3.43204 9.55882C3.63824 9.46833 3.86069 9.42121 4.08568 9.42038H4.09964C4.32694 9.42324 4.5512 9.47321 4.75842 9.56717C4.96563 9.66114 5.15134 9.79707 5.30393 9.96648C5.62592 10.3204 5.80182 10.7843 5.79589 11.2639V11.2967L5.77553 13.8196L5.75751 16.2665L5.74413 17.9037L3.2175 17.8826ZM7.07694 17.9142L7.08508 17.0155L7.09089 16.2765L11.9261 16.3197L16.8828 16.3624V16.5378L16.8718 17.9995L7.07694 17.9142ZM21.6221 17.0851C21.6273 17.329 21.5367 17.5652 21.37 17.7425C21.2032 17.9198 20.9737 18.0239 20.7312 18.0323H20.7231L18.1976 18.0095L18.2116 16.3724L18.2168 15.5538L18.2488 11.3674C18.2486 10.8886 18.4316 10.428 18.7599 10.0811C18.9149 9.91391 19.1026 9.78085 19.3113 9.69028C19.52 9.59971 19.7451 9.5536 19.9724 9.55486L20.0305 9.55778C20.2477 9.56817 20.4608 9.62154 20.6575 9.71485C20.8541 9.80816 21.0306 9.93957 21.1766 10.1015C21.4986 10.4554 21.6744 10.9194 21.668 11.399L21.6221 17.0851Z" fill="black" fill-opacity="0.2"/>
<path d="M22.1251 9.10231C21.744 8.68553 21.2539 8.38504 20.7109 8.23521L20.7266 6.00813C20.7405 4.98784 20.366 4.00078 19.6799 3.24897C19.3555 2.88879 18.9607 2.59981 18.5201 2.4001C18.0795 2.2004 17.6027 2.09427 17.1195 2.08836L7.12288 2.00007C6.63957 1.99692 6.16086 2.09465 5.71705 2.28707C5.27323 2.4795 4.87396 2.76244 4.54449 3.118C3.84836 3.85905 3.46037 4.83968 3.45999 5.85903L3.4437 8.06565C2.87293 8.19813 2.35405 8.49785 1.95273 8.9269C1.37024 9.54688 1.04532 10.3672 1.04442 11.2201L1.00139 16.9097C0.980279 17.5212 1.20039 18.1163 1.61375 18.5653C2.02711 19.0143 2.60022 19.2809 3.2082 19.3069H3.42103L3.40707 21.0902C3.40031 21.2845 3.47036 21.4735 3.60191 21.616C3.73345 21.7584 3.91576 21.8427 4.10894 21.8503C4.26862 21.8482 4.42301 21.7924 4.54763 21.692C4.67225 21.5916 4.75996 21.4523 4.79686 21.296L5.30451 19.3291L5.73483 19.3321L16.859 19.4285L19.3333 19.4513L19.8119 21.434C19.8458 21.5909 19.931 21.7319 20.0539 21.8345C20.1768 21.937 20.3303 21.9953 20.4899 22C20.5857 21.9978 20.6802 21.9766 20.7678 21.9377C20.8555 21.8988 20.9347 21.8428 21.0008 21.7731C21.067 21.7034 21.1188 21.6212 21.1534 21.5313C21.188 21.4415 21.2046 21.3456 21.2022 21.2493L21.2162 19.4034C21.6285 19.3061 22.003 19.0885 22.2926 18.7778C22.7184 18.3241 22.956 17.7241 22.9566 17.1003L22.9997 11.4118C23.0117 10.5579 22.6992 9.73165 22.1251 9.10231ZM4.79221 5.86897C4.79245 5.22358 5.03815 4.60272 5.47897 4.13361C5.6868 3.90771 5.93934 3.72802 6.22034 3.60608C6.50135 3.48414 6.80462 3.42264 7.11066 3.42555L17.1125 3.51091C17.4187 3.51466 17.7208 3.58198 17.9999 3.70866C18.279 3.83533 18.529 4.01862 18.7343 4.24704C19.1676 4.72315 19.4037 5.34765 19.3943 5.99293L19.3769 8.1861C19.2891 8.20306 19.2024 8.22937 19.1135 8.25451L19.0635 8.27088C18.9914 8.29368 18.9198 8.32175 18.8506 8.3504C18.8326 8.35917 18.8157 8.36502 18.7977 8.3732C18.6289 8.44832 18.4672 8.53853 18.3145 8.64274C18.2965 8.65736 18.2773 8.67081 18.2563 8.6825C18.1982 8.72577 18.14 8.76787 18.0865 8.81347C18.0685 8.83043 18.0464 8.84797 18.0284 8.86434C17.9592 8.9269 17.8906 8.98947 17.8237 9.05787C17.4632 9.43751 17.1987 9.89874 17.0526 10.4027C16.9635 10.7105 16.9171 11.0292 16.9148 11.3499V11.3551V11.7679C16.9047 11.7627 16.8939 11.7588 16.8828 11.7562C16.8381 11.7369 16.7898 11.7194 16.745 11.7024C16.7241 11.6936 16.7028 11.686 16.681 11.6796C16.6113 11.6573 16.5402 11.6393 16.4682 11.6258H16.4601L16.4362 11.62L16.3083 11.5972V11.6001L15.6064 11.4832C15.4866 11.4668 15.3698 11.4493 15.2575 11.4352L15.1226 11.4183L14.376 11.3335C14.1922 11.3165 14.0067 11.299 13.823 11.2855C13.5281 11.2627 13.2327 11.2458 12.935 11.2318C12.8234 11.2259 12.7117 11.223 12.6024 11.2201C12.2459 11.2084 11.8895 11.2084 11.5318 11.2142C11.3719 11.2171 11.2126 11.2171 11.0533 11.223L10.7765 11.2318H10.7625C10.6666 11.2347 10.5689 11.2405 10.4718 11.2464C10.3746 11.2522 10.2781 11.2581 10.181 11.2627C10.0839 11.2674 9.98736 11.2774 9.89374 11.2826L9.20291 11.3452H9.19186C9.01102 11.3616 8.82726 11.3849 8.64758 11.4037C8.57373 11.4124 8.49871 11.42 8.42719 11.4317L7.78753 11.5259V11.5229L7.61774 11.5516H7.60378H7.59273C7.52281 11.5633 7.45368 11.5793 7.38572 11.5995C7.36478 11.6054 7.34268 11.6141 7.31884 11.6223L7.17521 11.6732C7.16416 11.679 7.15137 11.682 7.14032 11.6878V11.2645C7.15337 10.4109 6.84131 9.58467 6.26807 8.95497C6.17805 8.85698 6.08086 8.7659 5.97731 8.6825C5.95108 8.65908 5.92351 8.63721 5.89474 8.61702C5.80695 8.54764 5.71552 8.48303 5.62085 8.42348C5.60515 8.41179 5.58596 8.40127 5.57084 8.38957C5.46196 8.3242 5.34845 8.26695 5.23125 8.21826L5.14344 8.18376C5.04703 8.14555 4.94838 8.11333 4.84803 8.08729C4.82928 8.07965 4.80979 8.07397 4.78988 8.07033L4.79221 5.86897ZM7.09903 14.851L7.10718 13.8301C7.10397 13.626 7.17266 13.4273 7.3011 13.2691C7.42955 13.111 7.60947 13.0036 7.80905 12.9659L7.83813 12.9601L8.57489 12.8513L8.78481 12.8262C8.95926 12.8034 9.13837 12.7829 9.31398 12.7677L9.97282 12.7093C10.0635 12.7034 10.1566 12.6946 10.2496 12.69C10.2897 12.687 10.3293 12.6841 10.3694 12.6841L10.5264 12.6754C10.6171 12.6695 10.7073 12.6666 10.798 12.6607L11.0765 12.649C11.3213 12.6403 11.5679 12.6374 11.8127 12.6374C12.0575 12.6374 12.3047 12.6403 12.5495 12.649C12.6553 12.652 12.7594 12.6549 12.8652 12.6607C13.1467 12.6724 13.4287 12.6888 13.7107 12.7116C13.8852 12.7262 14.0596 12.7397 14.237 12.7572L15.079 12.8572C15.1877 12.8718 15.2947 12.8853 15.4035 12.9028C15.413 12.9052 15.4228 12.9062 15.4326 12.9057L16.2112 13.0338H16.2193C16.415 13.0782 16.5892 13.1895 16.7123 13.3487C16.8354 13.5079 16.8998 13.7051 16.8945 13.9067L16.8863 14.9305L13.2397 14.8989L7.09903 14.851ZM3.2175 17.8826C2.97362 17.8724 2.74366 17.7656 2.57783 17.5855C2.41201 17.4054 2.32379 17.1667 2.33245 16.9214L2.37548 11.2329C2.37503 10.754 2.55808 10.2933 2.88662 9.9466C3.04022 9.78129 3.22583 9.64932 3.43204 9.55882C3.63824 9.46833 3.86069 9.42121 4.08568 9.42038H4.09964C4.32694 9.42324 4.5512 9.47321 4.75842 9.56717C4.96563 9.66114 5.15134 9.79707 5.30393 9.96648C5.62592 10.3204 5.80182 10.7843 5.79589 11.2639V11.2967L5.77553 13.8196L5.75751 16.2665L5.74413 17.9037L3.2175 17.8826ZM7.07694 17.9142L7.08508 17.0155L7.09089 16.2765L11.9261 16.3197L16.8828 16.3624V16.5378L16.8718 17.9995L7.07694 17.9142ZM21.6221 17.0851C21.6273 17.329 21.5367 17.5652 21.37 17.7425C21.2032 17.9198 20.9737 18.0239 20.7312 18.0323H20.7231L18.1976 18.0095L18.2116 16.3724L18.2168 15.5538L18.2488 11.3674C18.2486 10.8886 18.4316 10.428 18.7599 10.0811C18.9149 9.91391 19.1026 9.78085 19.3113 9.69028C19.52 9.59971 19.7451 9.5536 19.9724 9.55486L20.0305 9.55778C20.2477 9.56817 20.4608 9.62154 20.6575 9.71485C20.8541 9.80816 21.0306 9.93957 21.1766 10.1015C21.4986 10.4554 21.6744 10.9194 21.668 11.399L21.6221 17.0851Z" fill="black" fill-opacity="0.2"/>
</svg>
