<svg width="32" height="32" viewBox="0 0 32 32" fill="none" xmlns="http://www.w3.org/2000/svg">
<g clip-path="url(#clip0_321_433)">
<path d="M16 31C24.2843 31 31 24.2843 31 16C31 7.71573 24.2843 1 16 1C7.71573 1 1 7.71573 1 16C1 24.2843 7.71573 31 16 31Z" stroke="black"/>
<path d="M16 31C24.2843 31 31 24.2843 31 16C31 7.71573 24.2843 1 16 1C7.71573 1 1 7.71573 1 16C1 24.2843 7.71573 31 16 31Z" stroke="black" stroke-opacity="0.2"/>
<path d="M16 31C24.2843 31 31 24.2843 31 16C31 7.71573 24.2843 1 16 1C7.71573 1 1 7.71573 1 16C1 24.2843 7.71573 31 16 31Z" stroke="black" stroke-opacity="0.2"/>
<path d="M16 31C24.2843 31 31 24.2843 31 16C31 7.71573 24.2843 1 16 1C7.71573 1 1 7.71573 1 16C1 24.2843 7.71573 31 16 31Z" stroke="black" stroke-opacity="0.2"/>
<path d="M16 31C24.2843 31 31 24.2843 31 16C31 7.71573 24.2843 1 16 1C7.71573 1 1 7.71573 1 16C1 24.2843 7.71573 31 16 31Z" stroke="black" stroke-opacity="0.2"/>
<path d="M16 31C24.2843 31 31 24.2843 31 16C31 7.71573 24.2843 1 16 1C7.71573 1 1 7.71573 1 16C1 24.2843 7.71573 31 16 31Z" stroke="black" stroke-opacity="0.2"/>
<path d="M16 31C24.2843 31 31 24.2843 31 16C31 7.71573 24.2843 1 16 1C7.71573 1 1 7.71573 1 16C1 24.2843 7.71573 31 16 31Z" stroke="black" stroke-opacity="0.2"/>
<path d="M16 31C24.2843 31 31 24.2843 31 16C31 7.71573 24.2843 1 16 1C7.71573 1 1 7.71573 1 16C1 24.2843 7.71573 31 16 31Z" stroke="black" stroke-opacity="0.2"/>
<path d="M16 31C24.2843 31 31 24.2843 31 16C31 7.71573 24.2843 1 16 1C7.71573 1 1 7.71573 1 16C1 24.2843 7.71573 31 16 31Z" stroke="black" stroke-opacity="0.2"/>
<path d="M16 31C24.2843 31 31 24.2843 31 16C31 7.71573 24.2843 1 16 1C7.71573 1 1 7.71573 1 16C1 24.2843 7.71573 31 16 31Z" stroke="black" stroke-opacity="0.2"/>
<path d="M21.2809 9.73756C20.815 8.84523 20.1281 8.08723 19.2858 7.53592C18.4435 6.98461 17.474 6.65839 16.4698 6.58841C16.1667 6.5685 15.8626 6.5685 15.5595 6.58841C14.5551 6.65825 13.5854 6.9844 12.743 7.53572C11.9005 8.08703 11.2135 8.84511 10.7475 9.73756C10.2426 10.6727 9.98589 11.7216 10.0018 12.7841C10.0177 13.8467 10.3057 14.8874 10.8383 15.807L15.9289 24.6236C15.9377 24.6385 15.9502 24.6509 15.9653 24.6595C15.9803 24.6681 15.9973 24.6726 16.0146 24.6726C16.0319 24.6726 16.049 24.6681 16.064 24.6595C16.079 24.6509 16.0916 24.6385 16.1003 24.6236L21.1909 15.807C21.7234 14.8873 22.0113 13.8466 22.027 12.784C22.0428 11.7214 21.7859 10.6726 21.2809 9.73756ZM16.0138 14.5753C15.6083 14.5753 15.2119 14.455 14.8747 14.2297C14.5375 14.0044 14.2747 13.6842 14.1195 13.3096C13.9644 12.935 13.9238 12.5227 14.0029 12.125C14.082 11.7273 14.2773 11.362 14.564 11.0752C14.8507 10.7885 15.2161 10.5932 15.6138 10.5141C16.0115 10.435 16.4237 10.4756 16.7984 10.6308C17.173 10.786 17.4932 11.0487 17.7185 11.3859C17.9438 11.7231 18.0641 12.1195 18.0641 12.525C18.0629 13.0682 17.8465 13.5889 17.4622 13.9729C17.0779 14.3569 16.557 14.5729 16.0138 14.5736V14.5753Z" fill="black"/>
<path d="M21.2809 9.73756C20.815 8.84523 20.1281 8.08723 19.2858 7.53592C18.4435 6.98461 17.474 6.65839 16.4698 6.58841C16.1667 6.5685 15.8626 6.5685 15.5595 6.58841C14.5551 6.65825 13.5854 6.9844 12.743 7.53572C11.9005 8.08703 11.2135 8.84511 10.7475 9.73756C10.2426 10.6727 9.98589 11.7216 10.0018 12.7841C10.0177 13.8467 10.3057 14.8874 10.8383 15.807L15.9289 24.6236C15.9377 24.6385 15.9502 24.6509 15.9653 24.6595C15.9803 24.6681 15.9973 24.6726 16.0146 24.6726C16.0319 24.6726 16.049 24.6681 16.064 24.6595C16.079 24.6509 16.0916 24.6385 16.1003 24.6236L21.1909 15.807C21.7234 14.8873 22.0113 13.8466 22.027 12.784C22.0428 11.7214 21.7859 10.6726 21.2809 9.73756ZM16.0138 14.5753C15.6083 14.5753 15.2119 14.455 14.8747 14.2297C14.5375 14.0044 14.2747 13.6842 14.1195 13.3096C13.9644 12.935 13.9238 12.5227 14.0029 12.125C14.082 11.7273 14.2773 11.362 14.564 11.0752C14.8507 10.7885 15.2161 10.5932 15.6138 10.5141C16.0115 10.435 16.4237 10.4756 16.7984 10.6308C17.173 10.786 17.4932 11.0487 17.7185 11.3859C17.9438 11.7231 18.0641 12.1195 18.0641 12.525C18.0629 13.0682 17.8465 13.5889 17.4622 13.9729C17.0779 14.3569 16.557 14.5729 16.0138 14.5736V14.5753Z" fill="black" fill-opacity="0.2"/>
<path d="M21.2809 9.73756C20.815 8.84523 20.1281 8.08723 19.2858 7.53592C18.4435 6.98461 17.474 6.65839 16.4698 6.58841C16.1667 6.5685 15.8626 6.5685 15.5595 6.58841C14.5551 6.65825 13.5854 6.9844 12.743 7.53572C11.9005 8.08703 11.2135 8.84511 10.7475 9.73756C10.2426 10.6727 9.98589 11.7216 10.0018 12.7841C10.0177 13.8467 10.3057 14.8874 10.8383 15.807L15.9289 24.6236C15.9377 24.6385 15.9502 24.6509 15.9653 24.6595C15.9803 24.6681 15.9973 24.6726 16.0146 24.6726C16.0319 24.6726 16.049 24.6681 16.064 24.6595C16.079 24.6509 16.0916 24.6385 16.1003 24.6236L21.1909 15.807C21.7234 14.8873 22.0113 13.8466 22.027 12.784C22.0428 11.7214 21.7859 10.6726 21.2809 9.73756ZM16.0138 14.5753C15.6083 14.5753 15.2119 14.455 14.8747 14.2297C14.5375 14.0044 14.2747 13.6842 14.1195 13.3096C13.9644 12.935 13.9238 12.5227 14.0029 12.125C14.082 11.7273 14.2773 11.362 14.564 11.0752C14.8507 10.7885 15.2161 10.5932 15.6138 10.5141C16.0115 10.435 16.4237 10.4756 16.7984 10.6308C17.173 10.786 17.4932 11.0487 17.7185 11.3859C17.9438 11.7231 18.0641 12.1195 18.0641 12.525C18.0629 13.0682 17.8465 13.5889 17.4622 13.9729C17.0779 14.3569 16.557 14.5729 16.0138 14.5736V14.5753Z" fill="black" fill-opacity="0.2"/>
<path d="M21.2809 9.73756C20.815 8.84523 20.1281 8.08723 19.2858 7.53592C18.4435 6.98461 17.474 6.65839 16.4698 6.58841C16.1667 6.5685 15.8626 6.5685 15.5595 6.58841C14.5551 6.65825 13.5854 6.9844 12.743 7.53572C11.9005 8.08703 11.2135 8.84511 10.7475 9.73756C10.2426 10.6727 9.98589 11.7216 10.0018 12.7841C10.0177 13.8467 10.3057 14.8874 10.8383 15.807L15.9289 24.6236C15.9377 24.6385 15.9502 24.6509 15.9653 24.6595C15.9803 24.6681 15.9973 24.6726 16.0146 24.6726C16.0319 24.6726 16.049 24.6681 16.064 24.6595C16.079 24.6509 16.0916 24.6385 16.1003 24.6236L21.1909 15.807C21.7234 14.8873 22.0113 13.8466 22.027 12.784C22.0428 11.7214 21.7859 10.6726 21.2809 9.73756ZM16.0138 14.5753C15.6083 14.5753 15.2119 14.455 14.8747 14.2297C14.5375 14.0044 14.2747 13.6842 14.1195 13.3096C13.9644 12.935 13.9238 12.5227 14.0029 12.125C14.082 11.7273 14.2773 11.362 14.564 11.0752C14.8507 10.7885 15.2161 10.5932 15.6138 10.5141C16.0115 10.435 16.4237 10.4756 16.7984 10.6308C17.173 10.786 17.4932 11.0487 17.7185 11.3859C17.9438 11.7231 18.0641 12.1195 18.0641 12.525C18.0629 13.0682 17.8465 13.5889 17.4622 13.9729C17.0779 14.3569 16.557 14.5729 16.0138 14.5736V14.5753Z" fill="black" fill-opacity="0.2"/>
<path d="M21.2809 9.73756C20.815 8.84523 20.1281 8.08723 19.2858 7.53592C18.4435 6.98461 17.474 6.65839 16.4698 6.58841C16.1667 6.5685 15.8626 6.5685 15.5595 6.58841C14.5551 6.65825 13.5854 6.9844 12.743 7.53572C11.9005 8.08703 11.2135 8.84511 10.7475 9.73756C10.2426 10.6727 9.98589 11.7216 10.0018 12.7841C10.0177 13.8467 10.3057 14.8874 10.8383 15.807L15.9289 24.6236C15.9377 24.6385 15.9502 24.6509 15.9653 24.6595C15.9803 24.6681 15.9973 24.6726 16.0146 24.6726C16.0319 24.6726 16.049 24.6681 16.064 24.6595C16.079 24.6509 16.0916 24.6385 16.1003 24.6236L21.1909 15.807C21.7234 14.8873 22.0113 13.8466 22.027 12.784C22.0428 11.7214 21.7859 10.6726 21.2809 9.73756ZM16.0138 14.5753C15.6083 14.5753 15.2119 14.455 14.8747 14.2297C14.5375 14.0044 14.2747 13.6842 14.1195 13.3096C13.9644 12.935 13.9238 12.5227 14.0029 12.125C14.082 11.7273 14.2773 11.362 14.564 11.0752C14.8507 10.7885 15.2161 10.5932 15.6138 10.5141C16.0115 10.435 16.4237 10.4756 16.7984 10.6308C17.173 10.786 17.4932 11.0487 17.7185 11.3859C17.9438 11.7231 18.0641 12.1195 18.0641 12.525C18.0629 13.0682 17.8465 13.5889 17.4622 13.9729C17.0779 14.3569 16.557 14.5729 16.0138 14.5736V14.5753Z" fill="black" fill-opacity="0.2"/>
<path d="M21.2809 9.73756C20.815 8.84523 20.1281 8.08723 19.2858 7.53592C18.4435 6.98461 17.474 6.65839 16.4698 6.58841C16.1667 6.5685 15.8626 6.5685 15.5595 6.58841C14.5551 6.65825 13.5854 6.9844 12.743 7.53572C11.9005 8.08703 11.2135 8.84511 10.7475 9.73756C10.2426 10.6727 9.98589 11.7216 10.0018 12.7841C10.0177 13.8467 10.3057 14.8874 10.8383 15.807L15.9289 24.6236C15.9377 24.6385 15.9502 24.6509 15.9653 24.6595C15.9803 24.6681 15.9973 24.6726 16.0146 24.6726C16.0319 24.6726 16.049 24.6681 16.064 24.6595C16.079 24.6509 16.0916 24.6385 16.1003 24.6236L21.1909 15.807C21.7234 14.8873 22.0113 13.8466 22.027 12.784C22.0428 11.7214 21.7859 10.6726 21.2809 9.73756ZM16.0138 14.5753C15.6083 14.5753 15.2119 14.455 14.8747 14.2297C14.5375 14.0044 14.2747 13.6842 14.1195 13.3096C13.9644 12.935 13.9238 12.5227 14.0029 12.125C14.082 11.7273 14.2773 11.362 14.564 11.0752C14.8507 10.7885 15.2161 10.5932 15.6138 10.5141C16.0115 10.435 16.4237 10.4756 16.7984 10.6308C17.173 10.786 17.4932 11.0487 17.7185 11.3859C17.9438 11.7231 18.0641 12.1195 18.0641 12.525C18.0629 13.0682 17.8465 13.5889 17.4622 13.9729C17.0779 14.3569 16.557 14.5729 16.0138 14.5736V14.5753Z" fill="black" fill-opacity="0.2"/>
<path d="M21.2809 9.73756C20.815 8.84523 20.1281 8.08723 19.2858 7.53592C18.4435 6.98461 17.474 6.65839 16.4698 6.58841C16.1667 6.5685 15.8626 6.5685 15.5595 6.58841C14.5551 6.65825 13.5854 6.9844 12.743 7.53572C11.9005 8.08703 11.2135 8.84511 10.7475 9.73756C10.2426 10.6727 9.98589 11.7216 10.0018 12.7841C10.0177 13.8467 10.3057 14.8874 10.8383 15.807L15.9289 24.6236C15.9377 24.6385 15.9502 24.6509 15.9653 24.6595C15.9803 24.6681 15.9973 24.6726 16.0146 24.6726C16.0319 24.6726 16.049 24.6681 16.064 24.6595C16.079 24.6509 16.0916 24.6385 16.1003 24.6236L21.1909 15.807C21.7234 14.8873 22.0113 13.8466 22.027 12.784C22.0428 11.7214 21.7859 10.6726 21.2809 9.73756ZM16.0138 14.5753C15.6083 14.5753 15.2119 14.455 14.8747 14.2297C14.5375 14.0044 14.2747 13.6842 14.1195 13.3096C13.9644 12.935 13.9238 12.5227 14.0029 12.125C14.082 11.7273 14.2773 11.362 14.564 11.0752C14.8507 10.7885 15.2161 10.5932 15.6138 10.5141C16.0115 10.435 16.4237 10.4756 16.7984 10.6308C17.173 10.786 17.4932 11.0487 17.7185 11.3859C17.9438 11.7231 18.0641 12.1195 18.0641 12.525C18.0629 13.0682 17.8465 13.5889 17.4622 13.9729C17.0779 14.3569 16.557 14.5729 16.0138 14.5736V14.5753Z" fill="black" fill-opacity="0.2"/>
<path d="M21.2809 9.73756C20.815 8.84523 20.1281 8.08723 19.2858 7.53592C18.4435 6.98461 17.474 6.65839 16.4698 6.58841C16.1667 6.5685 15.8626 6.5685 15.5595 6.58841C14.5551 6.65825 13.5854 6.9844 12.743 7.53572C11.9005 8.08703 11.2135 8.84511 10.7475 9.73756C10.2426 10.6727 9.98589 11.7216 10.0018 12.7841C10.0177 13.8467 10.3057 14.8874 10.8383 15.807L15.9289 24.6236C15.9377 24.6385 15.9502 24.6509 15.9653 24.6595C15.9803 24.6681 15.9973 24.6726 16.0146 24.6726C16.0319 24.6726 16.049 24.6681 16.064 24.6595C16.079 24.6509 16.0916 24.6385 16.1003 24.6236L21.1909 15.807C21.7234 14.8873 22.0113 13.8466 22.027 12.784C22.0428 11.7214 21.7859 10.6726 21.2809 9.73756ZM16.0138 14.5753C15.6083 14.5753 15.2119 14.455 14.8747 14.2297C14.5375 14.0044 14.2747 13.6842 14.1195 13.3096C13.9644 12.935 13.9238 12.5227 14.0029 12.125C14.082 11.7273 14.2773 11.362 14.564 11.0752C14.8507 10.7885 15.2161 10.5932 15.6138 10.5141C16.0115 10.435 16.4237 10.4756 16.7984 10.6308C17.173 10.786 17.4932 11.0487 17.7185 11.3859C17.9438 11.7231 18.0641 12.1195 18.0641 12.525C18.0629 13.0682 17.8465 13.5889 17.4622 13.9729C17.0779 14.3569 16.557 14.5729 16.0138 14.5736V14.5753Z" fill="black" fill-opacity="0.2"/>
<path d="M21.2809 9.73756C20.815 8.84523 20.1281 8.08723 19.2858 7.53592C18.4435 6.98461 17.474 6.65839 16.4698 6.58841C16.1667 6.5685 15.8626 6.5685 15.5595 6.58841C14.5551 6.65825 13.5854 6.9844 12.743 7.53572C11.9005 8.08703 11.2135 8.84511 10.7475 9.73756C10.2426 10.6727 9.98589 11.7216 10.0018 12.7841C10.0177 13.8467 10.3057 14.8874 10.8383 15.807L15.9289 24.6236C15.9377 24.6385 15.9502 24.6509 15.9653 24.6595C15.9803 24.6681 15.9973 24.6726 16.0146 24.6726C16.0319 24.6726 16.049 24.6681 16.064 24.6595C16.079 24.6509 16.0916 24.6385 16.1003 24.6236L21.1909 15.807C21.7234 14.8873 22.0113 13.8466 22.027 12.784C22.0428 11.7214 21.7859 10.6726 21.2809 9.73756ZM16.0138 14.5753C15.6083 14.5753 15.2119 14.455 14.8747 14.2297C14.5375 14.0044 14.2747 13.6842 14.1195 13.3096C13.9644 12.935 13.9238 12.5227 14.0029 12.125C14.082 11.7273 14.2773 11.362 14.564 11.0752C14.8507 10.7885 15.2161 10.5932 15.6138 10.5141C16.0115 10.435 16.4237 10.4756 16.7984 10.6308C17.173 10.786 17.4932 11.0487 17.7185 11.3859C17.9438 11.7231 18.0641 12.1195 18.0641 12.525C18.0629 13.0682 17.8465 13.5889 17.4622 13.9729C17.0779 14.3569 16.557 14.5729 16.0138 14.5736V14.5753Z" fill="black" fill-opacity="0.2"/>
<path d="M21.2809 9.73756C20.815 8.84523 20.1281 8.08723 19.2858 7.53592C18.4435 6.98461 17.474 6.65839 16.4698 6.58841C16.1667 6.5685 15.8626 6.5685 15.5595 6.58841C14.5551 6.65825 13.5854 6.9844 12.743 7.53572C11.9005 8.08703 11.2135 8.84511 10.7475 9.73756C10.2426 10.6727 9.98589 11.7216 10.0018 12.7841C10.0177 13.8467 10.3057 14.8874 10.8383 15.807L15.9289 24.6236C15.9377 24.6385 15.9502 24.6509 15.9653 24.6595C15.9803 24.6681 15.9973 24.6726 16.0146 24.6726C16.0319 24.6726 16.049 24.6681 16.064 24.6595C16.079 24.6509 16.0916 24.6385 16.1003 24.6236L21.1909 15.807C21.7234 14.8873 22.0113 13.8466 22.027 12.784C22.0428 11.7214 21.7859 10.6726 21.2809 9.73756ZM16.0138 14.5753C15.6083 14.5753 15.2119 14.455 14.8747 14.2297C14.5375 14.0044 14.2747 13.6842 14.1195 13.3096C13.9644 12.935 13.9238 12.5227 14.0029 12.125C14.082 11.7273 14.2773 11.362 14.564 11.0752C14.8507 10.7885 15.2161 10.5932 15.6138 10.5141C16.0115 10.435 16.4237 10.4756 16.7984 10.6308C17.173 10.786 17.4932 11.0487 17.7185 11.3859C17.9438 11.7231 18.0641 12.1195 18.0641 12.525C18.0629 13.0682 17.8465 13.5889 17.4622 13.9729C17.0779 14.3569 16.557 14.5729 16.0138 14.5736V14.5753Z" fill="black" fill-opacity="0.2"/>
</g>
<defs>
<clipPath id="clip0_321_433">
<rect width="32" height="32" fill="white"/>
</clipPath>
</defs>
</svg>
