<svg width="16" height="16" viewBox="0 0 16 16" fill="none" xmlns="http://www.w3.org/2000/svg">
<path fill-rule="evenodd" clip-rule="evenodd" d="M0.845215 1.86455C0.940949 1.76194 1.07542 1.7 1.22044 1.7H3.34818C3.54112 1.70073 3.72721 1.76441 3.88178 1.87949C4.03591 1.99425 4.15083 2.15407 4.21465 2.33552L4.90145 4.27364H14.3758C14.5292 4.27368 14.6794 4.31372 14.8131 4.38895C14.9466 4.46409 15.0589 4.57161 15.1418 4.70048C15.2247 4.82927 15.2763 4.97624 15.2936 5.12867C15.3108 5.28108 15.2933 5.43599 15.2422 5.58048L13.7366 9.82938C13.6719 10.0103 13.556 10.1702 13.4015 10.284C13.2467 10.3981 13.0607 10.4609 12.8682 10.461H7.09196L7.62414 11.9621H13.0719L13.0795 11.9625C13.4408 11.9809 13.7823 12.1301 14.0491 12.3807C14.3155 12.631 14.4918 12.9674 14.5536 13.3335C14.6154 13.6995 14.5599 14.0778 14.3946 14.4078C14.2291 14.7379 13.9617 15.0028 13.6321 15.1546C13.302 15.3066 12.932 15.3346 12.584 15.2329C12.2363 15.1313 11.9356 14.9077 11.7278 14.6038C11.5203 14.3003 11.4164 13.9331 11.43 13.5618C11.4367 13.3806 11.4713 13.2026 11.5316 13.0346H8.60044C8.65905 13.1967 8.69368 13.3682 8.70245 13.5429C8.72076 13.9082 8.62524 14.2713 8.42826 14.5753C8.23109 14.8796 7.94215 15.1089 7.60399 15.2222C7.2654 15.3356 6.90068 15.3247 6.56893 15.1918C6.23766 15.059 5.9615 14.8135 5.7806 14.4987C5.59985 14.1842 5.52301 13.8163 5.56003 13.4526C5.59705 13.0888 5.74631 12.7456 5.98805 12.478C6.14831 12.3007 6.34348 12.1631 6.55926 12.0749L5.88802 10.181C5.87586 10.158 5.86541 10.1342 5.85673 10.1097L4.04367 4.99337C4.03569 4.97055 4.02925 4.94727 4.02437 4.92371L3.26228 2.77255H1.22044C1.07542 2.77255 0.940949 2.71062 0.845215 2.608C0.750134 2.50609 0.700012 2.37204 0.700012 2.23628C0.700012 2.10051 0.750134 1.96647 0.845215 1.86455ZM14.2178 5.34619L12.7852 9.38902H6.71449L5.28162 5.34619H14.2178ZM12.9998 13.0328C12.8989 13.033 12.7984 13.065 12.7109 13.1277C12.623 13.1907 12.5516 13.2825 12.5087 13.3937C12.4657 13.505 12.4543 13.6285 12.4765 13.7478C12.4987 13.8671 12.5529 13.974 12.6294 14.056C12.7058 14.1378 12.8004 14.1908 12.9001 14.2121C12.9996 14.2333 13.103 14.2226 13.1981 14.1803C13.2936 14.1379 13.3786 14.0645 13.4399 13.9662C13.5012 13.8678 13.5351 13.7502 13.5352 13.6283C13.535 13.4641 13.4739 13.3104 13.3711 13.2001C13.2688 13.0904 13.1348 13.033 12.9998 13.0328ZM7.32726 13.0757C7.23209 13.0335 7.12873 13.0228 7.02926 13.0441C6.92958 13.0653 6.83497 13.1184 6.75867 13.2002C6.68216 13.2822 6.62796 13.3891 6.6058 13.5084C6.58364 13.6277 6.59513 13.7512 6.63809 13.8625C6.68101 13.9736 6.75244 14.0654 6.84029 14.1284C6.92778 14.1911 7.02825 14.2231 7.12911 14.2232C7.26468 14.2231 7.39858 14.1659 7.50046 14.0566C7.60338 13.9462 7.6645 13.7923 7.66455 13.6279C7.66447 13.5059 7.63055 13.3881 7.5691 13.2896C7.50776 13.1913 7.42274 13.118 7.32726 13.0757Z" fill="black"/>
<path fill-rule="evenodd" clip-rule="evenodd" d="M0.845215 1.86455C0.940949 1.76194 1.07542 1.7 1.22044 1.7H3.34818C3.54112 1.70073 3.72721 1.76441 3.88178 1.87949C4.03591 1.99425 4.15083 2.15407 4.21465 2.33552L4.90145 4.27364H14.3758C14.5292 4.27368 14.6794 4.31372 14.8131 4.38895C14.9466 4.46409 15.0589 4.57161 15.1418 4.70048C15.2247 4.82927 15.2763 4.97624 15.2936 5.12867C15.3108 5.28108 15.2933 5.43599 15.2422 5.58048L13.7366 9.82938C13.6719 10.0103 13.556 10.1702 13.4015 10.284C13.2467 10.3981 13.0607 10.4609 12.8682 10.461H7.09196L7.62414 11.9621H13.0719L13.0795 11.9625C13.4408 11.9809 13.7823 12.1301 14.0491 12.3807C14.3155 12.631 14.4918 12.9674 14.5536 13.3335C14.6154 13.6995 14.5599 14.0778 14.3946 14.4078C14.2291 14.7379 13.9617 15.0028 13.6321 15.1546C13.302 15.3066 12.932 15.3346 12.584 15.2329C12.2363 15.1313 11.9356 14.9077 11.7278 14.6038C11.5203 14.3003 11.4164 13.9331 11.43 13.5618C11.4367 13.3806 11.4713 13.2026 11.5316 13.0346H8.60044C8.65905 13.1967 8.69368 13.3682 8.70245 13.5429C8.72076 13.9082 8.62524 14.2713 8.42826 14.5753C8.23109 14.8796 7.94215 15.1089 7.60399 15.2222C7.2654 15.3356 6.90068 15.3247 6.56893 15.1918C6.23766 15.059 5.9615 14.8135 5.7806 14.4987C5.59985 14.1842 5.52301 13.8163 5.56003 13.4526C5.59705 13.0888 5.74631 12.7456 5.98805 12.478C6.14831 12.3007 6.34348 12.1631 6.55926 12.0749L5.88802 10.181C5.87586 10.158 5.86541 10.1342 5.85673 10.1097L4.04367 4.99337C4.03569 4.97055 4.02925 4.94727 4.02437 4.92371L3.26228 2.77255H1.22044C1.07542 2.77255 0.940949 2.71062 0.845215 2.608C0.750134 2.50609 0.700012 2.37204 0.700012 2.23628C0.700012 2.10051 0.750134 1.96647 0.845215 1.86455ZM14.2178 5.34619L12.7852 9.38902H6.71449L5.28162 5.34619H14.2178ZM12.9998 13.0328C12.8989 13.033 12.7984 13.065 12.7109 13.1277C12.623 13.1907 12.5516 13.2825 12.5087 13.3937C12.4657 13.505 12.4543 13.6285 12.4765 13.7478C12.4987 13.8671 12.5529 13.974 12.6294 14.056C12.7058 14.1378 12.8004 14.1908 12.9001 14.2121C12.9996 14.2333 13.103 14.2226 13.1981 14.1803C13.2936 14.1379 13.3786 14.0645 13.4399 13.9662C13.5012 13.8678 13.5351 13.7502 13.5352 13.6283C13.535 13.4641 13.4739 13.3104 13.3711 13.2001C13.2688 13.0904 13.1348 13.033 12.9998 13.0328ZM7.32726 13.0757C7.23209 13.0335 7.12873 13.0228 7.02926 13.0441C6.92958 13.0653 6.83497 13.1184 6.75867 13.2002C6.68216 13.2822 6.62796 13.3891 6.6058 13.5084C6.58364 13.6277 6.59513 13.7512 6.63809 13.8625C6.68101 13.9736 6.75244 14.0654 6.84029 14.1284C6.92778 14.1911 7.02825 14.2231 7.12911 14.2232C7.26468 14.2231 7.39858 14.1659 7.50046 14.0566C7.60338 13.9462 7.6645 13.7923 7.66455 13.6279C7.66447 13.5059 7.63055 13.3881 7.5691 13.2896C7.50776 13.1913 7.42274 13.118 7.32726 13.0757Z" fill="black" fill-opacity="0.2"/>
<path fill-rule="evenodd" clip-rule="evenodd" d="M0.845215 1.86455C0.940949 1.76194 1.07542 1.7 1.22044 1.7H3.34818C3.54112 1.70073 3.72721 1.76441 3.88178 1.87949C4.03591 1.99425 4.15083 2.15407 4.21465 2.33552L4.90145 4.27364H14.3758C14.5292 4.27368 14.6794 4.31372 14.8131 4.38895C14.9466 4.46409 15.0589 4.57161 15.1418 4.70048C15.2247 4.82927 15.2763 4.97624 15.2936 5.12867C15.3108 5.28108 15.2933 5.43599 15.2422 5.58048L13.7366 9.82938C13.6719 10.0103 13.556 10.1702 13.4015 10.284C13.2467 10.3981 13.0607 10.4609 12.8682 10.461H7.09196L7.62414 11.9621H13.0719L13.0795 11.9625C13.4408 11.9809 13.7823 12.1301 14.0491 12.3807C14.3155 12.631 14.4918 12.9674 14.5536 13.3335C14.6154 13.6995 14.5599 14.0778 14.3946 14.4078C14.2291 14.7379 13.9617 15.0028 13.6321 15.1546C13.302 15.3066 12.932 15.3346 12.584 15.2329C12.2363 15.1313 11.9356 14.9077 11.7278 14.6038C11.5203 14.3003 11.4164 13.9331 11.43 13.5618C11.4367 13.3806 11.4713 13.2026 11.5316 13.0346H8.60044C8.65905 13.1967 8.69368 13.3682 8.70245 13.5429C8.72076 13.9082 8.62524 14.2713 8.42826 14.5753C8.23109 14.8796 7.94215 15.1089 7.60399 15.2222C7.2654 15.3356 6.90068 15.3247 6.56893 15.1918C6.23766 15.059 5.9615 14.8135 5.7806 14.4987C5.59985 14.1842 5.52301 13.8163 5.56003 13.4526C5.59705 13.0888 5.74631 12.7456 5.98805 12.478C6.14831 12.3007 6.34348 12.1631 6.55926 12.0749L5.88802 10.181C5.87586 10.158 5.86541 10.1342 5.85673 10.1097L4.04367 4.99337C4.03569 4.97055 4.02925 4.94727 4.02437 4.92371L3.26228 2.77255H1.22044C1.07542 2.77255 0.940949 2.71062 0.845215 2.608C0.750134 2.50609 0.700012 2.37204 0.700012 2.23628C0.700012 2.10051 0.750134 1.96647 0.845215 1.86455ZM14.2178 5.34619L12.7852 9.38902H6.71449L5.28162 5.34619H14.2178ZM12.9998 13.0328C12.8989 13.033 12.7984 13.065 12.7109 13.1277C12.623 13.1907 12.5516 13.2825 12.5087 13.3937C12.4657 13.505 12.4543 13.6285 12.4765 13.7478C12.4987 13.8671 12.5529 13.974 12.6294 14.056C12.7058 14.1378 12.8004 14.1908 12.9001 14.2121C12.9996 14.2333 13.103 14.2226 13.1981 14.1803C13.2936 14.1379 13.3786 14.0645 13.4399 13.9662C13.5012 13.8678 13.5351 13.7502 13.5352 13.6283C13.535 13.4641 13.4739 13.3104 13.3711 13.2001C13.2688 13.0904 13.1348 13.033 12.9998 13.0328ZM7.32726 13.0757C7.23209 13.0335 7.12873 13.0228 7.02926 13.0441C6.92958 13.0653 6.83497 13.1184 6.75867 13.2002C6.68216 13.2822 6.62796 13.3891 6.6058 13.5084C6.58364 13.6277 6.59513 13.7512 6.63809 13.8625C6.68101 13.9736 6.75244 14.0654 6.84029 14.1284C6.92778 14.1911 7.02825 14.2231 7.12911 14.2232C7.26468 14.2231 7.39858 14.1659 7.50046 14.0566C7.60338 13.9462 7.6645 13.7923 7.66455 13.6279C7.66447 13.5059 7.63055 13.3881 7.5691 13.2896C7.50776 13.1913 7.42274 13.118 7.32726 13.0757Z" fill="black" fill-opacity="0.2"/>
<path fill-rule="evenodd" clip-rule="evenodd" d="M0.845215 1.86455C0.940949 1.76194 1.07542 1.7 1.22044 1.7H3.34818C3.54112 1.70073 3.72721 1.76441 3.88178 1.87949C4.03591 1.99425 4.15083 2.15407 4.21465 2.33552L4.90145 4.27364H14.3758C14.5292 4.27368 14.6794 4.31372 14.8131 4.38895C14.9466 4.46409 15.0589 4.57161 15.1418 4.70048C15.2247 4.82927 15.2763 4.97624 15.2936 5.12867C15.3108 5.28108 15.2933 5.43599 15.2422 5.58048L13.7366 9.82938C13.6719 10.0103 13.556 10.1702 13.4015 10.284C13.2467 10.3981 13.0607 10.4609 12.8682 10.461H7.09196L7.62414 11.9621H13.0719L13.0795 11.9625C13.4408 11.9809 13.7823 12.1301 14.0491 12.3807C14.3155 12.631 14.4918 12.9674 14.5536 13.3335C14.6154 13.6995 14.5599 14.0778 14.3946 14.4078C14.2291 14.7379 13.9617 15.0028 13.6321 15.1546C13.302 15.3066 12.932 15.3346 12.584 15.2329C12.2363 15.1313 11.9356 14.9077 11.7278 14.6038C11.5203 14.3003 11.4164 13.9331 11.43 13.5618C11.4367 13.3806 11.4713 13.2026 11.5316 13.0346H8.60044C8.65905 13.1967 8.69368 13.3682 8.70245 13.5429C8.72076 13.9082 8.62524 14.2713 8.42826 14.5753C8.23109 14.8796 7.94215 15.1089 7.60399 15.2222C7.2654 15.3356 6.90068 15.3247 6.56893 15.1918C6.23766 15.059 5.9615 14.8135 5.7806 14.4987C5.59985 14.1842 5.52301 13.8163 5.56003 13.4526C5.59705 13.0888 5.74631 12.7456 5.98805 12.478C6.14831 12.3007 6.34348 12.1631 6.55926 12.0749L5.88802 10.181C5.87586 10.158 5.86541 10.1342 5.85673 10.1097L4.04367 4.99337C4.03569 4.97055 4.02925 4.94727 4.02437 4.92371L3.26228 2.77255H1.22044C1.07542 2.77255 0.940949 2.71062 0.845215 2.608C0.750134 2.50609 0.700012 2.37204 0.700012 2.23628C0.700012 2.10051 0.750134 1.96647 0.845215 1.86455ZM14.2178 5.34619L12.7852 9.38902H6.71449L5.28162 5.34619H14.2178ZM12.9998 13.0328C12.8989 13.033 12.7984 13.065 12.7109 13.1277C12.623 13.1907 12.5516 13.2825 12.5087 13.3937C12.4657 13.505 12.4543 13.6285 12.4765 13.7478C12.4987 13.8671 12.5529 13.974 12.6294 14.056C12.7058 14.1378 12.8004 14.1908 12.9001 14.2121C12.9996 14.2333 13.103 14.2226 13.1981 14.1803C13.2936 14.1379 13.3786 14.0645 13.4399 13.9662C13.5012 13.8678 13.5351 13.7502 13.5352 13.6283C13.535 13.4641 13.4739 13.3104 13.3711 13.2001C13.2688 13.0904 13.1348 13.033 12.9998 13.0328ZM7.32726 13.0757C7.23209 13.0335 7.12873 13.0228 7.02926 13.0441C6.92958 13.0653 6.83497 13.1184 6.75867 13.2002C6.68216 13.2822 6.62796 13.3891 6.6058 13.5084C6.58364 13.6277 6.59513 13.7512 6.63809 13.8625C6.68101 13.9736 6.75244 14.0654 6.84029 14.1284C6.92778 14.1911 7.02825 14.2231 7.12911 14.2232C7.26468 14.2231 7.39858 14.1659 7.50046 14.0566C7.60338 13.9462 7.6645 13.7923 7.66455 13.6279C7.66447 13.5059 7.63055 13.3881 7.5691 13.2896C7.50776 13.1913 7.42274 13.118 7.32726 13.0757Z" fill="black" fill-opacity="0.2"/>
<path fill-rule="evenodd" clip-rule="evenodd" d="M0.845215 1.86455C0.940949 1.76194 1.07542 1.7 1.22044 1.7H3.34818C3.54112 1.70073 3.72721 1.76441 3.88178 1.87949C4.03591 1.99425 4.15083 2.15407 4.21465 2.33552L4.90145 4.27364H14.3758C14.5292 4.27368 14.6794 4.31372 14.8131 4.38895C14.9466 4.46409 15.0589 4.57161 15.1418 4.70048C15.2247 4.82927 15.2763 4.97624 15.2936 5.12867C15.3108 5.28108 15.2933 5.43599 15.2422 5.58048L13.7366 9.82938C13.6719 10.0103 13.556 10.1702 13.4015 10.284C13.2467 10.3981 13.0607 10.4609 12.8682 10.461H7.09196L7.62414 11.9621H13.0719L13.0795 11.9625C13.4408 11.9809 13.7823 12.1301 14.0491 12.3807C14.3155 12.631 14.4918 12.9674 14.5536 13.3335C14.6154 13.6995 14.5599 14.0778 14.3946 14.4078C14.2291 14.7379 13.9617 15.0028 13.6321 15.1546C13.302 15.3066 12.932 15.3346 12.584 15.2329C12.2363 15.1313 11.9356 14.9077 11.7278 14.6038C11.5203 14.3003 11.4164 13.9331 11.43 13.5618C11.4367 13.3806 11.4713 13.2026 11.5316 13.0346H8.60044C8.65905 13.1967 8.69368 13.3682 8.70245 13.5429C8.72076 13.9082 8.62524 14.2713 8.42826 14.5753C8.23109 14.8796 7.94215 15.1089 7.60399 15.2222C7.2654 15.3356 6.90068 15.3247 6.56893 15.1918C6.23766 15.059 5.9615 14.8135 5.7806 14.4987C5.59985 14.1842 5.52301 13.8163 5.56003 13.4526C5.59705 13.0888 5.74631 12.7456 5.98805 12.478C6.14831 12.3007 6.34348 12.1631 6.55926 12.0749L5.88802 10.181C5.87586 10.158 5.86541 10.1342 5.85673 10.1097L4.04367 4.99337C4.03569 4.97055 4.02925 4.94727 4.02437 4.92371L3.26228 2.77255H1.22044C1.07542 2.77255 0.940949 2.71062 0.845215 2.608C0.750134 2.50609 0.700012 2.37204 0.700012 2.23628C0.700012 2.10051 0.750134 1.96647 0.845215 1.86455ZM14.2178 5.34619L12.7852 9.38902H6.71449L5.28162 5.34619H14.2178ZM12.9998 13.0328C12.8989 13.033 12.7984 13.065 12.7109 13.1277C12.623 13.1907 12.5516 13.2825 12.5087 13.3937C12.4657 13.505 12.4543 13.6285 12.4765 13.7478C12.4987 13.8671 12.5529 13.974 12.6294 14.056C12.7058 14.1378 12.8004 14.1908 12.9001 14.2121C12.9996 14.2333 13.103 14.2226 13.1981 14.1803C13.2936 14.1379 13.3786 14.0645 13.4399 13.9662C13.5012 13.8678 13.5351 13.7502 13.5352 13.6283C13.535 13.4641 13.4739 13.3104 13.3711 13.2001C13.2688 13.0904 13.1348 13.033 12.9998 13.0328ZM7.32726 13.0757C7.23209 13.0335 7.12873 13.0228 7.02926 13.0441C6.92958 13.0653 6.83497 13.1184 6.75867 13.2002C6.68216 13.2822 6.62796 13.3891 6.6058 13.5084C6.58364 13.6277 6.59513 13.7512 6.63809 13.8625C6.68101 13.9736 6.75244 14.0654 6.84029 14.1284C6.92778 14.1911 7.02825 14.2231 7.12911 14.2232C7.26468 14.2231 7.39858 14.1659 7.50046 14.0566C7.60338 13.9462 7.6645 13.7923 7.66455 13.6279C7.66447 13.5059 7.63055 13.3881 7.5691 13.2896C7.50776 13.1913 7.42274 13.118 7.32726 13.0757Z" fill="black" fill-opacity="0.2"/>
<path fill-rule="evenodd" clip-rule="evenodd" d="M0.845215 1.86455C0.940949 1.76194 1.07542 1.7 1.22044 1.7H3.34818C3.54112 1.70073 3.72721 1.76441 3.88178 1.87949C4.03591 1.99425 4.15083 2.15407 4.21465 2.33552L4.90145 4.27364H14.3758C14.5292 4.27368 14.6794 4.31372 14.8131 4.38895C14.9466 4.46409 15.0589 4.57161 15.1418 4.70048C15.2247 4.82927 15.2763 4.97624 15.2936 5.12867C15.3108 5.28108 15.2933 5.43599 15.2422 5.58048L13.7366 9.82938C13.6719 10.0103 13.556 10.1702 13.4015 10.284C13.2467 10.3981 13.0607 10.4609 12.8682 10.461H7.09196L7.62414 11.9621H13.0719L13.0795 11.9625C13.4408 11.9809 13.7823 12.1301 14.0491 12.3807C14.3155 12.631 14.4918 12.9674 14.5536 13.3335C14.6154 13.6995 14.5599 14.0778 14.3946 14.4078C14.2291 14.7379 13.9617 15.0028 13.6321 15.1546C13.302 15.3066 12.932 15.3346 12.584 15.2329C12.2363 15.1313 11.9356 14.9077 11.7278 14.6038C11.5203 14.3003 11.4164 13.9331 11.43 13.5618C11.4367 13.3806 11.4713 13.2026 11.5316 13.0346H8.60044C8.65905 13.1967 8.69368 13.3682 8.70245 13.5429C8.72076 13.9082 8.62524 14.2713 8.42826 14.5753C8.23109 14.8796 7.94215 15.1089 7.60399 15.2222C7.2654 15.3356 6.90068 15.3247 6.56893 15.1918C6.23766 15.059 5.9615 14.8135 5.7806 14.4987C5.59985 14.1842 5.52301 13.8163 5.56003 13.4526C5.59705 13.0888 5.74631 12.7456 5.98805 12.478C6.14831 12.3007 6.34348 12.1631 6.55926 12.0749L5.88802 10.181C5.87586 10.158 5.86541 10.1342 5.85673 10.1097L4.04367 4.99337C4.03569 4.97055 4.02925 4.94727 4.02437 4.92371L3.26228 2.77255H1.22044C1.07542 2.77255 0.940949 2.71062 0.845215 2.608C0.750134 2.50609 0.700012 2.37204 0.700012 2.23628C0.700012 2.10051 0.750134 1.96647 0.845215 1.86455ZM14.2178 5.34619L12.7852 9.38902H6.71449L5.28162 5.34619H14.2178ZM12.9998 13.0328C12.8989 13.033 12.7984 13.065 12.7109 13.1277C12.623 13.1907 12.5516 13.2825 12.5087 13.3937C12.4657 13.505 12.4543 13.6285 12.4765 13.7478C12.4987 13.8671 12.5529 13.974 12.6294 14.056C12.7058 14.1378 12.8004 14.1908 12.9001 14.2121C12.9996 14.2333 13.103 14.2226 13.1981 14.1803C13.2936 14.1379 13.3786 14.0645 13.4399 13.9662C13.5012 13.8678 13.5351 13.7502 13.5352 13.6283C13.535 13.4641 13.4739 13.3104 13.3711 13.2001C13.2688 13.0904 13.1348 13.033 12.9998 13.0328ZM7.32726 13.0757C7.23209 13.0335 7.12873 13.0228 7.02926 13.0441C6.92958 13.0653 6.83497 13.1184 6.75867 13.2002C6.68216 13.2822 6.62796 13.3891 6.6058 13.5084C6.58364 13.6277 6.59513 13.7512 6.63809 13.8625C6.68101 13.9736 6.75244 14.0654 6.84029 14.1284C6.92778 14.1911 7.02825 14.2231 7.12911 14.2232C7.26468 14.2231 7.39858 14.1659 7.50046 14.0566C7.60338 13.9462 7.6645 13.7923 7.66455 13.6279C7.66447 13.5059 7.63055 13.3881 7.5691 13.2896C7.50776 13.1913 7.42274 13.118 7.32726 13.0757Z" fill="black" fill-opacity="0.2"/>
<path fill-rule="evenodd" clip-rule="evenodd" d="M0.845215 1.86455C0.940949 1.76194 1.07542 1.7 1.22044 1.7H3.34818C3.54112 1.70073 3.72721 1.76441 3.88178 1.87949C4.03591 1.99425 4.15083 2.15407 4.21465 2.33552L4.90145 4.27364H14.3758C14.5292 4.27368 14.6794 4.31372 14.8131 4.38895C14.9466 4.46409 15.0589 4.57161 15.1418 4.70048C15.2247 4.82927 15.2763 4.97624 15.2936 5.12867C15.3108 5.28108 15.2933 5.43599 15.2422 5.58048L13.7366 9.82938C13.6719 10.0103 13.556 10.1702 13.4015 10.284C13.2467 10.3981 13.0607 10.4609 12.8682 10.461H7.09196L7.62414 11.9621H13.0719L13.0795 11.9625C13.4408 11.9809 13.7823 12.1301 14.0491 12.3807C14.3155 12.631 14.4918 12.9674 14.5536 13.3335C14.6154 13.6995 14.5599 14.0778 14.3946 14.4078C14.2291 14.7379 13.9617 15.0028 13.6321 15.1546C13.302 15.3066 12.932 15.3346 12.584 15.2329C12.2363 15.1313 11.9356 14.9077 11.7278 14.6038C11.5203 14.3003 11.4164 13.9331 11.43 13.5618C11.4367 13.3806 11.4713 13.2026 11.5316 13.0346H8.60044C8.65905 13.1967 8.69368 13.3682 8.70245 13.5429C8.72076 13.9082 8.62524 14.2713 8.42826 14.5753C8.23109 14.8796 7.94215 15.1089 7.60399 15.2222C7.2654 15.3356 6.90068 15.3247 6.56893 15.1918C6.23766 15.059 5.9615 14.8135 5.7806 14.4987C5.59985 14.1842 5.52301 13.8163 5.56003 13.4526C5.59705 13.0888 5.74631 12.7456 5.98805 12.478C6.14831 12.3007 6.34348 12.1631 6.55926 12.0749L5.88802 10.181C5.87586 10.158 5.86541 10.1342 5.85673 10.1097L4.04367 4.99337C4.03569 4.97055 4.02925 4.94727 4.02437 4.92371L3.26228 2.77255H1.22044C1.07542 2.77255 0.940949 2.71062 0.845215 2.608C0.750134 2.50609 0.700012 2.37204 0.700012 2.23628C0.700012 2.10051 0.750134 1.96647 0.845215 1.86455ZM14.2178 5.34619L12.7852 9.38902H6.71449L5.28162 5.34619H14.2178ZM12.9998 13.0328C12.8989 13.033 12.7984 13.065 12.7109 13.1277C12.623 13.1907 12.5516 13.2825 12.5087 13.3937C12.4657 13.505 12.4543 13.6285 12.4765 13.7478C12.4987 13.8671 12.5529 13.974 12.6294 14.056C12.7058 14.1378 12.8004 14.1908 12.9001 14.2121C12.9996 14.2333 13.103 14.2226 13.1981 14.1803C13.2936 14.1379 13.3786 14.0645 13.4399 13.9662C13.5012 13.8678 13.5351 13.7502 13.5352 13.6283C13.535 13.4641 13.4739 13.3104 13.3711 13.2001C13.2688 13.0904 13.1348 13.033 12.9998 13.0328ZM7.32726 13.0757C7.23209 13.0335 7.12873 13.0228 7.02926 13.0441C6.92958 13.0653 6.83497 13.1184 6.75867 13.2002C6.68216 13.2822 6.62796 13.3891 6.6058 13.5084C6.58364 13.6277 6.59513 13.7512 6.63809 13.8625C6.68101 13.9736 6.75244 14.0654 6.84029 14.1284C6.92778 14.1911 7.02825 14.2231 7.12911 14.2232C7.26468 14.2231 7.39858 14.1659 7.50046 14.0566C7.60338 13.9462 7.6645 13.7923 7.66455 13.6279C7.66447 13.5059 7.63055 13.3881 7.5691 13.2896C7.50776 13.1913 7.42274 13.118 7.32726 13.0757Z" fill="black" fill-opacity="0.2"/>
<path fill-rule="evenodd" clip-rule="evenodd" d="M0.845215 1.86455C0.940949 1.76194 1.07542 1.7 1.22044 1.7H3.34818C3.54112 1.70073 3.72721 1.76441 3.88178 1.87949C4.03591 1.99425 4.15083 2.15407 4.21465 2.33552L4.90145 4.27364H14.3758C14.5292 4.27368 14.6794 4.31372 14.8131 4.38895C14.9466 4.46409 15.0589 4.57161 15.1418 4.70048C15.2247 4.82927 15.2763 4.97624 15.2936 5.12867C15.3108 5.28108 15.2933 5.43599 15.2422 5.58048L13.7366 9.82938C13.6719 10.0103 13.556 10.1702 13.4015 10.284C13.2467 10.3981 13.0607 10.4609 12.8682 10.461H7.09196L7.62414 11.9621H13.0719L13.0795 11.9625C13.4408 11.9809 13.7823 12.1301 14.0491 12.3807C14.3155 12.631 14.4918 12.9674 14.5536 13.3335C14.6154 13.6995 14.5599 14.0778 14.3946 14.4078C14.2291 14.7379 13.9617 15.0028 13.6321 15.1546C13.302 15.3066 12.932 15.3346 12.584 15.2329C12.2363 15.1313 11.9356 14.9077 11.7278 14.6038C11.5203 14.3003 11.4164 13.9331 11.43 13.5618C11.4367 13.3806 11.4713 13.2026 11.5316 13.0346H8.60044C8.65905 13.1967 8.69368 13.3682 8.70245 13.5429C8.72076 13.9082 8.62524 14.2713 8.42826 14.5753C8.23109 14.8796 7.94215 15.1089 7.60399 15.2222C7.2654 15.3356 6.90068 15.3247 6.56893 15.1918C6.23766 15.059 5.9615 14.8135 5.7806 14.4987C5.59985 14.1842 5.52301 13.8163 5.56003 13.4526C5.59705 13.0888 5.74631 12.7456 5.98805 12.478C6.14831 12.3007 6.34348 12.1631 6.55926 12.0749L5.88802 10.181C5.87586 10.158 5.86541 10.1342 5.85673 10.1097L4.04367 4.99337C4.03569 4.97055 4.02925 4.94727 4.02437 4.92371L3.26228 2.77255H1.22044C1.07542 2.77255 0.940949 2.71062 0.845215 2.608C0.750134 2.50609 0.700012 2.37204 0.700012 2.23628C0.700012 2.10051 0.750134 1.96647 0.845215 1.86455ZM14.2178 5.34619L12.7852 9.38902H6.71449L5.28162 5.34619H14.2178ZM12.9998 13.0328C12.8989 13.033 12.7984 13.065 12.7109 13.1277C12.623 13.1907 12.5516 13.2825 12.5087 13.3937C12.4657 13.505 12.4543 13.6285 12.4765 13.7478C12.4987 13.8671 12.5529 13.974 12.6294 14.056C12.7058 14.1378 12.8004 14.1908 12.9001 14.2121C12.9996 14.2333 13.103 14.2226 13.1981 14.1803C13.2936 14.1379 13.3786 14.0645 13.4399 13.9662C13.5012 13.8678 13.5351 13.7502 13.5352 13.6283C13.535 13.4641 13.4739 13.3104 13.3711 13.2001C13.2688 13.0904 13.1348 13.033 12.9998 13.0328ZM7.32726 13.0757C7.23209 13.0335 7.12873 13.0228 7.02926 13.0441C6.92958 13.0653 6.83497 13.1184 6.75867 13.2002C6.68216 13.2822 6.62796 13.3891 6.6058 13.5084C6.58364 13.6277 6.59513 13.7512 6.63809 13.8625C6.68101 13.9736 6.75244 14.0654 6.84029 14.1284C6.92778 14.1911 7.02825 14.2231 7.12911 14.2232C7.26468 14.2231 7.39858 14.1659 7.50046 14.0566C7.60338 13.9462 7.6645 13.7923 7.66455 13.6279C7.66447 13.5059 7.63055 13.3881 7.5691 13.2896C7.50776 13.1913 7.42274 13.118 7.32726 13.0757Z" fill="black" fill-opacity="0.2"/>
<path fill-rule="evenodd" clip-rule="evenodd" d="M0.845215 1.86455C0.940949 1.76194 1.07542 1.7 1.22044 1.7H3.34818C3.54112 1.70073 3.72721 1.76441 3.88178 1.87949C4.03591 1.99425 4.15083 2.15407 4.21465 2.33552L4.90145 4.27364H14.3758C14.5292 4.27368 14.6794 4.31372 14.8131 4.38895C14.9466 4.46409 15.0589 4.57161 15.1418 4.70048C15.2247 4.82927 15.2763 4.97624 15.2936 5.12867C15.3108 5.28108 15.2933 5.43599 15.2422 5.58048L13.7366 9.82938C13.6719 10.0103 13.556 10.1702 13.4015 10.284C13.2467 10.3981 13.0607 10.4609 12.8682 10.461H7.09196L7.62414 11.9621H13.0719L13.0795 11.9625C13.4408 11.9809 13.7823 12.1301 14.0491 12.3807C14.3155 12.631 14.4918 12.9674 14.5536 13.3335C14.6154 13.6995 14.5599 14.0778 14.3946 14.4078C14.2291 14.7379 13.9617 15.0028 13.6321 15.1546C13.302 15.3066 12.932 15.3346 12.584 15.2329C12.2363 15.1313 11.9356 14.9077 11.7278 14.6038C11.5203 14.3003 11.4164 13.9331 11.43 13.5618C11.4367 13.3806 11.4713 13.2026 11.5316 13.0346H8.60044C8.65905 13.1967 8.69368 13.3682 8.70245 13.5429C8.72076 13.9082 8.62524 14.2713 8.42826 14.5753C8.23109 14.8796 7.94215 15.1089 7.60399 15.2222C7.2654 15.3356 6.90068 15.3247 6.56893 15.1918C6.23766 15.059 5.9615 14.8135 5.7806 14.4987C5.59985 14.1842 5.52301 13.8163 5.56003 13.4526C5.59705 13.0888 5.74631 12.7456 5.98805 12.478C6.14831 12.3007 6.34348 12.1631 6.55926 12.0749L5.88802 10.181C5.87586 10.158 5.86541 10.1342 5.85673 10.1097L4.04367 4.99337C4.03569 4.97055 4.02925 4.94727 4.02437 4.92371L3.26228 2.77255H1.22044C1.07542 2.77255 0.940949 2.71062 0.845215 2.608C0.750134 2.50609 0.700012 2.37204 0.700012 2.23628C0.700012 2.10051 0.750134 1.96647 0.845215 1.86455ZM14.2178 5.34619L12.7852 9.38902H6.71449L5.28162 5.34619H14.2178ZM12.9998 13.0328C12.8989 13.033 12.7984 13.065 12.7109 13.1277C12.623 13.1907 12.5516 13.2825 12.5087 13.3937C12.4657 13.505 12.4543 13.6285 12.4765 13.7478C12.4987 13.8671 12.5529 13.974 12.6294 14.056C12.7058 14.1378 12.8004 14.1908 12.9001 14.2121C12.9996 14.2333 13.103 14.2226 13.1981 14.1803C13.2936 14.1379 13.3786 14.0645 13.4399 13.9662C13.5012 13.8678 13.5351 13.7502 13.5352 13.6283C13.535 13.4641 13.4739 13.3104 13.3711 13.2001C13.2688 13.0904 13.1348 13.033 12.9998 13.0328ZM7.32726 13.0757C7.23209 13.0335 7.12873 13.0228 7.02926 13.0441C6.92958 13.0653 6.83497 13.1184 6.75867 13.2002C6.68216 13.2822 6.62796 13.3891 6.6058 13.5084C6.58364 13.6277 6.59513 13.7512 6.63809 13.8625C6.68101 13.9736 6.75244 14.0654 6.84029 14.1284C6.92778 14.1911 7.02825 14.2231 7.12911 14.2232C7.26468 14.2231 7.39858 14.1659 7.50046 14.0566C7.60338 13.9462 7.6645 13.7923 7.66455 13.6279C7.66447 13.5059 7.63055 13.3881 7.5691 13.2896C7.50776 13.1913 7.42274 13.118 7.32726 13.0757Z" fill="black" fill-opacity="0.2"/>
<path fill-rule="evenodd" clip-rule="evenodd" d="M0.845215 1.86455C0.940949 1.76194 1.07542 1.7 1.22044 1.7H3.34818C3.54112 1.70073 3.72721 1.76441 3.88178 1.87949C4.03591 1.99425 4.15083 2.15407 4.21465 2.33552L4.90145 4.27364H14.3758C14.5292 4.27368 14.6794 4.31372 14.8131 4.38895C14.9466 4.46409 15.0589 4.57161 15.1418 4.70048C15.2247 4.82927 15.2763 4.97624 15.2936 5.12867C15.3108 5.28108 15.2933 5.43599 15.2422 5.58048L13.7366 9.82938C13.6719 10.0103 13.556 10.1702 13.4015 10.284C13.2467 10.3981 13.0607 10.4609 12.8682 10.461H7.09196L7.62414 11.9621H13.0719L13.0795 11.9625C13.4408 11.9809 13.7823 12.1301 14.0491 12.3807C14.3155 12.631 14.4918 12.9674 14.5536 13.3335C14.6154 13.6995 14.5599 14.0778 14.3946 14.4078C14.2291 14.7379 13.9617 15.0028 13.6321 15.1546C13.302 15.3066 12.932 15.3346 12.584 15.2329C12.2363 15.1313 11.9356 14.9077 11.7278 14.6038C11.5203 14.3003 11.4164 13.9331 11.43 13.5618C11.4367 13.3806 11.4713 13.2026 11.5316 13.0346H8.60044C8.65905 13.1967 8.69368 13.3682 8.70245 13.5429C8.72076 13.9082 8.62524 14.2713 8.42826 14.5753C8.23109 14.8796 7.94215 15.1089 7.60399 15.2222C7.2654 15.3356 6.90068 15.3247 6.56893 15.1918C6.23766 15.059 5.9615 14.8135 5.7806 14.4987C5.59985 14.1842 5.52301 13.8163 5.56003 13.4526C5.59705 13.0888 5.74631 12.7456 5.98805 12.478C6.14831 12.3007 6.34348 12.1631 6.55926 12.0749L5.88802 10.181C5.87586 10.158 5.86541 10.1342 5.85673 10.1097L4.04367 4.99337C4.03569 4.97055 4.02925 4.94727 4.02437 4.92371L3.26228 2.77255H1.22044C1.07542 2.77255 0.940949 2.71062 0.845215 2.608C0.750134 2.50609 0.700012 2.37204 0.700012 2.23628C0.700012 2.10051 0.750134 1.96647 0.845215 1.86455ZM14.2178 5.34619L12.7852 9.38902H6.71449L5.28162 5.34619H14.2178ZM12.9998 13.0328C12.8989 13.033 12.7984 13.065 12.7109 13.1277C12.623 13.1907 12.5516 13.2825 12.5087 13.3937C12.4657 13.505 12.4543 13.6285 12.4765 13.7478C12.4987 13.8671 12.5529 13.974 12.6294 14.056C12.7058 14.1378 12.8004 14.1908 12.9001 14.2121C12.9996 14.2333 13.103 14.2226 13.1981 14.1803C13.2936 14.1379 13.3786 14.0645 13.4399 13.9662C13.5012 13.8678 13.5351 13.7502 13.5352 13.6283C13.535 13.4641 13.4739 13.3104 13.3711 13.2001C13.2688 13.0904 13.1348 13.033 12.9998 13.0328ZM7.32726 13.0757C7.23209 13.0335 7.12873 13.0228 7.02926 13.0441C6.92958 13.0653 6.83497 13.1184 6.75867 13.2002C6.68216 13.2822 6.62796 13.3891 6.6058 13.5084C6.58364 13.6277 6.59513 13.7512 6.63809 13.8625C6.68101 13.9736 6.75244 14.0654 6.84029 14.1284C6.92778 14.1911 7.02825 14.2231 7.12911 14.2232C7.26468 14.2231 7.39858 14.1659 7.50046 14.0566C7.60338 13.9462 7.6645 13.7923 7.66455 13.6279C7.66447 13.5059 7.63055 13.3881 7.5691 13.2896C7.50776 13.1913 7.42274 13.118 7.32726 13.0757Z" fill="black" fill-opacity="0.2"/>
</svg>
