<svg width="24" height="24" viewBox="0 0 24 24" fill="none" xmlns="http://www.w3.org/2000/svg">
<g clip-path="url(#clip0_664_4294)">
<path d="M12 0C9.62663 0 7.30655 0.703787 5.33316 2.02236C3.35977 3.34094 1.8217 5.21508 0.913451 7.4078C0.00519941 9.60051 -0.232441 12.0133 0.230582 14.3411C0.693605 16.6689 1.83649 18.807 3.51472 20.4853C5.19295 22.1635 7.33115 23.3064 9.65892 23.7694C11.9867 24.2324 14.3995 23.9948 16.5922 23.0865C18.7849 22.1783 20.6591 20.6402 21.9776 18.6668C23.2962 16.6934 24 14.3734 24 12C23.9949 8.81896 22.729 5.76966 20.4797 3.52033C18.2303 1.27099 15.181 0.00507748 12 0ZM10.8 9.6V4.8H13.2V9.6H16.8L12 14.4L7.2 9.6H10.8ZM18 18H6V15.6H18V18Z" fill="black"/>
<path d="M12 0C9.62663 0 7.30655 0.703787 5.33316 2.02236C3.35977 3.34094 1.8217 5.21508 0.913451 7.4078C0.00519941 9.60051 -0.232441 12.0133 0.230582 14.3411C0.693605 16.6689 1.83649 18.807 3.51472 20.4853C5.19295 22.1635 7.33115 23.3064 9.65892 23.7694C11.9867 24.2324 14.3995 23.9948 16.5922 23.0865C18.7849 22.1783 20.6591 20.6402 21.9776 18.6668C23.2962 16.6934 24 14.3734 24 12C23.9949 8.81896 22.729 5.76966 20.4797 3.52033C18.2303 1.27099 15.181 0.00507748 12 0ZM10.8 9.6V4.8H13.2V9.6H16.8L12 14.4L7.2 9.6H10.8ZM18 18H6V15.6H18V18Z" fill="black" fill-opacity="0.2"/>
<path d="M12 0C9.62663 0 7.30655 0.703787 5.33316 2.02236C3.35977 3.34094 1.8217 5.21508 0.913451 7.4078C0.00519941 9.60051 -0.232441 12.0133 0.230582 14.3411C0.693605 16.6689 1.83649 18.807 3.51472 20.4853C5.19295 22.1635 7.33115 23.3064 9.65892 23.7694C11.9867 24.2324 14.3995 23.9948 16.5922 23.0865C18.7849 22.1783 20.6591 20.6402 21.9776 18.6668C23.2962 16.6934 24 14.3734 24 12C23.9949 8.81896 22.729 5.76966 20.4797 3.52033C18.2303 1.27099 15.181 0.00507748 12 0ZM10.8 9.6V4.8H13.2V9.6H16.8L12 14.4L7.2 9.6H10.8ZM18 18H6V15.6H18V18Z" fill="black" fill-opacity="0.2"/>
<path d="M12 0C9.62663 0 7.30655 0.703787 5.33316 2.02236C3.35977 3.34094 1.8217 5.21508 0.913451 7.4078C0.00519941 9.60051 -0.232441 12.0133 0.230582 14.3411C0.693605 16.6689 1.83649 18.807 3.51472 20.4853C5.19295 22.1635 7.33115 23.3064 9.65892 23.7694C11.9867 24.2324 14.3995 23.9948 16.5922 23.0865C18.7849 22.1783 20.6591 20.6402 21.9776 18.6668C23.2962 16.6934 24 14.3734 24 12C23.9949 8.81896 22.729 5.76966 20.4797 3.52033C18.2303 1.27099 15.181 0.00507748 12 0ZM10.8 9.6V4.8H13.2V9.6H16.8L12 14.4L7.2 9.6H10.8ZM18 18H6V15.6H18V18Z" fill="black" fill-opacity="0.2"/>
<path d="M12 0C9.62663 0 7.30655 0.703787 5.33316 2.02236C3.35977 3.34094 1.8217 5.21508 0.913451 7.4078C0.00519941 9.60051 -0.232441 12.0133 0.230582 14.3411C0.693605 16.6689 1.83649 18.807 3.51472 20.4853C5.19295 22.1635 7.33115 23.3064 9.65892 23.7694C11.9867 24.2324 14.3995 23.9948 16.5922 23.0865C18.7849 22.1783 20.6591 20.6402 21.9776 18.6668C23.2962 16.6934 24 14.3734 24 12C23.9949 8.81896 22.729 5.76966 20.4797 3.52033C18.2303 1.27099 15.181 0.00507748 12 0ZM10.8 9.6V4.8H13.2V9.6H16.8L12 14.4L7.2 9.6H10.8ZM18 18H6V15.6H18V18Z" fill="black" fill-opacity="0.2"/>
<path d="M12 0C9.62663 0 7.30655 0.703787 5.33316 2.02236C3.35977 3.34094 1.8217 5.21508 0.913451 7.4078C0.00519941 9.60051 -0.232441 12.0133 0.230582 14.3411C0.693605 16.6689 1.83649 18.807 3.51472 20.4853C5.19295 22.1635 7.33115 23.3064 9.65892 23.7694C11.9867 24.2324 14.3995 23.9948 16.5922 23.0865C18.7849 22.1783 20.6591 20.6402 21.9776 18.6668C23.2962 16.6934 24 14.3734 24 12C23.9949 8.81896 22.729 5.76966 20.4797 3.52033C18.2303 1.27099 15.181 0.00507748 12 0ZM10.8 9.6V4.8H13.2V9.6H16.8L12 14.4L7.2 9.6H10.8ZM18 18H6V15.6H18V18Z" fill="black" fill-opacity="0.2"/>
<path d="M12 0C9.62663 0 7.30655 0.703787 5.33316 2.02236C3.35977 3.34094 1.8217 5.21508 0.913451 7.4078C0.00519941 9.60051 -0.232441 12.0133 0.230582 14.3411C0.693605 16.6689 1.83649 18.807 3.51472 20.4853C5.19295 22.1635 7.33115 23.3064 9.65892 23.7694C11.9867 24.2324 14.3995 23.9948 16.5922 23.0865C18.7849 22.1783 20.6591 20.6402 21.9776 18.6668C23.2962 16.6934 24 14.3734 24 12C23.9949 8.81896 22.729 5.76966 20.4797 3.52033C18.2303 1.27099 15.181 0.00507748 12 0ZM10.8 9.6V4.8H13.2V9.6H16.8L12 14.4L7.2 9.6H10.8ZM18 18H6V15.6H18V18Z" fill="black" fill-opacity="0.2"/>
<path d="M12 0C9.62663 0 7.30655 0.703787 5.33316 2.02236C3.35977 3.34094 1.8217 5.21508 0.913451 7.4078C0.00519941 9.60051 -0.232441 12.0133 0.230582 14.3411C0.693605 16.6689 1.83649 18.807 3.51472 20.4853C5.19295 22.1635 7.33115 23.3064 9.65892 23.7694C11.9867 24.2324 14.3995 23.9948 16.5922 23.0865C18.7849 22.1783 20.6591 20.6402 21.9776 18.6668C23.2962 16.6934 24 14.3734 24 12C23.9949 8.81896 22.729 5.76966 20.4797 3.52033C18.2303 1.27099 15.181 0.00507748 12 0ZM10.8 9.6V4.8H13.2V9.6H16.8L12 14.4L7.2 9.6H10.8ZM18 18H6V15.6H18V18Z" fill="black" fill-opacity="0.2"/>
<path d="M12 0C9.62663 0 7.30655 0.703787 5.33316 2.02236C3.35977 3.34094 1.8217 5.21508 0.913451 7.4078C0.00519941 9.60051 -0.232441 12.0133 0.230582 14.3411C0.693605 16.6689 1.83649 18.807 3.51472 20.4853C5.19295 22.1635 7.33115 23.3064 9.65892 23.7694C11.9867 24.2324 14.3995 23.9948 16.5922 23.0865C18.7849 22.1783 20.6591 20.6402 21.9776 18.6668C23.2962 16.6934 24 14.3734 24 12C23.9949 8.81896 22.729 5.76966 20.4797 3.52033C18.2303 1.27099 15.181 0.00507748 12 0ZM10.8 9.6V4.8H13.2V9.6H16.8L12 14.4L7.2 9.6H10.8ZM18 18H6V15.6H18V18Z" fill="black" fill-opacity="0.2"/>
<path d="M12 0C9.62663 0 7.30655 0.703787 5.33316 2.02236C3.35977 3.34094 1.8217 5.21508 0.913451 7.4078C0.00519941 9.60051 -0.232441 12.0133 0.230582 14.3411C0.693605 16.6689 1.83649 18.807 3.51472 20.4853C5.19295 22.1635 7.33115 23.3064 9.65892 23.7694C11.9867 24.2324 14.3995 23.9948 16.5922 23.0865C18.7849 22.1783 20.6591 20.6402 21.9776 18.6668C23.2962 16.6934 24 14.3734 24 12C23.9949 8.81896 22.729 5.76966 20.4797 3.52033C18.2303 1.27099 15.181 0.00507748 12 0ZM10.8 9.6V4.8H13.2V9.6H16.8L12 14.4L7.2 9.6H10.8ZM18 18H6V15.6H18V18Z" fill="black" fill-opacity="0.2"/>
</g>
<defs>
<clipPath id="clip0_664_4294">
<rect width="24" height="24" fill="white"/>
</clipPath>
</defs>
</svg>
