<svg width="24" height="24" viewBox="0 0 24 24" fill="none" xmlns="http://www.w3.org/2000/svg">
<g clip-path="url(#clip0_314_225)">
<path fill-rule="evenodd" clip-rule="evenodd" d="M23.1428 2.57144H20.4497C19.9849 0.745128 18.1276 -0.358577 16.3012 0.106239C15.09 0.414509 14.1443 1.36026 13.836 2.57144H0.857159C0.383755 2.57144 0 2.9552 0 3.4286C0 3.90201 0.383755 4.28576 0.857159 4.28576H13.836C14.3008 6.11208 16.1582 7.21578 17.9845 6.75097C19.1957 6.4427 20.1415 5.49694 20.4497 4.28576H23.1428C23.6162 4.28576 24 3.90201 24 3.4286C24 2.9552 23.6162 2.57144 23.1428 2.57144ZM17.1429 5.14287C16.1961 5.14287 15.4286 4.37536 15.4286 3.4286C15.4286 2.48185 16.1961 1.71433 17.1429 1.71433C18.0896 1.71433 18.8571 2.48185 18.8571 3.4286C18.8571 4.37536 18.0896 5.14287 17.1429 5.14287ZM23.1428 19.7144H18.7354C18.2706 17.8881 16.4132 16.7844 14.5869 17.2492C13.3757 17.5575 12.4299 18.5033 12.1217 19.7144H0.857159C0.383755 19.7144 0 20.0982 0 20.5716C0 21.0449 0.383755 21.4287 0.857159 21.4287H12.1217C12.5865 23.255 14.4439 24.3587 16.2703 23.8939C17.4814 23.5857 18.4272 22.6399 18.7355 21.4287H23.1428C23.6162 21.4287 24 21.045 24 20.5716C24 20.0982 23.6162 19.7144 23.1428 19.7144ZM15.4286 22.2859C14.4818 22.2859 13.7143 21.5184 13.7143 20.5716C13.7143 19.6249 14.4818 18.8573 15.4286 18.8573C16.3753 18.8573 17.1428 19.6249 17.1428 20.5716C17.1428 21.5184 16.3754 22.2859 15.4286 22.2859ZM9.30686 11.1429H23.1428C23.6162 11.1429 24 11.5267 24 12.0001C24 12.4735 23.6162 12.8572 23.1428 12.8572H9.30691C8.99864 14.0684 8.05289 15.0141 6.8417 15.3224C5.01534 15.7872 3.15798 14.6835 2.69317 12.8572H0.857159C0.383755 12.8572 0 12.4735 0 12.0001C0 11.5267 0.383755 11.1429 0.857159 11.1429H2.69312C3.00139 9.93176 3.94714 8.98601 5.15832 8.67774C6.98469 8.21293 8.84204 9.31663 9.30686 11.1429ZM4.28574 12.0001C4.28574 12.9469 5.05326 13.7144 6.00001 13.7144C6.94677 13.7144 7.71428 12.9469 7.71428 12.0001C7.71428 11.0533 6.94677 10.2858 6.00001 10.2858C5.05326 10.2858 4.28574 11.0533 4.28574 12.0001Z" fill="black"/>
<path fill-rule="evenodd" clip-rule="evenodd" d="M23.1428 2.57144H20.4497C19.9849 0.745128 18.1276 -0.358577 16.3012 0.106239C15.09 0.414509 14.1443 1.36026 13.836 2.57144H0.857159C0.383755 2.57144 0 2.9552 0 3.4286C0 3.90201 0.383755 4.28576 0.857159 4.28576H13.836C14.3008 6.11208 16.1582 7.21578 17.9845 6.75097C19.1957 6.4427 20.1415 5.49694 20.4497 4.28576H23.1428C23.6162 4.28576 24 3.90201 24 3.4286C24 2.9552 23.6162 2.57144 23.1428 2.57144ZM17.1429 5.14287C16.1961 5.14287 15.4286 4.37536 15.4286 3.4286C15.4286 2.48185 16.1961 1.71433 17.1429 1.71433C18.0896 1.71433 18.8571 2.48185 18.8571 3.4286C18.8571 4.37536 18.0896 5.14287 17.1429 5.14287ZM23.1428 19.7144H18.7354C18.2706 17.8881 16.4132 16.7844 14.5869 17.2492C13.3757 17.5575 12.4299 18.5033 12.1217 19.7144H0.857159C0.383755 19.7144 0 20.0982 0 20.5716C0 21.0449 0.383755 21.4287 0.857159 21.4287H12.1217C12.5865 23.255 14.4439 24.3587 16.2703 23.8939C17.4814 23.5857 18.4272 22.6399 18.7355 21.4287H23.1428C23.6162 21.4287 24 21.045 24 20.5716C24 20.0982 23.6162 19.7144 23.1428 19.7144ZM15.4286 22.2859C14.4818 22.2859 13.7143 21.5184 13.7143 20.5716C13.7143 19.6249 14.4818 18.8573 15.4286 18.8573C16.3753 18.8573 17.1428 19.6249 17.1428 20.5716C17.1428 21.5184 16.3754 22.2859 15.4286 22.2859ZM9.30686 11.1429H23.1428C23.6162 11.1429 24 11.5267 24 12.0001C24 12.4735 23.6162 12.8572 23.1428 12.8572H9.30691C8.99864 14.0684 8.05289 15.0141 6.8417 15.3224C5.01534 15.7872 3.15798 14.6835 2.69317 12.8572H0.857159C0.383755 12.8572 0 12.4735 0 12.0001C0 11.5267 0.383755 11.1429 0.857159 11.1429H2.69312C3.00139 9.93176 3.94714 8.98601 5.15832 8.67774C6.98469 8.21293 8.84204 9.31663 9.30686 11.1429ZM4.28574 12.0001C4.28574 12.9469 5.05326 13.7144 6.00001 13.7144C6.94677 13.7144 7.71428 12.9469 7.71428 12.0001C7.71428 11.0533 6.94677 10.2858 6.00001 10.2858C5.05326 10.2858 4.28574 11.0533 4.28574 12.0001Z" fill="black" fill-opacity="0.2"/>
<path fill-rule="evenodd" clip-rule="evenodd" d="M23.1428 2.57144H20.4497C19.9849 0.745128 18.1276 -0.358577 16.3012 0.106239C15.09 0.414509 14.1443 1.36026 13.836 2.57144H0.857159C0.383755 2.57144 0 2.9552 0 3.4286C0 3.90201 0.383755 4.28576 0.857159 4.28576H13.836C14.3008 6.11208 16.1582 7.21578 17.9845 6.75097C19.1957 6.4427 20.1415 5.49694 20.4497 4.28576H23.1428C23.6162 4.28576 24 3.90201 24 3.4286C24 2.9552 23.6162 2.57144 23.1428 2.57144ZM17.1429 5.14287C16.1961 5.14287 15.4286 4.37536 15.4286 3.4286C15.4286 2.48185 16.1961 1.71433 17.1429 1.71433C18.0896 1.71433 18.8571 2.48185 18.8571 3.4286C18.8571 4.37536 18.0896 5.14287 17.1429 5.14287ZM23.1428 19.7144H18.7354C18.2706 17.8881 16.4132 16.7844 14.5869 17.2492C13.3757 17.5575 12.4299 18.5033 12.1217 19.7144H0.857159C0.383755 19.7144 0 20.0982 0 20.5716C0 21.0449 0.383755 21.4287 0.857159 21.4287H12.1217C12.5865 23.255 14.4439 24.3587 16.2703 23.8939C17.4814 23.5857 18.4272 22.6399 18.7355 21.4287H23.1428C23.6162 21.4287 24 21.045 24 20.5716C24 20.0982 23.6162 19.7144 23.1428 19.7144ZM15.4286 22.2859C14.4818 22.2859 13.7143 21.5184 13.7143 20.5716C13.7143 19.6249 14.4818 18.8573 15.4286 18.8573C16.3753 18.8573 17.1428 19.6249 17.1428 20.5716C17.1428 21.5184 16.3754 22.2859 15.4286 22.2859ZM9.30686 11.1429H23.1428C23.6162 11.1429 24 11.5267 24 12.0001C24 12.4735 23.6162 12.8572 23.1428 12.8572H9.30691C8.99864 14.0684 8.05289 15.0141 6.8417 15.3224C5.01534 15.7872 3.15798 14.6835 2.69317 12.8572H0.857159C0.383755 12.8572 0 12.4735 0 12.0001C0 11.5267 0.383755 11.1429 0.857159 11.1429H2.69312C3.00139 9.93176 3.94714 8.98601 5.15832 8.67774C6.98469 8.21293 8.84204 9.31663 9.30686 11.1429ZM4.28574 12.0001C4.28574 12.9469 5.05326 13.7144 6.00001 13.7144C6.94677 13.7144 7.71428 12.9469 7.71428 12.0001C7.71428 11.0533 6.94677 10.2858 6.00001 10.2858C5.05326 10.2858 4.28574 11.0533 4.28574 12.0001Z" fill="black" fill-opacity="0.2"/>
<path fill-rule="evenodd" clip-rule="evenodd" d="M23.1428 2.57144H20.4497C19.9849 0.745128 18.1276 -0.358577 16.3012 0.106239C15.09 0.414509 14.1443 1.36026 13.836 2.57144H0.857159C0.383755 2.57144 0 2.9552 0 3.4286C0 3.90201 0.383755 4.28576 0.857159 4.28576H13.836C14.3008 6.11208 16.1582 7.21578 17.9845 6.75097C19.1957 6.4427 20.1415 5.49694 20.4497 4.28576H23.1428C23.6162 4.28576 24 3.90201 24 3.4286C24 2.9552 23.6162 2.57144 23.1428 2.57144ZM17.1429 5.14287C16.1961 5.14287 15.4286 4.37536 15.4286 3.4286C15.4286 2.48185 16.1961 1.71433 17.1429 1.71433C18.0896 1.71433 18.8571 2.48185 18.8571 3.4286C18.8571 4.37536 18.0896 5.14287 17.1429 5.14287ZM23.1428 19.7144H18.7354C18.2706 17.8881 16.4132 16.7844 14.5869 17.2492C13.3757 17.5575 12.4299 18.5033 12.1217 19.7144H0.857159C0.383755 19.7144 0 20.0982 0 20.5716C0 21.0449 0.383755 21.4287 0.857159 21.4287H12.1217C12.5865 23.255 14.4439 24.3587 16.2703 23.8939C17.4814 23.5857 18.4272 22.6399 18.7355 21.4287H23.1428C23.6162 21.4287 24 21.045 24 20.5716C24 20.0982 23.6162 19.7144 23.1428 19.7144ZM15.4286 22.2859C14.4818 22.2859 13.7143 21.5184 13.7143 20.5716C13.7143 19.6249 14.4818 18.8573 15.4286 18.8573C16.3753 18.8573 17.1428 19.6249 17.1428 20.5716C17.1428 21.5184 16.3754 22.2859 15.4286 22.2859ZM9.30686 11.1429H23.1428C23.6162 11.1429 24 11.5267 24 12.0001C24 12.4735 23.6162 12.8572 23.1428 12.8572H9.30691C8.99864 14.0684 8.05289 15.0141 6.8417 15.3224C5.01534 15.7872 3.15798 14.6835 2.69317 12.8572H0.857159C0.383755 12.8572 0 12.4735 0 12.0001C0 11.5267 0.383755 11.1429 0.857159 11.1429H2.69312C3.00139 9.93176 3.94714 8.98601 5.15832 8.67774C6.98469 8.21293 8.84204 9.31663 9.30686 11.1429ZM4.28574 12.0001C4.28574 12.9469 5.05326 13.7144 6.00001 13.7144C6.94677 13.7144 7.71428 12.9469 7.71428 12.0001C7.71428 11.0533 6.94677 10.2858 6.00001 10.2858C5.05326 10.2858 4.28574 11.0533 4.28574 12.0001Z" fill="black" fill-opacity="0.2"/>
<path fill-rule="evenodd" clip-rule="evenodd" d="M23.1428 2.57144H20.4497C19.9849 0.745128 18.1276 -0.358577 16.3012 0.106239C15.09 0.414509 14.1443 1.36026 13.836 2.57144H0.857159C0.383755 2.57144 0 2.9552 0 3.4286C0 3.90201 0.383755 4.28576 0.857159 4.28576H13.836C14.3008 6.11208 16.1582 7.21578 17.9845 6.75097C19.1957 6.4427 20.1415 5.49694 20.4497 4.28576H23.1428C23.6162 4.28576 24 3.90201 24 3.4286C24 2.9552 23.6162 2.57144 23.1428 2.57144ZM17.1429 5.14287C16.1961 5.14287 15.4286 4.37536 15.4286 3.4286C15.4286 2.48185 16.1961 1.71433 17.1429 1.71433C18.0896 1.71433 18.8571 2.48185 18.8571 3.4286C18.8571 4.37536 18.0896 5.14287 17.1429 5.14287ZM23.1428 19.7144H18.7354C18.2706 17.8881 16.4132 16.7844 14.5869 17.2492C13.3757 17.5575 12.4299 18.5033 12.1217 19.7144H0.857159C0.383755 19.7144 0 20.0982 0 20.5716C0 21.0449 0.383755 21.4287 0.857159 21.4287H12.1217C12.5865 23.255 14.4439 24.3587 16.2703 23.8939C17.4814 23.5857 18.4272 22.6399 18.7355 21.4287H23.1428C23.6162 21.4287 24 21.045 24 20.5716C24 20.0982 23.6162 19.7144 23.1428 19.7144ZM15.4286 22.2859C14.4818 22.2859 13.7143 21.5184 13.7143 20.5716C13.7143 19.6249 14.4818 18.8573 15.4286 18.8573C16.3753 18.8573 17.1428 19.6249 17.1428 20.5716C17.1428 21.5184 16.3754 22.2859 15.4286 22.2859ZM9.30686 11.1429H23.1428C23.6162 11.1429 24 11.5267 24 12.0001C24 12.4735 23.6162 12.8572 23.1428 12.8572H9.30691C8.99864 14.0684 8.05289 15.0141 6.8417 15.3224C5.01534 15.7872 3.15798 14.6835 2.69317 12.8572H0.857159C0.383755 12.8572 0 12.4735 0 12.0001C0 11.5267 0.383755 11.1429 0.857159 11.1429H2.69312C3.00139 9.93176 3.94714 8.98601 5.15832 8.67774C6.98469 8.21293 8.84204 9.31663 9.30686 11.1429ZM4.28574 12.0001C4.28574 12.9469 5.05326 13.7144 6.00001 13.7144C6.94677 13.7144 7.71428 12.9469 7.71428 12.0001C7.71428 11.0533 6.94677 10.2858 6.00001 10.2858C5.05326 10.2858 4.28574 11.0533 4.28574 12.0001Z" fill="black" fill-opacity="0.2"/>
<path fill-rule="evenodd" clip-rule="evenodd" d="M23.1428 2.57144H20.4497C19.9849 0.745128 18.1276 -0.358577 16.3012 0.106239C15.09 0.414509 14.1443 1.36026 13.836 2.57144H0.857159C0.383755 2.57144 0 2.9552 0 3.4286C0 3.90201 0.383755 4.28576 0.857159 4.28576H13.836C14.3008 6.11208 16.1582 7.21578 17.9845 6.75097C19.1957 6.4427 20.1415 5.49694 20.4497 4.28576H23.1428C23.6162 4.28576 24 3.90201 24 3.4286C24 2.9552 23.6162 2.57144 23.1428 2.57144ZM17.1429 5.14287C16.1961 5.14287 15.4286 4.37536 15.4286 3.4286C15.4286 2.48185 16.1961 1.71433 17.1429 1.71433C18.0896 1.71433 18.8571 2.48185 18.8571 3.4286C18.8571 4.37536 18.0896 5.14287 17.1429 5.14287ZM23.1428 19.7144H18.7354C18.2706 17.8881 16.4132 16.7844 14.5869 17.2492C13.3757 17.5575 12.4299 18.5033 12.1217 19.7144H0.857159C0.383755 19.7144 0 20.0982 0 20.5716C0 21.0449 0.383755 21.4287 0.857159 21.4287H12.1217C12.5865 23.255 14.4439 24.3587 16.2703 23.8939C17.4814 23.5857 18.4272 22.6399 18.7355 21.4287H23.1428C23.6162 21.4287 24 21.045 24 20.5716C24 20.0982 23.6162 19.7144 23.1428 19.7144ZM15.4286 22.2859C14.4818 22.2859 13.7143 21.5184 13.7143 20.5716C13.7143 19.6249 14.4818 18.8573 15.4286 18.8573C16.3753 18.8573 17.1428 19.6249 17.1428 20.5716C17.1428 21.5184 16.3754 22.2859 15.4286 22.2859ZM9.30686 11.1429H23.1428C23.6162 11.1429 24 11.5267 24 12.0001C24 12.4735 23.6162 12.8572 23.1428 12.8572H9.30691C8.99864 14.0684 8.05289 15.0141 6.8417 15.3224C5.01534 15.7872 3.15798 14.6835 2.69317 12.8572H0.857159C0.383755 12.8572 0 12.4735 0 12.0001C0 11.5267 0.383755 11.1429 0.857159 11.1429H2.69312C3.00139 9.93176 3.94714 8.98601 5.15832 8.67774C6.98469 8.21293 8.84204 9.31663 9.30686 11.1429ZM4.28574 12.0001C4.28574 12.9469 5.05326 13.7144 6.00001 13.7144C6.94677 13.7144 7.71428 12.9469 7.71428 12.0001C7.71428 11.0533 6.94677 10.2858 6.00001 10.2858C5.05326 10.2858 4.28574 11.0533 4.28574 12.0001Z" fill="black" fill-opacity="0.2"/>
<path fill-rule="evenodd" clip-rule="evenodd" d="M23.1428 2.57144H20.4497C19.9849 0.745128 18.1276 -0.358577 16.3012 0.106239C15.09 0.414509 14.1443 1.36026 13.836 2.57144H0.857159C0.383755 2.57144 0 2.9552 0 3.4286C0 3.90201 0.383755 4.28576 0.857159 4.28576H13.836C14.3008 6.11208 16.1582 7.21578 17.9845 6.75097C19.1957 6.4427 20.1415 5.49694 20.4497 4.28576H23.1428C23.6162 4.28576 24 3.90201 24 3.4286C24 2.9552 23.6162 2.57144 23.1428 2.57144ZM17.1429 5.14287C16.1961 5.14287 15.4286 4.37536 15.4286 3.4286C15.4286 2.48185 16.1961 1.71433 17.1429 1.71433C18.0896 1.71433 18.8571 2.48185 18.8571 3.4286C18.8571 4.37536 18.0896 5.14287 17.1429 5.14287ZM23.1428 19.7144H18.7354C18.2706 17.8881 16.4132 16.7844 14.5869 17.2492C13.3757 17.5575 12.4299 18.5033 12.1217 19.7144H0.857159C0.383755 19.7144 0 20.0982 0 20.5716C0 21.0449 0.383755 21.4287 0.857159 21.4287H12.1217C12.5865 23.255 14.4439 24.3587 16.2703 23.8939C17.4814 23.5857 18.4272 22.6399 18.7355 21.4287H23.1428C23.6162 21.4287 24 21.045 24 20.5716C24 20.0982 23.6162 19.7144 23.1428 19.7144ZM15.4286 22.2859C14.4818 22.2859 13.7143 21.5184 13.7143 20.5716C13.7143 19.6249 14.4818 18.8573 15.4286 18.8573C16.3753 18.8573 17.1428 19.6249 17.1428 20.5716C17.1428 21.5184 16.3754 22.2859 15.4286 22.2859ZM9.30686 11.1429H23.1428C23.6162 11.1429 24 11.5267 24 12.0001C24 12.4735 23.6162 12.8572 23.1428 12.8572H9.30691C8.99864 14.0684 8.05289 15.0141 6.8417 15.3224C5.01534 15.7872 3.15798 14.6835 2.69317 12.8572H0.857159C0.383755 12.8572 0 12.4735 0 12.0001C0 11.5267 0.383755 11.1429 0.857159 11.1429H2.69312C3.00139 9.93176 3.94714 8.98601 5.15832 8.67774C6.98469 8.21293 8.84204 9.31663 9.30686 11.1429ZM4.28574 12.0001C4.28574 12.9469 5.05326 13.7144 6.00001 13.7144C6.94677 13.7144 7.71428 12.9469 7.71428 12.0001C7.71428 11.0533 6.94677 10.2858 6.00001 10.2858C5.05326 10.2858 4.28574 11.0533 4.28574 12.0001Z" fill="black" fill-opacity="0.2"/>
<path fill-rule="evenodd" clip-rule="evenodd" d="M23.1428 2.57144H20.4497C19.9849 0.745128 18.1276 -0.358577 16.3012 0.106239C15.09 0.414509 14.1443 1.36026 13.836 2.57144H0.857159C0.383755 2.57144 0 2.9552 0 3.4286C0 3.90201 0.383755 4.28576 0.857159 4.28576H13.836C14.3008 6.11208 16.1582 7.21578 17.9845 6.75097C19.1957 6.4427 20.1415 5.49694 20.4497 4.28576H23.1428C23.6162 4.28576 24 3.90201 24 3.4286C24 2.9552 23.6162 2.57144 23.1428 2.57144ZM17.1429 5.14287C16.1961 5.14287 15.4286 4.37536 15.4286 3.4286C15.4286 2.48185 16.1961 1.71433 17.1429 1.71433C18.0896 1.71433 18.8571 2.48185 18.8571 3.4286C18.8571 4.37536 18.0896 5.14287 17.1429 5.14287ZM23.1428 19.7144H18.7354C18.2706 17.8881 16.4132 16.7844 14.5869 17.2492C13.3757 17.5575 12.4299 18.5033 12.1217 19.7144H0.857159C0.383755 19.7144 0 20.0982 0 20.5716C0 21.0449 0.383755 21.4287 0.857159 21.4287H12.1217C12.5865 23.255 14.4439 24.3587 16.2703 23.8939C17.4814 23.5857 18.4272 22.6399 18.7355 21.4287H23.1428C23.6162 21.4287 24 21.045 24 20.5716C24 20.0982 23.6162 19.7144 23.1428 19.7144ZM15.4286 22.2859C14.4818 22.2859 13.7143 21.5184 13.7143 20.5716C13.7143 19.6249 14.4818 18.8573 15.4286 18.8573C16.3753 18.8573 17.1428 19.6249 17.1428 20.5716C17.1428 21.5184 16.3754 22.2859 15.4286 22.2859ZM9.30686 11.1429H23.1428C23.6162 11.1429 24 11.5267 24 12.0001C24 12.4735 23.6162 12.8572 23.1428 12.8572H9.30691C8.99864 14.0684 8.05289 15.0141 6.8417 15.3224C5.01534 15.7872 3.15798 14.6835 2.69317 12.8572H0.857159C0.383755 12.8572 0 12.4735 0 12.0001C0 11.5267 0.383755 11.1429 0.857159 11.1429H2.69312C3.00139 9.93176 3.94714 8.98601 5.15832 8.67774C6.98469 8.21293 8.84204 9.31663 9.30686 11.1429ZM4.28574 12.0001C4.28574 12.9469 5.05326 13.7144 6.00001 13.7144C6.94677 13.7144 7.71428 12.9469 7.71428 12.0001C7.71428 11.0533 6.94677 10.2858 6.00001 10.2858C5.05326 10.2858 4.28574 11.0533 4.28574 12.0001Z" fill="black" fill-opacity="0.2"/>
<path fill-rule="evenodd" clip-rule="evenodd" d="M23.1428 2.57144H20.4497C19.9849 0.745128 18.1276 -0.358577 16.3012 0.106239C15.09 0.414509 14.1443 1.36026 13.836 2.57144H0.857159C0.383755 2.57144 0 2.9552 0 3.4286C0 3.90201 0.383755 4.28576 0.857159 4.28576H13.836C14.3008 6.11208 16.1582 7.21578 17.9845 6.75097C19.1957 6.4427 20.1415 5.49694 20.4497 4.28576H23.1428C23.6162 4.28576 24 3.90201 24 3.4286C24 2.9552 23.6162 2.57144 23.1428 2.57144ZM17.1429 5.14287C16.1961 5.14287 15.4286 4.37536 15.4286 3.4286C15.4286 2.48185 16.1961 1.71433 17.1429 1.71433C18.0896 1.71433 18.8571 2.48185 18.8571 3.4286C18.8571 4.37536 18.0896 5.14287 17.1429 5.14287ZM23.1428 19.7144H18.7354C18.2706 17.8881 16.4132 16.7844 14.5869 17.2492C13.3757 17.5575 12.4299 18.5033 12.1217 19.7144H0.857159C0.383755 19.7144 0 20.0982 0 20.5716C0 21.0449 0.383755 21.4287 0.857159 21.4287H12.1217C12.5865 23.255 14.4439 24.3587 16.2703 23.8939C17.4814 23.5857 18.4272 22.6399 18.7355 21.4287H23.1428C23.6162 21.4287 24 21.045 24 20.5716C24 20.0982 23.6162 19.7144 23.1428 19.7144ZM15.4286 22.2859C14.4818 22.2859 13.7143 21.5184 13.7143 20.5716C13.7143 19.6249 14.4818 18.8573 15.4286 18.8573C16.3753 18.8573 17.1428 19.6249 17.1428 20.5716C17.1428 21.5184 16.3754 22.2859 15.4286 22.2859ZM9.30686 11.1429H23.1428C23.6162 11.1429 24 11.5267 24 12.0001C24 12.4735 23.6162 12.8572 23.1428 12.8572H9.30691C8.99864 14.0684 8.05289 15.0141 6.8417 15.3224C5.01534 15.7872 3.15798 14.6835 2.69317 12.8572H0.857159C0.383755 12.8572 0 12.4735 0 12.0001C0 11.5267 0.383755 11.1429 0.857159 11.1429H2.69312C3.00139 9.93176 3.94714 8.98601 5.15832 8.67774C6.98469 8.21293 8.84204 9.31663 9.30686 11.1429ZM4.28574 12.0001C4.28574 12.9469 5.05326 13.7144 6.00001 13.7144C6.94677 13.7144 7.71428 12.9469 7.71428 12.0001C7.71428 11.0533 6.94677 10.2858 6.00001 10.2858C5.05326 10.2858 4.28574 11.0533 4.28574 12.0001Z" fill="black" fill-opacity="0.2"/>
<path fill-rule="evenodd" clip-rule="evenodd" d="M23.1428 2.57144H20.4497C19.9849 0.745128 18.1276 -0.358577 16.3012 0.106239C15.09 0.414509 14.1443 1.36026 13.836 2.57144H0.857159C0.383755 2.57144 0 2.9552 0 3.4286C0 3.90201 0.383755 4.28576 0.857159 4.28576H13.836C14.3008 6.11208 16.1582 7.21578 17.9845 6.75097C19.1957 6.4427 20.1415 5.49694 20.4497 4.28576H23.1428C23.6162 4.28576 24 3.90201 24 3.4286C24 2.9552 23.6162 2.57144 23.1428 2.57144ZM17.1429 5.14287C16.1961 5.14287 15.4286 4.37536 15.4286 3.4286C15.4286 2.48185 16.1961 1.71433 17.1429 1.71433C18.0896 1.71433 18.8571 2.48185 18.8571 3.4286C18.8571 4.37536 18.0896 5.14287 17.1429 5.14287ZM23.1428 19.7144H18.7354C18.2706 17.8881 16.4132 16.7844 14.5869 17.2492C13.3757 17.5575 12.4299 18.5033 12.1217 19.7144H0.857159C0.383755 19.7144 0 20.0982 0 20.5716C0 21.0449 0.383755 21.4287 0.857159 21.4287H12.1217C12.5865 23.255 14.4439 24.3587 16.2703 23.8939C17.4814 23.5857 18.4272 22.6399 18.7355 21.4287H23.1428C23.6162 21.4287 24 21.045 24 20.5716C24 20.0982 23.6162 19.7144 23.1428 19.7144ZM15.4286 22.2859C14.4818 22.2859 13.7143 21.5184 13.7143 20.5716C13.7143 19.6249 14.4818 18.8573 15.4286 18.8573C16.3753 18.8573 17.1428 19.6249 17.1428 20.5716C17.1428 21.5184 16.3754 22.2859 15.4286 22.2859ZM9.30686 11.1429H23.1428C23.6162 11.1429 24 11.5267 24 12.0001C24 12.4735 23.6162 12.8572 23.1428 12.8572H9.30691C8.99864 14.0684 8.05289 15.0141 6.8417 15.3224C5.01534 15.7872 3.15798 14.6835 2.69317 12.8572H0.857159C0.383755 12.8572 0 12.4735 0 12.0001C0 11.5267 0.383755 11.1429 0.857159 11.1429H2.69312C3.00139 9.93176 3.94714 8.98601 5.15832 8.67774C6.98469 8.21293 8.84204 9.31663 9.30686 11.1429ZM4.28574 12.0001C4.28574 12.9469 5.05326 13.7144 6.00001 13.7144C6.94677 13.7144 7.71428 12.9469 7.71428 12.0001C7.71428 11.0533 6.94677 10.2858 6.00001 10.2858C5.05326 10.2858 4.28574 11.0533 4.28574 12.0001Z" fill="black" fill-opacity="0.2"/>
</g>
<defs>
<clipPath id="clip0_314_225">
<rect width="24" height="24" fill="white"/>
</clipPath>
</defs>
</svg>
