<svg width="16" height="16" viewBox="0 0 16 16" fill="none" xmlns="http://www.w3.org/2000/svg">
<g clip-path="url(#clip0_401_12030)">
<path fill-rule="evenodd" clip-rule="evenodd" d="M8 1.5C11.5899 1.5 14.5 4.41015 14.5 8C14.5 11.5899 11.5899 14.5 8 14.5C4.41015 14.5 1.5 11.5899 1.5 8C1.5 4.41015 4.41015 1.5 8 1.5ZM15.5 8C15.5 3.85786 12.1421 0.5 8 0.5C3.85786 0.5 0.5 3.85786 0.5 8C0.5 12.1421 3.85786 15.5 8 15.5C12.1421 15.5 15.5 12.1421 15.5 8ZM6.85232 4.36641C6.64019 4.54319 6.61152 4.85847 6.78831 5.07061L9.09957 7.84413L6.78831 10.6177C6.61152 10.8298 6.64019 11.1451 6.85232 11.3219C7.06446 11.4986 7.37974 11.47 7.55653 11.2578L10.1345 8.16422C10.2891 7.9788 10.2891 7.70946 10.1345 7.52404L7.55653 4.43042C7.37974 4.21829 7.06446 4.18962 6.85232 4.36641Z" fill="black"/>
<path fill-rule="evenodd" clip-rule="evenodd" d="M8 1.5C11.5899 1.5 14.5 4.41015 14.5 8C14.5 11.5899 11.5899 14.5 8 14.5C4.41015 14.5 1.5 11.5899 1.5 8C1.5 4.41015 4.41015 1.5 8 1.5ZM15.5 8C15.5 3.85786 12.1421 0.5 8 0.5C3.85786 0.5 0.5 3.85786 0.5 8C0.5 12.1421 3.85786 15.5 8 15.5C12.1421 15.5 15.5 12.1421 15.5 8ZM6.85232 4.36641C6.64019 4.54319 6.61152 4.85847 6.78831 5.07061L9.09957 7.84413L6.78831 10.6177C6.61152 10.8298 6.64019 11.1451 6.85232 11.3219C7.06446 11.4986 7.37974 11.47 7.55653 11.2578L10.1345 8.16422C10.2891 7.9788 10.2891 7.70946 10.1345 7.52404L7.55653 4.43042C7.37974 4.21829 7.06446 4.18962 6.85232 4.36641Z" fill="black" fill-opacity="0.2"/>
<path fill-rule="evenodd" clip-rule="evenodd" d="M8 1.5C11.5899 1.5 14.5 4.41015 14.5 8C14.5 11.5899 11.5899 14.5 8 14.5C4.41015 14.5 1.5 11.5899 1.5 8C1.5 4.41015 4.41015 1.5 8 1.5ZM15.5 8C15.5 3.85786 12.1421 0.5 8 0.5C3.85786 0.5 0.5 3.85786 0.5 8C0.5 12.1421 3.85786 15.5 8 15.5C12.1421 15.5 15.5 12.1421 15.5 8ZM6.85232 4.36641C6.64019 4.54319 6.61152 4.85847 6.78831 5.07061L9.09957 7.84413L6.78831 10.6177C6.61152 10.8298 6.64019 11.1451 6.85232 11.3219C7.06446 11.4986 7.37974 11.47 7.55653 11.2578L10.1345 8.16422C10.2891 7.9788 10.2891 7.70946 10.1345 7.52404L7.55653 4.43042C7.37974 4.21829 7.06446 4.18962 6.85232 4.36641Z" fill="black" fill-opacity="0.2"/>
<path fill-rule="evenodd" clip-rule="evenodd" d="M8 1.5C11.5899 1.5 14.5 4.41015 14.5 8C14.5 11.5899 11.5899 14.5 8 14.5C4.41015 14.5 1.5 11.5899 1.5 8C1.5 4.41015 4.41015 1.5 8 1.5ZM15.5 8C15.5 3.85786 12.1421 0.5 8 0.5C3.85786 0.5 0.5 3.85786 0.5 8C0.5 12.1421 3.85786 15.5 8 15.5C12.1421 15.5 15.5 12.1421 15.5 8ZM6.85232 4.36641C6.64019 4.54319 6.61152 4.85847 6.78831 5.07061L9.09957 7.84413L6.78831 10.6177C6.61152 10.8298 6.64019 11.1451 6.85232 11.3219C7.06446 11.4986 7.37974 11.47 7.55653 11.2578L10.1345 8.16422C10.2891 7.9788 10.2891 7.70946 10.1345 7.52404L7.55653 4.43042C7.37974 4.21829 7.06446 4.18962 6.85232 4.36641Z" fill="black" fill-opacity="0.2"/>
<path fill-rule="evenodd" clip-rule="evenodd" d="M8 1.5C11.5899 1.5 14.5 4.41015 14.5 8C14.5 11.5899 11.5899 14.5 8 14.5C4.41015 14.5 1.5 11.5899 1.5 8C1.5 4.41015 4.41015 1.5 8 1.5ZM15.5 8C15.5 3.85786 12.1421 0.5 8 0.5C3.85786 0.5 0.5 3.85786 0.5 8C0.5 12.1421 3.85786 15.5 8 15.5C12.1421 15.5 15.5 12.1421 15.5 8ZM6.85232 4.36641C6.64019 4.54319 6.61152 4.85847 6.78831 5.07061L9.09957 7.84413L6.78831 10.6177C6.61152 10.8298 6.64019 11.1451 6.85232 11.3219C7.06446 11.4986 7.37974 11.47 7.55653 11.2578L10.1345 8.16422C10.2891 7.9788 10.2891 7.70946 10.1345 7.52404L7.55653 4.43042C7.37974 4.21829 7.06446 4.18962 6.85232 4.36641Z" fill="black" fill-opacity="0.2"/>
<path fill-rule="evenodd" clip-rule="evenodd" d="M8 1.5C11.5899 1.5 14.5 4.41015 14.5 8C14.5 11.5899 11.5899 14.5 8 14.5C4.41015 14.5 1.5 11.5899 1.5 8C1.5 4.41015 4.41015 1.5 8 1.5ZM15.5 8C15.5 3.85786 12.1421 0.5 8 0.5C3.85786 0.5 0.5 3.85786 0.5 8C0.5 12.1421 3.85786 15.5 8 15.5C12.1421 15.5 15.5 12.1421 15.5 8ZM6.85232 4.36641C6.64019 4.54319 6.61152 4.85847 6.78831 5.07061L9.09957 7.84413L6.78831 10.6177C6.61152 10.8298 6.64019 11.1451 6.85232 11.3219C7.06446 11.4986 7.37974 11.47 7.55653 11.2578L10.1345 8.16422C10.2891 7.9788 10.2891 7.70946 10.1345 7.52404L7.55653 4.43042C7.37974 4.21829 7.06446 4.18962 6.85232 4.36641Z" fill="black" fill-opacity="0.2"/>
<path fill-rule="evenodd" clip-rule="evenodd" d="M8 1.5C11.5899 1.5 14.5 4.41015 14.5 8C14.5 11.5899 11.5899 14.5 8 14.5C4.41015 14.5 1.5 11.5899 1.5 8C1.5 4.41015 4.41015 1.5 8 1.5ZM15.5 8C15.5 3.85786 12.1421 0.5 8 0.5C3.85786 0.5 0.5 3.85786 0.5 8C0.5 12.1421 3.85786 15.5 8 15.5C12.1421 15.5 15.5 12.1421 15.5 8ZM6.85232 4.36641C6.64019 4.54319 6.61152 4.85847 6.78831 5.07061L9.09957 7.84413L6.78831 10.6177C6.61152 10.8298 6.64019 11.1451 6.85232 11.3219C7.06446 11.4986 7.37974 11.47 7.55653 11.2578L10.1345 8.16422C10.2891 7.9788 10.2891 7.70946 10.1345 7.52404L7.55653 4.43042C7.37974 4.21829 7.06446 4.18962 6.85232 4.36641Z" fill="black" fill-opacity="0.2"/>
<path fill-rule="evenodd" clip-rule="evenodd" d="M8 1.5C11.5899 1.5 14.5 4.41015 14.5 8C14.5 11.5899 11.5899 14.5 8 14.5C4.41015 14.5 1.5 11.5899 1.5 8C1.5 4.41015 4.41015 1.5 8 1.5ZM15.5 8C15.5 3.85786 12.1421 0.5 8 0.5C3.85786 0.5 0.5 3.85786 0.5 8C0.5 12.1421 3.85786 15.5 8 15.5C12.1421 15.5 15.5 12.1421 15.5 8ZM6.85232 4.36641C6.64019 4.54319 6.61152 4.85847 6.78831 5.07061L9.09957 7.84413L6.78831 10.6177C6.61152 10.8298 6.64019 11.1451 6.85232 11.3219C7.06446 11.4986 7.37974 11.47 7.55653 11.2578L10.1345 8.16422C10.2891 7.9788 10.2891 7.70946 10.1345 7.52404L7.55653 4.43042C7.37974 4.21829 7.06446 4.18962 6.85232 4.36641Z" fill="black" fill-opacity="0.2"/>
<path fill-rule="evenodd" clip-rule="evenodd" d="M8 1.5C11.5899 1.5 14.5 4.41015 14.5 8C14.5 11.5899 11.5899 14.5 8 14.5C4.41015 14.5 1.5 11.5899 1.5 8C1.5 4.41015 4.41015 1.5 8 1.5ZM15.5 8C15.5 3.85786 12.1421 0.5 8 0.5C3.85786 0.5 0.5 3.85786 0.5 8C0.5 12.1421 3.85786 15.5 8 15.5C12.1421 15.5 15.5 12.1421 15.5 8ZM6.85232 4.36641C6.64019 4.54319 6.61152 4.85847 6.78831 5.07061L9.09957 7.84413L6.78831 10.6177C6.61152 10.8298 6.64019 11.1451 6.85232 11.3219C7.06446 11.4986 7.37974 11.47 7.55653 11.2578L10.1345 8.16422C10.2891 7.9788 10.2891 7.70946 10.1345 7.52404L7.55653 4.43042C7.37974 4.21829 7.06446 4.18962 6.85232 4.36641Z" fill="black" fill-opacity="0.2"/>
<path fill-rule="evenodd" clip-rule="evenodd" d="M8 1.5C11.5899 1.5 14.5 4.41015 14.5 8C14.5 11.5899 11.5899 14.5 8 14.5C4.41015 14.5 1.5 11.5899 1.5 8C1.5 4.41015 4.41015 1.5 8 1.5ZM15.5 8C15.5 3.85786 12.1421 0.5 8 0.5C3.85786 0.5 0.5 3.85786 0.5 8C0.5 12.1421 3.85786 15.5 8 15.5C12.1421 15.5 15.5 12.1421 15.5 8ZM6.85232 4.36641C6.64019 4.54319 6.61152 4.85847 6.78831 5.07061L9.09957 7.84413L6.78831 10.6177C6.61152 10.8298 6.64019 11.1451 6.85232 11.3219C7.06446 11.4986 7.37974 11.47 7.55653 11.2578L10.1345 8.16422C10.2891 7.9788 10.2891 7.70946 10.1345 7.52404L7.55653 4.43042C7.37974 4.21829 7.06446 4.18962 6.85232 4.36641Z" fill="black" fill-opacity="0.2"/>
</g>
<defs>
<clipPath id="clip0_401_12030">
<rect width="16" height="16" fill="white" transform="matrix(1 0 0 -1 0 16)"/>
</clipPath>
</defs>
</svg>
