<svg width="24" height="24" viewBox="0 0 24 24" fill="none" xmlns="http://www.w3.org/2000/svg">
<g clip-path="url(#clip0_414_2971)">
<path d="M24 11.9991L11.789 0L9.09334 2.64959L16.3743 9.80396H0V14.3721H16.1929L9.09239 21.3495L11.789 24L24 11.9991ZM18.6078 11.9991L18.5973 12.0093V11.9898L18.6078 11.9991Z" fill="black"/>
<path d="M24 11.9991L11.789 0L9.09334 2.64959L16.3743 9.80396H0V14.3721H16.1929L9.09239 21.3495L11.789 24L24 11.9991ZM18.6078 11.9991L18.5973 12.0093V11.9898L18.6078 11.9991Z" fill="black" fill-opacity="0.2"/>
<path d="M24 11.9991L11.789 0L9.09334 2.64959L16.3743 9.80396H0V14.3721H16.1929L9.09239 21.3495L11.789 24L24 11.9991ZM18.6078 11.9991L18.5973 12.0093V11.9898L18.6078 11.9991Z" fill="black" fill-opacity="0.2"/>
<path d="M24 11.9991L11.789 0L9.09334 2.64959L16.3743 9.80396H0V14.3721H16.1929L9.09239 21.3495L11.789 24L24 11.9991ZM18.6078 11.9991L18.5973 12.0093V11.9898L18.6078 11.9991Z" fill="black" fill-opacity="0.2"/>
<path d="M24 11.9991L11.789 0L9.09334 2.64959L16.3743 9.80396H0V14.3721H16.1929L9.09239 21.3495L11.789 24L24 11.9991ZM18.6078 11.9991L18.5973 12.0093V11.9898L18.6078 11.9991Z" fill="black" fill-opacity="0.2"/>
<path d="M24 11.9991L11.789 0L9.09334 2.64959L16.3743 9.80396H0V14.3721H16.1929L9.09239 21.3495L11.789 24L24 11.9991ZM18.6078 11.9991L18.5973 12.0093V11.9898L18.6078 11.9991Z" fill="black" fill-opacity="0.2"/>
<path d="M24 11.9991L11.789 0L9.09334 2.64959L16.3743 9.80396H0V14.3721H16.1929L9.09239 21.3495L11.789 24L24 11.9991ZM18.6078 11.9991L18.5973 12.0093V11.9898L18.6078 11.9991Z" fill="black" fill-opacity="0.2"/>
<path d="M24 11.9991L11.789 0L9.09334 2.64959L16.3743 9.80396H0V14.3721H16.1929L9.09239 21.3495L11.789 24L24 11.9991ZM18.6078 11.9991L18.5973 12.0093V11.9898L18.6078 11.9991Z" fill="black" fill-opacity="0.2"/>
<path d="M24 11.9991L11.789 0L9.09334 2.64959L16.3743 9.80396H0V14.3721H16.1929L9.09239 21.3495L11.789 24L24 11.9991ZM18.6078 11.9991L18.5973 12.0093V11.9898L18.6078 11.9991Z" fill="black" fill-opacity="0.2"/>
<path d="M24 11.9991L11.789 0L9.09334 2.64959L16.3743 9.80396H0V14.3721H16.1929L9.09239 21.3495L11.789 24L24 11.9991ZM18.6078 11.9991L18.5973 12.0093V11.9898L18.6078 11.9991Z" fill="black" fill-opacity="0.2"/>
</g>
<defs>
<clipPath id="clip0_414_2971">
<rect width="24" height="24" fill="white" transform="matrix(-1 0 0 1 24 0)"/>
</clipPath>
</defs>
</svg>
