<svg width="32" height="32" viewBox="0 0 32 32" fill="none" xmlns="http://www.w3.org/2000/svg">
<path fill-rule="evenodd" clip-rule="evenodd" d="M28.9681 1H20.1221V9.15607C20.1221 9.48747 19.9339 9.79485 19.6256 9.96674C19.3172 10.1388 18.9336 10.1502 18.6138 9.99721L16.0082 8.75077L13.503 9.99095C13.3501 10.0667 13.1817 10.1044 13.0137 10.1044C12.8304 10.1044 12.6473 10.0595 12.4846 9.97022C12.1728 9.79902 11.9819 9.48981 11.9819 9.15607V1H3.03182C2.46198 1 2 1.42459 2 1.9483V25.4999C2 26.0236 2.46198 26.4482 3.03182 26.4482H7.51462C7.088 25.4094 6.87716 24.2829 6.87716 23.0452V17.9554C6.87716 17.1968 7.49742 16.5538 8.31992 16.46C9.43863 16.3324 10.428 15.6662 10.902 14.7215C11.0706 14.3855 11.4364 14.1702 11.8391 14.1702H20.1609C20.5635 14.1702 20.9293 14.3854 21.0978 14.7215C21.572 15.6663 22.5613 16.3324 23.68 16.46C24.5025 16.5538 25.1228 17.1967 25.1228 17.9554V23.0452C25.1228 24.283 24.9119 25.4094 24.4853 26.4482H28.9682C29.538 26.4482 30 26.0236 30 25.4999V1.9483C29.9999 1.42459 29.5379 1 28.9681 1ZM14.0455 7.56818L15.5106 6.84292C15.8115 6.69397 16.1732 6.69163 16.4763 6.83659L18.0584 7.5934V1H14.0455V7.56818ZM23.0591 18.2881V23.0453C23.0591 26.1624 21.4999 28.3377 17.8454 30.319L16.5242 31.0352C16.2009 31.2106 15.7991 31.2106 15.4757 31.0352L14.1545 30.319C10.5 28.3377 8.9408 26.1624 8.9408 23.0454V18.2882C10.3869 18.0262 11.6674 17.2114 12.4508 16.0669H19.5492C20.3326 17.2114 21.6131 18.0262 23.0591 18.2881ZM14.3188 26.2761C14.5202 26.4613 14.7843 26.5539 15.0484 26.5539C15.3125 26.5539 15.5765 26.4613 15.7779 26.2762L19.7736 22.604C20.1765 22.2336 20.1765 21.6332 19.7736 21.2629C19.3706 20.8926 18.7173 20.8926 18.3144 21.2629L15.0484 24.2645L13.6855 23.0119C13.2825 22.6416 12.6292 22.6416 12.2263 23.0119C11.8233 23.3823 11.8233 23.9827 12.2263 24.353L14.3188 26.2761Z" fill="black"/>
<path fill-rule="evenodd" clip-rule="evenodd" d="M28.9681 1H20.1221V9.15607C20.1221 9.48747 19.9339 9.79485 19.6256 9.96674C19.3172 10.1388 18.9336 10.1502 18.6138 9.99721L16.0082 8.75077L13.503 9.99095C13.3501 10.0667 13.1817 10.1044 13.0137 10.1044C12.8304 10.1044 12.6473 10.0595 12.4846 9.97022C12.1728 9.79902 11.9819 9.48981 11.9819 9.15607V1H3.03182C2.46198 1 2 1.42459 2 1.9483V25.4999C2 26.0236 2.46198 26.4482 3.03182 26.4482H7.51462C7.088 25.4094 6.87716 24.2829 6.87716 23.0452V17.9554C6.87716 17.1968 7.49742 16.5538 8.31992 16.46C9.43863 16.3324 10.428 15.6662 10.902 14.7215C11.0706 14.3855 11.4364 14.1702 11.8391 14.1702H20.1609C20.5635 14.1702 20.9293 14.3854 21.0978 14.7215C21.572 15.6663 22.5613 16.3324 23.68 16.46C24.5025 16.5538 25.1228 17.1967 25.1228 17.9554V23.0452C25.1228 24.283 24.9119 25.4094 24.4853 26.4482H28.9682C29.538 26.4482 30 26.0236 30 25.4999V1.9483C29.9999 1.42459 29.5379 1 28.9681 1ZM14.0455 7.56818L15.5106 6.84292C15.8115 6.69397 16.1732 6.69163 16.4763 6.83659L18.0584 7.5934V1H14.0455V7.56818ZM23.0591 18.2881V23.0453C23.0591 26.1624 21.4999 28.3377 17.8454 30.319L16.5242 31.0352C16.2009 31.2106 15.7991 31.2106 15.4757 31.0352L14.1545 30.319C10.5 28.3377 8.9408 26.1624 8.9408 23.0454V18.2882C10.3869 18.0262 11.6674 17.2114 12.4508 16.0669H19.5492C20.3326 17.2114 21.6131 18.0262 23.0591 18.2881ZM14.3188 26.2761C14.5202 26.4613 14.7843 26.5539 15.0484 26.5539C15.3125 26.5539 15.5765 26.4613 15.7779 26.2762L19.7736 22.604C20.1765 22.2336 20.1765 21.6332 19.7736 21.2629C19.3706 20.8926 18.7173 20.8926 18.3144 21.2629L15.0484 24.2645L13.6855 23.0119C13.2825 22.6416 12.6292 22.6416 12.2263 23.0119C11.8233 23.3823 11.8233 23.9827 12.2263 24.353L14.3188 26.2761Z" fill="black" fill-opacity="0.2"/>
<path fill-rule="evenodd" clip-rule="evenodd" d="M28.9681 1H20.1221V9.15607C20.1221 9.48747 19.9339 9.79485 19.6256 9.96674C19.3172 10.1388 18.9336 10.1502 18.6138 9.99721L16.0082 8.75077L13.503 9.99095C13.3501 10.0667 13.1817 10.1044 13.0137 10.1044C12.8304 10.1044 12.6473 10.0595 12.4846 9.97022C12.1728 9.79902 11.9819 9.48981 11.9819 9.15607V1H3.03182C2.46198 1 2 1.42459 2 1.9483V25.4999C2 26.0236 2.46198 26.4482 3.03182 26.4482H7.51462C7.088 25.4094 6.87716 24.2829 6.87716 23.0452V17.9554C6.87716 17.1968 7.49742 16.5538 8.31992 16.46C9.43863 16.3324 10.428 15.6662 10.902 14.7215C11.0706 14.3855 11.4364 14.1702 11.8391 14.1702H20.1609C20.5635 14.1702 20.9293 14.3854 21.0978 14.7215C21.572 15.6663 22.5613 16.3324 23.68 16.46C24.5025 16.5538 25.1228 17.1967 25.1228 17.9554V23.0452C25.1228 24.283 24.9119 25.4094 24.4853 26.4482H28.9682C29.538 26.4482 30 26.0236 30 25.4999V1.9483C29.9999 1.42459 29.5379 1 28.9681 1ZM14.0455 7.56818L15.5106 6.84292C15.8115 6.69397 16.1732 6.69163 16.4763 6.83659L18.0584 7.5934V1H14.0455V7.56818ZM23.0591 18.2881V23.0453C23.0591 26.1624 21.4999 28.3377 17.8454 30.319L16.5242 31.0352C16.2009 31.2106 15.7991 31.2106 15.4757 31.0352L14.1545 30.319C10.5 28.3377 8.9408 26.1624 8.9408 23.0454V18.2882C10.3869 18.0262 11.6674 17.2114 12.4508 16.0669H19.5492C20.3326 17.2114 21.6131 18.0262 23.0591 18.2881ZM14.3188 26.2761C14.5202 26.4613 14.7843 26.5539 15.0484 26.5539C15.3125 26.5539 15.5765 26.4613 15.7779 26.2762L19.7736 22.604C20.1765 22.2336 20.1765 21.6332 19.7736 21.2629C19.3706 20.8926 18.7173 20.8926 18.3144 21.2629L15.0484 24.2645L13.6855 23.0119C13.2825 22.6416 12.6292 22.6416 12.2263 23.0119C11.8233 23.3823 11.8233 23.9827 12.2263 24.353L14.3188 26.2761Z" fill="black" fill-opacity="0.2"/>
<path fill-rule="evenodd" clip-rule="evenodd" d="M28.9681 1H20.1221V9.15607C20.1221 9.48747 19.9339 9.79485 19.6256 9.96674C19.3172 10.1388 18.9336 10.1502 18.6138 9.99721L16.0082 8.75077L13.503 9.99095C13.3501 10.0667 13.1817 10.1044 13.0137 10.1044C12.8304 10.1044 12.6473 10.0595 12.4846 9.97022C12.1728 9.79902 11.9819 9.48981 11.9819 9.15607V1H3.03182C2.46198 1 2 1.42459 2 1.9483V25.4999C2 26.0236 2.46198 26.4482 3.03182 26.4482H7.51462C7.088 25.4094 6.87716 24.2829 6.87716 23.0452V17.9554C6.87716 17.1968 7.49742 16.5538 8.31992 16.46C9.43863 16.3324 10.428 15.6662 10.902 14.7215C11.0706 14.3855 11.4364 14.1702 11.8391 14.1702H20.1609C20.5635 14.1702 20.9293 14.3854 21.0978 14.7215C21.572 15.6663 22.5613 16.3324 23.68 16.46C24.5025 16.5538 25.1228 17.1967 25.1228 17.9554V23.0452C25.1228 24.283 24.9119 25.4094 24.4853 26.4482H28.9682C29.538 26.4482 30 26.0236 30 25.4999V1.9483C29.9999 1.42459 29.5379 1 28.9681 1ZM14.0455 7.56818L15.5106 6.84292C15.8115 6.69397 16.1732 6.69163 16.4763 6.83659L18.0584 7.5934V1H14.0455V7.56818ZM23.0591 18.2881V23.0453C23.0591 26.1624 21.4999 28.3377 17.8454 30.319L16.5242 31.0352C16.2009 31.2106 15.7991 31.2106 15.4757 31.0352L14.1545 30.319C10.5 28.3377 8.9408 26.1624 8.9408 23.0454V18.2882C10.3869 18.0262 11.6674 17.2114 12.4508 16.0669H19.5492C20.3326 17.2114 21.6131 18.0262 23.0591 18.2881ZM14.3188 26.2761C14.5202 26.4613 14.7843 26.5539 15.0484 26.5539C15.3125 26.5539 15.5765 26.4613 15.7779 26.2762L19.7736 22.604C20.1765 22.2336 20.1765 21.6332 19.7736 21.2629C19.3706 20.8926 18.7173 20.8926 18.3144 21.2629L15.0484 24.2645L13.6855 23.0119C13.2825 22.6416 12.6292 22.6416 12.2263 23.0119C11.8233 23.3823 11.8233 23.9827 12.2263 24.353L14.3188 26.2761Z" fill="black" fill-opacity="0.2"/>
<path fill-rule="evenodd" clip-rule="evenodd" d="M28.9681 1H20.1221V9.15607C20.1221 9.48747 19.9339 9.79485 19.6256 9.96674C19.3172 10.1388 18.9336 10.1502 18.6138 9.99721L16.0082 8.75077L13.503 9.99095C13.3501 10.0667 13.1817 10.1044 13.0137 10.1044C12.8304 10.1044 12.6473 10.0595 12.4846 9.97022C12.1728 9.79902 11.9819 9.48981 11.9819 9.15607V1H3.03182C2.46198 1 2 1.42459 2 1.9483V25.4999C2 26.0236 2.46198 26.4482 3.03182 26.4482H7.51462C7.088 25.4094 6.87716 24.2829 6.87716 23.0452V17.9554C6.87716 17.1968 7.49742 16.5538 8.31992 16.46C9.43863 16.3324 10.428 15.6662 10.902 14.7215C11.0706 14.3855 11.4364 14.1702 11.8391 14.1702H20.1609C20.5635 14.1702 20.9293 14.3854 21.0978 14.7215C21.572 15.6663 22.5613 16.3324 23.68 16.46C24.5025 16.5538 25.1228 17.1967 25.1228 17.9554V23.0452C25.1228 24.283 24.9119 25.4094 24.4853 26.4482H28.9682C29.538 26.4482 30 26.0236 30 25.4999V1.9483C29.9999 1.42459 29.5379 1 28.9681 1ZM14.0455 7.56818L15.5106 6.84292C15.8115 6.69397 16.1732 6.69163 16.4763 6.83659L18.0584 7.5934V1H14.0455V7.56818ZM23.0591 18.2881V23.0453C23.0591 26.1624 21.4999 28.3377 17.8454 30.319L16.5242 31.0352C16.2009 31.2106 15.7991 31.2106 15.4757 31.0352L14.1545 30.319C10.5 28.3377 8.9408 26.1624 8.9408 23.0454V18.2882C10.3869 18.0262 11.6674 17.2114 12.4508 16.0669H19.5492C20.3326 17.2114 21.6131 18.0262 23.0591 18.2881ZM14.3188 26.2761C14.5202 26.4613 14.7843 26.5539 15.0484 26.5539C15.3125 26.5539 15.5765 26.4613 15.7779 26.2762L19.7736 22.604C20.1765 22.2336 20.1765 21.6332 19.7736 21.2629C19.3706 20.8926 18.7173 20.8926 18.3144 21.2629L15.0484 24.2645L13.6855 23.0119C13.2825 22.6416 12.6292 22.6416 12.2263 23.0119C11.8233 23.3823 11.8233 23.9827 12.2263 24.353L14.3188 26.2761Z" fill="black" fill-opacity="0.2"/>
<path fill-rule="evenodd" clip-rule="evenodd" d="M28.9681 1H20.1221V9.15607C20.1221 9.48747 19.9339 9.79485 19.6256 9.96674C19.3172 10.1388 18.9336 10.1502 18.6138 9.99721L16.0082 8.75077L13.503 9.99095C13.3501 10.0667 13.1817 10.1044 13.0137 10.1044C12.8304 10.1044 12.6473 10.0595 12.4846 9.97022C12.1728 9.79902 11.9819 9.48981 11.9819 9.15607V1H3.03182C2.46198 1 2 1.42459 2 1.9483V25.4999C2 26.0236 2.46198 26.4482 3.03182 26.4482H7.51462C7.088 25.4094 6.87716 24.2829 6.87716 23.0452V17.9554C6.87716 17.1968 7.49742 16.5538 8.31992 16.46C9.43863 16.3324 10.428 15.6662 10.902 14.7215C11.0706 14.3855 11.4364 14.1702 11.8391 14.1702H20.1609C20.5635 14.1702 20.9293 14.3854 21.0978 14.7215C21.572 15.6663 22.5613 16.3324 23.68 16.46C24.5025 16.5538 25.1228 17.1967 25.1228 17.9554V23.0452C25.1228 24.283 24.9119 25.4094 24.4853 26.4482H28.9682C29.538 26.4482 30 26.0236 30 25.4999V1.9483C29.9999 1.42459 29.5379 1 28.9681 1ZM14.0455 7.56818L15.5106 6.84292C15.8115 6.69397 16.1732 6.69163 16.4763 6.83659L18.0584 7.5934V1H14.0455V7.56818ZM23.0591 18.2881V23.0453C23.0591 26.1624 21.4999 28.3377 17.8454 30.319L16.5242 31.0352C16.2009 31.2106 15.7991 31.2106 15.4757 31.0352L14.1545 30.319C10.5 28.3377 8.9408 26.1624 8.9408 23.0454V18.2882C10.3869 18.0262 11.6674 17.2114 12.4508 16.0669H19.5492C20.3326 17.2114 21.6131 18.0262 23.0591 18.2881ZM14.3188 26.2761C14.5202 26.4613 14.7843 26.5539 15.0484 26.5539C15.3125 26.5539 15.5765 26.4613 15.7779 26.2762L19.7736 22.604C20.1765 22.2336 20.1765 21.6332 19.7736 21.2629C19.3706 20.8926 18.7173 20.8926 18.3144 21.2629L15.0484 24.2645L13.6855 23.0119C13.2825 22.6416 12.6292 22.6416 12.2263 23.0119C11.8233 23.3823 11.8233 23.9827 12.2263 24.353L14.3188 26.2761Z" fill="black" fill-opacity="0.2"/>
<path fill-rule="evenodd" clip-rule="evenodd" d="M28.9681 1H20.1221V9.15607C20.1221 9.48747 19.9339 9.79485 19.6256 9.96674C19.3172 10.1388 18.9336 10.1502 18.6138 9.99721L16.0082 8.75077L13.503 9.99095C13.3501 10.0667 13.1817 10.1044 13.0137 10.1044C12.8304 10.1044 12.6473 10.0595 12.4846 9.97022C12.1728 9.79902 11.9819 9.48981 11.9819 9.15607V1H3.03182C2.46198 1 2 1.42459 2 1.9483V25.4999C2 26.0236 2.46198 26.4482 3.03182 26.4482H7.51462C7.088 25.4094 6.87716 24.2829 6.87716 23.0452V17.9554C6.87716 17.1968 7.49742 16.5538 8.31992 16.46C9.43863 16.3324 10.428 15.6662 10.902 14.7215C11.0706 14.3855 11.4364 14.1702 11.8391 14.1702H20.1609C20.5635 14.1702 20.9293 14.3854 21.0978 14.7215C21.572 15.6663 22.5613 16.3324 23.68 16.46C24.5025 16.5538 25.1228 17.1967 25.1228 17.9554V23.0452C25.1228 24.283 24.9119 25.4094 24.4853 26.4482H28.9682C29.538 26.4482 30 26.0236 30 25.4999V1.9483C29.9999 1.42459 29.5379 1 28.9681 1ZM14.0455 7.56818L15.5106 6.84292C15.8115 6.69397 16.1732 6.69163 16.4763 6.83659L18.0584 7.5934V1H14.0455V7.56818ZM23.0591 18.2881V23.0453C23.0591 26.1624 21.4999 28.3377 17.8454 30.319L16.5242 31.0352C16.2009 31.2106 15.7991 31.2106 15.4757 31.0352L14.1545 30.319C10.5 28.3377 8.9408 26.1624 8.9408 23.0454V18.2882C10.3869 18.0262 11.6674 17.2114 12.4508 16.0669H19.5492C20.3326 17.2114 21.6131 18.0262 23.0591 18.2881ZM14.3188 26.2761C14.5202 26.4613 14.7843 26.5539 15.0484 26.5539C15.3125 26.5539 15.5765 26.4613 15.7779 26.2762L19.7736 22.604C20.1765 22.2336 20.1765 21.6332 19.7736 21.2629C19.3706 20.8926 18.7173 20.8926 18.3144 21.2629L15.0484 24.2645L13.6855 23.0119C13.2825 22.6416 12.6292 22.6416 12.2263 23.0119C11.8233 23.3823 11.8233 23.9827 12.2263 24.353L14.3188 26.2761Z" fill="black" fill-opacity="0.2"/>
<path fill-rule="evenodd" clip-rule="evenodd" d="M28.9681 1H20.1221V9.15607C20.1221 9.48747 19.9339 9.79485 19.6256 9.96674C19.3172 10.1388 18.9336 10.1502 18.6138 9.99721L16.0082 8.75077L13.503 9.99095C13.3501 10.0667 13.1817 10.1044 13.0137 10.1044C12.8304 10.1044 12.6473 10.0595 12.4846 9.97022C12.1728 9.79902 11.9819 9.48981 11.9819 9.15607V1H3.03182C2.46198 1 2 1.42459 2 1.9483V25.4999C2 26.0236 2.46198 26.4482 3.03182 26.4482H7.51462C7.088 25.4094 6.87716 24.2829 6.87716 23.0452V17.9554C6.87716 17.1968 7.49742 16.5538 8.31992 16.46C9.43863 16.3324 10.428 15.6662 10.902 14.7215C11.0706 14.3855 11.4364 14.1702 11.8391 14.1702H20.1609C20.5635 14.1702 20.9293 14.3854 21.0978 14.7215C21.572 15.6663 22.5613 16.3324 23.68 16.46C24.5025 16.5538 25.1228 17.1967 25.1228 17.9554V23.0452C25.1228 24.283 24.9119 25.4094 24.4853 26.4482H28.9682C29.538 26.4482 30 26.0236 30 25.4999V1.9483C29.9999 1.42459 29.5379 1 28.9681 1ZM14.0455 7.56818L15.5106 6.84292C15.8115 6.69397 16.1732 6.69163 16.4763 6.83659L18.0584 7.5934V1H14.0455V7.56818ZM23.0591 18.2881V23.0453C23.0591 26.1624 21.4999 28.3377 17.8454 30.319L16.5242 31.0352C16.2009 31.2106 15.7991 31.2106 15.4757 31.0352L14.1545 30.319C10.5 28.3377 8.9408 26.1624 8.9408 23.0454V18.2882C10.3869 18.0262 11.6674 17.2114 12.4508 16.0669H19.5492C20.3326 17.2114 21.6131 18.0262 23.0591 18.2881ZM14.3188 26.2761C14.5202 26.4613 14.7843 26.5539 15.0484 26.5539C15.3125 26.5539 15.5765 26.4613 15.7779 26.2762L19.7736 22.604C20.1765 22.2336 20.1765 21.6332 19.7736 21.2629C19.3706 20.8926 18.7173 20.8926 18.3144 21.2629L15.0484 24.2645L13.6855 23.0119C13.2825 22.6416 12.6292 22.6416 12.2263 23.0119C11.8233 23.3823 11.8233 23.9827 12.2263 24.353L14.3188 26.2761Z" fill="black" fill-opacity="0.2"/>
<path fill-rule="evenodd" clip-rule="evenodd" d="M28.9681 1H20.1221V9.15607C20.1221 9.48747 19.9339 9.79485 19.6256 9.96674C19.3172 10.1388 18.9336 10.1502 18.6138 9.99721L16.0082 8.75077L13.503 9.99095C13.3501 10.0667 13.1817 10.1044 13.0137 10.1044C12.8304 10.1044 12.6473 10.0595 12.4846 9.97022C12.1728 9.79902 11.9819 9.48981 11.9819 9.15607V1H3.03182C2.46198 1 2 1.42459 2 1.9483V25.4999C2 26.0236 2.46198 26.4482 3.03182 26.4482H7.51462C7.088 25.4094 6.87716 24.2829 6.87716 23.0452V17.9554C6.87716 17.1968 7.49742 16.5538 8.31992 16.46C9.43863 16.3324 10.428 15.6662 10.902 14.7215C11.0706 14.3855 11.4364 14.1702 11.8391 14.1702H20.1609C20.5635 14.1702 20.9293 14.3854 21.0978 14.7215C21.572 15.6663 22.5613 16.3324 23.68 16.46C24.5025 16.5538 25.1228 17.1967 25.1228 17.9554V23.0452C25.1228 24.283 24.9119 25.4094 24.4853 26.4482H28.9682C29.538 26.4482 30 26.0236 30 25.4999V1.9483C29.9999 1.42459 29.5379 1 28.9681 1ZM14.0455 7.56818L15.5106 6.84292C15.8115 6.69397 16.1732 6.69163 16.4763 6.83659L18.0584 7.5934V1H14.0455V7.56818ZM23.0591 18.2881V23.0453C23.0591 26.1624 21.4999 28.3377 17.8454 30.319L16.5242 31.0352C16.2009 31.2106 15.7991 31.2106 15.4757 31.0352L14.1545 30.319C10.5 28.3377 8.9408 26.1624 8.9408 23.0454V18.2882C10.3869 18.0262 11.6674 17.2114 12.4508 16.0669H19.5492C20.3326 17.2114 21.6131 18.0262 23.0591 18.2881ZM14.3188 26.2761C14.5202 26.4613 14.7843 26.5539 15.0484 26.5539C15.3125 26.5539 15.5765 26.4613 15.7779 26.2762L19.7736 22.604C20.1765 22.2336 20.1765 21.6332 19.7736 21.2629C19.3706 20.8926 18.7173 20.8926 18.3144 21.2629L15.0484 24.2645L13.6855 23.0119C13.2825 22.6416 12.6292 22.6416 12.2263 23.0119C11.8233 23.3823 11.8233 23.9827 12.2263 24.353L14.3188 26.2761Z" fill="black" fill-opacity="0.2"/>
<path fill-rule="evenodd" clip-rule="evenodd" d="M28.9681 1H20.1221V9.15607C20.1221 9.48747 19.9339 9.79485 19.6256 9.96674C19.3172 10.1388 18.9336 10.1502 18.6138 9.99721L16.0082 8.75077L13.503 9.99095C13.3501 10.0667 13.1817 10.1044 13.0137 10.1044C12.8304 10.1044 12.6473 10.0595 12.4846 9.97022C12.1728 9.79902 11.9819 9.48981 11.9819 9.15607V1H3.03182C2.46198 1 2 1.42459 2 1.9483V25.4999C2 26.0236 2.46198 26.4482 3.03182 26.4482H7.51462C7.088 25.4094 6.87716 24.2829 6.87716 23.0452V17.9554C6.87716 17.1968 7.49742 16.5538 8.31992 16.46C9.43863 16.3324 10.428 15.6662 10.902 14.7215C11.0706 14.3855 11.4364 14.1702 11.8391 14.1702H20.1609C20.5635 14.1702 20.9293 14.3854 21.0978 14.7215C21.572 15.6663 22.5613 16.3324 23.68 16.46C24.5025 16.5538 25.1228 17.1967 25.1228 17.9554V23.0452C25.1228 24.283 24.9119 25.4094 24.4853 26.4482H28.9682C29.538 26.4482 30 26.0236 30 25.4999V1.9483C29.9999 1.42459 29.5379 1 28.9681 1ZM14.0455 7.56818L15.5106 6.84292C15.8115 6.69397 16.1732 6.69163 16.4763 6.83659L18.0584 7.5934V1H14.0455V7.56818ZM23.0591 18.2881V23.0453C23.0591 26.1624 21.4999 28.3377 17.8454 30.319L16.5242 31.0352C16.2009 31.2106 15.7991 31.2106 15.4757 31.0352L14.1545 30.319C10.5 28.3377 8.9408 26.1624 8.9408 23.0454V18.2882C10.3869 18.0262 11.6674 17.2114 12.4508 16.0669H19.5492C20.3326 17.2114 21.6131 18.0262 23.0591 18.2881ZM14.3188 26.2761C14.5202 26.4613 14.7843 26.5539 15.0484 26.5539C15.3125 26.5539 15.5765 26.4613 15.7779 26.2762L19.7736 22.604C20.1765 22.2336 20.1765 21.6332 19.7736 21.2629C19.3706 20.8926 18.7173 20.8926 18.3144 21.2629L15.0484 24.2645L13.6855 23.0119C13.2825 22.6416 12.6292 22.6416 12.2263 23.0119C11.8233 23.3823 11.8233 23.9827 12.2263 24.353L14.3188 26.2761Z" fill="black" fill-opacity="0.2"/>
</svg>
