<svg width="32" height="32" viewBox="0 0 32 32" fill="none" xmlns="http://www.w3.org/2000/svg">
<g clip-path="url(#clip0_300_146)">
<path d="M27.3094 4.68197C24.6911 2.06566 21.2466 0.43809 17.5628 0.0765368C13.8791 -0.285016 10.1839 0.641829 7.10688 2.69916C4.02985 4.75648 1.76134 7.81701 0.687771 11.3593C-0.385802 14.9017 -0.19797 18.7067 1.21924 22.1261C2.63645 25.5454 5.19533 28.3677 8.46001 30.112C11.7247 31.8563 15.4932 32.4147 19.1234 31.6921C22.7537 30.9696 26.0211 29.0107 28.369 26.1492C30.7169 23.2878 32.0001 19.7008 32 15.9993C32.0025 13.8969 31.5893 11.8147 30.7843 9.87245C29.9794 7.93021 28.7985 6.16624 27.3094 4.68197ZM17.4631 20.2328C16.9405 20.2465 16.4228 20.1288 15.9575 19.8907C15.4921 19.6525 15.094 19.3014 14.7994 18.8696C14.7994 18.8696 14.1647 21.3836 14.0299 21.8696C13.5896 23.168 12.9218 24.3778 12.0579 25.4424C12.0409 25.4651 12.0177 25.4823 11.9912 25.4919C11.9646 25.5015 11.9358 25.5031 11.9083 25.4965C11.8808 25.4899 11.8558 25.4755 11.8364 25.4548C11.8171 25.4342 11.8042 25.4084 11.7994 25.3806C11.5754 24.0067 11.5875 22.6046 11.8353 21.2348C12.0419 20.3466 13.2395 15.2868 13.2395 15.2868C13.0005 14.7419 12.8807 14.1522 12.8882 13.5572C12.8882 11.9414 13.8273 10.7329 14.995 10.7329C15.2035 10.7296 15.4104 10.7711 15.6016 10.8545C15.7927 10.9379 15.9638 11.0613 16.1033 11.2164C16.2428 11.3715 16.3474 11.5546 16.4102 11.7536C16.4729 11.9525 16.4923 12.1625 16.4671 12.3696C16.2579 13.6858 15.9349 14.9814 15.502 16.2418C15.4377 16.4984 15.4344 16.7665 15.4922 17.0247C15.55 17.2828 15.6674 17.5238 15.835 17.7285C16.0025 17.9332 16.2156 18.0959 16.4572 18.2036C16.6988 18.3112 16.9623 18.3609 17.2265 18.3486C19.2924 18.3486 20.6856 15.6899 20.6856 12.5452C20.6856 10.15 19.0749 8.35364 16.1477 8.35364C15.4467 8.32583 14.7473 8.44096 14.0922 8.69204C13.4371 8.94313 12.8399 9.3249 12.3371 9.81412C11.8342 10.3033 11.4362 10.8898 11.1672 11.5378C10.8982 12.1857 10.7639 12.8816 10.7725 13.5832C10.7395 14.3614 10.9951 15.1244 11.49 15.7259C11.5766 15.7959 11.6387 15.8916 11.6674 15.9993C11.6961 16.1069 11.6899 16.2208 11.6497 16.3247C11.5928 16.5243 11.474 17.0113 11.4281 17.2029C11.4185 17.2618 11.395 17.3176 11.3596 17.3657C11.3242 17.4137 11.278 17.4527 11.2246 17.4794C11.1712 17.5061 11.1122 17.5197 11.0525 17.5192C10.9929 17.5187 10.9341 17.504 10.8812 17.4764C9.35325 16.8516 8.64568 15.181 8.64568 13.3047C8.64568 10.2109 11.2575 6.48936 16.4471 6.48936C20.6138 6.48936 23.3553 9.50434 23.3553 12.7419C23.3543 17.0323 20.9751 20.2339 17.4631 20.2339V20.2328Z" fill="black"/>
<path d="M27.3094 4.68197C24.6911 2.06566 21.2466 0.43809 17.5628 0.0765368C13.8791 -0.285016 10.1839 0.641829 7.10688 2.69916C4.02985 4.75648 1.76134 7.81701 0.687771 11.3593C-0.385802 14.9017 -0.19797 18.7067 1.21924 22.1261C2.63645 25.5454 5.19533 28.3677 8.46001 30.112C11.7247 31.8563 15.4932 32.4147 19.1234 31.6921C22.7537 30.9696 26.0211 29.0107 28.369 26.1492C30.7169 23.2878 32.0001 19.7008 32 15.9993C32.0025 13.8969 31.5893 11.8147 30.7843 9.87245C29.9794 7.93021 28.7985 6.16624 27.3094 4.68197ZM17.4631 20.2328C16.9405 20.2465 16.4228 20.1288 15.9575 19.8907C15.4921 19.6525 15.094 19.3014 14.7994 18.8696C14.7994 18.8696 14.1647 21.3836 14.0299 21.8696C13.5896 23.168 12.9218 24.3778 12.0579 25.4424C12.0409 25.4651 12.0177 25.4823 11.9912 25.4919C11.9646 25.5015 11.9358 25.5031 11.9083 25.4965C11.8808 25.4899 11.8558 25.4755 11.8364 25.4548C11.8171 25.4342 11.8042 25.4084 11.7994 25.3806C11.5754 24.0067 11.5875 22.6046 11.8353 21.2348C12.0419 20.3466 13.2395 15.2868 13.2395 15.2868C13.0005 14.7419 12.8807 14.1522 12.8882 13.5572C12.8882 11.9414 13.8273 10.7329 14.995 10.7329C15.2035 10.7296 15.4104 10.7711 15.6016 10.8545C15.7927 10.9379 15.9638 11.0613 16.1033 11.2164C16.2428 11.3715 16.3474 11.5546 16.4102 11.7536C16.4729 11.9525 16.4923 12.1625 16.4671 12.3696C16.2579 13.6858 15.9349 14.9814 15.502 16.2418C15.4377 16.4984 15.4344 16.7665 15.4922 17.0247C15.55 17.2828 15.6674 17.5238 15.835 17.7285C16.0025 17.9332 16.2156 18.0959 16.4572 18.2036C16.6988 18.3112 16.9623 18.3609 17.2265 18.3486C19.2924 18.3486 20.6856 15.6899 20.6856 12.5452C20.6856 10.15 19.0749 8.35364 16.1477 8.35364C15.4467 8.32583 14.7473 8.44096 14.0922 8.69204C13.4371 8.94313 12.8399 9.3249 12.3371 9.81412C11.8342 10.3033 11.4362 10.8898 11.1672 11.5378C10.8982 12.1857 10.7639 12.8816 10.7725 13.5832C10.7395 14.3614 10.9951 15.1244 11.49 15.7259C11.5766 15.7959 11.6387 15.8916 11.6674 15.9993C11.6961 16.1069 11.6899 16.2208 11.6497 16.3247C11.5928 16.5243 11.474 17.0113 11.4281 17.2029C11.4185 17.2618 11.395 17.3176 11.3596 17.3657C11.3242 17.4137 11.278 17.4527 11.2246 17.4794C11.1712 17.5061 11.1122 17.5197 11.0525 17.5192C10.9929 17.5187 10.9341 17.504 10.8812 17.4764C9.35325 16.8516 8.64568 15.181 8.64568 13.3047C8.64568 10.2109 11.2575 6.48936 16.4471 6.48936C20.6138 6.48936 23.3553 9.50434 23.3553 12.7419C23.3543 17.0323 20.9751 20.2339 17.4631 20.2339V20.2328Z" fill="black" fill-opacity="0.2"/>
<path d="M27.3094 4.68197C24.6911 2.06566 21.2466 0.43809 17.5628 0.0765368C13.8791 -0.285016 10.1839 0.641829 7.10688 2.69916C4.02985 4.75648 1.76134 7.81701 0.687771 11.3593C-0.385802 14.9017 -0.19797 18.7067 1.21924 22.1261C2.63645 25.5454 5.19533 28.3677 8.46001 30.112C11.7247 31.8563 15.4932 32.4147 19.1234 31.6921C22.7537 30.9696 26.0211 29.0107 28.369 26.1492C30.7169 23.2878 32.0001 19.7008 32 15.9993C32.0025 13.8969 31.5893 11.8147 30.7843 9.87245C29.9794 7.93021 28.7985 6.16624 27.3094 4.68197ZM17.4631 20.2328C16.9405 20.2465 16.4228 20.1288 15.9575 19.8907C15.4921 19.6525 15.094 19.3014 14.7994 18.8696C14.7994 18.8696 14.1647 21.3836 14.0299 21.8696C13.5896 23.168 12.9218 24.3778 12.0579 25.4424C12.0409 25.4651 12.0177 25.4823 11.9912 25.4919C11.9646 25.5015 11.9358 25.5031 11.9083 25.4965C11.8808 25.4899 11.8558 25.4755 11.8364 25.4548C11.8171 25.4342 11.8042 25.4084 11.7994 25.3806C11.5754 24.0067 11.5875 22.6046 11.8353 21.2348C12.0419 20.3466 13.2395 15.2868 13.2395 15.2868C13.0005 14.7419 12.8807 14.1522 12.8882 13.5572C12.8882 11.9414 13.8273 10.7329 14.995 10.7329C15.2035 10.7296 15.4104 10.7711 15.6016 10.8545C15.7927 10.9379 15.9638 11.0613 16.1033 11.2164C16.2428 11.3715 16.3474 11.5546 16.4102 11.7536C16.4729 11.9525 16.4923 12.1625 16.4671 12.3696C16.2579 13.6858 15.9349 14.9814 15.502 16.2418C15.4377 16.4984 15.4344 16.7665 15.4922 17.0247C15.55 17.2828 15.6674 17.5238 15.835 17.7285C16.0025 17.9332 16.2156 18.0959 16.4572 18.2036C16.6988 18.3112 16.9623 18.3609 17.2265 18.3486C19.2924 18.3486 20.6856 15.6899 20.6856 12.5452C20.6856 10.15 19.0749 8.35364 16.1477 8.35364C15.4467 8.32583 14.7473 8.44096 14.0922 8.69204C13.4371 8.94313 12.8399 9.3249 12.3371 9.81412C11.8342 10.3033 11.4362 10.8898 11.1672 11.5378C10.8982 12.1857 10.7639 12.8816 10.7725 13.5832C10.7395 14.3614 10.9951 15.1244 11.49 15.7259C11.5766 15.7959 11.6387 15.8916 11.6674 15.9993C11.6961 16.1069 11.6899 16.2208 11.6497 16.3247C11.5928 16.5243 11.474 17.0113 11.4281 17.2029C11.4185 17.2618 11.395 17.3176 11.3596 17.3657C11.3242 17.4137 11.278 17.4527 11.2246 17.4794C11.1712 17.5061 11.1122 17.5197 11.0525 17.5192C10.9929 17.5187 10.9341 17.504 10.8812 17.4764C9.35325 16.8516 8.64568 15.181 8.64568 13.3047C8.64568 10.2109 11.2575 6.48936 16.4471 6.48936C20.6138 6.48936 23.3553 9.50434 23.3553 12.7419C23.3543 17.0323 20.9751 20.2339 17.4631 20.2339V20.2328Z" fill="black" fill-opacity="0.2"/>
<path d="M27.3094 4.68197C24.6911 2.06566 21.2466 0.43809 17.5628 0.0765368C13.8791 -0.285016 10.1839 0.641829 7.10688 2.69916C4.02985 4.75648 1.76134 7.81701 0.687771 11.3593C-0.385802 14.9017 -0.19797 18.7067 1.21924 22.1261C2.63645 25.5454 5.19533 28.3677 8.46001 30.112C11.7247 31.8563 15.4932 32.4147 19.1234 31.6921C22.7537 30.9696 26.0211 29.0107 28.369 26.1492C30.7169 23.2878 32.0001 19.7008 32 15.9993C32.0025 13.8969 31.5893 11.8147 30.7843 9.87245C29.9794 7.93021 28.7985 6.16624 27.3094 4.68197ZM17.4631 20.2328C16.9405 20.2465 16.4228 20.1288 15.9575 19.8907C15.4921 19.6525 15.094 19.3014 14.7994 18.8696C14.7994 18.8696 14.1647 21.3836 14.0299 21.8696C13.5896 23.168 12.9218 24.3778 12.0579 25.4424C12.0409 25.4651 12.0177 25.4823 11.9912 25.4919C11.9646 25.5015 11.9358 25.5031 11.9083 25.4965C11.8808 25.4899 11.8558 25.4755 11.8364 25.4548C11.8171 25.4342 11.8042 25.4084 11.7994 25.3806C11.5754 24.0067 11.5875 22.6046 11.8353 21.2348C12.0419 20.3466 13.2395 15.2868 13.2395 15.2868C13.0005 14.7419 12.8807 14.1522 12.8882 13.5572C12.8882 11.9414 13.8273 10.7329 14.995 10.7329C15.2035 10.7296 15.4104 10.7711 15.6016 10.8545C15.7927 10.9379 15.9638 11.0613 16.1033 11.2164C16.2428 11.3715 16.3474 11.5546 16.4102 11.7536C16.4729 11.9525 16.4923 12.1625 16.4671 12.3696C16.2579 13.6858 15.9349 14.9814 15.502 16.2418C15.4377 16.4984 15.4344 16.7665 15.4922 17.0247C15.55 17.2828 15.6674 17.5238 15.835 17.7285C16.0025 17.9332 16.2156 18.0959 16.4572 18.2036C16.6988 18.3112 16.9623 18.3609 17.2265 18.3486C19.2924 18.3486 20.6856 15.6899 20.6856 12.5452C20.6856 10.15 19.0749 8.35364 16.1477 8.35364C15.4467 8.32583 14.7473 8.44096 14.0922 8.69204C13.4371 8.94313 12.8399 9.3249 12.3371 9.81412C11.8342 10.3033 11.4362 10.8898 11.1672 11.5378C10.8982 12.1857 10.7639 12.8816 10.7725 13.5832C10.7395 14.3614 10.9951 15.1244 11.49 15.7259C11.5766 15.7959 11.6387 15.8916 11.6674 15.9993C11.6961 16.1069 11.6899 16.2208 11.6497 16.3247C11.5928 16.5243 11.474 17.0113 11.4281 17.2029C11.4185 17.2618 11.395 17.3176 11.3596 17.3657C11.3242 17.4137 11.278 17.4527 11.2246 17.4794C11.1712 17.5061 11.1122 17.5197 11.0525 17.5192C10.9929 17.5187 10.9341 17.504 10.8812 17.4764C9.35325 16.8516 8.64568 15.181 8.64568 13.3047C8.64568 10.2109 11.2575 6.48936 16.4471 6.48936C20.6138 6.48936 23.3553 9.50434 23.3553 12.7419C23.3543 17.0323 20.9751 20.2339 17.4631 20.2339V20.2328Z" fill="black" fill-opacity="0.2"/>
<path d="M27.3094 4.68197C24.6911 2.06566 21.2466 0.43809 17.5628 0.0765368C13.8791 -0.285016 10.1839 0.641829 7.10688 2.69916C4.02985 4.75648 1.76134 7.81701 0.687771 11.3593C-0.385802 14.9017 -0.19797 18.7067 1.21924 22.1261C2.63645 25.5454 5.19533 28.3677 8.46001 30.112C11.7247 31.8563 15.4932 32.4147 19.1234 31.6921C22.7537 30.9696 26.0211 29.0107 28.369 26.1492C30.7169 23.2878 32.0001 19.7008 32 15.9993C32.0025 13.8969 31.5893 11.8147 30.7843 9.87245C29.9794 7.93021 28.7985 6.16624 27.3094 4.68197ZM17.4631 20.2328C16.9405 20.2465 16.4228 20.1288 15.9575 19.8907C15.4921 19.6525 15.094 19.3014 14.7994 18.8696C14.7994 18.8696 14.1647 21.3836 14.0299 21.8696C13.5896 23.168 12.9218 24.3778 12.0579 25.4424C12.0409 25.4651 12.0177 25.4823 11.9912 25.4919C11.9646 25.5015 11.9358 25.5031 11.9083 25.4965C11.8808 25.4899 11.8558 25.4755 11.8364 25.4548C11.8171 25.4342 11.8042 25.4084 11.7994 25.3806C11.5754 24.0067 11.5875 22.6046 11.8353 21.2348C12.0419 20.3466 13.2395 15.2868 13.2395 15.2868C13.0005 14.7419 12.8807 14.1522 12.8882 13.5572C12.8882 11.9414 13.8273 10.7329 14.995 10.7329C15.2035 10.7296 15.4104 10.7711 15.6016 10.8545C15.7927 10.9379 15.9638 11.0613 16.1033 11.2164C16.2428 11.3715 16.3474 11.5546 16.4102 11.7536C16.4729 11.9525 16.4923 12.1625 16.4671 12.3696C16.2579 13.6858 15.9349 14.9814 15.502 16.2418C15.4377 16.4984 15.4344 16.7665 15.4922 17.0247C15.55 17.2828 15.6674 17.5238 15.835 17.7285C16.0025 17.9332 16.2156 18.0959 16.4572 18.2036C16.6988 18.3112 16.9623 18.3609 17.2265 18.3486C19.2924 18.3486 20.6856 15.6899 20.6856 12.5452C20.6856 10.15 19.0749 8.35364 16.1477 8.35364C15.4467 8.32583 14.7473 8.44096 14.0922 8.69204C13.4371 8.94313 12.8399 9.3249 12.3371 9.81412C11.8342 10.3033 11.4362 10.8898 11.1672 11.5378C10.8982 12.1857 10.7639 12.8816 10.7725 13.5832C10.7395 14.3614 10.9951 15.1244 11.49 15.7259C11.5766 15.7959 11.6387 15.8916 11.6674 15.9993C11.6961 16.1069 11.6899 16.2208 11.6497 16.3247C11.5928 16.5243 11.474 17.0113 11.4281 17.2029C11.4185 17.2618 11.395 17.3176 11.3596 17.3657C11.3242 17.4137 11.278 17.4527 11.2246 17.4794C11.1712 17.5061 11.1122 17.5197 11.0525 17.5192C10.9929 17.5187 10.9341 17.504 10.8812 17.4764C9.35325 16.8516 8.64568 15.181 8.64568 13.3047C8.64568 10.2109 11.2575 6.48936 16.4471 6.48936C20.6138 6.48936 23.3553 9.50434 23.3553 12.7419C23.3543 17.0323 20.9751 20.2339 17.4631 20.2339V20.2328Z" fill="black" fill-opacity="0.2"/>
<path d="M27.3094 4.68197C24.6911 2.06566 21.2466 0.43809 17.5628 0.0765368C13.8791 -0.285016 10.1839 0.641829 7.10688 2.69916C4.02985 4.75648 1.76134 7.81701 0.687771 11.3593C-0.385802 14.9017 -0.19797 18.7067 1.21924 22.1261C2.63645 25.5454 5.19533 28.3677 8.46001 30.112C11.7247 31.8563 15.4932 32.4147 19.1234 31.6921C22.7537 30.9696 26.0211 29.0107 28.369 26.1492C30.7169 23.2878 32.0001 19.7008 32 15.9993C32.0025 13.8969 31.5893 11.8147 30.7843 9.87245C29.9794 7.93021 28.7985 6.16624 27.3094 4.68197ZM17.4631 20.2328C16.9405 20.2465 16.4228 20.1288 15.9575 19.8907C15.4921 19.6525 15.094 19.3014 14.7994 18.8696C14.7994 18.8696 14.1647 21.3836 14.0299 21.8696C13.5896 23.168 12.9218 24.3778 12.0579 25.4424C12.0409 25.4651 12.0177 25.4823 11.9912 25.4919C11.9646 25.5015 11.9358 25.5031 11.9083 25.4965C11.8808 25.4899 11.8558 25.4755 11.8364 25.4548C11.8171 25.4342 11.8042 25.4084 11.7994 25.3806C11.5754 24.0067 11.5875 22.6046 11.8353 21.2348C12.0419 20.3466 13.2395 15.2868 13.2395 15.2868C13.0005 14.7419 12.8807 14.1522 12.8882 13.5572C12.8882 11.9414 13.8273 10.7329 14.995 10.7329C15.2035 10.7296 15.4104 10.7711 15.6016 10.8545C15.7927 10.9379 15.9638 11.0613 16.1033 11.2164C16.2428 11.3715 16.3474 11.5546 16.4102 11.7536C16.4729 11.9525 16.4923 12.1625 16.4671 12.3696C16.2579 13.6858 15.9349 14.9814 15.502 16.2418C15.4377 16.4984 15.4344 16.7665 15.4922 17.0247C15.55 17.2828 15.6674 17.5238 15.835 17.7285C16.0025 17.9332 16.2156 18.0959 16.4572 18.2036C16.6988 18.3112 16.9623 18.3609 17.2265 18.3486C19.2924 18.3486 20.6856 15.6899 20.6856 12.5452C20.6856 10.15 19.0749 8.35364 16.1477 8.35364C15.4467 8.32583 14.7473 8.44096 14.0922 8.69204C13.4371 8.94313 12.8399 9.3249 12.3371 9.81412C11.8342 10.3033 11.4362 10.8898 11.1672 11.5378C10.8982 12.1857 10.7639 12.8816 10.7725 13.5832C10.7395 14.3614 10.9951 15.1244 11.49 15.7259C11.5766 15.7959 11.6387 15.8916 11.6674 15.9993C11.6961 16.1069 11.6899 16.2208 11.6497 16.3247C11.5928 16.5243 11.474 17.0113 11.4281 17.2029C11.4185 17.2618 11.395 17.3176 11.3596 17.3657C11.3242 17.4137 11.278 17.4527 11.2246 17.4794C11.1712 17.5061 11.1122 17.5197 11.0525 17.5192C10.9929 17.5187 10.9341 17.504 10.8812 17.4764C9.35325 16.8516 8.64568 15.181 8.64568 13.3047C8.64568 10.2109 11.2575 6.48936 16.4471 6.48936C20.6138 6.48936 23.3553 9.50434 23.3553 12.7419C23.3543 17.0323 20.9751 20.2339 17.4631 20.2339V20.2328Z" fill="black" fill-opacity="0.2"/>
<path d="M27.3094 4.68197C24.6911 2.06566 21.2466 0.43809 17.5628 0.0765368C13.8791 -0.285016 10.1839 0.641829 7.10688 2.69916C4.02985 4.75648 1.76134 7.81701 0.687771 11.3593C-0.385802 14.9017 -0.19797 18.7067 1.21924 22.1261C2.63645 25.5454 5.19533 28.3677 8.46001 30.112C11.7247 31.8563 15.4932 32.4147 19.1234 31.6921C22.7537 30.9696 26.0211 29.0107 28.369 26.1492C30.7169 23.2878 32.0001 19.7008 32 15.9993C32.0025 13.8969 31.5893 11.8147 30.7843 9.87245C29.9794 7.93021 28.7985 6.16624 27.3094 4.68197ZM17.4631 20.2328C16.9405 20.2465 16.4228 20.1288 15.9575 19.8907C15.4921 19.6525 15.094 19.3014 14.7994 18.8696C14.7994 18.8696 14.1647 21.3836 14.0299 21.8696C13.5896 23.168 12.9218 24.3778 12.0579 25.4424C12.0409 25.4651 12.0177 25.4823 11.9912 25.4919C11.9646 25.5015 11.9358 25.5031 11.9083 25.4965C11.8808 25.4899 11.8558 25.4755 11.8364 25.4548C11.8171 25.4342 11.8042 25.4084 11.7994 25.3806C11.5754 24.0067 11.5875 22.6046 11.8353 21.2348C12.0419 20.3466 13.2395 15.2868 13.2395 15.2868C13.0005 14.7419 12.8807 14.1522 12.8882 13.5572C12.8882 11.9414 13.8273 10.7329 14.995 10.7329C15.2035 10.7296 15.4104 10.7711 15.6016 10.8545C15.7927 10.9379 15.9638 11.0613 16.1033 11.2164C16.2428 11.3715 16.3474 11.5546 16.4102 11.7536C16.4729 11.9525 16.4923 12.1625 16.4671 12.3696C16.2579 13.6858 15.9349 14.9814 15.502 16.2418C15.4377 16.4984 15.4344 16.7665 15.4922 17.0247C15.55 17.2828 15.6674 17.5238 15.835 17.7285C16.0025 17.9332 16.2156 18.0959 16.4572 18.2036C16.6988 18.3112 16.9623 18.3609 17.2265 18.3486C19.2924 18.3486 20.6856 15.6899 20.6856 12.5452C20.6856 10.15 19.0749 8.35364 16.1477 8.35364C15.4467 8.32583 14.7473 8.44096 14.0922 8.69204C13.4371 8.94313 12.8399 9.3249 12.3371 9.81412C11.8342 10.3033 11.4362 10.8898 11.1672 11.5378C10.8982 12.1857 10.7639 12.8816 10.7725 13.5832C10.7395 14.3614 10.9951 15.1244 11.49 15.7259C11.5766 15.7959 11.6387 15.8916 11.6674 15.9993C11.6961 16.1069 11.6899 16.2208 11.6497 16.3247C11.5928 16.5243 11.474 17.0113 11.4281 17.2029C11.4185 17.2618 11.395 17.3176 11.3596 17.3657C11.3242 17.4137 11.278 17.4527 11.2246 17.4794C11.1712 17.5061 11.1122 17.5197 11.0525 17.5192C10.9929 17.5187 10.9341 17.504 10.8812 17.4764C9.35325 16.8516 8.64568 15.181 8.64568 13.3047C8.64568 10.2109 11.2575 6.48936 16.4471 6.48936C20.6138 6.48936 23.3553 9.50434 23.3553 12.7419C23.3543 17.0323 20.9751 20.2339 17.4631 20.2339V20.2328Z" fill="black" fill-opacity="0.2"/>
<path d="M27.3094 4.68197C24.6911 2.06566 21.2466 0.43809 17.5628 0.0765368C13.8791 -0.285016 10.1839 0.641829 7.10688 2.69916C4.02985 4.75648 1.76134 7.81701 0.687771 11.3593C-0.385802 14.9017 -0.19797 18.7067 1.21924 22.1261C2.63645 25.5454 5.19533 28.3677 8.46001 30.112C11.7247 31.8563 15.4932 32.4147 19.1234 31.6921C22.7537 30.9696 26.0211 29.0107 28.369 26.1492C30.7169 23.2878 32.0001 19.7008 32 15.9993C32.0025 13.8969 31.5893 11.8147 30.7843 9.87245C29.9794 7.93021 28.7985 6.16624 27.3094 4.68197ZM17.4631 20.2328C16.9405 20.2465 16.4228 20.1288 15.9575 19.8907C15.4921 19.6525 15.094 19.3014 14.7994 18.8696C14.7994 18.8696 14.1647 21.3836 14.0299 21.8696C13.5896 23.168 12.9218 24.3778 12.0579 25.4424C12.0409 25.4651 12.0177 25.4823 11.9912 25.4919C11.9646 25.5015 11.9358 25.5031 11.9083 25.4965C11.8808 25.4899 11.8558 25.4755 11.8364 25.4548C11.8171 25.4342 11.8042 25.4084 11.7994 25.3806C11.5754 24.0067 11.5875 22.6046 11.8353 21.2348C12.0419 20.3466 13.2395 15.2868 13.2395 15.2868C13.0005 14.7419 12.8807 14.1522 12.8882 13.5572C12.8882 11.9414 13.8273 10.7329 14.995 10.7329C15.2035 10.7296 15.4104 10.7711 15.6016 10.8545C15.7927 10.9379 15.9638 11.0613 16.1033 11.2164C16.2428 11.3715 16.3474 11.5546 16.4102 11.7536C16.4729 11.9525 16.4923 12.1625 16.4671 12.3696C16.2579 13.6858 15.9349 14.9814 15.502 16.2418C15.4377 16.4984 15.4344 16.7665 15.4922 17.0247C15.55 17.2828 15.6674 17.5238 15.835 17.7285C16.0025 17.9332 16.2156 18.0959 16.4572 18.2036C16.6988 18.3112 16.9623 18.3609 17.2265 18.3486C19.2924 18.3486 20.6856 15.6899 20.6856 12.5452C20.6856 10.15 19.0749 8.35364 16.1477 8.35364C15.4467 8.32583 14.7473 8.44096 14.0922 8.69204C13.4371 8.94313 12.8399 9.3249 12.3371 9.81412C11.8342 10.3033 11.4362 10.8898 11.1672 11.5378C10.8982 12.1857 10.7639 12.8816 10.7725 13.5832C10.7395 14.3614 10.9951 15.1244 11.49 15.7259C11.5766 15.7959 11.6387 15.8916 11.6674 15.9993C11.6961 16.1069 11.6899 16.2208 11.6497 16.3247C11.5928 16.5243 11.474 17.0113 11.4281 17.2029C11.4185 17.2618 11.395 17.3176 11.3596 17.3657C11.3242 17.4137 11.278 17.4527 11.2246 17.4794C11.1712 17.5061 11.1122 17.5197 11.0525 17.5192C10.9929 17.5187 10.9341 17.504 10.8812 17.4764C9.35325 16.8516 8.64568 15.181 8.64568 13.3047C8.64568 10.2109 11.2575 6.48936 16.4471 6.48936C20.6138 6.48936 23.3553 9.50434 23.3553 12.7419C23.3543 17.0323 20.9751 20.2339 17.4631 20.2339V20.2328Z" fill="black" fill-opacity="0.2"/>
<path d="M27.3094 4.68197C24.6911 2.06566 21.2466 0.43809 17.5628 0.0765368C13.8791 -0.285016 10.1839 0.641829 7.10688 2.69916C4.02985 4.75648 1.76134 7.81701 0.687771 11.3593C-0.385802 14.9017 -0.19797 18.7067 1.21924 22.1261C2.63645 25.5454 5.19533 28.3677 8.46001 30.112C11.7247 31.8563 15.4932 32.4147 19.1234 31.6921C22.7537 30.9696 26.0211 29.0107 28.369 26.1492C30.7169 23.2878 32.0001 19.7008 32 15.9993C32.0025 13.8969 31.5893 11.8147 30.7843 9.87245C29.9794 7.93021 28.7985 6.16624 27.3094 4.68197ZM17.4631 20.2328C16.9405 20.2465 16.4228 20.1288 15.9575 19.8907C15.4921 19.6525 15.094 19.3014 14.7994 18.8696C14.7994 18.8696 14.1647 21.3836 14.0299 21.8696C13.5896 23.168 12.9218 24.3778 12.0579 25.4424C12.0409 25.4651 12.0177 25.4823 11.9912 25.4919C11.9646 25.5015 11.9358 25.5031 11.9083 25.4965C11.8808 25.4899 11.8558 25.4755 11.8364 25.4548C11.8171 25.4342 11.8042 25.4084 11.7994 25.3806C11.5754 24.0067 11.5875 22.6046 11.8353 21.2348C12.0419 20.3466 13.2395 15.2868 13.2395 15.2868C13.0005 14.7419 12.8807 14.1522 12.8882 13.5572C12.8882 11.9414 13.8273 10.7329 14.995 10.7329C15.2035 10.7296 15.4104 10.7711 15.6016 10.8545C15.7927 10.9379 15.9638 11.0613 16.1033 11.2164C16.2428 11.3715 16.3474 11.5546 16.4102 11.7536C16.4729 11.9525 16.4923 12.1625 16.4671 12.3696C16.2579 13.6858 15.9349 14.9814 15.502 16.2418C15.4377 16.4984 15.4344 16.7665 15.4922 17.0247C15.55 17.2828 15.6674 17.5238 15.835 17.7285C16.0025 17.9332 16.2156 18.0959 16.4572 18.2036C16.6988 18.3112 16.9623 18.3609 17.2265 18.3486C19.2924 18.3486 20.6856 15.6899 20.6856 12.5452C20.6856 10.15 19.0749 8.35364 16.1477 8.35364C15.4467 8.32583 14.7473 8.44096 14.0922 8.69204C13.4371 8.94313 12.8399 9.3249 12.3371 9.81412C11.8342 10.3033 11.4362 10.8898 11.1672 11.5378C10.8982 12.1857 10.7639 12.8816 10.7725 13.5832C10.7395 14.3614 10.9951 15.1244 11.49 15.7259C11.5766 15.7959 11.6387 15.8916 11.6674 15.9993C11.6961 16.1069 11.6899 16.2208 11.6497 16.3247C11.5928 16.5243 11.474 17.0113 11.4281 17.2029C11.4185 17.2618 11.395 17.3176 11.3596 17.3657C11.3242 17.4137 11.278 17.4527 11.2246 17.4794C11.1712 17.5061 11.1122 17.5197 11.0525 17.5192C10.9929 17.5187 10.9341 17.504 10.8812 17.4764C9.35325 16.8516 8.64568 15.181 8.64568 13.3047C8.64568 10.2109 11.2575 6.48936 16.4471 6.48936C20.6138 6.48936 23.3553 9.50434 23.3553 12.7419C23.3543 17.0323 20.9751 20.2339 17.4631 20.2339V20.2328Z" fill="black" fill-opacity="0.2"/>
<path d="M27.3094 4.68197C24.6911 2.06566 21.2466 0.43809 17.5628 0.0765368C13.8791 -0.285016 10.1839 0.641829 7.10688 2.69916C4.02985 4.75648 1.76134 7.81701 0.687771 11.3593C-0.385802 14.9017 -0.19797 18.7067 1.21924 22.1261C2.63645 25.5454 5.19533 28.3677 8.46001 30.112C11.7247 31.8563 15.4932 32.4147 19.1234 31.6921C22.7537 30.9696 26.0211 29.0107 28.369 26.1492C30.7169 23.2878 32.0001 19.7008 32 15.9993C32.0025 13.8969 31.5893 11.8147 30.7843 9.87245C29.9794 7.93021 28.7985 6.16624 27.3094 4.68197ZM17.4631 20.2328C16.9405 20.2465 16.4228 20.1288 15.9575 19.8907C15.4921 19.6525 15.094 19.3014 14.7994 18.8696C14.7994 18.8696 14.1647 21.3836 14.0299 21.8696C13.5896 23.168 12.9218 24.3778 12.0579 25.4424C12.0409 25.4651 12.0177 25.4823 11.9912 25.4919C11.9646 25.5015 11.9358 25.5031 11.9083 25.4965C11.8808 25.4899 11.8558 25.4755 11.8364 25.4548C11.8171 25.4342 11.8042 25.4084 11.7994 25.3806C11.5754 24.0067 11.5875 22.6046 11.8353 21.2348C12.0419 20.3466 13.2395 15.2868 13.2395 15.2868C13.0005 14.7419 12.8807 14.1522 12.8882 13.5572C12.8882 11.9414 13.8273 10.7329 14.995 10.7329C15.2035 10.7296 15.4104 10.7711 15.6016 10.8545C15.7927 10.9379 15.9638 11.0613 16.1033 11.2164C16.2428 11.3715 16.3474 11.5546 16.4102 11.7536C16.4729 11.9525 16.4923 12.1625 16.4671 12.3696C16.2579 13.6858 15.9349 14.9814 15.502 16.2418C15.4377 16.4984 15.4344 16.7665 15.4922 17.0247C15.55 17.2828 15.6674 17.5238 15.835 17.7285C16.0025 17.9332 16.2156 18.0959 16.4572 18.2036C16.6988 18.3112 16.9623 18.3609 17.2265 18.3486C19.2924 18.3486 20.6856 15.6899 20.6856 12.5452C20.6856 10.15 19.0749 8.35364 16.1477 8.35364C15.4467 8.32583 14.7473 8.44096 14.0922 8.69204C13.4371 8.94313 12.8399 9.3249 12.3371 9.81412C11.8342 10.3033 11.4362 10.8898 11.1672 11.5378C10.8982 12.1857 10.7639 12.8816 10.7725 13.5832C10.7395 14.3614 10.9951 15.1244 11.49 15.7259C11.5766 15.7959 11.6387 15.8916 11.6674 15.9993C11.6961 16.1069 11.6899 16.2208 11.6497 16.3247C11.5928 16.5243 11.474 17.0113 11.4281 17.2029C11.4185 17.2618 11.395 17.3176 11.3596 17.3657C11.3242 17.4137 11.278 17.4527 11.2246 17.4794C11.1712 17.5061 11.1122 17.5197 11.0525 17.5192C10.9929 17.5187 10.9341 17.504 10.8812 17.4764C9.35325 16.8516 8.64568 15.181 8.64568 13.3047C8.64568 10.2109 11.2575 6.48936 16.4471 6.48936C20.6138 6.48936 23.3553 9.50434 23.3553 12.7419C23.3543 17.0323 20.9751 20.2339 17.4631 20.2339V20.2328Z" fill="black" fill-opacity="0.2"/>
</g>
<defs>
<clipPath id="clip0_300_146">
<rect width="32" height="32" fill="white"/>
</clipPath>
</defs>
</svg>
