<svg width="24" height="24" viewBox="0 0 24 24" fill="none" xmlns="http://www.w3.org/2000/svg">
<g clip-path="url(#clip0_414_2445)">
<path d="M0 11.9991L12.211 0L14.9067 2.64959L7.62569 9.80396H24V14.3721H7.80711L14.9076 21.3495L12.211 24L0 11.9991ZM5.39222 11.9991L5.40272 12.0093V11.9898L5.39222 11.9991Z" fill="black"/>
<path d="M0 11.9991L12.211 0L14.9067 2.64959L7.62569 9.80396H24V14.3721H7.80711L14.9076 21.3495L12.211 24L0 11.9991ZM5.39222 11.9991L5.40272 12.0093V11.9898L5.39222 11.9991Z" fill="black" fill-opacity="0.2"/>
<path d="M0 11.9991L12.211 0L14.9067 2.64959L7.62569 9.80396H24V14.3721H7.80711L14.9076 21.3495L12.211 24L0 11.9991ZM5.39222 11.9991L5.40272 12.0093V11.9898L5.39222 11.9991Z" fill="black" fill-opacity="0.2"/>
<path d="M0 11.9991L12.211 0L14.9067 2.64959L7.62569 9.80396H24V14.3721H7.80711L14.9076 21.3495L12.211 24L0 11.9991ZM5.39222 11.9991L5.40272 12.0093V11.9898L5.39222 11.9991Z" fill="black" fill-opacity="0.2"/>
<path d="M0 11.9991L12.211 0L14.9067 2.64959L7.62569 9.80396H24V14.3721H7.80711L14.9076 21.3495L12.211 24L0 11.9991ZM5.39222 11.9991L5.40272 12.0093V11.9898L5.39222 11.9991Z" fill="black" fill-opacity="0.2"/>
<path d="M0 11.9991L12.211 0L14.9067 2.64959L7.62569 9.80396H24V14.3721H7.80711L14.9076 21.3495L12.211 24L0 11.9991ZM5.39222 11.9991L5.40272 12.0093V11.9898L5.39222 11.9991Z" fill="black" fill-opacity="0.2"/>
<path d="M0 11.9991L12.211 0L14.9067 2.64959L7.62569 9.80396H24V14.3721H7.80711L14.9076 21.3495L12.211 24L0 11.9991ZM5.39222 11.9991L5.40272 12.0093V11.9898L5.39222 11.9991Z" fill="black" fill-opacity="0.2"/>
<path d="M0 11.9991L12.211 0L14.9067 2.64959L7.62569 9.80396H24V14.3721H7.80711L14.9076 21.3495L12.211 24L0 11.9991ZM5.39222 11.9991L5.40272 12.0093V11.9898L5.39222 11.9991Z" fill="black" fill-opacity="0.2"/>
<path d="M0 11.9991L12.211 0L14.9067 2.64959L7.62569 9.80396H24V14.3721H7.80711L14.9076 21.3495L12.211 24L0 11.9991ZM5.39222 11.9991L5.40272 12.0093V11.9898L5.39222 11.9991Z" fill="black" fill-opacity="0.2"/>
<path d="M0 11.9991L12.211 0L14.9067 2.64959L7.62569 9.80396H24V14.3721H7.80711L14.9076 21.3495L12.211 24L0 11.9991ZM5.39222 11.9991L5.40272 12.0093V11.9898L5.39222 11.9991Z" fill="black" fill-opacity="0.2"/>
</g>
<defs>
<clipPath id="clip0_414_2445">
<rect width="24" height="24" fill="white"/>
</clipPath>
</defs>
</svg>
