<svg width="24" height="24" viewBox="0 0 24 24" fill="none" xmlns="http://www.w3.org/2000/svg">
<path fill-rule="evenodd" clip-rule="evenodd" d="M23.2351 9.57302L11.7881 18.5614L0.736145 9.55005L3.26386 6.44994L11.8351 13.4386L20.7649 6.42697L23.2351 9.57302Z" fill="black"/>
<path fill-rule="evenodd" clip-rule="evenodd" d="M23.2351 9.57302L11.7881 18.5614L0.736145 9.55005L3.26386 6.44994L11.8351 13.4386L20.7649 6.42697L23.2351 9.57302Z" fill="black" fill-opacity="0.2"/>
<path fill-rule="evenodd" clip-rule="evenodd" d="M23.2351 9.57302L11.7881 18.5614L0.736145 9.55005L3.26386 6.44994L11.8351 13.4386L20.7649 6.42697L23.2351 9.57302Z" fill="black" fill-opacity="0.2"/>
<path fill-rule="evenodd" clip-rule="evenodd" d="M23.2351 9.57302L11.7881 18.5614L0.736145 9.55005L3.26386 6.44994L11.8351 13.4386L20.7649 6.42697L23.2351 9.57302Z" fill="black" fill-opacity="0.2"/>
<path fill-rule="evenodd" clip-rule="evenodd" d="M23.2351 9.57302L11.7881 18.5614L0.736145 9.55005L3.26386 6.44994L11.8351 13.4386L20.7649 6.42697L23.2351 9.57302Z" fill="black" fill-opacity="0.2"/>
<path fill-rule="evenodd" clip-rule="evenodd" d="M23.2351 9.57302L11.7881 18.5614L0.736145 9.55005L3.26386 6.44994L11.8351 13.4386L20.7649 6.42697L23.2351 9.57302Z" fill="black" fill-opacity="0.2"/>
<path fill-rule="evenodd" clip-rule="evenodd" d="M23.2351 9.57302L11.7881 18.5614L0.736145 9.55005L3.26386 6.44994L11.8351 13.4386L20.7649 6.42697L23.2351 9.57302Z" fill="black" fill-opacity="0.2"/>
<path fill-rule="evenodd" clip-rule="evenodd" d="M23.2351 9.57302L11.7881 18.5614L0.736145 9.55005L3.26386 6.44994L11.8351 13.4386L20.7649 6.42697L23.2351 9.57302Z" fill="black" fill-opacity="0.2"/>
<path fill-rule="evenodd" clip-rule="evenodd" d="M23.2351 9.57302L11.7881 18.5614L0.736145 9.55005L3.26386 6.44994L11.8351 13.4386L20.7649 6.42697L23.2351 9.57302Z" fill="black" fill-opacity="0.2"/>
<path fill-rule="evenodd" clip-rule="evenodd" d="M23.2351 9.57302L11.7881 18.5614L0.736145 9.55005L3.26386 6.44994L11.8351 13.4386L20.7649 6.42697L23.2351 9.57302Z" fill="black" fill-opacity="0.2"/>
</svg>
