<svg width="16" height="16" viewBox="0 0 16 16" fill="none" xmlns="http://www.w3.org/2000/svg">
<path fill-rule="evenodd" clip-rule="evenodd" d="M1.22042 1.7C1.0754 1.7 0.940924 1.76194 0.845191 1.86456C0.75011 1.96647 0.699987 2.10051 0.699987 2.23628C0.699987 2.37204 0.75011 2.50609 0.845191 2.608C0.940924 2.71062 1.0754 2.77255 1.22042 2.77255H3.26225L4.02434 4.92371C4.02923 4.94727 4.03566 4.97055 4.04364 4.99337L5.8567 10.1097C5.86539 10.1342 5.87584 10.158 5.888 10.181L6.55924 12.0749C6.34345 12.1631 6.14828 12.3007 5.98803 12.478C5.74629 12.7456 5.59702 13.0888 5.56001 13.4526C5.52299 13.8163 5.59982 14.1842 5.78057 14.4987C5.96148 14.8135 6.23764 15.059 6.56891 15.1918C6.90065 15.3247 7.26538 15.3356 7.60397 15.2222C7.94212 15.1089 8.23107 14.8796 8.42823 14.5753C8.62521 14.2713 8.72073 13.9082 8.70242 13.5429C8.69366 13.3682 8.65903 13.1967 8.60042 13.0346H11.5315C11.4712 13.2026 11.4367 13.3806 11.43 13.5618C11.4163 13.9331 11.5202 14.3003 11.7278 14.6038C11.9356 14.9077 12.2363 15.1313 12.5839 15.2329C12.932 15.3346 13.302 15.3066 13.6321 15.1546C13.9617 15.0028 14.2291 14.7379 14.3945 14.4078C14.5599 14.0778 14.6153 13.6995 14.5535 13.3335C14.4917 12.9674 14.3154 12.631 14.0491 12.3807C13.7823 12.1301 13.4408 11.9809 13.0795 11.9625L13.0719 11.9621H7.62411L7.09194 10.461H12.8681C13.0607 10.4609 13.2466 10.3981 13.4015 10.284C13.5559 10.1702 13.6719 10.0103 13.7366 9.82938L15.2422 5.58048C15.2933 5.43599 15.3108 5.28109 15.2936 5.12867C15.2763 4.97624 15.2247 4.82927 15.1418 4.70048C15.0589 4.57161 14.9466 4.46409 14.8131 4.38895C14.6794 4.31372 14.5292 4.27368 14.3758 4.27364H4.90143L4.21463 2.33552C4.15081 2.15407 4.03588 1.99425 3.88175 1.87949C3.72719 1.76441 3.54109 1.70073 3.34816 1.7H1.22042ZM12.7852 9.38902L14.2177 5.34619H5.2816L6.71447 9.38902H12.7852ZM12.7109 13.1277C12.7984 13.065 12.8988 13.033 12.9997 13.0328C13.1348 13.033 13.2688 13.0904 13.3711 13.2001C13.4739 13.3104 13.535 13.4641 13.5352 13.6283C13.5351 13.7502 13.5012 13.8678 13.4399 13.9662C13.3786 14.0645 13.2936 14.1379 13.1981 14.1803C13.1029 14.2226 12.9996 14.2333 12.9001 14.2121C12.8004 14.1908 12.7057 14.1378 12.6294 14.056C12.5529 13.974 12.4986 13.8671 12.4764 13.7478C12.4543 13.6285 12.4657 13.505 12.5087 13.3937C12.5516 13.2825 12.623 13.1907 12.7109 13.1277ZM7.02923 13.0441C7.12871 13.0228 7.23207 13.0335 7.32724 13.0757C7.42272 13.118 7.50774 13.1913 7.56907 13.2896C7.63052 13.3881 7.66445 13.5059 7.66452 13.6279C7.66448 13.7923 7.60336 13.9462 7.50043 14.0566C7.39855 14.1659 7.26465 14.2231 7.12908 14.2232C7.02823 14.2231 6.92775 14.1911 6.84026 14.1284C6.75242 14.0654 6.68098 13.9736 6.63807 13.8625C6.59511 13.7512 6.58362 13.6277 6.60578 13.5084C6.62793 13.3891 6.68214 13.2822 6.75864 13.2002C6.83494 13.1184 6.92956 13.0653 7.02923 13.0441ZM13.2 2.645V3.515H13.95V2.645H14.78V1.935H13.95V1.07H13.2V1.935H12.37V2.645H13.2Z" fill="black"/>
<path fill-rule="evenodd" clip-rule="evenodd" d="M1.22042 1.7C1.0754 1.7 0.940924 1.76194 0.845191 1.86456C0.75011 1.96647 0.699987 2.10051 0.699987 2.23628C0.699987 2.37204 0.75011 2.50609 0.845191 2.608C0.940924 2.71062 1.0754 2.77255 1.22042 2.77255H3.26225L4.02434 4.92371C4.02923 4.94727 4.03566 4.97055 4.04364 4.99337L5.8567 10.1097C5.86539 10.1342 5.87584 10.158 5.888 10.181L6.55924 12.0749C6.34345 12.1631 6.14828 12.3007 5.98803 12.478C5.74629 12.7456 5.59702 13.0888 5.56001 13.4526C5.52299 13.8163 5.59982 14.1842 5.78057 14.4987C5.96148 14.8135 6.23764 15.059 6.56891 15.1918C6.90065 15.3247 7.26538 15.3356 7.60397 15.2222C7.94212 15.1089 8.23107 14.8796 8.42823 14.5753C8.62521 14.2713 8.72073 13.9082 8.70242 13.5429C8.69366 13.3682 8.65903 13.1967 8.60042 13.0346H11.5315C11.4712 13.2026 11.4367 13.3806 11.43 13.5618C11.4163 13.9331 11.5202 14.3003 11.7278 14.6038C11.9356 14.9077 12.2363 15.1313 12.5839 15.2329C12.932 15.3346 13.302 15.3066 13.6321 15.1546C13.9617 15.0028 14.2291 14.7379 14.3945 14.4078C14.5599 14.0778 14.6153 13.6995 14.5535 13.3335C14.4917 12.9674 14.3154 12.631 14.0491 12.3807C13.7823 12.1301 13.4408 11.9809 13.0795 11.9625L13.0719 11.9621H7.62411L7.09194 10.461H12.8681C13.0607 10.4609 13.2466 10.3981 13.4015 10.284C13.5559 10.1702 13.6719 10.0103 13.7366 9.82938L15.2422 5.58048C15.2933 5.43599 15.3108 5.28109 15.2936 5.12867C15.2763 4.97624 15.2247 4.82927 15.1418 4.70048C15.0589 4.57161 14.9466 4.46409 14.8131 4.38895C14.6794 4.31372 14.5292 4.27368 14.3758 4.27364H4.90143L4.21463 2.33552C4.15081 2.15407 4.03588 1.99425 3.88175 1.87949C3.72719 1.76441 3.54109 1.70073 3.34816 1.7H1.22042ZM12.7852 9.38902L14.2177 5.34619H5.2816L6.71447 9.38902H12.7852ZM12.7109 13.1277C12.7984 13.065 12.8988 13.033 12.9997 13.0328C13.1348 13.033 13.2688 13.0904 13.3711 13.2001C13.4739 13.3104 13.535 13.4641 13.5352 13.6283C13.5351 13.7502 13.5012 13.8678 13.4399 13.9662C13.3786 14.0645 13.2936 14.1379 13.1981 14.1803C13.1029 14.2226 12.9996 14.2333 12.9001 14.2121C12.8004 14.1908 12.7057 14.1378 12.6294 14.056C12.5529 13.974 12.4986 13.8671 12.4764 13.7478C12.4543 13.6285 12.4657 13.505 12.5087 13.3937C12.5516 13.2825 12.623 13.1907 12.7109 13.1277ZM7.02923 13.0441C7.12871 13.0228 7.23207 13.0335 7.32724 13.0757C7.42272 13.118 7.50774 13.1913 7.56907 13.2896C7.63052 13.3881 7.66445 13.5059 7.66452 13.6279C7.66448 13.7923 7.60336 13.9462 7.50043 14.0566C7.39855 14.1659 7.26465 14.2231 7.12908 14.2232C7.02823 14.2231 6.92775 14.1911 6.84026 14.1284C6.75242 14.0654 6.68098 13.9736 6.63807 13.8625C6.59511 13.7512 6.58362 13.6277 6.60578 13.5084C6.62793 13.3891 6.68214 13.2822 6.75864 13.2002C6.83494 13.1184 6.92956 13.0653 7.02923 13.0441ZM13.2 2.645V3.515H13.95V2.645H14.78V1.935H13.95V1.07H13.2V1.935H12.37V2.645H13.2Z" fill="black" fill-opacity="0.2"/>
<path fill-rule="evenodd" clip-rule="evenodd" d="M1.22042 1.7C1.0754 1.7 0.940924 1.76194 0.845191 1.86456C0.75011 1.96647 0.699987 2.10051 0.699987 2.23628C0.699987 2.37204 0.75011 2.50609 0.845191 2.608C0.940924 2.71062 1.0754 2.77255 1.22042 2.77255H3.26225L4.02434 4.92371C4.02923 4.94727 4.03566 4.97055 4.04364 4.99337L5.8567 10.1097C5.86539 10.1342 5.87584 10.158 5.888 10.181L6.55924 12.0749C6.34345 12.1631 6.14828 12.3007 5.98803 12.478C5.74629 12.7456 5.59702 13.0888 5.56001 13.4526C5.52299 13.8163 5.59982 14.1842 5.78057 14.4987C5.96148 14.8135 6.23764 15.059 6.56891 15.1918C6.90065 15.3247 7.26538 15.3356 7.60397 15.2222C7.94212 15.1089 8.23107 14.8796 8.42823 14.5753C8.62521 14.2713 8.72073 13.9082 8.70242 13.5429C8.69366 13.3682 8.65903 13.1967 8.60042 13.0346H11.5315C11.4712 13.2026 11.4367 13.3806 11.43 13.5618C11.4163 13.9331 11.5202 14.3003 11.7278 14.6038C11.9356 14.9077 12.2363 15.1313 12.5839 15.2329C12.932 15.3346 13.302 15.3066 13.6321 15.1546C13.9617 15.0028 14.2291 14.7379 14.3945 14.4078C14.5599 14.0778 14.6153 13.6995 14.5535 13.3335C14.4917 12.9674 14.3154 12.631 14.0491 12.3807C13.7823 12.1301 13.4408 11.9809 13.0795 11.9625L13.0719 11.9621H7.62411L7.09194 10.461H12.8681C13.0607 10.4609 13.2466 10.3981 13.4015 10.284C13.5559 10.1702 13.6719 10.0103 13.7366 9.82938L15.2422 5.58048C15.2933 5.43599 15.3108 5.28109 15.2936 5.12867C15.2763 4.97624 15.2247 4.82927 15.1418 4.70048C15.0589 4.57161 14.9466 4.46409 14.8131 4.38895C14.6794 4.31372 14.5292 4.27368 14.3758 4.27364H4.90143L4.21463 2.33552C4.15081 2.15407 4.03588 1.99425 3.88175 1.87949C3.72719 1.76441 3.54109 1.70073 3.34816 1.7H1.22042ZM12.7852 9.38902L14.2177 5.34619H5.2816L6.71447 9.38902H12.7852ZM12.7109 13.1277C12.7984 13.065 12.8988 13.033 12.9997 13.0328C13.1348 13.033 13.2688 13.0904 13.3711 13.2001C13.4739 13.3104 13.535 13.4641 13.5352 13.6283C13.5351 13.7502 13.5012 13.8678 13.4399 13.9662C13.3786 14.0645 13.2936 14.1379 13.1981 14.1803C13.1029 14.2226 12.9996 14.2333 12.9001 14.2121C12.8004 14.1908 12.7057 14.1378 12.6294 14.056C12.5529 13.974 12.4986 13.8671 12.4764 13.7478C12.4543 13.6285 12.4657 13.505 12.5087 13.3937C12.5516 13.2825 12.623 13.1907 12.7109 13.1277ZM7.02923 13.0441C7.12871 13.0228 7.23207 13.0335 7.32724 13.0757C7.42272 13.118 7.50774 13.1913 7.56907 13.2896C7.63052 13.3881 7.66445 13.5059 7.66452 13.6279C7.66448 13.7923 7.60336 13.9462 7.50043 14.0566C7.39855 14.1659 7.26465 14.2231 7.12908 14.2232C7.02823 14.2231 6.92775 14.1911 6.84026 14.1284C6.75242 14.0654 6.68098 13.9736 6.63807 13.8625C6.59511 13.7512 6.58362 13.6277 6.60578 13.5084C6.62793 13.3891 6.68214 13.2822 6.75864 13.2002C6.83494 13.1184 6.92956 13.0653 7.02923 13.0441ZM13.2 2.645V3.515H13.95V2.645H14.78V1.935H13.95V1.07H13.2V1.935H12.37V2.645H13.2Z" fill="black" fill-opacity="0.2"/>
<path fill-rule="evenodd" clip-rule="evenodd" d="M1.22042 1.7C1.0754 1.7 0.940924 1.76194 0.845191 1.86456C0.75011 1.96647 0.699987 2.10051 0.699987 2.23628C0.699987 2.37204 0.75011 2.50609 0.845191 2.608C0.940924 2.71062 1.0754 2.77255 1.22042 2.77255H3.26225L4.02434 4.92371C4.02923 4.94727 4.03566 4.97055 4.04364 4.99337L5.8567 10.1097C5.86539 10.1342 5.87584 10.158 5.888 10.181L6.55924 12.0749C6.34345 12.1631 6.14828 12.3007 5.98803 12.478C5.74629 12.7456 5.59702 13.0888 5.56001 13.4526C5.52299 13.8163 5.59982 14.1842 5.78057 14.4987C5.96148 14.8135 6.23764 15.059 6.56891 15.1918C6.90065 15.3247 7.26538 15.3356 7.60397 15.2222C7.94212 15.1089 8.23107 14.8796 8.42823 14.5753C8.62521 14.2713 8.72073 13.9082 8.70242 13.5429C8.69366 13.3682 8.65903 13.1967 8.60042 13.0346H11.5315C11.4712 13.2026 11.4367 13.3806 11.43 13.5618C11.4163 13.9331 11.5202 14.3003 11.7278 14.6038C11.9356 14.9077 12.2363 15.1313 12.5839 15.2329C12.932 15.3346 13.302 15.3066 13.6321 15.1546C13.9617 15.0028 14.2291 14.7379 14.3945 14.4078C14.5599 14.0778 14.6153 13.6995 14.5535 13.3335C14.4917 12.9674 14.3154 12.631 14.0491 12.3807C13.7823 12.1301 13.4408 11.9809 13.0795 11.9625L13.0719 11.9621H7.62411L7.09194 10.461H12.8681C13.0607 10.4609 13.2466 10.3981 13.4015 10.284C13.5559 10.1702 13.6719 10.0103 13.7366 9.82938L15.2422 5.58048C15.2933 5.43599 15.3108 5.28109 15.2936 5.12867C15.2763 4.97624 15.2247 4.82927 15.1418 4.70048C15.0589 4.57161 14.9466 4.46409 14.8131 4.38895C14.6794 4.31372 14.5292 4.27368 14.3758 4.27364H4.90143L4.21463 2.33552C4.15081 2.15407 4.03588 1.99425 3.88175 1.87949C3.72719 1.76441 3.54109 1.70073 3.34816 1.7H1.22042ZM12.7852 9.38902L14.2177 5.34619H5.2816L6.71447 9.38902H12.7852ZM12.7109 13.1277C12.7984 13.065 12.8988 13.033 12.9997 13.0328C13.1348 13.033 13.2688 13.0904 13.3711 13.2001C13.4739 13.3104 13.535 13.4641 13.5352 13.6283C13.5351 13.7502 13.5012 13.8678 13.4399 13.9662C13.3786 14.0645 13.2936 14.1379 13.1981 14.1803C13.1029 14.2226 12.9996 14.2333 12.9001 14.2121C12.8004 14.1908 12.7057 14.1378 12.6294 14.056C12.5529 13.974 12.4986 13.8671 12.4764 13.7478C12.4543 13.6285 12.4657 13.505 12.5087 13.3937C12.5516 13.2825 12.623 13.1907 12.7109 13.1277ZM7.02923 13.0441C7.12871 13.0228 7.23207 13.0335 7.32724 13.0757C7.42272 13.118 7.50774 13.1913 7.56907 13.2896C7.63052 13.3881 7.66445 13.5059 7.66452 13.6279C7.66448 13.7923 7.60336 13.9462 7.50043 14.0566C7.39855 14.1659 7.26465 14.2231 7.12908 14.2232C7.02823 14.2231 6.92775 14.1911 6.84026 14.1284C6.75242 14.0654 6.68098 13.9736 6.63807 13.8625C6.59511 13.7512 6.58362 13.6277 6.60578 13.5084C6.62793 13.3891 6.68214 13.2822 6.75864 13.2002C6.83494 13.1184 6.92956 13.0653 7.02923 13.0441ZM13.2 2.645V3.515H13.95V2.645H14.78V1.935H13.95V1.07H13.2V1.935H12.37V2.645H13.2Z" fill="black" fill-opacity="0.2"/>
<path fill-rule="evenodd" clip-rule="evenodd" d="M1.22042 1.7C1.0754 1.7 0.940924 1.76194 0.845191 1.86456C0.75011 1.96647 0.699987 2.10051 0.699987 2.23628C0.699987 2.37204 0.75011 2.50609 0.845191 2.608C0.940924 2.71062 1.0754 2.77255 1.22042 2.77255H3.26225L4.02434 4.92371C4.02923 4.94727 4.03566 4.97055 4.04364 4.99337L5.8567 10.1097C5.86539 10.1342 5.87584 10.158 5.888 10.181L6.55924 12.0749C6.34345 12.1631 6.14828 12.3007 5.98803 12.478C5.74629 12.7456 5.59702 13.0888 5.56001 13.4526C5.52299 13.8163 5.59982 14.1842 5.78057 14.4987C5.96148 14.8135 6.23764 15.059 6.56891 15.1918C6.90065 15.3247 7.26538 15.3356 7.60397 15.2222C7.94212 15.1089 8.23107 14.8796 8.42823 14.5753C8.62521 14.2713 8.72073 13.9082 8.70242 13.5429C8.69366 13.3682 8.65903 13.1967 8.60042 13.0346H11.5315C11.4712 13.2026 11.4367 13.3806 11.43 13.5618C11.4163 13.9331 11.5202 14.3003 11.7278 14.6038C11.9356 14.9077 12.2363 15.1313 12.5839 15.2329C12.932 15.3346 13.302 15.3066 13.6321 15.1546C13.9617 15.0028 14.2291 14.7379 14.3945 14.4078C14.5599 14.0778 14.6153 13.6995 14.5535 13.3335C14.4917 12.9674 14.3154 12.631 14.0491 12.3807C13.7823 12.1301 13.4408 11.9809 13.0795 11.9625L13.0719 11.9621H7.62411L7.09194 10.461H12.8681C13.0607 10.4609 13.2466 10.3981 13.4015 10.284C13.5559 10.1702 13.6719 10.0103 13.7366 9.82938L15.2422 5.58048C15.2933 5.43599 15.3108 5.28109 15.2936 5.12867C15.2763 4.97624 15.2247 4.82927 15.1418 4.70048C15.0589 4.57161 14.9466 4.46409 14.8131 4.38895C14.6794 4.31372 14.5292 4.27368 14.3758 4.27364H4.90143L4.21463 2.33552C4.15081 2.15407 4.03588 1.99425 3.88175 1.87949C3.72719 1.76441 3.54109 1.70073 3.34816 1.7H1.22042ZM12.7852 9.38902L14.2177 5.34619H5.2816L6.71447 9.38902H12.7852ZM12.7109 13.1277C12.7984 13.065 12.8988 13.033 12.9997 13.0328C13.1348 13.033 13.2688 13.0904 13.3711 13.2001C13.4739 13.3104 13.535 13.4641 13.5352 13.6283C13.5351 13.7502 13.5012 13.8678 13.4399 13.9662C13.3786 14.0645 13.2936 14.1379 13.1981 14.1803C13.1029 14.2226 12.9996 14.2333 12.9001 14.2121C12.8004 14.1908 12.7057 14.1378 12.6294 14.056C12.5529 13.974 12.4986 13.8671 12.4764 13.7478C12.4543 13.6285 12.4657 13.505 12.5087 13.3937C12.5516 13.2825 12.623 13.1907 12.7109 13.1277ZM7.02923 13.0441C7.12871 13.0228 7.23207 13.0335 7.32724 13.0757C7.42272 13.118 7.50774 13.1913 7.56907 13.2896C7.63052 13.3881 7.66445 13.5059 7.66452 13.6279C7.66448 13.7923 7.60336 13.9462 7.50043 14.0566C7.39855 14.1659 7.26465 14.2231 7.12908 14.2232C7.02823 14.2231 6.92775 14.1911 6.84026 14.1284C6.75242 14.0654 6.68098 13.9736 6.63807 13.8625C6.59511 13.7512 6.58362 13.6277 6.60578 13.5084C6.62793 13.3891 6.68214 13.2822 6.75864 13.2002C6.83494 13.1184 6.92956 13.0653 7.02923 13.0441ZM13.2 2.645V3.515H13.95V2.645H14.78V1.935H13.95V1.07H13.2V1.935H12.37V2.645H13.2Z" fill="black" fill-opacity="0.2"/>
<path fill-rule="evenodd" clip-rule="evenodd" d="M1.22042 1.7C1.0754 1.7 0.940924 1.76194 0.845191 1.86456C0.75011 1.96647 0.699987 2.10051 0.699987 2.23628C0.699987 2.37204 0.75011 2.50609 0.845191 2.608C0.940924 2.71062 1.0754 2.77255 1.22042 2.77255H3.26225L4.02434 4.92371C4.02923 4.94727 4.03566 4.97055 4.04364 4.99337L5.8567 10.1097C5.86539 10.1342 5.87584 10.158 5.888 10.181L6.55924 12.0749C6.34345 12.1631 6.14828 12.3007 5.98803 12.478C5.74629 12.7456 5.59702 13.0888 5.56001 13.4526C5.52299 13.8163 5.59982 14.1842 5.78057 14.4987C5.96148 14.8135 6.23764 15.059 6.56891 15.1918C6.90065 15.3247 7.26538 15.3356 7.60397 15.2222C7.94212 15.1089 8.23107 14.8796 8.42823 14.5753C8.62521 14.2713 8.72073 13.9082 8.70242 13.5429C8.69366 13.3682 8.65903 13.1967 8.60042 13.0346H11.5315C11.4712 13.2026 11.4367 13.3806 11.43 13.5618C11.4163 13.9331 11.5202 14.3003 11.7278 14.6038C11.9356 14.9077 12.2363 15.1313 12.5839 15.2329C12.932 15.3346 13.302 15.3066 13.6321 15.1546C13.9617 15.0028 14.2291 14.7379 14.3945 14.4078C14.5599 14.0778 14.6153 13.6995 14.5535 13.3335C14.4917 12.9674 14.3154 12.631 14.0491 12.3807C13.7823 12.1301 13.4408 11.9809 13.0795 11.9625L13.0719 11.9621H7.62411L7.09194 10.461H12.8681C13.0607 10.4609 13.2466 10.3981 13.4015 10.284C13.5559 10.1702 13.6719 10.0103 13.7366 9.82938L15.2422 5.58048C15.2933 5.43599 15.3108 5.28109 15.2936 5.12867C15.2763 4.97624 15.2247 4.82927 15.1418 4.70048C15.0589 4.57161 14.9466 4.46409 14.8131 4.38895C14.6794 4.31372 14.5292 4.27368 14.3758 4.27364H4.90143L4.21463 2.33552C4.15081 2.15407 4.03588 1.99425 3.88175 1.87949C3.72719 1.76441 3.54109 1.70073 3.34816 1.7H1.22042ZM12.7852 9.38902L14.2177 5.34619H5.2816L6.71447 9.38902H12.7852ZM12.7109 13.1277C12.7984 13.065 12.8988 13.033 12.9997 13.0328C13.1348 13.033 13.2688 13.0904 13.3711 13.2001C13.4739 13.3104 13.535 13.4641 13.5352 13.6283C13.5351 13.7502 13.5012 13.8678 13.4399 13.9662C13.3786 14.0645 13.2936 14.1379 13.1981 14.1803C13.1029 14.2226 12.9996 14.2333 12.9001 14.2121C12.8004 14.1908 12.7057 14.1378 12.6294 14.056C12.5529 13.974 12.4986 13.8671 12.4764 13.7478C12.4543 13.6285 12.4657 13.505 12.5087 13.3937C12.5516 13.2825 12.623 13.1907 12.7109 13.1277ZM7.02923 13.0441C7.12871 13.0228 7.23207 13.0335 7.32724 13.0757C7.42272 13.118 7.50774 13.1913 7.56907 13.2896C7.63052 13.3881 7.66445 13.5059 7.66452 13.6279C7.66448 13.7923 7.60336 13.9462 7.50043 14.0566C7.39855 14.1659 7.26465 14.2231 7.12908 14.2232C7.02823 14.2231 6.92775 14.1911 6.84026 14.1284C6.75242 14.0654 6.68098 13.9736 6.63807 13.8625C6.59511 13.7512 6.58362 13.6277 6.60578 13.5084C6.62793 13.3891 6.68214 13.2822 6.75864 13.2002C6.83494 13.1184 6.92956 13.0653 7.02923 13.0441ZM13.2 2.645V3.515H13.95V2.645H14.78V1.935H13.95V1.07H13.2V1.935H12.37V2.645H13.2Z" fill="black" fill-opacity="0.2"/>
<path fill-rule="evenodd" clip-rule="evenodd" d="M1.22042 1.7C1.0754 1.7 0.940924 1.76194 0.845191 1.86456C0.75011 1.96647 0.699987 2.10051 0.699987 2.23628C0.699987 2.37204 0.75011 2.50609 0.845191 2.608C0.940924 2.71062 1.0754 2.77255 1.22042 2.77255H3.26225L4.02434 4.92371C4.02923 4.94727 4.03566 4.97055 4.04364 4.99337L5.8567 10.1097C5.86539 10.1342 5.87584 10.158 5.888 10.181L6.55924 12.0749C6.34345 12.1631 6.14828 12.3007 5.98803 12.478C5.74629 12.7456 5.59702 13.0888 5.56001 13.4526C5.52299 13.8163 5.59982 14.1842 5.78057 14.4987C5.96148 14.8135 6.23764 15.059 6.56891 15.1918C6.90065 15.3247 7.26538 15.3356 7.60397 15.2222C7.94212 15.1089 8.23107 14.8796 8.42823 14.5753C8.62521 14.2713 8.72073 13.9082 8.70242 13.5429C8.69366 13.3682 8.65903 13.1967 8.60042 13.0346H11.5315C11.4712 13.2026 11.4367 13.3806 11.43 13.5618C11.4163 13.9331 11.5202 14.3003 11.7278 14.6038C11.9356 14.9077 12.2363 15.1313 12.5839 15.2329C12.932 15.3346 13.302 15.3066 13.6321 15.1546C13.9617 15.0028 14.2291 14.7379 14.3945 14.4078C14.5599 14.0778 14.6153 13.6995 14.5535 13.3335C14.4917 12.9674 14.3154 12.631 14.0491 12.3807C13.7823 12.1301 13.4408 11.9809 13.0795 11.9625L13.0719 11.9621H7.62411L7.09194 10.461H12.8681C13.0607 10.4609 13.2466 10.3981 13.4015 10.284C13.5559 10.1702 13.6719 10.0103 13.7366 9.82938L15.2422 5.58048C15.2933 5.43599 15.3108 5.28109 15.2936 5.12867C15.2763 4.97624 15.2247 4.82927 15.1418 4.70048C15.0589 4.57161 14.9466 4.46409 14.8131 4.38895C14.6794 4.31372 14.5292 4.27368 14.3758 4.27364H4.90143L4.21463 2.33552C4.15081 2.15407 4.03588 1.99425 3.88175 1.87949C3.72719 1.76441 3.54109 1.70073 3.34816 1.7H1.22042ZM12.7852 9.38902L14.2177 5.34619H5.2816L6.71447 9.38902H12.7852ZM12.7109 13.1277C12.7984 13.065 12.8988 13.033 12.9997 13.0328C13.1348 13.033 13.2688 13.0904 13.3711 13.2001C13.4739 13.3104 13.535 13.4641 13.5352 13.6283C13.5351 13.7502 13.5012 13.8678 13.4399 13.9662C13.3786 14.0645 13.2936 14.1379 13.1981 14.1803C13.1029 14.2226 12.9996 14.2333 12.9001 14.2121C12.8004 14.1908 12.7057 14.1378 12.6294 14.056C12.5529 13.974 12.4986 13.8671 12.4764 13.7478C12.4543 13.6285 12.4657 13.505 12.5087 13.3937C12.5516 13.2825 12.623 13.1907 12.7109 13.1277ZM7.02923 13.0441C7.12871 13.0228 7.23207 13.0335 7.32724 13.0757C7.42272 13.118 7.50774 13.1913 7.56907 13.2896C7.63052 13.3881 7.66445 13.5059 7.66452 13.6279C7.66448 13.7923 7.60336 13.9462 7.50043 14.0566C7.39855 14.1659 7.26465 14.2231 7.12908 14.2232C7.02823 14.2231 6.92775 14.1911 6.84026 14.1284C6.75242 14.0654 6.68098 13.9736 6.63807 13.8625C6.59511 13.7512 6.58362 13.6277 6.60578 13.5084C6.62793 13.3891 6.68214 13.2822 6.75864 13.2002C6.83494 13.1184 6.92956 13.0653 7.02923 13.0441ZM13.2 2.645V3.515H13.95V2.645H14.78V1.935H13.95V1.07H13.2V1.935H12.37V2.645H13.2Z" fill="black" fill-opacity="0.2"/>
<path fill-rule="evenodd" clip-rule="evenodd" d="M1.22042 1.7C1.0754 1.7 0.940924 1.76194 0.845191 1.86456C0.75011 1.96647 0.699987 2.10051 0.699987 2.23628C0.699987 2.37204 0.75011 2.50609 0.845191 2.608C0.940924 2.71062 1.0754 2.77255 1.22042 2.77255H3.26225L4.02434 4.92371C4.02923 4.94727 4.03566 4.97055 4.04364 4.99337L5.8567 10.1097C5.86539 10.1342 5.87584 10.158 5.888 10.181L6.55924 12.0749C6.34345 12.1631 6.14828 12.3007 5.98803 12.478C5.74629 12.7456 5.59702 13.0888 5.56001 13.4526C5.52299 13.8163 5.59982 14.1842 5.78057 14.4987C5.96148 14.8135 6.23764 15.059 6.56891 15.1918C6.90065 15.3247 7.26538 15.3356 7.60397 15.2222C7.94212 15.1089 8.23107 14.8796 8.42823 14.5753C8.62521 14.2713 8.72073 13.9082 8.70242 13.5429C8.69366 13.3682 8.65903 13.1967 8.60042 13.0346H11.5315C11.4712 13.2026 11.4367 13.3806 11.43 13.5618C11.4163 13.9331 11.5202 14.3003 11.7278 14.6038C11.9356 14.9077 12.2363 15.1313 12.5839 15.2329C12.932 15.3346 13.302 15.3066 13.6321 15.1546C13.9617 15.0028 14.2291 14.7379 14.3945 14.4078C14.5599 14.0778 14.6153 13.6995 14.5535 13.3335C14.4917 12.9674 14.3154 12.631 14.0491 12.3807C13.7823 12.1301 13.4408 11.9809 13.0795 11.9625L13.0719 11.9621H7.62411L7.09194 10.461H12.8681C13.0607 10.4609 13.2466 10.3981 13.4015 10.284C13.5559 10.1702 13.6719 10.0103 13.7366 9.82938L15.2422 5.58048C15.2933 5.43599 15.3108 5.28109 15.2936 5.12867C15.2763 4.97624 15.2247 4.82927 15.1418 4.70048C15.0589 4.57161 14.9466 4.46409 14.8131 4.38895C14.6794 4.31372 14.5292 4.27368 14.3758 4.27364H4.90143L4.21463 2.33552C4.15081 2.15407 4.03588 1.99425 3.88175 1.87949C3.72719 1.76441 3.54109 1.70073 3.34816 1.7H1.22042ZM12.7852 9.38902L14.2177 5.34619H5.2816L6.71447 9.38902H12.7852ZM12.7109 13.1277C12.7984 13.065 12.8988 13.033 12.9997 13.0328C13.1348 13.033 13.2688 13.0904 13.3711 13.2001C13.4739 13.3104 13.535 13.4641 13.5352 13.6283C13.5351 13.7502 13.5012 13.8678 13.4399 13.9662C13.3786 14.0645 13.2936 14.1379 13.1981 14.1803C13.1029 14.2226 12.9996 14.2333 12.9001 14.2121C12.8004 14.1908 12.7057 14.1378 12.6294 14.056C12.5529 13.974 12.4986 13.8671 12.4764 13.7478C12.4543 13.6285 12.4657 13.505 12.5087 13.3937C12.5516 13.2825 12.623 13.1907 12.7109 13.1277ZM7.02923 13.0441C7.12871 13.0228 7.23207 13.0335 7.32724 13.0757C7.42272 13.118 7.50774 13.1913 7.56907 13.2896C7.63052 13.3881 7.66445 13.5059 7.66452 13.6279C7.66448 13.7923 7.60336 13.9462 7.50043 14.0566C7.39855 14.1659 7.26465 14.2231 7.12908 14.2232C7.02823 14.2231 6.92775 14.1911 6.84026 14.1284C6.75242 14.0654 6.68098 13.9736 6.63807 13.8625C6.59511 13.7512 6.58362 13.6277 6.60578 13.5084C6.62793 13.3891 6.68214 13.2822 6.75864 13.2002C6.83494 13.1184 6.92956 13.0653 7.02923 13.0441ZM13.2 2.645V3.515H13.95V2.645H14.78V1.935H13.95V1.07H13.2V1.935H12.37V2.645H13.2Z" fill="black" fill-opacity="0.2"/>
<path fill-rule="evenodd" clip-rule="evenodd" d="M1.22042 1.7C1.0754 1.7 0.940924 1.76194 0.845191 1.86456C0.75011 1.96647 0.699987 2.10051 0.699987 2.23628C0.699987 2.37204 0.75011 2.50609 0.845191 2.608C0.940924 2.71062 1.0754 2.77255 1.22042 2.77255H3.26225L4.02434 4.92371C4.02923 4.94727 4.03566 4.97055 4.04364 4.99337L5.8567 10.1097C5.86539 10.1342 5.87584 10.158 5.888 10.181L6.55924 12.0749C6.34345 12.1631 6.14828 12.3007 5.98803 12.478C5.74629 12.7456 5.59702 13.0888 5.56001 13.4526C5.52299 13.8163 5.59982 14.1842 5.78057 14.4987C5.96148 14.8135 6.23764 15.059 6.56891 15.1918C6.90065 15.3247 7.26538 15.3356 7.60397 15.2222C7.94212 15.1089 8.23107 14.8796 8.42823 14.5753C8.62521 14.2713 8.72073 13.9082 8.70242 13.5429C8.69366 13.3682 8.65903 13.1967 8.60042 13.0346H11.5315C11.4712 13.2026 11.4367 13.3806 11.43 13.5618C11.4163 13.9331 11.5202 14.3003 11.7278 14.6038C11.9356 14.9077 12.2363 15.1313 12.5839 15.2329C12.932 15.3346 13.302 15.3066 13.6321 15.1546C13.9617 15.0028 14.2291 14.7379 14.3945 14.4078C14.5599 14.0778 14.6153 13.6995 14.5535 13.3335C14.4917 12.9674 14.3154 12.631 14.0491 12.3807C13.7823 12.1301 13.4408 11.9809 13.0795 11.9625L13.0719 11.9621H7.62411L7.09194 10.461H12.8681C13.0607 10.4609 13.2466 10.3981 13.4015 10.284C13.5559 10.1702 13.6719 10.0103 13.7366 9.82938L15.2422 5.58048C15.2933 5.43599 15.3108 5.28109 15.2936 5.12867C15.2763 4.97624 15.2247 4.82927 15.1418 4.70048C15.0589 4.57161 14.9466 4.46409 14.8131 4.38895C14.6794 4.31372 14.5292 4.27368 14.3758 4.27364H4.90143L4.21463 2.33552C4.15081 2.15407 4.03588 1.99425 3.88175 1.87949C3.72719 1.76441 3.54109 1.70073 3.34816 1.7H1.22042ZM12.7852 9.38902L14.2177 5.34619H5.2816L6.71447 9.38902H12.7852ZM12.7109 13.1277C12.7984 13.065 12.8988 13.033 12.9997 13.0328C13.1348 13.033 13.2688 13.0904 13.3711 13.2001C13.4739 13.3104 13.535 13.4641 13.5352 13.6283C13.5351 13.7502 13.5012 13.8678 13.4399 13.9662C13.3786 14.0645 13.2936 14.1379 13.1981 14.1803C13.1029 14.2226 12.9996 14.2333 12.9001 14.2121C12.8004 14.1908 12.7057 14.1378 12.6294 14.056C12.5529 13.974 12.4986 13.8671 12.4764 13.7478C12.4543 13.6285 12.4657 13.505 12.5087 13.3937C12.5516 13.2825 12.623 13.1907 12.7109 13.1277ZM7.02923 13.0441C7.12871 13.0228 7.23207 13.0335 7.32724 13.0757C7.42272 13.118 7.50774 13.1913 7.56907 13.2896C7.63052 13.3881 7.66445 13.5059 7.66452 13.6279C7.66448 13.7923 7.60336 13.9462 7.50043 14.0566C7.39855 14.1659 7.26465 14.2231 7.12908 14.2232C7.02823 14.2231 6.92775 14.1911 6.84026 14.1284C6.75242 14.0654 6.68098 13.9736 6.63807 13.8625C6.59511 13.7512 6.58362 13.6277 6.60578 13.5084C6.62793 13.3891 6.68214 13.2822 6.75864 13.2002C6.83494 13.1184 6.92956 13.0653 7.02923 13.0441ZM13.2 2.645V3.515H13.95V2.645H14.78V1.935H13.95V1.07H13.2V1.935H12.37V2.645H13.2Z" fill="black" fill-opacity="0.2"/>
<path fill-rule="evenodd" clip-rule="evenodd" d="M1.22042 1.7C1.0754 1.7 0.940924 1.76194 0.845191 1.86456C0.75011 1.96647 0.699987 2.10051 0.699987 2.23628C0.699987 2.37204 0.75011 2.50609 0.845191 2.608C0.940924 2.71062 1.0754 2.77255 1.22042 2.77255H3.26225L4.02434 4.92371C4.02923 4.94727 4.03566 4.97055 4.04364 4.99337L5.8567 10.1097C5.86539 10.1342 5.87584 10.158 5.888 10.181L6.55924 12.0749C6.34345 12.1631 6.14828 12.3007 5.98803 12.478C5.74629 12.7456 5.59702 13.0888 5.56001 13.4526C5.52299 13.8163 5.59982 14.1842 5.78057 14.4987C5.96148 14.8135 6.23764 15.059 6.56891 15.1918C6.90065 15.3247 7.26538 15.3356 7.60397 15.2222C7.94212 15.1089 8.23107 14.8796 8.42823 14.5753C8.62521 14.2713 8.72073 13.9082 8.70242 13.5429C8.69366 13.3682 8.65903 13.1967 8.60042 13.0346H11.5315C11.4712 13.2026 11.4367 13.3806 11.43 13.5618C11.4163 13.9331 11.5202 14.3003 11.7278 14.6038C11.9356 14.9077 12.2363 15.1313 12.5839 15.2329C12.932 15.3346 13.302 15.3066 13.6321 15.1546C13.9617 15.0028 14.2291 14.7379 14.3945 14.4078C14.5599 14.0778 14.6153 13.6995 14.5535 13.3335C14.4917 12.9674 14.3154 12.631 14.0491 12.3807C13.7823 12.1301 13.4408 11.9809 13.0795 11.9625L13.0719 11.9621H7.62411L7.09194 10.461H12.8681C13.0607 10.4609 13.2466 10.3981 13.4015 10.284C13.5559 10.1702 13.6719 10.0103 13.7366 9.82938L15.2422 5.58048C15.2933 5.43599 15.3108 5.28109 15.2936 5.12867C15.2763 4.97624 15.2247 4.82927 15.1418 4.70048C15.0589 4.57161 14.9466 4.46409 14.8131 4.38895C14.6794 4.31372 14.5292 4.27368 14.3758 4.27364H4.90143L4.21463 2.33552C4.15081 2.15407 4.03588 1.99425 3.88175 1.87949C3.72719 1.76441 3.54109 1.70073 3.34816 1.7H1.22042ZM12.7852 9.38902L14.2177 5.34619H5.2816L6.71447 9.38902H12.7852ZM12.7109 13.1277C12.7984 13.065 12.8988 13.033 12.9997 13.0328C13.1348 13.033 13.2688 13.0904 13.3711 13.2001C13.4739 13.3104 13.535 13.4641 13.5352 13.6283C13.5351 13.7502 13.5012 13.8678 13.4399 13.9662C13.3786 14.0645 13.2936 14.1379 13.1981 14.1803C13.1029 14.2226 12.9996 14.2333 12.9001 14.2121C12.8004 14.1908 12.7057 14.1378 12.6294 14.056C12.5529 13.974 12.4986 13.8671 12.4764 13.7478C12.4543 13.6285 12.4657 13.505 12.5087 13.3937C12.5516 13.2825 12.623 13.1907 12.7109 13.1277ZM7.02923 13.0441C7.12871 13.0228 7.23207 13.0335 7.32724 13.0757C7.42272 13.118 7.50774 13.1913 7.56907 13.2896C7.63052 13.3881 7.66445 13.5059 7.66452 13.6279C7.66448 13.7923 7.60336 13.9462 7.50043 14.0566C7.39855 14.1659 7.26465 14.2231 7.12908 14.2232C7.02823 14.2231 6.92775 14.1911 6.84026 14.1284C6.75242 14.0654 6.68098 13.9736 6.63807 13.8625C6.59511 13.7512 6.58362 13.6277 6.60578 13.5084C6.62793 13.3891 6.68214 13.2822 6.75864 13.2002C6.83494 13.1184 6.92956 13.0653 7.02923 13.0441ZM13.2 2.645V3.515H13.95V2.645H14.78V1.935H13.95V1.07H13.2V1.935H12.37V2.645H13.2Z" fill="black" fill-opacity="0.2"/>
</svg>
