<svg width="24" height="24" viewBox="0 0 24 24" fill="none" xmlns="http://www.w3.org/2000/svg">
<g clip-path="url(#clip0_693_5797)">
<path d="M24 9.5881V22.9501L15.148 16.1628L24 9.5881Z" fill="black"/>
<path d="M24 9.5881V22.9501L15.148 16.1628L24 9.5881Z" fill="black" fill-opacity="0.2"/>
<path d="M24 9.5881V22.9501L15.148 16.1628L24 9.5881Z" fill="black" fill-opacity="0.2"/>
<path d="M24 9.5881V22.9501L15.148 16.1628L24 9.5881Z" fill="black" fill-opacity="0.2"/>
<path d="M24 9.5881V22.9501L15.148 16.1628L24 9.5881Z" fill="black" fill-opacity="0.2"/>
<path d="M24 9.5881V22.9501L15.148 16.1628L24 9.5881Z" fill="black" fill-opacity="0.2"/>
<path d="M24 9.5881V22.9501L15.148 16.1628L24 9.5881Z" fill="black" fill-opacity="0.2"/>
<path d="M24 9.5881V22.9501L15.148 16.1628L24 9.5881Z" fill="black" fill-opacity="0.2"/>
<path d="M24 9.5881V22.9501L15.148 16.1628L24 9.5881Z" fill="black" fill-opacity="0.2"/>
<path d="M24 9.5881V22.9501L15.148 16.1628L24 9.5881Z" fill="black" fill-opacity="0.2"/>
<path d="M0 22.9507V9.5881L8.83987 16.1538L0 22.9507Z" fill="black"/>
<path d="M0 22.9507V9.5881L8.83987 16.1538L0 22.9507Z" fill="black" fill-opacity="0.2"/>
<path d="M0 22.9507V9.5881L8.83987 16.1538L0 22.9507Z" fill="black" fill-opacity="0.2"/>
<path d="M0 22.9507V9.5881L8.83987 16.1538L0 22.9507Z" fill="black" fill-opacity="0.2"/>
<path d="M0 22.9507V9.5881L8.83987 16.1538L0 22.9507Z" fill="black" fill-opacity="0.2"/>
<path d="M0 22.9507V9.5881L8.83987 16.1538L0 22.9507Z" fill="black" fill-opacity="0.2"/>
<path d="M0 22.9507V9.5881L8.83987 16.1538L0 22.9507Z" fill="black" fill-opacity="0.2"/>
<path d="M0 22.9507V9.5881L8.83987 16.1538L0 22.9507Z" fill="black" fill-opacity="0.2"/>
<path d="M0 22.9507V9.5881L8.83987 16.1538L0 22.9507Z" fill="black" fill-opacity="0.2"/>
<path d="M0 22.9507V9.5881L8.83987 16.1538L0 22.9507Z" fill="black" fill-opacity="0.2"/>
<path d="M0.703138 6.42183H7.07579V8.24996C6.24817 8.478 5.66954 9.23269 5.66954 10.0854V10.0994C5.66954 11.1473 6.52215 12 7.57013 12H10.5938V12.4218C10.5938 13.1985 11.2233 13.8281 12 13.8281C12.7767 13.8281 13.4063 13.1985 13.4063 12.4218V12H16.4299C17.4779 12 18.3305 11.1473 18.3305 10.0994V10.0854C18.3305 9.23269 17.7518 8.47796 16.9234 8.2501L16.9239 6.42183H23.2969C23.6852 6.42183 24 6.73665 24 7.12496V7.83624L12 16.7491L1.35328e-05 7.83624V7.12496C1.35328e-05 6.73665 0.314826 6.42183 0.703138 6.42183Z" fill="black"/>
<path d="M0.703138 6.42183H7.07579V8.24996C6.24817 8.478 5.66954 9.23269 5.66954 10.0854V10.0994C5.66954 11.1473 6.52215 12 7.57013 12H10.5938V12.4218C10.5938 13.1985 11.2233 13.8281 12 13.8281C12.7767 13.8281 13.4063 13.1985 13.4063 12.4218V12H16.4299C17.4779 12 18.3305 11.1473 18.3305 10.0994V10.0854C18.3305 9.23269 17.7518 8.47796 16.9234 8.2501L16.9239 6.42183H23.2969C23.6852 6.42183 24 6.73665 24 7.12496V7.83624L12 16.7491L1.35328e-05 7.83624V7.12496C1.35328e-05 6.73665 0.314826 6.42183 0.703138 6.42183Z" fill="black" fill-opacity="0.2"/>
<path d="M0.703138 6.42183H7.07579V8.24996C6.24817 8.478 5.66954 9.23269 5.66954 10.0854V10.0994C5.66954 11.1473 6.52215 12 7.57013 12H10.5938V12.4218C10.5938 13.1985 11.2233 13.8281 12 13.8281C12.7767 13.8281 13.4063 13.1985 13.4063 12.4218V12H16.4299C17.4779 12 18.3305 11.1473 18.3305 10.0994V10.0854C18.3305 9.23269 17.7518 8.47796 16.9234 8.2501L16.9239 6.42183H23.2969C23.6852 6.42183 24 6.73665 24 7.12496V7.83624L12 16.7491L1.35328e-05 7.83624V7.12496C1.35328e-05 6.73665 0.314826 6.42183 0.703138 6.42183Z" fill="black" fill-opacity="0.2"/>
<path d="M0.703138 6.42183H7.07579V8.24996C6.24817 8.478 5.66954 9.23269 5.66954 10.0854V10.0994C5.66954 11.1473 6.52215 12 7.57013 12H10.5938V12.4218C10.5938 13.1985 11.2233 13.8281 12 13.8281C12.7767 13.8281 13.4063 13.1985 13.4063 12.4218V12H16.4299C17.4779 12 18.3305 11.1473 18.3305 10.0994V10.0854C18.3305 9.23269 17.7518 8.47796 16.9234 8.2501L16.9239 6.42183H23.2969C23.6852 6.42183 24 6.73665 24 7.12496V7.83624L12 16.7491L1.35328e-05 7.83624V7.12496C1.35328e-05 6.73665 0.314826 6.42183 0.703138 6.42183Z" fill="black" fill-opacity="0.2"/>
<path d="M0.703138 6.42183H7.07579V8.24996C6.24817 8.478 5.66954 9.23269 5.66954 10.0854V10.0994C5.66954 11.1473 6.52215 12 7.57013 12H10.5938V12.4218C10.5938 13.1985 11.2233 13.8281 12 13.8281C12.7767 13.8281 13.4063 13.1985 13.4063 12.4218V12H16.4299C17.4779 12 18.3305 11.1473 18.3305 10.0994V10.0854C18.3305 9.23269 17.7518 8.47796 16.9234 8.2501L16.9239 6.42183H23.2969C23.6852 6.42183 24 6.73665 24 7.12496V7.83624L12 16.7491L1.35328e-05 7.83624V7.12496C1.35328e-05 6.73665 0.314826 6.42183 0.703138 6.42183Z" fill="black" fill-opacity="0.2"/>
<path d="M0.703138 6.42183H7.07579V8.24996C6.24817 8.478 5.66954 9.23269 5.66954 10.0854V10.0994C5.66954 11.1473 6.52215 12 7.57013 12H10.5938V12.4218C10.5938 13.1985 11.2233 13.8281 12 13.8281C12.7767 13.8281 13.4063 13.1985 13.4063 12.4218V12H16.4299C17.4779 12 18.3305 11.1473 18.3305 10.0994V10.0854C18.3305 9.23269 17.7518 8.47796 16.9234 8.2501L16.9239 6.42183H23.2969C23.6852 6.42183 24 6.73665 24 7.12496V7.83624L12 16.7491L1.35328e-05 7.83624V7.12496C1.35328e-05 6.73665 0.314826 6.42183 0.703138 6.42183Z" fill="black" fill-opacity="0.2"/>
<path d="M0.703138 6.42183H7.07579V8.24996C6.24817 8.478 5.66954 9.23269 5.66954 10.0854V10.0994C5.66954 11.1473 6.52215 12 7.57013 12H10.5938V12.4218C10.5938 13.1985 11.2233 13.8281 12 13.8281C12.7767 13.8281 13.4063 13.1985 13.4063 12.4218V12H16.4299C17.4779 12 18.3305 11.1473 18.3305 10.0994V10.0854C18.3305 9.23269 17.7518 8.47796 16.9234 8.2501L16.9239 6.42183H23.2969C23.6852 6.42183 24 6.73665 24 7.12496V7.83624L12 16.7491L1.35328e-05 7.83624V7.12496C1.35328e-05 6.73665 0.314826 6.42183 0.703138 6.42183Z" fill="black" fill-opacity="0.2"/>
<path d="M0.703138 6.42183H7.07579V8.24996C6.24817 8.478 5.66954 9.23269 5.66954 10.0854V10.0994C5.66954 11.1473 6.52215 12 7.57013 12H10.5938V12.4218C10.5938 13.1985 11.2233 13.8281 12 13.8281C12.7767 13.8281 13.4063 13.1985 13.4063 12.4218V12H16.4299C17.4779 12 18.3305 11.1473 18.3305 10.0994V10.0854C18.3305 9.23269 17.7518 8.47796 16.9234 8.2501L16.9239 6.42183H23.2969C23.6852 6.42183 24 6.73665 24 7.12496V7.83624L12 16.7491L1.35328e-05 7.83624V7.12496C1.35328e-05 6.73665 0.314826 6.42183 0.703138 6.42183Z" fill="black" fill-opacity="0.2"/>
<path d="M0.703138 6.42183H7.07579V8.24996C6.24817 8.478 5.66954 9.23269 5.66954 10.0854V10.0994C5.66954 11.1473 6.52215 12 7.57013 12H10.5938V12.4218C10.5938 13.1985 11.2233 13.8281 12 13.8281C12.7767 13.8281 13.4063 13.1985 13.4063 12.4218V12H16.4299C17.4779 12 18.3305 11.1473 18.3305 10.0994V10.0854C18.3305 9.23269 17.7518 8.47796 16.9234 8.2501L16.9239 6.42183H23.2969C23.6852 6.42183 24 6.73665 24 7.12496V7.83624L12 16.7491L1.35328e-05 7.83624V7.12496C1.35328e-05 6.73665 0.314826 6.42183 0.703138 6.42183Z" fill="black" fill-opacity="0.2"/>
<path d="M0.703138 6.42183H7.07579V8.24996C6.24817 8.478 5.66954 9.23269 5.66954 10.0854V10.0994C5.66954 11.1473 6.52215 12 7.57013 12H10.5938V12.4218C10.5938 13.1985 11.2233 13.8281 12 13.8281C12.7767 13.8281 13.4063 13.1985 13.4063 12.4218V12H16.4299C17.4779 12 18.3305 11.1473 18.3305 10.0994V10.0854C18.3305 9.23269 17.7518 8.47796 16.9234 8.2501L16.9239 6.42183H23.2969C23.6852 6.42183 24 6.73665 24 7.12496V7.83624L12 16.7491L1.35328e-05 7.83624V7.12496C1.35328e-05 6.73665 0.314826 6.42183 0.703138 6.42183Z" fill="black" fill-opacity="0.2"/>
<path d="M11.5808 18.1895C11.8298 18.3744 12.1703 18.3743 12.4193 18.1895L13.974 17.0347L23.0583 24H0.942194L10.0133 17.0253L11.5808 18.1895Z" fill="black"/>
<path d="M11.5808 18.1895C11.8298 18.3744 12.1703 18.3743 12.4193 18.1895L13.974 17.0347L23.0583 24H0.942194L10.0133 17.0253L11.5808 18.1895Z" fill="black" fill-opacity="0.2"/>
<path d="M11.5808 18.1895C11.8298 18.3744 12.1703 18.3743 12.4193 18.1895L13.974 17.0347L23.0583 24H0.942194L10.0133 17.0253L11.5808 18.1895Z" fill="black" fill-opacity="0.2"/>
<path d="M11.5808 18.1895C11.8298 18.3744 12.1703 18.3743 12.4193 18.1895L13.974 17.0347L23.0583 24H0.942194L10.0133 17.0253L11.5808 18.1895Z" fill="black" fill-opacity="0.2"/>
<path d="M11.5808 18.1895C11.8298 18.3744 12.1703 18.3743 12.4193 18.1895L13.974 17.0347L23.0583 24H0.942194L10.0133 17.0253L11.5808 18.1895Z" fill="black" fill-opacity="0.2"/>
<path d="M11.5808 18.1895C11.8298 18.3744 12.1703 18.3743 12.4193 18.1895L13.974 17.0347L23.0583 24H0.942194L10.0133 17.0253L11.5808 18.1895Z" fill="black" fill-opacity="0.2"/>
<path d="M11.5808 18.1895C11.8298 18.3744 12.1703 18.3743 12.4193 18.1895L13.974 17.0347L23.0583 24H0.942194L10.0133 17.0253L11.5808 18.1895Z" fill="black" fill-opacity="0.2"/>
<path d="M11.5808 18.1895C11.8298 18.3744 12.1703 18.3743 12.4193 18.1895L13.974 17.0347L23.0583 24H0.942194L10.0133 17.0253L11.5808 18.1895Z" fill="black" fill-opacity="0.2"/>
<path d="M11.5808 18.1895C11.8298 18.3744 12.1703 18.3743 12.4193 18.1895L13.974 17.0347L23.0583 24H0.942194L10.0133 17.0253L11.5808 18.1895Z" fill="black" fill-opacity="0.2"/>
<path d="M11.5808 18.1895C11.8298 18.3744 12.1703 18.3743 12.4193 18.1895L13.974 17.0347L23.0583 24H0.942194L10.0133 17.0253L11.5808 18.1895Z" fill="black" fill-opacity="0.2"/>
<path d="M16.6466 1.98471C16.372 2.2593 15.9268 2.25935 15.6522 1.98471C15.3776 1.71012 15.3776 1.26494 15.6522 0.990351L16.4366 0.205945C16.7112 -0.0686484 17.1564 -0.0686484 17.431 0.205945C17.7056 0.480539 17.7056 0.92571 17.431 1.2003L16.6466 1.98471Z" fill="black"/>
<path d="M16.6466 1.98471C16.372 2.2593 15.9268 2.25935 15.6522 1.98471C15.3776 1.71012 15.3776 1.26494 15.6522 0.990351L16.4366 0.205945C16.7112 -0.0686484 17.1564 -0.0686484 17.431 0.205945C17.7056 0.480539 17.7056 0.92571 17.431 1.2003L16.6466 1.98471Z" fill="black" fill-opacity="0.2"/>
<path d="M16.6466 1.98471C16.372 2.2593 15.9268 2.25935 15.6522 1.98471C15.3776 1.71012 15.3776 1.26494 15.6522 0.990351L16.4366 0.205945C16.7112 -0.0686484 17.1564 -0.0686484 17.431 0.205945C17.7056 0.480539 17.7056 0.92571 17.431 1.2003L16.6466 1.98471Z" fill="black" fill-opacity="0.2"/>
<path d="M16.6466 1.98471C16.372 2.2593 15.9268 2.25935 15.6522 1.98471C15.3776 1.71012 15.3776 1.26494 15.6522 0.990351L16.4366 0.205945C16.7112 -0.0686484 17.1564 -0.0686484 17.431 0.205945C17.7056 0.480539 17.7056 0.92571 17.431 1.2003L16.6466 1.98471Z" fill="black" fill-opacity="0.2"/>
<path d="M16.6466 1.98471C16.372 2.2593 15.9268 2.25935 15.6522 1.98471C15.3776 1.71012 15.3776 1.26494 15.6522 0.990351L16.4366 0.205945C16.7112 -0.0686484 17.1564 -0.0686484 17.431 0.205945C17.7056 0.480539 17.7056 0.92571 17.431 1.2003L16.6466 1.98471Z" fill="black" fill-opacity="0.2"/>
<path d="M16.6466 1.98471C16.372 2.2593 15.9268 2.25935 15.6522 1.98471C15.3776 1.71012 15.3776 1.26494 15.6522 0.990351L16.4366 0.205945C16.7112 -0.0686484 17.1564 -0.0686484 17.431 0.205945C17.7056 0.480539 17.7056 0.92571 17.431 1.2003L16.6466 1.98471Z" fill="black" fill-opacity="0.2"/>
<path d="M16.6466 1.98471C16.372 2.2593 15.9268 2.25935 15.6522 1.98471C15.3776 1.71012 15.3776 1.26494 15.6522 0.990351L16.4366 0.205945C16.7112 -0.0686484 17.1564 -0.0686484 17.431 0.205945C17.7056 0.480539 17.7056 0.92571 17.431 1.2003L16.6466 1.98471Z" fill="black" fill-opacity="0.2"/>
<path d="M16.6466 1.98471C16.372 2.2593 15.9268 2.25935 15.6522 1.98471C15.3776 1.71012 15.3776 1.26494 15.6522 0.990351L16.4366 0.205945C16.7112 -0.0686484 17.1564 -0.0686484 17.431 0.205945C17.7056 0.480539 17.7056 0.92571 17.431 1.2003L16.6466 1.98471Z" fill="black" fill-opacity="0.2"/>
<path d="M16.6466 1.98471C16.372 2.2593 15.9268 2.25935 15.6522 1.98471C15.3776 1.71012 15.3776 1.26494 15.6522 0.990351L16.4366 0.205945C16.7112 -0.0686484 17.1564 -0.0686484 17.431 0.205945C17.7056 0.480539 17.7056 0.92571 17.431 1.2003L16.6466 1.98471Z" fill="black" fill-opacity="0.2"/>
<path d="M16.6466 1.98471C16.372 2.2593 15.9268 2.25935 15.6522 1.98471C15.3776 1.71012 15.3776 1.26494 15.6522 0.990351L16.4366 0.205945C16.7112 -0.0686484 17.1564 -0.0686484 17.431 0.205945C17.7056 0.480539 17.7056 0.92571 17.431 1.2003L16.6466 1.98471Z" fill="black" fill-opacity="0.2"/>
<path d="M7.35343 1.98471L6.56903 1.2003C6.29443 0.92571 6.29443 0.480539 6.56903 0.205945C6.84357 -0.0686484 7.28879 -0.0686484 7.56339 0.205945L8.34779 0.990351C8.62239 1.26494 8.62239 1.71012 8.34779 1.98471C8.07325 2.2593 7.62798 2.25935 7.35343 1.98471Z" fill="black"/>
<path d="M7.35343 1.98471L6.56903 1.2003C6.29443 0.92571 6.29443 0.480539 6.56903 0.205945C6.84357 -0.0686484 7.28879 -0.0686484 7.56339 0.205945L8.34779 0.990351C8.62239 1.26494 8.62239 1.71012 8.34779 1.98471C8.07325 2.2593 7.62798 2.25935 7.35343 1.98471Z" fill="black" fill-opacity="0.2"/>
<path d="M7.35343 1.98471L6.56903 1.2003C6.29443 0.92571 6.29443 0.480539 6.56903 0.205945C6.84357 -0.0686484 7.28879 -0.0686484 7.56339 0.205945L8.34779 0.990351C8.62239 1.26494 8.62239 1.71012 8.34779 1.98471C8.07325 2.2593 7.62798 2.25935 7.35343 1.98471Z" fill="black" fill-opacity="0.2"/>
<path d="M7.35343 1.98471L6.56903 1.2003C6.29443 0.92571 6.29443 0.480539 6.56903 0.205945C6.84357 -0.0686484 7.28879 -0.0686484 7.56339 0.205945L8.34779 0.990351C8.62239 1.26494 8.62239 1.71012 8.34779 1.98471C8.07325 2.2593 7.62798 2.25935 7.35343 1.98471Z" fill="black" fill-opacity="0.2"/>
<path d="M7.35343 1.98471L6.56903 1.2003C6.29443 0.92571 6.29443 0.480539 6.56903 0.205945C6.84357 -0.0686484 7.28879 -0.0686484 7.56339 0.205945L8.34779 0.990351C8.62239 1.26494 8.62239 1.71012 8.34779 1.98471C8.07325 2.2593 7.62798 2.25935 7.35343 1.98471Z" fill="black" fill-opacity="0.2"/>
<path d="M7.35343 1.98471L6.56903 1.2003C6.29443 0.92571 6.29443 0.480539 6.56903 0.205945C6.84357 -0.0686484 7.28879 -0.0686484 7.56339 0.205945L8.34779 0.990351C8.62239 1.26494 8.62239 1.71012 8.34779 1.98471C8.07325 2.2593 7.62798 2.25935 7.35343 1.98471Z" fill="black" fill-opacity="0.2"/>
<path d="M7.35343 1.98471L6.56903 1.2003C6.29443 0.92571 6.29443 0.480539 6.56903 0.205945C6.84357 -0.0686484 7.28879 -0.0686484 7.56339 0.205945L8.34779 0.990351C8.62239 1.26494 8.62239 1.71012 8.34779 1.98471C8.07325 2.2593 7.62798 2.25935 7.35343 1.98471Z" fill="black" fill-opacity="0.2"/>
<path d="M7.35343 1.98471L6.56903 1.2003C6.29443 0.92571 6.29443 0.480539 6.56903 0.205945C6.84357 -0.0686484 7.28879 -0.0686484 7.56339 0.205945L8.34779 0.990351C8.62239 1.26494 8.62239 1.71012 8.34779 1.98471C8.07325 2.2593 7.62798 2.25935 7.35343 1.98471Z" fill="black" fill-opacity="0.2"/>
<path d="M7.35343 1.98471L6.56903 1.2003C6.29443 0.92571 6.29443 0.480539 6.56903 0.205945C6.84357 -0.0686484 7.28879 -0.0686484 7.56339 0.205945L8.34779 0.990351C8.62239 1.26494 8.62239 1.71012 8.34779 1.98471C8.07325 2.2593 7.62798 2.25935 7.35343 1.98471Z" fill="black" fill-opacity="0.2"/>
<path d="M7.35343 1.98471L6.56903 1.2003C6.29443 0.92571 6.29443 0.480539 6.56903 0.205945C6.84357 -0.0686484 7.28879 -0.0686484 7.56339 0.205945L8.34779 0.990351C8.62239 1.26494 8.62239 1.71012 8.34779 1.98471C8.07325 2.2593 7.62798 2.25935 7.35343 1.98471Z" fill="black" fill-opacity="0.2"/>
<path d="M6.9935 4.30487C6.89333 4.67874 6.50858 4.9029 6.13236 4.80202L5.0608 4.51491C4.68571 4.41441 4.46314 4.02887 4.56364 3.65377C4.66414 3.27868 5.04964 3.05602 5.42478 3.15662L6.49635 3.44373C6.87139 3.54423 7.094 3.92973 6.9935 4.30487Z" fill="black"/>
<path d="M6.9935 4.30487C6.89333 4.67874 6.50858 4.9029 6.13236 4.80202L5.0608 4.51491C4.68571 4.41441 4.46314 4.02887 4.56364 3.65377C4.66414 3.27868 5.04964 3.05602 5.42478 3.15662L6.49635 3.44373C6.87139 3.54423 7.094 3.92973 6.9935 4.30487Z" fill="black" fill-opacity="0.2"/>
<path d="M6.9935 4.30487C6.89333 4.67874 6.50858 4.9029 6.13236 4.80202L5.0608 4.51491C4.68571 4.41441 4.46314 4.02887 4.56364 3.65377C4.66414 3.27868 5.04964 3.05602 5.42478 3.15662L6.49635 3.44373C6.87139 3.54423 7.094 3.92973 6.9935 4.30487Z" fill="black" fill-opacity="0.2"/>
<path d="M6.9935 4.30487C6.89333 4.67874 6.50858 4.9029 6.13236 4.80202L5.0608 4.51491C4.68571 4.41441 4.46314 4.02887 4.56364 3.65377C4.66414 3.27868 5.04964 3.05602 5.42478 3.15662L6.49635 3.44373C6.87139 3.54423 7.094 3.92973 6.9935 4.30487Z" fill="black" fill-opacity="0.2"/>
<path d="M6.9935 4.30487C6.89333 4.67874 6.50858 4.9029 6.13236 4.80202L5.0608 4.51491C4.68571 4.41441 4.46314 4.02887 4.56364 3.65377C4.66414 3.27868 5.04964 3.05602 5.42478 3.15662L6.49635 3.44373C6.87139 3.54423 7.094 3.92973 6.9935 4.30487Z" fill="black" fill-opacity="0.2"/>
<path d="M6.9935 4.30487C6.89333 4.67874 6.50858 4.9029 6.13236 4.80202L5.0608 4.51491C4.68571 4.41441 4.46314 4.02887 4.56364 3.65377C4.66414 3.27868 5.04964 3.05602 5.42478 3.15662L6.49635 3.44373C6.87139 3.54423 7.094 3.92973 6.9935 4.30487Z" fill="black" fill-opacity="0.2"/>
<path d="M6.9935 4.30487C6.89333 4.67874 6.50858 4.9029 6.13236 4.80202L5.0608 4.51491C4.68571 4.41441 4.46314 4.02887 4.56364 3.65377C4.66414 3.27868 5.04964 3.05602 5.42478 3.15662L6.49635 3.44373C6.87139 3.54423 7.094 3.92973 6.9935 4.30487Z" fill="black" fill-opacity="0.2"/>
<path d="M6.9935 4.30487C6.89333 4.67874 6.50858 4.9029 6.13236 4.80202L5.0608 4.51491C4.68571 4.41441 4.46314 4.02887 4.56364 3.65377C4.66414 3.27868 5.04964 3.05602 5.42478 3.15662L6.49635 3.44373C6.87139 3.54423 7.094 3.92973 6.9935 4.30487Z" fill="black" fill-opacity="0.2"/>
<path d="M6.9935 4.30487C6.89333 4.67874 6.50858 4.9029 6.13236 4.80202L5.0608 4.51491C4.68571 4.41441 4.46314 4.02887 4.56364 3.65377C4.66414 3.27868 5.04964 3.05602 5.42478 3.15662L6.49635 3.44373C6.87139 3.54423 7.094 3.92973 6.9935 4.30487Z" fill="black" fill-opacity="0.2"/>
<path d="M6.9935 4.30487C6.89333 4.67874 6.50858 4.9029 6.13236 4.80202L5.0608 4.51491C4.68571 4.41441 4.46314 4.02887 4.56364 3.65377C4.66414 3.27868 5.04964 3.05602 5.42478 3.15662L6.49635 3.44373C6.87139 3.54423 7.094 3.92973 6.9935 4.30487Z" fill="black" fill-opacity="0.2"/>
<path d="M18.9392 4.51491L17.8676 4.80202C17.4902 4.90318 17.1063 4.67762 17.0065 4.30487C16.906 3.92977 17.1285 3.54423 17.5036 3.44373L18.5752 3.15662C18.9504 3.05602 19.3359 3.27868 19.4363 3.65377C19.5368 4.02887 19.3143 4.41441 18.9392 4.51491Z" fill="black"/>
<path d="M18.9392 4.51491L17.8676 4.80202C17.4902 4.90318 17.1063 4.67762 17.0065 4.30487C16.906 3.92977 17.1285 3.54423 17.5036 3.44373L18.5752 3.15662C18.9504 3.05602 19.3359 3.27868 19.4363 3.65377C19.5368 4.02887 19.3143 4.41441 18.9392 4.51491Z" fill="black" fill-opacity="0.2"/>
<path d="M18.9392 4.51491L17.8676 4.80202C17.4902 4.90318 17.1063 4.67762 17.0065 4.30487C16.906 3.92977 17.1285 3.54423 17.5036 3.44373L18.5752 3.15662C18.9504 3.05602 19.3359 3.27868 19.4363 3.65377C19.5368 4.02887 19.3143 4.41441 18.9392 4.51491Z" fill="black" fill-opacity="0.2"/>
<path d="M18.9392 4.51491L17.8676 4.80202C17.4902 4.90318 17.1063 4.67762 17.0065 4.30487C16.906 3.92977 17.1285 3.54423 17.5036 3.44373L18.5752 3.15662C18.9504 3.05602 19.3359 3.27868 19.4363 3.65377C19.5368 4.02887 19.3143 4.41441 18.9392 4.51491Z" fill="black" fill-opacity="0.2"/>
<path d="M18.9392 4.51491L17.8676 4.80202C17.4902 4.90318 17.1063 4.67762 17.0065 4.30487C16.906 3.92977 17.1285 3.54423 17.5036 3.44373L18.5752 3.15662C18.9504 3.05602 19.3359 3.27868 19.4363 3.65377C19.5368 4.02887 19.3143 4.41441 18.9392 4.51491Z" fill="black" fill-opacity="0.2"/>
<path d="M18.9392 4.51491L17.8676 4.80202C17.4902 4.90318 17.1063 4.67762 17.0065 4.30487C16.906 3.92977 17.1285 3.54423 17.5036 3.44373L18.5752 3.15662C18.9504 3.05602 19.3359 3.27868 19.4363 3.65377C19.5368 4.02887 19.3143 4.41441 18.9392 4.51491Z" fill="black" fill-opacity="0.2"/>
<path d="M18.9392 4.51491L17.8676 4.80202C17.4902 4.90318 17.1063 4.67762 17.0065 4.30487C16.906 3.92977 17.1285 3.54423 17.5036 3.44373L18.5752 3.15662C18.9504 3.05602 19.3359 3.27868 19.4363 3.65377C19.5368 4.02887 19.3143 4.41441 18.9392 4.51491Z" fill="black" fill-opacity="0.2"/>
<path d="M18.9392 4.51491L17.8676 4.80202C17.4902 4.90318 17.1063 4.67762 17.0065 4.30487C16.906 3.92977 17.1285 3.54423 17.5036 3.44373L18.5752 3.15662C18.9504 3.05602 19.3359 3.27868 19.4363 3.65377C19.5368 4.02887 19.3143 4.41441 18.9392 4.51491Z" fill="black" fill-opacity="0.2"/>
<path d="M18.9392 4.51491L17.8676 4.80202C17.4902 4.90318 17.1063 4.67762 17.0065 4.30487C16.906 3.92977 17.1285 3.54423 17.5036 3.44373L18.5752 3.15662C18.9504 3.05602 19.3359 3.27868 19.4363 3.65377C19.5368 4.02887 19.3143 4.41441 18.9392 4.51491Z" fill="black" fill-opacity="0.2"/>
<path d="M18.9392 4.51491L17.8676 4.80202C17.4902 4.90318 17.1063 4.67762 17.0065 4.30487C16.906 3.92977 17.1285 3.54423 17.5036 3.44373L18.5752 3.15662C18.9504 3.05602 19.3359 3.27868 19.4363 3.65377C19.5368 4.02887 19.3143 4.41441 18.9392 4.51491Z" fill="black" fill-opacity="0.2"/>
<path d="M15.518 5.62734V8.24999C15.518 8.8972 15.9552 9.44231 16.5504 9.60599C17.1134 9.76087 17.014 10.5937 16.4299 10.5937H7.57012C7.29712 10.5937 7.07578 10.3724 7.07578 10.0994C7.07747 10.0947 7.06078 9.71296 7.4496 9.60599C8.04478 9.44231 8.48203 8.8972 8.48203 8.24999V5.62734C8.48203 3.92522 9.69089 2.50561 11.2969 2.17983V0.703124C11.2969 0.314812 11.6117 0 12 0C12.3883 0 12.7031 0.314812 12.7031 0.703124V2.17978C14.3091 2.50561 15.518 3.92526 15.518 5.62734Z" fill="black"/>
<path d="M15.518 5.62734V8.24999C15.518 8.8972 15.9552 9.44231 16.5504 9.60599C17.1134 9.76087 17.014 10.5937 16.4299 10.5937H7.57012C7.29712 10.5937 7.07578 10.3724 7.07578 10.0994C7.07747 10.0947 7.06078 9.71296 7.4496 9.60599C8.04478 9.44231 8.48203 8.8972 8.48203 8.24999V5.62734C8.48203 3.92522 9.69089 2.50561 11.2969 2.17983V0.703124C11.2969 0.314812 11.6117 0 12 0C12.3883 0 12.7031 0.314812 12.7031 0.703124V2.17978C14.3091 2.50561 15.518 3.92526 15.518 5.62734Z" fill="black" fill-opacity="0.2"/>
<path d="M15.518 5.62734V8.24999C15.518 8.8972 15.9552 9.44231 16.5504 9.60599C17.1134 9.76087 17.014 10.5937 16.4299 10.5937H7.57012C7.29712 10.5937 7.07578 10.3724 7.07578 10.0994C7.07747 10.0947 7.06078 9.71296 7.4496 9.60599C8.04478 9.44231 8.48203 8.8972 8.48203 8.24999V5.62734C8.48203 3.92522 9.69089 2.50561 11.2969 2.17983V0.703124C11.2969 0.314812 11.6117 0 12 0C12.3883 0 12.7031 0.314812 12.7031 0.703124V2.17978C14.3091 2.50561 15.518 3.92526 15.518 5.62734Z" fill="black" fill-opacity="0.2"/>
<path d="M15.518 5.62734V8.24999C15.518 8.8972 15.9552 9.44231 16.5504 9.60599C17.1134 9.76087 17.014 10.5937 16.4299 10.5937H7.57012C7.29712 10.5937 7.07578 10.3724 7.07578 10.0994C7.07747 10.0947 7.06078 9.71296 7.4496 9.60599C8.04478 9.44231 8.48203 8.8972 8.48203 8.24999V5.62734C8.48203 3.92522 9.69089 2.50561 11.2969 2.17983V0.703124C11.2969 0.314812 11.6117 0 12 0C12.3883 0 12.7031 0.314812 12.7031 0.703124V2.17978C14.3091 2.50561 15.518 3.92526 15.518 5.62734Z" fill="black" fill-opacity="0.2"/>
<path d="M15.518 5.62734V8.24999C15.518 8.8972 15.9552 9.44231 16.5504 9.60599C17.1134 9.76087 17.014 10.5937 16.4299 10.5937H7.57012C7.29712 10.5937 7.07578 10.3724 7.07578 10.0994C7.07747 10.0947 7.06078 9.71296 7.4496 9.60599C8.04478 9.44231 8.48203 8.8972 8.48203 8.24999V5.62734C8.48203 3.92522 9.69089 2.50561 11.2969 2.17983V0.703124C11.2969 0.314812 11.6117 0 12 0C12.3883 0 12.7031 0.314812 12.7031 0.703124V2.17978C14.3091 2.50561 15.518 3.92526 15.518 5.62734Z" fill="black" fill-opacity="0.2"/>
<path d="M15.518 5.62734V8.24999C15.518 8.8972 15.9552 9.44231 16.5504 9.60599C17.1134 9.76087 17.014 10.5937 16.4299 10.5937H7.57012C7.29712 10.5937 7.07578 10.3724 7.07578 10.0994C7.07747 10.0947 7.06078 9.71296 7.4496 9.60599C8.04478 9.44231 8.48203 8.8972 8.48203 8.24999V5.62734C8.48203 3.92522 9.69089 2.50561 11.2969 2.17983V0.703124C11.2969 0.314812 11.6117 0 12 0C12.3883 0 12.7031 0.314812 12.7031 0.703124V2.17978C14.3091 2.50561 15.518 3.92526 15.518 5.62734Z" fill="black" fill-opacity="0.2"/>
<path d="M15.518 5.62734V8.24999C15.518 8.8972 15.9552 9.44231 16.5504 9.60599C17.1134 9.76087 17.014 10.5937 16.4299 10.5937H7.57012C7.29712 10.5937 7.07578 10.3724 7.07578 10.0994C7.07747 10.0947 7.06078 9.71296 7.4496 9.60599C8.04478 9.44231 8.48203 8.8972 8.48203 8.24999V5.62734C8.48203 3.92522 9.69089 2.50561 11.2969 2.17983V0.703124C11.2969 0.314812 11.6117 0 12 0C12.3883 0 12.7031 0.314812 12.7031 0.703124V2.17978C14.3091 2.50561 15.518 3.92526 15.518 5.62734Z" fill="black" fill-opacity="0.2"/>
<path d="M15.518 5.62734V8.24999C15.518 8.8972 15.9552 9.44231 16.5504 9.60599C17.1134 9.76087 17.014 10.5937 16.4299 10.5937H7.57012C7.29712 10.5937 7.07578 10.3724 7.07578 10.0994C7.07747 10.0947 7.06078 9.71296 7.4496 9.60599C8.04478 9.44231 8.48203 8.8972 8.48203 8.24999V5.62734C8.48203 3.92522 9.69089 2.50561 11.2969 2.17983V0.703124C11.2969 0.314812 11.6117 0 12 0C12.3883 0 12.7031 0.314812 12.7031 0.703124V2.17978C14.3091 2.50561 15.518 3.92526 15.518 5.62734Z" fill="black" fill-opacity="0.2"/>
<path d="M15.518 5.62734V8.24999C15.518 8.8972 15.9552 9.44231 16.5504 9.60599C17.1134 9.76087 17.014 10.5937 16.4299 10.5937H7.57012C7.29712 10.5937 7.07578 10.3724 7.07578 10.0994C7.07747 10.0947 7.06078 9.71296 7.4496 9.60599C8.04478 9.44231 8.48203 8.8972 8.48203 8.24999V5.62734C8.48203 3.92522 9.69089 2.50561 11.2969 2.17983V0.703124C11.2969 0.314812 11.6117 0 12 0C12.3883 0 12.7031 0.314812 12.7031 0.703124V2.17978C14.3091 2.50561 15.518 3.92526 15.518 5.62734Z" fill="black" fill-opacity="0.2"/>
<path d="M15.518 5.62734V8.24999C15.518 8.8972 15.9552 9.44231 16.5504 9.60599C17.1134 9.76087 17.014 10.5937 16.4299 10.5937H7.57012C7.29712 10.5937 7.07578 10.3724 7.07578 10.0994C7.07747 10.0947 7.06078 9.71296 7.4496 9.60599C8.04478 9.44231 8.48203 8.8972 8.48203 8.24999V5.62734C8.48203 3.92522 9.69089 2.50561 11.2969 2.17983V0.703124C11.2969 0.314812 11.6117 0 12 0C12.3883 0 12.7031 0.314812 12.7031 0.703124V2.17978C14.3091 2.50561 15.518 3.92526 15.518 5.62734Z" fill="black" fill-opacity="0.2"/>
</g>
<defs>
<clipPath id="clip0_693_5797">
<rect width="24" height="24" fill="white"/>
</clipPath>
</defs>
</svg>
