<svg width="24" height="24" viewBox="0 0 24 24" fill="none" xmlns="http://www.w3.org/2000/svg">
<path fill-rule="evenodd" clip-rule="evenodd" d="M1.875 3H22.125C22.6223 3 23.0992 3.18964 23.4508 3.52721C23.8025 3.86477 24 4.32261 24 4.8C24 5.27739 23.8025 5.73523 23.4508 6.07279C23.0992 6.41036 22.6223 6.6 22.125 6.6H1.875C1.37772 6.6 0.900805 6.41036 0.549175 6.07279C0.197544 5.73523 0 5.27739 0 4.8C0 4.32261 0.197544 3.86477 0.549175 3.52721C0.900805 3.18964 1.37772 3 1.875 3ZM22.125 10.2H1.875C0.839466 10.2 0 11.0058 0 12C0 12.9941 0.839466 13.8 1.875 13.8H22.125C23.1605 13.8 24 12.9941 24 12C24 11.0058 23.1605 10.2 22.125 10.2ZM1.875 17.3999H22.125C23.1605 17.3999 24 18.2058 24 19.1999C24 20.194 23.1605 20.9999 22.125 20.9999H1.875C0.839466 20.9999 0 20.194 0 19.1999C0 18.2058 0.839466 17.3999 1.875 17.3999Z" fill="black"/>
<path fill-rule="evenodd" clip-rule="evenodd" d="M1.875 3H22.125C22.6223 3 23.0992 3.18964 23.4508 3.52721C23.8025 3.86477 24 4.32261 24 4.8C24 5.27739 23.8025 5.73523 23.4508 6.07279C23.0992 6.41036 22.6223 6.6 22.125 6.6H1.875C1.37772 6.6 0.900805 6.41036 0.549175 6.07279C0.197544 5.73523 0 5.27739 0 4.8C0 4.32261 0.197544 3.86477 0.549175 3.52721C0.900805 3.18964 1.37772 3 1.875 3ZM22.125 10.2H1.875C0.839466 10.2 0 11.0058 0 12C0 12.9941 0.839466 13.8 1.875 13.8H22.125C23.1605 13.8 24 12.9941 24 12C24 11.0058 23.1605 10.2 22.125 10.2ZM1.875 17.3999H22.125C23.1605 17.3999 24 18.2058 24 19.1999C24 20.194 23.1605 20.9999 22.125 20.9999H1.875C0.839466 20.9999 0 20.194 0 19.1999C0 18.2058 0.839466 17.3999 1.875 17.3999Z" fill="black" fill-opacity="0.2"/>
<path fill-rule="evenodd" clip-rule="evenodd" d="M1.875 3H22.125C22.6223 3 23.0992 3.18964 23.4508 3.52721C23.8025 3.86477 24 4.32261 24 4.8C24 5.27739 23.8025 5.73523 23.4508 6.07279C23.0992 6.41036 22.6223 6.6 22.125 6.6H1.875C1.37772 6.6 0.900805 6.41036 0.549175 6.07279C0.197544 5.73523 0 5.27739 0 4.8C0 4.32261 0.197544 3.86477 0.549175 3.52721C0.900805 3.18964 1.37772 3 1.875 3ZM22.125 10.2H1.875C0.839466 10.2 0 11.0058 0 12C0 12.9941 0.839466 13.8 1.875 13.8H22.125C23.1605 13.8 24 12.9941 24 12C24 11.0058 23.1605 10.2 22.125 10.2ZM1.875 17.3999H22.125C23.1605 17.3999 24 18.2058 24 19.1999C24 20.194 23.1605 20.9999 22.125 20.9999H1.875C0.839466 20.9999 0 20.194 0 19.1999C0 18.2058 0.839466 17.3999 1.875 17.3999Z" fill="black" fill-opacity="0.2"/>
<path fill-rule="evenodd" clip-rule="evenodd" d="M1.875 3H22.125C22.6223 3 23.0992 3.18964 23.4508 3.52721C23.8025 3.86477 24 4.32261 24 4.8C24 5.27739 23.8025 5.73523 23.4508 6.07279C23.0992 6.41036 22.6223 6.6 22.125 6.6H1.875C1.37772 6.6 0.900805 6.41036 0.549175 6.07279C0.197544 5.73523 0 5.27739 0 4.8C0 4.32261 0.197544 3.86477 0.549175 3.52721C0.900805 3.18964 1.37772 3 1.875 3ZM22.125 10.2H1.875C0.839466 10.2 0 11.0058 0 12C0 12.9941 0.839466 13.8 1.875 13.8H22.125C23.1605 13.8 24 12.9941 24 12C24 11.0058 23.1605 10.2 22.125 10.2ZM1.875 17.3999H22.125C23.1605 17.3999 24 18.2058 24 19.1999C24 20.194 23.1605 20.9999 22.125 20.9999H1.875C0.839466 20.9999 0 20.194 0 19.1999C0 18.2058 0.839466 17.3999 1.875 17.3999Z" fill="black" fill-opacity="0.2"/>
<path fill-rule="evenodd" clip-rule="evenodd" d="M1.875 3H22.125C22.6223 3 23.0992 3.18964 23.4508 3.52721C23.8025 3.86477 24 4.32261 24 4.8C24 5.27739 23.8025 5.73523 23.4508 6.07279C23.0992 6.41036 22.6223 6.6 22.125 6.6H1.875C1.37772 6.6 0.900805 6.41036 0.549175 6.07279C0.197544 5.73523 0 5.27739 0 4.8C0 4.32261 0.197544 3.86477 0.549175 3.52721C0.900805 3.18964 1.37772 3 1.875 3ZM22.125 10.2H1.875C0.839466 10.2 0 11.0058 0 12C0 12.9941 0.839466 13.8 1.875 13.8H22.125C23.1605 13.8 24 12.9941 24 12C24 11.0058 23.1605 10.2 22.125 10.2ZM1.875 17.3999H22.125C23.1605 17.3999 24 18.2058 24 19.1999C24 20.194 23.1605 20.9999 22.125 20.9999H1.875C0.839466 20.9999 0 20.194 0 19.1999C0 18.2058 0.839466 17.3999 1.875 17.3999Z" fill="black" fill-opacity="0.2"/>
<path fill-rule="evenodd" clip-rule="evenodd" d="M1.875 3H22.125C22.6223 3 23.0992 3.18964 23.4508 3.52721C23.8025 3.86477 24 4.32261 24 4.8C24 5.27739 23.8025 5.73523 23.4508 6.07279C23.0992 6.41036 22.6223 6.6 22.125 6.6H1.875C1.37772 6.6 0.900805 6.41036 0.549175 6.07279C0.197544 5.73523 0 5.27739 0 4.8C0 4.32261 0.197544 3.86477 0.549175 3.52721C0.900805 3.18964 1.37772 3 1.875 3ZM22.125 10.2H1.875C0.839466 10.2 0 11.0058 0 12C0 12.9941 0.839466 13.8 1.875 13.8H22.125C23.1605 13.8 24 12.9941 24 12C24 11.0058 23.1605 10.2 22.125 10.2ZM1.875 17.3999H22.125C23.1605 17.3999 24 18.2058 24 19.1999C24 20.194 23.1605 20.9999 22.125 20.9999H1.875C0.839466 20.9999 0 20.194 0 19.1999C0 18.2058 0.839466 17.3999 1.875 17.3999Z" fill="black" fill-opacity="0.2"/>
<path fill-rule="evenodd" clip-rule="evenodd" d="M1.875 3H22.125C22.6223 3 23.0992 3.18964 23.4508 3.52721C23.8025 3.86477 24 4.32261 24 4.8C24 5.27739 23.8025 5.73523 23.4508 6.07279C23.0992 6.41036 22.6223 6.6 22.125 6.6H1.875C1.37772 6.6 0.900805 6.41036 0.549175 6.07279C0.197544 5.73523 0 5.27739 0 4.8C0 4.32261 0.197544 3.86477 0.549175 3.52721C0.900805 3.18964 1.37772 3 1.875 3ZM22.125 10.2H1.875C0.839466 10.2 0 11.0058 0 12C0 12.9941 0.839466 13.8 1.875 13.8H22.125C23.1605 13.8 24 12.9941 24 12C24 11.0058 23.1605 10.2 22.125 10.2ZM1.875 17.3999H22.125C23.1605 17.3999 24 18.2058 24 19.1999C24 20.194 23.1605 20.9999 22.125 20.9999H1.875C0.839466 20.9999 0 20.194 0 19.1999C0 18.2058 0.839466 17.3999 1.875 17.3999Z" fill="black" fill-opacity="0.2"/>
<path fill-rule="evenodd" clip-rule="evenodd" d="M1.875 3H22.125C22.6223 3 23.0992 3.18964 23.4508 3.52721C23.8025 3.86477 24 4.32261 24 4.8C24 5.27739 23.8025 5.73523 23.4508 6.07279C23.0992 6.41036 22.6223 6.6 22.125 6.6H1.875C1.37772 6.6 0.900805 6.41036 0.549175 6.07279C0.197544 5.73523 0 5.27739 0 4.8C0 4.32261 0.197544 3.86477 0.549175 3.52721C0.900805 3.18964 1.37772 3 1.875 3ZM22.125 10.2H1.875C0.839466 10.2 0 11.0058 0 12C0 12.9941 0.839466 13.8 1.875 13.8H22.125C23.1605 13.8 24 12.9941 24 12C24 11.0058 23.1605 10.2 22.125 10.2ZM1.875 17.3999H22.125C23.1605 17.3999 24 18.2058 24 19.1999C24 20.194 23.1605 20.9999 22.125 20.9999H1.875C0.839466 20.9999 0 20.194 0 19.1999C0 18.2058 0.839466 17.3999 1.875 17.3999Z" fill="black" fill-opacity="0.2"/>
<path fill-rule="evenodd" clip-rule="evenodd" d="M1.875 3H22.125C22.6223 3 23.0992 3.18964 23.4508 3.52721C23.8025 3.86477 24 4.32261 24 4.8C24 5.27739 23.8025 5.73523 23.4508 6.07279C23.0992 6.41036 22.6223 6.6 22.125 6.6H1.875C1.37772 6.6 0.900805 6.41036 0.549175 6.07279C0.197544 5.73523 0 5.27739 0 4.8C0 4.32261 0.197544 3.86477 0.549175 3.52721C0.900805 3.18964 1.37772 3 1.875 3ZM22.125 10.2H1.875C0.839466 10.2 0 11.0058 0 12C0 12.9941 0.839466 13.8 1.875 13.8H22.125C23.1605 13.8 24 12.9941 24 12C24 11.0058 23.1605 10.2 22.125 10.2ZM1.875 17.3999H22.125C23.1605 17.3999 24 18.2058 24 19.1999C24 20.194 23.1605 20.9999 22.125 20.9999H1.875C0.839466 20.9999 0 20.194 0 19.1999C0 18.2058 0.839466 17.3999 1.875 17.3999Z" fill="black" fill-opacity="0.2"/>
<path fill-rule="evenodd" clip-rule="evenodd" d="M1.875 3H22.125C22.6223 3 23.0992 3.18964 23.4508 3.52721C23.8025 3.86477 24 4.32261 24 4.8C24 5.27739 23.8025 5.73523 23.4508 6.07279C23.0992 6.41036 22.6223 6.6 22.125 6.6H1.875C1.37772 6.6 0.900805 6.41036 0.549175 6.07279C0.197544 5.73523 0 5.27739 0 4.8C0 4.32261 0.197544 3.86477 0.549175 3.52721C0.900805 3.18964 1.37772 3 1.875 3ZM22.125 10.2H1.875C0.839466 10.2 0 11.0058 0 12C0 12.9941 0.839466 13.8 1.875 13.8H22.125C23.1605 13.8 24 12.9941 24 12C24 11.0058 23.1605 10.2 22.125 10.2ZM1.875 17.3999H22.125C23.1605 17.3999 24 18.2058 24 19.1999C24 20.194 23.1605 20.9999 22.125 20.9999H1.875C0.839466 20.9999 0 20.194 0 19.1999C0 18.2058 0.839466 17.3999 1.875 17.3999Z" fill="black" fill-opacity="0.2"/>
</svg>
