<svg width="16" height="16" viewBox="0 0 16 16" fill="none" xmlns="http://www.w3.org/2000/svg">
<path fill-rule="evenodd" clip-rule="evenodd" d="M1.77081 4.93145C2.06679 4.30071 2.46726 3.72454 2.95528 3.22728C4.21337 1.89709 5.93559 1.10274 7.76411 1.00929C9.59263 0.915833 11.3869 1.53045 12.774 2.72545C12.8813 2.81756 12.9074 2.87118 12.7912 2.9853C12.1938 3.57031 11.6054 4.16564 11.0135 4.75684C10.953 4.81733 10.9117 4.89433 10.8072 4.79258C10.0381 4.12495 9.04784 3.76769 8.02959 3.79044C7.01133 3.81319 6.03804 4.21432 5.29946 4.91564C4.76434 5.41372 4.3571 6.03341 4.11224 6.72223C4.07512 6.69817 4.03662 6.67618 4.00156 6.64937L1.77081 4.93145Z" fill="#D7282A"/>
<path fill-rule="evenodd" clip-rule="evenodd" d="M4.09361 9.51189C4.29175 10.0581 4.58784 10.5636 4.96735 11.0036C5.42195 11.5345 6.00189 11.9436 6.65457 12.1936C7.30724 12.4437 8.01202 12.5268 8.70498 12.4356C9.38491 12.3608 10.039 12.1328 10.6181 11.7688C10.6745 11.8196 10.7288 11.8733 10.7879 11.92C11.4777 12.4585 12.1681 12.9965 12.8592 13.5341C12.1108 14.2451 11.1897 14.7484 10.1871 14.9942C9.07237 15.3187 7.8956 15.3683 6.75754 15.1387C5.61947 14.909 4.55398 14.4071 3.65228 13.6757C2.84978 13.0467 2.2033 12.241 1.76318 11.3212L4.09361 9.51189Z" fill="#45AC43"/>
<path fill-rule="evenodd" clip-rule="evenodd" d="M12.8572 13.5332C12.1666 12.9952 11.4761 12.4571 10.786 11.9191C10.7261 11.8723 10.6725 11.8187 10.6161 11.7678C11.0877 11.4254 11.4697 10.9743 11.7298 10.4528C11.8275 10.238 11.9084 10.016 11.9718 9.7887C12.0185 9.63265 12.0041 9.57215 11.8109 9.57353C10.6615 9.58315 9.51212 9.57834 8.36271 9.57834C8.11936 9.57834 8.11935 9.57834 8.11935 9.32674C8.11935 8.54787 8.12279 7.7683 8.11935 6.98943C8.11935 6.83888 8.14411 6.7832 8.31322 6.7832C10.4333 6.78916 12.5534 6.78916 14.6734 6.7832C14.7876 6.7832 14.8597 6.79145 14.8797 6.931C15.2004 8.73855 14.8753 10.6013 13.9612 12.1934C13.6701 12.6981 13.297 13.1509 12.8572 13.5332Z" fill="#5D7FBE"/>
<path fill-rule="evenodd" clip-rule="evenodd" d="M4.09505 9.51178L1.76531 11.3204C1.39552 10.6194 1.15806 9.85617 1.0648 9.06906C0.881537 7.7266 1.08894 6.35976 1.66219 5.13208C1.69381 5.06334 1.73437 4.99803 1.77081 4.93135L4.00156 6.64996C4.03662 6.67677 4.07511 6.69808 4.11223 6.72283C3.81176 7.62728 3.80575 8.6037 4.09505 9.51178Z" fill="#F4C300"/>
</svg>
