<svg width="24" height="24" viewBox="0 0 24 24" fill="none" xmlns="http://www.w3.org/2000/svg">
<g clip-path="url(#clip0_414_2755)">
<path fill-rule="evenodd" clip-rule="evenodd" d="M5.33314 2.02237C7.30653 0.70379 9.62664 0 12 0C13.5761 -0.000865758 15.137 0.308932 16.5933 0.911681C18.0496 1.51443 19.3728 2.39831 20.4873 3.51279C21.6017 4.62727 22.4856 5.95048 23.0884 7.40678C23.6911 8.86308 24.0009 10.4239 24 12C24 14.3734 23.2962 16.6935 21.9777 18.6669C20.6591 20.6403 18.7849 22.1783 16.5922 23.0866C14.3995 23.9948 11.9867 24.2325 9.6589 23.7694C7.33112 23.3064 5.19299 22.1635 3.51475 20.4853C1.83652 18.8071 0.693595 16.6689 0.230572 14.3411C-0.232451 12.0133 0.00522995 9.60052 0.913482 7.40781C1.82173 5.21509 3.35975 3.34095 5.33314 2.02237ZM6.37486 20.4186C8.03991 21.5312 9.99748 22.125 12 22.125C13.3299 22.1258 14.6468 21.8645 15.8756 21.3559C17.1044 20.8474 18.2208 20.1016 19.1612 19.1612C20.1016 18.2209 20.8474 17.1044 21.3559 15.8756C21.8645 14.6468 22.1258 13.3299 22.125 12C22.125 9.99748 21.5312 8.03991 20.4186 6.37486C19.3061 4.70981 17.7248 3.41206 15.8747 2.64572C14.0246 1.87939 11.9888 1.67888 10.0247 2.06955C8.06068 2.46023 6.25659 3.42454 4.84058 4.84055C3.42458 6.25656 2.46021 8.06066 2.06954 10.0247C1.67886 11.9888 1.8794 14.0246 2.64573 15.8747C3.41207 17.7248 4.70981 19.3061 6.37486 20.4186ZM13.3266 12.0003L16.1063 14.7801C16.2822 14.9559 16.381 15.1944 16.381 15.4431C16.381 15.6917 16.2822 15.9302 16.1063 16.1061C15.9305 16.2819 15.692 16.3807 15.4433 16.3807C15.1947 16.3807 14.9562 16.2819 14.7804 16.1061L12.0006 13.3263L9.22075 16.1061C9.04491 16.2819 8.80644 16.3807 8.55776 16.3807C8.30909 16.3807 8.07061 16.2819 7.89478 16.1061C7.71894 15.9302 7.62012 15.6917 7.62012 15.4431C7.62012 15.1944 7.71894 14.9559 7.89478 14.7801L10.6745 12.0003L7.89478 9.22045C7.80771 9.13339 7.73865 9.03002 7.69153 8.91626C7.64441 8.8025 7.62012 8.68058 7.62012 8.55745C7.62012 8.43432 7.64441 8.31239 7.69153 8.19863C7.73865 8.08488 7.80771 7.98152 7.89478 7.89445C7.98184 7.80738 8.08519 7.73832 8.19895 7.6912C8.31271 7.64408 8.43463 7.61983 8.55776 7.61983C8.68089 7.61983 8.80282 7.64408 8.91658 7.6912C9.03034 7.73832 9.13369 7.80738 9.22075 7.89445L12.0006 10.6742L14.7804 7.89445C14.8674 7.80738 14.9708 7.73832 15.0845 7.6912C15.1983 7.64408 15.3202 7.61983 15.4433 7.61983C15.5665 7.61983 15.6884 7.64408 15.8022 7.6912C15.9159 7.73832 16.0193 7.80738 16.1063 7.89445C16.1934 7.98152 16.2625 8.08488 16.3096 8.19863C16.3567 8.31239 16.381 8.43432 16.381 8.55745C16.381 8.68058 16.3567 8.8025 16.3096 8.91626C16.2625 9.03002 16.1934 9.13339 16.1063 9.22045L13.3266 12.0003Z" fill="black"/>
<path fill-rule="evenodd" clip-rule="evenodd" d="M5.33314 2.02237C7.30653 0.70379 9.62664 0 12 0C13.5761 -0.000865758 15.137 0.308932 16.5933 0.911681C18.0496 1.51443 19.3728 2.39831 20.4873 3.51279C21.6017 4.62727 22.4856 5.95048 23.0884 7.40678C23.6911 8.86308 24.0009 10.4239 24 12C24 14.3734 23.2962 16.6935 21.9777 18.6669C20.6591 20.6403 18.7849 22.1783 16.5922 23.0866C14.3995 23.9948 11.9867 24.2325 9.6589 23.7694C7.33112 23.3064 5.19299 22.1635 3.51475 20.4853C1.83652 18.8071 0.693595 16.6689 0.230572 14.3411C-0.232451 12.0133 0.00522995 9.60052 0.913482 7.40781C1.82173 5.21509 3.35975 3.34095 5.33314 2.02237ZM6.37486 20.4186C8.03991 21.5312 9.99748 22.125 12 22.125C13.3299 22.1258 14.6468 21.8645 15.8756 21.3559C17.1044 20.8474 18.2208 20.1016 19.1612 19.1612C20.1016 18.2209 20.8474 17.1044 21.3559 15.8756C21.8645 14.6468 22.1258 13.3299 22.125 12C22.125 9.99748 21.5312 8.03991 20.4186 6.37486C19.3061 4.70981 17.7248 3.41206 15.8747 2.64572C14.0246 1.87939 11.9888 1.67888 10.0247 2.06955C8.06068 2.46023 6.25659 3.42454 4.84058 4.84055C3.42458 6.25656 2.46021 8.06066 2.06954 10.0247C1.67886 11.9888 1.8794 14.0246 2.64573 15.8747C3.41207 17.7248 4.70981 19.3061 6.37486 20.4186ZM13.3266 12.0003L16.1063 14.7801C16.2822 14.9559 16.381 15.1944 16.381 15.4431C16.381 15.6917 16.2822 15.9302 16.1063 16.1061C15.9305 16.2819 15.692 16.3807 15.4433 16.3807C15.1947 16.3807 14.9562 16.2819 14.7804 16.1061L12.0006 13.3263L9.22075 16.1061C9.04491 16.2819 8.80644 16.3807 8.55776 16.3807C8.30909 16.3807 8.07061 16.2819 7.89478 16.1061C7.71894 15.9302 7.62012 15.6917 7.62012 15.4431C7.62012 15.1944 7.71894 14.9559 7.89478 14.7801L10.6745 12.0003L7.89478 9.22045C7.80771 9.13339 7.73865 9.03002 7.69153 8.91626C7.64441 8.8025 7.62012 8.68058 7.62012 8.55745C7.62012 8.43432 7.64441 8.31239 7.69153 8.19863C7.73865 8.08488 7.80771 7.98152 7.89478 7.89445C7.98184 7.80738 8.08519 7.73832 8.19895 7.6912C8.31271 7.64408 8.43463 7.61983 8.55776 7.61983C8.68089 7.61983 8.80282 7.64408 8.91658 7.6912C9.03034 7.73832 9.13369 7.80738 9.22075 7.89445L12.0006 10.6742L14.7804 7.89445C14.8674 7.80738 14.9708 7.73832 15.0845 7.6912C15.1983 7.64408 15.3202 7.61983 15.4433 7.61983C15.5665 7.61983 15.6884 7.64408 15.8022 7.6912C15.9159 7.73832 16.0193 7.80738 16.1063 7.89445C16.1934 7.98152 16.2625 8.08488 16.3096 8.19863C16.3567 8.31239 16.381 8.43432 16.381 8.55745C16.381 8.68058 16.3567 8.8025 16.3096 8.91626C16.2625 9.03002 16.1934 9.13339 16.1063 9.22045L13.3266 12.0003Z" fill="black" fill-opacity="0.2"/>
<path fill-rule="evenodd" clip-rule="evenodd" d="M5.33314 2.02237C7.30653 0.70379 9.62664 0 12 0C13.5761 -0.000865758 15.137 0.308932 16.5933 0.911681C18.0496 1.51443 19.3728 2.39831 20.4873 3.51279C21.6017 4.62727 22.4856 5.95048 23.0884 7.40678C23.6911 8.86308 24.0009 10.4239 24 12C24 14.3734 23.2962 16.6935 21.9777 18.6669C20.6591 20.6403 18.7849 22.1783 16.5922 23.0866C14.3995 23.9948 11.9867 24.2325 9.6589 23.7694C7.33112 23.3064 5.19299 22.1635 3.51475 20.4853C1.83652 18.8071 0.693595 16.6689 0.230572 14.3411C-0.232451 12.0133 0.00522995 9.60052 0.913482 7.40781C1.82173 5.21509 3.35975 3.34095 5.33314 2.02237ZM6.37486 20.4186C8.03991 21.5312 9.99748 22.125 12 22.125C13.3299 22.1258 14.6468 21.8645 15.8756 21.3559C17.1044 20.8474 18.2208 20.1016 19.1612 19.1612C20.1016 18.2209 20.8474 17.1044 21.3559 15.8756C21.8645 14.6468 22.1258 13.3299 22.125 12C22.125 9.99748 21.5312 8.03991 20.4186 6.37486C19.3061 4.70981 17.7248 3.41206 15.8747 2.64572C14.0246 1.87939 11.9888 1.67888 10.0247 2.06955C8.06068 2.46023 6.25659 3.42454 4.84058 4.84055C3.42458 6.25656 2.46021 8.06066 2.06954 10.0247C1.67886 11.9888 1.8794 14.0246 2.64573 15.8747C3.41207 17.7248 4.70981 19.3061 6.37486 20.4186ZM13.3266 12.0003L16.1063 14.7801C16.2822 14.9559 16.381 15.1944 16.381 15.4431C16.381 15.6917 16.2822 15.9302 16.1063 16.1061C15.9305 16.2819 15.692 16.3807 15.4433 16.3807C15.1947 16.3807 14.9562 16.2819 14.7804 16.1061L12.0006 13.3263L9.22075 16.1061C9.04491 16.2819 8.80644 16.3807 8.55776 16.3807C8.30909 16.3807 8.07061 16.2819 7.89478 16.1061C7.71894 15.9302 7.62012 15.6917 7.62012 15.4431C7.62012 15.1944 7.71894 14.9559 7.89478 14.7801L10.6745 12.0003L7.89478 9.22045C7.80771 9.13339 7.73865 9.03002 7.69153 8.91626C7.64441 8.8025 7.62012 8.68058 7.62012 8.55745C7.62012 8.43432 7.64441 8.31239 7.69153 8.19863C7.73865 8.08488 7.80771 7.98152 7.89478 7.89445C7.98184 7.80738 8.08519 7.73832 8.19895 7.6912C8.31271 7.64408 8.43463 7.61983 8.55776 7.61983C8.68089 7.61983 8.80282 7.64408 8.91658 7.6912C9.03034 7.73832 9.13369 7.80738 9.22075 7.89445L12.0006 10.6742L14.7804 7.89445C14.8674 7.80738 14.9708 7.73832 15.0845 7.6912C15.1983 7.64408 15.3202 7.61983 15.4433 7.61983C15.5665 7.61983 15.6884 7.64408 15.8022 7.6912C15.9159 7.73832 16.0193 7.80738 16.1063 7.89445C16.1934 7.98152 16.2625 8.08488 16.3096 8.19863C16.3567 8.31239 16.381 8.43432 16.381 8.55745C16.381 8.68058 16.3567 8.8025 16.3096 8.91626C16.2625 9.03002 16.1934 9.13339 16.1063 9.22045L13.3266 12.0003Z" fill="black" fill-opacity="0.2"/>
<path fill-rule="evenodd" clip-rule="evenodd" d="M5.33314 2.02237C7.30653 0.70379 9.62664 0 12 0C13.5761 -0.000865758 15.137 0.308932 16.5933 0.911681C18.0496 1.51443 19.3728 2.39831 20.4873 3.51279C21.6017 4.62727 22.4856 5.95048 23.0884 7.40678C23.6911 8.86308 24.0009 10.4239 24 12C24 14.3734 23.2962 16.6935 21.9777 18.6669C20.6591 20.6403 18.7849 22.1783 16.5922 23.0866C14.3995 23.9948 11.9867 24.2325 9.6589 23.7694C7.33112 23.3064 5.19299 22.1635 3.51475 20.4853C1.83652 18.8071 0.693595 16.6689 0.230572 14.3411C-0.232451 12.0133 0.00522995 9.60052 0.913482 7.40781C1.82173 5.21509 3.35975 3.34095 5.33314 2.02237ZM6.37486 20.4186C8.03991 21.5312 9.99748 22.125 12 22.125C13.3299 22.1258 14.6468 21.8645 15.8756 21.3559C17.1044 20.8474 18.2208 20.1016 19.1612 19.1612C20.1016 18.2209 20.8474 17.1044 21.3559 15.8756C21.8645 14.6468 22.1258 13.3299 22.125 12C22.125 9.99748 21.5312 8.03991 20.4186 6.37486C19.3061 4.70981 17.7248 3.41206 15.8747 2.64572C14.0246 1.87939 11.9888 1.67888 10.0247 2.06955C8.06068 2.46023 6.25659 3.42454 4.84058 4.84055C3.42458 6.25656 2.46021 8.06066 2.06954 10.0247C1.67886 11.9888 1.8794 14.0246 2.64573 15.8747C3.41207 17.7248 4.70981 19.3061 6.37486 20.4186ZM13.3266 12.0003L16.1063 14.7801C16.2822 14.9559 16.381 15.1944 16.381 15.4431C16.381 15.6917 16.2822 15.9302 16.1063 16.1061C15.9305 16.2819 15.692 16.3807 15.4433 16.3807C15.1947 16.3807 14.9562 16.2819 14.7804 16.1061L12.0006 13.3263L9.22075 16.1061C9.04491 16.2819 8.80644 16.3807 8.55776 16.3807C8.30909 16.3807 8.07061 16.2819 7.89478 16.1061C7.71894 15.9302 7.62012 15.6917 7.62012 15.4431C7.62012 15.1944 7.71894 14.9559 7.89478 14.7801L10.6745 12.0003L7.89478 9.22045C7.80771 9.13339 7.73865 9.03002 7.69153 8.91626C7.64441 8.8025 7.62012 8.68058 7.62012 8.55745C7.62012 8.43432 7.64441 8.31239 7.69153 8.19863C7.73865 8.08488 7.80771 7.98152 7.89478 7.89445C7.98184 7.80738 8.08519 7.73832 8.19895 7.6912C8.31271 7.64408 8.43463 7.61983 8.55776 7.61983C8.68089 7.61983 8.80282 7.64408 8.91658 7.6912C9.03034 7.73832 9.13369 7.80738 9.22075 7.89445L12.0006 10.6742L14.7804 7.89445C14.8674 7.80738 14.9708 7.73832 15.0845 7.6912C15.1983 7.64408 15.3202 7.61983 15.4433 7.61983C15.5665 7.61983 15.6884 7.64408 15.8022 7.6912C15.9159 7.73832 16.0193 7.80738 16.1063 7.89445C16.1934 7.98152 16.2625 8.08488 16.3096 8.19863C16.3567 8.31239 16.381 8.43432 16.381 8.55745C16.381 8.68058 16.3567 8.8025 16.3096 8.91626C16.2625 9.03002 16.1934 9.13339 16.1063 9.22045L13.3266 12.0003Z" fill="black" fill-opacity="0.2"/>
<path fill-rule="evenodd" clip-rule="evenodd" d="M5.33314 2.02237C7.30653 0.70379 9.62664 0 12 0C13.5761 -0.000865758 15.137 0.308932 16.5933 0.911681C18.0496 1.51443 19.3728 2.39831 20.4873 3.51279C21.6017 4.62727 22.4856 5.95048 23.0884 7.40678C23.6911 8.86308 24.0009 10.4239 24 12C24 14.3734 23.2962 16.6935 21.9777 18.6669C20.6591 20.6403 18.7849 22.1783 16.5922 23.0866C14.3995 23.9948 11.9867 24.2325 9.6589 23.7694C7.33112 23.3064 5.19299 22.1635 3.51475 20.4853C1.83652 18.8071 0.693595 16.6689 0.230572 14.3411C-0.232451 12.0133 0.00522995 9.60052 0.913482 7.40781C1.82173 5.21509 3.35975 3.34095 5.33314 2.02237ZM6.37486 20.4186C8.03991 21.5312 9.99748 22.125 12 22.125C13.3299 22.1258 14.6468 21.8645 15.8756 21.3559C17.1044 20.8474 18.2208 20.1016 19.1612 19.1612C20.1016 18.2209 20.8474 17.1044 21.3559 15.8756C21.8645 14.6468 22.1258 13.3299 22.125 12C22.125 9.99748 21.5312 8.03991 20.4186 6.37486C19.3061 4.70981 17.7248 3.41206 15.8747 2.64572C14.0246 1.87939 11.9888 1.67888 10.0247 2.06955C8.06068 2.46023 6.25659 3.42454 4.84058 4.84055C3.42458 6.25656 2.46021 8.06066 2.06954 10.0247C1.67886 11.9888 1.8794 14.0246 2.64573 15.8747C3.41207 17.7248 4.70981 19.3061 6.37486 20.4186ZM13.3266 12.0003L16.1063 14.7801C16.2822 14.9559 16.381 15.1944 16.381 15.4431C16.381 15.6917 16.2822 15.9302 16.1063 16.1061C15.9305 16.2819 15.692 16.3807 15.4433 16.3807C15.1947 16.3807 14.9562 16.2819 14.7804 16.1061L12.0006 13.3263L9.22075 16.1061C9.04491 16.2819 8.80644 16.3807 8.55776 16.3807C8.30909 16.3807 8.07061 16.2819 7.89478 16.1061C7.71894 15.9302 7.62012 15.6917 7.62012 15.4431C7.62012 15.1944 7.71894 14.9559 7.89478 14.7801L10.6745 12.0003L7.89478 9.22045C7.80771 9.13339 7.73865 9.03002 7.69153 8.91626C7.64441 8.8025 7.62012 8.68058 7.62012 8.55745C7.62012 8.43432 7.64441 8.31239 7.69153 8.19863C7.73865 8.08488 7.80771 7.98152 7.89478 7.89445C7.98184 7.80738 8.08519 7.73832 8.19895 7.6912C8.31271 7.64408 8.43463 7.61983 8.55776 7.61983C8.68089 7.61983 8.80282 7.64408 8.91658 7.6912C9.03034 7.73832 9.13369 7.80738 9.22075 7.89445L12.0006 10.6742L14.7804 7.89445C14.8674 7.80738 14.9708 7.73832 15.0845 7.6912C15.1983 7.64408 15.3202 7.61983 15.4433 7.61983C15.5665 7.61983 15.6884 7.64408 15.8022 7.6912C15.9159 7.73832 16.0193 7.80738 16.1063 7.89445C16.1934 7.98152 16.2625 8.08488 16.3096 8.19863C16.3567 8.31239 16.381 8.43432 16.381 8.55745C16.381 8.68058 16.3567 8.8025 16.3096 8.91626C16.2625 9.03002 16.1934 9.13339 16.1063 9.22045L13.3266 12.0003Z" fill="black" fill-opacity="0.2"/>
<path fill-rule="evenodd" clip-rule="evenodd" d="M5.33314 2.02237C7.30653 0.70379 9.62664 0 12 0C13.5761 -0.000865758 15.137 0.308932 16.5933 0.911681C18.0496 1.51443 19.3728 2.39831 20.4873 3.51279C21.6017 4.62727 22.4856 5.95048 23.0884 7.40678C23.6911 8.86308 24.0009 10.4239 24 12C24 14.3734 23.2962 16.6935 21.9777 18.6669C20.6591 20.6403 18.7849 22.1783 16.5922 23.0866C14.3995 23.9948 11.9867 24.2325 9.6589 23.7694C7.33112 23.3064 5.19299 22.1635 3.51475 20.4853C1.83652 18.8071 0.693595 16.6689 0.230572 14.3411C-0.232451 12.0133 0.00522995 9.60052 0.913482 7.40781C1.82173 5.21509 3.35975 3.34095 5.33314 2.02237ZM6.37486 20.4186C8.03991 21.5312 9.99748 22.125 12 22.125C13.3299 22.1258 14.6468 21.8645 15.8756 21.3559C17.1044 20.8474 18.2208 20.1016 19.1612 19.1612C20.1016 18.2209 20.8474 17.1044 21.3559 15.8756C21.8645 14.6468 22.1258 13.3299 22.125 12C22.125 9.99748 21.5312 8.03991 20.4186 6.37486C19.3061 4.70981 17.7248 3.41206 15.8747 2.64572C14.0246 1.87939 11.9888 1.67888 10.0247 2.06955C8.06068 2.46023 6.25659 3.42454 4.84058 4.84055C3.42458 6.25656 2.46021 8.06066 2.06954 10.0247C1.67886 11.9888 1.8794 14.0246 2.64573 15.8747C3.41207 17.7248 4.70981 19.3061 6.37486 20.4186ZM13.3266 12.0003L16.1063 14.7801C16.2822 14.9559 16.381 15.1944 16.381 15.4431C16.381 15.6917 16.2822 15.9302 16.1063 16.1061C15.9305 16.2819 15.692 16.3807 15.4433 16.3807C15.1947 16.3807 14.9562 16.2819 14.7804 16.1061L12.0006 13.3263L9.22075 16.1061C9.04491 16.2819 8.80644 16.3807 8.55776 16.3807C8.30909 16.3807 8.07061 16.2819 7.89478 16.1061C7.71894 15.9302 7.62012 15.6917 7.62012 15.4431C7.62012 15.1944 7.71894 14.9559 7.89478 14.7801L10.6745 12.0003L7.89478 9.22045C7.80771 9.13339 7.73865 9.03002 7.69153 8.91626C7.64441 8.8025 7.62012 8.68058 7.62012 8.55745C7.62012 8.43432 7.64441 8.31239 7.69153 8.19863C7.73865 8.08488 7.80771 7.98152 7.89478 7.89445C7.98184 7.80738 8.08519 7.73832 8.19895 7.6912C8.31271 7.64408 8.43463 7.61983 8.55776 7.61983C8.68089 7.61983 8.80282 7.64408 8.91658 7.6912C9.03034 7.73832 9.13369 7.80738 9.22075 7.89445L12.0006 10.6742L14.7804 7.89445C14.8674 7.80738 14.9708 7.73832 15.0845 7.6912C15.1983 7.64408 15.3202 7.61983 15.4433 7.61983C15.5665 7.61983 15.6884 7.64408 15.8022 7.6912C15.9159 7.73832 16.0193 7.80738 16.1063 7.89445C16.1934 7.98152 16.2625 8.08488 16.3096 8.19863C16.3567 8.31239 16.381 8.43432 16.381 8.55745C16.381 8.68058 16.3567 8.8025 16.3096 8.91626C16.2625 9.03002 16.1934 9.13339 16.1063 9.22045L13.3266 12.0003Z" fill="black" fill-opacity="0.2"/>
<path fill-rule="evenodd" clip-rule="evenodd" d="M5.33314 2.02237C7.30653 0.70379 9.62664 0 12 0C13.5761 -0.000865758 15.137 0.308932 16.5933 0.911681C18.0496 1.51443 19.3728 2.39831 20.4873 3.51279C21.6017 4.62727 22.4856 5.95048 23.0884 7.40678C23.6911 8.86308 24.0009 10.4239 24 12C24 14.3734 23.2962 16.6935 21.9777 18.6669C20.6591 20.6403 18.7849 22.1783 16.5922 23.0866C14.3995 23.9948 11.9867 24.2325 9.6589 23.7694C7.33112 23.3064 5.19299 22.1635 3.51475 20.4853C1.83652 18.8071 0.693595 16.6689 0.230572 14.3411C-0.232451 12.0133 0.00522995 9.60052 0.913482 7.40781C1.82173 5.21509 3.35975 3.34095 5.33314 2.02237ZM6.37486 20.4186C8.03991 21.5312 9.99748 22.125 12 22.125C13.3299 22.1258 14.6468 21.8645 15.8756 21.3559C17.1044 20.8474 18.2208 20.1016 19.1612 19.1612C20.1016 18.2209 20.8474 17.1044 21.3559 15.8756C21.8645 14.6468 22.1258 13.3299 22.125 12C22.125 9.99748 21.5312 8.03991 20.4186 6.37486C19.3061 4.70981 17.7248 3.41206 15.8747 2.64572C14.0246 1.87939 11.9888 1.67888 10.0247 2.06955C8.06068 2.46023 6.25659 3.42454 4.84058 4.84055C3.42458 6.25656 2.46021 8.06066 2.06954 10.0247C1.67886 11.9888 1.8794 14.0246 2.64573 15.8747C3.41207 17.7248 4.70981 19.3061 6.37486 20.4186ZM13.3266 12.0003L16.1063 14.7801C16.2822 14.9559 16.381 15.1944 16.381 15.4431C16.381 15.6917 16.2822 15.9302 16.1063 16.1061C15.9305 16.2819 15.692 16.3807 15.4433 16.3807C15.1947 16.3807 14.9562 16.2819 14.7804 16.1061L12.0006 13.3263L9.22075 16.1061C9.04491 16.2819 8.80644 16.3807 8.55776 16.3807C8.30909 16.3807 8.07061 16.2819 7.89478 16.1061C7.71894 15.9302 7.62012 15.6917 7.62012 15.4431C7.62012 15.1944 7.71894 14.9559 7.89478 14.7801L10.6745 12.0003L7.89478 9.22045C7.80771 9.13339 7.73865 9.03002 7.69153 8.91626C7.64441 8.8025 7.62012 8.68058 7.62012 8.55745C7.62012 8.43432 7.64441 8.31239 7.69153 8.19863C7.73865 8.08488 7.80771 7.98152 7.89478 7.89445C7.98184 7.80738 8.08519 7.73832 8.19895 7.6912C8.31271 7.64408 8.43463 7.61983 8.55776 7.61983C8.68089 7.61983 8.80282 7.64408 8.91658 7.6912C9.03034 7.73832 9.13369 7.80738 9.22075 7.89445L12.0006 10.6742L14.7804 7.89445C14.8674 7.80738 14.9708 7.73832 15.0845 7.6912C15.1983 7.64408 15.3202 7.61983 15.4433 7.61983C15.5665 7.61983 15.6884 7.64408 15.8022 7.6912C15.9159 7.73832 16.0193 7.80738 16.1063 7.89445C16.1934 7.98152 16.2625 8.08488 16.3096 8.19863C16.3567 8.31239 16.381 8.43432 16.381 8.55745C16.381 8.68058 16.3567 8.8025 16.3096 8.91626C16.2625 9.03002 16.1934 9.13339 16.1063 9.22045L13.3266 12.0003Z" fill="black" fill-opacity="0.2"/>
<path fill-rule="evenodd" clip-rule="evenodd" d="M5.33314 2.02237C7.30653 0.70379 9.62664 0 12 0C13.5761 -0.000865758 15.137 0.308932 16.5933 0.911681C18.0496 1.51443 19.3728 2.39831 20.4873 3.51279C21.6017 4.62727 22.4856 5.95048 23.0884 7.40678C23.6911 8.86308 24.0009 10.4239 24 12C24 14.3734 23.2962 16.6935 21.9777 18.6669C20.6591 20.6403 18.7849 22.1783 16.5922 23.0866C14.3995 23.9948 11.9867 24.2325 9.6589 23.7694C7.33112 23.3064 5.19299 22.1635 3.51475 20.4853C1.83652 18.8071 0.693595 16.6689 0.230572 14.3411C-0.232451 12.0133 0.00522995 9.60052 0.913482 7.40781C1.82173 5.21509 3.35975 3.34095 5.33314 2.02237ZM6.37486 20.4186C8.03991 21.5312 9.99748 22.125 12 22.125C13.3299 22.1258 14.6468 21.8645 15.8756 21.3559C17.1044 20.8474 18.2208 20.1016 19.1612 19.1612C20.1016 18.2209 20.8474 17.1044 21.3559 15.8756C21.8645 14.6468 22.1258 13.3299 22.125 12C22.125 9.99748 21.5312 8.03991 20.4186 6.37486C19.3061 4.70981 17.7248 3.41206 15.8747 2.64572C14.0246 1.87939 11.9888 1.67888 10.0247 2.06955C8.06068 2.46023 6.25659 3.42454 4.84058 4.84055C3.42458 6.25656 2.46021 8.06066 2.06954 10.0247C1.67886 11.9888 1.8794 14.0246 2.64573 15.8747C3.41207 17.7248 4.70981 19.3061 6.37486 20.4186ZM13.3266 12.0003L16.1063 14.7801C16.2822 14.9559 16.381 15.1944 16.381 15.4431C16.381 15.6917 16.2822 15.9302 16.1063 16.1061C15.9305 16.2819 15.692 16.3807 15.4433 16.3807C15.1947 16.3807 14.9562 16.2819 14.7804 16.1061L12.0006 13.3263L9.22075 16.1061C9.04491 16.2819 8.80644 16.3807 8.55776 16.3807C8.30909 16.3807 8.07061 16.2819 7.89478 16.1061C7.71894 15.9302 7.62012 15.6917 7.62012 15.4431C7.62012 15.1944 7.71894 14.9559 7.89478 14.7801L10.6745 12.0003L7.89478 9.22045C7.80771 9.13339 7.73865 9.03002 7.69153 8.91626C7.64441 8.8025 7.62012 8.68058 7.62012 8.55745C7.62012 8.43432 7.64441 8.31239 7.69153 8.19863C7.73865 8.08488 7.80771 7.98152 7.89478 7.89445C7.98184 7.80738 8.08519 7.73832 8.19895 7.6912C8.31271 7.64408 8.43463 7.61983 8.55776 7.61983C8.68089 7.61983 8.80282 7.64408 8.91658 7.6912C9.03034 7.73832 9.13369 7.80738 9.22075 7.89445L12.0006 10.6742L14.7804 7.89445C14.8674 7.80738 14.9708 7.73832 15.0845 7.6912C15.1983 7.64408 15.3202 7.61983 15.4433 7.61983C15.5665 7.61983 15.6884 7.64408 15.8022 7.6912C15.9159 7.73832 16.0193 7.80738 16.1063 7.89445C16.1934 7.98152 16.2625 8.08488 16.3096 8.19863C16.3567 8.31239 16.381 8.43432 16.381 8.55745C16.381 8.68058 16.3567 8.8025 16.3096 8.91626C16.2625 9.03002 16.1934 9.13339 16.1063 9.22045L13.3266 12.0003Z" fill="black" fill-opacity="0.2"/>
<path fill-rule="evenodd" clip-rule="evenodd" d="M5.33314 2.02237C7.30653 0.70379 9.62664 0 12 0C13.5761 -0.000865758 15.137 0.308932 16.5933 0.911681C18.0496 1.51443 19.3728 2.39831 20.4873 3.51279C21.6017 4.62727 22.4856 5.95048 23.0884 7.40678C23.6911 8.86308 24.0009 10.4239 24 12C24 14.3734 23.2962 16.6935 21.9777 18.6669C20.6591 20.6403 18.7849 22.1783 16.5922 23.0866C14.3995 23.9948 11.9867 24.2325 9.6589 23.7694C7.33112 23.3064 5.19299 22.1635 3.51475 20.4853C1.83652 18.8071 0.693595 16.6689 0.230572 14.3411C-0.232451 12.0133 0.00522995 9.60052 0.913482 7.40781C1.82173 5.21509 3.35975 3.34095 5.33314 2.02237ZM6.37486 20.4186C8.03991 21.5312 9.99748 22.125 12 22.125C13.3299 22.1258 14.6468 21.8645 15.8756 21.3559C17.1044 20.8474 18.2208 20.1016 19.1612 19.1612C20.1016 18.2209 20.8474 17.1044 21.3559 15.8756C21.8645 14.6468 22.1258 13.3299 22.125 12C22.125 9.99748 21.5312 8.03991 20.4186 6.37486C19.3061 4.70981 17.7248 3.41206 15.8747 2.64572C14.0246 1.87939 11.9888 1.67888 10.0247 2.06955C8.06068 2.46023 6.25659 3.42454 4.84058 4.84055C3.42458 6.25656 2.46021 8.06066 2.06954 10.0247C1.67886 11.9888 1.8794 14.0246 2.64573 15.8747C3.41207 17.7248 4.70981 19.3061 6.37486 20.4186ZM13.3266 12.0003L16.1063 14.7801C16.2822 14.9559 16.381 15.1944 16.381 15.4431C16.381 15.6917 16.2822 15.9302 16.1063 16.1061C15.9305 16.2819 15.692 16.3807 15.4433 16.3807C15.1947 16.3807 14.9562 16.2819 14.7804 16.1061L12.0006 13.3263L9.22075 16.1061C9.04491 16.2819 8.80644 16.3807 8.55776 16.3807C8.30909 16.3807 8.07061 16.2819 7.89478 16.1061C7.71894 15.9302 7.62012 15.6917 7.62012 15.4431C7.62012 15.1944 7.71894 14.9559 7.89478 14.7801L10.6745 12.0003L7.89478 9.22045C7.80771 9.13339 7.73865 9.03002 7.69153 8.91626C7.64441 8.8025 7.62012 8.68058 7.62012 8.55745C7.62012 8.43432 7.64441 8.31239 7.69153 8.19863C7.73865 8.08488 7.80771 7.98152 7.89478 7.89445C7.98184 7.80738 8.08519 7.73832 8.19895 7.6912C8.31271 7.64408 8.43463 7.61983 8.55776 7.61983C8.68089 7.61983 8.80282 7.64408 8.91658 7.6912C9.03034 7.73832 9.13369 7.80738 9.22075 7.89445L12.0006 10.6742L14.7804 7.89445C14.8674 7.80738 14.9708 7.73832 15.0845 7.6912C15.1983 7.64408 15.3202 7.61983 15.4433 7.61983C15.5665 7.61983 15.6884 7.64408 15.8022 7.6912C15.9159 7.73832 16.0193 7.80738 16.1063 7.89445C16.1934 7.98152 16.2625 8.08488 16.3096 8.19863C16.3567 8.31239 16.381 8.43432 16.381 8.55745C16.381 8.68058 16.3567 8.8025 16.3096 8.91626C16.2625 9.03002 16.1934 9.13339 16.1063 9.22045L13.3266 12.0003Z" fill="black" fill-opacity="0.2"/>
<path fill-rule="evenodd" clip-rule="evenodd" d="M5.33314 2.02237C7.30653 0.70379 9.62664 0 12 0C13.5761 -0.000865758 15.137 0.308932 16.5933 0.911681C18.0496 1.51443 19.3728 2.39831 20.4873 3.51279C21.6017 4.62727 22.4856 5.95048 23.0884 7.40678C23.6911 8.86308 24.0009 10.4239 24 12C24 14.3734 23.2962 16.6935 21.9777 18.6669C20.6591 20.6403 18.7849 22.1783 16.5922 23.0866C14.3995 23.9948 11.9867 24.2325 9.6589 23.7694C7.33112 23.3064 5.19299 22.1635 3.51475 20.4853C1.83652 18.8071 0.693595 16.6689 0.230572 14.3411C-0.232451 12.0133 0.00522995 9.60052 0.913482 7.40781C1.82173 5.21509 3.35975 3.34095 5.33314 2.02237ZM6.37486 20.4186C8.03991 21.5312 9.99748 22.125 12 22.125C13.3299 22.1258 14.6468 21.8645 15.8756 21.3559C17.1044 20.8474 18.2208 20.1016 19.1612 19.1612C20.1016 18.2209 20.8474 17.1044 21.3559 15.8756C21.8645 14.6468 22.1258 13.3299 22.125 12C22.125 9.99748 21.5312 8.03991 20.4186 6.37486C19.3061 4.70981 17.7248 3.41206 15.8747 2.64572C14.0246 1.87939 11.9888 1.67888 10.0247 2.06955C8.06068 2.46023 6.25659 3.42454 4.84058 4.84055C3.42458 6.25656 2.46021 8.06066 2.06954 10.0247C1.67886 11.9888 1.8794 14.0246 2.64573 15.8747C3.41207 17.7248 4.70981 19.3061 6.37486 20.4186ZM13.3266 12.0003L16.1063 14.7801C16.2822 14.9559 16.381 15.1944 16.381 15.4431C16.381 15.6917 16.2822 15.9302 16.1063 16.1061C15.9305 16.2819 15.692 16.3807 15.4433 16.3807C15.1947 16.3807 14.9562 16.2819 14.7804 16.1061L12.0006 13.3263L9.22075 16.1061C9.04491 16.2819 8.80644 16.3807 8.55776 16.3807C8.30909 16.3807 8.07061 16.2819 7.89478 16.1061C7.71894 15.9302 7.62012 15.6917 7.62012 15.4431C7.62012 15.1944 7.71894 14.9559 7.89478 14.7801L10.6745 12.0003L7.89478 9.22045C7.80771 9.13339 7.73865 9.03002 7.69153 8.91626C7.64441 8.8025 7.62012 8.68058 7.62012 8.55745C7.62012 8.43432 7.64441 8.31239 7.69153 8.19863C7.73865 8.08488 7.80771 7.98152 7.89478 7.89445C7.98184 7.80738 8.08519 7.73832 8.19895 7.6912C8.31271 7.64408 8.43463 7.61983 8.55776 7.61983C8.68089 7.61983 8.80282 7.64408 8.91658 7.6912C9.03034 7.73832 9.13369 7.80738 9.22075 7.89445L12.0006 10.6742L14.7804 7.89445C14.8674 7.80738 14.9708 7.73832 15.0845 7.6912C15.1983 7.64408 15.3202 7.61983 15.4433 7.61983C15.5665 7.61983 15.6884 7.64408 15.8022 7.6912C15.9159 7.73832 16.0193 7.80738 16.1063 7.89445C16.1934 7.98152 16.2625 8.08488 16.3096 8.19863C16.3567 8.31239 16.381 8.43432 16.381 8.55745C16.381 8.68058 16.3567 8.8025 16.3096 8.91626C16.2625 9.03002 16.1934 9.13339 16.1063 9.22045L13.3266 12.0003Z" fill="black" fill-opacity="0.2"/>
</g>
<defs>
<clipPath id="clip0_414_2755">
<rect width="24" height="24" fill="white"/>
</clipPath>
</defs>
</svg>
