<svg width="32" height="32" viewBox="0 0 32 32" fill="none" xmlns="http://www.w3.org/2000/svg">
<g clip-path="url(#clip0_300_149)">
<path d="M16 0C12.8355 0 9.74207 0.938383 7.11088 2.69649C4.4797 4.45459 2.42894 6.95345 1.21793 9.87706C0.0069325 12.8007 -0.309921 16.0177 0.307443 19.1214C0.924806 22.2251 2.44866 25.0761 4.6863 27.3137C6.92394 29.5513 9.77486 31.0752 12.8786 31.6926C15.9823 32.3099 19.1993 31.9931 22.1229 30.7821C25.0466 29.5711 27.5454 27.5203 29.3035 24.8891C31.0616 22.2579 32 19.1645 32 16C32 11.7565 30.3143 7.68687 27.3137 4.68629C24.3131 1.68571 20.2435 0 16 0ZM22.85 10.83H22.13C20.3409 10.79 18.6026 10.2268 17.13 9.21V21.74C17.128 22.6386 16.86 23.5165 16.3597 24.263C15.8594 25.0095 15.1493 25.5911 14.3189 25.9346C13.4885 26.278 12.575 26.3678 11.6936 26.1928C10.8122 26.0177 10.0023 25.5855 9.36621 24.9508C8.73009 24.3161 8.29616 23.5072 8.11916 22.6262C7.94215 21.7452 8.02999 20.8315 8.3716 20.0003C8.71321 19.1691 9.29328 18.4577 10.0387 17.9558C10.7841 17.4539 11.6614 17.1839 12.56 17.18V19.47C12.1119 19.4739 11.675 19.6104 11.3044 19.8622C10.9337 20.1141 10.6459 20.47 10.4771 20.8851C10.3084 21.3002 10.2663 21.756 10.3561 22.195C10.4459 22.634 10.6637 23.0366 10.9819 23.3521C11.3002 23.6675 11.7047 23.8818 12.1445 23.9677C12.5842 24.0537 13.0396 24.0076 13.4533 23.8352C13.8669 23.6628 14.2202 23.3719 14.4688 22.999C14.7173 22.6262 14.85 22.1881 14.85 21.74V6.86C14.8607 6.65154 14.9279 6.44993 15.0444 6.27677C15.161 6.1036 15.3225 5.96543 15.5116 5.87704C15.7007 5.78866 15.9102 5.75341 16.1178 5.77507C16.3254 5.79673 16.5232 5.87449 16.69 6L18 7C19.1811 7.9421 20.6395 8.46922 22.15 8.5H22.86L22.85 10.83Z" fill="black"/>
<path d="M16 0C12.8355 0 9.74207 0.938383 7.11088 2.69649C4.4797 4.45459 2.42894 6.95345 1.21793 9.87706C0.0069325 12.8007 -0.309921 16.0177 0.307443 19.1214C0.924806 22.2251 2.44866 25.0761 4.6863 27.3137C6.92394 29.5513 9.77486 31.0752 12.8786 31.6926C15.9823 32.3099 19.1993 31.9931 22.1229 30.7821C25.0466 29.5711 27.5454 27.5203 29.3035 24.8891C31.0616 22.2579 32 19.1645 32 16C32 11.7565 30.3143 7.68687 27.3137 4.68629C24.3131 1.68571 20.2435 0 16 0ZM22.85 10.83H22.13C20.3409 10.79 18.6026 10.2268 17.13 9.21V21.74C17.128 22.6386 16.86 23.5165 16.3597 24.263C15.8594 25.0095 15.1493 25.5911 14.3189 25.9346C13.4885 26.278 12.575 26.3678 11.6936 26.1928C10.8122 26.0177 10.0023 25.5855 9.36621 24.9508C8.73009 24.3161 8.29616 23.5072 8.11916 22.6262C7.94215 21.7452 8.02999 20.8315 8.3716 20.0003C8.71321 19.1691 9.29328 18.4577 10.0387 17.9558C10.7841 17.4539 11.6614 17.1839 12.56 17.18V19.47C12.1119 19.4739 11.675 19.6104 11.3044 19.8622C10.9337 20.1141 10.6459 20.47 10.4771 20.8851C10.3084 21.3002 10.2663 21.756 10.3561 22.195C10.4459 22.634 10.6637 23.0366 10.9819 23.3521C11.3002 23.6675 11.7047 23.8818 12.1445 23.9677C12.5842 24.0537 13.0396 24.0076 13.4533 23.8352C13.8669 23.6628 14.2202 23.3719 14.4688 22.999C14.7173 22.6262 14.85 22.1881 14.85 21.74V6.86C14.8607 6.65154 14.9279 6.44993 15.0444 6.27677C15.161 6.1036 15.3225 5.96543 15.5116 5.87704C15.7007 5.78866 15.9102 5.75341 16.1178 5.77507C16.3254 5.79673 16.5232 5.87449 16.69 6L18 7C19.1811 7.9421 20.6395 8.46922 22.15 8.5H22.86L22.85 10.83Z" fill="black" fill-opacity="0.2"/>
<path d="M16 0C12.8355 0 9.74207 0.938383 7.11088 2.69649C4.4797 4.45459 2.42894 6.95345 1.21793 9.87706C0.0069325 12.8007 -0.309921 16.0177 0.307443 19.1214C0.924806 22.2251 2.44866 25.0761 4.6863 27.3137C6.92394 29.5513 9.77486 31.0752 12.8786 31.6926C15.9823 32.3099 19.1993 31.9931 22.1229 30.7821C25.0466 29.5711 27.5454 27.5203 29.3035 24.8891C31.0616 22.2579 32 19.1645 32 16C32 11.7565 30.3143 7.68687 27.3137 4.68629C24.3131 1.68571 20.2435 0 16 0ZM22.85 10.83H22.13C20.3409 10.79 18.6026 10.2268 17.13 9.21V21.74C17.128 22.6386 16.86 23.5165 16.3597 24.263C15.8594 25.0095 15.1493 25.5911 14.3189 25.9346C13.4885 26.278 12.575 26.3678 11.6936 26.1928C10.8122 26.0177 10.0023 25.5855 9.36621 24.9508C8.73009 24.3161 8.29616 23.5072 8.11916 22.6262C7.94215 21.7452 8.02999 20.8315 8.3716 20.0003C8.71321 19.1691 9.29328 18.4577 10.0387 17.9558C10.7841 17.4539 11.6614 17.1839 12.56 17.18V19.47C12.1119 19.4739 11.675 19.6104 11.3044 19.8622C10.9337 20.1141 10.6459 20.47 10.4771 20.8851C10.3084 21.3002 10.2663 21.756 10.3561 22.195C10.4459 22.634 10.6637 23.0366 10.9819 23.3521C11.3002 23.6675 11.7047 23.8818 12.1445 23.9677C12.5842 24.0537 13.0396 24.0076 13.4533 23.8352C13.8669 23.6628 14.2202 23.3719 14.4688 22.999C14.7173 22.6262 14.85 22.1881 14.85 21.74V6.86C14.8607 6.65154 14.9279 6.44993 15.0444 6.27677C15.161 6.1036 15.3225 5.96543 15.5116 5.87704C15.7007 5.78866 15.9102 5.75341 16.1178 5.77507C16.3254 5.79673 16.5232 5.87449 16.69 6L18 7C19.1811 7.9421 20.6395 8.46922 22.15 8.5H22.86L22.85 10.83Z" fill="black" fill-opacity="0.2"/>
<path d="M16 0C12.8355 0 9.74207 0.938383 7.11088 2.69649C4.4797 4.45459 2.42894 6.95345 1.21793 9.87706C0.0069325 12.8007 -0.309921 16.0177 0.307443 19.1214C0.924806 22.2251 2.44866 25.0761 4.6863 27.3137C6.92394 29.5513 9.77486 31.0752 12.8786 31.6926C15.9823 32.3099 19.1993 31.9931 22.1229 30.7821C25.0466 29.5711 27.5454 27.5203 29.3035 24.8891C31.0616 22.2579 32 19.1645 32 16C32 11.7565 30.3143 7.68687 27.3137 4.68629C24.3131 1.68571 20.2435 0 16 0ZM22.85 10.83H22.13C20.3409 10.79 18.6026 10.2268 17.13 9.21V21.74C17.128 22.6386 16.86 23.5165 16.3597 24.263C15.8594 25.0095 15.1493 25.5911 14.3189 25.9346C13.4885 26.278 12.575 26.3678 11.6936 26.1928C10.8122 26.0177 10.0023 25.5855 9.36621 24.9508C8.73009 24.3161 8.29616 23.5072 8.11916 22.6262C7.94215 21.7452 8.02999 20.8315 8.3716 20.0003C8.71321 19.1691 9.29328 18.4577 10.0387 17.9558C10.7841 17.4539 11.6614 17.1839 12.56 17.18V19.47C12.1119 19.4739 11.675 19.6104 11.3044 19.8622C10.9337 20.1141 10.6459 20.47 10.4771 20.8851C10.3084 21.3002 10.2663 21.756 10.3561 22.195C10.4459 22.634 10.6637 23.0366 10.9819 23.3521C11.3002 23.6675 11.7047 23.8818 12.1445 23.9677C12.5842 24.0537 13.0396 24.0076 13.4533 23.8352C13.8669 23.6628 14.2202 23.3719 14.4688 22.999C14.7173 22.6262 14.85 22.1881 14.85 21.74V6.86C14.8607 6.65154 14.9279 6.44993 15.0444 6.27677C15.161 6.1036 15.3225 5.96543 15.5116 5.87704C15.7007 5.78866 15.9102 5.75341 16.1178 5.77507C16.3254 5.79673 16.5232 5.87449 16.69 6L18 7C19.1811 7.9421 20.6395 8.46922 22.15 8.5H22.86L22.85 10.83Z" fill="black" fill-opacity="0.2"/>
<path d="M16 0C12.8355 0 9.74207 0.938383 7.11088 2.69649C4.4797 4.45459 2.42894 6.95345 1.21793 9.87706C0.0069325 12.8007 -0.309921 16.0177 0.307443 19.1214C0.924806 22.2251 2.44866 25.0761 4.6863 27.3137C6.92394 29.5513 9.77486 31.0752 12.8786 31.6926C15.9823 32.3099 19.1993 31.9931 22.1229 30.7821C25.0466 29.5711 27.5454 27.5203 29.3035 24.8891C31.0616 22.2579 32 19.1645 32 16C32 11.7565 30.3143 7.68687 27.3137 4.68629C24.3131 1.68571 20.2435 0 16 0ZM22.85 10.83H22.13C20.3409 10.79 18.6026 10.2268 17.13 9.21V21.74C17.128 22.6386 16.86 23.5165 16.3597 24.263C15.8594 25.0095 15.1493 25.5911 14.3189 25.9346C13.4885 26.278 12.575 26.3678 11.6936 26.1928C10.8122 26.0177 10.0023 25.5855 9.36621 24.9508C8.73009 24.3161 8.29616 23.5072 8.11916 22.6262C7.94215 21.7452 8.02999 20.8315 8.3716 20.0003C8.71321 19.1691 9.29328 18.4577 10.0387 17.9558C10.7841 17.4539 11.6614 17.1839 12.56 17.18V19.47C12.1119 19.4739 11.675 19.6104 11.3044 19.8622C10.9337 20.1141 10.6459 20.47 10.4771 20.8851C10.3084 21.3002 10.2663 21.756 10.3561 22.195C10.4459 22.634 10.6637 23.0366 10.9819 23.3521C11.3002 23.6675 11.7047 23.8818 12.1445 23.9677C12.5842 24.0537 13.0396 24.0076 13.4533 23.8352C13.8669 23.6628 14.2202 23.3719 14.4688 22.999C14.7173 22.6262 14.85 22.1881 14.85 21.74V6.86C14.8607 6.65154 14.9279 6.44993 15.0444 6.27677C15.161 6.1036 15.3225 5.96543 15.5116 5.87704C15.7007 5.78866 15.9102 5.75341 16.1178 5.77507C16.3254 5.79673 16.5232 5.87449 16.69 6L18 7C19.1811 7.9421 20.6395 8.46922 22.15 8.5H22.86L22.85 10.83Z" fill="black" fill-opacity="0.2"/>
<path d="M16 0C12.8355 0 9.74207 0.938383 7.11088 2.69649C4.4797 4.45459 2.42894 6.95345 1.21793 9.87706C0.0069325 12.8007 -0.309921 16.0177 0.307443 19.1214C0.924806 22.2251 2.44866 25.0761 4.6863 27.3137C6.92394 29.5513 9.77486 31.0752 12.8786 31.6926C15.9823 32.3099 19.1993 31.9931 22.1229 30.7821C25.0466 29.5711 27.5454 27.5203 29.3035 24.8891C31.0616 22.2579 32 19.1645 32 16C32 11.7565 30.3143 7.68687 27.3137 4.68629C24.3131 1.68571 20.2435 0 16 0ZM22.85 10.83H22.13C20.3409 10.79 18.6026 10.2268 17.13 9.21V21.74C17.128 22.6386 16.86 23.5165 16.3597 24.263C15.8594 25.0095 15.1493 25.5911 14.3189 25.9346C13.4885 26.278 12.575 26.3678 11.6936 26.1928C10.8122 26.0177 10.0023 25.5855 9.36621 24.9508C8.73009 24.3161 8.29616 23.5072 8.11916 22.6262C7.94215 21.7452 8.02999 20.8315 8.3716 20.0003C8.71321 19.1691 9.29328 18.4577 10.0387 17.9558C10.7841 17.4539 11.6614 17.1839 12.56 17.18V19.47C12.1119 19.4739 11.675 19.6104 11.3044 19.8622C10.9337 20.1141 10.6459 20.47 10.4771 20.8851C10.3084 21.3002 10.2663 21.756 10.3561 22.195C10.4459 22.634 10.6637 23.0366 10.9819 23.3521C11.3002 23.6675 11.7047 23.8818 12.1445 23.9677C12.5842 24.0537 13.0396 24.0076 13.4533 23.8352C13.8669 23.6628 14.2202 23.3719 14.4688 22.999C14.7173 22.6262 14.85 22.1881 14.85 21.74V6.86C14.8607 6.65154 14.9279 6.44993 15.0444 6.27677C15.161 6.1036 15.3225 5.96543 15.5116 5.87704C15.7007 5.78866 15.9102 5.75341 16.1178 5.77507C16.3254 5.79673 16.5232 5.87449 16.69 6L18 7C19.1811 7.9421 20.6395 8.46922 22.15 8.5H22.86L22.85 10.83Z" fill="black" fill-opacity="0.2"/>
<path d="M16 0C12.8355 0 9.74207 0.938383 7.11088 2.69649C4.4797 4.45459 2.42894 6.95345 1.21793 9.87706C0.0069325 12.8007 -0.309921 16.0177 0.307443 19.1214C0.924806 22.2251 2.44866 25.0761 4.6863 27.3137C6.92394 29.5513 9.77486 31.0752 12.8786 31.6926C15.9823 32.3099 19.1993 31.9931 22.1229 30.7821C25.0466 29.5711 27.5454 27.5203 29.3035 24.8891C31.0616 22.2579 32 19.1645 32 16C32 11.7565 30.3143 7.68687 27.3137 4.68629C24.3131 1.68571 20.2435 0 16 0ZM22.85 10.83H22.13C20.3409 10.79 18.6026 10.2268 17.13 9.21V21.74C17.128 22.6386 16.86 23.5165 16.3597 24.263C15.8594 25.0095 15.1493 25.5911 14.3189 25.9346C13.4885 26.278 12.575 26.3678 11.6936 26.1928C10.8122 26.0177 10.0023 25.5855 9.36621 24.9508C8.73009 24.3161 8.29616 23.5072 8.11916 22.6262C7.94215 21.7452 8.02999 20.8315 8.3716 20.0003C8.71321 19.1691 9.29328 18.4577 10.0387 17.9558C10.7841 17.4539 11.6614 17.1839 12.56 17.18V19.47C12.1119 19.4739 11.675 19.6104 11.3044 19.8622C10.9337 20.1141 10.6459 20.47 10.4771 20.8851C10.3084 21.3002 10.2663 21.756 10.3561 22.195C10.4459 22.634 10.6637 23.0366 10.9819 23.3521C11.3002 23.6675 11.7047 23.8818 12.1445 23.9677C12.5842 24.0537 13.0396 24.0076 13.4533 23.8352C13.8669 23.6628 14.2202 23.3719 14.4688 22.999C14.7173 22.6262 14.85 22.1881 14.85 21.74V6.86C14.8607 6.65154 14.9279 6.44993 15.0444 6.27677C15.161 6.1036 15.3225 5.96543 15.5116 5.87704C15.7007 5.78866 15.9102 5.75341 16.1178 5.77507C16.3254 5.79673 16.5232 5.87449 16.69 6L18 7C19.1811 7.9421 20.6395 8.46922 22.15 8.5H22.86L22.85 10.83Z" fill="black" fill-opacity="0.2"/>
<path d="M16 0C12.8355 0 9.74207 0.938383 7.11088 2.69649C4.4797 4.45459 2.42894 6.95345 1.21793 9.87706C0.0069325 12.8007 -0.309921 16.0177 0.307443 19.1214C0.924806 22.2251 2.44866 25.0761 4.6863 27.3137C6.92394 29.5513 9.77486 31.0752 12.8786 31.6926C15.9823 32.3099 19.1993 31.9931 22.1229 30.7821C25.0466 29.5711 27.5454 27.5203 29.3035 24.8891C31.0616 22.2579 32 19.1645 32 16C32 11.7565 30.3143 7.68687 27.3137 4.68629C24.3131 1.68571 20.2435 0 16 0ZM22.85 10.83H22.13C20.3409 10.79 18.6026 10.2268 17.13 9.21V21.74C17.128 22.6386 16.86 23.5165 16.3597 24.263C15.8594 25.0095 15.1493 25.5911 14.3189 25.9346C13.4885 26.278 12.575 26.3678 11.6936 26.1928C10.8122 26.0177 10.0023 25.5855 9.36621 24.9508C8.73009 24.3161 8.29616 23.5072 8.11916 22.6262C7.94215 21.7452 8.02999 20.8315 8.3716 20.0003C8.71321 19.1691 9.29328 18.4577 10.0387 17.9558C10.7841 17.4539 11.6614 17.1839 12.56 17.18V19.47C12.1119 19.4739 11.675 19.6104 11.3044 19.8622C10.9337 20.1141 10.6459 20.47 10.4771 20.8851C10.3084 21.3002 10.2663 21.756 10.3561 22.195C10.4459 22.634 10.6637 23.0366 10.9819 23.3521C11.3002 23.6675 11.7047 23.8818 12.1445 23.9677C12.5842 24.0537 13.0396 24.0076 13.4533 23.8352C13.8669 23.6628 14.2202 23.3719 14.4688 22.999C14.7173 22.6262 14.85 22.1881 14.85 21.74V6.86C14.8607 6.65154 14.9279 6.44993 15.0444 6.27677C15.161 6.1036 15.3225 5.96543 15.5116 5.87704C15.7007 5.78866 15.9102 5.75341 16.1178 5.77507C16.3254 5.79673 16.5232 5.87449 16.69 6L18 7C19.1811 7.9421 20.6395 8.46922 22.15 8.5H22.86L22.85 10.83Z" fill="black" fill-opacity="0.2"/>
<path d="M16 0C12.8355 0 9.74207 0.938383 7.11088 2.69649C4.4797 4.45459 2.42894 6.95345 1.21793 9.87706C0.0069325 12.8007 -0.309921 16.0177 0.307443 19.1214C0.924806 22.2251 2.44866 25.0761 4.6863 27.3137C6.92394 29.5513 9.77486 31.0752 12.8786 31.6926C15.9823 32.3099 19.1993 31.9931 22.1229 30.7821C25.0466 29.5711 27.5454 27.5203 29.3035 24.8891C31.0616 22.2579 32 19.1645 32 16C32 11.7565 30.3143 7.68687 27.3137 4.68629C24.3131 1.68571 20.2435 0 16 0ZM22.85 10.83H22.13C20.3409 10.79 18.6026 10.2268 17.13 9.21V21.74C17.128 22.6386 16.86 23.5165 16.3597 24.263C15.8594 25.0095 15.1493 25.5911 14.3189 25.9346C13.4885 26.278 12.575 26.3678 11.6936 26.1928C10.8122 26.0177 10.0023 25.5855 9.36621 24.9508C8.73009 24.3161 8.29616 23.5072 8.11916 22.6262C7.94215 21.7452 8.02999 20.8315 8.3716 20.0003C8.71321 19.1691 9.29328 18.4577 10.0387 17.9558C10.7841 17.4539 11.6614 17.1839 12.56 17.18V19.47C12.1119 19.4739 11.675 19.6104 11.3044 19.8622C10.9337 20.1141 10.6459 20.47 10.4771 20.8851C10.3084 21.3002 10.2663 21.756 10.3561 22.195C10.4459 22.634 10.6637 23.0366 10.9819 23.3521C11.3002 23.6675 11.7047 23.8818 12.1445 23.9677C12.5842 24.0537 13.0396 24.0076 13.4533 23.8352C13.8669 23.6628 14.2202 23.3719 14.4688 22.999C14.7173 22.6262 14.85 22.1881 14.85 21.74V6.86C14.8607 6.65154 14.9279 6.44993 15.0444 6.27677C15.161 6.1036 15.3225 5.96543 15.5116 5.87704C15.7007 5.78866 15.9102 5.75341 16.1178 5.77507C16.3254 5.79673 16.5232 5.87449 16.69 6L18 7C19.1811 7.9421 20.6395 8.46922 22.15 8.5H22.86L22.85 10.83Z" fill="black" fill-opacity="0.2"/>
<path d="M16 0C12.8355 0 9.74207 0.938383 7.11088 2.69649C4.4797 4.45459 2.42894 6.95345 1.21793 9.87706C0.0069325 12.8007 -0.309921 16.0177 0.307443 19.1214C0.924806 22.2251 2.44866 25.0761 4.6863 27.3137C6.92394 29.5513 9.77486 31.0752 12.8786 31.6926C15.9823 32.3099 19.1993 31.9931 22.1229 30.7821C25.0466 29.5711 27.5454 27.5203 29.3035 24.8891C31.0616 22.2579 32 19.1645 32 16C32 11.7565 30.3143 7.68687 27.3137 4.68629C24.3131 1.68571 20.2435 0 16 0ZM22.85 10.83H22.13C20.3409 10.79 18.6026 10.2268 17.13 9.21V21.74C17.128 22.6386 16.86 23.5165 16.3597 24.263C15.8594 25.0095 15.1493 25.5911 14.3189 25.9346C13.4885 26.278 12.575 26.3678 11.6936 26.1928C10.8122 26.0177 10.0023 25.5855 9.36621 24.9508C8.73009 24.3161 8.29616 23.5072 8.11916 22.6262C7.94215 21.7452 8.02999 20.8315 8.3716 20.0003C8.71321 19.1691 9.29328 18.4577 10.0387 17.9558C10.7841 17.4539 11.6614 17.1839 12.56 17.18V19.47C12.1119 19.4739 11.675 19.6104 11.3044 19.8622C10.9337 20.1141 10.6459 20.47 10.4771 20.8851C10.3084 21.3002 10.2663 21.756 10.3561 22.195C10.4459 22.634 10.6637 23.0366 10.9819 23.3521C11.3002 23.6675 11.7047 23.8818 12.1445 23.9677C12.5842 24.0537 13.0396 24.0076 13.4533 23.8352C13.8669 23.6628 14.2202 23.3719 14.4688 22.999C14.7173 22.6262 14.85 22.1881 14.85 21.74V6.86C14.8607 6.65154 14.9279 6.44993 15.0444 6.27677C15.161 6.1036 15.3225 5.96543 15.5116 5.87704C15.7007 5.78866 15.9102 5.75341 16.1178 5.77507C16.3254 5.79673 16.5232 5.87449 16.69 6L18 7C19.1811 7.9421 20.6395 8.46922 22.15 8.5H22.86L22.85 10.83Z" fill="black" fill-opacity="0.2"/>
</g>
<defs>
<clipPath id="clip0_300_149">
<rect width="32" height="32" fill="white"/>
</clipPath>
</defs>
</svg>
