<svg width="24" height="24" viewBox="0 0 24 24" fill="none" xmlns="http://www.w3.org/2000/svg">
<g clip-path="url(#clip0_365_947)">
<path fill-rule="evenodd" clip-rule="evenodd" d="M5.33298 2.02249C7.3064 0.703832 9.62655 0 12 0C15.1821 0.000473392 18.2338 1.26466 20.4841 3.51461C22.7344 5.76456 23.9991 8.81607 24 11.9982C24.0004 14.3717 23.2969 16.6919 21.9785 18.6655C20.6601 20.6392 18.7861 22.1775 16.5934 23.086C14.4008 23.9946 11.9879 24.2325 9.66002 23.7696C7.33213 23.3068 5.19376 22.1641 3.51536 20.4859C1.83695 18.8078 0.69388 16.6696 0.230713 14.3417C-0.232455 12.0139 0.00508093 9.60103 0.91328 7.40821C1.82148 5.21539 3.35955 3.34114 5.33298 2.02249ZM13.2174 6C13.2174 5.44772 12.7697 5 12.2174 5C11.6651 5 11.2174 5.44772 11.2174 6L11.2174 15.205L7.67572 11.9585C7.26861 11.5853 6.63604 11.6128 6.26285 12.0199C5.88965 12.427 5.91716 13.0596 6.32428 13.4328L11.5417 18.2154C11.924 18.5659 12.5108 18.5659 12.8931 18.2154L18.1105 13.4328C18.5176 13.0596 18.5451 12.427 18.1719 12.0199C17.7987 11.6128 17.1662 11.5853 16.7591 11.9585L13.2174 15.205L13.2174 6Z" fill="black"/>
<path fill-rule="evenodd" clip-rule="evenodd" d="M5.33298 2.02249C7.3064 0.703832 9.62655 0 12 0C15.1821 0.000473392 18.2338 1.26466 20.4841 3.51461C22.7344 5.76456 23.9991 8.81607 24 11.9982C24.0004 14.3717 23.2969 16.6919 21.9785 18.6655C20.6601 20.6392 18.7861 22.1775 16.5934 23.086C14.4008 23.9946 11.9879 24.2325 9.66002 23.7696C7.33213 23.3068 5.19376 22.1641 3.51536 20.4859C1.83695 18.8078 0.69388 16.6696 0.230713 14.3417C-0.232455 12.0139 0.00508093 9.60103 0.91328 7.40821C1.82148 5.21539 3.35955 3.34114 5.33298 2.02249ZM13.2174 6C13.2174 5.44772 12.7697 5 12.2174 5C11.6651 5 11.2174 5.44772 11.2174 6L11.2174 15.205L7.67572 11.9585C7.26861 11.5853 6.63604 11.6128 6.26285 12.0199C5.88965 12.427 5.91716 13.0596 6.32428 13.4328L11.5417 18.2154C11.924 18.5659 12.5108 18.5659 12.8931 18.2154L18.1105 13.4328C18.5176 13.0596 18.5451 12.427 18.1719 12.0199C17.7987 11.6128 17.1662 11.5853 16.7591 11.9585L13.2174 15.205L13.2174 6Z" fill="black" fill-opacity="0.2"/>
<path fill-rule="evenodd" clip-rule="evenodd" d="M5.33298 2.02249C7.3064 0.703832 9.62655 0 12 0C15.1821 0.000473392 18.2338 1.26466 20.4841 3.51461C22.7344 5.76456 23.9991 8.81607 24 11.9982C24.0004 14.3717 23.2969 16.6919 21.9785 18.6655C20.6601 20.6392 18.7861 22.1775 16.5934 23.086C14.4008 23.9946 11.9879 24.2325 9.66002 23.7696C7.33213 23.3068 5.19376 22.1641 3.51536 20.4859C1.83695 18.8078 0.69388 16.6696 0.230713 14.3417C-0.232455 12.0139 0.00508093 9.60103 0.91328 7.40821C1.82148 5.21539 3.35955 3.34114 5.33298 2.02249ZM13.2174 6C13.2174 5.44772 12.7697 5 12.2174 5C11.6651 5 11.2174 5.44772 11.2174 6L11.2174 15.205L7.67572 11.9585C7.26861 11.5853 6.63604 11.6128 6.26285 12.0199C5.88965 12.427 5.91716 13.0596 6.32428 13.4328L11.5417 18.2154C11.924 18.5659 12.5108 18.5659 12.8931 18.2154L18.1105 13.4328C18.5176 13.0596 18.5451 12.427 18.1719 12.0199C17.7987 11.6128 17.1662 11.5853 16.7591 11.9585L13.2174 15.205L13.2174 6Z" fill="black" fill-opacity="0.2"/>
<path fill-rule="evenodd" clip-rule="evenodd" d="M5.33298 2.02249C7.3064 0.703832 9.62655 0 12 0C15.1821 0.000473392 18.2338 1.26466 20.4841 3.51461C22.7344 5.76456 23.9991 8.81607 24 11.9982C24.0004 14.3717 23.2969 16.6919 21.9785 18.6655C20.6601 20.6392 18.7861 22.1775 16.5934 23.086C14.4008 23.9946 11.9879 24.2325 9.66002 23.7696C7.33213 23.3068 5.19376 22.1641 3.51536 20.4859C1.83695 18.8078 0.69388 16.6696 0.230713 14.3417C-0.232455 12.0139 0.00508093 9.60103 0.91328 7.40821C1.82148 5.21539 3.35955 3.34114 5.33298 2.02249ZM13.2174 6C13.2174 5.44772 12.7697 5 12.2174 5C11.6651 5 11.2174 5.44772 11.2174 6L11.2174 15.205L7.67572 11.9585C7.26861 11.5853 6.63604 11.6128 6.26285 12.0199C5.88965 12.427 5.91716 13.0596 6.32428 13.4328L11.5417 18.2154C11.924 18.5659 12.5108 18.5659 12.8931 18.2154L18.1105 13.4328C18.5176 13.0596 18.5451 12.427 18.1719 12.0199C17.7987 11.6128 17.1662 11.5853 16.7591 11.9585L13.2174 15.205L13.2174 6Z" fill="black" fill-opacity="0.2"/>
<path fill-rule="evenodd" clip-rule="evenodd" d="M5.33298 2.02249C7.3064 0.703832 9.62655 0 12 0C15.1821 0.000473392 18.2338 1.26466 20.4841 3.51461C22.7344 5.76456 23.9991 8.81607 24 11.9982C24.0004 14.3717 23.2969 16.6919 21.9785 18.6655C20.6601 20.6392 18.7861 22.1775 16.5934 23.086C14.4008 23.9946 11.9879 24.2325 9.66002 23.7696C7.33213 23.3068 5.19376 22.1641 3.51536 20.4859C1.83695 18.8078 0.69388 16.6696 0.230713 14.3417C-0.232455 12.0139 0.00508093 9.60103 0.91328 7.40821C1.82148 5.21539 3.35955 3.34114 5.33298 2.02249ZM13.2174 6C13.2174 5.44772 12.7697 5 12.2174 5C11.6651 5 11.2174 5.44772 11.2174 6L11.2174 15.205L7.67572 11.9585C7.26861 11.5853 6.63604 11.6128 6.26285 12.0199C5.88965 12.427 5.91716 13.0596 6.32428 13.4328L11.5417 18.2154C11.924 18.5659 12.5108 18.5659 12.8931 18.2154L18.1105 13.4328C18.5176 13.0596 18.5451 12.427 18.1719 12.0199C17.7987 11.6128 17.1662 11.5853 16.7591 11.9585L13.2174 15.205L13.2174 6Z" fill="black" fill-opacity="0.2"/>
<path fill-rule="evenodd" clip-rule="evenodd" d="M5.33298 2.02249C7.3064 0.703832 9.62655 0 12 0C15.1821 0.000473392 18.2338 1.26466 20.4841 3.51461C22.7344 5.76456 23.9991 8.81607 24 11.9982C24.0004 14.3717 23.2969 16.6919 21.9785 18.6655C20.6601 20.6392 18.7861 22.1775 16.5934 23.086C14.4008 23.9946 11.9879 24.2325 9.66002 23.7696C7.33213 23.3068 5.19376 22.1641 3.51536 20.4859C1.83695 18.8078 0.69388 16.6696 0.230713 14.3417C-0.232455 12.0139 0.00508093 9.60103 0.91328 7.40821C1.82148 5.21539 3.35955 3.34114 5.33298 2.02249ZM13.2174 6C13.2174 5.44772 12.7697 5 12.2174 5C11.6651 5 11.2174 5.44772 11.2174 6L11.2174 15.205L7.67572 11.9585C7.26861 11.5853 6.63604 11.6128 6.26285 12.0199C5.88965 12.427 5.91716 13.0596 6.32428 13.4328L11.5417 18.2154C11.924 18.5659 12.5108 18.5659 12.8931 18.2154L18.1105 13.4328C18.5176 13.0596 18.5451 12.427 18.1719 12.0199C17.7987 11.6128 17.1662 11.5853 16.7591 11.9585L13.2174 15.205L13.2174 6Z" fill="black" fill-opacity="0.2"/>
<path fill-rule="evenodd" clip-rule="evenodd" d="M5.33298 2.02249C7.3064 0.703832 9.62655 0 12 0C15.1821 0.000473392 18.2338 1.26466 20.4841 3.51461C22.7344 5.76456 23.9991 8.81607 24 11.9982C24.0004 14.3717 23.2969 16.6919 21.9785 18.6655C20.6601 20.6392 18.7861 22.1775 16.5934 23.086C14.4008 23.9946 11.9879 24.2325 9.66002 23.7696C7.33213 23.3068 5.19376 22.1641 3.51536 20.4859C1.83695 18.8078 0.69388 16.6696 0.230713 14.3417C-0.232455 12.0139 0.00508093 9.60103 0.91328 7.40821C1.82148 5.21539 3.35955 3.34114 5.33298 2.02249ZM13.2174 6C13.2174 5.44772 12.7697 5 12.2174 5C11.6651 5 11.2174 5.44772 11.2174 6L11.2174 15.205L7.67572 11.9585C7.26861 11.5853 6.63604 11.6128 6.26285 12.0199C5.88965 12.427 5.91716 13.0596 6.32428 13.4328L11.5417 18.2154C11.924 18.5659 12.5108 18.5659 12.8931 18.2154L18.1105 13.4328C18.5176 13.0596 18.5451 12.427 18.1719 12.0199C17.7987 11.6128 17.1662 11.5853 16.7591 11.9585L13.2174 15.205L13.2174 6Z" fill="black" fill-opacity="0.2"/>
<path fill-rule="evenodd" clip-rule="evenodd" d="M5.33298 2.02249C7.3064 0.703832 9.62655 0 12 0C15.1821 0.000473392 18.2338 1.26466 20.4841 3.51461C22.7344 5.76456 23.9991 8.81607 24 11.9982C24.0004 14.3717 23.2969 16.6919 21.9785 18.6655C20.6601 20.6392 18.7861 22.1775 16.5934 23.086C14.4008 23.9946 11.9879 24.2325 9.66002 23.7696C7.33213 23.3068 5.19376 22.1641 3.51536 20.4859C1.83695 18.8078 0.69388 16.6696 0.230713 14.3417C-0.232455 12.0139 0.00508093 9.60103 0.91328 7.40821C1.82148 5.21539 3.35955 3.34114 5.33298 2.02249ZM13.2174 6C13.2174 5.44772 12.7697 5 12.2174 5C11.6651 5 11.2174 5.44772 11.2174 6L11.2174 15.205L7.67572 11.9585C7.26861 11.5853 6.63604 11.6128 6.26285 12.0199C5.88965 12.427 5.91716 13.0596 6.32428 13.4328L11.5417 18.2154C11.924 18.5659 12.5108 18.5659 12.8931 18.2154L18.1105 13.4328C18.5176 13.0596 18.5451 12.427 18.1719 12.0199C17.7987 11.6128 17.1662 11.5853 16.7591 11.9585L13.2174 15.205L13.2174 6Z" fill="black" fill-opacity="0.2"/>
<path fill-rule="evenodd" clip-rule="evenodd" d="M5.33298 2.02249C7.3064 0.703832 9.62655 0 12 0C15.1821 0.000473392 18.2338 1.26466 20.4841 3.51461C22.7344 5.76456 23.9991 8.81607 24 11.9982C24.0004 14.3717 23.2969 16.6919 21.9785 18.6655C20.6601 20.6392 18.7861 22.1775 16.5934 23.086C14.4008 23.9946 11.9879 24.2325 9.66002 23.7696C7.33213 23.3068 5.19376 22.1641 3.51536 20.4859C1.83695 18.8078 0.69388 16.6696 0.230713 14.3417C-0.232455 12.0139 0.00508093 9.60103 0.91328 7.40821C1.82148 5.21539 3.35955 3.34114 5.33298 2.02249ZM13.2174 6C13.2174 5.44772 12.7697 5 12.2174 5C11.6651 5 11.2174 5.44772 11.2174 6L11.2174 15.205L7.67572 11.9585C7.26861 11.5853 6.63604 11.6128 6.26285 12.0199C5.88965 12.427 5.91716 13.0596 6.32428 13.4328L11.5417 18.2154C11.924 18.5659 12.5108 18.5659 12.8931 18.2154L18.1105 13.4328C18.5176 13.0596 18.5451 12.427 18.1719 12.0199C17.7987 11.6128 17.1662 11.5853 16.7591 11.9585L13.2174 15.205L13.2174 6Z" fill="black" fill-opacity="0.2"/>
<path fill-rule="evenodd" clip-rule="evenodd" d="M5.33298 2.02249C7.3064 0.703832 9.62655 0 12 0C15.1821 0.000473392 18.2338 1.26466 20.4841 3.51461C22.7344 5.76456 23.9991 8.81607 24 11.9982C24.0004 14.3717 23.2969 16.6919 21.9785 18.6655C20.6601 20.6392 18.7861 22.1775 16.5934 23.086C14.4008 23.9946 11.9879 24.2325 9.66002 23.7696C7.33213 23.3068 5.19376 22.1641 3.51536 20.4859C1.83695 18.8078 0.69388 16.6696 0.230713 14.3417C-0.232455 12.0139 0.00508093 9.60103 0.91328 7.40821C1.82148 5.21539 3.35955 3.34114 5.33298 2.02249ZM13.2174 6C13.2174 5.44772 12.7697 5 12.2174 5C11.6651 5 11.2174 5.44772 11.2174 6L11.2174 15.205L7.67572 11.9585C7.26861 11.5853 6.63604 11.6128 6.26285 12.0199C5.88965 12.427 5.91716 13.0596 6.32428 13.4328L11.5417 18.2154C11.924 18.5659 12.5108 18.5659 12.8931 18.2154L18.1105 13.4328C18.5176 13.0596 18.5451 12.427 18.1719 12.0199C17.7987 11.6128 17.1662 11.5853 16.7591 11.9585L13.2174 15.205L13.2174 6Z" fill="black" fill-opacity="0.2"/>
</g>
<defs>
<clipPath id="clip0_365_947">
<rect width="24" height="24" fill="white"/>
</clipPath>
</defs>
</svg>
