<svg width="24" height="24" viewBox="0 0 24 24" fill="none" xmlns="http://www.w3.org/2000/svg">
<path d="M2.55201 5.1601L3.39871 5.97433L11.1965 13.4731L11.1965 13.4731C11.2505 13.525 11.3069 13.5435 11.3539 13.5437C11.354 13.5437 11.3541 13.5437 11.3542 13.5437H12.6442C12.6443 13.5437 12.6444 13.5437 12.6445 13.5437C12.6917 13.5435 12.7483 13.5249 12.8023 13.4731L2.55201 5.1601ZM2.55201 5.1601L2.55213 6.33478L2.55332 18.208L2.55333 18.2426L2.5581 18.2769C2.5911 18.5139 2.70279 18.7419 2.8879 18.9085M2.55201 5.1601L2.8879 18.9085M2.8879 18.9085C3.06903 19.0715 3.30791 19.1627 3.5597 19.148H20.4403C20.692 19.1627 20.931 19.0715 21.1122 18.9085C21.2974 18.7418 21.4089 18.5137 21.4419 18.2769L21.4467 18.2426V18.208V6.33473V5.16022L20.6001 5.97433L12.8025 13.4729L2.8879 18.9085ZM20.4566 2.50053V2.50065L20.4676 2.50041C20.9737 2.48928 21.4778 2.70651 21.865 3.13041C22.2533 3.55551 22.4876 4.15104 22.5 4.78973V18.2103C22.4876 18.849 22.2533 19.4445 21.865 19.8696C21.4778 20.2935 20.9737 20.5107 20.4676 20.4996L20.4676 20.4995H20.4566H3.54224V20.4994L3.53125 20.4996C3.0252 20.5107 2.52131 20.2935 2.13434 19.8697C1.74622 19.4446 1.51213 18.8489 1.5 18.2104V4.78963C1.51213 4.15108 1.7462 3.55563 2.13434 3.13049C2.52137 2.70657 3.02528 2.48928 3.53125 2.50041L3.53124 2.50053H3.54224H20.4566ZM4.31471 3.83962H3.07653L3.96751 4.69942L11.6516 12.1146L11.9988 12.4496L12.346 12.1146L20.0313 4.69944L20.9224 3.83962H19.6841H4.31471Z" fill="black"/>
<path d="M2.55201 5.1601L3.39871 5.97433L11.1965 13.4731L11.1965 13.4731C11.2505 13.525 11.3069 13.5435 11.3539 13.5437C11.354 13.5437 11.3541 13.5437 11.3542 13.5437H12.6442C12.6443 13.5437 12.6444 13.5437 12.6445 13.5437C12.6917 13.5435 12.7483 13.5249 12.8023 13.4731L2.55201 5.1601ZM2.55201 5.1601L2.55213 6.33478L2.55332 18.208L2.55333 18.2426L2.5581 18.2769C2.5911 18.5139 2.70279 18.7419 2.8879 18.9085M2.55201 5.1601L2.8879 18.9085M2.8879 18.9085C3.06903 19.0715 3.30791 19.1627 3.5597 19.148H20.4403C20.692 19.1627 20.931 19.0715 21.1122 18.9085C21.2974 18.7418 21.4089 18.5137 21.4419 18.2769L21.4467 18.2426V18.208V6.33473V5.16022L20.6001 5.97433L12.8025 13.4729L2.8879 18.9085ZM20.4566 2.50053V2.50065L20.4676 2.50041C20.9737 2.48928 21.4778 2.70651 21.865 3.13041C22.2533 3.55551 22.4876 4.15104 22.5 4.78973V18.2103C22.4876 18.849 22.2533 19.4445 21.865 19.8696C21.4778 20.2935 20.9737 20.5107 20.4676 20.4996L20.4676 20.4995H20.4566H3.54224V20.4994L3.53125 20.4996C3.0252 20.5107 2.52131 20.2935 2.13434 19.8697C1.74622 19.4446 1.51213 18.8489 1.5 18.2104V4.78963C1.51213 4.15108 1.7462 3.55563 2.13434 3.13049C2.52137 2.70657 3.02528 2.48928 3.53125 2.50041L3.53124 2.50053H3.54224H20.4566ZM4.31471 3.83962H3.07653L3.96751 4.69942L11.6516 12.1146L11.9988 12.4496L12.346 12.1146L20.0313 4.69944L20.9224 3.83962H19.6841H4.31471Z" fill="black" fill-opacity="0.2"/>
<path d="M2.55201 5.1601L3.39871 5.97433L11.1965 13.4731L11.1965 13.4731C11.2505 13.525 11.3069 13.5435 11.3539 13.5437C11.354 13.5437 11.3541 13.5437 11.3542 13.5437H12.6442C12.6443 13.5437 12.6444 13.5437 12.6445 13.5437C12.6917 13.5435 12.7483 13.5249 12.8023 13.4731L2.55201 5.1601ZM2.55201 5.1601L2.55213 6.33478L2.55332 18.208L2.55333 18.2426L2.5581 18.2769C2.5911 18.5139 2.70279 18.7419 2.8879 18.9085M2.55201 5.1601L2.8879 18.9085M2.8879 18.9085C3.06903 19.0715 3.30791 19.1627 3.5597 19.148H20.4403C20.692 19.1627 20.931 19.0715 21.1122 18.9085C21.2974 18.7418 21.4089 18.5137 21.4419 18.2769L21.4467 18.2426V18.208V6.33473V5.16022L20.6001 5.97433L12.8025 13.4729L2.8879 18.9085ZM20.4566 2.50053V2.50065L20.4676 2.50041C20.9737 2.48928 21.4778 2.70651 21.865 3.13041C22.2533 3.55551 22.4876 4.15104 22.5 4.78973V18.2103C22.4876 18.849 22.2533 19.4445 21.865 19.8696C21.4778 20.2935 20.9737 20.5107 20.4676 20.4996L20.4676 20.4995H20.4566H3.54224V20.4994L3.53125 20.4996C3.0252 20.5107 2.52131 20.2935 2.13434 19.8697C1.74622 19.4446 1.51213 18.8489 1.5 18.2104V4.78963C1.51213 4.15108 1.7462 3.55563 2.13434 3.13049C2.52137 2.70657 3.02528 2.48928 3.53125 2.50041L3.53124 2.50053H3.54224H20.4566ZM4.31471 3.83962H3.07653L3.96751 4.69942L11.6516 12.1146L11.9988 12.4496L12.346 12.1146L20.0313 4.69944L20.9224 3.83962H19.6841H4.31471Z" fill="black" fill-opacity="0.2"/>
<path d="M2.55201 5.1601L3.39871 5.97433L11.1965 13.4731L11.1965 13.4731C11.2505 13.525 11.3069 13.5435 11.3539 13.5437C11.354 13.5437 11.3541 13.5437 11.3542 13.5437H12.6442C12.6443 13.5437 12.6444 13.5437 12.6445 13.5437C12.6917 13.5435 12.7483 13.5249 12.8023 13.4731L2.55201 5.1601ZM2.55201 5.1601L2.55213 6.33478L2.55332 18.208L2.55333 18.2426L2.5581 18.2769C2.5911 18.5139 2.70279 18.7419 2.8879 18.9085M2.55201 5.1601L2.8879 18.9085M2.8879 18.9085C3.06903 19.0715 3.30791 19.1627 3.5597 19.148H20.4403C20.692 19.1627 20.931 19.0715 21.1122 18.9085C21.2974 18.7418 21.4089 18.5137 21.4419 18.2769L21.4467 18.2426V18.208V6.33473V5.16022L20.6001 5.97433L12.8025 13.4729L2.8879 18.9085ZM20.4566 2.50053V2.50065L20.4676 2.50041C20.9737 2.48928 21.4778 2.70651 21.865 3.13041C22.2533 3.55551 22.4876 4.15104 22.5 4.78973V18.2103C22.4876 18.849 22.2533 19.4445 21.865 19.8696C21.4778 20.2935 20.9737 20.5107 20.4676 20.4996L20.4676 20.4995H20.4566H3.54224V20.4994L3.53125 20.4996C3.0252 20.5107 2.52131 20.2935 2.13434 19.8697C1.74622 19.4446 1.51213 18.8489 1.5 18.2104V4.78963C1.51213 4.15108 1.7462 3.55563 2.13434 3.13049C2.52137 2.70657 3.02528 2.48928 3.53125 2.50041L3.53124 2.50053H3.54224H20.4566ZM4.31471 3.83962H3.07653L3.96751 4.69942L11.6516 12.1146L11.9988 12.4496L12.346 12.1146L20.0313 4.69944L20.9224 3.83962H19.6841H4.31471Z" fill="black" fill-opacity="0.2"/>
<path d="M2.55201 5.1601L3.39871 5.97433L11.1965 13.4731L11.1965 13.4731C11.2505 13.525 11.3069 13.5435 11.3539 13.5437C11.354 13.5437 11.3541 13.5437 11.3542 13.5437H12.6442C12.6443 13.5437 12.6444 13.5437 12.6445 13.5437C12.6917 13.5435 12.7483 13.5249 12.8023 13.4731L2.55201 5.1601ZM2.55201 5.1601L2.55213 6.33478L2.55332 18.208L2.55333 18.2426L2.5581 18.2769C2.5911 18.5139 2.70279 18.7419 2.8879 18.9085M2.55201 5.1601L2.8879 18.9085M2.8879 18.9085C3.06903 19.0715 3.30791 19.1627 3.5597 19.148H20.4403C20.692 19.1627 20.931 19.0715 21.1122 18.9085C21.2974 18.7418 21.4089 18.5137 21.4419 18.2769L21.4467 18.2426V18.208V6.33473V5.16022L20.6001 5.97433L12.8025 13.4729L2.8879 18.9085ZM20.4566 2.50053V2.50065L20.4676 2.50041C20.9737 2.48928 21.4778 2.70651 21.865 3.13041C22.2533 3.55551 22.4876 4.15104 22.5 4.78973V18.2103C22.4876 18.849 22.2533 19.4445 21.865 19.8696C21.4778 20.2935 20.9737 20.5107 20.4676 20.4996L20.4676 20.4995H20.4566H3.54224V20.4994L3.53125 20.4996C3.0252 20.5107 2.52131 20.2935 2.13434 19.8697C1.74622 19.4446 1.51213 18.8489 1.5 18.2104V4.78963C1.51213 4.15108 1.7462 3.55563 2.13434 3.13049C2.52137 2.70657 3.02528 2.48928 3.53125 2.50041L3.53124 2.50053H3.54224H20.4566ZM4.31471 3.83962H3.07653L3.96751 4.69942L11.6516 12.1146L11.9988 12.4496L12.346 12.1146L20.0313 4.69944L20.9224 3.83962H19.6841H4.31471Z" fill="black" fill-opacity="0.2"/>
<path d="M2.55201 5.1601L3.39871 5.97433L11.1965 13.4731L11.1965 13.4731C11.2505 13.525 11.3069 13.5435 11.3539 13.5437C11.354 13.5437 11.3541 13.5437 11.3542 13.5437H12.6442C12.6443 13.5437 12.6444 13.5437 12.6445 13.5437C12.6917 13.5435 12.7483 13.5249 12.8023 13.4731L2.55201 5.1601ZM2.55201 5.1601L2.55213 6.33478L2.55332 18.208L2.55333 18.2426L2.5581 18.2769C2.5911 18.5139 2.70279 18.7419 2.8879 18.9085M2.55201 5.1601L2.8879 18.9085M2.8879 18.9085C3.06903 19.0715 3.30791 19.1627 3.5597 19.148H20.4403C20.692 19.1627 20.931 19.0715 21.1122 18.9085C21.2974 18.7418 21.4089 18.5137 21.4419 18.2769L21.4467 18.2426V18.208V6.33473V5.16022L20.6001 5.97433L12.8025 13.4729L2.8879 18.9085ZM20.4566 2.50053V2.50065L20.4676 2.50041C20.9737 2.48928 21.4778 2.70651 21.865 3.13041C22.2533 3.55551 22.4876 4.15104 22.5 4.78973V18.2103C22.4876 18.849 22.2533 19.4445 21.865 19.8696C21.4778 20.2935 20.9737 20.5107 20.4676 20.4996L20.4676 20.4995H20.4566H3.54224V20.4994L3.53125 20.4996C3.0252 20.5107 2.52131 20.2935 2.13434 19.8697C1.74622 19.4446 1.51213 18.8489 1.5 18.2104V4.78963C1.51213 4.15108 1.7462 3.55563 2.13434 3.13049C2.52137 2.70657 3.02528 2.48928 3.53125 2.50041L3.53124 2.50053H3.54224H20.4566ZM4.31471 3.83962H3.07653L3.96751 4.69942L11.6516 12.1146L11.9988 12.4496L12.346 12.1146L20.0313 4.69944L20.9224 3.83962H19.6841H4.31471Z" fill="black" fill-opacity="0.2"/>
<path d="M2.55201 5.1601L3.39871 5.97433L11.1965 13.4731L11.1965 13.4731C11.2505 13.525 11.3069 13.5435 11.3539 13.5437C11.354 13.5437 11.3541 13.5437 11.3542 13.5437H12.6442C12.6443 13.5437 12.6444 13.5437 12.6445 13.5437C12.6917 13.5435 12.7483 13.5249 12.8023 13.4731L2.55201 5.1601ZM2.55201 5.1601L2.55213 6.33478L2.55332 18.208L2.55333 18.2426L2.5581 18.2769C2.5911 18.5139 2.70279 18.7419 2.8879 18.9085M2.55201 5.1601L2.8879 18.9085M2.8879 18.9085C3.06903 19.0715 3.30791 19.1627 3.5597 19.148H20.4403C20.692 19.1627 20.931 19.0715 21.1122 18.9085C21.2974 18.7418 21.4089 18.5137 21.4419 18.2769L21.4467 18.2426V18.208V6.33473V5.16022L20.6001 5.97433L12.8025 13.4729L2.8879 18.9085ZM20.4566 2.50053V2.50065L20.4676 2.50041C20.9737 2.48928 21.4778 2.70651 21.865 3.13041C22.2533 3.55551 22.4876 4.15104 22.5 4.78973V18.2103C22.4876 18.849 22.2533 19.4445 21.865 19.8696C21.4778 20.2935 20.9737 20.5107 20.4676 20.4996L20.4676 20.4995H20.4566H3.54224V20.4994L3.53125 20.4996C3.0252 20.5107 2.52131 20.2935 2.13434 19.8697C1.74622 19.4446 1.51213 18.8489 1.5 18.2104V4.78963C1.51213 4.15108 1.7462 3.55563 2.13434 3.13049C2.52137 2.70657 3.02528 2.48928 3.53125 2.50041L3.53124 2.50053H3.54224H20.4566ZM4.31471 3.83962H3.07653L3.96751 4.69942L11.6516 12.1146L11.9988 12.4496L12.346 12.1146L20.0313 4.69944L20.9224 3.83962H19.6841H4.31471Z" fill="black" fill-opacity="0.2"/>
<path d="M2.55201 5.1601L3.39871 5.97433L11.1965 13.4731L11.1965 13.4731C11.2505 13.525 11.3069 13.5435 11.3539 13.5437C11.354 13.5437 11.3541 13.5437 11.3542 13.5437H12.6442C12.6443 13.5437 12.6444 13.5437 12.6445 13.5437C12.6917 13.5435 12.7483 13.5249 12.8023 13.4731L2.55201 5.1601ZM2.55201 5.1601L2.55213 6.33478L2.55332 18.208L2.55333 18.2426L2.5581 18.2769C2.5911 18.5139 2.70279 18.7419 2.8879 18.9085M2.55201 5.1601L2.8879 18.9085M2.8879 18.9085C3.06903 19.0715 3.30791 19.1627 3.5597 19.148H20.4403C20.692 19.1627 20.931 19.0715 21.1122 18.9085C21.2974 18.7418 21.4089 18.5137 21.4419 18.2769L21.4467 18.2426V18.208V6.33473V5.16022L20.6001 5.97433L12.8025 13.4729L2.8879 18.9085ZM20.4566 2.50053V2.50065L20.4676 2.50041C20.9737 2.48928 21.4778 2.70651 21.865 3.13041C22.2533 3.55551 22.4876 4.15104 22.5 4.78973V18.2103C22.4876 18.849 22.2533 19.4445 21.865 19.8696C21.4778 20.2935 20.9737 20.5107 20.4676 20.4996L20.4676 20.4995H20.4566H3.54224V20.4994L3.53125 20.4996C3.0252 20.5107 2.52131 20.2935 2.13434 19.8697C1.74622 19.4446 1.51213 18.8489 1.5 18.2104V4.78963C1.51213 4.15108 1.7462 3.55563 2.13434 3.13049C2.52137 2.70657 3.02528 2.48928 3.53125 2.50041L3.53124 2.50053H3.54224H20.4566ZM4.31471 3.83962H3.07653L3.96751 4.69942L11.6516 12.1146L11.9988 12.4496L12.346 12.1146L20.0313 4.69944L20.9224 3.83962H19.6841H4.31471Z" fill="black" fill-opacity="0.2"/>
<path d="M2.55201 5.1601L3.39871 5.97433L11.1965 13.4731L11.1965 13.4731C11.2505 13.525 11.3069 13.5435 11.3539 13.5437C11.354 13.5437 11.3541 13.5437 11.3542 13.5437H12.6442C12.6443 13.5437 12.6444 13.5437 12.6445 13.5437C12.6917 13.5435 12.7483 13.5249 12.8023 13.4731L2.55201 5.1601ZM2.55201 5.1601L2.55213 6.33478L2.55332 18.208L2.55333 18.2426L2.5581 18.2769C2.5911 18.5139 2.70279 18.7419 2.8879 18.9085M2.55201 5.1601L2.8879 18.9085M2.8879 18.9085C3.06903 19.0715 3.30791 19.1627 3.5597 19.148H20.4403C20.692 19.1627 20.931 19.0715 21.1122 18.9085C21.2974 18.7418 21.4089 18.5137 21.4419 18.2769L21.4467 18.2426V18.208V6.33473V5.16022L20.6001 5.97433L12.8025 13.4729L2.8879 18.9085ZM20.4566 2.50053V2.50065L20.4676 2.50041C20.9737 2.48928 21.4778 2.70651 21.865 3.13041C22.2533 3.55551 22.4876 4.15104 22.5 4.78973V18.2103C22.4876 18.849 22.2533 19.4445 21.865 19.8696C21.4778 20.2935 20.9737 20.5107 20.4676 20.4996L20.4676 20.4995H20.4566H3.54224V20.4994L3.53125 20.4996C3.0252 20.5107 2.52131 20.2935 2.13434 19.8697C1.74622 19.4446 1.51213 18.8489 1.5 18.2104V4.78963C1.51213 4.15108 1.7462 3.55563 2.13434 3.13049C2.52137 2.70657 3.02528 2.48928 3.53125 2.50041L3.53124 2.50053H3.54224H20.4566ZM4.31471 3.83962H3.07653L3.96751 4.69942L11.6516 12.1146L11.9988 12.4496L12.346 12.1146L20.0313 4.69944L20.9224 3.83962H19.6841H4.31471Z" fill="black" fill-opacity="0.2"/>
<path d="M2.55201 5.1601L3.39871 5.97433L11.1965 13.4731L11.1965 13.4731C11.2505 13.525 11.3069 13.5435 11.3539 13.5437C11.354 13.5437 11.3541 13.5437 11.3542 13.5437H12.6442C12.6443 13.5437 12.6444 13.5437 12.6445 13.5437C12.6917 13.5435 12.7483 13.5249 12.8023 13.4731L2.55201 5.1601ZM2.55201 5.1601L2.55213 6.33478L2.55332 18.208L2.55333 18.2426L2.5581 18.2769C2.5911 18.5139 2.70279 18.7419 2.8879 18.9085M2.55201 5.1601L2.8879 18.9085M2.8879 18.9085C3.06903 19.0715 3.30791 19.1627 3.5597 19.148H20.4403C20.692 19.1627 20.931 19.0715 21.1122 18.9085C21.2974 18.7418 21.4089 18.5137 21.4419 18.2769L21.4467 18.2426V18.208V6.33473V5.16022L20.6001 5.97433L12.8025 13.4729L2.8879 18.9085ZM20.4566 2.50053V2.50065L20.4676 2.50041C20.9737 2.48928 21.4778 2.70651 21.865 3.13041C22.2533 3.55551 22.4876 4.15104 22.5 4.78973V18.2103C22.4876 18.849 22.2533 19.4445 21.865 19.8696C21.4778 20.2935 20.9737 20.5107 20.4676 20.4996L20.4676 20.4995H20.4566H3.54224V20.4994L3.53125 20.4996C3.0252 20.5107 2.52131 20.2935 2.13434 19.8697C1.74622 19.4446 1.51213 18.8489 1.5 18.2104V4.78963C1.51213 4.15108 1.7462 3.55563 2.13434 3.13049C2.52137 2.70657 3.02528 2.48928 3.53125 2.50041L3.53124 2.50053H3.54224H20.4566ZM4.31471 3.83962H3.07653L3.96751 4.69942L11.6516 12.1146L11.9988 12.4496L12.346 12.1146L20.0313 4.69944L20.9224 3.83962H19.6841H4.31471Z" fill="black" fill-opacity="0.2"/>
<path d="M2.55201 5.1601L3.39871 5.97433L11.1965 13.4731L11.1965 13.4731C11.2505 13.525 11.3069 13.5435 11.3539 13.5437C11.354 13.5437 11.3541 13.5437 11.3542 13.5437H12.6442C12.6443 13.5437 12.6444 13.5437 12.6445 13.5437C12.6917 13.5435 12.7483 13.5249 12.8023 13.4731L2.55201 5.1601ZM2.55201 5.1601L2.55213 6.33478L2.55332 18.208L2.55333 18.2426L2.5581 18.2769C2.5911 18.5139 2.70279 18.7419 2.8879 18.9085M2.55201 5.1601L2.8879 18.9085M2.8879 18.9085C3.06903 19.0715 3.30791 19.1627 3.5597 19.148H20.4403C20.692 19.1627 20.931 19.0715 21.1122 18.9085C21.2974 18.7418 21.4089 18.5137 21.4419 18.2769L21.4467 18.2426V18.208V6.33473V5.16022L20.6001 5.97433L12.8025 13.4729L2.8879 18.9085ZM20.4566 2.50053V2.50065L20.4676 2.50041C20.9737 2.48928 21.4778 2.70651 21.865 3.13041C22.2533 3.55551 22.4876 4.15104 22.5 4.78973V18.2103C22.4876 18.849 22.2533 19.4445 21.865 19.8696C21.4778 20.2935 20.9737 20.5107 20.4676 20.4996L20.4676 20.4995H20.4566H3.54224V20.4994L3.53125 20.4996C3.0252 20.5107 2.52131 20.2935 2.13434 19.8697C1.74622 19.4446 1.51213 18.8489 1.5 18.2104V4.78963C1.51213 4.15108 1.7462 3.55563 2.13434 3.13049C2.52137 2.70657 3.02528 2.48928 3.53125 2.50041L3.53124 2.50053H3.54224H20.4566ZM4.31471 3.83962H3.07653L3.96751 4.69942L11.6516 12.1146L11.9988 12.4496L12.346 12.1146L20.0313 4.69944L20.9224 3.83962H19.6841H4.31471Z" stroke="black"/>
<path d="M2.55201 5.1601L3.39871 5.97433L11.1965 13.4731L11.1965 13.4731C11.2505 13.525 11.3069 13.5435 11.3539 13.5437C11.354 13.5437 11.3541 13.5437 11.3542 13.5437H12.6442C12.6443 13.5437 12.6444 13.5437 12.6445 13.5437C12.6917 13.5435 12.7483 13.5249 12.8023 13.4731L2.55201 5.1601ZM2.55201 5.1601L2.55213 6.33478L2.55332 18.208L2.55333 18.2426L2.5581 18.2769C2.5911 18.5139 2.70279 18.7419 2.8879 18.9085M2.55201 5.1601L2.8879 18.9085M2.8879 18.9085C3.06903 19.0715 3.30791 19.1627 3.5597 19.148H20.4403C20.692 19.1627 20.931 19.0715 21.1122 18.9085C21.2974 18.7418 21.4089 18.5137 21.4419 18.2769L21.4467 18.2426V18.208V6.33473V5.16022L20.6001 5.97433L12.8025 13.4729L2.8879 18.9085ZM20.4566 2.50053V2.50065L20.4676 2.50041C20.9737 2.48928 21.4778 2.70651 21.865 3.13041C22.2533 3.55551 22.4876 4.15104 22.5 4.78973V18.2103C22.4876 18.849 22.2533 19.4445 21.865 19.8696C21.4778 20.2935 20.9737 20.5107 20.4676 20.4996L20.4676 20.4995H20.4566H3.54224V20.4994L3.53125 20.4996C3.0252 20.5107 2.52131 20.2935 2.13434 19.8697C1.74622 19.4446 1.51213 18.8489 1.5 18.2104V4.78963C1.51213 4.15108 1.7462 3.55563 2.13434 3.13049C2.52137 2.70657 3.02528 2.48928 3.53125 2.50041L3.53124 2.50053H3.54224H20.4566ZM4.31471 3.83962H3.07653L3.96751 4.69942L11.6516 12.1146L11.9988 12.4496L12.346 12.1146L20.0313 4.69944L20.9224 3.83962H19.6841H4.31471Z" stroke="black" stroke-opacity="0.2"/>
<path d="M2.55201 5.1601L3.39871 5.97433L11.1965 13.4731L11.1965 13.4731C11.2505 13.525 11.3069 13.5435 11.3539 13.5437C11.354 13.5437 11.3541 13.5437 11.3542 13.5437H12.6442C12.6443 13.5437 12.6444 13.5437 12.6445 13.5437C12.6917 13.5435 12.7483 13.5249 12.8023 13.4731L2.55201 5.1601ZM2.55201 5.1601L2.55213 6.33478L2.55332 18.208L2.55333 18.2426L2.5581 18.2769C2.5911 18.5139 2.70279 18.7419 2.8879 18.9085M2.55201 5.1601L2.8879 18.9085M2.8879 18.9085C3.06903 19.0715 3.30791 19.1627 3.5597 19.148H20.4403C20.692 19.1627 20.931 19.0715 21.1122 18.9085C21.2974 18.7418 21.4089 18.5137 21.4419 18.2769L21.4467 18.2426V18.208V6.33473V5.16022L20.6001 5.97433L12.8025 13.4729L2.8879 18.9085ZM20.4566 2.50053V2.50065L20.4676 2.50041C20.9737 2.48928 21.4778 2.70651 21.865 3.13041C22.2533 3.55551 22.4876 4.15104 22.5 4.78973V18.2103C22.4876 18.849 22.2533 19.4445 21.865 19.8696C21.4778 20.2935 20.9737 20.5107 20.4676 20.4996L20.4676 20.4995H20.4566H3.54224V20.4994L3.53125 20.4996C3.0252 20.5107 2.52131 20.2935 2.13434 19.8697C1.74622 19.4446 1.51213 18.8489 1.5 18.2104V4.78963C1.51213 4.15108 1.7462 3.55563 2.13434 3.13049C2.52137 2.70657 3.02528 2.48928 3.53125 2.50041L3.53124 2.50053H3.54224H20.4566ZM4.31471 3.83962H3.07653L3.96751 4.69942L11.6516 12.1146L11.9988 12.4496L12.346 12.1146L20.0313 4.69944L20.9224 3.83962H19.6841H4.31471Z" stroke="black" stroke-opacity="0.2"/>
<path d="M2.55201 5.1601L3.39871 5.97433L11.1965 13.4731L11.1965 13.4731C11.2505 13.525 11.3069 13.5435 11.3539 13.5437C11.354 13.5437 11.3541 13.5437 11.3542 13.5437H12.6442C12.6443 13.5437 12.6444 13.5437 12.6445 13.5437C12.6917 13.5435 12.7483 13.5249 12.8023 13.4731L2.55201 5.1601ZM2.55201 5.1601L2.55213 6.33478L2.55332 18.208L2.55333 18.2426L2.5581 18.2769C2.5911 18.5139 2.70279 18.7419 2.8879 18.9085M2.55201 5.1601L2.8879 18.9085M2.8879 18.9085C3.06903 19.0715 3.30791 19.1627 3.5597 19.148H20.4403C20.692 19.1627 20.931 19.0715 21.1122 18.9085C21.2974 18.7418 21.4089 18.5137 21.4419 18.2769L21.4467 18.2426V18.208V6.33473V5.16022L20.6001 5.97433L12.8025 13.4729L2.8879 18.9085ZM20.4566 2.50053V2.50065L20.4676 2.50041C20.9737 2.48928 21.4778 2.70651 21.865 3.13041C22.2533 3.55551 22.4876 4.15104 22.5 4.78973V18.2103C22.4876 18.849 22.2533 19.4445 21.865 19.8696C21.4778 20.2935 20.9737 20.5107 20.4676 20.4996L20.4676 20.4995H20.4566H3.54224V20.4994L3.53125 20.4996C3.0252 20.5107 2.52131 20.2935 2.13434 19.8697C1.74622 19.4446 1.51213 18.8489 1.5 18.2104V4.78963C1.51213 4.15108 1.7462 3.55563 2.13434 3.13049C2.52137 2.70657 3.02528 2.48928 3.53125 2.50041L3.53124 2.50053H3.54224H20.4566ZM4.31471 3.83962H3.07653L3.96751 4.69942L11.6516 12.1146L11.9988 12.4496L12.346 12.1146L20.0313 4.69944L20.9224 3.83962H19.6841H4.31471Z" stroke="black" stroke-opacity="0.2"/>
<path d="M2.55201 5.1601L3.39871 5.97433L11.1965 13.4731L11.1965 13.4731C11.2505 13.525 11.3069 13.5435 11.3539 13.5437C11.354 13.5437 11.3541 13.5437 11.3542 13.5437H12.6442C12.6443 13.5437 12.6444 13.5437 12.6445 13.5437C12.6917 13.5435 12.7483 13.5249 12.8023 13.4731L2.55201 5.1601ZM2.55201 5.1601L2.55213 6.33478L2.55332 18.208L2.55333 18.2426L2.5581 18.2769C2.5911 18.5139 2.70279 18.7419 2.8879 18.9085M2.55201 5.1601L2.8879 18.9085M2.8879 18.9085C3.06903 19.0715 3.30791 19.1627 3.5597 19.148H20.4403C20.692 19.1627 20.931 19.0715 21.1122 18.9085C21.2974 18.7418 21.4089 18.5137 21.4419 18.2769L21.4467 18.2426V18.208V6.33473V5.16022L20.6001 5.97433L12.8025 13.4729L2.8879 18.9085ZM20.4566 2.50053V2.50065L20.4676 2.50041C20.9737 2.48928 21.4778 2.70651 21.865 3.13041C22.2533 3.55551 22.4876 4.15104 22.5 4.78973V18.2103C22.4876 18.849 22.2533 19.4445 21.865 19.8696C21.4778 20.2935 20.9737 20.5107 20.4676 20.4996L20.4676 20.4995H20.4566H3.54224V20.4994L3.53125 20.4996C3.0252 20.5107 2.52131 20.2935 2.13434 19.8697C1.74622 19.4446 1.51213 18.8489 1.5 18.2104V4.78963C1.51213 4.15108 1.7462 3.55563 2.13434 3.13049C2.52137 2.70657 3.02528 2.48928 3.53125 2.50041L3.53124 2.50053H3.54224H20.4566ZM4.31471 3.83962H3.07653L3.96751 4.69942L11.6516 12.1146L11.9988 12.4496L12.346 12.1146L20.0313 4.69944L20.9224 3.83962H19.6841H4.31471Z" stroke="black" stroke-opacity="0.2"/>
<path d="M2.55201 5.1601L3.39871 5.97433L11.1965 13.4731L11.1965 13.4731C11.2505 13.525 11.3069 13.5435 11.3539 13.5437C11.354 13.5437 11.3541 13.5437 11.3542 13.5437H12.6442C12.6443 13.5437 12.6444 13.5437 12.6445 13.5437C12.6917 13.5435 12.7483 13.5249 12.8023 13.4731L2.55201 5.1601ZM2.55201 5.1601L2.55213 6.33478L2.55332 18.208L2.55333 18.2426L2.5581 18.2769C2.5911 18.5139 2.70279 18.7419 2.8879 18.9085M2.55201 5.1601L2.8879 18.9085M2.8879 18.9085C3.06903 19.0715 3.30791 19.1627 3.5597 19.148H20.4403C20.692 19.1627 20.931 19.0715 21.1122 18.9085C21.2974 18.7418 21.4089 18.5137 21.4419 18.2769L21.4467 18.2426V18.208V6.33473V5.16022L20.6001 5.97433L12.8025 13.4729L2.8879 18.9085ZM20.4566 2.50053V2.50065L20.4676 2.50041C20.9737 2.48928 21.4778 2.70651 21.865 3.13041C22.2533 3.55551 22.4876 4.15104 22.5 4.78973V18.2103C22.4876 18.849 22.2533 19.4445 21.865 19.8696C21.4778 20.2935 20.9737 20.5107 20.4676 20.4996L20.4676 20.4995H20.4566H3.54224V20.4994L3.53125 20.4996C3.0252 20.5107 2.52131 20.2935 2.13434 19.8697C1.74622 19.4446 1.51213 18.8489 1.5 18.2104V4.78963C1.51213 4.15108 1.7462 3.55563 2.13434 3.13049C2.52137 2.70657 3.02528 2.48928 3.53125 2.50041L3.53124 2.50053H3.54224H20.4566ZM4.31471 3.83962H3.07653L3.96751 4.69942L11.6516 12.1146L11.9988 12.4496L12.346 12.1146L20.0313 4.69944L20.9224 3.83962H19.6841H4.31471Z" stroke="black" stroke-opacity="0.2"/>
<path d="M2.55201 5.1601L3.39871 5.97433L11.1965 13.4731L11.1965 13.4731C11.2505 13.525 11.3069 13.5435 11.3539 13.5437C11.354 13.5437 11.3541 13.5437 11.3542 13.5437H12.6442C12.6443 13.5437 12.6444 13.5437 12.6445 13.5437C12.6917 13.5435 12.7483 13.5249 12.8023 13.4731L2.55201 5.1601ZM2.55201 5.1601L2.55213 6.33478L2.55332 18.208L2.55333 18.2426L2.5581 18.2769C2.5911 18.5139 2.70279 18.7419 2.8879 18.9085M2.55201 5.1601L2.8879 18.9085M2.8879 18.9085C3.06903 19.0715 3.30791 19.1627 3.5597 19.148H20.4403C20.692 19.1627 20.931 19.0715 21.1122 18.9085C21.2974 18.7418 21.4089 18.5137 21.4419 18.2769L21.4467 18.2426V18.208V6.33473V5.16022L20.6001 5.97433L12.8025 13.4729L2.8879 18.9085ZM20.4566 2.50053V2.50065L20.4676 2.50041C20.9737 2.48928 21.4778 2.70651 21.865 3.13041C22.2533 3.55551 22.4876 4.15104 22.5 4.78973V18.2103C22.4876 18.849 22.2533 19.4445 21.865 19.8696C21.4778 20.2935 20.9737 20.5107 20.4676 20.4996L20.4676 20.4995H20.4566H3.54224V20.4994L3.53125 20.4996C3.0252 20.5107 2.52131 20.2935 2.13434 19.8697C1.74622 19.4446 1.51213 18.8489 1.5 18.2104V4.78963C1.51213 4.15108 1.7462 3.55563 2.13434 3.13049C2.52137 2.70657 3.02528 2.48928 3.53125 2.50041L3.53124 2.50053H3.54224H20.4566ZM4.31471 3.83962H3.07653L3.96751 4.69942L11.6516 12.1146L11.9988 12.4496L12.346 12.1146L20.0313 4.69944L20.9224 3.83962H19.6841H4.31471Z" stroke="black" stroke-opacity="0.2"/>
<path d="M2.55201 5.1601L3.39871 5.97433L11.1965 13.4731L11.1965 13.4731C11.2505 13.525 11.3069 13.5435 11.3539 13.5437C11.354 13.5437 11.3541 13.5437 11.3542 13.5437H12.6442C12.6443 13.5437 12.6444 13.5437 12.6445 13.5437C12.6917 13.5435 12.7483 13.5249 12.8023 13.4731L2.55201 5.1601ZM2.55201 5.1601L2.55213 6.33478L2.55332 18.208L2.55333 18.2426L2.5581 18.2769C2.5911 18.5139 2.70279 18.7419 2.8879 18.9085M2.55201 5.1601L2.8879 18.9085M2.8879 18.9085C3.06903 19.0715 3.30791 19.1627 3.5597 19.148H20.4403C20.692 19.1627 20.931 19.0715 21.1122 18.9085C21.2974 18.7418 21.4089 18.5137 21.4419 18.2769L21.4467 18.2426V18.208V6.33473V5.16022L20.6001 5.97433L12.8025 13.4729L2.8879 18.9085ZM20.4566 2.50053V2.50065L20.4676 2.50041C20.9737 2.48928 21.4778 2.70651 21.865 3.13041C22.2533 3.55551 22.4876 4.15104 22.5 4.78973V18.2103C22.4876 18.849 22.2533 19.4445 21.865 19.8696C21.4778 20.2935 20.9737 20.5107 20.4676 20.4996L20.4676 20.4995H20.4566H3.54224V20.4994L3.53125 20.4996C3.0252 20.5107 2.52131 20.2935 2.13434 19.8697C1.74622 19.4446 1.51213 18.8489 1.5 18.2104V4.78963C1.51213 4.15108 1.7462 3.55563 2.13434 3.13049C2.52137 2.70657 3.02528 2.48928 3.53125 2.50041L3.53124 2.50053H3.54224H20.4566ZM4.31471 3.83962H3.07653L3.96751 4.69942L11.6516 12.1146L11.9988 12.4496L12.346 12.1146L20.0313 4.69944L20.9224 3.83962H19.6841H4.31471Z" stroke="black" stroke-opacity="0.2"/>
<path d="M2.55201 5.1601L3.39871 5.97433L11.1965 13.4731L11.1965 13.4731C11.2505 13.525 11.3069 13.5435 11.3539 13.5437C11.354 13.5437 11.3541 13.5437 11.3542 13.5437H12.6442C12.6443 13.5437 12.6444 13.5437 12.6445 13.5437C12.6917 13.5435 12.7483 13.5249 12.8023 13.4731L2.55201 5.1601ZM2.55201 5.1601L2.55213 6.33478L2.55332 18.208L2.55333 18.2426L2.5581 18.2769C2.5911 18.5139 2.70279 18.7419 2.8879 18.9085M2.55201 5.1601L2.8879 18.9085M2.8879 18.9085C3.06903 19.0715 3.30791 19.1627 3.5597 19.148H20.4403C20.692 19.1627 20.931 19.0715 21.1122 18.9085C21.2974 18.7418 21.4089 18.5137 21.4419 18.2769L21.4467 18.2426V18.208V6.33473V5.16022L20.6001 5.97433L12.8025 13.4729L2.8879 18.9085ZM20.4566 2.50053V2.50065L20.4676 2.50041C20.9737 2.48928 21.4778 2.70651 21.865 3.13041C22.2533 3.55551 22.4876 4.15104 22.5 4.78973V18.2103C22.4876 18.849 22.2533 19.4445 21.865 19.8696C21.4778 20.2935 20.9737 20.5107 20.4676 20.4996L20.4676 20.4995H20.4566H3.54224V20.4994L3.53125 20.4996C3.0252 20.5107 2.52131 20.2935 2.13434 19.8697C1.74622 19.4446 1.51213 18.8489 1.5 18.2104V4.78963C1.51213 4.15108 1.7462 3.55563 2.13434 3.13049C2.52137 2.70657 3.02528 2.48928 3.53125 2.50041L3.53124 2.50053H3.54224H20.4566ZM4.31471 3.83962H3.07653L3.96751 4.69942L11.6516 12.1146L11.9988 12.4496L12.346 12.1146L20.0313 4.69944L20.9224 3.83962H19.6841H4.31471Z" stroke="black" stroke-opacity="0.2"/>
<path d="M2.55201 5.1601L3.39871 5.97433L11.1965 13.4731L11.1965 13.4731C11.2505 13.525 11.3069 13.5435 11.3539 13.5437C11.354 13.5437 11.3541 13.5437 11.3542 13.5437H12.6442C12.6443 13.5437 12.6444 13.5437 12.6445 13.5437C12.6917 13.5435 12.7483 13.5249 12.8023 13.4731L2.55201 5.1601ZM2.55201 5.1601L2.55213 6.33478L2.55332 18.208L2.55333 18.2426L2.5581 18.2769C2.5911 18.5139 2.70279 18.7419 2.8879 18.9085M2.55201 5.1601L2.8879 18.9085M2.8879 18.9085C3.06903 19.0715 3.30791 19.1627 3.5597 19.148H20.4403C20.692 19.1627 20.931 19.0715 21.1122 18.9085C21.2974 18.7418 21.4089 18.5137 21.4419 18.2769L21.4467 18.2426V18.208V6.33473V5.16022L20.6001 5.97433L12.8025 13.4729L2.8879 18.9085ZM20.4566 2.50053V2.50065L20.4676 2.50041C20.9737 2.48928 21.4778 2.70651 21.865 3.13041C22.2533 3.55551 22.4876 4.15104 22.5 4.78973V18.2103C22.4876 18.849 22.2533 19.4445 21.865 19.8696C21.4778 20.2935 20.9737 20.5107 20.4676 20.4996L20.4676 20.4995H20.4566H3.54224V20.4994L3.53125 20.4996C3.0252 20.5107 2.52131 20.2935 2.13434 19.8697C1.74622 19.4446 1.51213 18.8489 1.5 18.2104V4.78963C1.51213 4.15108 1.7462 3.55563 2.13434 3.13049C2.52137 2.70657 3.02528 2.48928 3.53125 2.50041L3.53124 2.50053H3.54224H20.4566ZM4.31471 3.83962H3.07653L3.96751 4.69942L11.6516 12.1146L11.9988 12.4496L12.346 12.1146L20.0313 4.69944L20.9224 3.83962H19.6841H4.31471Z" stroke="black" stroke-opacity="0.2"/>
</svg>
