<svg width="32" height="32" viewBox="0 0 32 32" fill="none" xmlns="http://www.w3.org/2000/svg">
<g clip-path="url(#clip0_300_155)">
<path d="M27.3091 4.68168C24.6906 2.06531 21.2459 0.437801 17.5619 0.0764458C13.878 -0.28491 10.1827 0.642253 7.10571 2.69996C4.02872 4.75767 1.76037 7.8186 0.687186 11.3612C-0.385999 14.9039 -0.197599 18.709 1.22021 22.1284C2.63802 25.5477 5.19753 28.3697 8.4627 30.1134C11.7279 31.8572 15.4967 32.4149 19.1269 31.6915C22.7571 30.968 26.0242 29.0083 28.3715 26.1461C30.7189 23.2839 32.0012 19.6964 32 15.9947C32.0018 13.893 31.5883 11.8116 30.7833 9.87017C29.9783 7.92872 28.7976 6.16545 27.3091 4.68168ZM26.0026 24.4783C24.0065 25.0153 15.996 25.0152 15.996 25.0152C15.996 25.0152 7.98753 25.0153 5.98941 24.4783C5.44481 24.3316 4.94849 24.0439 4.55055 23.6442C4.15261 23.2445 3.86712 22.7469 3.7228 22.2017C3.01328 18.0945 3.01328 13.896 3.7228 9.78879C3.86786 9.24391 4.15363 8.74676 4.55146 8.34718C4.94929 7.94761 5.44518 7.65964 5.98941 7.51219C7.98554 6.97523 15.996 6.97524 15.996 6.97524C15.996 6.97524 24.0045 6.97523 26.0026 7.51219C26.5458 7.66059 27.0406 7.94893 27.4374 8.34843C27.8343 8.74793 28.1194 9.2446 28.2642 9.78879C28.9801 13.8955 28.9801 18.095 28.2642 22.2017C28.12 22.7461 27.8351 23.2429 27.4381 23.6424C27.0411 24.0418 26.5461 24.3307 26.0026 24.4783Z" fill="black"/>
<path d="M27.3091 4.68168C24.6906 2.06531 21.2459 0.437801 17.5619 0.0764458C13.878 -0.28491 10.1827 0.642253 7.10571 2.69996C4.02872 4.75767 1.76037 7.8186 0.687186 11.3612C-0.385999 14.9039 -0.197599 18.709 1.22021 22.1284C2.63802 25.5477 5.19753 28.3697 8.4627 30.1134C11.7279 31.8572 15.4967 32.4149 19.1269 31.6915C22.7571 30.968 26.0242 29.0083 28.3715 26.1461C30.7189 23.2839 32.0012 19.6964 32 15.9947C32.0018 13.893 31.5883 11.8116 30.7833 9.87017C29.9783 7.92872 28.7976 6.16545 27.3091 4.68168ZM26.0026 24.4783C24.0065 25.0153 15.996 25.0152 15.996 25.0152C15.996 25.0152 7.98753 25.0153 5.98941 24.4783C5.44481 24.3316 4.94849 24.0439 4.55055 23.6442C4.15261 23.2445 3.86712 22.7469 3.7228 22.2017C3.01328 18.0945 3.01328 13.896 3.7228 9.78879C3.86786 9.24391 4.15363 8.74676 4.55146 8.34718C4.94929 7.94761 5.44518 7.65964 5.98941 7.51219C7.98554 6.97523 15.996 6.97524 15.996 6.97524C15.996 6.97524 24.0045 6.97523 26.0026 7.51219C26.5458 7.66059 27.0406 7.94893 27.4374 8.34843C27.8343 8.74793 28.1194 9.2446 28.2642 9.78879C28.9801 13.8955 28.9801 18.095 28.2642 22.2017C28.12 22.7461 27.8351 23.2429 27.4381 23.6424C27.0411 24.0418 26.5461 24.3307 26.0026 24.4783Z" fill="black" fill-opacity="0.2"/>
<path d="M27.3091 4.68168C24.6906 2.06531 21.2459 0.437801 17.5619 0.0764458C13.878 -0.28491 10.1827 0.642253 7.10571 2.69996C4.02872 4.75767 1.76037 7.8186 0.687186 11.3612C-0.385999 14.9039 -0.197599 18.709 1.22021 22.1284C2.63802 25.5477 5.19753 28.3697 8.4627 30.1134C11.7279 31.8572 15.4967 32.4149 19.1269 31.6915C22.7571 30.968 26.0242 29.0083 28.3715 26.1461C30.7189 23.2839 32.0012 19.6964 32 15.9947C32.0018 13.893 31.5883 11.8116 30.7833 9.87017C29.9783 7.92872 28.7976 6.16545 27.3091 4.68168ZM26.0026 24.4783C24.0065 25.0153 15.996 25.0152 15.996 25.0152C15.996 25.0152 7.98753 25.0153 5.98941 24.4783C5.44481 24.3316 4.94849 24.0439 4.55055 23.6442C4.15261 23.2445 3.86712 22.7469 3.7228 22.2017C3.01328 18.0945 3.01328 13.896 3.7228 9.78879C3.86786 9.24391 4.15363 8.74676 4.55146 8.34718C4.94929 7.94761 5.44518 7.65964 5.98941 7.51219C7.98554 6.97523 15.996 6.97524 15.996 6.97524C15.996 6.97524 24.0045 6.97523 26.0026 7.51219C26.5458 7.66059 27.0406 7.94893 27.4374 8.34843C27.8343 8.74793 28.1194 9.2446 28.2642 9.78879C28.9801 13.8955 28.9801 18.095 28.2642 22.2017C28.12 22.7461 27.8351 23.2429 27.4381 23.6424C27.0411 24.0418 26.5461 24.3307 26.0026 24.4783Z" fill="black" fill-opacity="0.2"/>
<path d="M27.3091 4.68168C24.6906 2.06531 21.2459 0.437801 17.5619 0.0764458C13.878 -0.28491 10.1827 0.642253 7.10571 2.69996C4.02872 4.75767 1.76037 7.8186 0.687186 11.3612C-0.385999 14.9039 -0.197599 18.709 1.22021 22.1284C2.63802 25.5477 5.19753 28.3697 8.4627 30.1134C11.7279 31.8572 15.4967 32.4149 19.1269 31.6915C22.7571 30.968 26.0242 29.0083 28.3715 26.1461C30.7189 23.2839 32.0012 19.6964 32 15.9947C32.0018 13.893 31.5883 11.8116 30.7833 9.87017C29.9783 7.92872 28.7976 6.16545 27.3091 4.68168ZM26.0026 24.4783C24.0065 25.0153 15.996 25.0152 15.996 25.0152C15.996 25.0152 7.98753 25.0153 5.98941 24.4783C5.44481 24.3316 4.94849 24.0439 4.55055 23.6442C4.15261 23.2445 3.86712 22.7469 3.7228 22.2017C3.01328 18.0945 3.01328 13.896 3.7228 9.78879C3.86786 9.24391 4.15363 8.74676 4.55146 8.34718C4.94929 7.94761 5.44518 7.65964 5.98941 7.51219C7.98554 6.97523 15.996 6.97524 15.996 6.97524C15.996 6.97524 24.0045 6.97523 26.0026 7.51219C26.5458 7.66059 27.0406 7.94893 27.4374 8.34843C27.8343 8.74793 28.1194 9.2446 28.2642 9.78879C28.9801 13.8955 28.9801 18.095 28.2642 22.2017C28.12 22.7461 27.8351 23.2429 27.4381 23.6424C27.0411 24.0418 26.5461 24.3307 26.0026 24.4783Z" fill="black" fill-opacity="0.2"/>
<path d="M27.3091 4.68168C24.6906 2.06531 21.2459 0.437801 17.5619 0.0764458C13.878 -0.28491 10.1827 0.642253 7.10571 2.69996C4.02872 4.75767 1.76037 7.8186 0.687186 11.3612C-0.385999 14.9039 -0.197599 18.709 1.22021 22.1284C2.63802 25.5477 5.19753 28.3697 8.4627 30.1134C11.7279 31.8572 15.4967 32.4149 19.1269 31.6915C22.7571 30.968 26.0242 29.0083 28.3715 26.1461C30.7189 23.2839 32.0012 19.6964 32 15.9947C32.0018 13.893 31.5883 11.8116 30.7833 9.87017C29.9783 7.92872 28.7976 6.16545 27.3091 4.68168ZM26.0026 24.4783C24.0065 25.0153 15.996 25.0152 15.996 25.0152C15.996 25.0152 7.98753 25.0153 5.98941 24.4783C5.44481 24.3316 4.94849 24.0439 4.55055 23.6442C4.15261 23.2445 3.86712 22.7469 3.7228 22.2017C3.01328 18.0945 3.01328 13.896 3.7228 9.78879C3.86786 9.24391 4.15363 8.74676 4.55146 8.34718C4.94929 7.94761 5.44518 7.65964 5.98941 7.51219C7.98554 6.97523 15.996 6.97524 15.996 6.97524C15.996 6.97524 24.0045 6.97523 26.0026 7.51219C26.5458 7.66059 27.0406 7.94893 27.4374 8.34843C27.8343 8.74793 28.1194 9.2446 28.2642 9.78879C28.9801 13.8955 28.9801 18.095 28.2642 22.2017C28.12 22.7461 27.8351 23.2429 27.4381 23.6424C27.0411 24.0418 26.5461 24.3307 26.0026 24.4783Z" fill="black" fill-opacity="0.2"/>
<path d="M27.3091 4.68168C24.6906 2.06531 21.2459 0.437801 17.5619 0.0764458C13.878 -0.28491 10.1827 0.642253 7.10571 2.69996C4.02872 4.75767 1.76037 7.8186 0.687186 11.3612C-0.385999 14.9039 -0.197599 18.709 1.22021 22.1284C2.63802 25.5477 5.19753 28.3697 8.4627 30.1134C11.7279 31.8572 15.4967 32.4149 19.1269 31.6915C22.7571 30.968 26.0242 29.0083 28.3715 26.1461C30.7189 23.2839 32.0012 19.6964 32 15.9947C32.0018 13.893 31.5883 11.8116 30.7833 9.87017C29.9783 7.92872 28.7976 6.16545 27.3091 4.68168ZM26.0026 24.4783C24.0065 25.0153 15.996 25.0152 15.996 25.0152C15.996 25.0152 7.98753 25.0153 5.98941 24.4783C5.44481 24.3316 4.94849 24.0439 4.55055 23.6442C4.15261 23.2445 3.86712 22.7469 3.7228 22.2017C3.01328 18.0945 3.01328 13.896 3.7228 9.78879C3.86786 9.24391 4.15363 8.74676 4.55146 8.34718C4.94929 7.94761 5.44518 7.65964 5.98941 7.51219C7.98554 6.97523 15.996 6.97524 15.996 6.97524C15.996 6.97524 24.0045 6.97523 26.0026 7.51219C26.5458 7.66059 27.0406 7.94893 27.4374 8.34843C27.8343 8.74793 28.1194 9.2446 28.2642 9.78879C28.9801 13.8955 28.9801 18.095 28.2642 22.2017C28.12 22.7461 27.8351 23.2429 27.4381 23.6424C27.0411 24.0418 26.5461 24.3307 26.0026 24.4783Z" fill="black" fill-opacity="0.2"/>
<path d="M27.3091 4.68168C24.6906 2.06531 21.2459 0.437801 17.5619 0.0764458C13.878 -0.28491 10.1827 0.642253 7.10571 2.69996C4.02872 4.75767 1.76037 7.8186 0.687186 11.3612C-0.385999 14.9039 -0.197599 18.709 1.22021 22.1284C2.63802 25.5477 5.19753 28.3697 8.4627 30.1134C11.7279 31.8572 15.4967 32.4149 19.1269 31.6915C22.7571 30.968 26.0242 29.0083 28.3715 26.1461C30.7189 23.2839 32.0012 19.6964 32 15.9947C32.0018 13.893 31.5883 11.8116 30.7833 9.87017C29.9783 7.92872 28.7976 6.16545 27.3091 4.68168ZM26.0026 24.4783C24.0065 25.0153 15.996 25.0152 15.996 25.0152C15.996 25.0152 7.98753 25.0153 5.98941 24.4783C5.44481 24.3316 4.94849 24.0439 4.55055 23.6442C4.15261 23.2445 3.86712 22.7469 3.7228 22.2017C3.01328 18.0945 3.01328 13.896 3.7228 9.78879C3.86786 9.24391 4.15363 8.74676 4.55146 8.34718C4.94929 7.94761 5.44518 7.65964 5.98941 7.51219C7.98554 6.97523 15.996 6.97524 15.996 6.97524C15.996 6.97524 24.0045 6.97523 26.0026 7.51219C26.5458 7.66059 27.0406 7.94893 27.4374 8.34843C27.8343 8.74793 28.1194 9.2446 28.2642 9.78879C28.9801 13.8955 28.9801 18.095 28.2642 22.2017C28.12 22.7461 27.8351 23.2429 27.4381 23.6424C27.0411 24.0418 26.5461 24.3307 26.0026 24.4783Z" fill="black" fill-opacity="0.2"/>
<path d="M27.3091 4.68168C24.6906 2.06531 21.2459 0.437801 17.5619 0.0764458C13.878 -0.28491 10.1827 0.642253 7.10571 2.69996C4.02872 4.75767 1.76037 7.8186 0.687186 11.3612C-0.385999 14.9039 -0.197599 18.709 1.22021 22.1284C2.63802 25.5477 5.19753 28.3697 8.4627 30.1134C11.7279 31.8572 15.4967 32.4149 19.1269 31.6915C22.7571 30.968 26.0242 29.0083 28.3715 26.1461C30.7189 23.2839 32.0012 19.6964 32 15.9947C32.0018 13.893 31.5883 11.8116 30.7833 9.87017C29.9783 7.92872 28.7976 6.16545 27.3091 4.68168ZM26.0026 24.4783C24.0065 25.0153 15.996 25.0152 15.996 25.0152C15.996 25.0152 7.98753 25.0153 5.98941 24.4783C5.44481 24.3316 4.94849 24.0439 4.55055 23.6442C4.15261 23.2445 3.86712 22.7469 3.7228 22.2017C3.01328 18.0945 3.01328 13.896 3.7228 9.78879C3.86786 9.24391 4.15363 8.74676 4.55146 8.34718C4.94929 7.94761 5.44518 7.65964 5.98941 7.51219C7.98554 6.97523 15.996 6.97524 15.996 6.97524C15.996 6.97524 24.0045 6.97523 26.0026 7.51219C26.5458 7.66059 27.0406 7.94893 27.4374 8.34843C27.8343 8.74793 28.1194 9.2446 28.2642 9.78879C28.9801 13.8955 28.9801 18.095 28.2642 22.2017C28.12 22.7461 27.8351 23.2429 27.4381 23.6424C27.0411 24.0418 26.5461 24.3307 26.0026 24.4783Z" fill="black" fill-opacity="0.2"/>
<path d="M27.3091 4.68168C24.6906 2.06531 21.2459 0.437801 17.5619 0.0764458C13.878 -0.28491 10.1827 0.642253 7.10571 2.69996C4.02872 4.75767 1.76037 7.8186 0.687186 11.3612C-0.385999 14.9039 -0.197599 18.709 1.22021 22.1284C2.63802 25.5477 5.19753 28.3697 8.4627 30.1134C11.7279 31.8572 15.4967 32.4149 19.1269 31.6915C22.7571 30.968 26.0242 29.0083 28.3715 26.1461C30.7189 23.2839 32.0012 19.6964 32 15.9947C32.0018 13.893 31.5883 11.8116 30.7833 9.87017C29.9783 7.92872 28.7976 6.16545 27.3091 4.68168ZM26.0026 24.4783C24.0065 25.0153 15.996 25.0152 15.996 25.0152C15.996 25.0152 7.98753 25.0153 5.98941 24.4783C5.44481 24.3316 4.94849 24.0439 4.55055 23.6442C4.15261 23.2445 3.86712 22.7469 3.7228 22.2017C3.01328 18.0945 3.01328 13.896 3.7228 9.78879C3.86786 9.24391 4.15363 8.74676 4.55146 8.34718C4.94929 7.94761 5.44518 7.65964 5.98941 7.51219C7.98554 6.97523 15.996 6.97524 15.996 6.97524C15.996 6.97524 24.0045 6.97523 26.0026 7.51219C26.5458 7.66059 27.0406 7.94893 27.4374 8.34843C27.8343 8.74793 28.1194 9.2446 28.2642 9.78879C28.9801 13.8955 28.9801 18.095 28.2642 22.2017C28.12 22.7461 27.8351 23.2429 27.4381 23.6424C27.0411 24.0418 26.5461 24.3307 26.0026 24.4783Z" fill="black" fill-opacity="0.2"/>
<path d="M27.3091 4.68168C24.6906 2.06531 21.2459 0.437801 17.5619 0.0764458C13.878 -0.28491 10.1827 0.642253 7.10571 2.69996C4.02872 4.75767 1.76037 7.8186 0.687186 11.3612C-0.385999 14.9039 -0.197599 18.709 1.22021 22.1284C2.63802 25.5477 5.19753 28.3697 8.4627 30.1134C11.7279 31.8572 15.4967 32.4149 19.1269 31.6915C22.7571 30.968 26.0242 29.0083 28.3715 26.1461C30.7189 23.2839 32.0012 19.6964 32 15.9947C32.0018 13.893 31.5883 11.8116 30.7833 9.87017C29.9783 7.92872 28.7976 6.16545 27.3091 4.68168ZM26.0026 24.4783C24.0065 25.0153 15.996 25.0152 15.996 25.0152C15.996 25.0152 7.98753 25.0153 5.98941 24.4783C5.44481 24.3316 4.94849 24.0439 4.55055 23.6442C4.15261 23.2445 3.86712 22.7469 3.7228 22.2017C3.01328 18.0945 3.01328 13.896 3.7228 9.78879C3.86786 9.24391 4.15363 8.74676 4.55146 8.34718C4.94929 7.94761 5.44518 7.65964 5.98941 7.51219C7.98554 6.97523 15.996 6.97524 15.996 6.97524C15.996 6.97524 24.0045 6.97523 26.0026 7.51219C26.5458 7.66059 27.0406 7.94893 27.4374 8.34843C27.8343 8.74793 28.1194 9.2446 28.2642 9.78879C28.9801 13.8955 28.9801 18.095 28.2642 22.2017C28.12 22.7461 27.8351 23.2429 27.4381 23.6424C27.0411 24.0418 26.5461 24.3307 26.0026 24.4783Z" fill="black" fill-opacity="0.2"/>
<path d="M13.374 19.8019L20.071 15.9913L13.374 12.1857V19.8019Z" fill="black"/>
<path d="M13.374 19.8019L20.071 15.9913L13.374 12.1857V19.8019Z" fill="black" fill-opacity="0.2"/>
<path d="M13.374 19.8019L20.071 15.9913L13.374 12.1857V19.8019Z" fill="black" fill-opacity="0.2"/>
<path d="M13.374 19.8019L20.071 15.9913L13.374 12.1857V19.8019Z" fill="black" fill-opacity="0.2"/>
<path d="M13.374 19.8019L20.071 15.9913L13.374 12.1857V19.8019Z" fill="black" fill-opacity="0.2"/>
<path d="M13.374 19.8019L20.071 15.9913L13.374 12.1857V19.8019Z" fill="black" fill-opacity="0.2"/>
<path d="M13.374 19.8019L20.071 15.9913L13.374 12.1857V19.8019Z" fill="black" fill-opacity="0.2"/>
<path d="M13.374 19.8019L20.071 15.9913L13.374 12.1857V19.8019Z" fill="black" fill-opacity="0.2"/>
<path d="M13.374 19.8019L20.071 15.9913L13.374 12.1857V19.8019Z" fill="black" fill-opacity="0.2"/>
<path d="M13.374 19.8019L20.071 15.9913L13.374 12.1857V19.8019Z" fill="black" fill-opacity="0.2"/>
</g>
<defs>
<clipPath id="clip0_300_155">
<rect width="32" height="32" fill="white"/>
</clipPath>
</defs>
</svg>
