<svg width="24" height="24" viewBox="0 0 24 24" fill="none" xmlns="http://www.w3.org/2000/svg">
<path d="M9.73437 22.1235C9.11671 22.7918 8 22.3547 8 21.4447V3.55525C8 2.64525 9.11671 2.20823 9.73437 2.8765L17.5554 11.3385C17.8401 11.6466 18 12.0644 18 12.5C18 12.9356 17.8401 13.3534 17.5554 13.6615L9.73437 22.1235Z" fill="black"/>
<path d="M9.73437 22.1235C9.11671 22.7918 8 22.3547 8 21.4447V3.55525C8 2.64525 9.11671 2.20823 9.73437 2.8765L17.5554 11.3385C17.8401 11.6466 18 12.0644 18 12.5C18 12.9356 17.8401 13.3534 17.5554 13.6615L9.73437 22.1235Z" fill="black" fill-opacity="0.2"/>
<path d="M9.73437 22.1235C9.11671 22.7918 8 22.3547 8 21.4447V3.55525C8 2.64525 9.11671 2.20823 9.73437 2.8765L17.5554 11.3385C17.8401 11.6466 18 12.0644 18 12.5C18 12.9356 17.8401 13.3534 17.5554 13.6615L9.73437 22.1235Z" fill="black" fill-opacity="0.2"/>
<path d="M9.73437 22.1235C9.11671 22.7918 8 22.3547 8 21.4447V3.55525C8 2.64525 9.11671 2.20823 9.73437 2.8765L17.5554 11.3385C17.8401 11.6466 18 12.0644 18 12.5C18 12.9356 17.8401 13.3534 17.5554 13.6615L9.73437 22.1235Z" fill="black" fill-opacity="0.2"/>
<path d="M9.73437 22.1235C9.11671 22.7918 8 22.3547 8 21.4447V3.55525C8 2.64525 9.11671 2.20823 9.73437 2.8765L17.5554 11.3385C17.8401 11.6466 18 12.0644 18 12.5C18 12.9356 17.8401 13.3534 17.5554 13.6615L9.73437 22.1235Z" fill="black" fill-opacity="0.2"/>
<path d="M9.73437 22.1235C9.11671 22.7918 8 22.3547 8 21.4447V3.55525C8 2.64525 9.11671 2.20823 9.73437 2.8765L17.5554 11.3385C17.8401 11.6466 18 12.0644 18 12.5C18 12.9356 17.8401 13.3534 17.5554 13.6615L9.73437 22.1235Z" fill="black" fill-opacity="0.2"/>
<path d="M9.73437 22.1235C9.11671 22.7918 8 22.3547 8 21.4447V3.55525C8 2.64525 9.11671 2.20823 9.73437 2.8765L17.5554 11.3385C17.8401 11.6466 18 12.0644 18 12.5C18 12.9356 17.8401 13.3534 17.5554 13.6615L9.73437 22.1235Z" fill="black" fill-opacity="0.2"/>
<path d="M9.73437 22.1235C9.11671 22.7918 8 22.3547 8 21.4447V3.55525C8 2.64525 9.11671 2.20823 9.73437 2.8765L17.5554 11.3385C17.8401 11.6466 18 12.0644 18 12.5C18 12.9356 17.8401 13.3534 17.5554 13.6615L9.73437 22.1235Z" fill="black" fill-opacity="0.2"/>
<path d="M9.73437 22.1235C9.11671 22.7918 8 22.3547 8 21.4447V3.55525C8 2.64525 9.11671 2.20823 9.73437 2.8765L17.5554 11.3385C17.8401 11.6466 18 12.0644 18 12.5C18 12.9356 17.8401 13.3534 17.5554 13.6615L9.73437 22.1235Z" fill="black" fill-opacity="0.2"/>
<path d="M9.73437 22.1235C9.11671 22.7918 8 22.3547 8 21.4447V3.55525C8 2.64525 9.11671 2.20823 9.73437 2.8765L17.5554 11.3385C17.8401 11.6466 18 12.0644 18 12.5C18 12.9356 17.8401 13.3534 17.5554 13.6615L9.73437 22.1235Z" fill="black" fill-opacity="0.2"/>
</svg>
