<svg width="24" height="24" viewBox="0 0 24 24" fill="none" xmlns="http://www.w3.org/2000/svg">
<path d="M21.4178 4.19361H15.3833V3.37757C15.3807 2.74719 15.1288 2.14344 14.6827 1.69804C14.2366 1.25263 13.6325 1.00171 13.0021 1L11.0209 1C10.3912 1.00269 9.78798 1.25404 9.34268 1.69934C8.89739 2.14464 8.64603 2.74783 8.64334 3.37757V4.19361H2.5829C2.50445 4.19048 2.42616 4.20323 2.35275 4.23109C2.27934 4.25896 2.21231 4.30136 2.15569 4.35577C2.09907 4.41017 2.05403 4.47545 2.02326 4.54769C1.99248 4.61994 1.97662 4.69765 1.97662 4.77617C1.97662 4.85469 1.99248 4.9324 2.02326 5.00464C2.05403 5.07688 2.09907 5.14217 2.15569 5.19657C2.21231 5.25097 2.27934 5.29338 2.35275 5.32124C2.42616 5.34911 2.50445 5.36186 2.5829 5.35872H21.4178C21.5683 5.35272 21.7106 5.28871 21.8149 5.18012C21.9193 5.07153 21.9776 4.92677 21.9776 4.77617C21.9776 4.62557 21.9193 4.48081 21.8149 4.37222C21.7106 4.26363 21.5683 4.19962 21.4178 4.19361ZM9.78617 3.35807C9.78494 3.19841 9.81541 3.04009 9.8758 2.89229C9.93619 2.74449 10.0253 2.61013 10.138 2.49702C10.2507 2.3839 10.3847 2.29427 10.5323 2.23331C10.6798 2.17235 10.838 2.14128 10.9977 2.1419H12.9789C13.1383 2.14116 13.2963 2.17202 13.4437 2.23269C13.5912 2.29336 13.7251 2.38264 13.8378 2.49538C13.9506 2.60811 14.0399 2.74207 14.1005 2.8895C14.1612 3.03694 14.1921 3.19493 14.1913 3.35436V4.1704H9.76203V3.35436L9.78617 3.35807Z" fill="black"/>
<path d="M21.4178 4.19361H15.3833V3.37757C15.3807 2.74719 15.1288 2.14344 14.6827 1.69804C14.2366 1.25263 13.6325 1.00171 13.0021 1L11.0209 1C10.3912 1.00269 9.78798 1.25404 9.34268 1.69934C8.89739 2.14464 8.64603 2.74783 8.64334 3.37757V4.19361H2.5829C2.50445 4.19048 2.42616 4.20323 2.35275 4.23109C2.27934 4.25896 2.21231 4.30136 2.15569 4.35577C2.09907 4.41017 2.05403 4.47545 2.02326 4.54769C1.99248 4.61994 1.97662 4.69765 1.97662 4.77617C1.97662 4.85469 1.99248 4.9324 2.02326 5.00464C2.05403 5.07688 2.09907 5.14217 2.15569 5.19657C2.21231 5.25097 2.27934 5.29338 2.35275 5.32124C2.42616 5.34911 2.50445 5.36186 2.5829 5.35872H21.4178C21.5683 5.35272 21.7106 5.28871 21.8149 5.18012C21.9193 5.07153 21.9776 4.92677 21.9776 4.77617C21.9776 4.62557 21.9193 4.48081 21.8149 4.37222C21.7106 4.26363 21.5683 4.19962 21.4178 4.19361ZM9.78617 3.35807C9.78494 3.19841 9.81541 3.04009 9.8758 2.89229C9.93619 2.74449 10.0253 2.61013 10.138 2.49702C10.2507 2.3839 10.3847 2.29427 10.5323 2.23331C10.6798 2.17235 10.838 2.14128 10.9977 2.1419H12.9789C13.1383 2.14116 13.2963 2.17202 13.4437 2.23269C13.5912 2.29336 13.7251 2.38264 13.8378 2.49538C13.9506 2.60811 14.0399 2.74207 14.1005 2.8895C14.1612 3.03694 14.1921 3.19493 14.1913 3.35436V4.1704H9.76203V3.35436L9.78617 3.35807Z" fill="black" fill-opacity="0.2"/>
<path d="M21.4178 4.19361H15.3833V3.37757C15.3807 2.74719 15.1288 2.14344 14.6827 1.69804C14.2366 1.25263 13.6325 1.00171 13.0021 1L11.0209 1C10.3912 1.00269 9.78798 1.25404 9.34268 1.69934C8.89739 2.14464 8.64603 2.74783 8.64334 3.37757V4.19361H2.5829C2.50445 4.19048 2.42616 4.20323 2.35275 4.23109C2.27934 4.25896 2.21231 4.30136 2.15569 4.35577C2.09907 4.41017 2.05403 4.47545 2.02326 4.54769C1.99248 4.61994 1.97662 4.69765 1.97662 4.77617C1.97662 4.85469 1.99248 4.9324 2.02326 5.00464C2.05403 5.07688 2.09907 5.14217 2.15569 5.19657C2.21231 5.25097 2.27934 5.29338 2.35275 5.32124C2.42616 5.34911 2.50445 5.36186 2.5829 5.35872H21.4178C21.5683 5.35272 21.7106 5.28871 21.8149 5.18012C21.9193 5.07153 21.9776 4.92677 21.9776 4.77617C21.9776 4.62557 21.9193 4.48081 21.8149 4.37222C21.7106 4.26363 21.5683 4.19962 21.4178 4.19361ZM9.78617 3.35807C9.78494 3.19841 9.81541 3.04009 9.8758 2.89229C9.93619 2.74449 10.0253 2.61013 10.138 2.49702C10.2507 2.3839 10.3847 2.29427 10.5323 2.23331C10.6798 2.17235 10.838 2.14128 10.9977 2.1419H12.9789C13.1383 2.14116 13.2963 2.17202 13.4437 2.23269C13.5912 2.29336 13.7251 2.38264 13.8378 2.49538C13.9506 2.60811 14.0399 2.74207 14.1005 2.8895C14.1612 3.03694 14.1921 3.19493 14.1913 3.35436V4.1704H9.76203V3.35436L9.78617 3.35807Z" fill="black" fill-opacity="0.2"/>
<path d="M21.4178 4.19361H15.3833V3.37757C15.3807 2.74719 15.1288 2.14344 14.6827 1.69804C14.2366 1.25263 13.6325 1.00171 13.0021 1L11.0209 1C10.3912 1.00269 9.78798 1.25404 9.34268 1.69934C8.89739 2.14464 8.64603 2.74783 8.64334 3.37757V4.19361H2.5829C2.50445 4.19048 2.42616 4.20323 2.35275 4.23109C2.27934 4.25896 2.21231 4.30136 2.15569 4.35577C2.09907 4.41017 2.05403 4.47545 2.02326 4.54769C1.99248 4.61994 1.97662 4.69765 1.97662 4.77617C1.97662 4.85469 1.99248 4.9324 2.02326 5.00464C2.05403 5.07688 2.09907 5.14217 2.15569 5.19657C2.21231 5.25097 2.27934 5.29338 2.35275 5.32124C2.42616 5.34911 2.50445 5.36186 2.5829 5.35872H21.4178C21.5683 5.35272 21.7106 5.28871 21.8149 5.18012C21.9193 5.07153 21.9776 4.92677 21.9776 4.77617C21.9776 4.62557 21.9193 4.48081 21.8149 4.37222C21.7106 4.26363 21.5683 4.19962 21.4178 4.19361ZM9.78617 3.35807C9.78494 3.19841 9.81541 3.04009 9.8758 2.89229C9.93619 2.74449 10.0253 2.61013 10.138 2.49702C10.2507 2.3839 10.3847 2.29427 10.5323 2.23331C10.6798 2.17235 10.838 2.14128 10.9977 2.1419H12.9789C13.1383 2.14116 13.2963 2.17202 13.4437 2.23269C13.5912 2.29336 13.7251 2.38264 13.8378 2.49538C13.9506 2.60811 14.0399 2.74207 14.1005 2.8895C14.1612 3.03694 14.1921 3.19493 14.1913 3.35436V4.1704H9.76203V3.35436L9.78617 3.35807Z" fill="black" fill-opacity="0.2"/>
<path d="M21.4178 4.19361H15.3833V3.37757C15.3807 2.74719 15.1288 2.14344 14.6827 1.69804C14.2366 1.25263 13.6325 1.00171 13.0021 1L11.0209 1C10.3912 1.00269 9.78798 1.25404 9.34268 1.69934C8.89739 2.14464 8.64603 2.74783 8.64334 3.37757V4.19361H2.5829C2.50445 4.19048 2.42616 4.20323 2.35275 4.23109C2.27934 4.25896 2.21231 4.30136 2.15569 4.35577C2.09907 4.41017 2.05403 4.47545 2.02326 4.54769C1.99248 4.61994 1.97662 4.69765 1.97662 4.77617C1.97662 4.85469 1.99248 4.9324 2.02326 5.00464C2.05403 5.07688 2.09907 5.14217 2.15569 5.19657C2.21231 5.25097 2.27934 5.29338 2.35275 5.32124C2.42616 5.34911 2.50445 5.36186 2.5829 5.35872H21.4178C21.5683 5.35272 21.7106 5.28871 21.8149 5.18012C21.9193 5.07153 21.9776 4.92677 21.9776 4.77617C21.9776 4.62557 21.9193 4.48081 21.8149 4.37222C21.7106 4.26363 21.5683 4.19962 21.4178 4.19361ZM9.78617 3.35807C9.78494 3.19841 9.81541 3.04009 9.8758 2.89229C9.93619 2.74449 10.0253 2.61013 10.138 2.49702C10.2507 2.3839 10.3847 2.29427 10.5323 2.23331C10.6798 2.17235 10.838 2.14128 10.9977 2.1419H12.9789C13.1383 2.14116 13.2963 2.17202 13.4437 2.23269C13.5912 2.29336 13.7251 2.38264 13.8378 2.49538C13.9506 2.60811 14.0399 2.74207 14.1005 2.8895C14.1612 3.03694 14.1921 3.19493 14.1913 3.35436V4.1704H9.76203V3.35436L9.78617 3.35807Z" fill="black" fill-opacity="0.2"/>
<path d="M21.4178 4.19361H15.3833V3.37757C15.3807 2.74719 15.1288 2.14344 14.6827 1.69804C14.2366 1.25263 13.6325 1.00171 13.0021 1L11.0209 1C10.3912 1.00269 9.78798 1.25404 9.34268 1.69934C8.89739 2.14464 8.64603 2.74783 8.64334 3.37757V4.19361H2.5829C2.50445 4.19048 2.42616 4.20323 2.35275 4.23109C2.27934 4.25896 2.21231 4.30136 2.15569 4.35577C2.09907 4.41017 2.05403 4.47545 2.02326 4.54769C1.99248 4.61994 1.97662 4.69765 1.97662 4.77617C1.97662 4.85469 1.99248 4.9324 2.02326 5.00464C2.05403 5.07688 2.09907 5.14217 2.15569 5.19657C2.21231 5.25097 2.27934 5.29338 2.35275 5.32124C2.42616 5.34911 2.50445 5.36186 2.5829 5.35872H21.4178C21.5683 5.35272 21.7106 5.28871 21.8149 5.18012C21.9193 5.07153 21.9776 4.92677 21.9776 4.77617C21.9776 4.62557 21.9193 4.48081 21.8149 4.37222C21.7106 4.26363 21.5683 4.19962 21.4178 4.19361ZM9.78617 3.35807C9.78494 3.19841 9.81541 3.04009 9.8758 2.89229C9.93619 2.74449 10.0253 2.61013 10.138 2.49702C10.2507 2.3839 10.3847 2.29427 10.5323 2.23331C10.6798 2.17235 10.838 2.14128 10.9977 2.1419H12.9789C13.1383 2.14116 13.2963 2.17202 13.4437 2.23269C13.5912 2.29336 13.7251 2.38264 13.8378 2.49538C13.9506 2.60811 14.0399 2.74207 14.1005 2.8895C14.1612 3.03694 14.1921 3.19493 14.1913 3.35436V4.1704H9.76203V3.35436L9.78617 3.35807Z" fill="black" fill-opacity="0.2"/>
<path d="M21.4178 4.19361H15.3833V3.37757C15.3807 2.74719 15.1288 2.14344 14.6827 1.69804C14.2366 1.25263 13.6325 1.00171 13.0021 1L11.0209 1C10.3912 1.00269 9.78798 1.25404 9.34268 1.69934C8.89739 2.14464 8.64603 2.74783 8.64334 3.37757V4.19361H2.5829C2.50445 4.19048 2.42616 4.20323 2.35275 4.23109C2.27934 4.25896 2.21231 4.30136 2.15569 4.35577C2.09907 4.41017 2.05403 4.47545 2.02326 4.54769C1.99248 4.61994 1.97662 4.69765 1.97662 4.77617C1.97662 4.85469 1.99248 4.9324 2.02326 5.00464C2.05403 5.07688 2.09907 5.14217 2.15569 5.19657C2.21231 5.25097 2.27934 5.29338 2.35275 5.32124C2.42616 5.34911 2.50445 5.36186 2.5829 5.35872H21.4178C21.5683 5.35272 21.7106 5.28871 21.8149 5.18012C21.9193 5.07153 21.9776 4.92677 21.9776 4.77617C21.9776 4.62557 21.9193 4.48081 21.8149 4.37222C21.7106 4.26363 21.5683 4.19962 21.4178 4.19361ZM9.78617 3.35807C9.78494 3.19841 9.81541 3.04009 9.8758 2.89229C9.93619 2.74449 10.0253 2.61013 10.138 2.49702C10.2507 2.3839 10.3847 2.29427 10.5323 2.23331C10.6798 2.17235 10.838 2.14128 10.9977 2.1419H12.9789C13.1383 2.14116 13.2963 2.17202 13.4437 2.23269C13.5912 2.29336 13.7251 2.38264 13.8378 2.49538C13.9506 2.60811 14.0399 2.74207 14.1005 2.8895C14.1612 3.03694 14.1921 3.19493 14.1913 3.35436V4.1704H9.76203V3.35436L9.78617 3.35807Z" fill="black" fill-opacity="0.2"/>
<path d="M21.4178 4.19361H15.3833V3.37757C15.3807 2.74719 15.1288 2.14344 14.6827 1.69804C14.2366 1.25263 13.6325 1.00171 13.0021 1L11.0209 1C10.3912 1.00269 9.78798 1.25404 9.34268 1.69934C8.89739 2.14464 8.64603 2.74783 8.64334 3.37757V4.19361H2.5829C2.50445 4.19048 2.42616 4.20323 2.35275 4.23109C2.27934 4.25896 2.21231 4.30136 2.15569 4.35577C2.09907 4.41017 2.05403 4.47545 2.02326 4.54769C1.99248 4.61994 1.97662 4.69765 1.97662 4.77617C1.97662 4.85469 1.99248 4.9324 2.02326 5.00464C2.05403 5.07688 2.09907 5.14217 2.15569 5.19657C2.21231 5.25097 2.27934 5.29338 2.35275 5.32124C2.42616 5.34911 2.50445 5.36186 2.5829 5.35872H21.4178C21.5683 5.35272 21.7106 5.28871 21.8149 5.18012C21.9193 5.07153 21.9776 4.92677 21.9776 4.77617C21.9776 4.62557 21.9193 4.48081 21.8149 4.37222C21.7106 4.26363 21.5683 4.19962 21.4178 4.19361ZM9.78617 3.35807C9.78494 3.19841 9.81541 3.04009 9.8758 2.89229C9.93619 2.74449 10.0253 2.61013 10.138 2.49702C10.2507 2.3839 10.3847 2.29427 10.5323 2.23331C10.6798 2.17235 10.838 2.14128 10.9977 2.1419H12.9789C13.1383 2.14116 13.2963 2.17202 13.4437 2.23269C13.5912 2.29336 13.7251 2.38264 13.8378 2.49538C13.9506 2.60811 14.0399 2.74207 14.1005 2.8895C14.1612 3.03694 14.1921 3.19493 14.1913 3.35436V4.1704H9.76203V3.35436L9.78617 3.35807Z" fill="black" fill-opacity="0.2"/>
<path d="M21.4178 4.19361H15.3833V3.37757C15.3807 2.74719 15.1288 2.14344 14.6827 1.69804C14.2366 1.25263 13.6325 1.00171 13.0021 1L11.0209 1C10.3912 1.00269 9.78798 1.25404 9.34268 1.69934C8.89739 2.14464 8.64603 2.74783 8.64334 3.37757V4.19361H2.5829C2.50445 4.19048 2.42616 4.20323 2.35275 4.23109C2.27934 4.25896 2.21231 4.30136 2.15569 4.35577C2.09907 4.41017 2.05403 4.47545 2.02326 4.54769C1.99248 4.61994 1.97662 4.69765 1.97662 4.77617C1.97662 4.85469 1.99248 4.9324 2.02326 5.00464C2.05403 5.07688 2.09907 5.14217 2.15569 5.19657C2.21231 5.25097 2.27934 5.29338 2.35275 5.32124C2.42616 5.34911 2.50445 5.36186 2.5829 5.35872H21.4178C21.5683 5.35272 21.7106 5.28871 21.8149 5.18012C21.9193 5.07153 21.9776 4.92677 21.9776 4.77617C21.9776 4.62557 21.9193 4.48081 21.8149 4.37222C21.7106 4.26363 21.5683 4.19962 21.4178 4.19361ZM9.78617 3.35807C9.78494 3.19841 9.81541 3.04009 9.8758 2.89229C9.93619 2.74449 10.0253 2.61013 10.138 2.49702C10.2507 2.3839 10.3847 2.29427 10.5323 2.23331C10.6798 2.17235 10.838 2.14128 10.9977 2.1419H12.9789C13.1383 2.14116 13.2963 2.17202 13.4437 2.23269C13.5912 2.29336 13.7251 2.38264 13.8378 2.49538C13.9506 2.60811 14.0399 2.74207 14.1005 2.8895C14.1612 3.03694 14.1921 3.19493 14.1913 3.35436V4.1704H9.76203V3.35436L9.78617 3.35807Z" fill="black" fill-opacity="0.2"/>
<path d="M21.4178 4.19361H15.3833V3.37757C15.3807 2.74719 15.1288 2.14344 14.6827 1.69804C14.2366 1.25263 13.6325 1.00171 13.0021 1L11.0209 1C10.3912 1.00269 9.78798 1.25404 9.34268 1.69934C8.89739 2.14464 8.64603 2.74783 8.64334 3.37757V4.19361H2.5829C2.50445 4.19048 2.42616 4.20323 2.35275 4.23109C2.27934 4.25896 2.21231 4.30136 2.15569 4.35577C2.09907 4.41017 2.05403 4.47545 2.02326 4.54769C1.99248 4.61994 1.97662 4.69765 1.97662 4.77617C1.97662 4.85469 1.99248 4.9324 2.02326 5.00464C2.05403 5.07688 2.09907 5.14217 2.15569 5.19657C2.21231 5.25097 2.27934 5.29338 2.35275 5.32124C2.42616 5.34911 2.50445 5.36186 2.5829 5.35872H21.4178C21.5683 5.35272 21.7106 5.28871 21.8149 5.18012C21.9193 5.07153 21.9776 4.92677 21.9776 4.77617C21.9776 4.62557 21.9193 4.48081 21.8149 4.37222C21.7106 4.26363 21.5683 4.19962 21.4178 4.19361ZM9.78617 3.35807C9.78494 3.19841 9.81541 3.04009 9.8758 2.89229C9.93619 2.74449 10.0253 2.61013 10.138 2.49702C10.2507 2.3839 10.3847 2.29427 10.5323 2.23331C10.6798 2.17235 10.838 2.14128 10.9977 2.1419H12.9789C13.1383 2.14116 13.2963 2.17202 13.4437 2.23269C13.5912 2.29336 13.7251 2.38264 13.8378 2.49538C13.9506 2.60811 14.0399 2.74207 14.1005 2.8895C14.1612 3.03694 14.1921 3.19493 14.1913 3.35436V4.1704H9.76203V3.35436L9.78617 3.35807Z" fill="black" fill-opacity="0.2"/>
<path d="M19.7858 7.68972C19.709 7.68898 19.6329 7.70355 19.5618 7.73259C19.4908 7.76162 19.4262 7.80454 19.3719 7.85883C19.3176 7.91312 19.2747 7.97768 19.2457 8.04875C19.2166 8.11982 19.2021 8.19597 19.2028 8.27274V20.44C19.2032 20.6391 19.1642 20.8363 19.0882 21.0203C19.0122 21.2043 18.9006 21.3714 18.7599 21.5122C18.6191 21.653 18.4519 21.7646 18.2679 21.8406C18.0839 21.9166 17.8868 21.9555 17.6877 21.9551H6.3123C6.11323 21.9555 5.91605 21.9166 5.73206 21.8406C5.54807 21.7646 5.3809 21.653 5.24014 21.5122C5.09937 21.3714 4.98779 21.2043 4.91178 21.0203C4.83576 20.8363 4.79682 20.6391 4.79719 20.44V8.27274C4.79118 8.12226 4.72718 7.97995 4.61859 7.8756C4.50999 7.77126 4.36524 7.71298 4.21464 7.71298C4.06404 7.71298 3.91928 7.77126 3.81069 7.8756C3.70209 7.97995 3.63809 8.12226 3.63208 8.27274V20.44C3.63233 21.1508 3.91478 21.8324 4.41737 22.335C4.91996 22.8376 5.60154 23.12 6.3123 23.1203H17.6886C18.3994 23.12 19.081 22.8376 19.5835 22.335C20.0861 21.8324 20.3686 21.1508 20.3688 20.44V8.27274C20.3696 8.19597 20.355 8.11982 20.326 8.04875C20.2969 7.97768 20.254 7.91312 20.1997 7.85883C20.1454 7.80454 20.0809 7.76162 20.0098 7.73259C19.9387 7.70355 19.8626 7.68898 19.7858 7.68972Z" fill="black"/>
<path d="M19.7858 7.68972C19.709 7.68898 19.6329 7.70355 19.5618 7.73259C19.4908 7.76162 19.4262 7.80454 19.3719 7.85883C19.3176 7.91312 19.2747 7.97768 19.2457 8.04875C19.2166 8.11982 19.2021 8.19597 19.2028 8.27274V20.44C19.2032 20.6391 19.1642 20.8363 19.0882 21.0203C19.0122 21.2043 18.9006 21.3714 18.7599 21.5122C18.6191 21.653 18.4519 21.7646 18.2679 21.8406C18.0839 21.9166 17.8868 21.9555 17.6877 21.9551H6.3123C6.11323 21.9555 5.91605 21.9166 5.73206 21.8406C5.54807 21.7646 5.3809 21.653 5.24014 21.5122C5.09937 21.3714 4.98779 21.2043 4.91178 21.0203C4.83576 20.8363 4.79682 20.6391 4.79719 20.44V8.27274C4.79118 8.12226 4.72718 7.97995 4.61859 7.8756C4.50999 7.77126 4.36524 7.71298 4.21464 7.71298C4.06404 7.71298 3.91928 7.77126 3.81069 7.8756C3.70209 7.97995 3.63809 8.12226 3.63208 8.27274V20.44C3.63233 21.1508 3.91478 21.8324 4.41737 22.335C4.91996 22.8376 5.60154 23.12 6.3123 23.1203H17.6886C18.3994 23.12 19.081 22.8376 19.5835 22.335C20.0861 21.8324 20.3686 21.1508 20.3688 20.44V8.27274C20.3696 8.19597 20.355 8.11982 20.326 8.04875C20.2969 7.97768 20.254 7.91312 20.1997 7.85883C20.1454 7.80454 20.0809 7.76162 20.0098 7.73259C19.9387 7.70355 19.8626 7.68898 19.7858 7.68972Z" fill="black" fill-opacity="0.2"/>
<path d="M19.7858 7.68972C19.709 7.68898 19.6329 7.70355 19.5618 7.73259C19.4908 7.76162 19.4262 7.80454 19.3719 7.85883C19.3176 7.91312 19.2747 7.97768 19.2457 8.04875C19.2166 8.11982 19.2021 8.19597 19.2028 8.27274V20.44C19.2032 20.6391 19.1642 20.8363 19.0882 21.0203C19.0122 21.2043 18.9006 21.3714 18.7599 21.5122C18.6191 21.653 18.4519 21.7646 18.2679 21.8406C18.0839 21.9166 17.8868 21.9555 17.6877 21.9551H6.3123C6.11323 21.9555 5.91605 21.9166 5.73206 21.8406C5.54807 21.7646 5.3809 21.653 5.24014 21.5122C5.09937 21.3714 4.98779 21.2043 4.91178 21.0203C4.83576 20.8363 4.79682 20.6391 4.79719 20.44V8.27274C4.79118 8.12226 4.72718 7.97995 4.61859 7.8756C4.50999 7.77126 4.36524 7.71298 4.21464 7.71298C4.06404 7.71298 3.91928 7.77126 3.81069 7.8756C3.70209 7.97995 3.63809 8.12226 3.63208 8.27274V20.44C3.63233 21.1508 3.91478 21.8324 4.41737 22.335C4.91996 22.8376 5.60154 23.12 6.3123 23.1203H17.6886C18.3994 23.12 19.081 22.8376 19.5835 22.335C20.0861 21.8324 20.3686 21.1508 20.3688 20.44V8.27274C20.3696 8.19597 20.355 8.11982 20.326 8.04875C20.2969 7.97768 20.254 7.91312 20.1997 7.85883C20.1454 7.80454 20.0809 7.76162 20.0098 7.73259C19.9387 7.70355 19.8626 7.68898 19.7858 7.68972Z" fill="black" fill-opacity="0.2"/>
<path d="M19.7858 7.68972C19.709 7.68898 19.6329 7.70355 19.5618 7.73259C19.4908 7.76162 19.4262 7.80454 19.3719 7.85883C19.3176 7.91312 19.2747 7.97768 19.2457 8.04875C19.2166 8.11982 19.2021 8.19597 19.2028 8.27274V20.44C19.2032 20.6391 19.1642 20.8363 19.0882 21.0203C19.0122 21.2043 18.9006 21.3714 18.7599 21.5122C18.6191 21.653 18.4519 21.7646 18.2679 21.8406C18.0839 21.9166 17.8868 21.9555 17.6877 21.9551H6.3123C6.11323 21.9555 5.91605 21.9166 5.73206 21.8406C5.54807 21.7646 5.3809 21.653 5.24014 21.5122C5.09937 21.3714 4.98779 21.2043 4.91178 21.0203C4.83576 20.8363 4.79682 20.6391 4.79719 20.44V8.27274C4.79118 8.12226 4.72718 7.97995 4.61859 7.8756C4.50999 7.77126 4.36524 7.71298 4.21464 7.71298C4.06404 7.71298 3.91928 7.77126 3.81069 7.8756C3.70209 7.97995 3.63809 8.12226 3.63208 8.27274V20.44C3.63233 21.1508 3.91478 21.8324 4.41737 22.335C4.91996 22.8376 5.60154 23.12 6.3123 23.1203H17.6886C18.3994 23.12 19.081 22.8376 19.5835 22.335C20.0861 21.8324 20.3686 21.1508 20.3688 20.44V8.27274C20.3696 8.19597 20.355 8.11982 20.326 8.04875C20.2969 7.97768 20.254 7.91312 20.1997 7.85883C20.1454 7.80454 20.0809 7.76162 20.0098 7.73259C19.9387 7.70355 19.8626 7.68898 19.7858 7.68972Z" fill="black" fill-opacity="0.2"/>
<path d="M19.7858 7.68972C19.709 7.68898 19.6329 7.70355 19.5618 7.73259C19.4908 7.76162 19.4262 7.80454 19.3719 7.85883C19.3176 7.91312 19.2747 7.97768 19.2457 8.04875C19.2166 8.11982 19.2021 8.19597 19.2028 8.27274V20.44C19.2032 20.6391 19.1642 20.8363 19.0882 21.0203C19.0122 21.2043 18.9006 21.3714 18.7599 21.5122C18.6191 21.653 18.4519 21.7646 18.2679 21.8406C18.0839 21.9166 17.8868 21.9555 17.6877 21.9551H6.3123C6.11323 21.9555 5.91605 21.9166 5.73206 21.8406C5.54807 21.7646 5.3809 21.653 5.24014 21.5122C5.09937 21.3714 4.98779 21.2043 4.91178 21.0203C4.83576 20.8363 4.79682 20.6391 4.79719 20.44V8.27274C4.79118 8.12226 4.72718 7.97995 4.61859 7.8756C4.50999 7.77126 4.36524 7.71298 4.21464 7.71298C4.06404 7.71298 3.91928 7.77126 3.81069 7.8756C3.70209 7.97995 3.63809 8.12226 3.63208 8.27274V20.44C3.63233 21.1508 3.91478 21.8324 4.41737 22.335C4.91996 22.8376 5.60154 23.12 6.3123 23.1203H17.6886C18.3994 23.12 19.081 22.8376 19.5835 22.335C20.0861 21.8324 20.3686 21.1508 20.3688 20.44V8.27274C20.3696 8.19597 20.355 8.11982 20.326 8.04875C20.2969 7.97768 20.254 7.91312 20.1997 7.85883C20.1454 7.80454 20.0809 7.76162 20.0098 7.73259C19.9387 7.70355 19.8626 7.68898 19.7858 7.68972Z" fill="black" fill-opacity="0.2"/>
<path d="M19.7858 7.68972C19.709 7.68898 19.6329 7.70355 19.5618 7.73259C19.4908 7.76162 19.4262 7.80454 19.3719 7.85883C19.3176 7.91312 19.2747 7.97768 19.2457 8.04875C19.2166 8.11982 19.2021 8.19597 19.2028 8.27274V20.44C19.2032 20.6391 19.1642 20.8363 19.0882 21.0203C19.0122 21.2043 18.9006 21.3714 18.7599 21.5122C18.6191 21.653 18.4519 21.7646 18.2679 21.8406C18.0839 21.9166 17.8868 21.9555 17.6877 21.9551H6.3123C6.11323 21.9555 5.91605 21.9166 5.73206 21.8406C5.54807 21.7646 5.3809 21.653 5.24014 21.5122C5.09937 21.3714 4.98779 21.2043 4.91178 21.0203C4.83576 20.8363 4.79682 20.6391 4.79719 20.44V8.27274C4.79118 8.12226 4.72718 7.97995 4.61859 7.8756C4.50999 7.77126 4.36524 7.71298 4.21464 7.71298C4.06404 7.71298 3.91928 7.77126 3.81069 7.8756C3.70209 7.97995 3.63809 8.12226 3.63208 8.27274V20.44C3.63233 21.1508 3.91478 21.8324 4.41737 22.335C4.91996 22.8376 5.60154 23.12 6.3123 23.1203H17.6886C18.3994 23.12 19.081 22.8376 19.5835 22.335C20.0861 21.8324 20.3686 21.1508 20.3688 20.44V8.27274C20.3696 8.19597 20.355 8.11982 20.326 8.04875C20.2969 7.97768 20.254 7.91312 20.1997 7.85883C20.1454 7.80454 20.0809 7.76162 20.0098 7.73259C19.9387 7.70355 19.8626 7.68898 19.7858 7.68972Z" fill="black" fill-opacity="0.2"/>
<path d="M19.7858 7.68972C19.709 7.68898 19.6329 7.70355 19.5618 7.73259C19.4908 7.76162 19.4262 7.80454 19.3719 7.85883C19.3176 7.91312 19.2747 7.97768 19.2457 8.04875C19.2166 8.11982 19.2021 8.19597 19.2028 8.27274V20.44C19.2032 20.6391 19.1642 20.8363 19.0882 21.0203C19.0122 21.2043 18.9006 21.3714 18.7599 21.5122C18.6191 21.653 18.4519 21.7646 18.2679 21.8406C18.0839 21.9166 17.8868 21.9555 17.6877 21.9551H6.3123C6.11323 21.9555 5.91605 21.9166 5.73206 21.8406C5.54807 21.7646 5.3809 21.653 5.24014 21.5122C5.09937 21.3714 4.98779 21.2043 4.91178 21.0203C4.83576 20.8363 4.79682 20.6391 4.79719 20.44V8.27274C4.79118 8.12226 4.72718 7.97995 4.61859 7.8756C4.50999 7.77126 4.36524 7.71298 4.21464 7.71298C4.06404 7.71298 3.91928 7.77126 3.81069 7.8756C3.70209 7.97995 3.63809 8.12226 3.63208 8.27274V20.44C3.63233 21.1508 3.91478 21.8324 4.41737 22.335C4.91996 22.8376 5.60154 23.12 6.3123 23.1203H17.6886C18.3994 23.12 19.081 22.8376 19.5835 22.335C20.0861 21.8324 20.3686 21.1508 20.3688 20.44V8.27274C20.3696 8.19597 20.355 8.11982 20.326 8.04875C20.2969 7.97768 20.254 7.91312 20.1997 7.85883C20.1454 7.80454 20.0809 7.76162 20.0098 7.73259C19.9387 7.70355 19.8626 7.68898 19.7858 7.68972Z" fill="black" fill-opacity="0.2"/>
<path d="M19.7858 7.68972C19.709 7.68898 19.6329 7.70355 19.5618 7.73259C19.4908 7.76162 19.4262 7.80454 19.3719 7.85883C19.3176 7.91312 19.2747 7.97768 19.2457 8.04875C19.2166 8.11982 19.2021 8.19597 19.2028 8.27274V20.44C19.2032 20.6391 19.1642 20.8363 19.0882 21.0203C19.0122 21.2043 18.9006 21.3714 18.7599 21.5122C18.6191 21.653 18.4519 21.7646 18.2679 21.8406C18.0839 21.9166 17.8868 21.9555 17.6877 21.9551H6.3123C6.11323 21.9555 5.91605 21.9166 5.73206 21.8406C5.54807 21.7646 5.3809 21.653 5.24014 21.5122C5.09937 21.3714 4.98779 21.2043 4.91178 21.0203C4.83576 20.8363 4.79682 20.6391 4.79719 20.44V8.27274C4.79118 8.12226 4.72718 7.97995 4.61859 7.8756C4.50999 7.77126 4.36524 7.71298 4.21464 7.71298C4.06404 7.71298 3.91928 7.77126 3.81069 7.8756C3.70209 7.97995 3.63809 8.12226 3.63208 8.27274V20.44C3.63233 21.1508 3.91478 21.8324 4.41737 22.335C4.91996 22.8376 5.60154 23.12 6.3123 23.1203H17.6886C18.3994 23.12 19.081 22.8376 19.5835 22.335C20.0861 21.8324 20.3686 21.1508 20.3688 20.44V8.27274C20.3696 8.19597 20.355 8.11982 20.326 8.04875C20.2969 7.97768 20.254 7.91312 20.1997 7.85883C20.1454 7.80454 20.0809 7.76162 20.0098 7.73259C19.9387 7.70355 19.8626 7.68898 19.7858 7.68972Z" fill="black" fill-opacity="0.2"/>
<path d="M19.7858 7.68972C19.709 7.68898 19.6329 7.70355 19.5618 7.73259C19.4908 7.76162 19.4262 7.80454 19.3719 7.85883C19.3176 7.91312 19.2747 7.97768 19.2457 8.04875C19.2166 8.11982 19.2021 8.19597 19.2028 8.27274V20.44C19.2032 20.6391 19.1642 20.8363 19.0882 21.0203C19.0122 21.2043 18.9006 21.3714 18.7599 21.5122C18.6191 21.653 18.4519 21.7646 18.2679 21.8406C18.0839 21.9166 17.8868 21.9555 17.6877 21.9551H6.3123C6.11323 21.9555 5.91605 21.9166 5.73206 21.8406C5.54807 21.7646 5.3809 21.653 5.24014 21.5122C5.09937 21.3714 4.98779 21.2043 4.91178 21.0203C4.83576 20.8363 4.79682 20.6391 4.79719 20.44V8.27274C4.79118 8.12226 4.72718 7.97995 4.61859 7.8756C4.50999 7.77126 4.36524 7.71298 4.21464 7.71298C4.06404 7.71298 3.91928 7.77126 3.81069 7.8756C3.70209 7.97995 3.63809 8.12226 3.63208 8.27274V20.44C3.63233 21.1508 3.91478 21.8324 4.41737 22.335C4.91996 22.8376 5.60154 23.12 6.3123 23.1203H17.6886C18.3994 23.12 19.081 22.8376 19.5835 22.335C20.0861 21.8324 20.3686 21.1508 20.3688 20.44V8.27274C20.3696 8.19597 20.355 8.11982 20.326 8.04875C20.2969 7.97768 20.254 7.91312 20.1997 7.85883C20.1454 7.80454 20.0809 7.76162 20.0098 7.73259C19.9387 7.70355 19.8626 7.68898 19.7858 7.68972Z" fill="black" fill-opacity="0.2"/>
<path d="M19.7858 7.68972C19.709 7.68898 19.6329 7.70355 19.5618 7.73259C19.4908 7.76162 19.4262 7.80454 19.3719 7.85883C19.3176 7.91312 19.2747 7.97768 19.2457 8.04875C19.2166 8.11982 19.2021 8.19597 19.2028 8.27274V20.44C19.2032 20.6391 19.1642 20.8363 19.0882 21.0203C19.0122 21.2043 18.9006 21.3714 18.7599 21.5122C18.6191 21.653 18.4519 21.7646 18.2679 21.8406C18.0839 21.9166 17.8868 21.9555 17.6877 21.9551H6.3123C6.11323 21.9555 5.91605 21.9166 5.73206 21.8406C5.54807 21.7646 5.3809 21.653 5.24014 21.5122C5.09937 21.3714 4.98779 21.2043 4.91178 21.0203C4.83576 20.8363 4.79682 20.6391 4.79719 20.44V8.27274C4.79118 8.12226 4.72718 7.97995 4.61859 7.8756C4.50999 7.77126 4.36524 7.71298 4.21464 7.71298C4.06404 7.71298 3.91928 7.77126 3.81069 7.8756C3.70209 7.97995 3.63809 8.12226 3.63208 8.27274V20.44C3.63233 21.1508 3.91478 21.8324 4.41737 22.335C4.91996 22.8376 5.60154 23.12 6.3123 23.1203H17.6886C18.3994 23.12 19.081 22.8376 19.5835 22.335C20.0861 21.8324 20.3686 21.1508 20.3688 20.44V8.27274C20.3696 8.19597 20.355 8.11982 20.326 8.04875C20.2969 7.97768 20.254 7.91312 20.1997 7.85883C20.1454 7.80454 20.0809 7.76162 20.0098 7.73259C19.9387 7.70355 19.8626 7.68898 19.7858 7.68972Z" fill="black" fill-opacity="0.2"/>
<path d="M8.68986 18.809V8.27289C8.68385 8.12241 8.61985 7.9801 8.51125 7.87575C8.40266 7.77141 8.2579 7.71313 8.1073 7.71313C7.9567 7.71313 7.81194 7.77141 7.70335 7.87575C7.59476 7.9801 7.53075 8.12241 7.52475 8.27289V18.809C7.524 18.8858 7.53857 18.9619 7.56761 19.033C7.59664 19.1041 7.63956 19.1687 7.69385 19.2229C7.74814 19.2772 7.8127 19.3202 7.88378 19.3492C7.95485 19.3782 8.03099 19.3928 8.10776 19.3921C8.18506 19.3948 8.26209 19.3816 8.33406 19.3532C8.40603 19.3249 8.47139 19.282 8.52608 19.2273C8.58077 19.1727 8.62362 19.1073 8.65196 19.0353C8.68029 18.9634 8.69258 18.8863 8.68986 18.809Z" fill="black"/>
<path d="M8.68986 18.809V8.27289C8.68385 8.12241 8.61985 7.9801 8.51125 7.87575C8.40266 7.77141 8.2579 7.71313 8.1073 7.71313C7.9567 7.71313 7.81194 7.77141 7.70335 7.87575C7.59476 7.9801 7.53075 8.12241 7.52475 8.27289V18.809C7.524 18.8858 7.53857 18.9619 7.56761 19.033C7.59664 19.1041 7.63956 19.1687 7.69385 19.2229C7.74814 19.2772 7.8127 19.3202 7.88378 19.3492C7.95485 19.3782 8.03099 19.3928 8.10776 19.3921C8.18506 19.3948 8.26209 19.3816 8.33406 19.3532C8.40603 19.3249 8.47139 19.282 8.52608 19.2273C8.58077 19.1727 8.62362 19.1073 8.65196 19.0353C8.68029 18.9634 8.69258 18.8863 8.68986 18.809Z" fill="black" fill-opacity="0.2"/>
<path d="M8.68986 18.809V8.27289C8.68385 8.12241 8.61985 7.9801 8.51125 7.87575C8.40266 7.77141 8.2579 7.71313 8.1073 7.71313C7.9567 7.71313 7.81194 7.77141 7.70335 7.87575C7.59476 7.9801 7.53075 8.12241 7.52475 8.27289V18.809C7.524 18.8858 7.53857 18.9619 7.56761 19.033C7.59664 19.1041 7.63956 19.1687 7.69385 19.2229C7.74814 19.2772 7.8127 19.3202 7.88378 19.3492C7.95485 19.3782 8.03099 19.3928 8.10776 19.3921C8.18506 19.3948 8.26209 19.3816 8.33406 19.3532C8.40603 19.3249 8.47139 19.282 8.52608 19.2273C8.58077 19.1727 8.62362 19.1073 8.65196 19.0353C8.68029 18.9634 8.69258 18.8863 8.68986 18.809Z" fill="black" fill-opacity="0.2"/>
<path d="M8.68986 18.809V8.27289C8.68385 8.12241 8.61985 7.9801 8.51125 7.87575C8.40266 7.77141 8.2579 7.71313 8.1073 7.71313C7.9567 7.71313 7.81194 7.77141 7.70335 7.87575C7.59476 7.9801 7.53075 8.12241 7.52475 8.27289V18.809C7.524 18.8858 7.53857 18.9619 7.56761 19.033C7.59664 19.1041 7.63956 19.1687 7.69385 19.2229C7.74814 19.2772 7.8127 19.3202 7.88378 19.3492C7.95485 19.3782 8.03099 19.3928 8.10776 19.3921C8.18506 19.3948 8.26209 19.3816 8.33406 19.3532C8.40603 19.3249 8.47139 19.282 8.52608 19.2273C8.58077 19.1727 8.62362 19.1073 8.65196 19.0353C8.68029 18.9634 8.69258 18.8863 8.68986 18.809Z" fill="black" fill-opacity="0.2"/>
<path d="M8.68986 18.809V8.27289C8.68385 8.12241 8.61985 7.9801 8.51125 7.87575C8.40266 7.77141 8.2579 7.71313 8.1073 7.71313C7.9567 7.71313 7.81194 7.77141 7.70335 7.87575C7.59476 7.9801 7.53075 8.12241 7.52475 8.27289V18.809C7.524 18.8858 7.53857 18.9619 7.56761 19.033C7.59664 19.1041 7.63956 19.1687 7.69385 19.2229C7.74814 19.2772 7.8127 19.3202 7.88378 19.3492C7.95485 19.3782 8.03099 19.3928 8.10776 19.3921C8.18506 19.3948 8.26209 19.3816 8.33406 19.3532C8.40603 19.3249 8.47139 19.282 8.52608 19.2273C8.58077 19.1727 8.62362 19.1073 8.65196 19.0353C8.68029 18.9634 8.69258 18.8863 8.68986 18.809Z" fill="black" fill-opacity="0.2"/>
<path d="M8.68986 18.809V8.27289C8.68385 8.12241 8.61985 7.9801 8.51125 7.87575C8.40266 7.77141 8.2579 7.71313 8.1073 7.71313C7.9567 7.71313 7.81194 7.77141 7.70335 7.87575C7.59476 7.9801 7.53075 8.12241 7.52475 8.27289V18.809C7.524 18.8858 7.53857 18.9619 7.56761 19.033C7.59664 19.1041 7.63956 19.1687 7.69385 19.2229C7.74814 19.2772 7.8127 19.3202 7.88378 19.3492C7.95485 19.3782 8.03099 19.3928 8.10776 19.3921C8.18506 19.3948 8.26209 19.3816 8.33406 19.3532C8.40603 19.3249 8.47139 19.282 8.52608 19.2273C8.58077 19.1727 8.62362 19.1073 8.65196 19.0353C8.68029 18.9634 8.69258 18.8863 8.68986 18.809Z" fill="black" fill-opacity="0.2"/>
<path d="M8.68986 18.809V8.27289C8.68385 8.12241 8.61985 7.9801 8.51125 7.87575C8.40266 7.77141 8.2579 7.71313 8.1073 7.71313C7.9567 7.71313 7.81194 7.77141 7.70335 7.87575C7.59476 7.9801 7.53075 8.12241 7.52475 8.27289V18.809C7.524 18.8858 7.53857 18.9619 7.56761 19.033C7.59664 19.1041 7.63956 19.1687 7.69385 19.2229C7.74814 19.2772 7.8127 19.3202 7.88378 19.3492C7.95485 19.3782 8.03099 19.3928 8.10776 19.3921C8.18506 19.3948 8.26209 19.3816 8.33406 19.3532C8.40603 19.3249 8.47139 19.282 8.52608 19.2273C8.58077 19.1727 8.62362 19.1073 8.65196 19.0353C8.68029 18.9634 8.69258 18.8863 8.68986 18.809Z" fill="black" fill-opacity="0.2"/>
<path d="M8.68986 18.809V8.27289C8.68385 8.12241 8.61985 7.9801 8.51125 7.87575C8.40266 7.77141 8.2579 7.71313 8.1073 7.71313C7.9567 7.71313 7.81194 7.77141 7.70335 7.87575C7.59476 7.9801 7.53075 8.12241 7.52475 8.27289V18.809C7.524 18.8858 7.53857 18.9619 7.56761 19.033C7.59664 19.1041 7.63956 19.1687 7.69385 19.2229C7.74814 19.2772 7.8127 19.3202 7.88378 19.3492C7.95485 19.3782 8.03099 19.3928 8.10776 19.3921C8.18506 19.3948 8.26209 19.3816 8.33406 19.3532C8.40603 19.3249 8.47139 19.282 8.52608 19.2273C8.58077 19.1727 8.62362 19.1073 8.65196 19.0353C8.68029 18.9634 8.69258 18.8863 8.68986 18.809Z" fill="black" fill-opacity="0.2"/>
<path d="M8.68986 18.809V8.27289C8.68385 8.12241 8.61985 7.9801 8.51125 7.87575C8.40266 7.77141 8.2579 7.71313 8.1073 7.71313C7.9567 7.71313 7.81194 7.77141 7.70335 7.87575C7.59476 7.9801 7.53075 8.12241 7.52475 8.27289V18.809C7.524 18.8858 7.53857 18.9619 7.56761 19.033C7.59664 19.1041 7.63956 19.1687 7.69385 19.2229C7.74814 19.2772 7.8127 19.3202 7.88378 19.3492C7.95485 19.3782 8.03099 19.3928 8.10776 19.3921C8.18506 19.3948 8.26209 19.3816 8.33406 19.3532C8.40603 19.3249 8.47139 19.282 8.52608 19.2273C8.58077 19.1727 8.62362 19.1073 8.65196 19.0353C8.68029 18.9634 8.69258 18.8863 8.68986 18.809Z" fill="black" fill-opacity="0.2"/>
<path d="M8.68986 18.809V8.27289C8.68385 8.12241 8.61985 7.9801 8.51125 7.87575C8.40266 7.77141 8.2579 7.71313 8.1073 7.71313C7.9567 7.71313 7.81194 7.77141 7.70335 7.87575C7.59476 7.9801 7.53075 8.12241 7.52475 8.27289V18.809C7.524 18.8858 7.53857 18.9619 7.56761 19.033C7.59664 19.1041 7.63956 19.1687 7.69385 19.2229C7.74814 19.2772 7.8127 19.3202 7.88378 19.3492C7.95485 19.3782 8.03099 19.3928 8.10776 19.3921C8.18506 19.3948 8.26209 19.3816 8.33406 19.3532C8.40603 19.3249 8.47139 19.282 8.52608 19.2273C8.58077 19.1727 8.62362 19.1073 8.65196 19.0353C8.68029 18.9634 8.69258 18.8863 8.68986 18.809Z" fill="black" fill-opacity="0.2"/>
<path d="M12.5825 18.809V8.27289C12.5765 8.12241 12.5125 7.9801 12.4039 7.87575C12.2953 7.77141 12.1505 7.71313 11.9999 7.71313C11.8494 7.71313 11.7046 7.77141 11.596 7.87575C11.4874 7.9801 11.4234 8.12241 11.4174 8.27289V18.809C11.4143 18.8875 11.427 18.9658 11.4549 19.0392C11.4827 19.1126 11.5251 19.1796 11.5795 19.2362C11.634 19.2929 11.6992 19.3379 11.7715 19.3687C11.8437 19.3994 11.9214 19.4153 11.9999 19.4153C12.0785 19.4153 12.1562 19.3994 12.2284 19.3687C12.3007 19.3379 12.3659 19.2929 12.4204 19.2362C12.4748 19.1796 12.5172 19.1126 12.545 19.0392C12.5729 18.9658 12.5856 18.8875 12.5825 18.809Z" fill="black"/>
<path d="M12.5825 18.809V8.27289C12.5765 8.12241 12.5125 7.9801 12.4039 7.87575C12.2953 7.77141 12.1505 7.71313 11.9999 7.71313C11.8494 7.71313 11.7046 7.77141 11.596 7.87575C11.4874 7.9801 11.4234 8.12241 11.4174 8.27289V18.809C11.4143 18.8875 11.427 18.9658 11.4549 19.0392C11.4827 19.1126 11.5251 19.1796 11.5795 19.2362C11.634 19.2929 11.6992 19.3379 11.7715 19.3687C11.8437 19.3994 11.9214 19.4153 11.9999 19.4153C12.0785 19.4153 12.1562 19.3994 12.2284 19.3687C12.3007 19.3379 12.3659 19.2929 12.4204 19.2362C12.4748 19.1796 12.5172 19.1126 12.545 19.0392C12.5729 18.9658 12.5856 18.8875 12.5825 18.809Z" fill="black" fill-opacity="0.2"/>
<path d="M12.5825 18.809V8.27289C12.5765 8.12241 12.5125 7.9801 12.4039 7.87575C12.2953 7.77141 12.1505 7.71313 11.9999 7.71313C11.8494 7.71313 11.7046 7.77141 11.596 7.87575C11.4874 7.9801 11.4234 8.12241 11.4174 8.27289V18.809C11.4143 18.8875 11.427 18.9658 11.4549 19.0392C11.4827 19.1126 11.5251 19.1796 11.5795 19.2362C11.634 19.2929 11.6992 19.3379 11.7715 19.3687C11.8437 19.3994 11.9214 19.4153 11.9999 19.4153C12.0785 19.4153 12.1562 19.3994 12.2284 19.3687C12.3007 19.3379 12.3659 19.2929 12.4204 19.2362C12.4748 19.1796 12.5172 19.1126 12.545 19.0392C12.5729 18.9658 12.5856 18.8875 12.5825 18.809Z" fill="black" fill-opacity="0.2"/>
<path d="M12.5825 18.809V8.27289C12.5765 8.12241 12.5125 7.9801 12.4039 7.87575C12.2953 7.77141 12.1505 7.71313 11.9999 7.71313C11.8494 7.71313 11.7046 7.77141 11.596 7.87575C11.4874 7.9801 11.4234 8.12241 11.4174 8.27289V18.809C11.4143 18.8875 11.427 18.9658 11.4549 19.0392C11.4827 19.1126 11.5251 19.1796 11.5795 19.2362C11.634 19.2929 11.6992 19.3379 11.7715 19.3687C11.8437 19.3994 11.9214 19.4153 11.9999 19.4153C12.0785 19.4153 12.1562 19.3994 12.2284 19.3687C12.3007 19.3379 12.3659 19.2929 12.4204 19.2362C12.4748 19.1796 12.5172 19.1126 12.545 19.0392C12.5729 18.9658 12.5856 18.8875 12.5825 18.809Z" fill="black" fill-opacity="0.2"/>
<path d="M12.5825 18.809V8.27289C12.5765 8.12241 12.5125 7.9801 12.4039 7.87575C12.2953 7.77141 12.1505 7.71313 11.9999 7.71313C11.8494 7.71313 11.7046 7.77141 11.596 7.87575C11.4874 7.9801 11.4234 8.12241 11.4174 8.27289V18.809C11.4143 18.8875 11.427 18.9658 11.4549 19.0392C11.4827 19.1126 11.5251 19.1796 11.5795 19.2362C11.634 19.2929 11.6992 19.3379 11.7715 19.3687C11.8437 19.3994 11.9214 19.4153 11.9999 19.4153C12.0785 19.4153 12.1562 19.3994 12.2284 19.3687C12.3007 19.3379 12.3659 19.2929 12.4204 19.2362C12.4748 19.1796 12.5172 19.1126 12.545 19.0392C12.5729 18.9658 12.5856 18.8875 12.5825 18.809Z" fill="black" fill-opacity="0.2"/>
<path d="M12.5825 18.809V8.27289C12.5765 8.12241 12.5125 7.9801 12.4039 7.87575C12.2953 7.77141 12.1505 7.71313 11.9999 7.71313C11.8494 7.71313 11.7046 7.77141 11.596 7.87575C11.4874 7.9801 11.4234 8.12241 11.4174 8.27289V18.809C11.4143 18.8875 11.427 18.9658 11.4549 19.0392C11.4827 19.1126 11.5251 19.1796 11.5795 19.2362C11.634 19.2929 11.6992 19.3379 11.7715 19.3687C11.8437 19.3994 11.9214 19.4153 11.9999 19.4153C12.0785 19.4153 12.1562 19.3994 12.2284 19.3687C12.3007 19.3379 12.3659 19.2929 12.4204 19.2362C12.4748 19.1796 12.5172 19.1126 12.545 19.0392C12.5729 18.9658 12.5856 18.8875 12.5825 18.809Z" fill="black" fill-opacity="0.2"/>
<path d="M12.5825 18.809V8.27289C12.5765 8.12241 12.5125 7.9801 12.4039 7.87575C12.2953 7.77141 12.1505 7.71313 11.9999 7.71313C11.8494 7.71313 11.7046 7.77141 11.596 7.87575C11.4874 7.9801 11.4234 8.12241 11.4174 8.27289V18.809C11.4143 18.8875 11.427 18.9658 11.4549 19.0392C11.4827 19.1126 11.5251 19.1796 11.5795 19.2362C11.634 19.2929 11.6992 19.3379 11.7715 19.3687C11.8437 19.3994 11.9214 19.4153 11.9999 19.4153C12.0785 19.4153 12.1562 19.3994 12.2284 19.3687C12.3007 19.3379 12.3659 19.2929 12.4204 19.2362C12.4748 19.1796 12.5172 19.1126 12.545 19.0392C12.5729 18.9658 12.5856 18.8875 12.5825 18.809Z" fill="black" fill-opacity="0.2"/>
<path d="M12.5825 18.809V8.27289C12.5765 8.12241 12.5125 7.9801 12.4039 7.87575C12.2953 7.77141 12.1505 7.71313 11.9999 7.71313C11.8494 7.71313 11.7046 7.77141 11.596 7.87575C11.4874 7.9801 11.4234 8.12241 11.4174 8.27289V18.809C11.4143 18.8875 11.427 18.9658 11.4549 19.0392C11.4827 19.1126 11.5251 19.1796 11.5795 19.2362C11.634 19.2929 11.6992 19.3379 11.7715 19.3687C11.8437 19.3994 11.9214 19.4153 11.9999 19.4153C12.0785 19.4153 12.1562 19.3994 12.2284 19.3687C12.3007 19.3379 12.3659 19.2929 12.4204 19.2362C12.4748 19.1796 12.5172 19.1126 12.545 19.0392C12.5729 18.9658 12.5856 18.8875 12.5825 18.809Z" fill="black" fill-opacity="0.2"/>
<path d="M12.5825 18.809V8.27289C12.5765 8.12241 12.5125 7.9801 12.4039 7.87575C12.2953 7.77141 12.1505 7.71313 11.9999 7.71313C11.8494 7.71313 11.7046 7.77141 11.596 7.87575C11.4874 7.9801 11.4234 8.12241 11.4174 8.27289V18.809C11.4143 18.8875 11.427 18.9658 11.4549 19.0392C11.4827 19.1126 11.5251 19.1796 11.5795 19.2362C11.634 19.2929 11.6992 19.3379 11.7715 19.3687C11.8437 19.3994 11.9214 19.4153 11.9999 19.4153C12.0785 19.4153 12.1562 19.3994 12.2284 19.3687C12.3007 19.3379 12.3659 19.2929 12.4204 19.2362C12.4748 19.1796 12.5172 19.1126 12.545 19.0392C12.5729 18.9658 12.5856 18.8875 12.5825 18.809Z" fill="black" fill-opacity="0.2"/>
<path d="M12.5825 18.809V8.27289C12.5765 8.12241 12.5125 7.9801 12.4039 7.87575C12.2953 7.77141 12.1505 7.71313 11.9999 7.71313C11.8494 7.71313 11.7046 7.77141 11.596 7.87575C11.4874 7.9801 11.4234 8.12241 11.4174 8.27289V18.809C11.4143 18.8875 11.427 18.9658 11.4549 19.0392C11.4827 19.1126 11.5251 19.1796 11.5795 19.2362C11.634 19.2929 11.6992 19.3379 11.7715 19.3687C11.8437 19.3994 11.9214 19.4153 11.9999 19.4153C12.0785 19.4153 12.1562 19.3994 12.2284 19.3687C12.3007 19.3379 12.3659 19.2929 12.4204 19.2362C12.4748 19.1796 12.5172 19.1126 12.545 19.0392C12.5729 18.9658 12.5856 18.8875 12.5825 18.809Z" fill="black" fill-opacity="0.2"/>
<path d="M16.4751 18.809V8.27289C16.4691 8.12241 16.4051 7.9801 16.2965 7.87575C16.1879 7.77141 16.0432 7.71313 15.8926 7.71313C15.742 7.71313 15.5972 7.77141 15.4886 7.87575C15.38 7.9801 15.316 8.12241 15.31 8.27289V18.809C15.3069 18.8875 15.3197 18.9658 15.3475 19.0392C15.3754 19.1126 15.4178 19.1796 15.4722 19.2362C15.5266 19.2929 15.5919 19.3379 15.6641 19.3687C15.7364 19.3994 15.8141 19.4153 15.8926 19.4153C15.9711 19.4153 16.0488 19.3994 16.1211 19.3687C16.1933 19.3379 16.2586 19.2929 16.313 19.2362C16.3674 19.1796 16.4098 19.1126 16.4377 19.0392C16.4655 18.9658 16.4783 18.8875 16.4751 18.809Z" fill="black"/>
<path d="M16.4751 18.809V8.27289C16.4691 8.12241 16.4051 7.9801 16.2965 7.87575C16.1879 7.77141 16.0432 7.71313 15.8926 7.71313C15.742 7.71313 15.5972 7.77141 15.4886 7.87575C15.38 7.9801 15.316 8.12241 15.31 8.27289V18.809C15.3069 18.8875 15.3197 18.9658 15.3475 19.0392C15.3754 19.1126 15.4178 19.1796 15.4722 19.2362C15.5266 19.2929 15.5919 19.3379 15.6641 19.3687C15.7364 19.3994 15.8141 19.4153 15.8926 19.4153C15.9711 19.4153 16.0488 19.3994 16.1211 19.3687C16.1933 19.3379 16.2586 19.2929 16.313 19.2362C16.3674 19.1796 16.4098 19.1126 16.4377 19.0392C16.4655 18.9658 16.4783 18.8875 16.4751 18.809Z" fill="black" fill-opacity="0.2"/>
<path d="M16.4751 18.809V8.27289C16.4691 8.12241 16.4051 7.9801 16.2965 7.87575C16.1879 7.77141 16.0432 7.71313 15.8926 7.71313C15.742 7.71313 15.5972 7.77141 15.4886 7.87575C15.38 7.9801 15.316 8.12241 15.31 8.27289V18.809C15.3069 18.8875 15.3197 18.9658 15.3475 19.0392C15.3754 19.1126 15.4178 19.1796 15.4722 19.2362C15.5266 19.2929 15.5919 19.3379 15.6641 19.3687C15.7364 19.3994 15.8141 19.4153 15.8926 19.4153C15.9711 19.4153 16.0488 19.3994 16.1211 19.3687C16.1933 19.3379 16.2586 19.2929 16.313 19.2362C16.3674 19.1796 16.4098 19.1126 16.4377 19.0392C16.4655 18.9658 16.4783 18.8875 16.4751 18.809Z" fill="black" fill-opacity="0.2"/>
<path d="M16.4751 18.809V8.27289C16.4691 8.12241 16.4051 7.9801 16.2965 7.87575C16.1879 7.77141 16.0432 7.71313 15.8926 7.71313C15.742 7.71313 15.5972 7.77141 15.4886 7.87575C15.38 7.9801 15.316 8.12241 15.31 8.27289V18.809C15.3069 18.8875 15.3197 18.9658 15.3475 19.0392C15.3754 19.1126 15.4178 19.1796 15.4722 19.2362C15.5266 19.2929 15.5919 19.3379 15.6641 19.3687C15.7364 19.3994 15.8141 19.4153 15.8926 19.4153C15.9711 19.4153 16.0488 19.3994 16.1211 19.3687C16.1933 19.3379 16.2586 19.2929 16.313 19.2362C16.3674 19.1796 16.4098 19.1126 16.4377 19.0392C16.4655 18.9658 16.4783 18.8875 16.4751 18.809Z" fill="black" fill-opacity="0.2"/>
<path d="M16.4751 18.809V8.27289C16.4691 8.12241 16.4051 7.9801 16.2965 7.87575C16.1879 7.77141 16.0432 7.71313 15.8926 7.71313C15.742 7.71313 15.5972 7.77141 15.4886 7.87575C15.38 7.9801 15.316 8.12241 15.31 8.27289V18.809C15.3069 18.8875 15.3197 18.9658 15.3475 19.0392C15.3754 19.1126 15.4178 19.1796 15.4722 19.2362C15.5266 19.2929 15.5919 19.3379 15.6641 19.3687C15.7364 19.3994 15.8141 19.4153 15.8926 19.4153C15.9711 19.4153 16.0488 19.3994 16.1211 19.3687C16.1933 19.3379 16.2586 19.2929 16.313 19.2362C16.3674 19.1796 16.4098 19.1126 16.4377 19.0392C16.4655 18.9658 16.4783 18.8875 16.4751 18.809Z" fill="black" fill-opacity="0.2"/>
<path d="M16.4751 18.809V8.27289C16.4691 8.12241 16.4051 7.9801 16.2965 7.87575C16.1879 7.77141 16.0432 7.71313 15.8926 7.71313C15.742 7.71313 15.5972 7.77141 15.4886 7.87575C15.38 7.9801 15.316 8.12241 15.31 8.27289V18.809C15.3069 18.8875 15.3197 18.9658 15.3475 19.0392C15.3754 19.1126 15.4178 19.1796 15.4722 19.2362C15.5266 19.2929 15.5919 19.3379 15.6641 19.3687C15.7364 19.3994 15.8141 19.4153 15.8926 19.4153C15.9711 19.4153 16.0488 19.3994 16.1211 19.3687C16.1933 19.3379 16.2586 19.2929 16.313 19.2362C16.3674 19.1796 16.4098 19.1126 16.4377 19.0392C16.4655 18.9658 16.4783 18.8875 16.4751 18.809Z" fill="black" fill-opacity="0.2"/>
<path d="M16.4751 18.809V8.27289C16.4691 8.12241 16.4051 7.9801 16.2965 7.87575C16.1879 7.77141 16.0432 7.71313 15.8926 7.71313C15.742 7.71313 15.5972 7.77141 15.4886 7.87575C15.38 7.9801 15.316 8.12241 15.31 8.27289V18.809C15.3069 18.8875 15.3197 18.9658 15.3475 19.0392C15.3754 19.1126 15.4178 19.1796 15.4722 19.2362C15.5266 19.2929 15.5919 19.3379 15.6641 19.3687C15.7364 19.3994 15.8141 19.4153 15.8926 19.4153C15.9711 19.4153 16.0488 19.3994 16.1211 19.3687C16.1933 19.3379 16.2586 19.2929 16.313 19.2362C16.3674 19.1796 16.4098 19.1126 16.4377 19.0392C16.4655 18.9658 16.4783 18.8875 16.4751 18.809Z" fill="black" fill-opacity="0.2"/>
<path d="M16.4751 18.809V8.27289C16.4691 8.12241 16.4051 7.9801 16.2965 7.87575C16.1879 7.77141 16.0432 7.71313 15.8926 7.71313C15.742 7.71313 15.5972 7.77141 15.4886 7.87575C15.38 7.9801 15.316 8.12241 15.31 8.27289V18.809C15.3069 18.8875 15.3197 18.9658 15.3475 19.0392C15.3754 19.1126 15.4178 19.1796 15.4722 19.2362C15.5266 19.2929 15.5919 19.3379 15.6641 19.3687C15.7364 19.3994 15.8141 19.4153 15.8926 19.4153C15.9711 19.4153 16.0488 19.3994 16.1211 19.3687C16.1933 19.3379 16.2586 19.2929 16.313 19.2362C16.3674 19.1796 16.4098 19.1126 16.4377 19.0392C16.4655 18.9658 16.4783 18.8875 16.4751 18.809Z" fill="black" fill-opacity="0.2"/>
<path d="M16.4751 18.809V8.27289C16.4691 8.12241 16.4051 7.9801 16.2965 7.87575C16.1879 7.77141 16.0432 7.71313 15.8926 7.71313C15.742 7.71313 15.5972 7.77141 15.4886 7.87575C15.38 7.9801 15.316 8.12241 15.31 8.27289V18.809C15.3069 18.8875 15.3197 18.9658 15.3475 19.0392C15.3754 19.1126 15.4178 19.1796 15.4722 19.2362C15.5266 19.2929 15.5919 19.3379 15.6641 19.3687C15.7364 19.3994 15.8141 19.4153 15.8926 19.4153C15.9711 19.4153 16.0488 19.3994 16.1211 19.3687C16.1933 19.3379 16.2586 19.2929 16.313 19.2362C16.3674 19.1796 16.4098 19.1126 16.4377 19.0392C16.4655 18.9658 16.4783 18.8875 16.4751 18.809Z" fill="black" fill-opacity="0.2"/>
<path d="M16.4751 18.809V8.27289C16.4691 8.12241 16.4051 7.9801 16.2965 7.87575C16.1879 7.77141 16.0432 7.71313 15.8926 7.71313C15.742 7.71313 15.5972 7.77141 15.4886 7.87575C15.38 7.9801 15.316 8.12241 15.31 8.27289V18.809C15.3069 18.8875 15.3197 18.9658 15.3475 19.0392C15.3754 19.1126 15.4178 19.1796 15.4722 19.2362C15.5266 19.2929 15.5919 19.3379 15.6641 19.3687C15.7364 19.3994 15.8141 19.4153 15.8926 19.4153C15.9711 19.4153 16.0488 19.3994 16.1211 19.3687C16.1933 19.3379 16.2586 19.2929 16.313 19.2362C16.3674 19.1796 16.4098 19.1126 16.4377 19.0392C16.4655 18.9658 16.4783 18.8875 16.4751 18.809Z" fill="black" fill-opacity="0.2"/>
</svg>
