<svg width="24" height="24" viewBox="0 0 24 24" fill="none" xmlns="http://www.w3.org/2000/svg">
<path fill-rule="evenodd" clip-rule="evenodd" d="M15.501 0.675913L5.30913 12.2136L15.5261 23.3519L18.4738 20.6481L10.6908 12.1632L18.4989 3.32409L15.501 0.675913Z" fill="black"/>
<path fill-rule="evenodd" clip-rule="evenodd" d="M15.501 0.675913L5.30913 12.2136L15.5261 23.3519L18.4738 20.6481L10.6908 12.1632L18.4989 3.32409L15.501 0.675913Z" fill="black" fill-opacity="0.2"/>
<path fill-rule="evenodd" clip-rule="evenodd" d="M15.501 0.675913L5.30913 12.2136L15.5261 23.3519L18.4738 20.6481L10.6908 12.1632L18.4989 3.32409L15.501 0.675913Z" fill="black" fill-opacity="0.2"/>
<path fill-rule="evenodd" clip-rule="evenodd" d="M15.501 0.675913L5.30913 12.2136L15.5261 23.3519L18.4738 20.6481L10.6908 12.1632L18.4989 3.32409L15.501 0.675913Z" fill="black" fill-opacity="0.2"/>
<path fill-rule="evenodd" clip-rule="evenodd" d="M15.501 0.675913L5.30913 12.2136L15.5261 23.3519L18.4738 20.6481L10.6908 12.1632L18.4989 3.32409L15.501 0.675913Z" fill="black" fill-opacity="0.2"/>
<path fill-rule="evenodd" clip-rule="evenodd" d="M15.501 0.675913L5.30913 12.2136L15.5261 23.3519L18.4738 20.6481L10.6908 12.1632L18.4989 3.32409L15.501 0.675913Z" fill="black" fill-opacity="0.2"/>
<path fill-rule="evenodd" clip-rule="evenodd" d="M15.501 0.675913L5.30913 12.2136L15.5261 23.3519L18.4738 20.6481L10.6908 12.1632L18.4989 3.32409L15.501 0.675913Z" fill="black" fill-opacity="0.2"/>
<path fill-rule="evenodd" clip-rule="evenodd" d="M15.501 0.675913L5.30913 12.2136L15.5261 23.3519L18.4738 20.6481L10.6908 12.1632L18.4989 3.32409L15.501 0.675913Z" fill="black" fill-opacity="0.2"/>
<path fill-rule="evenodd" clip-rule="evenodd" d="M15.501 0.675913L5.30913 12.2136L15.5261 23.3519L18.4738 20.6481L10.6908 12.1632L18.4989 3.32409L15.501 0.675913Z" fill="black" fill-opacity="0.2"/>
<path fill-rule="evenodd" clip-rule="evenodd" d="M15.501 0.675913L5.30913 12.2136L15.5261 23.3519L18.4738 20.6481L10.6908 12.1632L18.4989 3.32409L15.501 0.675913Z" fill="black" fill-opacity="0.2"/>
</svg>
