<svg width="16" height="16" viewBox="0 0 16 16" fill="none" xmlns="http://www.w3.org/2000/svg">
<g clip-path="url(#clip0_368_1148)">
<path fill-rule="evenodd" clip-rule="evenodd" d="M15.4286 13.1432H12.4903C12.1804 11.9257 10.9422 11.1899 9.72458 11.4997C8.91713 11.7052 8.28662 12.3357 8.08111 13.1432H0.57144C0.255836 13.1432 0 13.399 0 13.7146C0 14.0302 0.255836 14.286 0.57144 14.286H8.08114C8.39102 15.5036 9.62926 16.2394 10.8468 15.9295C11.6543 15.724 12.2848 15.0935 12.4903 14.286H15.4286C15.7442 14.286 16 14.0302 16 13.7146C16 13.399 15.7442 13.1432 15.4286 13.1432ZM10.2857 14.8575C9.65454 14.8575 9.14286 14.3458 9.14286 13.7146C9.14286 13.0835 9.65454 12.5718 10.2857 12.5718C10.9169 12.5718 11.4286 13.0835 11.4286 13.7146C11.4286 14.3458 10.9169 14.8575 10.2857 14.8575ZM15.4286 1.71429H13.6331C13.3233 0.496748 12.085 -0.239056 10.8675 0.0708218C10.06 0.276336 9.4295 0.906837 9.22399 1.71429H0.57144C0.255836 1.71429 0 1.97013 0 2.28573C0 2.60133 0.255836 2.85717 0.57144 2.85717H9.22399C9.53387 4.07471 10.7721 4.81052 11.9897 4.50064C12.7971 4.29513 13.4276 3.66463 13.6331 2.85717H15.4286C15.7442 2.85717 16 2.60133 16 2.28573C16 1.97013 15.7442 1.71429 15.4286 1.71429ZM11.4286 3.42858C10.7974 3.42858 10.2857 2.9169 10.2857 2.28573C10.2857 1.65456 10.7974 1.14289 11.4286 1.14289C12.0598 1.14289 12.5714 1.65456 12.5714 2.28573C12.5714 2.9169 12.0598 3.42858 11.4286 3.42858ZM6.20457 7.42875H15.4286C15.7442 7.42875 16 7.68455 16 8.00015C16 8.31576 15.7442 8.57159 15.4286 8.57159H6.20461C5.99909 9.37905 5.36859 10.0095 4.56114 10.2151C3.34356 10.5249 2.10532 9.78914 1.79545 8.57159H0.57144C0.255836 8.57159 0 8.31579 0 8.00019C0 7.68458 0.255836 7.42875 0.57144 7.42875H1.79541C2.00093 6.62129 2.63143 5.99079 3.43888 5.78528C4.65646 5.4754 5.89469 6.2112 6.20457 7.42875ZM2.85716 8.00019C2.85716 8.63136 3.36884 9.14303 4.00001 9.14303C4.63118 9.14303 5.14285 8.63136 5.14285 8.00019C5.14285 7.36902 4.63118 6.85734 4.00001 6.85734C3.36884 6.85734 2.85716 7.36902 2.85716 8.00019Z" fill="black"/>
<path fill-rule="evenodd" clip-rule="evenodd" d="M15.4286 13.1432H12.4903C12.1804 11.9257 10.9422 11.1899 9.72458 11.4997C8.91713 11.7052 8.28662 12.3357 8.08111 13.1432H0.57144C0.255836 13.1432 0 13.399 0 13.7146C0 14.0302 0.255836 14.286 0.57144 14.286H8.08114C8.39102 15.5036 9.62926 16.2394 10.8468 15.9295C11.6543 15.724 12.2848 15.0935 12.4903 14.286H15.4286C15.7442 14.286 16 14.0302 16 13.7146C16 13.399 15.7442 13.1432 15.4286 13.1432ZM10.2857 14.8575C9.65454 14.8575 9.14286 14.3458 9.14286 13.7146C9.14286 13.0835 9.65454 12.5718 10.2857 12.5718C10.9169 12.5718 11.4286 13.0835 11.4286 13.7146C11.4286 14.3458 10.9169 14.8575 10.2857 14.8575ZM15.4286 1.71429H13.6331C13.3233 0.496748 12.085 -0.239056 10.8675 0.0708218C10.06 0.276336 9.4295 0.906837 9.22399 1.71429H0.57144C0.255836 1.71429 0 1.97013 0 2.28573C0 2.60133 0.255836 2.85717 0.57144 2.85717H9.22399C9.53387 4.07471 10.7721 4.81052 11.9897 4.50064C12.7971 4.29513 13.4276 3.66463 13.6331 2.85717H15.4286C15.7442 2.85717 16 2.60133 16 2.28573C16 1.97013 15.7442 1.71429 15.4286 1.71429ZM11.4286 3.42858C10.7974 3.42858 10.2857 2.9169 10.2857 2.28573C10.2857 1.65456 10.7974 1.14289 11.4286 1.14289C12.0598 1.14289 12.5714 1.65456 12.5714 2.28573C12.5714 2.9169 12.0598 3.42858 11.4286 3.42858ZM6.20457 7.42875H15.4286C15.7442 7.42875 16 7.68455 16 8.00015C16 8.31576 15.7442 8.57159 15.4286 8.57159H6.20461C5.99909 9.37905 5.36859 10.0095 4.56114 10.2151C3.34356 10.5249 2.10532 9.78914 1.79545 8.57159H0.57144C0.255836 8.57159 0 8.31579 0 8.00019C0 7.68458 0.255836 7.42875 0.57144 7.42875H1.79541C2.00093 6.62129 2.63143 5.99079 3.43888 5.78528C4.65646 5.4754 5.89469 6.2112 6.20457 7.42875ZM2.85716 8.00019C2.85716 8.63136 3.36884 9.14303 4.00001 9.14303C4.63118 9.14303 5.14285 8.63136 5.14285 8.00019C5.14285 7.36902 4.63118 6.85734 4.00001 6.85734C3.36884 6.85734 2.85716 7.36902 2.85716 8.00019Z" fill="black" fill-opacity="0.2"/>
<path fill-rule="evenodd" clip-rule="evenodd" d="M15.4286 13.1432H12.4903C12.1804 11.9257 10.9422 11.1899 9.72458 11.4997C8.91713 11.7052 8.28662 12.3357 8.08111 13.1432H0.57144C0.255836 13.1432 0 13.399 0 13.7146C0 14.0302 0.255836 14.286 0.57144 14.286H8.08114C8.39102 15.5036 9.62926 16.2394 10.8468 15.9295C11.6543 15.724 12.2848 15.0935 12.4903 14.286H15.4286C15.7442 14.286 16 14.0302 16 13.7146C16 13.399 15.7442 13.1432 15.4286 13.1432ZM10.2857 14.8575C9.65454 14.8575 9.14286 14.3458 9.14286 13.7146C9.14286 13.0835 9.65454 12.5718 10.2857 12.5718C10.9169 12.5718 11.4286 13.0835 11.4286 13.7146C11.4286 14.3458 10.9169 14.8575 10.2857 14.8575ZM15.4286 1.71429H13.6331C13.3233 0.496748 12.085 -0.239056 10.8675 0.0708218C10.06 0.276336 9.4295 0.906837 9.22399 1.71429H0.57144C0.255836 1.71429 0 1.97013 0 2.28573C0 2.60133 0.255836 2.85717 0.57144 2.85717H9.22399C9.53387 4.07471 10.7721 4.81052 11.9897 4.50064C12.7971 4.29513 13.4276 3.66463 13.6331 2.85717H15.4286C15.7442 2.85717 16 2.60133 16 2.28573C16 1.97013 15.7442 1.71429 15.4286 1.71429ZM11.4286 3.42858C10.7974 3.42858 10.2857 2.9169 10.2857 2.28573C10.2857 1.65456 10.7974 1.14289 11.4286 1.14289C12.0598 1.14289 12.5714 1.65456 12.5714 2.28573C12.5714 2.9169 12.0598 3.42858 11.4286 3.42858ZM6.20457 7.42875H15.4286C15.7442 7.42875 16 7.68455 16 8.00015C16 8.31576 15.7442 8.57159 15.4286 8.57159H6.20461C5.99909 9.37905 5.36859 10.0095 4.56114 10.2151C3.34356 10.5249 2.10532 9.78914 1.79545 8.57159H0.57144C0.255836 8.57159 0 8.31579 0 8.00019C0 7.68458 0.255836 7.42875 0.57144 7.42875H1.79541C2.00093 6.62129 2.63143 5.99079 3.43888 5.78528C4.65646 5.4754 5.89469 6.2112 6.20457 7.42875ZM2.85716 8.00019C2.85716 8.63136 3.36884 9.14303 4.00001 9.14303C4.63118 9.14303 5.14285 8.63136 5.14285 8.00019C5.14285 7.36902 4.63118 6.85734 4.00001 6.85734C3.36884 6.85734 2.85716 7.36902 2.85716 8.00019Z" fill="black" fill-opacity="0.2"/>
<path fill-rule="evenodd" clip-rule="evenodd" d="M15.4286 13.1432H12.4903C12.1804 11.9257 10.9422 11.1899 9.72458 11.4997C8.91713 11.7052 8.28662 12.3357 8.08111 13.1432H0.57144C0.255836 13.1432 0 13.399 0 13.7146C0 14.0302 0.255836 14.286 0.57144 14.286H8.08114C8.39102 15.5036 9.62926 16.2394 10.8468 15.9295C11.6543 15.724 12.2848 15.0935 12.4903 14.286H15.4286C15.7442 14.286 16 14.0302 16 13.7146C16 13.399 15.7442 13.1432 15.4286 13.1432ZM10.2857 14.8575C9.65454 14.8575 9.14286 14.3458 9.14286 13.7146C9.14286 13.0835 9.65454 12.5718 10.2857 12.5718C10.9169 12.5718 11.4286 13.0835 11.4286 13.7146C11.4286 14.3458 10.9169 14.8575 10.2857 14.8575ZM15.4286 1.71429H13.6331C13.3233 0.496748 12.085 -0.239056 10.8675 0.0708218C10.06 0.276336 9.4295 0.906837 9.22399 1.71429H0.57144C0.255836 1.71429 0 1.97013 0 2.28573C0 2.60133 0.255836 2.85717 0.57144 2.85717H9.22399C9.53387 4.07471 10.7721 4.81052 11.9897 4.50064C12.7971 4.29513 13.4276 3.66463 13.6331 2.85717H15.4286C15.7442 2.85717 16 2.60133 16 2.28573C16 1.97013 15.7442 1.71429 15.4286 1.71429ZM11.4286 3.42858C10.7974 3.42858 10.2857 2.9169 10.2857 2.28573C10.2857 1.65456 10.7974 1.14289 11.4286 1.14289C12.0598 1.14289 12.5714 1.65456 12.5714 2.28573C12.5714 2.9169 12.0598 3.42858 11.4286 3.42858ZM6.20457 7.42875H15.4286C15.7442 7.42875 16 7.68455 16 8.00015C16 8.31576 15.7442 8.57159 15.4286 8.57159H6.20461C5.99909 9.37905 5.36859 10.0095 4.56114 10.2151C3.34356 10.5249 2.10532 9.78914 1.79545 8.57159H0.57144C0.255836 8.57159 0 8.31579 0 8.00019C0 7.68458 0.255836 7.42875 0.57144 7.42875H1.79541C2.00093 6.62129 2.63143 5.99079 3.43888 5.78528C4.65646 5.4754 5.89469 6.2112 6.20457 7.42875ZM2.85716 8.00019C2.85716 8.63136 3.36884 9.14303 4.00001 9.14303C4.63118 9.14303 5.14285 8.63136 5.14285 8.00019C5.14285 7.36902 4.63118 6.85734 4.00001 6.85734C3.36884 6.85734 2.85716 7.36902 2.85716 8.00019Z" fill="black" fill-opacity="0.2"/>
<path fill-rule="evenodd" clip-rule="evenodd" d="M15.4286 13.1432H12.4903C12.1804 11.9257 10.9422 11.1899 9.72458 11.4997C8.91713 11.7052 8.28662 12.3357 8.08111 13.1432H0.57144C0.255836 13.1432 0 13.399 0 13.7146C0 14.0302 0.255836 14.286 0.57144 14.286H8.08114C8.39102 15.5036 9.62926 16.2394 10.8468 15.9295C11.6543 15.724 12.2848 15.0935 12.4903 14.286H15.4286C15.7442 14.286 16 14.0302 16 13.7146C16 13.399 15.7442 13.1432 15.4286 13.1432ZM10.2857 14.8575C9.65454 14.8575 9.14286 14.3458 9.14286 13.7146C9.14286 13.0835 9.65454 12.5718 10.2857 12.5718C10.9169 12.5718 11.4286 13.0835 11.4286 13.7146C11.4286 14.3458 10.9169 14.8575 10.2857 14.8575ZM15.4286 1.71429H13.6331C13.3233 0.496748 12.085 -0.239056 10.8675 0.0708218C10.06 0.276336 9.4295 0.906837 9.22399 1.71429H0.57144C0.255836 1.71429 0 1.97013 0 2.28573C0 2.60133 0.255836 2.85717 0.57144 2.85717H9.22399C9.53387 4.07471 10.7721 4.81052 11.9897 4.50064C12.7971 4.29513 13.4276 3.66463 13.6331 2.85717H15.4286C15.7442 2.85717 16 2.60133 16 2.28573C16 1.97013 15.7442 1.71429 15.4286 1.71429ZM11.4286 3.42858C10.7974 3.42858 10.2857 2.9169 10.2857 2.28573C10.2857 1.65456 10.7974 1.14289 11.4286 1.14289C12.0598 1.14289 12.5714 1.65456 12.5714 2.28573C12.5714 2.9169 12.0598 3.42858 11.4286 3.42858ZM6.20457 7.42875H15.4286C15.7442 7.42875 16 7.68455 16 8.00015C16 8.31576 15.7442 8.57159 15.4286 8.57159H6.20461C5.99909 9.37905 5.36859 10.0095 4.56114 10.2151C3.34356 10.5249 2.10532 9.78914 1.79545 8.57159H0.57144C0.255836 8.57159 0 8.31579 0 8.00019C0 7.68458 0.255836 7.42875 0.57144 7.42875H1.79541C2.00093 6.62129 2.63143 5.99079 3.43888 5.78528C4.65646 5.4754 5.89469 6.2112 6.20457 7.42875ZM2.85716 8.00019C2.85716 8.63136 3.36884 9.14303 4.00001 9.14303C4.63118 9.14303 5.14285 8.63136 5.14285 8.00019C5.14285 7.36902 4.63118 6.85734 4.00001 6.85734C3.36884 6.85734 2.85716 7.36902 2.85716 8.00019Z" fill="black" fill-opacity="0.2"/>
<path fill-rule="evenodd" clip-rule="evenodd" d="M15.4286 13.1432H12.4903C12.1804 11.9257 10.9422 11.1899 9.72458 11.4997C8.91713 11.7052 8.28662 12.3357 8.08111 13.1432H0.57144C0.255836 13.1432 0 13.399 0 13.7146C0 14.0302 0.255836 14.286 0.57144 14.286H8.08114C8.39102 15.5036 9.62926 16.2394 10.8468 15.9295C11.6543 15.724 12.2848 15.0935 12.4903 14.286H15.4286C15.7442 14.286 16 14.0302 16 13.7146C16 13.399 15.7442 13.1432 15.4286 13.1432ZM10.2857 14.8575C9.65454 14.8575 9.14286 14.3458 9.14286 13.7146C9.14286 13.0835 9.65454 12.5718 10.2857 12.5718C10.9169 12.5718 11.4286 13.0835 11.4286 13.7146C11.4286 14.3458 10.9169 14.8575 10.2857 14.8575ZM15.4286 1.71429H13.6331C13.3233 0.496748 12.085 -0.239056 10.8675 0.0708218C10.06 0.276336 9.4295 0.906837 9.22399 1.71429H0.57144C0.255836 1.71429 0 1.97013 0 2.28573C0 2.60133 0.255836 2.85717 0.57144 2.85717H9.22399C9.53387 4.07471 10.7721 4.81052 11.9897 4.50064C12.7971 4.29513 13.4276 3.66463 13.6331 2.85717H15.4286C15.7442 2.85717 16 2.60133 16 2.28573C16 1.97013 15.7442 1.71429 15.4286 1.71429ZM11.4286 3.42858C10.7974 3.42858 10.2857 2.9169 10.2857 2.28573C10.2857 1.65456 10.7974 1.14289 11.4286 1.14289C12.0598 1.14289 12.5714 1.65456 12.5714 2.28573C12.5714 2.9169 12.0598 3.42858 11.4286 3.42858ZM6.20457 7.42875H15.4286C15.7442 7.42875 16 7.68455 16 8.00015C16 8.31576 15.7442 8.57159 15.4286 8.57159H6.20461C5.99909 9.37905 5.36859 10.0095 4.56114 10.2151C3.34356 10.5249 2.10532 9.78914 1.79545 8.57159H0.57144C0.255836 8.57159 0 8.31579 0 8.00019C0 7.68458 0.255836 7.42875 0.57144 7.42875H1.79541C2.00093 6.62129 2.63143 5.99079 3.43888 5.78528C4.65646 5.4754 5.89469 6.2112 6.20457 7.42875ZM2.85716 8.00019C2.85716 8.63136 3.36884 9.14303 4.00001 9.14303C4.63118 9.14303 5.14285 8.63136 5.14285 8.00019C5.14285 7.36902 4.63118 6.85734 4.00001 6.85734C3.36884 6.85734 2.85716 7.36902 2.85716 8.00019Z" fill="black" fill-opacity="0.2"/>
<path fill-rule="evenodd" clip-rule="evenodd" d="M15.4286 13.1432H12.4903C12.1804 11.9257 10.9422 11.1899 9.72458 11.4997C8.91713 11.7052 8.28662 12.3357 8.08111 13.1432H0.57144C0.255836 13.1432 0 13.399 0 13.7146C0 14.0302 0.255836 14.286 0.57144 14.286H8.08114C8.39102 15.5036 9.62926 16.2394 10.8468 15.9295C11.6543 15.724 12.2848 15.0935 12.4903 14.286H15.4286C15.7442 14.286 16 14.0302 16 13.7146C16 13.399 15.7442 13.1432 15.4286 13.1432ZM10.2857 14.8575C9.65454 14.8575 9.14286 14.3458 9.14286 13.7146C9.14286 13.0835 9.65454 12.5718 10.2857 12.5718C10.9169 12.5718 11.4286 13.0835 11.4286 13.7146C11.4286 14.3458 10.9169 14.8575 10.2857 14.8575ZM15.4286 1.71429H13.6331C13.3233 0.496748 12.085 -0.239056 10.8675 0.0708218C10.06 0.276336 9.4295 0.906837 9.22399 1.71429H0.57144C0.255836 1.71429 0 1.97013 0 2.28573C0 2.60133 0.255836 2.85717 0.57144 2.85717H9.22399C9.53387 4.07471 10.7721 4.81052 11.9897 4.50064C12.7971 4.29513 13.4276 3.66463 13.6331 2.85717H15.4286C15.7442 2.85717 16 2.60133 16 2.28573C16 1.97013 15.7442 1.71429 15.4286 1.71429ZM11.4286 3.42858C10.7974 3.42858 10.2857 2.9169 10.2857 2.28573C10.2857 1.65456 10.7974 1.14289 11.4286 1.14289C12.0598 1.14289 12.5714 1.65456 12.5714 2.28573C12.5714 2.9169 12.0598 3.42858 11.4286 3.42858ZM6.20457 7.42875H15.4286C15.7442 7.42875 16 7.68455 16 8.00015C16 8.31576 15.7442 8.57159 15.4286 8.57159H6.20461C5.99909 9.37905 5.36859 10.0095 4.56114 10.2151C3.34356 10.5249 2.10532 9.78914 1.79545 8.57159H0.57144C0.255836 8.57159 0 8.31579 0 8.00019C0 7.68458 0.255836 7.42875 0.57144 7.42875H1.79541C2.00093 6.62129 2.63143 5.99079 3.43888 5.78528C4.65646 5.4754 5.89469 6.2112 6.20457 7.42875ZM2.85716 8.00019C2.85716 8.63136 3.36884 9.14303 4.00001 9.14303C4.63118 9.14303 5.14285 8.63136 5.14285 8.00019C5.14285 7.36902 4.63118 6.85734 4.00001 6.85734C3.36884 6.85734 2.85716 7.36902 2.85716 8.00019Z" fill="black" fill-opacity="0.2"/>
<path fill-rule="evenodd" clip-rule="evenodd" d="M15.4286 13.1432H12.4903C12.1804 11.9257 10.9422 11.1899 9.72458 11.4997C8.91713 11.7052 8.28662 12.3357 8.08111 13.1432H0.57144C0.255836 13.1432 0 13.399 0 13.7146C0 14.0302 0.255836 14.286 0.57144 14.286H8.08114C8.39102 15.5036 9.62926 16.2394 10.8468 15.9295C11.6543 15.724 12.2848 15.0935 12.4903 14.286H15.4286C15.7442 14.286 16 14.0302 16 13.7146C16 13.399 15.7442 13.1432 15.4286 13.1432ZM10.2857 14.8575C9.65454 14.8575 9.14286 14.3458 9.14286 13.7146C9.14286 13.0835 9.65454 12.5718 10.2857 12.5718C10.9169 12.5718 11.4286 13.0835 11.4286 13.7146C11.4286 14.3458 10.9169 14.8575 10.2857 14.8575ZM15.4286 1.71429H13.6331C13.3233 0.496748 12.085 -0.239056 10.8675 0.0708218C10.06 0.276336 9.4295 0.906837 9.22399 1.71429H0.57144C0.255836 1.71429 0 1.97013 0 2.28573C0 2.60133 0.255836 2.85717 0.57144 2.85717H9.22399C9.53387 4.07471 10.7721 4.81052 11.9897 4.50064C12.7971 4.29513 13.4276 3.66463 13.6331 2.85717H15.4286C15.7442 2.85717 16 2.60133 16 2.28573C16 1.97013 15.7442 1.71429 15.4286 1.71429ZM11.4286 3.42858C10.7974 3.42858 10.2857 2.9169 10.2857 2.28573C10.2857 1.65456 10.7974 1.14289 11.4286 1.14289C12.0598 1.14289 12.5714 1.65456 12.5714 2.28573C12.5714 2.9169 12.0598 3.42858 11.4286 3.42858ZM6.20457 7.42875H15.4286C15.7442 7.42875 16 7.68455 16 8.00015C16 8.31576 15.7442 8.57159 15.4286 8.57159H6.20461C5.99909 9.37905 5.36859 10.0095 4.56114 10.2151C3.34356 10.5249 2.10532 9.78914 1.79545 8.57159H0.57144C0.255836 8.57159 0 8.31579 0 8.00019C0 7.68458 0.255836 7.42875 0.57144 7.42875H1.79541C2.00093 6.62129 2.63143 5.99079 3.43888 5.78528C4.65646 5.4754 5.89469 6.2112 6.20457 7.42875ZM2.85716 8.00019C2.85716 8.63136 3.36884 9.14303 4.00001 9.14303C4.63118 9.14303 5.14285 8.63136 5.14285 8.00019C5.14285 7.36902 4.63118 6.85734 4.00001 6.85734C3.36884 6.85734 2.85716 7.36902 2.85716 8.00019Z" fill="black" fill-opacity="0.2"/>
<path fill-rule="evenodd" clip-rule="evenodd" d="M15.4286 13.1432H12.4903C12.1804 11.9257 10.9422 11.1899 9.72458 11.4997C8.91713 11.7052 8.28662 12.3357 8.08111 13.1432H0.57144C0.255836 13.1432 0 13.399 0 13.7146C0 14.0302 0.255836 14.286 0.57144 14.286H8.08114C8.39102 15.5036 9.62926 16.2394 10.8468 15.9295C11.6543 15.724 12.2848 15.0935 12.4903 14.286H15.4286C15.7442 14.286 16 14.0302 16 13.7146C16 13.399 15.7442 13.1432 15.4286 13.1432ZM10.2857 14.8575C9.65454 14.8575 9.14286 14.3458 9.14286 13.7146C9.14286 13.0835 9.65454 12.5718 10.2857 12.5718C10.9169 12.5718 11.4286 13.0835 11.4286 13.7146C11.4286 14.3458 10.9169 14.8575 10.2857 14.8575ZM15.4286 1.71429H13.6331C13.3233 0.496748 12.085 -0.239056 10.8675 0.0708218C10.06 0.276336 9.4295 0.906837 9.22399 1.71429H0.57144C0.255836 1.71429 0 1.97013 0 2.28573C0 2.60133 0.255836 2.85717 0.57144 2.85717H9.22399C9.53387 4.07471 10.7721 4.81052 11.9897 4.50064C12.7971 4.29513 13.4276 3.66463 13.6331 2.85717H15.4286C15.7442 2.85717 16 2.60133 16 2.28573C16 1.97013 15.7442 1.71429 15.4286 1.71429ZM11.4286 3.42858C10.7974 3.42858 10.2857 2.9169 10.2857 2.28573C10.2857 1.65456 10.7974 1.14289 11.4286 1.14289C12.0598 1.14289 12.5714 1.65456 12.5714 2.28573C12.5714 2.9169 12.0598 3.42858 11.4286 3.42858ZM6.20457 7.42875H15.4286C15.7442 7.42875 16 7.68455 16 8.00015C16 8.31576 15.7442 8.57159 15.4286 8.57159H6.20461C5.99909 9.37905 5.36859 10.0095 4.56114 10.2151C3.34356 10.5249 2.10532 9.78914 1.79545 8.57159H0.57144C0.255836 8.57159 0 8.31579 0 8.00019C0 7.68458 0.255836 7.42875 0.57144 7.42875H1.79541C2.00093 6.62129 2.63143 5.99079 3.43888 5.78528C4.65646 5.4754 5.89469 6.2112 6.20457 7.42875ZM2.85716 8.00019C2.85716 8.63136 3.36884 9.14303 4.00001 9.14303C4.63118 9.14303 5.14285 8.63136 5.14285 8.00019C5.14285 7.36902 4.63118 6.85734 4.00001 6.85734C3.36884 6.85734 2.85716 7.36902 2.85716 8.00019Z" fill="black" fill-opacity="0.2"/>
<path fill-rule="evenodd" clip-rule="evenodd" d="M15.4286 13.1432H12.4903C12.1804 11.9257 10.9422 11.1899 9.72458 11.4997C8.91713 11.7052 8.28662 12.3357 8.08111 13.1432H0.57144C0.255836 13.1432 0 13.399 0 13.7146C0 14.0302 0.255836 14.286 0.57144 14.286H8.08114C8.39102 15.5036 9.62926 16.2394 10.8468 15.9295C11.6543 15.724 12.2848 15.0935 12.4903 14.286H15.4286C15.7442 14.286 16 14.0302 16 13.7146C16 13.399 15.7442 13.1432 15.4286 13.1432ZM10.2857 14.8575C9.65454 14.8575 9.14286 14.3458 9.14286 13.7146C9.14286 13.0835 9.65454 12.5718 10.2857 12.5718C10.9169 12.5718 11.4286 13.0835 11.4286 13.7146C11.4286 14.3458 10.9169 14.8575 10.2857 14.8575ZM15.4286 1.71429H13.6331C13.3233 0.496748 12.085 -0.239056 10.8675 0.0708218C10.06 0.276336 9.4295 0.906837 9.22399 1.71429H0.57144C0.255836 1.71429 0 1.97013 0 2.28573C0 2.60133 0.255836 2.85717 0.57144 2.85717H9.22399C9.53387 4.07471 10.7721 4.81052 11.9897 4.50064C12.7971 4.29513 13.4276 3.66463 13.6331 2.85717H15.4286C15.7442 2.85717 16 2.60133 16 2.28573C16 1.97013 15.7442 1.71429 15.4286 1.71429ZM11.4286 3.42858C10.7974 3.42858 10.2857 2.9169 10.2857 2.28573C10.2857 1.65456 10.7974 1.14289 11.4286 1.14289C12.0598 1.14289 12.5714 1.65456 12.5714 2.28573C12.5714 2.9169 12.0598 3.42858 11.4286 3.42858ZM6.20457 7.42875H15.4286C15.7442 7.42875 16 7.68455 16 8.00015C16 8.31576 15.7442 8.57159 15.4286 8.57159H6.20461C5.99909 9.37905 5.36859 10.0095 4.56114 10.2151C3.34356 10.5249 2.10532 9.78914 1.79545 8.57159H0.57144C0.255836 8.57159 0 8.31579 0 8.00019C0 7.68458 0.255836 7.42875 0.57144 7.42875H1.79541C2.00093 6.62129 2.63143 5.99079 3.43888 5.78528C4.65646 5.4754 5.89469 6.2112 6.20457 7.42875ZM2.85716 8.00019C2.85716 8.63136 3.36884 9.14303 4.00001 9.14303C4.63118 9.14303 5.14285 8.63136 5.14285 8.00019C5.14285 7.36902 4.63118 6.85734 4.00001 6.85734C3.36884 6.85734 2.85716 7.36902 2.85716 8.00019Z" fill="black" fill-opacity="0.2"/>
</g>
<defs>
<clipPath id="clip0_368_1148">
<rect width="16" height="16" fill="white" transform="matrix(-1 0 0 -1 16 16)"/>
</clipPath>
</defs>
</svg>
