<svg width="32" height="32" viewBox="0 0 32 32" fill="none" xmlns="http://www.w3.org/2000/svg">
<g clip-path="url(#clip0_314_197)">
<path fill-rule="evenodd" clip-rule="evenodd" d="M32 13.6611L28.4501 12.7883L28.2721 12.2112C28.0367 11.4486 27.7297 10.7089 27.3565 10.0036L27.0739 9.46944L28.967 6.34025L25.6601 3.03262L22.5308 4.92594L21.9967 4.64356C21.291 4.27037 20.551 3.9635 19.7882 3.72769L19.2116 3.54944L18.3386 6.25e-05L13.6611 0L12.7883 3.55063L12.211 3.72863C11.4484 3.96375 10.7087 4.27056 10.0033 4.64362L9.46925 4.92594L6.34019 3.03288L3.03256 6.33981L4.926 9.46925L4.64362 10.0033C4.27044 10.7091 3.96344 11.4489 3.72769 12.2117L3.54944 12.7884L0 13.6613V18.3389L3.54975 19.2118L3.72781 19.7888C3.96312 20.5514 4.27012 21.2911 4.64337 21.9964L4.92594 22.5304L3.03281 25.6597L6.33981 28.9673L9.46944 27.074L10.0034 27.3563C10.7091 27.7295 11.4489 28.0364 12.2116 28.2722L12.7882 28.4504L13.6613 32L18.3389 31.9999L19.212 28.4501L19.789 28.2721C20.5515 28.0368 21.2911 27.7298 21.9964 27.3565L22.5304 27.0739L25.6597 28.967L28.9673 25.6601L27.0742 22.5306L27.3565 21.9967C27.7297 21.2909 28.0364 20.551 28.2722 19.7883L28.4504 19.2116L31.9999 18.3386L32 13.6611ZM16.0001 8.68937C20.0306 8.68937 23.3107 11.9696 23.3107 16C23.3107 20.0307 20.0307 23.3106 16 23.3106C11.9695 23.3106 8.68931 20.0305 8.68931 16C8.68925 11.9694 11.9695 8.68937 16.0001 8.68937Z" fill="black"/>
<path fill-rule="evenodd" clip-rule="evenodd" d="M32 13.6611L28.4501 12.7883L28.2721 12.2112C28.0367 11.4486 27.7297 10.7089 27.3565 10.0036L27.0739 9.46944L28.967 6.34025L25.6601 3.03262L22.5308 4.92594L21.9967 4.64356C21.291 4.27037 20.551 3.9635 19.7882 3.72769L19.2116 3.54944L18.3386 6.25e-05L13.6611 0L12.7883 3.55063L12.211 3.72863C11.4484 3.96375 10.7087 4.27056 10.0033 4.64362L9.46925 4.92594L6.34019 3.03288L3.03256 6.33981L4.926 9.46925L4.64362 10.0033C4.27044 10.7091 3.96344 11.4489 3.72769 12.2117L3.54944 12.7884L0 13.6613V18.3389L3.54975 19.2118L3.72781 19.7888C3.96312 20.5514 4.27012 21.2911 4.64337 21.9964L4.92594 22.5304L3.03281 25.6597L6.33981 28.9673L9.46944 27.074L10.0034 27.3563C10.7091 27.7295 11.4489 28.0364 12.2116 28.2722L12.7882 28.4504L13.6613 32L18.3389 31.9999L19.212 28.4501L19.789 28.2721C20.5515 28.0368 21.2911 27.7298 21.9964 27.3565L22.5304 27.0739L25.6597 28.967L28.9673 25.6601L27.0742 22.5306L27.3565 21.9967C27.7297 21.2909 28.0364 20.551 28.2722 19.7883L28.4504 19.2116L31.9999 18.3386L32 13.6611ZM16.0001 8.68937C20.0306 8.68937 23.3107 11.9696 23.3107 16C23.3107 20.0307 20.0307 23.3106 16 23.3106C11.9695 23.3106 8.68931 20.0305 8.68931 16C8.68925 11.9694 11.9695 8.68937 16.0001 8.68937Z" fill="black" fill-opacity="0.2"/>
<path fill-rule="evenodd" clip-rule="evenodd" d="M32 13.6611L28.4501 12.7883L28.2721 12.2112C28.0367 11.4486 27.7297 10.7089 27.3565 10.0036L27.0739 9.46944L28.967 6.34025L25.6601 3.03262L22.5308 4.92594L21.9967 4.64356C21.291 4.27037 20.551 3.9635 19.7882 3.72769L19.2116 3.54944L18.3386 6.25e-05L13.6611 0L12.7883 3.55063L12.211 3.72863C11.4484 3.96375 10.7087 4.27056 10.0033 4.64362L9.46925 4.92594L6.34019 3.03288L3.03256 6.33981L4.926 9.46925L4.64362 10.0033C4.27044 10.7091 3.96344 11.4489 3.72769 12.2117L3.54944 12.7884L0 13.6613V18.3389L3.54975 19.2118L3.72781 19.7888C3.96312 20.5514 4.27012 21.2911 4.64337 21.9964L4.92594 22.5304L3.03281 25.6597L6.33981 28.9673L9.46944 27.074L10.0034 27.3563C10.7091 27.7295 11.4489 28.0364 12.2116 28.2722L12.7882 28.4504L13.6613 32L18.3389 31.9999L19.212 28.4501L19.789 28.2721C20.5515 28.0368 21.2911 27.7298 21.9964 27.3565L22.5304 27.0739L25.6597 28.967L28.9673 25.6601L27.0742 22.5306L27.3565 21.9967C27.7297 21.2909 28.0364 20.551 28.2722 19.7883L28.4504 19.2116L31.9999 18.3386L32 13.6611ZM16.0001 8.68937C20.0306 8.68937 23.3107 11.9696 23.3107 16C23.3107 20.0307 20.0307 23.3106 16 23.3106C11.9695 23.3106 8.68931 20.0305 8.68931 16C8.68925 11.9694 11.9695 8.68937 16.0001 8.68937Z" fill="black" fill-opacity="0.2"/>
<path fill-rule="evenodd" clip-rule="evenodd" d="M32 13.6611L28.4501 12.7883L28.2721 12.2112C28.0367 11.4486 27.7297 10.7089 27.3565 10.0036L27.0739 9.46944L28.967 6.34025L25.6601 3.03262L22.5308 4.92594L21.9967 4.64356C21.291 4.27037 20.551 3.9635 19.7882 3.72769L19.2116 3.54944L18.3386 6.25e-05L13.6611 0L12.7883 3.55063L12.211 3.72863C11.4484 3.96375 10.7087 4.27056 10.0033 4.64362L9.46925 4.92594L6.34019 3.03288L3.03256 6.33981L4.926 9.46925L4.64362 10.0033C4.27044 10.7091 3.96344 11.4489 3.72769 12.2117L3.54944 12.7884L0 13.6613V18.3389L3.54975 19.2118L3.72781 19.7888C3.96312 20.5514 4.27012 21.2911 4.64337 21.9964L4.92594 22.5304L3.03281 25.6597L6.33981 28.9673L9.46944 27.074L10.0034 27.3563C10.7091 27.7295 11.4489 28.0364 12.2116 28.2722L12.7882 28.4504L13.6613 32L18.3389 31.9999L19.212 28.4501L19.789 28.2721C20.5515 28.0368 21.2911 27.7298 21.9964 27.3565L22.5304 27.0739L25.6597 28.967L28.9673 25.6601L27.0742 22.5306L27.3565 21.9967C27.7297 21.2909 28.0364 20.551 28.2722 19.7883L28.4504 19.2116L31.9999 18.3386L32 13.6611ZM16.0001 8.68937C20.0306 8.68937 23.3107 11.9696 23.3107 16C23.3107 20.0307 20.0307 23.3106 16 23.3106C11.9695 23.3106 8.68931 20.0305 8.68931 16C8.68925 11.9694 11.9695 8.68937 16.0001 8.68937Z" fill="black" fill-opacity="0.2"/>
<path fill-rule="evenodd" clip-rule="evenodd" d="M32 13.6611L28.4501 12.7883L28.2721 12.2112C28.0367 11.4486 27.7297 10.7089 27.3565 10.0036L27.0739 9.46944L28.967 6.34025L25.6601 3.03262L22.5308 4.92594L21.9967 4.64356C21.291 4.27037 20.551 3.9635 19.7882 3.72769L19.2116 3.54944L18.3386 6.25e-05L13.6611 0L12.7883 3.55063L12.211 3.72863C11.4484 3.96375 10.7087 4.27056 10.0033 4.64362L9.46925 4.92594L6.34019 3.03288L3.03256 6.33981L4.926 9.46925L4.64362 10.0033C4.27044 10.7091 3.96344 11.4489 3.72769 12.2117L3.54944 12.7884L0 13.6613V18.3389L3.54975 19.2118L3.72781 19.7888C3.96312 20.5514 4.27012 21.2911 4.64337 21.9964L4.92594 22.5304L3.03281 25.6597L6.33981 28.9673L9.46944 27.074L10.0034 27.3563C10.7091 27.7295 11.4489 28.0364 12.2116 28.2722L12.7882 28.4504L13.6613 32L18.3389 31.9999L19.212 28.4501L19.789 28.2721C20.5515 28.0368 21.2911 27.7298 21.9964 27.3565L22.5304 27.0739L25.6597 28.967L28.9673 25.6601L27.0742 22.5306L27.3565 21.9967C27.7297 21.2909 28.0364 20.551 28.2722 19.7883L28.4504 19.2116L31.9999 18.3386L32 13.6611ZM16.0001 8.68937C20.0306 8.68937 23.3107 11.9696 23.3107 16C23.3107 20.0307 20.0307 23.3106 16 23.3106C11.9695 23.3106 8.68931 20.0305 8.68931 16C8.68925 11.9694 11.9695 8.68937 16.0001 8.68937Z" fill="black" fill-opacity="0.2"/>
<path fill-rule="evenodd" clip-rule="evenodd" d="M32 13.6611L28.4501 12.7883L28.2721 12.2112C28.0367 11.4486 27.7297 10.7089 27.3565 10.0036L27.0739 9.46944L28.967 6.34025L25.6601 3.03262L22.5308 4.92594L21.9967 4.64356C21.291 4.27037 20.551 3.9635 19.7882 3.72769L19.2116 3.54944L18.3386 6.25e-05L13.6611 0L12.7883 3.55063L12.211 3.72863C11.4484 3.96375 10.7087 4.27056 10.0033 4.64362L9.46925 4.92594L6.34019 3.03288L3.03256 6.33981L4.926 9.46925L4.64362 10.0033C4.27044 10.7091 3.96344 11.4489 3.72769 12.2117L3.54944 12.7884L0 13.6613V18.3389L3.54975 19.2118L3.72781 19.7888C3.96312 20.5514 4.27012 21.2911 4.64337 21.9964L4.92594 22.5304L3.03281 25.6597L6.33981 28.9673L9.46944 27.074L10.0034 27.3563C10.7091 27.7295 11.4489 28.0364 12.2116 28.2722L12.7882 28.4504L13.6613 32L18.3389 31.9999L19.212 28.4501L19.789 28.2721C20.5515 28.0368 21.2911 27.7298 21.9964 27.3565L22.5304 27.0739L25.6597 28.967L28.9673 25.6601L27.0742 22.5306L27.3565 21.9967C27.7297 21.2909 28.0364 20.551 28.2722 19.7883L28.4504 19.2116L31.9999 18.3386L32 13.6611ZM16.0001 8.68937C20.0306 8.68937 23.3107 11.9696 23.3107 16C23.3107 20.0307 20.0307 23.3106 16 23.3106C11.9695 23.3106 8.68931 20.0305 8.68931 16C8.68925 11.9694 11.9695 8.68937 16.0001 8.68937Z" fill="black" fill-opacity="0.2"/>
<path fill-rule="evenodd" clip-rule="evenodd" d="M32 13.6611L28.4501 12.7883L28.2721 12.2112C28.0367 11.4486 27.7297 10.7089 27.3565 10.0036L27.0739 9.46944L28.967 6.34025L25.6601 3.03262L22.5308 4.92594L21.9967 4.64356C21.291 4.27037 20.551 3.9635 19.7882 3.72769L19.2116 3.54944L18.3386 6.25e-05L13.6611 0L12.7883 3.55063L12.211 3.72863C11.4484 3.96375 10.7087 4.27056 10.0033 4.64362L9.46925 4.92594L6.34019 3.03288L3.03256 6.33981L4.926 9.46925L4.64362 10.0033C4.27044 10.7091 3.96344 11.4489 3.72769 12.2117L3.54944 12.7884L0 13.6613V18.3389L3.54975 19.2118L3.72781 19.7888C3.96312 20.5514 4.27012 21.2911 4.64337 21.9964L4.92594 22.5304L3.03281 25.6597L6.33981 28.9673L9.46944 27.074L10.0034 27.3563C10.7091 27.7295 11.4489 28.0364 12.2116 28.2722L12.7882 28.4504L13.6613 32L18.3389 31.9999L19.212 28.4501L19.789 28.2721C20.5515 28.0368 21.2911 27.7298 21.9964 27.3565L22.5304 27.0739L25.6597 28.967L28.9673 25.6601L27.0742 22.5306L27.3565 21.9967C27.7297 21.2909 28.0364 20.551 28.2722 19.7883L28.4504 19.2116L31.9999 18.3386L32 13.6611ZM16.0001 8.68937C20.0306 8.68937 23.3107 11.9696 23.3107 16C23.3107 20.0307 20.0307 23.3106 16 23.3106C11.9695 23.3106 8.68931 20.0305 8.68931 16C8.68925 11.9694 11.9695 8.68937 16.0001 8.68937Z" fill="black" fill-opacity="0.2"/>
<path fill-rule="evenodd" clip-rule="evenodd" d="M32 13.6611L28.4501 12.7883L28.2721 12.2112C28.0367 11.4486 27.7297 10.7089 27.3565 10.0036L27.0739 9.46944L28.967 6.34025L25.6601 3.03262L22.5308 4.92594L21.9967 4.64356C21.291 4.27037 20.551 3.9635 19.7882 3.72769L19.2116 3.54944L18.3386 6.25e-05L13.6611 0L12.7883 3.55063L12.211 3.72863C11.4484 3.96375 10.7087 4.27056 10.0033 4.64362L9.46925 4.92594L6.34019 3.03288L3.03256 6.33981L4.926 9.46925L4.64362 10.0033C4.27044 10.7091 3.96344 11.4489 3.72769 12.2117L3.54944 12.7884L0 13.6613V18.3389L3.54975 19.2118L3.72781 19.7888C3.96312 20.5514 4.27012 21.2911 4.64337 21.9964L4.92594 22.5304L3.03281 25.6597L6.33981 28.9673L9.46944 27.074L10.0034 27.3563C10.7091 27.7295 11.4489 28.0364 12.2116 28.2722L12.7882 28.4504L13.6613 32L18.3389 31.9999L19.212 28.4501L19.789 28.2721C20.5515 28.0368 21.2911 27.7298 21.9964 27.3565L22.5304 27.0739L25.6597 28.967L28.9673 25.6601L27.0742 22.5306L27.3565 21.9967C27.7297 21.2909 28.0364 20.551 28.2722 19.7883L28.4504 19.2116L31.9999 18.3386L32 13.6611ZM16.0001 8.68937C20.0306 8.68937 23.3107 11.9696 23.3107 16C23.3107 20.0307 20.0307 23.3106 16 23.3106C11.9695 23.3106 8.68931 20.0305 8.68931 16C8.68925 11.9694 11.9695 8.68937 16.0001 8.68937Z" fill="black" fill-opacity="0.2"/>
<path fill-rule="evenodd" clip-rule="evenodd" d="M32 13.6611L28.4501 12.7883L28.2721 12.2112C28.0367 11.4486 27.7297 10.7089 27.3565 10.0036L27.0739 9.46944L28.967 6.34025L25.6601 3.03262L22.5308 4.92594L21.9967 4.64356C21.291 4.27037 20.551 3.9635 19.7882 3.72769L19.2116 3.54944L18.3386 6.25e-05L13.6611 0L12.7883 3.55063L12.211 3.72863C11.4484 3.96375 10.7087 4.27056 10.0033 4.64362L9.46925 4.92594L6.34019 3.03288L3.03256 6.33981L4.926 9.46925L4.64362 10.0033C4.27044 10.7091 3.96344 11.4489 3.72769 12.2117L3.54944 12.7884L0 13.6613V18.3389L3.54975 19.2118L3.72781 19.7888C3.96312 20.5514 4.27012 21.2911 4.64337 21.9964L4.92594 22.5304L3.03281 25.6597L6.33981 28.9673L9.46944 27.074L10.0034 27.3563C10.7091 27.7295 11.4489 28.0364 12.2116 28.2722L12.7882 28.4504L13.6613 32L18.3389 31.9999L19.212 28.4501L19.789 28.2721C20.5515 28.0368 21.2911 27.7298 21.9964 27.3565L22.5304 27.0739L25.6597 28.967L28.9673 25.6601L27.0742 22.5306L27.3565 21.9967C27.7297 21.2909 28.0364 20.551 28.2722 19.7883L28.4504 19.2116L31.9999 18.3386L32 13.6611ZM16.0001 8.68937C20.0306 8.68937 23.3107 11.9696 23.3107 16C23.3107 20.0307 20.0307 23.3106 16 23.3106C11.9695 23.3106 8.68931 20.0305 8.68931 16C8.68925 11.9694 11.9695 8.68937 16.0001 8.68937Z" fill="black" fill-opacity="0.2"/>
<path fill-rule="evenodd" clip-rule="evenodd" d="M32 13.6611L28.4501 12.7883L28.2721 12.2112C28.0367 11.4486 27.7297 10.7089 27.3565 10.0036L27.0739 9.46944L28.967 6.34025L25.6601 3.03262L22.5308 4.92594L21.9967 4.64356C21.291 4.27037 20.551 3.9635 19.7882 3.72769L19.2116 3.54944L18.3386 6.25e-05L13.6611 0L12.7883 3.55063L12.211 3.72863C11.4484 3.96375 10.7087 4.27056 10.0033 4.64362L9.46925 4.92594L6.34019 3.03288L3.03256 6.33981L4.926 9.46925L4.64362 10.0033C4.27044 10.7091 3.96344 11.4489 3.72769 12.2117L3.54944 12.7884L0 13.6613V18.3389L3.54975 19.2118L3.72781 19.7888C3.96312 20.5514 4.27012 21.2911 4.64337 21.9964L4.92594 22.5304L3.03281 25.6597L6.33981 28.9673L9.46944 27.074L10.0034 27.3563C10.7091 27.7295 11.4489 28.0364 12.2116 28.2722L12.7882 28.4504L13.6613 32L18.3389 31.9999L19.212 28.4501L19.789 28.2721C20.5515 28.0368 21.2911 27.7298 21.9964 27.3565L22.5304 27.0739L25.6597 28.967L28.9673 25.6601L27.0742 22.5306L27.3565 21.9967C27.7297 21.2909 28.0364 20.551 28.2722 19.7883L28.4504 19.2116L31.9999 18.3386L32 13.6611ZM16.0001 8.68937C20.0306 8.68937 23.3107 11.9696 23.3107 16C23.3107 20.0307 20.0307 23.3106 16 23.3106C11.9695 23.3106 8.68931 20.0305 8.68931 16C8.68925 11.9694 11.9695 8.68937 16.0001 8.68937Z" fill="black" fill-opacity="0.2"/>
</g>
<defs>
<clipPath id="clip0_314_197">
<rect width="32" height="32" fill="white"/>
</clipPath>
</defs>
</svg>
