<svg width="16" height="16" viewBox="0 0 16 16" fill="none" xmlns="http://www.w3.org/2000/svg">
<path fill-rule="evenodd" clip-rule="evenodd" d="M12.5 7.99899C12.5 7.85303 12.4362 7.71436 12.3254 7.61937L5.32537 1.62035L4.67463 2.37966L11.2317 7.99909L4.67457 13.6204L5.32543 14.3796L12.3254 8.37863C12.4362 8.28363 12.5 8.14495 12.5 7.99899Z" fill="black"/>
<path fill-rule="evenodd" clip-rule="evenodd" d="M12.5 7.99899C12.5 7.85303 12.4362 7.71436 12.3254 7.61937L5.32537 1.62035L4.67463 2.37966L11.2317 7.99909L4.67457 13.6204L5.32543 14.3796L12.3254 8.37863C12.4362 8.28363 12.5 8.14495 12.5 7.99899Z" fill="black" fill-opacity="0.2"/>
<path fill-rule="evenodd" clip-rule="evenodd" d="M12.5 7.99899C12.5 7.85303 12.4362 7.71436 12.3254 7.61937L5.32537 1.62035L4.67463 2.37966L11.2317 7.99909L4.67457 13.6204L5.32543 14.3796L12.3254 8.37863C12.4362 8.28363 12.5 8.14495 12.5 7.99899Z" fill="black" fill-opacity="0.2"/>
<path fill-rule="evenodd" clip-rule="evenodd" d="M12.5 7.99899C12.5 7.85303 12.4362 7.71436 12.3254 7.61937L5.32537 1.62035L4.67463 2.37966L11.2317 7.99909L4.67457 13.6204L5.32543 14.3796L12.3254 8.37863C12.4362 8.28363 12.5 8.14495 12.5 7.99899Z" fill="black" fill-opacity="0.2"/>
<path fill-rule="evenodd" clip-rule="evenodd" d="M12.5 7.99899C12.5 7.85303 12.4362 7.71436 12.3254 7.61937L5.32537 1.62035L4.67463 2.37966L11.2317 7.99909L4.67457 13.6204L5.32543 14.3796L12.3254 8.37863C12.4362 8.28363 12.5 8.14495 12.5 7.99899Z" fill="black" fill-opacity="0.2"/>
<path fill-rule="evenodd" clip-rule="evenodd" d="M12.5 7.99899C12.5 7.85303 12.4362 7.71436 12.3254 7.61937L5.32537 1.62035L4.67463 2.37966L11.2317 7.99909L4.67457 13.6204L5.32543 14.3796L12.3254 8.37863C12.4362 8.28363 12.5 8.14495 12.5 7.99899Z" fill="black" fill-opacity="0.2"/>
<path fill-rule="evenodd" clip-rule="evenodd" d="M12.5 7.99899C12.5 7.85303 12.4362 7.71436 12.3254 7.61937L5.32537 1.62035L4.67463 2.37966L11.2317 7.99909L4.67457 13.6204L5.32543 14.3796L12.3254 8.37863C12.4362 8.28363 12.5 8.14495 12.5 7.99899Z" fill="black" fill-opacity="0.2"/>
<path fill-rule="evenodd" clip-rule="evenodd" d="M12.5 7.99899C12.5 7.85303 12.4362 7.71436 12.3254 7.61937L5.32537 1.62035L4.67463 2.37966L11.2317 7.99909L4.67457 13.6204L5.32543 14.3796L12.3254 8.37863C12.4362 8.28363 12.5 8.14495 12.5 7.99899Z" fill="black" fill-opacity="0.2"/>
<path fill-rule="evenodd" clip-rule="evenodd" d="M12.5 7.99899C12.5 7.85303 12.4362 7.71436 12.3254 7.61937L5.32537 1.62035L4.67463 2.37966L11.2317 7.99909L4.67457 13.6204L5.32543 14.3796L12.3254 8.37863C12.4362 8.28363 12.5 8.14495 12.5 7.99899Z" fill="black" fill-opacity="0.2"/>
<path fill-rule="evenodd" clip-rule="evenodd" d="M12.5 7.99899C12.5 7.85303 12.4362 7.71436 12.3254 7.61937L5.32537 1.62035L4.67463 2.37966L11.2317 7.99909L4.67457 13.6204L5.32543 14.3796L12.3254 8.37863C12.4362 8.28363 12.5 8.14495 12.5 7.99899Z" fill="black" fill-opacity="0.2"/>
</svg>
