<svg width="32" height="32" viewBox="0 0 32 32" fill="none" xmlns="http://www.w3.org/2000/svg">
<g clip-path="url(#clip0_300_160)">
<path fill-rule="evenodd" clip-rule="evenodd" d="M23.7557 16.6524C24.0815 16.2765 24.0814 15.7184 23.7556 15.3426L10.7556 0.345009C10.3939 -0.072319 9.76233 -0.117378 9.34501 0.244364C8.92768 0.606106 8.88262 1.23767 9.24436 1.65499L21.6767 15.9977L9.24426 30.3451C8.88258 30.7625 8.92774 31.3941 9.34513 31.7557C9.76252 32.1174 10.3941 32.0723 10.7557 31.6549L23.7557 16.6524Z" fill="black"/>
<path fill-rule="evenodd" clip-rule="evenodd" d="M23.7557 16.6524C24.0815 16.2765 24.0814 15.7184 23.7556 15.3426L10.7556 0.345009C10.3939 -0.072319 9.76233 -0.117378 9.34501 0.244364C8.92768 0.606106 8.88262 1.23767 9.24436 1.65499L21.6767 15.9977L9.24426 30.3451C8.88258 30.7625 8.92774 31.3941 9.34513 31.7557C9.76252 32.1174 10.3941 32.0723 10.7557 31.6549L23.7557 16.6524Z" fill="black" fill-opacity="0.2"/>
<path fill-rule="evenodd" clip-rule="evenodd" d="M23.7557 16.6524C24.0815 16.2765 24.0814 15.7184 23.7556 15.3426L10.7556 0.345009C10.3939 -0.072319 9.76233 -0.117378 9.34501 0.244364C8.92768 0.606106 8.88262 1.23767 9.24436 1.65499L21.6767 15.9977L9.24426 30.3451C8.88258 30.7625 8.92774 31.3941 9.34513 31.7557C9.76252 32.1174 10.3941 32.0723 10.7557 31.6549L23.7557 16.6524Z" fill="black" fill-opacity="0.2"/>
<path fill-rule="evenodd" clip-rule="evenodd" d="M23.7557 16.6524C24.0815 16.2765 24.0814 15.7184 23.7556 15.3426L10.7556 0.345009C10.3939 -0.072319 9.76233 -0.117378 9.34501 0.244364C8.92768 0.606106 8.88262 1.23767 9.24436 1.65499L21.6767 15.9977L9.24426 30.3451C8.88258 30.7625 8.92774 31.3941 9.34513 31.7557C9.76252 32.1174 10.3941 32.0723 10.7557 31.6549L23.7557 16.6524Z" fill="black" fill-opacity="0.2"/>
<path fill-rule="evenodd" clip-rule="evenodd" d="M23.7557 16.6524C24.0815 16.2765 24.0814 15.7184 23.7556 15.3426L10.7556 0.345009C10.3939 -0.072319 9.76233 -0.117378 9.34501 0.244364C8.92768 0.606106 8.88262 1.23767 9.24436 1.65499L21.6767 15.9977L9.24426 30.3451C8.88258 30.7625 8.92774 31.3941 9.34513 31.7557C9.76252 32.1174 10.3941 32.0723 10.7557 31.6549L23.7557 16.6524Z" fill="black" fill-opacity="0.2"/>
<path fill-rule="evenodd" clip-rule="evenodd" d="M23.7557 16.6524C24.0815 16.2765 24.0814 15.7184 23.7556 15.3426L10.7556 0.345009C10.3939 -0.072319 9.76233 -0.117378 9.34501 0.244364C8.92768 0.606106 8.88262 1.23767 9.24436 1.65499L21.6767 15.9977L9.24426 30.3451C8.88258 30.7625 8.92774 31.3941 9.34513 31.7557C9.76252 32.1174 10.3941 32.0723 10.7557 31.6549L23.7557 16.6524Z" fill="black" fill-opacity="0.2"/>
<path fill-rule="evenodd" clip-rule="evenodd" d="M23.7557 16.6524C24.0815 16.2765 24.0814 15.7184 23.7556 15.3426L10.7556 0.345009C10.3939 -0.072319 9.76233 -0.117378 9.34501 0.244364C8.92768 0.606106 8.88262 1.23767 9.24436 1.65499L21.6767 15.9977L9.24426 30.3451C8.88258 30.7625 8.92774 31.3941 9.34513 31.7557C9.76252 32.1174 10.3941 32.0723 10.7557 31.6549L23.7557 16.6524Z" fill="black" fill-opacity="0.2"/>
<path fill-rule="evenodd" clip-rule="evenodd" d="M23.7557 16.6524C24.0815 16.2765 24.0814 15.7184 23.7556 15.3426L10.7556 0.345009C10.3939 -0.072319 9.76233 -0.117378 9.34501 0.244364C8.92768 0.606106 8.88262 1.23767 9.24436 1.65499L21.6767 15.9977L9.24426 30.3451C8.88258 30.7625 8.92774 31.3941 9.34513 31.7557C9.76252 32.1174 10.3941 32.0723 10.7557 31.6549L23.7557 16.6524Z" fill="black" fill-opacity="0.2"/>
<path fill-rule="evenodd" clip-rule="evenodd" d="M23.7557 16.6524C24.0815 16.2765 24.0814 15.7184 23.7556 15.3426L10.7556 0.345009C10.3939 -0.072319 9.76233 -0.117378 9.34501 0.244364C8.92768 0.606106 8.88262 1.23767 9.24436 1.65499L21.6767 15.9977L9.24426 30.3451C8.88258 30.7625 8.92774 31.3941 9.34513 31.7557C9.76252 32.1174 10.3941 32.0723 10.7557 31.6549L23.7557 16.6524Z" fill="black" fill-opacity="0.2"/>
<path fill-rule="evenodd" clip-rule="evenodd" d="M23.7557 16.6524C24.0815 16.2765 24.0814 15.7184 23.7556 15.3426L10.7556 0.345009C10.3939 -0.072319 9.76233 -0.117378 9.34501 0.244364C8.92768 0.606106 8.88262 1.23767 9.24436 1.65499L21.6767 15.9977L9.24426 30.3451C8.88258 30.7625 8.92774 31.3941 9.34513 31.7557C9.76252 32.1174 10.3941 32.0723 10.7557 31.6549L23.7557 16.6524Z" fill="black" fill-opacity="0.2"/>
</g>
<defs>
<clipPath id="clip0_300_160">
<rect width="32" height="32" fill="white"/>
</clipPath>
</defs>
</svg>
