<svg width="24" height="24" viewBox="0 0 24 24" fill="none" xmlns="http://www.w3.org/2000/svg">
<g clip-path="url(#clip0_414_2642)">
<path fill-rule="evenodd" clip-rule="evenodd" d="M22.6924 0.75H1.30765C1.15996 0.750278 1.01793 0.809071 0.913501 0.913501C0.809071 1.01793 0.750278 1.15996 0.75 1.30765V5.1069C0.750279 5.25458 0.80907 5.39614 0.913501 5.50057C1.01793 5.605 1.15996 5.6638 1.30765 5.66407H1.92476L1.92476 22.6928C1.92504 22.8405 1.98383 22.9821 2.08826 23.0865C2.19269 23.1909 2.33472 23.2497 2.48241 23.25H21.5362C21.6796 23.25 21.8172 23.193 21.9186 23.0916C22.02 22.9902 22.077 22.8526 22.077 22.7092L22.0758 5.66524L22.6933 5.66524C22.8408 5.66468 22.982 5.60585 23.0863 5.50157C23.1906 5.39729 23.2494 5.25507 23.25 5.10759V1.30718C23.2497 1.15949 23.1909 1.01793 23.0865 0.913501C22.9821 0.80907 22.84 0.750279 22.6924 0.75ZM1.86525 4.54878L1.86476 1.86471H9.57466V4.54878H1.86525ZM10.6894 6.18633V1.86471H13.3118V6.18626L12.2248 5.70723C12.1542 5.67637 12.078 5.66044 12.0009 5.66044C11.9238 5.66044 11.8468 5.67667 11.7762 5.70754L10.6894 6.18633ZM14.4271 4.54994V1.86471H22.137L22.1365 4.54994H14.4271ZM14.4248 7.04304V5.66466H20.9599V22.1382H3.04006V5.66524H9.5735L9.5735 7.04438C9.57378 7.13685 9.59702 7.22779 9.64115 7.30905C9.68519 7.39016 9.74865 7.45908 9.82586 7.50965C9.90338 7.56067 9.99248 7.59139 10.085 7.59898C10.1774 7.60656 10.2709 7.59053 10.3557 7.55284L11.9985 6.82998L13.6426 7.55334L13.6436 7.55379C13.7136 7.58424 13.7891 7.60019 13.8655 7.60068L13.8672 7.60068C13.9758 7.60065 14.0819 7.56876 14.1726 7.50896C14.2497 7.45841 14.3131 7.38952 14.3571 7.30847C14.4012 7.22721 14.4245 7.1355 14.4248 7.04304Z" fill="black"/>
<path fill-rule="evenodd" clip-rule="evenodd" d="M22.6924 0.75H1.30765C1.15996 0.750278 1.01793 0.809071 0.913501 0.913501C0.809071 1.01793 0.750278 1.15996 0.75 1.30765V5.1069C0.750279 5.25458 0.80907 5.39614 0.913501 5.50057C1.01793 5.605 1.15996 5.6638 1.30765 5.66407H1.92476L1.92476 22.6928C1.92504 22.8405 1.98383 22.9821 2.08826 23.0865C2.19269 23.1909 2.33472 23.2497 2.48241 23.25H21.5362C21.6796 23.25 21.8172 23.193 21.9186 23.0916C22.02 22.9902 22.077 22.8526 22.077 22.7092L22.0758 5.66524L22.6933 5.66524C22.8408 5.66468 22.982 5.60585 23.0863 5.50157C23.1906 5.39729 23.2494 5.25507 23.25 5.10759V1.30718C23.2497 1.15949 23.1909 1.01793 23.0865 0.913501C22.9821 0.80907 22.84 0.750279 22.6924 0.75ZM1.86525 4.54878L1.86476 1.86471H9.57466V4.54878H1.86525ZM10.6894 6.18633V1.86471H13.3118V6.18626L12.2248 5.70723C12.1542 5.67637 12.078 5.66044 12.0009 5.66044C11.9238 5.66044 11.8468 5.67667 11.7762 5.70754L10.6894 6.18633ZM14.4271 4.54994V1.86471H22.137L22.1365 4.54994H14.4271ZM14.4248 7.04304V5.66466H20.9599V22.1382H3.04006V5.66524H9.5735L9.5735 7.04438C9.57378 7.13685 9.59702 7.22779 9.64115 7.30905C9.68519 7.39016 9.74865 7.45908 9.82586 7.50965C9.90338 7.56067 9.99248 7.59139 10.085 7.59898C10.1774 7.60656 10.2709 7.59053 10.3557 7.55284L11.9985 6.82998L13.6426 7.55334L13.6436 7.55379C13.7136 7.58424 13.7891 7.60019 13.8655 7.60068L13.8672 7.60068C13.9758 7.60065 14.0819 7.56876 14.1726 7.50896C14.2497 7.45841 14.3131 7.38952 14.3571 7.30847C14.4012 7.22721 14.4245 7.1355 14.4248 7.04304Z" fill="black" fill-opacity="0.2"/>
<path fill-rule="evenodd" clip-rule="evenodd" d="M22.6924 0.75H1.30765C1.15996 0.750278 1.01793 0.809071 0.913501 0.913501C0.809071 1.01793 0.750278 1.15996 0.75 1.30765V5.1069C0.750279 5.25458 0.80907 5.39614 0.913501 5.50057C1.01793 5.605 1.15996 5.6638 1.30765 5.66407H1.92476L1.92476 22.6928C1.92504 22.8405 1.98383 22.9821 2.08826 23.0865C2.19269 23.1909 2.33472 23.2497 2.48241 23.25H21.5362C21.6796 23.25 21.8172 23.193 21.9186 23.0916C22.02 22.9902 22.077 22.8526 22.077 22.7092L22.0758 5.66524L22.6933 5.66524C22.8408 5.66468 22.982 5.60585 23.0863 5.50157C23.1906 5.39729 23.2494 5.25507 23.25 5.10759V1.30718C23.2497 1.15949 23.1909 1.01793 23.0865 0.913501C22.9821 0.80907 22.84 0.750279 22.6924 0.75ZM1.86525 4.54878L1.86476 1.86471H9.57466V4.54878H1.86525ZM10.6894 6.18633V1.86471H13.3118V6.18626L12.2248 5.70723C12.1542 5.67637 12.078 5.66044 12.0009 5.66044C11.9238 5.66044 11.8468 5.67667 11.7762 5.70754L10.6894 6.18633ZM14.4271 4.54994V1.86471H22.137L22.1365 4.54994H14.4271ZM14.4248 7.04304V5.66466H20.9599V22.1382H3.04006V5.66524H9.5735L9.5735 7.04438C9.57378 7.13685 9.59702 7.22779 9.64115 7.30905C9.68519 7.39016 9.74865 7.45908 9.82586 7.50965C9.90338 7.56067 9.99248 7.59139 10.085 7.59898C10.1774 7.60656 10.2709 7.59053 10.3557 7.55284L11.9985 6.82998L13.6426 7.55334L13.6436 7.55379C13.7136 7.58424 13.7891 7.60019 13.8655 7.60068L13.8672 7.60068C13.9758 7.60065 14.0819 7.56876 14.1726 7.50896C14.2497 7.45841 14.3131 7.38952 14.3571 7.30847C14.4012 7.22721 14.4245 7.1355 14.4248 7.04304Z" fill="black" fill-opacity="0.2"/>
<path fill-rule="evenodd" clip-rule="evenodd" d="M22.6924 0.75H1.30765C1.15996 0.750278 1.01793 0.809071 0.913501 0.913501C0.809071 1.01793 0.750278 1.15996 0.75 1.30765V5.1069C0.750279 5.25458 0.80907 5.39614 0.913501 5.50057C1.01793 5.605 1.15996 5.6638 1.30765 5.66407H1.92476L1.92476 22.6928C1.92504 22.8405 1.98383 22.9821 2.08826 23.0865C2.19269 23.1909 2.33472 23.2497 2.48241 23.25H21.5362C21.6796 23.25 21.8172 23.193 21.9186 23.0916C22.02 22.9902 22.077 22.8526 22.077 22.7092L22.0758 5.66524L22.6933 5.66524C22.8408 5.66468 22.982 5.60585 23.0863 5.50157C23.1906 5.39729 23.2494 5.25507 23.25 5.10759V1.30718C23.2497 1.15949 23.1909 1.01793 23.0865 0.913501C22.9821 0.80907 22.84 0.750279 22.6924 0.75ZM1.86525 4.54878L1.86476 1.86471H9.57466V4.54878H1.86525ZM10.6894 6.18633V1.86471H13.3118V6.18626L12.2248 5.70723C12.1542 5.67637 12.078 5.66044 12.0009 5.66044C11.9238 5.66044 11.8468 5.67667 11.7762 5.70754L10.6894 6.18633ZM14.4271 4.54994V1.86471H22.137L22.1365 4.54994H14.4271ZM14.4248 7.04304V5.66466H20.9599V22.1382H3.04006V5.66524H9.5735L9.5735 7.04438C9.57378 7.13685 9.59702 7.22779 9.64115 7.30905C9.68519 7.39016 9.74865 7.45908 9.82586 7.50965C9.90338 7.56067 9.99248 7.59139 10.085 7.59898C10.1774 7.60656 10.2709 7.59053 10.3557 7.55284L11.9985 6.82998L13.6426 7.55334L13.6436 7.55379C13.7136 7.58424 13.7891 7.60019 13.8655 7.60068L13.8672 7.60068C13.9758 7.60065 14.0819 7.56876 14.1726 7.50896C14.2497 7.45841 14.3131 7.38952 14.3571 7.30847C14.4012 7.22721 14.4245 7.1355 14.4248 7.04304Z" fill="black" fill-opacity="0.2"/>
<path fill-rule="evenodd" clip-rule="evenodd" d="M22.6924 0.75H1.30765C1.15996 0.750278 1.01793 0.809071 0.913501 0.913501C0.809071 1.01793 0.750278 1.15996 0.75 1.30765V5.1069C0.750279 5.25458 0.80907 5.39614 0.913501 5.50057C1.01793 5.605 1.15996 5.6638 1.30765 5.66407H1.92476L1.92476 22.6928C1.92504 22.8405 1.98383 22.9821 2.08826 23.0865C2.19269 23.1909 2.33472 23.2497 2.48241 23.25H21.5362C21.6796 23.25 21.8172 23.193 21.9186 23.0916C22.02 22.9902 22.077 22.8526 22.077 22.7092L22.0758 5.66524L22.6933 5.66524C22.8408 5.66468 22.982 5.60585 23.0863 5.50157C23.1906 5.39729 23.2494 5.25507 23.25 5.10759V1.30718C23.2497 1.15949 23.1909 1.01793 23.0865 0.913501C22.9821 0.80907 22.84 0.750279 22.6924 0.75ZM1.86525 4.54878L1.86476 1.86471H9.57466V4.54878H1.86525ZM10.6894 6.18633V1.86471H13.3118V6.18626L12.2248 5.70723C12.1542 5.67637 12.078 5.66044 12.0009 5.66044C11.9238 5.66044 11.8468 5.67667 11.7762 5.70754L10.6894 6.18633ZM14.4271 4.54994V1.86471H22.137L22.1365 4.54994H14.4271ZM14.4248 7.04304V5.66466H20.9599V22.1382H3.04006V5.66524H9.5735L9.5735 7.04438C9.57378 7.13685 9.59702 7.22779 9.64115 7.30905C9.68519 7.39016 9.74865 7.45908 9.82586 7.50965C9.90338 7.56067 9.99248 7.59139 10.085 7.59898C10.1774 7.60656 10.2709 7.59053 10.3557 7.55284L11.9985 6.82998L13.6426 7.55334L13.6436 7.55379C13.7136 7.58424 13.7891 7.60019 13.8655 7.60068L13.8672 7.60068C13.9758 7.60065 14.0819 7.56876 14.1726 7.50896C14.2497 7.45841 14.3131 7.38952 14.3571 7.30847C14.4012 7.22721 14.4245 7.1355 14.4248 7.04304Z" fill="black" fill-opacity="0.2"/>
<path fill-rule="evenodd" clip-rule="evenodd" d="M22.6924 0.75H1.30765C1.15996 0.750278 1.01793 0.809071 0.913501 0.913501C0.809071 1.01793 0.750278 1.15996 0.75 1.30765V5.1069C0.750279 5.25458 0.80907 5.39614 0.913501 5.50057C1.01793 5.605 1.15996 5.6638 1.30765 5.66407H1.92476L1.92476 22.6928C1.92504 22.8405 1.98383 22.9821 2.08826 23.0865C2.19269 23.1909 2.33472 23.2497 2.48241 23.25H21.5362C21.6796 23.25 21.8172 23.193 21.9186 23.0916C22.02 22.9902 22.077 22.8526 22.077 22.7092L22.0758 5.66524L22.6933 5.66524C22.8408 5.66468 22.982 5.60585 23.0863 5.50157C23.1906 5.39729 23.2494 5.25507 23.25 5.10759V1.30718C23.2497 1.15949 23.1909 1.01793 23.0865 0.913501C22.9821 0.80907 22.84 0.750279 22.6924 0.75ZM1.86525 4.54878L1.86476 1.86471H9.57466V4.54878H1.86525ZM10.6894 6.18633V1.86471H13.3118V6.18626L12.2248 5.70723C12.1542 5.67637 12.078 5.66044 12.0009 5.66044C11.9238 5.66044 11.8468 5.67667 11.7762 5.70754L10.6894 6.18633ZM14.4271 4.54994V1.86471H22.137L22.1365 4.54994H14.4271ZM14.4248 7.04304V5.66466H20.9599V22.1382H3.04006V5.66524H9.5735L9.5735 7.04438C9.57378 7.13685 9.59702 7.22779 9.64115 7.30905C9.68519 7.39016 9.74865 7.45908 9.82586 7.50965C9.90338 7.56067 9.99248 7.59139 10.085 7.59898C10.1774 7.60656 10.2709 7.59053 10.3557 7.55284L11.9985 6.82998L13.6426 7.55334L13.6436 7.55379C13.7136 7.58424 13.7891 7.60019 13.8655 7.60068L13.8672 7.60068C13.9758 7.60065 14.0819 7.56876 14.1726 7.50896C14.2497 7.45841 14.3131 7.38952 14.3571 7.30847C14.4012 7.22721 14.4245 7.1355 14.4248 7.04304Z" fill="black" fill-opacity="0.2"/>
<path fill-rule="evenodd" clip-rule="evenodd" d="M22.6924 0.75H1.30765C1.15996 0.750278 1.01793 0.809071 0.913501 0.913501C0.809071 1.01793 0.750278 1.15996 0.75 1.30765V5.1069C0.750279 5.25458 0.80907 5.39614 0.913501 5.50057C1.01793 5.605 1.15996 5.6638 1.30765 5.66407H1.92476L1.92476 22.6928C1.92504 22.8405 1.98383 22.9821 2.08826 23.0865C2.19269 23.1909 2.33472 23.2497 2.48241 23.25H21.5362C21.6796 23.25 21.8172 23.193 21.9186 23.0916C22.02 22.9902 22.077 22.8526 22.077 22.7092L22.0758 5.66524L22.6933 5.66524C22.8408 5.66468 22.982 5.60585 23.0863 5.50157C23.1906 5.39729 23.2494 5.25507 23.25 5.10759V1.30718C23.2497 1.15949 23.1909 1.01793 23.0865 0.913501C22.9821 0.80907 22.84 0.750279 22.6924 0.75ZM1.86525 4.54878L1.86476 1.86471H9.57466V4.54878H1.86525ZM10.6894 6.18633V1.86471H13.3118V6.18626L12.2248 5.70723C12.1542 5.67637 12.078 5.66044 12.0009 5.66044C11.9238 5.66044 11.8468 5.67667 11.7762 5.70754L10.6894 6.18633ZM14.4271 4.54994V1.86471H22.137L22.1365 4.54994H14.4271ZM14.4248 7.04304V5.66466H20.9599V22.1382H3.04006V5.66524H9.5735L9.5735 7.04438C9.57378 7.13685 9.59702 7.22779 9.64115 7.30905C9.68519 7.39016 9.74865 7.45908 9.82586 7.50965C9.90338 7.56067 9.99248 7.59139 10.085 7.59898C10.1774 7.60656 10.2709 7.59053 10.3557 7.55284L11.9985 6.82998L13.6426 7.55334L13.6436 7.55379C13.7136 7.58424 13.7891 7.60019 13.8655 7.60068L13.8672 7.60068C13.9758 7.60065 14.0819 7.56876 14.1726 7.50896C14.2497 7.45841 14.3131 7.38952 14.3571 7.30847C14.4012 7.22721 14.4245 7.1355 14.4248 7.04304Z" fill="black" fill-opacity="0.2"/>
<path fill-rule="evenodd" clip-rule="evenodd" d="M22.6924 0.75H1.30765C1.15996 0.750278 1.01793 0.809071 0.913501 0.913501C0.809071 1.01793 0.750278 1.15996 0.75 1.30765V5.1069C0.750279 5.25458 0.80907 5.39614 0.913501 5.50057C1.01793 5.605 1.15996 5.6638 1.30765 5.66407H1.92476L1.92476 22.6928C1.92504 22.8405 1.98383 22.9821 2.08826 23.0865C2.19269 23.1909 2.33472 23.2497 2.48241 23.25H21.5362C21.6796 23.25 21.8172 23.193 21.9186 23.0916C22.02 22.9902 22.077 22.8526 22.077 22.7092L22.0758 5.66524L22.6933 5.66524C22.8408 5.66468 22.982 5.60585 23.0863 5.50157C23.1906 5.39729 23.2494 5.25507 23.25 5.10759V1.30718C23.2497 1.15949 23.1909 1.01793 23.0865 0.913501C22.9821 0.80907 22.84 0.750279 22.6924 0.75ZM1.86525 4.54878L1.86476 1.86471H9.57466V4.54878H1.86525ZM10.6894 6.18633V1.86471H13.3118V6.18626L12.2248 5.70723C12.1542 5.67637 12.078 5.66044 12.0009 5.66044C11.9238 5.66044 11.8468 5.67667 11.7762 5.70754L10.6894 6.18633ZM14.4271 4.54994V1.86471H22.137L22.1365 4.54994H14.4271ZM14.4248 7.04304V5.66466H20.9599V22.1382H3.04006V5.66524H9.5735L9.5735 7.04438C9.57378 7.13685 9.59702 7.22779 9.64115 7.30905C9.68519 7.39016 9.74865 7.45908 9.82586 7.50965C9.90338 7.56067 9.99248 7.59139 10.085 7.59898C10.1774 7.60656 10.2709 7.59053 10.3557 7.55284L11.9985 6.82998L13.6426 7.55334L13.6436 7.55379C13.7136 7.58424 13.7891 7.60019 13.8655 7.60068L13.8672 7.60068C13.9758 7.60065 14.0819 7.56876 14.1726 7.50896C14.2497 7.45841 14.3131 7.38952 14.3571 7.30847C14.4012 7.22721 14.4245 7.1355 14.4248 7.04304Z" fill="black" fill-opacity="0.2"/>
<path fill-rule="evenodd" clip-rule="evenodd" d="M22.6924 0.75H1.30765C1.15996 0.750278 1.01793 0.809071 0.913501 0.913501C0.809071 1.01793 0.750278 1.15996 0.75 1.30765V5.1069C0.750279 5.25458 0.80907 5.39614 0.913501 5.50057C1.01793 5.605 1.15996 5.6638 1.30765 5.66407H1.92476L1.92476 22.6928C1.92504 22.8405 1.98383 22.9821 2.08826 23.0865C2.19269 23.1909 2.33472 23.2497 2.48241 23.25H21.5362C21.6796 23.25 21.8172 23.193 21.9186 23.0916C22.02 22.9902 22.077 22.8526 22.077 22.7092L22.0758 5.66524L22.6933 5.66524C22.8408 5.66468 22.982 5.60585 23.0863 5.50157C23.1906 5.39729 23.2494 5.25507 23.25 5.10759V1.30718C23.2497 1.15949 23.1909 1.01793 23.0865 0.913501C22.9821 0.80907 22.84 0.750279 22.6924 0.75ZM1.86525 4.54878L1.86476 1.86471H9.57466V4.54878H1.86525ZM10.6894 6.18633V1.86471H13.3118V6.18626L12.2248 5.70723C12.1542 5.67637 12.078 5.66044 12.0009 5.66044C11.9238 5.66044 11.8468 5.67667 11.7762 5.70754L10.6894 6.18633ZM14.4271 4.54994V1.86471H22.137L22.1365 4.54994H14.4271ZM14.4248 7.04304V5.66466H20.9599V22.1382H3.04006V5.66524H9.5735L9.5735 7.04438C9.57378 7.13685 9.59702 7.22779 9.64115 7.30905C9.68519 7.39016 9.74865 7.45908 9.82586 7.50965C9.90338 7.56067 9.99248 7.59139 10.085 7.59898C10.1774 7.60656 10.2709 7.59053 10.3557 7.55284L11.9985 6.82998L13.6426 7.55334L13.6436 7.55379C13.7136 7.58424 13.7891 7.60019 13.8655 7.60068L13.8672 7.60068C13.9758 7.60065 14.0819 7.56876 14.1726 7.50896C14.2497 7.45841 14.3131 7.38952 14.3571 7.30847C14.4012 7.22721 14.4245 7.1355 14.4248 7.04304Z" fill="black" fill-opacity="0.2"/>
<path fill-rule="evenodd" clip-rule="evenodd" d="M22.6924 0.75H1.30765C1.15996 0.750278 1.01793 0.809071 0.913501 0.913501C0.809071 1.01793 0.750278 1.15996 0.75 1.30765V5.1069C0.750279 5.25458 0.80907 5.39614 0.913501 5.50057C1.01793 5.605 1.15996 5.6638 1.30765 5.66407H1.92476L1.92476 22.6928C1.92504 22.8405 1.98383 22.9821 2.08826 23.0865C2.19269 23.1909 2.33472 23.2497 2.48241 23.25H21.5362C21.6796 23.25 21.8172 23.193 21.9186 23.0916C22.02 22.9902 22.077 22.8526 22.077 22.7092L22.0758 5.66524L22.6933 5.66524C22.8408 5.66468 22.982 5.60585 23.0863 5.50157C23.1906 5.39729 23.2494 5.25507 23.25 5.10759V1.30718C23.2497 1.15949 23.1909 1.01793 23.0865 0.913501C22.9821 0.80907 22.84 0.750279 22.6924 0.75ZM1.86525 4.54878L1.86476 1.86471H9.57466V4.54878H1.86525ZM10.6894 6.18633V1.86471H13.3118V6.18626L12.2248 5.70723C12.1542 5.67637 12.078 5.66044 12.0009 5.66044C11.9238 5.66044 11.8468 5.67667 11.7762 5.70754L10.6894 6.18633ZM14.4271 4.54994V1.86471H22.137L22.1365 4.54994H14.4271ZM14.4248 7.04304V5.66466H20.9599V22.1382H3.04006V5.66524H9.5735L9.5735 7.04438C9.57378 7.13685 9.59702 7.22779 9.64115 7.30905C9.68519 7.39016 9.74865 7.45908 9.82586 7.50965C9.90338 7.56067 9.99248 7.59139 10.085 7.59898C10.1774 7.60656 10.2709 7.59053 10.3557 7.55284L11.9985 6.82998L13.6426 7.55334L13.6436 7.55379C13.7136 7.58424 13.7891 7.60019 13.8655 7.60068L13.8672 7.60068C13.9758 7.60065 14.0819 7.56876 14.1726 7.50896C14.2497 7.45841 14.3131 7.38952 14.3571 7.30847C14.4012 7.22721 14.4245 7.1355 14.4248 7.04304Z" fill="black" fill-opacity="0.2"/>
</g>
<defs>
<clipPath id="clip0_414_2642">
<rect width="24" height="24" fill="white"/>
</clipPath>
</defs>
</svg>
