<svg width="24" height="24" viewBox="0 0 24 24" fill="none" xmlns="http://www.w3.org/2000/svg">
<path d="M6.48632 1C5.67551 1 5.00722 1.67773 5.00722 2.5V3.91602C4.99759 3.9707 4.99759 4.02539 5.00722 4.07812V19.416C4.99759 19.4707 4.99759 19.5254 5.00722 19.5781V21.5C5.00722 22.3223 5.67551 23 6.48632 23H16.347C17.1578 23 17.8261 22.3223 17.8261 21.5V19.584C17.8357 19.5293 17.8357 19.4746 17.8261 19.4219V4.08398C17.8357 4.0293 17.8357 3.97461 17.8261 3.92187V2.5C17.8261 1.67773 17.1578 1 16.347 1H6.48632ZM6.48632 2H16.347C16.6205 2 16.84 2.22266 16.84 2.5V3.5H5.99329V2.5C5.99329 2.22266 6.21284 2 6.48632 2ZM5.99329 4.5H16.84V19H5.99329V4.5ZM5.99329 20H16.84V21.5C16.84 21.7773 16.6205 22 16.347 22H6.48632C6.21284 22 5.99329 21.7773 5.99329 21.5V20Z" fill="black"/>
<path d="M6.48632 1C5.67551 1 5.00722 1.67773 5.00722 2.5V3.91602C4.99759 3.9707 4.99759 4.02539 5.00722 4.07812V19.416C4.99759 19.4707 4.99759 19.5254 5.00722 19.5781V21.5C5.00722 22.3223 5.67551 23 6.48632 23H16.347C17.1578 23 17.8261 22.3223 17.8261 21.5V19.584C17.8357 19.5293 17.8357 19.4746 17.8261 19.4219V4.08398C17.8357 4.0293 17.8357 3.97461 17.8261 3.92187V2.5C17.8261 1.67773 17.1578 1 16.347 1H6.48632ZM6.48632 2H16.347C16.6205 2 16.84 2.22266 16.84 2.5V3.5H5.99329V2.5C5.99329 2.22266 6.21284 2 6.48632 2ZM5.99329 4.5H16.84V19H5.99329V4.5ZM5.99329 20H16.84V21.5C16.84 21.7773 16.6205 22 16.347 22H6.48632C6.21284 22 5.99329 21.7773 5.99329 21.5V20Z" fill="black" fill-opacity="0.2"/>
<path d="M6.48632 1C5.67551 1 5.00722 1.67773 5.00722 2.5V3.91602C4.99759 3.9707 4.99759 4.02539 5.00722 4.07812V19.416C4.99759 19.4707 4.99759 19.5254 5.00722 19.5781V21.5C5.00722 22.3223 5.67551 23 6.48632 23H16.347C17.1578 23 17.8261 22.3223 17.8261 21.5V19.584C17.8357 19.5293 17.8357 19.4746 17.8261 19.4219V4.08398C17.8357 4.0293 17.8357 3.97461 17.8261 3.92187V2.5C17.8261 1.67773 17.1578 1 16.347 1H6.48632ZM6.48632 2H16.347C16.6205 2 16.84 2.22266 16.84 2.5V3.5H5.99329V2.5C5.99329 2.22266 6.21284 2 6.48632 2ZM5.99329 4.5H16.84V19H5.99329V4.5ZM5.99329 20H16.84V21.5C16.84 21.7773 16.6205 22 16.347 22H6.48632C6.21284 22 5.99329 21.7773 5.99329 21.5V20Z" fill="black" fill-opacity="0.2"/>
<path d="M6.48632 1C5.67551 1 5.00722 1.67773 5.00722 2.5V3.91602C4.99759 3.9707 4.99759 4.02539 5.00722 4.07812V19.416C4.99759 19.4707 4.99759 19.5254 5.00722 19.5781V21.5C5.00722 22.3223 5.67551 23 6.48632 23H16.347C17.1578 23 17.8261 22.3223 17.8261 21.5V19.584C17.8357 19.5293 17.8357 19.4746 17.8261 19.4219V4.08398C17.8357 4.0293 17.8357 3.97461 17.8261 3.92187V2.5C17.8261 1.67773 17.1578 1 16.347 1H6.48632ZM6.48632 2H16.347C16.6205 2 16.84 2.22266 16.84 2.5V3.5H5.99329V2.5C5.99329 2.22266 6.21284 2 6.48632 2ZM5.99329 4.5H16.84V19H5.99329V4.5ZM5.99329 20H16.84V21.5C16.84 21.7773 16.6205 22 16.347 22H6.48632C6.21284 22 5.99329 21.7773 5.99329 21.5V20Z" fill="black" fill-opacity="0.2"/>
<path d="M6.48632 1C5.67551 1 5.00722 1.67773 5.00722 2.5V3.91602C4.99759 3.9707 4.99759 4.02539 5.00722 4.07812V19.416C4.99759 19.4707 4.99759 19.5254 5.00722 19.5781V21.5C5.00722 22.3223 5.67551 23 6.48632 23H16.347C17.1578 23 17.8261 22.3223 17.8261 21.5V19.584C17.8357 19.5293 17.8357 19.4746 17.8261 19.4219V4.08398C17.8357 4.0293 17.8357 3.97461 17.8261 3.92187V2.5C17.8261 1.67773 17.1578 1 16.347 1H6.48632ZM6.48632 2H16.347C16.6205 2 16.84 2.22266 16.84 2.5V3.5H5.99329V2.5C5.99329 2.22266 6.21284 2 6.48632 2ZM5.99329 4.5H16.84V19H5.99329V4.5ZM5.99329 20H16.84V21.5C16.84 21.7773 16.6205 22 16.347 22H6.48632C6.21284 22 5.99329 21.7773 5.99329 21.5V20Z" fill="black" fill-opacity="0.2"/>
<path d="M6.48632 1C5.67551 1 5.00722 1.67773 5.00722 2.5V3.91602C4.99759 3.9707 4.99759 4.02539 5.00722 4.07812V19.416C4.99759 19.4707 4.99759 19.5254 5.00722 19.5781V21.5C5.00722 22.3223 5.67551 23 6.48632 23H16.347C17.1578 23 17.8261 22.3223 17.8261 21.5V19.584C17.8357 19.5293 17.8357 19.4746 17.8261 19.4219V4.08398C17.8357 4.0293 17.8357 3.97461 17.8261 3.92187V2.5C17.8261 1.67773 17.1578 1 16.347 1H6.48632ZM6.48632 2H16.347C16.6205 2 16.84 2.22266 16.84 2.5V3.5H5.99329V2.5C5.99329 2.22266 6.21284 2 6.48632 2ZM5.99329 4.5H16.84V19H5.99329V4.5ZM5.99329 20H16.84V21.5C16.84 21.7773 16.6205 22 16.347 22H6.48632C6.21284 22 5.99329 21.7773 5.99329 21.5V20Z" fill="black" fill-opacity="0.2"/>
<path d="M6.48632 1C5.67551 1 5.00722 1.67773 5.00722 2.5V3.91602C4.99759 3.9707 4.99759 4.02539 5.00722 4.07812V19.416C4.99759 19.4707 4.99759 19.5254 5.00722 19.5781V21.5C5.00722 22.3223 5.67551 23 6.48632 23H16.347C17.1578 23 17.8261 22.3223 17.8261 21.5V19.584C17.8357 19.5293 17.8357 19.4746 17.8261 19.4219V4.08398C17.8357 4.0293 17.8357 3.97461 17.8261 3.92187V2.5C17.8261 1.67773 17.1578 1 16.347 1H6.48632ZM6.48632 2H16.347C16.6205 2 16.84 2.22266 16.84 2.5V3.5H5.99329V2.5C5.99329 2.22266 6.21284 2 6.48632 2ZM5.99329 4.5H16.84V19H5.99329V4.5ZM5.99329 20H16.84V21.5C16.84 21.7773 16.6205 22 16.347 22H6.48632C6.21284 22 5.99329 21.7773 5.99329 21.5V20Z" fill="black" fill-opacity="0.2"/>
<path d="M6.48632 1C5.67551 1 5.00722 1.67773 5.00722 2.5V3.91602C4.99759 3.9707 4.99759 4.02539 5.00722 4.07812V19.416C4.99759 19.4707 4.99759 19.5254 5.00722 19.5781V21.5C5.00722 22.3223 5.67551 23 6.48632 23H16.347C17.1578 23 17.8261 22.3223 17.8261 21.5V19.584C17.8357 19.5293 17.8357 19.4746 17.8261 19.4219V4.08398C17.8357 4.0293 17.8357 3.97461 17.8261 3.92187V2.5C17.8261 1.67773 17.1578 1 16.347 1H6.48632ZM6.48632 2H16.347C16.6205 2 16.84 2.22266 16.84 2.5V3.5H5.99329V2.5C5.99329 2.22266 6.21284 2 6.48632 2ZM5.99329 4.5H16.84V19H5.99329V4.5ZM5.99329 20H16.84V21.5C16.84 21.7773 16.6205 22 16.347 22H6.48632C6.21284 22 5.99329 21.7773 5.99329 21.5V20Z" fill="black" fill-opacity="0.2"/>
<path d="M6.48632 1C5.67551 1 5.00722 1.67773 5.00722 2.5V3.91602C4.99759 3.9707 4.99759 4.02539 5.00722 4.07812V19.416C4.99759 19.4707 4.99759 19.5254 5.00722 19.5781V21.5C5.00722 22.3223 5.67551 23 6.48632 23H16.347C17.1578 23 17.8261 22.3223 17.8261 21.5V19.584C17.8357 19.5293 17.8357 19.4746 17.8261 19.4219V4.08398C17.8357 4.0293 17.8357 3.97461 17.8261 3.92187V2.5C17.8261 1.67773 17.1578 1 16.347 1H6.48632ZM6.48632 2H16.347C16.6205 2 16.84 2.22266 16.84 2.5V3.5H5.99329V2.5C5.99329 2.22266 6.21284 2 6.48632 2ZM5.99329 4.5H16.84V19H5.99329V4.5ZM5.99329 20H16.84V21.5C16.84 21.7773 16.6205 22 16.347 22H6.48632C6.21284 22 5.99329 21.7773 5.99329 21.5V20Z" fill="black" fill-opacity="0.2"/>
<path d="M6.48632 1C5.67551 1 5.00722 1.67773 5.00722 2.5V3.91602C4.99759 3.9707 4.99759 4.02539 5.00722 4.07812V19.416C4.99759 19.4707 4.99759 19.5254 5.00722 19.5781V21.5C5.00722 22.3223 5.67551 23 6.48632 23H16.347C17.1578 23 17.8261 22.3223 17.8261 21.5V19.584C17.8357 19.5293 17.8357 19.4746 17.8261 19.4219V4.08398C17.8357 4.0293 17.8357 3.97461 17.8261 3.92187V2.5C17.8261 1.67773 17.1578 1 16.347 1H6.48632ZM6.48632 2H16.347C16.6205 2 16.84 2.22266 16.84 2.5V3.5H5.99329V2.5C5.99329 2.22266 6.21284 2 6.48632 2ZM5.99329 4.5H16.84V19H5.99329V4.5ZM5.99329 20H16.84V21.5C16.84 21.7773 16.6205 22 16.347 22H6.48632C6.21284 22 5.99329 21.7773 5.99329 21.5V20Z" fill="black" fill-opacity="0.2"/>
<path d="M6.48632 1C5.67551 1 5.00722 1.67773 5.00722 2.5V3.91602C4.99759 3.9707 4.99759 4.02539 5.00722 4.07812V19.416C4.99759 19.4707 4.99759 19.5254 5.00722 19.5781V21.5C5.00722 22.3223 5.67551 23 6.48632 23H16.347C17.1578 23 17.8261 22.3223 17.8261 21.5V19.584C17.8357 19.5293 17.8357 19.4746 17.8261 19.4219V4.08398C17.8357 4.0293 17.8357 3.97461 17.8261 3.92187V2.5C17.8261 1.67773 17.1578 1 16.347 1H6.48632ZM6.48632 2H16.347C16.6205 2 16.84 2.22266 16.84 2.5V3.5H5.99329V2.5C5.99329 2.22266 6.21284 2 6.48632 2ZM5.99329 4.5H16.84V19H5.99329V4.5ZM5.99329 20H16.84V21.5C16.84 21.7773 16.6205 22 16.347 22H6.48632C6.21284 22 5.99329 21.7773 5.99329 21.5V20Z" stroke="black" stroke-width="0.5"/>
<path d="M6.48632 1C5.67551 1 5.00722 1.67773 5.00722 2.5V3.91602C4.99759 3.9707 4.99759 4.02539 5.00722 4.07812V19.416C4.99759 19.4707 4.99759 19.5254 5.00722 19.5781V21.5C5.00722 22.3223 5.67551 23 6.48632 23H16.347C17.1578 23 17.8261 22.3223 17.8261 21.5V19.584C17.8357 19.5293 17.8357 19.4746 17.8261 19.4219V4.08398C17.8357 4.0293 17.8357 3.97461 17.8261 3.92187V2.5C17.8261 1.67773 17.1578 1 16.347 1H6.48632ZM6.48632 2H16.347C16.6205 2 16.84 2.22266 16.84 2.5V3.5H5.99329V2.5C5.99329 2.22266 6.21284 2 6.48632 2ZM5.99329 4.5H16.84V19H5.99329V4.5ZM5.99329 20H16.84V21.5C16.84 21.7773 16.6205 22 16.347 22H6.48632C6.21284 22 5.99329 21.7773 5.99329 21.5V20Z" stroke="black" stroke-opacity="0.2" stroke-width="0.5"/>
<path d="M6.48632 1C5.67551 1 5.00722 1.67773 5.00722 2.5V3.91602C4.99759 3.9707 4.99759 4.02539 5.00722 4.07812V19.416C4.99759 19.4707 4.99759 19.5254 5.00722 19.5781V21.5C5.00722 22.3223 5.67551 23 6.48632 23H16.347C17.1578 23 17.8261 22.3223 17.8261 21.5V19.584C17.8357 19.5293 17.8357 19.4746 17.8261 19.4219V4.08398C17.8357 4.0293 17.8357 3.97461 17.8261 3.92187V2.5C17.8261 1.67773 17.1578 1 16.347 1H6.48632ZM6.48632 2H16.347C16.6205 2 16.84 2.22266 16.84 2.5V3.5H5.99329V2.5C5.99329 2.22266 6.21284 2 6.48632 2ZM5.99329 4.5H16.84V19H5.99329V4.5ZM5.99329 20H16.84V21.5C16.84 21.7773 16.6205 22 16.347 22H6.48632C6.21284 22 5.99329 21.7773 5.99329 21.5V20Z" stroke="black" stroke-opacity="0.2" stroke-width="0.5"/>
<path d="M6.48632 1C5.67551 1 5.00722 1.67773 5.00722 2.5V3.91602C4.99759 3.9707 4.99759 4.02539 5.00722 4.07812V19.416C4.99759 19.4707 4.99759 19.5254 5.00722 19.5781V21.5C5.00722 22.3223 5.67551 23 6.48632 23H16.347C17.1578 23 17.8261 22.3223 17.8261 21.5V19.584C17.8357 19.5293 17.8357 19.4746 17.8261 19.4219V4.08398C17.8357 4.0293 17.8357 3.97461 17.8261 3.92187V2.5C17.8261 1.67773 17.1578 1 16.347 1H6.48632ZM6.48632 2H16.347C16.6205 2 16.84 2.22266 16.84 2.5V3.5H5.99329V2.5C5.99329 2.22266 6.21284 2 6.48632 2ZM5.99329 4.5H16.84V19H5.99329V4.5ZM5.99329 20H16.84V21.5C16.84 21.7773 16.6205 22 16.347 22H6.48632C6.21284 22 5.99329 21.7773 5.99329 21.5V20Z" stroke="black" stroke-opacity="0.2" stroke-width="0.5"/>
<path d="M6.48632 1C5.67551 1 5.00722 1.67773 5.00722 2.5V3.91602C4.99759 3.9707 4.99759 4.02539 5.00722 4.07812V19.416C4.99759 19.4707 4.99759 19.5254 5.00722 19.5781V21.5C5.00722 22.3223 5.67551 23 6.48632 23H16.347C17.1578 23 17.8261 22.3223 17.8261 21.5V19.584C17.8357 19.5293 17.8357 19.4746 17.8261 19.4219V4.08398C17.8357 4.0293 17.8357 3.97461 17.8261 3.92187V2.5C17.8261 1.67773 17.1578 1 16.347 1H6.48632ZM6.48632 2H16.347C16.6205 2 16.84 2.22266 16.84 2.5V3.5H5.99329V2.5C5.99329 2.22266 6.21284 2 6.48632 2ZM5.99329 4.5H16.84V19H5.99329V4.5ZM5.99329 20H16.84V21.5C16.84 21.7773 16.6205 22 16.347 22H6.48632C6.21284 22 5.99329 21.7773 5.99329 21.5V20Z" stroke="black" stroke-opacity="0.2" stroke-width="0.5"/>
<path d="M6.48632 1C5.67551 1 5.00722 1.67773 5.00722 2.5V3.91602C4.99759 3.9707 4.99759 4.02539 5.00722 4.07812V19.416C4.99759 19.4707 4.99759 19.5254 5.00722 19.5781V21.5C5.00722 22.3223 5.67551 23 6.48632 23H16.347C17.1578 23 17.8261 22.3223 17.8261 21.5V19.584C17.8357 19.5293 17.8357 19.4746 17.8261 19.4219V4.08398C17.8357 4.0293 17.8357 3.97461 17.8261 3.92187V2.5C17.8261 1.67773 17.1578 1 16.347 1H6.48632ZM6.48632 2H16.347C16.6205 2 16.84 2.22266 16.84 2.5V3.5H5.99329V2.5C5.99329 2.22266 6.21284 2 6.48632 2ZM5.99329 4.5H16.84V19H5.99329V4.5ZM5.99329 20H16.84V21.5C16.84 21.7773 16.6205 22 16.347 22H6.48632C6.21284 22 5.99329 21.7773 5.99329 21.5V20Z" stroke="black" stroke-opacity="0.2" stroke-width="0.5"/>
<path d="M6.48632 1C5.67551 1 5.00722 1.67773 5.00722 2.5V3.91602C4.99759 3.9707 4.99759 4.02539 5.00722 4.07812V19.416C4.99759 19.4707 4.99759 19.5254 5.00722 19.5781V21.5C5.00722 22.3223 5.67551 23 6.48632 23H16.347C17.1578 23 17.8261 22.3223 17.8261 21.5V19.584C17.8357 19.5293 17.8357 19.4746 17.8261 19.4219V4.08398C17.8357 4.0293 17.8357 3.97461 17.8261 3.92187V2.5C17.8261 1.67773 17.1578 1 16.347 1H6.48632ZM6.48632 2H16.347C16.6205 2 16.84 2.22266 16.84 2.5V3.5H5.99329V2.5C5.99329 2.22266 6.21284 2 6.48632 2ZM5.99329 4.5H16.84V19H5.99329V4.5ZM5.99329 20H16.84V21.5C16.84 21.7773 16.6205 22 16.347 22H6.48632C6.21284 22 5.99329 21.7773 5.99329 21.5V20Z" stroke="black" stroke-opacity="0.2" stroke-width="0.5"/>
<path d="M6.48632 1C5.67551 1 5.00722 1.67773 5.00722 2.5V3.91602C4.99759 3.9707 4.99759 4.02539 5.00722 4.07812V19.416C4.99759 19.4707 4.99759 19.5254 5.00722 19.5781V21.5C5.00722 22.3223 5.67551 23 6.48632 23H16.347C17.1578 23 17.8261 22.3223 17.8261 21.5V19.584C17.8357 19.5293 17.8357 19.4746 17.8261 19.4219V4.08398C17.8357 4.0293 17.8357 3.97461 17.8261 3.92187V2.5C17.8261 1.67773 17.1578 1 16.347 1H6.48632ZM6.48632 2H16.347C16.6205 2 16.84 2.22266 16.84 2.5V3.5H5.99329V2.5C5.99329 2.22266 6.21284 2 6.48632 2ZM5.99329 4.5H16.84V19H5.99329V4.5ZM5.99329 20H16.84V21.5C16.84 21.7773 16.6205 22 16.347 22H6.48632C6.21284 22 5.99329 21.7773 5.99329 21.5V20Z" stroke="black" stroke-opacity="0.2" stroke-width="0.5"/>
<path d="M6.48632 1C5.67551 1 5.00722 1.67773 5.00722 2.5V3.91602C4.99759 3.9707 4.99759 4.02539 5.00722 4.07812V19.416C4.99759 19.4707 4.99759 19.5254 5.00722 19.5781V21.5C5.00722 22.3223 5.67551 23 6.48632 23H16.347C17.1578 23 17.8261 22.3223 17.8261 21.5V19.584C17.8357 19.5293 17.8357 19.4746 17.8261 19.4219V4.08398C17.8357 4.0293 17.8357 3.97461 17.8261 3.92187V2.5C17.8261 1.67773 17.1578 1 16.347 1H6.48632ZM6.48632 2H16.347C16.6205 2 16.84 2.22266 16.84 2.5V3.5H5.99329V2.5C5.99329 2.22266 6.21284 2 6.48632 2ZM5.99329 4.5H16.84V19H5.99329V4.5ZM5.99329 20H16.84V21.5C16.84 21.7773 16.6205 22 16.347 22H6.48632C6.21284 22 5.99329 21.7773 5.99329 21.5V20Z" stroke="black" stroke-opacity="0.2" stroke-width="0.5"/>
<path d="M6.48632 1C5.67551 1 5.00722 1.67773 5.00722 2.5V3.91602C4.99759 3.9707 4.99759 4.02539 5.00722 4.07812V19.416C4.99759 19.4707 4.99759 19.5254 5.00722 19.5781V21.5C5.00722 22.3223 5.67551 23 6.48632 23H16.347C17.1578 23 17.8261 22.3223 17.8261 21.5V19.584C17.8357 19.5293 17.8357 19.4746 17.8261 19.4219V4.08398C17.8357 4.0293 17.8357 3.97461 17.8261 3.92187V2.5C17.8261 1.67773 17.1578 1 16.347 1H6.48632ZM6.48632 2H16.347C16.6205 2 16.84 2.22266 16.84 2.5V3.5H5.99329V2.5C5.99329 2.22266 6.21284 2 6.48632 2ZM5.99329 4.5H16.84V19H5.99329V4.5ZM5.99329 20H16.84V21.5C16.84 21.7773 16.6205 22 16.347 22H6.48632C6.21284 22 5.99329 21.7773 5.99329 21.5V20Z" stroke="black" stroke-opacity="0.2" stroke-width="0.5"/>
<path d="M13.65 16.1458C13.65 15.6971 13.2807 15.3333 12.825 15.3333C12.3693 15.3333 12 15.6971 12 16.1458V18.8542C12 21.0978 13.8469 22.9167 16.125 22.9167C18.4031 22.9167 20.25 21.0978 20.25 18.8542V16.9583C20.25 16.5096 19.8807 16.1458 19.425 16.1458C18.9693 16.1458 18.6 16.5096 18.6 16.9583V16.4167C18.6 15.9679 18.2307 15.6042 17.775 15.6042C17.3193 15.6042 16.95 15.9679 16.95 16.4167V15.875C16.95 15.4262 16.5807 15.0625 16.125 15.0625C15.6693 15.0625 15.3 15.4262 15.3 15.875V11.8125C15.3 11.3637 14.9307 11 14.475 11C14.0193 11 13.65 11.3637 13.65 11.8125V18.5833V16.1458Z" fill="white"/>
<path d="M13.65 16.1458C13.65 15.6971 13.2807 15.3333 12.825 15.3333C12.3693 15.3333 12 15.6971 12 16.1458V18.8542C12 21.0978 13.8469 22.9167 16.125 22.9167C18.4031 22.9167 20.25 21.0978 20.25 18.8542V16.9583C20.25 16.5096 19.8807 16.1458 19.425 16.1458C18.9693 16.1458 18.6 16.5096 18.6 16.9583V16.4167C18.6 15.9679 18.2307 15.6042 17.775 15.6042C17.3193 15.6042 16.95 15.9679 16.95 16.4167V15.875C16.95 15.4262 16.5807 15.0625 16.125 15.0625C15.6693 15.0625 15.3 15.4262 15.3 15.875V11.8125C15.3 11.3637 14.9307 11 14.475 11C14.0193 11 13.65 11.3637 13.65 11.8125V18.5833V16.1458Z" stroke="black" stroke-width="1.2" stroke-miterlimit="10" stroke-linecap="round" stroke-linejoin="round"/>
<path d="M13.65 16.1458C13.65 15.6971 13.2807 15.3333 12.825 15.3333C12.3693 15.3333 12 15.6971 12 16.1458V18.8542C12 21.0978 13.8469 22.9167 16.125 22.9167C18.4031 22.9167 20.25 21.0978 20.25 18.8542V16.9583C20.25 16.5096 19.8807 16.1458 19.425 16.1458C18.9693 16.1458 18.6 16.5096 18.6 16.9583V16.4167C18.6 15.9679 18.2307 15.6042 17.775 15.6042C17.3193 15.6042 16.95 15.9679 16.95 16.4167V15.875C16.95 15.4262 16.5807 15.0625 16.125 15.0625C15.6693 15.0625 15.3 15.4262 15.3 15.875V11.8125C15.3 11.3637 14.9307 11 14.475 11C14.0193 11 13.65 11.3637 13.65 11.8125V18.5833V16.1458Z" stroke="black" stroke-opacity="0.2" stroke-width="1.2" stroke-miterlimit="10" stroke-linecap="round" stroke-linejoin="round"/>
<path d="M13.65 16.1458C13.65 15.6971 13.2807 15.3333 12.825 15.3333C12.3693 15.3333 12 15.6971 12 16.1458V18.8542C12 21.0978 13.8469 22.9167 16.125 22.9167C18.4031 22.9167 20.25 21.0978 20.25 18.8542V16.9583C20.25 16.5096 19.8807 16.1458 19.425 16.1458C18.9693 16.1458 18.6 16.5096 18.6 16.9583V16.4167C18.6 15.9679 18.2307 15.6042 17.775 15.6042C17.3193 15.6042 16.95 15.9679 16.95 16.4167V15.875C16.95 15.4262 16.5807 15.0625 16.125 15.0625C15.6693 15.0625 15.3 15.4262 15.3 15.875V11.8125C15.3 11.3637 14.9307 11 14.475 11C14.0193 11 13.65 11.3637 13.65 11.8125V18.5833V16.1458Z" stroke="black" stroke-opacity="0.2" stroke-width="1.2" stroke-miterlimit="10" stroke-linecap="round" stroke-linejoin="round"/>
<path d="M13.65 16.1458C13.65 15.6971 13.2807 15.3333 12.825 15.3333C12.3693 15.3333 12 15.6971 12 16.1458V18.8542C12 21.0978 13.8469 22.9167 16.125 22.9167C18.4031 22.9167 20.25 21.0978 20.25 18.8542V16.9583C20.25 16.5096 19.8807 16.1458 19.425 16.1458C18.9693 16.1458 18.6 16.5096 18.6 16.9583V16.4167C18.6 15.9679 18.2307 15.6042 17.775 15.6042C17.3193 15.6042 16.95 15.9679 16.95 16.4167V15.875C16.95 15.4262 16.5807 15.0625 16.125 15.0625C15.6693 15.0625 15.3 15.4262 15.3 15.875V11.8125C15.3 11.3637 14.9307 11 14.475 11C14.0193 11 13.65 11.3637 13.65 11.8125V18.5833V16.1458Z" stroke="black" stroke-opacity="0.2" stroke-width="1.2" stroke-miterlimit="10" stroke-linecap="round" stroke-linejoin="round"/>
<path d="M13.65 16.1458C13.65 15.6971 13.2807 15.3333 12.825 15.3333C12.3693 15.3333 12 15.6971 12 16.1458V18.8542C12 21.0978 13.8469 22.9167 16.125 22.9167C18.4031 22.9167 20.25 21.0978 20.25 18.8542V16.9583C20.25 16.5096 19.8807 16.1458 19.425 16.1458C18.9693 16.1458 18.6 16.5096 18.6 16.9583V16.4167C18.6 15.9679 18.2307 15.6042 17.775 15.6042C17.3193 15.6042 16.95 15.9679 16.95 16.4167V15.875C16.95 15.4262 16.5807 15.0625 16.125 15.0625C15.6693 15.0625 15.3 15.4262 15.3 15.875V11.8125C15.3 11.3637 14.9307 11 14.475 11C14.0193 11 13.65 11.3637 13.65 11.8125V18.5833V16.1458Z" stroke="black" stroke-opacity="0.2" stroke-width="1.2" stroke-miterlimit="10" stroke-linecap="round" stroke-linejoin="round"/>
<path d="M13.65 16.1458C13.65 15.6971 13.2807 15.3333 12.825 15.3333C12.3693 15.3333 12 15.6971 12 16.1458V18.8542C12 21.0978 13.8469 22.9167 16.125 22.9167C18.4031 22.9167 20.25 21.0978 20.25 18.8542V16.9583C20.25 16.5096 19.8807 16.1458 19.425 16.1458C18.9693 16.1458 18.6 16.5096 18.6 16.9583V16.4167C18.6 15.9679 18.2307 15.6042 17.775 15.6042C17.3193 15.6042 16.95 15.9679 16.95 16.4167V15.875C16.95 15.4262 16.5807 15.0625 16.125 15.0625C15.6693 15.0625 15.3 15.4262 15.3 15.875V11.8125C15.3 11.3637 14.9307 11 14.475 11C14.0193 11 13.65 11.3637 13.65 11.8125V18.5833V16.1458Z" stroke="black" stroke-opacity="0.2" stroke-width="1.2" stroke-miterlimit="10" stroke-linecap="round" stroke-linejoin="round"/>
<path d="M13.65 16.1458C13.65 15.6971 13.2807 15.3333 12.825 15.3333C12.3693 15.3333 12 15.6971 12 16.1458V18.8542C12 21.0978 13.8469 22.9167 16.125 22.9167C18.4031 22.9167 20.25 21.0978 20.25 18.8542V16.9583C20.25 16.5096 19.8807 16.1458 19.425 16.1458C18.9693 16.1458 18.6 16.5096 18.6 16.9583V16.4167C18.6 15.9679 18.2307 15.6042 17.775 15.6042C17.3193 15.6042 16.95 15.9679 16.95 16.4167V15.875C16.95 15.4262 16.5807 15.0625 16.125 15.0625C15.6693 15.0625 15.3 15.4262 15.3 15.875V11.8125C15.3 11.3637 14.9307 11 14.475 11C14.0193 11 13.65 11.3637 13.65 11.8125V18.5833V16.1458Z" stroke="black" stroke-opacity="0.2" stroke-width="1.2" stroke-miterlimit="10" stroke-linecap="round" stroke-linejoin="round"/>
<path d="M13.65 16.1458C13.65 15.6971 13.2807 15.3333 12.825 15.3333C12.3693 15.3333 12 15.6971 12 16.1458V18.8542C12 21.0978 13.8469 22.9167 16.125 22.9167C18.4031 22.9167 20.25 21.0978 20.25 18.8542V16.9583C20.25 16.5096 19.8807 16.1458 19.425 16.1458C18.9693 16.1458 18.6 16.5096 18.6 16.9583V16.4167C18.6 15.9679 18.2307 15.6042 17.775 15.6042C17.3193 15.6042 16.95 15.9679 16.95 16.4167V15.875C16.95 15.4262 16.5807 15.0625 16.125 15.0625C15.6693 15.0625 15.3 15.4262 15.3 15.875V11.8125C15.3 11.3637 14.9307 11 14.475 11C14.0193 11 13.65 11.3637 13.65 11.8125V18.5833V16.1458Z" stroke="black" stroke-opacity="0.2" stroke-width="1.2" stroke-miterlimit="10" stroke-linecap="round" stroke-linejoin="round"/>
<path d="M13.65 16.1458C13.65 15.6971 13.2807 15.3333 12.825 15.3333C12.3693 15.3333 12 15.6971 12 16.1458V18.8542C12 21.0978 13.8469 22.9167 16.125 22.9167C18.4031 22.9167 20.25 21.0978 20.25 18.8542V16.9583C20.25 16.5096 19.8807 16.1458 19.425 16.1458C18.9693 16.1458 18.6 16.5096 18.6 16.9583V16.4167C18.6 15.9679 18.2307 15.6042 17.775 15.6042C17.3193 15.6042 16.95 15.9679 16.95 16.4167V15.875C16.95 15.4262 16.5807 15.0625 16.125 15.0625C15.6693 15.0625 15.3 15.4262 15.3 15.875V11.8125C15.3 11.3637 14.9307 11 14.475 11C14.0193 11 13.65 11.3637 13.65 11.8125V18.5833V16.1458Z" stroke="black" stroke-opacity="0.2" stroke-width="1.2" stroke-miterlimit="10" stroke-linecap="round" stroke-linejoin="round"/>
<path d="M13.65 16.1458C13.65 15.6971 13.2807 15.3333 12.825 15.3333C12.3693 15.3333 12 15.6971 12 16.1458V18.8542C12 21.0978 13.8469 22.9167 16.125 22.9167C18.4031 22.9167 20.25 21.0978 20.25 18.8542V16.9583C20.25 16.5096 19.8807 16.1458 19.425 16.1458C18.9693 16.1458 18.6 16.5096 18.6 16.9583V16.4167C18.6 15.9679 18.2307 15.6042 17.775 15.6042C17.3193 15.6042 16.95 15.9679 16.95 16.4167V15.875C16.95 15.4262 16.5807 15.0625 16.125 15.0625C15.6693 15.0625 15.3 15.4262 15.3 15.875V11.8125C15.3 11.3637 14.9307 11 14.475 11C14.0193 11 13.65 11.3637 13.65 11.8125V18.5833V16.1458Z" stroke="black" stroke-opacity="0.2" stroke-width="1.2" stroke-miterlimit="10" stroke-linecap="round" stroke-linejoin="round"/>
</svg>
