<svg width="32" height="32" viewBox="0 0 32 32" fill="none" xmlns="http://www.w3.org/2000/svg">
<path fill-rule="evenodd" clip-rule="evenodd" d="M16 3C8.8203 3 3 8.8203 3 16C3 23.1797 8.8203 29 16 29C23.1797 29 29 23.1797 29 16C29 8.8203 23.1797 3 16 3ZM1 16C1 7.71573 7.71573 1 16 1C24.2843 1 31 7.71573 31 16C31 24.2843 24.2843 31 16 31C7.71573 31 1 24.2843 1 16ZM18.2954 8.73281C18.7196 9.08638 18.777 9.71694 18.4234 10.1412L13.8009 15.6883L18.4234 21.2353C18.777 21.6596 18.7196 22.2901 18.2954 22.6437C17.8711 22.9973 17.2405 22.9399 16.8869 22.5157L11.7309 16.3284C11.4219 15.9576 11.4219 15.4189 11.7309 15.0481L16.8869 8.86085C17.2405 8.43657 17.8711 8.37925 18.2954 8.73281Z" fill="black"/>
<path fill-rule="evenodd" clip-rule="evenodd" d="M16 3C8.8203 3 3 8.8203 3 16C3 23.1797 8.8203 29 16 29C23.1797 29 29 23.1797 29 16C29 8.8203 23.1797 3 16 3ZM1 16C1 7.71573 7.71573 1 16 1C24.2843 1 31 7.71573 31 16C31 24.2843 24.2843 31 16 31C7.71573 31 1 24.2843 1 16ZM18.2954 8.73281C18.7196 9.08638 18.777 9.71694 18.4234 10.1412L13.8009 15.6883L18.4234 21.2353C18.777 21.6596 18.7196 22.2901 18.2954 22.6437C17.8711 22.9973 17.2405 22.9399 16.8869 22.5157L11.7309 16.3284C11.4219 15.9576 11.4219 15.4189 11.7309 15.0481L16.8869 8.86085C17.2405 8.43657 17.8711 8.37925 18.2954 8.73281Z" fill="black" fill-opacity="0.2"/>
<path fill-rule="evenodd" clip-rule="evenodd" d="M16 3C8.8203 3 3 8.8203 3 16C3 23.1797 8.8203 29 16 29C23.1797 29 29 23.1797 29 16C29 8.8203 23.1797 3 16 3ZM1 16C1 7.71573 7.71573 1 16 1C24.2843 1 31 7.71573 31 16C31 24.2843 24.2843 31 16 31C7.71573 31 1 24.2843 1 16ZM18.2954 8.73281C18.7196 9.08638 18.777 9.71694 18.4234 10.1412L13.8009 15.6883L18.4234 21.2353C18.777 21.6596 18.7196 22.2901 18.2954 22.6437C17.8711 22.9973 17.2405 22.9399 16.8869 22.5157L11.7309 16.3284C11.4219 15.9576 11.4219 15.4189 11.7309 15.0481L16.8869 8.86085C17.2405 8.43657 17.8711 8.37925 18.2954 8.73281Z" fill="black" fill-opacity="0.2"/>
<path fill-rule="evenodd" clip-rule="evenodd" d="M16 3C8.8203 3 3 8.8203 3 16C3 23.1797 8.8203 29 16 29C23.1797 29 29 23.1797 29 16C29 8.8203 23.1797 3 16 3ZM1 16C1 7.71573 7.71573 1 16 1C24.2843 1 31 7.71573 31 16C31 24.2843 24.2843 31 16 31C7.71573 31 1 24.2843 1 16ZM18.2954 8.73281C18.7196 9.08638 18.777 9.71694 18.4234 10.1412L13.8009 15.6883L18.4234 21.2353C18.777 21.6596 18.7196 22.2901 18.2954 22.6437C17.8711 22.9973 17.2405 22.9399 16.8869 22.5157L11.7309 16.3284C11.4219 15.9576 11.4219 15.4189 11.7309 15.0481L16.8869 8.86085C17.2405 8.43657 17.8711 8.37925 18.2954 8.73281Z" fill="black" fill-opacity="0.2"/>
<path fill-rule="evenodd" clip-rule="evenodd" d="M16 3C8.8203 3 3 8.8203 3 16C3 23.1797 8.8203 29 16 29C23.1797 29 29 23.1797 29 16C29 8.8203 23.1797 3 16 3ZM1 16C1 7.71573 7.71573 1 16 1C24.2843 1 31 7.71573 31 16C31 24.2843 24.2843 31 16 31C7.71573 31 1 24.2843 1 16ZM18.2954 8.73281C18.7196 9.08638 18.777 9.71694 18.4234 10.1412L13.8009 15.6883L18.4234 21.2353C18.777 21.6596 18.7196 22.2901 18.2954 22.6437C17.8711 22.9973 17.2405 22.9399 16.8869 22.5157L11.7309 16.3284C11.4219 15.9576 11.4219 15.4189 11.7309 15.0481L16.8869 8.86085C17.2405 8.43657 17.8711 8.37925 18.2954 8.73281Z" fill="black" fill-opacity="0.2"/>
<path fill-rule="evenodd" clip-rule="evenodd" d="M16 3C8.8203 3 3 8.8203 3 16C3 23.1797 8.8203 29 16 29C23.1797 29 29 23.1797 29 16C29 8.8203 23.1797 3 16 3ZM1 16C1 7.71573 7.71573 1 16 1C24.2843 1 31 7.71573 31 16C31 24.2843 24.2843 31 16 31C7.71573 31 1 24.2843 1 16ZM18.2954 8.73281C18.7196 9.08638 18.777 9.71694 18.4234 10.1412L13.8009 15.6883L18.4234 21.2353C18.777 21.6596 18.7196 22.2901 18.2954 22.6437C17.8711 22.9973 17.2405 22.9399 16.8869 22.5157L11.7309 16.3284C11.4219 15.9576 11.4219 15.4189 11.7309 15.0481L16.8869 8.86085C17.2405 8.43657 17.8711 8.37925 18.2954 8.73281Z" fill="black" fill-opacity="0.2"/>
<path fill-rule="evenodd" clip-rule="evenodd" d="M16 3C8.8203 3 3 8.8203 3 16C3 23.1797 8.8203 29 16 29C23.1797 29 29 23.1797 29 16C29 8.8203 23.1797 3 16 3ZM1 16C1 7.71573 7.71573 1 16 1C24.2843 1 31 7.71573 31 16C31 24.2843 24.2843 31 16 31C7.71573 31 1 24.2843 1 16ZM18.2954 8.73281C18.7196 9.08638 18.777 9.71694 18.4234 10.1412L13.8009 15.6883L18.4234 21.2353C18.777 21.6596 18.7196 22.2901 18.2954 22.6437C17.8711 22.9973 17.2405 22.9399 16.8869 22.5157L11.7309 16.3284C11.4219 15.9576 11.4219 15.4189 11.7309 15.0481L16.8869 8.86085C17.2405 8.43657 17.8711 8.37925 18.2954 8.73281Z" fill="black" fill-opacity="0.2"/>
<path fill-rule="evenodd" clip-rule="evenodd" d="M16 3C8.8203 3 3 8.8203 3 16C3 23.1797 8.8203 29 16 29C23.1797 29 29 23.1797 29 16C29 8.8203 23.1797 3 16 3ZM1 16C1 7.71573 7.71573 1 16 1C24.2843 1 31 7.71573 31 16C31 24.2843 24.2843 31 16 31C7.71573 31 1 24.2843 1 16ZM18.2954 8.73281C18.7196 9.08638 18.777 9.71694 18.4234 10.1412L13.8009 15.6883L18.4234 21.2353C18.777 21.6596 18.7196 22.2901 18.2954 22.6437C17.8711 22.9973 17.2405 22.9399 16.8869 22.5157L11.7309 16.3284C11.4219 15.9576 11.4219 15.4189 11.7309 15.0481L16.8869 8.86085C17.2405 8.43657 17.8711 8.37925 18.2954 8.73281Z" fill="black" fill-opacity="0.2"/>
<path fill-rule="evenodd" clip-rule="evenodd" d="M16 3C8.8203 3 3 8.8203 3 16C3 23.1797 8.8203 29 16 29C23.1797 29 29 23.1797 29 16C29 8.8203 23.1797 3 16 3ZM1 16C1 7.71573 7.71573 1 16 1C24.2843 1 31 7.71573 31 16C31 24.2843 24.2843 31 16 31C7.71573 31 1 24.2843 1 16ZM18.2954 8.73281C18.7196 9.08638 18.777 9.71694 18.4234 10.1412L13.8009 15.6883L18.4234 21.2353C18.777 21.6596 18.7196 22.2901 18.2954 22.6437C17.8711 22.9973 17.2405 22.9399 16.8869 22.5157L11.7309 16.3284C11.4219 15.9576 11.4219 15.4189 11.7309 15.0481L16.8869 8.86085C17.2405 8.43657 17.8711 8.37925 18.2954 8.73281Z" fill="black" fill-opacity="0.2"/>
<path fill-rule="evenodd" clip-rule="evenodd" d="M16 3C8.8203 3 3 8.8203 3 16C3 23.1797 8.8203 29 16 29C23.1797 29 29 23.1797 29 16C29 8.8203 23.1797 3 16 3ZM1 16C1 7.71573 7.71573 1 16 1C24.2843 1 31 7.71573 31 16C31 24.2843 24.2843 31 16 31C7.71573 31 1 24.2843 1 16ZM18.2954 8.73281C18.7196 9.08638 18.777 9.71694 18.4234 10.1412L13.8009 15.6883L18.4234 21.2353C18.777 21.6596 18.7196 22.2901 18.2954 22.6437C17.8711 22.9973 17.2405 22.9399 16.8869 22.5157L11.7309 16.3284C11.4219 15.9576 11.4219 15.4189 11.7309 15.0481L16.8869 8.86085C17.2405 8.43657 17.8711 8.37925 18.2954 8.73281Z" fill="black" fill-opacity="0.2"/>
</svg>
