<svg width="24" height="24" viewBox="0 0 24 24" fill="none" xmlns="http://www.w3.org/2000/svg">
<path fill-rule="evenodd" clip-rule="evenodd" d="M20.4 3.29V5.03H21.9V3.29H23.56V1.87H21.9V0.139999H20.4V1.87H18.74V3.29H20.4ZM1.34343 2.5C1.11973 2.5 0.905206 2.58887 0.747036 2.74704C0.588859 2.90521 0.5 3.11975 0.5 3.34344C0.5 3.56713 0.588859 3.78166 0.747036 3.93984C0.905206 4.09801 1.11973 4.18687 1.34343 4.18687H4.50996L5.683 7.276C5.69133 7.31212 5.70203 7.34771 5.71507 7.38251L8.54002 14.8198C8.55434 14.8573 8.57133 14.8938 8.59086 14.9288L9.60635 17.6019C9.28935 17.7313 9.00036 17.9256 8.75908 18.1747C8.3741 18.5722 8.13253 19.0866 8.07253 19.6367C8.01252 20.1868 8.13753 20.7412 8.42776 21.2123C8.718 21.6834 9.15694 22.0444 9.67523 22.2382C10.1935 22.4321 10.7616 22.4477 11.2898 22.2826C11.8179 22.1176 12.276 21.7812 12.5917 21.3267C12.9074 20.8723 13.0627 20.3256 13.033 19.773C13.0206 19.5433 12.9766 19.318 12.9033 19.1031H17.3468C17.2711 19.3271 17.2271 19.5622 17.2176 19.8018C17.1954 20.3635 17.3643 20.9162 17.6966 21.3696C18.029 21.823 18.5052 22.1504 19.0476 22.2983C19.5899 22.4462 20.1664 22.4059 20.6829 22.184C21.1994 21.962 21.6255 21.5716 21.8915 21.0764C22.1576 20.5811 22.2479 20.0103 22.1478 19.4572C22.0476 18.904 21.763 18.4011 21.3402 18.0305C20.9175 17.66 20.3816 17.4436 19.8201 17.4168L19.8082 17.4163H11.3352L10.5546 15.3623H19.4908C19.7896 15.3622 20.0814 15.2715 20.3277 15.1021C20.5739 14.9328 20.763 14.6928 20.8701 14.4137L20.8707 14.4122L23.2164 8.23622C23.301 8.01331 23.3302 7.77318 23.3015 7.53647C23.2728 7.29975 23.1871 7.07356 23.0517 6.87731C22.9163 6.68106 22.7353 6.5206 22.5242 6.40974C22.3131 6.29888 22.0781 6.24094 21.8397 6.24088H7.09318L6.03534 3.45587C5.92977 3.17592 5.74167 2.93464 5.49595 2.76395C5.25 2.59311 4.95794 2.50106 4.65848 2.5H1.34343ZM20.3625 20.3462C20.4504 20.2145 20.4974 20.0597 20.4974 19.9013L21.1875 19.903L20.4974 19.903C20.4974 19.6903 20.4129 19.4863 20.2625 19.3358C20.1122 19.1854 19.9084 19.1008 19.6958 19.1006C19.5375 19.1007 19.3829 19.1478 19.2514 19.2358C19.1197 19.3238 19.0172 19.4489 18.9567 19.5953C18.8961 19.7416 18.8804 19.9026 18.9113 20.0579C18.9423 20.2132 19.0186 20.3558 19.1306 20.4677C19.2426 20.5797 19.3853 20.6559 19.5406 20.6867C19.6959 20.7176 19.8569 20.7017 20.0032 20.6411C20.1495 20.5805 20.2745 20.4778 20.3625 20.3462ZM19.3468 13.6763L21.5302 7.92775H7.73407L9.91793 13.6763H19.3468ZM10.3937 19.1168C10.549 19.0859 10.71 19.1017 10.8563 19.1623C11.0026 19.2228 11.1276 19.3254 11.2157 19.457C11.3036 19.5885 11.3507 19.7431 11.3508 19.9013C11.3509 20.1141 11.2664 20.3181 11.116 20.4686C10.9663 20.6184 10.7627 20.7027 10.5492 20.703C10.391 20.7028 10.2364 20.6557 10.1049 20.5678C9.97327 20.4797 9.87072 20.3547 9.81018 20.2084C9.74963 20.0621 9.73382 19.9011 9.76474 19.7458C9.79565 19.5905 9.87191 19.4479 9.98386 19.336C10.0958 19.224 10.2384 19.1478 10.3937 19.1168Z" fill="black"/>
<path fill-rule="evenodd" clip-rule="evenodd" d="M20.4 3.29V5.03H21.9V3.29H23.56V1.87H21.9V0.139999H20.4V1.87H18.74V3.29H20.4ZM1.34343 2.5C1.11973 2.5 0.905206 2.58887 0.747036 2.74704C0.588859 2.90521 0.5 3.11975 0.5 3.34344C0.5 3.56713 0.588859 3.78166 0.747036 3.93984C0.905206 4.09801 1.11973 4.18687 1.34343 4.18687H4.50996L5.683 7.276C5.69133 7.31212 5.70203 7.34771 5.71507 7.38251L8.54002 14.8198C8.55434 14.8573 8.57133 14.8938 8.59086 14.9288L9.60635 17.6019C9.28935 17.7313 9.00036 17.9256 8.75908 18.1747C8.3741 18.5722 8.13253 19.0866 8.07253 19.6367C8.01252 20.1868 8.13753 20.7412 8.42776 21.2123C8.718 21.6834 9.15694 22.0444 9.67523 22.2382C10.1935 22.4321 10.7616 22.4477 11.2898 22.2826C11.8179 22.1176 12.276 21.7812 12.5917 21.3267C12.9074 20.8723 13.0627 20.3256 13.033 19.773C13.0206 19.5433 12.9766 19.318 12.9033 19.1031H17.3468C17.2711 19.3271 17.2271 19.5622 17.2176 19.8018C17.1954 20.3635 17.3643 20.9162 17.6966 21.3696C18.029 21.823 18.5052 22.1504 19.0476 22.2983C19.5899 22.4462 20.1664 22.4059 20.6829 22.184C21.1994 21.962 21.6255 21.5716 21.8915 21.0764C22.1576 20.5811 22.2479 20.0103 22.1478 19.4572C22.0476 18.904 21.763 18.4011 21.3402 18.0305C20.9175 17.66 20.3816 17.4436 19.8201 17.4168L19.8082 17.4163H11.3352L10.5546 15.3623H19.4908C19.7896 15.3622 20.0814 15.2715 20.3277 15.1021C20.5739 14.9328 20.763 14.6928 20.8701 14.4137L20.8707 14.4122L23.2164 8.23622C23.301 8.01331 23.3302 7.77318 23.3015 7.53647C23.2728 7.29975 23.1871 7.07356 23.0517 6.87731C22.9163 6.68106 22.7353 6.5206 22.5242 6.40974C22.3131 6.29888 22.0781 6.24094 21.8397 6.24088H7.09318L6.03534 3.45587C5.92977 3.17592 5.74167 2.93464 5.49595 2.76395C5.25 2.59311 4.95794 2.50106 4.65848 2.5H1.34343ZM20.3625 20.3462C20.4504 20.2145 20.4974 20.0597 20.4974 19.9013L21.1875 19.903L20.4974 19.903C20.4974 19.6903 20.4129 19.4863 20.2625 19.3358C20.1122 19.1854 19.9084 19.1008 19.6958 19.1006C19.5375 19.1007 19.3829 19.1478 19.2514 19.2358C19.1197 19.3238 19.0172 19.4489 18.9567 19.5953C18.8961 19.7416 18.8804 19.9026 18.9113 20.0579C18.9423 20.2132 19.0186 20.3558 19.1306 20.4677C19.2426 20.5797 19.3853 20.6559 19.5406 20.6867C19.6959 20.7176 19.8569 20.7017 20.0032 20.6411C20.1495 20.5805 20.2745 20.4778 20.3625 20.3462ZM19.3468 13.6763L21.5302 7.92775H7.73407L9.91793 13.6763H19.3468ZM10.3937 19.1168C10.549 19.0859 10.71 19.1017 10.8563 19.1623C11.0026 19.2228 11.1276 19.3254 11.2157 19.457C11.3036 19.5885 11.3507 19.7431 11.3508 19.9013C11.3509 20.1141 11.2664 20.3181 11.116 20.4686C10.9663 20.6184 10.7627 20.7027 10.5492 20.703C10.391 20.7028 10.2364 20.6557 10.1049 20.5678C9.97327 20.4797 9.87072 20.3547 9.81018 20.2084C9.74963 20.0621 9.73382 19.9011 9.76474 19.7458C9.79565 19.5905 9.87191 19.4479 9.98386 19.336C10.0958 19.224 10.2384 19.1478 10.3937 19.1168Z" fill="black" fill-opacity="0.2"/>
<path fill-rule="evenodd" clip-rule="evenodd" d="M20.4 3.29V5.03H21.9V3.29H23.56V1.87H21.9V0.139999H20.4V1.87H18.74V3.29H20.4ZM1.34343 2.5C1.11973 2.5 0.905206 2.58887 0.747036 2.74704C0.588859 2.90521 0.5 3.11975 0.5 3.34344C0.5 3.56713 0.588859 3.78166 0.747036 3.93984C0.905206 4.09801 1.11973 4.18687 1.34343 4.18687H4.50996L5.683 7.276C5.69133 7.31212 5.70203 7.34771 5.71507 7.38251L8.54002 14.8198C8.55434 14.8573 8.57133 14.8938 8.59086 14.9288L9.60635 17.6019C9.28935 17.7313 9.00036 17.9256 8.75908 18.1747C8.3741 18.5722 8.13253 19.0866 8.07253 19.6367C8.01252 20.1868 8.13753 20.7412 8.42776 21.2123C8.718 21.6834 9.15694 22.0444 9.67523 22.2382C10.1935 22.4321 10.7616 22.4477 11.2898 22.2826C11.8179 22.1176 12.276 21.7812 12.5917 21.3267C12.9074 20.8723 13.0627 20.3256 13.033 19.773C13.0206 19.5433 12.9766 19.318 12.9033 19.1031H17.3468C17.2711 19.3271 17.2271 19.5622 17.2176 19.8018C17.1954 20.3635 17.3643 20.9162 17.6966 21.3696C18.029 21.823 18.5052 22.1504 19.0476 22.2983C19.5899 22.4462 20.1664 22.4059 20.6829 22.184C21.1994 21.962 21.6255 21.5716 21.8915 21.0764C22.1576 20.5811 22.2479 20.0103 22.1478 19.4572C22.0476 18.904 21.763 18.4011 21.3402 18.0305C20.9175 17.66 20.3816 17.4436 19.8201 17.4168L19.8082 17.4163H11.3352L10.5546 15.3623H19.4908C19.7896 15.3622 20.0814 15.2715 20.3277 15.1021C20.5739 14.9328 20.763 14.6928 20.8701 14.4137L20.8707 14.4122L23.2164 8.23622C23.301 8.01331 23.3302 7.77318 23.3015 7.53647C23.2728 7.29975 23.1871 7.07356 23.0517 6.87731C22.9163 6.68106 22.7353 6.5206 22.5242 6.40974C22.3131 6.29888 22.0781 6.24094 21.8397 6.24088H7.09318L6.03534 3.45587C5.92977 3.17592 5.74167 2.93464 5.49595 2.76395C5.25 2.59311 4.95794 2.50106 4.65848 2.5H1.34343ZM20.3625 20.3462C20.4504 20.2145 20.4974 20.0597 20.4974 19.9013L21.1875 19.903L20.4974 19.903C20.4974 19.6903 20.4129 19.4863 20.2625 19.3358C20.1122 19.1854 19.9084 19.1008 19.6958 19.1006C19.5375 19.1007 19.3829 19.1478 19.2514 19.2358C19.1197 19.3238 19.0172 19.4489 18.9567 19.5953C18.8961 19.7416 18.8804 19.9026 18.9113 20.0579C18.9423 20.2132 19.0186 20.3558 19.1306 20.4677C19.2426 20.5797 19.3853 20.6559 19.5406 20.6867C19.6959 20.7176 19.8569 20.7017 20.0032 20.6411C20.1495 20.5805 20.2745 20.4778 20.3625 20.3462ZM19.3468 13.6763L21.5302 7.92775H7.73407L9.91793 13.6763H19.3468ZM10.3937 19.1168C10.549 19.0859 10.71 19.1017 10.8563 19.1623C11.0026 19.2228 11.1276 19.3254 11.2157 19.457C11.3036 19.5885 11.3507 19.7431 11.3508 19.9013C11.3509 20.1141 11.2664 20.3181 11.116 20.4686C10.9663 20.6184 10.7627 20.7027 10.5492 20.703C10.391 20.7028 10.2364 20.6557 10.1049 20.5678C9.97327 20.4797 9.87072 20.3547 9.81018 20.2084C9.74963 20.0621 9.73382 19.9011 9.76474 19.7458C9.79565 19.5905 9.87191 19.4479 9.98386 19.336C10.0958 19.224 10.2384 19.1478 10.3937 19.1168Z" fill="black" fill-opacity="0.2"/>
<path fill-rule="evenodd" clip-rule="evenodd" d="M20.4 3.29V5.03H21.9V3.29H23.56V1.87H21.9V0.139999H20.4V1.87H18.74V3.29H20.4ZM1.34343 2.5C1.11973 2.5 0.905206 2.58887 0.747036 2.74704C0.588859 2.90521 0.5 3.11975 0.5 3.34344C0.5 3.56713 0.588859 3.78166 0.747036 3.93984C0.905206 4.09801 1.11973 4.18687 1.34343 4.18687H4.50996L5.683 7.276C5.69133 7.31212 5.70203 7.34771 5.71507 7.38251L8.54002 14.8198C8.55434 14.8573 8.57133 14.8938 8.59086 14.9288L9.60635 17.6019C9.28935 17.7313 9.00036 17.9256 8.75908 18.1747C8.3741 18.5722 8.13253 19.0866 8.07253 19.6367C8.01252 20.1868 8.13753 20.7412 8.42776 21.2123C8.718 21.6834 9.15694 22.0444 9.67523 22.2382C10.1935 22.4321 10.7616 22.4477 11.2898 22.2826C11.8179 22.1176 12.276 21.7812 12.5917 21.3267C12.9074 20.8723 13.0627 20.3256 13.033 19.773C13.0206 19.5433 12.9766 19.318 12.9033 19.1031H17.3468C17.2711 19.3271 17.2271 19.5622 17.2176 19.8018C17.1954 20.3635 17.3643 20.9162 17.6966 21.3696C18.029 21.823 18.5052 22.1504 19.0476 22.2983C19.5899 22.4462 20.1664 22.4059 20.6829 22.184C21.1994 21.962 21.6255 21.5716 21.8915 21.0764C22.1576 20.5811 22.2479 20.0103 22.1478 19.4572C22.0476 18.904 21.763 18.4011 21.3402 18.0305C20.9175 17.66 20.3816 17.4436 19.8201 17.4168L19.8082 17.4163H11.3352L10.5546 15.3623H19.4908C19.7896 15.3622 20.0814 15.2715 20.3277 15.1021C20.5739 14.9328 20.763 14.6928 20.8701 14.4137L20.8707 14.4122L23.2164 8.23622C23.301 8.01331 23.3302 7.77318 23.3015 7.53647C23.2728 7.29975 23.1871 7.07356 23.0517 6.87731C22.9163 6.68106 22.7353 6.5206 22.5242 6.40974C22.3131 6.29888 22.0781 6.24094 21.8397 6.24088H7.09318L6.03534 3.45587C5.92977 3.17592 5.74167 2.93464 5.49595 2.76395C5.25 2.59311 4.95794 2.50106 4.65848 2.5H1.34343ZM20.3625 20.3462C20.4504 20.2145 20.4974 20.0597 20.4974 19.9013L21.1875 19.903L20.4974 19.903C20.4974 19.6903 20.4129 19.4863 20.2625 19.3358C20.1122 19.1854 19.9084 19.1008 19.6958 19.1006C19.5375 19.1007 19.3829 19.1478 19.2514 19.2358C19.1197 19.3238 19.0172 19.4489 18.9567 19.5953C18.8961 19.7416 18.8804 19.9026 18.9113 20.0579C18.9423 20.2132 19.0186 20.3558 19.1306 20.4677C19.2426 20.5797 19.3853 20.6559 19.5406 20.6867C19.6959 20.7176 19.8569 20.7017 20.0032 20.6411C20.1495 20.5805 20.2745 20.4778 20.3625 20.3462ZM19.3468 13.6763L21.5302 7.92775H7.73407L9.91793 13.6763H19.3468ZM10.3937 19.1168C10.549 19.0859 10.71 19.1017 10.8563 19.1623C11.0026 19.2228 11.1276 19.3254 11.2157 19.457C11.3036 19.5885 11.3507 19.7431 11.3508 19.9013C11.3509 20.1141 11.2664 20.3181 11.116 20.4686C10.9663 20.6184 10.7627 20.7027 10.5492 20.703C10.391 20.7028 10.2364 20.6557 10.1049 20.5678C9.97327 20.4797 9.87072 20.3547 9.81018 20.2084C9.74963 20.0621 9.73382 19.9011 9.76474 19.7458C9.79565 19.5905 9.87191 19.4479 9.98386 19.336C10.0958 19.224 10.2384 19.1478 10.3937 19.1168Z" fill="black" fill-opacity="0.2"/>
<path fill-rule="evenodd" clip-rule="evenodd" d="M20.4 3.29V5.03H21.9V3.29H23.56V1.87H21.9V0.139999H20.4V1.87H18.74V3.29H20.4ZM1.34343 2.5C1.11973 2.5 0.905206 2.58887 0.747036 2.74704C0.588859 2.90521 0.5 3.11975 0.5 3.34344C0.5 3.56713 0.588859 3.78166 0.747036 3.93984C0.905206 4.09801 1.11973 4.18687 1.34343 4.18687H4.50996L5.683 7.276C5.69133 7.31212 5.70203 7.34771 5.71507 7.38251L8.54002 14.8198C8.55434 14.8573 8.57133 14.8938 8.59086 14.9288L9.60635 17.6019C9.28935 17.7313 9.00036 17.9256 8.75908 18.1747C8.3741 18.5722 8.13253 19.0866 8.07253 19.6367C8.01252 20.1868 8.13753 20.7412 8.42776 21.2123C8.718 21.6834 9.15694 22.0444 9.67523 22.2382C10.1935 22.4321 10.7616 22.4477 11.2898 22.2826C11.8179 22.1176 12.276 21.7812 12.5917 21.3267C12.9074 20.8723 13.0627 20.3256 13.033 19.773C13.0206 19.5433 12.9766 19.318 12.9033 19.1031H17.3468C17.2711 19.3271 17.2271 19.5622 17.2176 19.8018C17.1954 20.3635 17.3643 20.9162 17.6966 21.3696C18.029 21.823 18.5052 22.1504 19.0476 22.2983C19.5899 22.4462 20.1664 22.4059 20.6829 22.184C21.1994 21.962 21.6255 21.5716 21.8915 21.0764C22.1576 20.5811 22.2479 20.0103 22.1478 19.4572C22.0476 18.904 21.763 18.4011 21.3402 18.0305C20.9175 17.66 20.3816 17.4436 19.8201 17.4168L19.8082 17.4163H11.3352L10.5546 15.3623H19.4908C19.7896 15.3622 20.0814 15.2715 20.3277 15.1021C20.5739 14.9328 20.763 14.6928 20.8701 14.4137L20.8707 14.4122L23.2164 8.23622C23.301 8.01331 23.3302 7.77318 23.3015 7.53647C23.2728 7.29975 23.1871 7.07356 23.0517 6.87731C22.9163 6.68106 22.7353 6.5206 22.5242 6.40974C22.3131 6.29888 22.0781 6.24094 21.8397 6.24088H7.09318L6.03534 3.45587C5.92977 3.17592 5.74167 2.93464 5.49595 2.76395C5.25 2.59311 4.95794 2.50106 4.65848 2.5H1.34343ZM20.3625 20.3462C20.4504 20.2145 20.4974 20.0597 20.4974 19.9013L21.1875 19.903L20.4974 19.903C20.4974 19.6903 20.4129 19.4863 20.2625 19.3358C20.1122 19.1854 19.9084 19.1008 19.6958 19.1006C19.5375 19.1007 19.3829 19.1478 19.2514 19.2358C19.1197 19.3238 19.0172 19.4489 18.9567 19.5953C18.8961 19.7416 18.8804 19.9026 18.9113 20.0579C18.9423 20.2132 19.0186 20.3558 19.1306 20.4677C19.2426 20.5797 19.3853 20.6559 19.5406 20.6867C19.6959 20.7176 19.8569 20.7017 20.0032 20.6411C20.1495 20.5805 20.2745 20.4778 20.3625 20.3462ZM19.3468 13.6763L21.5302 7.92775H7.73407L9.91793 13.6763H19.3468ZM10.3937 19.1168C10.549 19.0859 10.71 19.1017 10.8563 19.1623C11.0026 19.2228 11.1276 19.3254 11.2157 19.457C11.3036 19.5885 11.3507 19.7431 11.3508 19.9013C11.3509 20.1141 11.2664 20.3181 11.116 20.4686C10.9663 20.6184 10.7627 20.7027 10.5492 20.703C10.391 20.7028 10.2364 20.6557 10.1049 20.5678C9.97327 20.4797 9.87072 20.3547 9.81018 20.2084C9.74963 20.0621 9.73382 19.9011 9.76474 19.7458C9.79565 19.5905 9.87191 19.4479 9.98386 19.336C10.0958 19.224 10.2384 19.1478 10.3937 19.1168Z" fill="black" fill-opacity="0.2"/>
<path fill-rule="evenodd" clip-rule="evenodd" d="M20.4 3.29V5.03H21.9V3.29H23.56V1.87H21.9V0.139999H20.4V1.87H18.74V3.29H20.4ZM1.34343 2.5C1.11973 2.5 0.905206 2.58887 0.747036 2.74704C0.588859 2.90521 0.5 3.11975 0.5 3.34344C0.5 3.56713 0.588859 3.78166 0.747036 3.93984C0.905206 4.09801 1.11973 4.18687 1.34343 4.18687H4.50996L5.683 7.276C5.69133 7.31212 5.70203 7.34771 5.71507 7.38251L8.54002 14.8198C8.55434 14.8573 8.57133 14.8938 8.59086 14.9288L9.60635 17.6019C9.28935 17.7313 9.00036 17.9256 8.75908 18.1747C8.3741 18.5722 8.13253 19.0866 8.07253 19.6367C8.01252 20.1868 8.13753 20.7412 8.42776 21.2123C8.718 21.6834 9.15694 22.0444 9.67523 22.2382C10.1935 22.4321 10.7616 22.4477 11.2898 22.2826C11.8179 22.1176 12.276 21.7812 12.5917 21.3267C12.9074 20.8723 13.0627 20.3256 13.033 19.773C13.0206 19.5433 12.9766 19.318 12.9033 19.1031H17.3468C17.2711 19.3271 17.2271 19.5622 17.2176 19.8018C17.1954 20.3635 17.3643 20.9162 17.6966 21.3696C18.029 21.823 18.5052 22.1504 19.0476 22.2983C19.5899 22.4462 20.1664 22.4059 20.6829 22.184C21.1994 21.962 21.6255 21.5716 21.8915 21.0764C22.1576 20.5811 22.2479 20.0103 22.1478 19.4572C22.0476 18.904 21.763 18.4011 21.3402 18.0305C20.9175 17.66 20.3816 17.4436 19.8201 17.4168L19.8082 17.4163H11.3352L10.5546 15.3623H19.4908C19.7896 15.3622 20.0814 15.2715 20.3277 15.1021C20.5739 14.9328 20.763 14.6928 20.8701 14.4137L20.8707 14.4122L23.2164 8.23622C23.301 8.01331 23.3302 7.77318 23.3015 7.53647C23.2728 7.29975 23.1871 7.07356 23.0517 6.87731C22.9163 6.68106 22.7353 6.5206 22.5242 6.40974C22.3131 6.29888 22.0781 6.24094 21.8397 6.24088H7.09318L6.03534 3.45587C5.92977 3.17592 5.74167 2.93464 5.49595 2.76395C5.25 2.59311 4.95794 2.50106 4.65848 2.5H1.34343ZM20.3625 20.3462C20.4504 20.2145 20.4974 20.0597 20.4974 19.9013L21.1875 19.903L20.4974 19.903C20.4974 19.6903 20.4129 19.4863 20.2625 19.3358C20.1122 19.1854 19.9084 19.1008 19.6958 19.1006C19.5375 19.1007 19.3829 19.1478 19.2514 19.2358C19.1197 19.3238 19.0172 19.4489 18.9567 19.5953C18.8961 19.7416 18.8804 19.9026 18.9113 20.0579C18.9423 20.2132 19.0186 20.3558 19.1306 20.4677C19.2426 20.5797 19.3853 20.6559 19.5406 20.6867C19.6959 20.7176 19.8569 20.7017 20.0032 20.6411C20.1495 20.5805 20.2745 20.4778 20.3625 20.3462ZM19.3468 13.6763L21.5302 7.92775H7.73407L9.91793 13.6763H19.3468ZM10.3937 19.1168C10.549 19.0859 10.71 19.1017 10.8563 19.1623C11.0026 19.2228 11.1276 19.3254 11.2157 19.457C11.3036 19.5885 11.3507 19.7431 11.3508 19.9013C11.3509 20.1141 11.2664 20.3181 11.116 20.4686C10.9663 20.6184 10.7627 20.7027 10.5492 20.703C10.391 20.7028 10.2364 20.6557 10.1049 20.5678C9.97327 20.4797 9.87072 20.3547 9.81018 20.2084C9.74963 20.0621 9.73382 19.9011 9.76474 19.7458C9.79565 19.5905 9.87191 19.4479 9.98386 19.336C10.0958 19.224 10.2384 19.1478 10.3937 19.1168Z" fill="black" fill-opacity="0.2"/>
<path fill-rule="evenodd" clip-rule="evenodd" d="M20.4 3.29V5.03H21.9V3.29H23.56V1.87H21.9V0.139999H20.4V1.87H18.74V3.29H20.4ZM1.34343 2.5C1.11973 2.5 0.905206 2.58887 0.747036 2.74704C0.588859 2.90521 0.5 3.11975 0.5 3.34344C0.5 3.56713 0.588859 3.78166 0.747036 3.93984C0.905206 4.09801 1.11973 4.18687 1.34343 4.18687H4.50996L5.683 7.276C5.69133 7.31212 5.70203 7.34771 5.71507 7.38251L8.54002 14.8198C8.55434 14.8573 8.57133 14.8938 8.59086 14.9288L9.60635 17.6019C9.28935 17.7313 9.00036 17.9256 8.75908 18.1747C8.3741 18.5722 8.13253 19.0866 8.07253 19.6367C8.01252 20.1868 8.13753 20.7412 8.42776 21.2123C8.718 21.6834 9.15694 22.0444 9.67523 22.2382C10.1935 22.4321 10.7616 22.4477 11.2898 22.2826C11.8179 22.1176 12.276 21.7812 12.5917 21.3267C12.9074 20.8723 13.0627 20.3256 13.033 19.773C13.0206 19.5433 12.9766 19.318 12.9033 19.1031H17.3468C17.2711 19.3271 17.2271 19.5622 17.2176 19.8018C17.1954 20.3635 17.3643 20.9162 17.6966 21.3696C18.029 21.823 18.5052 22.1504 19.0476 22.2983C19.5899 22.4462 20.1664 22.4059 20.6829 22.184C21.1994 21.962 21.6255 21.5716 21.8915 21.0764C22.1576 20.5811 22.2479 20.0103 22.1478 19.4572C22.0476 18.904 21.763 18.4011 21.3402 18.0305C20.9175 17.66 20.3816 17.4436 19.8201 17.4168L19.8082 17.4163H11.3352L10.5546 15.3623H19.4908C19.7896 15.3622 20.0814 15.2715 20.3277 15.1021C20.5739 14.9328 20.763 14.6928 20.8701 14.4137L20.8707 14.4122L23.2164 8.23622C23.301 8.01331 23.3302 7.77318 23.3015 7.53647C23.2728 7.29975 23.1871 7.07356 23.0517 6.87731C22.9163 6.68106 22.7353 6.5206 22.5242 6.40974C22.3131 6.29888 22.0781 6.24094 21.8397 6.24088H7.09318L6.03534 3.45587C5.92977 3.17592 5.74167 2.93464 5.49595 2.76395C5.25 2.59311 4.95794 2.50106 4.65848 2.5H1.34343ZM20.3625 20.3462C20.4504 20.2145 20.4974 20.0597 20.4974 19.9013L21.1875 19.903L20.4974 19.903C20.4974 19.6903 20.4129 19.4863 20.2625 19.3358C20.1122 19.1854 19.9084 19.1008 19.6958 19.1006C19.5375 19.1007 19.3829 19.1478 19.2514 19.2358C19.1197 19.3238 19.0172 19.4489 18.9567 19.5953C18.8961 19.7416 18.8804 19.9026 18.9113 20.0579C18.9423 20.2132 19.0186 20.3558 19.1306 20.4677C19.2426 20.5797 19.3853 20.6559 19.5406 20.6867C19.6959 20.7176 19.8569 20.7017 20.0032 20.6411C20.1495 20.5805 20.2745 20.4778 20.3625 20.3462ZM19.3468 13.6763L21.5302 7.92775H7.73407L9.91793 13.6763H19.3468ZM10.3937 19.1168C10.549 19.0859 10.71 19.1017 10.8563 19.1623C11.0026 19.2228 11.1276 19.3254 11.2157 19.457C11.3036 19.5885 11.3507 19.7431 11.3508 19.9013C11.3509 20.1141 11.2664 20.3181 11.116 20.4686C10.9663 20.6184 10.7627 20.7027 10.5492 20.703C10.391 20.7028 10.2364 20.6557 10.1049 20.5678C9.97327 20.4797 9.87072 20.3547 9.81018 20.2084C9.74963 20.0621 9.73382 19.9011 9.76474 19.7458C9.79565 19.5905 9.87191 19.4479 9.98386 19.336C10.0958 19.224 10.2384 19.1478 10.3937 19.1168Z" fill="black" fill-opacity="0.2"/>
<path fill-rule="evenodd" clip-rule="evenodd" d="M20.4 3.29V5.03H21.9V3.29H23.56V1.87H21.9V0.139999H20.4V1.87H18.74V3.29H20.4ZM1.34343 2.5C1.11973 2.5 0.905206 2.58887 0.747036 2.74704C0.588859 2.90521 0.5 3.11975 0.5 3.34344C0.5 3.56713 0.588859 3.78166 0.747036 3.93984C0.905206 4.09801 1.11973 4.18687 1.34343 4.18687H4.50996L5.683 7.276C5.69133 7.31212 5.70203 7.34771 5.71507 7.38251L8.54002 14.8198C8.55434 14.8573 8.57133 14.8938 8.59086 14.9288L9.60635 17.6019C9.28935 17.7313 9.00036 17.9256 8.75908 18.1747C8.3741 18.5722 8.13253 19.0866 8.07253 19.6367C8.01252 20.1868 8.13753 20.7412 8.42776 21.2123C8.718 21.6834 9.15694 22.0444 9.67523 22.2382C10.1935 22.4321 10.7616 22.4477 11.2898 22.2826C11.8179 22.1176 12.276 21.7812 12.5917 21.3267C12.9074 20.8723 13.0627 20.3256 13.033 19.773C13.0206 19.5433 12.9766 19.318 12.9033 19.1031H17.3468C17.2711 19.3271 17.2271 19.5622 17.2176 19.8018C17.1954 20.3635 17.3643 20.9162 17.6966 21.3696C18.029 21.823 18.5052 22.1504 19.0476 22.2983C19.5899 22.4462 20.1664 22.4059 20.6829 22.184C21.1994 21.962 21.6255 21.5716 21.8915 21.0764C22.1576 20.5811 22.2479 20.0103 22.1478 19.4572C22.0476 18.904 21.763 18.4011 21.3402 18.0305C20.9175 17.66 20.3816 17.4436 19.8201 17.4168L19.8082 17.4163H11.3352L10.5546 15.3623H19.4908C19.7896 15.3622 20.0814 15.2715 20.3277 15.1021C20.5739 14.9328 20.763 14.6928 20.8701 14.4137L20.8707 14.4122L23.2164 8.23622C23.301 8.01331 23.3302 7.77318 23.3015 7.53647C23.2728 7.29975 23.1871 7.07356 23.0517 6.87731C22.9163 6.68106 22.7353 6.5206 22.5242 6.40974C22.3131 6.29888 22.0781 6.24094 21.8397 6.24088H7.09318L6.03534 3.45587C5.92977 3.17592 5.74167 2.93464 5.49595 2.76395C5.25 2.59311 4.95794 2.50106 4.65848 2.5H1.34343ZM20.3625 20.3462C20.4504 20.2145 20.4974 20.0597 20.4974 19.9013L21.1875 19.903L20.4974 19.903C20.4974 19.6903 20.4129 19.4863 20.2625 19.3358C20.1122 19.1854 19.9084 19.1008 19.6958 19.1006C19.5375 19.1007 19.3829 19.1478 19.2514 19.2358C19.1197 19.3238 19.0172 19.4489 18.9567 19.5953C18.8961 19.7416 18.8804 19.9026 18.9113 20.0579C18.9423 20.2132 19.0186 20.3558 19.1306 20.4677C19.2426 20.5797 19.3853 20.6559 19.5406 20.6867C19.6959 20.7176 19.8569 20.7017 20.0032 20.6411C20.1495 20.5805 20.2745 20.4778 20.3625 20.3462ZM19.3468 13.6763L21.5302 7.92775H7.73407L9.91793 13.6763H19.3468ZM10.3937 19.1168C10.549 19.0859 10.71 19.1017 10.8563 19.1623C11.0026 19.2228 11.1276 19.3254 11.2157 19.457C11.3036 19.5885 11.3507 19.7431 11.3508 19.9013C11.3509 20.1141 11.2664 20.3181 11.116 20.4686C10.9663 20.6184 10.7627 20.7027 10.5492 20.703C10.391 20.7028 10.2364 20.6557 10.1049 20.5678C9.97327 20.4797 9.87072 20.3547 9.81018 20.2084C9.74963 20.0621 9.73382 19.9011 9.76474 19.7458C9.79565 19.5905 9.87191 19.4479 9.98386 19.336C10.0958 19.224 10.2384 19.1478 10.3937 19.1168Z" fill="black" fill-opacity="0.2"/>
<path fill-rule="evenodd" clip-rule="evenodd" d="M20.4 3.29V5.03H21.9V3.29H23.56V1.87H21.9V0.139999H20.4V1.87H18.74V3.29H20.4ZM1.34343 2.5C1.11973 2.5 0.905206 2.58887 0.747036 2.74704C0.588859 2.90521 0.5 3.11975 0.5 3.34344C0.5 3.56713 0.588859 3.78166 0.747036 3.93984C0.905206 4.09801 1.11973 4.18687 1.34343 4.18687H4.50996L5.683 7.276C5.69133 7.31212 5.70203 7.34771 5.71507 7.38251L8.54002 14.8198C8.55434 14.8573 8.57133 14.8938 8.59086 14.9288L9.60635 17.6019C9.28935 17.7313 9.00036 17.9256 8.75908 18.1747C8.3741 18.5722 8.13253 19.0866 8.07253 19.6367C8.01252 20.1868 8.13753 20.7412 8.42776 21.2123C8.718 21.6834 9.15694 22.0444 9.67523 22.2382C10.1935 22.4321 10.7616 22.4477 11.2898 22.2826C11.8179 22.1176 12.276 21.7812 12.5917 21.3267C12.9074 20.8723 13.0627 20.3256 13.033 19.773C13.0206 19.5433 12.9766 19.318 12.9033 19.1031H17.3468C17.2711 19.3271 17.2271 19.5622 17.2176 19.8018C17.1954 20.3635 17.3643 20.9162 17.6966 21.3696C18.029 21.823 18.5052 22.1504 19.0476 22.2983C19.5899 22.4462 20.1664 22.4059 20.6829 22.184C21.1994 21.962 21.6255 21.5716 21.8915 21.0764C22.1576 20.5811 22.2479 20.0103 22.1478 19.4572C22.0476 18.904 21.763 18.4011 21.3402 18.0305C20.9175 17.66 20.3816 17.4436 19.8201 17.4168L19.8082 17.4163H11.3352L10.5546 15.3623H19.4908C19.7896 15.3622 20.0814 15.2715 20.3277 15.1021C20.5739 14.9328 20.763 14.6928 20.8701 14.4137L20.8707 14.4122L23.2164 8.23622C23.301 8.01331 23.3302 7.77318 23.3015 7.53647C23.2728 7.29975 23.1871 7.07356 23.0517 6.87731C22.9163 6.68106 22.7353 6.5206 22.5242 6.40974C22.3131 6.29888 22.0781 6.24094 21.8397 6.24088H7.09318L6.03534 3.45587C5.92977 3.17592 5.74167 2.93464 5.49595 2.76395C5.25 2.59311 4.95794 2.50106 4.65848 2.5H1.34343ZM20.3625 20.3462C20.4504 20.2145 20.4974 20.0597 20.4974 19.9013L21.1875 19.903L20.4974 19.903C20.4974 19.6903 20.4129 19.4863 20.2625 19.3358C20.1122 19.1854 19.9084 19.1008 19.6958 19.1006C19.5375 19.1007 19.3829 19.1478 19.2514 19.2358C19.1197 19.3238 19.0172 19.4489 18.9567 19.5953C18.8961 19.7416 18.8804 19.9026 18.9113 20.0579C18.9423 20.2132 19.0186 20.3558 19.1306 20.4677C19.2426 20.5797 19.3853 20.6559 19.5406 20.6867C19.6959 20.7176 19.8569 20.7017 20.0032 20.6411C20.1495 20.5805 20.2745 20.4778 20.3625 20.3462ZM19.3468 13.6763L21.5302 7.92775H7.73407L9.91793 13.6763H19.3468ZM10.3937 19.1168C10.549 19.0859 10.71 19.1017 10.8563 19.1623C11.0026 19.2228 11.1276 19.3254 11.2157 19.457C11.3036 19.5885 11.3507 19.7431 11.3508 19.9013C11.3509 20.1141 11.2664 20.3181 11.116 20.4686C10.9663 20.6184 10.7627 20.7027 10.5492 20.703C10.391 20.7028 10.2364 20.6557 10.1049 20.5678C9.97327 20.4797 9.87072 20.3547 9.81018 20.2084C9.74963 20.0621 9.73382 19.9011 9.76474 19.7458C9.79565 19.5905 9.87191 19.4479 9.98386 19.336C10.0958 19.224 10.2384 19.1478 10.3937 19.1168Z" fill="black" fill-opacity="0.2"/>
<path fill-rule="evenodd" clip-rule="evenodd" d="M20.4 3.29V5.03H21.9V3.29H23.56V1.87H21.9V0.139999H20.4V1.87H18.74V3.29H20.4ZM1.34343 2.5C1.11973 2.5 0.905206 2.58887 0.747036 2.74704C0.588859 2.90521 0.5 3.11975 0.5 3.34344C0.5 3.56713 0.588859 3.78166 0.747036 3.93984C0.905206 4.09801 1.11973 4.18687 1.34343 4.18687H4.50996L5.683 7.276C5.69133 7.31212 5.70203 7.34771 5.71507 7.38251L8.54002 14.8198C8.55434 14.8573 8.57133 14.8938 8.59086 14.9288L9.60635 17.6019C9.28935 17.7313 9.00036 17.9256 8.75908 18.1747C8.3741 18.5722 8.13253 19.0866 8.07253 19.6367C8.01252 20.1868 8.13753 20.7412 8.42776 21.2123C8.718 21.6834 9.15694 22.0444 9.67523 22.2382C10.1935 22.4321 10.7616 22.4477 11.2898 22.2826C11.8179 22.1176 12.276 21.7812 12.5917 21.3267C12.9074 20.8723 13.0627 20.3256 13.033 19.773C13.0206 19.5433 12.9766 19.318 12.9033 19.1031H17.3468C17.2711 19.3271 17.2271 19.5622 17.2176 19.8018C17.1954 20.3635 17.3643 20.9162 17.6966 21.3696C18.029 21.823 18.5052 22.1504 19.0476 22.2983C19.5899 22.4462 20.1664 22.4059 20.6829 22.184C21.1994 21.962 21.6255 21.5716 21.8915 21.0764C22.1576 20.5811 22.2479 20.0103 22.1478 19.4572C22.0476 18.904 21.763 18.4011 21.3402 18.0305C20.9175 17.66 20.3816 17.4436 19.8201 17.4168L19.8082 17.4163H11.3352L10.5546 15.3623H19.4908C19.7896 15.3622 20.0814 15.2715 20.3277 15.1021C20.5739 14.9328 20.763 14.6928 20.8701 14.4137L20.8707 14.4122L23.2164 8.23622C23.301 8.01331 23.3302 7.77318 23.3015 7.53647C23.2728 7.29975 23.1871 7.07356 23.0517 6.87731C22.9163 6.68106 22.7353 6.5206 22.5242 6.40974C22.3131 6.29888 22.0781 6.24094 21.8397 6.24088H7.09318L6.03534 3.45587C5.92977 3.17592 5.74167 2.93464 5.49595 2.76395C5.25 2.59311 4.95794 2.50106 4.65848 2.5H1.34343ZM20.3625 20.3462C20.4504 20.2145 20.4974 20.0597 20.4974 19.9013L21.1875 19.903L20.4974 19.903C20.4974 19.6903 20.4129 19.4863 20.2625 19.3358C20.1122 19.1854 19.9084 19.1008 19.6958 19.1006C19.5375 19.1007 19.3829 19.1478 19.2514 19.2358C19.1197 19.3238 19.0172 19.4489 18.9567 19.5953C18.8961 19.7416 18.8804 19.9026 18.9113 20.0579C18.9423 20.2132 19.0186 20.3558 19.1306 20.4677C19.2426 20.5797 19.3853 20.6559 19.5406 20.6867C19.6959 20.7176 19.8569 20.7017 20.0032 20.6411C20.1495 20.5805 20.2745 20.4778 20.3625 20.3462ZM19.3468 13.6763L21.5302 7.92775H7.73407L9.91793 13.6763H19.3468ZM10.3937 19.1168C10.549 19.0859 10.71 19.1017 10.8563 19.1623C11.0026 19.2228 11.1276 19.3254 11.2157 19.457C11.3036 19.5885 11.3507 19.7431 11.3508 19.9013C11.3509 20.1141 11.2664 20.3181 11.116 20.4686C10.9663 20.6184 10.7627 20.7027 10.5492 20.703C10.391 20.7028 10.2364 20.6557 10.1049 20.5678C9.97327 20.4797 9.87072 20.3547 9.81018 20.2084C9.74963 20.0621 9.73382 19.9011 9.76474 19.7458C9.79565 19.5905 9.87191 19.4479 9.98386 19.336C10.0958 19.224 10.2384 19.1478 10.3937 19.1168Z" fill="black" fill-opacity="0.2"/>
</svg>
