<svg width="24" height="24" viewBox="0 0 24 24" fill="none" xmlns="http://www.w3.org/2000/svg">
<g clip-path="url(#clip0_282_63)">
<path d="M17.6848 16.7406L17.2447 17.2447L16.7406 17.6848C15.0179 19.1885 12.7656 20.0989 10.2994 20.0989C4.88736 20.0989 0.5 15.7115 0.5 10.2994C0.5 4.88736 4.88736 0.5 10.2994 0.5C15.7115 0.5 20.0989 4.88736 20.0989 10.2994C20.0989 12.7656 19.1885 15.0179 17.6848 16.7406ZM17.5469 17.9133L17.3819 17.3819L17.9133 17.5469C17.9565 17.5603 17.9973 17.584 18.0326 17.6193L23.4144 23.0011C23.5285 23.1152 23.5285 23.3003 23.4144 23.4144C23.3003 23.5285 23.1152 23.5285 23.0011 23.4144L17.6193 18.0326C17.584 17.9973 17.5603 17.9565 17.5469 17.9133ZM10.2994 1.08453C5.21019 1.08453 1.08453 5.21019 1.08453 10.2994C1.08453 15.3887 5.21019 19.5144 10.2994 19.5144C15.3887 19.5144 19.5144 15.3887 19.5144 10.2994C19.5144 5.21019 15.3887 1.08453 10.2994 1.08453Z" stroke="black"/>
<path d="M17.6848 16.7406L17.2447 17.2447L16.7406 17.6848C15.0179 19.1885 12.7656 20.0989 10.2994 20.0989C4.88736 20.0989 0.5 15.7115 0.5 10.2994C0.5 4.88736 4.88736 0.5 10.2994 0.5C15.7115 0.5 20.0989 4.88736 20.0989 10.2994C20.0989 12.7656 19.1885 15.0179 17.6848 16.7406ZM17.5469 17.9133L17.3819 17.3819L17.9133 17.5469C17.9565 17.5603 17.9973 17.584 18.0326 17.6193L23.4144 23.0011C23.5285 23.1152 23.5285 23.3003 23.4144 23.4144C23.3003 23.5285 23.1152 23.5285 23.0011 23.4144L17.6193 18.0326C17.584 17.9973 17.5603 17.9565 17.5469 17.9133ZM10.2994 1.08453C5.21019 1.08453 1.08453 5.21019 1.08453 10.2994C1.08453 15.3887 5.21019 19.5144 10.2994 19.5144C15.3887 19.5144 19.5144 15.3887 19.5144 10.2994C19.5144 5.21019 15.3887 1.08453 10.2994 1.08453Z" stroke="black" stroke-opacity="0.2"/>
<path d="M17.6848 16.7406L17.2447 17.2447L16.7406 17.6848C15.0179 19.1885 12.7656 20.0989 10.2994 20.0989C4.88736 20.0989 0.5 15.7115 0.5 10.2994C0.5 4.88736 4.88736 0.5 10.2994 0.5C15.7115 0.5 20.0989 4.88736 20.0989 10.2994C20.0989 12.7656 19.1885 15.0179 17.6848 16.7406ZM17.5469 17.9133L17.3819 17.3819L17.9133 17.5469C17.9565 17.5603 17.9973 17.584 18.0326 17.6193L23.4144 23.0011C23.5285 23.1152 23.5285 23.3003 23.4144 23.4144C23.3003 23.5285 23.1152 23.5285 23.0011 23.4144L17.6193 18.0326C17.584 17.9973 17.5603 17.9565 17.5469 17.9133ZM10.2994 1.08453C5.21019 1.08453 1.08453 5.21019 1.08453 10.2994C1.08453 15.3887 5.21019 19.5144 10.2994 19.5144C15.3887 19.5144 19.5144 15.3887 19.5144 10.2994C19.5144 5.21019 15.3887 1.08453 10.2994 1.08453Z" stroke="black" stroke-opacity="0.2"/>
<path d="M17.6848 16.7406L17.2447 17.2447L16.7406 17.6848C15.0179 19.1885 12.7656 20.0989 10.2994 20.0989C4.88736 20.0989 0.5 15.7115 0.5 10.2994C0.5 4.88736 4.88736 0.5 10.2994 0.5C15.7115 0.5 20.0989 4.88736 20.0989 10.2994C20.0989 12.7656 19.1885 15.0179 17.6848 16.7406ZM17.5469 17.9133L17.3819 17.3819L17.9133 17.5469C17.9565 17.5603 17.9973 17.584 18.0326 17.6193L23.4144 23.0011C23.5285 23.1152 23.5285 23.3003 23.4144 23.4144C23.3003 23.5285 23.1152 23.5285 23.0011 23.4144L17.6193 18.0326C17.584 17.9973 17.5603 17.9565 17.5469 17.9133ZM10.2994 1.08453C5.21019 1.08453 1.08453 5.21019 1.08453 10.2994C1.08453 15.3887 5.21019 19.5144 10.2994 19.5144C15.3887 19.5144 19.5144 15.3887 19.5144 10.2994C19.5144 5.21019 15.3887 1.08453 10.2994 1.08453Z" stroke="black" stroke-opacity="0.2"/>
<path d="M17.6848 16.7406L17.2447 17.2447L16.7406 17.6848C15.0179 19.1885 12.7656 20.0989 10.2994 20.0989C4.88736 20.0989 0.5 15.7115 0.5 10.2994C0.5 4.88736 4.88736 0.5 10.2994 0.5C15.7115 0.5 20.0989 4.88736 20.0989 10.2994C20.0989 12.7656 19.1885 15.0179 17.6848 16.7406ZM17.5469 17.9133L17.3819 17.3819L17.9133 17.5469C17.9565 17.5603 17.9973 17.584 18.0326 17.6193L23.4144 23.0011C23.5285 23.1152 23.5285 23.3003 23.4144 23.4144C23.3003 23.5285 23.1152 23.5285 23.0011 23.4144L17.6193 18.0326C17.584 17.9973 17.5603 17.9565 17.5469 17.9133ZM10.2994 1.08453C5.21019 1.08453 1.08453 5.21019 1.08453 10.2994C1.08453 15.3887 5.21019 19.5144 10.2994 19.5144C15.3887 19.5144 19.5144 15.3887 19.5144 10.2994C19.5144 5.21019 15.3887 1.08453 10.2994 1.08453Z" stroke="black" stroke-opacity="0.2"/>
<path d="M17.6848 16.7406L17.2447 17.2447L16.7406 17.6848C15.0179 19.1885 12.7656 20.0989 10.2994 20.0989C4.88736 20.0989 0.5 15.7115 0.5 10.2994C0.5 4.88736 4.88736 0.5 10.2994 0.5C15.7115 0.5 20.0989 4.88736 20.0989 10.2994C20.0989 12.7656 19.1885 15.0179 17.6848 16.7406ZM17.5469 17.9133L17.3819 17.3819L17.9133 17.5469C17.9565 17.5603 17.9973 17.584 18.0326 17.6193L23.4144 23.0011C23.5285 23.1152 23.5285 23.3003 23.4144 23.4144C23.3003 23.5285 23.1152 23.5285 23.0011 23.4144L17.6193 18.0326C17.584 17.9973 17.5603 17.9565 17.5469 17.9133ZM10.2994 1.08453C5.21019 1.08453 1.08453 5.21019 1.08453 10.2994C1.08453 15.3887 5.21019 19.5144 10.2994 19.5144C15.3887 19.5144 19.5144 15.3887 19.5144 10.2994C19.5144 5.21019 15.3887 1.08453 10.2994 1.08453Z" stroke="black" stroke-opacity="0.2"/>
<path d="M17.6848 16.7406L17.2447 17.2447L16.7406 17.6848C15.0179 19.1885 12.7656 20.0989 10.2994 20.0989C4.88736 20.0989 0.5 15.7115 0.5 10.2994C0.5 4.88736 4.88736 0.5 10.2994 0.5C15.7115 0.5 20.0989 4.88736 20.0989 10.2994C20.0989 12.7656 19.1885 15.0179 17.6848 16.7406ZM17.5469 17.9133L17.3819 17.3819L17.9133 17.5469C17.9565 17.5603 17.9973 17.584 18.0326 17.6193L23.4144 23.0011C23.5285 23.1152 23.5285 23.3003 23.4144 23.4144C23.3003 23.5285 23.1152 23.5285 23.0011 23.4144L17.6193 18.0326C17.584 17.9973 17.5603 17.9565 17.5469 17.9133ZM10.2994 1.08453C5.21019 1.08453 1.08453 5.21019 1.08453 10.2994C1.08453 15.3887 5.21019 19.5144 10.2994 19.5144C15.3887 19.5144 19.5144 15.3887 19.5144 10.2994C19.5144 5.21019 15.3887 1.08453 10.2994 1.08453Z" stroke="black" stroke-opacity="0.2"/>
<path d="M17.6848 16.7406L17.2447 17.2447L16.7406 17.6848C15.0179 19.1885 12.7656 20.0989 10.2994 20.0989C4.88736 20.0989 0.5 15.7115 0.5 10.2994C0.5 4.88736 4.88736 0.5 10.2994 0.5C15.7115 0.5 20.0989 4.88736 20.0989 10.2994C20.0989 12.7656 19.1885 15.0179 17.6848 16.7406ZM17.5469 17.9133L17.3819 17.3819L17.9133 17.5469C17.9565 17.5603 17.9973 17.584 18.0326 17.6193L23.4144 23.0011C23.5285 23.1152 23.5285 23.3003 23.4144 23.4144C23.3003 23.5285 23.1152 23.5285 23.0011 23.4144L17.6193 18.0326C17.584 17.9973 17.5603 17.9565 17.5469 17.9133ZM10.2994 1.08453C5.21019 1.08453 1.08453 5.21019 1.08453 10.2994C1.08453 15.3887 5.21019 19.5144 10.2994 19.5144C15.3887 19.5144 19.5144 15.3887 19.5144 10.2994C19.5144 5.21019 15.3887 1.08453 10.2994 1.08453Z" stroke="black" stroke-opacity="0.2"/>
<path d="M17.6848 16.7406L17.2447 17.2447L16.7406 17.6848C15.0179 19.1885 12.7656 20.0989 10.2994 20.0989C4.88736 20.0989 0.5 15.7115 0.5 10.2994C0.5 4.88736 4.88736 0.5 10.2994 0.5C15.7115 0.5 20.0989 4.88736 20.0989 10.2994C20.0989 12.7656 19.1885 15.0179 17.6848 16.7406ZM17.5469 17.9133L17.3819 17.3819L17.9133 17.5469C17.9565 17.5603 17.9973 17.584 18.0326 17.6193L23.4144 23.0011C23.5285 23.1152 23.5285 23.3003 23.4144 23.4144C23.3003 23.5285 23.1152 23.5285 23.0011 23.4144L17.6193 18.0326C17.584 17.9973 17.5603 17.9565 17.5469 17.9133ZM10.2994 1.08453C5.21019 1.08453 1.08453 5.21019 1.08453 10.2994C1.08453 15.3887 5.21019 19.5144 10.2994 19.5144C15.3887 19.5144 19.5144 15.3887 19.5144 10.2994C19.5144 5.21019 15.3887 1.08453 10.2994 1.08453Z" stroke="black" stroke-opacity="0.2"/>
<path d="M17.6848 16.7406L17.2447 17.2447L16.7406 17.6848C15.0179 19.1885 12.7656 20.0989 10.2994 20.0989C4.88736 20.0989 0.5 15.7115 0.5 10.2994C0.5 4.88736 4.88736 0.5 10.2994 0.5C15.7115 0.5 20.0989 4.88736 20.0989 10.2994C20.0989 12.7656 19.1885 15.0179 17.6848 16.7406ZM17.5469 17.9133L17.3819 17.3819L17.9133 17.5469C17.9565 17.5603 17.9973 17.584 18.0326 17.6193L23.4144 23.0011C23.5285 23.1152 23.5285 23.3003 23.4144 23.4144C23.3003 23.5285 23.1152 23.5285 23.0011 23.4144L17.6193 18.0326C17.584 17.9973 17.5603 17.9565 17.5469 17.9133ZM10.2994 1.08453C5.21019 1.08453 1.08453 5.21019 1.08453 10.2994C1.08453 15.3887 5.21019 19.5144 10.2994 19.5144C15.3887 19.5144 19.5144 15.3887 19.5144 10.2994C19.5144 5.21019 15.3887 1.08453 10.2994 1.08453Z" stroke="black" stroke-opacity="0.2"/>
</g>
<defs>
<clipPath id="clip0_282_63">
<rect width="24" height="24" fill="white"/>
</clipPath>
</defs>
</svg>
