<svg width="32" height="32" viewBox="0 0 32 32" fill="none" xmlns="http://www.w3.org/2000/svg">
<path fill-rule="evenodd" clip-rule="evenodd" d="M2 8.93222C1.44772 8.93222 1 8.4845 1 7.93222V4.3729C1 2.51015 2.51004 1.00002 4.37288 1.00002H27.6271C29.49 1.00002 31 2.51015 31 4.3729V7.93222C31 8.4845 30.5523 8.93222 30 8.93222H29.8135V12.9744C29.8135 13.5267 29.3658 13.9744 28.8135 13.9744C28.2613 13.9744 27.8135 13.5267 27.8135 12.9744V8.93222H2ZM3 4.3729V6.93222H29V4.3729C29 3.61468 28.3854 3.00002 27.6271 3.00002H4.37288C3.61464 3.00002 3 3.61468 3 4.3729ZM12.2712 12.6782C12.2712 13.2304 12.7189 13.6782 13.2712 13.6782H18.6102C19.1624 13.6782 19.6102 13.2304 19.6102 12.6782C19.6102 12.1259 19.1624 11.6782 18.6102 11.6782H13.2712C12.7189 11.6782 12.2712 12.1259 12.2712 12.6782ZM23.1779 31C18.8579 31 15.3559 27.498 15.3559 23.178C15.3559 18.858 18.8579 15.3559 23.1779 15.3559C27.4979 15.3559 31 18.858 31 23.178C31 27.498 27.4979 31 23.1779 31ZM17.3559 23.178C17.3559 26.3934 19.9625 29 23.1779 29C26.3934 29 29 26.3934 29 23.178C29 19.9625 26.3934 17.3559 23.1779 17.3559C19.9625 17.3559 17.3559 19.9625 17.3559 23.178ZM20.8099 25.546C21.2004 25.9365 21.8336 25.9365 22.2241 25.546L23.178 24.5921L24.1319 25.546C24.5224 25.9365 25.1556 25.9365 25.5461 25.546C25.9366 25.1554 25.9366 24.5223 25.5461 24.1318L24.5922 23.1778L25.5461 22.2239C25.9366 21.8334 25.9366 21.2002 25.5461 20.8097C25.1556 20.4192 24.5224 20.4192 24.1319 20.8097L23.178 21.7636L22.2241 20.8097C21.8336 20.4192 21.2004 20.4192 20.8099 20.8097C20.4193 21.2002 20.4193 21.8334 20.8099 22.2239L21.7638 23.1778L20.8099 24.1318C20.4193 24.5223 20.4193 25.1554 20.8099 25.546ZM2.18646 26.4407C2.18646 28.9587 4.22775 31 6.74578 31H14.0424C14.5947 31 15.0424 30.5523 15.0424 30C15.0424 29.4477 14.5947 29 14.0424 29H6.74578C5.33232 29 4.18646 27.8541 4.18646 26.4407V13.2712C4.18646 12.7189 3.73875 12.2712 3.18646 12.2712C2.63418 12.2712 2.18646 12.7189 2.18646 13.2712V26.4407Z" fill="black"/>
<path fill-rule="evenodd" clip-rule="evenodd" d="M2 8.93222C1.44772 8.93222 1 8.4845 1 7.93222V4.3729C1 2.51015 2.51004 1.00002 4.37288 1.00002H27.6271C29.49 1.00002 31 2.51015 31 4.3729V7.93222C31 8.4845 30.5523 8.93222 30 8.93222H29.8135V12.9744C29.8135 13.5267 29.3658 13.9744 28.8135 13.9744C28.2613 13.9744 27.8135 13.5267 27.8135 12.9744V8.93222H2ZM3 4.3729V6.93222H29V4.3729C29 3.61468 28.3854 3.00002 27.6271 3.00002H4.37288C3.61464 3.00002 3 3.61468 3 4.3729ZM12.2712 12.6782C12.2712 13.2304 12.7189 13.6782 13.2712 13.6782H18.6102C19.1624 13.6782 19.6102 13.2304 19.6102 12.6782C19.6102 12.1259 19.1624 11.6782 18.6102 11.6782H13.2712C12.7189 11.6782 12.2712 12.1259 12.2712 12.6782ZM23.1779 31C18.8579 31 15.3559 27.498 15.3559 23.178C15.3559 18.858 18.8579 15.3559 23.1779 15.3559C27.4979 15.3559 31 18.858 31 23.178C31 27.498 27.4979 31 23.1779 31ZM17.3559 23.178C17.3559 26.3934 19.9625 29 23.1779 29C26.3934 29 29 26.3934 29 23.178C29 19.9625 26.3934 17.3559 23.1779 17.3559C19.9625 17.3559 17.3559 19.9625 17.3559 23.178ZM20.8099 25.546C21.2004 25.9365 21.8336 25.9365 22.2241 25.546L23.178 24.5921L24.1319 25.546C24.5224 25.9365 25.1556 25.9365 25.5461 25.546C25.9366 25.1554 25.9366 24.5223 25.5461 24.1318L24.5922 23.1778L25.5461 22.2239C25.9366 21.8334 25.9366 21.2002 25.5461 20.8097C25.1556 20.4192 24.5224 20.4192 24.1319 20.8097L23.178 21.7636L22.2241 20.8097C21.8336 20.4192 21.2004 20.4192 20.8099 20.8097C20.4193 21.2002 20.4193 21.8334 20.8099 22.2239L21.7638 23.1778L20.8099 24.1318C20.4193 24.5223 20.4193 25.1554 20.8099 25.546ZM2.18646 26.4407C2.18646 28.9587 4.22775 31 6.74578 31H14.0424C14.5947 31 15.0424 30.5523 15.0424 30C15.0424 29.4477 14.5947 29 14.0424 29H6.74578C5.33232 29 4.18646 27.8541 4.18646 26.4407V13.2712C4.18646 12.7189 3.73875 12.2712 3.18646 12.2712C2.63418 12.2712 2.18646 12.7189 2.18646 13.2712V26.4407Z" fill="black" fill-opacity="0.2"/>
<path fill-rule="evenodd" clip-rule="evenodd" d="M2 8.93222C1.44772 8.93222 1 8.4845 1 7.93222V4.3729C1 2.51015 2.51004 1.00002 4.37288 1.00002H27.6271C29.49 1.00002 31 2.51015 31 4.3729V7.93222C31 8.4845 30.5523 8.93222 30 8.93222H29.8135V12.9744C29.8135 13.5267 29.3658 13.9744 28.8135 13.9744C28.2613 13.9744 27.8135 13.5267 27.8135 12.9744V8.93222H2ZM3 4.3729V6.93222H29V4.3729C29 3.61468 28.3854 3.00002 27.6271 3.00002H4.37288C3.61464 3.00002 3 3.61468 3 4.3729ZM12.2712 12.6782C12.2712 13.2304 12.7189 13.6782 13.2712 13.6782H18.6102C19.1624 13.6782 19.6102 13.2304 19.6102 12.6782C19.6102 12.1259 19.1624 11.6782 18.6102 11.6782H13.2712C12.7189 11.6782 12.2712 12.1259 12.2712 12.6782ZM23.1779 31C18.8579 31 15.3559 27.498 15.3559 23.178C15.3559 18.858 18.8579 15.3559 23.1779 15.3559C27.4979 15.3559 31 18.858 31 23.178C31 27.498 27.4979 31 23.1779 31ZM17.3559 23.178C17.3559 26.3934 19.9625 29 23.1779 29C26.3934 29 29 26.3934 29 23.178C29 19.9625 26.3934 17.3559 23.1779 17.3559C19.9625 17.3559 17.3559 19.9625 17.3559 23.178ZM20.8099 25.546C21.2004 25.9365 21.8336 25.9365 22.2241 25.546L23.178 24.5921L24.1319 25.546C24.5224 25.9365 25.1556 25.9365 25.5461 25.546C25.9366 25.1554 25.9366 24.5223 25.5461 24.1318L24.5922 23.1778L25.5461 22.2239C25.9366 21.8334 25.9366 21.2002 25.5461 20.8097C25.1556 20.4192 24.5224 20.4192 24.1319 20.8097L23.178 21.7636L22.2241 20.8097C21.8336 20.4192 21.2004 20.4192 20.8099 20.8097C20.4193 21.2002 20.4193 21.8334 20.8099 22.2239L21.7638 23.1778L20.8099 24.1318C20.4193 24.5223 20.4193 25.1554 20.8099 25.546ZM2.18646 26.4407C2.18646 28.9587 4.22775 31 6.74578 31H14.0424C14.5947 31 15.0424 30.5523 15.0424 30C15.0424 29.4477 14.5947 29 14.0424 29H6.74578C5.33232 29 4.18646 27.8541 4.18646 26.4407V13.2712C4.18646 12.7189 3.73875 12.2712 3.18646 12.2712C2.63418 12.2712 2.18646 12.7189 2.18646 13.2712V26.4407Z" fill="black" fill-opacity="0.2"/>
<path fill-rule="evenodd" clip-rule="evenodd" d="M2 8.93222C1.44772 8.93222 1 8.4845 1 7.93222V4.3729C1 2.51015 2.51004 1.00002 4.37288 1.00002H27.6271C29.49 1.00002 31 2.51015 31 4.3729V7.93222C31 8.4845 30.5523 8.93222 30 8.93222H29.8135V12.9744C29.8135 13.5267 29.3658 13.9744 28.8135 13.9744C28.2613 13.9744 27.8135 13.5267 27.8135 12.9744V8.93222H2ZM3 4.3729V6.93222H29V4.3729C29 3.61468 28.3854 3.00002 27.6271 3.00002H4.37288C3.61464 3.00002 3 3.61468 3 4.3729ZM12.2712 12.6782C12.2712 13.2304 12.7189 13.6782 13.2712 13.6782H18.6102C19.1624 13.6782 19.6102 13.2304 19.6102 12.6782C19.6102 12.1259 19.1624 11.6782 18.6102 11.6782H13.2712C12.7189 11.6782 12.2712 12.1259 12.2712 12.6782ZM23.1779 31C18.8579 31 15.3559 27.498 15.3559 23.178C15.3559 18.858 18.8579 15.3559 23.1779 15.3559C27.4979 15.3559 31 18.858 31 23.178C31 27.498 27.4979 31 23.1779 31ZM17.3559 23.178C17.3559 26.3934 19.9625 29 23.1779 29C26.3934 29 29 26.3934 29 23.178C29 19.9625 26.3934 17.3559 23.1779 17.3559C19.9625 17.3559 17.3559 19.9625 17.3559 23.178ZM20.8099 25.546C21.2004 25.9365 21.8336 25.9365 22.2241 25.546L23.178 24.5921L24.1319 25.546C24.5224 25.9365 25.1556 25.9365 25.5461 25.546C25.9366 25.1554 25.9366 24.5223 25.5461 24.1318L24.5922 23.1778L25.5461 22.2239C25.9366 21.8334 25.9366 21.2002 25.5461 20.8097C25.1556 20.4192 24.5224 20.4192 24.1319 20.8097L23.178 21.7636L22.2241 20.8097C21.8336 20.4192 21.2004 20.4192 20.8099 20.8097C20.4193 21.2002 20.4193 21.8334 20.8099 22.2239L21.7638 23.1778L20.8099 24.1318C20.4193 24.5223 20.4193 25.1554 20.8099 25.546ZM2.18646 26.4407C2.18646 28.9587 4.22775 31 6.74578 31H14.0424C14.5947 31 15.0424 30.5523 15.0424 30C15.0424 29.4477 14.5947 29 14.0424 29H6.74578C5.33232 29 4.18646 27.8541 4.18646 26.4407V13.2712C4.18646 12.7189 3.73875 12.2712 3.18646 12.2712C2.63418 12.2712 2.18646 12.7189 2.18646 13.2712V26.4407Z" fill="black" fill-opacity="0.2"/>
<path fill-rule="evenodd" clip-rule="evenodd" d="M2 8.93222C1.44772 8.93222 1 8.4845 1 7.93222V4.3729C1 2.51015 2.51004 1.00002 4.37288 1.00002H27.6271C29.49 1.00002 31 2.51015 31 4.3729V7.93222C31 8.4845 30.5523 8.93222 30 8.93222H29.8135V12.9744C29.8135 13.5267 29.3658 13.9744 28.8135 13.9744C28.2613 13.9744 27.8135 13.5267 27.8135 12.9744V8.93222H2ZM3 4.3729V6.93222H29V4.3729C29 3.61468 28.3854 3.00002 27.6271 3.00002H4.37288C3.61464 3.00002 3 3.61468 3 4.3729ZM12.2712 12.6782C12.2712 13.2304 12.7189 13.6782 13.2712 13.6782H18.6102C19.1624 13.6782 19.6102 13.2304 19.6102 12.6782C19.6102 12.1259 19.1624 11.6782 18.6102 11.6782H13.2712C12.7189 11.6782 12.2712 12.1259 12.2712 12.6782ZM23.1779 31C18.8579 31 15.3559 27.498 15.3559 23.178C15.3559 18.858 18.8579 15.3559 23.1779 15.3559C27.4979 15.3559 31 18.858 31 23.178C31 27.498 27.4979 31 23.1779 31ZM17.3559 23.178C17.3559 26.3934 19.9625 29 23.1779 29C26.3934 29 29 26.3934 29 23.178C29 19.9625 26.3934 17.3559 23.1779 17.3559C19.9625 17.3559 17.3559 19.9625 17.3559 23.178ZM20.8099 25.546C21.2004 25.9365 21.8336 25.9365 22.2241 25.546L23.178 24.5921L24.1319 25.546C24.5224 25.9365 25.1556 25.9365 25.5461 25.546C25.9366 25.1554 25.9366 24.5223 25.5461 24.1318L24.5922 23.1778L25.5461 22.2239C25.9366 21.8334 25.9366 21.2002 25.5461 20.8097C25.1556 20.4192 24.5224 20.4192 24.1319 20.8097L23.178 21.7636L22.2241 20.8097C21.8336 20.4192 21.2004 20.4192 20.8099 20.8097C20.4193 21.2002 20.4193 21.8334 20.8099 22.2239L21.7638 23.1778L20.8099 24.1318C20.4193 24.5223 20.4193 25.1554 20.8099 25.546ZM2.18646 26.4407C2.18646 28.9587 4.22775 31 6.74578 31H14.0424C14.5947 31 15.0424 30.5523 15.0424 30C15.0424 29.4477 14.5947 29 14.0424 29H6.74578C5.33232 29 4.18646 27.8541 4.18646 26.4407V13.2712C4.18646 12.7189 3.73875 12.2712 3.18646 12.2712C2.63418 12.2712 2.18646 12.7189 2.18646 13.2712V26.4407Z" fill="black" fill-opacity="0.2"/>
<path fill-rule="evenodd" clip-rule="evenodd" d="M2 8.93222C1.44772 8.93222 1 8.4845 1 7.93222V4.3729C1 2.51015 2.51004 1.00002 4.37288 1.00002H27.6271C29.49 1.00002 31 2.51015 31 4.3729V7.93222C31 8.4845 30.5523 8.93222 30 8.93222H29.8135V12.9744C29.8135 13.5267 29.3658 13.9744 28.8135 13.9744C28.2613 13.9744 27.8135 13.5267 27.8135 12.9744V8.93222H2ZM3 4.3729V6.93222H29V4.3729C29 3.61468 28.3854 3.00002 27.6271 3.00002H4.37288C3.61464 3.00002 3 3.61468 3 4.3729ZM12.2712 12.6782C12.2712 13.2304 12.7189 13.6782 13.2712 13.6782H18.6102C19.1624 13.6782 19.6102 13.2304 19.6102 12.6782C19.6102 12.1259 19.1624 11.6782 18.6102 11.6782H13.2712C12.7189 11.6782 12.2712 12.1259 12.2712 12.6782ZM23.1779 31C18.8579 31 15.3559 27.498 15.3559 23.178C15.3559 18.858 18.8579 15.3559 23.1779 15.3559C27.4979 15.3559 31 18.858 31 23.178C31 27.498 27.4979 31 23.1779 31ZM17.3559 23.178C17.3559 26.3934 19.9625 29 23.1779 29C26.3934 29 29 26.3934 29 23.178C29 19.9625 26.3934 17.3559 23.1779 17.3559C19.9625 17.3559 17.3559 19.9625 17.3559 23.178ZM20.8099 25.546C21.2004 25.9365 21.8336 25.9365 22.2241 25.546L23.178 24.5921L24.1319 25.546C24.5224 25.9365 25.1556 25.9365 25.5461 25.546C25.9366 25.1554 25.9366 24.5223 25.5461 24.1318L24.5922 23.1778L25.5461 22.2239C25.9366 21.8334 25.9366 21.2002 25.5461 20.8097C25.1556 20.4192 24.5224 20.4192 24.1319 20.8097L23.178 21.7636L22.2241 20.8097C21.8336 20.4192 21.2004 20.4192 20.8099 20.8097C20.4193 21.2002 20.4193 21.8334 20.8099 22.2239L21.7638 23.1778L20.8099 24.1318C20.4193 24.5223 20.4193 25.1554 20.8099 25.546ZM2.18646 26.4407C2.18646 28.9587 4.22775 31 6.74578 31H14.0424C14.5947 31 15.0424 30.5523 15.0424 30C15.0424 29.4477 14.5947 29 14.0424 29H6.74578C5.33232 29 4.18646 27.8541 4.18646 26.4407V13.2712C4.18646 12.7189 3.73875 12.2712 3.18646 12.2712C2.63418 12.2712 2.18646 12.7189 2.18646 13.2712V26.4407Z" fill="black" fill-opacity="0.2"/>
<path fill-rule="evenodd" clip-rule="evenodd" d="M2 8.93222C1.44772 8.93222 1 8.4845 1 7.93222V4.3729C1 2.51015 2.51004 1.00002 4.37288 1.00002H27.6271C29.49 1.00002 31 2.51015 31 4.3729V7.93222C31 8.4845 30.5523 8.93222 30 8.93222H29.8135V12.9744C29.8135 13.5267 29.3658 13.9744 28.8135 13.9744C28.2613 13.9744 27.8135 13.5267 27.8135 12.9744V8.93222H2ZM3 4.3729V6.93222H29V4.3729C29 3.61468 28.3854 3.00002 27.6271 3.00002H4.37288C3.61464 3.00002 3 3.61468 3 4.3729ZM12.2712 12.6782C12.2712 13.2304 12.7189 13.6782 13.2712 13.6782H18.6102C19.1624 13.6782 19.6102 13.2304 19.6102 12.6782C19.6102 12.1259 19.1624 11.6782 18.6102 11.6782H13.2712C12.7189 11.6782 12.2712 12.1259 12.2712 12.6782ZM23.1779 31C18.8579 31 15.3559 27.498 15.3559 23.178C15.3559 18.858 18.8579 15.3559 23.1779 15.3559C27.4979 15.3559 31 18.858 31 23.178C31 27.498 27.4979 31 23.1779 31ZM17.3559 23.178C17.3559 26.3934 19.9625 29 23.1779 29C26.3934 29 29 26.3934 29 23.178C29 19.9625 26.3934 17.3559 23.1779 17.3559C19.9625 17.3559 17.3559 19.9625 17.3559 23.178ZM20.8099 25.546C21.2004 25.9365 21.8336 25.9365 22.2241 25.546L23.178 24.5921L24.1319 25.546C24.5224 25.9365 25.1556 25.9365 25.5461 25.546C25.9366 25.1554 25.9366 24.5223 25.5461 24.1318L24.5922 23.1778L25.5461 22.2239C25.9366 21.8334 25.9366 21.2002 25.5461 20.8097C25.1556 20.4192 24.5224 20.4192 24.1319 20.8097L23.178 21.7636L22.2241 20.8097C21.8336 20.4192 21.2004 20.4192 20.8099 20.8097C20.4193 21.2002 20.4193 21.8334 20.8099 22.2239L21.7638 23.1778L20.8099 24.1318C20.4193 24.5223 20.4193 25.1554 20.8099 25.546ZM2.18646 26.4407C2.18646 28.9587 4.22775 31 6.74578 31H14.0424C14.5947 31 15.0424 30.5523 15.0424 30C15.0424 29.4477 14.5947 29 14.0424 29H6.74578C5.33232 29 4.18646 27.8541 4.18646 26.4407V13.2712C4.18646 12.7189 3.73875 12.2712 3.18646 12.2712C2.63418 12.2712 2.18646 12.7189 2.18646 13.2712V26.4407Z" fill="black" fill-opacity="0.2"/>
<path fill-rule="evenodd" clip-rule="evenodd" d="M2 8.93222C1.44772 8.93222 1 8.4845 1 7.93222V4.3729C1 2.51015 2.51004 1.00002 4.37288 1.00002H27.6271C29.49 1.00002 31 2.51015 31 4.3729V7.93222C31 8.4845 30.5523 8.93222 30 8.93222H29.8135V12.9744C29.8135 13.5267 29.3658 13.9744 28.8135 13.9744C28.2613 13.9744 27.8135 13.5267 27.8135 12.9744V8.93222H2ZM3 4.3729V6.93222H29V4.3729C29 3.61468 28.3854 3.00002 27.6271 3.00002H4.37288C3.61464 3.00002 3 3.61468 3 4.3729ZM12.2712 12.6782C12.2712 13.2304 12.7189 13.6782 13.2712 13.6782H18.6102C19.1624 13.6782 19.6102 13.2304 19.6102 12.6782C19.6102 12.1259 19.1624 11.6782 18.6102 11.6782H13.2712C12.7189 11.6782 12.2712 12.1259 12.2712 12.6782ZM23.1779 31C18.8579 31 15.3559 27.498 15.3559 23.178C15.3559 18.858 18.8579 15.3559 23.1779 15.3559C27.4979 15.3559 31 18.858 31 23.178C31 27.498 27.4979 31 23.1779 31ZM17.3559 23.178C17.3559 26.3934 19.9625 29 23.1779 29C26.3934 29 29 26.3934 29 23.178C29 19.9625 26.3934 17.3559 23.1779 17.3559C19.9625 17.3559 17.3559 19.9625 17.3559 23.178ZM20.8099 25.546C21.2004 25.9365 21.8336 25.9365 22.2241 25.546L23.178 24.5921L24.1319 25.546C24.5224 25.9365 25.1556 25.9365 25.5461 25.546C25.9366 25.1554 25.9366 24.5223 25.5461 24.1318L24.5922 23.1778L25.5461 22.2239C25.9366 21.8334 25.9366 21.2002 25.5461 20.8097C25.1556 20.4192 24.5224 20.4192 24.1319 20.8097L23.178 21.7636L22.2241 20.8097C21.8336 20.4192 21.2004 20.4192 20.8099 20.8097C20.4193 21.2002 20.4193 21.8334 20.8099 22.2239L21.7638 23.1778L20.8099 24.1318C20.4193 24.5223 20.4193 25.1554 20.8099 25.546ZM2.18646 26.4407C2.18646 28.9587 4.22775 31 6.74578 31H14.0424C14.5947 31 15.0424 30.5523 15.0424 30C15.0424 29.4477 14.5947 29 14.0424 29H6.74578C5.33232 29 4.18646 27.8541 4.18646 26.4407V13.2712C4.18646 12.7189 3.73875 12.2712 3.18646 12.2712C2.63418 12.2712 2.18646 12.7189 2.18646 13.2712V26.4407Z" fill="black" fill-opacity="0.2"/>
<path fill-rule="evenodd" clip-rule="evenodd" d="M2 8.93222C1.44772 8.93222 1 8.4845 1 7.93222V4.3729C1 2.51015 2.51004 1.00002 4.37288 1.00002H27.6271C29.49 1.00002 31 2.51015 31 4.3729V7.93222C31 8.4845 30.5523 8.93222 30 8.93222H29.8135V12.9744C29.8135 13.5267 29.3658 13.9744 28.8135 13.9744C28.2613 13.9744 27.8135 13.5267 27.8135 12.9744V8.93222H2ZM3 4.3729V6.93222H29V4.3729C29 3.61468 28.3854 3.00002 27.6271 3.00002H4.37288C3.61464 3.00002 3 3.61468 3 4.3729ZM12.2712 12.6782C12.2712 13.2304 12.7189 13.6782 13.2712 13.6782H18.6102C19.1624 13.6782 19.6102 13.2304 19.6102 12.6782C19.6102 12.1259 19.1624 11.6782 18.6102 11.6782H13.2712C12.7189 11.6782 12.2712 12.1259 12.2712 12.6782ZM23.1779 31C18.8579 31 15.3559 27.498 15.3559 23.178C15.3559 18.858 18.8579 15.3559 23.1779 15.3559C27.4979 15.3559 31 18.858 31 23.178C31 27.498 27.4979 31 23.1779 31ZM17.3559 23.178C17.3559 26.3934 19.9625 29 23.1779 29C26.3934 29 29 26.3934 29 23.178C29 19.9625 26.3934 17.3559 23.1779 17.3559C19.9625 17.3559 17.3559 19.9625 17.3559 23.178ZM20.8099 25.546C21.2004 25.9365 21.8336 25.9365 22.2241 25.546L23.178 24.5921L24.1319 25.546C24.5224 25.9365 25.1556 25.9365 25.5461 25.546C25.9366 25.1554 25.9366 24.5223 25.5461 24.1318L24.5922 23.1778L25.5461 22.2239C25.9366 21.8334 25.9366 21.2002 25.5461 20.8097C25.1556 20.4192 24.5224 20.4192 24.1319 20.8097L23.178 21.7636L22.2241 20.8097C21.8336 20.4192 21.2004 20.4192 20.8099 20.8097C20.4193 21.2002 20.4193 21.8334 20.8099 22.2239L21.7638 23.1778L20.8099 24.1318C20.4193 24.5223 20.4193 25.1554 20.8099 25.546ZM2.18646 26.4407C2.18646 28.9587 4.22775 31 6.74578 31H14.0424C14.5947 31 15.0424 30.5523 15.0424 30C15.0424 29.4477 14.5947 29 14.0424 29H6.74578C5.33232 29 4.18646 27.8541 4.18646 26.4407V13.2712C4.18646 12.7189 3.73875 12.2712 3.18646 12.2712C2.63418 12.2712 2.18646 12.7189 2.18646 13.2712V26.4407Z" fill="black" fill-opacity="0.2"/>
<path fill-rule="evenodd" clip-rule="evenodd" d="M2 8.93222C1.44772 8.93222 1 8.4845 1 7.93222V4.3729C1 2.51015 2.51004 1.00002 4.37288 1.00002H27.6271C29.49 1.00002 31 2.51015 31 4.3729V7.93222C31 8.4845 30.5523 8.93222 30 8.93222H29.8135V12.9744C29.8135 13.5267 29.3658 13.9744 28.8135 13.9744C28.2613 13.9744 27.8135 13.5267 27.8135 12.9744V8.93222H2ZM3 4.3729V6.93222H29V4.3729C29 3.61468 28.3854 3.00002 27.6271 3.00002H4.37288C3.61464 3.00002 3 3.61468 3 4.3729ZM12.2712 12.6782C12.2712 13.2304 12.7189 13.6782 13.2712 13.6782H18.6102C19.1624 13.6782 19.6102 13.2304 19.6102 12.6782C19.6102 12.1259 19.1624 11.6782 18.6102 11.6782H13.2712C12.7189 11.6782 12.2712 12.1259 12.2712 12.6782ZM23.1779 31C18.8579 31 15.3559 27.498 15.3559 23.178C15.3559 18.858 18.8579 15.3559 23.1779 15.3559C27.4979 15.3559 31 18.858 31 23.178C31 27.498 27.4979 31 23.1779 31ZM17.3559 23.178C17.3559 26.3934 19.9625 29 23.1779 29C26.3934 29 29 26.3934 29 23.178C29 19.9625 26.3934 17.3559 23.1779 17.3559C19.9625 17.3559 17.3559 19.9625 17.3559 23.178ZM20.8099 25.546C21.2004 25.9365 21.8336 25.9365 22.2241 25.546L23.178 24.5921L24.1319 25.546C24.5224 25.9365 25.1556 25.9365 25.5461 25.546C25.9366 25.1554 25.9366 24.5223 25.5461 24.1318L24.5922 23.1778L25.5461 22.2239C25.9366 21.8334 25.9366 21.2002 25.5461 20.8097C25.1556 20.4192 24.5224 20.4192 24.1319 20.8097L23.178 21.7636L22.2241 20.8097C21.8336 20.4192 21.2004 20.4192 20.8099 20.8097C20.4193 21.2002 20.4193 21.8334 20.8099 22.2239L21.7638 23.1778L20.8099 24.1318C20.4193 24.5223 20.4193 25.1554 20.8099 25.546ZM2.18646 26.4407C2.18646 28.9587 4.22775 31 6.74578 31H14.0424C14.5947 31 15.0424 30.5523 15.0424 30C15.0424 29.4477 14.5947 29 14.0424 29H6.74578C5.33232 29 4.18646 27.8541 4.18646 26.4407V13.2712C4.18646 12.7189 3.73875 12.2712 3.18646 12.2712C2.63418 12.2712 2.18646 12.7189 2.18646 13.2712V26.4407Z" fill="black" fill-opacity="0.2"/>
</svg>
