<svg width="24" height="24" viewBox="0 0 24 24" fill="none" xmlns="http://www.w3.org/2000/svg">
<mask id="path-1-inside-1_314_322" fill="white">
<path fill-rule="evenodd" clip-rule="evenodd" d="M18.4614 1.3899L22.7673 6.84865C22.9185 7.02883 23.001 7.25677 23 7.49199V22.8467C23 23.1224 22.8904 23.3869 22.6955 23.5819C22.5005 23.7769 22.236 23.8864 21.9602 23.8864H2.03974C1.76398 23.8864 1.49953 23.7769 1.30454 23.5819C1.10954 23.3869 1 23.1224 1 22.8467V7.49199C1.00115 7.25737 1.08279 7.03027 1.23132 6.84865L5.53466 1.3899C5.63136 1.26791 5.75448 1.16948 5.89473 1.10194C6.03498 1.03441 6.18869 0.999544 6.34436 1.00001H17.6517C17.8074 0.999449 17.9612 1.03424 18.1015 1.10178C18.2417 1.16933 18.3648 1.26784 18.4614 1.3899ZM6.84087 3.06006L4.09067 6.54974H10.9622V3.06006H6.84087ZM13.0287 3.06006V6.54974H19.9002L17.1501 3.06006H13.0287ZM20.9205 21.8108V8.61622H3.06655V21.8108H20.9205ZM10.4934 18.2112C10.3689 18.1604 10.2558 18.0854 10.1604 17.9907L8.19004 16.0229C8.02608 15.8234 7.94218 15.57 7.95476 15.312C7.96734 15.0541 8.0755 14.8101 8.2581 14.6275C8.44071 14.4449 8.68468 14.3368 8.94262 14.3242C9.20055 14.3116 9.45396 14.3955 9.65347 14.5595L10.8908 15.7967L14.335 12.3526C14.4823 12.2059 14.6702 12.1068 14.8744 12.0679C15.0305 12.0304 15.194 12.0376 15.3462 12.0887C15.5196 12.1385 15.6766 12.2335 15.801 12.3642C15.9907 12.5594 16.0962 12.8213 16.095 13.0934C16.0938 13.3656 15.9859 13.6264 15.7945 13.8199L11.6238 17.9907C11.4252 18.181 11.1607 18.2872 10.8856 18.287C10.7511 18.2878 10.6178 18.2621 10.4934 18.2112Z"/>
</mask>
<path fill-rule="evenodd" clip-rule="evenodd" d="M18.4614 1.3899L22.7673 6.84865C22.9185 7.02883 23.001 7.25677 23 7.49199V22.8467C23 23.1224 22.8904 23.3869 22.6955 23.5819C22.5005 23.7769 22.236 23.8864 21.9602 23.8864H2.03974C1.76398 23.8864 1.49953 23.7769 1.30454 23.5819C1.10954 23.3869 1 23.1224 1 22.8467V7.49199C1.00115 7.25737 1.08279 7.03027 1.23132 6.84865L5.53466 1.3899C5.63136 1.26791 5.75448 1.16948 5.89473 1.10194C6.03498 1.03441 6.18869 0.999544 6.34436 1.00001H17.6517C17.8074 0.999449 17.9612 1.03424 18.1015 1.10178C18.2417 1.16933 18.3648 1.26784 18.4614 1.3899ZM6.84087 3.06006L4.09067 6.54974H10.9622V3.06006H6.84087ZM13.0287 3.06006V6.54974H19.9002L17.1501 3.06006H13.0287ZM20.9205 21.8108V8.61622H3.06655V21.8108H20.9205ZM10.4934 18.2112C10.3689 18.1604 10.2558 18.0854 10.1604 17.9907L8.19004 16.0229C8.02608 15.8234 7.94218 15.57 7.95476 15.312C7.96734 15.0541 8.0755 14.8101 8.2581 14.6275C8.44071 14.4449 8.68468 14.3368 8.94262 14.3242C9.20055 14.3116 9.45396 14.3955 9.65347 14.5595L10.8908 15.7967L14.335 12.3526C14.4823 12.2059 14.6702 12.1068 14.8744 12.0679C15.0305 12.0304 15.194 12.0376 15.3462 12.0887C15.5196 12.1385 15.6766 12.2335 15.801 12.3642C15.9907 12.5594 16.0962 12.8213 16.095 13.0934C16.0938 13.3656 15.9859 13.6264 15.7945 13.8199L11.6238 17.9907C11.4252 18.181 11.1607 18.2872 10.8856 18.287C10.7511 18.2878 10.6178 18.2621 10.4934 18.2112Z" fill="black"/>
<path fill-rule="evenodd" clip-rule="evenodd" d="M18.4614 1.3899L22.7673 6.84865C22.9185 7.02883 23.001 7.25677 23 7.49199V22.8467C23 23.1224 22.8904 23.3869 22.6955 23.5819C22.5005 23.7769 22.236 23.8864 21.9602 23.8864H2.03974C1.76398 23.8864 1.49953 23.7769 1.30454 23.5819C1.10954 23.3869 1 23.1224 1 22.8467V7.49199C1.00115 7.25737 1.08279 7.03027 1.23132 6.84865L5.53466 1.3899C5.63136 1.26791 5.75448 1.16948 5.89473 1.10194C6.03498 1.03441 6.18869 0.999544 6.34436 1.00001H17.6517C17.8074 0.999449 17.9612 1.03424 18.1015 1.10178C18.2417 1.16933 18.3648 1.26784 18.4614 1.3899ZM6.84087 3.06006L4.09067 6.54974H10.9622V3.06006H6.84087ZM13.0287 3.06006V6.54974H19.9002L17.1501 3.06006H13.0287ZM20.9205 21.8108V8.61622H3.06655V21.8108H20.9205ZM10.4934 18.2112C10.3689 18.1604 10.2558 18.0854 10.1604 17.9907L8.19004 16.0229C8.02608 15.8234 7.94218 15.57 7.95476 15.312C7.96734 15.0541 8.0755 14.8101 8.2581 14.6275C8.44071 14.4449 8.68468 14.3368 8.94262 14.3242C9.20055 14.3116 9.45396 14.3955 9.65347 14.5595L10.8908 15.7967L14.335 12.3526C14.4823 12.2059 14.6702 12.1068 14.8744 12.0679C15.0305 12.0304 15.194 12.0376 15.3462 12.0887C15.5196 12.1385 15.6766 12.2335 15.801 12.3642C15.9907 12.5594 16.0962 12.8213 16.095 13.0934C16.0938 13.3656 15.9859 13.6264 15.7945 13.8199L11.6238 17.9907C11.4252 18.181 11.1607 18.2872 10.8856 18.287C10.7511 18.2878 10.6178 18.2621 10.4934 18.2112Z" fill="black" fill-opacity="0.2"/>
<path fill-rule="evenodd" clip-rule="evenodd" d="M18.4614 1.3899L22.7673 6.84865C22.9185 7.02883 23.001 7.25677 23 7.49199V22.8467C23 23.1224 22.8904 23.3869 22.6955 23.5819C22.5005 23.7769 22.236 23.8864 21.9602 23.8864H2.03974C1.76398 23.8864 1.49953 23.7769 1.30454 23.5819C1.10954 23.3869 1 23.1224 1 22.8467V7.49199C1.00115 7.25737 1.08279 7.03027 1.23132 6.84865L5.53466 1.3899C5.63136 1.26791 5.75448 1.16948 5.89473 1.10194C6.03498 1.03441 6.18869 0.999544 6.34436 1.00001H17.6517C17.8074 0.999449 17.9612 1.03424 18.1015 1.10178C18.2417 1.16933 18.3648 1.26784 18.4614 1.3899ZM6.84087 3.06006L4.09067 6.54974H10.9622V3.06006H6.84087ZM13.0287 3.06006V6.54974H19.9002L17.1501 3.06006H13.0287ZM20.9205 21.8108V8.61622H3.06655V21.8108H20.9205ZM10.4934 18.2112C10.3689 18.1604 10.2558 18.0854 10.1604 17.9907L8.19004 16.0229C8.02608 15.8234 7.94218 15.57 7.95476 15.312C7.96734 15.0541 8.0755 14.8101 8.2581 14.6275C8.44071 14.4449 8.68468 14.3368 8.94262 14.3242C9.20055 14.3116 9.45396 14.3955 9.65347 14.5595L10.8908 15.7967L14.335 12.3526C14.4823 12.2059 14.6702 12.1068 14.8744 12.0679C15.0305 12.0304 15.194 12.0376 15.3462 12.0887C15.5196 12.1385 15.6766 12.2335 15.801 12.3642C15.9907 12.5594 16.0962 12.8213 16.095 13.0934C16.0938 13.3656 15.9859 13.6264 15.7945 13.8199L11.6238 17.9907C11.4252 18.181 11.1607 18.2872 10.8856 18.287C10.7511 18.2878 10.6178 18.2621 10.4934 18.2112Z" fill="black" fill-opacity="0.2"/>
<path fill-rule="evenodd" clip-rule="evenodd" d="M18.4614 1.3899L22.7673 6.84865C22.9185 7.02883 23.001 7.25677 23 7.49199V22.8467C23 23.1224 22.8904 23.3869 22.6955 23.5819C22.5005 23.7769 22.236 23.8864 21.9602 23.8864H2.03974C1.76398 23.8864 1.49953 23.7769 1.30454 23.5819C1.10954 23.3869 1 23.1224 1 22.8467V7.49199C1.00115 7.25737 1.08279 7.03027 1.23132 6.84865L5.53466 1.3899C5.63136 1.26791 5.75448 1.16948 5.89473 1.10194C6.03498 1.03441 6.18869 0.999544 6.34436 1.00001H17.6517C17.8074 0.999449 17.9612 1.03424 18.1015 1.10178C18.2417 1.16933 18.3648 1.26784 18.4614 1.3899ZM6.84087 3.06006L4.09067 6.54974H10.9622V3.06006H6.84087ZM13.0287 3.06006V6.54974H19.9002L17.1501 3.06006H13.0287ZM20.9205 21.8108V8.61622H3.06655V21.8108H20.9205ZM10.4934 18.2112C10.3689 18.1604 10.2558 18.0854 10.1604 17.9907L8.19004 16.0229C8.02608 15.8234 7.94218 15.57 7.95476 15.312C7.96734 15.0541 8.0755 14.8101 8.2581 14.6275C8.44071 14.4449 8.68468 14.3368 8.94262 14.3242C9.20055 14.3116 9.45396 14.3955 9.65347 14.5595L10.8908 15.7967L14.335 12.3526C14.4823 12.2059 14.6702 12.1068 14.8744 12.0679C15.0305 12.0304 15.194 12.0376 15.3462 12.0887C15.5196 12.1385 15.6766 12.2335 15.801 12.3642C15.9907 12.5594 16.0962 12.8213 16.095 13.0934C16.0938 13.3656 15.9859 13.6264 15.7945 13.8199L11.6238 17.9907C11.4252 18.181 11.1607 18.2872 10.8856 18.287C10.7511 18.2878 10.6178 18.2621 10.4934 18.2112Z" fill="black" fill-opacity="0.2"/>
<path fill-rule="evenodd" clip-rule="evenodd" d="M18.4614 1.3899L22.7673 6.84865C22.9185 7.02883 23.001 7.25677 23 7.49199V22.8467C23 23.1224 22.8904 23.3869 22.6955 23.5819C22.5005 23.7769 22.236 23.8864 21.9602 23.8864H2.03974C1.76398 23.8864 1.49953 23.7769 1.30454 23.5819C1.10954 23.3869 1 23.1224 1 22.8467V7.49199C1.00115 7.25737 1.08279 7.03027 1.23132 6.84865L5.53466 1.3899C5.63136 1.26791 5.75448 1.16948 5.89473 1.10194C6.03498 1.03441 6.18869 0.999544 6.34436 1.00001H17.6517C17.8074 0.999449 17.9612 1.03424 18.1015 1.10178C18.2417 1.16933 18.3648 1.26784 18.4614 1.3899ZM6.84087 3.06006L4.09067 6.54974H10.9622V3.06006H6.84087ZM13.0287 3.06006V6.54974H19.9002L17.1501 3.06006H13.0287ZM20.9205 21.8108V8.61622H3.06655V21.8108H20.9205ZM10.4934 18.2112C10.3689 18.1604 10.2558 18.0854 10.1604 17.9907L8.19004 16.0229C8.02608 15.8234 7.94218 15.57 7.95476 15.312C7.96734 15.0541 8.0755 14.8101 8.2581 14.6275C8.44071 14.4449 8.68468 14.3368 8.94262 14.3242C9.20055 14.3116 9.45396 14.3955 9.65347 14.5595L10.8908 15.7967L14.335 12.3526C14.4823 12.2059 14.6702 12.1068 14.8744 12.0679C15.0305 12.0304 15.194 12.0376 15.3462 12.0887C15.5196 12.1385 15.6766 12.2335 15.801 12.3642C15.9907 12.5594 16.0962 12.8213 16.095 13.0934C16.0938 13.3656 15.9859 13.6264 15.7945 13.8199L11.6238 17.9907C11.4252 18.181 11.1607 18.2872 10.8856 18.287C10.7511 18.2878 10.6178 18.2621 10.4934 18.2112Z" fill="black" fill-opacity="0.2"/>
<path fill-rule="evenodd" clip-rule="evenodd" d="M18.4614 1.3899L22.7673 6.84865C22.9185 7.02883 23.001 7.25677 23 7.49199V22.8467C23 23.1224 22.8904 23.3869 22.6955 23.5819C22.5005 23.7769 22.236 23.8864 21.9602 23.8864H2.03974C1.76398 23.8864 1.49953 23.7769 1.30454 23.5819C1.10954 23.3869 1 23.1224 1 22.8467V7.49199C1.00115 7.25737 1.08279 7.03027 1.23132 6.84865L5.53466 1.3899C5.63136 1.26791 5.75448 1.16948 5.89473 1.10194C6.03498 1.03441 6.18869 0.999544 6.34436 1.00001H17.6517C17.8074 0.999449 17.9612 1.03424 18.1015 1.10178C18.2417 1.16933 18.3648 1.26784 18.4614 1.3899ZM6.84087 3.06006L4.09067 6.54974H10.9622V3.06006H6.84087ZM13.0287 3.06006V6.54974H19.9002L17.1501 3.06006H13.0287ZM20.9205 21.8108V8.61622H3.06655V21.8108H20.9205ZM10.4934 18.2112C10.3689 18.1604 10.2558 18.0854 10.1604 17.9907L8.19004 16.0229C8.02608 15.8234 7.94218 15.57 7.95476 15.312C7.96734 15.0541 8.0755 14.8101 8.2581 14.6275C8.44071 14.4449 8.68468 14.3368 8.94262 14.3242C9.20055 14.3116 9.45396 14.3955 9.65347 14.5595L10.8908 15.7967L14.335 12.3526C14.4823 12.2059 14.6702 12.1068 14.8744 12.0679C15.0305 12.0304 15.194 12.0376 15.3462 12.0887C15.5196 12.1385 15.6766 12.2335 15.801 12.3642C15.9907 12.5594 16.0962 12.8213 16.095 13.0934C16.0938 13.3656 15.9859 13.6264 15.7945 13.8199L11.6238 17.9907C11.4252 18.181 11.1607 18.2872 10.8856 18.287C10.7511 18.2878 10.6178 18.2621 10.4934 18.2112Z" fill="black" fill-opacity="0.2"/>
<path fill-rule="evenodd" clip-rule="evenodd" d="M18.4614 1.3899L22.7673 6.84865C22.9185 7.02883 23.001 7.25677 23 7.49199V22.8467C23 23.1224 22.8904 23.3869 22.6955 23.5819C22.5005 23.7769 22.236 23.8864 21.9602 23.8864H2.03974C1.76398 23.8864 1.49953 23.7769 1.30454 23.5819C1.10954 23.3869 1 23.1224 1 22.8467V7.49199C1.00115 7.25737 1.08279 7.03027 1.23132 6.84865L5.53466 1.3899C5.63136 1.26791 5.75448 1.16948 5.89473 1.10194C6.03498 1.03441 6.18869 0.999544 6.34436 1.00001H17.6517C17.8074 0.999449 17.9612 1.03424 18.1015 1.10178C18.2417 1.16933 18.3648 1.26784 18.4614 1.3899ZM6.84087 3.06006L4.09067 6.54974H10.9622V3.06006H6.84087ZM13.0287 3.06006V6.54974H19.9002L17.1501 3.06006H13.0287ZM20.9205 21.8108V8.61622H3.06655V21.8108H20.9205ZM10.4934 18.2112C10.3689 18.1604 10.2558 18.0854 10.1604 17.9907L8.19004 16.0229C8.02608 15.8234 7.94218 15.57 7.95476 15.312C7.96734 15.0541 8.0755 14.8101 8.2581 14.6275C8.44071 14.4449 8.68468 14.3368 8.94262 14.3242C9.20055 14.3116 9.45396 14.3955 9.65347 14.5595L10.8908 15.7967L14.335 12.3526C14.4823 12.2059 14.6702 12.1068 14.8744 12.0679C15.0305 12.0304 15.194 12.0376 15.3462 12.0887C15.5196 12.1385 15.6766 12.2335 15.801 12.3642C15.9907 12.5594 16.0962 12.8213 16.095 13.0934C16.0938 13.3656 15.9859 13.6264 15.7945 13.8199L11.6238 17.9907C11.4252 18.181 11.1607 18.2872 10.8856 18.287C10.7511 18.2878 10.6178 18.2621 10.4934 18.2112Z" fill="black" fill-opacity="0.2"/>
<path fill-rule="evenodd" clip-rule="evenodd" d="M18.4614 1.3899L22.7673 6.84865C22.9185 7.02883 23.001 7.25677 23 7.49199V22.8467C23 23.1224 22.8904 23.3869 22.6955 23.5819C22.5005 23.7769 22.236 23.8864 21.9602 23.8864H2.03974C1.76398 23.8864 1.49953 23.7769 1.30454 23.5819C1.10954 23.3869 1 23.1224 1 22.8467V7.49199C1.00115 7.25737 1.08279 7.03027 1.23132 6.84865L5.53466 1.3899C5.63136 1.26791 5.75448 1.16948 5.89473 1.10194C6.03498 1.03441 6.18869 0.999544 6.34436 1.00001H17.6517C17.8074 0.999449 17.9612 1.03424 18.1015 1.10178C18.2417 1.16933 18.3648 1.26784 18.4614 1.3899ZM6.84087 3.06006L4.09067 6.54974H10.9622V3.06006H6.84087ZM13.0287 3.06006V6.54974H19.9002L17.1501 3.06006H13.0287ZM20.9205 21.8108V8.61622H3.06655V21.8108H20.9205ZM10.4934 18.2112C10.3689 18.1604 10.2558 18.0854 10.1604 17.9907L8.19004 16.0229C8.02608 15.8234 7.94218 15.57 7.95476 15.312C7.96734 15.0541 8.0755 14.8101 8.2581 14.6275C8.44071 14.4449 8.68468 14.3368 8.94262 14.3242C9.20055 14.3116 9.45396 14.3955 9.65347 14.5595L10.8908 15.7967L14.335 12.3526C14.4823 12.2059 14.6702 12.1068 14.8744 12.0679C15.0305 12.0304 15.194 12.0376 15.3462 12.0887C15.5196 12.1385 15.6766 12.2335 15.801 12.3642C15.9907 12.5594 16.0962 12.8213 16.095 13.0934C16.0938 13.3656 15.9859 13.6264 15.7945 13.8199L11.6238 17.9907C11.4252 18.181 11.1607 18.2872 10.8856 18.287C10.7511 18.2878 10.6178 18.2621 10.4934 18.2112Z" fill="black" fill-opacity="0.2"/>
<path fill-rule="evenodd" clip-rule="evenodd" d="M18.4614 1.3899L22.7673 6.84865C22.9185 7.02883 23.001 7.25677 23 7.49199V22.8467C23 23.1224 22.8904 23.3869 22.6955 23.5819C22.5005 23.7769 22.236 23.8864 21.9602 23.8864H2.03974C1.76398 23.8864 1.49953 23.7769 1.30454 23.5819C1.10954 23.3869 1 23.1224 1 22.8467V7.49199C1.00115 7.25737 1.08279 7.03027 1.23132 6.84865L5.53466 1.3899C5.63136 1.26791 5.75448 1.16948 5.89473 1.10194C6.03498 1.03441 6.18869 0.999544 6.34436 1.00001H17.6517C17.8074 0.999449 17.9612 1.03424 18.1015 1.10178C18.2417 1.16933 18.3648 1.26784 18.4614 1.3899ZM6.84087 3.06006L4.09067 6.54974H10.9622V3.06006H6.84087ZM13.0287 3.06006V6.54974H19.9002L17.1501 3.06006H13.0287ZM20.9205 21.8108V8.61622H3.06655V21.8108H20.9205ZM10.4934 18.2112C10.3689 18.1604 10.2558 18.0854 10.1604 17.9907L8.19004 16.0229C8.02608 15.8234 7.94218 15.57 7.95476 15.312C7.96734 15.0541 8.0755 14.8101 8.2581 14.6275C8.44071 14.4449 8.68468 14.3368 8.94262 14.3242C9.20055 14.3116 9.45396 14.3955 9.65347 14.5595L10.8908 15.7967L14.335 12.3526C14.4823 12.2059 14.6702 12.1068 14.8744 12.0679C15.0305 12.0304 15.194 12.0376 15.3462 12.0887C15.5196 12.1385 15.6766 12.2335 15.801 12.3642C15.9907 12.5594 16.0962 12.8213 16.095 13.0934C16.0938 13.3656 15.9859 13.6264 15.7945 13.8199L11.6238 17.9907C11.4252 18.181 11.1607 18.2872 10.8856 18.287C10.7511 18.2878 10.6178 18.2621 10.4934 18.2112Z" fill="black" fill-opacity="0.2"/>
<path fill-rule="evenodd" clip-rule="evenodd" d="M18.4614 1.3899L22.7673 6.84865C22.9185 7.02883 23.001 7.25677 23 7.49199V22.8467C23 23.1224 22.8904 23.3869 22.6955 23.5819C22.5005 23.7769 22.236 23.8864 21.9602 23.8864H2.03974C1.76398 23.8864 1.49953 23.7769 1.30454 23.5819C1.10954 23.3869 1 23.1224 1 22.8467V7.49199C1.00115 7.25737 1.08279 7.03027 1.23132 6.84865L5.53466 1.3899C5.63136 1.26791 5.75448 1.16948 5.89473 1.10194C6.03498 1.03441 6.18869 0.999544 6.34436 1.00001H17.6517C17.8074 0.999449 17.9612 1.03424 18.1015 1.10178C18.2417 1.16933 18.3648 1.26784 18.4614 1.3899ZM6.84087 3.06006L4.09067 6.54974H10.9622V3.06006H6.84087ZM13.0287 3.06006V6.54974H19.9002L17.1501 3.06006H13.0287ZM20.9205 21.8108V8.61622H3.06655V21.8108H20.9205ZM10.4934 18.2112C10.3689 18.1604 10.2558 18.0854 10.1604 17.9907L8.19004 16.0229C8.02608 15.8234 7.94218 15.57 7.95476 15.312C7.96734 15.0541 8.0755 14.8101 8.2581 14.6275C8.44071 14.4449 8.68468 14.3368 8.94262 14.3242C9.20055 14.3116 9.45396 14.3955 9.65347 14.5595L10.8908 15.7967L14.335 12.3526C14.4823 12.2059 14.6702 12.1068 14.8744 12.0679C15.0305 12.0304 15.194 12.0376 15.3462 12.0887C15.5196 12.1385 15.6766 12.2335 15.801 12.3642C15.9907 12.5594 16.0962 12.8213 16.095 13.0934C16.0938 13.3656 15.9859 13.6264 15.7945 13.8199L11.6238 17.9907C11.4252 18.181 11.1607 18.2872 10.8856 18.287C10.7511 18.2878 10.6178 18.2621 10.4934 18.2112Z" fill="black" fill-opacity="0.2"/>
<path d="M22.7673 6.84865L21.9822 7.46797L21.9916 7.47987L22.0013 7.49148L22.7673 6.84865ZM18.4614 1.3899L19.2466 0.770579L19.2455 0.769178L18.4614 1.3899ZM23 7.49199L22 7.48777V7.49199H23ZM22.6955 23.5819L23.4026 24.289L23.4026 24.289L22.6955 23.5819ZM1.30454 23.5819L0.597431 24.289H0.597431L1.30454 23.5819ZM1 7.49199L0 7.4871V7.49199H1ZM1.23132 6.84865L2.00542 7.48171L2.01109 7.47478L2.01663 7.46774L1.23132 6.84865ZM5.53466 1.3899L4.75102 0.76869L4.74935 0.770805L5.53466 1.3899ZM5.89473 1.10194L5.46087 0.200962L5.46087 0.200962L5.89473 1.10194ZM6.34436 1.00001L6.34139 2.00001H6.34436V1.00001ZM17.6517 1.00001V2.00001L17.6553 2L17.6517 1.00001ZM18.1015 1.10178L17.6676 2.00276L17.6676 2.00277L18.1015 1.10178ZM4.09067 6.54974L3.30526 5.93077L2.02936 7.54974H4.09067V6.54974ZM6.84087 3.06006V2.06006H6.35574L6.05546 2.44108L6.84087 3.06006ZM10.9622 6.54974V7.54974H11.9622V6.54974H10.9622ZM10.9622 3.06006H11.9622V2.06006H10.9622V3.06006ZM13.0287 6.54974H12.0287V7.54974H13.0287V6.54974ZM13.0287 3.06006V2.06006H12.0287V3.06006H13.0287ZM19.9002 6.54974V7.54974H21.9615L20.6856 5.93078L19.9002 6.54974ZM17.1501 3.06006L17.9355 2.44109L17.6352 2.06006H17.1501V3.06006ZM20.9205 8.61622H21.9205V7.61622H20.9205V8.61622ZM20.9205 21.8108V22.8108H21.9205V21.8108H20.9205ZM3.06655 8.61622V7.61622H2.06655V8.61622H3.06655ZM3.06655 21.8108H2.06655V22.8108H3.06655V21.8108ZM10.1604 17.9907L9.45372 18.6982L9.4557 18.7002L10.1604 17.9907ZM10.4934 18.2112L10.1151 19.1369L10.1151 19.1369L10.4934 18.2112ZM8.19004 16.0229L7.41747 16.6578L7.44865 16.6958L7.48339 16.7305L8.19004 16.0229ZM7.95476 15.312L6.95594 15.2633L7.95476 15.312ZM8.2581 14.6275L8.96521 15.3346L8.96521 15.3346L8.2581 14.6275ZM8.94262 14.3242L8.99134 15.323H8.99134L8.94262 14.3242ZM9.65347 14.5595L10.3606 13.8523L10.3261 13.8179L10.2884 13.7869L9.65347 14.5595ZM10.8908 15.7967L10.1837 16.5039L10.8908 17.2109L11.5979 16.5038L10.8908 15.7967ZM14.335 12.3526L13.6294 11.6439L13.6279 11.6455L14.335 12.3526ZM14.8744 12.0679L15.0612 13.0503L15.0849 13.0458L15.1083 13.0402L14.8744 12.0679ZM15.3462 12.0887L15.0276 13.0366L15.0489 13.0438L15.0706 13.05L15.3462 12.0887ZM15.801 12.3642L15.0767 13.0538L15.0838 13.061L15.801 12.3642ZM15.7945 13.8199L16.5016 14.527L16.5055 14.5231L15.7945 13.8199ZM11.6238 17.9907L12.3157 18.7126L12.3234 18.7053L12.3309 18.6978L11.6238 17.9907ZM10.8856 18.287L10.8863 17.2869L10.8794 17.287L10.8856 18.287ZM23.5525 6.22933L19.2466 0.77058L17.6763 2.00922L21.9822 7.46797L23.5525 6.22933ZM24 7.49622C24.002 7.02436 23.8366 6.56716 23.5333 6.20581L22.0013 7.49148C22.0005 7.49049 22 7.48919 22 7.48777L24 7.49622ZM24 22.8467V7.49199H22V22.8467H24ZM23.4026 24.289C23.7851 23.9064 24 23.3876 24 22.8467H22C22 22.8572 21.9958 22.8673 21.9883 22.8748L23.4026 24.289ZM21.9602 24.8864C22.5012 24.8864 23.02 24.6715 23.4026 24.289L21.9883 22.8748C21.9809 22.8822 21.9708 22.8864 21.9602 22.8864V24.8864ZM2.03974 24.8864H21.9602V22.8864H2.03974V24.8864ZM0.597431 24.289C0.979951 24.6715 1.49875 24.8864 2.03974 24.8864V22.8864C2.02921 22.8864 2.01911 22.8822 2.01164 22.8748L0.597431 24.289ZM0 22.8467C0 23.3876 0.214911 23.9065 0.597431 24.289L2.01164 22.8748C2.00418 22.8673 2 22.8572 2 22.8467H0ZM0 7.49199V22.8467H2V7.49199H0ZM0.457218 6.21558C0.163615 6.5746 0.00227964 7.02347 1.19805e-05 7.4871L1.99999 7.49688C2.00002 7.49127 2.00196 7.48594 2.00542 7.48171L0.457218 6.21558ZM4.74935 0.770805L0.446003 6.22955L2.01663 7.46774L6.31998 2.009L4.74935 0.770805ZM5.46087 0.200962C5.18449 0.334052 4.94174 0.5281 4.75102 0.768693L6.31831 2.01111C6.32099 2.00773 6.32447 2.0049 6.32859 2.00292L5.46087 0.200962ZM6.34733 1.10865e-05C6.04036 -0.000900745 5.73729 0.0678523 5.46087 0.200962L6.32859 2.00292C6.33267 2.00096 6.33703 1.99999 6.34139 2L6.34733 1.10865e-05ZM17.6517 6.67572e-06H6.34436V2.00001H17.6517V6.67572e-06ZM18.5353 0.200804C18.2586 0.0675374 17.9552 -0.00108731 17.6482 1.30534e-05L17.6553 2C17.6596 1.99998 17.6638 2.00094 17.6676 2.00276L18.5353 0.200804ZM19.2455 0.769178C19.0548 0.5284 18.812 0.33405 18.5353 0.200801L17.6676 2.00277C17.6714 2.0046 17.6748 2.00728 17.6774 2.01062L19.2455 0.769178ZM4.87608 7.16872L7.62628 3.67903L6.05546 2.44108L3.30526 5.93077L4.87608 7.16872ZM10.9622 5.54974H4.09067V7.54974H10.9622V5.54974ZM9.96216 3.06006V6.54974H11.9622V3.06006H9.96216ZM6.84087 4.06006H10.9622V2.06006H6.84087V4.06006ZM14.0287 6.54974V3.06006H12.0287V6.54974H14.0287ZM19.9002 5.54974H13.0287V7.54974H19.9002V5.54974ZM16.3647 3.67902L19.1148 7.16871L20.6856 5.93078L17.9355 2.44109L16.3647 3.67902ZM13.0287 4.06006H17.1501V2.06006H13.0287V4.06006ZM19.9205 8.61622V21.8108H21.9205V8.61622H19.9205ZM3.06655 9.61622H20.9205V7.61622H3.06655V9.61622ZM4.06655 21.8108V8.61622H2.06655V21.8108H4.06655ZM20.9205 20.8108H3.06655V22.8108H20.9205V20.8108ZM9.4557 18.7002C9.64462 18.8878 9.86872 19.0362 10.1151 19.1369L10.8716 17.2855C10.8691 17.2845 10.8669 17.283 10.865 17.2812L9.4557 18.7002ZM7.48339 16.7305L9.45372 18.6982L10.867 17.2831L8.89669 15.3153L7.48339 16.7305ZM6.95594 15.2633C6.93126 15.7694 7.09588 16.2665 7.41747 16.6578L8.96261 15.388C8.95627 15.3802 8.95309 15.3705 8.95357 15.3608L6.95594 15.2633ZM7.551 13.9204C7.19289 14.2785 6.98063 14.7571 6.95594 15.2633L8.95357 15.3608C8.95404 15.3511 8.95811 15.3417 8.96521 15.3346L7.551 13.9204ZM8.8939 13.3254C8.38772 13.3501 7.9091 13.5623 7.551 13.9204L8.96521 15.3346C8.97231 15.3275 8.98165 15.3235 8.99134 15.323L8.8939 13.3254ZM10.2884 13.7869C9.89709 13.4653 9.40001 13.3007 8.8939 13.3254L8.99134 15.323C9.0011 15.3225 9.01083 15.3257 9.01854 15.332L10.2884 13.7869ZM11.5979 15.0896L10.3606 13.8523L8.94639 15.2666L10.1837 16.5039L11.5979 15.0896ZM13.6279 11.6455L10.1837 15.0896L11.5979 16.5038L15.0421 13.0597L13.6279 11.6455ZM14.6876 11.0856C14.2871 11.1617 13.9184 11.3561 13.6294 11.6439L15.0405 13.0612C15.0461 13.0557 15.0533 13.0518 15.0612 13.0503L14.6876 11.0856ZM15.6647 11.1408C15.3343 11.0298 14.9793 11.0142 14.6405 11.0957L15.1083 13.0402C15.0817 13.0466 15.0537 13.0454 15.0276 13.0366L15.6647 11.1408ZM16.5253 11.6748C16.2782 11.4151 15.9662 11.2262 15.6217 11.1275L15.0706 13.05C15.073 13.0507 15.0751 13.052 15.0767 13.0537L16.5253 11.6748ZM17.095 13.0979C17.0974 12.564 16.8903 12.0504 16.5183 11.6674L15.0838 13.061C15.091 13.0685 15.0951 13.0785 15.095 13.0889L17.095 13.0979ZM16.5055 14.5231C16.8809 14.1435 17.0926 13.6319 17.095 13.0979L15.095 13.0889C15.095 13.0993 15.0909 13.1093 15.0835 13.1167L16.5055 14.5231ZM12.3309 18.6978L16.5016 14.527L15.0874 13.1128L10.9167 17.2836L12.3309 18.6978ZM10.8848 19.287C11.418 19.2874 11.9307 19.0817 12.3157 18.7126L10.9319 17.2687C10.9197 17.2804 10.9034 17.287 10.8863 17.287L10.8848 19.287ZM10.1151 19.1369C10.3617 19.2377 10.6256 19.2886 10.8917 19.2869L10.8794 17.287C10.8766 17.287 10.874 17.2865 10.8716 17.2855L10.1151 19.1369Z" fill="black" mask="url(#path-1-inside-1_314_322)"/>
<path d="M22.7673 6.84865L21.9822 7.46797L21.9916 7.47987L22.0013 7.49148L22.7673 6.84865ZM18.4614 1.3899L19.2466 0.770579L19.2455 0.769178L18.4614 1.3899ZM23 7.49199L22 7.48777V7.49199H23ZM22.6955 23.5819L23.4026 24.289L23.4026 24.289L22.6955 23.5819ZM1.30454 23.5819L0.597431 24.289H0.597431L1.30454 23.5819ZM1 7.49199L0 7.4871V7.49199H1ZM1.23132 6.84865L2.00542 7.48171L2.01109 7.47478L2.01663 7.46774L1.23132 6.84865ZM5.53466 1.3899L4.75102 0.76869L4.74935 0.770805L5.53466 1.3899ZM5.89473 1.10194L5.46087 0.200962L5.46087 0.200962L5.89473 1.10194ZM6.34436 1.00001L6.34139 2.00001H6.34436V1.00001ZM17.6517 1.00001V2.00001L17.6553 2L17.6517 1.00001ZM18.1015 1.10178L17.6676 2.00276L17.6676 2.00277L18.1015 1.10178ZM4.09067 6.54974L3.30526 5.93077L2.02936 7.54974H4.09067V6.54974ZM6.84087 3.06006V2.06006H6.35574L6.05546 2.44108L6.84087 3.06006ZM10.9622 6.54974V7.54974H11.9622V6.54974H10.9622ZM10.9622 3.06006H11.9622V2.06006H10.9622V3.06006ZM13.0287 6.54974H12.0287V7.54974H13.0287V6.54974ZM13.0287 3.06006V2.06006H12.0287V3.06006H13.0287ZM19.9002 6.54974V7.54974H21.9615L20.6856 5.93078L19.9002 6.54974ZM17.1501 3.06006L17.9355 2.44109L17.6352 2.06006H17.1501V3.06006ZM20.9205 8.61622H21.9205V7.61622H20.9205V8.61622ZM20.9205 21.8108V22.8108H21.9205V21.8108H20.9205ZM3.06655 8.61622V7.61622H2.06655V8.61622H3.06655ZM3.06655 21.8108H2.06655V22.8108H3.06655V21.8108ZM10.1604 17.9907L9.45372 18.6982L9.4557 18.7002L10.1604 17.9907ZM10.4934 18.2112L10.1151 19.1369L10.1151 19.1369L10.4934 18.2112ZM8.19004 16.0229L7.41747 16.6578L7.44865 16.6958L7.48339 16.7305L8.19004 16.0229ZM7.95476 15.312L6.95594 15.2633L7.95476 15.312ZM8.2581 14.6275L8.96521 15.3346L8.96521 15.3346L8.2581 14.6275ZM8.94262 14.3242L8.99134 15.323H8.99134L8.94262 14.3242ZM9.65347 14.5595L10.3606 13.8523L10.3261 13.8179L10.2884 13.7869L9.65347 14.5595ZM10.8908 15.7967L10.1837 16.5039L10.8908 17.2109L11.5979 16.5038L10.8908 15.7967ZM14.335 12.3526L13.6294 11.6439L13.6279 11.6455L14.335 12.3526ZM14.8744 12.0679L15.0612 13.0503L15.0849 13.0458L15.1083 13.0402L14.8744 12.0679ZM15.3462 12.0887L15.0276 13.0366L15.0489 13.0438L15.0706 13.05L15.3462 12.0887ZM15.801 12.3642L15.0767 13.0538L15.0838 13.061L15.801 12.3642ZM15.7945 13.8199L16.5016 14.527L16.5055 14.5231L15.7945 13.8199ZM11.6238 17.9907L12.3157 18.7126L12.3234 18.7053L12.3309 18.6978L11.6238 17.9907ZM10.8856 18.287L10.8863 17.2869L10.8794 17.287L10.8856 18.287ZM23.5525 6.22933L19.2466 0.77058L17.6763 2.00922L21.9822 7.46797L23.5525 6.22933ZM24 7.49622C24.002 7.02436 23.8366 6.56716 23.5333 6.20581L22.0013 7.49148C22.0005 7.49049 22 7.48919 22 7.48777L24 7.49622ZM24 22.8467V7.49199H22V22.8467H24ZM23.4026 24.289C23.7851 23.9064 24 23.3876 24 22.8467H22C22 22.8572 21.9958 22.8673 21.9883 22.8748L23.4026 24.289ZM21.9602 24.8864C22.5012 24.8864 23.02 24.6715 23.4026 24.289L21.9883 22.8748C21.9809 22.8822 21.9708 22.8864 21.9602 22.8864V24.8864ZM2.03974 24.8864H21.9602V22.8864H2.03974V24.8864ZM0.597431 24.289C0.979951 24.6715 1.49875 24.8864 2.03974 24.8864V22.8864C2.02921 22.8864 2.01911 22.8822 2.01164 22.8748L0.597431 24.289ZM0 22.8467C0 23.3876 0.214911 23.9065 0.597431 24.289L2.01164 22.8748C2.00418 22.8673 2 22.8572 2 22.8467H0ZM0 7.49199V22.8467H2V7.49199H0ZM0.457218 6.21558C0.163615 6.5746 0.00227964 7.02347 1.19805e-05 7.4871L1.99999 7.49688C2.00002 7.49127 2.00196 7.48594 2.00542 7.48171L0.457218 6.21558ZM4.74935 0.770805L0.446003 6.22955L2.01663 7.46774L6.31998 2.009L4.74935 0.770805ZM5.46087 0.200962C5.18449 0.334052 4.94174 0.5281 4.75102 0.768693L6.31831 2.01111C6.32099 2.00773 6.32447 2.0049 6.32859 2.00292L5.46087 0.200962ZM6.34733 1.10865e-05C6.04036 -0.000900745 5.73729 0.0678523 5.46087 0.200962L6.32859 2.00292C6.33267 2.00096 6.33703 1.99999 6.34139 2L6.34733 1.10865e-05ZM17.6517 6.67572e-06H6.34436V2.00001H17.6517V6.67572e-06ZM18.5353 0.200804C18.2586 0.0675374 17.9552 -0.00108731 17.6482 1.30534e-05L17.6553 2C17.6596 1.99998 17.6638 2.00094 17.6676 2.00276L18.5353 0.200804ZM19.2455 0.769178C19.0548 0.5284 18.812 0.33405 18.5353 0.200801L17.6676 2.00277C17.6714 2.0046 17.6748 2.00728 17.6774 2.01062L19.2455 0.769178ZM4.87608 7.16872L7.62628 3.67903L6.05546 2.44108L3.30526 5.93077L4.87608 7.16872ZM10.9622 5.54974H4.09067V7.54974H10.9622V5.54974ZM9.96216 3.06006V6.54974H11.9622V3.06006H9.96216ZM6.84087 4.06006H10.9622V2.06006H6.84087V4.06006ZM14.0287 6.54974V3.06006H12.0287V6.54974H14.0287ZM19.9002 5.54974H13.0287V7.54974H19.9002V5.54974ZM16.3647 3.67902L19.1148 7.16871L20.6856 5.93078L17.9355 2.44109L16.3647 3.67902ZM13.0287 4.06006H17.1501V2.06006H13.0287V4.06006ZM19.9205 8.61622V21.8108H21.9205V8.61622H19.9205ZM3.06655 9.61622H20.9205V7.61622H3.06655V9.61622ZM4.06655 21.8108V8.61622H2.06655V21.8108H4.06655ZM20.9205 20.8108H3.06655V22.8108H20.9205V20.8108ZM9.4557 18.7002C9.64462 18.8878 9.86872 19.0362 10.1151 19.1369L10.8716 17.2855C10.8691 17.2845 10.8669 17.283 10.865 17.2812L9.4557 18.7002ZM7.48339 16.7305L9.45372 18.6982L10.867 17.2831L8.89669 15.3153L7.48339 16.7305ZM6.95594 15.2633C6.93126 15.7694 7.09588 16.2665 7.41747 16.6578L8.96261 15.388C8.95627 15.3802 8.95309 15.3705 8.95357 15.3608L6.95594 15.2633ZM7.551 13.9204C7.19289 14.2785 6.98063 14.7571 6.95594 15.2633L8.95357 15.3608C8.95404 15.3511 8.95811 15.3417 8.96521 15.3346L7.551 13.9204ZM8.8939 13.3254C8.38772 13.3501 7.9091 13.5623 7.551 13.9204L8.96521 15.3346C8.97231 15.3275 8.98165 15.3235 8.99134 15.323L8.8939 13.3254ZM10.2884 13.7869C9.89709 13.4653 9.40001 13.3007 8.8939 13.3254L8.99134 15.323C9.0011 15.3225 9.01083 15.3257 9.01854 15.332L10.2884 13.7869ZM11.5979 15.0896L10.3606 13.8523L8.94639 15.2666L10.1837 16.5039L11.5979 15.0896ZM13.6279 11.6455L10.1837 15.0896L11.5979 16.5038L15.0421 13.0597L13.6279 11.6455ZM14.6876 11.0856C14.2871 11.1617 13.9184 11.3561 13.6294 11.6439L15.0405 13.0612C15.0461 13.0557 15.0533 13.0518 15.0612 13.0503L14.6876 11.0856ZM15.6647 11.1408C15.3343 11.0298 14.9793 11.0142 14.6405 11.0957L15.1083 13.0402C15.0817 13.0466 15.0537 13.0454 15.0276 13.0366L15.6647 11.1408ZM16.5253 11.6748C16.2782 11.4151 15.9662 11.2262 15.6217 11.1275L15.0706 13.05C15.073 13.0507 15.0751 13.052 15.0767 13.0537L16.5253 11.6748ZM17.095 13.0979C17.0974 12.564 16.8903 12.0504 16.5183 11.6674L15.0838 13.061C15.091 13.0685 15.0951 13.0785 15.095 13.0889L17.095 13.0979ZM16.5055 14.5231C16.8809 14.1435 17.0926 13.6319 17.095 13.0979L15.095 13.0889C15.095 13.0993 15.0909 13.1093 15.0835 13.1167L16.5055 14.5231ZM12.3309 18.6978L16.5016 14.527L15.0874 13.1128L10.9167 17.2836L12.3309 18.6978ZM10.8848 19.287C11.418 19.2874 11.9307 19.0817 12.3157 18.7126L10.9319 17.2687C10.9197 17.2804 10.9034 17.287 10.8863 17.287L10.8848 19.287ZM10.1151 19.1369C10.3617 19.2377 10.6256 19.2886 10.8917 19.2869L10.8794 17.287C10.8766 17.287 10.874 17.2865 10.8716 17.2855L10.1151 19.1369Z" fill="black" fill-opacity="0.2" mask="url(#path-1-inside-1_314_322)"/>
<path d="M22.7673 6.84865L21.9822 7.46797L21.9916 7.47987L22.0013 7.49148L22.7673 6.84865ZM18.4614 1.3899L19.2466 0.770579L19.2455 0.769178L18.4614 1.3899ZM23 7.49199L22 7.48777V7.49199H23ZM22.6955 23.5819L23.4026 24.289L23.4026 24.289L22.6955 23.5819ZM1.30454 23.5819L0.597431 24.289H0.597431L1.30454 23.5819ZM1 7.49199L0 7.4871V7.49199H1ZM1.23132 6.84865L2.00542 7.48171L2.01109 7.47478L2.01663 7.46774L1.23132 6.84865ZM5.53466 1.3899L4.75102 0.76869L4.74935 0.770805L5.53466 1.3899ZM5.89473 1.10194L5.46087 0.200962L5.46087 0.200962L5.89473 1.10194ZM6.34436 1.00001L6.34139 2.00001H6.34436V1.00001ZM17.6517 1.00001V2.00001L17.6553 2L17.6517 1.00001ZM18.1015 1.10178L17.6676 2.00276L17.6676 2.00277L18.1015 1.10178ZM4.09067 6.54974L3.30526 5.93077L2.02936 7.54974H4.09067V6.54974ZM6.84087 3.06006V2.06006H6.35574L6.05546 2.44108L6.84087 3.06006ZM10.9622 6.54974V7.54974H11.9622V6.54974H10.9622ZM10.9622 3.06006H11.9622V2.06006H10.9622V3.06006ZM13.0287 6.54974H12.0287V7.54974H13.0287V6.54974ZM13.0287 3.06006V2.06006H12.0287V3.06006H13.0287ZM19.9002 6.54974V7.54974H21.9615L20.6856 5.93078L19.9002 6.54974ZM17.1501 3.06006L17.9355 2.44109L17.6352 2.06006H17.1501V3.06006ZM20.9205 8.61622H21.9205V7.61622H20.9205V8.61622ZM20.9205 21.8108V22.8108H21.9205V21.8108H20.9205ZM3.06655 8.61622V7.61622H2.06655V8.61622H3.06655ZM3.06655 21.8108H2.06655V22.8108H3.06655V21.8108ZM10.1604 17.9907L9.45372 18.6982L9.4557 18.7002L10.1604 17.9907ZM10.4934 18.2112L10.1151 19.1369L10.1151 19.1369L10.4934 18.2112ZM8.19004 16.0229L7.41747 16.6578L7.44865 16.6958L7.48339 16.7305L8.19004 16.0229ZM7.95476 15.312L6.95594 15.2633L7.95476 15.312ZM8.2581 14.6275L8.96521 15.3346L8.96521 15.3346L8.2581 14.6275ZM8.94262 14.3242L8.99134 15.323H8.99134L8.94262 14.3242ZM9.65347 14.5595L10.3606 13.8523L10.3261 13.8179L10.2884 13.7869L9.65347 14.5595ZM10.8908 15.7967L10.1837 16.5039L10.8908 17.2109L11.5979 16.5038L10.8908 15.7967ZM14.335 12.3526L13.6294 11.6439L13.6279 11.6455L14.335 12.3526ZM14.8744 12.0679L15.0612 13.0503L15.0849 13.0458L15.1083 13.0402L14.8744 12.0679ZM15.3462 12.0887L15.0276 13.0366L15.0489 13.0438L15.0706 13.05L15.3462 12.0887ZM15.801 12.3642L15.0767 13.0538L15.0838 13.061L15.801 12.3642ZM15.7945 13.8199L16.5016 14.527L16.5055 14.5231L15.7945 13.8199ZM11.6238 17.9907L12.3157 18.7126L12.3234 18.7053L12.3309 18.6978L11.6238 17.9907ZM10.8856 18.287L10.8863 17.2869L10.8794 17.287L10.8856 18.287ZM23.5525 6.22933L19.2466 0.77058L17.6763 2.00922L21.9822 7.46797L23.5525 6.22933ZM24 7.49622C24.002 7.02436 23.8366 6.56716 23.5333 6.20581L22.0013 7.49148C22.0005 7.49049 22 7.48919 22 7.48777L24 7.49622ZM24 22.8467V7.49199H22V22.8467H24ZM23.4026 24.289C23.7851 23.9064 24 23.3876 24 22.8467H22C22 22.8572 21.9958 22.8673 21.9883 22.8748L23.4026 24.289ZM21.9602 24.8864C22.5012 24.8864 23.02 24.6715 23.4026 24.289L21.9883 22.8748C21.9809 22.8822 21.9708 22.8864 21.9602 22.8864V24.8864ZM2.03974 24.8864H21.9602V22.8864H2.03974V24.8864ZM0.597431 24.289C0.979951 24.6715 1.49875 24.8864 2.03974 24.8864V22.8864C2.02921 22.8864 2.01911 22.8822 2.01164 22.8748L0.597431 24.289ZM0 22.8467C0 23.3876 0.214911 23.9065 0.597431 24.289L2.01164 22.8748C2.00418 22.8673 2 22.8572 2 22.8467H0ZM0 7.49199V22.8467H2V7.49199H0ZM0.457218 6.21558C0.163615 6.5746 0.00227964 7.02347 1.19805e-05 7.4871L1.99999 7.49688C2.00002 7.49127 2.00196 7.48594 2.00542 7.48171L0.457218 6.21558ZM4.74935 0.770805L0.446003 6.22955L2.01663 7.46774L6.31998 2.009L4.74935 0.770805ZM5.46087 0.200962C5.18449 0.334052 4.94174 0.5281 4.75102 0.768693L6.31831 2.01111C6.32099 2.00773 6.32447 2.0049 6.32859 2.00292L5.46087 0.200962ZM6.34733 1.10865e-05C6.04036 -0.000900745 5.73729 0.0678523 5.46087 0.200962L6.32859 2.00292C6.33267 2.00096 6.33703 1.99999 6.34139 2L6.34733 1.10865e-05ZM17.6517 6.67572e-06H6.34436V2.00001H17.6517V6.67572e-06ZM18.5353 0.200804C18.2586 0.0675374 17.9552 -0.00108731 17.6482 1.30534e-05L17.6553 2C17.6596 1.99998 17.6638 2.00094 17.6676 2.00276L18.5353 0.200804ZM19.2455 0.769178C19.0548 0.5284 18.812 0.33405 18.5353 0.200801L17.6676 2.00277C17.6714 2.0046 17.6748 2.00728 17.6774 2.01062L19.2455 0.769178ZM4.87608 7.16872L7.62628 3.67903L6.05546 2.44108L3.30526 5.93077L4.87608 7.16872ZM10.9622 5.54974H4.09067V7.54974H10.9622V5.54974ZM9.96216 3.06006V6.54974H11.9622V3.06006H9.96216ZM6.84087 4.06006H10.9622V2.06006H6.84087V4.06006ZM14.0287 6.54974V3.06006H12.0287V6.54974H14.0287ZM19.9002 5.54974H13.0287V7.54974H19.9002V5.54974ZM16.3647 3.67902L19.1148 7.16871L20.6856 5.93078L17.9355 2.44109L16.3647 3.67902ZM13.0287 4.06006H17.1501V2.06006H13.0287V4.06006ZM19.9205 8.61622V21.8108H21.9205V8.61622H19.9205ZM3.06655 9.61622H20.9205V7.61622H3.06655V9.61622ZM4.06655 21.8108V8.61622H2.06655V21.8108H4.06655ZM20.9205 20.8108H3.06655V22.8108H20.9205V20.8108ZM9.4557 18.7002C9.64462 18.8878 9.86872 19.0362 10.1151 19.1369L10.8716 17.2855C10.8691 17.2845 10.8669 17.283 10.865 17.2812L9.4557 18.7002ZM7.48339 16.7305L9.45372 18.6982L10.867 17.2831L8.89669 15.3153L7.48339 16.7305ZM6.95594 15.2633C6.93126 15.7694 7.09588 16.2665 7.41747 16.6578L8.96261 15.388C8.95627 15.3802 8.95309 15.3705 8.95357 15.3608L6.95594 15.2633ZM7.551 13.9204C7.19289 14.2785 6.98063 14.7571 6.95594 15.2633L8.95357 15.3608C8.95404 15.3511 8.95811 15.3417 8.96521 15.3346L7.551 13.9204ZM8.8939 13.3254C8.38772 13.3501 7.9091 13.5623 7.551 13.9204L8.96521 15.3346C8.97231 15.3275 8.98165 15.3235 8.99134 15.323L8.8939 13.3254ZM10.2884 13.7869C9.89709 13.4653 9.40001 13.3007 8.8939 13.3254L8.99134 15.323C9.0011 15.3225 9.01083 15.3257 9.01854 15.332L10.2884 13.7869ZM11.5979 15.0896L10.3606 13.8523L8.94639 15.2666L10.1837 16.5039L11.5979 15.0896ZM13.6279 11.6455L10.1837 15.0896L11.5979 16.5038L15.0421 13.0597L13.6279 11.6455ZM14.6876 11.0856C14.2871 11.1617 13.9184 11.3561 13.6294 11.6439L15.0405 13.0612C15.0461 13.0557 15.0533 13.0518 15.0612 13.0503L14.6876 11.0856ZM15.6647 11.1408C15.3343 11.0298 14.9793 11.0142 14.6405 11.0957L15.1083 13.0402C15.0817 13.0466 15.0537 13.0454 15.0276 13.0366L15.6647 11.1408ZM16.5253 11.6748C16.2782 11.4151 15.9662 11.2262 15.6217 11.1275L15.0706 13.05C15.073 13.0507 15.0751 13.052 15.0767 13.0537L16.5253 11.6748ZM17.095 13.0979C17.0974 12.564 16.8903 12.0504 16.5183 11.6674L15.0838 13.061C15.091 13.0685 15.0951 13.0785 15.095 13.0889L17.095 13.0979ZM16.5055 14.5231C16.8809 14.1435 17.0926 13.6319 17.095 13.0979L15.095 13.0889C15.095 13.0993 15.0909 13.1093 15.0835 13.1167L16.5055 14.5231ZM12.3309 18.6978L16.5016 14.527L15.0874 13.1128L10.9167 17.2836L12.3309 18.6978ZM10.8848 19.287C11.418 19.2874 11.9307 19.0817 12.3157 18.7126L10.9319 17.2687C10.9197 17.2804 10.9034 17.287 10.8863 17.287L10.8848 19.287ZM10.1151 19.1369C10.3617 19.2377 10.6256 19.2886 10.8917 19.2869L10.8794 17.287C10.8766 17.287 10.874 17.2865 10.8716 17.2855L10.1151 19.1369Z" fill="black" fill-opacity="0.2" mask="url(#path-1-inside-1_314_322)"/>
<path d="M22.7673 6.84865L21.9822 7.46797L21.9916 7.47987L22.0013 7.49148L22.7673 6.84865ZM18.4614 1.3899L19.2466 0.770579L19.2455 0.769178L18.4614 1.3899ZM23 7.49199L22 7.48777V7.49199H23ZM22.6955 23.5819L23.4026 24.289L23.4026 24.289L22.6955 23.5819ZM1.30454 23.5819L0.597431 24.289H0.597431L1.30454 23.5819ZM1 7.49199L0 7.4871V7.49199H1ZM1.23132 6.84865L2.00542 7.48171L2.01109 7.47478L2.01663 7.46774L1.23132 6.84865ZM5.53466 1.3899L4.75102 0.76869L4.74935 0.770805L5.53466 1.3899ZM5.89473 1.10194L5.46087 0.200962L5.46087 0.200962L5.89473 1.10194ZM6.34436 1.00001L6.34139 2.00001H6.34436V1.00001ZM17.6517 1.00001V2.00001L17.6553 2L17.6517 1.00001ZM18.1015 1.10178L17.6676 2.00276L17.6676 2.00277L18.1015 1.10178ZM4.09067 6.54974L3.30526 5.93077L2.02936 7.54974H4.09067V6.54974ZM6.84087 3.06006V2.06006H6.35574L6.05546 2.44108L6.84087 3.06006ZM10.9622 6.54974V7.54974H11.9622V6.54974H10.9622ZM10.9622 3.06006H11.9622V2.06006H10.9622V3.06006ZM13.0287 6.54974H12.0287V7.54974H13.0287V6.54974ZM13.0287 3.06006V2.06006H12.0287V3.06006H13.0287ZM19.9002 6.54974V7.54974H21.9615L20.6856 5.93078L19.9002 6.54974ZM17.1501 3.06006L17.9355 2.44109L17.6352 2.06006H17.1501V3.06006ZM20.9205 8.61622H21.9205V7.61622H20.9205V8.61622ZM20.9205 21.8108V22.8108H21.9205V21.8108H20.9205ZM3.06655 8.61622V7.61622H2.06655V8.61622H3.06655ZM3.06655 21.8108H2.06655V22.8108H3.06655V21.8108ZM10.1604 17.9907L9.45372 18.6982L9.4557 18.7002L10.1604 17.9907ZM10.4934 18.2112L10.1151 19.1369L10.1151 19.1369L10.4934 18.2112ZM8.19004 16.0229L7.41747 16.6578L7.44865 16.6958L7.48339 16.7305L8.19004 16.0229ZM7.95476 15.312L6.95594 15.2633L7.95476 15.312ZM8.2581 14.6275L8.96521 15.3346L8.96521 15.3346L8.2581 14.6275ZM8.94262 14.3242L8.99134 15.323H8.99134L8.94262 14.3242ZM9.65347 14.5595L10.3606 13.8523L10.3261 13.8179L10.2884 13.7869L9.65347 14.5595ZM10.8908 15.7967L10.1837 16.5039L10.8908 17.2109L11.5979 16.5038L10.8908 15.7967ZM14.335 12.3526L13.6294 11.6439L13.6279 11.6455L14.335 12.3526ZM14.8744 12.0679L15.0612 13.0503L15.0849 13.0458L15.1083 13.0402L14.8744 12.0679ZM15.3462 12.0887L15.0276 13.0366L15.0489 13.0438L15.0706 13.05L15.3462 12.0887ZM15.801 12.3642L15.0767 13.0538L15.0838 13.061L15.801 12.3642ZM15.7945 13.8199L16.5016 14.527L16.5055 14.5231L15.7945 13.8199ZM11.6238 17.9907L12.3157 18.7126L12.3234 18.7053L12.3309 18.6978L11.6238 17.9907ZM10.8856 18.287L10.8863 17.2869L10.8794 17.287L10.8856 18.287ZM23.5525 6.22933L19.2466 0.77058L17.6763 2.00922L21.9822 7.46797L23.5525 6.22933ZM24 7.49622C24.002 7.02436 23.8366 6.56716 23.5333 6.20581L22.0013 7.49148C22.0005 7.49049 22 7.48919 22 7.48777L24 7.49622ZM24 22.8467V7.49199H22V22.8467H24ZM23.4026 24.289C23.7851 23.9064 24 23.3876 24 22.8467H22C22 22.8572 21.9958 22.8673 21.9883 22.8748L23.4026 24.289ZM21.9602 24.8864C22.5012 24.8864 23.02 24.6715 23.4026 24.289L21.9883 22.8748C21.9809 22.8822 21.9708 22.8864 21.9602 22.8864V24.8864ZM2.03974 24.8864H21.9602V22.8864H2.03974V24.8864ZM0.597431 24.289C0.979951 24.6715 1.49875 24.8864 2.03974 24.8864V22.8864C2.02921 22.8864 2.01911 22.8822 2.01164 22.8748L0.597431 24.289ZM0 22.8467C0 23.3876 0.214911 23.9065 0.597431 24.289L2.01164 22.8748C2.00418 22.8673 2 22.8572 2 22.8467H0ZM0 7.49199V22.8467H2V7.49199H0ZM0.457218 6.21558C0.163615 6.5746 0.00227964 7.02347 1.19805e-05 7.4871L1.99999 7.49688C2.00002 7.49127 2.00196 7.48594 2.00542 7.48171L0.457218 6.21558ZM4.74935 0.770805L0.446003 6.22955L2.01663 7.46774L6.31998 2.009L4.74935 0.770805ZM5.46087 0.200962C5.18449 0.334052 4.94174 0.5281 4.75102 0.768693L6.31831 2.01111C6.32099 2.00773 6.32447 2.0049 6.32859 2.00292L5.46087 0.200962ZM6.34733 1.10865e-05C6.04036 -0.000900745 5.73729 0.0678523 5.46087 0.200962L6.32859 2.00292C6.33267 2.00096 6.33703 1.99999 6.34139 2L6.34733 1.10865e-05ZM17.6517 6.67572e-06H6.34436V2.00001H17.6517V6.67572e-06ZM18.5353 0.200804C18.2586 0.0675374 17.9552 -0.00108731 17.6482 1.30534e-05L17.6553 2C17.6596 1.99998 17.6638 2.00094 17.6676 2.00276L18.5353 0.200804ZM19.2455 0.769178C19.0548 0.5284 18.812 0.33405 18.5353 0.200801L17.6676 2.00277C17.6714 2.0046 17.6748 2.00728 17.6774 2.01062L19.2455 0.769178ZM4.87608 7.16872L7.62628 3.67903L6.05546 2.44108L3.30526 5.93077L4.87608 7.16872ZM10.9622 5.54974H4.09067V7.54974H10.9622V5.54974ZM9.96216 3.06006V6.54974H11.9622V3.06006H9.96216ZM6.84087 4.06006H10.9622V2.06006H6.84087V4.06006ZM14.0287 6.54974V3.06006H12.0287V6.54974H14.0287ZM19.9002 5.54974H13.0287V7.54974H19.9002V5.54974ZM16.3647 3.67902L19.1148 7.16871L20.6856 5.93078L17.9355 2.44109L16.3647 3.67902ZM13.0287 4.06006H17.1501V2.06006H13.0287V4.06006ZM19.9205 8.61622V21.8108H21.9205V8.61622H19.9205ZM3.06655 9.61622H20.9205V7.61622H3.06655V9.61622ZM4.06655 21.8108V8.61622H2.06655V21.8108H4.06655ZM20.9205 20.8108H3.06655V22.8108H20.9205V20.8108ZM9.4557 18.7002C9.64462 18.8878 9.86872 19.0362 10.1151 19.1369L10.8716 17.2855C10.8691 17.2845 10.8669 17.283 10.865 17.2812L9.4557 18.7002ZM7.48339 16.7305L9.45372 18.6982L10.867 17.2831L8.89669 15.3153L7.48339 16.7305ZM6.95594 15.2633C6.93126 15.7694 7.09588 16.2665 7.41747 16.6578L8.96261 15.388C8.95627 15.3802 8.95309 15.3705 8.95357 15.3608L6.95594 15.2633ZM7.551 13.9204C7.19289 14.2785 6.98063 14.7571 6.95594 15.2633L8.95357 15.3608C8.95404 15.3511 8.95811 15.3417 8.96521 15.3346L7.551 13.9204ZM8.8939 13.3254C8.38772 13.3501 7.9091 13.5623 7.551 13.9204L8.96521 15.3346C8.97231 15.3275 8.98165 15.3235 8.99134 15.323L8.8939 13.3254ZM10.2884 13.7869C9.89709 13.4653 9.40001 13.3007 8.8939 13.3254L8.99134 15.323C9.0011 15.3225 9.01083 15.3257 9.01854 15.332L10.2884 13.7869ZM11.5979 15.0896L10.3606 13.8523L8.94639 15.2666L10.1837 16.5039L11.5979 15.0896ZM13.6279 11.6455L10.1837 15.0896L11.5979 16.5038L15.0421 13.0597L13.6279 11.6455ZM14.6876 11.0856C14.2871 11.1617 13.9184 11.3561 13.6294 11.6439L15.0405 13.0612C15.0461 13.0557 15.0533 13.0518 15.0612 13.0503L14.6876 11.0856ZM15.6647 11.1408C15.3343 11.0298 14.9793 11.0142 14.6405 11.0957L15.1083 13.0402C15.0817 13.0466 15.0537 13.0454 15.0276 13.0366L15.6647 11.1408ZM16.5253 11.6748C16.2782 11.4151 15.9662 11.2262 15.6217 11.1275L15.0706 13.05C15.073 13.0507 15.0751 13.052 15.0767 13.0537L16.5253 11.6748ZM17.095 13.0979C17.0974 12.564 16.8903 12.0504 16.5183 11.6674L15.0838 13.061C15.091 13.0685 15.0951 13.0785 15.095 13.0889L17.095 13.0979ZM16.5055 14.5231C16.8809 14.1435 17.0926 13.6319 17.095 13.0979L15.095 13.0889C15.095 13.0993 15.0909 13.1093 15.0835 13.1167L16.5055 14.5231ZM12.3309 18.6978L16.5016 14.527L15.0874 13.1128L10.9167 17.2836L12.3309 18.6978ZM10.8848 19.287C11.418 19.2874 11.9307 19.0817 12.3157 18.7126L10.9319 17.2687C10.9197 17.2804 10.9034 17.287 10.8863 17.287L10.8848 19.287ZM10.1151 19.1369C10.3617 19.2377 10.6256 19.2886 10.8917 19.2869L10.8794 17.287C10.8766 17.287 10.874 17.2865 10.8716 17.2855L10.1151 19.1369Z" fill="black" fill-opacity="0.2" mask="url(#path-1-inside-1_314_322)"/>
<path d="M22.7673 6.84865L21.9822 7.46797L21.9916 7.47987L22.0013 7.49148L22.7673 6.84865ZM18.4614 1.3899L19.2466 0.770579L19.2455 0.769178L18.4614 1.3899ZM23 7.49199L22 7.48777V7.49199H23ZM22.6955 23.5819L23.4026 24.289L23.4026 24.289L22.6955 23.5819ZM1.30454 23.5819L0.597431 24.289H0.597431L1.30454 23.5819ZM1 7.49199L0 7.4871V7.49199H1ZM1.23132 6.84865L2.00542 7.48171L2.01109 7.47478L2.01663 7.46774L1.23132 6.84865ZM5.53466 1.3899L4.75102 0.76869L4.74935 0.770805L5.53466 1.3899ZM5.89473 1.10194L5.46087 0.200962L5.46087 0.200962L5.89473 1.10194ZM6.34436 1.00001L6.34139 2.00001H6.34436V1.00001ZM17.6517 1.00001V2.00001L17.6553 2L17.6517 1.00001ZM18.1015 1.10178L17.6676 2.00276L17.6676 2.00277L18.1015 1.10178ZM4.09067 6.54974L3.30526 5.93077L2.02936 7.54974H4.09067V6.54974ZM6.84087 3.06006V2.06006H6.35574L6.05546 2.44108L6.84087 3.06006ZM10.9622 6.54974V7.54974H11.9622V6.54974H10.9622ZM10.9622 3.06006H11.9622V2.06006H10.9622V3.06006ZM13.0287 6.54974H12.0287V7.54974H13.0287V6.54974ZM13.0287 3.06006V2.06006H12.0287V3.06006H13.0287ZM19.9002 6.54974V7.54974H21.9615L20.6856 5.93078L19.9002 6.54974ZM17.1501 3.06006L17.9355 2.44109L17.6352 2.06006H17.1501V3.06006ZM20.9205 8.61622H21.9205V7.61622H20.9205V8.61622ZM20.9205 21.8108V22.8108H21.9205V21.8108H20.9205ZM3.06655 8.61622V7.61622H2.06655V8.61622H3.06655ZM3.06655 21.8108H2.06655V22.8108H3.06655V21.8108ZM10.1604 17.9907L9.45372 18.6982L9.4557 18.7002L10.1604 17.9907ZM10.4934 18.2112L10.1151 19.1369L10.1151 19.1369L10.4934 18.2112ZM8.19004 16.0229L7.41747 16.6578L7.44865 16.6958L7.48339 16.7305L8.19004 16.0229ZM7.95476 15.312L6.95594 15.2633L7.95476 15.312ZM8.2581 14.6275L8.96521 15.3346L8.96521 15.3346L8.2581 14.6275ZM8.94262 14.3242L8.99134 15.323H8.99134L8.94262 14.3242ZM9.65347 14.5595L10.3606 13.8523L10.3261 13.8179L10.2884 13.7869L9.65347 14.5595ZM10.8908 15.7967L10.1837 16.5039L10.8908 17.2109L11.5979 16.5038L10.8908 15.7967ZM14.335 12.3526L13.6294 11.6439L13.6279 11.6455L14.335 12.3526ZM14.8744 12.0679L15.0612 13.0503L15.0849 13.0458L15.1083 13.0402L14.8744 12.0679ZM15.3462 12.0887L15.0276 13.0366L15.0489 13.0438L15.0706 13.05L15.3462 12.0887ZM15.801 12.3642L15.0767 13.0538L15.0838 13.061L15.801 12.3642ZM15.7945 13.8199L16.5016 14.527L16.5055 14.5231L15.7945 13.8199ZM11.6238 17.9907L12.3157 18.7126L12.3234 18.7053L12.3309 18.6978L11.6238 17.9907ZM10.8856 18.287L10.8863 17.2869L10.8794 17.287L10.8856 18.287ZM23.5525 6.22933L19.2466 0.77058L17.6763 2.00922L21.9822 7.46797L23.5525 6.22933ZM24 7.49622C24.002 7.02436 23.8366 6.56716 23.5333 6.20581L22.0013 7.49148C22.0005 7.49049 22 7.48919 22 7.48777L24 7.49622ZM24 22.8467V7.49199H22V22.8467H24ZM23.4026 24.289C23.7851 23.9064 24 23.3876 24 22.8467H22C22 22.8572 21.9958 22.8673 21.9883 22.8748L23.4026 24.289ZM21.9602 24.8864C22.5012 24.8864 23.02 24.6715 23.4026 24.289L21.9883 22.8748C21.9809 22.8822 21.9708 22.8864 21.9602 22.8864V24.8864ZM2.03974 24.8864H21.9602V22.8864H2.03974V24.8864ZM0.597431 24.289C0.979951 24.6715 1.49875 24.8864 2.03974 24.8864V22.8864C2.02921 22.8864 2.01911 22.8822 2.01164 22.8748L0.597431 24.289ZM0 22.8467C0 23.3876 0.214911 23.9065 0.597431 24.289L2.01164 22.8748C2.00418 22.8673 2 22.8572 2 22.8467H0ZM0 7.49199V22.8467H2V7.49199H0ZM0.457218 6.21558C0.163615 6.5746 0.00227964 7.02347 1.19805e-05 7.4871L1.99999 7.49688C2.00002 7.49127 2.00196 7.48594 2.00542 7.48171L0.457218 6.21558ZM4.74935 0.770805L0.446003 6.22955L2.01663 7.46774L6.31998 2.009L4.74935 0.770805ZM5.46087 0.200962C5.18449 0.334052 4.94174 0.5281 4.75102 0.768693L6.31831 2.01111C6.32099 2.00773 6.32447 2.0049 6.32859 2.00292L5.46087 0.200962ZM6.34733 1.10865e-05C6.04036 -0.000900745 5.73729 0.0678523 5.46087 0.200962L6.32859 2.00292C6.33267 2.00096 6.33703 1.99999 6.34139 2L6.34733 1.10865e-05ZM17.6517 6.67572e-06H6.34436V2.00001H17.6517V6.67572e-06ZM18.5353 0.200804C18.2586 0.0675374 17.9552 -0.00108731 17.6482 1.30534e-05L17.6553 2C17.6596 1.99998 17.6638 2.00094 17.6676 2.00276L18.5353 0.200804ZM19.2455 0.769178C19.0548 0.5284 18.812 0.33405 18.5353 0.200801L17.6676 2.00277C17.6714 2.0046 17.6748 2.00728 17.6774 2.01062L19.2455 0.769178ZM4.87608 7.16872L7.62628 3.67903L6.05546 2.44108L3.30526 5.93077L4.87608 7.16872ZM10.9622 5.54974H4.09067V7.54974H10.9622V5.54974ZM9.96216 3.06006V6.54974H11.9622V3.06006H9.96216ZM6.84087 4.06006H10.9622V2.06006H6.84087V4.06006ZM14.0287 6.54974V3.06006H12.0287V6.54974H14.0287ZM19.9002 5.54974H13.0287V7.54974H19.9002V5.54974ZM16.3647 3.67902L19.1148 7.16871L20.6856 5.93078L17.9355 2.44109L16.3647 3.67902ZM13.0287 4.06006H17.1501V2.06006H13.0287V4.06006ZM19.9205 8.61622V21.8108H21.9205V8.61622H19.9205ZM3.06655 9.61622H20.9205V7.61622H3.06655V9.61622ZM4.06655 21.8108V8.61622H2.06655V21.8108H4.06655ZM20.9205 20.8108H3.06655V22.8108H20.9205V20.8108ZM9.4557 18.7002C9.64462 18.8878 9.86872 19.0362 10.1151 19.1369L10.8716 17.2855C10.8691 17.2845 10.8669 17.283 10.865 17.2812L9.4557 18.7002ZM7.48339 16.7305L9.45372 18.6982L10.867 17.2831L8.89669 15.3153L7.48339 16.7305ZM6.95594 15.2633C6.93126 15.7694 7.09588 16.2665 7.41747 16.6578L8.96261 15.388C8.95627 15.3802 8.95309 15.3705 8.95357 15.3608L6.95594 15.2633ZM7.551 13.9204C7.19289 14.2785 6.98063 14.7571 6.95594 15.2633L8.95357 15.3608C8.95404 15.3511 8.95811 15.3417 8.96521 15.3346L7.551 13.9204ZM8.8939 13.3254C8.38772 13.3501 7.9091 13.5623 7.551 13.9204L8.96521 15.3346C8.97231 15.3275 8.98165 15.3235 8.99134 15.323L8.8939 13.3254ZM10.2884 13.7869C9.89709 13.4653 9.40001 13.3007 8.8939 13.3254L8.99134 15.323C9.0011 15.3225 9.01083 15.3257 9.01854 15.332L10.2884 13.7869ZM11.5979 15.0896L10.3606 13.8523L8.94639 15.2666L10.1837 16.5039L11.5979 15.0896ZM13.6279 11.6455L10.1837 15.0896L11.5979 16.5038L15.0421 13.0597L13.6279 11.6455ZM14.6876 11.0856C14.2871 11.1617 13.9184 11.3561 13.6294 11.6439L15.0405 13.0612C15.0461 13.0557 15.0533 13.0518 15.0612 13.0503L14.6876 11.0856ZM15.6647 11.1408C15.3343 11.0298 14.9793 11.0142 14.6405 11.0957L15.1083 13.0402C15.0817 13.0466 15.0537 13.0454 15.0276 13.0366L15.6647 11.1408ZM16.5253 11.6748C16.2782 11.4151 15.9662 11.2262 15.6217 11.1275L15.0706 13.05C15.073 13.0507 15.0751 13.052 15.0767 13.0537L16.5253 11.6748ZM17.095 13.0979C17.0974 12.564 16.8903 12.0504 16.5183 11.6674L15.0838 13.061C15.091 13.0685 15.0951 13.0785 15.095 13.0889L17.095 13.0979ZM16.5055 14.5231C16.8809 14.1435 17.0926 13.6319 17.095 13.0979L15.095 13.0889C15.095 13.0993 15.0909 13.1093 15.0835 13.1167L16.5055 14.5231ZM12.3309 18.6978L16.5016 14.527L15.0874 13.1128L10.9167 17.2836L12.3309 18.6978ZM10.8848 19.287C11.418 19.2874 11.9307 19.0817 12.3157 18.7126L10.9319 17.2687C10.9197 17.2804 10.9034 17.287 10.8863 17.287L10.8848 19.287ZM10.1151 19.1369C10.3617 19.2377 10.6256 19.2886 10.8917 19.2869L10.8794 17.287C10.8766 17.287 10.874 17.2865 10.8716 17.2855L10.1151 19.1369Z" fill="black" fill-opacity="0.2" mask="url(#path-1-inside-1_314_322)"/>
<path d="M22.7673 6.84865L21.9822 7.46797L21.9916 7.47987L22.0013 7.49148L22.7673 6.84865ZM18.4614 1.3899L19.2466 0.770579L19.2455 0.769178L18.4614 1.3899ZM23 7.49199L22 7.48777V7.49199H23ZM22.6955 23.5819L23.4026 24.289L23.4026 24.289L22.6955 23.5819ZM1.30454 23.5819L0.597431 24.289H0.597431L1.30454 23.5819ZM1 7.49199L0 7.4871V7.49199H1ZM1.23132 6.84865L2.00542 7.48171L2.01109 7.47478L2.01663 7.46774L1.23132 6.84865ZM5.53466 1.3899L4.75102 0.76869L4.74935 0.770805L5.53466 1.3899ZM5.89473 1.10194L5.46087 0.200962L5.46087 0.200962L5.89473 1.10194ZM6.34436 1.00001L6.34139 2.00001H6.34436V1.00001ZM17.6517 1.00001V2.00001L17.6553 2L17.6517 1.00001ZM18.1015 1.10178L17.6676 2.00276L17.6676 2.00277L18.1015 1.10178ZM4.09067 6.54974L3.30526 5.93077L2.02936 7.54974H4.09067V6.54974ZM6.84087 3.06006V2.06006H6.35574L6.05546 2.44108L6.84087 3.06006ZM10.9622 6.54974V7.54974H11.9622V6.54974H10.9622ZM10.9622 3.06006H11.9622V2.06006H10.9622V3.06006ZM13.0287 6.54974H12.0287V7.54974H13.0287V6.54974ZM13.0287 3.06006V2.06006H12.0287V3.06006H13.0287ZM19.9002 6.54974V7.54974H21.9615L20.6856 5.93078L19.9002 6.54974ZM17.1501 3.06006L17.9355 2.44109L17.6352 2.06006H17.1501V3.06006ZM20.9205 8.61622H21.9205V7.61622H20.9205V8.61622ZM20.9205 21.8108V22.8108H21.9205V21.8108H20.9205ZM3.06655 8.61622V7.61622H2.06655V8.61622H3.06655ZM3.06655 21.8108H2.06655V22.8108H3.06655V21.8108ZM10.1604 17.9907L9.45372 18.6982L9.4557 18.7002L10.1604 17.9907ZM10.4934 18.2112L10.1151 19.1369L10.1151 19.1369L10.4934 18.2112ZM8.19004 16.0229L7.41747 16.6578L7.44865 16.6958L7.48339 16.7305L8.19004 16.0229ZM7.95476 15.312L6.95594 15.2633L7.95476 15.312ZM8.2581 14.6275L8.96521 15.3346L8.96521 15.3346L8.2581 14.6275ZM8.94262 14.3242L8.99134 15.323H8.99134L8.94262 14.3242ZM9.65347 14.5595L10.3606 13.8523L10.3261 13.8179L10.2884 13.7869L9.65347 14.5595ZM10.8908 15.7967L10.1837 16.5039L10.8908 17.2109L11.5979 16.5038L10.8908 15.7967ZM14.335 12.3526L13.6294 11.6439L13.6279 11.6455L14.335 12.3526ZM14.8744 12.0679L15.0612 13.0503L15.0849 13.0458L15.1083 13.0402L14.8744 12.0679ZM15.3462 12.0887L15.0276 13.0366L15.0489 13.0438L15.0706 13.05L15.3462 12.0887ZM15.801 12.3642L15.0767 13.0538L15.0838 13.061L15.801 12.3642ZM15.7945 13.8199L16.5016 14.527L16.5055 14.5231L15.7945 13.8199ZM11.6238 17.9907L12.3157 18.7126L12.3234 18.7053L12.3309 18.6978L11.6238 17.9907ZM10.8856 18.287L10.8863 17.2869L10.8794 17.287L10.8856 18.287ZM23.5525 6.22933L19.2466 0.77058L17.6763 2.00922L21.9822 7.46797L23.5525 6.22933ZM24 7.49622C24.002 7.02436 23.8366 6.56716 23.5333 6.20581L22.0013 7.49148C22.0005 7.49049 22 7.48919 22 7.48777L24 7.49622ZM24 22.8467V7.49199H22V22.8467H24ZM23.4026 24.289C23.7851 23.9064 24 23.3876 24 22.8467H22C22 22.8572 21.9958 22.8673 21.9883 22.8748L23.4026 24.289ZM21.9602 24.8864C22.5012 24.8864 23.02 24.6715 23.4026 24.289L21.9883 22.8748C21.9809 22.8822 21.9708 22.8864 21.9602 22.8864V24.8864ZM2.03974 24.8864H21.9602V22.8864H2.03974V24.8864ZM0.597431 24.289C0.979951 24.6715 1.49875 24.8864 2.03974 24.8864V22.8864C2.02921 22.8864 2.01911 22.8822 2.01164 22.8748L0.597431 24.289ZM0 22.8467C0 23.3876 0.214911 23.9065 0.597431 24.289L2.01164 22.8748C2.00418 22.8673 2 22.8572 2 22.8467H0ZM0 7.49199V22.8467H2V7.49199H0ZM0.457218 6.21558C0.163615 6.5746 0.00227964 7.02347 1.19805e-05 7.4871L1.99999 7.49688C2.00002 7.49127 2.00196 7.48594 2.00542 7.48171L0.457218 6.21558ZM4.74935 0.770805L0.446003 6.22955L2.01663 7.46774L6.31998 2.009L4.74935 0.770805ZM5.46087 0.200962C5.18449 0.334052 4.94174 0.5281 4.75102 0.768693L6.31831 2.01111C6.32099 2.00773 6.32447 2.0049 6.32859 2.00292L5.46087 0.200962ZM6.34733 1.10865e-05C6.04036 -0.000900745 5.73729 0.0678523 5.46087 0.200962L6.32859 2.00292C6.33267 2.00096 6.33703 1.99999 6.34139 2L6.34733 1.10865e-05ZM17.6517 6.67572e-06H6.34436V2.00001H17.6517V6.67572e-06ZM18.5353 0.200804C18.2586 0.0675374 17.9552 -0.00108731 17.6482 1.30534e-05L17.6553 2C17.6596 1.99998 17.6638 2.00094 17.6676 2.00276L18.5353 0.200804ZM19.2455 0.769178C19.0548 0.5284 18.812 0.33405 18.5353 0.200801L17.6676 2.00277C17.6714 2.0046 17.6748 2.00728 17.6774 2.01062L19.2455 0.769178ZM4.87608 7.16872L7.62628 3.67903L6.05546 2.44108L3.30526 5.93077L4.87608 7.16872ZM10.9622 5.54974H4.09067V7.54974H10.9622V5.54974ZM9.96216 3.06006V6.54974H11.9622V3.06006H9.96216ZM6.84087 4.06006H10.9622V2.06006H6.84087V4.06006ZM14.0287 6.54974V3.06006H12.0287V6.54974H14.0287ZM19.9002 5.54974H13.0287V7.54974H19.9002V5.54974ZM16.3647 3.67902L19.1148 7.16871L20.6856 5.93078L17.9355 2.44109L16.3647 3.67902ZM13.0287 4.06006H17.1501V2.06006H13.0287V4.06006ZM19.9205 8.61622V21.8108H21.9205V8.61622H19.9205ZM3.06655 9.61622H20.9205V7.61622H3.06655V9.61622ZM4.06655 21.8108V8.61622H2.06655V21.8108H4.06655ZM20.9205 20.8108H3.06655V22.8108H20.9205V20.8108ZM9.4557 18.7002C9.64462 18.8878 9.86872 19.0362 10.1151 19.1369L10.8716 17.2855C10.8691 17.2845 10.8669 17.283 10.865 17.2812L9.4557 18.7002ZM7.48339 16.7305L9.45372 18.6982L10.867 17.2831L8.89669 15.3153L7.48339 16.7305ZM6.95594 15.2633C6.93126 15.7694 7.09588 16.2665 7.41747 16.6578L8.96261 15.388C8.95627 15.3802 8.95309 15.3705 8.95357 15.3608L6.95594 15.2633ZM7.551 13.9204C7.19289 14.2785 6.98063 14.7571 6.95594 15.2633L8.95357 15.3608C8.95404 15.3511 8.95811 15.3417 8.96521 15.3346L7.551 13.9204ZM8.8939 13.3254C8.38772 13.3501 7.9091 13.5623 7.551 13.9204L8.96521 15.3346C8.97231 15.3275 8.98165 15.3235 8.99134 15.323L8.8939 13.3254ZM10.2884 13.7869C9.89709 13.4653 9.40001 13.3007 8.8939 13.3254L8.99134 15.323C9.0011 15.3225 9.01083 15.3257 9.01854 15.332L10.2884 13.7869ZM11.5979 15.0896L10.3606 13.8523L8.94639 15.2666L10.1837 16.5039L11.5979 15.0896ZM13.6279 11.6455L10.1837 15.0896L11.5979 16.5038L15.0421 13.0597L13.6279 11.6455ZM14.6876 11.0856C14.2871 11.1617 13.9184 11.3561 13.6294 11.6439L15.0405 13.0612C15.0461 13.0557 15.0533 13.0518 15.0612 13.0503L14.6876 11.0856ZM15.6647 11.1408C15.3343 11.0298 14.9793 11.0142 14.6405 11.0957L15.1083 13.0402C15.0817 13.0466 15.0537 13.0454 15.0276 13.0366L15.6647 11.1408ZM16.5253 11.6748C16.2782 11.4151 15.9662 11.2262 15.6217 11.1275L15.0706 13.05C15.073 13.0507 15.0751 13.052 15.0767 13.0537L16.5253 11.6748ZM17.095 13.0979C17.0974 12.564 16.8903 12.0504 16.5183 11.6674L15.0838 13.061C15.091 13.0685 15.0951 13.0785 15.095 13.0889L17.095 13.0979ZM16.5055 14.5231C16.8809 14.1435 17.0926 13.6319 17.095 13.0979L15.095 13.0889C15.095 13.0993 15.0909 13.1093 15.0835 13.1167L16.5055 14.5231ZM12.3309 18.6978L16.5016 14.527L15.0874 13.1128L10.9167 17.2836L12.3309 18.6978ZM10.8848 19.287C11.418 19.2874 11.9307 19.0817 12.3157 18.7126L10.9319 17.2687C10.9197 17.2804 10.9034 17.287 10.8863 17.287L10.8848 19.287ZM10.1151 19.1369C10.3617 19.2377 10.6256 19.2886 10.8917 19.2869L10.8794 17.287C10.8766 17.287 10.874 17.2865 10.8716 17.2855L10.1151 19.1369Z" fill="black" fill-opacity="0.2" mask="url(#path-1-inside-1_314_322)"/>
<path d="M22.7673 6.84865L21.9822 7.46797L21.9916 7.47987L22.0013 7.49148L22.7673 6.84865ZM18.4614 1.3899L19.2466 0.770579L19.2455 0.769178L18.4614 1.3899ZM23 7.49199L22 7.48777V7.49199H23ZM22.6955 23.5819L23.4026 24.289L23.4026 24.289L22.6955 23.5819ZM1.30454 23.5819L0.597431 24.289H0.597431L1.30454 23.5819ZM1 7.49199L0 7.4871V7.49199H1ZM1.23132 6.84865L2.00542 7.48171L2.01109 7.47478L2.01663 7.46774L1.23132 6.84865ZM5.53466 1.3899L4.75102 0.76869L4.74935 0.770805L5.53466 1.3899ZM5.89473 1.10194L5.46087 0.200962L5.46087 0.200962L5.89473 1.10194ZM6.34436 1.00001L6.34139 2.00001H6.34436V1.00001ZM17.6517 1.00001V2.00001L17.6553 2L17.6517 1.00001ZM18.1015 1.10178L17.6676 2.00276L17.6676 2.00277L18.1015 1.10178ZM4.09067 6.54974L3.30526 5.93077L2.02936 7.54974H4.09067V6.54974ZM6.84087 3.06006V2.06006H6.35574L6.05546 2.44108L6.84087 3.06006ZM10.9622 6.54974V7.54974H11.9622V6.54974H10.9622ZM10.9622 3.06006H11.9622V2.06006H10.9622V3.06006ZM13.0287 6.54974H12.0287V7.54974H13.0287V6.54974ZM13.0287 3.06006V2.06006H12.0287V3.06006H13.0287ZM19.9002 6.54974V7.54974H21.9615L20.6856 5.93078L19.9002 6.54974ZM17.1501 3.06006L17.9355 2.44109L17.6352 2.06006H17.1501V3.06006ZM20.9205 8.61622H21.9205V7.61622H20.9205V8.61622ZM20.9205 21.8108V22.8108H21.9205V21.8108H20.9205ZM3.06655 8.61622V7.61622H2.06655V8.61622H3.06655ZM3.06655 21.8108H2.06655V22.8108H3.06655V21.8108ZM10.1604 17.9907L9.45372 18.6982L9.4557 18.7002L10.1604 17.9907ZM10.4934 18.2112L10.1151 19.1369L10.1151 19.1369L10.4934 18.2112ZM8.19004 16.0229L7.41747 16.6578L7.44865 16.6958L7.48339 16.7305L8.19004 16.0229ZM7.95476 15.312L6.95594 15.2633L7.95476 15.312ZM8.2581 14.6275L8.96521 15.3346L8.96521 15.3346L8.2581 14.6275ZM8.94262 14.3242L8.99134 15.323H8.99134L8.94262 14.3242ZM9.65347 14.5595L10.3606 13.8523L10.3261 13.8179L10.2884 13.7869L9.65347 14.5595ZM10.8908 15.7967L10.1837 16.5039L10.8908 17.2109L11.5979 16.5038L10.8908 15.7967ZM14.335 12.3526L13.6294 11.6439L13.6279 11.6455L14.335 12.3526ZM14.8744 12.0679L15.0612 13.0503L15.0849 13.0458L15.1083 13.0402L14.8744 12.0679ZM15.3462 12.0887L15.0276 13.0366L15.0489 13.0438L15.0706 13.05L15.3462 12.0887ZM15.801 12.3642L15.0767 13.0538L15.0838 13.061L15.801 12.3642ZM15.7945 13.8199L16.5016 14.527L16.5055 14.5231L15.7945 13.8199ZM11.6238 17.9907L12.3157 18.7126L12.3234 18.7053L12.3309 18.6978L11.6238 17.9907ZM10.8856 18.287L10.8863 17.2869L10.8794 17.287L10.8856 18.287ZM23.5525 6.22933L19.2466 0.77058L17.6763 2.00922L21.9822 7.46797L23.5525 6.22933ZM24 7.49622C24.002 7.02436 23.8366 6.56716 23.5333 6.20581L22.0013 7.49148C22.0005 7.49049 22 7.48919 22 7.48777L24 7.49622ZM24 22.8467V7.49199H22V22.8467H24ZM23.4026 24.289C23.7851 23.9064 24 23.3876 24 22.8467H22C22 22.8572 21.9958 22.8673 21.9883 22.8748L23.4026 24.289ZM21.9602 24.8864C22.5012 24.8864 23.02 24.6715 23.4026 24.289L21.9883 22.8748C21.9809 22.8822 21.9708 22.8864 21.9602 22.8864V24.8864ZM2.03974 24.8864H21.9602V22.8864H2.03974V24.8864ZM0.597431 24.289C0.979951 24.6715 1.49875 24.8864 2.03974 24.8864V22.8864C2.02921 22.8864 2.01911 22.8822 2.01164 22.8748L0.597431 24.289ZM0 22.8467C0 23.3876 0.214911 23.9065 0.597431 24.289L2.01164 22.8748C2.00418 22.8673 2 22.8572 2 22.8467H0ZM0 7.49199V22.8467H2V7.49199H0ZM0.457218 6.21558C0.163615 6.5746 0.00227964 7.02347 1.19805e-05 7.4871L1.99999 7.49688C2.00002 7.49127 2.00196 7.48594 2.00542 7.48171L0.457218 6.21558ZM4.74935 0.770805L0.446003 6.22955L2.01663 7.46774L6.31998 2.009L4.74935 0.770805ZM5.46087 0.200962C5.18449 0.334052 4.94174 0.5281 4.75102 0.768693L6.31831 2.01111C6.32099 2.00773 6.32447 2.0049 6.32859 2.00292L5.46087 0.200962ZM6.34733 1.10865e-05C6.04036 -0.000900745 5.73729 0.0678523 5.46087 0.200962L6.32859 2.00292C6.33267 2.00096 6.33703 1.99999 6.34139 2L6.34733 1.10865e-05ZM17.6517 6.67572e-06H6.34436V2.00001H17.6517V6.67572e-06ZM18.5353 0.200804C18.2586 0.0675374 17.9552 -0.00108731 17.6482 1.30534e-05L17.6553 2C17.6596 1.99998 17.6638 2.00094 17.6676 2.00276L18.5353 0.200804ZM19.2455 0.769178C19.0548 0.5284 18.812 0.33405 18.5353 0.200801L17.6676 2.00277C17.6714 2.0046 17.6748 2.00728 17.6774 2.01062L19.2455 0.769178ZM4.87608 7.16872L7.62628 3.67903L6.05546 2.44108L3.30526 5.93077L4.87608 7.16872ZM10.9622 5.54974H4.09067V7.54974H10.9622V5.54974ZM9.96216 3.06006V6.54974H11.9622V3.06006H9.96216ZM6.84087 4.06006H10.9622V2.06006H6.84087V4.06006ZM14.0287 6.54974V3.06006H12.0287V6.54974H14.0287ZM19.9002 5.54974H13.0287V7.54974H19.9002V5.54974ZM16.3647 3.67902L19.1148 7.16871L20.6856 5.93078L17.9355 2.44109L16.3647 3.67902ZM13.0287 4.06006H17.1501V2.06006H13.0287V4.06006ZM19.9205 8.61622V21.8108H21.9205V8.61622H19.9205ZM3.06655 9.61622H20.9205V7.61622H3.06655V9.61622ZM4.06655 21.8108V8.61622H2.06655V21.8108H4.06655ZM20.9205 20.8108H3.06655V22.8108H20.9205V20.8108ZM9.4557 18.7002C9.64462 18.8878 9.86872 19.0362 10.1151 19.1369L10.8716 17.2855C10.8691 17.2845 10.8669 17.283 10.865 17.2812L9.4557 18.7002ZM7.48339 16.7305L9.45372 18.6982L10.867 17.2831L8.89669 15.3153L7.48339 16.7305ZM6.95594 15.2633C6.93126 15.7694 7.09588 16.2665 7.41747 16.6578L8.96261 15.388C8.95627 15.3802 8.95309 15.3705 8.95357 15.3608L6.95594 15.2633ZM7.551 13.9204C7.19289 14.2785 6.98063 14.7571 6.95594 15.2633L8.95357 15.3608C8.95404 15.3511 8.95811 15.3417 8.96521 15.3346L7.551 13.9204ZM8.8939 13.3254C8.38772 13.3501 7.9091 13.5623 7.551 13.9204L8.96521 15.3346C8.97231 15.3275 8.98165 15.3235 8.99134 15.323L8.8939 13.3254ZM10.2884 13.7869C9.89709 13.4653 9.40001 13.3007 8.8939 13.3254L8.99134 15.323C9.0011 15.3225 9.01083 15.3257 9.01854 15.332L10.2884 13.7869ZM11.5979 15.0896L10.3606 13.8523L8.94639 15.2666L10.1837 16.5039L11.5979 15.0896ZM13.6279 11.6455L10.1837 15.0896L11.5979 16.5038L15.0421 13.0597L13.6279 11.6455ZM14.6876 11.0856C14.2871 11.1617 13.9184 11.3561 13.6294 11.6439L15.0405 13.0612C15.0461 13.0557 15.0533 13.0518 15.0612 13.0503L14.6876 11.0856ZM15.6647 11.1408C15.3343 11.0298 14.9793 11.0142 14.6405 11.0957L15.1083 13.0402C15.0817 13.0466 15.0537 13.0454 15.0276 13.0366L15.6647 11.1408ZM16.5253 11.6748C16.2782 11.4151 15.9662 11.2262 15.6217 11.1275L15.0706 13.05C15.073 13.0507 15.0751 13.052 15.0767 13.0537L16.5253 11.6748ZM17.095 13.0979C17.0974 12.564 16.8903 12.0504 16.5183 11.6674L15.0838 13.061C15.091 13.0685 15.0951 13.0785 15.095 13.0889L17.095 13.0979ZM16.5055 14.5231C16.8809 14.1435 17.0926 13.6319 17.095 13.0979L15.095 13.0889C15.095 13.0993 15.0909 13.1093 15.0835 13.1167L16.5055 14.5231ZM12.3309 18.6978L16.5016 14.527L15.0874 13.1128L10.9167 17.2836L12.3309 18.6978ZM10.8848 19.287C11.418 19.2874 11.9307 19.0817 12.3157 18.7126L10.9319 17.2687C10.9197 17.2804 10.9034 17.287 10.8863 17.287L10.8848 19.287ZM10.1151 19.1369C10.3617 19.2377 10.6256 19.2886 10.8917 19.2869L10.8794 17.287C10.8766 17.287 10.874 17.2865 10.8716 17.2855L10.1151 19.1369Z" fill="black" fill-opacity="0.2" mask="url(#path-1-inside-1_314_322)"/>
<path d="M22.7673 6.84865L21.9822 7.46797L21.9916 7.47987L22.0013 7.49148L22.7673 6.84865ZM18.4614 1.3899L19.2466 0.770579L19.2455 0.769178L18.4614 1.3899ZM23 7.49199L22 7.48777V7.49199H23ZM22.6955 23.5819L23.4026 24.289L23.4026 24.289L22.6955 23.5819ZM1.30454 23.5819L0.597431 24.289H0.597431L1.30454 23.5819ZM1 7.49199L0 7.4871V7.49199H1ZM1.23132 6.84865L2.00542 7.48171L2.01109 7.47478L2.01663 7.46774L1.23132 6.84865ZM5.53466 1.3899L4.75102 0.76869L4.74935 0.770805L5.53466 1.3899ZM5.89473 1.10194L5.46087 0.200962L5.46087 0.200962L5.89473 1.10194ZM6.34436 1.00001L6.34139 2.00001H6.34436V1.00001ZM17.6517 1.00001V2.00001L17.6553 2L17.6517 1.00001ZM18.1015 1.10178L17.6676 2.00276L17.6676 2.00277L18.1015 1.10178ZM4.09067 6.54974L3.30526 5.93077L2.02936 7.54974H4.09067V6.54974ZM6.84087 3.06006V2.06006H6.35574L6.05546 2.44108L6.84087 3.06006ZM10.9622 6.54974V7.54974H11.9622V6.54974H10.9622ZM10.9622 3.06006H11.9622V2.06006H10.9622V3.06006ZM13.0287 6.54974H12.0287V7.54974H13.0287V6.54974ZM13.0287 3.06006V2.06006H12.0287V3.06006H13.0287ZM19.9002 6.54974V7.54974H21.9615L20.6856 5.93078L19.9002 6.54974ZM17.1501 3.06006L17.9355 2.44109L17.6352 2.06006H17.1501V3.06006ZM20.9205 8.61622H21.9205V7.61622H20.9205V8.61622ZM20.9205 21.8108V22.8108H21.9205V21.8108H20.9205ZM3.06655 8.61622V7.61622H2.06655V8.61622H3.06655ZM3.06655 21.8108H2.06655V22.8108H3.06655V21.8108ZM10.1604 17.9907L9.45372 18.6982L9.4557 18.7002L10.1604 17.9907ZM10.4934 18.2112L10.1151 19.1369L10.1151 19.1369L10.4934 18.2112ZM8.19004 16.0229L7.41747 16.6578L7.44865 16.6958L7.48339 16.7305L8.19004 16.0229ZM7.95476 15.312L6.95594 15.2633L7.95476 15.312ZM8.2581 14.6275L8.96521 15.3346L8.96521 15.3346L8.2581 14.6275ZM8.94262 14.3242L8.99134 15.323H8.99134L8.94262 14.3242ZM9.65347 14.5595L10.3606 13.8523L10.3261 13.8179L10.2884 13.7869L9.65347 14.5595ZM10.8908 15.7967L10.1837 16.5039L10.8908 17.2109L11.5979 16.5038L10.8908 15.7967ZM14.335 12.3526L13.6294 11.6439L13.6279 11.6455L14.335 12.3526ZM14.8744 12.0679L15.0612 13.0503L15.0849 13.0458L15.1083 13.0402L14.8744 12.0679ZM15.3462 12.0887L15.0276 13.0366L15.0489 13.0438L15.0706 13.05L15.3462 12.0887ZM15.801 12.3642L15.0767 13.0538L15.0838 13.061L15.801 12.3642ZM15.7945 13.8199L16.5016 14.527L16.5055 14.5231L15.7945 13.8199ZM11.6238 17.9907L12.3157 18.7126L12.3234 18.7053L12.3309 18.6978L11.6238 17.9907ZM10.8856 18.287L10.8863 17.2869L10.8794 17.287L10.8856 18.287ZM23.5525 6.22933L19.2466 0.77058L17.6763 2.00922L21.9822 7.46797L23.5525 6.22933ZM24 7.49622C24.002 7.02436 23.8366 6.56716 23.5333 6.20581L22.0013 7.49148C22.0005 7.49049 22 7.48919 22 7.48777L24 7.49622ZM24 22.8467V7.49199H22V22.8467H24ZM23.4026 24.289C23.7851 23.9064 24 23.3876 24 22.8467H22C22 22.8572 21.9958 22.8673 21.9883 22.8748L23.4026 24.289ZM21.9602 24.8864C22.5012 24.8864 23.02 24.6715 23.4026 24.289L21.9883 22.8748C21.9809 22.8822 21.9708 22.8864 21.9602 22.8864V24.8864ZM2.03974 24.8864H21.9602V22.8864H2.03974V24.8864ZM0.597431 24.289C0.979951 24.6715 1.49875 24.8864 2.03974 24.8864V22.8864C2.02921 22.8864 2.01911 22.8822 2.01164 22.8748L0.597431 24.289ZM0 22.8467C0 23.3876 0.214911 23.9065 0.597431 24.289L2.01164 22.8748C2.00418 22.8673 2 22.8572 2 22.8467H0ZM0 7.49199V22.8467H2V7.49199H0ZM0.457218 6.21558C0.163615 6.5746 0.00227964 7.02347 1.19805e-05 7.4871L1.99999 7.49688C2.00002 7.49127 2.00196 7.48594 2.00542 7.48171L0.457218 6.21558ZM4.74935 0.770805L0.446003 6.22955L2.01663 7.46774L6.31998 2.009L4.74935 0.770805ZM5.46087 0.200962C5.18449 0.334052 4.94174 0.5281 4.75102 0.768693L6.31831 2.01111C6.32099 2.00773 6.32447 2.0049 6.32859 2.00292L5.46087 0.200962ZM6.34733 1.10865e-05C6.04036 -0.000900745 5.73729 0.0678523 5.46087 0.200962L6.32859 2.00292C6.33267 2.00096 6.33703 1.99999 6.34139 2L6.34733 1.10865e-05ZM17.6517 6.67572e-06H6.34436V2.00001H17.6517V6.67572e-06ZM18.5353 0.200804C18.2586 0.0675374 17.9552 -0.00108731 17.6482 1.30534e-05L17.6553 2C17.6596 1.99998 17.6638 2.00094 17.6676 2.00276L18.5353 0.200804ZM19.2455 0.769178C19.0548 0.5284 18.812 0.33405 18.5353 0.200801L17.6676 2.00277C17.6714 2.0046 17.6748 2.00728 17.6774 2.01062L19.2455 0.769178ZM4.87608 7.16872L7.62628 3.67903L6.05546 2.44108L3.30526 5.93077L4.87608 7.16872ZM10.9622 5.54974H4.09067V7.54974H10.9622V5.54974ZM9.96216 3.06006V6.54974H11.9622V3.06006H9.96216ZM6.84087 4.06006H10.9622V2.06006H6.84087V4.06006ZM14.0287 6.54974V3.06006H12.0287V6.54974H14.0287ZM19.9002 5.54974H13.0287V7.54974H19.9002V5.54974ZM16.3647 3.67902L19.1148 7.16871L20.6856 5.93078L17.9355 2.44109L16.3647 3.67902ZM13.0287 4.06006H17.1501V2.06006H13.0287V4.06006ZM19.9205 8.61622V21.8108H21.9205V8.61622H19.9205ZM3.06655 9.61622H20.9205V7.61622H3.06655V9.61622ZM4.06655 21.8108V8.61622H2.06655V21.8108H4.06655ZM20.9205 20.8108H3.06655V22.8108H20.9205V20.8108ZM9.4557 18.7002C9.64462 18.8878 9.86872 19.0362 10.1151 19.1369L10.8716 17.2855C10.8691 17.2845 10.8669 17.283 10.865 17.2812L9.4557 18.7002ZM7.48339 16.7305L9.45372 18.6982L10.867 17.2831L8.89669 15.3153L7.48339 16.7305ZM6.95594 15.2633C6.93126 15.7694 7.09588 16.2665 7.41747 16.6578L8.96261 15.388C8.95627 15.3802 8.95309 15.3705 8.95357 15.3608L6.95594 15.2633ZM7.551 13.9204C7.19289 14.2785 6.98063 14.7571 6.95594 15.2633L8.95357 15.3608C8.95404 15.3511 8.95811 15.3417 8.96521 15.3346L7.551 13.9204ZM8.8939 13.3254C8.38772 13.3501 7.9091 13.5623 7.551 13.9204L8.96521 15.3346C8.97231 15.3275 8.98165 15.3235 8.99134 15.323L8.8939 13.3254ZM10.2884 13.7869C9.89709 13.4653 9.40001 13.3007 8.8939 13.3254L8.99134 15.323C9.0011 15.3225 9.01083 15.3257 9.01854 15.332L10.2884 13.7869ZM11.5979 15.0896L10.3606 13.8523L8.94639 15.2666L10.1837 16.5039L11.5979 15.0896ZM13.6279 11.6455L10.1837 15.0896L11.5979 16.5038L15.0421 13.0597L13.6279 11.6455ZM14.6876 11.0856C14.2871 11.1617 13.9184 11.3561 13.6294 11.6439L15.0405 13.0612C15.0461 13.0557 15.0533 13.0518 15.0612 13.0503L14.6876 11.0856ZM15.6647 11.1408C15.3343 11.0298 14.9793 11.0142 14.6405 11.0957L15.1083 13.0402C15.0817 13.0466 15.0537 13.0454 15.0276 13.0366L15.6647 11.1408ZM16.5253 11.6748C16.2782 11.4151 15.9662 11.2262 15.6217 11.1275L15.0706 13.05C15.073 13.0507 15.0751 13.052 15.0767 13.0537L16.5253 11.6748ZM17.095 13.0979C17.0974 12.564 16.8903 12.0504 16.5183 11.6674L15.0838 13.061C15.091 13.0685 15.0951 13.0785 15.095 13.0889L17.095 13.0979ZM16.5055 14.5231C16.8809 14.1435 17.0926 13.6319 17.095 13.0979L15.095 13.0889C15.095 13.0993 15.0909 13.1093 15.0835 13.1167L16.5055 14.5231ZM12.3309 18.6978L16.5016 14.527L15.0874 13.1128L10.9167 17.2836L12.3309 18.6978ZM10.8848 19.287C11.418 19.2874 11.9307 19.0817 12.3157 18.7126L10.9319 17.2687C10.9197 17.2804 10.9034 17.287 10.8863 17.287L10.8848 19.287ZM10.1151 19.1369C10.3617 19.2377 10.6256 19.2886 10.8917 19.2869L10.8794 17.287C10.8766 17.287 10.874 17.2865 10.8716 17.2855L10.1151 19.1369Z" fill="black" fill-opacity="0.2" mask="url(#path-1-inside-1_314_322)"/>
<path d="M22.7673 6.84865L21.9822 7.46797L21.9916 7.47987L22.0013 7.49148L22.7673 6.84865ZM18.4614 1.3899L19.2466 0.770579L19.2455 0.769178L18.4614 1.3899ZM23 7.49199L22 7.48777V7.49199H23ZM22.6955 23.5819L23.4026 24.289L23.4026 24.289L22.6955 23.5819ZM1.30454 23.5819L0.597431 24.289H0.597431L1.30454 23.5819ZM1 7.49199L0 7.4871V7.49199H1ZM1.23132 6.84865L2.00542 7.48171L2.01109 7.47478L2.01663 7.46774L1.23132 6.84865ZM5.53466 1.3899L4.75102 0.76869L4.74935 0.770805L5.53466 1.3899ZM5.89473 1.10194L5.46087 0.200962L5.46087 0.200962L5.89473 1.10194ZM6.34436 1.00001L6.34139 2.00001H6.34436V1.00001ZM17.6517 1.00001V2.00001L17.6553 2L17.6517 1.00001ZM18.1015 1.10178L17.6676 2.00276L17.6676 2.00277L18.1015 1.10178ZM4.09067 6.54974L3.30526 5.93077L2.02936 7.54974H4.09067V6.54974ZM6.84087 3.06006V2.06006H6.35574L6.05546 2.44108L6.84087 3.06006ZM10.9622 6.54974V7.54974H11.9622V6.54974H10.9622ZM10.9622 3.06006H11.9622V2.06006H10.9622V3.06006ZM13.0287 6.54974H12.0287V7.54974H13.0287V6.54974ZM13.0287 3.06006V2.06006H12.0287V3.06006H13.0287ZM19.9002 6.54974V7.54974H21.9615L20.6856 5.93078L19.9002 6.54974ZM17.1501 3.06006L17.9355 2.44109L17.6352 2.06006H17.1501V3.06006ZM20.9205 8.61622H21.9205V7.61622H20.9205V8.61622ZM20.9205 21.8108V22.8108H21.9205V21.8108H20.9205ZM3.06655 8.61622V7.61622H2.06655V8.61622H3.06655ZM3.06655 21.8108H2.06655V22.8108H3.06655V21.8108ZM10.1604 17.9907L9.45372 18.6982L9.4557 18.7002L10.1604 17.9907ZM10.4934 18.2112L10.1151 19.1369L10.1151 19.1369L10.4934 18.2112ZM8.19004 16.0229L7.41747 16.6578L7.44865 16.6958L7.48339 16.7305L8.19004 16.0229ZM7.95476 15.312L6.95594 15.2633L7.95476 15.312ZM8.2581 14.6275L8.96521 15.3346L8.96521 15.3346L8.2581 14.6275ZM8.94262 14.3242L8.99134 15.323H8.99134L8.94262 14.3242ZM9.65347 14.5595L10.3606 13.8523L10.3261 13.8179L10.2884 13.7869L9.65347 14.5595ZM10.8908 15.7967L10.1837 16.5039L10.8908 17.2109L11.5979 16.5038L10.8908 15.7967ZM14.335 12.3526L13.6294 11.6439L13.6279 11.6455L14.335 12.3526ZM14.8744 12.0679L15.0612 13.0503L15.0849 13.0458L15.1083 13.0402L14.8744 12.0679ZM15.3462 12.0887L15.0276 13.0366L15.0489 13.0438L15.0706 13.05L15.3462 12.0887ZM15.801 12.3642L15.0767 13.0538L15.0838 13.061L15.801 12.3642ZM15.7945 13.8199L16.5016 14.527L16.5055 14.5231L15.7945 13.8199ZM11.6238 17.9907L12.3157 18.7126L12.3234 18.7053L12.3309 18.6978L11.6238 17.9907ZM10.8856 18.287L10.8863 17.2869L10.8794 17.287L10.8856 18.287ZM23.5525 6.22933L19.2466 0.77058L17.6763 2.00922L21.9822 7.46797L23.5525 6.22933ZM24 7.49622C24.002 7.02436 23.8366 6.56716 23.5333 6.20581L22.0013 7.49148C22.0005 7.49049 22 7.48919 22 7.48777L24 7.49622ZM24 22.8467V7.49199H22V22.8467H24ZM23.4026 24.289C23.7851 23.9064 24 23.3876 24 22.8467H22C22 22.8572 21.9958 22.8673 21.9883 22.8748L23.4026 24.289ZM21.9602 24.8864C22.5012 24.8864 23.02 24.6715 23.4026 24.289L21.9883 22.8748C21.9809 22.8822 21.9708 22.8864 21.9602 22.8864V24.8864ZM2.03974 24.8864H21.9602V22.8864H2.03974V24.8864ZM0.597431 24.289C0.979951 24.6715 1.49875 24.8864 2.03974 24.8864V22.8864C2.02921 22.8864 2.01911 22.8822 2.01164 22.8748L0.597431 24.289ZM0 22.8467C0 23.3876 0.214911 23.9065 0.597431 24.289L2.01164 22.8748C2.00418 22.8673 2 22.8572 2 22.8467H0ZM0 7.49199V22.8467H2V7.49199H0ZM0.457218 6.21558C0.163615 6.5746 0.00227964 7.02347 1.19805e-05 7.4871L1.99999 7.49688C2.00002 7.49127 2.00196 7.48594 2.00542 7.48171L0.457218 6.21558ZM4.74935 0.770805L0.446003 6.22955L2.01663 7.46774L6.31998 2.009L4.74935 0.770805ZM5.46087 0.200962C5.18449 0.334052 4.94174 0.5281 4.75102 0.768693L6.31831 2.01111C6.32099 2.00773 6.32447 2.0049 6.32859 2.00292L5.46087 0.200962ZM6.34733 1.10865e-05C6.04036 -0.000900745 5.73729 0.0678523 5.46087 0.200962L6.32859 2.00292C6.33267 2.00096 6.33703 1.99999 6.34139 2L6.34733 1.10865e-05ZM17.6517 6.67572e-06H6.34436V2.00001H17.6517V6.67572e-06ZM18.5353 0.200804C18.2586 0.0675374 17.9552 -0.00108731 17.6482 1.30534e-05L17.6553 2C17.6596 1.99998 17.6638 2.00094 17.6676 2.00276L18.5353 0.200804ZM19.2455 0.769178C19.0548 0.5284 18.812 0.33405 18.5353 0.200801L17.6676 2.00277C17.6714 2.0046 17.6748 2.00728 17.6774 2.01062L19.2455 0.769178ZM4.87608 7.16872L7.62628 3.67903L6.05546 2.44108L3.30526 5.93077L4.87608 7.16872ZM10.9622 5.54974H4.09067V7.54974H10.9622V5.54974ZM9.96216 3.06006V6.54974H11.9622V3.06006H9.96216ZM6.84087 4.06006H10.9622V2.06006H6.84087V4.06006ZM14.0287 6.54974V3.06006H12.0287V6.54974H14.0287ZM19.9002 5.54974H13.0287V7.54974H19.9002V5.54974ZM16.3647 3.67902L19.1148 7.16871L20.6856 5.93078L17.9355 2.44109L16.3647 3.67902ZM13.0287 4.06006H17.1501V2.06006H13.0287V4.06006ZM19.9205 8.61622V21.8108H21.9205V8.61622H19.9205ZM3.06655 9.61622H20.9205V7.61622H3.06655V9.61622ZM4.06655 21.8108V8.61622H2.06655V21.8108H4.06655ZM20.9205 20.8108H3.06655V22.8108H20.9205V20.8108ZM9.4557 18.7002C9.64462 18.8878 9.86872 19.0362 10.1151 19.1369L10.8716 17.2855C10.8691 17.2845 10.8669 17.283 10.865 17.2812L9.4557 18.7002ZM7.48339 16.7305L9.45372 18.6982L10.867 17.2831L8.89669 15.3153L7.48339 16.7305ZM6.95594 15.2633C6.93126 15.7694 7.09588 16.2665 7.41747 16.6578L8.96261 15.388C8.95627 15.3802 8.95309 15.3705 8.95357 15.3608L6.95594 15.2633ZM7.551 13.9204C7.19289 14.2785 6.98063 14.7571 6.95594 15.2633L8.95357 15.3608C8.95404 15.3511 8.95811 15.3417 8.96521 15.3346L7.551 13.9204ZM8.8939 13.3254C8.38772 13.3501 7.9091 13.5623 7.551 13.9204L8.96521 15.3346C8.97231 15.3275 8.98165 15.3235 8.99134 15.323L8.8939 13.3254ZM10.2884 13.7869C9.89709 13.4653 9.40001 13.3007 8.8939 13.3254L8.99134 15.323C9.0011 15.3225 9.01083 15.3257 9.01854 15.332L10.2884 13.7869ZM11.5979 15.0896L10.3606 13.8523L8.94639 15.2666L10.1837 16.5039L11.5979 15.0896ZM13.6279 11.6455L10.1837 15.0896L11.5979 16.5038L15.0421 13.0597L13.6279 11.6455ZM14.6876 11.0856C14.2871 11.1617 13.9184 11.3561 13.6294 11.6439L15.0405 13.0612C15.0461 13.0557 15.0533 13.0518 15.0612 13.0503L14.6876 11.0856ZM15.6647 11.1408C15.3343 11.0298 14.9793 11.0142 14.6405 11.0957L15.1083 13.0402C15.0817 13.0466 15.0537 13.0454 15.0276 13.0366L15.6647 11.1408ZM16.5253 11.6748C16.2782 11.4151 15.9662 11.2262 15.6217 11.1275L15.0706 13.05C15.073 13.0507 15.0751 13.052 15.0767 13.0537L16.5253 11.6748ZM17.095 13.0979C17.0974 12.564 16.8903 12.0504 16.5183 11.6674L15.0838 13.061C15.091 13.0685 15.0951 13.0785 15.095 13.0889L17.095 13.0979ZM16.5055 14.5231C16.8809 14.1435 17.0926 13.6319 17.095 13.0979L15.095 13.0889C15.095 13.0993 15.0909 13.1093 15.0835 13.1167L16.5055 14.5231ZM12.3309 18.6978L16.5016 14.527L15.0874 13.1128L10.9167 17.2836L12.3309 18.6978ZM10.8848 19.287C11.418 19.2874 11.9307 19.0817 12.3157 18.7126L10.9319 17.2687C10.9197 17.2804 10.9034 17.287 10.8863 17.287L10.8848 19.287ZM10.1151 19.1369C10.3617 19.2377 10.6256 19.2886 10.8917 19.2869L10.8794 17.287C10.8766 17.287 10.874 17.2865 10.8716 17.2855L10.1151 19.1369Z" fill="black" fill-opacity="0.2" mask="url(#path-1-inside-1_314_322)"/>
<path d="M22.7673 6.84865L21.9822 7.46797L21.9916 7.47987L22.0013 7.49148L22.7673 6.84865ZM18.4614 1.3899L19.2466 0.770579L19.2455 0.769178L18.4614 1.3899ZM23 7.49199L22 7.48777V7.49199H23ZM22.6955 23.5819L23.4026 24.289L23.4026 24.289L22.6955 23.5819ZM1.30454 23.5819L0.597431 24.289H0.597431L1.30454 23.5819ZM1 7.49199L0 7.4871V7.49199H1ZM1.23132 6.84865L2.00542 7.48171L2.01109 7.47478L2.01663 7.46774L1.23132 6.84865ZM5.53466 1.3899L4.75102 0.76869L4.74935 0.770805L5.53466 1.3899ZM5.89473 1.10194L5.46087 0.200962L5.46087 0.200962L5.89473 1.10194ZM6.34436 1.00001L6.34139 2.00001H6.34436V1.00001ZM17.6517 1.00001V2.00001L17.6553 2L17.6517 1.00001ZM18.1015 1.10178L17.6676 2.00276L17.6676 2.00277L18.1015 1.10178ZM4.09067 6.54974L3.30526 5.93077L2.02936 7.54974H4.09067V6.54974ZM6.84087 3.06006V2.06006H6.35574L6.05546 2.44108L6.84087 3.06006ZM10.9622 6.54974V7.54974H11.9622V6.54974H10.9622ZM10.9622 3.06006H11.9622V2.06006H10.9622V3.06006ZM13.0287 6.54974H12.0287V7.54974H13.0287V6.54974ZM13.0287 3.06006V2.06006H12.0287V3.06006H13.0287ZM19.9002 6.54974V7.54974H21.9615L20.6856 5.93078L19.9002 6.54974ZM17.1501 3.06006L17.9355 2.44109L17.6352 2.06006H17.1501V3.06006ZM20.9205 8.61622H21.9205V7.61622H20.9205V8.61622ZM20.9205 21.8108V22.8108H21.9205V21.8108H20.9205ZM3.06655 8.61622V7.61622H2.06655V8.61622H3.06655ZM3.06655 21.8108H2.06655V22.8108H3.06655V21.8108ZM10.1604 17.9907L9.45372 18.6982L9.4557 18.7002L10.1604 17.9907ZM10.4934 18.2112L10.1151 19.1369L10.1151 19.1369L10.4934 18.2112ZM8.19004 16.0229L7.41747 16.6578L7.44865 16.6958L7.48339 16.7305L8.19004 16.0229ZM7.95476 15.312L6.95594 15.2633L7.95476 15.312ZM8.2581 14.6275L8.96521 15.3346L8.96521 15.3346L8.2581 14.6275ZM8.94262 14.3242L8.99134 15.323H8.99134L8.94262 14.3242ZM9.65347 14.5595L10.3606 13.8523L10.3261 13.8179L10.2884 13.7869L9.65347 14.5595ZM10.8908 15.7967L10.1837 16.5039L10.8908 17.2109L11.5979 16.5038L10.8908 15.7967ZM14.335 12.3526L13.6294 11.6439L13.6279 11.6455L14.335 12.3526ZM14.8744 12.0679L15.0612 13.0503L15.0849 13.0458L15.1083 13.0402L14.8744 12.0679ZM15.3462 12.0887L15.0276 13.0366L15.0489 13.0438L15.0706 13.05L15.3462 12.0887ZM15.801 12.3642L15.0767 13.0538L15.0838 13.061L15.801 12.3642ZM15.7945 13.8199L16.5016 14.527L16.5055 14.5231L15.7945 13.8199ZM11.6238 17.9907L12.3157 18.7126L12.3234 18.7053L12.3309 18.6978L11.6238 17.9907ZM10.8856 18.287L10.8863 17.2869L10.8794 17.287L10.8856 18.287ZM23.5525 6.22933L19.2466 0.77058L17.6763 2.00922L21.9822 7.46797L23.5525 6.22933ZM24 7.49622C24.002 7.02436 23.8366 6.56716 23.5333 6.20581L22.0013 7.49148C22.0005 7.49049 22 7.48919 22 7.48777L24 7.49622ZM24 22.8467V7.49199H22V22.8467H24ZM23.4026 24.289C23.7851 23.9064 24 23.3876 24 22.8467H22C22 22.8572 21.9958 22.8673 21.9883 22.8748L23.4026 24.289ZM21.9602 24.8864C22.5012 24.8864 23.02 24.6715 23.4026 24.289L21.9883 22.8748C21.9809 22.8822 21.9708 22.8864 21.9602 22.8864V24.8864ZM2.03974 24.8864H21.9602V22.8864H2.03974V24.8864ZM0.597431 24.289C0.979951 24.6715 1.49875 24.8864 2.03974 24.8864V22.8864C2.02921 22.8864 2.01911 22.8822 2.01164 22.8748L0.597431 24.289ZM0 22.8467C0 23.3876 0.214911 23.9065 0.597431 24.289L2.01164 22.8748C2.00418 22.8673 2 22.8572 2 22.8467H0ZM0 7.49199V22.8467H2V7.49199H0ZM0.457218 6.21558C0.163615 6.5746 0.00227964 7.02347 1.19805e-05 7.4871L1.99999 7.49688C2.00002 7.49127 2.00196 7.48594 2.00542 7.48171L0.457218 6.21558ZM4.74935 0.770805L0.446003 6.22955L2.01663 7.46774L6.31998 2.009L4.74935 0.770805ZM5.46087 0.200962C5.18449 0.334052 4.94174 0.5281 4.75102 0.768693L6.31831 2.01111C6.32099 2.00773 6.32447 2.0049 6.32859 2.00292L5.46087 0.200962ZM6.34733 1.10865e-05C6.04036 -0.000900745 5.73729 0.0678523 5.46087 0.200962L6.32859 2.00292C6.33267 2.00096 6.33703 1.99999 6.34139 2L6.34733 1.10865e-05ZM17.6517 6.67572e-06H6.34436V2.00001H17.6517V6.67572e-06ZM18.5353 0.200804C18.2586 0.0675374 17.9552 -0.00108731 17.6482 1.30534e-05L17.6553 2C17.6596 1.99998 17.6638 2.00094 17.6676 2.00276L18.5353 0.200804ZM19.2455 0.769178C19.0548 0.5284 18.812 0.33405 18.5353 0.200801L17.6676 2.00277C17.6714 2.0046 17.6748 2.00728 17.6774 2.01062L19.2455 0.769178ZM4.87608 7.16872L7.62628 3.67903L6.05546 2.44108L3.30526 5.93077L4.87608 7.16872ZM10.9622 5.54974H4.09067V7.54974H10.9622V5.54974ZM9.96216 3.06006V6.54974H11.9622V3.06006H9.96216ZM6.84087 4.06006H10.9622V2.06006H6.84087V4.06006ZM14.0287 6.54974V3.06006H12.0287V6.54974H14.0287ZM19.9002 5.54974H13.0287V7.54974H19.9002V5.54974ZM16.3647 3.67902L19.1148 7.16871L20.6856 5.93078L17.9355 2.44109L16.3647 3.67902ZM13.0287 4.06006H17.1501V2.06006H13.0287V4.06006ZM19.9205 8.61622V21.8108H21.9205V8.61622H19.9205ZM3.06655 9.61622H20.9205V7.61622H3.06655V9.61622ZM4.06655 21.8108V8.61622H2.06655V21.8108H4.06655ZM20.9205 20.8108H3.06655V22.8108H20.9205V20.8108ZM9.4557 18.7002C9.64462 18.8878 9.86872 19.0362 10.1151 19.1369L10.8716 17.2855C10.8691 17.2845 10.8669 17.283 10.865 17.2812L9.4557 18.7002ZM7.48339 16.7305L9.45372 18.6982L10.867 17.2831L8.89669 15.3153L7.48339 16.7305ZM6.95594 15.2633C6.93126 15.7694 7.09588 16.2665 7.41747 16.6578L8.96261 15.388C8.95627 15.3802 8.95309 15.3705 8.95357 15.3608L6.95594 15.2633ZM7.551 13.9204C7.19289 14.2785 6.98063 14.7571 6.95594 15.2633L8.95357 15.3608C8.95404 15.3511 8.95811 15.3417 8.96521 15.3346L7.551 13.9204ZM8.8939 13.3254C8.38772 13.3501 7.9091 13.5623 7.551 13.9204L8.96521 15.3346C8.97231 15.3275 8.98165 15.3235 8.99134 15.323L8.8939 13.3254ZM10.2884 13.7869C9.89709 13.4653 9.40001 13.3007 8.8939 13.3254L8.99134 15.323C9.0011 15.3225 9.01083 15.3257 9.01854 15.332L10.2884 13.7869ZM11.5979 15.0896L10.3606 13.8523L8.94639 15.2666L10.1837 16.5039L11.5979 15.0896ZM13.6279 11.6455L10.1837 15.0896L11.5979 16.5038L15.0421 13.0597L13.6279 11.6455ZM14.6876 11.0856C14.2871 11.1617 13.9184 11.3561 13.6294 11.6439L15.0405 13.0612C15.0461 13.0557 15.0533 13.0518 15.0612 13.0503L14.6876 11.0856ZM15.6647 11.1408C15.3343 11.0298 14.9793 11.0142 14.6405 11.0957L15.1083 13.0402C15.0817 13.0466 15.0537 13.0454 15.0276 13.0366L15.6647 11.1408ZM16.5253 11.6748C16.2782 11.4151 15.9662 11.2262 15.6217 11.1275L15.0706 13.05C15.073 13.0507 15.0751 13.052 15.0767 13.0537L16.5253 11.6748ZM17.095 13.0979C17.0974 12.564 16.8903 12.0504 16.5183 11.6674L15.0838 13.061C15.091 13.0685 15.0951 13.0785 15.095 13.0889L17.095 13.0979ZM16.5055 14.5231C16.8809 14.1435 17.0926 13.6319 17.095 13.0979L15.095 13.0889C15.095 13.0993 15.0909 13.1093 15.0835 13.1167L16.5055 14.5231ZM12.3309 18.6978L16.5016 14.527L15.0874 13.1128L10.9167 17.2836L12.3309 18.6978ZM10.8848 19.287C11.418 19.2874 11.9307 19.0817 12.3157 18.7126L10.9319 17.2687C10.9197 17.2804 10.9034 17.287 10.8863 17.287L10.8848 19.287ZM10.1151 19.1369C10.3617 19.2377 10.6256 19.2886 10.8917 19.2869L10.8794 17.287C10.8766 17.287 10.874 17.2865 10.8716 17.2855L10.1151 19.1369Z" fill="black" fill-opacity="0.2" mask="url(#path-1-inside-1_314_322)"/>
</svg>
