<svg width="32" height="32" viewBox="0 0 32 32" fill="none" xmlns="http://www.w3.org/2000/svg">
<g clip-path="url(#clip0_300_144)">
<path d="M27.307 4.67965C24.6882 2.06392 21.2435 0.437066 17.5598 0.0762352C13.876 -0.284596 10.1811 0.642896 7.10454 2.70074C4.02795 4.75859 1.75994 7.81948 0.686991 11.3619C-0.385962 14.9044 -0.197527 18.7093 1.22019 22.1284C2.6379 25.5475 5.19719 28.3693 8.46206 30.1131C11.7269 31.8569 15.4954 32.4148 19.1255 31.6917C22.7556 30.9687 26.0227 29.0095 28.3702 26.1478C30.7178 23.2861 32.0005 19.699 32 15.9976C32.0019 13.895 31.5883 11.8127 30.7829 9.87034C29.9775 7.92802 28.7963 6.164 27.307 4.67965ZM20.4523 9.71109H18.3445C17.6006 9.71109 17.4458 10.0106 17.4458 10.7855V12.6447H20.4523L20.1628 15.9148H17.4458V25.6731H13.5517V15.9567H11.5217V12.6447H13.5517V10.0416C13.5517 7.59826 14.8587 6.32317 17.7563 6.32317H20.4523V9.71109Z" fill="black"/>
<path d="M27.307 4.67965C24.6882 2.06392 21.2435 0.437066 17.5598 0.0762352C13.876 -0.284596 10.1811 0.642896 7.10454 2.70074C4.02795 4.75859 1.75994 7.81948 0.686991 11.3619C-0.385962 14.9044 -0.197527 18.7093 1.22019 22.1284C2.6379 25.5475 5.19719 28.3693 8.46206 30.1131C11.7269 31.8569 15.4954 32.4148 19.1255 31.6917C22.7556 30.9687 26.0227 29.0095 28.3702 26.1478C30.7178 23.2861 32.0005 19.699 32 15.9976C32.0019 13.895 31.5883 11.8127 30.7829 9.87034C29.9775 7.92802 28.7963 6.164 27.307 4.67965ZM20.4523 9.71109H18.3445C17.6006 9.71109 17.4458 10.0106 17.4458 10.7855V12.6447H20.4523L20.1628 15.9148H17.4458V25.6731H13.5517V15.9567H11.5217V12.6447H13.5517V10.0416C13.5517 7.59826 14.8587 6.32317 17.7563 6.32317H20.4523V9.71109Z" fill="black" fill-opacity="0.2"/>
<path d="M27.307 4.67965C24.6882 2.06392 21.2435 0.437066 17.5598 0.0762352C13.876 -0.284596 10.1811 0.642896 7.10454 2.70074C4.02795 4.75859 1.75994 7.81948 0.686991 11.3619C-0.385962 14.9044 -0.197527 18.7093 1.22019 22.1284C2.6379 25.5475 5.19719 28.3693 8.46206 30.1131C11.7269 31.8569 15.4954 32.4148 19.1255 31.6917C22.7556 30.9687 26.0227 29.0095 28.3702 26.1478C30.7178 23.2861 32.0005 19.699 32 15.9976C32.0019 13.895 31.5883 11.8127 30.7829 9.87034C29.9775 7.92802 28.7963 6.164 27.307 4.67965ZM20.4523 9.71109H18.3445C17.6006 9.71109 17.4458 10.0106 17.4458 10.7855V12.6447H20.4523L20.1628 15.9148H17.4458V25.6731H13.5517V15.9567H11.5217V12.6447H13.5517V10.0416C13.5517 7.59826 14.8587 6.32317 17.7563 6.32317H20.4523V9.71109Z" fill="black" fill-opacity="0.2"/>
<path d="M27.307 4.67965C24.6882 2.06392 21.2435 0.437066 17.5598 0.0762352C13.876 -0.284596 10.1811 0.642896 7.10454 2.70074C4.02795 4.75859 1.75994 7.81948 0.686991 11.3619C-0.385962 14.9044 -0.197527 18.7093 1.22019 22.1284C2.6379 25.5475 5.19719 28.3693 8.46206 30.1131C11.7269 31.8569 15.4954 32.4148 19.1255 31.6917C22.7556 30.9687 26.0227 29.0095 28.3702 26.1478C30.7178 23.2861 32.0005 19.699 32 15.9976C32.0019 13.895 31.5883 11.8127 30.7829 9.87034C29.9775 7.92802 28.7963 6.164 27.307 4.67965ZM20.4523 9.71109H18.3445C17.6006 9.71109 17.4458 10.0106 17.4458 10.7855V12.6447H20.4523L20.1628 15.9148H17.4458V25.6731H13.5517V15.9567H11.5217V12.6447H13.5517V10.0416C13.5517 7.59826 14.8587 6.32317 17.7563 6.32317H20.4523V9.71109Z" fill="black" fill-opacity="0.2"/>
<path d="M27.307 4.67965C24.6882 2.06392 21.2435 0.437066 17.5598 0.0762352C13.876 -0.284596 10.1811 0.642896 7.10454 2.70074C4.02795 4.75859 1.75994 7.81948 0.686991 11.3619C-0.385962 14.9044 -0.197527 18.7093 1.22019 22.1284C2.6379 25.5475 5.19719 28.3693 8.46206 30.1131C11.7269 31.8569 15.4954 32.4148 19.1255 31.6917C22.7556 30.9687 26.0227 29.0095 28.3702 26.1478C30.7178 23.2861 32.0005 19.699 32 15.9976C32.0019 13.895 31.5883 11.8127 30.7829 9.87034C29.9775 7.92802 28.7963 6.164 27.307 4.67965ZM20.4523 9.71109H18.3445C17.6006 9.71109 17.4458 10.0106 17.4458 10.7855V12.6447H20.4523L20.1628 15.9148H17.4458V25.6731H13.5517V15.9567H11.5217V12.6447H13.5517V10.0416C13.5517 7.59826 14.8587 6.32317 17.7563 6.32317H20.4523V9.71109Z" fill="black" fill-opacity="0.2"/>
<path d="M27.307 4.67965C24.6882 2.06392 21.2435 0.437066 17.5598 0.0762352C13.876 -0.284596 10.1811 0.642896 7.10454 2.70074C4.02795 4.75859 1.75994 7.81948 0.686991 11.3619C-0.385962 14.9044 -0.197527 18.7093 1.22019 22.1284C2.6379 25.5475 5.19719 28.3693 8.46206 30.1131C11.7269 31.8569 15.4954 32.4148 19.1255 31.6917C22.7556 30.9687 26.0227 29.0095 28.3702 26.1478C30.7178 23.2861 32.0005 19.699 32 15.9976C32.0019 13.895 31.5883 11.8127 30.7829 9.87034C29.9775 7.92802 28.7963 6.164 27.307 4.67965ZM20.4523 9.71109H18.3445C17.6006 9.71109 17.4458 10.0106 17.4458 10.7855V12.6447H20.4523L20.1628 15.9148H17.4458V25.6731H13.5517V15.9567H11.5217V12.6447H13.5517V10.0416C13.5517 7.59826 14.8587 6.32317 17.7563 6.32317H20.4523V9.71109Z" fill="black" fill-opacity="0.2"/>
<path d="M27.307 4.67965C24.6882 2.06392 21.2435 0.437066 17.5598 0.0762352C13.876 -0.284596 10.1811 0.642896 7.10454 2.70074C4.02795 4.75859 1.75994 7.81948 0.686991 11.3619C-0.385962 14.9044 -0.197527 18.7093 1.22019 22.1284C2.6379 25.5475 5.19719 28.3693 8.46206 30.1131C11.7269 31.8569 15.4954 32.4148 19.1255 31.6917C22.7556 30.9687 26.0227 29.0095 28.3702 26.1478C30.7178 23.2861 32.0005 19.699 32 15.9976C32.0019 13.895 31.5883 11.8127 30.7829 9.87034C29.9775 7.92802 28.7963 6.164 27.307 4.67965ZM20.4523 9.71109H18.3445C17.6006 9.71109 17.4458 10.0106 17.4458 10.7855V12.6447H20.4523L20.1628 15.9148H17.4458V25.6731H13.5517V15.9567H11.5217V12.6447H13.5517V10.0416C13.5517 7.59826 14.8587 6.32317 17.7563 6.32317H20.4523V9.71109Z" fill="black" fill-opacity="0.2"/>
<path d="M27.307 4.67965C24.6882 2.06392 21.2435 0.437066 17.5598 0.0762352C13.876 -0.284596 10.1811 0.642896 7.10454 2.70074C4.02795 4.75859 1.75994 7.81948 0.686991 11.3619C-0.385962 14.9044 -0.197527 18.7093 1.22019 22.1284C2.6379 25.5475 5.19719 28.3693 8.46206 30.1131C11.7269 31.8569 15.4954 32.4148 19.1255 31.6917C22.7556 30.9687 26.0227 29.0095 28.3702 26.1478C30.7178 23.2861 32.0005 19.699 32 15.9976C32.0019 13.895 31.5883 11.8127 30.7829 9.87034C29.9775 7.92802 28.7963 6.164 27.307 4.67965ZM20.4523 9.71109H18.3445C17.6006 9.71109 17.4458 10.0106 17.4458 10.7855V12.6447H20.4523L20.1628 15.9148H17.4458V25.6731H13.5517V15.9567H11.5217V12.6447H13.5517V10.0416C13.5517 7.59826 14.8587 6.32317 17.7563 6.32317H20.4523V9.71109Z" fill="black" fill-opacity="0.2"/>
<path d="M27.307 4.67965C24.6882 2.06392 21.2435 0.437066 17.5598 0.0762352C13.876 -0.284596 10.1811 0.642896 7.10454 2.70074C4.02795 4.75859 1.75994 7.81948 0.686991 11.3619C-0.385962 14.9044 -0.197527 18.7093 1.22019 22.1284C2.6379 25.5475 5.19719 28.3693 8.46206 30.1131C11.7269 31.8569 15.4954 32.4148 19.1255 31.6917C22.7556 30.9687 26.0227 29.0095 28.3702 26.1478C30.7178 23.2861 32.0005 19.699 32 15.9976C32.0019 13.895 31.5883 11.8127 30.7829 9.87034C29.9775 7.92802 28.7963 6.164 27.307 4.67965ZM20.4523 9.71109H18.3445C17.6006 9.71109 17.4458 10.0106 17.4458 10.7855V12.6447H20.4523L20.1628 15.9148H17.4458V25.6731H13.5517V15.9567H11.5217V12.6447H13.5517V10.0416C13.5517 7.59826 14.8587 6.32317 17.7563 6.32317H20.4523V9.71109Z" fill="black" fill-opacity="0.2"/>
<path d="M27.307 4.67965C24.6882 2.06392 21.2435 0.437066 17.5598 0.0762352C13.876 -0.284596 10.1811 0.642896 7.10454 2.70074C4.02795 4.75859 1.75994 7.81948 0.686991 11.3619C-0.385962 14.9044 -0.197527 18.7093 1.22019 22.1284C2.6379 25.5475 5.19719 28.3693 8.46206 30.1131C11.7269 31.8569 15.4954 32.4148 19.1255 31.6917C22.7556 30.9687 26.0227 29.0095 28.3702 26.1478C30.7178 23.2861 32.0005 19.699 32 15.9976C32.0019 13.895 31.5883 11.8127 30.7829 9.87034C29.9775 7.92802 28.7963 6.164 27.307 4.67965ZM20.4523 9.71109H18.3445C17.6006 9.71109 17.4458 10.0106 17.4458 10.7855V12.6447H20.4523L20.1628 15.9148H17.4458V25.6731H13.5517V15.9567H11.5217V12.6447H13.5517V10.0416C13.5517 7.59826 14.8587 6.32317 17.7563 6.32317H20.4523V9.71109Z" fill="black" fill-opacity="0.2"/>
</g>
<defs>
<clipPath id="clip0_300_144">
<rect width="32" height="32" fill="white"/>
</clipPath>
</defs>
</svg>
