<svg width="24" height="24" viewBox="0 0 24 24" fill="none" xmlns="http://www.w3.org/2000/svg">
<path fill-rule="evenodd" clip-rule="evenodd" d="M8.20027 18.5528C8.17338 18.5354 8.14543 18.522 8.11713 18.5099C8.11569 18.5093 8.11433 18.5085 8.11297 18.5078C8.11132 18.5068 8.10968 18.5059 8.10793 18.5053C8.04637 18.4806 7.98197 18.4693 7.91794 18.4686C7.9144 18.4686 7.91121 18.4678 7.90803 18.4678C7.84293 18.4682 7.77854 18.4813 7.71804 18.5046L7.70884 18.5075C7.64551 18.5337 7.58677 18.5719 7.53653 18.6217L7.53547 18.6225L7.53441 18.6235L7.53194 18.626L6.18854 19.969C5.89205 20.2638 5.41194 20.2638 5.11793 19.9705L4.74643 19.599C4.45277 19.3053 4.45348 18.8248 4.74643 18.5301L6.0916 17.1849L6.09301 17.1835L6.09478 17.1818L6.095 17.1815L6.09584 17.18C6.14537 17.1301 6.18359 17.0717 6.20977 17.0088C6.21118 17.0056 6.21154 17.002 6.21295 16.9988C6.2363 16.9383 6.24939 16.8743 6.24975 16.8096C6.24975 16.8064 6.24904 16.8032 6.24904 16.7997C6.24833 16.7353 6.23666 16.6709 6.21189 16.6093C6.21083 16.6068 6.20906 16.6047 6.208 16.6022C6.19597 16.5732 6.18217 16.5449 6.16448 16.5177C5.72258 15.8377 5.41265 15.0904 5.24317 14.2968C5.24221 14.2924 5.24072 14.2883 5.23922 14.2841C5.23797 14.2807 5.23671 14.2772 5.23574 14.2735C5.22902 14.2477 5.22159 14.2215 5.21133 14.1974C5.20825 14.1902 5.20434 14.1835 5.20042 14.1768C5.19902 14.1744 5.19763 14.172 5.19627 14.1696C5.19487 14.1671 5.19351 14.1646 5.19222 14.162L5.18691 14.1519C5.17891 14.1366 5.17101 14.1214 5.16144 14.1072C5.15628 14.0997 5.15033 14.0929 5.14443 14.0863L5.13562 14.0761L5.13002 14.0691C5.11884 14.0551 5.10766 14.0411 5.09493 14.0287C5.09024 14.024 5.08503 14.0199 5.07985 14.0159L5.07984 14.0159C5.07643 14.0132 5.07304 14.0106 5.06981 14.0078L5.06582 14.0043C5.04945 13.9902 5.03296 13.976 5.01497 13.9643C5.01081 13.9616 5.00641 13.9593 5.00198 13.9571L5.00196 13.9571C4.99886 13.9555 4.99574 13.954 4.99268 13.9522C4.97074 13.9391 4.94845 13.9264 4.92439 13.9169C4.91951 13.9149 4.91452 13.9135 4.90953 13.9121C4.90549 13.9109 4.90146 13.9098 4.8975 13.9084L4.89543 13.9076C4.87279 13.8997 4.85043 13.8919 4.82674 13.8875C4.81539 13.8854 4.80387 13.8845 4.7923 13.8836C4.7893 13.8834 4.7863 13.8832 4.78329 13.8829C4.78056 13.8827 4.77782 13.8825 4.77509 13.8822L4.75991 13.8803L4.7599 13.8803C4.74841 13.8788 4.73688 13.8772 4.72485 13.8772H2.81961C2.40141 13.8772 2.06141 13.5372 2.06141 13.1194V12.5993C2.06141 12.1814 2.40141 11.8414 2.81961 11.8414H4.72379H4.72556C4.72609 11.8414 4.72662 11.8413 4.72715 11.8411C4.72768 11.8409 4.72821 11.8407 4.72874 11.8407C4.78393 11.8404 4.8363 11.8294 4.88618 11.8135C4.88982 11.8123 4.89346 11.8113 4.8971 11.8102C4.90195 11.8089 4.90681 11.8075 4.91166 11.8057C4.96013 11.7873 5.00471 11.7622 5.04539 11.7314C5.05188 11.7267 5.05762 11.7217 5.06365 11.7165L5.06733 11.7134C5.10696 11.6794 5.14269 11.6412 5.171 11.5973C5.17306 11.594 5.17476 11.5906 5.17646 11.5872C5.17767 11.5847 5.17887 11.5823 5.18019 11.58C5.2085 11.5322 5.23079 11.4802 5.24317 11.4243L5.24423 11.4215C5.41371 10.6282 5.72364 9.881 6.16554 9.20028C6.18323 9.17304 6.19703 9.14473 6.20906 9.11572L6.21082 9.11219L6.2126 9.10865C6.23736 9.04673 6.24904 8.98234 6.24975 8.91795C6.24975 8.91476 6.25045 8.91158 6.25045 8.90839C6.2501 8.84329 6.23701 8.77925 6.21366 8.71875L6.21268 8.71556C6.21205 8.71344 6.21142 8.71132 6.21047 8.7092C6.18429 8.64587 6.14608 8.58714 6.0962 8.5369L6.09549 8.53584L6.09443 8.53478L6.09124 8.53159L4.74855 7.1889C4.45419 6.89241 4.45348 6.41195 4.74714 6.11829L5.11863 5.74679C5.41265 5.45313 5.89276 5.45384 6.18783 5.74679L7.53618 7.09514C7.53724 7.0962 7.53857 7.09691 7.5399 7.09762C7.5405 7.09794 7.54111 7.09827 7.5417 7.09863C7.54238 7.09905 7.54304 7.09952 7.54361 7.1001C7.5889 7.14397 7.64055 7.17687 7.69646 7.20164C7.70729 7.20645 7.71786 7.21024 7.72862 7.2141L7.73431 7.21614C7.79127 7.23631 7.85001 7.25011 7.91051 7.25046H7.91157C7.97136 7.25046 8.03151 7.23666 8.08953 7.21579C8.10166 7.21158 8.11293 7.20599 8.1243 7.20034L8.12432 7.20033L8.13906 7.19315C8.14667 7.18947 8.15443 7.18638 8.16217 7.1833C8.1753 7.17807 8.18838 7.17286 8.20063 7.16484C8.88064 6.72294 9.62787 6.41301 10.4211 6.24353C10.4247 6.24274 10.428 6.24151 10.4314 6.24027C10.434 6.23929 10.4367 6.2383 10.4395 6.23752C10.4675 6.23044 10.4947 6.22266 10.5205 6.21169C10.5294 6.20797 10.5374 6.20318 10.5455 6.19842L10.5455 6.19839C10.5497 6.19592 10.5538 6.19347 10.558 6.19117L10.5718 6.1839C10.585 6.17703 10.5981 6.1702 10.6104 6.16181C10.6213 6.15415 10.6312 6.14544 10.6412 6.13665L10.6412 6.13664L10.65 6.1289C10.6543 6.12525 10.6586 6.12172 10.663 6.11819L10.663 6.11817L10.663 6.11816C10.6717 6.11109 10.6804 6.10401 10.6882 6.096C10.6972 6.08707 10.7047 6.07717 10.7124 6.06717L10.7204 6.05673L10.7295 6.04587C10.7376 6.03635 10.7456 6.02693 10.7523 6.01639C10.7587 6.00669 10.7638 5.99646 10.7689 5.98608L10.769 5.98606L10.7756 5.97287C10.7783 5.96768 10.7812 5.96257 10.7841 5.95746C10.7898 5.94724 10.7955 5.93702 10.8 5.92617C10.8056 5.91218 10.8097 5.89775 10.8137 5.88322L10.817 5.87169C10.8185 5.86659 10.8202 5.86153 10.8218 5.85646L10.8218 5.85645L10.8219 5.85643C10.8249 5.84708 10.828 5.83767 10.8301 5.82781C10.835 5.80283 10.8365 5.77679 10.8379 5.7511L10.8379 5.75068C10.838 5.74664 10.8387 5.74268 10.8393 5.73868L10.8393 5.73867C10.84 5.73393 10.8407 5.72914 10.8407 5.72415V5.72132V5.71955V3.81926C10.8407 3.40142 11.1807 3.06141 11.5989 3.06141H12.1187C12.5369 3.06141 12.8769 3.40142 12.8769 3.81926V5.72061V5.72097V5.7245C12.8769 5.73113 12.8778 5.73741 12.8787 5.74373C12.8794 5.74856 12.8801 5.75342 12.8804 5.75847L12.8808 5.76477C12.882 5.78601 12.8833 5.80721 12.8875 5.82781C12.8902 5.84094 12.8943 5.85326 12.8984 5.86568L12.8984 5.86569L12.9023 5.8777C12.904 5.88301 12.9054 5.88836 12.9069 5.8937L12.9069 5.89372C12.9099 5.90473 12.9129 5.91569 12.9172 5.92617C12.9227 5.93989 12.9299 5.95255 12.9371 5.96529L12.9434 5.97641C12.946 5.98121 12.9485 5.9861 12.951 5.99099C12.9554 5.99978 12.9599 6.00856 12.9653 6.01675C12.9736 6.02913 12.9831 6.04028 12.9925 6.05144L12.9982 6.05814L13.0068 6.069C13.014 6.07832 13.0213 6.0877 13.0297 6.09635C13.0388 6.10575 13.049 6.11385 13.0593 6.12201L13.0679 6.1289L13.0795 6.13891C13.0888 6.14705 13.098 6.15514 13.1083 6.16216C13.1192 6.16963 13.131 6.17587 13.1429 6.18212L13.1578 6.19011L13.1701 6.19719C13.1792 6.20255 13.1883 6.20789 13.1981 6.21205C13.2218 6.22231 13.2473 6.22938 13.2728 6.2361C13.2767 6.23709 13.2804 6.23844 13.2841 6.2398C13.2884 6.24137 13.2926 6.24294 13.2972 6.24389C14.0901 6.41336 14.8376 6.72329 15.5184 7.1652C15.53 7.17274 15.5426 7.17778 15.5551 7.18282C15.5631 7.18605 15.5711 7.18927 15.5789 7.19315L15.5919 7.19955C15.6042 7.20568 15.6163 7.21169 15.6291 7.21614C15.6871 7.23702 15.7466 7.25082 15.8067 7.25082C15.8676 7.25082 15.927 7.23666 15.984 7.2165L15.9897 7.21446L15.9897 7.21445C16.0004 7.2106 16.011 7.20681 16.0218 7.20199C16.0777 7.17723 16.1294 7.14432 16.1747 7.10045C16.1758 7.09934 16.1772 7.09861 16.1786 7.09787C16.1799 7.0972 16.1813 7.09651 16.1825 7.0955L17.529 5.74856C17.8255 5.4549 18.306 5.45349 18.5997 5.74715L18.9712 6.11864C19.1735 6.32102 19.2326 6.61114 19.1562 6.86906C19.1705 6.86943 19.1848 6.8695 19.1991 6.86957H19.1991C19.2256 6.8697 19.2521 6.86982 19.279 6.87189C19.5861 6.89772 19.8921 6.98369 20.1843 7.11496C20.3429 6.5096 20.1935 5.83984 19.7216 5.36822L19.3501 4.99673C18.6439 4.29053 17.4915 4.28982 16.7797 4.99673L15.7215 6.05531C15.1593 5.7337 14.5631 5.48604 13.9386 5.31586V3.81926C13.9386 2.81623 13.1224 2 12.119 2H11.5993C10.5962 2 9.77966 2.81623 9.77966 3.81926V5.3155C9.15519 5.48604 8.55868 5.73335 7.99683 6.05496L6.93684 4.99496C6.22675 4.28947 5.0737 4.29018 4.36821 4.99637L3.99672 5.36787C3.29052 6.07371 3.29017 7.22605 3.99672 7.93826L5.05495 8.99649C4.73334 9.55869 4.48603 10.1548 4.3155 10.7793H2.81961C1.81657 10.7793 0.999992 11.5955 0.999992 12.5986V13.1187C0.999992 14.1217 1.81622 14.9379 2.81961 14.9379H4.3155C4.48603 15.5628 4.73334 16.1589 5.05495 16.7208L3.9953 17.7808C3.28982 18.4908 3.29052 19.6432 3.99672 20.3494L4.36821 20.7209C4.72131 21.074 5.18621 21.2505 5.65146 21.2505C6.11672 21.2505 6.58268 21.0743 6.93825 20.7209L7.99683 19.6626C8.35382 19.8671 8.72638 20.0377 9.10955 20.1817L9.0862 19.03C8.78122 18.8924 8.48402 18.7367 8.20027 18.5528ZM22.4705 10.0202L20.3325 8.237C19.9974 7.95749 19.598 7.78554 19.2077 7.75264C18.7542 7.7162 18.3469 7.8701 18.089 8.17897L16.4251 10.1741L10.076 17.7876L10.0803 17.7911C9.99996 17.8874 9.95043 18.008 9.95326 18.1386L10.0371 22.2678C10.0403 22.4253 10.1132 22.5732 10.2363 22.6715C10.3311 22.7476 10.4482 22.7879 10.5678 22.7879C10.6032 22.7879 10.6386 22.7844 10.6736 22.7773L14.6458 21.9696C14.7661 21.9452 14.868 21.8772 14.9437 21.7863L14.9476 21.7895L21.2665 14.2124L22.9305 12.2173C23.4304 11.6169 23.228 10.6521 22.4705 10.0202ZM11.0851 21.6098L11.0373 19.2669L13.3388 21.1512L11.0851 21.6098ZM14.4685 20.7051L11.2337 18.0561L16.9002 11.2617L20.111 13.9393L14.4685 20.7051ZM22.1149 11.5369L20.791 13.1241L17.5802 10.4465L18.9042 8.85899C18.936 8.82078 19.0195 8.80238 19.1186 8.81052C19.2909 8.82502 19.4855 8.91312 19.6521 9.05216L21.7902 10.8353C22.1231 11.1127 22.19 11.4474 22.1149 11.5369ZM11.859 8.99464C9.72838 8.99464 7.99509 10.7279 7.99509 12.8585C7.99509 14.375 8.875 15.6862 10.1494 16.3188L9.45383 17.1527C7.95193 16.3078 6.93368 14.7008 6.93368 12.8585C6.93368 10.1427 9.14319 7.93323 11.859 7.93323C13.3835 7.93323 14.7478 8.62952 15.6521 9.72065L14.9551 10.5563C14.25 9.61097 13.1263 8.99464 11.859 8.99464Z" fill="black"/>
<path fill-rule="evenodd" clip-rule="evenodd" d="M8.20027 18.5528C8.17338 18.5354 8.14543 18.522 8.11713 18.5099C8.11569 18.5093 8.11433 18.5085 8.11297 18.5078C8.11132 18.5068 8.10968 18.5059 8.10793 18.5053C8.04637 18.4806 7.98197 18.4693 7.91794 18.4686C7.9144 18.4686 7.91121 18.4678 7.90803 18.4678C7.84293 18.4682 7.77854 18.4813 7.71804 18.5046L7.70884 18.5075C7.64551 18.5337 7.58677 18.5719 7.53653 18.6217L7.53547 18.6225L7.53441 18.6235L7.53194 18.626L6.18854 19.969C5.89205 20.2638 5.41194 20.2638 5.11793 19.9705L4.74643 19.599C4.45277 19.3053 4.45348 18.8248 4.74643 18.5301L6.0916 17.1849L6.09301 17.1835L6.09478 17.1818L6.095 17.1815L6.09584 17.18C6.14537 17.1301 6.18359 17.0717 6.20977 17.0088C6.21118 17.0056 6.21154 17.002 6.21295 16.9988C6.2363 16.9383 6.24939 16.8743 6.24975 16.8096C6.24975 16.8064 6.24904 16.8032 6.24904 16.7997C6.24833 16.7353 6.23666 16.6709 6.21189 16.6093C6.21083 16.6068 6.20906 16.6047 6.208 16.6022C6.19597 16.5732 6.18217 16.5449 6.16448 16.5177C5.72258 15.8377 5.41265 15.0904 5.24317 14.2968C5.24221 14.2924 5.24072 14.2883 5.23922 14.2841C5.23797 14.2807 5.23671 14.2772 5.23574 14.2735C5.22902 14.2477 5.22159 14.2215 5.21133 14.1974C5.20825 14.1902 5.20434 14.1835 5.20042 14.1768C5.19902 14.1744 5.19763 14.172 5.19627 14.1696C5.19487 14.1671 5.19351 14.1646 5.19222 14.162L5.18691 14.1519C5.17891 14.1366 5.17101 14.1214 5.16144 14.1072C5.15628 14.0997 5.15033 14.0929 5.14443 14.0863L5.13562 14.0761L5.13002 14.0691C5.11884 14.0551 5.10766 14.0411 5.09493 14.0287C5.09024 14.024 5.08503 14.0199 5.07985 14.0159L5.07984 14.0159C5.07643 14.0132 5.07304 14.0106 5.06981 14.0078L5.06582 14.0043C5.04945 13.9902 5.03296 13.976 5.01497 13.9643C5.01081 13.9616 5.00641 13.9593 5.00198 13.9571L5.00196 13.9571C4.99886 13.9555 4.99574 13.954 4.99268 13.9522C4.97074 13.9391 4.94845 13.9264 4.92439 13.9169C4.91951 13.9149 4.91452 13.9135 4.90953 13.9121C4.90549 13.9109 4.90146 13.9098 4.8975 13.9084L4.89543 13.9076C4.87279 13.8997 4.85043 13.8919 4.82674 13.8875C4.81539 13.8854 4.80387 13.8845 4.7923 13.8836C4.7893 13.8834 4.7863 13.8832 4.78329 13.8829C4.78056 13.8827 4.77782 13.8825 4.77509 13.8822L4.75991 13.8803L4.7599 13.8803C4.74841 13.8788 4.73688 13.8772 4.72485 13.8772H2.81961C2.40141 13.8772 2.06141 13.5372 2.06141 13.1194V12.5993C2.06141 12.1814 2.40141 11.8414 2.81961 11.8414H4.72379H4.72556C4.72609 11.8414 4.72662 11.8413 4.72715 11.8411C4.72768 11.8409 4.72821 11.8407 4.72874 11.8407C4.78393 11.8404 4.8363 11.8294 4.88618 11.8135C4.88982 11.8123 4.89346 11.8113 4.8971 11.8102C4.90195 11.8089 4.90681 11.8075 4.91166 11.8057C4.96013 11.7873 5.00471 11.7622 5.04539 11.7314C5.05188 11.7267 5.05762 11.7217 5.06365 11.7165L5.06733 11.7134C5.10696 11.6794 5.14269 11.6412 5.171 11.5973C5.17306 11.594 5.17476 11.5906 5.17646 11.5872C5.17767 11.5847 5.17887 11.5823 5.18019 11.58C5.2085 11.5322 5.23079 11.4802 5.24317 11.4243L5.24423 11.4215C5.41371 10.6282 5.72364 9.881 6.16554 9.20028C6.18323 9.17304 6.19703 9.14473 6.20906 9.11572L6.21082 9.11219L6.2126 9.10865C6.23736 9.04673 6.24904 8.98234 6.24975 8.91795C6.24975 8.91476 6.25045 8.91158 6.25045 8.90839C6.2501 8.84329 6.23701 8.77925 6.21366 8.71875L6.21268 8.71556C6.21205 8.71344 6.21142 8.71132 6.21047 8.7092C6.18429 8.64587 6.14608 8.58714 6.0962 8.5369L6.09549 8.53584L6.09443 8.53478L6.09124 8.53159L4.74855 7.1889C4.45419 6.89241 4.45348 6.41195 4.74714 6.11829L5.11863 5.74679C5.41265 5.45313 5.89276 5.45384 6.18783 5.74679L7.53618 7.09514C7.53724 7.0962 7.53857 7.09691 7.5399 7.09762C7.5405 7.09794 7.54111 7.09827 7.5417 7.09863C7.54238 7.09905 7.54304 7.09952 7.54361 7.1001C7.5889 7.14397 7.64055 7.17687 7.69646 7.20164C7.70729 7.20645 7.71786 7.21024 7.72862 7.2141L7.73431 7.21614C7.79127 7.23631 7.85001 7.25011 7.91051 7.25046H7.91157C7.97136 7.25046 8.03151 7.23666 8.08953 7.21579C8.10166 7.21158 8.11293 7.20599 8.1243 7.20034L8.12432 7.20033L8.13906 7.19315C8.14667 7.18947 8.15443 7.18638 8.16217 7.1833C8.1753 7.17807 8.18838 7.17286 8.20063 7.16484C8.88064 6.72294 9.62787 6.41301 10.4211 6.24353C10.4247 6.24274 10.428 6.24151 10.4314 6.24027C10.434 6.23929 10.4367 6.2383 10.4395 6.23752C10.4675 6.23044 10.4947 6.22266 10.5205 6.21169C10.5294 6.20797 10.5374 6.20318 10.5455 6.19842L10.5455 6.19839C10.5497 6.19592 10.5538 6.19347 10.558 6.19117L10.5718 6.1839C10.585 6.17703 10.5981 6.1702 10.6104 6.16181C10.6213 6.15415 10.6312 6.14544 10.6412 6.13665L10.6412 6.13664L10.65 6.1289C10.6543 6.12525 10.6586 6.12172 10.663 6.11819L10.663 6.11817L10.663 6.11816C10.6717 6.11109 10.6804 6.10401 10.6882 6.096C10.6972 6.08707 10.7047 6.07717 10.7124 6.06717L10.7204 6.05673L10.7295 6.04587C10.7376 6.03635 10.7456 6.02693 10.7523 6.01639C10.7587 6.00669 10.7638 5.99646 10.7689 5.98608L10.769 5.98606L10.7756 5.97287C10.7783 5.96768 10.7812 5.96257 10.7841 5.95746C10.7898 5.94724 10.7955 5.93702 10.8 5.92617C10.8056 5.91218 10.8097 5.89775 10.8137 5.88322L10.817 5.87169C10.8185 5.86659 10.8202 5.86153 10.8218 5.85646L10.8218 5.85645L10.8219 5.85643C10.8249 5.84708 10.828 5.83767 10.8301 5.82781C10.835 5.80283 10.8365 5.77679 10.8379 5.7511L10.8379 5.75068C10.838 5.74664 10.8387 5.74268 10.8393 5.73868L10.8393 5.73867C10.84 5.73393 10.8407 5.72914 10.8407 5.72415V5.72132V5.71955V3.81926C10.8407 3.40142 11.1807 3.06141 11.5989 3.06141H12.1187C12.5369 3.06141 12.8769 3.40142 12.8769 3.81926V5.72061V5.72097V5.7245C12.8769 5.73113 12.8778 5.73741 12.8787 5.74373C12.8794 5.74856 12.8801 5.75342 12.8804 5.75847L12.8808 5.76477C12.882 5.78601 12.8833 5.80721 12.8875 5.82781C12.8902 5.84094 12.8943 5.85326 12.8984 5.86568L12.8984 5.86569L12.9023 5.8777C12.904 5.88301 12.9054 5.88836 12.9069 5.8937L12.9069 5.89372C12.9099 5.90473 12.9129 5.91569 12.9172 5.92617C12.9227 5.93989 12.9299 5.95255 12.9371 5.96529L12.9434 5.97641C12.946 5.98121 12.9485 5.9861 12.951 5.99099C12.9554 5.99978 12.9599 6.00856 12.9653 6.01675C12.9736 6.02913 12.9831 6.04028 12.9925 6.05144L12.9982 6.05814L13.0068 6.069C13.014 6.07832 13.0213 6.0877 13.0297 6.09635C13.0388 6.10575 13.049 6.11385 13.0593 6.12201L13.0679 6.1289L13.0795 6.13891C13.0888 6.14705 13.098 6.15514 13.1083 6.16216C13.1192 6.16963 13.131 6.17587 13.1429 6.18212L13.1578 6.19011L13.1701 6.19719C13.1792 6.20255 13.1883 6.20789 13.1981 6.21205C13.2218 6.22231 13.2473 6.22938 13.2728 6.2361C13.2767 6.23709 13.2804 6.23844 13.2841 6.2398C13.2884 6.24137 13.2926 6.24294 13.2972 6.24389C14.0901 6.41336 14.8376 6.72329 15.5184 7.1652C15.53 7.17274 15.5426 7.17778 15.5551 7.18282C15.5631 7.18605 15.5711 7.18927 15.5789 7.19315L15.5919 7.19955C15.6042 7.20568 15.6163 7.21169 15.6291 7.21614C15.6871 7.23702 15.7466 7.25082 15.8067 7.25082C15.8676 7.25082 15.927 7.23666 15.984 7.2165L15.9897 7.21446L15.9897 7.21445C16.0004 7.2106 16.011 7.20681 16.0218 7.20199C16.0777 7.17723 16.1294 7.14432 16.1747 7.10045C16.1758 7.09934 16.1772 7.09861 16.1786 7.09787C16.1799 7.0972 16.1813 7.09651 16.1825 7.0955L17.529 5.74856C17.8255 5.4549 18.306 5.45349 18.5997 5.74715L18.9712 6.11864C19.1735 6.32102 19.2326 6.61114 19.1562 6.86906C19.1705 6.86943 19.1848 6.8695 19.1991 6.86957H19.1991C19.2256 6.8697 19.2521 6.86982 19.279 6.87189C19.5861 6.89772 19.8921 6.98369 20.1843 7.11496C20.3429 6.5096 20.1935 5.83984 19.7216 5.36822L19.3501 4.99673C18.6439 4.29053 17.4915 4.28982 16.7797 4.99673L15.7215 6.05531C15.1593 5.7337 14.5631 5.48604 13.9386 5.31586V3.81926C13.9386 2.81623 13.1224 2 12.119 2H11.5993C10.5962 2 9.77966 2.81623 9.77966 3.81926V5.3155C9.15519 5.48604 8.55868 5.73335 7.99683 6.05496L6.93684 4.99496C6.22675 4.28947 5.0737 4.29018 4.36821 4.99637L3.99672 5.36787C3.29052 6.07371 3.29017 7.22605 3.99672 7.93826L5.05495 8.99649C4.73334 9.55869 4.48603 10.1548 4.3155 10.7793H2.81961C1.81657 10.7793 0.999992 11.5955 0.999992 12.5986V13.1187C0.999992 14.1217 1.81622 14.9379 2.81961 14.9379H4.3155C4.48603 15.5628 4.73334 16.1589 5.05495 16.7208L3.9953 17.7808C3.28982 18.4908 3.29052 19.6432 3.99672 20.3494L4.36821 20.7209C4.72131 21.074 5.18621 21.2505 5.65146 21.2505C6.11672 21.2505 6.58268 21.0743 6.93825 20.7209L7.99683 19.6626C8.35382 19.8671 8.72638 20.0377 9.10955 20.1817L9.0862 19.03C8.78122 18.8924 8.48402 18.7367 8.20027 18.5528ZM22.4705 10.0202L20.3325 8.237C19.9974 7.95749 19.598 7.78554 19.2077 7.75264C18.7542 7.7162 18.3469 7.8701 18.089 8.17897L16.4251 10.1741L10.076 17.7876L10.0803 17.7911C9.99996 17.8874 9.95043 18.008 9.95326 18.1386L10.0371 22.2678C10.0403 22.4253 10.1132 22.5732 10.2363 22.6715C10.3311 22.7476 10.4482 22.7879 10.5678 22.7879C10.6032 22.7879 10.6386 22.7844 10.6736 22.7773L14.6458 21.9696C14.7661 21.9452 14.868 21.8772 14.9437 21.7863L14.9476 21.7895L21.2665 14.2124L22.9305 12.2173C23.4304 11.6169 23.228 10.6521 22.4705 10.0202ZM11.0851 21.6098L11.0373 19.2669L13.3388 21.1512L11.0851 21.6098ZM14.4685 20.7051L11.2337 18.0561L16.9002 11.2617L20.111 13.9393L14.4685 20.7051ZM22.1149 11.5369L20.791 13.1241L17.5802 10.4465L18.9042 8.85899C18.936 8.82078 19.0195 8.80238 19.1186 8.81052C19.2909 8.82502 19.4855 8.91312 19.6521 9.05216L21.7902 10.8353C22.1231 11.1127 22.19 11.4474 22.1149 11.5369ZM11.859 8.99464C9.72838 8.99464 7.99509 10.7279 7.99509 12.8585C7.99509 14.375 8.875 15.6862 10.1494 16.3188L9.45383 17.1527C7.95193 16.3078 6.93368 14.7008 6.93368 12.8585C6.93368 10.1427 9.14319 7.93323 11.859 7.93323C13.3835 7.93323 14.7478 8.62952 15.6521 9.72065L14.9551 10.5563C14.25 9.61097 13.1263 8.99464 11.859 8.99464Z" fill="black" fill-opacity="0.2"/>
<path fill-rule="evenodd" clip-rule="evenodd" d="M8.20027 18.5528C8.17338 18.5354 8.14543 18.522 8.11713 18.5099C8.11569 18.5093 8.11433 18.5085 8.11297 18.5078C8.11132 18.5068 8.10968 18.5059 8.10793 18.5053C8.04637 18.4806 7.98197 18.4693 7.91794 18.4686C7.9144 18.4686 7.91121 18.4678 7.90803 18.4678C7.84293 18.4682 7.77854 18.4813 7.71804 18.5046L7.70884 18.5075C7.64551 18.5337 7.58677 18.5719 7.53653 18.6217L7.53547 18.6225L7.53441 18.6235L7.53194 18.626L6.18854 19.969C5.89205 20.2638 5.41194 20.2638 5.11793 19.9705L4.74643 19.599C4.45277 19.3053 4.45348 18.8248 4.74643 18.5301L6.0916 17.1849L6.09301 17.1835L6.09478 17.1818L6.095 17.1815L6.09584 17.18C6.14537 17.1301 6.18359 17.0717 6.20977 17.0088C6.21118 17.0056 6.21154 17.002 6.21295 16.9988C6.2363 16.9383 6.24939 16.8743 6.24975 16.8096C6.24975 16.8064 6.24904 16.8032 6.24904 16.7997C6.24833 16.7353 6.23666 16.6709 6.21189 16.6093C6.21083 16.6068 6.20906 16.6047 6.208 16.6022C6.19597 16.5732 6.18217 16.5449 6.16448 16.5177C5.72258 15.8377 5.41265 15.0904 5.24317 14.2968C5.24221 14.2924 5.24072 14.2883 5.23922 14.2841C5.23797 14.2807 5.23671 14.2772 5.23574 14.2735C5.22902 14.2477 5.22159 14.2215 5.21133 14.1974C5.20825 14.1902 5.20434 14.1835 5.20042 14.1768C5.19902 14.1744 5.19763 14.172 5.19627 14.1696C5.19487 14.1671 5.19351 14.1646 5.19222 14.162L5.18691 14.1519C5.17891 14.1366 5.17101 14.1214 5.16144 14.1072C5.15628 14.0997 5.15033 14.0929 5.14443 14.0863L5.13562 14.0761L5.13002 14.0691C5.11884 14.0551 5.10766 14.0411 5.09493 14.0287C5.09024 14.024 5.08503 14.0199 5.07985 14.0159L5.07984 14.0159C5.07643 14.0132 5.07304 14.0106 5.06981 14.0078L5.06582 14.0043C5.04945 13.9902 5.03296 13.976 5.01497 13.9643C5.01081 13.9616 5.00641 13.9593 5.00198 13.9571L5.00196 13.9571C4.99886 13.9555 4.99574 13.954 4.99268 13.9522C4.97074 13.9391 4.94845 13.9264 4.92439 13.9169C4.91951 13.9149 4.91452 13.9135 4.90953 13.9121C4.90549 13.9109 4.90146 13.9098 4.8975 13.9084L4.89543 13.9076C4.87279 13.8997 4.85043 13.8919 4.82674 13.8875C4.81539 13.8854 4.80387 13.8845 4.7923 13.8836C4.7893 13.8834 4.7863 13.8832 4.78329 13.8829C4.78056 13.8827 4.77782 13.8825 4.77509 13.8822L4.75991 13.8803L4.7599 13.8803C4.74841 13.8788 4.73688 13.8772 4.72485 13.8772H2.81961C2.40141 13.8772 2.06141 13.5372 2.06141 13.1194V12.5993C2.06141 12.1814 2.40141 11.8414 2.81961 11.8414H4.72379H4.72556C4.72609 11.8414 4.72662 11.8413 4.72715 11.8411C4.72768 11.8409 4.72821 11.8407 4.72874 11.8407C4.78393 11.8404 4.8363 11.8294 4.88618 11.8135C4.88982 11.8123 4.89346 11.8113 4.8971 11.8102C4.90195 11.8089 4.90681 11.8075 4.91166 11.8057C4.96013 11.7873 5.00471 11.7622 5.04539 11.7314C5.05188 11.7267 5.05762 11.7217 5.06365 11.7165L5.06733 11.7134C5.10696 11.6794 5.14269 11.6412 5.171 11.5973C5.17306 11.594 5.17476 11.5906 5.17646 11.5872C5.17767 11.5847 5.17887 11.5823 5.18019 11.58C5.2085 11.5322 5.23079 11.4802 5.24317 11.4243L5.24423 11.4215C5.41371 10.6282 5.72364 9.881 6.16554 9.20028C6.18323 9.17304 6.19703 9.14473 6.20906 9.11572L6.21082 9.11219L6.2126 9.10865C6.23736 9.04673 6.24904 8.98234 6.24975 8.91795C6.24975 8.91476 6.25045 8.91158 6.25045 8.90839C6.2501 8.84329 6.23701 8.77925 6.21366 8.71875L6.21268 8.71556C6.21205 8.71344 6.21142 8.71132 6.21047 8.7092C6.18429 8.64587 6.14608 8.58714 6.0962 8.5369L6.09549 8.53584L6.09443 8.53478L6.09124 8.53159L4.74855 7.1889C4.45419 6.89241 4.45348 6.41195 4.74714 6.11829L5.11863 5.74679C5.41265 5.45313 5.89276 5.45384 6.18783 5.74679L7.53618 7.09514C7.53724 7.0962 7.53857 7.09691 7.5399 7.09762C7.5405 7.09794 7.54111 7.09827 7.5417 7.09863C7.54238 7.09905 7.54304 7.09952 7.54361 7.1001C7.5889 7.14397 7.64055 7.17687 7.69646 7.20164C7.70729 7.20645 7.71786 7.21024 7.72862 7.2141L7.73431 7.21614C7.79127 7.23631 7.85001 7.25011 7.91051 7.25046H7.91157C7.97136 7.25046 8.03151 7.23666 8.08953 7.21579C8.10166 7.21158 8.11293 7.20599 8.1243 7.20034L8.12432 7.20033L8.13906 7.19315C8.14667 7.18947 8.15443 7.18638 8.16217 7.1833C8.1753 7.17807 8.18838 7.17286 8.20063 7.16484C8.88064 6.72294 9.62787 6.41301 10.4211 6.24353C10.4247 6.24274 10.428 6.24151 10.4314 6.24027C10.434 6.23929 10.4367 6.2383 10.4395 6.23752C10.4675 6.23044 10.4947 6.22266 10.5205 6.21169C10.5294 6.20797 10.5374 6.20318 10.5455 6.19842L10.5455 6.19839C10.5497 6.19592 10.5538 6.19347 10.558 6.19117L10.5718 6.1839C10.585 6.17703 10.5981 6.1702 10.6104 6.16181C10.6213 6.15415 10.6312 6.14544 10.6412 6.13665L10.6412 6.13664L10.65 6.1289C10.6543 6.12525 10.6586 6.12172 10.663 6.11819L10.663 6.11817L10.663 6.11816C10.6717 6.11109 10.6804 6.10401 10.6882 6.096C10.6972 6.08707 10.7047 6.07717 10.7124 6.06717L10.7204 6.05673L10.7295 6.04587C10.7376 6.03635 10.7456 6.02693 10.7523 6.01639C10.7587 6.00669 10.7638 5.99646 10.7689 5.98608L10.769 5.98606L10.7756 5.97287C10.7783 5.96768 10.7812 5.96257 10.7841 5.95746C10.7898 5.94724 10.7955 5.93702 10.8 5.92617C10.8056 5.91218 10.8097 5.89775 10.8137 5.88322L10.817 5.87169C10.8185 5.86659 10.8202 5.86153 10.8218 5.85646L10.8218 5.85645L10.8219 5.85643C10.8249 5.84708 10.828 5.83767 10.8301 5.82781C10.835 5.80283 10.8365 5.77679 10.8379 5.7511L10.8379 5.75068C10.838 5.74664 10.8387 5.74268 10.8393 5.73868L10.8393 5.73867C10.84 5.73393 10.8407 5.72914 10.8407 5.72415V5.72132V5.71955V3.81926C10.8407 3.40142 11.1807 3.06141 11.5989 3.06141H12.1187C12.5369 3.06141 12.8769 3.40142 12.8769 3.81926V5.72061V5.72097V5.7245C12.8769 5.73113 12.8778 5.73741 12.8787 5.74373C12.8794 5.74856 12.8801 5.75342 12.8804 5.75847L12.8808 5.76477C12.882 5.78601 12.8833 5.80721 12.8875 5.82781C12.8902 5.84094 12.8943 5.85326 12.8984 5.86568L12.8984 5.86569L12.9023 5.8777C12.904 5.88301 12.9054 5.88836 12.9069 5.8937L12.9069 5.89372C12.9099 5.90473 12.9129 5.91569 12.9172 5.92617C12.9227 5.93989 12.9299 5.95255 12.9371 5.96529L12.9434 5.97641C12.946 5.98121 12.9485 5.9861 12.951 5.99099C12.9554 5.99978 12.9599 6.00856 12.9653 6.01675C12.9736 6.02913 12.9831 6.04028 12.9925 6.05144L12.9982 6.05814L13.0068 6.069C13.014 6.07832 13.0213 6.0877 13.0297 6.09635C13.0388 6.10575 13.049 6.11385 13.0593 6.12201L13.0679 6.1289L13.0795 6.13891C13.0888 6.14705 13.098 6.15514 13.1083 6.16216C13.1192 6.16963 13.131 6.17587 13.1429 6.18212L13.1578 6.19011L13.1701 6.19719C13.1792 6.20255 13.1883 6.20789 13.1981 6.21205C13.2218 6.22231 13.2473 6.22938 13.2728 6.2361C13.2767 6.23709 13.2804 6.23844 13.2841 6.2398C13.2884 6.24137 13.2926 6.24294 13.2972 6.24389C14.0901 6.41336 14.8376 6.72329 15.5184 7.1652C15.53 7.17274 15.5426 7.17778 15.5551 7.18282C15.5631 7.18605 15.5711 7.18927 15.5789 7.19315L15.5919 7.19955C15.6042 7.20568 15.6163 7.21169 15.6291 7.21614C15.6871 7.23702 15.7466 7.25082 15.8067 7.25082C15.8676 7.25082 15.927 7.23666 15.984 7.2165L15.9897 7.21446L15.9897 7.21445C16.0004 7.2106 16.011 7.20681 16.0218 7.20199C16.0777 7.17723 16.1294 7.14432 16.1747 7.10045C16.1758 7.09934 16.1772 7.09861 16.1786 7.09787C16.1799 7.0972 16.1813 7.09651 16.1825 7.0955L17.529 5.74856C17.8255 5.4549 18.306 5.45349 18.5997 5.74715L18.9712 6.11864C19.1735 6.32102 19.2326 6.61114 19.1562 6.86906C19.1705 6.86943 19.1848 6.8695 19.1991 6.86957H19.1991C19.2256 6.8697 19.2521 6.86982 19.279 6.87189C19.5861 6.89772 19.8921 6.98369 20.1843 7.11496C20.3429 6.5096 20.1935 5.83984 19.7216 5.36822L19.3501 4.99673C18.6439 4.29053 17.4915 4.28982 16.7797 4.99673L15.7215 6.05531C15.1593 5.7337 14.5631 5.48604 13.9386 5.31586V3.81926C13.9386 2.81623 13.1224 2 12.119 2H11.5993C10.5962 2 9.77966 2.81623 9.77966 3.81926V5.3155C9.15519 5.48604 8.55868 5.73335 7.99683 6.05496L6.93684 4.99496C6.22675 4.28947 5.0737 4.29018 4.36821 4.99637L3.99672 5.36787C3.29052 6.07371 3.29017 7.22605 3.99672 7.93826L5.05495 8.99649C4.73334 9.55869 4.48603 10.1548 4.3155 10.7793H2.81961C1.81657 10.7793 0.999992 11.5955 0.999992 12.5986V13.1187C0.999992 14.1217 1.81622 14.9379 2.81961 14.9379H4.3155C4.48603 15.5628 4.73334 16.1589 5.05495 16.7208L3.9953 17.7808C3.28982 18.4908 3.29052 19.6432 3.99672 20.3494L4.36821 20.7209C4.72131 21.074 5.18621 21.2505 5.65146 21.2505C6.11672 21.2505 6.58268 21.0743 6.93825 20.7209L7.99683 19.6626C8.35382 19.8671 8.72638 20.0377 9.10955 20.1817L9.0862 19.03C8.78122 18.8924 8.48402 18.7367 8.20027 18.5528ZM22.4705 10.0202L20.3325 8.237C19.9974 7.95749 19.598 7.78554 19.2077 7.75264C18.7542 7.7162 18.3469 7.8701 18.089 8.17897L16.4251 10.1741L10.076 17.7876L10.0803 17.7911C9.99996 17.8874 9.95043 18.008 9.95326 18.1386L10.0371 22.2678C10.0403 22.4253 10.1132 22.5732 10.2363 22.6715C10.3311 22.7476 10.4482 22.7879 10.5678 22.7879C10.6032 22.7879 10.6386 22.7844 10.6736 22.7773L14.6458 21.9696C14.7661 21.9452 14.868 21.8772 14.9437 21.7863L14.9476 21.7895L21.2665 14.2124L22.9305 12.2173C23.4304 11.6169 23.228 10.6521 22.4705 10.0202ZM11.0851 21.6098L11.0373 19.2669L13.3388 21.1512L11.0851 21.6098ZM14.4685 20.7051L11.2337 18.0561L16.9002 11.2617L20.111 13.9393L14.4685 20.7051ZM22.1149 11.5369L20.791 13.1241L17.5802 10.4465L18.9042 8.85899C18.936 8.82078 19.0195 8.80238 19.1186 8.81052C19.2909 8.82502 19.4855 8.91312 19.6521 9.05216L21.7902 10.8353C22.1231 11.1127 22.19 11.4474 22.1149 11.5369ZM11.859 8.99464C9.72838 8.99464 7.99509 10.7279 7.99509 12.8585C7.99509 14.375 8.875 15.6862 10.1494 16.3188L9.45383 17.1527C7.95193 16.3078 6.93368 14.7008 6.93368 12.8585C6.93368 10.1427 9.14319 7.93323 11.859 7.93323C13.3835 7.93323 14.7478 8.62952 15.6521 9.72065L14.9551 10.5563C14.25 9.61097 13.1263 8.99464 11.859 8.99464Z" fill="black" fill-opacity="0.2"/>
<path fill-rule="evenodd" clip-rule="evenodd" d="M8.20027 18.5528C8.17338 18.5354 8.14543 18.522 8.11713 18.5099C8.11569 18.5093 8.11433 18.5085 8.11297 18.5078C8.11132 18.5068 8.10968 18.5059 8.10793 18.5053C8.04637 18.4806 7.98197 18.4693 7.91794 18.4686C7.9144 18.4686 7.91121 18.4678 7.90803 18.4678C7.84293 18.4682 7.77854 18.4813 7.71804 18.5046L7.70884 18.5075C7.64551 18.5337 7.58677 18.5719 7.53653 18.6217L7.53547 18.6225L7.53441 18.6235L7.53194 18.626L6.18854 19.969C5.89205 20.2638 5.41194 20.2638 5.11793 19.9705L4.74643 19.599C4.45277 19.3053 4.45348 18.8248 4.74643 18.5301L6.0916 17.1849L6.09301 17.1835L6.09478 17.1818L6.095 17.1815L6.09584 17.18C6.14537 17.1301 6.18359 17.0717 6.20977 17.0088C6.21118 17.0056 6.21154 17.002 6.21295 16.9988C6.2363 16.9383 6.24939 16.8743 6.24975 16.8096C6.24975 16.8064 6.24904 16.8032 6.24904 16.7997C6.24833 16.7353 6.23666 16.6709 6.21189 16.6093C6.21083 16.6068 6.20906 16.6047 6.208 16.6022C6.19597 16.5732 6.18217 16.5449 6.16448 16.5177C5.72258 15.8377 5.41265 15.0904 5.24317 14.2968C5.24221 14.2924 5.24072 14.2883 5.23922 14.2841C5.23797 14.2807 5.23671 14.2772 5.23574 14.2735C5.22902 14.2477 5.22159 14.2215 5.21133 14.1974C5.20825 14.1902 5.20434 14.1835 5.20042 14.1768C5.19902 14.1744 5.19763 14.172 5.19627 14.1696C5.19487 14.1671 5.19351 14.1646 5.19222 14.162L5.18691 14.1519C5.17891 14.1366 5.17101 14.1214 5.16144 14.1072C5.15628 14.0997 5.15033 14.0929 5.14443 14.0863L5.13562 14.0761L5.13002 14.0691C5.11884 14.0551 5.10766 14.0411 5.09493 14.0287C5.09024 14.024 5.08503 14.0199 5.07985 14.0159L5.07984 14.0159C5.07643 14.0132 5.07304 14.0106 5.06981 14.0078L5.06582 14.0043C5.04945 13.9902 5.03296 13.976 5.01497 13.9643C5.01081 13.9616 5.00641 13.9593 5.00198 13.9571L5.00196 13.9571C4.99886 13.9555 4.99574 13.954 4.99268 13.9522C4.97074 13.9391 4.94845 13.9264 4.92439 13.9169C4.91951 13.9149 4.91452 13.9135 4.90953 13.9121C4.90549 13.9109 4.90146 13.9098 4.8975 13.9084L4.89543 13.9076C4.87279 13.8997 4.85043 13.8919 4.82674 13.8875C4.81539 13.8854 4.80387 13.8845 4.7923 13.8836C4.7893 13.8834 4.7863 13.8832 4.78329 13.8829C4.78056 13.8827 4.77782 13.8825 4.77509 13.8822L4.75991 13.8803L4.7599 13.8803C4.74841 13.8788 4.73688 13.8772 4.72485 13.8772H2.81961C2.40141 13.8772 2.06141 13.5372 2.06141 13.1194V12.5993C2.06141 12.1814 2.40141 11.8414 2.81961 11.8414H4.72379H4.72556C4.72609 11.8414 4.72662 11.8413 4.72715 11.8411C4.72768 11.8409 4.72821 11.8407 4.72874 11.8407C4.78393 11.8404 4.8363 11.8294 4.88618 11.8135C4.88982 11.8123 4.89346 11.8113 4.8971 11.8102C4.90195 11.8089 4.90681 11.8075 4.91166 11.8057C4.96013 11.7873 5.00471 11.7622 5.04539 11.7314C5.05188 11.7267 5.05762 11.7217 5.06365 11.7165L5.06733 11.7134C5.10696 11.6794 5.14269 11.6412 5.171 11.5973C5.17306 11.594 5.17476 11.5906 5.17646 11.5872C5.17767 11.5847 5.17887 11.5823 5.18019 11.58C5.2085 11.5322 5.23079 11.4802 5.24317 11.4243L5.24423 11.4215C5.41371 10.6282 5.72364 9.881 6.16554 9.20028C6.18323 9.17304 6.19703 9.14473 6.20906 9.11572L6.21082 9.11219L6.2126 9.10865C6.23736 9.04673 6.24904 8.98234 6.24975 8.91795C6.24975 8.91476 6.25045 8.91158 6.25045 8.90839C6.2501 8.84329 6.23701 8.77925 6.21366 8.71875L6.21268 8.71556C6.21205 8.71344 6.21142 8.71132 6.21047 8.7092C6.18429 8.64587 6.14608 8.58714 6.0962 8.5369L6.09549 8.53584L6.09443 8.53478L6.09124 8.53159L4.74855 7.1889C4.45419 6.89241 4.45348 6.41195 4.74714 6.11829L5.11863 5.74679C5.41265 5.45313 5.89276 5.45384 6.18783 5.74679L7.53618 7.09514C7.53724 7.0962 7.53857 7.09691 7.5399 7.09762C7.5405 7.09794 7.54111 7.09827 7.5417 7.09863C7.54238 7.09905 7.54304 7.09952 7.54361 7.1001C7.5889 7.14397 7.64055 7.17687 7.69646 7.20164C7.70729 7.20645 7.71786 7.21024 7.72862 7.2141L7.73431 7.21614C7.79127 7.23631 7.85001 7.25011 7.91051 7.25046H7.91157C7.97136 7.25046 8.03151 7.23666 8.08953 7.21579C8.10166 7.21158 8.11293 7.20599 8.1243 7.20034L8.12432 7.20033L8.13906 7.19315C8.14667 7.18947 8.15443 7.18638 8.16217 7.1833C8.1753 7.17807 8.18838 7.17286 8.20063 7.16484C8.88064 6.72294 9.62787 6.41301 10.4211 6.24353C10.4247 6.24274 10.428 6.24151 10.4314 6.24027C10.434 6.23929 10.4367 6.2383 10.4395 6.23752C10.4675 6.23044 10.4947 6.22266 10.5205 6.21169C10.5294 6.20797 10.5374 6.20318 10.5455 6.19842L10.5455 6.19839C10.5497 6.19592 10.5538 6.19347 10.558 6.19117L10.5718 6.1839C10.585 6.17703 10.5981 6.1702 10.6104 6.16181C10.6213 6.15415 10.6312 6.14544 10.6412 6.13665L10.6412 6.13664L10.65 6.1289C10.6543 6.12525 10.6586 6.12172 10.663 6.11819L10.663 6.11817L10.663 6.11816C10.6717 6.11109 10.6804 6.10401 10.6882 6.096C10.6972 6.08707 10.7047 6.07717 10.7124 6.06717L10.7204 6.05673L10.7295 6.04587C10.7376 6.03635 10.7456 6.02693 10.7523 6.01639C10.7587 6.00669 10.7638 5.99646 10.7689 5.98608L10.769 5.98606L10.7756 5.97287C10.7783 5.96768 10.7812 5.96257 10.7841 5.95746C10.7898 5.94724 10.7955 5.93702 10.8 5.92617C10.8056 5.91218 10.8097 5.89775 10.8137 5.88322L10.817 5.87169C10.8185 5.86659 10.8202 5.86153 10.8218 5.85646L10.8218 5.85645L10.8219 5.85643C10.8249 5.84708 10.828 5.83767 10.8301 5.82781C10.835 5.80283 10.8365 5.77679 10.8379 5.7511L10.8379 5.75068C10.838 5.74664 10.8387 5.74268 10.8393 5.73868L10.8393 5.73867C10.84 5.73393 10.8407 5.72914 10.8407 5.72415V5.72132V5.71955V3.81926C10.8407 3.40142 11.1807 3.06141 11.5989 3.06141H12.1187C12.5369 3.06141 12.8769 3.40142 12.8769 3.81926V5.72061V5.72097V5.7245C12.8769 5.73113 12.8778 5.73741 12.8787 5.74373C12.8794 5.74856 12.8801 5.75342 12.8804 5.75847L12.8808 5.76477C12.882 5.78601 12.8833 5.80721 12.8875 5.82781C12.8902 5.84094 12.8943 5.85326 12.8984 5.86568L12.8984 5.86569L12.9023 5.8777C12.904 5.88301 12.9054 5.88836 12.9069 5.8937L12.9069 5.89372C12.9099 5.90473 12.9129 5.91569 12.9172 5.92617C12.9227 5.93989 12.9299 5.95255 12.9371 5.96529L12.9434 5.97641C12.946 5.98121 12.9485 5.9861 12.951 5.99099C12.9554 5.99978 12.9599 6.00856 12.9653 6.01675C12.9736 6.02913 12.9831 6.04028 12.9925 6.05144L12.9982 6.05814L13.0068 6.069C13.014 6.07832 13.0213 6.0877 13.0297 6.09635C13.0388 6.10575 13.049 6.11385 13.0593 6.12201L13.0679 6.1289L13.0795 6.13891C13.0888 6.14705 13.098 6.15514 13.1083 6.16216C13.1192 6.16963 13.131 6.17587 13.1429 6.18212L13.1578 6.19011L13.1701 6.19719C13.1792 6.20255 13.1883 6.20789 13.1981 6.21205C13.2218 6.22231 13.2473 6.22938 13.2728 6.2361C13.2767 6.23709 13.2804 6.23844 13.2841 6.2398C13.2884 6.24137 13.2926 6.24294 13.2972 6.24389C14.0901 6.41336 14.8376 6.72329 15.5184 7.1652C15.53 7.17274 15.5426 7.17778 15.5551 7.18282C15.5631 7.18605 15.5711 7.18927 15.5789 7.19315L15.5919 7.19955C15.6042 7.20568 15.6163 7.21169 15.6291 7.21614C15.6871 7.23702 15.7466 7.25082 15.8067 7.25082C15.8676 7.25082 15.927 7.23666 15.984 7.2165L15.9897 7.21446L15.9897 7.21445C16.0004 7.2106 16.011 7.20681 16.0218 7.20199C16.0777 7.17723 16.1294 7.14432 16.1747 7.10045C16.1758 7.09934 16.1772 7.09861 16.1786 7.09787C16.1799 7.0972 16.1813 7.09651 16.1825 7.0955L17.529 5.74856C17.8255 5.4549 18.306 5.45349 18.5997 5.74715L18.9712 6.11864C19.1735 6.32102 19.2326 6.61114 19.1562 6.86906C19.1705 6.86943 19.1848 6.8695 19.1991 6.86957H19.1991C19.2256 6.8697 19.2521 6.86982 19.279 6.87189C19.5861 6.89772 19.8921 6.98369 20.1843 7.11496C20.3429 6.5096 20.1935 5.83984 19.7216 5.36822L19.3501 4.99673C18.6439 4.29053 17.4915 4.28982 16.7797 4.99673L15.7215 6.05531C15.1593 5.7337 14.5631 5.48604 13.9386 5.31586V3.81926C13.9386 2.81623 13.1224 2 12.119 2H11.5993C10.5962 2 9.77966 2.81623 9.77966 3.81926V5.3155C9.15519 5.48604 8.55868 5.73335 7.99683 6.05496L6.93684 4.99496C6.22675 4.28947 5.0737 4.29018 4.36821 4.99637L3.99672 5.36787C3.29052 6.07371 3.29017 7.22605 3.99672 7.93826L5.05495 8.99649C4.73334 9.55869 4.48603 10.1548 4.3155 10.7793H2.81961C1.81657 10.7793 0.999992 11.5955 0.999992 12.5986V13.1187C0.999992 14.1217 1.81622 14.9379 2.81961 14.9379H4.3155C4.48603 15.5628 4.73334 16.1589 5.05495 16.7208L3.9953 17.7808C3.28982 18.4908 3.29052 19.6432 3.99672 20.3494L4.36821 20.7209C4.72131 21.074 5.18621 21.2505 5.65146 21.2505C6.11672 21.2505 6.58268 21.0743 6.93825 20.7209L7.99683 19.6626C8.35382 19.8671 8.72638 20.0377 9.10955 20.1817L9.0862 19.03C8.78122 18.8924 8.48402 18.7367 8.20027 18.5528ZM22.4705 10.0202L20.3325 8.237C19.9974 7.95749 19.598 7.78554 19.2077 7.75264C18.7542 7.7162 18.3469 7.8701 18.089 8.17897L16.4251 10.1741L10.076 17.7876L10.0803 17.7911C9.99996 17.8874 9.95043 18.008 9.95326 18.1386L10.0371 22.2678C10.0403 22.4253 10.1132 22.5732 10.2363 22.6715C10.3311 22.7476 10.4482 22.7879 10.5678 22.7879C10.6032 22.7879 10.6386 22.7844 10.6736 22.7773L14.6458 21.9696C14.7661 21.9452 14.868 21.8772 14.9437 21.7863L14.9476 21.7895L21.2665 14.2124L22.9305 12.2173C23.4304 11.6169 23.228 10.6521 22.4705 10.0202ZM11.0851 21.6098L11.0373 19.2669L13.3388 21.1512L11.0851 21.6098ZM14.4685 20.7051L11.2337 18.0561L16.9002 11.2617L20.111 13.9393L14.4685 20.7051ZM22.1149 11.5369L20.791 13.1241L17.5802 10.4465L18.9042 8.85899C18.936 8.82078 19.0195 8.80238 19.1186 8.81052C19.2909 8.82502 19.4855 8.91312 19.6521 9.05216L21.7902 10.8353C22.1231 11.1127 22.19 11.4474 22.1149 11.5369ZM11.859 8.99464C9.72838 8.99464 7.99509 10.7279 7.99509 12.8585C7.99509 14.375 8.875 15.6862 10.1494 16.3188L9.45383 17.1527C7.95193 16.3078 6.93368 14.7008 6.93368 12.8585C6.93368 10.1427 9.14319 7.93323 11.859 7.93323C13.3835 7.93323 14.7478 8.62952 15.6521 9.72065L14.9551 10.5563C14.25 9.61097 13.1263 8.99464 11.859 8.99464Z" fill="black" fill-opacity="0.2"/>
<path fill-rule="evenodd" clip-rule="evenodd" d="M8.20027 18.5528C8.17338 18.5354 8.14543 18.522 8.11713 18.5099C8.11569 18.5093 8.11433 18.5085 8.11297 18.5078C8.11132 18.5068 8.10968 18.5059 8.10793 18.5053C8.04637 18.4806 7.98197 18.4693 7.91794 18.4686C7.9144 18.4686 7.91121 18.4678 7.90803 18.4678C7.84293 18.4682 7.77854 18.4813 7.71804 18.5046L7.70884 18.5075C7.64551 18.5337 7.58677 18.5719 7.53653 18.6217L7.53547 18.6225L7.53441 18.6235L7.53194 18.626L6.18854 19.969C5.89205 20.2638 5.41194 20.2638 5.11793 19.9705L4.74643 19.599C4.45277 19.3053 4.45348 18.8248 4.74643 18.5301L6.0916 17.1849L6.09301 17.1835L6.09478 17.1818L6.095 17.1815L6.09584 17.18C6.14537 17.1301 6.18359 17.0717 6.20977 17.0088C6.21118 17.0056 6.21154 17.002 6.21295 16.9988C6.2363 16.9383 6.24939 16.8743 6.24975 16.8096C6.24975 16.8064 6.24904 16.8032 6.24904 16.7997C6.24833 16.7353 6.23666 16.6709 6.21189 16.6093C6.21083 16.6068 6.20906 16.6047 6.208 16.6022C6.19597 16.5732 6.18217 16.5449 6.16448 16.5177C5.72258 15.8377 5.41265 15.0904 5.24317 14.2968C5.24221 14.2924 5.24072 14.2883 5.23922 14.2841C5.23797 14.2807 5.23671 14.2772 5.23574 14.2735C5.22902 14.2477 5.22159 14.2215 5.21133 14.1974C5.20825 14.1902 5.20434 14.1835 5.20042 14.1768C5.19902 14.1744 5.19763 14.172 5.19627 14.1696C5.19487 14.1671 5.19351 14.1646 5.19222 14.162L5.18691 14.1519C5.17891 14.1366 5.17101 14.1214 5.16144 14.1072C5.15628 14.0997 5.15033 14.0929 5.14443 14.0863L5.13562 14.0761L5.13002 14.0691C5.11884 14.0551 5.10766 14.0411 5.09493 14.0287C5.09024 14.024 5.08503 14.0199 5.07985 14.0159L5.07984 14.0159C5.07643 14.0132 5.07304 14.0106 5.06981 14.0078L5.06582 14.0043C5.04945 13.9902 5.03296 13.976 5.01497 13.9643C5.01081 13.9616 5.00641 13.9593 5.00198 13.9571L5.00196 13.9571C4.99886 13.9555 4.99574 13.954 4.99268 13.9522C4.97074 13.9391 4.94845 13.9264 4.92439 13.9169C4.91951 13.9149 4.91452 13.9135 4.90953 13.9121C4.90549 13.9109 4.90146 13.9098 4.8975 13.9084L4.89543 13.9076C4.87279 13.8997 4.85043 13.8919 4.82674 13.8875C4.81539 13.8854 4.80387 13.8845 4.7923 13.8836C4.7893 13.8834 4.7863 13.8832 4.78329 13.8829C4.78056 13.8827 4.77782 13.8825 4.77509 13.8822L4.75991 13.8803L4.7599 13.8803C4.74841 13.8788 4.73688 13.8772 4.72485 13.8772H2.81961C2.40141 13.8772 2.06141 13.5372 2.06141 13.1194V12.5993C2.06141 12.1814 2.40141 11.8414 2.81961 11.8414H4.72379H4.72556C4.72609 11.8414 4.72662 11.8413 4.72715 11.8411C4.72768 11.8409 4.72821 11.8407 4.72874 11.8407C4.78393 11.8404 4.8363 11.8294 4.88618 11.8135C4.88982 11.8123 4.89346 11.8113 4.8971 11.8102C4.90195 11.8089 4.90681 11.8075 4.91166 11.8057C4.96013 11.7873 5.00471 11.7622 5.04539 11.7314C5.05188 11.7267 5.05762 11.7217 5.06365 11.7165L5.06733 11.7134C5.10696 11.6794 5.14269 11.6412 5.171 11.5973C5.17306 11.594 5.17476 11.5906 5.17646 11.5872C5.17767 11.5847 5.17887 11.5823 5.18019 11.58C5.2085 11.5322 5.23079 11.4802 5.24317 11.4243L5.24423 11.4215C5.41371 10.6282 5.72364 9.881 6.16554 9.20028C6.18323 9.17304 6.19703 9.14473 6.20906 9.11572L6.21082 9.11219L6.2126 9.10865C6.23736 9.04673 6.24904 8.98234 6.24975 8.91795C6.24975 8.91476 6.25045 8.91158 6.25045 8.90839C6.2501 8.84329 6.23701 8.77925 6.21366 8.71875L6.21268 8.71556C6.21205 8.71344 6.21142 8.71132 6.21047 8.7092C6.18429 8.64587 6.14608 8.58714 6.0962 8.5369L6.09549 8.53584L6.09443 8.53478L6.09124 8.53159L4.74855 7.1889C4.45419 6.89241 4.45348 6.41195 4.74714 6.11829L5.11863 5.74679C5.41265 5.45313 5.89276 5.45384 6.18783 5.74679L7.53618 7.09514C7.53724 7.0962 7.53857 7.09691 7.5399 7.09762C7.5405 7.09794 7.54111 7.09827 7.5417 7.09863C7.54238 7.09905 7.54304 7.09952 7.54361 7.1001C7.5889 7.14397 7.64055 7.17687 7.69646 7.20164C7.70729 7.20645 7.71786 7.21024 7.72862 7.2141L7.73431 7.21614C7.79127 7.23631 7.85001 7.25011 7.91051 7.25046H7.91157C7.97136 7.25046 8.03151 7.23666 8.08953 7.21579C8.10166 7.21158 8.11293 7.20599 8.1243 7.20034L8.12432 7.20033L8.13906 7.19315C8.14667 7.18947 8.15443 7.18638 8.16217 7.1833C8.1753 7.17807 8.18838 7.17286 8.20063 7.16484C8.88064 6.72294 9.62787 6.41301 10.4211 6.24353C10.4247 6.24274 10.428 6.24151 10.4314 6.24027C10.434 6.23929 10.4367 6.2383 10.4395 6.23752C10.4675 6.23044 10.4947 6.22266 10.5205 6.21169C10.5294 6.20797 10.5374 6.20318 10.5455 6.19842L10.5455 6.19839C10.5497 6.19592 10.5538 6.19347 10.558 6.19117L10.5718 6.1839C10.585 6.17703 10.5981 6.1702 10.6104 6.16181C10.6213 6.15415 10.6312 6.14544 10.6412 6.13665L10.6412 6.13664L10.65 6.1289C10.6543 6.12525 10.6586 6.12172 10.663 6.11819L10.663 6.11817L10.663 6.11816C10.6717 6.11109 10.6804 6.10401 10.6882 6.096C10.6972 6.08707 10.7047 6.07717 10.7124 6.06717L10.7204 6.05673L10.7295 6.04587C10.7376 6.03635 10.7456 6.02693 10.7523 6.01639C10.7587 6.00669 10.7638 5.99646 10.7689 5.98608L10.769 5.98606L10.7756 5.97287C10.7783 5.96768 10.7812 5.96257 10.7841 5.95746C10.7898 5.94724 10.7955 5.93702 10.8 5.92617C10.8056 5.91218 10.8097 5.89775 10.8137 5.88322L10.817 5.87169C10.8185 5.86659 10.8202 5.86153 10.8218 5.85646L10.8218 5.85645L10.8219 5.85643C10.8249 5.84708 10.828 5.83767 10.8301 5.82781C10.835 5.80283 10.8365 5.77679 10.8379 5.7511L10.8379 5.75068C10.838 5.74664 10.8387 5.74268 10.8393 5.73868L10.8393 5.73867C10.84 5.73393 10.8407 5.72914 10.8407 5.72415V5.72132V5.71955V3.81926C10.8407 3.40142 11.1807 3.06141 11.5989 3.06141H12.1187C12.5369 3.06141 12.8769 3.40142 12.8769 3.81926V5.72061V5.72097V5.7245C12.8769 5.73113 12.8778 5.73741 12.8787 5.74373C12.8794 5.74856 12.8801 5.75342 12.8804 5.75847L12.8808 5.76477C12.882 5.78601 12.8833 5.80721 12.8875 5.82781C12.8902 5.84094 12.8943 5.85326 12.8984 5.86568L12.8984 5.86569L12.9023 5.8777C12.904 5.88301 12.9054 5.88836 12.9069 5.8937L12.9069 5.89372C12.9099 5.90473 12.9129 5.91569 12.9172 5.92617C12.9227 5.93989 12.9299 5.95255 12.9371 5.96529L12.9434 5.97641C12.946 5.98121 12.9485 5.9861 12.951 5.99099C12.9554 5.99978 12.9599 6.00856 12.9653 6.01675C12.9736 6.02913 12.9831 6.04028 12.9925 6.05144L12.9982 6.05814L13.0068 6.069C13.014 6.07832 13.0213 6.0877 13.0297 6.09635C13.0388 6.10575 13.049 6.11385 13.0593 6.12201L13.0679 6.1289L13.0795 6.13891C13.0888 6.14705 13.098 6.15514 13.1083 6.16216C13.1192 6.16963 13.131 6.17587 13.1429 6.18212L13.1578 6.19011L13.1701 6.19719C13.1792 6.20255 13.1883 6.20789 13.1981 6.21205C13.2218 6.22231 13.2473 6.22938 13.2728 6.2361C13.2767 6.23709 13.2804 6.23844 13.2841 6.2398C13.2884 6.24137 13.2926 6.24294 13.2972 6.24389C14.0901 6.41336 14.8376 6.72329 15.5184 7.1652C15.53 7.17274 15.5426 7.17778 15.5551 7.18282C15.5631 7.18605 15.5711 7.18927 15.5789 7.19315L15.5919 7.19955C15.6042 7.20568 15.6163 7.21169 15.6291 7.21614C15.6871 7.23702 15.7466 7.25082 15.8067 7.25082C15.8676 7.25082 15.927 7.23666 15.984 7.2165L15.9897 7.21446L15.9897 7.21445C16.0004 7.2106 16.011 7.20681 16.0218 7.20199C16.0777 7.17723 16.1294 7.14432 16.1747 7.10045C16.1758 7.09934 16.1772 7.09861 16.1786 7.09787C16.1799 7.0972 16.1813 7.09651 16.1825 7.0955L17.529 5.74856C17.8255 5.4549 18.306 5.45349 18.5997 5.74715L18.9712 6.11864C19.1735 6.32102 19.2326 6.61114 19.1562 6.86906C19.1705 6.86943 19.1848 6.8695 19.1991 6.86957H19.1991C19.2256 6.8697 19.2521 6.86982 19.279 6.87189C19.5861 6.89772 19.8921 6.98369 20.1843 7.11496C20.3429 6.5096 20.1935 5.83984 19.7216 5.36822L19.3501 4.99673C18.6439 4.29053 17.4915 4.28982 16.7797 4.99673L15.7215 6.05531C15.1593 5.7337 14.5631 5.48604 13.9386 5.31586V3.81926C13.9386 2.81623 13.1224 2 12.119 2H11.5993C10.5962 2 9.77966 2.81623 9.77966 3.81926V5.3155C9.15519 5.48604 8.55868 5.73335 7.99683 6.05496L6.93684 4.99496C6.22675 4.28947 5.0737 4.29018 4.36821 4.99637L3.99672 5.36787C3.29052 6.07371 3.29017 7.22605 3.99672 7.93826L5.05495 8.99649C4.73334 9.55869 4.48603 10.1548 4.3155 10.7793H2.81961C1.81657 10.7793 0.999992 11.5955 0.999992 12.5986V13.1187C0.999992 14.1217 1.81622 14.9379 2.81961 14.9379H4.3155C4.48603 15.5628 4.73334 16.1589 5.05495 16.7208L3.9953 17.7808C3.28982 18.4908 3.29052 19.6432 3.99672 20.3494L4.36821 20.7209C4.72131 21.074 5.18621 21.2505 5.65146 21.2505C6.11672 21.2505 6.58268 21.0743 6.93825 20.7209L7.99683 19.6626C8.35382 19.8671 8.72638 20.0377 9.10955 20.1817L9.0862 19.03C8.78122 18.8924 8.48402 18.7367 8.20027 18.5528ZM22.4705 10.0202L20.3325 8.237C19.9974 7.95749 19.598 7.78554 19.2077 7.75264C18.7542 7.7162 18.3469 7.8701 18.089 8.17897L16.4251 10.1741L10.076 17.7876L10.0803 17.7911C9.99996 17.8874 9.95043 18.008 9.95326 18.1386L10.0371 22.2678C10.0403 22.4253 10.1132 22.5732 10.2363 22.6715C10.3311 22.7476 10.4482 22.7879 10.5678 22.7879C10.6032 22.7879 10.6386 22.7844 10.6736 22.7773L14.6458 21.9696C14.7661 21.9452 14.868 21.8772 14.9437 21.7863L14.9476 21.7895L21.2665 14.2124L22.9305 12.2173C23.4304 11.6169 23.228 10.6521 22.4705 10.0202ZM11.0851 21.6098L11.0373 19.2669L13.3388 21.1512L11.0851 21.6098ZM14.4685 20.7051L11.2337 18.0561L16.9002 11.2617L20.111 13.9393L14.4685 20.7051ZM22.1149 11.5369L20.791 13.1241L17.5802 10.4465L18.9042 8.85899C18.936 8.82078 19.0195 8.80238 19.1186 8.81052C19.2909 8.82502 19.4855 8.91312 19.6521 9.05216L21.7902 10.8353C22.1231 11.1127 22.19 11.4474 22.1149 11.5369ZM11.859 8.99464C9.72838 8.99464 7.99509 10.7279 7.99509 12.8585C7.99509 14.375 8.875 15.6862 10.1494 16.3188L9.45383 17.1527C7.95193 16.3078 6.93368 14.7008 6.93368 12.8585C6.93368 10.1427 9.14319 7.93323 11.859 7.93323C13.3835 7.93323 14.7478 8.62952 15.6521 9.72065L14.9551 10.5563C14.25 9.61097 13.1263 8.99464 11.859 8.99464Z" fill="black" fill-opacity="0.2"/>
<path fill-rule="evenodd" clip-rule="evenodd" d="M8.20027 18.5528C8.17338 18.5354 8.14543 18.522 8.11713 18.5099C8.11569 18.5093 8.11433 18.5085 8.11297 18.5078C8.11132 18.5068 8.10968 18.5059 8.10793 18.5053C8.04637 18.4806 7.98197 18.4693 7.91794 18.4686C7.9144 18.4686 7.91121 18.4678 7.90803 18.4678C7.84293 18.4682 7.77854 18.4813 7.71804 18.5046L7.70884 18.5075C7.64551 18.5337 7.58677 18.5719 7.53653 18.6217L7.53547 18.6225L7.53441 18.6235L7.53194 18.626L6.18854 19.969C5.89205 20.2638 5.41194 20.2638 5.11793 19.9705L4.74643 19.599C4.45277 19.3053 4.45348 18.8248 4.74643 18.5301L6.0916 17.1849L6.09301 17.1835L6.09478 17.1818L6.095 17.1815L6.09584 17.18C6.14537 17.1301 6.18359 17.0717 6.20977 17.0088C6.21118 17.0056 6.21154 17.002 6.21295 16.9988C6.2363 16.9383 6.24939 16.8743 6.24975 16.8096C6.24975 16.8064 6.24904 16.8032 6.24904 16.7997C6.24833 16.7353 6.23666 16.6709 6.21189 16.6093C6.21083 16.6068 6.20906 16.6047 6.208 16.6022C6.19597 16.5732 6.18217 16.5449 6.16448 16.5177C5.72258 15.8377 5.41265 15.0904 5.24317 14.2968C5.24221 14.2924 5.24072 14.2883 5.23922 14.2841C5.23797 14.2807 5.23671 14.2772 5.23574 14.2735C5.22902 14.2477 5.22159 14.2215 5.21133 14.1974C5.20825 14.1902 5.20434 14.1835 5.20042 14.1768C5.19902 14.1744 5.19763 14.172 5.19627 14.1696C5.19487 14.1671 5.19351 14.1646 5.19222 14.162L5.18691 14.1519C5.17891 14.1366 5.17101 14.1214 5.16144 14.1072C5.15628 14.0997 5.15033 14.0929 5.14443 14.0863L5.13562 14.0761L5.13002 14.0691C5.11884 14.0551 5.10766 14.0411 5.09493 14.0287C5.09024 14.024 5.08503 14.0199 5.07985 14.0159L5.07984 14.0159C5.07643 14.0132 5.07304 14.0106 5.06981 14.0078L5.06582 14.0043C5.04945 13.9902 5.03296 13.976 5.01497 13.9643C5.01081 13.9616 5.00641 13.9593 5.00198 13.9571L5.00196 13.9571C4.99886 13.9555 4.99574 13.954 4.99268 13.9522C4.97074 13.9391 4.94845 13.9264 4.92439 13.9169C4.91951 13.9149 4.91452 13.9135 4.90953 13.9121C4.90549 13.9109 4.90146 13.9098 4.8975 13.9084L4.89543 13.9076C4.87279 13.8997 4.85043 13.8919 4.82674 13.8875C4.81539 13.8854 4.80387 13.8845 4.7923 13.8836C4.7893 13.8834 4.7863 13.8832 4.78329 13.8829C4.78056 13.8827 4.77782 13.8825 4.77509 13.8822L4.75991 13.8803L4.7599 13.8803C4.74841 13.8788 4.73688 13.8772 4.72485 13.8772H2.81961C2.40141 13.8772 2.06141 13.5372 2.06141 13.1194V12.5993C2.06141 12.1814 2.40141 11.8414 2.81961 11.8414H4.72379H4.72556C4.72609 11.8414 4.72662 11.8413 4.72715 11.8411C4.72768 11.8409 4.72821 11.8407 4.72874 11.8407C4.78393 11.8404 4.8363 11.8294 4.88618 11.8135C4.88982 11.8123 4.89346 11.8113 4.8971 11.8102C4.90195 11.8089 4.90681 11.8075 4.91166 11.8057C4.96013 11.7873 5.00471 11.7622 5.04539 11.7314C5.05188 11.7267 5.05762 11.7217 5.06365 11.7165L5.06733 11.7134C5.10696 11.6794 5.14269 11.6412 5.171 11.5973C5.17306 11.594 5.17476 11.5906 5.17646 11.5872C5.17767 11.5847 5.17887 11.5823 5.18019 11.58C5.2085 11.5322 5.23079 11.4802 5.24317 11.4243L5.24423 11.4215C5.41371 10.6282 5.72364 9.881 6.16554 9.20028C6.18323 9.17304 6.19703 9.14473 6.20906 9.11572L6.21082 9.11219L6.2126 9.10865C6.23736 9.04673 6.24904 8.98234 6.24975 8.91795C6.24975 8.91476 6.25045 8.91158 6.25045 8.90839C6.2501 8.84329 6.23701 8.77925 6.21366 8.71875L6.21268 8.71556C6.21205 8.71344 6.21142 8.71132 6.21047 8.7092C6.18429 8.64587 6.14608 8.58714 6.0962 8.5369L6.09549 8.53584L6.09443 8.53478L6.09124 8.53159L4.74855 7.1889C4.45419 6.89241 4.45348 6.41195 4.74714 6.11829L5.11863 5.74679C5.41265 5.45313 5.89276 5.45384 6.18783 5.74679L7.53618 7.09514C7.53724 7.0962 7.53857 7.09691 7.5399 7.09762C7.5405 7.09794 7.54111 7.09827 7.5417 7.09863C7.54238 7.09905 7.54304 7.09952 7.54361 7.1001C7.5889 7.14397 7.64055 7.17687 7.69646 7.20164C7.70729 7.20645 7.71786 7.21024 7.72862 7.2141L7.73431 7.21614C7.79127 7.23631 7.85001 7.25011 7.91051 7.25046H7.91157C7.97136 7.25046 8.03151 7.23666 8.08953 7.21579C8.10166 7.21158 8.11293 7.20599 8.1243 7.20034L8.12432 7.20033L8.13906 7.19315C8.14667 7.18947 8.15443 7.18638 8.16217 7.1833C8.1753 7.17807 8.18838 7.17286 8.20063 7.16484C8.88064 6.72294 9.62787 6.41301 10.4211 6.24353C10.4247 6.24274 10.428 6.24151 10.4314 6.24027C10.434 6.23929 10.4367 6.2383 10.4395 6.23752C10.4675 6.23044 10.4947 6.22266 10.5205 6.21169C10.5294 6.20797 10.5374 6.20318 10.5455 6.19842L10.5455 6.19839C10.5497 6.19592 10.5538 6.19347 10.558 6.19117L10.5718 6.1839C10.585 6.17703 10.5981 6.1702 10.6104 6.16181C10.6213 6.15415 10.6312 6.14544 10.6412 6.13665L10.6412 6.13664L10.65 6.1289C10.6543 6.12525 10.6586 6.12172 10.663 6.11819L10.663 6.11817L10.663 6.11816C10.6717 6.11109 10.6804 6.10401 10.6882 6.096C10.6972 6.08707 10.7047 6.07717 10.7124 6.06717L10.7204 6.05673L10.7295 6.04587C10.7376 6.03635 10.7456 6.02693 10.7523 6.01639C10.7587 6.00669 10.7638 5.99646 10.7689 5.98608L10.769 5.98606L10.7756 5.97287C10.7783 5.96768 10.7812 5.96257 10.7841 5.95746C10.7898 5.94724 10.7955 5.93702 10.8 5.92617C10.8056 5.91218 10.8097 5.89775 10.8137 5.88322L10.817 5.87169C10.8185 5.86659 10.8202 5.86153 10.8218 5.85646L10.8218 5.85645L10.8219 5.85643C10.8249 5.84708 10.828 5.83767 10.8301 5.82781C10.835 5.80283 10.8365 5.77679 10.8379 5.7511L10.8379 5.75068C10.838 5.74664 10.8387 5.74268 10.8393 5.73868L10.8393 5.73867C10.84 5.73393 10.8407 5.72914 10.8407 5.72415V5.72132V5.71955V3.81926C10.8407 3.40142 11.1807 3.06141 11.5989 3.06141H12.1187C12.5369 3.06141 12.8769 3.40142 12.8769 3.81926V5.72061V5.72097V5.7245C12.8769 5.73113 12.8778 5.73741 12.8787 5.74373C12.8794 5.74856 12.8801 5.75342 12.8804 5.75847L12.8808 5.76477C12.882 5.78601 12.8833 5.80721 12.8875 5.82781C12.8902 5.84094 12.8943 5.85326 12.8984 5.86568L12.8984 5.86569L12.9023 5.8777C12.904 5.88301 12.9054 5.88836 12.9069 5.8937L12.9069 5.89372C12.9099 5.90473 12.9129 5.91569 12.9172 5.92617C12.9227 5.93989 12.9299 5.95255 12.9371 5.96529L12.9434 5.97641C12.946 5.98121 12.9485 5.9861 12.951 5.99099C12.9554 5.99978 12.9599 6.00856 12.9653 6.01675C12.9736 6.02913 12.9831 6.04028 12.9925 6.05144L12.9982 6.05814L13.0068 6.069C13.014 6.07832 13.0213 6.0877 13.0297 6.09635C13.0388 6.10575 13.049 6.11385 13.0593 6.12201L13.0679 6.1289L13.0795 6.13891C13.0888 6.14705 13.098 6.15514 13.1083 6.16216C13.1192 6.16963 13.131 6.17587 13.1429 6.18212L13.1578 6.19011L13.1701 6.19719C13.1792 6.20255 13.1883 6.20789 13.1981 6.21205C13.2218 6.22231 13.2473 6.22938 13.2728 6.2361C13.2767 6.23709 13.2804 6.23844 13.2841 6.2398C13.2884 6.24137 13.2926 6.24294 13.2972 6.24389C14.0901 6.41336 14.8376 6.72329 15.5184 7.1652C15.53 7.17274 15.5426 7.17778 15.5551 7.18282C15.5631 7.18605 15.5711 7.18927 15.5789 7.19315L15.5919 7.19955C15.6042 7.20568 15.6163 7.21169 15.6291 7.21614C15.6871 7.23702 15.7466 7.25082 15.8067 7.25082C15.8676 7.25082 15.927 7.23666 15.984 7.2165L15.9897 7.21446L15.9897 7.21445C16.0004 7.2106 16.011 7.20681 16.0218 7.20199C16.0777 7.17723 16.1294 7.14432 16.1747 7.10045C16.1758 7.09934 16.1772 7.09861 16.1786 7.09787C16.1799 7.0972 16.1813 7.09651 16.1825 7.0955L17.529 5.74856C17.8255 5.4549 18.306 5.45349 18.5997 5.74715L18.9712 6.11864C19.1735 6.32102 19.2326 6.61114 19.1562 6.86906C19.1705 6.86943 19.1848 6.8695 19.1991 6.86957H19.1991C19.2256 6.8697 19.2521 6.86982 19.279 6.87189C19.5861 6.89772 19.8921 6.98369 20.1843 7.11496C20.3429 6.5096 20.1935 5.83984 19.7216 5.36822L19.3501 4.99673C18.6439 4.29053 17.4915 4.28982 16.7797 4.99673L15.7215 6.05531C15.1593 5.7337 14.5631 5.48604 13.9386 5.31586V3.81926C13.9386 2.81623 13.1224 2 12.119 2H11.5993C10.5962 2 9.77966 2.81623 9.77966 3.81926V5.3155C9.15519 5.48604 8.55868 5.73335 7.99683 6.05496L6.93684 4.99496C6.22675 4.28947 5.0737 4.29018 4.36821 4.99637L3.99672 5.36787C3.29052 6.07371 3.29017 7.22605 3.99672 7.93826L5.05495 8.99649C4.73334 9.55869 4.48603 10.1548 4.3155 10.7793H2.81961C1.81657 10.7793 0.999992 11.5955 0.999992 12.5986V13.1187C0.999992 14.1217 1.81622 14.9379 2.81961 14.9379H4.3155C4.48603 15.5628 4.73334 16.1589 5.05495 16.7208L3.9953 17.7808C3.28982 18.4908 3.29052 19.6432 3.99672 20.3494L4.36821 20.7209C4.72131 21.074 5.18621 21.2505 5.65146 21.2505C6.11672 21.2505 6.58268 21.0743 6.93825 20.7209L7.99683 19.6626C8.35382 19.8671 8.72638 20.0377 9.10955 20.1817L9.0862 19.03C8.78122 18.8924 8.48402 18.7367 8.20027 18.5528ZM22.4705 10.0202L20.3325 8.237C19.9974 7.95749 19.598 7.78554 19.2077 7.75264C18.7542 7.7162 18.3469 7.8701 18.089 8.17897L16.4251 10.1741L10.076 17.7876L10.0803 17.7911C9.99996 17.8874 9.95043 18.008 9.95326 18.1386L10.0371 22.2678C10.0403 22.4253 10.1132 22.5732 10.2363 22.6715C10.3311 22.7476 10.4482 22.7879 10.5678 22.7879C10.6032 22.7879 10.6386 22.7844 10.6736 22.7773L14.6458 21.9696C14.7661 21.9452 14.868 21.8772 14.9437 21.7863L14.9476 21.7895L21.2665 14.2124L22.9305 12.2173C23.4304 11.6169 23.228 10.6521 22.4705 10.0202ZM11.0851 21.6098L11.0373 19.2669L13.3388 21.1512L11.0851 21.6098ZM14.4685 20.7051L11.2337 18.0561L16.9002 11.2617L20.111 13.9393L14.4685 20.7051ZM22.1149 11.5369L20.791 13.1241L17.5802 10.4465L18.9042 8.85899C18.936 8.82078 19.0195 8.80238 19.1186 8.81052C19.2909 8.82502 19.4855 8.91312 19.6521 9.05216L21.7902 10.8353C22.1231 11.1127 22.19 11.4474 22.1149 11.5369ZM11.859 8.99464C9.72838 8.99464 7.99509 10.7279 7.99509 12.8585C7.99509 14.375 8.875 15.6862 10.1494 16.3188L9.45383 17.1527C7.95193 16.3078 6.93368 14.7008 6.93368 12.8585C6.93368 10.1427 9.14319 7.93323 11.859 7.93323C13.3835 7.93323 14.7478 8.62952 15.6521 9.72065L14.9551 10.5563C14.25 9.61097 13.1263 8.99464 11.859 8.99464Z" fill="black" fill-opacity="0.2"/>
<path fill-rule="evenodd" clip-rule="evenodd" d="M8.20027 18.5528C8.17338 18.5354 8.14543 18.522 8.11713 18.5099C8.11569 18.5093 8.11433 18.5085 8.11297 18.5078C8.11132 18.5068 8.10968 18.5059 8.10793 18.5053C8.04637 18.4806 7.98197 18.4693 7.91794 18.4686C7.9144 18.4686 7.91121 18.4678 7.90803 18.4678C7.84293 18.4682 7.77854 18.4813 7.71804 18.5046L7.70884 18.5075C7.64551 18.5337 7.58677 18.5719 7.53653 18.6217L7.53547 18.6225L7.53441 18.6235L7.53194 18.626L6.18854 19.969C5.89205 20.2638 5.41194 20.2638 5.11793 19.9705L4.74643 19.599C4.45277 19.3053 4.45348 18.8248 4.74643 18.5301L6.0916 17.1849L6.09301 17.1835L6.09478 17.1818L6.095 17.1815L6.09584 17.18C6.14537 17.1301 6.18359 17.0717 6.20977 17.0088C6.21118 17.0056 6.21154 17.002 6.21295 16.9988C6.2363 16.9383 6.24939 16.8743 6.24975 16.8096C6.24975 16.8064 6.24904 16.8032 6.24904 16.7997C6.24833 16.7353 6.23666 16.6709 6.21189 16.6093C6.21083 16.6068 6.20906 16.6047 6.208 16.6022C6.19597 16.5732 6.18217 16.5449 6.16448 16.5177C5.72258 15.8377 5.41265 15.0904 5.24317 14.2968C5.24221 14.2924 5.24072 14.2883 5.23922 14.2841C5.23797 14.2807 5.23671 14.2772 5.23574 14.2735C5.22902 14.2477 5.22159 14.2215 5.21133 14.1974C5.20825 14.1902 5.20434 14.1835 5.20042 14.1768C5.19902 14.1744 5.19763 14.172 5.19627 14.1696C5.19487 14.1671 5.19351 14.1646 5.19222 14.162L5.18691 14.1519C5.17891 14.1366 5.17101 14.1214 5.16144 14.1072C5.15628 14.0997 5.15033 14.0929 5.14443 14.0863L5.13562 14.0761L5.13002 14.0691C5.11884 14.0551 5.10766 14.0411 5.09493 14.0287C5.09024 14.024 5.08503 14.0199 5.07985 14.0159L5.07984 14.0159C5.07643 14.0132 5.07304 14.0106 5.06981 14.0078L5.06582 14.0043C5.04945 13.9902 5.03296 13.976 5.01497 13.9643C5.01081 13.9616 5.00641 13.9593 5.00198 13.9571L5.00196 13.9571C4.99886 13.9555 4.99574 13.954 4.99268 13.9522C4.97074 13.9391 4.94845 13.9264 4.92439 13.9169C4.91951 13.9149 4.91452 13.9135 4.90953 13.9121C4.90549 13.9109 4.90146 13.9098 4.8975 13.9084L4.89543 13.9076C4.87279 13.8997 4.85043 13.8919 4.82674 13.8875C4.81539 13.8854 4.80387 13.8845 4.7923 13.8836C4.7893 13.8834 4.7863 13.8832 4.78329 13.8829C4.78056 13.8827 4.77782 13.8825 4.77509 13.8822L4.75991 13.8803L4.7599 13.8803C4.74841 13.8788 4.73688 13.8772 4.72485 13.8772H2.81961C2.40141 13.8772 2.06141 13.5372 2.06141 13.1194V12.5993C2.06141 12.1814 2.40141 11.8414 2.81961 11.8414H4.72379H4.72556C4.72609 11.8414 4.72662 11.8413 4.72715 11.8411C4.72768 11.8409 4.72821 11.8407 4.72874 11.8407C4.78393 11.8404 4.8363 11.8294 4.88618 11.8135C4.88982 11.8123 4.89346 11.8113 4.8971 11.8102C4.90195 11.8089 4.90681 11.8075 4.91166 11.8057C4.96013 11.7873 5.00471 11.7622 5.04539 11.7314C5.05188 11.7267 5.05762 11.7217 5.06365 11.7165L5.06733 11.7134C5.10696 11.6794 5.14269 11.6412 5.171 11.5973C5.17306 11.594 5.17476 11.5906 5.17646 11.5872C5.17767 11.5847 5.17887 11.5823 5.18019 11.58C5.2085 11.5322 5.23079 11.4802 5.24317 11.4243L5.24423 11.4215C5.41371 10.6282 5.72364 9.881 6.16554 9.20028C6.18323 9.17304 6.19703 9.14473 6.20906 9.11572L6.21082 9.11219L6.2126 9.10865C6.23736 9.04673 6.24904 8.98234 6.24975 8.91795C6.24975 8.91476 6.25045 8.91158 6.25045 8.90839C6.2501 8.84329 6.23701 8.77925 6.21366 8.71875L6.21268 8.71556C6.21205 8.71344 6.21142 8.71132 6.21047 8.7092C6.18429 8.64587 6.14608 8.58714 6.0962 8.5369L6.09549 8.53584L6.09443 8.53478L6.09124 8.53159L4.74855 7.1889C4.45419 6.89241 4.45348 6.41195 4.74714 6.11829L5.11863 5.74679C5.41265 5.45313 5.89276 5.45384 6.18783 5.74679L7.53618 7.09514C7.53724 7.0962 7.53857 7.09691 7.5399 7.09762C7.5405 7.09794 7.54111 7.09827 7.5417 7.09863C7.54238 7.09905 7.54304 7.09952 7.54361 7.1001C7.5889 7.14397 7.64055 7.17687 7.69646 7.20164C7.70729 7.20645 7.71786 7.21024 7.72862 7.2141L7.73431 7.21614C7.79127 7.23631 7.85001 7.25011 7.91051 7.25046H7.91157C7.97136 7.25046 8.03151 7.23666 8.08953 7.21579C8.10166 7.21158 8.11293 7.20599 8.1243 7.20034L8.12432 7.20033L8.13906 7.19315C8.14667 7.18947 8.15443 7.18638 8.16217 7.1833C8.1753 7.17807 8.18838 7.17286 8.20063 7.16484C8.88064 6.72294 9.62787 6.41301 10.4211 6.24353C10.4247 6.24274 10.428 6.24151 10.4314 6.24027C10.434 6.23929 10.4367 6.2383 10.4395 6.23752C10.4675 6.23044 10.4947 6.22266 10.5205 6.21169C10.5294 6.20797 10.5374 6.20318 10.5455 6.19842L10.5455 6.19839C10.5497 6.19592 10.5538 6.19347 10.558 6.19117L10.5718 6.1839C10.585 6.17703 10.5981 6.1702 10.6104 6.16181C10.6213 6.15415 10.6312 6.14544 10.6412 6.13665L10.6412 6.13664L10.65 6.1289C10.6543 6.12525 10.6586 6.12172 10.663 6.11819L10.663 6.11817L10.663 6.11816C10.6717 6.11109 10.6804 6.10401 10.6882 6.096C10.6972 6.08707 10.7047 6.07717 10.7124 6.06717L10.7204 6.05673L10.7295 6.04587C10.7376 6.03635 10.7456 6.02693 10.7523 6.01639C10.7587 6.00669 10.7638 5.99646 10.7689 5.98608L10.769 5.98606L10.7756 5.97287C10.7783 5.96768 10.7812 5.96257 10.7841 5.95746C10.7898 5.94724 10.7955 5.93702 10.8 5.92617C10.8056 5.91218 10.8097 5.89775 10.8137 5.88322L10.817 5.87169C10.8185 5.86659 10.8202 5.86153 10.8218 5.85646L10.8218 5.85645L10.8219 5.85643C10.8249 5.84708 10.828 5.83767 10.8301 5.82781C10.835 5.80283 10.8365 5.77679 10.8379 5.7511L10.8379 5.75068C10.838 5.74664 10.8387 5.74268 10.8393 5.73868L10.8393 5.73867C10.84 5.73393 10.8407 5.72914 10.8407 5.72415V5.72132V5.71955V3.81926C10.8407 3.40142 11.1807 3.06141 11.5989 3.06141H12.1187C12.5369 3.06141 12.8769 3.40142 12.8769 3.81926V5.72061V5.72097V5.7245C12.8769 5.73113 12.8778 5.73741 12.8787 5.74373C12.8794 5.74856 12.8801 5.75342 12.8804 5.75847L12.8808 5.76477C12.882 5.78601 12.8833 5.80721 12.8875 5.82781C12.8902 5.84094 12.8943 5.85326 12.8984 5.86568L12.8984 5.86569L12.9023 5.8777C12.904 5.88301 12.9054 5.88836 12.9069 5.8937L12.9069 5.89372C12.9099 5.90473 12.9129 5.91569 12.9172 5.92617C12.9227 5.93989 12.9299 5.95255 12.9371 5.96529L12.9434 5.97641C12.946 5.98121 12.9485 5.9861 12.951 5.99099C12.9554 5.99978 12.9599 6.00856 12.9653 6.01675C12.9736 6.02913 12.9831 6.04028 12.9925 6.05144L12.9982 6.05814L13.0068 6.069C13.014 6.07832 13.0213 6.0877 13.0297 6.09635C13.0388 6.10575 13.049 6.11385 13.0593 6.12201L13.0679 6.1289L13.0795 6.13891C13.0888 6.14705 13.098 6.15514 13.1083 6.16216C13.1192 6.16963 13.131 6.17587 13.1429 6.18212L13.1578 6.19011L13.1701 6.19719C13.1792 6.20255 13.1883 6.20789 13.1981 6.21205C13.2218 6.22231 13.2473 6.22938 13.2728 6.2361C13.2767 6.23709 13.2804 6.23844 13.2841 6.2398C13.2884 6.24137 13.2926 6.24294 13.2972 6.24389C14.0901 6.41336 14.8376 6.72329 15.5184 7.1652C15.53 7.17274 15.5426 7.17778 15.5551 7.18282C15.5631 7.18605 15.5711 7.18927 15.5789 7.19315L15.5919 7.19955C15.6042 7.20568 15.6163 7.21169 15.6291 7.21614C15.6871 7.23702 15.7466 7.25082 15.8067 7.25082C15.8676 7.25082 15.927 7.23666 15.984 7.2165L15.9897 7.21446L15.9897 7.21445C16.0004 7.2106 16.011 7.20681 16.0218 7.20199C16.0777 7.17723 16.1294 7.14432 16.1747 7.10045C16.1758 7.09934 16.1772 7.09861 16.1786 7.09787C16.1799 7.0972 16.1813 7.09651 16.1825 7.0955L17.529 5.74856C17.8255 5.4549 18.306 5.45349 18.5997 5.74715L18.9712 6.11864C19.1735 6.32102 19.2326 6.61114 19.1562 6.86906C19.1705 6.86943 19.1848 6.8695 19.1991 6.86957H19.1991C19.2256 6.8697 19.2521 6.86982 19.279 6.87189C19.5861 6.89772 19.8921 6.98369 20.1843 7.11496C20.3429 6.5096 20.1935 5.83984 19.7216 5.36822L19.3501 4.99673C18.6439 4.29053 17.4915 4.28982 16.7797 4.99673L15.7215 6.05531C15.1593 5.7337 14.5631 5.48604 13.9386 5.31586V3.81926C13.9386 2.81623 13.1224 2 12.119 2H11.5993C10.5962 2 9.77966 2.81623 9.77966 3.81926V5.3155C9.15519 5.48604 8.55868 5.73335 7.99683 6.05496L6.93684 4.99496C6.22675 4.28947 5.0737 4.29018 4.36821 4.99637L3.99672 5.36787C3.29052 6.07371 3.29017 7.22605 3.99672 7.93826L5.05495 8.99649C4.73334 9.55869 4.48603 10.1548 4.3155 10.7793H2.81961C1.81657 10.7793 0.999992 11.5955 0.999992 12.5986V13.1187C0.999992 14.1217 1.81622 14.9379 2.81961 14.9379H4.3155C4.48603 15.5628 4.73334 16.1589 5.05495 16.7208L3.9953 17.7808C3.28982 18.4908 3.29052 19.6432 3.99672 20.3494L4.36821 20.7209C4.72131 21.074 5.18621 21.2505 5.65146 21.2505C6.11672 21.2505 6.58268 21.0743 6.93825 20.7209L7.99683 19.6626C8.35382 19.8671 8.72638 20.0377 9.10955 20.1817L9.0862 19.03C8.78122 18.8924 8.48402 18.7367 8.20027 18.5528ZM22.4705 10.0202L20.3325 8.237C19.9974 7.95749 19.598 7.78554 19.2077 7.75264C18.7542 7.7162 18.3469 7.8701 18.089 8.17897L16.4251 10.1741L10.076 17.7876L10.0803 17.7911C9.99996 17.8874 9.95043 18.008 9.95326 18.1386L10.0371 22.2678C10.0403 22.4253 10.1132 22.5732 10.2363 22.6715C10.3311 22.7476 10.4482 22.7879 10.5678 22.7879C10.6032 22.7879 10.6386 22.7844 10.6736 22.7773L14.6458 21.9696C14.7661 21.9452 14.868 21.8772 14.9437 21.7863L14.9476 21.7895L21.2665 14.2124L22.9305 12.2173C23.4304 11.6169 23.228 10.6521 22.4705 10.0202ZM11.0851 21.6098L11.0373 19.2669L13.3388 21.1512L11.0851 21.6098ZM14.4685 20.7051L11.2337 18.0561L16.9002 11.2617L20.111 13.9393L14.4685 20.7051ZM22.1149 11.5369L20.791 13.1241L17.5802 10.4465L18.9042 8.85899C18.936 8.82078 19.0195 8.80238 19.1186 8.81052C19.2909 8.82502 19.4855 8.91312 19.6521 9.05216L21.7902 10.8353C22.1231 11.1127 22.19 11.4474 22.1149 11.5369ZM11.859 8.99464C9.72838 8.99464 7.99509 10.7279 7.99509 12.8585C7.99509 14.375 8.875 15.6862 10.1494 16.3188L9.45383 17.1527C7.95193 16.3078 6.93368 14.7008 6.93368 12.8585C6.93368 10.1427 9.14319 7.93323 11.859 7.93323C13.3835 7.93323 14.7478 8.62952 15.6521 9.72065L14.9551 10.5563C14.25 9.61097 13.1263 8.99464 11.859 8.99464Z" fill="black" fill-opacity="0.2"/>
<path fill-rule="evenodd" clip-rule="evenodd" d="M8.20027 18.5528C8.17338 18.5354 8.14543 18.522 8.11713 18.5099C8.11569 18.5093 8.11433 18.5085 8.11297 18.5078C8.11132 18.5068 8.10968 18.5059 8.10793 18.5053C8.04637 18.4806 7.98197 18.4693 7.91794 18.4686C7.9144 18.4686 7.91121 18.4678 7.90803 18.4678C7.84293 18.4682 7.77854 18.4813 7.71804 18.5046L7.70884 18.5075C7.64551 18.5337 7.58677 18.5719 7.53653 18.6217L7.53547 18.6225L7.53441 18.6235L7.53194 18.626L6.18854 19.969C5.89205 20.2638 5.41194 20.2638 5.11793 19.9705L4.74643 19.599C4.45277 19.3053 4.45348 18.8248 4.74643 18.5301L6.0916 17.1849L6.09301 17.1835L6.09478 17.1818L6.095 17.1815L6.09584 17.18C6.14537 17.1301 6.18359 17.0717 6.20977 17.0088C6.21118 17.0056 6.21154 17.002 6.21295 16.9988C6.2363 16.9383 6.24939 16.8743 6.24975 16.8096C6.24975 16.8064 6.24904 16.8032 6.24904 16.7997C6.24833 16.7353 6.23666 16.6709 6.21189 16.6093C6.21083 16.6068 6.20906 16.6047 6.208 16.6022C6.19597 16.5732 6.18217 16.5449 6.16448 16.5177C5.72258 15.8377 5.41265 15.0904 5.24317 14.2968C5.24221 14.2924 5.24072 14.2883 5.23922 14.2841C5.23797 14.2807 5.23671 14.2772 5.23574 14.2735C5.22902 14.2477 5.22159 14.2215 5.21133 14.1974C5.20825 14.1902 5.20434 14.1835 5.20042 14.1768C5.19902 14.1744 5.19763 14.172 5.19627 14.1696C5.19487 14.1671 5.19351 14.1646 5.19222 14.162L5.18691 14.1519C5.17891 14.1366 5.17101 14.1214 5.16144 14.1072C5.15628 14.0997 5.15033 14.0929 5.14443 14.0863L5.13562 14.0761L5.13002 14.0691C5.11884 14.0551 5.10766 14.0411 5.09493 14.0287C5.09024 14.024 5.08503 14.0199 5.07985 14.0159L5.07984 14.0159C5.07643 14.0132 5.07304 14.0106 5.06981 14.0078L5.06582 14.0043C5.04945 13.9902 5.03296 13.976 5.01497 13.9643C5.01081 13.9616 5.00641 13.9593 5.00198 13.9571L5.00196 13.9571C4.99886 13.9555 4.99574 13.954 4.99268 13.9522C4.97074 13.9391 4.94845 13.9264 4.92439 13.9169C4.91951 13.9149 4.91452 13.9135 4.90953 13.9121C4.90549 13.9109 4.90146 13.9098 4.8975 13.9084L4.89543 13.9076C4.87279 13.8997 4.85043 13.8919 4.82674 13.8875C4.81539 13.8854 4.80387 13.8845 4.7923 13.8836C4.7893 13.8834 4.7863 13.8832 4.78329 13.8829C4.78056 13.8827 4.77782 13.8825 4.77509 13.8822L4.75991 13.8803L4.7599 13.8803C4.74841 13.8788 4.73688 13.8772 4.72485 13.8772H2.81961C2.40141 13.8772 2.06141 13.5372 2.06141 13.1194V12.5993C2.06141 12.1814 2.40141 11.8414 2.81961 11.8414H4.72379H4.72556C4.72609 11.8414 4.72662 11.8413 4.72715 11.8411C4.72768 11.8409 4.72821 11.8407 4.72874 11.8407C4.78393 11.8404 4.8363 11.8294 4.88618 11.8135C4.88982 11.8123 4.89346 11.8113 4.8971 11.8102C4.90195 11.8089 4.90681 11.8075 4.91166 11.8057C4.96013 11.7873 5.00471 11.7622 5.04539 11.7314C5.05188 11.7267 5.05762 11.7217 5.06365 11.7165L5.06733 11.7134C5.10696 11.6794 5.14269 11.6412 5.171 11.5973C5.17306 11.594 5.17476 11.5906 5.17646 11.5872C5.17767 11.5847 5.17887 11.5823 5.18019 11.58C5.2085 11.5322 5.23079 11.4802 5.24317 11.4243L5.24423 11.4215C5.41371 10.6282 5.72364 9.881 6.16554 9.20028C6.18323 9.17304 6.19703 9.14473 6.20906 9.11572L6.21082 9.11219L6.2126 9.10865C6.23736 9.04673 6.24904 8.98234 6.24975 8.91795C6.24975 8.91476 6.25045 8.91158 6.25045 8.90839C6.2501 8.84329 6.23701 8.77925 6.21366 8.71875L6.21268 8.71556C6.21205 8.71344 6.21142 8.71132 6.21047 8.7092C6.18429 8.64587 6.14608 8.58714 6.0962 8.5369L6.09549 8.53584L6.09443 8.53478L6.09124 8.53159L4.74855 7.1889C4.45419 6.89241 4.45348 6.41195 4.74714 6.11829L5.11863 5.74679C5.41265 5.45313 5.89276 5.45384 6.18783 5.74679L7.53618 7.09514C7.53724 7.0962 7.53857 7.09691 7.5399 7.09762C7.5405 7.09794 7.54111 7.09827 7.5417 7.09863C7.54238 7.09905 7.54304 7.09952 7.54361 7.1001C7.5889 7.14397 7.64055 7.17687 7.69646 7.20164C7.70729 7.20645 7.71786 7.21024 7.72862 7.2141L7.73431 7.21614C7.79127 7.23631 7.85001 7.25011 7.91051 7.25046H7.91157C7.97136 7.25046 8.03151 7.23666 8.08953 7.21579C8.10166 7.21158 8.11293 7.20599 8.1243 7.20034L8.12432 7.20033L8.13906 7.19315C8.14667 7.18947 8.15443 7.18638 8.16217 7.1833C8.1753 7.17807 8.18838 7.17286 8.20063 7.16484C8.88064 6.72294 9.62787 6.41301 10.4211 6.24353C10.4247 6.24274 10.428 6.24151 10.4314 6.24027C10.434 6.23929 10.4367 6.2383 10.4395 6.23752C10.4675 6.23044 10.4947 6.22266 10.5205 6.21169C10.5294 6.20797 10.5374 6.20318 10.5455 6.19842L10.5455 6.19839C10.5497 6.19592 10.5538 6.19347 10.558 6.19117L10.5718 6.1839C10.585 6.17703 10.5981 6.1702 10.6104 6.16181C10.6213 6.15415 10.6312 6.14544 10.6412 6.13665L10.6412 6.13664L10.65 6.1289C10.6543 6.12525 10.6586 6.12172 10.663 6.11819L10.663 6.11817L10.663 6.11816C10.6717 6.11109 10.6804 6.10401 10.6882 6.096C10.6972 6.08707 10.7047 6.07717 10.7124 6.06717L10.7204 6.05673L10.7295 6.04587C10.7376 6.03635 10.7456 6.02693 10.7523 6.01639C10.7587 6.00669 10.7638 5.99646 10.7689 5.98608L10.769 5.98606L10.7756 5.97287C10.7783 5.96768 10.7812 5.96257 10.7841 5.95746C10.7898 5.94724 10.7955 5.93702 10.8 5.92617C10.8056 5.91218 10.8097 5.89775 10.8137 5.88322L10.817 5.87169C10.8185 5.86659 10.8202 5.86153 10.8218 5.85646L10.8218 5.85645L10.8219 5.85643C10.8249 5.84708 10.828 5.83767 10.8301 5.82781C10.835 5.80283 10.8365 5.77679 10.8379 5.7511L10.8379 5.75068C10.838 5.74664 10.8387 5.74268 10.8393 5.73868L10.8393 5.73867C10.84 5.73393 10.8407 5.72914 10.8407 5.72415V5.72132V5.71955V3.81926C10.8407 3.40142 11.1807 3.06141 11.5989 3.06141H12.1187C12.5369 3.06141 12.8769 3.40142 12.8769 3.81926V5.72061V5.72097V5.7245C12.8769 5.73113 12.8778 5.73741 12.8787 5.74373C12.8794 5.74856 12.8801 5.75342 12.8804 5.75847L12.8808 5.76477C12.882 5.78601 12.8833 5.80721 12.8875 5.82781C12.8902 5.84094 12.8943 5.85326 12.8984 5.86568L12.8984 5.86569L12.9023 5.8777C12.904 5.88301 12.9054 5.88836 12.9069 5.8937L12.9069 5.89372C12.9099 5.90473 12.9129 5.91569 12.9172 5.92617C12.9227 5.93989 12.9299 5.95255 12.9371 5.96529L12.9434 5.97641C12.946 5.98121 12.9485 5.9861 12.951 5.99099C12.9554 5.99978 12.9599 6.00856 12.9653 6.01675C12.9736 6.02913 12.9831 6.04028 12.9925 6.05144L12.9982 6.05814L13.0068 6.069C13.014 6.07832 13.0213 6.0877 13.0297 6.09635C13.0388 6.10575 13.049 6.11385 13.0593 6.12201L13.0679 6.1289L13.0795 6.13891C13.0888 6.14705 13.098 6.15514 13.1083 6.16216C13.1192 6.16963 13.131 6.17587 13.1429 6.18212L13.1578 6.19011L13.1701 6.19719C13.1792 6.20255 13.1883 6.20789 13.1981 6.21205C13.2218 6.22231 13.2473 6.22938 13.2728 6.2361C13.2767 6.23709 13.2804 6.23844 13.2841 6.2398C13.2884 6.24137 13.2926 6.24294 13.2972 6.24389C14.0901 6.41336 14.8376 6.72329 15.5184 7.1652C15.53 7.17274 15.5426 7.17778 15.5551 7.18282C15.5631 7.18605 15.5711 7.18927 15.5789 7.19315L15.5919 7.19955C15.6042 7.20568 15.6163 7.21169 15.6291 7.21614C15.6871 7.23702 15.7466 7.25082 15.8067 7.25082C15.8676 7.25082 15.927 7.23666 15.984 7.2165L15.9897 7.21446L15.9897 7.21445C16.0004 7.2106 16.011 7.20681 16.0218 7.20199C16.0777 7.17723 16.1294 7.14432 16.1747 7.10045C16.1758 7.09934 16.1772 7.09861 16.1786 7.09787C16.1799 7.0972 16.1813 7.09651 16.1825 7.0955L17.529 5.74856C17.8255 5.4549 18.306 5.45349 18.5997 5.74715L18.9712 6.11864C19.1735 6.32102 19.2326 6.61114 19.1562 6.86906C19.1705 6.86943 19.1848 6.8695 19.1991 6.86957H19.1991C19.2256 6.8697 19.2521 6.86982 19.279 6.87189C19.5861 6.89772 19.8921 6.98369 20.1843 7.11496C20.3429 6.5096 20.1935 5.83984 19.7216 5.36822L19.3501 4.99673C18.6439 4.29053 17.4915 4.28982 16.7797 4.99673L15.7215 6.05531C15.1593 5.7337 14.5631 5.48604 13.9386 5.31586V3.81926C13.9386 2.81623 13.1224 2 12.119 2H11.5993C10.5962 2 9.77966 2.81623 9.77966 3.81926V5.3155C9.15519 5.48604 8.55868 5.73335 7.99683 6.05496L6.93684 4.99496C6.22675 4.28947 5.0737 4.29018 4.36821 4.99637L3.99672 5.36787C3.29052 6.07371 3.29017 7.22605 3.99672 7.93826L5.05495 8.99649C4.73334 9.55869 4.48603 10.1548 4.3155 10.7793H2.81961C1.81657 10.7793 0.999992 11.5955 0.999992 12.5986V13.1187C0.999992 14.1217 1.81622 14.9379 2.81961 14.9379H4.3155C4.48603 15.5628 4.73334 16.1589 5.05495 16.7208L3.9953 17.7808C3.28982 18.4908 3.29052 19.6432 3.99672 20.3494L4.36821 20.7209C4.72131 21.074 5.18621 21.2505 5.65146 21.2505C6.11672 21.2505 6.58268 21.0743 6.93825 20.7209L7.99683 19.6626C8.35382 19.8671 8.72638 20.0377 9.10955 20.1817L9.0862 19.03C8.78122 18.8924 8.48402 18.7367 8.20027 18.5528ZM22.4705 10.0202L20.3325 8.237C19.9974 7.95749 19.598 7.78554 19.2077 7.75264C18.7542 7.7162 18.3469 7.8701 18.089 8.17897L16.4251 10.1741L10.076 17.7876L10.0803 17.7911C9.99996 17.8874 9.95043 18.008 9.95326 18.1386L10.0371 22.2678C10.0403 22.4253 10.1132 22.5732 10.2363 22.6715C10.3311 22.7476 10.4482 22.7879 10.5678 22.7879C10.6032 22.7879 10.6386 22.7844 10.6736 22.7773L14.6458 21.9696C14.7661 21.9452 14.868 21.8772 14.9437 21.7863L14.9476 21.7895L21.2665 14.2124L22.9305 12.2173C23.4304 11.6169 23.228 10.6521 22.4705 10.0202ZM11.0851 21.6098L11.0373 19.2669L13.3388 21.1512L11.0851 21.6098ZM14.4685 20.7051L11.2337 18.0561L16.9002 11.2617L20.111 13.9393L14.4685 20.7051ZM22.1149 11.5369L20.791 13.1241L17.5802 10.4465L18.9042 8.85899C18.936 8.82078 19.0195 8.80238 19.1186 8.81052C19.2909 8.82502 19.4855 8.91312 19.6521 9.05216L21.7902 10.8353C22.1231 11.1127 22.19 11.4474 22.1149 11.5369ZM11.859 8.99464C9.72838 8.99464 7.99509 10.7279 7.99509 12.8585C7.99509 14.375 8.875 15.6862 10.1494 16.3188L9.45383 17.1527C7.95193 16.3078 6.93368 14.7008 6.93368 12.8585C6.93368 10.1427 9.14319 7.93323 11.859 7.93323C13.3835 7.93323 14.7478 8.62952 15.6521 9.72065L14.9551 10.5563C14.25 9.61097 13.1263 8.99464 11.859 8.99464Z" fill="black" fill-opacity="0.2"/>
<path fill-rule="evenodd" clip-rule="evenodd" d="M8.20027 18.5528C8.17338 18.5354 8.14543 18.522 8.11713 18.5099C8.11569 18.5093 8.11433 18.5085 8.11297 18.5078C8.11132 18.5068 8.10968 18.5059 8.10793 18.5053C8.04637 18.4806 7.98197 18.4693 7.91794 18.4686C7.9144 18.4686 7.91121 18.4678 7.90803 18.4678C7.84293 18.4682 7.77854 18.4813 7.71804 18.5046L7.70884 18.5075C7.64551 18.5337 7.58677 18.5719 7.53653 18.6217L7.53547 18.6225L7.53441 18.6235L7.53194 18.626L6.18854 19.969C5.89205 20.2638 5.41194 20.2638 5.11793 19.9705L4.74643 19.599C4.45277 19.3053 4.45348 18.8248 4.74643 18.5301L6.0916 17.1849L6.09301 17.1835L6.09478 17.1818L6.095 17.1815L6.09584 17.18C6.14537 17.1301 6.18359 17.0717 6.20977 17.0088C6.21118 17.0056 6.21154 17.002 6.21295 16.9988C6.2363 16.9383 6.24939 16.8743 6.24975 16.8096C6.24975 16.8064 6.24904 16.8032 6.24904 16.7997C6.24833 16.7353 6.23666 16.6709 6.21189 16.6093C6.21083 16.6068 6.20906 16.6047 6.208 16.6022C6.19597 16.5732 6.18217 16.5449 6.16448 16.5177C5.72258 15.8377 5.41265 15.0904 5.24317 14.2968C5.24221 14.2924 5.24072 14.2883 5.23922 14.2841C5.23797 14.2807 5.23671 14.2772 5.23574 14.2735C5.22902 14.2477 5.22159 14.2215 5.21133 14.1974C5.20825 14.1902 5.20434 14.1835 5.20042 14.1768C5.19902 14.1744 5.19763 14.172 5.19627 14.1696C5.19487 14.1671 5.19351 14.1646 5.19222 14.162L5.18691 14.1519C5.17891 14.1366 5.17101 14.1214 5.16144 14.1072C5.15628 14.0997 5.15033 14.0929 5.14443 14.0863L5.13562 14.0761L5.13002 14.0691C5.11884 14.0551 5.10766 14.0411 5.09493 14.0287C5.09024 14.024 5.08503 14.0199 5.07985 14.0159L5.07984 14.0159C5.07643 14.0132 5.07304 14.0106 5.06981 14.0078L5.06582 14.0043C5.04945 13.9902 5.03296 13.976 5.01497 13.9643C5.01081 13.9616 5.00641 13.9593 5.00198 13.9571L5.00196 13.9571C4.99886 13.9555 4.99574 13.954 4.99268 13.9522C4.97074 13.9391 4.94845 13.9264 4.92439 13.9169C4.91951 13.9149 4.91452 13.9135 4.90953 13.9121C4.90549 13.9109 4.90146 13.9098 4.8975 13.9084L4.89543 13.9076C4.87279 13.8997 4.85043 13.8919 4.82674 13.8875C4.81539 13.8854 4.80387 13.8845 4.7923 13.8836C4.7893 13.8834 4.7863 13.8832 4.78329 13.8829C4.78056 13.8827 4.77782 13.8825 4.77509 13.8822L4.75991 13.8803L4.7599 13.8803C4.74841 13.8788 4.73688 13.8772 4.72485 13.8772H2.81961C2.40141 13.8772 2.06141 13.5372 2.06141 13.1194V12.5993C2.06141 12.1814 2.40141 11.8414 2.81961 11.8414H4.72379H4.72556C4.72609 11.8414 4.72662 11.8413 4.72715 11.8411C4.72768 11.8409 4.72821 11.8407 4.72874 11.8407C4.78393 11.8404 4.8363 11.8294 4.88618 11.8135C4.88982 11.8123 4.89346 11.8113 4.8971 11.8102C4.90195 11.8089 4.90681 11.8075 4.91166 11.8057C4.96013 11.7873 5.00471 11.7622 5.04539 11.7314C5.05188 11.7267 5.05762 11.7217 5.06365 11.7165L5.06733 11.7134C5.10696 11.6794 5.14269 11.6412 5.171 11.5973C5.17306 11.594 5.17476 11.5906 5.17646 11.5872C5.17767 11.5847 5.17887 11.5823 5.18019 11.58C5.2085 11.5322 5.23079 11.4802 5.24317 11.4243L5.24423 11.4215C5.41371 10.6282 5.72364 9.881 6.16554 9.20028C6.18323 9.17304 6.19703 9.14473 6.20906 9.11572L6.21082 9.11219L6.2126 9.10865C6.23736 9.04673 6.24904 8.98234 6.24975 8.91795C6.24975 8.91476 6.25045 8.91158 6.25045 8.90839C6.2501 8.84329 6.23701 8.77925 6.21366 8.71875L6.21268 8.71556C6.21205 8.71344 6.21142 8.71132 6.21047 8.7092C6.18429 8.64587 6.14608 8.58714 6.0962 8.5369L6.09549 8.53584L6.09443 8.53478L6.09124 8.53159L4.74855 7.1889C4.45419 6.89241 4.45348 6.41195 4.74714 6.11829L5.11863 5.74679C5.41265 5.45313 5.89276 5.45384 6.18783 5.74679L7.53618 7.09514C7.53724 7.0962 7.53857 7.09691 7.5399 7.09762C7.5405 7.09794 7.54111 7.09827 7.5417 7.09863C7.54238 7.09905 7.54304 7.09952 7.54361 7.1001C7.5889 7.14397 7.64055 7.17687 7.69646 7.20164C7.70729 7.20645 7.71786 7.21024 7.72862 7.2141L7.73431 7.21614C7.79127 7.23631 7.85001 7.25011 7.91051 7.25046H7.91157C7.97136 7.25046 8.03151 7.23666 8.08953 7.21579C8.10166 7.21158 8.11293 7.20599 8.1243 7.20034L8.12432 7.20033L8.13906 7.19315C8.14667 7.18947 8.15443 7.18638 8.16217 7.1833C8.1753 7.17807 8.18838 7.17286 8.20063 7.16484C8.88064 6.72294 9.62787 6.41301 10.4211 6.24353C10.4247 6.24274 10.428 6.24151 10.4314 6.24027C10.434 6.23929 10.4367 6.2383 10.4395 6.23752C10.4675 6.23044 10.4947 6.22266 10.5205 6.21169C10.5294 6.20797 10.5374 6.20318 10.5455 6.19842L10.5455 6.19839C10.5497 6.19592 10.5538 6.19347 10.558 6.19117L10.5718 6.1839C10.585 6.17703 10.5981 6.1702 10.6104 6.16181C10.6213 6.15415 10.6312 6.14544 10.6412 6.13665L10.6412 6.13664L10.65 6.1289C10.6543 6.12525 10.6586 6.12172 10.663 6.11819L10.663 6.11817L10.663 6.11816C10.6717 6.11109 10.6804 6.10401 10.6882 6.096C10.6972 6.08707 10.7047 6.07717 10.7124 6.06717L10.7204 6.05673L10.7295 6.04587C10.7376 6.03635 10.7456 6.02693 10.7523 6.01639C10.7587 6.00669 10.7638 5.99646 10.7689 5.98608L10.769 5.98606L10.7756 5.97287C10.7783 5.96768 10.7812 5.96257 10.7841 5.95746C10.7898 5.94724 10.7955 5.93702 10.8 5.92617C10.8056 5.91218 10.8097 5.89775 10.8137 5.88322L10.817 5.87169C10.8185 5.86659 10.8202 5.86153 10.8218 5.85646L10.8218 5.85645L10.8219 5.85643C10.8249 5.84708 10.828 5.83767 10.8301 5.82781C10.835 5.80283 10.8365 5.77679 10.8379 5.7511L10.8379 5.75068C10.838 5.74664 10.8387 5.74268 10.8393 5.73868L10.8393 5.73867C10.84 5.73393 10.8407 5.72914 10.8407 5.72415V5.72132V5.71955V3.81926C10.8407 3.40142 11.1807 3.06141 11.5989 3.06141H12.1187C12.5369 3.06141 12.8769 3.40142 12.8769 3.81926V5.72061V5.72097V5.7245C12.8769 5.73113 12.8778 5.73741 12.8787 5.74373C12.8794 5.74856 12.8801 5.75342 12.8804 5.75847L12.8808 5.76477C12.882 5.78601 12.8833 5.80721 12.8875 5.82781C12.8902 5.84094 12.8943 5.85326 12.8984 5.86568L12.8984 5.86569L12.9023 5.8777C12.904 5.88301 12.9054 5.88836 12.9069 5.8937L12.9069 5.89372C12.9099 5.90473 12.9129 5.91569 12.9172 5.92617C12.9227 5.93989 12.9299 5.95255 12.9371 5.96529L12.9434 5.97641C12.946 5.98121 12.9485 5.9861 12.951 5.99099C12.9554 5.99978 12.9599 6.00856 12.9653 6.01675C12.9736 6.02913 12.9831 6.04028 12.9925 6.05144L12.9982 6.05814L13.0068 6.069C13.014 6.07832 13.0213 6.0877 13.0297 6.09635C13.0388 6.10575 13.049 6.11385 13.0593 6.12201L13.0679 6.1289L13.0795 6.13891C13.0888 6.14705 13.098 6.15514 13.1083 6.16216C13.1192 6.16963 13.131 6.17587 13.1429 6.18212L13.1578 6.19011L13.1701 6.19719C13.1792 6.20255 13.1883 6.20789 13.1981 6.21205C13.2218 6.22231 13.2473 6.22938 13.2728 6.2361C13.2767 6.23709 13.2804 6.23844 13.2841 6.2398C13.2884 6.24137 13.2926 6.24294 13.2972 6.24389C14.0901 6.41336 14.8376 6.72329 15.5184 7.1652C15.53 7.17274 15.5426 7.17778 15.5551 7.18282C15.5631 7.18605 15.5711 7.18927 15.5789 7.19315L15.5919 7.19955C15.6042 7.20568 15.6163 7.21169 15.6291 7.21614C15.6871 7.23702 15.7466 7.25082 15.8067 7.25082C15.8676 7.25082 15.927 7.23666 15.984 7.2165L15.9897 7.21446L15.9897 7.21445C16.0004 7.2106 16.011 7.20681 16.0218 7.20199C16.0777 7.17723 16.1294 7.14432 16.1747 7.10045C16.1758 7.09934 16.1772 7.09861 16.1786 7.09787C16.1799 7.0972 16.1813 7.09651 16.1825 7.0955L17.529 5.74856C17.8255 5.4549 18.306 5.45349 18.5997 5.74715L18.9712 6.11864C19.1735 6.32102 19.2326 6.61114 19.1562 6.86906C19.1705 6.86943 19.1848 6.8695 19.1991 6.86957H19.1991C19.2256 6.8697 19.2521 6.86982 19.279 6.87189C19.5861 6.89772 19.8921 6.98369 20.1843 7.11496C20.3429 6.5096 20.1935 5.83984 19.7216 5.36822L19.3501 4.99673C18.6439 4.29053 17.4915 4.28982 16.7797 4.99673L15.7215 6.05531C15.1593 5.7337 14.5631 5.48604 13.9386 5.31586V3.81926C13.9386 2.81623 13.1224 2 12.119 2H11.5993C10.5962 2 9.77966 2.81623 9.77966 3.81926V5.3155C9.15519 5.48604 8.55868 5.73335 7.99683 6.05496L6.93684 4.99496C6.22675 4.28947 5.0737 4.29018 4.36821 4.99637L3.99672 5.36787C3.29052 6.07371 3.29017 7.22605 3.99672 7.93826L5.05495 8.99649C4.73334 9.55869 4.48603 10.1548 4.3155 10.7793H2.81961C1.81657 10.7793 0.999992 11.5955 0.999992 12.5986V13.1187C0.999992 14.1217 1.81622 14.9379 2.81961 14.9379H4.3155C4.48603 15.5628 4.73334 16.1589 5.05495 16.7208L3.9953 17.7808C3.28982 18.4908 3.29052 19.6432 3.99672 20.3494L4.36821 20.7209C4.72131 21.074 5.18621 21.2505 5.65146 21.2505C6.11672 21.2505 6.58268 21.0743 6.93825 20.7209L7.99683 19.6626C8.35382 19.8671 8.72638 20.0377 9.10955 20.1817L9.0862 19.03C8.78122 18.8924 8.48402 18.7367 8.20027 18.5528ZM22.4705 10.0202L20.3325 8.237C19.9974 7.95749 19.598 7.78554 19.2077 7.75264C18.7542 7.7162 18.3469 7.8701 18.089 8.17897L16.4251 10.1741L10.076 17.7876L10.0803 17.7911C9.99996 17.8874 9.95043 18.008 9.95326 18.1386L10.0371 22.2678C10.0403 22.4253 10.1132 22.5732 10.2363 22.6715C10.3311 22.7476 10.4482 22.7879 10.5678 22.7879C10.6032 22.7879 10.6386 22.7844 10.6736 22.7773L14.6458 21.9696C14.7661 21.9452 14.868 21.8772 14.9437 21.7863L14.9476 21.7895L21.2665 14.2124L22.9305 12.2173C23.4304 11.6169 23.228 10.6521 22.4705 10.0202ZM11.0851 21.6098L11.0373 19.2669L13.3388 21.1512L11.0851 21.6098ZM14.4685 20.7051L11.2337 18.0561L16.9002 11.2617L20.111 13.9393L14.4685 20.7051ZM22.1149 11.5369L20.791 13.1241L17.5802 10.4465L18.9042 8.85899C18.936 8.82078 19.0195 8.80238 19.1186 8.81052C19.2909 8.82502 19.4855 8.91312 19.6521 9.05216L21.7902 10.8353C22.1231 11.1127 22.19 11.4474 22.1149 11.5369ZM11.859 8.99464C9.72838 8.99464 7.99509 10.7279 7.99509 12.8585C7.99509 14.375 8.875 15.6862 10.1494 16.3188L9.45383 17.1527C7.95193 16.3078 6.93368 14.7008 6.93368 12.8585C6.93368 10.1427 9.14319 7.93323 11.859 7.93323C13.3835 7.93323 14.7478 8.62952 15.6521 9.72065L14.9551 10.5563C14.25 9.61097 13.1263 8.99464 11.859 8.99464Z" fill="black" fill-opacity="0.2"/>
<path fill-rule="evenodd" clip-rule="evenodd" d="M8.20027 18.5528C8.17338 18.5354 8.14543 18.522 8.11713 18.5099C8.11569 18.5093 8.11433 18.5085 8.11297 18.5078C8.11132 18.5068 8.10968 18.5059 8.10793 18.5053C8.04637 18.4806 7.98197 18.4693 7.91794 18.4686C7.9144 18.4686 7.91121 18.4678 7.90803 18.4678C7.84293 18.4682 7.77854 18.4813 7.71804 18.5046L7.70884 18.5075C7.64551 18.5337 7.58677 18.5719 7.53653 18.6217L7.53547 18.6225L7.53441 18.6235L7.53194 18.626L6.18854 19.969C5.89205 20.2638 5.41194 20.2638 5.11793 19.9705L4.74643 19.599C4.45277 19.3053 4.45348 18.8248 4.74643 18.5301L6.0916 17.1849L6.09301 17.1835L6.09478 17.1818L6.095 17.1815L6.09584 17.18C6.14537 17.1301 6.18359 17.0717 6.20977 17.0088C6.21118 17.0056 6.21154 17.002 6.21295 16.9988C6.2363 16.9383 6.24939 16.8743 6.24975 16.8096C6.24975 16.8064 6.24904 16.8032 6.24904 16.7997C6.24833 16.7353 6.23666 16.6709 6.21189 16.6093C6.21083 16.6068 6.20906 16.6047 6.208 16.6022C6.19597 16.5732 6.18217 16.5449 6.16448 16.5177C5.72258 15.8377 5.41265 15.0904 5.24317 14.2968C5.24221 14.2924 5.24072 14.2883 5.23922 14.2841C5.23797 14.2807 5.23671 14.2772 5.23574 14.2735C5.22902 14.2477 5.22159 14.2215 5.21133 14.1974C5.20825 14.1902 5.20434 14.1835 5.20042 14.1768C5.19902 14.1744 5.19763 14.172 5.19627 14.1696C5.19487 14.1671 5.19351 14.1646 5.19222 14.162L5.18691 14.1519C5.17891 14.1366 5.17101 14.1214 5.16144 14.1072C5.15628 14.0997 5.15033 14.0929 5.14443 14.0863L5.13562 14.0761L5.13002 14.0691C5.11884 14.0551 5.10766 14.0411 5.09493 14.0287C5.09024 14.024 5.08503 14.0199 5.07985 14.0159L5.07984 14.0159C5.07643 14.0132 5.07304 14.0106 5.06981 14.0078L5.06582 14.0043C5.04945 13.9902 5.03296 13.976 5.01497 13.9643C5.01081 13.9616 5.00641 13.9593 5.00198 13.9571L5.00196 13.9571C4.99886 13.9555 4.99574 13.954 4.99268 13.9522C4.97074 13.9391 4.94845 13.9264 4.92439 13.9169C4.91951 13.9149 4.91452 13.9135 4.90953 13.9121C4.90549 13.9109 4.90146 13.9098 4.8975 13.9084L4.89543 13.9076C4.87279 13.8997 4.85043 13.8919 4.82674 13.8875C4.81539 13.8854 4.80387 13.8845 4.7923 13.8836C4.7893 13.8834 4.7863 13.8832 4.78329 13.8829C4.78056 13.8827 4.77782 13.8825 4.77509 13.8822L4.75991 13.8803L4.7599 13.8803C4.74841 13.8788 4.73688 13.8772 4.72485 13.8772H2.81961C2.40141 13.8772 2.06141 13.5372 2.06141 13.1194V12.5993C2.06141 12.1814 2.40141 11.8414 2.81961 11.8414H4.72379H4.72556C4.72609 11.8414 4.72662 11.8413 4.72715 11.8411C4.72768 11.8409 4.72821 11.8407 4.72874 11.8407C4.78393 11.8404 4.8363 11.8294 4.88618 11.8135C4.88982 11.8123 4.89346 11.8113 4.8971 11.8102C4.90195 11.8089 4.90681 11.8075 4.91166 11.8057C4.96013 11.7873 5.00471 11.7622 5.04539 11.7314C5.05188 11.7267 5.05762 11.7217 5.06365 11.7165L5.06733 11.7134C5.10696 11.6794 5.14269 11.6412 5.171 11.5973C5.17306 11.594 5.17476 11.5906 5.17646 11.5872C5.17767 11.5847 5.17887 11.5823 5.18019 11.58C5.2085 11.5322 5.23079 11.4802 5.24317 11.4243L5.24423 11.4215C5.41371 10.6282 5.72364 9.881 6.16554 9.20028C6.18323 9.17304 6.19703 9.14473 6.20906 9.11572L6.21082 9.11219L6.2126 9.10865C6.23736 9.04673 6.24904 8.98234 6.24975 8.91795C6.24975 8.91476 6.25045 8.91158 6.25045 8.90839C6.2501 8.84329 6.23701 8.77925 6.21366 8.71875L6.21268 8.71556C6.21205 8.71344 6.21142 8.71132 6.21047 8.7092C6.18429 8.64587 6.14608 8.58714 6.0962 8.5369L6.09549 8.53584L6.09443 8.53478L6.09124 8.53159L4.74855 7.1889C4.45419 6.89241 4.45348 6.41195 4.74714 6.11829L5.11863 5.74679C5.41265 5.45313 5.89276 5.45384 6.18783 5.74679L7.53618 7.09514C7.53724 7.0962 7.53857 7.09691 7.5399 7.09762C7.5405 7.09794 7.54111 7.09827 7.5417 7.09863C7.54238 7.09905 7.54304 7.09952 7.54361 7.1001C7.5889 7.14397 7.64055 7.17687 7.69646 7.20164C7.70729 7.20645 7.71786 7.21024 7.72862 7.2141L7.73431 7.21614C7.79127 7.23631 7.85001 7.25011 7.91051 7.25046H7.91157C7.97136 7.25046 8.03151 7.23666 8.08953 7.21579C8.10166 7.21158 8.11293 7.20599 8.1243 7.20034L8.12432 7.20033L8.13906 7.19315C8.14667 7.18947 8.15443 7.18638 8.16217 7.1833C8.1753 7.17807 8.18838 7.17286 8.20063 7.16484C8.88064 6.72294 9.62787 6.41301 10.4211 6.24353C10.4247 6.24274 10.428 6.24151 10.4314 6.24027C10.434 6.23929 10.4367 6.2383 10.4395 6.23752C10.4675 6.23044 10.4947 6.22266 10.5205 6.21169C10.5294 6.20797 10.5374 6.20318 10.5455 6.19842L10.5455 6.19839C10.5497 6.19592 10.5538 6.19347 10.558 6.19117L10.5718 6.1839C10.585 6.17703 10.5981 6.1702 10.6104 6.16181C10.6213 6.15415 10.6312 6.14544 10.6412 6.13665L10.6412 6.13664L10.65 6.1289C10.6543 6.12525 10.6586 6.12172 10.663 6.11819L10.663 6.11817L10.663 6.11816C10.6717 6.11109 10.6804 6.10401 10.6882 6.096C10.6972 6.08707 10.7047 6.07717 10.7124 6.06717L10.7204 6.05673L10.7295 6.04587C10.7376 6.03635 10.7456 6.02693 10.7523 6.01639C10.7587 6.00669 10.7638 5.99646 10.7689 5.98608L10.769 5.98606L10.7756 5.97287C10.7783 5.96768 10.7812 5.96257 10.7841 5.95746C10.7898 5.94724 10.7955 5.93702 10.8 5.92617C10.8056 5.91218 10.8097 5.89775 10.8137 5.88322L10.817 5.87169C10.8185 5.86659 10.8202 5.86153 10.8218 5.85646L10.8218 5.85645L10.8219 5.85643C10.8249 5.84708 10.828 5.83767 10.8301 5.82781C10.835 5.80283 10.8365 5.77679 10.8379 5.7511L10.8379 5.75068C10.838 5.74664 10.8387 5.74268 10.8393 5.73868L10.8393 5.73867C10.84 5.73393 10.8407 5.72914 10.8407 5.72415V5.72132V5.71955V3.81926C10.8407 3.40142 11.1807 3.06141 11.5989 3.06141H12.1187C12.5369 3.06141 12.8769 3.40142 12.8769 3.81926V5.72061V5.72097V5.7245C12.8769 5.73113 12.8778 5.73741 12.8787 5.74373C12.8794 5.74856 12.8801 5.75342 12.8804 5.75847L12.8808 5.76477C12.882 5.78601 12.8833 5.80721 12.8875 5.82781C12.8902 5.84094 12.8943 5.85326 12.8984 5.86568L12.8984 5.86569L12.9023 5.8777C12.904 5.88301 12.9054 5.88836 12.9069 5.8937L12.9069 5.89372C12.9099 5.90473 12.9129 5.91569 12.9172 5.92617C12.9227 5.93989 12.9299 5.95255 12.9371 5.96529L12.9434 5.97641C12.946 5.98121 12.9485 5.9861 12.951 5.99099C12.9554 5.99978 12.9599 6.00856 12.9653 6.01675C12.9736 6.02913 12.9831 6.04028 12.9925 6.05144L12.9982 6.05814L13.0068 6.069C13.014 6.07832 13.0213 6.0877 13.0297 6.09635C13.0388 6.10575 13.049 6.11385 13.0593 6.12201L13.0679 6.1289L13.0795 6.13891C13.0888 6.14705 13.098 6.15514 13.1083 6.16216C13.1192 6.16963 13.131 6.17587 13.1429 6.18212L13.1578 6.19011L13.1701 6.19719C13.1792 6.20255 13.1883 6.20789 13.1981 6.21205C13.2218 6.22231 13.2473 6.22938 13.2728 6.2361C13.2767 6.23709 13.2804 6.23844 13.2841 6.2398C13.2884 6.24137 13.2926 6.24294 13.2972 6.24389C14.0901 6.41336 14.8376 6.72329 15.5184 7.1652C15.53 7.17274 15.5426 7.17778 15.5551 7.18282C15.5631 7.18605 15.5711 7.18927 15.5789 7.19315L15.5919 7.19955C15.6042 7.20568 15.6163 7.21169 15.6291 7.21614C15.6871 7.23702 15.7466 7.25082 15.8067 7.25082C15.8676 7.25082 15.927 7.23666 15.984 7.2165L15.9897 7.21446L15.9897 7.21445C16.0004 7.2106 16.011 7.20681 16.0218 7.20199C16.0777 7.17723 16.1294 7.14432 16.1747 7.10045C16.1758 7.09934 16.1772 7.09861 16.1786 7.09787C16.1799 7.0972 16.1813 7.09651 16.1825 7.0955L17.529 5.74856C17.8255 5.4549 18.306 5.45349 18.5997 5.74715L18.9712 6.11864C19.1735 6.32102 19.2326 6.61114 19.1562 6.86906C19.1705 6.86943 19.1848 6.8695 19.1991 6.86957H19.1991C19.2256 6.8697 19.2521 6.86982 19.279 6.87189C19.5861 6.89772 19.8921 6.98369 20.1843 7.11496C20.3429 6.5096 20.1935 5.83984 19.7216 5.36822L19.3501 4.99673C18.6439 4.29053 17.4915 4.28982 16.7797 4.99673L15.7215 6.05531C15.1593 5.7337 14.5631 5.48604 13.9386 5.31586V3.81926C13.9386 2.81623 13.1224 2 12.119 2H11.5993C10.5962 2 9.77966 2.81623 9.77966 3.81926V5.3155C9.15519 5.48604 8.55868 5.73335 7.99683 6.05496L6.93684 4.99496C6.22675 4.28947 5.0737 4.29018 4.36821 4.99637L3.99672 5.36787C3.29052 6.07371 3.29017 7.22605 3.99672 7.93826L5.05495 8.99649C4.73334 9.55869 4.48603 10.1548 4.3155 10.7793H2.81961C1.81657 10.7793 0.999992 11.5955 0.999992 12.5986V13.1187C0.999992 14.1217 1.81622 14.9379 2.81961 14.9379H4.3155C4.48603 15.5628 4.73334 16.1589 5.05495 16.7208L3.9953 17.7808C3.28982 18.4908 3.29052 19.6432 3.99672 20.3494L4.36821 20.7209C4.72131 21.074 5.18621 21.2505 5.65146 21.2505C6.11672 21.2505 6.58268 21.0743 6.93825 20.7209L7.99683 19.6626C8.35382 19.8671 8.72638 20.0377 9.10955 20.1817L9.0862 19.03C8.78122 18.8924 8.48402 18.7367 8.20027 18.5528ZM22.4705 10.0202L20.3325 8.237C19.9974 7.95749 19.598 7.78554 19.2077 7.75264C18.7542 7.7162 18.3469 7.8701 18.089 8.17897L16.4251 10.1741L10.076 17.7876L10.0803 17.7911C9.99996 17.8874 9.95043 18.008 9.95326 18.1386L10.0371 22.2678C10.0403 22.4253 10.1132 22.5732 10.2363 22.6715C10.3311 22.7476 10.4482 22.7879 10.5678 22.7879C10.6032 22.7879 10.6386 22.7844 10.6736 22.7773L14.6458 21.9696C14.7661 21.9452 14.868 21.8772 14.9437 21.7863L14.9476 21.7895L21.2665 14.2124L22.9305 12.2173C23.4304 11.6169 23.228 10.6521 22.4705 10.0202ZM11.0851 21.6098L11.0373 19.2669L13.3388 21.1512L11.0851 21.6098ZM14.4685 20.7051L11.2337 18.0561L16.9002 11.2617L20.111 13.9393L14.4685 20.7051ZM22.1149 11.5369L20.791 13.1241L17.5802 10.4465L18.9042 8.85899C18.936 8.82078 19.0195 8.80238 19.1186 8.81052C19.2909 8.82502 19.4855 8.91312 19.6521 9.05216L21.7902 10.8353C22.1231 11.1127 22.19 11.4474 22.1149 11.5369ZM11.859 8.99464C9.72838 8.99464 7.99509 10.7279 7.99509 12.8585C7.99509 14.375 8.875 15.6862 10.1494 16.3188L9.45383 17.1527C7.95193 16.3078 6.93368 14.7008 6.93368 12.8585C6.93368 10.1427 9.14319 7.93323 11.859 7.93323C13.3835 7.93323 14.7478 8.62952 15.6521 9.72065L14.9551 10.5563C14.25 9.61097 13.1263 8.99464 11.859 8.99464Z" fill="black" fill-opacity="0.2"/>
</svg>
