<svg width="24" height="24" viewBox="0 0 24 24" fill="none" xmlns="http://www.w3.org/2000/svg">
<mask id="path-1-inside-1_314_328" fill="white">
<path fill-rule="evenodd" clip-rule="evenodd" d="M12 1C9.82443 1 7.69767 1.64509 5.88873 2.85379C4.07979 4.06248 2.66986 5.78048 1.83729 7.79046C1.00473 9.80045 0.786942 12.0121 1.21138 14.1459C1.63582 16.2797 2.68341 18.2398 4.22178 19.7782C5.76016 21.3166 7.72024 22.3642 9.85403 22.7886C11.9878 23.2131 14.1996 22.9953 16.2095 22.1627C18.2195 21.3301 19.9374 19.9201 21.1461 18.1112C22.3548 16.3023 23 14.1755 23 11.9999C22.9954 9.08394 21.835 6.28882 19.7731 4.22693C17.7112 2.16503 14.916 1.00463 12 1ZM20.785 12.0037C20.7842 13.7399 20.2691 15.4371 19.3045 16.8807C18.3392 18.3254 16.9671 19.4513 15.3618 20.1162C13.7566 20.7811 11.9903 20.9552 10.2862 20.6162C8.58203 20.2773 7.0167 19.4405 5.7881 18.2119C4.55949 16.9833 3.72274 15.4179 3.38377 13.7138C3.0448 12.0096 3.21881 10.2433 3.88373 8.63809C4.54864 7.03284 5.67459 5.66083 7.11927 4.69552C8.56396 3.73022 10.2625 3.21496 12 3.21496C14.33 3.21761 16.5637 4.14477 18.2107 5.79278C19.8575 7.4405 20.7833 9.67414 20.785 12.0037ZM11.9999 5.61726C11.715 5.61702 11.4365 5.70134 11.1995 5.85942C10.9626 6.0175 10.7778 6.24222 10.6686 6.50533C10.5594 6.76843 10.5307 7.05812 10.5861 7.33754C10.6416 7.61695 10.7786 7.87364 10.98 8.07515C11.1813 8.27666 11.4379 8.41392 11.7173 8.46959C11.9966 8.52525 12.2862 8.49675 12.5494 8.3878C12.8126 8.27885 13.0376 8.09424 13.1958 7.85741C13.3541 7.62057 13.4386 7.34225 13.4386 7.05739C13.4383 6.67579 13.2866 6.30988 13.0169 6.03993C12.7472 5.76999 12.3815 5.61793 11.9999 5.61726ZM11.2156 10.5603C11.4237 10.3522 11.7058 10.2351 12.0001 10.2348C12.2944 10.2351 12.5766 10.3522 12.7847 10.5603C12.9928 10.7684 13.1098 11.0504 13.1101 11.3447V17.2822C13.1101 17.5766 12.9932 17.859 12.785 18.0671C12.5769 18.2753 12.2945 18.3923 12.0001 18.3923C11.7057 18.3923 11.4234 18.2753 11.2152 18.0671C11.0071 17.859 10.8901 17.5766 10.8901 17.2822V11.3447C10.8905 11.0504 11.0075 10.7684 11.2156 10.5603Z"/>
</mask>
<path fill-rule="evenodd" clip-rule="evenodd" d="M12 1C9.82443 1 7.69767 1.64509 5.88873 2.85379C4.07979 4.06248 2.66986 5.78048 1.83729 7.79046C1.00473 9.80045 0.786942 12.0121 1.21138 14.1459C1.63582 16.2797 2.68341 18.2398 4.22178 19.7782C5.76016 21.3166 7.72024 22.3642 9.85403 22.7886C11.9878 23.2131 14.1996 22.9953 16.2095 22.1627C18.2195 21.3301 19.9374 19.9201 21.1461 18.1112C22.3548 16.3023 23 14.1755 23 11.9999C22.9954 9.08394 21.835 6.28882 19.7731 4.22693C17.7112 2.16503 14.916 1.00463 12 1ZM20.785 12.0037C20.7842 13.7399 20.2691 15.4371 19.3045 16.8807C18.3392 18.3254 16.9671 19.4513 15.3618 20.1162C13.7566 20.7811 11.9903 20.9552 10.2862 20.6162C8.58203 20.2773 7.0167 19.4405 5.7881 18.2119C4.55949 16.9833 3.72274 15.4179 3.38377 13.7138C3.0448 12.0096 3.21881 10.2433 3.88373 8.63809C4.54864 7.03284 5.67459 5.66083 7.11927 4.69552C8.56396 3.73022 10.2625 3.21496 12 3.21496C14.33 3.21761 16.5637 4.14477 18.2107 5.79278C19.8575 7.4405 20.7833 9.67414 20.785 12.0037ZM11.9999 5.61726C11.715 5.61702 11.4365 5.70134 11.1995 5.85942C10.9626 6.0175 10.7778 6.24222 10.6686 6.50533C10.5594 6.76843 10.5307 7.05812 10.5861 7.33754C10.6416 7.61695 10.7786 7.87364 10.98 8.07515C11.1813 8.27666 11.4379 8.41392 11.7173 8.46959C11.9966 8.52525 12.2862 8.49675 12.5494 8.3878C12.8126 8.27885 13.0376 8.09424 13.1958 7.85741C13.3541 7.62057 13.4386 7.34225 13.4386 7.05739C13.4383 6.67579 13.2866 6.30988 13.0169 6.03993C12.7472 5.76999 12.3815 5.61793 11.9999 5.61726ZM11.2156 10.5603C11.4237 10.3522 11.7058 10.2351 12.0001 10.2348C12.2944 10.2351 12.5766 10.3522 12.7847 10.5603C12.9928 10.7684 13.1098 11.0504 13.1101 11.3447V17.2822C13.1101 17.5766 12.9932 17.859 12.785 18.0671C12.5769 18.2753 12.2945 18.3923 12.0001 18.3923C11.7057 18.3923 11.4234 18.2753 11.2152 18.0671C11.0071 17.859 10.8901 17.5766 10.8901 17.2822V11.3447C10.8905 11.0504 11.0075 10.7684 11.2156 10.5603Z" fill="black"/>
<path fill-rule="evenodd" clip-rule="evenodd" d="M12 1C9.82443 1 7.69767 1.64509 5.88873 2.85379C4.07979 4.06248 2.66986 5.78048 1.83729 7.79046C1.00473 9.80045 0.786942 12.0121 1.21138 14.1459C1.63582 16.2797 2.68341 18.2398 4.22178 19.7782C5.76016 21.3166 7.72024 22.3642 9.85403 22.7886C11.9878 23.2131 14.1996 22.9953 16.2095 22.1627C18.2195 21.3301 19.9374 19.9201 21.1461 18.1112C22.3548 16.3023 23 14.1755 23 11.9999C22.9954 9.08394 21.835 6.28882 19.7731 4.22693C17.7112 2.16503 14.916 1.00463 12 1ZM20.785 12.0037C20.7842 13.7399 20.2691 15.4371 19.3045 16.8807C18.3392 18.3254 16.9671 19.4513 15.3618 20.1162C13.7566 20.7811 11.9903 20.9552 10.2862 20.6162C8.58203 20.2773 7.0167 19.4405 5.7881 18.2119C4.55949 16.9833 3.72274 15.4179 3.38377 13.7138C3.0448 12.0096 3.21881 10.2433 3.88373 8.63809C4.54864 7.03284 5.67459 5.66083 7.11927 4.69552C8.56396 3.73022 10.2625 3.21496 12 3.21496C14.33 3.21761 16.5637 4.14477 18.2107 5.79278C19.8575 7.4405 20.7833 9.67414 20.785 12.0037ZM11.9999 5.61726C11.715 5.61702 11.4365 5.70134 11.1995 5.85942C10.9626 6.0175 10.7778 6.24222 10.6686 6.50533C10.5594 6.76843 10.5307 7.05812 10.5861 7.33754C10.6416 7.61695 10.7786 7.87364 10.98 8.07515C11.1813 8.27666 11.4379 8.41392 11.7173 8.46959C11.9966 8.52525 12.2862 8.49675 12.5494 8.3878C12.8126 8.27885 13.0376 8.09424 13.1958 7.85741C13.3541 7.62057 13.4386 7.34225 13.4386 7.05739C13.4383 6.67579 13.2866 6.30988 13.0169 6.03993C12.7472 5.76999 12.3815 5.61793 11.9999 5.61726ZM11.2156 10.5603C11.4237 10.3522 11.7058 10.2351 12.0001 10.2348C12.2944 10.2351 12.5766 10.3522 12.7847 10.5603C12.9928 10.7684 13.1098 11.0504 13.1101 11.3447V17.2822C13.1101 17.5766 12.9932 17.859 12.785 18.0671C12.5769 18.2753 12.2945 18.3923 12.0001 18.3923C11.7057 18.3923 11.4234 18.2753 11.2152 18.0671C11.0071 17.859 10.8901 17.5766 10.8901 17.2822V11.3447C10.8905 11.0504 11.0075 10.7684 11.2156 10.5603Z" fill="black" fill-opacity="0.2"/>
<path fill-rule="evenodd" clip-rule="evenodd" d="M12 1C9.82443 1 7.69767 1.64509 5.88873 2.85379C4.07979 4.06248 2.66986 5.78048 1.83729 7.79046C1.00473 9.80045 0.786942 12.0121 1.21138 14.1459C1.63582 16.2797 2.68341 18.2398 4.22178 19.7782C5.76016 21.3166 7.72024 22.3642 9.85403 22.7886C11.9878 23.2131 14.1996 22.9953 16.2095 22.1627C18.2195 21.3301 19.9374 19.9201 21.1461 18.1112C22.3548 16.3023 23 14.1755 23 11.9999C22.9954 9.08394 21.835 6.28882 19.7731 4.22693C17.7112 2.16503 14.916 1.00463 12 1ZM20.785 12.0037C20.7842 13.7399 20.2691 15.4371 19.3045 16.8807C18.3392 18.3254 16.9671 19.4513 15.3618 20.1162C13.7566 20.7811 11.9903 20.9552 10.2862 20.6162C8.58203 20.2773 7.0167 19.4405 5.7881 18.2119C4.55949 16.9833 3.72274 15.4179 3.38377 13.7138C3.0448 12.0096 3.21881 10.2433 3.88373 8.63809C4.54864 7.03284 5.67459 5.66083 7.11927 4.69552C8.56396 3.73022 10.2625 3.21496 12 3.21496C14.33 3.21761 16.5637 4.14477 18.2107 5.79278C19.8575 7.4405 20.7833 9.67414 20.785 12.0037ZM11.9999 5.61726C11.715 5.61702 11.4365 5.70134 11.1995 5.85942C10.9626 6.0175 10.7778 6.24222 10.6686 6.50533C10.5594 6.76843 10.5307 7.05812 10.5861 7.33754C10.6416 7.61695 10.7786 7.87364 10.98 8.07515C11.1813 8.27666 11.4379 8.41392 11.7173 8.46959C11.9966 8.52525 12.2862 8.49675 12.5494 8.3878C12.8126 8.27885 13.0376 8.09424 13.1958 7.85741C13.3541 7.62057 13.4386 7.34225 13.4386 7.05739C13.4383 6.67579 13.2866 6.30988 13.0169 6.03993C12.7472 5.76999 12.3815 5.61793 11.9999 5.61726ZM11.2156 10.5603C11.4237 10.3522 11.7058 10.2351 12.0001 10.2348C12.2944 10.2351 12.5766 10.3522 12.7847 10.5603C12.9928 10.7684 13.1098 11.0504 13.1101 11.3447V17.2822C13.1101 17.5766 12.9932 17.859 12.785 18.0671C12.5769 18.2753 12.2945 18.3923 12.0001 18.3923C11.7057 18.3923 11.4234 18.2753 11.2152 18.0671C11.0071 17.859 10.8901 17.5766 10.8901 17.2822V11.3447C10.8905 11.0504 11.0075 10.7684 11.2156 10.5603Z" fill="black" fill-opacity="0.2"/>
<path fill-rule="evenodd" clip-rule="evenodd" d="M12 1C9.82443 1 7.69767 1.64509 5.88873 2.85379C4.07979 4.06248 2.66986 5.78048 1.83729 7.79046C1.00473 9.80045 0.786942 12.0121 1.21138 14.1459C1.63582 16.2797 2.68341 18.2398 4.22178 19.7782C5.76016 21.3166 7.72024 22.3642 9.85403 22.7886C11.9878 23.2131 14.1996 22.9953 16.2095 22.1627C18.2195 21.3301 19.9374 19.9201 21.1461 18.1112C22.3548 16.3023 23 14.1755 23 11.9999C22.9954 9.08394 21.835 6.28882 19.7731 4.22693C17.7112 2.16503 14.916 1.00463 12 1ZM20.785 12.0037C20.7842 13.7399 20.2691 15.4371 19.3045 16.8807C18.3392 18.3254 16.9671 19.4513 15.3618 20.1162C13.7566 20.7811 11.9903 20.9552 10.2862 20.6162C8.58203 20.2773 7.0167 19.4405 5.7881 18.2119C4.55949 16.9833 3.72274 15.4179 3.38377 13.7138C3.0448 12.0096 3.21881 10.2433 3.88373 8.63809C4.54864 7.03284 5.67459 5.66083 7.11927 4.69552C8.56396 3.73022 10.2625 3.21496 12 3.21496C14.33 3.21761 16.5637 4.14477 18.2107 5.79278C19.8575 7.4405 20.7833 9.67414 20.785 12.0037ZM11.9999 5.61726C11.715 5.61702 11.4365 5.70134 11.1995 5.85942C10.9626 6.0175 10.7778 6.24222 10.6686 6.50533C10.5594 6.76843 10.5307 7.05812 10.5861 7.33754C10.6416 7.61695 10.7786 7.87364 10.98 8.07515C11.1813 8.27666 11.4379 8.41392 11.7173 8.46959C11.9966 8.52525 12.2862 8.49675 12.5494 8.3878C12.8126 8.27885 13.0376 8.09424 13.1958 7.85741C13.3541 7.62057 13.4386 7.34225 13.4386 7.05739C13.4383 6.67579 13.2866 6.30988 13.0169 6.03993C12.7472 5.76999 12.3815 5.61793 11.9999 5.61726ZM11.2156 10.5603C11.4237 10.3522 11.7058 10.2351 12.0001 10.2348C12.2944 10.2351 12.5766 10.3522 12.7847 10.5603C12.9928 10.7684 13.1098 11.0504 13.1101 11.3447V17.2822C13.1101 17.5766 12.9932 17.859 12.785 18.0671C12.5769 18.2753 12.2945 18.3923 12.0001 18.3923C11.7057 18.3923 11.4234 18.2753 11.2152 18.0671C11.0071 17.859 10.8901 17.5766 10.8901 17.2822V11.3447C10.8905 11.0504 11.0075 10.7684 11.2156 10.5603Z" fill="black" fill-opacity="0.2"/>
<path fill-rule="evenodd" clip-rule="evenodd" d="M12 1C9.82443 1 7.69767 1.64509 5.88873 2.85379C4.07979 4.06248 2.66986 5.78048 1.83729 7.79046C1.00473 9.80045 0.786942 12.0121 1.21138 14.1459C1.63582 16.2797 2.68341 18.2398 4.22178 19.7782C5.76016 21.3166 7.72024 22.3642 9.85403 22.7886C11.9878 23.2131 14.1996 22.9953 16.2095 22.1627C18.2195 21.3301 19.9374 19.9201 21.1461 18.1112C22.3548 16.3023 23 14.1755 23 11.9999C22.9954 9.08394 21.835 6.28882 19.7731 4.22693C17.7112 2.16503 14.916 1.00463 12 1ZM20.785 12.0037C20.7842 13.7399 20.2691 15.4371 19.3045 16.8807C18.3392 18.3254 16.9671 19.4513 15.3618 20.1162C13.7566 20.7811 11.9903 20.9552 10.2862 20.6162C8.58203 20.2773 7.0167 19.4405 5.7881 18.2119C4.55949 16.9833 3.72274 15.4179 3.38377 13.7138C3.0448 12.0096 3.21881 10.2433 3.88373 8.63809C4.54864 7.03284 5.67459 5.66083 7.11927 4.69552C8.56396 3.73022 10.2625 3.21496 12 3.21496C14.33 3.21761 16.5637 4.14477 18.2107 5.79278C19.8575 7.4405 20.7833 9.67414 20.785 12.0037ZM11.9999 5.61726C11.715 5.61702 11.4365 5.70134 11.1995 5.85942C10.9626 6.0175 10.7778 6.24222 10.6686 6.50533C10.5594 6.76843 10.5307 7.05812 10.5861 7.33754C10.6416 7.61695 10.7786 7.87364 10.98 8.07515C11.1813 8.27666 11.4379 8.41392 11.7173 8.46959C11.9966 8.52525 12.2862 8.49675 12.5494 8.3878C12.8126 8.27885 13.0376 8.09424 13.1958 7.85741C13.3541 7.62057 13.4386 7.34225 13.4386 7.05739C13.4383 6.67579 13.2866 6.30988 13.0169 6.03993C12.7472 5.76999 12.3815 5.61793 11.9999 5.61726ZM11.2156 10.5603C11.4237 10.3522 11.7058 10.2351 12.0001 10.2348C12.2944 10.2351 12.5766 10.3522 12.7847 10.5603C12.9928 10.7684 13.1098 11.0504 13.1101 11.3447V17.2822C13.1101 17.5766 12.9932 17.859 12.785 18.0671C12.5769 18.2753 12.2945 18.3923 12.0001 18.3923C11.7057 18.3923 11.4234 18.2753 11.2152 18.0671C11.0071 17.859 10.8901 17.5766 10.8901 17.2822V11.3447C10.8905 11.0504 11.0075 10.7684 11.2156 10.5603Z" fill="black" fill-opacity="0.2"/>
<path fill-rule="evenodd" clip-rule="evenodd" d="M12 1C9.82443 1 7.69767 1.64509 5.88873 2.85379C4.07979 4.06248 2.66986 5.78048 1.83729 7.79046C1.00473 9.80045 0.786942 12.0121 1.21138 14.1459C1.63582 16.2797 2.68341 18.2398 4.22178 19.7782C5.76016 21.3166 7.72024 22.3642 9.85403 22.7886C11.9878 23.2131 14.1996 22.9953 16.2095 22.1627C18.2195 21.3301 19.9374 19.9201 21.1461 18.1112C22.3548 16.3023 23 14.1755 23 11.9999C22.9954 9.08394 21.835 6.28882 19.7731 4.22693C17.7112 2.16503 14.916 1.00463 12 1ZM20.785 12.0037C20.7842 13.7399 20.2691 15.4371 19.3045 16.8807C18.3392 18.3254 16.9671 19.4513 15.3618 20.1162C13.7566 20.7811 11.9903 20.9552 10.2862 20.6162C8.58203 20.2773 7.0167 19.4405 5.7881 18.2119C4.55949 16.9833 3.72274 15.4179 3.38377 13.7138C3.0448 12.0096 3.21881 10.2433 3.88373 8.63809C4.54864 7.03284 5.67459 5.66083 7.11927 4.69552C8.56396 3.73022 10.2625 3.21496 12 3.21496C14.33 3.21761 16.5637 4.14477 18.2107 5.79278C19.8575 7.4405 20.7833 9.67414 20.785 12.0037ZM11.9999 5.61726C11.715 5.61702 11.4365 5.70134 11.1995 5.85942C10.9626 6.0175 10.7778 6.24222 10.6686 6.50533C10.5594 6.76843 10.5307 7.05812 10.5861 7.33754C10.6416 7.61695 10.7786 7.87364 10.98 8.07515C11.1813 8.27666 11.4379 8.41392 11.7173 8.46959C11.9966 8.52525 12.2862 8.49675 12.5494 8.3878C12.8126 8.27885 13.0376 8.09424 13.1958 7.85741C13.3541 7.62057 13.4386 7.34225 13.4386 7.05739C13.4383 6.67579 13.2866 6.30988 13.0169 6.03993C12.7472 5.76999 12.3815 5.61793 11.9999 5.61726ZM11.2156 10.5603C11.4237 10.3522 11.7058 10.2351 12.0001 10.2348C12.2944 10.2351 12.5766 10.3522 12.7847 10.5603C12.9928 10.7684 13.1098 11.0504 13.1101 11.3447V17.2822C13.1101 17.5766 12.9932 17.859 12.785 18.0671C12.5769 18.2753 12.2945 18.3923 12.0001 18.3923C11.7057 18.3923 11.4234 18.2753 11.2152 18.0671C11.0071 17.859 10.8901 17.5766 10.8901 17.2822V11.3447C10.8905 11.0504 11.0075 10.7684 11.2156 10.5603Z" fill="black" fill-opacity="0.2"/>
<path fill-rule="evenodd" clip-rule="evenodd" d="M12 1C9.82443 1 7.69767 1.64509 5.88873 2.85379C4.07979 4.06248 2.66986 5.78048 1.83729 7.79046C1.00473 9.80045 0.786942 12.0121 1.21138 14.1459C1.63582 16.2797 2.68341 18.2398 4.22178 19.7782C5.76016 21.3166 7.72024 22.3642 9.85403 22.7886C11.9878 23.2131 14.1996 22.9953 16.2095 22.1627C18.2195 21.3301 19.9374 19.9201 21.1461 18.1112C22.3548 16.3023 23 14.1755 23 11.9999C22.9954 9.08394 21.835 6.28882 19.7731 4.22693C17.7112 2.16503 14.916 1.00463 12 1ZM20.785 12.0037C20.7842 13.7399 20.2691 15.4371 19.3045 16.8807C18.3392 18.3254 16.9671 19.4513 15.3618 20.1162C13.7566 20.7811 11.9903 20.9552 10.2862 20.6162C8.58203 20.2773 7.0167 19.4405 5.7881 18.2119C4.55949 16.9833 3.72274 15.4179 3.38377 13.7138C3.0448 12.0096 3.21881 10.2433 3.88373 8.63809C4.54864 7.03284 5.67459 5.66083 7.11927 4.69552C8.56396 3.73022 10.2625 3.21496 12 3.21496C14.33 3.21761 16.5637 4.14477 18.2107 5.79278C19.8575 7.4405 20.7833 9.67414 20.785 12.0037ZM11.9999 5.61726C11.715 5.61702 11.4365 5.70134 11.1995 5.85942C10.9626 6.0175 10.7778 6.24222 10.6686 6.50533C10.5594 6.76843 10.5307 7.05812 10.5861 7.33754C10.6416 7.61695 10.7786 7.87364 10.98 8.07515C11.1813 8.27666 11.4379 8.41392 11.7173 8.46959C11.9966 8.52525 12.2862 8.49675 12.5494 8.3878C12.8126 8.27885 13.0376 8.09424 13.1958 7.85741C13.3541 7.62057 13.4386 7.34225 13.4386 7.05739C13.4383 6.67579 13.2866 6.30988 13.0169 6.03993C12.7472 5.76999 12.3815 5.61793 11.9999 5.61726ZM11.2156 10.5603C11.4237 10.3522 11.7058 10.2351 12.0001 10.2348C12.2944 10.2351 12.5766 10.3522 12.7847 10.5603C12.9928 10.7684 13.1098 11.0504 13.1101 11.3447V17.2822C13.1101 17.5766 12.9932 17.859 12.785 18.0671C12.5769 18.2753 12.2945 18.3923 12.0001 18.3923C11.7057 18.3923 11.4234 18.2753 11.2152 18.0671C11.0071 17.859 10.8901 17.5766 10.8901 17.2822V11.3447C10.8905 11.0504 11.0075 10.7684 11.2156 10.5603Z" fill="black" fill-opacity="0.2"/>
<path fill-rule="evenodd" clip-rule="evenodd" d="M12 1C9.82443 1 7.69767 1.64509 5.88873 2.85379C4.07979 4.06248 2.66986 5.78048 1.83729 7.79046C1.00473 9.80045 0.786942 12.0121 1.21138 14.1459C1.63582 16.2797 2.68341 18.2398 4.22178 19.7782C5.76016 21.3166 7.72024 22.3642 9.85403 22.7886C11.9878 23.2131 14.1996 22.9953 16.2095 22.1627C18.2195 21.3301 19.9374 19.9201 21.1461 18.1112C22.3548 16.3023 23 14.1755 23 11.9999C22.9954 9.08394 21.835 6.28882 19.7731 4.22693C17.7112 2.16503 14.916 1.00463 12 1ZM20.785 12.0037C20.7842 13.7399 20.2691 15.4371 19.3045 16.8807C18.3392 18.3254 16.9671 19.4513 15.3618 20.1162C13.7566 20.7811 11.9903 20.9552 10.2862 20.6162C8.58203 20.2773 7.0167 19.4405 5.7881 18.2119C4.55949 16.9833 3.72274 15.4179 3.38377 13.7138C3.0448 12.0096 3.21881 10.2433 3.88373 8.63809C4.54864 7.03284 5.67459 5.66083 7.11927 4.69552C8.56396 3.73022 10.2625 3.21496 12 3.21496C14.33 3.21761 16.5637 4.14477 18.2107 5.79278C19.8575 7.4405 20.7833 9.67414 20.785 12.0037ZM11.9999 5.61726C11.715 5.61702 11.4365 5.70134 11.1995 5.85942C10.9626 6.0175 10.7778 6.24222 10.6686 6.50533C10.5594 6.76843 10.5307 7.05812 10.5861 7.33754C10.6416 7.61695 10.7786 7.87364 10.98 8.07515C11.1813 8.27666 11.4379 8.41392 11.7173 8.46959C11.9966 8.52525 12.2862 8.49675 12.5494 8.3878C12.8126 8.27885 13.0376 8.09424 13.1958 7.85741C13.3541 7.62057 13.4386 7.34225 13.4386 7.05739C13.4383 6.67579 13.2866 6.30988 13.0169 6.03993C12.7472 5.76999 12.3815 5.61793 11.9999 5.61726ZM11.2156 10.5603C11.4237 10.3522 11.7058 10.2351 12.0001 10.2348C12.2944 10.2351 12.5766 10.3522 12.7847 10.5603C12.9928 10.7684 13.1098 11.0504 13.1101 11.3447V17.2822C13.1101 17.5766 12.9932 17.859 12.785 18.0671C12.5769 18.2753 12.2945 18.3923 12.0001 18.3923C11.7057 18.3923 11.4234 18.2753 11.2152 18.0671C11.0071 17.859 10.8901 17.5766 10.8901 17.2822V11.3447C10.8905 11.0504 11.0075 10.7684 11.2156 10.5603Z" fill="black" fill-opacity="0.2"/>
<path fill-rule="evenodd" clip-rule="evenodd" d="M12 1C9.82443 1 7.69767 1.64509 5.88873 2.85379C4.07979 4.06248 2.66986 5.78048 1.83729 7.79046C1.00473 9.80045 0.786942 12.0121 1.21138 14.1459C1.63582 16.2797 2.68341 18.2398 4.22178 19.7782C5.76016 21.3166 7.72024 22.3642 9.85403 22.7886C11.9878 23.2131 14.1996 22.9953 16.2095 22.1627C18.2195 21.3301 19.9374 19.9201 21.1461 18.1112C22.3548 16.3023 23 14.1755 23 11.9999C22.9954 9.08394 21.835 6.28882 19.7731 4.22693C17.7112 2.16503 14.916 1.00463 12 1ZM20.785 12.0037C20.7842 13.7399 20.2691 15.4371 19.3045 16.8807C18.3392 18.3254 16.9671 19.4513 15.3618 20.1162C13.7566 20.7811 11.9903 20.9552 10.2862 20.6162C8.58203 20.2773 7.0167 19.4405 5.7881 18.2119C4.55949 16.9833 3.72274 15.4179 3.38377 13.7138C3.0448 12.0096 3.21881 10.2433 3.88373 8.63809C4.54864 7.03284 5.67459 5.66083 7.11927 4.69552C8.56396 3.73022 10.2625 3.21496 12 3.21496C14.33 3.21761 16.5637 4.14477 18.2107 5.79278C19.8575 7.4405 20.7833 9.67414 20.785 12.0037ZM11.9999 5.61726C11.715 5.61702 11.4365 5.70134 11.1995 5.85942C10.9626 6.0175 10.7778 6.24222 10.6686 6.50533C10.5594 6.76843 10.5307 7.05812 10.5861 7.33754C10.6416 7.61695 10.7786 7.87364 10.98 8.07515C11.1813 8.27666 11.4379 8.41392 11.7173 8.46959C11.9966 8.52525 12.2862 8.49675 12.5494 8.3878C12.8126 8.27885 13.0376 8.09424 13.1958 7.85741C13.3541 7.62057 13.4386 7.34225 13.4386 7.05739C13.4383 6.67579 13.2866 6.30988 13.0169 6.03993C12.7472 5.76999 12.3815 5.61793 11.9999 5.61726ZM11.2156 10.5603C11.4237 10.3522 11.7058 10.2351 12.0001 10.2348C12.2944 10.2351 12.5766 10.3522 12.7847 10.5603C12.9928 10.7684 13.1098 11.0504 13.1101 11.3447V17.2822C13.1101 17.5766 12.9932 17.859 12.785 18.0671C12.5769 18.2753 12.2945 18.3923 12.0001 18.3923C11.7057 18.3923 11.4234 18.2753 11.2152 18.0671C11.0071 17.859 10.8901 17.5766 10.8901 17.2822V11.3447C10.8905 11.0504 11.0075 10.7684 11.2156 10.5603Z" fill="black" fill-opacity="0.2"/>
<path fill-rule="evenodd" clip-rule="evenodd" d="M12 1C9.82443 1 7.69767 1.64509 5.88873 2.85379C4.07979 4.06248 2.66986 5.78048 1.83729 7.79046C1.00473 9.80045 0.786942 12.0121 1.21138 14.1459C1.63582 16.2797 2.68341 18.2398 4.22178 19.7782C5.76016 21.3166 7.72024 22.3642 9.85403 22.7886C11.9878 23.2131 14.1996 22.9953 16.2095 22.1627C18.2195 21.3301 19.9374 19.9201 21.1461 18.1112C22.3548 16.3023 23 14.1755 23 11.9999C22.9954 9.08394 21.835 6.28882 19.7731 4.22693C17.7112 2.16503 14.916 1.00463 12 1ZM20.785 12.0037C20.7842 13.7399 20.2691 15.4371 19.3045 16.8807C18.3392 18.3254 16.9671 19.4513 15.3618 20.1162C13.7566 20.7811 11.9903 20.9552 10.2862 20.6162C8.58203 20.2773 7.0167 19.4405 5.7881 18.2119C4.55949 16.9833 3.72274 15.4179 3.38377 13.7138C3.0448 12.0096 3.21881 10.2433 3.88373 8.63809C4.54864 7.03284 5.67459 5.66083 7.11927 4.69552C8.56396 3.73022 10.2625 3.21496 12 3.21496C14.33 3.21761 16.5637 4.14477 18.2107 5.79278C19.8575 7.4405 20.7833 9.67414 20.785 12.0037ZM11.9999 5.61726C11.715 5.61702 11.4365 5.70134 11.1995 5.85942C10.9626 6.0175 10.7778 6.24222 10.6686 6.50533C10.5594 6.76843 10.5307 7.05812 10.5861 7.33754C10.6416 7.61695 10.7786 7.87364 10.98 8.07515C11.1813 8.27666 11.4379 8.41392 11.7173 8.46959C11.9966 8.52525 12.2862 8.49675 12.5494 8.3878C12.8126 8.27885 13.0376 8.09424 13.1958 7.85741C13.3541 7.62057 13.4386 7.34225 13.4386 7.05739C13.4383 6.67579 13.2866 6.30988 13.0169 6.03993C12.7472 5.76999 12.3815 5.61793 11.9999 5.61726ZM11.2156 10.5603C11.4237 10.3522 11.7058 10.2351 12.0001 10.2348C12.2944 10.2351 12.5766 10.3522 12.7847 10.5603C12.9928 10.7684 13.1098 11.0504 13.1101 11.3447V17.2822C13.1101 17.5766 12.9932 17.859 12.785 18.0671C12.5769 18.2753 12.2945 18.3923 12.0001 18.3923C11.7057 18.3923 11.4234 18.2753 11.2152 18.0671C11.0071 17.859 10.8901 17.5766 10.8901 17.2822V11.3447C10.8905 11.0504 11.0075 10.7684 11.2156 10.5603Z" fill="black" fill-opacity="0.2"/>
<path d="M5.88873 2.85379L6.4443 3.68526L5.88873 2.85379ZM12 1L12.0016 0H12V1ZM1.83729 7.79046L0.913415 7.40778H0.913415L1.83729 7.79046ZM1.21138 14.1459L0.230594 14.341L1.21138 14.1459ZM4.22178 19.7782L4.92889 19.0711L4.92889 19.0711L4.22178 19.7782ZM9.85403 22.7886L10.0491 21.8078H10.0491L9.85403 22.7886ZM21.1461 18.1112L21.9776 18.6668L21.1461 18.1112ZM23 11.9999H24L24 11.9983L23 11.9999ZM19.7731 4.22693L19.066 4.93403V4.93403L19.7731 4.22693ZM19.3045 16.8807L18.473 16.3252H18.473L19.3045 16.8807ZM20.785 12.0037L21.785 12.0041V12.003L20.785 12.0037ZM15.3618 20.1162L14.9792 19.1923H14.9792L15.3618 20.1162ZM10.2862 20.6162L10.4812 19.6354H10.4812L10.2862 20.6162ZM5.7881 18.2119L6.4952 17.5048L5.7881 18.2119ZM3.38377 13.7138L4.36456 13.5187L3.38377 13.7138ZM3.88373 8.63809L4.80761 9.02077L3.88373 8.63809ZM7.11927 4.69552L7.67484 5.52699L7.11927 4.69552ZM12 3.21496L12.0012 2.21496H12V3.21496ZM18.2107 5.79278L18.918 5.08588V5.08588L18.2107 5.79278ZM11.9999 5.61726L12.0016 4.61727L12.0007 4.61726L11.9999 5.61726ZM10.6686 6.50533L9.74498 6.12204L9.74498 6.12204L10.6686 6.50533ZM10.5861 7.33754L9.60525 7.5321L9.60525 7.5321L10.5861 7.33754ZM10.98 8.07515L10.2726 8.78195L10.2726 8.78195L10.98 8.07515ZM12.5494 8.3878L12.1669 7.46384L12.1669 7.46384L12.5494 8.3878ZM13.1958 7.85741L14.0273 8.41307L14.0273 8.41307L13.1958 7.85741ZM13.4386 7.05739H14.4386V7.05652L13.4386 7.05739ZM13.0169 6.03993L13.7244 5.33313L13.7244 5.33313L13.0169 6.03993ZM12.0001 10.2348L12.0013 9.2348L11.999 9.2348L12.0001 10.2348ZM13.1101 11.3447H14.1101L14.1101 11.3436L13.1101 11.3447ZM12.785 18.0671L12.0779 17.36L12.0779 17.36L12.785 18.0671ZM11.2152 18.0671L11.9223 17.36L11.9223 17.36L11.2152 18.0671ZM10.8901 11.3447L9.89014 11.3436V11.3447H10.8901ZM6.4443 3.68526C8.08878 2.58645 10.0222 2 12 2V0C9.62666 0 7.30656 0.703734 5.33316 2.02232L6.4443 3.68526ZM2.76117 8.17314C3.51805 6.34589 4.79981 4.78407 6.4443 3.68526L5.33316 2.02232C3.35977 3.34089 1.82167 5.21506 0.913415 7.40778L2.76117 8.17314ZM2.19216 13.9508C1.80631 12.011 2.0043 10.0004 2.76117 8.17314L0.913415 7.40778C0.0051586 9.6005 -0.232426 12.0132 0.230594 14.341L2.19216 13.9508ZM4.92889 19.0711C3.53039 17.6726 2.57802 15.8907 2.19216 13.9508L0.230594 14.341C0.693609 16.6687 1.83642 18.8071 3.51468 20.4853L4.92889 19.0711ZM10.0491 21.8078C8.10928 21.422 6.3274 20.4696 4.92889 19.0711L3.51468 20.4853C5.19292 22.1636 7.33119 23.3064 9.65894 23.7694L10.0491 21.8078ZM15.8269 21.2388C13.9996 21.9957 11.9889 22.1937 10.0491 21.8078L9.65894 23.7694C11.9867 24.2324 14.3995 23.9948 16.5922 23.0866L15.8269 21.2388ZM20.3147 17.5556C19.2158 19.2001 17.6541 20.482 15.8269 21.2388L16.5922 23.0866C18.785 22.1783 20.659 20.6401 21.9776 18.6668L20.3147 17.5556ZM22 11.9999C22 13.9777 21.4135 15.9111 20.3147 17.5556L21.9776 18.6668C23.2962 16.6934 24 14.3733 24 11.9999H22ZM19.066 4.93403C20.9407 6.80879 21.9958 9.3502 22 12.0015L24 11.9983C23.995 8.81768 22.7292 5.76886 20.4802 3.51982L19.066 4.93403ZM11.9984 2C14.6497 2.00421 17.1912 3.05929 19.066 4.93403L20.4802 3.51982C18.2311 1.27077 15.1822 0.00504929 12.0016 1.2517e-06L11.9984 2ZM20.1359 17.4363C21.2104 15.8283 21.7841 13.9379 21.785 12.0041L19.785 12.0032C19.7843 13.5418 19.3278 15.0459 18.473 16.3252L20.1359 17.4363ZM15.7445 21.0401C17.5324 20.2995 19.0607 19.0455 20.1359 17.4363L18.473 16.3252C17.6176 17.6053 16.4017 18.6031 14.9792 19.1923L15.7445 21.0401ZM10.0911 21.597C11.9892 21.9746 13.9566 21.7807 15.7445 21.0401L14.9792 19.1923C13.5566 19.7816 11.9913 19.9358 10.4812 19.6354L10.0911 21.597ZM5.08099 18.919C6.44943 20.2874 8.19294 21.2195 10.0911 21.597L10.4812 19.6354C8.97113 19.3351 7.58397 18.5936 6.4952 17.5048L5.08099 18.919ZM2.40299 13.9089C2.78054 15.807 3.71254 17.5506 5.08099 18.919L6.4952 17.5048C5.40645 16.416 4.66494 15.0288 4.36456 13.5187L2.40299 13.9089ZM2.95985 8.2554C2.21925 10.0434 2.02543 12.0107 2.40299 13.9089L4.36456 13.5187C4.06417 12.0086 4.21837 10.4433 4.80761 9.02077L2.95985 8.2554ZM6.5637 3.86405C4.95456 4.93925 3.70045 6.46744 2.95985 8.2554L4.80761 9.02077C5.39684 7.59824 6.39462 6.38241 7.67484 5.52699L6.5637 3.86405ZM12 2.21496C10.0647 2.21496 8.17284 2.78886 6.5637 3.86405L7.67484 5.52699C8.95508 4.67157 10.4603 4.21496 12 4.21496V2.21496ZM18.918 5.08588C17.0837 3.2505 14.5961 2.21792 12.0012 2.21496L11.9989 4.21496C14.0639 4.21731 16.0436 5.03904 17.5034 6.49969L18.918 5.08588ZM21.785 12.003C21.7831 9.40855 20.752 6.92093 18.918 5.08588L17.5034 6.49969C18.963 7.96007 19.7835 9.93974 19.785 12.0044L21.785 12.003ZM11.7545 6.69131C11.8271 6.64289 11.9122 6.61719 11.999 6.61726L12.0007 4.61726C11.5178 4.61685 11.046 4.7598 10.6446 5.02753L11.7545 6.69131ZM11.5922 6.88861C11.6255 6.80837 11.6819 6.73971 11.7545 6.69131L10.6446 5.02753C10.2432 5.29529 9.93005 5.67607 9.74498 6.12204L11.5922 6.88861ZM11.567 7.14298C11.5501 7.05762 11.5589 6.96902 11.5922 6.88861L9.74498 6.12204C9.55998 6.56784 9.51134 7.05863 9.60525 7.5321L11.567 7.14298ZM11.6874 7.36835C11.6258 7.30673 11.5839 7.22829 11.567 7.14298L9.60525 7.5321C9.69917 8.00562 9.93145 8.44054 10.2726 8.78195L11.6874 7.36835ZM11.9127 7.48887C11.8273 7.47185 11.7489 7.42989 11.6874 7.36835L10.2726 8.78195C10.6137 9.12343 11.0485 9.356 11.5219 9.45031L11.9127 7.48887ZM12.1669 7.46384C12.0864 7.49718 11.9979 7.50585 11.9127 7.48887L11.5219 9.45031C11.9954 9.54466 12.486 9.49633 12.9319 9.31176L12.1669 7.46384ZM12.3644 7.30174C12.316 7.3742 12.2473 7.43059 12.1669 7.46384L12.9319 9.31176C13.378 9.12711 13.7591 8.81428 14.0273 8.41307L12.3644 7.30174ZM12.4386 7.05739C12.4386 7.14434 12.4128 7.22931 12.3644 7.30175L14.0273 8.41307C14.2954 8.01184 14.4386 7.54015 14.4386 7.05739H12.4386ZM12.3095 6.74673C12.3921 6.82935 12.4385 6.94138 12.4386 7.05825L14.4386 7.05652C14.4381 6.41021 14.1812 5.79041 13.7244 5.33313L12.3095 6.74673ZM11.9981 6.61726C12.1148 6.61747 12.2268 6.66397 12.3095 6.74673L13.7244 5.33313C13.2676 4.876 12.6481 4.61839 12.0016 4.61727L11.9981 6.61726ZM11.999 9.2348C11.4399 9.23543 10.9039 9.4578 10.5085 9.85317L11.9227 11.2674C11.9435 11.2466 11.9718 11.2348 12.0013 11.2348L11.999 9.2348ZM13.4918 9.85317C13.0964 9.45779 12.5604 9.23543 12.0013 9.2348L11.999 11.2348C12.0285 11.2348 12.0567 11.2466 12.0776 11.2674L13.4918 9.85317ZM14.1101 11.3436C14.1095 10.7844 13.8871 10.2485 13.4918 9.85317L12.0776 11.2674C12.0984 11.2882 12.1101 11.3164 12.1101 11.3458L14.1101 11.3436ZM14.1101 17.2822V11.3447H12.1101V17.2822H14.1101ZM13.4922 18.7742C13.8879 18.3785 14.1101 17.8418 14.1101 17.2822H12.1101C12.1101 17.3115 12.0985 17.3395 12.0779 17.36L13.4922 18.7742ZM12.0001 19.3923C12.5598 19.3923 13.0965 19.1699 13.4922 18.7742L12.0779 17.36C12.0572 17.3807 12.0292 17.3923 12.0001 17.3923V19.3923ZM10.5081 18.7742C10.9037 19.1699 11.4404 19.3923 12.0001 19.3923V17.3923C11.9711 17.3923 11.943 17.3807 11.9223 17.36L10.5081 18.7742ZM9.89014 17.2822C9.89014 17.8418 10.1124 18.3785 10.5081 18.7742L11.9223 17.36C11.9018 17.3395 11.8901 17.3115 11.8901 17.2822H9.89014ZM9.89014 11.3447V17.2822H11.8901V11.3447H9.89014ZM10.5085 9.85317C10.1132 10.2485 9.89077 10.7844 9.89014 11.3436L11.8901 11.3458C11.8902 11.3164 11.9018 11.2882 11.9227 11.2674L10.5085 9.85317Z" fill="black" mask="url(#path-1-inside-1_314_328)"/>
<path d="M5.88873 2.85379L6.4443 3.68526L5.88873 2.85379ZM12 1L12.0016 0H12V1ZM1.83729 7.79046L0.913415 7.40778H0.913415L1.83729 7.79046ZM1.21138 14.1459L0.230594 14.341L1.21138 14.1459ZM4.22178 19.7782L4.92889 19.0711L4.92889 19.0711L4.22178 19.7782ZM9.85403 22.7886L10.0491 21.8078H10.0491L9.85403 22.7886ZM21.1461 18.1112L21.9776 18.6668L21.1461 18.1112ZM23 11.9999H24L24 11.9983L23 11.9999ZM19.7731 4.22693L19.066 4.93403V4.93403L19.7731 4.22693ZM19.3045 16.8807L18.473 16.3252H18.473L19.3045 16.8807ZM20.785 12.0037L21.785 12.0041V12.003L20.785 12.0037ZM15.3618 20.1162L14.9792 19.1923H14.9792L15.3618 20.1162ZM10.2862 20.6162L10.4812 19.6354H10.4812L10.2862 20.6162ZM5.7881 18.2119L6.4952 17.5048L5.7881 18.2119ZM3.38377 13.7138L4.36456 13.5187L3.38377 13.7138ZM3.88373 8.63809L4.80761 9.02077L3.88373 8.63809ZM7.11927 4.69552L7.67484 5.52699L7.11927 4.69552ZM12 3.21496L12.0012 2.21496H12V3.21496ZM18.2107 5.79278L18.918 5.08588V5.08588L18.2107 5.79278ZM11.9999 5.61726L12.0016 4.61727L12.0007 4.61726L11.9999 5.61726ZM10.6686 6.50533L9.74498 6.12204L9.74498 6.12204L10.6686 6.50533ZM10.5861 7.33754L9.60525 7.5321L9.60525 7.5321L10.5861 7.33754ZM10.98 8.07515L10.2726 8.78195L10.2726 8.78195L10.98 8.07515ZM12.5494 8.3878L12.1669 7.46384L12.1669 7.46384L12.5494 8.3878ZM13.1958 7.85741L14.0273 8.41307L14.0273 8.41307L13.1958 7.85741ZM13.4386 7.05739H14.4386V7.05652L13.4386 7.05739ZM13.0169 6.03993L13.7244 5.33313L13.7244 5.33313L13.0169 6.03993ZM12.0001 10.2348L12.0013 9.2348L11.999 9.2348L12.0001 10.2348ZM13.1101 11.3447H14.1101L14.1101 11.3436L13.1101 11.3447ZM12.785 18.0671L12.0779 17.36L12.0779 17.36L12.785 18.0671ZM11.2152 18.0671L11.9223 17.36L11.9223 17.36L11.2152 18.0671ZM10.8901 11.3447L9.89014 11.3436V11.3447H10.8901ZM6.4443 3.68526C8.08878 2.58645 10.0222 2 12 2V0C9.62666 0 7.30656 0.703734 5.33316 2.02232L6.4443 3.68526ZM2.76117 8.17314C3.51805 6.34589 4.79981 4.78407 6.4443 3.68526L5.33316 2.02232C3.35977 3.34089 1.82167 5.21506 0.913415 7.40778L2.76117 8.17314ZM2.19216 13.9508C1.80631 12.011 2.0043 10.0004 2.76117 8.17314L0.913415 7.40778C0.0051586 9.6005 -0.232426 12.0132 0.230594 14.341L2.19216 13.9508ZM4.92889 19.0711C3.53039 17.6726 2.57802 15.8907 2.19216 13.9508L0.230594 14.341C0.693609 16.6687 1.83642 18.8071 3.51468 20.4853L4.92889 19.0711ZM10.0491 21.8078C8.10928 21.422 6.3274 20.4696 4.92889 19.0711L3.51468 20.4853C5.19292 22.1636 7.33119 23.3064 9.65894 23.7694L10.0491 21.8078ZM15.8269 21.2388C13.9996 21.9957 11.9889 22.1937 10.0491 21.8078L9.65894 23.7694C11.9867 24.2324 14.3995 23.9948 16.5922 23.0866L15.8269 21.2388ZM20.3147 17.5556C19.2158 19.2001 17.6541 20.482 15.8269 21.2388L16.5922 23.0866C18.785 22.1783 20.659 20.6401 21.9776 18.6668L20.3147 17.5556ZM22 11.9999C22 13.9777 21.4135 15.9111 20.3147 17.5556L21.9776 18.6668C23.2962 16.6934 24 14.3733 24 11.9999H22ZM19.066 4.93403C20.9407 6.80879 21.9958 9.3502 22 12.0015L24 11.9983C23.995 8.81768 22.7292 5.76886 20.4802 3.51982L19.066 4.93403ZM11.9984 2C14.6497 2.00421 17.1912 3.05929 19.066 4.93403L20.4802 3.51982C18.2311 1.27077 15.1822 0.00504929 12.0016 1.2517e-06L11.9984 2ZM20.1359 17.4363C21.2104 15.8283 21.7841 13.9379 21.785 12.0041L19.785 12.0032C19.7843 13.5418 19.3278 15.0459 18.473 16.3252L20.1359 17.4363ZM15.7445 21.0401C17.5324 20.2995 19.0607 19.0455 20.1359 17.4363L18.473 16.3252C17.6176 17.6053 16.4017 18.6031 14.9792 19.1923L15.7445 21.0401ZM10.0911 21.597C11.9892 21.9746 13.9566 21.7807 15.7445 21.0401L14.9792 19.1923C13.5566 19.7816 11.9913 19.9358 10.4812 19.6354L10.0911 21.597ZM5.08099 18.919C6.44943 20.2874 8.19294 21.2195 10.0911 21.597L10.4812 19.6354C8.97113 19.3351 7.58397 18.5936 6.4952 17.5048L5.08099 18.919ZM2.40299 13.9089C2.78054 15.807 3.71254 17.5506 5.08099 18.919L6.4952 17.5048C5.40645 16.416 4.66494 15.0288 4.36456 13.5187L2.40299 13.9089ZM2.95985 8.2554C2.21925 10.0434 2.02543 12.0107 2.40299 13.9089L4.36456 13.5187C4.06417 12.0086 4.21837 10.4433 4.80761 9.02077L2.95985 8.2554ZM6.5637 3.86405C4.95456 4.93925 3.70045 6.46744 2.95985 8.2554L4.80761 9.02077C5.39684 7.59824 6.39462 6.38241 7.67484 5.52699L6.5637 3.86405ZM12 2.21496C10.0647 2.21496 8.17284 2.78886 6.5637 3.86405L7.67484 5.52699C8.95508 4.67157 10.4603 4.21496 12 4.21496V2.21496ZM18.918 5.08588C17.0837 3.2505 14.5961 2.21792 12.0012 2.21496L11.9989 4.21496C14.0639 4.21731 16.0436 5.03904 17.5034 6.49969L18.918 5.08588ZM21.785 12.003C21.7831 9.40855 20.752 6.92093 18.918 5.08588L17.5034 6.49969C18.963 7.96007 19.7835 9.93974 19.785 12.0044L21.785 12.003ZM11.7545 6.69131C11.8271 6.64289 11.9122 6.61719 11.999 6.61726L12.0007 4.61726C11.5178 4.61685 11.046 4.7598 10.6446 5.02753L11.7545 6.69131ZM11.5922 6.88861C11.6255 6.80837 11.6819 6.73971 11.7545 6.69131L10.6446 5.02753C10.2432 5.29529 9.93005 5.67607 9.74498 6.12204L11.5922 6.88861ZM11.567 7.14298C11.5501 7.05762 11.5589 6.96902 11.5922 6.88861L9.74498 6.12204C9.55998 6.56784 9.51134 7.05863 9.60525 7.5321L11.567 7.14298ZM11.6874 7.36835C11.6258 7.30673 11.5839 7.22829 11.567 7.14298L9.60525 7.5321C9.69917 8.00562 9.93145 8.44054 10.2726 8.78195L11.6874 7.36835ZM11.9127 7.48887C11.8273 7.47185 11.7489 7.42989 11.6874 7.36835L10.2726 8.78195C10.6137 9.12343 11.0485 9.356 11.5219 9.45031L11.9127 7.48887ZM12.1669 7.46384C12.0864 7.49718 11.9979 7.50585 11.9127 7.48887L11.5219 9.45031C11.9954 9.54466 12.486 9.49633 12.9319 9.31176L12.1669 7.46384ZM12.3644 7.30174C12.316 7.3742 12.2473 7.43059 12.1669 7.46384L12.9319 9.31176C13.378 9.12711 13.7591 8.81428 14.0273 8.41307L12.3644 7.30174ZM12.4386 7.05739C12.4386 7.14434 12.4128 7.22931 12.3644 7.30175L14.0273 8.41307C14.2954 8.01184 14.4386 7.54015 14.4386 7.05739H12.4386ZM12.3095 6.74673C12.3921 6.82935 12.4385 6.94138 12.4386 7.05825L14.4386 7.05652C14.4381 6.41021 14.1812 5.79041 13.7244 5.33313L12.3095 6.74673ZM11.9981 6.61726C12.1148 6.61747 12.2268 6.66397 12.3095 6.74673L13.7244 5.33313C13.2676 4.876 12.6481 4.61839 12.0016 4.61727L11.9981 6.61726ZM11.999 9.2348C11.4399 9.23543 10.9039 9.4578 10.5085 9.85317L11.9227 11.2674C11.9435 11.2466 11.9718 11.2348 12.0013 11.2348L11.999 9.2348ZM13.4918 9.85317C13.0964 9.45779 12.5604 9.23543 12.0013 9.2348L11.999 11.2348C12.0285 11.2348 12.0567 11.2466 12.0776 11.2674L13.4918 9.85317ZM14.1101 11.3436C14.1095 10.7844 13.8871 10.2485 13.4918 9.85317L12.0776 11.2674C12.0984 11.2882 12.1101 11.3164 12.1101 11.3458L14.1101 11.3436ZM14.1101 17.2822V11.3447H12.1101V17.2822H14.1101ZM13.4922 18.7742C13.8879 18.3785 14.1101 17.8418 14.1101 17.2822H12.1101C12.1101 17.3115 12.0985 17.3395 12.0779 17.36L13.4922 18.7742ZM12.0001 19.3923C12.5598 19.3923 13.0965 19.1699 13.4922 18.7742L12.0779 17.36C12.0572 17.3807 12.0292 17.3923 12.0001 17.3923V19.3923ZM10.5081 18.7742C10.9037 19.1699 11.4404 19.3923 12.0001 19.3923V17.3923C11.9711 17.3923 11.943 17.3807 11.9223 17.36L10.5081 18.7742ZM9.89014 17.2822C9.89014 17.8418 10.1124 18.3785 10.5081 18.7742L11.9223 17.36C11.9018 17.3395 11.8901 17.3115 11.8901 17.2822H9.89014ZM9.89014 11.3447V17.2822H11.8901V11.3447H9.89014ZM10.5085 9.85317C10.1132 10.2485 9.89077 10.7844 9.89014 11.3436L11.8901 11.3458C11.8902 11.3164 11.9018 11.2882 11.9227 11.2674L10.5085 9.85317Z" fill="black" fill-opacity="0.2" mask="url(#path-1-inside-1_314_328)"/>
<path d="M5.88873 2.85379L6.4443 3.68526L5.88873 2.85379ZM12 1L12.0016 0H12V1ZM1.83729 7.79046L0.913415 7.40778H0.913415L1.83729 7.79046ZM1.21138 14.1459L0.230594 14.341L1.21138 14.1459ZM4.22178 19.7782L4.92889 19.0711L4.92889 19.0711L4.22178 19.7782ZM9.85403 22.7886L10.0491 21.8078H10.0491L9.85403 22.7886ZM21.1461 18.1112L21.9776 18.6668L21.1461 18.1112ZM23 11.9999H24L24 11.9983L23 11.9999ZM19.7731 4.22693L19.066 4.93403V4.93403L19.7731 4.22693ZM19.3045 16.8807L18.473 16.3252H18.473L19.3045 16.8807ZM20.785 12.0037L21.785 12.0041V12.003L20.785 12.0037ZM15.3618 20.1162L14.9792 19.1923H14.9792L15.3618 20.1162ZM10.2862 20.6162L10.4812 19.6354H10.4812L10.2862 20.6162ZM5.7881 18.2119L6.4952 17.5048L5.7881 18.2119ZM3.38377 13.7138L4.36456 13.5187L3.38377 13.7138ZM3.88373 8.63809L4.80761 9.02077L3.88373 8.63809ZM7.11927 4.69552L7.67484 5.52699L7.11927 4.69552ZM12 3.21496L12.0012 2.21496H12V3.21496ZM18.2107 5.79278L18.918 5.08588V5.08588L18.2107 5.79278ZM11.9999 5.61726L12.0016 4.61727L12.0007 4.61726L11.9999 5.61726ZM10.6686 6.50533L9.74498 6.12204L9.74498 6.12204L10.6686 6.50533ZM10.5861 7.33754L9.60525 7.5321L9.60525 7.5321L10.5861 7.33754ZM10.98 8.07515L10.2726 8.78195L10.2726 8.78195L10.98 8.07515ZM12.5494 8.3878L12.1669 7.46384L12.1669 7.46384L12.5494 8.3878ZM13.1958 7.85741L14.0273 8.41307L14.0273 8.41307L13.1958 7.85741ZM13.4386 7.05739H14.4386V7.05652L13.4386 7.05739ZM13.0169 6.03993L13.7244 5.33313L13.7244 5.33313L13.0169 6.03993ZM12.0001 10.2348L12.0013 9.2348L11.999 9.2348L12.0001 10.2348ZM13.1101 11.3447H14.1101L14.1101 11.3436L13.1101 11.3447ZM12.785 18.0671L12.0779 17.36L12.0779 17.36L12.785 18.0671ZM11.2152 18.0671L11.9223 17.36L11.9223 17.36L11.2152 18.0671ZM10.8901 11.3447L9.89014 11.3436V11.3447H10.8901ZM6.4443 3.68526C8.08878 2.58645 10.0222 2 12 2V0C9.62666 0 7.30656 0.703734 5.33316 2.02232L6.4443 3.68526ZM2.76117 8.17314C3.51805 6.34589 4.79981 4.78407 6.4443 3.68526L5.33316 2.02232C3.35977 3.34089 1.82167 5.21506 0.913415 7.40778L2.76117 8.17314ZM2.19216 13.9508C1.80631 12.011 2.0043 10.0004 2.76117 8.17314L0.913415 7.40778C0.0051586 9.6005 -0.232426 12.0132 0.230594 14.341L2.19216 13.9508ZM4.92889 19.0711C3.53039 17.6726 2.57802 15.8907 2.19216 13.9508L0.230594 14.341C0.693609 16.6687 1.83642 18.8071 3.51468 20.4853L4.92889 19.0711ZM10.0491 21.8078C8.10928 21.422 6.3274 20.4696 4.92889 19.0711L3.51468 20.4853C5.19292 22.1636 7.33119 23.3064 9.65894 23.7694L10.0491 21.8078ZM15.8269 21.2388C13.9996 21.9957 11.9889 22.1937 10.0491 21.8078L9.65894 23.7694C11.9867 24.2324 14.3995 23.9948 16.5922 23.0866L15.8269 21.2388ZM20.3147 17.5556C19.2158 19.2001 17.6541 20.482 15.8269 21.2388L16.5922 23.0866C18.785 22.1783 20.659 20.6401 21.9776 18.6668L20.3147 17.5556ZM22 11.9999C22 13.9777 21.4135 15.9111 20.3147 17.5556L21.9776 18.6668C23.2962 16.6934 24 14.3733 24 11.9999H22ZM19.066 4.93403C20.9407 6.80879 21.9958 9.3502 22 12.0015L24 11.9983C23.995 8.81768 22.7292 5.76886 20.4802 3.51982L19.066 4.93403ZM11.9984 2C14.6497 2.00421 17.1912 3.05929 19.066 4.93403L20.4802 3.51982C18.2311 1.27077 15.1822 0.00504929 12.0016 1.2517e-06L11.9984 2ZM20.1359 17.4363C21.2104 15.8283 21.7841 13.9379 21.785 12.0041L19.785 12.0032C19.7843 13.5418 19.3278 15.0459 18.473 16.3252L20.1359 17.4363ZM15.7445 21.0401C17.5324 20.2995 19.0607 19.0455 20.1359 17.4363L18.473 16.3252C17.6176 17.6053 16.4017 18.6031 14.9792 19.1923L15.7445 21.0401ZM10.0911 21.597C11.9892 21.9746 13.9566 21.7807 15.7445 21.0401L14.9792 19.1923C13.5566 19.7816 11.9913 19.9358 10.4812 19.6354L10.0911 21.597ZM5.08099 18.919C6.44943 20.2874 8.19294 21.2195 10.0911 21.597L10.4812 19.6354C8.97113 19.3351 7.58397 18.5936 6.4952 17.5048L5.08099 18.919ZM2.40299 13.9089C2.78054 15.807 3.71254 17.5506 5.08099 18.919L6.4952 17.5048C5.40645 16.416 4.66494 15.0288 4.36456 13.5187L2.40299 13.9089ZM2.95985 8.2554C2.21925 10.0434 2.02543 12.0107 2.40299 13.9089L4.36456 13.5187C4.06417 12.0086 4.21837 10.4433 4.80761 9.02077L2.95985 8.2554ZM6.5637 3.86405C4.95456 4.93925 3.70045 6.46744 2.95985 8.2554L4.80761 9.02077C5.39684 7.59824 6.39462 6.38241 7.67484 5.52699L6.5637 3.86405ZM12 2.21496C10.0647 2.21496 8.17284 2.78886 6.5637 3.86405L7.67484 5.52699C8.95508 4.67157 10.4603 4.21496 12 4.21496V2.21496ZM18.918 5.08588C17.0837 3.2505 14.5961 2.21792 12.0012 2.21496L11.9989 4.21496C14.0639 4.21731 16.0436 5.03904 17.5034 6.49969L18.918 5.08588ZM21.785 12.003C21.7831 9.40855 20.752 6.92093 18.918 5.08588L17.5034 6.49969C18.963 7.96007 19.7835 9.93974 19.785 12.0044L21.785 12.003ZM11.7545 6.69131C11.8271 6.64289 11.9122 6.61719 11.999 6.61726L12.0007 4.61726C11.5178 4.61685 11.046 4.7598 10.6446 5.02753L11.7545 6.69131ZM11.5922 6.88861C11.6255 6.80837 11.6819 6.73971 11.7545 6.69131L10.6446 5.02753C10.2432 5.29529 9.93005 5.67607 9.74498 6.12204L11.5922 6.88861ZM11.567 7.14298C11.5501 7.05762 11.5589 6.96902 11.5922 6.88861L9.74498 6.12204C9.55998 6.56784 9.51134 7.05863 9.60525 7.5321L11.567 7.14298ZM11.6874 7.36835C11.6258 7.30673 11.5839 7.22829 11.567 7.14298L9.60525 7.5321C9.69917 8.00562 9.93145 8.44054 10.2726 8.78195L11.6874 7.36835ZM11.9127 7.48887C11.8273 7.47185 11.7489 7.42989 11.6874 7.36835L10.2726 8.78195C10.6137 9.12343 11.0485 9.356 11.5219 9.45031L11.9127 7.48887ZM12.1669 7.46384C12.0864 7.49718 11.9979 7.50585 11.9127 7.48887L11.5219 9.45031C11.9954 9.54466 12.486 9.49633 12.9319 9.31176L12.1669 7.46384ZM12.3644 7.30174C12.316 7.3742 12.2473 7.43059 12.1669 7.46384L12.9319 9.31176C13.378 9.12711 13.7591 8.81428 14.0273 8.41307L12.3644 7.30174ZM12.4386 7.05739C12.4386 7.14434 12.4128 7.22931 12.3644 7.30175L14.0273 8.41307C14.2954 8.01184 14.4386 7.54015 14.4386 7.05739H12.4386ZM12.3095 6.74673C12.3921 6.82935 12.4385 6.94138 12.4386 7.05825L14.4386 7.05652C14.4381 6.41021 14.1812 5.79041 13.7244 5.33313L12.3095 6.74673ZM11.9981 6.61726C12.1148 6.61747 12.2268 6.66397 12.3095 6.74673L13.7244 5.33313C13.2676 4.876 12.6481 4.61839 12.0016 4.61727L11.9981 6.61726ZM11.999 9.2348C11.4399 9.23543 10.9039 9.4578 10.5085 9.85317L11.9227 11.2674C11.9435 11.2466 11.9718 11.2348 12.0013 11.2348L11.999 9.2348ZM13.4918 9.85317C13.0964 9.45779 12.5604 9.23543 12.0013 9.2348L11.999 11.2348C12.0285 11.2348 12.0567 11.2466 12.0776 11.2674L13.4918 9.85317ZM14.1101 11.3436C14.1095 10.7844 13.8871 10.2485 13.4918 9.85317L12.0776 11.2674C12.0984 11.2882 12.1101 11.3164 12.1101 11.3458L14.1101 11.3436ZM14.1101 17.2822V11.3447H12.1101V17.2822H14.1101ZM13.4922 18.7742C13.8879 18.3785 14.1101 17.8418 14.1101 17.2822H12.1101C12.1101 17.3115 12.0985 17.3395 12.0779 17.36L13.4922 18.7742ZM12.0001 19.3923C12.5598 19.3923 13.0965 19.1699 13.4922 18.7742L12.0779 17.36C12.0572 17.3807 12.0292 17.3923 12.0001 17.3923V19.3923ZM10.5081 18.7742C10.9037 19.1699 11.4404 19.3923 12.0001 19.3923V17.3923C11.9711 17.3923 11.943 17.3807 11.9223 17.36L10.5081 18.7742ZM9.89014 17.2822C9.89014 17.8418 10.1124 18.3785 10.5081 18.7742L11.9223 17.36C11.9018 17.3395 11.8901 17.3115 11.8901 17.2822H9.89014ZM9.89014 11.3447V17.2822H11.8901V11.3447H9.89014ZM10.5085 9.85317C10.1132 10.2485 9.89077 10.7844 9.89014 11.3436L11.8901 11.3458C11.8902 11.3164 11.9018 11.2882 11.9227 11.2674L10.5085 9.85317Z" fill="black" fill-opacity="0.2" mask="url(#path-1-inside-1_314_328)"/>
<path d="M5.88873 2.85379L6.4443 3.68526L5.88873 2.85379ZM12 1L12.0016 0H12V1ZM1.83729 7.79046L0.913415 7.40778H0.913415L1.83729 7.79046ZM1.21138 14.1459L0.230594 14.341L1.21138 14.1459ZM4.22178 19.7782L4.92889 19.0711L4.92889 19.0711L4.22178 19.7782ZM9.85403 22.7886L10.0491 21.8078H10.0491L9.85403 22.7886ZM21.1461 18.1112L21.9776 18.6668L21.1461 18.1112ZM23 11.9999H24L24 11.9983L23 11.9999ZM19.7731 4.22693L19.066 4.93403V4.93403L19.7731 4.22693ZM19.3045 16.8807L18.473 16.3252H18.473L19.3045 16.8807ZM20.785 12.0037L21.785 12.0041V12.003L20.785 12.0037ZM15.3618 20.1162L14.9792 19.1923H14.9792L15.3618 20.1162ZM10.2862 20.6162L10.4812 19.6354H10.4812L10.2862 20.6162ZM5.7881 18.2119L6.4952 17.5048L5.7881 18.2119ZM3.38377 13.7138L4.36456 13.5187L3.38377 13.7138ZM3.88373 8.63809L4.80761 9.02077L3.88373 8.63809ZM7.11927 4.69552L7.67484 5.52699L7.11927 4.69552ZM12 3.21496L12.0012 2.21496H12V3.21496ZM18.2107 5.79278L18.918 5.08588V5.08588L18.2107 5.79278ZM11.9999 5.61726L12.0016 4.61727L12.0007 4.61726L11.9999 5.61726ZM10.6686 6.50533L9.74498 6.12204L9.74498 6.12204L10.6686 6.50533ZM10.5861 7.33754L9.60525 7.5321L9.60525 7.5321L10.5861 7.33754ZM10.98 8.07515L10.2726 8.78195L10.2726 8.78195L10.98 8.07515ZM12.5494 8.3878L12.1669 7.46384L12.1669 7.46384L12.5494 8.3878ZM13.1958 7.85741L14.0273 8.41307L14.0273 8.41307L13.1958 7.85741ZM13.4386 7.05739H14.4386V7.05652L13.4386 7.05739ZM13.0169 6.03993L13.7244 5.33313L13.7244 5.33313L13.0169 6.03993ZM12.0001 10.2348L12.0013 9.2348L11.999 9.2348L12.0001 10.2348ZM13.1101 11.3447H14.1101L14.1101 11.3436L13.1101 11.3447ZM12.785 18.0671L12.0779 17.36L12.0779 17.36L12.785 18.0671ZM11.2152 18.0671L11.9223 17.36L11.9223 17.36L11.2152 18.0671ZM10.8901 11.3447L9.89014 11.3436V11.3447H10.8901ZM6.4443 3.68526C8.08878 2.58645 10.0222 2 12 2V0C9.62666 0 7.30656 0.703734 5.33316 2.02232L6.4443 3.68526ZM2.76117 8.17314C3.51805 6.34589 4.79981 4.78407 6.4443 3.68526L5.33316 2.02232C3.35977 3.34089 1.82167 5.21506 0.913415 7.40778L2.76117 8.17314ZM2.19216 13.9508C1.80631 12.011 2.0043 10.0004 2.76117 8.17314L0.913415 7.40778C0.0051586 9.6005 -0.232426 12.0132 0.230594 14.341L2.19216 13.9508ZM4.92889 19.0711C3.53039 17.6726 2.57802 15.8907 2.19216 13.9508L0.230594 14.341C0.693609 16.6687 1.83642 18.8071 3.51468 20.4853L4.92889 19.0711ZM10.0491 21.8078C8.10928 21.422 6.3274 20.4696 4.92889 19.0711L3.51468 20.4853C5.19292 22.1636 7.33119 23.3064 9.65894 23.7694L10.0491 21.8078ZM15.8269 21.2388C13.9996 21.9957 11.9889 22.1937 10.0491 21.8078L9.65894 23.7694C11.9867 24.2324 14.3995 23.9948 16.5922 23.0866L15.8269 21.2388ZM20.3147 17.5556C19.2158 19.2001 17.6541 20.482 15.8269 21.2388L16.5922 23.0866C18.785 22.1783 20.659 20.6401 21.9776 18.6668L20.3147 17.5556ZM22 11.9999C22 13.9777 21.4135 15.9111 20.3147 17.5556L21.9776 18.6668C23.2962 16.6934 24 14.3733 24 11.9999H22ZM19.066 4.93403C20.9407 6.80879 21.9958 9.3502 22 12.0015L24 11.9983C23.995 8.81768 22.7292 5.76886 20.4802 3.51982L19.066 4.93403ZM11.9984 2C14.6497 2.00421 17.1912 3.05929 19.066 4.93403L20.4802 3.51982C18.2311 1.27077 15.1822 0.00504929 12.0016 1.2517e-06L11.9984 2ZM20.1359 17.4363C21.2104 15.8283 21.7841 13.9379 21.785 12.0041L19.785 12.0032C19.7843 13.5418 19.3278 15.0459 18.473 16.3252L20.1359 17.4363ZM15.7445 21.0401C17.5324 20.2995 19.0607 19.0455 20.1359 17.4363L18.473 16.3252C17.6176 17.6053 16.4017 18.6031 14.9792 19.1923L15.7445 21.0401ZM10.0911 21.597C11.9892 21.9746 13.9566 21.7807 15.7445 21.0401L14.9792 19.1923C13.5566 19.7816 11.9913 19.9358 10.4812 19.6354L10.0911 21.597ZM5.08099 18.919C6.44943 20.2874 8.19294 21.2195 10.0911 21.597L10.4812 19.6354C8.97113 19.3351 7.58397 18.5936 6.4952 17.5048L5.08099 18.919ZM2.40299 13.9089C2.78054 15.807 3.71254 17.5506 5.08099 18.919L6.4952 17.5048C5.40645 16.416 4.66494 15.0288 4.36456 13.5187L2.40299 13.9089ZM2.95985 8.2554C2.21925 10.0434 2.02543 12.0107 2.40299 13.9089L4.36456 13.5187C4.06417 12.0086 4.21837 10.4433 4.80761 9.02077L2.95985 8.2554ZM6.5637 3.86405C4.95456 4.93925 3.70045 6.46744 2.95985 8.2554L4.80761 9.02077C5.39684 7.59824 6.39462 6.38241 7.67484 5.52699L6.5637 3.86405ZM12 2.21496C10.0647 2.21496 8.17284 2.78886 6.5637 3.86405L7.67484 5.52699C8.95508 4.67157 10.4603 4.21496 12 4.21496V2.21496ZM18.918 5.08588C17.0837 3.2505 14.5961 2.21792 12.0012 2.21496L11.9989 4.21496C14.0639 4.21731 16.0436 5.03904 17.5034 6.49969L18.918 5.08588ZM21.785 12.003C21.7831 9.40855 20.752 6.92093 18.918 5.08588L17.5034 6.49969C18.963 7.96007 19.7835 9.93974 19.785 12.0044L21.785 12.003ZM11.7545 6.69131C11.8271 6.64289 11.9122 6.61719 11.999 6.61726L12.0007 4.61726C11.5178 4.61685 11.046 4.7598 10.6446 5.02753L11.7545 6.69131ZM11.5922 6.88861C11.6255 6.80837 11.6819 6.73971 11.7545 6.69131L10.6446 5.02753C10.2432 5.29529 9.93005 5.67607 9.74498 6.12204L11.5922 6.88861ZM11.567 7.14298C11.5501 7.05762 11.5589 6.96902 11.5922 6.88861L9.74498 6.12204C9.55998 6.56784 9.51134 7.05863 9.60525 7.5321L11.567 7.14298ZM11.6874 7.36835C11.6258 7.30673 11.5839 7.22829 11.567 7.14298L9.60525 7.5321C9.69917 8.00562 9.93145 8.44054 10.2726 8.78195L11.6874 7.36835ZM11.9127 7.48887C11.8273 7.47185 11.7489 7.42989 11.6874 7.36835L10.2726 8.78195C10.6137 9.12343 11.0485 9.356 11.5219 9.45031L11.9127 7.48887ZM12.1669 7.46384C12.0864 7.49718 11.9979 7.50585 11.9127 7.48887L11.5219 9.45031C11.9954 9.54466 12.486 9.49633 12.9319 9.31176L12.1669 7.46384ZM12.3644 7.30174C12.316 7.3742 12.2473 7.43059 12.1669 7.46384L12.9319 9.31176C13.378 9.12711 13.7591 8.81428 14.0273 8.41307L12.3644 7.30174ZM12.4386 7.05739C12.4386 7.14434 12.4128 7.22931 12.3644 7.30175L14.0273 8.41307C14.2954 8.01184 14.4386 7.54015 14.4386 7.05739H12.4386ZM12.3095 6.74673C12.3921 6.82935 12.4385 6.94138 12.4386 7.05825L14.4386 7.05652C14.4381 6.41021 14.1812 5.79041 13.7244 5.33313L12.3095 6.74673ZM11.9981 6.61726C12.1148 6.61747 12.2268 6.66397 12.3095 6.74673L13.7244 5.33313C13.2676 4.876 12.6481 4.61839 12.0016 4.61727L11.9981 6.61726ZM11.999 9.2348C11.4399 9.23543 10.9039 9.4578 10.5085 9.85317L11.9227 11.2674C11.9435 11.2466 11.9718 11.2348 12.0013 11.2348L11.999 9.2348ZM13.4918 9.85317C13.0964 9.45779 12.5604 9.23543 12.0013 9.2348L11.999 11.2348C12.0285 11.2348 12.0567 11.2466 12.0776 11.2674L13.4918 9.85317ZM14.1101 11.3436C14.1095 10.7844 13.8871 10.2485 13.4918 9.85317L12.0776 11.2674C12.0984 11.2882 12.1101 11.3164 12.1101 11.3458L14.1101 11.3436ZM14.1101 17.2822V11.3447H12.1101V17.2822H14.1101ZM13.4922 18.7742C13.8879 18.3785 14.1101 17.8418 14.1101 17.2822H12.1101C12.1101 17.3115 12.0985 17.3395 12.0779 17.36L13.4922 18.7742ZM12.0001 19.3923C12.5598 19.3923 13.0965 19.1699 13.4922 18.7742L12.0779 17.36C12.0572 17.3807 12.0292 17.3923 12.0001 17.3923V19.3923ZM10.5081 18.7742C10.9037 19.1699 11.4404 19.3923 12.0001 19.3923V17.3923C11.9711 17.3923 11.943 17.3807 11.9223 17.36L10.5081 18.7742ZM9.89014 17.2822C9.89014 17.8418 10.1124 18.3785 10.5081 18.7742L11.9223 17.36C11.9018 17.3395 11.8901 17.3115 11.8901 17.2822H9.89014ZM9.89014 11.3447V17.2822H11.8901V11.3447H9.89014ZM10.5085 9.85317C10.1132 10.2485 9.89077 10.7844 9.89014 11.3436L11.8901 11.3458C11.8902 11.3164 11.9018 11.2882 11.9227 11.2674L10.5085 9.85317Z" fill="black" fill-opacity="0.2" mask="url(#path-1-inside-1_314_328)"/>
<path d="M5.88873 2.85379L6.4443 3.68526L5.88873 2.85379ZM12 1L12.0016 0H12V1ZM1.83729 7.79046L0.913415 7.40778H0.913415L1.83729 7.79046ZM1.21138 14.1459L0.230594 14.341L1.21138 14.1459ZM4.22178 19.7782L4.92889 19.0711L4.92889 19.0711L4.22178 19.7782ZM9.85403 22.7886L10.0491 21.8078H10.0491L9.85403 22.7886ZM21.1461 18.1112L21.9776 18.6668L21.1461 18.1112ZM23 11.9999H24L24 11.9983L23 11.9999ZM19.7731 4.22693L19.066 4.93403V4.93403L19.7731 4.22693ZM19.3045 16.8807L18.473 16.3252H18.473L19.3045 16.8807ZM20.785 12.0037L21.785 12.0041V12.003L20.785 12.0037ZM15.3618 20.1162L14.9792 19.1923H14.9792L15.3618 20.1162ZM10.2862 20.6162L10.4812 19.6354H10.4812L10.2862 20.6162ZM5.7881 18.2119L6.4952 17.5048L5.7881 18.2119ZM3.38377 13.7138L4.36456 13.5187L3.38377 13.7138ZM3.88373 8.63809L4.80761 9.02077L3.88373 8.63809ZM7.11927 4.69552L7.67484 5.52699L7.11927 4.69552ZM12 3.21496L12.0012 2.21496H12V3.21496ZM18.2107 5.79278L18.918 5.08588V5.08588L18.2107 5.79278ZM11.9999 5.61726L12.0016 4.61727L12.0007 4.61726L11.9999 5.61726ZM10.6686 6.50533L9.74498 6.12204L9.74498 6.12204L10.6686 6.50533ZM10.5861 7.33754L9.60525 7.5321L9.60525 7.5321L10.5861 7.33754ZM10.98 8.07515L10.2726 8.78195L10.2726 8.78195L10.98 8.07515ZM12.5494 8.3878L12.1669 7.46384L12.1669 7.46384L12.5494 8.3878ZM13.1958 7.85741L14.0273 8.41307L14.0273 8.41307L13.1958 7.85741ZM13.4386 7.05739H14.4386V7.05652L13.4386 7.05739ZM13.0169 6.03993L13.7244 5.33313L13.7244 5.33313L13.0169 6.03993ZM12.0001 10.2348L12.0013 9.2348L11.999 9.2348L12.0001 10.2348ZM13.1101 11.3447H14.1101L14.1101 11.3436L13.1101 11.3447ZM12.785 18.0671L12.0779 17.36L12.0779 17.36L12.785 18.0671ZM11.2152 18.0671L11.9223 17.36L11.9223 17.36L11.2152 18.0671ZM10.8901 11.3447L9.89014 11.3436V11.3447H10.8901ZM6.4443 3.68526C8.08878 2.58645 10.0222 2 12 2V0C9.62666 0 7.30656 0.703734 5.33316 2.02232L6.4443 3.68526ZM2.76117 8.17314C3.51805 6.34589 4.79981 4.78407 6.4443 3.68526L5.33316 2.02232C3.35977 3.34089 1.82167 5.21506 0.913415 7.40778L2.76117 8.17314ZM2.19216 13.9508C1.80631 12.011 2.0043 10.0004 2.76117 8.17314L0.913415 7.40778C0.0051586 9.6005 -0.232426 12.0132 0.230594 14.341L2.19216 13.9508ZM4.92889 19.0711C3.53039 17.6726 2.57802 15.8907 2.19216 13.9508L0.230594 14.341C0.693609 16.6687 1.83642 18.8071 3.51468 20.4853L4.92889 19.0711ZM10.0491 21.8078C8.10928 21.422 6.3274 20.4696 4.92889 19.0711L3.51468 20.4853C5.19292 22.1636 7.33119 23.3064 9.65894 23.7694L10.0491 21.8078ZM15.8269 21.2388C13.9996 21.9957 11.9889 22.1937 10.0491 21.8078L9.65894 23.7694C11.9867 24.2324 14.3995 23.9948 16.5922 23.0866L15.8269 21.2388ZM20.3147 17.5556C19.2158 19.2001 17.6541 20.482 15.8269 21.2388L16.5922 23.0866C18.785 22.1783 20.659 20.6401 21.9776 18.6668L20.3147 17.5556ZM22 11.9999C22 13.9777 21.4135 15.9111 20.3147 17.5556L21.9776 18.6668C23.2962 16.6934 24 14.3733 24 11.9999H22ZM19.066 4.93403C20.9407 6.80879 21.9958 9.3502 22 12.0015L24 11.9983C23.995 8.81768 22.7292 5.76886 20.4802 3.51982L19.066 4.93403ZM11.9984 2C14.6497 2.00421 17.1912 3.05929 19.066 4.93403L20.4802 3.51982C18.2311 1.27077 15.1822 0.00504929 12.0016 1.2517e-06L11.9984 2ZM20.1359 17.4363C21.2104 15.8283 21.7841 13.9379 21.785 12.0041L19.785 12.0032C19.7843 13.5418 19.3278 15.0459 18.473 16.3252L20.1359 17.4363ZM15.7445 21.0401C17.5324 20.2995 19.0607 19.0455 20.1359 17.4363L18.473 16.3252C17.6176 17.6053 16.4017 18.6031 14.9792 19.1923L15.7445 21.0401ZM10.0911 21.597C11.9892 21.9746 13.9566 21.7807 15.7445 21.0401L14.9792 19.1923C13.5566 19.7816 11.9913 19.9358 10.4812 19.6354L10.0911 21.597ZM5.08099 18.919C6.44943 20.2874 8.19294 21.2195 10.0911 21.597L10.4812 19.6354C8.97113 19.3351 7.58397 18.5936 6.4952 17.5048L5.08099 18.919ZM2.40299 13.9089C2.78054 15.807 3.71254 17.5506 5.08099 18.919L6.4952 17.5048C5.40645 16.416 4.66494 15.0288 4.36456 13.5187L2.40299 13.9089ZM2.95985 8.2554C2.21925 10.0434 2.02543 12.0107 2.40299 13.9089L4.36456 13.5187C4.06417 12.0086 4.21837 10.4433 4.80761 9.02077L2.95985 8.2554ZM6.5637 3.86405C4.95456 4.93925 3.70045 6.46744 2.95985 8.2554L4.80761 9.02077C5.39684 7.59824 6.39462 6.38241 7.67484 5.52699L6.5637 3.86405ZM12 2.21496C10.0647 2.21496 8.17284 2.78886 6.5637 3.86405L7.67484 5.52699C8.95508 4.67157 10.4603 4.21496 12 4.21496V2.21496ZM18.918 5.08588C17.0837 3.2505 14.5961 2.21792 12.0012 2.21496L11.9989 4.21496C14.0639 4.21731 16.0436 5.03904 17.5034 6.49969L18.918 5.08588ZM21.785 12.003C21.7831 9.40855 20.752 6.92093 18.918 5.08588L17.5034 6.49969C18.963 7.96007 19.7835 9.93974 19.785 12.0044L21.785 12.003ZM11.7545 6.69131C11.8271 6.64289 11.9122 6.61719 11.999 6.61726L12.0007 4.61726C11.5178 4.61685 11.046 4.7598 10.6446 5.02753L11.7545 6.69131ZM11.5922 6.88861C11.6255 6.80837 11.6819 6.73971 11.7545 6.69131L10.6446 5.02753C10.2432 5.29529 9.93005 5.67607 9.74498 6.12204L11.5922 6.88861ZM11.567 7.14298C11.5501 7.05762 11.5589 6.96902 11.5922 6.88861L9.74498 6.12204C9.55998 6.56784 9.51134 7.05863 9.60525 7.5321L11.567 7.14298ZM11.6874 7.36835C11.6258 7.30673 11.5839 7.22829 11.567 7.14298L9.60525 7.5321C9.69917 8.00562 9.93145 8.44054 10.2726 8.78195L11.6874 7.36835ZM11.9127 7.48887C11.8273 7.47185 11.7489 7.42989 11.6874 7.36835L10.2726 8.78195C10.6137 9.12343 11.0485 9.356 11.5219 9.45031L11.9127 7.48887ZM12.1669 7.46384C12.0864 7.49718 11.9979 7.50585 11.9127 7.48887L11.5219 9.45031C11.9954 9.54466 12.486 9.49633 12.9319 9.31176L12.1669 7.46384ZM12.3644 7.30174C12.316 7.3742 12.2473 7.43059 12.1669 7.46384L12.9319 9.31176C13.378 9.12711 13.7591 8.81428 14.0273 8.41307L12.3644 7.30174ZM12.4386 7.05739C12.4386 7.14434 12.4128 7.22931 12.3644 7.30175L14.0273 8.41307C14.2954 8.01184 14.4386 7.54015 14.4386 7.05739H12.4386ZM12.3095 6.74673C12.3921 6.82935 12.4385 6.94138 12.4386 7.05825L14.4386 7.05652C14.4381 6.41021 14.1812 5.79041 13.7244 5.33313L12.3095 6.74673ZM11.9981 6.61726C12.1148 6.61747 12.2268 6.66397 12.3095 6.74673L13.7244 5.33313C13.2676 4.876 12.6481 4.61839 12.0016 4.61727L11.9981 6.61726ZM11.999 9.2348C11.4399 9.23543 10.9039 9.4578 10.5085 9.85317L11.9227 11.2674C11.9435 11.2466 11.9718 11.2348 12.0013 11.2348L11.999 9.2348ZM13.4918 9.85317C13.0964 9.45779 12.5604 9.23543 12.0013 9.2348L11.999 11.2348C12.0285 11.2348 12.0567 11.2466 12.0776 11.2674L13.4918 9.85317ZM14.1101 11.3436C14.1095 10.7844 13.8871 10.2485 13.4918 9.85317L12.0776 11.2674C12.0984 11.2882 12.1101 11.3164 12.1101 11.3458L14.1101 11.3436ZM14.1101 17.2822V11.3447H12.1101V17.2822H14.1101ZM13.4922 18.7742C13.8879 18.3785 14.1101 17.8418 14.1101 17.2822H12.1101C12.1101 17.3115 12.0985 17.3395 12.0779 17.36L13.4922 18.7742ZM12.0001 19.3923C12.5598 19.3923 13.0965 19.1699 13.4922 18.7742L12.0779 17.36C12.0572 17.3807 12.0292 17.3923 12.0001 17.3923V19.3923ZM10.5081 18.7742C10.9037 19.1699 11.4404 19.3923 12.0001 19.3923V17.3923C11.9711 17.3923 11.943 17.3807 11.9223 17.36L10.5081 18.7742ZM9.89014 17.2822C9.89014 17.8418 10.1124 18.3785 10.5081 18.7742L11.9223 17.36C11.9018 17.3395 11.8901 17.3115 11.8901 17.2822H9.89014ZM9.89014 11.3447V17.2822H11.8901V11.3447H9.89014ZM10.5085 9.85317C10.1132 10.2485 9.89077 10.7844 9.89014 11.3436L11.8901 11.3458C11.8902 11.3164 11.9018 11.2882 11.9227 11.2674L10.5085 9.85317Z" fill="black" fill-opacity="0.2" mask="url(#path-1-inside-1_314_328)"/>
<path d="M5.88873 2.85379L6.4443 3.68526L5.88873 2.85379ZM12 1L12.0016 0H12V1ZM1.83729 7.79046L0.913415 7.40778H0.913415L1.83729 7.79046ZM1.21138 14.1459L0.230594 14.341L1.21138 14.1459ZM4.22178 19.7782L4.92889 19.0711L4.92889 19.0711L4.22178 19.7782ZM9.85403 22.7886L10.0491 21.8078H10.0491L9.85403 22.7886ZM21.1461 18.1112L21.9776 18.6668L21.1461 18.1112ZM23 11.9999H24L24 11.9983L23 11.9999ZM19.7731 4.22693L19.066 4.93403V4.93403L19.7731 4.22693ZM19.3045 16.8807L18.473 16.3252H18.473L19.3045 16.8807ZM20.785 12.0037L21.785 12.0041V12.003L20.785 12.0037ZM15.3618 20.1162L14.9792 19.1923H14.9792L15.3618 20.1162ZM10.2862 20.6162L10.4812 19.6354H10.4812L10.2862 20.6162ZM5.7881 18.2119L6.4952 17.5048L5.7881 18.2119ZM3.38377 13.7138L4.36456 13.5187L3.38377 13.7138ZM3.88373 8.63809L4.80761 9.02077L3.88373 8.63809ZM7.11927 4.69552L7.67484 5.52699L7.11927 4.69552ZM12 3.21496L12.0012 2.21496H12V3.21496ZM18.2107 5.79278L18.918 5.08588V5.08588L18.2107 5.79278ZM11.9999 5.61726L12.0016 4.61727L12.0007 4.61726L11.9999 5.61726ZM10.6686 6.50533L9.74498 6.12204L9.74498 6.12204L10.6686 6.50533ZM10.5861 7.33754L9.60525 7.5321L9.60525 7.5321L10.5861 7.33754ZM10.98 8.07515L10.2726 8.78195L10.2726 8.78195L10.98 8.07515ZM12.5494 8.3878L12.1669 7.46384L12.1669 7.46384L12.5494 8.3878ZM13.1958 7.85741L14.0273 8.41307L14.0273 8.41307L13.1958 7.85741ZM13.4386 7.05739H14.4386V7.05652L13.4386 7.05739ZM13.0169 6.03993L13.7244 5.33313L13.7244 5.33313L13.0169 6.03993ZM12.0001 10.2348L12.0013 9.2348L11.999 9.2348L12.0001 10.2348ZM13.1101 11.3447H14.1101L14.1101 11.3436L13.1101 11.3447ZM12.785 18.0671L12.0779 17.36L12.0779 17.36L12.785 18.0671ZM11.2152 18.0671L11.9223 17.36L11.9223 17.36L11.2152 18.0671ZM10.8901 11.3447L9.89014 11.3436V11.3447H10.8901ZM6.4443 3.68526C8.08878 2.58645 10.0222 2 12 2V0C9.62666 0 7.30656 0.703734 5.33316 2.02232L6.4443 3.68526ZM2.76117 8.17314C3.51805 6.34589 4.79981 4.78407 6.4443 3.68526L5.33316 2.02232C3.35977 3.34089 1.82167 5.21506 0.913415 7.40778L2.76117 8.17314ZM2.19216 13.9508C1.80631 12.011 2.0043 10.0004 2.76117 8.17314L0.913415 7.40778C0.0051586 9.6005 -0.232426 12.0132 0.230594 14.341L2.19216 13.9508ZM4.92889 19.0711C3.53039 17.6726 2.57802 15.8907 2.19216 13.9508L0.230594 14.341C0.693609 16.6687 1.83642 18.8071 3.51468 20.4853L4.92889 19.0711ZM10.0491 21.8078C8.10928 21.422 6.3274 20.4696 4.92889 19.0711L3.51468 20.4853C5.19292 22.1636 7.33119 23.3064 9.65894 23.7694L10.0491 21.8078ZM15.8269 21.2388C13.9996 21.9957 11.9889 22.1937 10.0491 21.8078L9.65894 23.7694C11.9867 24.2324 14.3995 23.9948 16.5922 23.0866L15.8269 21.2388ZM20.3147 17.5556C19.2158 19.2001 17.6541 20.482 15.8269 21.2388L16.5922 23.0866C18.785 22.1783 20.659 20.6401 21.9776 18.6668L20.3147 17.5556ZM22 11.9999C22 13.9777 21.4135 15.9111 20.3147 17.5556L21.9776 18.6668C23.2962 16.6934 24 14.3733 24 11.9999H22ZM19.066 4.93403C20.9407 6.80879 21.9958 9.3502 22 12.0015L24 11.9983C23.995 8.81768 22.7292 5.76886 20.4802 3.51982L19.066 4.93403ZM11.9984 2C14.6497 2.00421 17.1912 3.05929 19.066 4.93403L20.4802 3.51982C18.2311 1.27077 15.1822 0.00504929 12.0016 1.2517e-06L11.9984 2ZM20.1359 17.4363C21.2104 15.8283 21.7841 13.9379 21.785 12.0041L19.785 12.0032C19.7843 13.5418 19.3278 15.0459 18.473 16.3252L20.1359 17.4363ZM15.7445 21.0401C17.5324 20.2995 19.0607 19.0455 20.1359 17.4363L18.473 16.3252C17.6176 17.6053 16.4017 18.6031 14.9792 19.1923L15.7445 21.0401ZM10.0911 21.597C11.9892 21.9746 13.9566 21.7807 15.7445 21.0401L14.9792 19.1923C13.5566 19.7816 11.9913 19.9358 10.4812 19.6354L10.0911 21.597ZM5.08099 18.919C6.44943 20.2874 8.19294 21.2195 10.0911 21.597L10.4812 19.6354C8.97113 19.3351 7.58397 18.5936 6.4952 17.5048L5.08099 18.919ZM2.40299 13.9089C2.78054 15.807 3.71254 17.5506 5.08099 18.919L6.4952 17.5048C5.40645 16.416 4.66494 15.0288 4.36456 13.5187L2.40299 13.9089ZM2.95985 8.2554C2.21925 10.0434 2.02543 12.0107 2.40299 13.9089L4.36456 13.5187C4.06417 12.0086 4.21837 10.4433 4.80761 9.02077L2.95985 8.2554ZM6.5637 3.86405C4.95456 4.93925 3.70045 6.46744 2.95985 8.2554L4.80761 9.02077C5.39684 7.59824 6.39462 6.38241 7.67484 5.52699L6.5637 3.86405ZM12 2.21496C10.0647 2.21496 8.17284 2.78886 6.5637 3.86405L7.67484 5.52699C8.95508 4.67157 10.4603 4.21496 12 4.21496V2.21496ZM18.918 5.08588C17.0837 3.2505 14.5961 2.21792 12.0012 2.21496L11.9989 4.21496C14.0639 4.21731 16.0436 5.03904 17.5034 6.49969L18.918 5.08588ZM21.785 12.003C21.7831 9.40855 20.752 6.92093 18.918 5.08588L17.5034 6.49969C18.963 7.96007 19.7835 9.93974 19.785 12.0044L21.785 12.003ZM11.7545 6.69131C11.8271 6.64289 11.9122 6.61719 11.999 6.61726L12.0007 4.61726C11.5178 4.61685 11.046 4.7598 10.6446 5.02753L11.7545 6.69131ZM11.5922 6.88861C11.6255 6.80837 11.6819 6.73971 11.7545 6.69131L10.6446 5.02753C10.2432 5.29529 9.93005 5.67607 9.74498 6.12204L11.5922 6.88861ZM11.567 7.14298C11.5501 7.05762 11.5589 6.96902 11.5922 6.88861L9.74498 6.12204C9.55998 6.56784 9.51134 7.05863 9.60525 7.5321L11.567 7.14298ZM11.6874 7.36835C11.6258 7.30673 11.5839 7.22829 11.567 7.14298L9.60525 7.5321C9.69917 8.00562 9.93145 8.44054 10.2726 8.78195L11.6874 7.36835ZM11.9127 7.48887C11.8273 7.47185 11.7489 7.42989 11.6874 7.36835L10.2726 8.78195C10.6137 9.12343 11.0485 9.356 11.5219 9.45031L11.9127 7.48887ZM12.1669 7.46384C12.0864 7.49718 11.9979 7.50585 11.9127 7.48887L11.5219 9.45031C11.9954 9.54466 12.486 9.49633 12.9319 9.31176L12.1669 7.46384ZM12.3644 7.30174C12.316 7.3742 12.2473 7.43059 12.1669 7.46384L12.9319 9.31176C13.378 9.12711 13.7591 8.81428 14.0273 8.41307L12.3644 7.30174ZM12.4386 7.05739C12.4386 7.14434 12.4128 7.22931 12.3644 7.30175L14.0273 8.41307C14.2954 8.01184 14.4386 7.54015 14.4386 7.05739H12.4386ZM12.3095 6.74673C12.3921 6.82935 12.4385 6.94138 12.4386 7.05825L14.4386 7.05652C14.4381 6.41021 14.1812 5.79041 13.7244 5.33313L12.3095 6.74673ZM11.9981 6.61726C12.1148 6.61747 12.2268 6.66397 12.3095 6.74673L13.7244 5.33313C13.2676 4.876 12.6481 4.61839 12.0016 4.61727L11.9981 6.61726ZM11.999 9.2348C11.4399 9.23543 10.9039 9.4578 10.5085 9.85317L11.9227 11.2674C11.9435 11.2466 11.9718 11.2348 12.0013 11.2348L11.999 9.2348ZM13.4918 9.85317C13.0964 9.45779 12.5604 9.23543 12.0013 9.2348L11.999 11.2348C12.0285 11.2348 12.0567 11.2466 12.0776 11.2674L13.4918 9.85317ZM14.1101 11.3436C14.1095 10.7844 13.8871 10.2485 13.4918 9.85317L12.0776 11.2674C12.0984 11.2882 12.1101 11.3164 12.1101 11.3458L14.1101 11.3436ZM14.1101 17.2822V11.3447H12.1101V17.2822H14.1101ZM13.4922 18.7742C13.8879 18.3785 14.1101 17.8418 14.1101 17.2822H12.1101C12.1101 17.3115 12.0985 17.3395 12.0779 17.36L13.4922 18.7742ZM12.0001 19.3923C12.5598 19.3923 13.0965 19.1699 13.4922 18.7742L12.0779 17.36C12.0572 17.3807 12.0292 17.3923 12.0001 17.3923V19.3923ZM10.5081 18.7742C10.9037 19.1699 11.4404 19.3923 12.0001 19.3923V17.3923C11.9711 17.3923 11.943 17.3807 11.9223 17.36L10.5081 18.7742ZM9.89014 17.2822C9.89014 17.8418 10.1124 18.3785 10.5081 18.7742L11.9223 17.36C11.9018 17.3395 11.8901 17.3115 11.8901 17.2822H9.89014ZM9.89014 11.3447V17.2822H11.8901V11.3447H9.89014ZM10.5085 9.85317C10.1132 10.2485 9.89077 10.7844 9.89014 11.3436L11.8901 11.3458C11.8902 11.3164 11.9018 11.2882 11.9227 11.2674L10.5085 9.85317Z" fill="black" fill-opacity="0.2" mask="url(#path-1-inside-1_314_328)"/>
<path d="M5.88873 2.85379L6.4443 3.68526L5.88873 2.85379ZM12 1L12.0016 0H12V1ZM1.83729 7.79046L0.913415 7.40778H0.913415L1.83729 7.79046ZM1.21138 14.1459L0.230594 14.341L1.21138 14.1459ZM4.22178 19.7782L4.92889 19.0711L4.92889 19.0711L4.22178 19.7782ZM9.85403 22.7886L10.0491 21.8078H10.0491L9.85403 22.7886ZM21.1461 18.1112L21.9776 18.6668L21.1461 18.1112ZM23 11.9999H24L24 11.9983L23 11.9999ZM19.7731 4.22693L19.066 4.93403V4.93403L19.7731 4.22693ZM19.3045 16.8807L18.473 16.3252H18.473L19.3045 16.8807ZM20.785 12.0037L21.785 12.0041V12.003L20.785 12.0037ZM15.3618 20.1162L14.9792 19.1923H14.9792L15.3618 20.1162ZM10.2862 20.6162L10.4812 19.6354H10.4812L10.2862 20.6162ZM5.7881 18.2119L6.4952 17.5048L5.7881 18.2119ZM3.38377 13.7138L4.36456 13.5187L3.38377 13.7138ZM3.88373 8.63809L4.80761 9.02077L3.88373 8.63809ZM7.11927 4.69552L7.67484 5.52699L7.11927 4.69552ZM12 3.21496L12.0012 2.21496H12V3.21496ZM18.2107 5.79278L18.918 5.08588V5.08588L18.2107 5.79278ZM11.9999 5.61726L12.0016 4.61727L12.0007 4.61726L11.9999 5.61726ZM10.6686 6.50533L9.74498 6.12204L9.74498 6.12204L10.6686 6.50533ZM10.5861 7.33754L9.60525 7.5321L9.60525 7.5321L10.5861 7.33754ZM10.98 8.07515L10.2726 8.78195L10.2726 8.78195L10.98 8.07515ZM12.5494 8.3878L12.1669 7.46384L12.1669 7.46384L12.5494 8.3878ZM13.1958 7.85741L14.0273 8.41307L14.0273 8.41307L13.1958 7.85741ZM13.4386 7.05739H14.4386V7.05652L13.4386 7.05739ZM13.0169 6.03993L13.7244 5.33313L13.7244 5.33313L13.0169 6.03993ZM12.0001 10.2348L12.0013 9.2348L11.999 9.2348L12.0001 10.2348ZM13.1101 11.3447H14.1101L14.1101 11.3436L13.1101 11.3447ZM12.785 18.0671L12.0779 17.36L12.0779 17.36L12.785 18.0671ZM11.2152 18.0671L11.9223 17.36L11.9223 17.36L11.2152 18.0671ZM10.8901 11.3447L9.89014 11.3436V11.3447H10.8901ZM6.4443 3.68526C8.08878 2.58645 10.0222 2 12 2V0C9.62666 0 7.30656 0.703734 5.33316 2.02232L6.4443 3.68526ZM2.76117 8.17314C3.51805 6.34589 4.79981 4.78407 6.4443 3.68526L5.33316 2.02232C3.35977 3.34089 1.82167 5.21506 0.913415 7.40778L2.76117 8.17314ZM2.19216 13.9508C1.80631 12.011 2.0043 10.0004 2.76117 8.17314L0.913415 7.40778C0.0051586 9.6005 -0.232426 12.0132 0.230594 14.341L2.19216 13.9508ZM4.92889 19.0711C3.53039 17.6726 2.57802 15.8907 2.19216 13.9508L0.230594 14.341C0.693609 16.6687 1.83642 18.8071 3.51468 20.4853L4.92889 19.0711ZM10.0491 21.8078C8.10928 21.422 6.3274 20.4696 4.92889 19.0711L3.51468 20.4853C5.19292 22.1636 7.33119 23.3064 9.65894 23.7694L10.0491 21.8078ZM15.8269 21.2388C13.9996 21.9957 11.9889 22.1937 10.0491 21.8078L9.65894 23.7694C11.9867 24.2324 14.3995 23.9948 16.5922 23.0866L15.8269 21.2388ZM20.3147 17.5556C19.2158 19.2001 17.6541 20.482 15.8269 21.2388L16.5922 23.0866C18.785 22.1783 20.659 20.6401 21.9776 18.6668L20.3147 17.5556ZM22 11.9999C22 13.9777 21.4135 15.9111 20.3147 17.5556L21.9776 18.6668C23.2962 16.6934 24 14.3733 24 11.9999H22ZM19.066 4.93403C20.9407 6.80879 21.9958 9.3502 22 12.0015L24 11.9983C23.995 8.81768 22.7292 5.76886 20.4802 3.51982L19.066 4.93403ZM11.9984 2C14.6497 2.00421 17.1912 3.05929 19.066 4.93403L20.4802 3.51982C18.2311 1.27077 15.1822 0.00504929 12.0016 1.2517e-06L11.9984 2ZM20.1359 17.4363C21.2104 15.8283 21.7841 13.9379 21.785 12.0041L19.785 12.0032C19.7843 13.5418 19.3278 15.0459 18.473 16.3252L20.1359 17.4363ZM15.7445 21.0401C17.5324 20.2995 19.0607 19.0455 20.1359 17.4363L18.473 16.3252C17.6176 17.6053 16.4017 18.6031 14.9792 19.1923L15.7445 21.0401ZM10.0911 21.597C11.9892 21.9746 13.9566 21.7807 15.7445 21.0401L14.9792 19.1923C13.5566 19.7816 11.9913 19.9358 10.4812 19.6354L10.0911 21.597ZM5.08099 18.919C6.44943 20.2874 8.19294 21.2195 10.0911 21.597L10.4812 19.6354C8.97113 19.3351 7.58397 18.5936 6.4952 17.5048L5.08099 18.919ZM2.40299 13.9089C2.78054 15.807 3.71254 17.5506 5.08099 18.919L6.4952 17.5048C5.40645 16.416 4.66494 15.0288 4.36456 13.5187L2.40299 13.9089ZM2.95985 8.2554C2.21925 10.0434 2.02543 12.0107 2.40299 13.9089L4.36456 13.5187C4.06417 12.0086 4.21837 10.4433 4.80761 9.02077L2.95985 8.2554ZM6.5637 3.86405C4.95456 4.93925 3.70045 6.46744 2.95985 8.2554L4.80761 9.02077C5.39684 7.59824 6.39462 6.38241 7.67484 5.52699L6.5637 3.86405ZM12 2.21496C10.0647 2.21496 8.17284 2.78886 6.5637 3.86405L7.67484 5.52699C8.95508 4.67157 10.4603 4.21496 12 4.21496V2.21496ZM18.918 5.08588C17.0837 3.2505 14.5961 2.21792 12.0012 2.21496L11.9989 4.21496C14.0639 4.21731 16.0436 5.03904 17.5034 6.49969L18.918 5.08588ZM21.785 12.003C21.7831 9.40855 20.752 6.92093 18.918 5.08588L17.5034 6.49969C18.963 7.96007 19.7835 9.93974 19.785 12.0044L21.785 12.003ZM11.7545 6.69131C11.8271 6.64289 11.9122 6.61719 11.999 6.61726L12.0007 4.61726C11.5178 4.61685 11.046 4.7598 10.6446 5.02753L11.7545 6.69131ZM11.5922 6.88861C11.6255 6.80837 11.6819 6.73971 11.7545 6.69131L10.6446 5.02753C10.2432 5.29529 9.93005 5.67607 9.74498 6.12204L11.5922 6.88861ZM11.567 7.14298C11.5501 7.05762 11.5589 6.96902 11.5922 6.88861L9.74498 6.12204C9.55998 6.56784 9.51134 7.05863 9.60525 7.5321L11.567 7.14298ZM11.6874 7.36835C11.6258 7.30673 11.5839 7.22829 11.567 7.14298L9.60525 7.5321C9.69917 8.00562 9.93145 8.44054 10.2726 8.78195L11.6874 7.36835ZM11.9127 7.48887C11.8273 7.47185 11.7489 7.42989 11.6874 7.36835L10.2726 8.78195C10.6137 9.12343 11.0485 9.356 11.5219 9.45031L11.9127 7.48887ZM12.1669 7.46384C12.0864 7.49718 11.9979 7.50585 11.9127 7.48887L11.5219 9.45031C11.9954 9.54466 12.486 9.49633 12.9319 9.31176L12.1669 7.46384ZM12.3644 7.30174C12.316 7.3742 12.2473 7.43059 12.1669 7.46384L12.9319 9.31176C13.378 9.12711 13.7591 8.81428 14.0273 8.41307L12.3644 7.30174ZM12.4386 7.05739C12.4386 7.14434 12.4128 7.22931 12.3644 7.30175L14.0273 8.41307C14.2954 8.01184 14.4386 7.54015 14.4386 7.05739H12.4386ZM12.3095 6.74673C12.3921 6.82935 12.4385 6.94138 12.4386 7.05825L14.4386 7.05652C14.4381 6.41021 14.1812 5.79041 13.7244 5.33313L12.3095 6.74673ZM11.9981 6.61726C12.1148 6.61747 12.2268 6.66397 12.3095 6.74673L13.7244 5.33313C13.2676 4.876 12.6481 4.61839 12.0016 4.61727L11.9981 6.61726ZM11.999 9.2348C11.4399 9.23543 10.9039 9.4578 10.5085 9.85317L11.9227 11.2674C11.9435 11.2466 11.9718 11.2348 12.0013 11.2348L11.999 9.2348ZM13.4918 9.85317C13.0964 9.45779 12.5604 9.23543 12.0013 9.2348L11.999 11.2348C12.0285 11.2348 12.0567 11.2466 12.0776 11.2674L13.4918 9.85317ZM14.1101 11.3436C14.1095 10.7844 13.8871 10.2485 13.4918 9.85317L12.0776 11.2674C12.0984 11.2882 12.1101 11.3164 12.1101 11.3458L14.1101 11.3436ZM14.1101 17.2822V11.3447H12.1101V17.2822H14.1101ZM13.4922 18.7742C13.8879 18.3785 14.1101 17.8418 14.1101 17.2822H12.1101C12.1101 17.3115 12.0985 17.3395 12.0779 17.36L13.4922 18.7742ZM12.0001 19.3923C12.5598 19.3923 13.0965 19.1699 13.4922 18.7742L12.0779 17.36C12.0572 17.3807 12.0292 17.3923 12.0001 17.3923V19.3923ZM10.5081 18.7742C10.9037 19.1699 11.4404 19.3923 12.0001 19.3923V17.3923C11.9711 17.3923 11.943 17.3807 11.9223 17.36L10.5081 18.7742ZM9.89014 17.2822C9.89014 17.8418 10.1124 18.3785 10.5081 18.7742L11.9223 17.36C11.9018 17.3395 11.8901 17.3115 11.8901 17.2822H9.89014ZM9.89014 11.3447V17.2822H11.8901V11.3447H9.89014ZM10.5085 9.85317C10.1132 10.2485 9.89077 10.7844 9.89014 11.3436L11.8901 11.3458C11.8902 11.3164 11.9018 11.2882 11.9227 11.2674L10.5085 9.85317Z" fill="black" fill-opacity="0.2" mask="url(#path-1-inside-1_314_328)"/>
<path d="M5.88873 2.85379L6.4443 3.68526L5.88873 2.85379ZM12 1L12.0016 0H12V1ZM1.83729 7.79046L0.913415 7.40778H0.913415L1.83729 7.79046ZM1.21138 14.1459L0.230594 14.341L1.21138 14.1459ZM4.22178 19.7782L4.92889 19.0711L4.92889 19.0711L4.22178 19.7782ZM9.85403 22.7886L10.0491 21.8078H10.0491L9.85403 22.7886ZM21.1461 18.1112L21.9776 18.6668L21.1461 18.1112ZM23 11.9999H24L24 11.9983L23 11.9999ZM19.7731 4.22693L19.066 4.93403V4.93403L19.7731 4.22693ZM19.3045 16.8807L18.473 16.3252H18.473L19.3045 16.8807ZM20.785 12.0037L21.785 12.0041V12.003L20.785 12.0037ZM15.3618 20.1162L14.9792 19.1923H14.9792L15.3618 20.1162ZM10.2862 20.6162L10.4812 19.6354H10.4812L10.2862 20.6162ZM5.7881 18.2119L6.4952 17.5048L5.7881 18.2119ZM3.38377 13.7138L4.36456 13.5187L3.38377 13.7138ZM3.88373 8.63809L4.80761 9.02077L3.88373 8.63809ZM7.11927 4.69552L7.67484 5.52699L7.11927 4.69552ZM12 3.21496L12.0012 2.21496H12V3.21496ZM18.2107 5.79278L18.918 5.08588V5.08588L18.2107 5.79278ZM11.9999 5.61726L12.0016 4.61727L12.0007 4.61726L11.9999 5.61726ZM10.6686 6.50533L9.74498 6.12204L9.74498 6.12204L10.6686 6.50533ZM10.5861 7.33754L9.60525 7.5321L9.60525 7.5321L10.5861 7.33754ZM10.98 8.07515L10.2726 8.78195L10.2726 8.78195L10.98 8.07515ZM12.5494 8.3878L12.1669 7.46384L12.1669 7.46384L12.5494 8.3878ZM13.1958 7.85741L14.0273 8.41307L14.0273 8.41307L13.1958 7.85741ZM13.4386 7.05739H14.4386V7.05652L13.4386 7.05739ZM13.0169 6.03993L13.7244 5.33313L13.7244 5.33313L13.0169 6.03993ZM12.0001 10.2348L12.0013 9.2348L11.999 9.2348L12.0001 10.2348ZM13.1101 11.3447H14.1101L14.1101 11.3436L13.1101 11.3447ZM12.785 18.0671L12.0779 17.36L12.0779 17.36L12.785 18.0671ZM11.2152 18.0671L11.9223 17.36L11.9223 17.36L11.2152 18.0671ZM10.8901 11.3447L9.89014 11.3436V11.3447H10.8901ZM6.4443 3.68526C8.08878 2.58645 10.0222 2 12 2V0C9.62666 0 7.30656 0.703734 5.33316 2.02232L6.4443 3.68526ZM2.76117 8.17314C3.51805 6.34589 4.79981 4.78407 6.4443 3.68526L5.33316 2.02232C3.35977 3.34089 1.82167 5.21506 0.913415 7.40778L2.76117 8.17314ZM2.19216 13.9508C1.80631 12.011 2.0043 10.0004 2.76117 8.17314L0.913415 7.40778C0.0051586 9.6005 -0.232426 12.0132 0.230594 14.341L2.19216 13.9508ZM4.92889 19.0711C3.53039 17.6726 2.57802 15.8907 2.19216 13.9508L0.230594 14.341C0.693609 16.6687 1.83642 18.8071 3.51468 20.4853L4.92889 19.0711ZM10.0491 21.8078C8.10928 21.422 6.3274 20.4696 4.92889 19.0711L3.51468 20.4853C5.19292 22.1636 7.33119 23.3064 9.65894 23.7694L10.0491 21.8078ZM15.8269 21.2388C13.9996 21.9957 11.9889 22.1937 10.0491 21.8078L9.65894 23.7694C11.9867 24.2324 14.3995 23.9948 16.5922 23.0866L15.8269 21.2388ZM20.3147 17.5556C19.2158 19.2001 17.6541 20.482 15.8269 21.2388L16.5922 23.0866C18.785 22.1783 20.659 20.6401 21.9776 18.6668L20.3147 17.5556ZM22 11.9999C22 13.9777 21.4135 15.9111 20.3147 17.5556L21.9776 18.6668C23.2962 16.6934 24 14.3733 24 11.9999H22ZM19.066 4.93403C20.9407 6.80879 21.9958 9.3502 22 12.0015L24 11.9983C23.995 8.81768 22.7292 5.76886 20.4802 3.51982L19.066 4.93403ZM11.9984 2C14.6497 2.00421 17.1912 3.05929 19.066 4.93403L20.4802 3.51982C18.2311 1.27077 15.1822 0.00504929 12.0016 1.2517e-06L11.9984 2ZM20.1359 17.4363C21.2104 15.8283 21.7841 13.9379 21.785 12.0041L19.785 12.0032C19.7843 13.5418 19.3278 15.0459 18.473 16.3252L20.1359 17.4363ZM15.7445 21.0401C17.5324 20.2995 19.0607 19.0455 20.1359 17.4363L18.473 16.3252C17.6176 17.6053 16.4017 18.6031 14.9792 19.1923L15.7445 21.0401ZM10.0911 21.597C11.9892 21.9746 13.9566 21.7807 15.7445 21.0401L14.9792 19.1923C13.5566 19.7816 11.9913 19.9358 10.4812 19.6354L10.0911 21.597ZM5.08099 18.919C6.44943 20.2874 8.19294 21.2195 10.0911 21.597L10.4812 19.6354C8.97113 19.3351 7.58397 18.5936 6.4952 17.5048L5.08099 18.919ZM2.40299 13.9089C2.78054 15.807 3.71254 17.5506 5.08099 18.919L6.4952 17.5048C5.40645 16.416 4.66494 15.0288 4.36456 13.5187L2.40299 13.9089ZM2.95985 8.2554C2.21925 10.0434 2.02543 12.0107 2.40299 13.9089L4.36456 13.5187C4.06417 12.0086 4.21837 10.4433 4.80761 9.02077L2.95985 8.2554ZM6.5637 3.86405C4.95456 4.93925 3.70045 6.46744 2.95985 8.2554L4.80761 9.02077C5.39684 7.59824 6.39462 6.38241 7.67484 5.52699L6.5637 3.86405ZM12 2.21496C10.0647 2.21496 8.17284 2.78886 6.5637 3.86405L7.67484 5.52699C8.95508 4.67157 10.4603 4.21496 12 4.21496V2.21496ZM18.918 5.08588C17.0837 3.2505 14.5961 2.21792 12.0012 2.21496L11.9989 4.21496C14.0639 4.21731 16.0436 5.03904 17.5034 6.49969L18.918 5.08588ZM21.785 12.003C21.7831 9.40855 20.752 6.92093 18.918 5.08588L17.5034 6.49969C18.963 7.96007 19.7835 9.93974 19.785 12.0044L21.785 12.003ZM11.7545 6.69131C11.8271 6.64289 11.9122 6.61719 11.999 6.61726L12.0007 4.61726C11.5178 4.61685 11.046 4.7598 10.6446 5.02753L11.7545 6.69131ZM11.5922 6.88861C11.6255 6.80837 11.6819 6.73971 11.7545 6.69131L10.6446 5.02753C10.2432 5.29529 9.93005 5.67607 9.74498 6.12204L11.5922 6.88861ZM11.567 7.14298C11.5501 7.05762 11.5589 6.96902 11.5922 6.88861L9.74498 6.12204C9.55998 6.56784 9.51134 7.05863 9.60525 7.5321L11.567 7.14298ZM11.6874 7.36835C11.6258 7.30673 11.5839 7.22829 11.567 7.14298L9.60525 7.5321C9.69917 8.00562 9.93145 8.44054 10.2726 8.78195L11.6874 7.36835ZM11.9127 7.48887C11.8273 7.47185 11.7489 7.42989 11.6874 7.36835L10.2726 8.78195C10.6137 9.12343 11.0485 9.356 11.5219 9.45031L11.9127 7.48887ZM12.1669 7.46384C12.0864 7.49718 11.9979 7.50585 11.9127 7.48887L11.5219 9.45031C11.9954 9.54466 12.486 9.49633 12.9319 9.31176L12.1669 7.46384ZM12.3644 7.30174C12.316 7.3742 12.2473 7.43059 12.1669 7.46384L12.9319 9.31176C13.378 9.12711 13.7591 8.81428 14.0273 8.41307L12.3644 7.30174ZM12.4386 7.05739C12.4386 7.14434 12.4128 7.22931 12.3644 7.30175L14.0273 8.41307C14.2954 8.01184 14.4386 7.54015 14.4386 7.05739H12.4386ZM12.3095 6.74673C12.3921 6.82935 12.4385 6.94138 12.4386 7.05825L14.4386 7.05652C14.4381 6.41021 14.1812 5.79041 13.7244 5.33313L12.3095 6.74673ZM11.9981 6.61726C12.1148 6.61747 12.2268 6.66397 12.3095 6.74673L13.7244 5.33313C13.2676 4.876 12.6481 4.61839 12.0016 4.61727L11.9981 6.61726ZM11.999 9.2348C11.4399 9.23543 10.9039 9.4578 10.5085 9.85317L11.9227 11.2674C11.9435 11.2466 11.9718 11.2348 12.0013 11.2348L11.999 9.2348ZM13.4918 9.85317C13.0964 9.45779 12.5604 9.23543 12.0013 9.2348L11.999 11.2348C12.0285 11.2348 12.0567 11.2466 12.0776 11.2674L13.4918 9.85317ZM14.1101 11.3436C14.1095 10.7844 13.8871 10.2485 13.4918 9.85317L12.0776 11.2674C12.0984 11.2882 12.1101 11.3164 12.1101 11.3458L14.1101 11.3436ZM14.1101 17.2822V11.3447H12.1101V17.2822H14.1101ZM13.4922 18.7742C13.8879 18.3785 14.1101 17.8418 14.1101 17.2822H12.1101C12.1101 17.3115 12.0985 17.3395 12.0779 17.36L13.4922 18.7742ZM12.0001 19.3923C12.5598 19.3923 13.0965 19.1699 13.4922 18.7742L12.0779 17.36C12.0572 17.3807 12.0292 17.3923 12.0001 17.3923V19.3923ZM10.5081 18.7742C10.9037 19.1699 11.4404 19.3923 12.0001 19.3923V17.3923C11.9711 17.3923 11.943 17.3807 11.9223 17.36L10.5081 18.7742ZM9.89014 17.2822C9.89014 17.8418 10.1124 18.3785 10.5081 18.7742L11.9223 17.36C11.9018 17.3395 11.8901 17.3115 11.8901 17.2822H9.89014ZM9.89014 11.3447V17.2822H11.8901V11.3447H9.89014ZM10.5085 9.85317C10.1132 10.2485 9.89077 10.7844 9.89014 11.3436L11.8901 11.3458C11.8902 11.3164 11.9018 11.2882 11.9227 11.2674L10.5085 9.85317Z" fill="black" fill-opacity="0.2" mask="url(#path-1-inside-1_314_328)"/>
<path d="M5.88873 2.85379L6.4443 3.68526L5.88873 2.85379ZM12 1L12.0016 0H12V1ZM1.83729 7.79046L0.913415 7.40778H0.913415L1.83729 7.79046ZM1.21138 14.1459L0.230594 14.341L1.21138 14.1459ZM4.22178 19.7782L4.92889 19.0711L4.92889 19.0711L4.22178 19.7782ZM9.85403 22.7886L10.0491 21.8078H10.0491L9.85403 22.7886ZM21.1461 18.1112L21.9776 18.6668L21.1461 18.1112ZM23 11.9999H24L24 11.9983L23 11.9999ZM19.7731 4.22693L19.066 4.93403V4.93403L19.7731 4.22693ZM19.3045 16.8807L18.473 16.3252H18.473L19.3045 16.8807ZM20.785 12.0037L21.785 12.0041V12.003L20.785 12.0037ZM15.3618 20.1162L14.9792 19.1923H14.9792L15.3618 20.1162ZM10.2862 20.6162L10.4812 19.6354H10.4812L10.2862 20.6162ZM5.7881 18.2119L6.4952 17.5048L5.7881 18.2119ZM3.38377 13.7138L4.36456 13.5187L3.38377 13.7138ZM3.88373 8.63809L4.80761 9.02077L3.88373 8.63809ZM7.11927 4.69552L7.67484 5.52699L7.11927 4.69552ZM12 3.21496L12.0012 2.21496H12V3.21496ZM18.2107 5.79278L18.918 5.08588V5.08588L18.2107 5.79278ZM11.9999 5.61726L12.0016 4.61727L12.0007 4.61726L11.9999 5.61726ZM10.6686 6.50533L9.74498 6.12204L9.74498 6.12204L10.6686 6.50533ZM10.5861 7.33754L9.60525 7.5321L9.60525 7.5321L10.5861 7.33754ZM10.98 8.07515L10.2726 8.78195L10.2726 8.78195L10.98 8.07515ZM12.5494 8.3878L12.1669 7.46384L12.1669 7.46384L12.5494 8.3878ZM13.1958 7.85741L14.0273 8.41307L14.0273 8.41307L13.1958 7.85741ZM13.4386 7.05739H14.4386V7.05652L13.4386 7.05739ZM13.0169 6.03993L13.7244 5.33313L13.7244 5.33313L13.0169 6.03993ZM12.0001 10.2348L12.0013 9.2348L11.999 9.2348L12.0001 10.2348ZM13.1101 11.3447H14.1101L14.1101 11.3436L13.1101 11.3447ZM12.785 18.0671L12.0779 17.36L12.0779 17.36L12.785 18.0671ZM11.2152 18.0671L11.9223 17.36L11.9223 17.36L11.2152 18.0671ZM10.8901 11.3447L9.89014 11.3436V11.3447H10.8901ZM6.4443 3.68526C8.08878 2.58645 10.0222 2 12 2V0C9.62666 0 7.30656 0.703734 5.33316 2.02232L6.4443 3.68526ZM2.76117 8.17314C3.51805 6.34589 4.79981 4.78407 6.4443 3.68526L5.33316 2.02232C3.35977 3.34089 1.82167 5.21506 0.913415 7.40778L2.76117 8.17314ZM2.19216 13.9508C1.80631 12.011 2.0043 10.0004 2.76117 8.17314L0.913415 7.40778C0.0051586 9.6005 -0.232426 12.0132 0.230594 14.341L2.19216 13.9508ZM4.92889 19.0711C3.53039 17.6726 2.57802 15.8907 2.19216 13.9508L0.230594 14.341C0.693609 16.6687 1.83642 18.8071 3.51468 20.4853L4.92889 19.0711ZM10.0491 21.8078C8.10928 21.422 6.3274 20.4696 4.92889 19.0711L3.51468 20.4853C5.19292 22.1636 7.33119 23.3064 9.65894 23.7694L10.0491 21.8078ZM15.8269 21.2388C13.9996 21.9957 11.9889 22.1937 10.0491 21.8078L9.65894 23.7694C11.9867 24.2324 14.3995 23.9948 16.5922 23.0866L15.8269 21.2388ZM20.3147 17.5556C19.2158 19.2001 17.6541 20.482 15.8269 21.2388L16.5922 23.0866C18.785 22.1783 20.659 20.6401 21.9776 18.6668L20.3147 17.5556ZM22 11.9999C22 13.9777 21.4135 15.9111 20.3147 17.5556L21.9776 18.6668C23.2962 16.6934 24 14.3733 24 11.9999H22ZM19.066 4.93403C20.9407 6.80879 21.9958 9.3502 22 12.0015L24 11.9983C23.995 8.81768 22.7292 5.76886 20.4802 3.51982L19.066 4.93403ZM11.9984 2C14.6497 2.00421 17.1912 3.05929 19.066 4.93403L20.4802 3.51982C18.2311 1.27077 15.1822 0.00504929 12.0016 1.2517e-06L11.9984 2ZM20.1359 17.4363C21.2104 15.8283 21.7841 13.9379 21.785 12.0041L19.785 12.0032C19.7843 13.5418 19.3278 15.0459 18.473 16.3252L20.1359 17.4363ZM15.7445 21.0401C17.5324 20.2995 19.0607 19.0455 20.1359 17.4363L18.473 16.3252C17.6176 17.6053 16.4017 18.6031 14.9792 19.1923L15.7445 21.0401ZM10.0911 21.597C11.9892 21.9746 13.9566 21.7807 15.7445 21.0401L14.9792 19.1923C13.5566 19.7816 11.9913 19.9358 10.4812 19.6354L10.0911 21.597ZM5.08099 18.919C6.44943 20.2874 8.19294 21.2195 10.0911 21.597L10.4812 19.6354C8.97113 19.3351 7.58397 18.5936 6.4952 17.5048L5.08099 18.919ZM2.40299 13.9089C2.78054 15.807 3.71254 17.5506 5.08099 18.919L6.4952 17.5048C5.40645 16.416 4.66494 15.0288 4.36456 13.5187L2.40299 13.9089ZM2.95985 8.2554C2.21925 10.0434 2.02543 12.0107 2.40299 13.9089L4.36456 13.5187C4.06417 12.0086 4.21837 10.4433 4.80761 9.02077L2.95985 8.2554ZM6.5637 3.86405C4.95456 4.93925 3.70045 6.46744 2.95985 8.2554L4.80761 9.02077C5.39684 7.59824 6.39462 6.38241 7.67484 5.52699L6.5637 3.86405ZM12 2.21496C10.0647 2.21496 8.17284 2.78886 6.5637 3.86405L7.67484 5.52699C8.95508 4.67157 10.4603 4.21496 12 4.21496V2.21496ZM18.918 5.08588C17.0837 3.2505 14.5961 2.21792 12.0012 2.21496L11.9989 4.21496C14.0639 4.21731 16.0436 5.03904 17.5034 6.49969L18.918 5.08588ZM21.785 12.003C21.7831 9.40855 20.752 6.92093 18.918 5.08588L17.5034 6.49969C18.963 7.96007 19.7835 9.93974 19.785 12.0044L21.785 12.003ZM11.7545 6.69131C11.8271 6.64289 11.9122 6.61719 11.999 6.61726L12.0007 4.61726C11.5178 4.61685 11.046 4.7598 10.6446 5.02753L11.7545 6.69131ZM11.5922 6.88861C11.6255 6.80837 11.6819 6.73971 11.7545 6.69131L10.6446 5.02753C10.2432 5.29529 9.93005 5.67607 9.74498 6.12204L11.5922 6.88861ZM11.567 7.14298C11.5501 7.05762 11.5589 6.96902 11.5922 6.88861L9.74498 6.12204C9.55998 6.56784 9.51134 7.05863 9.60525 7.5321L11.567 7.14298ZM11.6874 7.36835C11.6258 7.30673 11.5839 7.22829 11.567 7.14298L9.60525 7.5321C9.69917 8.00562 9.93145 8.44054 10.2726 8.78195L11.6874 7.36835ZM11.9127 7.48887C11.8273 7.47185 11.7489 7.42989 11.6874 7.36835L10.2726 8.78195C10.6137 9.12343 11.0485 9.356 11.5219 9.45031L11.9127 7.48887ZM12.1669 7.46384C12.0864 7.49718 11.9979 7.50585 11.9127 7.48887L11.5219 9.45031C11.9954 9.54466 12.486 9.49633 12.9319 9.31176L12.1669 7.46384ZM12.3644 7.30174C12.316 7.3742 12.2473 7.43059 12.1669 7.46384L12.9319 9.31176C13.378 9.12711 13.7591 8.81428 14.0273 8.41307L12.3644 7.30174ZM12.4386 7.05739C12.4386 7.14434 12.4128 7.22931 12.3644 7.30175L14.0273 8.41307C14.2954 8.01184 14.4386 7.54015 14.4386 7.05739H12.4386ZM12.3095 6.74673C12.3921 6.82935 12.4385 6.94138 12.4386 7.05825L14.4386 7.05652C14.4381 6.41021 14.1812 5.79041 13.7244 5.33313L12.3095 6.74673ZM11.9981 6.61726C12.1148 6.61747 12.2268 6.66397 12.3095 6.74673L13.7244 5.33313C13.2676 4.876 12.6481 4.61839 12.0016 4.61727L11.9981 6.61726ZM11.999 9.2348C11.4399 9.23543 10.9039 9.4578 10.5085 9.85317L11.9227 11.2674C11.9435 11.2466 11.9718 11.2348 12.0013 11.2348L11.999 9.2348ZM13.4918 9.85317C13.0964 9.45779 12.5604 9.23543 12.0013 9.2348L11.999 11.2348C12.0285 11.2348 12.0567 11.2466 12.0776 11.2674L13.4918 9.85317ZM14.1101 11.3436C14.1095 10.7844 13.8871 10.2485 13.4918 9.85317L12.0776 11.2674C12.0984 11.2882 12.1101 11.3164 12.1101 11.3458L14.1101 11.3436ZM14.1101 17.2822V11.3447H12.1101V17.2822H14.1101ZM13.4922 18.7742C13.8879 18.3785 14.1101 17.8418 14.1101 17.2822H12.1101C12.1101 17.3115 12.0985 17.3395 12.0779 17.36L13.4922 18.7742ZM12.0001 19.3923C12.5598 19.3923 13.0965 19.1699 13.4922 18.7742L12.0779 17.36C12.0572 17.3807 12.0292 17.3923 12.0001 17.3923V19.3923ZM10.5081 18.7742C10.9037 19.1699 11.4404 19.3923 12.0001 19.3923V17.3923C11.9711 17.3923 11.943 17.3807 11.9223 17.36L10.5081 18.7742ZM9.89014 17.2822C9.89014 17.8418 10.1124 18.3785 10.5081 18.7742L11.9223 17.36C11.9018 17.3395 11.8901 17.3115 11.8901 17.2822H9.89014ZM9.89014 11.3447V17.2822H11.8901V11.3447H9.89014ZM10.5085 9.85317C10.1132 10.2485 9.89077 10.7844 9.89014 11.3436L11.8901 11.3458C11.8902 11.3164 11.9018 11.2882 11.9227 11.2674L10.5085 9.85317Z" fill="black" fill-opacity="0.2" mask="url(#path-1-inside-1_314_328)"/>
<path d="M5.88873 2.85379L6.4443 3.68526L5.88873 2.85379ZM12 1L12.0016 0H12V1ZM1.83729 7.79046L0.913415 7.40778H0.913415L1.83729 7.79046ZM1.21138 14.1459L0.230594 14.341L1.21138 14.1459ZM4.22178 19.7782L4.92889 19.0711L4.92889 19.0711L4.22178 19.7782ZM9.85403 22.7886L10.0491 21.8078H10.0491L9.85403 22.7886ZM21.1461 18.1112L21.9776 18.6668L21.1461 18.1112ZM23 11.9999H24L24 11.9983L23 11.9999ZM19.7731 4.22693L19.066 4.93403V4.93403L19.7731 4.22693ZM19.3045 16.8807L18.473 16.3252H18.473L19.3045 16.8807ZM20.785 12.0037L21.785 12.0041V12.003L20.785 12.0037ZM15.3618 20.1162L14.9792 19.1923H14.9792L15.3618 20.1162ZM10.2862 20.6162L10.4812 19.6354H10.4812L10.2862 20.6162ZM5.7881 18.2119L6.4952 17.5048L5.7881 18.2119ZM3.38377 13.7138L4.36456 13.5187L3.38377 13.7138ZM3.88373 8.63809L4.80761 9.02077L3.88373 8.63809ZM7.11927 4.69552L7.67484 5.52699L7.11927 4.69552ZM12 3.21496L12.0012 2.21496H12V3.21496ZM18.2107 5.79278L18.918 5.08588V5.08588L18.2107 5.79278ZM11.9999 5.61726L12.0016 4.61727L12.0007 4.61726L11.9999 5.61726ZM10.6686 6.50533L9.74498 6.12204L9.74498 6.12204L10.6686 6.50533ZM10.5861 7.33754L9.60525 7.5321L9.60525 7.5321L10.5861 7.33754ZM10.98 8.07515L10.2726 8.78195L10.2726 8.78195L10.98 8.07515ZM12.5494 8.3878L12.1669 7.46384L12.1669 7.46384L12.5494 8.3878ZM13.1958 7.85741L14.0273 8.41307L14.0273 8.41307L13.1958 7.85741ZM13.4386 7.05739H14.4386V7.05652L13.4386 7.05739ZM13.0169 6.03993L13.7244 5.33313L13.7244 5.33313L13.0169 6.03993ZM12.0001 10.2348L12.0013 9.2348L11.999 9.2348L12.0001 10.2348ZM13.1101 11.3447H14.1101L14.1101 11.3436L13.1101 11.3447ZM12.785 18.0671L12.0779 17.36L12.0779 17.36L12.785 18.0671ZM11.2152 18.0671L11.9223 17.36L11.9223 17.36L11.2152 18.0671ZM10.8901 11.3447L9.89014 11.3436V11.3447H10.8901ZM6.4443 3.68526C8.08878 2.58645 10.0222 2 12 2V0C9.62666 0 7.30656 0.703734 5.33316 2.02232L6.4443 3.68526ZM2.76117 8.17314C3.51805 6.34589 4.79981 4.78407 6.4443 3.68526L5.33316 2.02232C3.35977 3.34089 1.82167 5.21506 0.913415 7.40778L2.76117 8.17314ZM2.19216 13.9508C1.80631 12.011 2.0043 10.0004 2.76117 8.17314L0.913415 7.40778C0.0051586 9.6005 -0.232426 12.0132 0.230594 14.341L2.19216 13.9508ZM4.92889 19.0711C3.53039 17.6726 2.57802 15.8907 2.19216 13.9508L0.230594 14.341C0.693609 16.6687 1.83642 18.8071 3.51468 20.4853L4.92889 19.0711ZM10.0491 21.8078C8.10928 21.422 6.3274 20.4696 4.92889 19.0711L3.51468 20.4853C5.19292 22.1636 7.33119 23.3064 9.65894 23.7694L10.0491 21.8078ZM15.8269 21.2388C13.9996 21.9957 11.9889 22.1937 10.0491 21.8078L9.65894 23.7694C11.9867 24.2324 14.3995 23.9948 16.5922 23.0866L15.8269 21.2388ZM20.3147 17.5556C19.2158 19.2001 17.6541 20.482 15.8269 21.2388L16.5922 23.0866C18.785 22.1783 20.659 20.6401 21.9776 18.6668L20.3147 17.5556ZM22 11.9999C22 13.9777 21.4135 15.9111 20.3147 17.5556L21.9776 18.6668C23.2962 16.6934 24 14.3733 24 11.9999H22ZM19.066 4.93403C20.9407 6.80879 21.9958 9.3502 22 12.0015L24 11.9983C23.995 8.81768 22.7292 5.76886 20.4802 3.51982L19.066 4.93403ZM11.9984 2C14.6497 2.00421 17.1912 3.05929 19.066 4.93403L20.4802 3.51982C18.2311 1.27077 15.1822 0.00504929 12.0016 1.2517e-06L11.9984 2ZM20.1359 17.4363C21.2104 15.8283 21.7841 13.9379 21.785 12.0041L19.785 12.0032C19.7843 13.5418 19.3278 15.0459 18.473 16.3252L20.1359 17.4363ZM15.7445 21.0401C17.5324 20.2995 19.0607 19.0455 20.1359 17.4363L18.473 16.3252C17.6176 17.6053 16.4017 18.6031 14.9792 19.1923L15.7445 21.0401ZM10.0911 21.597C11.9892 21.9746 13.9566 21.7807 15.7445 21.0401L14.9792 19.1923C13.5566 19.7816 11.9913 19.9358 10.4812 19.6354L10.0911 21.597ZM5.08099 18.919C6.44943 20.2874 8.19294 21.2195 10.0911 21.597L10.4812 19.6354C8.97113 19.3351 7.58397 18.5936 6.4952 17.5048L5.08099 18.919ZM2.40299 13.9089C2.78054 15.807 3.71254 17.5506 5.08099 18.919L6.4952 17.5048C5.40645 16.416 4.66494 15.0288 4.36456 13.5187L2.40299 13.9089ZM2.95985 8.2554C2.21925 10.0434 2.02543 12.0107 2.40299 13.9089L4.36456 13.5187C4.06417 12.0086 4.21837 10.4433 4.80761 9.02077L2.95985 8.2554ZM6.5637 3.86405C4.95456 4.93925 3.70045 6.46744 2.95985 8.2554L4.80761 9.02077C5.39684 7.59824 6.39462 6.38241 7.67484 5.52699L6.5637 3.86405ZM12 2.21496C10.0647 2.21496 8.17284 2.78886 6.5637 3.86405L7.67484 5.52699C8.95508 4.67157 10.4603 4.21496 12 4.21496V2.21496ZM18.918 5.08588C17.0837 3.2505 14.5961 2.21792 12.0012 2.21496L11.9989 4.21496C14.0639 4.21731 16.0436 5.03904 17.5034 6.49969L18.918 5.08588ZM21.785 12.003C21.7831 9.40855 20.752 6.92093 18.918 5.08588L17.5034 6.49969C18.963 7.96007 19.7835 9.93974 19.785 12.0044L21.785 12.003ZM11.7545 6.69131C11.8271 6.64289 11.9122 6.61719 11.999 6.61726L12.0007 4.61726C11.5178 4.61685 11.046 4.7598 10.6446 5.02753L11.7545 6.69131ZM11.5922 6.88861C11.6255 6.80837 11.6819 6.73971 11.7545 6.69131L10.6446 5.02753C10.2432 5.29529 9.93005 5.67607 9.74498 6.12204L11.5922 6.88861ZM11.567 7.14298C11.5501 7.05762 11.5589 6.96902 11.5922 6.88861L9.74498 6.12204C9.55998 6.56784 9.51134 7.05863 9.60525 7.5321L11.567 7.14298ZM11.6874 7.36835C11.6258 7.30673 11.5839 7.22829 11.567 7.14298L9.60525 7.5321C9.69917 8.00562 9.93145 8.44054 10.2726 8.78195L11.6874 7.36835ZM11.9127 7.48887C11.8273 7.47185 11.7489 7.42989 11.6874 7.36835L10.2726 8.78195C10.6137 9.12343 11.0485 9.356 11.5219 9.45031L11.9127 7.48887ZM12.1669 7.46384C12.0864 7.49718 11.9979 7.50585 11.9127 7.48887L11.5219 9.45031C11.9954 9.54466 12.486 9.49633 12.9319 9.31176L12.1669 7.46384ZM12.3644 7.30174C12.316 7.3742 12.2473 7.43059 12.1669 7.46384L12.9319 9.31176C13.378 9.12711 13.7591 8.81428 14.0273 8.41307L12.3644 7.30174ZM12.4386 7.05739C12.4386 7.14434 12.4128 7.22931 12.3644 7.30175L14.0273 8.41307C14.2954 8.01184 14.4386 7.54015 14.4386 7.05739H12.4386ZM12.3095 6.74673C12.3921 6.82935 12.4385 6.94138 12.4386 7.05825L14.4386 7.05652C14.4381 6.41021 14.1812 5.79041 13.7244 5.33313L12.3095 6.74673ZM11.9981 6.61726C12.1148 6.61747 12.2268 6.66397 12.3095 6.74673L13.7244 5.33313C13.2676 4.876 12.6481 4.61839 12.0016 4.61727L11.9981 6.61726ZM11.999 9.2348C11.4399 9.23543 10.9039 9.4578 10.5085 9.85317L11.9227 11.2674C11.9435 11.2466 11.9718 11.2348 12.0013 11.2348L11.999 9.2348ZM13.4918 9.85317C13.0964 9.45779 12.5604 9.23543 12.0013 9.2348L11.999 11.2348C12.0285 11.2348 12.0567 11.2466 12.0776 11.2674L13.4918 9.85317ZM14.1101 11.3436C14.1095 10.7844 13.8871 10.2485 13.4918 9.85317L12.0776 11.2674C12.0984 11.2882 12.1101 11.3164 12.1101 11.3458L14.1101 11.3436ZM14.1101 17.2822V11.3447H12.1101V17.2822H14.1101ZM13.4922 18.7742C13.8879 18.3785 14.1101 17.8418 14.1101 17.2822H12.1101C12.1101 17.3115 12.0985 17.3395 12.0779 17.36L13.4922 18.7742ZM12.0001 19.3923C12.5598 19.3923 13.0965 19.1699 13.4922 18.7742L12.0779 17.36C12.0572 17.3807 12.0292 17.3923 12.0001 17.3923V19.3923ZM10.5081 18.7742C10.9037 19.1699 11.4404 19.3923 12.0001 19.3923V17.3923C11.9711 17.3923 11.943 17.3807 11.9223 17.36L10.5081 18.7742ZM9.89014 17.2822C9.89014 17.8418 10.1124 18.3785 10.5081 18.7742L11.9223 17.36C11.9018 17.3395 11.8901 17.3115 11.8901 17.2822H9.89014ZM9.89014 11.3447V17.2822H11.8901V11.3447H9.89014ZM10.5085 9.85317C10.1132 10.2485 9.89077 10.7844 9.89014 11.3436L11.8901 11.3458C11.8902 11.3164 11.9018 11.2882 11.9227 11.2674L10.5085 9.85317Z" fill="black" fill-opacity="0.2" mask="url(#path-1-inside-1_314_328)"/>
</svg>
