<svg width="16" height="16" viewBox="0 0 16 16" fill="none" xmlns="http://www.w3.org/2000/svg">
<g clip-path="url(#clip0_693_5341)">
<path d="M16 6.39207V15.3001L10.0987 10.7752L16 6.39207Z" fill="black"/>
<path d="M16 6.39207V15.3001L10.0987 10.7752L16 6.39207Z" fill="black" fill-opacity="0.2"/>
<path d="M16 6.39207V15.3001L10.0987 10.7752L16 6.39207Z" fill="black" fill-opacity="0.2"/>
<path d="M16 6.39207V15.3001L10.0987 10.7752L16 6.39207Z" fill="black" fill-opacity="0.2"/>
<path d="M16 6.39207V15.3001L10.0987 10.7752L16 6.39207Z" fill="black" fill-opacity="0.2"/>
<path d="M16 6.39207V15.3001L10.0987 10.7752L16 6.39207Z" fill="black" fill-opacity="0.2"/>
<path d="M16 6.39207V15.3001L10.0987 10.7752L16 6.39207Z" fill="black" fill-opacity="0.2"/>
<path d="M16 6.39207V15.3001L10.0987 10.7752L16 6.39207Z" fill="black" fill-opacity="0.2"/>
<path d="M16 6.39207V15.3001L10.0987 10.7752L16 6.39207Z" fill="black" fill-opacity="0.2"/>
<path d="M16 6.39207V15.3001L10.0987 10.7752L16 6.39207Z" fill="black" fill-opacity="0.2"/>
<path d="M0 15.3004V6.39207L5.89325 10.7692L0 15.3004Z" fill="black"/>
<path d="M0 15.3004V6.39207L5.89325 10.7692L0 15.3004Z" fill="black" fill-opacity="0.2"/>
<path d="M0 15.3004V6.39207L5.89325 10.7692L0 15.3004Z" fill="black" fill-opacity="0.2"/>
<path d="M0 15.3004V6.39207L5.89325 10.7692L0 15.3004Z" fill="black" fill-opacity="0.2"/>
<path d="M0 15.3004V6.39207L5.89325 10.7692L0 15.3004Z" fill="black" fill-opacity="0.2"/>
<path d="M0 15.3004V6.39207L5.89325 10.7692L0 15.3004Z" fill="black" fill-opacity="0.2"/>
<path d="M0 15.3004V6.39207L5.89325 10.7692L0 15.3004Z" fill="black" fill-opacity="0.2"/>
<path d="M0 15.3004V6.39207L5.89325 10.7692L0 15.3004Z" fill="black" fill-opacity="0.2"/>
<path d="M0 15.3004V6.39207L5.89325 10.7692L0 15.3004Z" fill="black" fill-opacity="0.2"/>
<path d="M0 15.3004V6.39207L5.89325 10.7692L0 15.3004Z" fill="black" fill-opacity="0.2"/>
<path d="M0.468759 4.28122H4.71719V5.49997C4.16544 5.652 3.77969 6.15513 3.77969 6.7236V6.73291C3.77969 7.43156 4.3481 7.99997 5.04676 7.99997H7.0625V8.28122C7.0625 8.799 7.48222 9.21872 8 9.21872C8.51779 9.21872 8.9375 8.799 8.9375 8.28122V7.99997H10.9533C11.6519 7.99997 12.2203 7.43156 12.2203 6.73291V6.7236C12.2203 6.15513 11.8346 5.65197 11.2823 5.50007L11.2826 4.28122H15.5312C15.7901 4.28122 16 4.4911 16 4.74997V5.22416L8 11.1661L9.02184e-06 5.22416V4.74997C9.02184e-06 4.4911 0.209884 4.28122 0.468759 4.28122Z" fill="black"/>
<path d="M0.468759 4.28122H4.71719V5.49997C4.16544 5.652 3.77969 6.15513 3.77969 6.7236V6.73291C3.77969 7.43156 4.3481 7.99997 5.04676 7.99997H7.0625V8.28122C7.0625 8.799 7.48222 9.21872 8 9.21872C8.51779 9.21872 8.9375 8.799 8.9375 8.28122V7.99997H10.9533C11.6519 7.99997 12.2203 7.43156 12.2203 6.73291V6.7236C12.2203 6.15513 11.8346 5.65197 11.2823 5.50007L11.2826 4.28122H15.5312C15.7901 4.28122 16 4.4911 16 4.74997V5.22416L8 11.1661L9.02184e-06 5.22416V4.74997C9.02184e-06 4.4911 0.209884 4.28122 0.468759 4.28122Z" fill="black" fill-opacity="0.2"/>
<path d="M0.468759 4.28122H4.71719V5.49997C4.16544 5.652 3.77969 6.15513 3.77969 6.7236V6.73291C3.77969 7.43156 4.3481 7.99997 5.04676 7.99997H7.0625V8.28122C7.0625 8.799 7.48222 9.21872 8 9.21872C8.51779 9.21872 8.9375 8.799 8.9375 8.28122V7.99997H10.9533C11.6519 7.99997 12.2203 7.43156 12.2203 6.73291V6.7236C12.2203 6.15513 11.8346 5.65197 11.2823 5.50007L11.2826 4.28122H15.5312C15.7901 4.28122 16 4.4911 16 4.74997V5.22416L8 11.1661L9.02184e-06 5.22416V4.74997C9.02184e-06 4.4911 0.209884 4.28122 0.468759 4.28122Z" fill="black" fill-opacity="0.2"/>
<path d="M0.468759 4.28122H4.71719V5.49997C4.16544 5.652 3.77969 6.15513 3.77969 6.7236V6.73291C3.77969 7.43156 4.3481 7.99997 5.04676 7.99997H7.0625V8.28122C7.0625 8.799 7.48222 9.21872 8 9.21872C8.51779 9.21872 8.9375 8.799 8.9375 8.28122V7.99997H10.9533C11.6519 7.99997 12.2203 7.43156 12.2203 6.73291V6.7236C12.2203 6.15513 11.8346 5.65197 11.2823 5.50007L11.2826 4.28122H15.5312C15.7901 4.28122 16 4.4911 16 4.74997V5.22416L8 11.1661L9.02184e-06 5.22416V4.74997C9.02184e-06 4.4911 0.209884 4.28122 0.468759 4.28122Z" fill="black" fill-opacity="0.2"/>
<path d="M0.468759 4.28122H4.71719V5.49997C4.16544 5.652 3.77969 6.15513 3.77969 6.7236V6.73291C3.77969 7.43156 4.3481 7.99997 5.04676 7.99997H7.0625V8.28122C7.0625 8.799 7.48222 9.21872 8 9.21872C8.51779 9.21872 8.9375 8.799 8.9375 8.28122V7.99997H10.9533C11.6519 7.99997 12.2203 7.43156 12.2203 6.73291V6.7236C12.2203 6.15513 11.8346 5.65197 11.2823 5.50007L11.2826 4.28122H15.5312C15.7901 4.28122 16 4.4911 16 4.74997V5.22416L8 11.1661L9.02184e-06 5.22416V4.74997C9.02184e-06 4.4911 0.209884 4.28122 0.468759 4.28122Z" fill="black" fill-opacity="0.2"/>
<path d="M0.468759 4.28122H4.71719V5.49997C4.16544 5.652 3.77969 6.15513 3.77969 6.7236V6.73291C3.77969 7.43156 4.3481 7.99997 5.04676 7.99997H7.0625V8.28122C7.0625 8.799 7.48222 9.21872 8 9.21872C8.51779 9.21872 8.9375 8.799 8.9375 8.28122V7.99997H10.9533C11.6519 7.99997 12.2203 7.43156 12.2203 6.73291V6.7236C12.2203 6.15513 11.8346 5.65197 11.2823 5.50007L11.2826 4.28122H15.5312C15.7901 4.28122 16 4.4911 16 4.74997V5.22416L8 11.1661L9.02184e-06 5.22416V4.74997C9.02184e-06 4.4911 0.209884 4.28122 0.468759 4.28122Z" fill="black" fill-opacity="0.2"/>
<path d="M0.468759 4.28122H4.71719V5.49997C4.16544 5.652 3.77969 6.15513 3.77969 6.7236V6.73291C3.77969 7.43156 4.3481 7.99997 5.04676 7.99997H7.0625V8.28122C7.0625 8.799 7.48222 9.21872 8 9.21872C8.51779 9.21872 8.9375 8.799 8.9375 8.28122V7.99997H10.9533C11.6519 7.99997 12.2203 7.43156 12.2203 6.73291V6.7236C12.2203 6.15513 11.8346 5.65197 11.2823 5.50007L11.2826 4.28122H15.5312C15.7901 4.28122 16 4.4911 16 4.74997V5.22416L8 11.1661L9.02184e-06 5.22416V4.74997C9.02184e-06 4.4911 0.209884 4.28122 0.468759 4.28122Z" fill="black" fill-opacity="0.2"/>
<path d="M0.468759 4.28122H4.71719V5.49997C4.16544 5.652 3.77969 6.15513 3.77969 6.7236V6.73291C3.77969 7.43156 4.3481 7.99997 5.04676 7.99997H7.0625V8.28122C7.0625 8.799 7.48222 9.21872 8 9.21872C8.51779 9.21872 8.9375 8.799 8.9375 8.28122V7.99997H10.9533C11.6519 7.99997 12.2203 7.43156 12.2203 6.73291V6.7236C12.2203 6.15513 11.8346 5.65197 11.2823 5.50007L11.2826 4.28122H15.5312C15.7901 4.28122 16 4.4911 16 4.74997V5.22416L8 11.1661L9.02184e-06 5.22416V4.74997C9.02184e-06 4.4911 0.209884 4.28122 0.468759 4.28122Z" fill="black" fill-opacity="0.2"/>
<path d="M0.468759 4.28122H4.71719V5.49997C4.16544 5.652 3.77969 6.15513 3.77969 6.7236V6.73291C3.77969 7.43156 4.3481 7.99997 5.04676 7.99997H7.0625V8.28122C7.0625 8.799 7.48222 9.21872 8 9.21872C8.51779 9.21872 8.9375 8.799 8.9375 8.28122V7.99997H10.9533C11.6519 7.99997 12.2203 7.43156 12.2203 6.73291V6.7236C12.2203 6.15513 11.8346 5.65197 11.2823 5.50007L11.2826 4.28122H15.5312C15.7901 4.28122 16 4.4911 16 4.74997V5.22416L8 11.1661L9.02184e-06 5.22416V4.74997C9.02184e-06 4.4911 0.209884 4.28122 0.468759 4.28122Z" fill="black" fill-opacity="0.2"/>
<path d="M0.468759 4.28122H4.71719V5.49997C4.16544 5.652 3.77969 6.15513 3.77969 6.7236V6.73291C3.77969 7.43156 4.3481 7.99997 5.04676 7.99997H7.0625V8.28122C7.0625 8.799 7.48222 9.21872 8 9.21872C8.51779 9.21872 8.9375 8.799 8.9375 8.28122V7.99997H10.9533C11.6519 7.99997 12.2203 7.43156 12.2203 6.73291V6.7236C12.2203 6.15513 11.8346 5.65197 11.2823 5.50007L11.2826 4.28122H15.5312C15.7901 4.28122 16 4.4911 16 4.74997V5.22416L8 11.1661L9.02184e-06 5.22416V4.74997C9.02184e-06 4.4911 0.209884 4.28122 0.468759 4.28122Z" fill="black" fill-opacity="0.2"/>
<path d="M7.7205 12.1263C7.8865 12.2496 8.11353 12.2495 8.2795 12.1263L9.31603 11.3564L15.3722 16H0.62813L6.67556 11.3502L7.7205 12.1263Z" fill="black"/>
<path d="M7.7205 12.1263C7.8865 12.2496 8.11353 12.2495 8.2795 12.1263L9.31603 11.3564L15.3722 16H0.62813L6.67556 11.3502L7.7205 12.1263Z" fill="black" fill-opacity="0.2"/>
<path d="M7.7205 12.1263C7.8865 12.2496 8.11353 12.2495 8.2795 12.1263L9.31603 11.3564L15.3722 16H0.62813L6.67556 11.3502L7.7205 12.1263Z" fill="black" fill-opacity="0.2"/>
<path d="M7.7205 12.1263C7.8865 12.2496 8.11353 12.2495 8.2795 12.1263L9.31603 11.3564L15.3722 16H0.62813L6.67556 11.3502L7.7205 12.1263Z" fill="black" fill-opacity="0.2"/>
<path d="M7.7205 12.1263C7.8865 12.2496 8.11353 12.2495 8.2795 12.1263L9.31603 11.3564L15.3722 16H0.62813L6.67556 11.3502L7.7205 12.1263Z" fill="black" fill-opacity="0.2"/>
<path d="M7.7205 12.1263C7.8865 12.2496 8.11353 12.2495 8.2795 12.1263L9.31603 11.3564L15.3722 16H0.62813L6.67556 11.3502L7.7205 12.1263Z" fill="black" fill-opacity="0.2"/>
<path d="M7.7205 12.1263C7.8865 12.2496 8.11353 12.2495 8.2795 12.1263L9.31603 11.3564L15.3722 16H0.62813L6.67556 11.3502L7.7205 12.1263Z" fill="black" fill-opacity="0.2"/>
<path d="M7.7205 12.1263C7.8865 12.2496 8.11353 12.2495 8.2795 12.1263L9.31603 11.3564L15.3722 16H0.62813L6.67556 11.3502L7.7205 12.1263Z" fill="black" fill-opacity="0.2"/>
<path d="M7.7205 12.1263C7.8865 12.2496 8.11353 12.2495 8.2795 12.1263L9.31603 11.3564L15.3722 16H0.62813L6.67556 11.3502L7.7205 12.1263Z" fill="black" fill-opacity="0.2"/>
<path d="M7.7205 12.1263C7.8865 12.2496 8.11353 12.2495 8.2795 12.1263L9.31603 11.3564L15.3722 16H0.62813L6.67556 11.3502L7.7205 12.1263Z" fill="black" fill-opacity="0.2"/>
<path d="M11.0977 1.32314C10.9147 1.5062 10.6179 1.50623 10.4348 1.32314C10.2518 1.14008 10.2518 0.843296 10.4348 0.660234L10.9578 0.137297C11.1408 -0.0457656 11.4376 -0.0457656 11.6207 0.137297C11.8037 0.320359 11.8037 0.61714 11.6207 0.800203L11.0977 1.32314Z" fill="black"/>
<path d="M11.0977 1.32314C10.9147 1.5062 10.6179 1.50623 10.4348 1.32314C10.2518 1.14008 10.2518 0.843296 10.4348 0.660234L10.9578 0.137297C11.1408 -0.0457656 11.4376 -0.0457656 11.6207 0.137297C11.8037 0.320359 11.8037 0.61714 11.6207 0.800203L11.0977 1.32314Z" fill="black" fill-opacity="0.2"/>
<path d="M11.0977 1.32314C10.9147 1.5062 10.6179 1.50623 10.4348 1.32314C10.2518 1.14008 10.2518 0.843296 10.4348 0.660234L10.9578 0.137297C11.1408 -0.0457656 11.4376 -0.0457656 11.6207 0.137297C11.8037 0.320359 11.8037 0.61714 11.6207 0.800203L11.0977 1.32314Z" fill="black" fill-opacity="0.2"/>
<path d="M11.0977 1.32314C10.9147 1.5062 10.6179 1.50623 10.4348 1.32314C10.2518 1.14008 10.2518 0.843296 10.4348 0.660234L10.9578 0.137297C11.1408 -0.0457656 11.4376 -0.0457656 11.6207 0.137297C11.8037 0.320359 11.8037 0.61714 11.6207 0.800203L11.0977 1.32314Z" fill="black" fill-opacity="0.2"/>
<path d="M11.0977 1.32314C10.9147 1.5062 10.6179 1.50623 10.4348 1.32314C10.2518 1.14008 10.2518 0.843296 10.4348 0.660234L10.9578 0.137297C11.1408 -0.0457656 11.4376 -0.0457656 11.6207 0.137297C11.8037 0.320359 11.8037 0.61714 11.6207 0.800203L11.0977 1.32314Z" fill="black" fill-opacity="0.2"/>
<path d="M11.0977 1.32314C10.9147 1.5062 10.6179 1.50623 10.4348 1.32314C10.2518 1.14008 10.2518 0.843296 10.4348 0.660234L10.9578 0.137297C11.1408 -0.0457656 11.4376 -0.0457656 11.6207 0.137297C11.8037 0.320359 11.8037 0.61714 11.6207 0.800203L11.0977 1.32314Z" fill="black" fill-opacity="0.2"/>
<path d="M11.0977 1.32314C10.9147 1.5062 10.6179 1.50623 10.4348 1.32314C10.2518 1.14008 10.2518 0.843296 10.4348 0.660234L10.9578 0.137297C11.1408 -0.0457656 11.4376 -0.0457656 11.6207 0.137297C11.8037 0.320359 11.8037 0.61714 11.6207 0.800203L11.0977 1.32314Z" fill="black" fill-opacity="0.2"/>
<path d="M11.0977 1.32314C10.9147 1.5062 10.6179 1.50623 10.4348 1.32314C10.2518 1.14008 10.2518 0.843296 10.4348 0.660234L10.9578 0.137297C11.1408 -0.0457656 11.4376 -0.0457656 11.6207 0.137297C11.8037 0.320359 11.8037 0.61714 11.6207 0.800203L11.0977 1.32314Z" fill="black" fill-opacity="0.2"/>
<path d="M11.0977 1.32314C10.9147 1.5062 10.6179 1.50623 10.4348 1.32314C10.2518 1.14008 10.2518 0.843296 10.4348 0.660234L10.9578 0.137297C11.1408 -0.0457656 11.4376 -0.0457656 11.6207 0.137297C11.8037 0.320359 11.8037 0.61714 11.6207 0.800203L11.0977 1.32314Z" fill="black" fill-opacity="0.2"/>
<path d="M11.0977 1.32314C10.9147 1.5062 10.6179 1.50623 10.4348 1.32314C10.2518 1.14008 10.2518 0.843296 10.4348 0.660234L10.9578 0.137297C11.1408 -0.0457656 11.4376 -0.0457656 11.6207 0.137297C11.8037 0.320359 11.8037 0.61714 11.6207 0.800203L11.0977 1.32314Z" fill="black" fill-opacity="0.2"/>
<path d="M4.90229 1.32314L4.37935 0.800203C4.19629 0.61714 4.19629 0.320359 4.37935 0.137297C4.56238 -0.0457656 4.85919 -0.0457656 5.04226 0.137297L5.56519 0.660234C5.74826 0.843296 5.74826 1.14008 5.56519 1.32314C5.38216 1.5062 5.08532 1.50623 4.90229 1.32314Z" fill="black"/>
<path d="M4.90229 1.32314L4.37935 0.800203C4.19629 0.61714 4.19629 0.320359 4.37935 0.137297C4.56238 -0.0457656 4.85919 -0.0457656 5.04226 0.137297L5.56519 0.660234C5.74826 0.843296 5.74826 1.14008 5.56519 1.32314C5.38216 1.5062 5.08532 1.50623 4.90229 1.32314Z" fill="black" fill-opacity="0.2"/>
<path d="M4.90229 1.32314L4.37935 0.800203C4.19629 0.61714 4.19629 0.320359 4.37935 0.137297C4.56238 -0.0457656 4.85919 -0.0457656 5.04226 0.137297L5.56519 0.660234C5.74826 0.843296 5.74826 1.14008 5.56519 1.32314C5.38216 1.5062 5.08532 1.50623 4.90229 1.32314Z" fill="black" fill-opacity="0.2"/>
<path d="M4.90229 1.32314L4.37935 0.800203C4.19629 0.61714 4.19629 0.320359 4.37935 0.137297C4.56238 -0.0457656 4.85919 -0.0457656 5.04226 0.137297L5.56519 0.660234C5.74826 0.843296 5.74826 1.14008 5.56519 1.32314C5.38216 1.5062 5.08532 1.50623 4.90229 1.32314Z" fill="black" fill-opacity="0.2"/>
<path d="M4.90229 1.32314L4.37935 0.800203C4.19629 0.61714 4.19629 0.320359 4.37935 0.137297C4.56238 -0.0457656 4.85919 -0.0457656 5.04226 0.137297L5.56519 0.660234C5.74826 0.843296 5.74826 1.14008 5.56519 1.32314C5.38216 1.5062 5.08532 1.50623 4.90229 1.32314Z" fill="black" fill-opacity="0.2"/>
<path d="M4.90229 1.32314L4.37935 0.800203C4.19629 0.61714 4.19629 0.320359 4.37935 0.137297C4.56238 -0.0457656 4.85919 -0.0457656 5.04226 0.137297L5.56519 0.660234C5.74826 0.843296 5.74826 1.14008 5.56519 1.32314C5.38216 1.5062 5.08532 1.50623 4.90229 1.32314Z" fill="black" fill-opacity="0.2"/>
<path d="M4.90229 1.32314L4.37935 0.800203C4.19629 0.61714 4.19629 0.320359 4.37935 0.137297C4.56238 -0.0457656 4.85919 -0.0457656 5.04226 0.137297L5.56519 0.660234C5.74826 0.843296 5.74826 1.14008 5.56519 1.32314C5.38216 1.5062 5.08532 1.50623 4.90229 1.32314Z" fill="black" fill-opacity="0.2"/>
<path d="M4.90229 1.32314L4.37935 0.800203C4.19629 0.61714 4.19629 0.320359 4.37935 0.137297C4.56238 -0.0457656 4.85919 -0.0457656 5.04226 0.137297L5.56519 0.660234C5.74826 0.843296 5.74826 1.14008 5.56519 1.32314C5.38216 1.5062 5.08532 1.50623 4.90229 1.32314Z" fill="black" fill-opacity="0.2"/>
<path d="M4.90229 1.32314L4.37935 0.800203C4.19629 0.61714 4.19629 0.320359 4.37935 0.137297C4.56238 -0.0457656 4.85919 -0.0457656 5.04226 0.137297L5.56519 0.660234C5.74826 0.843296 5.74826 1.14008 5.56519 1.32314C5.38216 1.5062 5.08532 1.50623 4.90229 1.32314Z" fill="black" fill-opacity="0.2"/>
<path d="M4.90229 1.32314L4.37935 0.800203C4.19629 0.61714 4.19629 0.320359 4.37935 0.137297C4.56238 -0.0457656 4.85919 -0.0457656 5.04226 0.137297L5.56519 0.660234C5.74826 0.843296 5.74826 1.14008 5.56519 1.32314C5.38216 1.5062 5.08532 1.50623 4.90229 1.32314Z" fill="black" fill-opacity="0.2"/>
<path d="M4.66233 2.86991C4.59555 3.11916 4.33905 3.2686 4.08824 3.20135L3.37387 3.00994C3.1238 2.94294 2.97543 2.68591 3.04243 2.43585C3.10943 2.18579 3.36643 2.03735 3.61652 2.10441L4.3309 2.29582C4.58093 2.36282 4.72933 2.61982 4.66233 2.86991Z" fill="black"/>
<path d="M4.66233 2.86991C4.59555 3.11916 4.33905 3.2686 4.08824 3.20135L3.37387 3.00994C3.1238 2.94294 2.97543 2.68591 3.04243 2.43585C3.10943 2.18579 3.36643 2.03735 3.61652 2.10441L4.3309 2.29582C4.58093 2.36282 4.72933 2.61982 4.66233 2.86991Z" fill="black" fill-opacity="0.2"/>
<path d="M4.66233 2.86991C4.59555 3.11916 4.33905 3.2686 4.08824 3.20135L3.37387 3.00994C3.1238 2.94294 2.97543 2.68591 3.04243 2.43585C3.10943 2.18579 3.36643 2.03735 3.61652 2.10441L4.3309 2.29582C4.58093 2.36282 4.72933 2.61982 4.66233 2.86991Z" fill="black" fill-opacity="0.2"/>
<path d="M4.66233 2.86991C4.59555 3.11916 4.33905 3.2686 4.08824 3.20135L3.37387 3.00994C3.1238 2.94294 2.97543 2.68591 3.04243 2.43585C3.10943 2.18579 3.36643 2.03735 3.61652 2.10441L4.3309 2.29582C4.58093 2.36282 4.72933 2.61982 4.66233 2.86991Z" fill="black" fill-opacity="0.2"/>
<path d="M4.66233 2.86991C4.59555 3.11916 4.33905 3.2686 4.08824 3.20135L3.37387 3.00994C3.1238 2.94294 2.97543 2.68591 3.04243 2.43585C3.10943 2.18579 3.36643 2.03735 3.61652 2.10441L4.3309 2.29582C4.58093 2.36282 4.72933 2.61982 4.66233 2.86991Z" fill="black" fill-opacity="0.2"/>
<path d="M4.66233 2.86991C4.59555 3.11916 4.33905 3.2686 4.08824 3.20135L3.37387 3.00994C3.1238 2.94294 2.97543 2.68591 3.04243 2.43585C3.10943 2.18579 3.36643 2.03735 3.61652 2.10441L4.3309 2.29582C4.58093 2.36282 4.72933 2.61982 4.66233 2.86991Z" fill="black" fill-opacity="0.2"/>
<path d="M4.66233 2.86991C4.59555 3.11916 4.33905 3.2686 4.08824 3.20135L3.37387 3.00994C3.1238 2.94294 2.97543 2.68591 3.04243 2.43585C3.10943 2.18579 3.36643 2.03735 3.61652 2.10441L4.3309 2.29582C4.58093 2.36282 4.72933 2.61982 4.66233 2.86991Z" fill="black" fill-opacity="0.2"/>
<path d="M4.66233 2.86991C4.59555 3.11916 4.33905 3.2686 4.08824 3.20135L3.37387 3.00994C3.1238 2.94294 2.97543 2.68591 3.04243 2.43585C3.10943 2.18579 3.36643 2.03735 3.61652 2.10441L4.3309 2.29582C4.58093 2.36282 4.72933 2.61982 4.66233 2.86991Z" fill="black" fill-opacity="0.2"/>
<path d="M4.66233 2.86991C4.59555 3.11916 4.33905 3.2686 4.08824 3.20135L3.37387 3.00994C3.1238 2.94294 2.97543 2.68591 3.04243 2.43585C3.10943 2.18579 3.36643 2.03735 3.61652 2.10441L4.3309 2.29582C4.58093 2.36282 4.72933 2.61982 4.66233 2.86991Z" fill="black" fill-opacity="0.2"/>
<path d="M4.66233 2.86991C4.59555 3.11916 4.33905 3.2686 4.08824 3.20135L3.37387 3.00994C3.1238 2.94294 2.97543 2.68591 3.04243 2.43585C3.10943 2.18579 3.36643 2.03735 3.61652 2.10441L4.3309 2.29582C4.58093 2.36282 4.72933 2.61982 4.66233 2.86991Z" fill="black" fill-opacity="0.2"/>
<path d="M12.6261 3.00994L11.9117 3.20135C11.6602 3.26879 11.4042 3.11841 11.3377 2.86991C11.2707 2.61985 11.419 2.36282 11.6691 2.29582L12.3835 2.10441C12.6336 2.03735 12.8906 2.18579 12.9576 2.43585C13.0246 2.68591 12.8762 2.94294 12.6261 3.00994Z" fill="black"/>
<path d="M12.6261 3.00994L11.9117 3.20135C11.6602 3.26879 11.4042 3.11841 11.3377 2.86991C11.2707 2.61985 11.419 2.36282 11.6691 2.29582L12.3835 2.10441C12.6336 2.03735 12.8906 2.18579 12.9576 2.43585C13.0246 2.68591 12.8762 2.94294 12.6261 3.00994Z" fill="black" fill-opacity="0.2"/>
<path d="M12.6261 3.00994L11.9117 3.20135C11.6602 3.26879 11.4042 3.11841 11.3377 2.86991C11.2707 2.61985 11.419 2.36282 11.6691 2.29582L12.3835 2.10441C12.6336 2.03735 12.8906 2.18579 12.9576 2.43585C13.0246 2.68591 12.8762 2.94294 12.6261 3.00994Z" fill="black" fill-opacity="0.2"/>
<path d="M12.6261 3.00994L11.9117 3.20135C11.6602 3.26879 11.4042 3.11841 11.3377 2.86991C11.2707 2.61985 11.419 2.36282 11.6691 2.29582L12.3835 2.10441C12.6336 2.03735 12.8906 2.18579 12.9576 2.43585C13.0246 2.68591 12.8762 2.94294 12.6261 3.00994Z" fill="black" fill-opacity="0.2"/>
<path d="M12.6261 3.00994L11.9117 3.20135C11.6602 3.26879 11.4042 3.11841 11.3377 2.86991C11.2707 2.61985 11.419 2.36282 11.6691 2.29582L12.3835 2.10441C12.6336 2.03735 12.8906 2.18579 12.9576 2.43585C13.0246 2.68591 12.8762 2.94294 12.6261 3.00994Z" fill="black" fill-opacity="0.2"/>
<path d="M12.6261 3.00994L11.9117 3.20135C11.6602 3.26879 11.4042 3.11841 11.3377 2.86991C11.2707 2.61985 11.419 2.36282 11.6691 2.29582L12.3835 2.10441C12.6336 2.03735 12.8906 2.18579 12.9576 2.43585C13.0246 2.68591 12.8762 2.94294 12.6261 3.00994Z" fill="black" fill-opacity="0.2"/>
<path d="M12.6261 3.00994L11.9117 3.20135C11.6602 3.26879 11.4042 3.11841 11.3377 2.86991C11.2707 2.61985 11.419 2.36282 11.6691 2.29582L12.3835 2.10441C12.6336 2.03735 12.8906 2.18579 12.9576 2.43585C13.0246 2.68591 12.8762 2.94294 12.6261 3.00994Z" fill="black" fill-opacity="0.2"/>
<path d="M12.6261 3.00994L11.9117 3.20135C11.6602 3.26879 11.4042 3.11841 11.3377 2.86991C11.2707 2.61985 11.419 2.36282 11.6691 2.29582L12.3835 2.10441C12.6336 2.03735 12.8906 2.18579 12.9576 2.43585C13.0246 2.68591 12.8762 2.94294 12.6261 3.00994Z" fill="black" fill-opacity="0.2"/>
<path d="M12.6261 3.00994L11.9117 3.20135C11.6602 3.26879 11.4042 3.11841 11.3377 2.86991C11.2707 2.61985 11.419 2.36282 11.6691 2.29582L12.3835 2.10441C12.6336 2.03735 12.8906 2.18579 12.9576 2.43585C13.0246 2.68591 12.8762 2.94294 12.6261 3.00994Z" fill="black" fill-opacity="0.2"/>
<path d="M12.6261 3.00994L11.9117 3.20135C11.6602 3.26879 11.4042 3.11841 11.3377 2.86991C11.2707 2.61985 11.419 2.36282 11.6691 2.29582L12.3835 2.10441C12.6336 2.03735 12.8906 2.18579 12.9576 2.43585C13.0246 2.68591 12.8762 2.94294 12.6261 3.00994Z" fill="black" fill-opacity="0.2"/>
<path d="M10.3453 3.75156V5.5C10.3453 5.93146 10.6368 6.29487 11.0336 6.404C11.4089 6.50725 11.3427 7.0625 10.9532 7.0625H5.04675C4.86475 7.0625 4.71719 6.91493 4.71719 6.73293C4.71831 6.72981 4.70718 6.47531 4.9664 6.404C5.36318 6.29487 5.65469 5.93146 5.65469 5.5V3.75156C5.65469 2.61681 6.46059 1.67041 7.53125 1.45322V0.46875C7.53125 0.209875 7.74112 0 8 0C8.25887 0 8.46875 0.209875 8.46875 0.46875V1.45319C9.5394 1.67041 10.3453 2.61684 10.3453 3.75156Z" fill="black"/>
<path d="M10.3453 3.75156V5.5C10.3453 5.93146 10.6368 6.29487 11.0336 6.404C11.4089 6.50725 11.3427 7.0625 10.9532 7.0625H5.04675C4.86475 7.0625 4.71719 6.91493 4.71719 6.73293C4.71831 6.72981 4.70718 6.47531 4.9664 6.404C5.36318 6.29487 5.65469 5.93146 5.65469 5.5V3.75156C5.65469 2.61681 6.46059 1.67041 7.53125 1.45322V0.46875C7.53125 0.209875 7.74112 0 8 0C8.25887 0 8.46875 0.209875 8.46875 0.46875V1.45319C9.5394 1.67041 10.3453 2.61684 10.3453 3.75156Z" fill="black" fill-opacity="0.2"/>
<path d="M10.3453 3.75156V5.5C10.3453 5.93146 10.6368 6.29487 11.0336 6.404C11.4089 6.50725 11.3427 7.0625 10.9532 7.0625H5.04675C4.86475 7.0625 4.71719 6.91493 4.71719 6.73293C4.71831 6.72981 4.70718 6.47531 4.9664 6.404C5.36318 6.29487 5.65469 5.93146 5.65469 5.5V3.75156C5.65469 2.61681 6.46059 1.67041 7.53125 1.45322V0.46875C7.53125 0.209875 7.74112 0 8 0C8.25887 0 8.46875 0.209875 8.46875 0.46875V1.45319C9.5394 1.67041 10.3453 2.61684 10.3453 3.75156Z" fill="black" fill-opacity="0.2"/>
<path d="M10.3453 3.75156V5.5C10.3453 5.93146 10.6368 6.29487 11.0336 6.404C11.4089 6.50725 11.3427 7.0625 10.9532 7.0625H5.04675C4.86475 7.0625 4.71719 6.91493 4.71719 6.73293C4.71831 6.72981 4.70718 6.47531 4.9664 6.404C5.36318 6.29487 5.65469 5.93146 5.65469 5.5V3.75156C5.65469 2.61681 6.46059 1.67041 7.53125 1.45322V0.46875C7.53125 0.209875 7.74112 0 8 0C8.25887 0 8.46875 0.209875 8.46875 0.46875V1.45319C9.5394 1.67041 10.3453 2.61684 10.3453 3.75156Z" fill="black" fill-opacity="0.2"/>
<path d="M10.3453 3.75156V5.5C10.3453 5.93146 10.6368 6.29487 11.0336 6.404C11.4089 6.50725 11.3427 7.0625 10.9532 7.0625H5.04675C4.86475 7.0625 4.71719 6.91493 4.71719 6.73293C4.71831 6.72981 4.70718 6.47531 4.9664 6.404C5.36318 6.29487 5.65469 5.93146 5.65469 5.5V3.75156C5.65469 2.61681 6.46059 1.67041 7.53125 1.45322V0.46875C7.53125 0.209875 7.74112 0 8 0C8.25887 0 8.46875 0.209875 8.46875 0.46875V1.45319C9.5394 1.67041 10.3453 2.61684 10.3453 3.75156Z" fill="black" fill-opacity="0.2"/>
<path d="M10.3453 3.75156V5.5C10.3453 5.93146 10.6368 6.29487 11.0336 6.404C11.4089 6.50725 11.3427 7.0625 10.9532 7.0625H5.04675C4.86475 7.0625 4.71719 6.91493 4.71719 6.73293C4.71831 6.72981 4.70718 6.47531 4.9664 6.404C5.36318 6.29487 5.65469 5.93146 5.65469 5.5V3.75156C5.65469 2.61681 6.46059 1.67041 7.53125 1.45322V0.46875C7.53125 0.209875 7.74112 0 8 0C8.25887 0 8.46875 0.209875 8.46875 0.46875V1.45319C9.5394 1.67041 10.3453 2.61684 10.3453 3.75156Z" fill="black" fill-opacity="0.2"/>
<path d="M10.3453 3.75156V5.5C10.3453 5.93146 10.6368 6.29487 11.0336 6.404C11.4089 6.50725 11.3427 7.0625 10.9532 7.0625H5.04675C4.86475 7.0625 4.71719 6.91493 4.71719 6.73293C4.71831 6.72981 4.70718 6.47531 4.9664 6.404C5.36318 6.29487 5.65469 5.93146 5.65469 5.5V3.75156C5.65469 2.61681 6.46059 1.67041 7.53125 1.45322V0.46875C7.53125 0.209875 7.74112 0 8 0C8.25887 0 8.46875 0.209875 8.46875 0.46875V1.45319C9.5394 1.67041 10.3453 2.61684 10.3453 3.75156Z" fill="black" fill-opacity="0.2"/>
<path d="M10.3453 3.75156V5.5C10.3453 5.93146 10.6368 6.29487 11.0336 6.404C11.4089 6.50725 11.3427 7.0625 10.9532 7.0625H5.04675C4.86475 7.0625 4.71719 6.91493 4.71719 6.73293C4.71831 6.72981 4.70718 6.47531 4.9664 6.404C5.36318 6.29487 5.65469 5.93146 5.65469 5.5V3.75156C5.65469 2.61681 6.46059 1.67041 7.53125 1.45322V0.46875C7.53125 0.209875 7.74112 0 8 0C8.25887 0 8.46875 0.209875 8.46875 0.46875V1.45319C9.5394 1.67041 10.3453 2.61684 10.3453 3.75156Z" fill="black" fill-opacity="0.2"/>
<path d="M10.3453 3.75156V5.5C10.3453 5.93146 10.6368 6.29487 11.0336 6.404C11.4089 6.50725 11.3427 7.0625 10.9532 7.0625H5.04675C4.86475 7.0625 4.71719 6.91493 4.71719 6.73293C4.71831 6.72981 4.70718 6.47531 4.9664 6.404C5.36318 6.29487 5.65469 5.93146 5.65469 5.5V3.75156C5.65469 2.61681 6.46059 1.67041 7.53125 1.45322V0.46875C7.53125 0.209875 7.74112 0 8 0C8.25887 0 8.46875 0.209875 8.46875 0.46875V1.45319C9.5394 1.67041 10.3453 2.61684 10.3453 3.75156Z" fill="black" fill-opacity="0.2"/>
<path d="M10.3453 3.75156V5.5C10.3453 5.93146 10.6368 6.29487 11.0336 6.404C11.4089 6.50725 11.3427 7.0625 10.9532 7.0625H5.04675C4.86475 7.0625 4.71719 6.91493 4.71719 6.73293C4.71831 6.72981 4.70718 6.47531 4.9664 6.404C5.36318 6.29487 5.65469 5.93146 5.65469 5.5V3.75156C5.65469 2.61681 6.46059 1.67041 7.53125 1.45322V0.46875C7.53125 0.209875 7.74112 0 8 0C8.25887 0 8.46875 0.209875 8.46875 0.46875V1.45319C9.5394 1.67041 10.3453 2.61684 10.3453 3.75156Z" fill="black" fill-opacity="0.2"/>
</g>
<defs>
<clipPath id="clip0_693_5341">
<rect width="16" height="16" fill="white"/>
</clipPath>
</defs>
</svg>
