<svg width="24" height="24" viewBox="0 0 24 24" fill="none" xmlns="http://www.w3.org/2000/svg">
<path fill-rule="evenodd" clip-rule="evenodd" d="M14.0774 0.670223C12.3611 0.328668 10.5821 0.503564 8.96527 1.17282C7.3484 1.84207 5.96627 2.97563 4.9935 4.43022C4.02071 5.88481 3.50094 7.59514 3.49996 9.34504L3.50004 9.35147C3.51458 10.5334 3.76403 11.7007 4.23387 12.7853C4.67423 13.8112 5.21315 14.7919 5.84315 15.7135L5.85971 15.7371L11.107 22.8298C11.2419 23.0323 11.4242 23.1988 11.6382 23.3148C11.857 23.4335 12.102 23.4957 12.351 23.4957C12.5999 23.4957 12.8449 23.4335 13.0638 23.3148C13.2777 23.1988 13.4601 23.0323 13.595 22.8299L18.836 15.7458L18.8542 15.7201L18.8588 15.7135C19.4888 14.7918 20.0278 13.8111 20.4681 12.7852C20.938 11.7006 21.1875 10.5334 21.202 9.35145L21.202 9.34617C21.2039 8.18375 20.9756 7.03245 20.5301 5.95877C20.0847 4.88531 19.4311 3.91072 18.607 3.09124C17.3696 1.85423 15.7934 1.01173 14.0774 0.670223ZM7.34354 4.34336C8.67121 3.0157 10.4719 2.26982 12.3495 2.26982C14.2271 2.26982 16.0278 3.0157 17.3554 4.34336C18.6823 5.67024 19.4281 7.46958 19.429 9.34598C19.4157 10.2938 19.2143 11.2296 18.8364 12.099L18.8358 12.1004C18.442 13.0139 17.9611 13.8873 17.3995 14.7084L12.35 21.5373L7.29944 14.7084C6.738 13.8872 6.25702 13.0138 5.86313 12.1003L5.86257 12.0991C5.48475 11.2296 5.2833 10.2938 5.26996 9.34592C5.27086 7.46955 6.01667 5.67023 7.34354 4.34336ZM12.35 4.60156C11.4107 4.60156 10.4924 4.88011 9.71139 5.40199C8.93038 5.92388 8.32175 6.66564 7.96235 7.53345C7.60295 8.40128 7.50895 9.35621 7.69228 10.2775C7.87562 11.1987 8.32803 12.0449 8.9923 12.709C9.65657 13.3731 10.5028 13.8253 11.4241 14.0085C12.3454 14.1916 13.3003 14.0974 14.1681 13.7377C15.0358 13.3781 15.7775 12.7693 16.2991 11.9881C16.8208 11.207 17.0991 10.2887 17.0989 9.34945V9.34898C17.0974 8.09014 16.5966 6.88331 15.7064 5.99328C14.8162 5.10326 13.6093 4.60275 12.3504 4.60156H12.35ZM11.769 6.42978C12.3467 6.31488 12.9454 6.37385 13.4896 6.59925C14.0337 6.82465 14.4989 7.20635 14.8261 7.69607C15.1533 8.18574 15.3279 8.76144 15.3279 9.35039C15.3269 10.1399 15.0128 10.8969 14.4545 11.4552C13.8962 12.0135 13.1393 12.3275 12.3498 12.3286C11.7608 12.3285 11.1851 12.1539 10.6954 11.8267C10.2057 11.4995 9.82405 11.0344 9.59865 10.4902C9.37325 9.94602 9.31426 9.34725 9.42916 8.76958C9.54407 8.1919 9.82769 7.66127 10.2442 7.2448C10.6606 6.82832 11.1913 6.54469 11.769 6.42978Z" fill="#333333"/>
<path fill-rule="evenodd" clip-rule="evenodd" d="M14.0774 0.670223C12.3611 0.328668 10.5821 0.503564 8.96527 1.17282C7.3484 1.84207 5.96627 2.97563 4.9935 4.43022C4.02071 5.88481 3.50094 7.59514 3.49996 9.34504L3.50004 9.35147C3.51458 10.5334 3.76403 11.7007 4.23387 12.7853C4.67423 13.8112 5.21315 14.7919 5.84315 15.7135L5.85971 15.7371L11.107 22.8298C11.2419 23.0323 11.4242 23.1988 11.6382 23.3148C11.857 23.4335 12.102 23.4957 12.351 23.4957C12.5999 23.4957 12.8449 23.4335 13.0638 23.3148C13.2777 23.1988 13.4601 23.0323 13.595 22.8299L18.836 15.7458L18.8542 15.7201L18.8588 15.7135C19.4888 14.7918 20.0278 13.8111 20.4681 12.7852C20.938 11.7006 21.1875 10.5334 21.202 9.35145L21.202 9.34617C21.2039 8.18375 20.9756 7.03245 20.5301 5.95877C20.0847 4.88531 19.4311 3.91072 18.607 3.09124C17.3696 1.85423 15.7934 1.01173 14.0774 0.670223ZM7.34354 4.34336C8.67121 3.0157 10.4719 2.26982 12.3495 2.26982C14.2271 2.26982 16.0278 3.0157 17.3554 4.34336C18.6823 5.67024 19.4281 7.46958 19.429 9.34598C19.4157 10.2938 19.2143 11.2296 18.8364 12.099L18.8358 12.1004C18.442 13.0139 17.9611 13.8873 17.3995 14.7084L12.35 21.5373L7.29944 14.7084C6.738 13.8872 6.25702 13.0138 5.86313 12.1003L5.86257 12.0991C5.48475 11.2296 5.2833 10.2938 5.26996 9.34592C5.27086 7.46955 6.01667 5.67023 7.34354 4.34336ZM12.35 4.60156C11.4107 4.60156 10.4924 4.88011 9.71139 5.40199C8.93038 5.92388 8.32175 6.66564 7.96235 7.53345C7.60295 8.40128 7.50895 9.35621 7.69228 10.2775C7.87562 11.1987 8.32803 12.0449 8.9923 12.709C9.65657 13.3731 10.5028 13.8253 11.4241 14.0085C12.3454 14.1916 13.3003 14.0974 14.1681 13.7377C15.0358 13.3781 15.7775 12.7693 16.2991 11.9881C16.8208 11.207 17.0991 10.2887 17.0989 9.34945V9.34898C17.0974 8.09014 16.5966 6.88331 15.7064 5.99328C14.8162 5.10326 13.6093 4.60275 12.3504 4.60156H12.35ZM11.769 6.42978C12.3467 6.31488 12.9454 6.37385 13.4896 6.59925C14.0337 6.82465 14.4989 7.20635 14.8261 7.69607C15.1533 8.18574 15.3279 8.76144 15.3279 9.35039C15.3269 10.1399 15.0128 10.8969 14.4545 11.4552C13.8962 12.0135 13.1393 12.3275 12.3498 12.3286C11.7608 12.3285 11.1851 12.1539 10.6954 11.8267C10.2057 11.4995 9.82405 11.0344 9.59865 10.4902C9.37325 9.94602 9.31426 9.34725 9.42916 8.76958C9.54407 8.1919 9.82769 7.66127 10.2442 7.2448C10.6606 6.82832 11.1913 6.54469 11.769 6.42978Z" fill="black" fill-opacity="0.2"/>
<path fill-rule="evenodd" clip-rule="evenodd" d="M14.0774 0.670223C12.3611 0.328668 10.5821 0.503564 8.96527 1.17282C7.3484 1.84207 5.96627 2.97563 4.9935 4.43022C4.02071 5.88481 3.50094 7.59514 3.49996 9.34504L3.50004 9.35147C3.51458 10.5334 3.76403 11.7007 4.23387 12.7853C4.67423 13.8112 5.21315 14.7919 5.84315 15.7135L5.85971 15.7371L11.107 22.8298C11.2419 23.0323 11.4242 23.1988 11.6382 23.3148C11.857 23.4335 12.102 23.4957 12.351 23.4957C12.5999 23.4957 12.8449 23.4335 13.0638 23.3148C13.2777 23.1988 13.4601 23.0323 13.595 22.8299L18.836 15.7458L18.8542 15.7201L18.8588 15.7135C19.4888 14.7918 20.0278 13.8111 20.4681 12.7852C20.938 11.7006 21.1875 10.5334 21.202 9.35145L21.202 9.34617C21.2039 8.18375 20.9756 7.03245 20.5301 5.95877C20.0847 4.88531 19.4311 3.91072 18.607 3.09124C17.3696 1.85423 15.7934 1.01173 14.0774 0.670223ZM7.34354 4.34336C8.67121 3.0157 10.4719 2.26982 12.3495 2.26982C14.2271 2.26982 16.0278 3.0157 17.3554 4.34336C18.6823 5.67024 19.4281 7.46958 19.429 9.34598C19.4157 10.2938 19.2143 11.2296 18.8364 12.099L18.8358 12.1004C18.442 13.0139 17.9611 13.8873 17.3995 14.7084L12.35 21.5373L7.29944 14.7084C6.738 13.8872 6.25702 13.0138 5.86313 12.1003L5.86257 12.0991C5.48475 11.2296 5.2833 10.2938 5.26996 9.34592C5.27086 7.46955 6.01667 5.67023 7.34354 4.34336ZM12.35 4.60156C11.4107 4.60156 10.4924 4.88011 9.71139 5.40199C8.93038 5.92388 8.32175 6.66564 7.96235 7.53345C7.60295 8.40128 7.50895 9.35621 7.69228 10.2775C7.87562 11.1987 8.32803 12.0449 8.9923 12.709C9.65657 13.3731 10.5028 13.8253 11.4241 14.0085C12.3454 14.1916 13.3003 14.0974 14.1681 13.7377C15.0358 13.3781 15.7775 12.7693 16.2991 11.9881C16.8208 11.207 17.0991 10.2887 17.0989 9.34945V9.34898C17.0974 8.09014 16.5966 6.88331 15.7064 5.99328C14.8162 5.10326 13.6093 4.60275 12.3504 4.60156H12.35ZM11.769 6.42978C12.3467 6.31488 12.9454 6.37385 13.4896 6.59925C14.0337 6.82465 14.4989 7.20635 14.8261 7.69607C15.1533 8.18574 15.3279 8.76144 15.3279 9.35039C15.3269 10.1399 15.0128 10.8969 14.4545 11.4552C13.8962 12.0135 13.1393 12.3275 12.3498 12.3286C11.7608 12.3285 11.1851 12.1539 10.6954 11.8267C10.2057 11.4995 9.82405 11.0344 9.59865 10.4902C9.37325 9.94602 9.31426 9.34725 9.42916 8.76958C9.54407 8.1919 9.82769 7.66127 10.2442 7.2448C10.6606 6.82832 11.1913 6.54469 11.769 6.42978Z" fill="black" fill-opacity="0.2"/>
<path fill-rule="evenodd" clip-rule="evenodd" d="M14.0774 0.670223C12.3611 0.328668 10.5821 0.503564 8.96527 1.17282C7.3484 1.84207 5.96627 2.97563 4.9935 4.43022C4.02071 5.88481 3.50094 7.59514 3.49996 9.34504L3.50004 9.35147C3.51458 10.5334 3.76403 11.7007 4.23387 12.7853C4.67423 13.8112 5.21315 14.7919 5.84315 15.7135L5.85971 15.7371L11.107 22.8298C11.2419 23.0323 11.4242 23.1988 11.6382 23.3148C11.857 23.4335 12.102 23.4957 12.351 23.4957C12.5999 23.4957 12.8449 23.4335 13.0638 23.3148C13.2777 23.1988 13.4601 23.0323 13.595 22.8299L18.836 15.7458L18.8542 15.7201L18.8588 15.7135C19.4888 14.7918 20.0278 13.8111 20.4681 12.7852C20.938 11.7006 21.1875 10.5334 21.202 9.35145L21.202 9.34617C21.2039 8.18375 20.9756 7.03245 20.5301 5.95877C20.0847 4.88531 19.4311 3.91072 18.607 3.09124C17.3696 1.85423 15.7934 1.01173 14.0774 0.670223ZM7.34354 4.34336C8.67121 3.0157 10.4719 2.26982 12.3495 2.26982C14.2271 2.26982 16.0278 3.0157 17.3554 4.34336C18.6823 5.67024 19.4281 7.46958 19.429 9.34598C19.4157 10.2938 19.2143 11.2296 18.8364 12.099L18.8358 12.1004C18.442 13.0139 17.9611 13.8873 17.3995 14.7084L12.35 21.5373L7.29944 14.7084C6.738 13.8872 6.25702 13.0138 5.86313 12.1003L5.86257 12.0991C5.48475 11.2296 5.2833 10.2938 5.26996 9.34592C5.27086 7.46955 6.01667 5.67023 7.34354 4.34336ZM12.35 4.60156C11.4107 4.60156 10.4924 4.88011 9.71139 5.40199C8.93038 5.92388 8.32175 6.66564 7.96235 7.53345C7.60295 8.40128 7.50895 9.35621 7.69228 10.2775C7.87562 11.1987 8.32803 12.0449 8.9923 12.709C9.65657 13.3731 10.5028 13.8253 11.4241 14.0085C12.3454 14.1916 13.3003 14.0974 14.1681 13.7377C15.0358 13.3781 15.7775 12.7693 16.2991 11.9881C16.8208 11.207 17.0991 10.2887 17.0989 9.34945V9.34898C17.0974 8.09014 16.5966 6.88331 15.7064 5.99328C14.8162 5.10326 13.6093 4.60275 12.3504 4.60156H12.35ZM11.769 6.42978C12.3467 6.31488 12.9454 6.37385 13.4896 6.59925C14.0337 6.82465 14.4989 7.20635 14.8261 7.69607C15.1533 8.18574 15.3279 8.76144 15.3279 9.35039C15.3269 10.1399 15.0128 10.8969 14.4545 11.4552C13.8962 12.0135 13.1393 12.3275 12.3498 12.3286C11.7608 12.3285 11.1851 12.1539 10.6954 11.8267C10.2057 11.4995 9.82405 11.0344 9.59865 10.4902C9.37325 9.94602 9.31426 9.34725 9.42916 8.76958C9.54407 8.1919 9.82769 7.66127 10.2442 7.2448C10.6606 6.82832 11.1913 6.54469 11.769 6.42978Z" fill="black" fill-opacity="0.2"/>
<path fill-rule="evenodd" clip-rule="evenodd" d="M14.0774 0.670223C12.3611 0.328668 10.5821 0.503564 8.96527 1.17282C7.3484 1.84207 5.96627 2.97563 4.9935 4.43022C4.02071 5.88481 3.50094 7.59514 3.49996 9.34504L3.50004 9.35147C3.51458 10.5334 3.76403 11.7007 4.23387 12.7853C4.67423 13.8112 5.21315 14.7919 5.84315 15.7135L5.85971 15.7371L11.107 22.8298C11.2419 23.0323 11.4242 23.1988 11.6382 23.3148C11.857 23.4335 12.102 23.4957 12.351 23.4957C12.5999 23.4957 12.8449 23.4335 13.0638 23.3148C13.2777 23.1988 13.4601 23.0323 13.595 22.8299L18.836 15.7458L18.8542 15.7201L18.8588 15.7135C19.4888 14.7918 20.0278 13.8111 20.4681 12.7852C20.938 11.7006 21.1875 10.5334 21.202 9.35145L21.202 9.34617C21.2039 8.18375 20.9756 7.03245 20.5301 5.95877C20.0847 4.88531 19.4311 3.91072 18.607 3.09124C17.3696 1.85423 15.7934 1.01173 14.0774 0.670223ZM7.34354 4.34336C8.67121 3.0157 10.4719 2.26982 12.3495 2.26982C14.2271 2.26982 16.0278 3.0157 17.3554 4.34336C18.6823 5.67024 19.4281 7.46958 19.429 9.34598C19.4157 10.2938 19.2143 11.2296 18.8364 12.099L18.8358 12.1004C18.442 13.0139 17.9611 13.8873 17.3995 14.7084L12.35 21.5373L7.29944 14.7084C6.738 13.8872 6.25702 13.0138 5.86313 12.1003L5.86257 12.0991C5.48475 11.2296 5.2833 10.2938 5.26996 9.34592C5.27086 7.46955 6.01667 5.67023 7.34354 4.34336ZM12.35 4.60156C11.4107 4.60156 10.4924 4.88011 9.71139 5.40199C8.93038 5.92388 8.32175 6.66564 7.96235 7.53345C7.60295 8.40128 7.50895 9.35621 7.69228 10.2775C7.87562 11.1987 8.32803 12.0449 8.9923 12.709C9.65657 13.3731 10.5028 13.8253 11.4241 14.0085C12.3454 14.1916 13.3003 14.0974 14.1681 13.7377C15.0358 13.3781 15.7775 12.7693 16.2991 11.9881C16.8208 11.207 17.0991 10.2887 17.0989 9.34945V9.34898C17.0974 8.09014 16.5966 6.88331 15.7064 5.99328C14.8162 5.10326 13.6093 4.60275 12.3504 4.60156H12.35ZM11.769 6.42978C12.3467 6.31488 12.9454 6.37385 13.4896 6.59925C14.0337 6.82465 14.4989 7.20635 14.8261 7.69607C15.1533 8.18574 15.3279 8.76144 15.3279 9.35039C15.3269 10.1399 15.0128 10.8969 14.4545 11.4552C13.8962 12.0135 13.1393 12.3275 12.3498 12.3286C11.7608 12.3285 11.1851 12.1539 10.6954 11.8267C10.2057 11.4995 9.82405 11.0344 9.59865 10.4902C9.37325 9.94602 9.31426 9.34725 9.42916 8.76958C9.54407 8.1919 9.82769 7.66127 10.2442 7.2448C10.6606 6.82832 11.1913 6.54469 11.769 6.42978Z" fill="black" fill-opacity="0.2"/>
<path fill-rule="evenodd" clip-rule="evenodd" d="M14.0774 0.670223C12.3611 0.328668 10.5821 0.503564 8.96527 1.17282C7.3484 1.84207 5.96627 2.97563 4.9935 4.43022C4.02071 5.88481 3.50094 7.59514 3.49996 9.34504L3.50004 9.35147C3.51458 10.5334 3.76403 11.7007 4.23387 12.7853C4.67423 13.8112 5.21315 14.7919 5.84315 15.7135L5.85971 15.7371L11.107 22.8298C11.2419 23.0323 11.4242 23.1988 11.6382 23.3148C11.857 23.4335 12.102 23.4957 12.351 23.4957C12.5999 23.4957 12.8449 23.4335 13.0638 23.3148C13.2777 23.1988 13.4601 23.0323 13.595 22.8299L18.836 15.7458L18.8542 15.7201L18.8588 15.7135C19.4888 14.7918 20.0278 13.8111 20.4681 12.7852C20.938 11.7006 21.1875 10.5334 21.202 9.35145L21.202 9.34617C21.2039 8.18375 20.9756 7.03245 20.5301 5.95877C20.0847 4.88531 19.4311 3.91072 18.607 3.09124C17.3696 1.85423 15.7934 1.01173 14.0774 0.670223ZM7.34354 4.34336C8.67121 3.0157 10.4719 2.26982 12.3495 2.26982C14.2271 2.26982 16.0278 3.0157 17.3554 4.34336C18.6823 5.67024 19.4281 7.46958 19.429 9.34598C19.4157 10.2938 19.2143 11.2296 18.8364 12.099L18.8358 12.1004C18.442 13.0139 17.9611 13.8873 17.3995 14.7084L12.35 21.5373L7.29944 14.7084C6.738 13.8872 6.25702 13.0138 5.86313 12.1003L5.86257 12.0991C5.48475 11.2296 5.2833 10.2938 5.26996 9.34592C5.27086 7.46955 6.01667 5.67023 7.34354 4.34336ZM12.35 4.60156C11.4107 4.60156 10.4924 4.88011 9.71139 5.40199C8.93038 5.92388 8.32175 6.66564 7.96235 7.53345C7.60295 8.40128 7.50895 9.35621 7.69228 10.2775C7.87562 11.1987 8.32803 12.0449 8.9923 12.709C9.65657 13.3731 10.5028 13.8253 11.4241 14.0085C12.3454 14.1916 13.3003 14.0974 14.1681 13.7377C15.0358 13.3781 15.7775 12.7693 16.2991 11.9881C16.8208 11.207 17.0991 10.2887 17.0989 9.34945V9.34898C17.0974 8.09014 16.5966 6.88331 15.7064 5.99328C14.8162 5.10326 13.6093 4.60275 12.3504 4.60156H12.35ZM11.769 6.42978C12.3467 6.31488 12.9454 6.37385 13.4896 6.59925C14.0337 6.82465 14.4989 7.20635 14.8261 7.69607C15.1533 8.18574 15.3279 8.76144 15.3279 9.35039C15.3269 10.1399 15.0128 10.8969 14.4545 11.4552C13.8962 12.0135 13.1393 12.3275 12.3498 12.3286C11.7608 12.3285 11.1851 12.1539 10.6954 11.8267C10.2057 11.4995 9.82405 11.0344 9.59865 10.4902C9.37325 9.94602 9.31426 9.34725 9.42916 8.76958C9.54407 8.1919 9.82769 7.66127 10.2442 7.2448C10.6606 6.82832 11.1913 6.54469 11.769 6.42978Z" fill="black" fill-opacity="0.2"/>
</svg>
