<svg width="32" height="32" viewBox="0 0 32 32" fill="none" xmlns="http://www.w3.org/2000/svg">
<g clip-path="url(#clip0_314_211)">
<path fill-rule="evenodd" clip-rule="evenodd" d="M2.69665 24.8894C0.938443 22.2581 0 19.1646 0 16C0.00063119 11.7571 1.68622 7.68821 4.68615 4.68783C7.68608 1.68745 11.7548 0.00126211 15.9976 0C19.1622 -0.000471589 22.2559 0.937509 24.8874 2.69533C27.5189 4.45314 29.57 6.95184 30.7814 9.87541C31.9928 12.799 32.3099 16.0161 31.6928 19.12C31.0758 22.2238 29.5521 25.075 27.3145 27.3129C25.077 29.5507 22.2261 31.0748 19.1223 31.6924C16.0186 32.3099 12.8014 31.9932 9.87761 30.7823C6.95386 29.5714 4.45486 27.5206 2.69665 24.8894ZM23.4084 15.9439L10.9982 4.88033L9.00183 7.11967L18.8524 15.9014L9.02291 24.3402L10.9771 26.6164L23.4084 15.9439Z" fill="black"/>
<path fill-rule="evenodd" clip-rule="evenodd" d="M2.69665 24.8894C0.938443 22.2581 0 19.1646 0 16C0.00063119 11.7571 1.68622 7.68821 4.68615 4.68783C7.68608 1.68745 11.7548 0.00126211 15.9976 0C19.1622 -0.000471589 22.2559 0.937509 24.8874 2.69533C27.5189 4.45314 29.57 6.95184 30.7814 9.87541C31.9928 12.799 32.3099 16.0161 31.6928 19.12C31.0758 22.2238 29.5521 25.075 27.3145 27.3129C25.077 29.5507 22.2261 31.0748 19.1223 31.6924C16.0186 32.3099 12.8014 31.9932 9.87761 30.7823C6.95386 29.5714 4.45486 27.5206 2.69665 24.8894ZM23.4084 15.9439L10.9982 4.88033L9.00183 7.11967L18.8524 15.9014L9.02291 24.3402L10.9771 26.6164L23.4084 15.9439Z" fill="black" fill-opacity="0.2"/>
<path fill-rule="evenodd" clip-rule="evenodd" d="M2.69665 24.8894C0.938443 22.2581 0 19.1646 0 16C0.00063119 11.7571 1.68622 7.68821 4.68615 4.68783C7.68608 1.68745 11.7548 0.00126211 15.9976 0C19.1622 -0.000471589 22.2559 0.937509 24.8874 2.69533C27.5189 4.45314 29.57 6.95184 30.7814 9.87541C31.9928 12.799 32.3099 16.0161 31.6928 19.12C31.0758 22.2238 29.5521 25.075 27.3145 27.3129C25.077 29.5507 22.2261 31.0748 19.1223 31.6924C16.0186 32.3099 12.8014 31.9932 9.87761 30.7823C6.95386 29.5714 4.45486 27.5206 2.69665 24.8894ZM23.4084 15.9439L10.9982 4.88033L9.00183 7.11967L18.8524 15.9014L9.02291 24.3402L10.9771 26.6164L23.4084 15.9439Z" fill="black" fill-opacity="0.2"/>
<path fill-rule="evenodd" clip-rule="evenodd" d="M2.69665 24.8894C0.938443 22.2581 0 19.1646 0 16C0.00063119 11.7571 1.68622 7.68821 4.68615 4.68783C7.68608 1.68745 11.7548 0.00126211 15.9976 0C19.1622 -0.000471589 22.2559 0.937509 24.8874 2.69533C27.5189 4.45314 29.57 6.95184 30.7814 9.87541C31.9928 12.799 32.3099 16.0161 31.6928 19.12C31.0758 22.2238 29.5521 25.075 27.3145 27.3129C25.077 29.5507 22.2261 31.0748 19.1223 31.6924C16.0186 32.3099 12.8014 31.9932 9.87761 30.7823C6.95386 29.5714 4.45486 27.5206 2.69665 24.8894ZM23.4084 15.9439L10.9982 4.88033L9.00183 7.11967L18.8524 15.9014L9.02291 24.3402L10.9771 26.6164L23.4084 15.9439Z" fill="black" fill-opacity="0.2"/>
<path fill-rule="evenodd" clip-rule="evenodd" d="M2.69665 24.8894C0.938443 22.2581 0 19.1646 0 16C0.00063119 11.7571 1.68622 7.68821 4.68615 4.68783C7.68608 1.68745 11.7548 0.00126211 15.9976 0C19.1622 -0.000471589 22.2559 0.937509 24.8874 2.69533C27.5189 4.45314 29.57 6.95184 30.7814 9.87541C31.9928 12.799 32.3099 16.0161 31.6928 19.12C31.0758 22.2238 29.5521 25.075 27.3145 27.3129C25.077 29.5507 22.2261 31.0748 19.1223 31.6924C16.0186 32.3099 12.8014 31.9932 9.87761 30.7823C6.95386 29.5714 4.45486 27.5206 2.69665 24.8894ZM23.4084 15.9439L10.9982 4.88033L9.00183 7.11967L18.8524 15.9014L9.02291 24.3402L10.9771 26.6164L23.4084 15.9439Z" fill="black" fill-opacity="0.2"/>
<path fill-rule="evenodd" clip-rule="evenodd" d="M2.69665 24.8894C0.938443 22.2581 0 19.1646 0 16C0.00063119 11.7571 1.68622 7.68821 4.68615 4.68783C7.68608 1.68745 11.7548 0.00126211 15.9976 0C19.1622 -0.000471589 22.2559 0.937509 24.8874 2.69533C27.5189 4.45314 29.57 6.95184 30.7814 9.87541C31.9928 12.799 32.3099 16.0161 31.6928 19.12C31.0758 22.2238 29.5521 25.075 27.3145 27.3129C25.077 29.5507 22.2261 31.0748 19.1223 31.6924C16.0186 32.3099 12.8014 31.9932 9.87761 30.7823C6.95386 29.5714 4.45486 27.5206 2.69665 24.8894ZM23.4084 15.9439L10.9982 4.88033L9.00183 7.11967L18.8524 15.9014L9.02291 24.3402L10.9771 26.6164L23.4084 15.9439Z" fill="black" fill-opacity="0.2"/>
<path fill-rule="evenodd" clip-rule="evenodd" d="M2.69665 24.8894C0.938443 22.2581 0 19.1646 0 16C0.00063119 11.7571 1.68622 7.68821 4.68615 4.68783C7.68608 1.68745 11.7548 0.00126211 15.9976 0C19.1622 -0.000471589 22.2559 0.937509 24.8874 2.69533C27.5189 4.45314 29.57 6.95184 30.7814 9.87541C31.9928 12.799 32.3099 16.0161 31.6928 19.12C31.0758 22.2238 29.5521 25.075 27.3145 27.3129C25.077 29.5507 22.2261 31.0748 19.1223 31.6924C16.0186 32.3099 12.8014 31.9932 9.87761 30.7823C6.95386 29.5714 4.45486 27.5206 2.69665 24.8894ZM23.4084 15.9439L10.9982 4.88033L9.00183 7.11967L18.8524 15.9014L9.02291 24.3402L10.9771 26.6164L23.4084 15.9439Z" fill="black" fill-opacity="0.2"/>
<path fill-rule="evenodd" clip-rule="evenodd" d="M2.69665 24.8894C0.938443 22.2581 0 19.1646 0 16C0.00063119 11.7571 1.68622 7.68821 4.68615 4.68783C7.68608 1.68745 11.7548 0.00126211 15.9976 0C19.1622 -0.000471589 22.2559 0.937509 24.8874 2.69533C27.5189 4.45314 29.57 6.95184 30.7814 9.87541C31.9928 12.799 32.3099 16.0161 31.6928 19.12C31.0758 22.2238 29.5521 25.075 27.3145 27.3129C25.077 29.5507 22.2261 31.0748 19.1223 31.6924C16.0186 32.3099 12.8014 31.9932 9.87761 30.7823C6.95386 29.5714 4.45486 27.5206 2.69665 24.8894ZM23.4084 15.9439L10.9982 4.88033L9.00183 7.11967L18.8524 15.9014L9.02291 24.3402L10.9771 26.6164L23.4084 15.9439Z" fill="black" fill-opacity="0.2"/>
<path fill-rule="evenodd" clip-rule="evenodd" d="M2.69665 24.8894C0.938443 22.2581 0 19.1646 0 16C0.00063119 11.7571 1.68622 7.68821 4.68615 4.68783C7.68608 1.68745 11.7548 0.00126211 15.9976 0C19.1622 -0.000471589 22.2559 0.937509 24.8874 2.69533C27.5189 4.45314 29.57 6.95184 30.7814 9.87541C31.9928 12.799 32.3099 16.0161 31.6928 19.12C31.0758 22.2238 29.5521 25.075 27.3145 27.3129C25.077 29.5507 22.2261 31.0748 19.1223 31.6924C16.0186 32.3099 12.8014 31.9932 9.87761 30.7823C6.95386 29.5714 4.45486 27.5206 2.69665 24.8894ZM23.4084 15.9439L10.9982 4.88033L9.00183 7.11967L18.8524 15.9014L9.02291 24.3402L10.9771 26.6164L23.4084 15.9439Z" fill="black" fill-opacity="0.2"/>
<path fill-rule="evenodd" clip-rule="evenodd" d="M2.69665 24.8894C0.938443 22.2581 0 19.1646 0 16C0.00063119 11.7571 1.68622 7.68821 4.68615 4.68783C7.68608 1.68745 11.7548 0.00126211 15.9976 0C19.1622 -0.000471589 22.2559 0.937509 24.8874 2.69533C27.5189 4.45314 29.57 6.95184 30.7814 9.87541C31.9928 12.799 32.3099 16.0161 31.6928 19.12C31.0758 22.2238 29.5521 25.075 27.3145 27.3129C25.077 29.5507 22.2261 31.0748 19.1223 31.6924C16.0186 32.3099 12.8014 31.9932 9.87761 30.7823C6.95386 29.5714 4.45486 27.5206 2.69665 24.8894ZM23.4084 15.9439L10.9982 4.88033L9.00183 7.11967L18.8524 15.9014L9.02291 24.3402L10.9771 26.6164L23.4084 15.9439Z" fill="black" fill-opacity="0.2"/>
</g>
<defs>
<clipPath id="clip0_314_211">
<rect width="32" height="32" fill="white"/>
</clipPath>
</defs>
</svg>
