<svg width="24" height="24" viewBox="0 0 24 24" fill="none" xmlns="http://www.w3.org/2000/svg">
<path d="M14.5915 11.9994L22.4113 4.18127C22.7314 3.83331 22.9045 3.37516 22.8946 2.90256C22.8847 2.42995 22.6925 1.97946 22.3582 1.6452C22.0239 1.31094 21.5733 1.11879 21.1006 1.10889C20.6279 1.099 20.1696 1.27212 19.8216 1.59209L12.0018 9.41023L4.18195 1.59209C4.01466 1.4102 3.8123 1.26402 3.58705 1.16234C3.36179 1.06066 3.11829 1.00558 2.8712 1.0004C2.6241 0.995228 2.37851 1.04007 2.1492 1.13224C1.91988 1.2244 1.71158 1.36198 1.53682 1.53671C1.36206 1.71143 1.22445 1.91969 1.13227 2.14895C1.04008 2.37822 0.995227 2.62376 1.0004 2.8708C1.00558 3.11784 1.06067 3.36129 1.16238 3.58649C1.26408 3.8117 1.41029 4.01401 1.59222 4.18127L9.41203 11.9994L1.58868 19.8187C1.26865 20.1667 1.09549 20.6248 1.10539 21.0974C1.11529 21.57 1.30748 22.0205 1.64181 22.3548C1.97613 22.6891 2.42673 22.8812 2.89943 22.8911C3.37214 22.901 3.83039 22.7279 4.17842 22.4079L11.9982 14.5898L19.8181 22.4079C19.9853 22.5898 20.1877 22.736 20.413 22.8377C20.6382 22.9393 20.8817 22.9944 21.1288 22.9996C21.3759 23.0048 21.6215 22.9599 21.8508 22.8678C22.0801 22.7756 22.2884 22.638 22.4632 22.4633C22.6379 22.2886 22.7756 22.0803 22.8677 21.851C22.9599 21.6218 23.0048 21.3762 22.9996 21.1292C22.9944 20.8822 22.9393 20.6387 22.8376 20.4135C22.7359 20.1883 22.5897 19.986 22.4078 19.8187L14.5915 11.9994Z" fill="black"/>
<path d="M14.5915 11.9994L22.4113 4.18127C22.7314 3.83331 22.9045 3.37516 22.8946 2.90256C22.8847 2.42995 22.6925 1.97946 22.3582 1.6452C22.0239 1.31094 21.5733 1.11879 21.1006 1.10889C20.6279 1.099 20.1696 1.27212 19.8216 1.59209L12.0018 9.41023L4.18195 1.59209C4.01466 1.4102 3.8123 1.26402 3.58705 1.16234C3.36179 1.06066 3.11829 1.00558 2.8712 1.0004C2.6241 0.995228 2.37851 1.04007 2.1492 1.13224C1.91988 1.2244 1.71158 1.36198 1.53682 1.53671C1.36206 1.71143 1.22445 1.91969 1.13227 2.14895C1.04008 2.37822 0.995227 2.62376 1.0004 2.8708C1.00558 3.11784 1.06067 3.36129 1.16238 3.58649C1.26408 3.8117 1.41029 4.01401 1.59222 4.18127L9.41203 11.9994L1.58868 19.8187C1.26865 20.1667 1.09549 20.6248 1.10539 21.0974C1.11529 21.57 1.30748 22.0205 1.64181 22.3548C1.97613 22.6891 2.42673 22.8812 2.89943 22.8911C3.37214 22.901 3.83039 22.7279 4.17842 22.4079L11.9982 14.5898L19.8181 22.4079C19.9853 22.5898 20.1877 22.736 20.413 22.8377C20.6382 22.9393 20.8817 22.9944 21.1288 22.9996C21.3759 23.0048 21.6215 22.9599 21.8508 22.8678C22.0801 22.7756 22.2884 22.638 22.4632 22.4633C22.6379 22.2886 22.7756 22.0803 22.8677 21.851C22.9599 21.6218 23.0048 21.3762 22.9996 21.1292C22.9944 20.8822 22.9393 20.6387 22.8376 20.4135C22.7359 20.1883 22.5897 19.986 22.4078 19.8187L14.5915 11.9994Z" fill="black" fill-opacity="0.2"/>
<path d="M14.5915 11.9994L22.4113 4.18127C22.7314 3.83331 22.9045 3.37516 22.8946 2.90256C22.8847 2.42995 22.6925 1.97946 22.3582 1.6452C22.0239 1.31094 21.5733 1.11879 21.1006 1.10889C20.6279 1.099 20.1696 1.27212 19.8216 1.59209L12.0018 9.41023L4.18195 1.59209C4.01466 1.4102 3.8123 1.26402 3.58705 1.16234C3.36179 1.06066 3.11829 1.00558 2.8712 1.0004C2.6241 0.995228 2.37851 1.04007 2.1492 1.13224C1.91988 1.2244 1.71158 1.36198 1.53682 1.53671C1.36206 1.71143 1.22445 1.91969 1.13227 2.14895C1.04008 2.37822 0.995227 2.62376 1.0004 2.8708C1.00558 3.11784 1.06067 3.36129 1.16238 3.58649C1.26408 3.8117 1.41029 4.01401 1.59222 4.18127L9.41203 11.9994L1.58868 19.8187C1.26865 20.1667 1.09549 20.6248 1.10539 21.0974C1.11529 21.57 1.30748 22.0205 1.64181 22.3548C1.97613 22.6891 2.42673 22.8812 2.89943 22.8911C3.37214 22.901 3.83039 22.7279 4.17842 22.4079L11.9982 14.5898L19.8181 22.4079C19.9853 22.5898 20.1877 22.736 20.413 22.8377C20.6382 22.9393 20.8817 22.9944 21.1288 22.9996C21.3759 23.0048 21.6215 22.9599 21.8508 22.8678C22.0801 22.7756 22.2884 22.638 22.4632 22.4633C22.6379 22.2886 22.7756 22.0803 22.8677 21.851C22.9599 21.6218 23.0048 21.3762 22.9996 21.1292C22.9944 20.8822 22.9393 20.6387 22.8376 20.4135C22.7359 20.1883 22.5897 19.986 22.4078 19.8187L14.5915 11.9994Z" fill="black" fill-opacity="0.2"/>
<path d="M14.5915 11.9994L22.4113 4.18127C22.7314 3.83331 22.9045 3.37516 22.8946 2.90256C22.8847 2.42995 22.6925 1.97946 22.3582 1.6452C22.0239 1.31094 21.5733 1.11879 21.1006 1.10889C20.6279 1.099 20.1696 1.27212 19.8216 1.59209L12.0018 9.41023L4.18195 1.59209C4.01466 1.4102 3.8123 1.26402 3.58705 1.16234C3.36179 1.06066 3.11829 1.00558 2.8712 1.0004C2.6241 0.995228 2.37851 1.04007 2.1492 1.13224C1.91988 1.2244 1.71158 1.36198 1.53682 1.53671C1.36206 1.71143 1.22445 1.91969 1.13227 2.14895C1.04008 2.37822 0.995227 2.62376 1.0004 2.8708C1.00558 3.11784 1.06067 3.36129 1.16238 3.58649C1.26408 3.8117 1.41029 4.01401 1.59222 4.18127L9.41203 11.9994L1.58868 19.8187C1.26865 20.1667 1.09549 20.6248 1.10539 21.0974C1.11529 21.57 1.30748 22.0205 1.64181 22.3548C1.97613 22.6891 2.42673 22.8812 2.89943 22.8911C3.37214 22.901 3.83039 22.7279 4.17842 22.4079L11.9982 14.5898L19.8181 22.4079C19.9853 22.5898 20.1877 22.736 20.413 22.8377C20.6382 22.9393 20.8817 22.9944 21.1288 22.9996C21.3759 23.0048 21.6215 22.9599 21.8508 22.8678C22.0801 22.7756 22.2884 22.638 22.4632 22.4633C22.6379 22.2886 22.7756 22.0803 22.8677 21.851C22.9599 21.6218 23.0048 21.3762 22.9996 21.1292C22.9944 20.8822 22.9393 20.6387 22.8376 20.4135C22.7359 20.1883 22.5897 19.986 22.4078 19.8187L14.5915 11.9994Z" fill="black" fill-opacity="0.2"/>
<path d="M14.5915 11.9994L22.4113 4.18127C22.7314 3.83331 22.9045 3.37516 22.8946 2.90256C22.8847 2.42995 22.6925 1.97946 22.3582 1.6452C22.0239 1.31094 21.5733 1.11879 21.1006 1.10889C20.6279 1.099 20.1696 1.27212 19.8216 1.59209L12.0018 9.41023L4.18195 1.59209C4.01466 1.4102 3.8123 1.26402 3.58705 1.16234C3.36179 1.06066 3.11829 1.00558 2.8712 1.0004C2.6241 0.995228 2.37851 1.04007 2.1492 1.13224C1.91988 1.2244 1.71158 1.36198 1.53682 1.53671C1.36206 1.71143 1.22445 1.91969 1.13227 2.14895C1.04008 2.37822 0.995227 2.62376 1.0004 2.8708C1.00558 3.11784 1.06067 3.36129 1.16238 3.58649C1.26408 3.8117 1.41029 4.01401 1.59222 4.18127L9.41203 11.9994L1.58868 19.8187C1.26865 20.1667 1.09549 20.6248 1.10539 21.0974C1.11529 21.57 1.30748 22.0205 1.64181 22.3548C1.97613 22.6891 2.42673 22.8812 2.89943 22.8911C3.37214 22.901 3.83039 22.7279 4.17842 22.4079L11.9982 14.5898L19.8181 22.4079C19.9853 22.5898 20.1877 22.736 20.413 22.8377C20.6382 22.9393 20.8817 22.9944 21.1288 22.9996C21.3759 23.0048 21.6215 22.9599 21.8508 22.8678C22.0801 22.7756 22.2884 22.638 22.4632 22.4633C22.6379 22.2886 22.7756 22.0803 22.8677 21.851C22.9599 21.6218 23.0048 21.3762 22.9996 21.1292C22.9944 20.8822 22.9393 20.6387 22.8376 20.4135C22.7359 20.1883 22.5897 19.986 22.4078 19.8187L14.5915 11.9994Z" fill="black" fill-opacity="0.2"/>
<path d="M14.5915 11.9994L22.4113 4.18127C22.7314 3.83331 22.9045 3.37516 22.8946 2.90256C22.8847 2.42995 22.6925 1.97946 22.3582 1.6452C22.0239 1.31094 21.5733 1.11879 21.1006 1.10889C20.6279 1.099 20.1696 1.27212 19.8216 1.59209L12.0018 9.41023L4.18195 1.59209C4.01466 1.4102 3.8123 1.26402 3.58705 1.16234C3.36179 1.06066 3.11829 1.00558 2.8712 1.0004C2.6241 0.995228 2.37851 1.04007 2.1492 1.13224C1.91988 1.2244 1.71158 1.36198 1.53682 1.53671C1.36206 1.71143 1.22445 1.91969 1.13227 2.14895C1.04008 2.37822 0.995227 2.62376 1.0004 2.8708C1.00558 3.11784 1.06067 3.36129 1.16238 3.58649C1.26408 3.8117 1.41029 4.01401 1.59222 4.18127L9.41203 11.9994L1.58868 19.8187C1.26865 20.1667 1.09549 20.6248 1.10539 21.0974C1.11529 21.57 1.30748 22.0205 1.64181 22.3548C1.97613 22.6891 2.42673 22.8812 2.89943 22.8911C3.37214 22.901 3.83039 22.7279 4.17842 22.4079L11.9982 14.5898L19.8181 22.4079C19.9853 22.5898 20.1877 22.736 20.413 22.8377C20.6382 22.9393 20.8817 22.9944 21.1288 22.9996C21.3759 23.0048 21.6215 22.9599 21.8508 22.8678C22.0801 22.7756 22.2884 22.638 22.4632 22.4633C22.6379 22.2886 22.7756 22.0803 22.8677 21.851C22.9599 21.6218 23.0048 21.3762 22.9996 21.1292C22.9944 20.8822 22.9393 20.6387 22.8376 20.4135C22.7359 20.1883 22.5897 19.986 22.4078 19.8187L14.5915 11.9994Z" fill="black" fill-opacity="0.2"/>
<path d="M14.5915 11.9994L22.4113 4.18127C22.7314 3.83331 22.9045 3.37516 22.8946 2.90256C22.8847 2.42995 22.6925 1.97946 22.3582 1.6452C22.0239 1.31094 21.5733 1.11879 21.1006 1.10889C20.6279 1.099 20.1696 1.27212 19.8216 1.59209L12.0018 9.41023L4.18195 1.59209C4.01466 1.4102 3.8123 1.26402 3.58705 1.16234C3.36179 1.06066 3.11829 1.00558 2.8712 1.0004C2.6241 0.995228 2.37851 1.04007 2.1492 1.13224C1.91988 1.2244 1.71158 1.36198 1.53682 1.53671C1.36206 1.71143 1.22445 1.91969 1.13227 2.14895C1.04008 2.37822 0.995227 2.62376 1.0004 2.8708C1.00558 3.11784 1.06067 3.36129 1.16238 3.58649C1.26408 3.8117 1.41029 4.01401 1.59222 4.18127L9.41203 11.9994L1.58868 19.8187C1.26865 20.1667 1.09549 20.6248 1.10539 21.0974C1.11529 21.57 1.30748 22.0205 1.64181 22.3548C1.97613 22.6891 2.42673 22.8812 2.89943 22.8911C3.37214 22.901 3.83039 22.7279 4.17842 22.4079L11.9982 14.5898L19.8181 22.4079C19.9853 22.5898 20.1877 22.736 20.413 22.8377C20.6382 22.9393 20.8817 22.9944 21.1288 22.9996C21.3759 23.0048 21.6215 22.9599 21.8508 22.8678C22.0801 22.7756 22.2884 22.638 22.4632 22.4633C22.6379 22.2886 22.7756 22.0803 22.8677 21.851C22.9599 21.6218 23.0048 21.3762 22.9996 21.1292C22.9944 20.8822 22.9393 20.6387 22.8376 20.4135C22.7359 20.1883 22.5897 19.986 22.4078 19.8187L14.5915 11.9994Z" fill="black" fill-opacity="0.2"/>
<path d="M14.5915 11.9994L22.4113 4.18127C22.7314 3.83331 22.9045 3.37516 22.8946 2.90256C22.8847 2.42995 22.6925 1.97946 22.3582 1.6452C22.0239 1.31094 21.5733 1.11879 21.1006 1.10889C20.6279 1.099 20.1696 1.27212 19.8216 1.59209L12.0018 9.41023L4.18195 1.59209C4.01466 1.4102 3.8123 1.26402 3.58705 1.16234C3.36179 1.06066 3.11829 1.00558 2.8712 1.0004C2.6241 0.995228 2.37851 1.04007 2.1492 1.13224C1.91988 1.2244 1.71158 1.36198 1.53682 1.53671C1.36206 1.71143 1.22445 1.91969 1.13227 2.14895C1.04008 2.37822 0.995227 2.62376 1.0004 2.8708C1.00558 3.11784 1.06067 3.36129 1.16238 3.58649C1.26408 3.8117 1.41029 4.01401 1.59222 4.18127L9.41203 11.9994L1.58868 19.8187C1.26865 20.1667 1.09549 20.6248 1.10539 21.0974C1.11529 21.57 1.30748 22.0205 1.64181 22.3548C1.97613 22.6891 2.42673 22.8812 2.89943 22.8911C3.37214 22.901 3.83039 22.7279 4.17842 22.4079L11.9982 14.5898L19.8181 22.4079C19.9853 22.5898 20.1877 22.736 20.413 22.8377C20.6382 22.9393 20.8817 22.9944 21.1288 22.9996C21.3759 23.0048 21.6215 22.9599 21.8508 22.8678C22.0801 22.7756 22.2884 22.638 22.4632 22.4633C22.6379 22.2886 22.7756 22.0803 22.8677 21.851C22.9599 21.6218 23.0048 21.3762 22.9996 21.1292C22.9944 20.8822 22.9393 20.6387 22.8376 20.4135C22.7359 20.1883 22.5897 19.986 22.4078 19.8187L14.5915 11.9994Z" fill="black" fill-opacity="0.2"/>
<path d="M14.5915 11.9994L22.4113 4.18127C22.7314 3.83331 22.9045 3.37516 22.8946 2.90256C22.8847 2.42995 22.6925 1.97946 22.3582 1.6452C22.0239 1.31094 21.5733 1.11879 21.1006 1.10889C20.6279 1.099 20.1696 1.27212 19.8216 1.59209L12.0018 9.41023L4.18195 1.59209C4.01466 1.4102 3.8123 1.26402 3.58705 1.16234C3.36179 1.06066 3.11829 1.00558 2.8712 1.0004C2.6241 0.995228 2.37851 1.04007 2.1492 1.13224C1.91988 1.2244 1.71158 1.36198 1.53682 1.53671C1.36206 1.71143 1.22445 1.91969 1.13227 2.14895C1.04008 2.37822 0.995227 2.62376 1.0004 2.8708C1.00558 3.11784 1.06067 3.36129 1.16238 3.58649C1.26408 3.8117 1.41029 4.01401 1.59222 4.18127L9.41203 11.9994L1.58868 19.8187C1.26865 20.1667 1.09549 20.6248 1.10539 21.0974C1.11529 21.57 1.30748 22.0205 1.64181 22.3548C1.97613 22.6891 2.42673 22.8812 2.89943 22.8911C3.37214 22.901 3.83039 22.7279 4.17842 22.4079L11.9982 14.5898L19.8181 22.4079C19.9853 22.5898 20.1877 22.736 20.413 22.8377C20.6382 22.9393 20.8817 22.9944 21.1288 22.9996C21.3759 23.0048 21.6215 22.9599 21.8508 22.8678C22.0801 22.7756 22.2884 22.638 22.4632 22.4633C22.6379 22.2886 22.7756 22.0803 22.8677 21.851C22.9599 21.6218 23.0048 21.3762 22.9996 21.1292C22.9944 20.8822 22.9393 20.6387 22.8376 20.4135C22.7359 20.1883 22.5897 19.986 22.4078 19.8187L14.5915 11.9994Z" fill="black" fill-opacity="0.2"/>
<path d="M14.5915 11.9994L22.4113 4.18127C22.7314 3.83331 22.9045 3.37516 22.8946 2.90256C22.8847 2.42995 22.6925 1.97946 22.3582 1.6452C22.0239 1.31094 21.5733 1.11879 21.1006 1.10889C20.6279 1.099 20.1696 1.27212 19.8216 1.59209L12.0018 9.41023L4.18195 1.59209C4.01466 1.4102 3.8123 1.26402 3.58705 1.16234C3.36179 1.06066 3.11829 1.00558 2.8712 1.0004C2.6241 0.995228 2.37851 1.04007 2.1492 1.13224C1.91988 1.2244 1.71158 1.36198 1.53682 1.53671C1.36206 1.71143 1.22445 1.91969 1.13227 2.14895C1.04008 2.37822 0.995227 2.62376 1.0004 2.8708C1.00558 3.11784 1.06067 3.36129 1.16238 3.58649C1.26408 3.8117 1.41029 4.01401 1.59222 4.18127L9.41203 11.9994L1.58868 19.8187C1.26865 20.1667 1.09549 20.6248 1.10539 21.0974C1.11529 21.57 1.30748 22.0205 1.64181 22.3548C1.97613 22.6891 2.42673 22.8812 2.89943 22.8911C3.37214 22.901 3.83039 22.7279 4.17842 22.4079L11.9982 14.5898L19.8181 22.4079C19.9853 22.5898 20.1877 22.736 20.413 22.8377C20.6382 22.9393 20.8817 22.9944 21.1288 22.9996C21.3759 23.0048 21.6215 22.9599 21.8508 22.8678C22.0801 22.7756 22.2884 22.638 22.4632 22.4633C22.6379 22.2886 22.7756 22.0803 22.8677 21.851C22.9599 21.6218 23.0048 21.3762 22.9996 21.1292C22.9944 20.8822 22.9393 20.6387 22.8376 20.4135C22.7359 20.1883 22.5897 19.986 22.4078 19.8187L14.5915 11.9994Z" fill="black" fill-opacity="0.2"/>
</svg>
