<svg width="24" height="24" viewBox="0 0 24 24" fill="none" xmlns="http://www.w3.org/2000/svg">
<mask id="path-1-inside-1_314_356" fill="white">
<path fill-rule="evenodd" clip-rule="evenodd" d="M12.9675 2H20.7787C21.0315 2.0003 21.2737 2.10087 21.4524 2.27956C21.6311 2.45826 21.7316 2.70053 21.7319 2.95325V20.9802C21.7316 21.2329 21.6311 21.4752 21.4524 21.6539C21.2737 21.8326 21.0315 21.9331 20.7787 21.9334H12.9675C12.7147 21.9334 12.4722 21.8331 12.2935 21.6543C12.1147 21.4755 12.0143 21.233 12.0143 20.9802C12.0143 20.7274 12.1147 20.485 12.2935 20.3062C12.4722 20.1275 12.7147 20.0271 12.9675 20.0271H19.8255V3.90649H12.9675C12.7147 3.90649 12.4722 3.80597 12.2935 3.62721C12.1147 3.44845 12.0143 3.20605 12.0143 2.95325C12.0143 2.70044 12.1147 2.45791 12.2935 2.27915C12.4722 2.10039 12.7147 2 12.9675 2ZM17.173 12.92H6.25427L8.8331 15.4977C8.92163 15.5862 8.99189 15.6913 9.0398 15.807C9.08771 15.9226 9.11235 16.0467 9.11235 16.1719C9.11235 16.2971 9.08771 16.4211 9.0398 16.5368C8.99189 16.6524 8.92163 16.7575 8.8331 16.846C8.74457 16.9346 8.6395 17.0047 8.52383 17.0526C8.40816 17.1005 8.28417 17.1253 8.15897 17.1253C8.03377 17.1253 7.90981 17.1005 7.79414 17.0526C7.67847 17.0047 7.57336 16.9346 7.48484 16.846L3.27922 12.6392C3.1907 12.5508 3.12046 12.4458 3.07255 12.3302C3.02464 12.2146 3 12.0908 3 11.9657C3 11.8406 3.02464 11.7167 3.07255 11.6011C3.12046 11.4855 3.1907 11.3805 3.27922 11.2921L7.48484 7.08654C7.57336 6.99801 7.67847 6.92771 7.79414 6.8798C7.90981 6.83189 8.03377 6.80725 8.15897 6.80725C8.28417 6.80725 8.40816 6.83189 8.52383 6.8798C8.6395 6.92771 8.74457 6.99801 8.8331 7.08654C8.92163 7.17507 8.99189 7.28014 9.0398 7.39581C9.08771 7.51148 9.11235 7.63543 9.11235 7.76063C9.11235 7.88584 9.08771 8.00979 9.0398 8.12546C8.99189 8.24113 8.92163 8.3462 8.8331 8.43473L6.25427 11.0137H17.173C17.4258 11.0137 17.6683 11.1141 17.8471 11.2928C18.0258 11.4716 18.1262 11.714 18.1262 11.9668C18.1262 12.2196 18.0258 12.4621 17.8471 12.6409C17.6683 12.8196 17.4258 12.92 17.173 12.92Z"/>
</mask>
<path fill-rule="evenodd" clip-rule="evenodd" d="M12.9675 2H20.7787C21.0315 2.0003 21.2737 2.10087 21.4524 2.27956C21.6311 2.45826 21.7316 2.70053 21.7319 2.95325V20.9802C21.7316 21.2329 21.6311 21.4752 21.4524 21.6539C21.2737 21.8326 21.0315 21.9331 20.7787 21.9334H12.9675C12.7147 21.9334 12.4722 21.8331 12.2935 21.6543C12.1147 21.4755 12.0143 21.233 12.0143 20.9802C12.0143 20.7274 12.1147 20.485 12.2935 20.3062C12.4722 20.1275 12.7147 20.0271 12.9675 20.0271H19.8255V3.90649H12.9675C12.7147 3.90649 12.4722 3.80597 12.2935 3.62721C12.1147 3.44845 12.0143 3.20605 12.0143 2.95325C12.0143 2.70044 12.1147 2.45791 12.2935 2.27915C12.4722 2.10039 12.7147 2 12.9675 2ZM17.173 12.92H6.25427L8.8331 15.4977C8.92163 15.5862 8.99189 15.6913 9.0398 15.807C9.08771 15.9226 9.11235 16.0467 9.11235 16.1719C9.11235 16.2971 9.08771 16.4211 9.0398 16.5368C8.99189 16.6524 8.92163 16.7575 8.8331 16.846C8.74457 16.9346 8.6395 17.0047 8.52383 17.0526C8.40816 17.1005 8.28417 17.1253 8.15897 17.1253C8.03377 17.1253 7.90981 17.1005 7.79414 17.0526C7.67847 17.0047 7.57336 16.9346 7.48484 16.846L3.27922 12.6392C3.1907 12.5508 3.12046 12.4458 3.07255 12.3302C3.02464 12.2146 3 12.0908 3 11.9657C3 11.8406 3.02464 11.7167 3.07255 11.6011C3.12046 11.4855 3.1907 11.3805 3.27922 11.2921L7.48484 7.08654C7.57336 6.99801 7.67847 6.92771 7.79414 6.8798C7.90981 6.83189 8.03377 6.80725 8.15897 6.80725C8.28417 6.80725 8.40816 6.83189 8.52383 6.8798C8.6395 6.92771 8.74457 6.99801 8.8331 7.08654C8.92163 7.17507 8.99189 7.28014 9.0398 7.39581C9.08771 7.51148 9.11235 7.63543 9.11235 7.76063C9.11235 7.88584 9.08771 8.00979 9.0398 8.12546C8.99189 8.24113 8.92163 8.3462 8.8331 8.43473L6.25427 11.0137H17.173C17.4258 11.0137 17.6683 11.1141 17.8471 11.2928C18.0258 11.4716 18.1262 11.714 18.1262 11.9668C18.1262 12.2196 18.0258 12.4621 17.8471 12.6409C17.6683 12.8196 17.4258 12.92 17.173 12.92Z" fill="black"/>
<path fill-rule="evenodd" clip-rule="evenodd" d="M12.9675 2H20.7787C21.0315 2.0003 21.2737 2.10087 21.4524 2.27956C21.6311 2.45826 21.7316 2.70053 21.7319 2.95325V20.9802C21.7316 21.2329 21.6311 21.4752 21.4524 21.6539C21.2737 21.8326 21.0315 21.9331 20.7787 21.9334H12.9675C12.7147 21.9334 12.4722 21.8331 12.2935 21.6543C12.1147 21.4755 12.0143 21.233 12.0143 20.9802C12.0143 20.7274 12.1147 20.485 12.2935 20.3062C12.4722 20.1275 12.7147 20.0271 12.9675 20.0271H19.8255V3.90649H12.9675C12.7147 3.90649 12.4722 3.80597 12.2935 3.62721C12.1147 3.44845 12.0143 3.20605 12.0143 2.95325C12.0143 2.70044 12.1147 2.45791 12.2935 2.27915C12.4722 2.10039 12.7147 2 12.9675 2ZM17.173 12.92H6.25427L8.8331 15.4977C8.92163 15.5862 8.99189 15.6913 9.0398 15.807C9.08771 15.9226 9.11235 16.0467 9.11235 16.1719C9.11235 16.2971 9.08771 16.4211 9.0398 16.5368C8.99189 16.6524 8.92163 16.7575 8.8331 16.846C8.74457 16.9346 8.6395 17.0047 8.52383 17.0526C8.40816 17.1005 8.28417 17.1253 8.15897 17.1253C8.03377 17.1253 7.90981 17.1005 7.79414 17.0526C7.67847 17.0047 7.57336 16.9346 7.48484 16.846L3.27922 12.6392C3.1907 12.5508 3.12046 12.4458 3.07255 12.3302C3.02464 12.2146 3 12.0908 3 11.9657C3 11.8406 3.02464 11.7167 3.07255 11.6011C3.12046 11.4855 3.1907 11.3805 3.27922 11.2921L7.48484 7.08654C7.57336 6.99801 7.67847 6.92771 7.79414 6.8798C7.90981 6.83189 8.03377 6.80725 8.15897 6.80725C8.28417 6.80725 8.40816 6.83189 8.52383 6.8798C8.6395 6.92771 8.74457 6.99801 8.8331 7.08654C8.92163 7.17507 8.99189 7.28014 9.0398 7.39581C9.08771 7.51148 9.11235 7.63543 9.11235 7.76063C9.11235 7.88584 9.08771 8.00979 9.0398 8.12546C8.99189 8.24113 8.92163 8.3462 8.8331 8.43473L6.25427 11.0137H17.173C17.4258 11.0137 17.6683 11.1141 17.8471 11.2928C18.0258 11.4716 18.1262 11.714 18.1262 11.9668C18.1262 12.2196 18.0258 12.4621 17.8471 12.6409C17.6683 12.8196 17.4258 12.92 17.173 12.92Z" fill="black" fill-opacity="0.2"/>
<path fill-rule="evenodd" clip-rule="evenodd" d="M12.9675 2H20.7787C21.0315 2.0003 21.2737 2.10087 21.4524 2.27956C21.6311 2.45826 21.7316 2.70053 21.7319 2.95325V20.9802C21.7316 21.2329 21.6311 21.4752 21.4524 21.6539C21.2737 21.8326 21.0315 21.9331 20.7787 21.9334H12.9675C12.7147 21.9334 12.4722 21.8331 12.2935 21.6543C12.1147 21.4755 12.0143 21.233 12.0143 20.9802C12.0143 20.7274 12.1147 20.485 12.2935 20.3062C12.4722 20.1275 12.7147 20.0271 12.9675 20.0271H19.8255V3.90649H12.9675C12.7147 3.90649 12.4722 3.80597 12.2935 3.62721C12.1147 3.44845 12.0143 3.20605 12.0143 2.95325C12.0143 2.70044 12.1147 2.45791 12.2935 2.27915C12.4722 2.10039 12.7147 2 12.9675 2ZM17.173 12.92H6.25427L8.8331 15.4977C8.92163 15.5862 8.99189 15.6913 9.0398 15.807C9.08771 15.9226 9.11235 16.0467 9.11235 16.1719C9.11235 16.2971 9.08771 16.4211 9.0398 16.5368C8.99189 16.6524 8.92163 16.7575 8.8331 16.846C8.74457 16.9346 8.6395 17.0047 8.52383 17.0526C8.40816 17.1005 8.28417 17.1253 8.15897 17.1253C8.03377 17.1253 7.90981 17.1005 7.79414 17.0526C7.67847 17.0047 7.57336 16.9346 7.48484 16.846L3.27922 12.6392C3.1907 12.5508 3.12046 12.4458 3.07255 12.3302C3.02464 12.2146 3 12.0908 3 11.9657C3 11.8406 3.02464 11.7167 3.07255 11.6011C3.12046 11.4855 3.1907 11.3805 3.27922 11.2921L7.48484 7.08654C7.57336 6.99801 7.67847 6.92771 7.79414 6.8798C7.90981 6.83189 8.03377 6.80725 8.15897 6.80725C8.28417 6.80725 8.40816 6.83189 8.52383 6.8798C8.6395 6.92771 8.74457 6.99801 8.8331 7.08654C8.92163 7.17507 8.99189 7.28014 9.0398 7.39581C9.08771 7.51148 9.11235 7.63543 9.11235 7.76063C9.11235 7.88584 9.08771 8.00979 9.0398 8.12546C8.99189 8.24113 8.92163 8.3462 8.8331 8.43473L6.25427 11.0137H17.173C17.4258 11.0137 17.6683 11.1141 17.8471 11.2928C18.0258 11.4716 18.1262 11.714 18.1262 11.9668C18.1262 12.2196 18.0258 12.4621 17.8471 12.6409C17.6683 12.8196 17.4258 12.92 17.173 12.92Z" fill="black" fill-opacity="0.2"/>
<path fill-rule="evenodd" clip-rule="evenodd" d="M12.9675 2H20.7787C21.0315 2.0003 21.2737 2.10087 21.4524 2.27956C21.6311 2.45826 21.7316 2.70053 21.7319 2.95325V20.9802C21.7316 21.2329 21.6311 21.4752 21.4524 21.6539C21.2737 21.8326 21.0315 21.9331 20.7787 21.9334H12.9675C12.7147 21.9334 12.4722 21.8331 12.2935 21.6543C12.1147 21.4755 12.0143 21.233 12.0143 20.9802C12.0143 20.7274 12.1147 20.485 12.2935 20.3062C12.4722 20.1275 12.7147 20.0271 12.9675 20.0271H19.8255V3.90649H12.9675C12.7147 3.90649 12.4722 3.80597 12.2935 3.62721C12.1147 3.44845 12.0143 3.20605 12.0143 2.95325C12.0143 2.70044 12.1147 2.45791 12.2935 2.27915C12.4722 2.10039 12.7147 2 12.9675 2ZM17.173 12.92H6.25427L8.8331 15.4977C8.92163 15.5862 8.99189 15.6913 9.0398 15.807C9.08771 15.9226 9.11235 16.0467 9.11235 16.1719C9.11235 16.2971 9.08771 16.4211 9.0398 16.5368C8.99189 16.6524 8.92163 16.7575 8.8331 16.846C8.74457 16.9346 8.6395 17.0047 8.52383 17.0526C8.40816 17.1005 8.28417 17.1253 8.15897 17.1253C8.03377 17.1253 7.90981 17.1005 7.79414 17.0526C7.67847 17.0047 7.57336 16.9346 7.48484 16.846L3.27922 12.6392C3.1907 12.5508 3.12046 12.4458 3.07255 12.3302C3.02464 12.2146 3 12.0908 3 11.9657C3 11.8406 3.02464 11.7167 3.07255 11.6011C3.12046 11.4855 3.1907 11.3805 3.27922 11.2921L7.48484 7.08654C7.57336 6.99801 7.67847 6.92771 7.79414 6.8798C7.90981 6.83189 8.03377 6.80725 8.15897 6.80725C8.28417 6.80725 8.40816 6.83189 8.52383 6.8798C8.6395 6.92771 8.74457 6.99801 8.8331 7.08654C8.92163 7.17507 8.99189 7.28014 9.0398 7.39581C9.08771 7.51148 9.11235 7.63543 9.11235 7.76063C9.11235 7.88584 9.08771 8.00979 9.0398 8.12546C8.99189 8.24113 8.92163 8.3462 8.8331 8.43473L6.25427 11.0137H17.173C17.4258 11.0137 17.6683 11.1141 17.8471 11.2928C18.0258 11.4716 18.1262 11.714 18.1262 11.9668C18.1262 12.2196 18.0258 12.4621 17.8471 12.6409C17.6683 12.8196 17.4258 12.92 17.173 12.92Z" fill="black" fill-opacity="0.2"/>
<path fill-rule="evenodd" clip-rule="evenodd" d="M12.9675 2H20.7787C21.0315 2.0003 21.2737 2.10087 21.4524 2.27956C21.6311 2.45826 21.7316 2.70053 21.7319 2.95325V20.9802C21.7316 21.2329 21.6311 21.4752 21.4524 21.6539C21.2737 21.8326 21.0315 21.9331 20.7787 21.9334H12.9675C12.7147 21.9334 12.4722 21.8331 12.2935 21.6543C12.1147 21.4755 12.0143 21.233 12.0143 20.9802C12.0143 20.7274 12.1147 20.485 12.2935 20.3062C12.4722 20.1275 12.7147 20.0271 12.9675 20.0271H19.8255V3.90649H12.9675C12.7147 3.90649 12.4722 3.80597 12.2935 3.62721C12.1147 3.44845 12.0143 3.20605 12.0143 2.95325C12.0143 2.70044 12.1147 2.45791 12.2935 2.27915C12.4722 2.10039 12.7147 2 12.9675 2ZM17.173 12.92H6.25427L8.8331 15.4977C8.92163 15.5862 8.99189 15.6913 9.0398 15.807C9.08771 15.9226 9.11235 16.0467 9.11235 16.1719C9.11235 16.2971 9.08771 16.4211 9.0398 16.5368C8.99189 16.6524 8.92163 16.7575 8.8331 16.846C8.74457 16.9346 8.6395 17.0047 8.52383 17.0526C8.40816 17.1005 8.28417 17.1253 8.15897 17.1253C8.03377 17.1253 7.90981 17.1005 7.79414 17.0526C7.67847 17.0047 7.57336 16.9346 7.48484 16.846L3.27922 12.6392C3.1907 12.5508 3.12046 12.4458 3.07255 12.3302C3.02464 12.2146 3 12.0908 3 11.9657C3 11.8406 3.02464 11.7167 3.07255 11.6011C3.12046 11.4855 3.1907 11.3805 3.27922 11.2921L7.48484 7.08654C7.57336 6.99801 7.67847 6.92771 7.79414 6.8798C7.90981 6.83189 8.03377 6.80725 8.15897 6.80725C8.28417 6.80725 8.40816 6.83189 8.52383 6.8798C8.6395 6.92771 8.74457 6.99801 8.8331 7.08654C8.92163 7.17507 8.99189 7.28014 9.0398 7.39581C9.08771 7.51148 9.11235 7.63543 9.11235 7.76063C9.11235 7.88584 9.08771 8.00979 9.0398 8.12546C8.99189 8.24113 8.92163 8.3462 8.8331 8.43473L6.25427 11.0137H17.173C17.4258 11.0137 17.6683 11.1141 17.8471 11.2928C18.0258 11.4716 18.1262 11.714 18.1262 11.9668C18.1262 12.2196 18.0258 12.4621 17.8471 12.6409C17.6683 12.8196 17.4258 12.92 17.173 12.92Z" fill="black" fill-opacity="0.2"/>
<path fill-rule="evenodd" clip-rule="evenodd" d="M12.9675 2H20.7787C21.0315 2.0003 21.2737 2.10087 21.4524 2.27956C21.6311 2.45826 21.7316 2.70053 21.7319 2.95325V20.9802C21.7316 21.2329 21.6311 21.4752 21.4524 21.6539C21.2737 21.8326 21.0315 21.9331 20.7787 21.9334H12.9675C12.7147 21.9334 12.4722 21.8331 12.2935 21.6543C12.1147 21.4755 12.0143 21.233 12.0143 20.9802C12.0143 20.7274 12.1147 20.485 12.2935 20.3062C12.4722 20.1275 12.7147 20.0271 12.9675 20.0271H19.8255V3.90649H12.9675C12.7147 3.90649 12.4722 3.80597 12.2935 3.62721C12.1147 3.44845 12.0143 3.20605 12.0143 2.95325C12.0143 2.70044 12.1147 2.45791 12.2935 2.27915C12.4722 2.10039 12.7147 2 12.9675 2ZM17.173 12.92H6.25427L8.8331 15.4977C8.92163 15.5862 8.99189 15.6913 9.0398 15.807C9.08771 15.9226 9.11235 16.0467 9.11235 16.1719C9.11235 16.2971 9.08771 16.4211 9.0398 16.5368C8.99189 16.6524 8.92163 16.7575 8.8331 16.846C8.74457 16.9346 8.6395 17.0047 8.52383 17.0526C8.40816 17.1005 8.28417 17.1253 8.15897 17.1253C8.03377 17.1253 7.90981 17.1005 7.79414 17.0526C7.67847 17.0047 7.57336 16.9346 7.48484 16.846L3.27922 12.6392C3.1907 12.5508 3.12046 12.4458 3.07255 12.3302C3.02464 12.2146 3 12.0908 3 11.9657C3 11.8406 3.02464 11.7167 3.07255 11.6011C3.12046 11.4855 3.1907 11.3805 3.27922 11.2921L7.48484 7.08654C7.57336 6.99801 7.67847 6.92771 7.79414 6.8798C7.90981 6.83189 8.03377 6.80725 8.15897 6.80725C8.28417 6.80725 8.40816 6.83189 8.52383 6.8798C8.6395 6.92771 8.74457 6.99801 8.8331 7.08654C8.92163 7.17507 8.99189 7.28014 9.0398 7.39581C9.08771 7.51148 9.11235 7.63543 9.11235 7.76063C9.11235 7.88584 9.08771 8.00979 9.0398 8.12546C8.99189 8.24113 8.92163 8.3462 8.8331 8.43473L6.25427 11.0137H17.173C17.4258 11.0137 17.6683 11.1141 17.8471 11.2928C18.0258 11.4716 18.1262 11.714 18.1262 11.9668C18.1262 12.2196 18.0258 12.4621 17.8471 12.6409C17.6683 12.8196 17.4258 12.92 17.173 12.92Z" fill="black" fill-opacity="0.2"/>
<path fill-rule="evenodd" clip-rule="evenodd" d="M12.9675 2H20.7787C21.0315 2.0003 21.2737 2.10087 21.4524 2.27956C21.6311 2.45826 21.7316 2.70053 21.7319 2.95325V20.9802C21.7316 21.2329 21.6311 21.4752 21.4524 21.6539C21.2737 21.8326 21.0315 21.9331 20.7787 21.9334H12.9675C12.7147 21.9334 12.4722 21.8331 12.2935 21.6543C12.1147 21.4755 12.0143 21.233 12.0143 20.9802C12.0143 20.7274 12.1147 20.485 12.2935 20.3062C12.4722 20.1275 12.7147 20.0271 12.9675 20.0271H19.8255V3.90649H12.9675C12.7147 3.90649 12.4722 3.80597 12.2935 3.62721C12.1147 3.44845 12.0143 3.20605 12.0143 2.95325C12.0143 2.70044 12.1147 2.45791 12.2935 2.27915C12.4722 2.10039 12.7147 2 12.9675 2ZM17.173 12.92H6.25427L8.8331 15.4977C8.92163 15.5862 8.99189 15.6913 9.0398 15.807C9.08771 15.9226 9.11235 16.0467 9.11235 16.1719C9.11235 16.2971 9.08771 16.4211 9.0398 16.5368C8.99189 16.6524 8.92163 16.7575 8.8331 16.846C8.74457 16.9346 8.6395 17.0047 8.52383 17.0526C8.40816 17.1005 8.28417 17.1253 8.15897 17.1253C8.03377 17.1253 7.90981 17.1005 7.79414 17.0526C7.67847 17.0047 7.57336 16.9346 7.48484 16.846L3.27922 12.6392C3.1907 12.5508 3.12046 12.4458 3.07255 12.3302C3.02464 12.2146 3 12.0908 3 11.9657C3 11.8406 3.02464 11.7167 3.07255 11.6011C3.12046 11.4855 3.1907 11.3805 3.27922 11.2921L7.48484 7.08654C7.57336 6.99801 7.67847 6.92771 7.79414 6.8798C7.90981 6.83189 8.03377 6.80725 8.15897 6.80725C8.28417 6.80725 8.40816 6.83189 8.52383 6.8798C8.6395 6.92771 8.74457 6.99801 8.8331 7.08654C8.92163 7.17507 8.99189 7.28014 9.0398 7.39581C9.08771 7.51148 9.11235 7.63543 9.11235 7.76063C9.11235 7.88584 9.08771 8.00979 9.0398 8.12546C8.99189 8.24113 8.92163 8.3462 8.8331 8.43473L6.25427 11.0137H17.173C17.4258 11.0137 17.6683 11.1141 17.8471 11.2928C18.0258 11.4716 18.1262 11.714 18.1262 11.9668C18.1262 12.2196 18.0258 12.4621 17.8471 12.6409C17.6683 12.8196 17.4258 12.92 17.173 12.92Z" fill="black" fill-opacity="0.2"/>
<path fill-rule="evenodd" clip-rule="evenodd" d="M12.9675 2H20.7787C21.0315 2.0003 21.2737 2.10087 21.4524 2.27956C21.6311 2.45826 21.7316 2.70053 21.7319 2.95325V20.9802C21.7316 21.2329 21.6311 21.4752 21.4524 21.6539C21.2737 21.8326 21.0315 21.9331 20.7787 21.9334H12.9675C12.7147 21.9334 12.4722 21.8331 12.2935 21.6543C12.1147 21.4755 12.0143 21.233 12.0143 20.9802C12.0143 20.7274 12.1147 20.485 12.2935 20.3062C12.4722 20.1275 12.7147 20.0271 12.9675 20.0271H19.8255V3.90649H12.9675C12.7147 3.90649 12.4722 3.80597 12.2935 3.62721C12.1147 3.44845 12.0143 3.20605 12.0143 2.95325C12.0143 2.70044 12.1147 2.45791 12.2935 2.27915C12.4722 2.10039 12.7147 2 12.9675 2ZM17.173 12.92H6.25427L8.8331 15.4977C8.92163 15.5862 8.99189 15.6913 9.0398 15.807C9.08771 15.9226 9.11235 16.0467 9.11235 16.1719C9.11235 16.2971 9.08771 16.4211 9.0398 16.5368C8.99189 16.6524 8.92163 16.7575 8.8331 16.846C8.74457 16.9346 8.6395 17.0047 8.52383 17.0526C8.40816 17.1005 8.28417 17.1253 8.15897 17.1253C8.03377 17.1253 7.90981 17.1005 7.79414 17.0526C7.67847 17.0047 7.57336 16.9346 7.48484 16.846L3.27922 12.6392C3.1907 12.5508 3.12046 12.4458 3.07255 12.3302C3.02464 12.2146 3 12.0908 3 11.9657C3 11.8406 3.02464 11.7167 3.07255 11.6011C3.12046 11.4855 3.1907 11.3805 3.27922 11.2921L7.48484 7.08654C7.57336 6.99801 7.67847 6.92771 7.79414 6.8798C7.90981 6.83189 8.03377 6.80725 8.15897 6.80725C8.28417 6.80725 8.40816 6.83189 8.52383 6.8798C8.6395 6.92771 8.74457 6.99801 8.8331 7.08654C8.92163 7.17507 8.99189 7.28014 9.0398 7.39581C9.08771 7.51148 9.11235 7.63543 9.11235 7.76063C9.11235 7.88584 9.08771 8.00979 9.0398 8.12546C8.99189 8.24113 8.92163 8.3462 8.8331 8.43473L6.25427 11.0137H17.173C17.4258 11.0137 17.6683 11.1141 17.8471 11.2928C18.0258 11.4716 18.1262 11.714 18.1262 11.9668C18.1262 12.2196 18.0258 12.4621 17.8471 12.6409C17.6683 12.8196 17.4258 12.92 17.173 12.92Z" fill="black" fill-opacity="0.2"/>
<path fill-rule="evenodd" clip-rule="evenodd" d="M12.9675 2H20.7787C21.0315 2.0003 21.2737 2.10087 21.4524 2.27956C21.6311 2.45826 21.7316 2.70053 21.7319 2.95325V20.9802C21.7316 21.2329 21.6311 21.4752 21.4524 21.6539C21.2737 21.8326 21.0315 21.9331 20.7787 21.9334H12.9675C12.7147 21.9334 12.4722 21.8331 12.2935 21.6543C12.1147 21.4755 12.0143 21.233 12.0143 20.9802C12.0143 20.7274 12.1147 20.485 12.2935 20.3062C12.4722 20.1275 12.7147 20.0271 12.9675 20.0271H19.8255V3.90649H12.9675C12.7147 3.90649 12.4722 3.80597 12.2935 3.62721C12.1147 3.44845 12.0143 3.20605 12.0143 2.95325C12.0143 2.70044 12.1147 2.45791 12.2935 2.27915C12.4722 2.10039 12.7147 2 12.9675 2ZM17.173 12.92H6.25427L8.8331 15.4977C8.92163 15.5862 8.99189 15.6913 9.0398 15.807C9.08771 15.9226 9.11235 16.0467 9.11235 16.1719C9.11235 16.2971 9.08771 16.4211 9.0398 16.5368C8.99189 16.6524 8.92163 16.7575 8.8331 16.846C8.74457 16.9346 8.6395 17.0047 8.52383 17.0526C8.40816 17.1005 8.28417 17.1253 8.15897 17.1253C8.03377 17.1253 7.90981 17.1005 7.79414 17.0526C7.67847 17.0047 7.57336 16.9346 7.48484 16.846L3.27922 12.6392C3.1907 12.5508 3.12046 12.4458 3.07255 12.3302C3.02464 12.2146 3 12.0908 3 11.9657C3 11.8406 3.02464 11.7167 3.07255 11.6011C3.12046 11.4855 3.1907 11.3805 3.27922 11.2921L7.48484 7.08654C7.57336 6.99801 7.67847 6.92771 7.79414 6.8798C7.90981 6.83189 8.03377 6.80725 8.15897 6.80725C8.28417 6.80725 8.40816 6.83189 8.52383 6.8798C8.6395 6.92771 8.74457 6.99801 8.8331 7.08654C8.92163 7.17507 8.99189 7.28014 9.0398 7.39581C9.08771 7.51148 9.11235 7.63543 9.11235 7.76063C9.11235 7.88584 9.08771 8.00979 9.0398 8.12546C8.99189 8.24113 8.92163 8.3462 8.8331 8.43473L6.25427 11.0137H17.173C17.4258 11.0137 17.6683 11.1141 17.8471 11.2928C18.0258 11.4716 18.1262 11.714 18.1262 11.9668C18.1262 12.2196 18.0258 12.4621 17.8471 12.6409C17.6683 12.8196 17.4258 12.92 17.173 12.92Z" fill="black" fill-opacity="0.2"/>
<path fill-rule="evenodd" clip-rule="evenodd" d="M12.9675 2H20.7787C21.0315 2.0003 21.2737 2.10087 21.4524 2.27956C21.6311 2.45826 21.7316 2.70053 21.7319 2.95325V20.9802C21.7316 21.2329 21.6311 21.4752 21.4524 21.6539C21.2737 21.8326 21.0315 21.9331 20.7787 21.9334H12.9675C12.7147 21.9334 12.4722 21.8331 12.2935 21.6543C12.1147 21.4755 12.0143 21.233 12.0143 20.9802C12.0143 20.7274 12.1147 20.485 12.2935 20.3062C12.4722 20.1275 12.7147 20.0271 12.9675 20.0271H19.8255V3.90649H12.9675C12.7147 3.90649 12.4722 3.80597 12.2935 3.62721C12.1147 3.44845 12.0143 3.20605 12.0143 2.95325C12.0143 2.70044 12.1147 2.45791 12.2935 2.27915C12.4722 2.10039 12.7147 2 12.9675 2ZM17.173 12.92H6.25427L8.8331 15.4977C8.92163 15.5862 8.99189 15.6913 9.0398 15.807C9.08771 15.9226 9.11235 16.0467 9.11235 16.1719C9.11235 16.2971 9.08771 16.4211 9.0398 16.5368C8.99189 16.6524 8.92163 16.7575 8.8331 16.846C8.74457 16.9346 8.6395 17.0047 8.52383 17.0526C8.40816 17.1005 8.28417 17.1253 8.15897 17.1253C8.03377 17.1253 7.90981 17.1005 7.79414 17.0526C7.67847 17.0047 7.57336 16.9346 7.48484 16.846L3.27922 12.6392C3.1907 12.5508 3.12046 12.4458 3.07255 12.3302C3.02464 12.2146 3 12.0908 3 11.9657C3 11.8406 3.02464 11.7167 3.07255 11.6011C3.12046 11.4855 3.1907 11.3805 3.27922 11.2921L7.48484 7.08654C7.57336 6.99801 7.67847 6.92771 7.79414 6.8798C7.90981 6.83189 8.03377 6.80725 8.15897 6.80725C8.28417 6.80725 8.40816 6.83189 8.52383 6.8798C8.6395 6.92771 8.74457 6.99801 8.8331 7.08654C8.92163 7.17507 8.99189 7.28014 9.0398 7.39581C9.08771 7.51148 9.11235 7.63543 9.11235 7.76063C9.11235 7.88584 9.08771 8.00979 9.0398 8.12546C8.99189 8.24113 8.92163 8.3462 8.8331 8.43473L6.25427 11.0137H17.173C17.4258 11.0137 17.6683 11.1141 17.8471 11.2928C18.0258 11.4716 18.1262 11.714 18.1262 11.9668C18.1262 12.2196 18.0258 12.4621 17.8471 12.6409C17.6683 12.8196 17.4258 12.92 17.173 12.92Z" fill="black" fill-opacity="0.2"/>
<path d="M20.7787 2L20.7799 1H20.7787V2ZM21.4524 2.27956L20.7453 2.98667L20.7453 2.98667L21.4524 2.27956ZM21.7319 2.95325H22.7319V2.95206L21.7319 2.95325ZM21.7319 20.9802L22.7319 20.9814V20.9802H21.7319ZM20.7787 21.9334V22.9334H20.7799L20.7787 21.9334ZM12.2935 21.6543L13.0006 20.9472L13.0006 20.9472L12.2935 21.6543ZM12.2935 20.3062L11.5864 19.5991L11.5864 19.5991L12.2935 20.3062ZM19.8255 20.0271V21.0271H20.8255V20.0271H19.8255ZM19.8255 3.90649H20.8255V2.90649H19.8255V3.90649ZM12.2935 3.62721L11.5864 4.33431V4.33431L12.2935 3.62721ZM12.2935 2.27915L13.0006 2.98625V2.98625L12.2935 2.27915ZM6.25427 12.92V11.92H3.8393L5.54732 13.6273L6.25427 12.92ZM8.8331 15.4977L9.54021 14.7906L9.54005 14.7904L8.8331 15.4977ZM9.0398 15.807L9.96368 15.4243L9.96368 15.4243L9.0398 15.807ZM9.0398 16.5368L8.11592 16.1541L8.11592 16.1541L9.0398 16.5368ZM8.8331 16.846L8.12599 16.1389L8.12599 16.1389L8.8331 16.846ZM8.52383 17.0526L8.14115 16.1288L8.14114 16.1288L8.52383 17.0526ZM7.79414 17.0526L8.17683 16.1288L8.17682 16.1288L7.79414 17.0526ZM7.48484 16.846L6.77763 17.553L6.77772 17.5531L7.48484 16.846ZM3.27922 12.6392L3.98642 11.9322L3.98594 11.9317L3.27922 12.6392ZM3.07255 12.3302L3.99633 11.9473L3.99633 11.9473L3.07255 12.3302ZM3.07255 11.6011L3.99633 11.9841L3.99633 11.9841L3.07255 11.6011ZM3.27922 11.2921L3.98594 11.9996L3.98632 11.9992L3.27922 11.2921ZM7.48484 7.08654L8.19194 7.79365L8.19194 7.79364L7.48484 7.08654ZM7.79414 6.8798L8.17682 7.80368L8.17683 7.80368L7.79414 6.8798ZM8.52383 6.8798L8.14115 7.80368L8.14115 7.80368L8.52383 6.8798ZM8.8331 7.08654L9.54021 6.37943L9.54021 6.37943L8.8331 7.08654ZM9.0398 7.39581L9.96368 7.01313L9.96368 7.01312L9.0398 7.39581ZM9.0398 8.12546L9.96368 8.50814L9.96368 8.50814L9.0398 8.12546ZM8.8331 8.43473L8.12599 7.72763L8.12598 7.72764L8.8331 8.43473ZM6.25427 11.0137L5.54715 10.3066L3.84013 12.0137H6.25427V11.0137ZM20.7787 1H12.9675V3H20.7787V1ZM22.1595 1.57246C21.7937 1.2066 21.2976 1.00061 20.7799 1L20.7776 3C20.7653 2.99998 20.7538 2.99514 20.7453 2.98667L22.1595 1.57246ZM22.7319 2.95206C22.7313 2.43461 22.5255 1.93844 22.1595 1.57245L20.7453 2.98667C20.7367 2.97807 20.7319 2.96646 20.7319 2.95443L22.7319 2.95206ZM22.7319 20.9802V2.95325H20.7319V20.9802H22.7319ZM22.1595 22.361C22.5255 21.995 22.7313 21.4988 22.7319 20.9814L20.7319 20.979C20.7319 20.967 20.7367 20.9554 20.7453 20.9468L22.1595 22.361ZM20.7799 22.9334C21.2976 22.9328 21.7937 22.7268 22.1595 22.361L20.7453 20.9468C20.7538 20.9383 20.7653 20.9335 20.7775 20.9334L20.7799 22.9334ZM12.9675 22.9334H20.7787V20.9334H12.9675V22.9334ZM11.5864 22.3614C11.9527 22.7278 12.4496 22.9334 12.9675 22.9334V20.9334C12.9798 20.9334 12.9917 20.9383 13.0006 20.9472L11.5864 22.3614ZM11.0143 20.9802C11.0143 21.4981 11.22 21.995 11.5864 22.3614L13.0006 20.9472C13.0094 20.956 13.0143 20.9679 13.0143 20.9802H11.0143ZM11.5864 19.5991C11.2201 19.9654 11.0143 20.4621 11.0143 20.9802H13.0143C13.0143 20.9927 13.0093 21.0046 13.0006 21.0133L11.5864 19.5991ZM12.9675 19.0271C12.4496 19.0271 11.9527 19.2327 11.5864 19.5991L13.0006 21.0133C12.9917 21.0222 12.9798 21.0271 12.9675 21.0271V19.0271ZM19.8255 19.0271H12.9675V21.0271H19.8255V19.0271ZM18.8255 3.90649V20.0271H20.8255V3.90649H18.8255ZM12.9675 4.90649H19.8255V2.90649H12.9675V4.90649ZM11.5864 4.33431C11.9525 4.70043 12.4492 4.90649 12.9675 4.90649V2.90649C12.9802 2.90649 12.992 2.9115 13.0006 2.9201L11.5864 4.33431ZM11.0143 2.95325C11.0143 3.47131 11.2201 3.96805 11.5864 4.33431L13.0006 2.9201C13.0093 2.92884 13.0143 2.94078 13.0143 2.95325H11.0143ZM11.5864 1.57204C11.22 1.93841 11.0143 2.43533 11.0143 2.95325H13.0143C13.0143 2.96555 13.0094 2.9774 13.0006 2.98625L11.5864 1.57204ZM12.9675 1C12.4496 1 11.9527 1.20566 11.5864 1.57204L13.0006 2.98625C12.9917 2.99512 12.9798 3 12.9675 3V1ZM6.25427 13.92H17.173V11.92H6.25427V13.92ZM9.54005 14.7904L6.96122 12.2128L5.54732 13.6273L8.12615 16.205L9.54005 14.7904ZM9.96368 15.4243C9.86543 15.1871 9.72144 14.9718 9.54021 14.7906L8.12599 16.2048C8.12183 16.2006 8.11835 16.1955 8.11592 16.1897L9.96368 15.4243ZM10.1124 16.1719C10.1124 15.9157 10.0619 15.6615 9.96368 15.4243L8.11592 16.1897C8.11349 16.1838 8.11235 16.1778 8.11235 16.1719H10.1124ZM9.96368 16.9195C10.0619 16.6824 10.1124 16.4284 10.1124 16.1719H8.11235C8.11235 16.1659 8.11354 16.1598 8.11592 16.1541L9.96368 16.9195ZM9.54021 17.5531C9.72143 17.3719 9.86543 17.1567 9.96368 16.9194L8.11592 16.1541C8.11835 16.1482 8.12183 16.1431 8.12599 16.1389L9.54021 17.5531ZM8.90651 17.9765C9.14328 17.8784 9.35865 17.7347 9.54021 17.5531L8.12599 16.1389C8.13049 16.1344 8.13571 16.131 8.14115 16.1288L8.90651 17.9765ZM8.15897 18.1253C8.4161 18.1253 8.67008 18.0745 8.90651 17.9765L8.14114 16.1288C8.14624 16.1266 8.15224 16.1253 8.15897 16.1253V18.1253ZM7.41146 17.9765C7.64786 18.0744 7.9018 18.1253 8.15897 18.1253V16.1253C8.16573 16.1253 8.17177 16.1267 8.17683 16.1288L7.41146 17.9765ZM6.77772 17.5531C6.95936 17.7348 7.17478 17.8785 7.41146 17.9765L8.17682 16.1288C8.18216 16.131 8.18737 16.1344 8.19195 16.1389L6.77772 17.5531ZM2.57201 13.3462L6.77763 17.553L8.19204 16.139L3.98642 11.9322L2.57201 13.3462ZM2.14877 12.7131C2.24704 12.9502 2.39106 13.1655 2.57249 13.3467L3.98594 11.9317C3.99034 11.9361 3.99388 11.9414 3.99633 11.9473L2.14877 12.7131ZM2 11.9657C2 12.2221 2.05051 12.4761 2.14877 12.7132L3.99633 11.9473C3.99877 11.9532 4 11.9594 4 11.9657H2ZM2.14877 11.2182C2.05051 11.4552 2 11.7092 2 11.9657H4C4 11.9719 3.99877 11.9782 3.99633 11.9841L2.14877 11.2182ZM2.57249 10.5846C2.39106 10.7659 2.24704 10.9811 2.14877 11.2182L3.99633 11.9841C3.99388 11.9899 3.99034 11.9952 3.98594 11.9996L2.57249 10.5846ZM6.77773 6.37943L2.57211 10.585L3.98632 11.9992L8.19194 7.79365L6.77773 6.37943ZM7.41146 5.95592C7.1742 6.0542 6.95892 6.19824 6.77773 6.37943L8.19194 7.79364C8.18781 7.79777 8.18274 7.80123 8.17682 7.80368L7.41146 5.95592ZM8.15897 5.80725C7.90254 5.80725 7.64854 5.85772 7.41146 5.95592L8.17683 7.80368C8.17108 7.80606 8.165 7.80725 8.15897 7.80725V5.80725ZM8.90651 5.95592C8.66939 5.85771 8.41536 5.80725 8.15897 5.80725V7.80725C8.15298 7.80725 8.14692 7.80607 8.14115 7.80368L8.90651 5.95592ZM9.54021 6.37943C9.35909 6.19831 9.14386 6.05424 8.90651 5.95592L8.14115 7.80368C8.13513 7.80119 8.13005 7.7977 8.126 7.79364L9.54021 6.37943ZM9.96368 7.01312C9.86543 6.77592 9.72143 6.56066 9.54021 6.37943L8.12599 7.79364C8.12183 7.78948 8.11835 7.78436 8.11592 7.77849L9.96368 7.01312ZM10.1124 7.76063C10.1124 7.50421 10.0619 7.25021 9.96368 7.01313L8.11592 7.77849C8.11354 7.77275 8.11235 7.76666 8.11235 7.76063H10.1124ZM9.96368 8.50814C10.0619 8.27106 10.1124 8.01706 10.1124 7.76063H8.11235C8.11235 7.75461 8.11354 7.74852 8.11592 7.74278L9.96368 8.50814ZM9.54021 9.14184C9.72143 8.96061 9.86543 8.74535 9.96368 8.50814L8.11592 7.74278C8.11835 7.73691 8.12183 7.73179 8.12599 7.72763L9.54021 9.14184ZM6.96139 11.7208L9.54022 9.14183L8.12598 7.72764L5.54715 10.3066L6.96139 11.7208ZM17.173 10.0137H6.25427V12.0137H17.173V10.0137ZM18.5542 10.5857C18.1878 10.2193 17.6909 10.0137 17.173 10.0137V12.0137C17.1607 12.0137 17.1488 12.0088 17.14 11.9999L18.5542 10.5857ZM19.1262 11.9668C19.1262 11.4487 18.9204 10.952 18.5542 10.5857L17.14 11.9999C17.1312 11.9912 17.1262 11.9792 17.1262 11.9668H19.1262ZM18.5542 13.348C18.9205 12.9816 19.1262 12.4847 19.1262 11.9668H17.1262C17.1262 11.9545 17.1311 11.9426 17.14 11.9338L18.5542 13.348ZM17.173 13.92C17.6909 13.92 18.1878 13.7144 18.5542 13.348L17.14 11.9338C17.1488 11.9249 17.1607 11.92 17.173 11.92V13.92Z" fill="black" mask="url(#path-1-inside-1_314_356)"/>
<path d="M20.7787 2L20.7799 1H20.7787V2ZM21.4524 2.27956L20.7453 2.98667L20.7453 2.98667L21.4524 2.27956ZM21.7319 2.95325H22.7319V2.95206L21.7319 2.95325ZM21.7319 20.9802L22.7319 20.9814V20.9802H21.7319ZM20.7787 21.9334V22.9334H20.7799L20.7787 21.9334ZM12.2935 21.6543L13.0006 20.9472L13.0006 20.9472L12.2935 21.6543ZM12.2935 20.3062L11.5864 19.5991L11.5864 19.5991L12.2935 20.3062ZM19.8255 20.0271V21.0271H20.8255V20.0271H19.8255ZM19.8255 3.90649H20.8255V2.90649H19.8255V3.90649ZM12.2935 3.62721L11.5864 4.33431V4.33431L12.2935 3.62721ZM12.2935 2.27915L13.0006 2.98625V2.98625L12.2935 2.27915ZM6.25427 12.92V11.92H3.8393L5.54732 13.6273L6.25427 12.92ZM8.8331 15.4977L9.54021 14.7906L9.54005 14.7904L8.8331 15.4977ZM9.0398 15.807L9.96368 15.4243L9.96368 15.4243L9.0398 15.807ZM9.0398 16.5368L8.11592 16.1541L8.11592 16.1541L9.0398 16.5368ZM8.8331 16.846L8.12599 16.1389L8.12599 16.1389L8.8331 16.846ZM8.52383 17.0526L8.14115 16.1288L8.14114 16.1288L8.52383 17.0526ZM7.79414 17.0526L8.17683 16.1288L8.17682 16.1288L7.79414 17.0526ZM7.48484 16.846L6.77763 17.553L6.77772 17.5531L7.48484 16.846ZM3.27922 12.6392L3.98642 11.9322L3.98594 11.9317L3.27922 12.6392ZM3.07255 12.3302L3.99633 11.9473L3.99633 11.9473L3.07255 12.3302ZM3.07255 11.6011L3.99633 11.9841L3.99633 11.9841L3.07255 11.6011ZM3.27922 11.2921L3.98594 11.9996L3.98632 11.9992L3.27922 11.2921ZM7.48484 7.08654L8.19194 7.79365L8.19194 7.79364L7.48484 7.08654ZM7.79414 6.8798L8.17682 7.80368L8.17683 7.80368L7.79414 6.8798ZM8.52383 6.8798L8.14115 7.80368L8.14115 7.80368L8.52383 6.8798ZM8.8331 7.08654L9.54021 6.37943L9.54021 6.37943L8.8331 7.08654ZM9.0398 7.39581L9.96368 7.01313L9.96368 7.01312L9.0398 7.39581ZM9.0398 8.12546L9.96368 8.50814L9.96368 8.50814L9.0398 8.12546ZM8.8331 8.43473L8.12599 7.72763L8.12598 7.72764L8.8331 8.43473ZM6.25427 11.0137L5.54715 10.3066L3.84013 12.0137H6.25427V11.0137ZM20.7787 1H12.9675V3H20.7787V1ZM22.1595 1.57246C21.7937 1.2066 21.2976 1.00061 20.7799 1L20.7776 3C20.7653 2.99998 20.7538 2.99514 20.7453 2.98667L22.1595 1.57246ZM22.7319 2.95206C22.7313 2.43461 22.5255 1.93844 22.1595 1.57245L20.7453 2.98667C20.7367 2.97807 20.7319 2.96646 20.7319 2.95443L22.7319 2.95206ZM22.7319 20.9802V2.95325H20.7319V20.9802H22.7319ZM22.1595 22.361C22.5255 21.995 22.7313 21.4988 22.7319 20.9814L20.7319 20.979C20.7319 20.967 20.7367 20.9554 20.7453 20.9468L22.1595 22.361ZM20.7799 22.9334C21.2976 22.9328 21.7937 22.7268 22.1595 22.361L20.7453 20.9468C20.7538 20.9383 20.7653 20.9335 20.7775 20.9334L20.7799 22.9334ZM12.9675 22.9334H20.7787V20.9334H12.9675V22.9334ZM11.5864 22.3614C11.9527 22.7278 12.4496 22.9334 12.9675 22.9334V20.9334C12.9798 20.9334 12.9917 20.9383 13.0006 20.9472L11.5864 22.3614ZM11.0143 20.9802C11.0143 21.4981 11.22 21.995 11.5864 22.3614L13.0006 20.9472C13.0094 20.956 13.0143 20.9679 13.0143 20.9802H11.0143ZM11.5864 19.5991C11.2201 19.9654 11.0143 20.4621 11.0143 20.9802H13.0143C13.0143 20.9927 13.0093 21.0046 13.0006 21.0133L11.5864 19.5991ZM12.9675 19.0271C12.4496 19.0271 11.9527 19.2327 11.5864 19.5991L13.0006 21.0133C12.9917 21.0222 12.9798 21.0271 12.9675 21.0271V19.0271ZM19.8255 19.0271H12.9675V21.0271H19.8255V19.0271ZM18.8255 3.90649V20.0271H20.8255V3.90649H18.8255ZM12.9675 4.90649H19.8255V2.90649H12.9675V4.90649ZM11.5864 4.33431C11.9525 4.70043 12.4492 4.90649 12.9675 4.90649V2.90649C12.9802 2.90649 12.992 2.9115 13.0006 2.9201L11.5864 4.33431ZM11.0143 2.95325C11.0143 3.47131 11.2201 3.96805 11.5864 4.33431L13.0006 2.9201C13.0093 2.92884 13.0143 2.94078 13.0143 2.95325H11.0143ZM11.5864 1.57204C11.22 1.93841 11.0143 2.43533 11.0143 2.95325H13.0143C13.0143 2.96555 13.0094 2.9774 13.0006 2.98625L11.5864 1.57204ZM12.9675 1C12.4496 1 11.9527 1.20566 11.5864 1.57204L13.0006 2.98625C12.9917 2.99512 12.9798 3 12.9675 3V1ZM6.25427 13.92H17.173V11.92H6.25427V13.92ZM9.54005 14.7904L6.96122 12.2128L5.54732 13.6273L8.12615 16.205L9.54005 14.7904ZM9.96368 15.4243C9.86543 15.1871 9.72144 14.9718 9.54021 14.7906L8.12599 16.2048C8.12183 16.2006 8.11835 16.1955 8.11592 16.1897L9.96368 15.4243ZM10.1124 16.1719C10.1124 15.9157 10.0619 15.6615 9.96368 15.4243L8.11592 16.1897C8.11349 16.1838 8.11235 16.1778 8.11235 16.1719H10.1124ZM9.96368 16.9195C10.0619 16.6824 10.1124 16.4284 10.1124 16.1719H8.11235C8.11235 16.1659 8.11354 16.1598 8.11592 16.1541L9.96368 16.9195ZM9.54021 17.5531C9.72143 17.3719 9.86543 17.1567 9.96368 16.9194L8.11592 16.1541C8.11835 16.1482 8.12183 16.1431 8.12599 16.1389L9.54021 17.5531ZM8.90651 17.9765C9.14328 17.8784 9.35865 17.7347 9.54021 17.5531L8.12599 16.1389C8.13049 16.1344 8.13571 16.131 8.14115 16.1288L8.90651 17.9765ZM8.15897 18.1253C8.4161 18.1253 8.67008 18.0745 8.90651 17.9765L8.14114 16.1288C8.14624 16.1266 8.15224 16.1253 8.15897 16.1253V18.1253ZM7.41146 17.9765C7.64786 18.0744 7.9018 18.1253 8.15897 18.1253V16.1253C8.16573 16.1253 8.17177 16.1267 8.17683 16.1288L7.41146 17.9765ZM6.77772 17.5531C6.95936 17.7348 7.17478 17.8785 7.41146 17.9765L8.17682 16.1288C8.18216 16.131 8.18737 16.1344 8.19195 16.1389L6.77772 17.5531ZM2.57201 13.3462L6.77763 17.553L8.19204 16.139L3.98642 11.9322L2.57201 13.3462ZM2.14877 12.7131C2.24704 12.9502 2.39106 13.1655 2.57249 13.3467L3.98594 11.9317C3.99034 11.9361 3.99388 11.9414 3.99633 11.9473L2.14877 12.7131ZM2 11.9657C2 12.2221 2.05051 12.4761 2.14877 12.7132L3.99633 11.9473C3.99877 11.9532 4 11.9594 4 11.9657H2ZM2.14877 11.2182C2.05051 11.4552 2 11.7092 2 11.9657H4C4 11.9719 3.99877 11.9782 3.99633 11.9841L2.14877 11.2182ZM2.57249 10.5846C2.39106 10.7659 2.24704 10.9811 2.14877 11.2182L3.99633 11.9841C3.99388 11.9899 3.99034 11.9952 3.98594 11.9996L2.57249 10.5846ZM6.77773 6.37943L2.57211 10.585L3.98632 11.9992L8.19194 7.79365L6.77773 6.37943ZM7.41146 5.95592C7.1742 6.0542 6.95892 6.19824 6.77773 6.37943L8.19194 7.79364C8.18781 7.79777 8.18274 7.80123 8.17682 7.80368L7.41146 5.95592ZM8.15897 5.80725C7.90254 5.80725 7.64854 5.85772 7.41146 5.95592L8.17683 7.80368C8.17108 7.80606 8.165 7.80725 8.15897 7.80725V5.80725ZM8.90651 5.95592C8.66939 5.85771 8.41536 5.80725 8.15897 5.80725V7.80725C8.15298 7.80725 8.14692 7.80607 8.14115 7.80368L8.90651 5.95592ZM9.54021 6.37943C9.35909 6.19831 9.14386 6.05424 8.90651 5.95592L8.14115 7.80368C8.13513 7.80119 8.13005 7.7977 8.126 7.79364L9.54021 6.37943ZM9.96368 7.01312C9.86543 6.77592 9.72143 6.56066 9.54021 6.37943L8.12599 7.79364C8.12183 7.78948 8.11835 7.78436 8.11592 7.77849L9.96368 7.01312ZM10.1124 7.76063C10.1124 7.50421 10.0619 7.25021 9.96368 7.01313L8.11592 7.77849C8.11354 7.77275 8.11235 7.76666 8.11235 7.76063H10.1124ZM9.96368 8.50814C10.0619 8.27106 10.1124 8.01706 10.1124 7.76063H8.11235C8.11235 7.75461 8.11354 7.74852 8.11592 7.74278L9.96368 8.50814ZM9.54021 9.14184C9.72143 8.96061 9.86543 8.74535 9.96368 8.50814L8.11592 7.74278C8.11835 7.73691 8.12183 7.73179 8.12599 7.72763L9.54021 9.14184ZM6.96139 11.7208L9.54022 9.14183L8.12598 7.72764L5.54715 10.3066L6.96139 11.7208ZM17.173 10.0137H6.25427V12.0137H17.173V10.0137ZM18.5542 10.5857C18.1878 10.2193 17.6909 10.0137 17.173 10.0137V12.0137C17.1607 12.0137 17.1488 12.0088 17.14 11.9999L18.5542 10.5857ZM19.1262 11.9668C19.1262 11.4487 18.9204 10.952 18.5542 10.5857L17.14 11.9999C17.1312 11.9912 17.1262 11.9792 17.1262 11.9668H19.1262ZM18.5542 13.348C18.9205 12.9816 19.1262 12.4847 19.1262 11.9668H17.1262C17.1262 11.9545 17.1311 11.9426 17.14 11.9338L18.5542 13.348ZM17.173 13.92C17.6909 13.92 18.1878 13.7144 18.5542 13.348L17.14 11.9338C17.1488 11.9249 17.1607 11.92 17.173 11.92V13.92Z" fill="black" fill-opacity="0.2" mask="url(#path-1-inside-1_314_356)"/>
<path d="M20.7787 2L20.7799 1H20.7787V2ZM21.4524 2.27956L20.7453 2.98667L20.7453 2.98667L21.4524 2.27956ZM21.7319 2.95325H22.7319V2.95206L21.7319 2.95325ZM21.7319 20.9802L22.7319 20.9814V20.9802H21.7319ZM20.7787 21.9334V22.9334H20.7799L20.7787 21.9334ZM12.2935 21.6543L13.0006 20.9472L13.0006 20.9472L12.2935 21.6543ZM12.2935 20.3062L11.5864 19.5991L11.5864 19.5991L12.2935 20.3062ZM19.8255 20.0271V21.0271H20.8255V20.0271H19.8255ZM19.8255 3.90649H20.8255V2.90649H19.8255V3.90649ZM12.2935 3.62721L11.5864 4.33431V4.33431L12.2935 3.62721ZM12.2935 2.27915L13.0006 2.98625V2.98625L12.2935 2.27915ZM6.25427 12.92V11.92H3.8393L5.54732 13.6273L6.25427 12.92ZM8.8331 15.4977L9.54021 14.7906L9.54005 14.7904L8.8331 15.4977ZM9.0398 15.807L9.96368 15.4243L9.96368 15.4243L9.0398 15.807ZM9.0398 16.5368L8.11592 16.1541L8.11592 16.1541L9.0398 16.5368ZM8.8331 16.846L8.12599 16.1389L8.12599 16.1389L8.8331 16.846ZM8.52383 17.0526L8.14115 16.1288L8.14114 16.1288L8.52383 17.0526ZM7.79414 17.0526L8.17683 16.1288L8.17682 16.1288L7.79414 17.0526ZM7.48484 16.846L6.77763 17.553L6.77772 17.5531L7.48484 16.846ZM3.27922 12.6392L3.98642 11.9322L3.98594 11.9317L3.27922 12.6392ZM3.07255 12.3302L3.99633 11.9473L3.99633 11.9473L3.07255 12.3302ZM3.07255 11.6011L3.99633 11.9841L3.99633 11.9841L3.07255 11.6011ZM3.27922 11.2921L3.98594 11.9996L3.98632 11.9992L3.27922 11.2921ZM7.48484 7.08654L8.19194 7.79365L8.19194 7.79364L7.48484 7.08654ZM7.79414 6.8798L8.17682 7.80368L8.17683 7.80368L7.79414 6.8798ZM8.52383 6.8798L8.14115 7.80368L8.14115 7.80368L8.52383 6.8798ZM8.8331 7.08654L9.54021 6.37943L9.54021 6.37943L8.8331 7.08654ZM9.0398 7.39581L9.96368 7.01313L9.96368 7.01312L9.0398 7.39581ZM9.0398 8.12546L9.96368 8.50814L9.96368 8.50814L9.0398 8.12546ZM8.8331 8.43473L8.12599 7.72763L8.12598 7.72764L8.8331 8.43473ZM6.25427 11.0137L5.54715 10.3066L3.84013 12.0137H6.25427V11.0137ZM20.7787 1H12.9675V3H20.7787V1ZM22.1595 1.57246C21.7937 1.2066 21.2976 1.00061 20.7799 1L20.7776 3C20.7653 2.99998 20.7538 2.99514 20.7453 2.98667L22.1595 1.57246ZM22.7319 2.95206C22.7313 2.43461 22.5255 1.93844 22.1595 1.57245L20.7453 2.98667C20.7367 2.97807 20.7319 2.96646 20.7319 2.95443L22.7319 2.95206ZM22.7319 20.9802V2.95325H20.7319V20.9802H22.7319ZM22.1595 22.361C22.5255 21.995 22.7313 21.4988 22.7319 20.9814L20.7319 20.979C20.7319 20.967 20.7367 20.9554 20.7453 20.9468L22.1595 22.361ZM20.7799 22.9334C21.2976 22.9328 21.7937 22.7268 22.1595 22.361L20.7453 20.9468C20.7538 20.9383 20.7653 20.9335 20.7775 20.9334L20.7799 22.9334ZM12.9675 22.9334H20.7787V20.9334H12.9675V22.9334ZM11.5864 22.3614C11.9527 22.7278 12.4496 22.9334 12.9675 22.9334V20.9334C12.9798 20.9334 12.9917 20.9383 13.0006 20.9472L11.5864 22.3614ZM11.0143 20.9802C11.0143 21.4981 11.22 21.995 11.5864 22.3614L13.0006 20.9472C13.0094 20.956 13.0143 20.9679 13.0143 20.9802H11.0143ZM11.5864 19.5991C11.2201 19.9654 11.0143 20.4621 11.0143 20.9802H13.0143C13.0143 20.9927 13.0093 21.0046 13.0006 21.0133L11.5864 19.5991ZM12.9675 19.0271C12.4496 19.0271 11.9527 19.2327 11.5864 19.5991L13.0006 21.0133C12.9917 21.0222 12.9798 21.0271 12.9675 21.0271V19.0271ZM19.8255 19.0271H12.9675V21.0271H19.8255V19.0271ZM18.8255 3.90649V20.0271H20.8255V3.90649H18.8255ZM12.9675 4.90649H19.8255V2.90649H12.9675V4.90649ZM11.5864 4.33431C11.9525 4.70043 12.4492 4.90649 12.9675 4.90649V2.90649C12.9802 2.90649 12.992 2.9115 13.0006 2.9201L11.5864 4.33431ZM11.0143 2.95325C11.0143 3.47131 11.2201 3.96805 11.5864 4.33431L13.0006 2.9201C13.0093 2.92884 13.0143 2.94078 13.0143 2.95325H11.0143ZM11.5864 1.57204C11.22 1.93841 11.0143 2.43533 11.0143 2.95325H13.0143C13.0143 2.96555 13.0094 2.9774 13.0006 2.98625L11.5864 1.57204ZM12.9675 1C12.4496 1 11.9527 1.20566 11.5864 1.57204L13.0006 2.98625C12.9917 2.99512 12.9798 3 12.9675 3V1ZM6.25427 13.92H17.173V11.92H6.25427V13.92ZM9.54005 14.7904L6.96122 12.2128L5.54732 13.6273L8.12615 16.205L9.54005 14.7904ZM9.96368 15.4243C9.86543 15.1871 9.72144 14.9718 9.54021 14.7906L8.12599 16.2048C8.12183 16.2006 8.11835 16.1955 8.11592 16.1897L9.96368 15.4243ZM10.1124 16.1719C10.1124 15.9157 10.0619 15.6615 9.96368 15.4243L8.11592 16.1897C8.11349 16.1838 8.11235 16.1778 8.11235 16.1719H10.1124ZM9.96368 16.9195C10.0619 16.6824 10.1124 16.4284 10.1124 16.1719H8.11235C8.11235 16.1659 8.11354 16.1598 8.11592 16.1541L9.96368 16.9195ZM9.54021 17.5531C9.72143 17.3719 9.86543 17.1567 9.96368 16.9194L8.11592 16.1541C8.11835 16.1482 8.12183 16.1431 8.12599 16.1389L9.54021 17.5531ZM8.90651 17.9765C9.14328 17.8784 9.35865 17.7347 9.54021 17.5531L8.12599 16.1389C8.13049 16.1344 8.13571 16.131 8.14115 16.1288L8.90651 17.9765ZM8.15897 18.1253C8.4161 18.1253 8.67008 18.0745 8.90651 17.9765L8.14114 16.1288C8.14624 16.1266 8.15224 16.1253 8.15897 16.1253V18.1253ZM7.41146 17.9765C7.64786 18.0744 7.9018 18.1253 8.15897 18.1253V16.1253C8.16573 16.1253 8.17177 16.1267 8.17683 16.1288L7.41146 17.9765ZM6.77772 17.5531C6.95936 17.7348 7.17478 17.8785 7.41146 17.9765L8.17682 16.1288C8.18216 16.131 8.18737 16.1344 8.19195 16.1389L6.77772 17.5531ZM2.57201 13.3462L6.77763 17.553L8.19204 16.139L3.98642 11.9322L2.57201 13.3462ZM2.14877 12.7131C2.24704 12.9502 2.39106 13.1655 2.57249 13.3467L3.98594 11.9317C3.99034 11.9361 3.99388 11.9414 3.99633 11.9473L2.14877 12.7131ZM2 11.9657C2 12.2221 2.05051 12.4761 2.14877 12.7132L3.99633 11.9473C3.99877 11.9532 4 11.9594 4 11.9657H2ZM2.14877 11.2182C2.05051 11.4552 2 11.7092 2 11.9657H4C4 11.9719 3.99877 11.9782 3.99633 11.9841L2.14877 11.2182ZM2.57249 10.5846C2.39106 10.7659 2.24704 10.9811 2.14877 11.2182L3.99633 11.9841C3.99388 11.9899 3.99034 11.9952 3.98594 11.9996L2.57249 10.5846ZM6.77773 6.37943L2.57211 10.585L3.98632 11.9992L8.19194 7.79365L6.77773 6.37943ZM7.41146 5.95592C7.1742 6.0542 6.95892 6.19824 6.77773 6.37943L8.19194 7.79364C8.18781 7.79777 8.18274 7.80123 8.17682 7.80368L7.41146 5.95592ZM8.15897 5.80725C7.90254 5.80725 7.64854 5.85772 7.41146 5.95592L8.17683 7.80368C8.17108 7.80606 8.165 7.80725 8.15897 7.80725V5.80725ZM8.90651 5.95592C8.66939 5.85771 8.41536 5.80725 8.15897 5.80725V7.80725C8.15298 7.80725 8.14692 7.80607 8.14115 7.80368L8.90651 5.95592ZM9.54021 6.37943C9.35909 6.19831 9.14386 6.05424 8.90651 5.95592L8.14115 7.80368C8.13513 7.80119 8.13005 7.7977 8.126 7.79364L9.54021 6.37943ZM9.96368 7.01312C9.86543 6.77592 9.72143 6.56066 9.54021 6.37943L8.12599 7.79364C8.12183 7.78948 8.11835 7.78436 8.11592 7.77849L9.96368 7.01312ZM10.1124 7.76063C10.1124 7.50421 10.0619 7.25021 9.96368 7.01313L8.11592 7.77849C8.11354 7.77275 8.11235 7.76666 8.11235 7.76063H10.1124ZM9.96368 8.50814C10.0619 8.27106 10.1124 8.01706 10.1124 7.76063H8.11235C8.11235 7.75461 8.11354 7.74852 8.11592 7.74278L9.96368 8.50814ZM9.54021 9.14184C9.72143 8.96061 9.86543 8.74535 9.96368 8.50814L8.11592 7.74278C8.11835 7.73691 8.12183 7.73179 8.12599 7.72763L9.54021 9.14184ZM6.96139 11.7208L9.54022 9.14183L8.12598 7.72764L5.54715 10.3066L6.96139 11.7208ZM17.173 10.0137H6.25427V12.0137H17.173V10.0137ZM18.5542 10.5857C18.1878 10.2193 17.6909 10.0137 17.173 10.0137V12.0137C17.1607 12.0137 17.1488 12.0088 17.14 11.9999L18.5542 10.5857ZM19.1262 11.9668C19.1262 11.4487 18.9204 10.952 18.5542 10.5857L17.14 11.9999C17.1312 11.9912 17.1262 11.9792 17.1262 11.9668H19.1262ZM18.5542 13.348C18.9205 12.9816 19.1262 12.4847 19.1262 11.9668H17.1262C17.1262 11.9545 17.1311 11.9426 17.14 11.9338L18.5542 13.348ZM17.173 13.92C17.6909 13.92 18.1878 13.7144 18.5542 13.348L17.14 11.9338C17.1488 11.9249 17.1607 11.92 17.173 11.92V13.92Z" fill="black" fill-opacity="0.2" mask="url(#path-1-inside-1_314_356)"/>
<path d="M20.7787 2L20.7799 1H20.7787V2ZM21.4524 2.27956L20.7453 2.98667L20.7453 2.98667L21.4524 2.27956ZM21.7319 2.95325H22.7319V2.95206L21.7319 2.95325ZM21.7319 20.9802L22.7319 20.9814V20.9802H21.7319ZM20.7787 21.9334V22.9334H20.7799L20.7787 21.9334ZM12.2935 21.6543L13.0006 20.9472L13.0006 20.9472L12.2935 21.6543ZM12.2935 20.3062L11.5864 19.5991L11.5864 19.5991L12.2935 20.3062ZM19.8255 20.0271V21.0271H20.8255V20.0271H19.8255ZM19.8255 3.90649H20.8255V2.90649H19.8255V3.90649ZM12.2935 3.62721L11.5864 4.33431V4.33431L12.2935 3.62721ZM12.2935 2.27915L13.0006 2.98625V2.98625L12.2935 2.27915ZM6.25427 12.92V11.92H3.8393L5.54732 13.6273L6.25427 12.92ZM8.8331 15.4977L9.54021 14.7906L9.54005 14.7904L8.8331 15.4977ZM9.0398 15.807L9.96368 15.4243L9.96368 15.4243L9.0398 15.807ZM9.0398 16.5368L8.11592 16.1541L8.11592 16.1541L9.0398 16.5368ZM8.8331 16.846L8.12599 16.1389L8.12599 16.1389L8.8331 16.846ZM8.52383 17.0526L8.14115 16.1288L8.14114 16.1288L8.52383 17.0526ZM7.79414 17.0526L8.17683 16.1288L8.17682 16.1288L7.79414 17.0526ZM7.48484 16.846L6.77763 17.553L6.77772 17.5531L7.48484 16.846ZM3.27922 12.6392L3.98642 11.9322L3.98594 11.9317L3.27922 12.6392ZM3.07255 12.3302L3.99633 11.9473L3.99633 11.9473L3.07255 12.3302ZM3.07255 11.6011L3.99633 11.9841L3.99633 11.9841L3.07255 11.6011ZM3.27922 11.2921L3.98594 11.9996L3.98632 11.9992L3.27922 11.2921ZM7.48484 7.08654L8.19194 7.79365L8.19194 7.79364L7.48484 7.08654ZM7.79414 6.8798L8.17682 7.80368L8.17683 7.80368L7.79414 6.8798ZM8.52383 6.8798L8.14115 7.80368L8.14115 7.80368L8.52383 6.8798ZM8.8331 7.08654L9.54021 6.37943L9.54021 6.37943L8.8331 7.08654ZM9.0398 7.39581L9.96368 7.01313L9.96368 7.01312L9.0398 7.39581ZM9.0398 8.12546L9.96368 8.50814L9.96368 8.50814L9.0398 8.12546ZM8.8331 8.43473L8.12599 7.72763L8.12598 7.72764L8.8331 8.43473ZM6.25427 11.0137L5.54715 10.3066L3.84013 12.0137H6.25427V11.0137ZM20.7787 1H12.9675V3H20.7787V1ZM22.1595 1.57246C21.7937 1.2066 21.2976 1.00061 20.7799 1L20.7776 3C20.7653 2.99998 20.7538 2.99514 20.7453 2.98667L22.1595 1.57246ZM22.7319 2.95206C22.7313 2.43461 22.5255 1.93844 22.1595 1.57245L20.7453 2.98667C20.7367 2.97807 20.7319 2.96646 20.7319 2.95443L22.7319 2.95206ZM22.7319 20.9802V2.95325H20.7319V20.9802H22.7319ZM22.1595 22.361C22.5255 21.995 22.7313 21.4988 22.7319 20.9814L20.7319 20.979C20.7319 20.967 20.7367 20.9554 20.7453 20.9468L22.1595 22.361ZM20.7799 22.9334C21.2976 22.9328 21.7937 22.7268 22.1595 22.361L20.7453 20.9468C20.7538 20.9383 20.7653 20.9335 20.7775 20.9334L20.7799 22.9334ZM12.9675 22.9334H20.7787V20.9334H12.9675V22.9334ZM11.5864 22.3614C11.9527 22.7278 12.4496 22.9334 12.9675 22.9334V20.9334C12.9798 20.9334 12.9917 20.9383 13.0006 20.9472L11.5864 22.3614ZM11.0143 20.9802C11.0143 21.4981 11.22 21.995 11.5864 22.3614L13.0006 20.9472C13.0094 20.956 13.0143 20.9679 13.0143 20.9802H11.0143ZM11.5864 19.5991C11.2201 19.9654 11.0143 20.4621 11.0143 20.9802H13.0143C13.0143 20.9927 13.0093 21.0046 13.0006 21.0133L11.5864 19.5991ZM12.9675 19.0271C12.4496 19.0271 11.9527 19.2327 11.5864 19.5991L13.0006 21.0133C12.9917 21.0222 12.9798 21.0271 12.9675 21.0271V19.0271ZM19.8255 19.0271H12.9675V21.0271H19.8255V19.0271ZM18.8255 3.90649V20.0271H20.8255V3.90649H18.8255ZM12.9675 4.90649H19.8255V2.90649H12.9675V4.90649ZM11.5864 4.33431C11.9525 4.70043 12.4492 4.90649 12.9675 4.90649V2.90649C12.9802 2.90649 12.992 2.9115 13.0006 2.9201L11.5864 4.33431ZM11.0143 2.95325C11.0143 3.47131 11.2201 3.96805 11.5864 4.33431L13.0006 2.9201C13.0093 2.92884 13.0143 2.94078 13.0143 2.95325H11.0143ZM11.5864 1.57204C11.22 1.93841 11.0143 2.43533 11.0143 2.95325H13.0143C13.0143 2.96555 13.0094 2.9774 13.0006 2.98625L11.5864 1.57204ZM12.9675 1C12.4496 1 11.9527 1.20566 11.5864 1.57204L13.0006 2.98625C12.9917 2.99512 12.9798 3 12.9675 3V1ZM6.25427 13.92H17.173V11.92H6.25427V13.92ZM9.54005 14.7904L6.96122 12.2128L5.54732 13.6273L8.12615 16.205L9.54005 14.7904ZM9.96368 15.4243C9.86543 15.1871 9.72144 14.9718 9.54021 14.7906L8.12599 16.2048C8.12183 16.2006 8.11835 16.1955 8.11592 16.1897L9.96368 15.4243ZM10.1124 16.1719C10.1124 15.9157 10.0619 15.6615 9.96368 15.4243L8.11592 16.1897C8.11349 16.1838 8.11235 16.1778 8.11235 16.1719H10.1124ZM9.96368 16.9195C10.0619 16.6824 10.1124 16.4284 10.1124 16.1719H8.11235C8.11235 16.1659 8.11354 16.1598 8.11592 16.1541L9.96368 16.9195ZM9.54021 17.5531C9.72143 17.3719 9.86543 17.1567 9.96368 16.9194L8.11592 16.1541C8.11835 16.1482 8.12183 16.1431 8.12599 16.1389L9.54021 17.5531ZM8.90651 17.9765C9.14328 17.8784 9.35865 17.7347 9.54021 17.5531L8.12599 16.1389C8.13049 16.1344 8.13571 16.131 8.14115 16.1288L8.90651 17.9765ZM8.15897 18.1253C8.4161 18.1253 8.67008 18.0745 8.90651 17.9765L8.14114 16.1288C8.14624 16.1266 8.15224 16.1253 8.15897 16.1253V18.1253ZM7.41146 17.9765C7.64786 18.0744 7.9018 18.1253 8.15897 18.1253V16.1253C8.16573 16.1253 8.17177 16.1267 8.17683 16.1288L7.41146 17.9765ZM6.77772 17.5531C6.95936 17.7348 7.17478 17.8785 7.41146 17.9765L8.17682 16.1288C8.18216 16.131 8.18737 16.1344 8.19195 16.1389L6.77772 17.5531ZM2.57201 13.3462L6.77763 17.553L8.19204 16.139L3.98642 11.9322L2.57201 13.3462ZM2.14877 12.7131C2.24704 12.9502 2.39106 13.1655 2.57249 13.3467L3.98594 11.9317C3.99034 11.9361 3.99388 11.9414 3.99633 11.9473L2.14877 12.7131ZM2 11.9657C2 12.2221 2.05051 12.4761 2.14877 12.7132L3.99633 11.9473C3.99877 11.9532 4 11.9594 4 11.9657H2ZM2.14877 11.2182C2.05051 11.4552 2 11.7092 2 11.9657H4C4 11.9719 3.99877 11.9782 3.99633 11.9841L2.14877 11.2182ZM2.57249 10.5846C2.39106 10.7659 2.24704 10.9811 2.14877 11.2182L3.99633 11.9841C3.99388 11.9899 3.99034 11.9952 3.98594 11.9996L2.57249 10.5846ZM6.77773 6.37943L2.57211 10.585L3.98632 11.9992L8.19194 7.79365L6.77773 6.37943ZM7.41146 5.95592C7.1742 6.0542 6.95892 6.19824 6.77773 6.37943L8.19194 7.79364C8.18781 7.79777 8.18274 7.80123 8.17682 7.80368L7.41146 5.95592ZM8.15897 5.80725C7.90254 5.80725 7.64854 5.85772 7.41146 5.95592L8.17683 7.80368C8.17108 7.80606 8.165 7.80725 8.15897 7.80725V5.80725ZM8.90651 5.95592C8.66939 5.85771 8.41536 5.80725 8.15897 5.80725V7.80725C8.15298 7.80725 8.14692 7.80607 8.14115 7.80368L8.90651 5.95592ZM9.54021 6.37943C9.35909 6.19831 9.14386 6.05424 8.90651 5.95592L8.14115 7.80368C8.13513 7.80119 8.13005 7.7977 8.126 7.79364L9.54021 6.37943ZM9.96368 7.01312C9.86543 6.77592 9.72143 6.56066 9.54021 6.37943L8.12599 7.79364C8.12183 7.78948 8.11835 7.78436 8.11592 7.77849L9.96368 7.01312ZM10.1124 7.76063C10.1124 7.50421 10.0619 7.25021 9.96368 7.01313L8.11592 7.77849C8.11354 7.77275 8.11235 7.76666 8.11235 7.76063H10.1124ZM9.96368 8.50814C10.0619 8.27106 10.1124 8.01706 10.1124 7.76063H8.11235C8.11235 7.75461 8.11354 7.74852 8.11592 7.74278L9.96368 8.50814ZM9.54021 9.14184C9.72143 8.96061 9.86543 8.74535 9.96368 8.50814L8.11592 7.74278C8.11835 7.73691 8.12183 7.73179 8.12599 7.72763L9.54021 9.14184ZM6.96139 11.7208L9.54022 9.14183L8.12598 7.72764L5.54715 10.3066L6.96139 11.7208ZM17.173 10.0137H6.25427V12.0137H17.173V10.0137ZM18.5542 10.5857C18.1878 10.2193 17.6909 10.0137 17.173 10.0137V12.0137C17.1607 12.0137 17.1488 12.0088 17.14 11.9999L18.5542 10.5857ZM19.1262 11.9668C19.1262 11.4487 18.9204 10.952 18.5542 10.5857L17.14 11.9999C17.1312 11.9912 17.1262 11.9792 17.1262 11.9668H19.1262ZM18.5542 13.348C18.9205 12.9816 19.1262 12.4847 19.1262 11.9668H17.1262C17.1262 11.9545 17.1311 11.9426 17.14 11.9338L18.5542 13.348ZM17.173 13.92C17.6909 13.92 18.1878 13.7144 18.5542 13.348L17.14 11.9338C17.1488 11.9249 17.1607 11.92 17.173 11.92V13.92Z" fill="black" fill-opacity="0.2" mask="url(#path-1-inside-1_314_356)"/>
<path d="M20.7787 2L20.7799 1H20.7787V2ZM21.4524 2.27956L20.7453 2.98667L20.7453 2.98667L21.4524 2.27956ZM21.7319 2.95325H22.7319V2.95206L21.7319 2.95325ZM21.7319 20.9802L22.7319 20.9814V20.9802H21.7319ZM20.7787 21.9334V22.9334H20.7799L20.7787 21.9334ZM12.2935 21.6543L13.0006 20.9472L13.0006 20.9472L12.2935 21.6543ZM12.2935 20.3062L11.5864 19.5991L11.5864 19.5991L12.2935 20.3062ZM19.8255 20.0271V21.0271H20.8255V20.0271H19.8255ZM19.8255 3.90649H20.8255V2.90649H19.8255V3.90649ZM12.2935 3.62721L11.5864 4.33431V4.33431L12.2935 3.62721ZM12.2935 2.27915L13.0006 2.98625V2.98625L12.2935 2.27915ZM6.25427 12.92V11.92H3.8393L5.54732 13.6273L6.25427 12.92ZM8.8331 15.4977L9.54021 14.7906L9.54005 14.7904L8.8331 15.4977ZM9.0398 15.807L9.96368 15.4243L9.96368 15.4243L9.0398 15.807ZM9.0398 16.5368L8.11592 16.1541L8.11592 16.1541L9.0398 16.5368ZM8.8331 16.846L8.12599 16.1389L8.12599 16.1389L8.8331 16.846ZM8.52383 17.0526L8.14115 16.1288L8.14114 16.1288L8.52383 17.0526ZM7.79414 17.0526L8.17683 16.1288L8.17682 16.1288L7.79414 17.0526ZM7.48484 16.846L6.77763 17.553L6.77772 17.5531L7.48484 16.846ZM3.27922 12.6392L3.98642 11.9322L3.98594 11.9317L3.27922 12.6392ZM3.07255 12.3302L3.99633 11.9473L3.99633 11.9473L3.07255 12.3302ZM3.07255 11.6011L3.99633 11.9841L3.99633 11.9841L3.07255 11.6011ZM3.27922 11.2921L3.98594 11.9996L3.98632 11.9992L3.27922 11.2921ZM7.48484 7.08654L8.19194 7.79365L8.19194 7.79364L7.48484 7.08654ZM7.79414 6.8798L8.17682 7.80368L8.17683 7.80368L7.79414 6.8798ZM8.52383 6.8798L8.14115 7.80368L8.14115 7.80368L8.52383 6.8798ZM8.8331 7.08654L9.54021 6.37943L9.54021 6.37943L8.8331 7.08654ZM9.0398 7.39581L9.96368 7.01313L9.96368 7.01312L9.0398 7.39581ZM9.0398 8.12546L9.96368 8.50814L9.96368 8.50814L9.0398 8.12546ZM8.8331 8.43473L8.12599 7.72763L8.12598 7.72764L8.8331 8.43473ZM6.25427 11.0137L5.54715 10.3066L3.84013 12.0137H6.25427V11.0137ZM20.7787 1H12.9675V3H20.7787V1ZM22.1595 1.57246C21.7937 1.2066 21.2976 1.00061 20.7799 1L20.7776 3C20.7653 2.99998 20.7538 2.99514 20.7453 2.98667L22.1595 1.57246ZM22.7319 2.95206C22.7313 2.43461 22.5255 1.93844 22.1595 1.57245L20.7453 2.98667C20.7367 2.97807 20.7319 2.96646 20.7319 2.95443L22.7319 2.95206ZM22.7319 20.9802V2.95325H20.7319V20.9802H22.7319ZM22.1595 22.361C22.5255 21.995 22.7313 21.4988 22.7319 20.9814L20.7319 20.979C20.7319 20.967 20.7367 20.9554 20.7453 20.9468L22.1595 22.361ZM20.7799 22.9334C21.2976 22.9328 21.7937 22.7268 22.1595 22.361L20.7453 20.9468C20.7538 20.9383 20.7653 20.9335 20.7775 20.9334L20.7799 22.9334ZM12.9675 22.9334H20.7787V20.9334H12.9675V22.9334ZM11.5864 22.3614C11.9527 22.7278 12.4496 22.9334 12.9675 22.9334V20.9334C12.9798 20.9334 12.9917 20.9383 13.0006 20.9472L11.5864 22.3614ZM11.0143 20.9802C11.0143 21.4981 11.22 21.995 11.5864 22.3614L13.0006 20.9472C13.0094 20.956 13.0143 20.9679 13.0143 20.9802H11.0143ZM11.5864 19.5991C11.2201 19.9654 11.0143 20.4621 11.0143 20.9802H13.0143C13.0143 20.9927 13.0093 21.0046 13.0006 21.0133L11.5864 19.5991ZM12.9675 19.0271C12.4496 19.0271 11.9527 19.2327 11.5864 19.5991L13.0006 21.0133C12.9917 21.0222 12.9798 21.0271 12.9675 21.0271V19.0271ZM19.8255 19.0271H12.9675V21.0271H19.8255V19.0271ZM18.8255 3.90649V20.0271H20.8255V3.90649H18.8255ZM12.9675 4.90649H19.8255V2.90649H12.9675V4.90649ZM11.5864 4.33431C11.9525 4.70043 12.4492 4.90649 12.9675 4.90649V2.90649C12.9802 2.90649 12.992 2.9115 13.0006 2.9201L11.5864 4.33431ZM11.0143 2.95325C11.0143 3.47131 11.2201 3.96805 11.5864 4.33431L13.0006 2.9201C13.0093 2.92884 13.0143 2.94078 13.0143 2.95325H11.0143ZM11.5864 1.57204C11.22 1.93841 11.0143 2.43533 11.0143 2.95325H13.0143C13.0143 2.96555 13.0094 2.9774 13.0006 2.98625L11.5864 1.57204ZM12.9675 1C12.4496 1 11.9527 1.20566 11.5864 1.57204L13.0006 2.98625C12.9917 2.99512 12.9798 3 12.9675 3V1ZM6.25427 13.92H17.173V11.92H6.25427V13.92ZM9.54005 14.7904L6.96122 12.2128L5.54732 13.6273L8.12615 16.205L9.54005 14.7904ZM9.96368 15.4243C9.86543 15.1871 9.72144 14.9718 9.54021 14.7906L8.12599 16.2048C8.12183 16.2006 8.11835 16.1955 8.11592 16.1897L9.96368 15.4243ZM10.1124 16.1719C10.1124 15.9157 10.0619 15.6615 9.96368 15.4243L8.11592 16.1897C8.11349 16.1838 8.11235 16.1778 8.11235 16.1719H10.1124ZM9.96368 16.9195C10.0619 16.6824 10.1124 16.4284 10.1124 16.1719H8.11235C8.11235 16.1659 8.11354 16.1598 8.11592 16.1541L9.96368 16.9195ZM9.54021 17.5531C9.72143 17.3719 9.86543 17.1567 9.96368 16.9194L8.11592 16.1541C8.11835 16.1482 8.12183 16.1431 8.12599 16.1389L9.54021 17.5531ZM8.90651 17.9765C9.14328 17.8784 9.35865 17.7347 9.54021 17.5531L8.12599 16.1389C8.13049 16.1344 8.13571 16.131 8.14115 16.1288L8.90651 17.9765ZM8.15897 18.1253C8.4161 18.1253 8.67008 18.0745 8.90651 17.9765L8.14114 16.1288C8.14624 16.1266 8.15224 16.1253 8.15897 16.1253V18.1253ZM7.41146 17.9765C7.64786 18.0744 7.9018 18.1253 8.15897 18.1253V16.1253C8.16573 16.1253 8.17177 16.1267 8.17683 16.1288L7.41146 17.9765ZM6.77772 17.5531C6.95936 17.7348 7.17478 17.8785 7.41146 17.9765L8.17682 16.1288C8.18216 16.131 8.18737 16.1344 8.19195 16.1389L6.77772 17.5531ZM2.57201 13.3462L6.77763 17.553L8.19204 16.139L3.98642 11.9322L2.57201 13.3462ZM2.14877 12.7131C2.24704 12.9502 2.39106 13.1655 2.57249 13.3467L3.98594 11.9317C3.99034 11.9361 3.99388 11.9414 3.99633 11.9473L2.14877 12.7131ZM2 11.9657C2 12.2221 2.05051 12.4761 2.14877 12.7132L3.99633 11.9473C3.99877 11.9532 4 11.9594 4 11.9657H2ZM2.14877 11.2182C2.05051 11.4552 2 11.7092 2 11.9657H4C4 11.9719 3.99877 11.9782 3.99633 11.9841L2.14877 11.2182ZM2.57249 10.5846C2.39106 10.7659 2.24704 10.9811 2.14877 11.2182L3.99633 11.9841C3.99388 11.9899 3.99034 11.9952 3.98594 11.9996L2.57249 10.5846ZM6.77773 6.37943L2.57211 10.585L3.98632 11.9992L8.19194 7.79365L6.77773 6.37943ZM7.41146 5.95592C7.1742 6.0542 6.95892 6.19824 6.77773 6.37943L8.19194 7.79364C8.18781 7.79777 8.18274 7.80123 8.17682 7.80368L7.41146 5.95592ZM8.15897 5.80725C7.90254 5.80725 7.64854 5.85772 7.41146 5.95592L8.17683 7.80368C8.17108 7.80606 8.165 7.80725 8.15897 7.80725V5.80725ZM8.90651 5.95592C8.66939 5.85771 8.41536 5.80725 8.15897 5.80725V7.80725C8.15298 7.80725 8.14692 7.80607 8.14115 7.80368L8.90651 5.95592ZM9.54021 6.37943C9.35909 6.19831 9.14386 6.05424 8.90651 5.95592L8.14115 7.80368C8.13513 7.80119 8.13005 7.7977 8.126 7.79364L9.54021 6.37943ZM9.96368 7.01312C9.86543 6.77592 9.72143 6.56066 9.54021 6.37943L8.12599 7.79364C8.12183 7.78948 8.11835 7.78436 8.11592 7.77849L9.96368 7.01312ZM10.1124 7.76063C10.1124 7.50421 10.0619 7.25021 9.96368 7.01313L8.11592 7.77849C8.11354 7.77275 8.11235 7.76666 8.11235 7.76063H10.1124ZM9.96368 8.50814C10.0619 8.27106 10.1124 8.01706 10.1124 7.76063H8.11235C8.11235 7.75461 8.11354 7.74852 8.11592 7.74278L9.96368 8.50814ZM9.54021 9.14184C9.72143 8.96061 9.86543 8.74535 9.96368 8.50814L8.11592 7.74278C8.11835 7.73691 8.12183 7.73179 8.12599 7.72763L9.54021 9.14184ZM6.96139 11.7208L9.54022 9.14183L8.12598 7.72764L5.54715 10.3066L6.96139 11.7208ZM17.173 10.0137H6.25427V12.0137H17.173V10.0137ZM18.5542 10.5857C18.1878 10.2193 17.6909 10.0137 17.173 10.0137V12.0137C17.1607 12.0137 17.1488 12.0088 17.14 11.9999L18.5542 10.5857ZM19.1262 11.9668C19.1262 11.4487 18.9204 10.952 18.5542 10.5857L17.14 11.9999C17.1312 11.9912 17.1262 11.9792 17.1262 11.9668H19.1262ZM18.5542 13.348C18.9205 12.9816 19.1262 12.4847 19.1262 11.9668H17.1262C17.1262 11.9545 17.1311 11.9426 17.14 11.9338L18.5542 13.348ZM17.173 13.92C17.6909 13.92 18.1878 13.7144 18.5542 13.348L17.14 11.9338C17.1488 11.9249 17.1607 11.92 17.173 11.92V13.92Z" fill="black" fill-opacity="0.2" mask="url(#path-1-inside-1_314_356)"/>
<path d="M20.7787 2L20.7799 1H20.7787V2ZM21.4524 2.27956L20.7453 2.98667L20.7453 2.98667L21.4524 2.27956ZM21.7319 2.95325H22.7319V2.95206L21.7319 2.95325ZM21.7319 20.9802L22.7319 20.9814V20.9802H21.7319ZM20.7787 21.9334V22.9334H20.7799L20.7787 21.9334ZM12.2935 21.6543L13.0006 20.9472L13.0006 20.9472L12.2935 21.6543ZM12.2935 20.3062L11.5864 19.5991L11.5864 19.5991L12.2935 20.3062ZM19.8255 20.0271V21.0271H20.8255V20.0271H19.8255ZM19.8255 3.90649H20.8255V2.90649H19.8255V3.90649ZM12.2935 3.62721L11.5864 4.33431V4.33431L12.2935 3.62721ZM12.2935 2.27915L13.0006 2.98625V2.98625L12.2935 2.27915ZM6.25427 12.92V11.92H3.8393L5.54732 13.6273L6.25427 12.92ZM8.8331 15.4977L9.54021 14.7906L9.54005 14.7904L8.8331 15.4977ZM9.0398 15.807L9.96368 15.4243L9.96368 15.4243L9.0398 15.807ZM9.0398 16.5368L8.11592 16.1541L8.11592 16.1541L9.0398 16.5368ZM8.8331 16.846L8.12599 16.1389L8.12599 16.1389L8.8331 16.846ZM8.52383 17.0526L8.14115 16.1288L8.14114 16.1288L8.52383 17.0526ZM7.79414 17.0526L8.17683 16.1288L8.17682 16.1288L7.79414 17.0526ZM7.48484 16.846L6.77763 17.553L6.77772 17.5531L7.48484 16.846ZM3.27922 12.6392L3.98642 11.9322L3.98594 11.9317L3.27922 12.6392ZM3.07255 12.3302L3.99633 11.9473L3.99633 11.9473L3.07255 12.3302ZM3.07255 11.6011L3.99633 11.9841L3.99633 11.9841L3.07255 11.6011ZM3.27922 11.2921L3.98594 11.9996L3.98632 11.9992L3.27922 11.2921ZM7.48484 7.08654L8.19194 7.79365L8.19194 7.79364L7.48484 7.08654ZM7.79414 6.8798L8.17682 7.80368L8.17683 7.80368L7.79414 6.8798ZM8.52383 6.8798L8.14115 7.80368L8.14115 7.80368L8.52383 6.8798ZM8.8331 7.08654L9.54021 6.37943L9.54021 6.37943L8.8331 7.08654ZM9.0398 7.39581L9.96368 7.01313L9.96368 7.01312L9.0398 7.39581ZM9.0398 8.12546L9.96368 8.50814L9.96368 8.50814L9.0398 8.12546ZM8.8331 8.43473L8.12599 7.72763L8.12598 7.72764L8.8331 8.43473ZM6.25427 11.0137L5.54715 10.3066L3.84013 12.0137H6.25427V11.0137ZM20.7787 1H12.9675V3H20.7787V1ZM22.1595 1.57246C21.7937 1.2066 21.2976 1.00061 20.7799 1L20.7776 3C20.7653 2.99998 20.7538 2.99514 20.7453 2.98667L22.1595 1.57246ZM22.7319 2.95206C22.7313 2.43461 22.5255 1.93844 22.1595 1.57245L20.7453 2.98667C20.7367 2.97807 20.7319 2.96646 20.7319 2.95443L22.7319 2.95206ZM22.7319 20.9802V2.95325H20.7319V20.9802H22.7319ZM22.1595 22.361C22.5255 21.995 22.7313 21.4988 22.7319 20.9814L20.7319 20.979C20.7319 20.967 20.7367 20.9554 20.7453 20.9468L22.1595 22.361ZM20.7799 22.9334C21.2976 22.9328 21.7937 22.7268 22.1595 22.361L20.7453 20.9468C20.7538 20.9383 20.7653 20.9335 20.7775 20.9334L20.7799 22.9334ZM12.9675 22.9334H20.7787V20.9334H12.9675V22.9334ZM11.5864 22.3614C11.9527 22.7278 12.4496 22.9334 12.9675 22.9334V20.9334C12.9798 20.9334 12.9917 20.9383 13.0006 20.9472L11.5864 22.3614ZM11.0143 20.9802C11.0143 21.4981 11.22 21.995 11.5864 22.3614L13.0006 20.9472C13.0094 20.956 13.0143 20.9679 13.0143 20.9802H11.0143ZM11.5864 19.5991C11.2201 19.9654 11.0143 20.4621 11.0143 20.9802H13.0143C13.0143 20.9927 13.0093 21.0046 13.0006 21.0133L11.5864 19.5991ZM12.9675 19.0271C12.4496 19.0271 11.9527 19.2327 11.5864 19.5991L13.0006 21.0133C12.9917 21.0222 12.9798 21.0271 12.9675 21.0271V19.0271ZM19.8255 19.0271H12.9675V21.0271H19.8255V19.0271ZM18.8255 3.90649V20.0271H20.8255V3.90649H18.8255ZM12.9675 4.90649H19.8255V2.90649H12.9675V4.90649ZM11.5864 4.33431C11.9525 4.70043 12.4492 4.90649 12.9675 4.90649V2.90649C12.9802 2.90649 12.992 2.9115 13.0006 2.9201L11.5864 4.33431ZM11.0143 2.95325C11.0143 3.47131 11.2201 3.96805 11.5864 4.33431L13.0006 2.9201C13.0093 2.92884 13.0143 2.94078 13.0143 2.95325H11.0143ZM11.5864 1.57204C11.22 1.93841 11.0143 2.43533 11.0143 2.95325H13.0143C13.0143 2.96555 13.0094 2.9774 13.0006 2.98625L11.5864 1.57204ZM12.9675 1C12.4496 1 11.9527 1.20566 11.5864 1.57204L13.0006 2.98625C12.9917 2.99512 12.9798 3 12.9675 3V1ZM6.25427 13.92H17.173V11.92H6.25427V13.92ZM9.54005 14.7904L6.96122 12.2128L5.54732 13.6273L8.12615 16.205L9.54005 14.7904ZM9.96368 15.4243C9.86543 15.1871 9.72144 14.9718 9.54021 14.7906L8.12599 16.2048C8.12183 16.2006 8.11835 16.1955 8.11592 16.1897L9.96368 15.4243ZM10.1124 16.1719C10.1124 15.9157 10.0619 15.6615 9.96368 15.4243L8.11592 16.1897C8.11349 16.1838 8.11235 16.1778 8.11235 16.1719H10.1124ZM9.96368 16.9195C10.0619 16.6824 10.1124 16.4284 10.1124 16.1719H8.11235C8.11235 16.1659 8.11354 16.1598 8.11592 16.1541L9.96368 16.9195ZM9.54021 17.5531C9.72143 17.3719 9.86543 17.1567 9.96368 16.9194L8.11592 16.1541C8.11835 16.1482 8.12183 16.1431 8.12599 16.1389L9.54021 17.5531ZM8.90651 17.9765C9.14328 17.8784 9.35865 17.7347 9.54021 17.5531L8.12599 16.1389C8.13049 16.1344 8.13571 16.131 8.14115 16.1288L8.90651 17.9765ZM8.15897 18.1253C8.4161 18.1253 8.67008 18.0745 8.90651 17.9765L8.14114 16.1288C8.14624 16.1266 8.15224 16.1253 8.15897 16.1253V18.1253ZM7.41146 17.9765C7.64786 18.0744 7.9018 18.1253 8.15897 18.1253V16.1253C8.16573 16.1253 8.17177 16.1267 8.17683 16.1288L7.41146 17.9765ZM6.77772 17.5531C6.95936 17.7348 7.17478 17.8785 7.41146 17.9765L8.17682 16.1288C8.18216 16.131 8.18737 16.1344 8.19195 16.1389L6.77772 17.5531ZM2.57201 13.3462L6.77763 17.553L8.19204 16.139L3.98642 11.9322L2.57201 13.3462ZM2.14877 12.7131C2.24704 12.9502 2.39106 13.1655 2.57249 13.3467L3.98594 11.9317C3.99034 11.9361 3.99388 11.9414 3.99633 11.9473L2.14877 12.7131ZM2 11.9657C2 12.2221 2.05051 12.4761 2.14877 12.7132L3.99633 11.9473C3.99877 11.9532 4 11.9594 4 11.9657H2ZM2.14877 11.2182C2.05051 11.4552 2 11.7092 2 11.9657H4C4 11.9719 3.99877 11.9782 3.99633 11.9841L2.14877 11.2182ZM2.57249 10.5846C2.39106 10.7659 2.24704 10.9811 2.14877 11.2182L3.99633 11.9841C3.99388 11.9899 3.99034 11.9952 3.98594 11.9996L2.57249 10.5846ZM6.77773 6.37943L2.57211 10.585L3.98632 11.9992L8.19194 7.79365L6.77773 6.37943ZM7.41146 5.95592C7.1742 6.0542 6.95892 6.19824 6.77773 6.37943L8.19194 7.79364C8.18781 7.79777 8.18274 7.80123 8.17682 7.80368L7.41146 5.95592ZM8.15897 5.80725C7.90254 5.80725 7.64854 5.85772 7.41146 5.95592L8.17683 7.80368C8.17108 7.80606 8.165 7.80725 8.15897 7.80725V5.80725ZM8.90651 5.95592C8.66939 5.85771 8.41536 5.80725 8.15897 5.80725V7.80725C8.15298 7.80725 8.14692 7.80607 8.14115 7.80368L8.90651 5.95592ZM9.54021 6.37943C9.35909 6.19831 9.14386 6.05424 8.90651 5.95592L8.14115 7.80368C8.13513 7.80119 8.13005 7.7977 8.126 7.79364L9.54021 6.37943ZM9.96368 7.01312C9.86543 6.77592 9.72143 6.56066 9.54021 6.37943L8.12599 7.79364C8.12183 7.78948 8.11835 7.78436 8.11592 7.77849L9.96368 7.01312ZM10.1124 7.76063C10.1124 7.50421 10.0619 7.25021 9.96368 7.01313L8.11592 7.77849C8.11354 7.77275 8.11235 7.76666 8.11235 7.76063H10.1124ZM9.96368 8.50814C10.0619 8.27106 10.1124 8.01706 10.1124 7.76063H8.11235C8.11235 7.75461 8.11354 7.74852 8.11592 7.74278L9.96368 8.50814ZM9.54021 9.14184C9.72143 8.96061 9.86543 8.74535 9.96368 8.50814L8.11592 7.74278C8.11835 7.73691 8.12183 7.73179 8.12599 7.72763L9.54021 9.14184ZM6.96139 11.7208L9.54022 9.14183L8.12598 7.72764L5.54715 10.3066L6.96139 11.7208ZM17.173 10.0137H6.25427V12.0137H17.173V10.0137ZM18.5542 10.5857C18.1878 10.2193 17.6909 10.0137 17.173 10.0137V12.0137C17.1607 12.0137 17.1488 12.0088 17.14 11.9999L18.5542 10.5857ZM19.1262 11.9668C19.1262 11.4487 18.9204 10.952 18.5542 10.5857L17.14 11.9999C17.1312 11.9912 17.1262 11.9792 17.1262 11.9668H19.1262ZM18.5542 13.348C18.9205 12.9816 19.1262 12.4847 19.1262 11.9668H17.1262C17.1262 11.9545 17.1311 11.9426 17.14 11.9338L18.5542 13.348ZM17.173 13.92C17.6909 13.92 18.1878 13.7144 18.5542 13.348L17.14 11.9338C17.1488 11.9249 17.1607 11.92 17.173 11.92V13.92Z" fill="black" fill-opacity="0.2" mask="url(#path-1-inside-1_314_356)"/>
<path d="M20.7787 2L20.7799 1H20.7787V2ZM21.4524 2.27956L20.7453 2.98667L20.7453 2.98667L21.4524 2.27956ZM21.7319 2.95325H22.7319V2.95206L21.7319 2.95325ZM21.7319 20.9802L22.7319 20.9814V20.9802H21.7319ZM20.7787 21.9334V22.9334H20.7799L20.7787 21.9334ZM12.2935 21.6543L13.0006 20.9472L13.0006 20.9472L12.2935 21.6543ZM12.2935 20.3062L11.5864 19.5991L11.5864 19.5991L12.2935 20.3062ZM19.8255 20.0271V21.0271H20.8255V20.0271H19.8255ZM19.8255 3.90649H20.8255V2.90649H19.8255V3.90649ZM12.2935 3.62721L11.5864 4.33431V4.33431L12.2935 3.62721ZM12.2935 2.27915L13.0006 2.98625V2.98625L12.2935 2.27915ZM6.25427 12.92V11.92H3.8393L5.54732 13.6273L6.25427 12.92ZM8.8331 15.4977L9.54021 14.7906L9.54005 14.7904L8.8331 15.4977ZM9.0398 15.807L9.96368 15.4243L9.96368 15.4243L9.0398 15.807ZM9.0398 16.5368L8.11592 16.1541L8.11592 16.1541L9.0398 16.5368ZM8.8331 16.846L8.12599 16.1389L8.12599 16.1389L8.8331 16.846ZM8.52383 17.0526L8.14115 16.1288L8.14114 16.1288L8.52383 17.0526ZM7.79414 17.0526L8.17683 16.1288L8.17682 16.1288L7.79414 17.0526ZM7.48484 16.846L6.77763 17.553L6.77772 17.5531L7.48484 16.846ZM3.27922 12.6392L3.98642 11.9322L3.98594 11.9317L3.27922 12.6392ZM3.07255 12.3302L3.99633 11.9473L3.99633 11.9473L3.07255 12.3302ZM3.07255 11.6011L3.99633 11.9841L3.99633 11.9841L3.07255 11.6011ZM3.27922 11.2921L3.98594 11.9996L3.98632 11.9992L3.27922 11.2921ZM7.48484 7.08654L8.19194 7.79365L8.19194 7.79364L7.48484 7.08654ZM7.79414 6.8798L8.17682 7.80368L8.17683 7.80368L7.79414 6.8798ZM8.52383 6.8798L8.14115 7.80368L8.14115 7.80368L8.52383 6.8798ZM8.8331 7.08654L9.54021 6.37943L9.54021 6.37943L8.8331 7.08654ZM9.0398 7.39581L9.96368 7.01313L9.96368 7.01312L9.0398 7.39581ZM9.0398 8.12546L9.96368 8.50814L9.96368 8.50814L9.0398 8.12546ZM8.8331 8.43473L8.12599 7.72763L8.12598 7.72764L8.8331 8.43473ZM6.25427 11.0137L5.54715 10.3066L3.84013 12.0137H6.25427V11.0137ZM20.7787 1H12.9675V3H20.7787V1ZM22.1595 1.57246C21.7937 1.2066 21.2976 1.00061 20.7799 1L20.7776 3C20.7653 2.99998 20.7538 2.99514 20.7453 2.98667L22.1595 1.57246ZM22.7319 2.95206C22.7313 2.43461 22.5255 1.93844 22.1595 1.57245L20.7453 2.98667C20.7367 2.97807 20.7319 2.96646 20.7319 2.95443L22.7319 2.95206ZM22.7319 20.9802V2.95325H20.7319V20.9802H22.7319ZM22.1595 22.361C22.5255 21.995 22.7313 21.4988 22.7319 20.9814L20.7319 20.979C20.7319 20.967 20.7367 20.9554 20.7453 20.9468L22.1595 22.361ZM20.7799 22.9334C21.2976 22.9328 21.7937 22.7268 22.1595 22.361L20.7453 20.9468C20.7538 20.9383 20.7653 20.9335 20.7775 20.9334L20.7799 22.9334ZM12.9675 22.9334H20.7787V20.9334H12.9675V22.9334ZM11.5864 22.3614C11.9527 22.7278 12.4496 22.9334 12.9675 22.9334V20.9334C12.9798 20.9334 12.9917 20.9383 13.0006 20.9472L11.5864 22.3614ZM11.0143 20.9802C11.0143 21.4981 11.22 21.995 11.5864 22.3614L13.0006 20.9472C13.0094 20.956 13.0143 20.9679 13.0143 20.9802H11.0143ZM11.5864 19.5991C11.2201 19.9654 11.0143 20.4621 11.0143 20.9802H13.0143C13.0143 20.9927 13.0093 21.0046 13.0006 21.0133L11.5864 19.5991ZM12.9675 19.0271C12.4496 19.0271 11.9527 19.2327 11.5864 19.5991L13.0006 21.0133C12.9917 21.0222 12.9798 21.0271 12.9675 21.0271V19.0271ZM19.8255 19.0271H12.9675V21.0271H19.8255V19.0271ZM18.8255 3.90649V20.0271H20.8255V3.90649H18.8255ZM12.9675 4.90649H19.8255V2.90649H12.9675V4.90649ZM11.5864 4.33431C11.9525 4.70043 12.4492 4.90649 12.9675 4.90649V2.90649C12.9802 2.90649 12.992 2.9115 13.0006 2.9201L11.5864 4.33431ZM11.0143 2.95325C11.0143 3.47131 11.2201 3.96805 11.5864 4.33431L13.0006 2.9201C13.0093 2.92884 13.0143 2.94078 13.0143 2.95325H11.0143ZM11.5864 1.57204C11.22 1.93841 11.0143 2.43533 11.0143 2.95325H13.0143C13.0143 2.96555 13.0094 2.9774 13.0006 2.98625L11.5864 1.57204ZM12.9675 1C12.4496 1 11.9527 1.20566 11.5864 1.57204L13.0006 2.98625C12.9917 2.99512 12.9798 3 12.9675 3V1ZM6.25427 13.92H17.173V11.92H6.25427V13.92ZM9.54005 14.7904L6.96122 12.2128L5.54732 13.6273L8.12615 16.205L9.54005 14.7904ZM9.96368 15.4243C9.86543 15.1871 9.72144 14.9718 9.54021 14.7906L8.12599 16.2048C8.12183 16.2006 8.11835 16.1955 8.11592 16.1897L9.96368 15.4243ZM10.1124 16.1719C10.1124 15.9157 10.0619 15.6615 9.96368 15.4243L8.11592 16.1897C8.11349 16.1838 8.11235 16.1778 8.11235 16.1719H10.1124ZM9.96368 16.9195C10.0619 16.6824 10.1124 16.4284 10.1124 16.1719H8.11235C8.11235 16.1659 8.11354 16.1598 8.11592 16.1541L9.96368 16.9195ZM9.54021 17.5531C9.72143 17.3719 9.86543 17.1567 9.96368 16.9194L8.11592 16.1541C8.11835 16.1482 8.12183 16.1431 8.12599 16.1389L9.54021 17.5531ZM8.90651 17.9765C9.14328 17.8784 9.35865 17.7347 9.54021 17.5531L8.12599 16.1389C8.13049 16.1344 8.13571 16.131 8.14115 16.1288L8.90651 17.9765ZM8.15897 18.1253C8.4161 18.1253 8.67008 18.0745 8.90651 17.9765L8.14114 16.1288C8.14624 16.1266 8.15224 16.1253 8.15897 16.1253V18.1253ZM7.41146 17.9765C7.64786 18.0744 7.9018 18.1253 8.15897 18.1253V16.1253C8.16573 16.1253 8.17177 16.1267 8.17683 16.1288L7.41146 17.9765ZM6.77772 17.5531C6.95936 17.7348 7.17478 17.8785 7.41146 17.9765L8.17682 16.1288C8.18216 16.131 8.18737 16.1344 8.19195 16.1389L6.77772 17.5531ZM2.57201 13.3462L6.77763 17.553L8.19204 16.139L3.98642 11.9322L2.57201 13.3462ZM2.14877 12.7131C2.24704 12.9502 2.39106 13.1655 2.57249 13.3467L3.98594 11.9317C3.99034 11.9361 3.99388 11.9414 3.99633 11.9473L2.14877 12.7131ZM2 11.9657C2 12.2221 2.05051 12.4761 2.14877 12.7132L3.99633 11.9473C3.99877 11.9532 4 11.9594 4 11.9657H2ZM2.14877 11.2182C2.05051 11.4552 2 11.7092 2 11.9657H4C4 11.9719 3.99877 11.9782 3.99633 11.9841L2.14877 11.2182ZM2.57249 10.5846C2.39106 10.7659 2.24704 10.9811 2.14877 11.2182L3.99633 11.9841C3.99388 11.9899 3.99034 11.9952 3.98594 11.9996L2.57249 10.5846ZM6.77773 6.37943L2.57211 10.585L3.98632 11.9992L8.19194 7.79365L6.77773 6.37943ZM7.41146 5.95592C7.1742 6.0542 6.95892 6.19824 6.77773 6.37943L8.19194 7.79364C8.18781 7.79777 8.18274 7.80123 8.17682 7.80368L7.41146 5.95592ZM8.15897 5.80725C7.90254 5.80725 7.64854 5.85772 7.41146 5.95592L8.17683 7.80368C8.17108 7.80606 8.165 7.80725 8.15897 7.80725V5.80725ZM8.90651 5.95592C8.66939 5.85771 8.41536 5.80725 8.15897 5.80725V7.80725C8.15298 7.80725 8.14692 7.80607 8.14115 7.80368L8.90651 5.95592ZM9.54021 6.37943C9.35909 6.19831 9.14386 6.05424 8.90651 5.95592L8.14115 7.80368C8.13513 7.80119 8.13005 7.7977 8.126 7.79364L9.54021 6.37943ZM9.96368 7.01312C9.86543 6.77592 9.72143 6.56066 9.54021 6.37943L8.12599 7.79364C8.12183 7.78948 8.11835 7.78436 8.11592 7.77849L9.96368 7.01312ZM10.1124 7.76063C10.1124 7.50421 10.0619 7.25021 9.96368 7.01313L8.11592 7.77849C8.11354 7.77275 8.11235 7.76666 8.11235 7.76063H10.1124ZM9.96368 8.50814C10.0619 8.27106 10.1124 8.01706 10.1124 7.76063H8.11235C8.11235 7.75461 8.11354 7.74852 8.11592 7.74278L9.96368 8.50814ZM9.54021 9.14184C9.72143 8.96061 9.86543 8.74535 9.96368 8.50814L8.11592 7.74278C8.11835 7.73691 8.12183 7.73179 8.12599 7.72763L9.54021 9.14184ZM6.96139 11.7208L9.54022 9.14183L8.12598 7.72764L5.54715 10.3066L6.96139 11.7208ZM17.173 10.0137H6.25427V12.0137H17.173V10.0137ZM18.5542 10.5857C18.1878 10.2193 17.6909 10.0137 17.173 10.0137V12.0137C17.1607 12.0137 17.1488 12.0088 17.14 11.9999L18.5542 10.5857ZM19.1262 11.9668C19.1262 11.4487 18.9204 10.952 18.5542 10.5857L17.14 11.9999C17.1312 11.9912 17.1262 11.9792 17.1262 11.9668H19.1262ZM18.5542 13.348C18.9205 12.9816 19.1262 12.4847 19.1262 11.9668H17.1262C17.1262 11.9545 17.1311 11.9426 17.14 11.9338L18.5542 13.348ZM17.173 13.92C17.6909 13.92 18.1878 13.7144 18.5542 13.348L17.14 11.9338C17.1488 11.9249 17.1607 11.92 17.173 11.92V13.92Z" fill="black" fill-opacity="0.2" mask="url(#path-1-inside-1_314_356)"/>
<path d="M20.7787 2L20.7799 1H20.7787V2ZM21.4524 2.27956L20.7453 2.98667L20.7453 2.98667L21.4524 2.27956ZM21.7319 2.95325H22.7319V2.95206L21.7319 2.95325ZM21.7319 20.9802L22.7319 20.9814V20.9802H21.7319ZM20.7787 21.9334V22.9334H20.7799L20.7787 21.9334ZM12.2935 21.6543L13.0006 20.9472L13.0006 20.9472L12.2935 21.6543ZM12.2935 20.3062L11.5864 19.5991L11.5864 19.5991L12.2935 20.3062ZM19.8255 20.0271V21.0271H20.8255V20.0271H19.8255ZM19.8255 3.90649H20.8255V2.90649H19.8255V3.90649ZM12.2935 3.62721L11.5864 4.33431V4.33431L12.2935 3.62721ZM12.2935 2.27915L13.0006 2.98625V2.98625L12.2935 2.27915ZM6.25427 12.92V11.92H3.8393L5.54732 13.6273L6.25427 12.92ZM8.8331 15.4977L9.54021 14.7906L9.54005 14.7904L8.8331 15.4977ZM9.0398 15.807L9.96368 15.4243L9.96368 15.4243L9.0398 15.807ZM9.0398 16.5368L8.11592 16.1541L8.11592 16.1541L9.0398 16.5368ZM8.8331 16.846L8.12599 16.1389L8.12599 16.1389L8.8331 16.846ZM8.52383 17.0526L8.14115 16.1288L8.14114 16.1288L8.52383 17.0526ZM7.79414 17.0526L8.17683 16.1288L8.17682 16.1288L7.79414 17.0526ZM7.48484 16.846L6.77763 17.553L6.77772 17.5531L7.48484 16.846ZM3.27922 12.6392L3.98642 11.9322L3.98594 11.9317L3.27922 12.6392ZM3.07255 12.3302L3.99633 11.9473L3.99633 11.9473L3.07255 12.3302ZM3.07255 11.6011L3.99633 11.9841L3.99633 11.9841L3.07255 11.6011ZM3.27922 11.2921L3.98594 11.9996L3.98632 11.9992L3.27922 11.2921ZM7.48484 7.08654L8.19194 7.79365L8.19194 7.79364L7.48484 7.08654ZM7.79414 6.8798L8.17682 7.80368L8.17683 7.80368L7.79414 6.8798ZM8.52383 6.8798L8.14115 7.80368L8.14115 7.80368L8.52383 6.8798ZM8.8331 7.08654L9.54021 6.37943L9.54021 6.37943L8.8331 7.08654ZM9.0398 7.39581L9.96368 7.01313L9.96368 7.01312L9.0398 7.39581ZM9.0398 8.12546L9.96368 8.50814L9.96368 8.50814L9.0398 8.12546ZM8.8331 8.43473L8.12599 7.72763L8.12598 7.72764L8.8331 8.43473ZM6.25427 11.0137L5.54715 10.3066L3.84013 12.0137H6.25427V11.0137ZM20.7787 1H12.9675V3H20.7787V1ZM22.1595 1.57246C21.7937 1.2066 21.2976 1.00061 20.7799 1L20.7776 3C20.7653 2.99998 20.7538 2.99514 20.7453 2.98667L22.1595 1.57246ZM22.7319 2.95206C22.7313 2.43461 22.5255 1.93844 22.1595 1.57245L20.7453 2.98667C20.7367 2.97807 20.7319 2.96646 20.7319 2.95443L22.7319 2.95206ZM22.7319 20.9802V2.95325H20.7319V20.9802H22.7319ZM22.1595 22.361C22.5255 21.995 22.7313 21.4988 22.7319 20.9814L20.7319 20.979C20.7319 20.967 20.7367 20.9554 20.7453 20.9468L22.1595 22.361ZM20.7799 22.9334C21.2976 22.9328 21.7937 22.7268 22.1595 22.361L20.7453 20.9468C20.7538 20.9383 20.7653 20.9335 20.7775 20.9334L20.7799 22.9334ZM12.9675 22.9334H20.7787V20.9334H12.9675V22.9334ZM11.5864 22.3614C11.9527 22.7278 12.4496 22.9334 12.9675 22.9334V20.9334C12.9798 20.9334 12.9917 20.9383 13.0006 20.9472L11.5864 22.3614ZM11.0143 20.9802C11.0143 21.4981 11.22 21.995 11.5864 22.3614L13.0006 20.9472C13.0094 20.956 13.0143 20.9679 13.0143 20.9802H11.0143ZM11.5864 19.5991C11.2201 19.9654 11.0143 20.4621 11.0143 20.9802H13.0143C13.0143 20.9927 13.0093 21.0046 13.0006 21.0133L11.5864 19.5991ZM12.9675 19.0271C12.4496 19.0271 11.9527 19.2327 11.5864 19.5991L13.0006 21.0133C12.9917 21.0222 12.9798 21.0271 12.9675 21.0271V19.0271ZM19.8255 19.0271H12.9675V21.0271H19.8255V19.0271ZM18.8255 3.90649V20.0271H20.8255V3.90649H18.8255ZM12.9675 4.90649H19.8255V2.90649H12.9675V4.90649ZM11.5864 4.33431C11.9525 4.70043 12.4492 4.90649 12.9675 4.90649V2.90649C12.9802 2.90649 12.992 2.9115 13.0006 2.9201L11.5864 4.33431ZM11.0143 2.95325C11.0143 3.47131 11.2201 3.96805 11.5864 4.33431L13.0006 2.9201C13.0093 2.92884 13.0143 2.94078 13.0143 2.95325H11.0143ZM11.5864 1.57204C11.22 1.93841 11.0143 2.43533 11.0143 2.95325H13.0143C13.0143 2.96555 13.0094 2.9774 13.0006 2.98625L11.5864 1.57204ZM12.9675 1C12.4496 1 11.9527 1.20566 11.5864 1.57204L13.0006 2.98625C12.9917 2.99512 12.9798 3 12.9675 3V1ZM6.25427 13.92H17.173V11.92H6.25427V13.92ZM9.54005 14.7904L6.96122 12.2128L5.54732 13.6273L8.12615 16.205L9.54005 14.7904ZM9.96368 15.4243C9.86543 15.1871 9.72144 14.9718 9.54021 14.7906L8.12599 16.2048C8.12183 16.2006 8.11835 16.1955 8.11592 16.1897L9.96368 15.4243ZM10.1124 16.1719C10.1124 15.9157 10.0619 15.6615 9.96368 15.4243L8.11592 16.1897C8.11349 16.1838 8.11235 16.1778 8.11235 16.1719H10.1124ZM9.96368 16.9195C10.0619 16.6824 10.1124 16.4284 10.1124 16.1719H8.11235C8.11235 16.1659 8.11354 16.1598 8.11592 16.1541L9.96368 16.9195ZM9.54021 17.5531C9.72143 17.3719 9.86543 17.1567 9.96368 16.9194L8.11592 16.1541C8.11835 16.1482 8.12183 16.1431 8.12599 16.1389L9.54021 17.5531ZM8.90651 17.9765C9.14328 17.8784 9.35865 17.7347 9.54021 17.5531L8.12599 16.1389C8.13049 16.1344 8.13571 16.131 8.14115 16.1288L8.90651 17.9765ZM8.15897 18.1253C8.4161 18.1253 8.67008 18.0745 8.90651 17.9765L8.14114 16.1288C8.14624 16.1266 8.15224 16.1253 8.15897 16.1253V18.1253ZM7.41146 17.9765C7.64786 18.0744 7.9018 18.1253 8.15897 18.1253V16.1253C8.16573 16.1253 8.17177 16.1267 8.17683 16.1288L7.41146 17.9765ZM6.77772 17.5531C6.95936 17.7348 7.17478 17.8785 7.41146 17.9765L8.17682 16.1288C8.18216 16.131 8.18737 16.1344 8.19195 16.1389L6.77772 17.5531ZM2.57201 13.3462L6.77763 17.553L8.19204 16.139L3.98642 11.9322L2.57201 13.3462ZM2.14877 12.7131C2.24704 12.9502 2.39106 13.1655 2.57249 13.3467L3.98594 11.9317C3.99034 11.9361 3.99388 11.9414 3.99633 11.9473L2.14877 12.7131ZM2 11.9657C2 12.2221 2.05051 12.4761 2.14877 12.7132L3.99633 11.9473C3.99877 11.9532 4 11.9594 4 11.9657H2ZM2.14877 11.2182C2.05051 11.4552 2 11.7092 2 11.9657H4C4 11.9719 3.99877 11.9782 3.99633 11.9841L2.14877 11.2182ZM2.57249 10.5846C2.39106 10.7659 2.24704 10.9811 2.14877 11.2182L3.99633 11.9841C3.99388 11.9899 3.99034 11.9952 3.98594 11.9996L2.57249 10.5846ZM6.77773 6.37943L2.57211 10.585L3.98632 11.9992L8.19194 7.79365L6.77773 6.37943ZM7.41146 5.95592C7.1742 6.0542 6.95892 6.19824 6.77773 6.37943L8.19194 7.79364C8.18781 7.79777 8.18274 7.80123 8.17682 7.80368L7.41146 5.95592ZM8.15897 5.80725C7.90254 5.80725 7.64854 5.85772 7.41146 5.95592L8.17683 7.80368C8.17108 7.80606 8.165 7.80725 8.15897 7.80725V5.80725ZM8.90651 5.95592C8.66939 5.85771 8.41536 5.80725 8.15897 5.80725V7.80725C8.15298 7.80725 8.14692 7.80607 8.14115 7.80368L8.90651 5.95592ZM9.54021 6.37943C9.35909 6.19831 9.14386 6.05424 8.90651 5.95592L8.14115 7.80368C8.13513 7.80119 8.13005 7.7977 8.126 7.79364L9.54021 6.37943ZM9.96368 7.01312C9.86543 6.77592 9.72143 6.56066 9.54021 6.37943L8.12599 7.79364C8.12183 7.78948 8.11835 7.78436 8.11592 7.77849L9.96368 7.01312ZM10.1124 7.76063C10.1124 7.50421 10.0619 7.25021 9.96368 7.01313L8.11592 7.77849C8.11354 7.77275 8.11235 7.76666 8.11235 7.76063H10.1124ZM9.96368 8.50814C10.0619 8.27106 10.1124 8.01706 10.1124 7.76063H8.11235C8.11235 7.75461 8.11354 7.74852 8.11592 7.74278L9.96368 8.50814ZM9.54021 9.14184C9.72143 8.96061 9.86543 8.74535 9.96368 8.50814L8.11592 7.74278C8.11835 7.73691 8.12183 7.73179 8.12599 7.72763L9.54021 9.14184ZM6.96139 11.7208L9.54022 9.14183L8.12598 7.72764L5.54715 10.3066L6.96139 11.7208ZM17.173 10.0137H6.25427V12.0137H17.173V10.0137ZM18.5542 10.5857C18.1878 10.2193 17.6909 10.0137 17.173 10.0137V12.0137C17.1607 12.0137 17.1488 12.0088 17.14 11.9999L18.5542 10.5857ZM19.1262 11.9668C19.1262 11.4487 18.9204 10.952 18.5542 10.5857L17.14 11.9999C17.1312 11.9912 17.1262 11.9792 17.1262 11.9668H19.1262ZM18.5542 13.348C18.9205 12.9816 19.1262 12.4847 19.1262 11.9668H17.1262C17.1262 11.9545 17.1311 11.9426 17.14 11.9338L18.5542 13.348ZM17.173 13.92C17.6909 13.92 18.1878 13.7144 18.5542 13.348L17.14 11.9338C17.1488 11.9249 17.1607 11.92 17.173 11.92V13.92Z" fill="black" fill-opacity="0.2" mask="url(#path-1-inside-1_314_356)"/>
<path d="M20.7787 2L20.7799 1H20.7787V2ZM21.4524 2.27956L20.7453 2.98667L20.7453 2.98667L21.4524 2.27956ZM21.7319 2.95325H22.7319V2.95206L21.7319 2.95325ZM21.7319 20.9802L22.7319 20.9814V20.9802H21.7319ZM20.7787 21.9334V22.9334H20.7799L20.7787 21.9334ZM12.2935 21.6543L13.0006 20.9472L13.0006 20.9472L12.2935 21.6543ZM12.2935 20.3062L11.5864 19.5991L11.5864 19.5991L12.2935 20.3062ZM19.8255 20.0271V21.0271H20.8255V20.0271H19.8255ZM19.8255 3.90649H20.8255V2.90649H19.8255V3.90649ZM12.2935 3.62721L11.5864 4.33431V4.33431L12.2935 3.62721ZM12.2935 2.27915L13.0006 2.98625V2.98625L12.2935 2.27915ZM6.25427 12.92V11.92H3.8393L5.54732 13.6273L6.25427 12.92ZM8.8331 15.4977L9.54021 14.7906L9.54005 14.7904L8.8331 15.4977ZM9.0398 15.807L9.96368 15.4243L9.96368 15.4243L9.0398 15.807ZM9.0398 16.5368L8.11592 16.1541L8.11592 16.1541L9.0398 16.5368ZM8.8331 16.846L8.12599 16.1389L8.12599 16.1389L8.8331 16.846ZM8.52383 17.0526L8.14115 16.1288L8.14114 16.1288L8.52383 17.0526ZM7.79414 17.0526L8.17683 16.1288L8.17682 16.1288L7.79414 17.0526ZM7.48484 16.846L6.77763 17.553L6.77772 17.5531L7.48484 16.846ZM3.27922 12.6392L3.98642 11.9322L3.98594 11.9317L3.27922 12.6392ZM3.07255 12.3302L3.99633 11.9473L3.99633 11.9473L3.07255 12.3302ZM3.07255 11.6011L3.99633 11.9841L3.99633 11.9841L3.07255 11.6011ZM3.27922 11.2921L3.98594 11.9996L3.98632 11.9992L3.27922 11.2921ZM7.48484 7.08654L8.19194 7.79365L8.19194 7.79364L7.48484 7.08654ZM7.79414 6.8798L8.17682 7.80368L8.17683 7.80368L7.79414 6.8798ZM8.52383 6.8798L8.14115 7.80368L8.14115 7.80368L8.52383 6.8798ZM8.8331 7.08654L9.54021 6.37943L9.54021 6.37943L8.8331 7.08654ZM9.0398 7.39581L9.96368 7.01313L9.96368 7.01312L9.0398 7.39581ZM9.0398 8.12546L9.96368 8.50814L9.96368 8.50814L9.0398 8.12546ZM8.8331 8.43473L8.12599 7.72763L8.12598 7.72764L8.8331 8.43473ZM6.25427 11.0137L5.54715 10.3066L3.84013 12.0137H6.25427V11.0137ZM20.7787 1H12.9675V3H20.7787V1ZM22.1595 1.57246C21.7937 1.2066 21.2976 1.00061 20.7799 1L20.7776 3C20.7653 2.99998 20.7538 2.99514 20.7453 2.98667L22.1595 1.57246ZM22.7319 2.95206C22.7313 2.43461 22.5255 1.93844 22.1595 1.57245L20.7453 2.98667C20.7367 2.97807 20.7319 2.96646 20.7319 2.95443L22.7319 2.95206ZM22.7319 20.9802V2.95325H20.7319V20.9802H22.7319ZM22.1595 22.361C22.5255 21.995 22.7313 21.4988 22.7319 20.9814L20.7319 20.979C20.7319 20.967 20.7367 20.9554 20.7453 20.9468L22.1595 22.361ZM20.7799 22.9334C21.2976 22.9328 21.7937 22.7268 22.1595 22.361L20.7453 20.9468C20.7538 20.9383 20.7653 20.9335 20.7775 20.9334L20.7799 22.9334ZM12.9675 22.9334H20.7787V20.9334H12.9675V22.9334ZM11.5864 22.3614C11.9527 22.7278 12.4496 22.9334 12.9675 22.9334V20.9334C12.9798 20.9334 12.9917 20.9383 13.0006 20.9472L11.5864 22.3614ZM11.0143 20.9802C11.0143 21.4981 11.22 21.995 11.5864 22.3614L13.0006 20.9472C13.0094 20.956 13.0143 20.9679 13.0143 20.9802H11.0143ZM11.5864 19.5991C11.2201 19.9654 11.0143 20.4621 11.0143 20.9802H13.0143C13.0143 20.9927 13.0093 21.0046 13.0006 21.0133L11.5864 19.5991ZM12.9675 19.0271C12.4496 19.0271 11.9527 19.2327 11.5864 19.5991L13.0006 21.0133C12.9917 21.0222 12.9798 21.0271 12.9675 21.0271V19.0271ZM19.8255 19.0271H12.9675V21.0271H19.8255V19.0271ZM18.8255 3.90649V20.0271H20.8255V3.90649H18.8255ZM12.9675 4.90649H19.8255V2.90649H12.9675V4.90649ZM11.5864 4.33431C11.9525 4.70043 12.4492 4.90649 12.9675 4.90649V2.90649C12.9802 2.90649 12.992 2.9115 13.0006 2.9201L11.5864 4.33431ZM11.0143 2.95325C11.0143 3.47131 11.2201 3.96805 11.5864 4.33431L13.0006 2.9201C13.0093 2.92884 13.0143 2.94078 13.0143 2.95325H11.0143ZM11.5864 1.57204C11.22 1.93841 11.0143 2.43533 11.0143 2.95325H13.0143C13.0143 2.96555 13.0094 2.9774 13.0006 2.98625L11.5864 1.57204ZM12.9675 1C12.4496 1 11.9527 1.20566 11.5864 1.57204L13.0006 2.98625C12.9917 2.99512 12.9798 3 12.9675 3V1ZM6.25427 13.92H17.173V11.92H6.25427V13.92ZM9.54005 14.7904L6.96122 12.2128L5.54732 13.6273L8.12615 16.205L9.54005 14.7904ZM9.96368 15.4243C9.86543 15.1871 9.72144 14.9718 9.54021 14.7906L8.12599 16.2048C8.12183 16.2006 8.11835 16.1955 8.11592 16.1897L9.96368 15.4243ZM10.1124 16.1719C10.1124 15.9157 10.0619 15.6615 9.96368 15.4243L8.11592 16.1897C8.11349 16.1838 8.11235 16.1778 8.11235 16.1719H10.1124ZM9.96368 16.9195C10.0619 16.6824 10.1124 16.4284 10.1124 16.1719H8.11235C8.11235 16.1659 8.11354 16.1598 8.11592 16.1541L9.96368 16.9195ZM9.54021 17.5531C9.72143 17.3719 9.86543 17.1567 9.96368 16.9194L8.11592 16.1541C8.11835 16.1482 8.12183 16.1431 8.12599 16.1389L9.54021 17.5531ZM8.90651 17.9765C9.14328 17.8784 9.35865 17.7347 9.54021 17.5531L8.12599 16.1389C8.13049 16.1344 8.13571 16.131 8.14115 16.1288L8.90651 17.9765ZM8.15897 18.1253C8.4161 18.1253 8.67008 18.0745 8.90651 17.9765L8.14114 16.1288C8.14624 16.1266 8.15224 16.1253 8.15897 16.1253V18.1253ZM7.41146 17.9765C7.64786 18.0744 7.9018 18.1253 8.15897 18.1253V16.1253C8.16573 16.1253 8.17177 16.1267 8.17683 16.1288L7.41146 17.9765ZM6.77772 17.5531C6.95936 17.7348 7.17478 17.8785 7.41146 17.9765L8.17682 16.1288C8.18216 16.131 8.18737 16.1344 8.19195 16.1389L6.77772 17.5531ZM2.57201 13.3462L6.77763 17.553L8.19204 16.139L3.98642 11.9322L2.57201 13.3462ZM2.14877 12.7131C2.24704 12.9502 2.39106 13.1655 2.57249 13.3467L3.98594 11.9317C3.99034 11.9361 3.99388 11.9414 3.99633 11.9473L2.14877 12.7131ZM2 11.9657C2 12.2221 2.05051 12.4761 2.14877 12.7132L3.99633 11.9473C3.99877 11.9532 4 11.9594 4 11.9657H2ZM2.14877 11.2182C2.05051 11.4552 2 11.7092 2 11.9657H4C4 11.9719 3.99877 11.9782 3.99633 11.9841L2.14877 11.2182ZM2.57249 10.5846C2.39106 10.7659 2.24704 10.9811 2.14877 11.2182L3.99633 11.9841C3.99388 11.9899 3.99034 11.9952 3.98594 11.9996L2.57249 10.5846ZM6.77773 6.37943L2.57211 10.585L3.98632 11.9992L8.19194 7.79365L6.77773 6.37943ZM7.41146 5.95592C7.1742 6.0542 6.95892 6.19824 6.77773 6.37943L8.19194 7.79364C8.18781 7.79777 8.18274 7.80123 8.17682 7.80368L7.41146 5.95592ZM8.15897 5.80725C7.90254 5.80725 7.64854 5.85772 7.41146 5.95592L8.17683 7.80368C8.17108 7.80606 8.165 7.80725 8.15897 7.80725V5.80725ZM8.90651 5.95592C8.66939 5.85771 8.41536 5.80725 8.15897 5.80725V7.80725C8.15298 7.80725 8.14692 7.80607 8.14115 7.80368L8.90651 5.95592ZM9.54021 6.37943C9.35909 6.19831 9.14386 6.05424 8.90651 5.95592L8.14115 7.80368C8.13513 7.80119 8.13005 7.7977 8.126 7.79364L9.54021 6.37943ZM9.96368 7.01312C9.86543 6.77592 9.72143 6.56066 9.54021 6.37943L8.12599 7.79364C8.12183 7.78948 8.11835 7.78436 8.11592 7.77849L9.96368 7.01312ZM10.1124 7.76063C10.1124 7.50421 10.0619 7.25021 9.96368 7.01313L8.11592 7.77849C8.11354 7.77275 8.11235 7.76666 8.11235 7.76063H10.1124ZM9.96368 8.50814C10.0619 8.27106 10.1124 8.01706 10.1124 7.76063H8.11235C8.11235 7.75461 8.11354 7.74852 8.11592 7.74278L9.96368 8.50814ZM9.54021 9.14184C9.72143 8.96061 9.86543 8.74535 9.96368 8.50814L8.11592 7.74278C8.11835 7.73691 8.12183 7.73179 8.12599 7.72763L9.54021 9.14184ZM6.96139 11.7208L9.54022 9.14183L8.12598 7.72764L5.54715 10.3066L6.96139 11.7208ZM17.173 10.0137H6.25427V12.0137H17.173V10.0137ZM18.5542 10.5857C18.1878 10.2193 17.6909 10.0137 17.173 10.0137V12.0137C17.1607 12.0137 17.1488 12.0088 17.14 11.9999L18.5542 10.5857ZM19.1262 11.9668C19.1262 11.4487 18.9204 10.952 18.5542 10.5857L17.14 11.9999C17.1312 11.9912 17.1262 11.9792 17.1262 11.9668H19.1262ZM18.5542 13.348C18.9205 12.9816 19.1262 12.4847 19.1262 11.9668H17.1262C17.1262 11.9545 17.1311 11.9426 17.14 11.9338L18.5542 13.348ZM17.173 13.92C17.6909 13.92 18.1878 13.7144 18.5542 13.348L17.14 11.9338C17.1488 11.9249 17.1607 11.92 17.173 11.92V13.92Z" fill="black" fill-opacity="0.2" mask="url(#path-1-inside-1_314_356)"/>
<path d="M20.7787 2L20.7799 1H20.7787V2ZM21.4524 2.27956L20.7453 2.98667L20.7453 2.98667L21.4524 2.27956ZM21.7319 2.95325H22.7319V2.95206L21.7319 2.95325ZM21.7319 20.9802L22.7319 20.9814V20.9802H21.7319ZM20.7787 21.9334V22.9334H20.7799L20.7787 21.9334ZM12.2935 21.6543L13.0006 20.9472L13.0006 20.9472L12.2935 21.6543ZM12.2935 20.3062L11.5864 19.5991L11.5864 19.5991L12.2935 20.3062ZM19.8255 20.0271V21.0271H20.8255V20.0271H19.8255ZM19.8255 3.90649H20.8255V2.90649H19.8255V3.90649ZM12.2935 3.62721L11.5864 4.33431V4.33431L12.2935 3.62721ZM12.2935 2.27915L13.0006 2.98625V2.98625L12.2935 2.27915ZM6.25427 12.92V11.92H3.8393L5.54732 13.6273L6.25427 12.92ZM8.8331 15.4977L9.54021 14.7906L9.54005 14.7904L8.8331 15.4977ZM9.0398 15.807L9.96368 15.4243L9.96368 15.4243L9.0398 15.807ZM9.0398 16.5368L8.11592 16.1541L8.11592 16.1541L9.0398 16.5368ZM8.8331 16.846L8.12599 16.1389L8.12599 16.1389L8.8331 16.846ZM8.52383 17.0526L8.14115 16.1288L8.14114 16.1288L8.52383 17.0526ZM7.79414 17.0526L8.17683 16.1288L8.17682 16.1288L7.79414 17.0526ZM7.48484 16.846L6.77763 17.553L6.77772 17.5531L7.48484 16.846ZM3.27922 12.6392L3.98642 11.9322L3.98594 11.9317L3.27922 12.6392ZM3.07255 12.3302L3.99633 11.9473L3.99633 11.9473L3.07255 12.3302ZM3.07255 11.6011L3.99633 11.9841L3.99633 11.9841L3.07255 11.6011ZM3.27922 11.2921L3.98594 11.9996L3.98632 11.9992L3.27922 11.2921ZM7.48484 7.08654L8.19194 7.79365L8.19194 7.79364L7.48484 7.08654ZM7.79414 6.8798L8.17682 7.80368L8.17683 7.80368L7.79414 6.8798ZM8.52383 6.8798L8.14115 7.80368L8.14115 7.80368L8.52383 6.8798ZM8.8331 7.08654L9.54021 6.37943L9.54021 6.37943L8.8331 7.08654ZM9.0398 7.39581L9.96368 7.01313L9.96368 7.01312L9.0398 7.39581ZM9.0398 8.12546L9.96368 8.50814L9.96368 8.50814L9.0398 8.12546ZM8.8331 8.43473L8.12599 7.72763L8.12598 7.72764L8.8331 8.43473ZM6.25427 11.0137L5.54715 10.3066L3.84013 12.0137H6.25427V11.0137ZM20.7787 1H12.9675V3H20.7787V1ZM22.1595 1.57246C21.7937 1.2066 21.2976 1.00061 20.7799 1L20.7776 3C20.7653 2.99998 20.7538 2.99514 20.7453 2.98667L22.1595 1.57246ZM22.7319 2.95206C22.7313 2.43461 22.5255 1.93844 22.1595 1.57245L20.7453 2.98667C20.7367 2.97807 20.7319 2.96646 20.7319 2.95443L22.7319 2.95206ZM22.7319 20.9802V2.95325H20.7319V20.9802H22.7319ZM22.1595 22.361C22.5255 21.995 22.7313 21.4988 22.7319 20.9814L20.7319 20.979C20.7319 20.967 20.7367 20.9554 20.7453 20.9468L22.1595 22.361ZM20.7799 22.9334C21.2976 22.9328 21.7937 22.7268 22.1595 22.361L20.7453 20.9468C20.7538 20.9383 20.7653 20.9335 20.7775 20.9334L20.7799 22.9334ZM12.9675 22.9334H20.7787V20.9334H12.9675V22.9334ZM11.5864 22.3614C11.9527 22.7278 12.4496 22.9334 12.9675 22.9334V20.9334C12.9798 20.9334 12.9917 20.9383 13.0006 20.9472L11.5864 22.3614ZM11.0143 20.9802C11.0143 21.4981 11.22 21.995 11.5864 22.3614L13.0006 20.9472C13.0094 20.956 13.0143 20.9679 13.0143 20.9802H11.0143ZM11.5864 19.5991C11.2201 19.9654 11.0143 20.4621 11.0143 20.9802H13.0143C13.0143 20.9927 13.0093 21.0046 13.0006 21.0133L11.5864 19.5991ZM12.9675 19.0271C12.4496 19.0271 11.9527 19.2327 11.5864 19.5991L13.0006 21.0133C12.9917 21.0222 12.9798 21.0271 12.9675 21.0271V19.0271ZM19.8255 19.0271H12.9675V21.0271H19.8255V19.0271ZM18.8255 3.90649V20.0271H20.8255V3.90649H18.8255ZM12.9675 4.90649H19.8255V2.90649H12.9675V4.90649ZM11.5864 4.33431C11.9525 4.70043 12.4492 4.90649 12.9675 4.90649V2.90649C12.9802 2.90649 12.992 2.9115 13.0006 2.9201L11.5864 4.33431ZM11.0143 2.95325C11.0143 3.47131 11.2201 3.96805 11.5864 4.33431L13.0006 2.9201C13.0093 2.92884 13.0143 2.94078 13.0143 2.95325H11.0143ZM11.5864 1.57204C11.22 1.93841 11.0143 2.43533 11.0143 2.95325H13.0143C13.0143 2.96555 13.0094 2.9774 13.0006 2.98625L11.5864 1.57204ZM12.9675 1C12.4496 1 11.9527 1.20566 11.5864 1.57204L13.0006 2.98625C12.9917 2.99512 12.9798 3 12.9675 3V1ZM6.25427 13.92H17.173V11.92H6.25427V13.92ZM9.54005 14.7904L6.96122 12.2128L5.54732 13.6273L8.12615 16.205L9.54005 14.7904ZM9.96368 15.4243C9.86543 15.1871 9.72144 14.9718 9.54021 14.7906L8.12599 16.2048C8.12183 16.2006 8.11835 16.1955 8.11592 16.1897L9.96368 15.4243ZM10.1124 16.1719C10.1124 15.9157 10.0619 15.6615 9.96368 15.4243L8.11592 16.1897C8.11349 16.1838 8.11235 16.1778 8.11235 16.1719H10.1124ZM9.96368 16.9195C10.0619 16.6824 10.1124 16.4284 10.1124 16.1719H8.11235C8.11235 16.1659 8.11354 16.1598 8.11592 16.1541L9.96368 16.9195ZM9.54021 17.5531C9.72143 17.3719 9.86543 17.1567 9.96368 16.9194L8.11592 16.1541C8.11835 16.1482 8.12183 16.1431 8.12599 16.1389L9.54021 17.5531ZM8.90651 17.9765C9.14328 17.8784 9.35865 17.7347 9.54021 17.5531L8.12599 16.1389C8.13049 16.1344 8.13571 16.131 8.14115 16.1288L8.90651 17.9765ZM8.15897 18.1253C8.4161 18.1253 8.67008 18.0745 8.90651 17.9765L8.14114 16.1288C8.14624 16.1266 8.15224 16.1253 8.15897 16.1253V18.1253ZM7.41146 17.9765C7.64786 18.0744 7.9018 18.1253 8.15897 18.1253V16.1253C8.16573 16.1253 8.17177 16.1267 8.17683 16.1288L7.41146 17.9765ZM6.77772 17.5531C6.95936 17.7348 7.17478 17.8785 7.41146 17.9765L8.17682 16.1288C8.18216 16.131 8.18737 16.1344 8.19195 16.1389L6.77772 17.5531ZM2.57201 13.3462L6.77763 17.553L8.19204 16.139L3.98642 11.9322L2.57201 13.3462ZM2.14877 12.7131C2.24704 12.9502 2.39106 13.1655 2.57249 13.3467L3.98594 11.9317C3.99034 11.9361 3.99388 11.9414 3.99633 11.9473L2.14877 12.7131ZM2 11.9657C2 12.2221 2.05051 12.4761 2.14877 12.7132L3.99633 11.9473C3.99877 11.9532 4 11.9594 4 11.9657H2ZM2.14877 11.2182C2.05051 11.4552 2 11.7092 2 11.9657H4C4 11.9719 3.99877 11.9782 3.99633 11.9841L2.14877 11.2182ZM2.57249 10.5846C2.39106 10.7659 2.24704 10.9811 2.14877 11.2182L3.99633 11.9841C3.99388 11.9899 3.99034 11.9952 3.98594 11.9996L2.57249 10.5846ZM6.77773 6.37943L2.57211 10.585L3.98632 11.9992L8.19194 7.79365L6.77773 6.37943ZM7.41146 5.95592C7.1742 6.0542 6.95892 6.19824 6.77773 6.37943L8.19194 7.79364C8.18781 7.79777 8.18274 7.80123 8.17682 7.80368L7.41146 5.95592ZM8.15897 5.80725C7.90254 5.80725 7.64854 5.85772 7.41146 5.95592L8.17683 7.80368C8.17108 7.80606 8.165 7.80725 8.15897 7.80725V5.80725ZM8.90651 5.95592C8.66939 5.85771 8.41536 5.80725 8.15897 5.80725V7.80725C8.15298 7.80725 8.14692 7.80607 8.14115 7.80368L8.90651 5.95592ZM9.54021 6.37943C9.35909 6.19831 9.14386 6.05424 8.90651 5.95592L8.14115 7.80368C8.13513 7.80119 8.13005 7.7977 8.126 7.79364L9.54021 6.37943ZM9.96368 7.01312C9.86543 6.77592 9.72143 6.56066 9.54021 6.37943L8.12599 7.79364C8.12183 7.78948 8.11835 7.78436 8.11592 7.77849L9.96368 7.01312ZM10.1124 7.76063C10.1124 7.50421 10.0619 7.25021 9.96368 7.01313L8.11592 7.77849C8.11354 7.77275 8.11235 7.76666 8.11235 7.76063H10.1124ZM9.96368 8.50814C10.0619 8.27106 10.1124 8.01706 10.1124 7.76063H8.11235C8.11235 7.75461 8.11354 7.74852 8.11592 7.74278L9.96368 8.50814ZM9.54021 9.14184C9.72143 8.96061 9.86543 8.74535 9.96368 8.50814L8.11592 7.74278C8.11835 7.73691 8.12183 7.73179 8.12599 7.72763L9.54021 9.14184ZM6.96139 11.7208L9.54022 9.14183L8.12598 7.72764L5.54715 10.3066L6.96139 11.7208ZM17.173 10.0137H6.25427V12.0137H17.173V10.0137ZM18.5542 10.5857C18.1878 10.2193 17.6909 10.0137 17.173 10.0137V12.0137C17.1607 12.0137 17.1488 12.0088 17.14 11.9999L18.5542 10.5857ZM19.1262 11.9668C19.1262 11.4487 18.9204 10.952 18.5542 10.5857L17.14 11.9999C17.1312 11.9912 17.1262 11.9792 17.1262 11.9668H19.1262ZM18.5542 13.348C18.9205 12.9816 19.1262 12.4847 19.1262 11.9668H17.1262C17.1262 11.9545 17.1311 11.9426 17.14 11.9338L18.5542 13.348ZM17.173 13.92C17.6909 13.92 18.1878 13.7144 18.5542 13.348L17.14 11.9338C17.1488 11.9249 17.1607 11.92 17.173 11.92V13.92Z" fill="black" fill-opacity="0.2" mask="url(#path-1-inside-1_314_356)"/>
</svg>
