<svg width="32" height="32" viewBox="0 0 32 32" fill="none" xmlns="http://www.w3.org/2000/svg">
<g clip-path="url(#clip0_300_163)">
<path fill-rule="evenodd" clip-rule="evenodd" d="M8.24426 16.6524C7.91854 16.2765 7.91859 15.7184 8.24436 15.3426L21.2444 0.345009C21.6061 -0.072319 22.2377 -0.117378 22.655 0.244364C23.0723 0.606106 23.1174 1.23767 22.7556 1.65499L10.3233 15.9977L22.7557 30.3451C23.1174 30.7625 23.0723 31.3941 22.6549 31.7557C22.2375 32.1174 21.6059 32.0723 21.2443 31.6549L8.24426 16.6524Z" fill="black"/>
<path fill-rule="evenodd" clip-rule="evenodd" d="M8.24426 16.6524C7.91854 16.2765 7.91859 15.7184 8.24436 15.3426L21.2444 0.345009C21.6061 -0.072319 22.2377 -0.117378 22.655 0.244364C23.0723 0.606106 23.1174 1.23767 22.7556 1.65499L10.3233 15.9977L22.7557 30.3451C23.1174 30.7625 23.0723 31.3941 22.6549 31.7557C22.2375 32.1174 21.6059 32.0723 21.2443 31.6549L8.24426 16.6524Z" fill="black" fill-opacity="0.2"/>
<path fill-rule="evenodd" clip-rule="evenodd" d="M8.24426 16.6524C7.91854 16.2765 7.91859 15.7184 8.24436 15.3426L21.2444 0.345009C21.6061 -0.072319 22.2377 -0.117378 22.655 0.244364C23.0723 0.606106 23.1174 1.23767 22.7556 1.65499L10.3233 15.9977L22.7557 30.3451C23.1174 30.7625 23.0723 31.3941 22.6549 31.7557C22.2375 32.1174 21.6059 32.0723 21.2443 31.6549L8.24426 16.6524Z" fill="black" fill-opacity="0.2"/>
<path fill-rule="evenodd" clip-rule="evenodd" d="M8.24426 16.6524C7.91854 16.2765 7.91859 15.7184 8.24436 15.3426L21.2444 0.345009C21.6061 -0.072319 22.2377 -0.117378 22.655 0.244364C23.0723 0.606106 23.1174 1.23767 22.7556 1.65499L10.3233 15.9977L22.7557 30.3451C23.1174 30.7625 23.0723 31.3941 22.6549 31.7557C22.2375 32.1174 21.6059 32.0723 21.2443 31.6549L8.24426 16.6524Z" fill="black" fill-opacity="0.2"/>
<path fill-rule="evenodd" clip-rule="evenodd" d="M8.24426 16.6524C7.91854 16.2765 7.91859 15.7184 8.24436 15.3426L21.2444 0.345009C21.6061 -0.072319 22.2377 -0.117378 22.655 0.244364C23.0723 0.606106 23.1174 1.23767 22.7556 1.65499L10.3233 15.9977L22.7557 30.3451C23.1174 30.7625 23.0723 31.3941 22.6549 31.7557C22.2375 32.1174 21.6059 32.0723 21.2443 31.6549L8.24426 16.6524Z" fill="black" fill-opacity="0.2"/>
<path fill-rule="evenodd" clip-rule="evenodd" d="M8.24426 16.6524C7.91854 16.2765 7.91859 15.7184 8.24436 15.3426L21.2444 0.345009C21.6061 -0.072319 22.2377 -0.117378 22.655 0.244364C23.0723 0.606106 23.1174 1.23767 22.7556 1.65499L10.3233 15.9977L22.7557 30.3451C23.1174 30.7625 23.0723 31.3941 22.6549 31.7557C22.2375 32.1174 21.6059 32.0723 21.2443 31.6549L8.24426 16.6524Z" fill="black" fill-opacity="0.2"/>
<path fill-rule="evenodd" clip-rule="evenodd" d="M8.24426 16.6524C7.91854 16.2765 7.91859 15.7184 8.24436 15.3426L21.2444 0.345009C21.6061 -0.072319 22.2377 -0.117378 22.655 0.244364C23.0723 0.606106 23.1174 1.23767 22.7556 1.65499L10.3233 15.9977L22.7557 30.3451C23.1174 30.7625 23.0723 31.3941 22.6549 31.7557C22.2375 32.1174 21.6059 32.0723 21.2443 31.6549L8.24426 16.6524Z" fill="black" fill-opacity="0.2"/>
<path fill-rule="evenodd" clip-rule="evenodd" d="M8.24426 16.6524C7.91854 16.2765 7.91859 15.7184 8.24436 15.3426L21.2444 0.345009C21.6061 -0.072319 22.2377 -0.117378 22.655 0.244364C23.0723 0.606106 23.1174 1.23767 22.7556 1.65499L10.3233 15.9977L22.7557 30.3451C23.1174 30.7625 23.0723 31.3941 22.6549 31.7557C22.2375 32.1174 21.6059 32.0723 21.2443 31.6549L8.24426 16.6524Z" fill="black" fill-opacity="0.2"/>
<path fill-rule="evenodd" clip-rule="evenodd" d="M8.24426 16.6524C7.91854 16.2765 7.91859 15.7184 8.24436 15.3426L21.2444 0.345009C21.6061 -0.072319 22.2377 -0.117378 22.655 0.244364C23.0723 0.606106 23.1174 1.23767 22.7556 1.65499L10.3233 15.9977L22.7557 30.3451C23.1174 30.7625 23.0723 31.3941 22.6549 31.7557C22.2375 32.1174 21.6059 32.0723 21.2443 31.6549L8.24426 16.6524Z" fill="black" fill-opacity="0.2"/>
<path fill-rule="evenodd" clip-rule="evenodd" d="M8.24426 16.6524C7.91854 16.2765 7.91859 15.7184 8.24436 15.3426L21.2444 0.345009C21.6061 -0.072319 22.2377 -0.117378 22.655 0.244364C23.0723 0.606106 23.1174 1.23767 22.7556 1.65499L10.3233 15.9977L22.7557 30.3451C23.1174 30.7625 23.0723 31.3941 22.6549 31.7557C22.2375 32.1174 21.6059 32.0723 21.2443 31.6549L8.24426 16.6524Z" fill="black" fill-opacity="0.2"/>
</g>
<defs>
<clipPath id="clip0_300_163">
<rect width="32" height="32" fill="white" transform="matrix(-1 0 0 1 32 0)"/>
</clipPath>
</defs>
</svg>
