<svg width="24" height="24" viewBox="0 0 24 24" fill="none" xmlns="http://www.w3.org/2000/svg">
<mask id="path-1-inside-1_652_5370" fill="white">
<path fill-rule="evenodd" clip-rule="evenodd" d="M22.3327 12.5683V20.3795C22.3324 20.6322 22.2318 20.8745 22.0531 21.0532C21.8744 21.2319 21.6321 21.3324 21.3794 21.3327H3.35248C3.09976 21.3324 2.85749 21.2319 2.67879 21.0532C2.5001 20.8745 2.39953 20.6322 2.39923 20.3795V12.5683C2.39923 12.3155 2.49962 12.073 2.67838 11.8942C2.85714 11.7155 3.09967 11.615 3.35248 11.615C3.60528 11.615 3.84768 11.7155 4.02644 11.8942C4.20519 12.073 4.30558 12.3155 4.30558 12.5683V19.4263H20.4262V12.5683C20.4262 12.3155 20.5267 12.073 20.7055 11.8942C20.8842 11.7155 21.1266 11.615 21.3794 11.615C21.6322 11.615 21.8748 11.7155 22.0535 11.8942C22.2323 12.073 22.3327 12.3155 22.3327 12.5683ZM11.4127 16.7738V5.85503L8.83497 8.43386C8.74644 8.52239 8.64136 8.59265 8.52569 8.64056C8.41002 8.68847 8.28593 8.71311 8.16073 8.71311C8.03553 8.71311 7.91157 8.68847 7.79591 8.64056C7.68023 8.59265 7.57516 8.52239 7.48663 8.43386C7.3981 8.34533 7.32795 8.24026 7.28004 8.12459C7.23212 8.00892 7.20735 7.88493 7.20735 7.75973C7.20735 7.63453 7.23212 7.51057 7.28004 7.3949C7.32795 7.27923 7.3981 7.17413 7.48663 7.0856L11.6935 2.87998C11.7819 2.79146 11.8869 2.72122 12.0025 2.67331C12.118 2.6254 12.2419 2.60076 12.367 2.60076C12.4921 2.60076 12.616 2.6254 12.7316 2.67331C12.8471 2.72122 12.9521 2.79146 13.0406 2.87998L17.2461 7.0856C17.3347 7.17413 17.405 7.27923 17.4529 7.3949C17.5008 7.51057 17.5254 7.63453 17.5254 7.75973C17.5254 7.88493 17.5008 8.00892 17.4529 8.12459C17.405 8.24026 17.3347 8.34533 17.2461 8.43386C17.1576 8.52239 17.0525 8.59265 16.9369 8.64056C16.8212 8.68847 16.6972 8.71311 16.572 8.71311C16.4468 8.71311 16.3229 8.68847 16.2072 8.64056C16.0915 8.59265 15.9865 8.52239 15.8979 8.43386L13.319 5.85503V16.7738C13.319 17.0266 13.2186 17.2691 13.0399 17.4478C12.8611 17.6266 12.6187 17.727 12.3659 17.727C12.1131 17.727 11.8706 17.6266 11.6918 17.4478C11.513 17.2691 11.4127 17.0266 11.4127 16.7738Z"/>
</mask>
<path fill-rule="evenodd" clip-rule="evenodd" d="M22.3327 12.5683V20.3795C22.3324 20.6322 22.2318 20.8745 22.0531 21.0532C21.8744 21.2319 21.6321 21.3324 21.3794 21.3327H3.35248C3.09976 21.3324 2.85749 21.2319 2.67879 21.0532C2.5001 20.8745 2.39953 20.6322 2.39923 20.3795V12.5683C2.39923 12.3155 2.49962 12.073 2.67838 11.8942C2.85714 11.7155 3.09967 11.615 3.35248 11.615C3.60528 11.615 3.84768 11.7155 4.02644 11.8942C4.20519 12.073 4.30558 12.3155 4.30558 12.5683V19.4263H20.4262V12.5683C20.4262 12.3155 20.5267 12.073 20.7055 11.8942C20.8842 11.7155 21.1266 11.615 21.3794 11.615C21.6322 11.615 21.8748 11.7155 22.0535 11.8942C22.2323 12.073 22.3327 12.3155 22.3327 12.5683ZM11.4127 16.7738V5.85503L8.83497 8.43386C8.74644 8.52239 8.64136 8.59265 8.52569 8.64056C8.41002 8.68847 8.28593 8.71311 8.16073 8.71311C8.03553 8.71311 7.91157 8.68847 7.79591 8.64056C7.68023 8.59265 7.57516 8.52239 7.48663 8.43386C7.3981 8.34533 7.32795 8.24026 7.28004 8.12459C7.23212 8.00892 7.20735 7.88493 7.20735 7.75973C7.20735 7.63453 7.23212 7.51057 7.28004 7.3949C7.32795 7.27923 7.3981 7.17413 7.48663 7.0856L11.6935 2.87998C11.7819 2.79146 11.8869 2.72122 12.0025 2.67331C12.118 2.6254 12.2419 2.60076 12.367 2.60076C12.4921 2.60076 12.616 2.6254 12.7316 2.67331C12.8471 2.72122 12.9521 2.79146 13.0406 2.87998L17.2461 7.0856C17.3347 7.17413 17.405 7.27923 17.4529 7.3949C17.5008 7.51057 17.5254 7.63453 17.5254 7.75973C17.5254 7.88493 17.5008 8.00892 17.4529 8.12459C17.405 8.24026 17.3347 8.34533 17.2461 8.43386C17.1576 8.52239 17.0525 8.59265 16.9369 8.64056C16.8212 8.68847 16.6972 8.71311 16.572 8.71311C16.4468 8.71311 16.3229 8.68847 16.2072 8.64056C16.0915 8.59265 15.9865 8.52239 15.8979 8.43386L13.319 5.85503V16.7738C13.319 17.0266 13.2186 17.2691 13.0399 17.4478C12.8611 17.6266 12.6187 17.727 12.3659 17.727C12.1131 17.727 11.8706 17.6266 11.6918 17.4478C11.513 17.2691 11.4127 17.0266 11.4127 16.7738Z" fill="black"/>
<path fill-rule="evenodd" clip-rule="evenodd" d="M22.3327 12.5683V20.3795C22.3324 20.6322 22.2318 20.8745 22.0531 21.0532C21.8744 21.2319 21.6321 21.3324 21.3794 21.3327H3.35248C3.09976 21.3324 2.85749 21.2319 2.67879 21.0532C2.5001 20.8745 2.39953 20.6322 2.39923 20.3795V12.5683C2.39923 12.3155 2.49962 12.073 2.67838 11.8942C2.85714 11.7155 3.09967 11.615 3.35248 11.615C3.60528 11.615 3.84768 11.7155 4.02644 11.8942C4.20519 12.073 4.30558 12.3155 4.30558 12.5683V19.4263H20.4262V12.5683C20.4262 12.3155 20.5267 12.073 20.7055 11.8942C20.8842 11.7155 21.1266 11.615 21.3794 11.615C21.6322 11.615 21.8748 11.7155 22.0535 11.8942C22.2323 12.073 22.3327 12.3155 22.3327 12.5683ZM11.4127 16.7738V5.85503L8.83497 8.43386C8.74644 8.52239 8.64136 8.59265 8.52569 8.64056C8.41002 8.68847 8.28593 8.71311 8.16073 8.71311C8.03553 8.71311 7.91157 8.68847 7.79591 8.64056C7.68023 8.59265 7.57516 8.52239 7.48663 8.43386C7.3981 8.34533 7.32795 8.24026 7.28004 8.12459C7.23212 8.00892 7.20735 7.88493 7.20735 7.75973C7.20735 7.63453 7.23212 7.51057 7.28004 7.3949C7.32795 7.27923 7.3981 7.17413 7.48663 7.0856L11.6935 2.87998C11.7819 2.79146 11.8869 2.72122 12.0025 2.67331C12.118 2.6254 12.2419 2.60076 12.367 2.60076C12.4921 2.60076 12.616 2.6254 12.7316 2.67331C12.8471 2.72122 12.9521 2.79146 13.0406 2.87998L17.2461 7.0856C17.3347 7.17413 17.405 7.27923 17.4529 7.3949C17.5008 7.51057 17.5254 7.63453 17.5254 7.75973C17.5254 7.88493 17.5008 8.00892 17.4529 8.12459C17.405 8.24026 17.3347 8.34533 17.2461 8.43386C17.1576 8.52239 17.0525 8.59265 16.9369 8.64056C16.8212 8.68847 16.6972 8.71311 16.572 8.71311C16.4468 8.71311 16.3229 8.68847 16.2072 8.64056C16.0915 8.59265 15.9865 8.52239 15.8979 8.43386L13.319 5.85503V16.7738C13.319 17.0266 13.2186 17.2691 13.0399 17.4478C12.8611 17.6266 12.6187 17.727 12.3659 17.727C12.1131 17.727 11.8706 17.6266 11.6918 17.4478C11.513 17.2691 11.4127 17.0266 11.4127 16.7738Z" fill="black" fill-opacity="0.2"/>
<path fill-rule="evenodd" clip-rule="evenodd" d="M22.3327 12.5683V20.3795C22.3324 20.6322 22.2318 20.8745 22.0531 21.0532C21.8744 21.2319 21.6321 21.3324 21.3794 21.3327H3.35248C3.09976 21.3324 2.85749 21.2319 2.67879 21.0532C2.5001 20.8745 2.39953 20.6322 2.39923 20.3795V12.5683C2.39923 12.3155 2.49962 12.073 2.67838 11.8942C2.85714 11.7155 3.09967 11.615 3.35248 11.615C3.60528 11.615 3.84768 11.7155 4.02644 11.8942C4.20519 12.073 4.30558 12.3155 4.30558 12.5683V19.4263H20.4262V12.5683C20.4262 12.3155 20.5267 12.073 20.7055 11.8942C20.8842 11.7155 21.1266 11.615 21.3794 11.615C21.6322 11.615 21.8748 11.7155 22.0535 11.8942C22.2323 12.073 22.3327 12.3155 22.3327 12.5683ZM11.4127 16.7738V5.85503L8.83497 8.43386C8.74644 8.52239 8.64136 8.59265 8.52569 8.64056C8.41002 8.68847 8.28593 8.71311 8.16073 8.71311C8.03553 8.71311 7.91157 8.68847 7.79591 8.64056C7.68023 8.59265 7.57516 8.52239 7.48663 8.43386C7.3981 8.34533 7.32795 8.24026 7.28004 8.12459C7.23212 8.00892 7.20735 7.88493 7.20735 7.75973C7.20735 7.63453 7.23212 7.51057 7.28004 7.3949C7.32795 7.27923 7.3981 7.17413 7.48663 7.0856L11.6935 2.87998C11.7819 2.79146 11.8869 2.72122 12.0025 2.67331C12.118 2.6254 12.2419 2.60076 12.367 2.60076C12.4921 2.60076 12.616 2.6254 12.7316 2.67331C12.8471 2.72122 12.9521 2.79146 13.0406 2.87998L17.2461 7.0856C17.3347 7.17413 17.405 7.27923 17.4529 7.3949C17.5008 7.51057 17.5254 7.63453 17.5254 7.75973C17.5254 7.88493 17.5008 8.00892 17.4529 8.12459C17.405 8.24026 17.3347 8.34533 17.2461 8.43386C17.1576 8.52239 17.0525 8.59265 16.9369 8.64056C16.8212 8.68847 16.6972 8.71311 16.572 8.71311C16.4468 8.71311 16.3229 8.68847 16.2072 8.64056C16.0915 8.59265 15.9865 8.52239 15.8979 8.43386L13.319 5.85503V16.7738C13.319 17.0266 13.2186 17.2691 13.0399 17.4478C12.8611 17.6266 12.6187 17.727 12.3659 17.727C12.1131 17.727 11.8706 17.6266 11.6918 17.4478C11.513 17.2691 11.4127 17.0266 11.4127 16.7738Z" fill="black" fill-opacity="0.2"/>
<path fill-rule="evenodd" clip-rule="evenodd" d="M22.3327 12.5683V20.3795C22.3324 20.6322 22.2318 20.8745 22.0531 21.0532C21.8744 21.2319 21.6321 21.3324 21.3794 21.3327H3.35248C3.09976 21.3324 2.85749 21.2319 2.67879 21.0532C2.5001 20.8745 2.39953 20.6322 2.39923 20.3795V12.5683C2.39923 12.3155 2.49962 12.073 2.67838 11.8942C2.85714 11.7155 3.09967 11.615 3.35248 11.615C3.60528 11.615 3.84768 11.7155 4.02644 11.8942C4.20519 12.073 4.30558 12.3155 4.30558 12.5683V19.4263H20.4262V12.5683C20.4262 12.3155 20.5267 12.073 20.7055 11.8942C20.8842 11.7155 21.1266 11.615 21.3794 11.615C21.6322 11.615 21.8748 11.7155 22.0535 11.8942C22.2323 12.073 22.3327 12.3155 22.3327 12.5683ZM11.4127 16.7738V5.85503L8.83497 8.43386C8.74644 8.52239 8.64136 8.59265 8.52569 8.64056C8.41002 8.68847 8.28593 8.71311 8.16073 8.71311C8.03553 8.71311 7.91157 8.68847 7.79591 8.64056C7.68023 8.59265 7.57516 8.52239 7.48663 8.43386C7.3981 8.34533 7.32795 8.24026 7.28004 8.12459C7.23212 8.00892 7.20735 7.88493 7.20735 7.75973C7.20735 7.63453 7.23212 7.51057 7.28004 7.3949C7.32795 7.27923 7.3981 7.17413 7.48663 7.0856L11.6935 2.87998C11.7819 2.79146 11.8869 2.72122 12.0025 2.67331C12.118 2.6254 12.2419 2.60076 12.367 2.60076C12.4921 2.60076 12.616 2.6254 12.7316 2.67331C12.8471 2.72122 12.9521 2.79146 13.0406 2.87998L17.2461 7.0856C17.3347 7.17413 17.405 7.27923 17.4529 7.3949C17.5008 7.51057 17.5254 7.63453 17.5254 7.75973C17.5254 7.88493 17.5008 8.00892 17.4529 8.12459C17.405 8.24026 17.3347 8.34533 17.2461 8.43386C17.1576 8.52239 17.0525 8.59265 16.9369 8.64056C16.8212 8.68847 16.6972 8.71311 16.572 8.71311C16.4468 8.71311 16.3229 8.68847 16.2072 8.64056C16.0915 8.59265 15.9865 8.52239 15.8979 8.43386L13.319 5.85503V16.7738C13.319 17.0266 13.2186 17.2691 13.0399 17.4478C12.8611 17.6266 12.6187 17.727 12.3659 17.727C12.1131 17.727 11.8706 17.6266 11.6918 17.4478C11.513 17.2691 11.4127 17.0266 11.4127 16.7738Z" fill="black" fill-opacity="0.2"/>
<path fill-rule="evenodd" clip-rule="evenodd" d="M22.3327 12.5683V20.3795C22.3324 20.6322 22.2318 20.8745 22.0531 21.0532C21.8744 21.2319 21.6321 21.3324 21.3794 21.3327H3.35248C3.09976 21.3324 2.85749 21.2319 2.67879 21.0532C2.5001 20.8745 2.39953 20.6322 2.39923 20.3795V12.5683C2.39923 12.3155 2.49962 12.073 2.67838 11.8942C2.85714 11.7155 3.09967 11.615 3.35248 11.615C3.60528 11.615 3.84768 11.7155 4.02644 11.8942C4.20519 12.073 4.30558 12.3155 4.30558 12.5683V19.4263H20.4262V12.5683C20.4262 12.3155 20.5267 12.073 20.7055 11.8942C20.8842 11.7155 21.1266 11.615 21.3794 11.615C21.6322 11.615 21.8748 11.7155 22.0535 11.8942C22.2323 12.073 22.3327 12.3155 22.3327 12.5683ZM11.4127 16.7738V5.85503L8.83497 8.43386C8.74644 8.52239 8.64136 8.59265 8.52569 8.64056C8.41002 8.68847 8.28593 8.71311 8.16073 8.71311C8.03553 8.71311 7.91157 8.68847 7.79591 8.64056C7.68023 8.59265 7.57516 8.52239 7.48663 8.43386C7.3981 8.34533 7.32795 8.24026 7.28004 8.12459C7.23212 8.00892 7.20735 7.88493 7.20735 7.75973C7.20735 7.63453 7.23212 7.51057 7.28004 7.3949C7.32795 7.27923 7.3981 7.17413 7.48663 7.0856L11.6935 2.87998C11.7819 2.79146 11.8869 2.72122 12.0025 2.67331C12.118 2.6254 12.2419 2.60076 12.367 2.60076C12.4921 2.60076 12.616 2.6254 12.7316 2.67331C12.8471 2.72122 12.9521 2.79146 13.0406 2.87998L17.2461 7.0856C17.3347 7.17413 17.405 7.27923 17.4529 7.3949C17.5008 7.51057 17.5254 7.63453 17.5254 7.75973C17.5254 7.88493 17.5008 8.00892 17.4529 8.12459C17.405 8.24026 17.3347 8.34533 17.2461 8.43386C17.1576 8.52239 17.0525 8.59265 16.9369 8.64056C16.8212 8.68847 16.6972 8.71311 16.572 8.71311C16.4468 8.71311 16.3229 8.68847 16.2072 8.64056C16.0915 8.59265 15.9865 8.52239 15.8979 8.43386L13.319 5.85503V16.7738C13.319 17.0266 13.2186 17.2691 13.0399 17.4478C12.8611 17.6266 12.6187 17.727 12.3659 17.727C12.1131 17.727 11.8706 17.6266 11.6918 17.4478C11.513 17.2691 11.4127 17.0266 11.4127 16.7738Z" fill="black" fill-opacity="0.2"/>
<path fill-rule="evenodd" clip-rule="evenodd" d="M22.3327 12.5683V20.3795C22.3324 20.6322 22.2318 20.8745 22.0531 21.0532C21.8744 21.2319 21.6321 21.3324 21.3794 21.3327H3.35248C3.09976 21.3324 2.85749 21.2319 2.67879 21.0532C2.5001 20.8745 2.39953 20.6322 2.39923 20.3795V12.5683C2.39923 12.3155 2.49962 12.073 2.67838 11.8942C2.85714 11.7155 3.09967 11.615 3.35248 11.615C3.60528 11.615 3.84768 11.7155 4.02644 11.8942C4.20519 12.073 4.30558 12.3155 4.30558 12.5683V19.4263H20.4262V12.5683C20.4262 12.3155 20.5267 12.073 20.7055 11.8942C20.8842 11.7155 21.1266 11.615 21.3794 11.615C21.6322 11.615 21.8748 11.7155 22.0535 11.8942C22.2323 12.073 22.3327 12.3155 22.3327 12.5683ZM11.4127 16.7738V5.85503L8.83497 8.43386C8.74644 8.52239 8.64136 8.59265 8.52569 8.64056C8.41002 8.68847 8.28593 8.71311 8.16073 8.71311C8.03553 8.71311 7.91157 8.68847 7.79591 8.64056C7.68023 8.59265 7.57516 8.52239 7.48663 8.43386C7.3981 8.34533 7.32795 8.24026 7.28004 8.12459C7.23212 8.00892 7.20735 7.88493 7.20735 7.75973C7.20735 7.63453 7.23212 7.51057 7.28004 7.3949C7.32795 7.27923 7.3981 7.17413 7.48663 7.0856L11.6935 2.87998C11.7819 2.79146 11.8869 2.72122 12.0025 2.67331C12.118 2.6254 12.2419 2.60076 12.367 2.60076C12.4921 2.60076 12.616 2.6254 12.7316 2.67331C12.8471 2.72122 12.9521 2.79146 13.0406 2.87998L17.2461 7.0856C17.3347 7.17413 17.405 7.27923 17.4529 7.3949C17.5008 7.51057 17.5254 7.63453 17.5254 7.75973C17.5254 7.88493 17.5008 8.00892 17.4529 8.12459C17.405 8.24026 17.3347 8.34533 17.2461 8.43386C17.1576 8.52239 17.0525 8.59265 16.9369 8.64056C16.8212 8.68847 16.6972 8.71311 16.572 8.71311C16.4468 8.71311 16.3229 8.68847 16.2072 8.64056C16.0915 8.59265 15.9865 8.52239 15.8979 8.43386L13.319 5.85503V16.7738C13.319 17.0266 13.2186 17.2691 13.0399 17.4478C12.8611 17.6266 12.6187 17.727 12.3659 17.727C12.1131 17.727 11.8706 17.6266 11.6918 17.4478C11.513 17.2691 11.4127 17.0266 11.4127 16.7738Z" fill="black" fill-opacity="0.2"/>
<path fill-rule="evenodd" clip-rule="evenodd" d="M22.3327 12.5683V20.3795C22.3324 20.6322 22.2318 20.8745 22.0531 21.0532C21.8744 21.2319 21.6321 21.3324 21.3794 21.3327H3.35248C3.09976 21.3324 2.85749 21.2319 2.67879 21.0532C2.5001 20.8745 2.39953 20.6322 2.39923 20.3795V12.5683C2.39923 12.3155 2.49962 12.073 2.67838 11.8942C2.85714 11.7155 3.09967 11.615 3.35248 11.615C3.60528 11.615 3.84768 11.7155 4.02644 11.8942C4.20519 12.073 4.30558 12.3155 4.30558 12.5683V19.4263H20.4262V12.5683C20.4262 12.3155 20.5267 12.073 20.7055 11.8942C20.8842 11.7155 21.1266 11.615 21.3794 11.615C21.6322 11.615 21.8748 11.7155 22.0535 11.8942C22.2323 12.073 22.3327 12.3155 22.3327 12.5683ZM11.4127 16.7738V5.85503L8.83497 8.43386C8.74644 8.52239 8.64136 8.59265 8.52569 8.64056C8.41002 8.68847 8.28593 8.71311 8.16073 8.71311C8.03553 8.71311 7.91157 8.68847 7.79591 8.64056C7.68023 8.59265 7.57516 8.52239 7.48663 8.43386C7.3981 8.34533 7.32795 8.24026 7.28004 8.12459C7.23212 8.00892 7.20735 7.88493 7.20735 7.75973C7.20735 7.63453 7.23212 7.51057 7.28004 7.3949C7.32795 7.27923 7.3981 7.17413 7.48663 7.0856L11.6935 2.87998C11.7819 2.79146 11.8869 2.72122 12.0025 2.67331C12.118 2.6254 12.2419 2.60076 12.367 2.60076C12.4921 2.60076 12.616 2.6254 12.7316 2.67331C12.8471 2.72122 12.9521 2.79146 13.0406 2.87998L17.2461 7.0856C17.3347 7.17413 17.405 7.27923 17.4529 7.3949C17.5008 7.51057 17.5254 7.63453 17.5254 7.75973C17.5254 7.88493 17.5008 8.00892 17.4529 8.12459C17.405 8.24026 17.3347 8.34533 17.2461 8.43386C17.1576 8.52239 17.0525 8.59265 16.9369 8.64056C16.8212 8.68847 16.6972 8.71311 16.572 8.71311C16.4468 8.71311 16.3229 8.68847 16.2072 8.64056C16.0915 8.59265 15.9865 8.52239 15.8979 8.43386L13.319 5.85503V16.7738C13.319 17.0266 13.2186 17.2691 13.0399 17.4478C12.8611 17.6266 12.6187 17.727 12.3659 17.727C12.1131 17.727 11.8706 17.6266 11.6918 17.4478C11.513 17.2691 11.4127 17.0266 11.4127 16.7738Z" fill="black" fill-opacity="0.2"/>
<path fill-rule="evenodd" clip-rule="evenodd" d="M22.3327 12.5683V20.3795C22.3324 20.6322 22.2318 20.8745 22.0531 21.0532C21.8744 21.2319 21.6321 21.3324 21.3794 21.3327H3.35248C3.09976 21.3324 2.85749 21.2319 2.67879 21.0532C2.5001 20.8745 2.39953 20.6322 2.39923 20.3795V12.5683C2.39923 12.3155 2.49962 12.073 2.67838 11.8942C2.85714 11.7155 3.09967 11.615 3.35248 11.615C3.60528 11.615 3.84768 11.7155 4.02644 11.8942C4.20519 12.073 4.30558 12.3155 4.30558 12.5683V19.4263H20.4262V12.5683C20.4262 12.3155 20.5267 12.073 20.7055 11.8942C20.8842 11.7155 21.1266 11.615 21.3794 11.615C21.6322 11.615 21.8748 11.7155 22.0535 11.8942C22.2323 12.073 22.3327 12.3155 22.3327 12.5683ZM11.4127 16.7738V5.85503L8.83497 8.43386C8.74644 8.52239 8.64136 8.59265 8.52569 8.64056C8.41002 8.68847 8.28593 8.71311 8.16073 8.71311C8.03553 8.71311 7.91157 8.68847 7.79591 8.64056C7.68023 8.59265 7.57516 8.52239 7.48663 8.43386C7.3981 8.34533 7.32795 8.24026 7.28004 8.12459C7.23212 8.00892 7.20735 7.88493 7.20735 7.75973C7.20735 7.63453 7.23212 7.51057 7.28004 7.3949C7.32795 7.27923 7.3981 7.17413 7.48663 7.0856L11.6935 2.87998C11.7819 2.79146 11.8869 2.72122 12.0025 2.67331C12.118 2.6254 12.2419 2.60076 12.367 2.60076C12.4921 2.60076 12.616 2.6254 12.7316 2.67331C12.8471 2.72122 12.9521 2.79146 13.0406 2.87998L17.2461 7.0856C17.3347 7.17413 17.405 7.27923 17.4529 7.3949C17.5008 7.51057 17.5254 7.63453 17.5254 7.75973C17.5254 7.88493 17.5008 8.00892 17.4529 8.12459C17.405 8.24026 17.3347 8.34533 17.2461 8.43386C17.1576 8.52239 17.0525 8.59265 16.9369 8.64056C16.8212 8.68847 16.6972 8.71311 16.572 8.71311C16.4468 8.71311 16.3229 8.68847 16.2072 8.64056C16.0915 8.59265 15.9865 8.52239 15.8979 8.43386L13.319 5.85503V16.7738C13.319 17.0266 13.2186 17.2691 13.0399 17.4478C12.8611 17.6266 12.6187 17.727 12.3659 17.727C12.1131 17.727 11.8706 17.6266 11.6918 17.4478C11.513 17.2691 11.4127 17.0266 11.4127 16.7738Z" fill="black" fill-opacity="0.2"/>
<path fill-rule="evenodd" clip-rule="evenodd" d="M22.3327 12.5683V20.3795C22.3324 20.6322 22.2318 20.8745 22.0531 21.0532C21.8744 21.2319 21.6321 21.3324 21.3794 21.3327H3.35248C3.09976 21.3324 2.85749 21.2319 2.67879 21.0532C2.5001 20.8745 2.39953 20.6322 2.39923 20.3795V12.5683C2.39923 12.3155 2.49962 12.073 2.67838 11.8942C2.85714 11.7155 3.09967 11.615 3.35248 11.615C3.60528 11.615 3.84768 11.7155 4.02644 11.8942C4.20519 12.073 4.30558 12.3155 4.30558 12.5683V19.4263H20.4262V12.5683C20.4262 12.3155 20.5267 12.073 20.7055 11.8942C20.8842 11.7155 21.1266 11.615 21.3794 11.615C21.6322 11.615 21.8748 11.7155 22.0535 11.8942C22.2323 12.073 22.3327 12.3155 22.3327 12.5683ZM11.4127 16.7738V5.85503L8.83497 8.43386C8.74644 8.52239 8.64136 8.59265 8.52569 8.64056C8.41002 8.68847 8.28593 8.71311 8.16073 8.71311C8.03553 8.71311 7.91157 8.68847 7.79591 8.64056C7.68023 8.59265 7.57516 8.52239 7.48663 8.43386C7.3981 8.34533 7.32795 8.24026 7.28004 8.12459C7.23212 8.00892 7.20735 7.88493 7.20735 7.75973C7.20735 7.63453 7.23212 7.51057 7.28004 7.3949C7.32795 7.27923 7.3981 7.17413 7.48663 7.0856L11.6935 2.87998C11.7819 2.79146 11.8869 2.72122 12.0025 2.67331C12.118 2.6254 12.2419 2.60076 12.367 2.60076C12.4921 2.60076 12.616 2.6254 12.7316 2.67331C12.8471 2.72122 12.9521 2.79146 13.0406 2.87998L17.2461 7.0856C17.3347 7.17413 17.405 7.27923 17.4529 7.3949C17.5008 7.51057 17.5254 7.63453 17.5254 7.75973C17.5254 7.88493 17.5008 8.00892 17.4529 8.12459C17.405 8.24026 17.3347 8.34533 17.2461 8.43386C17.1576 8.52239 17.0525 8.59265 16.9369 8.64056C16.8212 8.68847 16.6972 8.71311 16.572 8.71311C16.4468 8.71311 16.3229 8.68847 16.2072 8.64056C16.0915 8.59265 15.9865 8.52239 15.8979 8.43386L13.319 5.85503V16.7738C13.319 17.0266 13.2186 17.2691 13.0399 17.4478C12.8611 17.6266 12.6187 17.727 12.3659 17.727C12.1131 17.727 11.8706 17.6266 11.6918 17.4478C11.513 17.2691 11.4127 17.0266 11.4127 16.7738Z" fill="black" fill-opacity="0.2"/>
<path fill-rule="evenodd" clip-rule="evenodd" d="M22.3327 12.5683V20.3795C22.3324 20.6322 22.2318 20.8745 22.0531 21.0532C21.8744 21.2319 21.6321 21.3324 21.3794 21.3327H3.35248C3.09976 21.3324 2.85749 21.2319 2.67879 21.0532C2.5001 20.8745 2.39953 20.6322 2.39923 20.3795V12.5683C2.39923 12.3155 2.49962 12.073 2.67838 11.8942C2.85714 11.7155 3.09967 11.615 3.35248 11.615C3.60528 11.615 3.84768 11.7155 4.02644 11.8942C4.20519 12.073 4.30558 12.3155 4.30558 12.5683V19.4263H20.4262V12.5683C20.4262 12.3155 20.5267 12.073 20.7055 11.8942C20.8842 11.7155 21.1266 11.615 21.3794 11.615C21.6322 11.615 21.8748 11.7155 22.0535 11.8942C22.2323 12.073 22.3327 12.3155 22.3327 12.5683ZM11.4127 16.7738V5.85503L8.83497 8.43386C8.74644 8.52239 8.64136 8.59265 8.52569 8.64056C8.41002 8.68847 8.28593 8.71311 8.16073 8.71311C8.03553 8.71311 7.91157 8.68847 7.79591 8.64056C7.68023 8.59265 7.57516 8.52239 7.48663 8.43386C7.3981 8.34533 7.32795 8.24026 7.28004 8.12459C7.23212 8.00892 7.20735 7.88493 7.20735 7.75973C7.20735 7.63453 7.23212 7.51057 7.28004 7.3949C7.32795 7.27923 7.3981 7.17413 7.48663 7.0856L11.6935 2.87998C11.7819 2.79146 11.8869 2.72122 12.0025 2.67331C12.118 2.6254 12.2419 2.60076 12.367 2.60076C12.4921 2.60076 12.616 2.6254 12.7316 2.67331C12.8471 2.72122 12.9521 2.79146 13.0406 2.87998L17.2461 7.0856C17.3347 7.17413 17.405 7.27923 17.4529 7.3949C17.5008 7.51057 17.5254 7.63453 17.5254 7.75973C17.5254 7.88493 17.5008 8.00892 17.4529 8.12459C17.405 8.24026 17.3347 8.34533 17.2461 8.43386C17.1576 8.52239 17.0525 8.59265 16.9369 8.64056C16.8212 8.68847 16.6972 8.71311 16.572 8.71311C16.4468 8.71311 16.3229 8.68847 16.2072 8.64056C16.0915 8.59265 15.9865 8.52239 15.8979 8.43386L13.319 5.85503V16.7738C13.319 17.0266 13.2186 17.2691 13.0399 17.4478C12.8611 17.6266 12.6187 17.727 12.3659 17.727C12.1131 17.727 11.8706 17.6266 11.6918 17.4478C11.513 17.2691 11.4127 17.0266 11.4127 16.7738Z" fill="black" fill-opacity="0.2"/>
<path d="M22.3327 20.3795L23.3327 20.3807V20.3795H22.3327ZM22.0531 21.0532L21.346 20.3461L21.346 20.3461L22.0531 21.0532ZM21.3794 21.3327V22.3327H21.3806L21.3794 21.3327ZM3.35248 21.3327L3.35129 22.3327H3.35248V21.3327ZM2.39923 20.3795H1.39923V20.3807L2.39923 20.3795ZM2.67838 11.8942L3.38548 12.6013L3.38549 12.6013L2.67838 11.8942ZM4.02644 11.8942L4.73355 11.1871L4.73354 11.1871L4.02644 11.8942ZM4.30558 19.4263H3.30558V20.4263H4.30558V19.4263ZM20.4262 19.4263V20.4263H21.4262V19.4263H20.4262ZM20.7055 11.8942L19.9984 11.1871H19.9984L20.7055 11.8942ZM22.0535 11.8942L21.3464 12.6013H21.3464L22.0535 11.8942ZM11.4127 5.85503L12.4127 5.85503V3.44007L10.7054 5.14808L11.4127 5.85503ZM8.83497 8.43386L9.54207 9.14097L9.54223 9.14081L8.83497 8.43386ZM8.52569 8.64056L8.90838 9.56444L8.90838 9.56444L8.52569 8.64056ZM7.79591 8.64056L8.17859 7.71668L8.17859 7.71668L7.79591 8.64056ZM7.48663 8.43386L8.19374 7.72676L8.19374 7.72675L7.48663 8.43386ZM7.28004 8.12459L8.20392 7.74191L8.20391 7.7419L7.28004 8.12459ZM7.28004 7.3949L8.20391 7.77759L8.20392 7.77758L7.28004 7.3949ZM7.48663 7.0856L6.77963 6.37839L6.77953 6.37849L7.48663 7.0856ZM11.6935 2.87998L12.4005 3.58719L12.401 3.5867L11.6935 2.87998ZM12.0025 2.67331L12.3854 3.59709L12.3854 3.59709L12.0025 2.67331ZM12.7316 2.67331L12.3486 3.59709L12.3486 3.59709L12.7316 2.67331ZM13.0406 2.87998L12.3331 3.5867L12.3334 3.58708L13.0406 2.87998ZM17.2461 7.0856L16.539 7.7927L16.539 7.7927L17.2461 7.0856ZM17.4529 7.3949L16.529 7.77758L16.529 7.77759L17.4529 7.3949ZM17.4529 8.12459L16.529 7.74191L16.529 7.74191L17.4529 8.12459ZM17.2461 8.43386L17.9532 9.14097L17.9532 9.14097L17.2461 8.43386ZM16.9369 8.64056L17.3195 9.56444L17.3195 9.56444L16.9369 8.64056ZM16.2072 8.64056L15.8245 9.56444L15.8245 9.56444L16.2072 8.64056ZM15.8979 8.43386L16.605 7.72675L16.605 7.72674L15.8979 8.43386ZM13.319 5.85503L14.0261 5.14791L12.319 3.44089V5.85503H13.319ZM23.3327 20.3795V12.5683H21.3327V20.3795H23.3327ZM22.7602 21.7603C23.1261 21.3944 23.3321 20.8983 23.3327 20.3807L21.3327 20.3783C21.3327 20.3661 21.3375 20.3545 21.346 20.3461L22.7602 21.7603ZM21.3806 22.3327C21.8981 22.3321 22.3942 22.1263 22.7602 21.7603L21.346 20.3461C21.3546 20.3375 21.3662 20.3327 21.3782 20.3327L21.3806 22.3327ZM3.35248 22.3327H21.3794V20.3327H3.35248V22.3327ZM1.97168 21.7603C2.33767 22.1263 2.83384 22.3321 3.35129 22.3327L3.35366 20.3327C3.36569 20.3327 3.3773 20.3375 3.3859 20.3461L1.97168 21.7603ZM1.39923 20.3807C1.39985 20.8983 1.60583 21.3944 1.97168 21.7603L3.3859 20.3461C3.39437 20.3545 3.39921 20.3661 3.39923 20.3783L1.39923 20.3807ZM1.39923 12.5683V20.3795H3.39923V12.5683H1.39923ZM1.97127 11.1871C1.60489 11.5535 1.39923 12.0504 1.39923 12.5683H3.39923C3.39923 12.5805 3.39434 12.5925 3.38548 12.6013L1.97127 11.1871ZM3.35248 10.615C2.83456 10.615 2.33764 10.8207 1.97127 11.1871L3.38549 12.6013C3.37663 12.6102 3.36478 12.615 3.35248 12.615V10.615ZM4.73354 11.1871C4.36728 10.8209 3.87055 10.615 3.35248 10.615V12.615C3.34001 12.615 3.32807 12.6101 3.31933 12.6013L4.73354 11.1871ZM5.30558 12.5683C5.30558 12.0504 5.09992 11.5535 4.73355 11.1871L3.31933 12.6013C3.31046 12.5925 3.30558 12.5805 3.30558 12.5683H5.30558ZM5.30558 19.4263V12.5683H3.30558V19.4263H5.30558ZM20.4262 18.4263H4.30558V20.4263H20.4262V18.4263ZM19.4262 12.5683V19.4263H21.4262V12.5683H19.4262ZM19.9984 11.1871C19.6322 11.5532 19.4262 12.05 19.4262 12.5683H21.4262C21.4262 12.5809 21.4212 12.5927 21.4126 12.6013L19.9984 11.1871ZM21.3794 10.615C20.8614 10.615 20.3646 10.8209 19.9984 11.1871L21.4126 12.6013C21.4038 12.6101 21.3919 12.615 21.3794 12.615V10.615ZM22.7606 11.1871C22.3943 10.8207 21.8973 10.615 21.3794 10.615V12.615C21.3671 12.615 21.3553 12.6102 21.3464 12.6013L22.7606 11.1871ZM23.3327 12.5683C23.3327 12.0504 23.127 11.5535 22.7606 11.1871L21.3464 12.6013C21.3376 12.5925 21.3327 12.5805 21.3327 12.5683H23.3327ZM10.4127 5.85503V16.7738H12.4127V5.85503L10.4127 5.85503ZM9.54223 9.14081L12.1199 6.56199L10.7054 5.14808L8.1277 7.72691L9.54223 9.14081ZM8.90838 9.56444C9.14558 9.46619 9.36085 9.3222 9.54207 9.14097L8.12786 7.72675C8.13203 7.72259 8.13714 7.71911 8.14301 7.71668L8.90838 9.56444ZM8.16073 9.71311C8.41701 9.71311 8.67116 9.6627 8.90838 9.56444L8.14301 7.71668C8.14889 7.71425 8.15485 7.71311 8.16073 7.71311V9.71311ZM7.41322 9.56444C7.6503 9.66265 7.9043 9.71311 8.16073 9.71311V7.71311C8.16676 7.71311 8.17285 7.7143 8.17859 7.71668L7.41322 9.56444ZM6.77953 9.14097C6.96075 9.3222 7.17601 9.46619 7.41322 9.56444L8.17859 7.71668C8.18446 7.71911 8.18957 7.72259 8.19374 7.72676L6.77953 9.14097ZM6.35616 8.50727C6.45423 8.74404 6.59797 8.95941 6.77953 9.14097L8.19374 7.72675C8.19824 7.73125 8.20167 7.73647 8.20392 7.74191L6.35616 8.50727ZM6.20735 7.75973C6.20735 8.01686 6.25822 8.27084 6.35616 8.50728L8.20391 7.7419C8.20603 7.747 8.20735 7.753 8.20735 7.75973H6.20735ZM6.35616 7.01222C6.25824 7.24862 6.20735 7.50256 6.20735 7.75973H8.20735C8.20735 7.76649 8.20601 7.77253 8.20391 7.77759L6.35616 7.01222ZM6.77953 6.37849C6.59789 6.56012 6.45419 6.77555 6.35616 7.01222L8.20392 7.77758C8.20171 7.78292 8.19831 7.78813 8.19374 7.79271L6.77953 6.37849ZM10.9865 2.17277L6.77963 6.37839L8.19364 7.79281L12.4005 3.58719L10.9865 2.17277ZM11.6195 1.74954C11.3825 1.8478 11.1672 1.99182 10.986 2.17326L12.401 3.5867C12.3966 3.5911 12.3913 3.59464 12.3854 3.59709L11.6195 1.74954ZM12.367 1.60076C12.1106 1.60076 11.8566 1.65127 11.6195 1.74954L12.3854 3.59709C12.3795 3.59953 12.3732 3.60076 12.367 3.60076V1.60076ZM13.1145 1.74954C12.8774 1.65127 12.6235 1.60076 12.367 1.60076V3.60076C12.3608 3.60076 12.3545 3.59953 12.3486 3.59709L13.1145 1.74954ZM13.748 2.17326C13.5668 1.99182 13.3515 1.8478 13.1145 1.74954L12.3486 3.59709C12.3427 3.59464 12.3375 3.5911 12.3331 3.5867L13.748 2.17326ZM17.9532 6.37849L13.7477 2.17287L12.3334 3.58708L16.539 7.7927L17.9532 6.37849ZM18.3768 7.01222C18.2785 6.77496 18.1344 6.55968 17.9532 6.37849L16.539 7.7927C16.5349 7.78857 16.5314 7.7835 16.529 7.77758L18.3768 7.01222ZM18.5254 7.75973C18.5254 7.5033 18.475 7.2493 18.3767 7.01222L16.529 7.77759C16.5266 7.77184 16.5254 7.76576 16.5254 7.75973H18.5254ZM18.3767 8.50727C18.475 8.27016 18.5254 8.01612 18.5254 7.75973H16.5254C16.5254 7.75374 16.5266 7.74768 16.529 7.74191L18.3767 8.50727ZM17.9532 9.14097C18.1344 8.95985 18.2784 8.74463 18.3768 8.50727L16.529 7.74191C16.5315 7.73589 16.535 7.73081 16.539 7.72676L17.9532 9.14097ZM17.3195 9.56444C17.5568 9.46619 17.772 9.3222 17.9532 9.14097L16.539 7.72675C16.5432 7.72259 16.5483 7.71911 16.5542 7.71668L17.3195 9.56444ZM16.572 9.71311C16.8285 9.71311 17.0825 9.66264 17.3195 9.56444L16.5542 7.71668C16.5599 7.7143 16.566 7.71311 16.572 7.71311V9.71311ZM15.8245 9.56444C16.0616 9.66264 16.3156 9.71311 16.572 9.71311V7.71311C16.5781 7.71311 16.5842 7.7143 16.5899 7.71668L15.8245 9.56444ZM15.1908 9.14097C15.3721 9.3222 15.5873 9.46619 15.8245 9.56444L16.5899 7.71668C16.5958 7.71911 16.6009 7.72259 16.605 7.72675L15.1908 9.14097ZM12.6119 6.56216L15.1908 9.14098L16.605 7.72674L14.0261 5.14791L12.6119 6.56216ZM14.319 16.7738V5.85503H12.319V16.7738H14.319ZM13.747 18.1549C14.1133 17.7885 14.319 17.2917 14.319 16.7738H12.319C12.319 16.7615 12.3239 16.7496 12.3328 16.7407L13.747 18.1549ZM12.3659 18.727C12.884 18.727 13.3807 18.5212 13.747 18.1549L12.3328 16.7407C12.3415 16.732 12.3534 16.727 12.3659 16.727L12.3659 18.727ZM10.9847 18.1549C11.3511 18.5213 11.848 18.727 12.3659 18.727L12.3659 16.727C12.3782 16.727 12.3901 16.7319 12.3989 16.7407L10.9847 18.1549ZM10.4127 16.7738C10.4127 17.2917 10.6183 17.7885 10.9847 18.1549L12.3989 16.7407C12.4078 16.7496 12.4127 16.7615 12.4127 16.7738H10.4127Z" fill="black" mask="url(#path-1-inside-1_652_5370)"/>
<path d="M22.3327 20.3795L23.3327 20.3807V20.3795H22.3327ZM22.0531 21.0532L21.346 20.3461L21.346 20.3461L22.0531 21.0532ZM21.3794 21.3327V22.3327H21.3806L21.3794 21.3327ZM3.35248 21.3327L3.35129 22.3327H3.35248V21.3327ZM2.39923 20.3795H1.39923V20.3807L2.39923 20.3795ZM2.67838 11.8942L3.38548 12.6013L3.38549 12.6013L2.67838 11.8942ZM4.02644 11.8942L4.73355 11.1871L4.73354 11.1871L4.02644 11.8942ZM4.30558 19.4263H3.30558V20.4263H4.30558V19.4263ZM20.4262 19.4263V20.4263H21.4262V19.4263H20.4262ZM20.7055 11.8942L19.9984 11.1871H19.9984L20.7055 11.8942ZM22.0535 11.8942L21.3464 12.6013H21.3464L22.0535 11.8942ZM11.4127 5.85503L12.4127 5.85503V3.44007L10.7054 5.14808L11.4127 5.85503ZM8.83497 8.43386L9.54207 9.14097L9.54223 9.14081L8.83497 8.43386ZM8.52569 8.64056L8.90838 9.56444L8.90838 9.56444L8.52569 8.64056ZM7.79591 8.64056L8.17859 7.71668L8.17859 7.71668L7.79591 8.64056ZM7.48663 8.43386L8.19374 7.72676L8.19374 7.72675L7.48663 8.43386ZM7.28004 8.12459L8.20392 7.74191L8.20391 7.7419L7.28004 8.12459ZM7.28004 7.3949L8.20391 7.77759L8.20392 7.77758L7.28004 7.3949ZM7.48663 7.0856L6.77963 6.37839L6.77953 6.37849L7.48663 7.0856ZM11.6935 2.87998L12.4005 3.58719L12.401 3.5867L11.6935 2.87998ZM12.0025 2.67331L12.3854 3.59709L12.3854 3.59709L12.0025 2.67331ZM12.7316 2.67331L12.3486 3.59709L12.3486 3.59709L12.7316 2.67331ZM13.0406 2.87998L12.3331 3.5867L12.3334 3.58708L13.0406 2.87998ZM17.2461 7.0856L16.539 7.7927L16.539 7.7927L17.2461 7.0856ZM17.4529 7.3949L16.529 7.77758L16.529 7.77759L17.4529 7.3949ZM17.4529 8.12459L16.529 7.74191L16.529 7.74191L17.4529 8.12459ZM17.2461 8.43386L17.9532 9.14097L17.9532 9.14097L17.2461 8.43386ZM16.9369 8.64056L17.3195 9.56444L17.3195 9.56444L16.9369 8.64056ZM16.2072 8.64056L15.8245 9.56444L15.8245 9.56444L16.2072 8.64056ZM15.8979 8.43386L16.605 7.72675L16.605 7.72674L15.8979 8.43386ZM13.319 5.85503L14.0261 5.14791L12.319 3.44089V5.85503H13.319ZM23.3327 20.3795V12.5683H21.3327V20.3795H23.3327ZM22.7602 21.7603C23.1261 21.3944 23.3321 20.8983 23.3327 20.3807L21.3327 20.3783C21.3327 20.3661 21.3375 20.3545 21.346 20.3461L22.7602 21.7603ZM21.3806 22.3327C21.8981 22.3321 22.3942 22.1263 22.7602 21.7603L21.346 20.3461C21.3546 20.3375 21.3662 20.3327 21.3782 20.3327L21.3806 22.3327ZM3.35248 22.3327H21.3794V20.3327H3.35248V22.3327ZM1.97168 21.7603C2.33767 22.1263 2.83384 22.3321 3.35129 22.3327L3.35366 20.3327C3.36569 20.3327 3.3773 20.3375 3.3859 20.3461L1.97168 21.7603ZM1.39923 20.3807C1.39985 20.8983 1.60583 21.3944 1.97168 21.7603L3.3859 20.3461C3.39437 20.3545 3.39921 20.3661 3.39923 20.3783L1.39923 20.3807ZM1.39923 12.5683V20.3795H3.39923V12.5683H1.39923ZM1.97127 11.1871C1.60489 11.5535 1.39923 12.0504 1.39923 12.5683H3.39923C3.39923 12.5805 3.39434 12.5925 3.38548 12.6013L1.97127 11.1871ZM3.35248 10.615C2.83456 10.615 2.33764 10.8207 1.97127 11.1871L3.38549 12.6013C3.37663 12.6102 3.36478 12.615 3.35248 12.615V10.615ZM4.73354 11.1871C4.36728 10.8209 3.87055 10.615 3.35248 10.615V12.615C3.34001 12.615 3.32807 12.6101 3.31933 12.6013L4.73354 11.1871ZM5.30558 12.5683C5.30558 12.0504 5.09992 11.5535 4.73355 11.1871L3.31933 12.6013C3.31046 12.5925 3.30558 12.5805 3.30558 12.5683H5.30558ZM5.30558 19.4263V12.5683H3.30558V19.4263H5.30558ZM20.4262 18.4263H4.30558V20.4263H20.4262V18.4263ZM19.4262 12.5683V19.4263H21.4262V12.5683H19.4262ZM19.9984 11.1871C19.6322 11.5532 19.4262 12.05 19.4262 12.5683H21.4262C21.4262 12.5809 21.4212 12.5927 21.4126 12.6013L19.9984 11.1871ZM21.3794 10.615C20.8614 10.615 20.3646 10.8209 19.9984 11.1871L21.4126 12.6013C21.4038 12.6101 21.3919 12.615 21.3794 12.615V10.615ZM22.7606 11.1871C22.3943 10.8207 21.8973 10.615 21.3794 10.615V12.615C21.3671 12.615 21.3553 12.6102 21.3464 12.6013L22.7606 11.1871ZM23.3327 12.5683C23.3327 12.0504 23.127 11.5535 22.7606 11.1871L21.3464 12.6013C21.3376 12.5925 21.3327 12.5805 21.3327 12.5683H23.3327ZM10.4127 5.85503V16.7738H12.4127V5.85503L10.4127 5.85503ZM9.54223 9.14081L12.1199 6.56199L10.7054 5.14808L8.1277 7.72691L9.54223 9.14081ZM8.90838 9.56444C9.14558 9.46619 9.36085 9.3222 9.54207 9.14097L8.12786 7.72675C8.13203 7.72259 8.13714 7.71911 8.14301 7.71668L8.90838 9.56444ZM8.16073 9.71311C8.41701 9.71311 8.67116 9.6627 8.90838 9.56444L8.14301 7.71668C8.14889 7.71425 8.15485 7.71311 8.16073 7.71311V9.71311ZM7.41322 9.56444C7.6503 9.66265 7.9043 9.71311 8.16073 9.71311V7.71311C8.16676 7.71311 8.17285 7.7143 8.17859 7.71668L7.41322 9.56444ZM6.77953 9.14097C6.96075 9.3222 7.17601 9.46619 7.41322 9.56444L8.17859 7.71668C8.18446 7.71911 8.18957 7.72259 8.19374 7.72676L6.77953 9.14097ZM6.35616 8.50727C6.45423 8.74404 6.59797 8.95941 6.77953 9.14097L8.19374 7.72675C8.19824 7.73125 8.20167 7.73647 8.20392 7.74191L6.35616 8.50727ZM6.20735 7.75973C6.20735 8.01686 6.25822 8.27084 6.35616 8.50728L8.20391 7.7419C8.20603 7.747 8.20735 7.753 8.20735 7.75973H6.20735ZM6.35616 7.01222C6.25824 7.24862 6.20735 7.50256 6.20735 7.75973H8.20735C8.20735 7.76649 8.20601 7.77253 8.20391 7.77759L6.35616 7.01222ZM6.77953 6.37849C6.59789 6.56012 6.45419 6.77555 6.35616 7.01222L8.20392 7.77758C8.20171 7.78292 8.19831 7.78813 8.19374 7.79271L6.77953 6.37849ZM10.9865 2.17277L6.77963 6.37839L8.19364 7.79281L12.4005 3.58719L10.9865 2.17277ZM11.6195 1.74954C11.3825 1.8478 11.1672 1.99182 10.986 2.17326L12.401 3.5867C12.3966 3.5911 12.3913 3.59464 12.3854 3.59709L11.6195 1.74954ZM12.367 1.60076C12.1106 1.60076 11.8566 1.65127 11.6195 1.74954L12.3854 3.59709C12.3795 3.59953 12.3732 3.60076 12.367 3.60076V1.60076ZM13.1145 1.74954C12.8774 1.65127 12.6235 1.60076 12.367 1.60076V3.60076C12.3608 3.60076 12.3545 3.59953 12.3486 3.59709L13.1145 1.74954ZM13.748 2.17326C13.5668 1.99182 13.3515 1.8478 13.1145 1.74954L12.3486 3.59709C12.3427 3.59464 12.3375 3.5911 12.3331 3.5867L13.748 2.17326ZM17.9532 6.37849L13.7477 2.17287L12.3334 3.58708L16.539 7.7927L17.9532 6.37849ZM18.3768 7.01222C18.2785 6.77496 18.1344 6.55968 17.9532 6.37849L16.539 7.7927C16.5349 7.78857 16.5314 7.7835 16.529 7.77758L18.3768 7.01222ZM18.5254 7.75973C18.5254 7.5033 18.475 7.2493 18.3767 7.01222L16.529 7.77759C16.5266 7.77184 16.5254 7.76576 16.5254 7.75973H18.5254ZM18.3767 8.50727C18.475 8.27016 18.5254 8.01612 18.5254 7.75973H16.5254C16.5254 7.75374 16.5266 7.74768 16.529 7.74191L18.3767 8.50727ZM17.9532 9.14097C18.1344 8.95985 18.2784 8.74463 18.3768 8.50727L16.529 7.74191C16.5315 7.73589 16.535 7.73081 16.539 7.72676L17.9532 9.14097ZM17.3195 9.56444C17.5568 9.46619 17.772 9.3222 17.9532 9.14097L16.539 7.72675C16.5432 7.72259 16.5483 7.71911 16.5542 7.71668L17.3195 9.56444ZM16.572 9.71311C16.8285 9.71311 17.0825 9.66264 17.3195 9.56444L16.5542 7.71668C16.5599 7.7143 16.566 7.71311 16.572 7.71311V9.71311ZM15.8245 9.56444C16.0616 9.66264 16.3156 9.71311 16.572 9.71311V7.71311C16.5781 7.71311 16.5842 7.7143 16.5899 7.71668L15.8245 9.56444ZM15.1908 9.14097C15.3721 9.3222 15.5873 9.46619 15.8245 9.56444L16.5899 7.71668C16.5958 7.71911 16.6009 7.72259 16.605 7.72675L15.1908 9.14097ZM12.6119 6.56216L15.1908 9.14098L16.605 7.72674L14.0261 5.14791L12.6119 6.56216ZM14.319 16.7738V5.85503H12.319V16.7738H14.319ZM13.747 18.1549C14.1133 17.7885 14.319 17.2917 14.319 16.7738H12.319C12.319 16.7615 12.3239 16.7496 12.3328 16.7407L13.747 18.1549ZM12.3659 18.727C12.884 18.727 13.3807 18.5212 13.747 18.1549L12.3328 16.7407C12.3415 16.732 12.3534 16.727 12.3659 16.727L12.3659 18.727ZM10.9847 18.1549C11.3511 18.5213 11.848 18.727 12.3659 18.727L12.3659 16.727C12.3782 16.727 12.3901 16.7319 12.3989 16.7407L10.9847 18.1549ZM10.4127 16.7738C10.4127 17.2917 10.6183 17.7885 10.9847 18.1549L12.3989 16.7407C12.4078 16.7496 12.4127 16.7615 12.4127 16.7738H10.4127Z" fill="black" fill-opacity="0.2" mask="url(#path-1-inside-1_652_5370)"/>
<path d="M22.3327 20.3795L23.3327 20.3807V20.3795H22.3327ZM22.0531 21.0532L21.346 20.3461L21.346 20.3461L22.0531 21.0532ZM21.3794 21.3327V22.3327H21.3806L21.3794 21.3327ZM3.35248 21.3327L3.35129 22.3327H3.35248V21.3327ZM2.39923 20.3795H1.39923V20.3807L2.39923 20.3795ZM2.67838 11.8942L3.38548 12.6013L3.38549 12.6013L2.67838 11.8942ZM4.02644 11.8942L4.73355 11.1871L4.73354 11.1871L4.02644 11.8942ZM4.30558 19.4263H3.30558V20.4263H4.30558V19.4263ZM20.4262 19.4263V20.4263H21.4262V19.4263H20.4262ZM20.7055 11.8942L19.9984 11.1871H19.9984L20.7055 11.8942ZM22.0535 11.8942L21.3464 12.6013H21.3464L22.0535 11.8942ZM11.4127 5.85503L12.4127 5.85503V3.44007L10.7054 5.14808L11.4127 5.85503ZM8.83497 8.43386L9.54207 9.14097L9.54223 9.14081L8.83497 8.43386ZM8.52569 8.64056L8.90838 9.56444L8.90838 9.56444L8.52569 8.64056ZM7.79591 8.64056L8.17859 7.71668L8.17859 7.71668L7.79591 8.64056ZM7.48663 8.43386L8.19374 7.72676L8.19374 7.72675L7.48663 8.43386ZM7.28004 8.12459L8.20392 7.74191L8.20391 7.7419L7.28004 8.12459ZM7.28004 7.3949L8.20391 7.77759L8.20392 7.77758L7.28004 7.3949ZM7.48663 7.0856L6.77963 6.37839L6.77953 6.37849L7.48663 7.0856ZM11.6935 2.87998L12.4005 3.58719L12.401 3.5867L11.6935 2.87998ZM12.0025 2.67331L12.3854 3.59709L12.3854 3.59709L12.0025 2.67331ZM12.7316 2.67331L12.3486 3.59709L12.3486 3.59709L12.7316 2.67331ZM13.0406 2.87998L12.3331 3.5867L12.3334 3.58708L13.0406 2.87998ZM17.2461 7.0856L16.539 7.7927L16.539 7.7927L17.2461 7.0856ZM17.4529 7.3949L16.529 7.77758L16.529 7.77759L17.4529 7.3949ZM17.4529 8.12459L16.529 7.74191L16.529 7.74191L17.4529 8.12459ZM17.2461 8.43386L17.9532 9.14097L17.9532 9.14097L17.2461 8.43386ZM16.9369 8.64056L17.3195 9.56444L17.3195 9.56444L16.9369 8.64056ZM16.2072 8.64056L15.8245 9.56444L15.8245 9.56444L16.2072 8.64056ZM15.8979 8.43386L16.605 7.72675L16.605 7.72674L15.8979 8.43386ZM13.319 5.85503L14.0261 5.14791L12.319 3.44089V5.85503H13.319ZM23.3327 20.3795V12.5683H21.3327V20.3795H23.3327ZM22.7602 21.7603C23.1261 21.3944 23.3321 20.8983 23.3327 20.3807L21.3327 20.3783C21.3327 20.3661 21.3375 20.3545 21.346 20.3461L22.7602 21.7603ZM21.3806 22.3327C21.8981 22.3321 22.3942 22.1263 22.7602 21.7603L21.346 20.3461C21.3546 20.3375 21.3662 20.3327 21.3782 20.3327L21.3806 22.3327ZM3.35248 22.3327H21.3794V20.3327H3.35248V22.3327ZM1.97168 21.7603C2.33767 22.1263 2.83384 22.3321 3.35129 22.3327L3.35366 20.3327C3.36569 20.3327 3.3773 20.3375 3.3859 20.3461L1.97168 21.7603ZM1.39923 20.3807C1.39985 20.8983 1.60583 21.3944 1.97168 21.7603L3.3859 20.3461C3.39437 20.3545 3.39921 20.3661 3.39923 20.3783L1.39923 20.3807ZM1.39923 12.5683V20.3795H3.39923V12.5683H1.39923ZM1.97127 11.1871C1.60489 11.5535 1.39923 12.0504 1.39923 12.5683H3.39923C3.39923 12.5805 3.39434 12.5925 3.38548 12.6013L1.97127 11.1871ZM3.35248 10.615C2.83456 10.615 2.33764 10.8207 1.97127 11.1871L3.38549 12.6013C3.37663 12.6102 3.36478 12.615 3.35248 12.615V10.615ZM4.73354 11.1871C4.36728 10.8209 3.87055 10.615 3.35248 10.615V12.615C3.34001 12.615 3.32807 12.6101 3.31933 12.6013L4.73354 11.1871ZM5.30558 12.5683C5.30558 12.0504 5.09992 11.5535 4.73355 11.1871L3.31933 12.6013C3.31046 12.5925 3.30558 12.5805 3.30558 12.5683H5.30558ZM5.30558 19.4263V12.5683H3.30558V19.4263H5.30558ZM20.4262 18.4263H4.30558V20.4263H20.4262V18.4263ZM19.4262 12.5683V19.4263H21.4262V12.5683H19.4262ZM19.9984 11.1871C19.6322 11.5532 19.4262 12.05 19.4262 12.5683H21.4262C21.4262 12.5809 21.4212 12.5927 21.4126 12.6013L19.9984 11.1871ZM21.3794 10.615C20.8614 10.615 20.3646 10.8209 19.9984 11.1871L21.4126 12.6013C21.4038 12.6101 21.3919 12.615 21.3794 12.615V10.615ZM22.7606 11.1871C22.3943 10.8207 21.8973 10.615 21.3794 10.615V12.615C21.3671 12.615 21.3553 12.6102 21.3464 12.6013L22.7606 11.1871ZM23.3327 12.5683C23.3327 12.0504 23.127 11.5535 22.7606 11.1871L21.3464 12.6013C21.3376 12.5925 21.3327 12.5805 21.3327 12.5683H23.3327ZM10.4127 5.85503V16.7738H12.4127V5.85503L10.4127 5.85503ZM9.54223 9.14081L12.1199 6.56199L10.7054 5.14808L8.1277 7.72691L9.54223 9.14081ZM8.90838 9.56444C9.14558 9.46619 9.36085 9.3222 9.54207 9.14097L8.12786 7.72675C8.13203 7.72259 8.13714 7.71911 8.14301 7.71668L8.90838 9.56444ZM8.16073 9.71311C8.41701 9.71311 8.67116 9.6627 8.90838 9.56444L8.14301 7.71668C8.14889 7.71425 8.15485 7.71311 8.16073 7.71311V9.71311ZM7.41322 9.56444C7.6503 9.66265 7.9043 9.71311 8.16073 9.71311V7.71311C8.16676 7.71311 8.17285 7.7143 8.17859 7.71668L7.41322 9.56444ZM6.77953 9.14097C6.96075 9.3222 7.17601 9.46619 7.41322 9.56444L8.17859 7.71668C8.18446 7.71911 8.18957 7.72259 8.19374 7.72676L6.77953 9.14097ZM6.35616 8.50727C6.45423 8.74404 6.59797 8.95941 6.77953 9.14097L8.19374 7.72675C8.19824 7.73125 8.20167 7.73647 8.20392 7.74191L6.35616 8.50727ZM6.20735 7.75973C6.20735 8.01686 6.25822 8.27084 6.35616 8.50728L8.20391 7.7419C8.20603 7.747 8.20735 7.753 8.20735 7.75973H6.20735ZM6.35616 7.01222C6.25824 7.24862 6.20735 7.50256 6.20735 7.75973H8.20735C8.20735 7.76649 8.20601 7.77253 8.20391 7.77759L6.35616 7.01222ZM6.77953 6.37849C6.59789 6.56012 6.45419 6.77555 6.35616 7.01222L8.20392 7.77758C8.20171 7.78292 8.19831 7.78813 8.19374 7.79271L6.77953 6.37849ZM10.9865 2.17277L6.77963 6.37839L8.19364 7.79281L12.4005 3.58719L10.9865 2.17277ZM11.6195 1.74954C11.3825 1.8478 11.1672 1.99182 10.986 2.17326L12.401 3.5867C12.3966 3.5911 12.3913 3.59464 12.3854 3.59709L11.6195 1.74954ZM12.367 1.60076C12.1106 1.60076 11.8566 1.65127 11.6195 1.74954L12.3854 3.59709C12.3795 3.59953 12.3732 3.60076 12.367 3.60076V1.60076ZM13.1145 1.74954C12.8774 1.65127 12.6235 1.60076 12.367 1.60076V3.60076C12.3608 3.60076 12.3545 3.59953 12.3486 3.59709L13.1145 1.74954ZM13.748 2.17326C13.5668 1.99182 13.3515 1.8478 13.1145 1.74954L12.3486 3.59709C12.3427 3.59464 12.3375 3.5911 12.3331 3.5867L13.748 2.17326ZM17.9532 6.37849L13.7477 2.17287L12.3334 3.58708L16.539 7.7927L17.9532 6.37849ZM18.3768 7.01222C18.2785 6.77496 18.1344 6.55968 17.9532 6.37849L16.539 7.7927C16.5349 7.78857 16.5314 7.7835 16.529 7.77758L18.3768 7.01222ZM18.5254 7.75973C18.5254 7.5033 18.475 7.2493 18.3767 7.01222L16.529 7.77759C16.5266 7.77184 16.5254 7.76576 16.5254 7.75973H18.5254ZM18.3767 8.50727C18.475 8.27016 18.5254 8.01612 18.5254 7.75973H16.5254C16.5254 7.75374 16.5266 7.74768 16.529 7.74191L18.3767 8.50727ZM17.9532 9.14097C18.1344 8.95985 18.2784 8.74463 18.3768 8.50727L16.529 7.74191C16.5315 7.73589 16.535 7.73081 16.539 7.72676L17.9532 9.14097ZM17.3195 9.56444C17.5568 9.46619 17.772 9.3222 17.9532 9.14097L16.539 7.72675C16.5432 7.72259 16.5483 7.71911 16.5542 7.71668L17.3195 9.56444ZM16.572 9.71311C16.8285 9.71311 17.0825 9.66264 17.3195 9.56444L16.5542 7.71668C16.5599 7.7143 16.566 7.71311 16.572 7.71311V9.71311ZM15.8245 9.56444C16.0616 9.66264 16.3156 9.71311 16.572 9.71311V7.71311C16.5781 7.71311 16.5842 7.7143 16.5899 7.71668L15.8245 9.56444ZM15.1908 9.14097C15.3721 9.3222 15.5873 9.46619 15.8245 9.56444L16.5899 7.71668C16.5958 7.71911 16.6009 7.72259 16.605 7.72675L15.1908 9.14097ZM12.6119 6.56216L15.1908 9.14098L16.605 7.72674L14.0261 5.14791L12.6119 6.56216ZM14.319 16.7738V5.85503H12.319V16.7738H14.319ZM13.747 18.1549C14.1133 17.7885 14.319 17.2917 14.319 16.7738H12.319C12.319 16.7615 12.3239 16.7496 12.3328 16.7407L13.747 18.1549ZM12.3659 18.727C12.884 18.727 13.3807 18.5212 13.747 18.1549L12.3328 16.7407C12.3415 16.732 12.3534 16.727 12.3659 16.727L12.3659 18.727ZM10.9847 18.1549C11.3511 18.5213 11.848 18.727 12.3659 18.727L12.3659 16.727C12.3782 16.727 12.3901 16.7319 12.3989 16.7407L10.9847 18.1549ZM10.4127 16.7738C10.4127 17.2917 10.6183 17.7885 10.9847 18.1549L12.3989 16.7407C12.4078 16.7496 12.4127 16.7615 12.4127 16.7738H10.4127Z" fill="black" fill-opacity="0.2" mask="url(#path-1-inside-1_652_5370)"/>
<path d="M22.3327 20.3795L23.3327 20.3807V20.3795H22.3327ZM22.0531 21.0532L21.346 20.3461L21.346 20.3461L22.0531 21.0532ZM21.3794 21.3327V22.3327H21.3806L21.3794 21.3327ZM3.35248 21.3327L3.35129 22.3327H3.35248V21.3327ZM2.39923 20.3795H1.39923V20.3807L2.39923 20.3795ZM2.67838 11.8942L3.38548 12.6013L3.38549 12.6013L2.67838 11.8942ZM4.02644 11.8942L4.73355 11.1871L4.73354 11.1871L4.02644 11.8942ZM4.30558 19.4263H3.30558V20.4263H4.30558V19.4263ZM20.4262 19.4263V20.4263H21.4262V19.4263H20.4262ZM20.7055 11.8942L19.9984 11.1871H19.9984L20.7055 11.8942ZM22.0535 11.8942L21.3464 12.6013H21.3464L22.0535 11.8942ZM11.4127 5.85503L12.4127 5.85503V3.44007L10.7054 5.14808L11.4127 5.85503ZM8.83497 8.43386L9.54207 9.14097L9.54223 9.14081L8.83497 8.43386ZM8.52569 8.64056L8.90838 9.56444L8.90838 9.56444L8.52569 8.64056ZM7.79591 8.64056L8.17859 7.71668L8.17859 7.71668L7.79591 8.64056ZM7.48663 8.43386L8.19374 7.72676L8.19374 7.72675L7.48663 8.43386ZM7.28004 8.12459L8.20392 7.74191L8.20391 7.7419L7.28004 8.12459ZM7.28004 7.3949L8.20391 7.77759L8.20392 7.77758L7.28004 7.3949ZM7.48663 7.0856L6.77963 6.37839L6.77953 6.37849L7.48663 7.0856ZM11.6935 2.87998L12.4005 3.58719L12.401 3.5867L11.6935 2.87998ZM12.0025 2.67331L12.3854 3.59709L12.3854 3.59709L12.0025 2.67331ZM12.7316 2.67331L12.3486 3.59709L12.3486 3.59709L12.7316 2.67331ZM13.0406 2.87998L12.3331 3.5867L12.3334 3.58708L13.0406 2.87998ZM17.2461 7.0856L16.539 7.7927L16.539 7.7927L17.2461 7.0856ZM17.4529 7.3949L16.529 7.77758L16.529 7.77759L17.4529 7.3949ZM17.4529 8.12459L16.529 7.74191L16.529 7.74191L17.4529 8.12459ZM17.2461 8.43386L17.9532 9.14097L17.9532 9.14097L17.2461 8.43386ZM16.9369 8.64056L17.3195 9.56444L17.3195 9.56444L16.9369 8.64056ZM16.2072 8.64056L15.8245 9.56444L15.8245 9.56444L16.2072 8.64056ZM15.8979 8.43386L16.605 7.72675L16.605 7.72674L15.8979 8.43386ZM13.319 5.85503L14.0261 5.14791L12.319 3.44089V5.85503H13.319ZM23.3327 20.3795V12.5683H21.3327V20.3795H23.3327ZM22.7602 21.7603C23.1261 21.3944 23.3321 20.8983 23.3327 20.3807L21.3327 20.3783C21.3327 20.3661 21.3375 20.3545 21.346 20.3461L22.7602 21.7603ZM21.3806 22.3327C21.8981 22.3321 22.3942 22.1263 22.7602 21.7603L21.346 20.3461C21.3546 20.3375 21.3662 20.3327 21.3782 20.3327L21.3806 22.3327ZM3.35248 22.3327H21.3794V20.3327H3.35248V22.3327ZM1.97168 21.7603C2.33767 22.1263 2.83384 22.3321 3.35129 22.3327L3.35366 20.3327C3.36569 20.3327 3.3773 20.3375 3.3859 20.3461L1.97168 21.7603ZM1.39923 20.3807C1.39985 20.8983 1.60583 21.3944 1.97168 21.7603L3.3859 20.3461C3.39437 20.3545 3.39921 20.3661 3.39923 20.3783L1.39923 20.3807ZM1.39923 12.5683V20.3795H3.39923V12.5683H1.39923ZM1.97127 11.1871C1.60489 11.5535 1.39923 12.0504 1.39923 12.5683H3.39923C3.39923 12.5805 3.39434 12.5925 3.38548 12.6013L1.97127 11.1871ZM3.35248 10.615C2.83456 10.615 2.33764 10.8207 1.97127 11.1871L3.38549 12.6013C3.37663 12.6102 3.36478 12.615 3.35248 12.615V10.615ZM4.73354 11.1871C4.36728 10.8209 3.87055 10.615 3.35248 10.615V12.615C3.34001 12.615 3.32807 12.6101 3.31933 12.6013L4.73354 11.1871ZM5.30558 12.5683C5.30558 12.0504 5.09992 11.5535 4.73355 11.1871L3.31933 12.6013C3.31046 12.5925 3.30558 12.5805 3.30558 12.5683H5.30558ZM5.30558 19.4263V12.5683H3.30558V19.4263H5.30558ZM20.4262 18.4263H4.30558V20.4263H20.4262V18.4263ZM19.4262 12.5683V19.4263H21.4262V12.5683H19.4262ZM19.9984 11.1871C19.6322 11.5532 19.4262 12.05 19.4262 12.5683H21.4262C21.4262 12.5809 21.4212 12.5927 21.4126 12.6013L19.9984 11.1871ZM21.3794 10.615C20.8614 10.615 20.3646 10.8209 19.9984 11.1871L21.4126 12.6013C21.4038 12.6101 21.3919 12.615 21.3794 12.615V10.615ZM22.7606 11.1871C22.3943 10.8207 21.8973 10.615 21.3794 10.615V12.615C21.3671 12.615 21.3553 12.6102 21.3464 12.6013L22.7606 11.1871ZM23.3327 12.5683C23.3327 12.0504 23.127 11.5535 22.7606 11.1871L21.3464 12.6013C21.3376 12.5925 21.3327 12.5805 21.3327 12.5683H23.3327ZM10.4127 5.85503V16.7738H12.4127V5.85503L10.4127 5.85503ZM9.54223 9.14081L12.1199 6.56199L10.7054 5.14808L8.1277 7.72691L9.54223 9.14081ZM8.90838 9.56444C9.14558 9.46619 9.36085 9.3222 9.54207 9.14097L8.12786 7.72675C8.13203 7.72259 8.13714 7.71911 8.14301 7.71668L8.90838 9.56444ZM8.16073 9.71311C8.41701 9.71311 8.67116 9.6627 8.90838 9.56444L8.14301 7.71668C8.14889 7.71425 8.15485 7.71311 8.16073 7.71311V9.71311ZM7.41322 9.56444C7.6503 9.66265 7.9043 9.71311 8.16073 9.71311V7.71311C8.16676 7.71311 8.17285 7.7143 8.17859 7.71668L7.41322 9.56444ZM6.77953 9.14097C6.96075 9.3222 7.17601 9.46619 7.41322 9.56444L8.17859 7.71668C8.18446 7.71911 8.18957 7.72259 8.19374 7.72676L6.77953 9.14097ZM6.35616 8.50727C6.45423 8.74404 6.59797 8.95941 6.77953 9.14097L8.19374 7.72675C8.19824 7.73125 8.20167 7.73647 8.20392 7.74191L6.35616 8.50727ZM6.20735 7.75973C6.20735 8.01686 6.25822 8.27084 6.35616 8.50728L8.20391 7.7419C8.20603 7.747 8.20735 7.753 8.20735 7.75973H6.20735ZM6.35616 7.01222C6.25824 7.24862 6.20735 7.50256 6.20735 7.75973H8.20735C8.20735 7.76649 8.20601 7.77253 8.20391 7.77759L6.35616 7.01222ZM6.77953 6.37849C6.59789 6.56012 6.45419 6.77555 6.35616 7.01222L8.20392 7.77758C8.20171 7.78292 8.19831 7.78813 8.19374 7.79271L6.77953 6.37849ZM10.9865 2.17277L6.77963 6.37839L8.19364 7.79281L12.4005 3.58719L10.9865 2.17277ZM11.6195 1.74954C11.3825 1.8478 11.1672 1.99182 10.986 2.17326L12.401 3.5867C12.3966 3.5911 12.3913 3.59464 12.3854 3.59709L11.6195 1.74954ZM12.367 1.60076C12.1106 1.60076 11.8566 1.65127 11.6195 1.74954L12.3854 3.59709C12.3795 3.59953 12.3732 3.60076 12.367 3.60076V1.60076ZM13.1145 1.74954C12.8774 1.65127 12.6235 1.60076 12.367 1.60076V3.60076C12.3608 3.60076 12.3545 3.59953 12.3486 3.59709L13.1145 1.74954ZM13.748 2.17326C13.5668 1.99182 13.3515 1.8478 13.1145 1.74954L12.3486 3.59709C12.3427 3.59464 12.3375 3.5911 12.3331 3.5867L13.748 2.17326ZM17.9532 6.37849L13.7477 2.17287L12.3334 3.58708L16.539 7.7927L17.9532 6.37849ZM18.3768 7.01222C18.2785 6.77496 18.1344 6.55968 17.9532 6.37849L16.539 7.7927C16.5349 7.78857 16.5314 7.7835 16.529 7.77758L18.3768 7.01222ZM18.5254 7.75973C18.5254 7.5033 18.475 7.2493 18.3767 7.01222L16.529 7.77759C16.5266 7.77184 16.5254 7.76576 16.5254 7.75973H18.5254ZM18.3767 8.50727C18.475 8.27016 18.5254 8.01612 18.5254 7.75973H16.5254C16.5254 7.75374 16.5266 7.74768 16.529 7.74191L18.3767 8.50727ZM17.9532 9.14097C18.1344 8.95985 18.2784 8.74463 18.3768 8.50727L16.529 7.74191C16.5315 7.73589 16.535 7.73081 16.539 7.72676L17.9532 9.14097ZM17.3195 9.56444C17.5568 9.46619 17.772 9.3222 17.9532 9.14097L16.539 7.72675C16.5432 7.72259 16.5483 7.71911 16.5542 7.71668L17.3195 9.56444ZM16.572 9.71311C16.8285 9.71311 17.0825 9.66264 17.3195 9.56444L16.5542 7.71668C16.5599 7.7143 16.566 7.71311 16.572 7.71311V9.71311ZM15.8245 9.56444C16.0616 9.66264 16.3156 9.71311 16.572 9.71311V7.71311C16.5781 7.71311 16.5842 7.7143 16.5899 7.71668L15.8245 9.56444ZM15.1908 9.14097C15.3721 9.3222 15.5873 9.46619 15.8245 9.56444L16.5899 7.71668C16.5958 7.71911 16.6009 7.72259 16.605 7.72675L15.1908 9.14097ZM12.6119 6.56216L15.1908 9.14098L16.605 7.72674L14.0261 5.14791L12.6119 6.56216ZM14.319 16.7738V5.85503H12.319V16.7738H14.319ZM13.747 18.1549C14.1133 17.7885 14.319 17.2917 14.319 16.7738H12.319C12.319 16.7615 12.3239 16.7496 12.3328 16.7407L13.747 18.1549ZM12.3659 18.727C12.884 18.727 13.3807 18.5212 13.747 18.1549L12.3328 16.7407C12.3415 16.732 12.3534 16.727 12.3659 16.727L12.3659 18.727ZM10.9847 18.1549C11.3511 18.5213 11.848 18.727 12.3659 18.727L12.3659 16.727C12.3782 16.727 12.3901 16.7319 12.3989 16.7407L10.9847 18.1549ZM10.4127 16.7738C10.4127 17.2917 10.6183 17.7885 10.9847 18.1549L12.3989 16.7407C12.4078 16.7496 12.4127 16.7615 12.4127 16.7738H10.4127Z" fill="black" fill-opacity="0.2" mask="url(#path-1-inside-1_652_5370)"/>
<path d="M22.3327 20.3795L23.3327 20.3807V20.3795H22.3327ZM22.0531 21.0532L21.346 20.3461L21.346 20.3461L22.0531 21.0532ZM21.3794 21.3327V22.3327H21.3806L21.3794 21.3327ZM3.35248 21.3327L3.35129 22.3327H3.35248V21.3327ZM2.39923 20.3795H1.39923V20.3807L2.39923 20.3795ZM2.67838 11.8942L3.38548 12.6013L3.38549 12.6013L2.67838 11.8942ZM4.02644 11.8942L4.73355 11.1871L4.73354 11.1871L4.02644 11.8942ZM4.30558 19.4263H3.30558V20.4263H4.30558V19.4263ZM20.4262 19.4263V20.4263H21.4262V19.4263H20.4262ZM20.7055 11.8942L19.9984 11.1871H19.9984L20.7055 11.8942ZM22.0535 11.8942L21.3464 12.6013H21.3464L22.0535 11.8942ZM11.4127 5.85503L12.4127 5.85503V3.44007L10.7054 5.14808L11.4127 5.85503ZM8.83497 8.43386L9.54207 9.14097L9.54223 9.14081L8.83497 8.43386ZM8.52569 8.64056L8.90838 9.56444L8.90838 9.56444L8.52569 8.64056ZM7.79591 8.64056L8.17859 7.71668L8.17859 7.71668L7.79591 8.64056ZM7.48663 8.43386L8.19374 7.72676L8.19374 7.72675L7.48663 8.43386ZM7.28004 8.12459L8.20392 7.74191L8.20391 7.7419L7.28004 8.12459ZM7.28004 7.3949L8.20391 7.77759L8.20392 7.77758L7.28004 7.3949ZM7.48663 7.0856L6.77963 6.37839L6.77953 6.37849L7.48663 7.0856ZM11.6935 2.87998L12.4005 3.58719L12.401 3.5867L11.6935 2.87998ZM12.0025 2.67331L12.3854 3.59709L12.3854 3.59709L12.0025 2.67331ZM12.7316 2.67331L12.3486 3.59709L12.3486 3.59709L12.7316 2.67331ZM13.0406 2.87998L12.3331 3.5867L12.3334 3.58708L13.0406 2.87998ZM17.2461 7.0856L16.539 7.7927L16.539 7.7927L17.2461 7.0856ZM17.4529 7.3949L16.529 7.77758L16.529 7.77759L17.4529 7.3949ZM17.4529 8.12459L16.529 7.74191L16.529 7.74191L17.4529 8.12459ZM17.2461 8.43386L17.9532 9.14097L17.9532 9.14097L17.2461 8.43386ZM16.9369 8.64056L17.3195 9.56444L17.3195 9.56444L16.9369 8.64056ZM16.2072 8.64056L15.8245 9.56444L15.8245 9.56444L16.2072 8.64056ZM15.8979 8.43386L16.605 7.72675L16.605 7.72674L15.8979 8.43386ZM13.319 5.85503L14.0261 5.14791L12.319 3.44089V5.85503H13.319ZM23.3327 20.3795V12.5683H21.3327V20.3795H23.3327ZM22.7602 21.7603C23.1261 21.3944 23.3321 20.8983 23.3327 20.3807L21.3327 20.3783C21.3327 20.3661 21.3375 20.3545 21.346 20.3461L22.7602 21.7603ZM21.3806 22.3327C21.8981 22.3321 22.3942 22.1263 22.7602 21.7603L21.346 20.3461C21.3546 20.3375 21.3662 20.3327 21.3782 20.3327L21.3806 22.3327ZM3.35248 22.3327H21.3794V20.3327H3.35248V22.3327ZM1.97168 21.7603C2.33767 22.1263 2.83384 22.3321 3.35129 22.3327L3.35366 20.3327C3.36569 20.3327 3.3773 20.3375 3.3859 20.3461L1.97168 21.7603ZM1.39923 20.3807C1.39985 20.8983 1.60583 21.3944 1.97168 21.7603L3.3859 20.3461C3.39437 20.3545 3.39921 20.3661 3.39923 20.3783L1.39923 20.3807ZM1.39923 12.5683V20.3795H3.39923V12.5683H1.39923ZM1.97127 11.1871C1.60489 11.5535 1.39923 12.0504 1.39923 12.5683H3.39923C3.39923 12.5805 3.39434 12.5925 3.38548 12.6013L1.97127 11.1871ZM3.35248 10.615C2.83456 10.615 2.33764 10.8207 1.97127 11.1871L3.38549 12.6013C3.37663 12.6102 3.36478 12.615 3.35248 12.615V10.615ZM4.73354 11.1871C4.36728 10.8209 3.87055 10.615 3.35248 10.615V12.615C3.34001 12.615 3.32807 12.6101 3.31933 12.6013L4.73354 11.1871ZM5.30558 12.5683C5.30558 12.0504 5.09992 11.5535 4.73355 11.1871L3.31933 12.6013C3.31046 12.5925 3.30558 12.5805 3.30558 12.5683H5.30558ZM5.30558 19.4263V12.5683H3.30558V19.4263H5.30558ZM20.4262 18.4263H4.30558V20.4263H20.4262V18.4263ZM19.4262 12.5683V19.4263H21.4262V12.5683H19.4262ZM19.9984 11.1871C19.6322 11.5532 19.4262 12.05 19.4262 12.5683H21.4262C21.4262 12.5809 21.4212 12.5927 21.4126 12.6013L19.9984 11.1871ZM21.3794 10.615C20.8614 10.615 20.3646 10.8209 19.9984 11.1871L21.4126 12.6013C21.4038 12.6101 21.3919 12.615 21.3794 12.615V10.615ZM22.7606 11.1871C22.3943 10.8207 21.8973 10.615 21.3794 10.615V12.615C21.3671 12.615 21.3553 12.6102 21.3464 12.6013L22.7606 11.1871ZM23.3327 12.5683C23.3327 12.0504 23.127 11.5535 22.7606 11.1871L21.3464 12.6013C21.3376 12.5925 21.3327 12.5805 21.3327 12.5683H23.3327ZM10.4127 5.85503V16.7738H12.4127V5.85503L10.4127 5.85503ZM9.54223 9.14081L12.1199 6.56199L10.7054 5.14808L8.1277 7.72691L9.54223 9.14081ZM8.90838 9.56444C9.14558 9.46619 9.36085 9.3222 9.54207 9.14097L8.12786 7.72675C8.13203 7.72259 8.13714 7.71911 8.14301 7.71668L8.90838 9.56444ZM8.16073 9.71311C8.41701 9.71311 8.67116 9.6627 8.90838 9.56444L8.14301 7.71668C8.14889 7.71425 8.15485 7.71311 8.16073 7.71311V9.71311ZM7.41322 9.56444C7.6503 9.66265 7.9043 9.71311 8.16073 9.71311V7.71311C8.16676 7.71311 8.17285 7.7143 8.17859 7.71668L7.41322 9.56444ZM6.77953 9.14097C6.96075 9.3222 7.17601 9.46619 7.41322 9.56444L8.17859 7.71668C8.18446 7.71911 8.18957 7.72259 8.19374 7.72676L6.77953 9.14097ZM6.35616 8.50727C6.45423 8.74404 6.59797 8.95941 6.77953 9.14097L8.19374 7.72675C8.19824 7.73125 8.20167 7.73647 8.20392 7.74191L6.35616 8.50727ZM6.20735 7.75973C6.20735 8.01686 6.25822 8.27084 6.35616 8.50728L8.20391 7.7419C8.20603 7.747 8.20735 7.753 8.20735 7.75973H6.20735ZM6.35616 7.01222C6.25824 7.24862 6.20735 7.50256 6.20735 7.75973H8.20735C8.20735 7.76649 8.20601 7.77253 8.20391 7.77759L6.35616 7.01222ZM6.77953 6.37849C6.59789 6.56012 6.45419 6.77555 6.35616 7.01222L8.20392 7.77758C8.20171 7.78292 8.19831 7.78813 8.19374 7.79271L6.77953 6.37849ZM10.9865 2.17277L6.77963 6.37839L8.19364 7.79281L12.4005 3.58719L10.9865 2.17277ZM11.6195 1.74954C11.3825 1.8478 11.1672 1.99182 10.986 2.17326L12.401 3.5867C12.3966 3.5911 12.3913 3.59464 12.3854 3.59709L11.6195 1.74954ZM12.367 1.60076C12.1106 1.60076 11.8566 1.65127 11.6195 1.74954L12.3854 3.59709C12.3795 3.59953 12.3732 3.60076 12.367 3.60076V1.60076ZM13.1145 1.74954C12.8774 1.65127 12.6235 1.60076 12.367 1.60076V3.60076C12.3608 3.60076 12.3545 3.59953 12.3486 3.59709L13.1145 1.74954ZM13.748 2.17326C13.5668 1.99182 13.3515 1.8478 13.1145 1.74954L12.3486 3.59709C12.3427 3.59464 12.3375 3.5911 12.3331 3.5867L13.748 2.17326ZM17.9532 6.37849L13.7477 2.17287L12.3334 3.58708L16.539 7.7927L17.9532 6.37849ZM18.3768 7.01222C18.2785 6.77496 18.1344 6.55968 17.9532 6.37849L16.539 7.7927C16.5349 7.78857 16.5314 7.7835 16.529 7.77758L18.3768 7.01222ZM18.5254 7.75973C18.5254 7.5033 18.475 7.2493 18.3767 7.01222L16.529 7.77759C16.5266 7.77184 16.5254 7.76576 16.5254 7.75973H18.5254ZM18.3767 8.50727C18.475 8.27016 18.5254 8.01612 18.5254 7.75973H16.5254C16.5254 7.75374 16.5266 7.74768 16.529 7.74191L18.3767 8.50727ZM17.9532 9.14097C18.1344 8.95985 18.2784 8.74463 18.3768 8.50727L16.529 7.74191C16.5315 7.73589 16.535 7.73081 16.539 7.72676L17.9532 9.14097ZM17.3195 9.56444C17.5568 9.46619 17.772 9.3222 17.9532 9.14097L16.539 7.72675C16.5432 7.72259 16.5483 7.71911 16.5542 7.71668L17.3195 9.56444ZM16.572 9.71311C16.8285 9.71311 17.0825 9.66264 17.3195 9.56444L16.5542 7.71668C16.5599 7.7143 16.566 7.71311 16.572 7.71311V9.71311ZM15.8245 9.56444C16.0616 9.66264 16.3156 9.71311 16.572 9.71311V7.71311C16.5781 7.71311 16.5842 7.7143 16.5899 7.71668L15.8245 9.56444ZM15.1908 9.14097C15.3721 9.3222 15.5873 9.46619 15.8245 9.56444L16.5899 7.71668C16.5958 7.71911 16.6009 7.72259 16.605 7.72675L15.1908 9.14097ZM12.6119 6.56216L15.1908 9.14098L16.605 7.72674L14.0261 5.14791L12.6119 6.56216ZM14.319 16.7738V5.85503H12.319V16.7738H14.319ZM13.747 18.1549C14.1133 17.7885 14.319 17.2917 14.319 16.7738H12.319C12.319 16.7615 12.3239 16.7496 12.3328 16.7407L13.747 18.1549ZM12.3659 18.727C12.884 18.727 13.3807 18.5212 13.747 18.1549L12.3328 16.7407C12.3415 16.732 12.3534 16.727 12.3659 16.727L12.3659 18.727ZM10.9847 18.1549C11.3511 18.5213 11.848 18.727 12.3659 18.727L12.3659 16.727C12.3782 16.727 12.3901 16.7319 12.3989 16.7407L10.9847 18.1549ZM10.4127 16.7738C10.4127 17.2917 10.6183 17.7885 10.9847 18.1549L12.3989 16.7407C12.4078 16.7496 12.4127 16.7615 12.4127 16.7738H10.4127Z" fill="black" fill-opacity="0.2" mask="url(#path-1-inside-1_652_5370)"/>
<path d="M22.3327 20.3795L23.3327 20.3807V20.3795H22.3327ZM22.0531 21.0532L21.346 20.3461L21.346 20.3461L22.0531 21.0532ZM21.3794 21.3327V22.3327H21.3806L21.3794 21.3327ZM3.35248 21.3327L3.35129 22.3327H3.35248V21.3327ZM2.39923 20.3795H1.39923V20.3807L2.39923 20.3795ZM2.67838 11.8942L3.38548 12.6013L3.38549 12.6013L2.67838 11.8942ZM4.02644 11.8942L4.73355 11.1871L4.73354 11.1871L4.02644 11.8942ZM4.30558 19.4263H3.30558V20.4263H4.30558V19.4263ZM20.4262 19.4263V20.4263H21.4262V19.4263H20.4262ZM20.7055 11.8942L19.9984 11.1871H19.9984L20.7055 11.8942ZM22.0535 11.8942L21.3464 12.6013H21.3464L22.0535 11.8942ZM11.4127 5.85503L12.4127 5.85503V3.44007L10.7054 5.14808L11.4127 5.85503ZM8.83497 8.43386L9.54207 9.14097L9.54223 9.14081L8.83497 8.43386ZM8.52569 8.64056L8.90838 9.56444L8.90838 9.56444L8.52569 8.64056ZM7.79591 8.64056L8.17859 7.71668L8.17859 7.71668L7.79591 8.64056ZM7.48663 8.43386L8.19374 7.72676L8.19374 7.72675L7.48663 8.43386ZM7.28004 8.12459L8.20392 7.74191L8.20391 7.7419L7.28004 8.12459ZM7.28004 7.3949L8.20391 7.77759L8.20392 7.77758L7.28004 7.3949ZM7.48663 7.0856L6.77963 6.37839L6.77953 6.37849L7.48663 7.0856ZM11.6935 2.87998L12.4005 3.58719L12.401 3.5867L11.6935 2.87998ZM12.0025 2.67331L12.3854 3.59709L12.3854 3.59709L12.0025 2.67331ZM12.7316 2.67331L12.3486 3.59709L12.3486 3.59709L12.7316 2.67331ZM13.0406 2.87998L12.3331 3.5867L12.3334 3.58708L13.0406 2.87998ZM17.2461 7.0856L16.539 7.7927L16.539 7.7927L17.2461 7.0856ZM17.4529 7.3949L16.529 7.77758L16.529 7.77759L17.4529 7.3949ZM17.4529 8.12459L16.529 7.74191L16.529 7.74191L17.4529 8.12459ZM17.2461 8.43386L17.9532 9.14097L17.9532 9.14097L17.2461 8.43386ZM16.9369 8.64056L17.3195 9.56444L17.3195 9.56444L16.9369 8.64056ZM16.2072 8.64056L15.8245 9.56444L15.8245 9.56444L16.2072 8.64056ZM15.8979 8.43386L16.605 7.72675L16.605 7.72674L15.8979 8.43386ZM13.319 5.85503L14.0261 5.14791L12.319 3.44089V5.85503H13.319ZM23.3327 20.3795V12.5683H21.3327V20.3795H23.3327ZM22.7602 21.7603C23.1261 21.3944 23.3321 20.8983 23.3327 20.3807L21.3327 20.3783C21.3327 20.3661 21.3375 20.3545 21.346 20.3461L22.7602 21.7603ZM21.3806 22.3327C21.8981 22.3321 22.3942 22.1263 22.7602 21.7603L21.346 20.3461C21.3546 20.3375 21.3662 20.3327 21.3782 20.3327L21.3806 22.3327ZM3.35248 22.3327H21.3794V20.3327H3.35248V22.3327ZM1.97168 21.7603C2.33767 22.1263 2.83384 22.3321 3.35129 22.3327L3.35366 20.3327C3.36569 20.3327 3.3773 20.3375 3.3859 20.3461L1.97168 21.7603ZM1.39923 20.3807C1.39985 20.8983 1.60583 21.3944 1.97168 21.7603L3.3859 20.3461C3.39437 20.3545 3.39921 20.3661 3.39923 20.3783L1.39923 20.3807ZM1.39923 12.5683V20.3795H3.39923V12.5683H1.39923ZM1.97127 11.1871C1.60489 11.5535 1.39923 12.0504 1.39923 12.5683H3.39923C3.39923 12.5805 3.39434 12.5925 3.38548 12.6013L1.97127 11.1871ZM3.35248 10.615C2.83456 10.615 2.33764 10.8207 1.97127 11.1871L3.38549 12.6013C3.37663 12.6102 3.36478 12.615 3.35248 12.615V10.615ZM4.73354 11.1871C4.36728 10.8209 3.87055 10.615 3.35248 10.615V12.615C3.34001 12.615 3.32807 12.6101 3.31933 12.6013L4.73354 11.1871ZM5.30558 12.5683C5.30558 12.0504 5.09992 11.5535 4.73355 11.1871L3.31933 12.6013C3.31046 12.5925 3.30558 12.5805 3.30558 12.5683H5.30558ZM5.30558 19.4263V12.5683H3.30558V19.4263H5.30558ZM20.4262 18.4263H4.30558V20.4263H20.4262V18.4263ZM19.4262 12.5683V19.4263H21.4262V12.5683H19.4262ZM19.9984 11.1871C19.6322 11.5532 19.4262 12.05 19.4262 12.5683H21.4262C21.4262 12.5809 21.4212 12.5927 21.4126 12.6013L19.9984 11.1871ZM21.3794 10.615C20.8614 10.615 20.3646 10.8209 19.9984 11.1871L21.4126 12.6013C21.4038 12.6101 21.3919 12.615 21.3794 12.615V10.615ZM22.7606 11.1871C22.3943 10.8207 21.8973 10.615 21.3794 10.615V12.615C21.3671 12.615 21.3553 12.6102 21.3464 12.6013L22.7606 11.1871ZM23.3327 12.5683C23.3327 12.0504 23.127 11.5535 22.7606 11.1871L21.3464 12.6013C21.3376 12.5925 21.3327 12.5805 21.3327 12.5683H23.3327ZM10.4127 5.85503V16.7738H12.4127V5.85503L10.4127 5.85503ZM9.54223 9.14081L12.1199 6.56199L10.7054 5.14808L8.1277 7.72691L9.54223 9.14081ZM8.90838 9.56444C9.14558 9.46619 9.36085 9.3222 9.54207 9.14097L8.12786 7.72675C8.13203 7.72259 8.13714 7.71911 8.14301 7.71668L8.90838 9.56444ZM8.16073 9.71311C8.41701 9.71311 8.67116 9.6627 8.90838 9.56444L8.14301 7.71668C8.14889 7.71425 8.15485 7.71311 8.16073 7.71311V9.71311ZM7.41322 9.56444C7.6503 9.66265 7.9043 9.71311 8.16073 9.71311V7.71311C8.16676 7.71311 8.17285 7.7143 8.17859 7.71668L7.41322 9.56444ZM6.77953 9.14097C6.96075 9.3222 7.17601 9.46619 7.41322 9.56444L8.17859 7.71668C8.18446 7.71911 8.18957 7.72259 8.19374 7.72676L6.77953 9.14097ZM6.35616 8.50727C6.45423 8.74404 6.59797 8.95941 6.77953 9.14097L8.19374 7.72675C8.19824 7.73125 8.20167 7.73647 8.20392 7.74191L6.35616 8.50727ZM6.20735 7.75973C6.20735 8.01686 6.25822 8.27084 6.35616 8.50728L8.20391 7.7419C8.20603 7.747 8.20735 7.753 8.20735 7.75973H6.20735ZM6.35616 7.01222C6.25824 7.24862 6.20735 7.50256 6.20735 7.75973H8.20735C8.20735 7.76649 8.20601 7.77253 8.20391 7.77759L6.35616 7.01222ZM6.77953 6.37849C6.59789 6.56012 6.45419 6.77555 6.35616 7.01222L8.20392 7.77758C8.20171 7.78292 8.19831 7.78813 8.19374 7.79271L6.77953 6.37849ZM10.9865 2.17277L6.77963 6.37839L8.19364 7.79281L12.4005 3.58719L10.9865 2.17277ZM11.6195 1.74954C11.3825 1.8478 11.1672 1.99182 10.986 2.17326L12.401 3.5867C12.3966 3.5911 12.3913 3.59464 12.3854 3.59709L11.6195 1.74954ZM12.367 1.60076C12.1106 1.60076 11.8566 1.65127 11.6195 1.74954L12.3854 3.59709C12.3795 3.59953 12.3732 3.60076 12.367 3.60076V1.60076ZM13.1145 1.74954C12.8774 1.65127 12.6235 1.60076 12.367 1.60076V3.60076C12.3608 3.60076 12.3545 3.59953 12.3486 3.59709L13.1145 1.74954ZM13.748 2.17326C13.5668 1.99182 13.3515 1.8478 13.1145 1.74954L12.3486 3.59709C12.3427 3.59464 12.3375 3.5911 12.3331 3.5867L13.748 2.17326ZM17.9532 6.37849L13.7477 2.17287L12.3334 3.58708L16.539 7.7927L17.9532 6.37849ZM18.3768 7.01222C18.2785 6.77496 18.1344 6.55968 17.9532 6.37849L16.539 7.7927C16.5349 7.78857 16.5314 7.7835 16.529 7.77758L18.3768 7.01222ZM18.5254 7.75973C18.5254 7.5033 18.475 7.2493 18.3767 7.01222L16.529 7.77759C16.5266 7.77184 16.5254 7.76576 16.5254 7.75973H18.5254ZM18.3767 8.50727C18.475 8.27016 18.5254 8.01612 18.5254 7.75973H16.5254C16.5254 7.75374 16.5266 7.74768 16.529 7.74191L18.3767 8.50727ZM17.9532 9.14097C18.1344 8.95985 18.2784 8.74463 18.3768 8.50727L16.529 7.74191C16.5315 7.73589 16.535 7.73081 16.539 7.72676L17.9532 9.14097ZM17.3195 9.56444C17.5568 9.46619 17.772 9.3222 17.9532 9.14097L16.539 7.72675C16.5432 7.72259 16.5483 7.71911 16.5542 7.71668L17.3195 9.56444ZM16.572 9.71311C16.8285 9.71311 17.0825 9.66264 17.3195 9.56444L16.5542 7.71668C16.5599 7.7143 16.566 7.71311 16.572 7.71311V9.71311ZM15.8245 9.56444C16.0616 9.66264 16.3156 9.71311 16.572 9.71311V7.71311C16.5781 7.71311 16.5842 7.7143 16.5899 7.71668L15.8245 9.56444ZM15.1908 9.14097C15.3721 9.3222 15.5873 9.46619 15.8245 9.56444L16.5899 7.71668C16.5958 7.71911 16.6009 7.72259 16.605 7.72675L15.1908 9.14097ZM12.6119 6.56216L15.1908 9.14098L16.605 7.72674L14.0261 5.14791L12.6119 6.56216ZM14.319 16.7738V5.85503H12.319V16.7738H14.319ZM13.747 18.1549C14.1133 17.7885 14.319 17.2917 14.319 16.7738H12.319C12.319 16.7615 12.3239 16.7496 12.3328 16.7407L13.747 18.1549ZM12.3659 18.727C12.884 18.727 13.3807 18.5212 13.747 18.1549L12.3328 16.7407C12.3415 16.732 12.3534 16.727 12.3659 16.727L12.3659 18.727ZM10.9847 18.1549C11.3511 18.5213 11.848 18.727 12.3659 18.727L12.3659 16.727C12.3782 16.727 12.3901 16.7319 12.3989 16.7407L10.9847 18.1549ZM10.4127 16.7738C10.4127 17.2917 10.6183 17.7885 10.9847 18.1549L12.3989 16.7407C12.4078 16.7496 12.4127 16.7615 12.4127 16.7738H10.4127Z" fill="black" fill-opacity="0.2" mask="url(#path-1-inside-1_652_5370)"/>
<path d="M22.3327 20.3795L23.3327 20.3807V20.3795H22.3327ZM22.0531 21.0532L21.346 20.3461L21.346 20.3461L22.0531 21.0532ZM21.3794 21.3327V22.3327H21.3806L21.3794 21.3327ZM3.35248 21.3327L3.35129 22.3327H3.35248V21.3327ZM2.39923 20.3795H1.39923V20.3807L2.39923 20.3795ZM2.67838 11.8942L3.38548 12.6013L3.38549 12.6013L2.67838 11.8942ZM4.02644 11.8942L4.73355 11.1871L4.73354 11.1871L4.02644 11.8942ZM4.30558 19.4263H3.30558V20.4263H4.30558V19.4263ZM20.4262 19.4263V20.4263H21.4262V19.4263H20.4262ZM20.7055 11.8942L19.9984 11.1871H19.9984L20.7055 11.8942ZM22.0535 11.8942L21.3464 12.6013H21.3464L22.0535 11.8942ZM11.4127 5.85503L12.4127 5.85503V3.44007L10.7054 5.14808L11.4127 5.85503ZM8.83497 8.43386L9.54207 9.14097L9.54223 9.14081L8.83497 8.43386ZM8.52569 8.64056L8.90838 9.56444L8.90838 9.56444L8.52569 8.64056ZM7.79591 8.64056L8.17859 7.71668L8.17859 7.71668L7.79591 8.64056ZM7.48663 8.43386L8.19374 7.72676L8.19374 7.72675L7.48663 8.43386ZM7.28004 8.12459L8.20392 7.74191L8.20391 7.7419L7.28004 8.12459ZM7.28004 7.3949L8.20391 7.77759L8.20392 7.77758L7.28004 7.3949ZM7.48663 7.0856L6.77963 6.37839L6.77953 6.37849L7.48663 7.0856ZM11.6935 2.87998L12.4005 3.58719L12.401 3.5867L11.6935 2.87998ZM12.0025 2.67331L12.3854 3.59709L12.3854 3.59709L12.0025 2.67331ZM12.7316 2.67331L12.3486 3.59709L12.3486 3.59709L12.7316 2.67331ZM13.0406 2.87998L12.3331 3.5867L12.3334 3.58708L13.0406 2.87998ZM17.2461 7.0856L16.539 7.7927L16.539 7.7927L17.2461 7.0856ZM17.4529 7.3949L16.529 7.77758L16.529 7.77759L17.4529 7.3949ZM17.4529 8.12459L16.529 7.74191L16.529 7.74191L17.4529 8.12459ZM17.2461 8.43386L17.9532 9.14097L17.9532 9.14097L17.2461 8.43386ZM16.9369 8.64056L17.3195 9.56444L17.3195 9.56444L16.9369 8.64056ZM16.2072 8.64056L15.8245 9.56444L15.8245 9.56444L16.2072 8.64056ZM15.8979 8.43386L16.605 7.72675L16.605 7.72674L15.8979 8.43386ZM13.319 5.85503L14.0261 5.14791L12.319 3.44089V5.85503H13.319ZM23.3327 20.3795V12.5683H21.3327V20.3795H23.3327ZM22.7602 21.7603C23.1261 21.3944 23.3321 20.8983 23.3327 20.3807L21.3327 20.3783C21.3327 20.3661 21.3375 20.3545 21.346 20.3461L22.7602 21.7603ZM21.3806 22.3327C21.8981 22.3321 22.3942 22.1263 22.7602 21.7603L21.346 20.3461C21.3546 20.3375 21.3662 20.3327 21.3782 20.3327L21.3806 22.3327ZM3.35248 22.3327H21.3794V20.3327H3.35248V22.3327ZM1.97168 21.7603C2.33767 22.1263 2.83384 22.3321 3.35129 22.3327L3.35366 20.3327C3.36569 20.3327 3.3773 20.3375 3.3859 20.3461L1.97168 21.7603ZM1.39923 20.3807C1.39985 20.8983 1.60583 21.3944 1.97168 21.7603L3.3859 20.3461C3.39437 20.3545 3.39921 20.3661 3.39923 20.3783L1.39923 20.3807ZM1.39923 12.5683V20.3795H3.39923V12.5683H1.39923ZM1.97127 11.1871C1.60489 11.5535 1.39923 12.0504 1.39923 12.5683H3.39923C3.39923 12.5805 3.39434 12.5925 3.38548 12.6013L1.97127 11.1871ZM3.35248 10.615C2.83456 10.615 2.33764 10.8207 1.97127 11.1871L3.38549 12.6013C3.37663 12.6102 3.36478 12.615 3.35248 12.615V10.615ZM4.73354 11.1871C4.36728 10.8209 3.87055 10.615 3.35248 10.615V12.615C3.34001 12.615 3.32807 12.6101 3.31933 12.6013L4.73354 11.1871ZM5.30558 12.5683C5.30558 12.0504 5.09992 11.5535 4.73355 11.1871L3.31933 12.6013C3.31046 12.5925 3.30558 12.5805 3.30558 12.5683H5.30558ZM5.30558 19.4263V12.5683H3.30558V19.4263H5.30558ZM20.4262 18.4263H4.30558V20.4263H20.4262V18.4263ZM19.4262 12.5683V19.4263H21.4262V12.5683H19.4262ZM19.9984 11.1871C19.6322 11.5532 19.4262 12.05 19.4262 12.5683H21.4262C21.4262 12.5809 21.4212 12.5927 21.4126 12.6013L19.9984 11.1871ZM21.3794 10.615C20.8614 10.615 20.3646 10.8209 19.9984 11.1871L21.4126 12.6013C21.4038 12.6101 21.3919 12.615 21.3794 12.615V10.615ZM22.7606 11.1871C22.3943 10.8207 21.8973 10.615 21.3794 10.615V12.615C21.3671 12.615 21.3553 12.6102 21.3464 12.6013L22.7606 11.1871ZM23.3327 12.5683C23.3327 12.0504 23.127 11.5535 22.7606 11.1871L21.3464 12.6013C21.3376 12.5925 21.3327 12.5805 21.3327 12.5683H23.3327ZM10.4127 5.85503V16.7738H12.4127V5.85503L10.4127 5.85503ZM9.54223 9.14081L12.1199 6.56199L10.7054 5.14808L8.1277 7.72691L9.54223 9.14081ZM8.90838 9.56444C9.14558 9.46619 9.36085 9.3222 9.54207 9.14097L8.12786 7.72675C8.13203 7.72259 8.13714 7.71911 8.14301 7.71668L8.90838 9.56444ZM8.16073 9.71311C8.41701 9.71311 8.67116 9.6627 8.90838 9.56444L8.14301 7.71668C8.14889 7.71425 8.15485 7.71311 8.16073 7.71311V9.71311ZM7.41322 9.56444C7.6503 9.66265 7.9043 9.71311 8.16073 9.71311V7.71311C8.16676 7.71311 8.17285 7.7143 8.17859 7.71668L7.41322 9.56444ZM6.77953 9.14097C6.96075 9.3222 7.17601 9.46619 7.41322 9.56444L8.17859 7.71668C8.18446 7.71911 8.18957 7.72259 8.19374 7.72676L6.77953 9.14097ZM6.35616 8.50727C6.45423 8.74404 6.59797 8.95941 6.77953 9.14097L8.19374 7.72675C8.19824 7.73125 8.20167 7.73647 8.20392 7.74191L6.35616 8.50727ZM6.20735 7.75973C6.20735 8.01686 6.25822 8.27084 6.35616 8.50728L8.20391 7.7419C8.20603 7.747 8.20735 7.753 8.20735 7.75973H6.20735ZM6.35616 7.01222C6.25824 7.24862 6.20735 7.50256 6.20735 7.75973H8.20735C8.20735 7.76649 8.20601 7.77253 8.20391 7.77759L6.35616 7.01222ZM6.77953 6.37849C6.59789 6.56012 6.45419 6.77555 6.35616 7.01222L8.20392 7.77758C8.20171 7.78292 8.19831 7.78813 8.19374 7.79271L6.77953 6.37849ZM10.9865 2.17277L6.77963 6.37839L8.19364 7.79281L12.4005 3.58719L10.9865 2.17277ZM11.6195 1.74954C11.3825 1.8478 11.1672 1.99182 10.986 2.17326L12.401 3.5867C12.3966 3.5911 12.3913 3.59464 12.3854 3.59709L11.6195 1.74954ZM12.367 1.60076C12.1106 1.60076 11.8566 1.65127 11.6195 1.74954L12.3854 3.59709C12.3795 3.59953 12.3732 3.60076 12.367 3.60076V1.60076ZM13.1145 1.74954C12.8774 1.65127 12.6235 1.60076 12.367 1.60076V3.60076C12.3608 3.60076 12.3545 3.59953 12.3486 3.59709L13.1145 1.74954ZM13.748 2.17326C13.5668 1.99182 13.3515 1.8478 13.1145 1.74954L12.3486 3.59709C12.3427 3.59464 12.3375 3.5911 12.3331 3.5867L13.748 2.17326ZM17.9532 6.37849L13.7477 2.17287L12.3334 3.58708L16.539 7.7927L17.9532 6.37849ZM18.3768 7.01222C18.2785 6.77496 18.1344 6.55968 17.9532 6.37849L16.539 7.7927C16.5349 7.78857 16.5314 7.7835 16.529 7.77758L18.3768 7.01222ZM18.5254 7.75973C18.5254 7.5033 18.475 7.2493 18.3767 7.01222L16.529 7.77759C16.5266 7.77184 16.5254 7.76576 16.5254 7.75973H18.5254ZM18.3767 8.50727C18.475 8.27016 18.5254 8.01612 18.5254 7.75973H16.5254C16.5254 7.75374 16.5266 7.74768 16.529 7.74191L18.3767 8.50727ZM17.9532 9.14097C18.1344 8.95985 18.2784 8.74463 18.3768 8.50727L16.529 7.74191C16.5315 7.73589 16.535 7.73081 16.539 7.72676L17.9532 9.14097ZM17.3195 9.56444C17.5568 9.46619 17.772 9.3222 17.9532 9.14097L16.539 7.72675C16.5432 7.72259 16.5483 7.71911 16.5542 7.71668L17.3195 9.56444ZM16.572 9.71311C16.8285 9.71311 17.0825 9.66264 17.3195 9.56444L16.5542 7.71668C16.5599 7.7143 16.566 7.71311 16.572 7.71311V9.71311ZM15.8245 9.56444C16.0616 9.66264 16.3156 9.71311 16.572 9.71311V7.71311C16.5781 7.71311 16.5842 7.7143 16.5899 7.71668L15.8245 9.56444ZM15.1908 9.14097C15.3721 9.3222 15.5873 9.46619 15.8245 9.56444L16.5899 7.71668C16.5958 7.71911 16.6009 7.72259 16.605 7.72675L15.1908 9.14097ZM12.6119 6.56216L15.1908 9.14098L16.605 7.72674L14.0261 5.14791L12.6119 6.56216ZM14.319 16.7738V5.85503H12.319V16.7738H14.319ZM13.747 18.1549C14.1133 17.7885 14.319 17.2917 14.319 16.7738H12.319C12.319 16.7615 12.3239 16.7496 12.3328 16.7407L13.747 18.1549ZM12.3659 18.727C12.884 18.727 13.3807 18.5212 13.747 18.1549L12.3328 16.7407C12.3415 16.732 12.3534 16.727 12.3659 16.727L12.3659 18.727ZM10.9847 18.1549C11.3511 18.5213 11.848 18.727 12.3659 18.727L12.3659 16.727C12.3782 16.727 12.3901 16.7319 12.3989 16.7407L10.9847 18.1549ZM10.4127 16.7738C10.4127 17.2917 10.6183 17.7885 10.9847 18.1549L12.3989 16.7407C12.4078 16.7496 12.4127 16.7615 12.4127 16.7738H10.4127Z" fill="black" fill-opacity="0.2" mask="url(#path-1-inside-1_652_5370)"/>
<path d="M22.3327 20.3795L23.3327 20.3807V20.3795H22.3327ZM22.0531 21.0532L21.346 20.3461L21.346 20.3461L22.0531 21.0532ZM21.3794 21.3327V22.3327H21.3806L21.3794 21.3327ZM3.35248 21.3327L3.35129 22.3327H3.35248V21.3327ZM2.39923 20.3795H1.39923V20.3807L2.39923 20.3795ZM2.67838 11.8942L3.38548 12.6013L3.38549 12.6013L2.67838 11.8942ZM4.02644 11.8942L4.73355 11.1871L4.73354 11.1871L4.02644 11.8942ZM4.30558 19.4263H3.30558V20.4263H4.30558V19.4263ZM20.4262 19.4263V20.4263H21.4262V19.4263H20.4262ZM20.7055 11.8942L19.9984 11.1871H19.9984L20.7055 11.8942ZM22.0535 11.8942L21.3464 12.6013H21.3464L22.0535 11.8942ZM11.4127 5.85503L12.4127 5.85503V3.44007L10.7054 5.14808L11.4127 5.85503ZM8.83497 8.43386L9.54207 9.14097L9.54223 9.14081L8.83497 8.43386ZM8.52569 8.64056L8.90838 9.56444L8.90838 9.56444L8.52569 8.64056ZM7.79591 8.64056L8.17859 7.71668L8.17859 7.71668L7.79591 8.64056ZM7.48663 8.43386L8.19374 7.72676L8.19374 7.72675L7.48663 8.43386ZM7.28004 8.12459L8.20392 7.74191L8.20391 7.7419L7.28004 8.12459ZM7.28004 7.3949L8.20391 7.77759L8.20392 7.77758L7.28004 7.3949ZM7.48663 7.0856L6.77963 6.37839L6.77953 6.37849L7.48663 7.0856ZM11.6935 2.87998L12.4005 3.58719L12.401 3.5867L11.6935 2.87998ZM12.0025 2.67331L12.3854 3.59709L12.3854 3.59709L12.0025 2.67331ZM12.7316 2.67331L12.3486 3.59709L12.3486 3.59709L12.7316 2.67331ZM13.0406 2.87998L12.3331 3.5867L12.3334 3.58708L13.0406 2.87998ZM17.2461 7.0856L16.539 7.7927L16.539 7.7927L17.2461 7.0856ZM17.4529 7.3949L16.529 7.77758L16.529 7.77759L17.4529 7.3949ZM17.4529 8.12459L16.529 7.74191L16.529 7.74191L17.4529 8.12459ZM17.2461 8.43386L17.9532 9.14097L17.9532 9.14097L17.2461 8.43386ZM16.9369 8.64056L17.3195 9.56444L17.3195 9.56444L16.9369 8.64056ZM16.2072 8.64056L15.8245 9.56444L15.8245 9.56444L16.2072 8.64056ZM15.8979 8.43386L16.605 7.72675L16.605 7.72674L15.8979 8.43386ZM13.319 5.85503L14.0261 5.14791L12.319 3.44089V5.85503H13.319ZM23.3327 20.3795V12.5683H21.3327V20.3795H23.3327ZM22.7602 21.7603C23.1261 21.3944 23.3321 20.8983 23.3327 20.3807L21.3327 20.3783C21.3327 20.3661 21.3375 20.3545 21.346 20.3461L22.7602 21.7603ZM21.3806 22.3327C21.8981 22.3321 22.3942 22.1263 22.7602 21.7603L21.346 20.3461C21.3546 20.3375 21.3662 20.3327 21.3782 20.3327L21.3806 22.3327ZM3.35248 22.3327H21.3794V20.3327H3.35248V22.3327ZM1.97168 21.7603C2.33767 22.1263 2.83384 22.3321 3.35129 22.3327L3.35366 20.3327C3.36569 20.3327 3.3773 20.3375 3.3859 20.3461L1.97168 21.7603ZM1.39923 20.3807C1.39985 20.8983 1.60583 21.3944 1.97168 21.7603L3.3859 20.3461C3.39437 20.3545 3.39921 20.3661 3.39923 20.3783L1.39923 20.3807ZM1.39923 12.5683V20.3795H3.39923V12.5683H1.39923ZM1.97127 11.1871C1.60489 11.5535 1.39923 12.0504 1.39923 12.5683H3.39923C3.39923 12.5805 3.39434 12.5925 3.38548 12.6013L1.97127 11.1871ZM3.35248 10.615C2.83456 10.615 2.33764 10.8207 1.97127 11.1871L3.38549 12.6013C3.37663 12.6102 3.36478 12.615 3.35248 12.615V10.615ZM4.73354 11.1871C4.36728 10.8209 3.87055 10.615 3.35248 10.615V12.615C3.34001 12.615 3.32807 12.6101 3.31933 12.6013L4.73354 11.1871ZM5.30558 12.5683C5.30558 12.0504 5.09992 11.5535 4.73355 11.1871L3.31933 12.6013C3.31046 12.5925 3.30558 12.5805 3.30558 12.5683H5.30558ZM5.30558 19.4263V12.5683H3.30558V19.4263H5.30558ZM20.4262 18.4263H4.30558V20.4263H20.4262V18.4263ZM19.4262 12.5683V19.4263H21.4262V12.5683H19.4262ZM19.9984 11.1871C19.6322 11.5532 19.4262 12.05 19.4262 12.5683H21.4262C21.4262 12.5809 21.4212 12.5927 21.4126 12.6013L19.9984 11.1871ZM21.3794 10.615C20.8614 10.615 20.3646 10.8209 19.9984 11.1871L21.4126 12.6013C21.4038 12.6101 21.3919 12.615 21.3794 12.615V10.615ZM22.7606 11.1871C22.3943 10.8207 21.8973 10.615 21.3794 10.615V12.615C21.3671 12.615 21.3553 12.6102 21.3464 12.6013L22.7606 11.1871ZM23.3327 12.5683C23.3327 12.0504 23.127 11.5535 22.7606 11.1871L21.3464 12.6013C21.3376 12.5925 21.3327 12.5805 21.3327 12.5683H23.3327ZM10.4127 5.85503V16.7738H12.4127V5.85503L10.4127 5.85503ZM9.54223 9.14081L12.1199 6.56199L10.7054 5.14808L8.1277 7.72691L9.54223 9.14081ZM8.90838 9.56444C9.14558 9.46619 9.36085 9.3222 9.54207 9.14097L8.12786 7.72675C8.13203 7.72259 8.13714 7.71911 8.14301 7.71668L8.90838 9.56444ZM8.16073 9.71311C8.41701 9.71311 8.67116 9.6627 8.90838 9.56444L8.14301 7.71668C8.14889 7.71425 8.15485 7.71311 8.16073 7.71311V9.71311ZM7.41322 9.56444C7.6503 9.66265 7.9043 9.71311 8.16073 9.71311V7.71311C8.16676 7.71311 8.17285 7.7143 8.17859 7.71668L7.41322 9.56444ZM6.77953 9.14097C6.96075 9.3222 7.17601 9.46619 7.41322 9.56444L8.17859 7.71668C8.18446 7.71911 8.18957 7.72259 8.19374 7.72676L6.77953 9.14097ZM6.35616 8.50727C6.45423 8.74404 6.59797 8.95941 6.77953 9.14097L8.19374 7.72675C8.19824 7.73125 8.20167 7.73647 8.20392 7.74191L6.35616 8.50727ZM6.20735 7.75973C6.20735 8.01686 6.25822 8.27084 6.35616 8.50728L8.20391 7.7419C8.20603 7.747 8.20735 7.753 8.20735 7.75973H6.20735ZM6.35616 7.01222C6.25824 7.24862 6.20735 7.50256 6.20735 7.75973H8.20735C8.20735 7.76649 8.20601 7.77253 8.20391 7.77759L6.35616 7.01222ZM6.77953 6.37849C6.59789 6.56012 6.45419 6.77555 6.35616 7.01222L8.20392 7.77758C8.20171 7.78292 8.19831 7.78813 8.19374 7.79271L6.77953 6.37849ZM10.9865 2.17277L6.77963 6.37839L8.19364 7.79281L12.4005 3.58719L10.9865 2.17277ZM11.6195 1.74954C11.3825 1.8478 11.1672 1.99182 10.986 2.17326L12.401 3.5867C12.3966 3.5911 12.3913 3.59464 12.3854 3.59709L11.6195 1.74954ZM12.367 1.60076C12.1106 1.60076 11.8566 1.65127 11.6195 1.74954L12.3854 3.59709C12.3795 3.59953 12.3732 3.60076 12.367 3.60076V1.60076ZM13.1145 1.74954C12.8774 1.65127 12.6235 1.60076 12.367 1.60076V3.60076C12.3608 3.60076 12.3545 3.59953 12.3486 3.59709L13.1145 1.74954ZM13.748 2.17326C13.5668 1.99182 13.3515 1.8478 13.1145 1.74954L12.3486 3.59709C12.3427 3.59464 12.3375 3.5911 12.3331 3.5867L13.748 2.17326ZM17.9532 6.37849L13.7477 2.17287L12.3334 3.58708L16.539 7.7927L17.9532 6.37849ZM18.3768 7.01222C18.2785 6.77496 18.1344 6.55968 17.9532 6.37849L16.539 7.7927C16.5349 7.78857 16.5314 7.7835 16.529 7.77758L18.3768 7.01222ZM18.5254 7.75973C18.5254 7.5033 18.475 7.2493 18.3767 7.01222L16.529 7.77759C16.5266 7.77184 16.5254 7.76576 16.5254 7.75973H18.5254ZM18.3767 8.50727C18.475 8.27016 18.5254 8.01612 18.5254 7.75973H16.5254C16.5254 7.75374 16.5266 7.74768 16.529 7.74191L18.3767 8.50727ZM17.9532 9.14097C18.1344 8.95985 18.2784 8.74463 18.3768 8.50727L16.529 7.74191C16.5315 7.73589 16.535 7.73081 16.539 7.72676L17.9532 9.14097ZM17.3195 9.56444C17.5568 9.46619 17.772 9.3222 17.9532 9.14097L16.539 7.72675C16.5432 7.72259 16.5483 7.71911 16.5542 7.71668L17.3195 9.56444ZM16.572 9.71311C16.8285 9.71311 17.0825 9.66264 17.3195 9.56444L16.5542 7.71668C16.5599 7.7143 16.566 7.71311 16.572 7.71311V9.71311ZM15.8245 9.56444C16.0616 9.66264 16.3156 9.71311 16.572 9.71311V7.71311C16.5781 7.71311 16.5842 7.7143 16.5899 7.71668L15.8245 9.56444ZM15.1908 9.14097C15.3721 9.3222 15.5873 9.46619 15.8245 9.56444L16.5899 7.71668C16.5958 7.71911 16.6009 7.72259 16.605 7.72675L15.1908 9.14097ZM12.6119 6.56216L15.1908 9.14098L16.605 7.72674L14.0261 5.14791L12.6119 6.56216ZM14.319 16.7738V5.85503H12.319V16.7738H14.319ZM13.747 18.1549C14.1133 17.7885 14.319 17.2917 14.319 16.7738H12.319C12.319 16.7615 12.3239 16.7496 12.3328 16.7407L13.747 18.1549ZM12.3659 18.727C12.884 18.727 13.3807 18.5212 13.747 18.1549L12.3328 16.7407C12.3415 16.732 12.3534 16.727 12.3659 16.727L12.3659 18.727ZM10.9847 18.1549C11.3511 18.5213 11.848 18.727 12.3659 18.727L12.3659 16.727C12.3782 16.727 12.3901 16.7319 12.3989 16.7407L10.9847 18.1549ZM10.4127 16.7738C10.4127 17.2917 10.6183 17.7885 10.9847 18.1549L12.3989 16.7407C12.4078 16.7496 12.4127 16.7615 12.4127 16.7738H10.4127Z" fill="black" fill-opacity="0.2" mask="url(#path-1-inside-1_652_5370)"/>
<path d="M22.3327 20.3795L23.3327 20.3807V20.3795H22.3327ZM22.0531 21.0532L21.346 20.3461L21.346 20.3461L22.0531 21.0532ZM21.3794 21.3327V22.3327H21.3806L21.3794 21.3327ZM3.35248 21.3327L3.35129 22.3327H3.35248V21.3327ZM2.39923 20.3795H1.39923V20.3807L2.39923 20.3795ZM2.67838 11.8942L3.38548 12.6013L3.38549 12.6013L2.67838 11.8942ZM4.02644 11.8942L4.73355 11.1871L4.73354 11.1871L4.02644 11.8942ZM4.30558 19.4263H3.30558V20.4263H4.30558V19.4263ZM20.4262 19.4263V20.4263H21.4262V19.4263H20.4262ZM20.7055 11.8942L19.9984 11.1871H19.9984L20.7055 11.8942ZM22.0535 11.8942L21.3464 12.6013H21.3464L22.0535 11.8942ZM11.4127 5.85503L12.4127 5.85503V3.44007L10.7054 5.14808L11.4127 5.85503ZM8.83497 8.43386L9.54207 9.14097L9.54223 9.14081L8.83497 8.43386ZM8.52569 8.64056L8.90838 9.56444L8.90838 9.56444L8.52569 8.64056ZM7.79591 8.64056L8.17859 7.71668L8.17859 7.71668L7.79591 8.64056ZM7.48663 8.43386L8.19374 7.72676L8.19374 7.72675L7.48663 8.43386ZM7.28004 8.12459L8.20392 7.74191L8.20391 7.7419L7.28004 8.12459ZM7.28004 7.3949L8.20391 7.77759L8.20392 7.77758L7.28004 7.3949ZM7.48663 7.0856L6.77963 6.37839L6.77953 6.37849L7.48663 7.0856ZM11.6935 2.87998L12.4005 3.58719L12.401 3.5867L11.6935 2.87998ZM12.0025 2.67331L12.3854 3.59709L12.3854 3.59709L12.0025 2.67331ZM12.7316 2.67331L12.3486 3.59709L12.3486 3.59709L12.7316 2.67331ZM13.0406 2.87998L12.3331 3.5867L12.3334 3.58708L13.0406 2.87998ZM17.2461 7.0856L16.539 7.7927L16.539 7.7927L17.2461 7.0856ZM17.4529 7.3949L16.529 7.77758L16.529 7.77759L17.4529 7.3949ZM17.4529 8.12459L16.529 7.74191L16.529 7.74191L17.4529 8.12459ZM17.2461 8.43386L17.9532 9.14097L17.9532 9.14097L17.2461 8.43386ZM16.9369 8.64056L17.3195 9.56444L17.3195 9.56444L16.9369 8.64056ZM16.2072 8.64056L15.8245 9.56444L15.8245 9.56444L16.2072 8.64056ZM15.8979 8.43386L16.605 7.72675L16.605 7.72674L15.8979 8.43386ZM13.319 5.85503L14.0261 5.14791L12.319 3.44089V5.85503H13.319ZM23.3327 20.3795V12.5683H21.3327V20.3795H23.3327ZM22.7602 21.7603C23.1261 21.3944 23.3321 20.8983 23.3327 20.3807L21.3327 20.3783C21.3327 20.3661 21.3375 20.3545 21.346 20.3461L22.7602 21.7603ZM21.3806 22.3327C21.8981 22.3321 22.3942 22.1263 22.7602 21.7603L21.346 20.3461C21.3546 20.3375 21.3662 20.3327 21.3782 20.3327L21.3806 22.3327ZM3.35248 22.3327H21.3794V20.3327H3.35248V22.3327ZM1.97168 21.7603C2.33767 22.1263 2.83384 22.3321 3.35129 22.3327L3.35366 20.3327C3.36569 20.3327 3.3773 20.3375 3.3859 20.3461L1.97168 21.7603ZM1.39923 20.3807C1.39985 20.8983 1.60583 21.3944 1.97168 21.7603L3.3859 20.3461C3.39437 20.3545 3.39921 20.3661 3.39923 20.3783L1.39923 20.3807ZM1.39923 12.5683V20.3795H3.39923V12.5683H1.39923ZM1.97127 11.1871C1.60489 11.5535 1.39923 12.0504 1.39923 12.5683H3.39923C3.39923 12.5805 3.39434 12.5925 3.38548 12.6013L1.97127 11.1871ZM3.35248 10.615C2.83456 10.615 2.33764 10.8207 1.97127 11.1871L3.38549 12.6013C3.37663 12.6102 3.36478 12.615 3.35248 12.615V10.615ZM4.73354 11.1871C4.36728 10.8209 3.87055 10.615 3.35248 10.615V12.615C3.34001 12.615 3.32807 12.6101 3.31933 12.6013L4.73354 11.1871ZM5.30558 12.5683C5.30558 12.0504 5.09992 11.5535 4.73355 11.1871L3.31933 12.6013C3.31046 12.5925 3.30558 12.5805 3.30558 12.5683H5.30558ZM5.30558 19.4263V12.5683H3.30558V19.4263H5.30558ZM20.4262 18.4263H4.30558V20.4263H20.4262V18.4263ZM19.4262 12.5683V19.4263H21.4262V12.5683H19.4262ZM19.9984 11.1871C19.6322 11.5532 19.4262 12.05 19.4262 12.5683H21.4262C21.4262 12.5809 21.4212 12.5927 21.4126 12.6013L19.9984 11.1871ZM21.3794 10.615C20.8614 10.615 20.3646 10.8209 19.9984 11.1871L21.4126 12.6013C21.4038 12.6101 21.3919 12.615 21.3794 12.615V10.615ZM22.7606 11.1871C22.3943 10.8207 21.8973 10.615 21.3794 10.615V12.615C21.3671 12.615 21.3553 12.6102 21.3464 12.6013L22.7606 11.1871ZM23.3327 12.5683C23.3327 12.0504 23.127 11.5535 22.7606 11.1871L21.3464 12.6013C21.3376 12.5925 21.3327 12.5805 21.3327 12.5683H23.3327ZM10.4127 5.85503V16.7738H12.4127V5.85503L10.4127 5.85503ZM9.54223 9.14081L12.1199 6.56199L10.7054 5.14808L8.1277 7.72691L9.54223 9.14081ZM8.90838 9.56444C9.14558 9.46619 9.36085 9.3222 9.54207 9.14097L8.12786 7.72675C8.13203 7.72259 8.13714 7.71911 8.14301 7.71668L8.90838 9.56444ZM8.16073 9.71311C8.41701 9.71311 8.67116 9.6627 8.90838 9.56444L8.14301 7.71668C8.14889 7.71425 8.15485 7.71311 8.16073 7.71311V9.71311ZM7.41322 9.56444C7.6503 9.66265 7.9043 9.71311 8.16073 9.71311V7.71311C8.16676 7.71311 8.17285 7.7143 8.17859 7.71668L7.41322 9.56444ZM6.77953 9.14097C6.96075 9.3222 7.17601 9.46619 7.41322 9.56444L8.17859 7.71668C8.18446 7.71911 8.18957 7.72259 8.19374 7.72676L6.77953 9.14097ZM6.35616 8.50727C6.45423 8.74404 6.59797 8.95941 6.77953 9.14097L8.19374 7.72675C8.19824 7.73125 8.20167 7.73647 8.20392 7.74191L6.35616 8.50727ZM6.20735 7.75973C6.20735 8.01686 6.25822 8.27084 6.35616 8.50728L8.20391 7.7419C8.20603 7.747 8.20735 7.753 8.20735 7.75973H6.20735ZM6.35616 7.01222C6.25824 7.24862 6.20735 7.50256 6.20735 7.75973H8.20735C8.20735 7.76649 8.20601 7.77253 8.20391 7.77759L6.35616 7.01222ZM6.77953 6.37849C6.59789 6.56012 6.45419 6.77555 6.35616 7.01222L8.20392 7.77758C8.20171 7.78292 8.19831 7.78813 8.19374 7.79271L6.77953 6.37849ZM10.9865 2.17277L6.77963 6.37839L8.19364 7.79281L12.4005 3.58719L10.9865 2.17277ZM11.6195 1.74954C11.3825 1.8478 11.1672 1.99182 10.986 2.17326L12.401 3.5867C12.3966 3.5911 12.3913 3.59464 12.3854 3.59709L11.6195 1.74954ZM12.367 1.60076C12.1106 1.60076 11.8566 1.65127 11.6195 1.74954L12.3854 3.59709C12.3795 3.59953 12.3732 3.60076 12.367 3.60076V1.60076ZM13.1145 1.74954C12.8774 1.65127 12.6235 1.60076 12.367 1.60076V3.60076C12.3608 3.60076 12.3545 3.59953 12.3486 3.59709L13.1145 1.74954ZM13.748 2.17326C13.5668 1.99182 13.3515 1.8478 13.1145 1.74954L12.3486 3.59709C12.3427 3.59464 12.3375 3.5911 12.3331 3.5867L13.748 2.17326ZM17.9532 6.37849L13.7477 2.17287L12.3334 3.58708L16.539 7.7927L17.9532 6.37849ZM18.3768 7.01222C18.2785 6.77496 18.1344 6.55968 17.9532 6.37849L16.539 7.7927C16.5349 7.78857 16.5314 7.7835 16.529 7.77758L18.3768 7.01222ZM18.5254 7.75973C18.5254 7.5033 18.475 7.2493 18.3767 7.01222L16.529 7.77759C16.5266 7.77184 16.5254 7.76576 16.5254 7.75973H18.5254ZM18.3767 8.50727C18.475 8.27016 18.5254 8.01612 18.5254 7.75973H16.5254C16.5254 7.75374 16.5266 7.74768 16.529 7.74191L18.3767 8.50727ZM17.9532 9.14097C18.1344 8.95985 18.2784 8.74463 18.3768 8.50727L16.529 7.74191C16.5315 7.73589 16.535 7.73081 16.539 7.72676L17.9532 9.14097ZM17.3195 9.56444C17.5568 9.46619 17.772 9.3222 17.9532 9.14097L16.539 7.72675C16.5432 7.72259 16.5483 7.71911 16.5542 7.71668L17.3195 9.56444ZM16.572 9.71311C16.8285 9.71311 17.0825 9.66264 17.3195 9.56444L16.5542 7.71668C16.5599 7.7143 16.566 7.71311 16.572 7.71311V9.71311ZM15.8245 9.56444C16.0616 9.66264 16.3156 9.71311 16.572 9.71311V7.71311C16.5781 7.71311 16.5842 7.7143 16.5899 7.71668L15.8245 9.56444ZM15.1908 9.14097C15.3721 9.3222 15.5873 9.46619 15.8245 9.56444L16.5899 7.71668C16.5958 7.71911 16.6009 7.72259 16.605 7.72675L15.1908 9.14097ZM12.6119 6.56216L15.1908 9.14098L16.605 7.72674L14.0261 5.14791L12.6119 6.56216ZM14.319 16.7738V5.85503H12.319V16.7738H14.319ZM13.747 18.1549C14.1133 17.7885 14.319 17.2917 14.319 16.7738H12.319C12.319 16.7615 12.3239 16.7496 12.3328 16.7407L13.747 18.1549ZM12.3659 18.727C12.884 18.727 13.3807 18.5212 13.747 18.1549L12.3328 16.7407C12.3415 16.732 12.3534 16.727 12.3659 16.727L12.3659 18.727ZM10.9847 18.1549C11.3511 18.5213 11.848 18.727 12.3659 18.727L12.3659 16.727C12.3782 16.727 12.3901 16.7319 12.3989 16.7407L10.9847 18.1549ZM10.4127 16.7738C10.4127 17.2917 10.6183 17.7885 10.9847 18.1549L12.3989 16.7407C12.4078 16.7496 12.4127 16.7615 12.4127 16.7738H10.4127Z" fill="black" fill-opacity="0.2" mask="url(#path-1-inside-1_652_5370)"/>
<path d="M22.3327 20.3795L23.3327 20.3807V20.3795H22.3327ZM22.0531 21.0532L21.346 20.3461L21.346 20.3461L22.0531 21.0532ZM21.3794 21.3327V22.3327H21.3806L21.3794 21.3327ZM3.35248 21.3327L3.35129 22.3327H3.35248V21.3327ZM2.39923 20.3795H1.39923V20.3807L2.39923 20.3795ZM2.67838 11.8942L3.38548 12.6013L3.38549 12.6013L2.67838 11.8942ZM4.02644 11.8942L4.73355 11.1871L4.73354 11.1871L4.02644 11.8942ZM4.30558 19.4263H3.30558V20.4263H4.30558V19.4263ZM20.4262 19.4263V20.4263H21.4262V19.4263H20.4262ZM20.7055 11.8942L19.9984 11.1871H19.9984L20.7055 11.8942ZM22.0535 11.8942L21.3464 12.6013H21.3464L22.0535 11.8942ZM11.4127 5.85503L12.4127 5.85503V3.44007L10.7054 5.14808L11.4127 5.85503ZM8.83497 8.43386L9.54207 9.14097L9.54223 9.14081L8.83497 8.43386ZM8.52569 8.64056L8.90838 9.56444L8.90838 9.56444L8.52569 8.64056ZM7.79591 8.64056L8.17859 7.71668L8.17859 7.71668L7.79591 8.64056ZM7.48663 8.43386L8.19374 7.72676L8.19374 7.72675L7.48663 8.43386ZM7.28004 8.12459L8.20392 7.74191L8.20391 7.7419L7.28004 8.12459ZM7.28004 7.3949L8.20391 7.77759L8.20392 7.77758L7.28004 7.3949ZM7.48663 7.0856L6.77963 6.37839L6.77953 6.37849L7.48663 7.0856ZM11.6935 2.87998L12.4005 3.58719L12.401 3.5867L11.6935 2.87998ZM12.0025 2.67331L12.3854 3.59709L12.3854 3.59709L12.0025 2.67331ZM12.7316 2.67331L12.3486 3.59709L12.3486 3.59709L12.7316 2.67331ZM13.0406 2.87998L12.3331 3.5867L12.3334 3.58708L13.0406 2.87998ZM17.2461 7.0856L16.539 7.7927L16.539 7.7927L17.2461 7.0856ZM17.4529 7.3949L16.529 7.77758L16.529 7.77759L17.4529 7.3949ZM17.4529 8.12459L16.529 7.74191L16.529 7.74191L17.4529 8.12459ZM17.2461 8.43386L17.9532 9.14097L17.9532 9.14097L17.2461 8.43386ZM16.9369 8.64056L17.3195 9.56444L17.3195 9.56444L16.9369 8.64056ZM16.2072 8.64056L15.8245 9.56444L15.8245 9.56444L16.2072 8.64056ZM15.8979 8.43386L16.605 7.72675L16.605 7.72674L15.8979 8.43386ZM13.319 5.85503L14.0261 5.14791L12.319 3.44089V5.85503H13.319ZM23.3327 20.3795V12.5683H21.3327V20.3795H23.3327ZM22.7602 21.7603C23.1261 21.3944 23.3321 20.8983 23.3327 20.3807L21.3327 20.3783C21.3327 20.3661 21.3375 20.3545 21.346 20.3461L22.7602 21.7603ZM21.3806 22.3327C21.8981 22.3321 22.3942 22.1263 22.7602 21.7603L21.346 20.3461C21.3546 20.3375 21.3662 20.3327 21.3782 20.3327L21.3806 22.3327ZM3.35248 22.3327H21.3794V20.3327H3.35248V22.3327ZM1.97168 21.7603C2.33767 22.1263 2.83384 22.3321 3.35129 22.3327L3.35366 20.3327C3.36569 20.3327 3.3773 20.3375 3.3859 20.3461L1.97168 21.7603ZM1.39923 20.3807C1.39985 20.8983 1.60583 21.3944 1.97168 21.7603L3.3859 20.3461C3.39437 20.3545 3.39921 20.3661 3.39923 20.3783L1.39923 20.3807ZM1.39923 12.5683V20.3795H3.39923V12.5683H1.39923ZM1.97127 11.1871C1.60489 11.5535 1.39923 12.0504 1.39923 12.5683H3.39923C3.39923 12.5805 3.39434 12.5925 3.38548 12.6013L1.97127 11.1871ZM3.35248 10.615C2.83456 10.615 2.33764 10.8207 1.97127 11.1871L3.38549 12.6013C3.37663 12.6102 3.36478 12.615 3.35248 12.615V10.615ZM4.73354 11.1871C4.36728 10.8209 3.87055 10.615 3.35248 10.615V12.615C3.34001 12.615 3.32807 12.6101 3.31933 12.6013L4.73354 11.1871ZM5.30558 12.5683C5.30558 12.0504 5.09992 11.5535 4.73355 11.1871L3.31933 12.6013C3.31046 12.5925 3.30558 12.5805 3.30558 12.5683H5.30558ZM5.30558 19.4263V12.5683H3.30558V19.4263H5.30558ZM20.4262 18.4263H4.30558V20.4263H20.4262V18.4263ZM19.4262 12.5683V19.4263H21.4262V12.5683H19.4262ZM19.9984 11.1871C19.6322 11.5532 19.4262 12.05 19.4262 12.5683H21.4262C21.4262 12.5809 21.4212 12.5927 21.4126 12.6013L19.9984 11.1871ZM21.3794 10.615C20.8614 10.615 20.3646 10.8209 19.9984 11.1871L21.4126 12.6013C21.4038 12.6101 21.3919 12.615 21.3794 12.615V10.615ZM22.7606 11.1871C22.3943 10.8207 21.8973 10.615 21.3794 10.615V12.615C21.3671 12.615 21.3553 12.6102 21.3464 12.6013L22.7606 11.1871ZM23.3327 12.5683C23.3327 12.0504 23.127 11.5535 22.7606 11.1871L21.3464 12.6013C21.3376 12.5925 21.3327 12.5805 21.3327 12.5683H23.3327ZM10.4127 5.85503V16.7738H12.4127V5.85503L10.4127 5.85503ZM9.54223 9.14081L12.1199 6.56199L10.7054 5.14808L8.1277 7.72691L9.54223 9.14081ZM8.90838 9.56444C9.14558 9.46619 9.36085 9.3222 9.54207 9.14097L8.12786 7.72675C8.13203 7.72259 8.13714 7.71911 8.14301 7.71668L8.90838 9.56444ZM8.16073 9.71311C8.41701 9.71311 8.67116 9.6627 8.90838 9.56444L8.14301 7.71668C8.14889 7.71425 8.15485 7.71311 8.16073 7.71311V9.71311ZM7.41322 9.56444C7.6503 9.66265 7.9043 9.71311 8.16073 9.71311V7.71311C8.16676 7.71311 8.17285 7.7143 8.17859 7.71668L7.41322 9.56444ZM6.77953 9.14097C6.96075 9.3222 7.17601 9.46619 7.41322 9.56444L8.17859 7.71668C8.18446 7.71911 8.18957 7.72259 8.19374 7.72676L6.77953 9.14097ZM6.35616 8.50727C6.45423 8.74404 6.59797 8.95941 6.77953 9.14097L8.19374 7.72675C8.19824 7.73125 8.20167 7.73647 8.20392 7.74191L6.35616 8.50727ZM6.20735 7.75973C6.20735 8.01686 6.25822 8.27084 6.35616 8.50728L8.20391 7.7419C8.20603 7.747 8.20735 7.753 8.20735 7.75973H6.20735ZM6.35616 7.01222C6.25824 7.24862 6.20735 7.50256 6.20735 7.75973H8.20735C8.20735 7.76649 8.20601 7.77253 8.20391 7.77759L6.35616 7.01222ZM6.77953 6.37849C6.59789 6.56012 6.45419 6.77555 6.35616 7.01222L8.20392 7.77758C8.20171 7.78292 8.19831 7.78813 8.19374 7.79271L6.77953 6.37849ZM10.9865 2.17277L6.77963 6.37839L8.19364 7.79281L12.4005 3.58719L10.9865 2.17277ZM11.6195 1.74954C11.3825 1.8478 11.1672 1.99182 10.986 2.17326L12.401 3.5867C12.3966 3.5911 12.3913 3.59464 12.3854 3.59709L11.6195 1.74954ZM12.367 1.60076C12.1106 1.60076 11.8566 1.65127 11.6195 1.74954L12.3854 3.59709C12.3795 3.59953 12.3732 3.60076 12.367 3.60076V1.60076ZM13.1145 1.74954C12.8774 1.65127 12.6235 1.60076 12.367 1.60076V3.60076C12.3608 3.60076 12.3545 3.59953 12.3486 3.59709L13.1145 1.74954ZM13.748 2.17326C13.5668 1.99182 13.3515 1.8478 13.1145 1.74954L12.3486 3.59709C12.3427 3.59464 12.3375 3.5911 12.3331 3.5867L13.748 2.17326ZM17.9532 6.37849L13.7477 2.17287L12.3334 3.58708L16.539 7.7927L17.9532 6.37849ZM18.3768 7.01222C18.2785 6.77496 18.1344 6.55968 17.9532 6.37849L16.539 7.7927C16.5349 7.78857 16.5314 7.7835 16.529 7.77758L18.3768 7.01222ZM18.5254 7.75973C18.5254 7.5033 18.475 7.2493 18.3767 7.01222L16.529 7.77759C16.5266 7.77184 16.5254 7.76576 16.5254 7.75973H18.5254ZM18.3767 8.50727C18.475 8.27016 18.5254 8.01612 18.5254 7.75973H16.5254C16.5254 7.75374 16.5266 7.74768 16.529 7.74191L18.3767 8.50727ZM17.9532 9.14097C18.1344 8.95985 18.2784 8.74463 18.3768 8.50727L16.529 7.74191C16.5315 7.73589 16.535 7.73081 16.539 7.72676L17.9532 9.14097ZM17.3195 9.56444C17.5568 9.46619 17.772 9.3222 17.9532 9.14097L16.539 7.72675C16.5432 7.72259 16.5483 7.71911 16.5542 7.71668L17.3195 9.56444ZM16.572 9.71311C16.8285 9.71311 17.0825 9.66264 17.3195 9.56444L16.5542 7.71668C16.5599 7.7143 16.566 7.71311 16.572 7.71311V9.71311ZM15.8245 9.56444C16.0616 9.66264 16.3156 9.71311 16.572 9.71311V7.71311C16.5781 7.71311 16.5842 7.7143 16.5899 7.71668L15.8245 9.56444ZM15.1908 9.14097C15.3721 9.3222 15.5873 9.46619 15.8245 9.56444L16.5899 7.71668C16.5958 7.71911 16.6009 7.72259 16.605 7.72675L15.1908 9.14097ZM12.6119 6.56216L15.1908 9.14098L16.605 7.72674L14.0261 5.14791L12.6119 6.56216ZM14.319 16.7738V5.85503H12.319V16.7738H14.319ZM13.747 18.1549C14.1133 17.7885 14.319 17.2917 14.319 16.7738H12.319C12.319 16.7615 12.3239 16.7496 12.3328 16.7407L13.747 18.1549ZM12.3659 18.727C12.884 18.727 13.3807 18.5212 13.747 18.1549L12.3328 16.7407C12.3415 16.732 12.3534 16.727 12.3659 16.727L12.3659 18.727ZM10.9847 18.1549C11.3511 18.5213 11.848 18.727 12.3659 18.727L12.3659 16.727C12.3782 16.727 12.3901 16.7319 12.3989 16.7407L10.9847 18.1549ZM10.4127 16.7738C10.4127 17.2917 10.6183 17.7885 10.9847 18.1549L12.3989 16.7407C12.4078 16.7496 12.4127 16.7615 12.4127 16.7738H10.4127Z" fill="black" fill-opacity="0.2" mask="url(#path-1-inside-1_652_5370)"/>
</svg>
