<svg width="24" height="24" viewBox="0 0 24 24" fill="none" xmlns="http://www.w3.org/2000/svg">
<path d="M0.99999 22.0002V21.6075C0.997571 19.5944 1.79378 17.6625 3.21396 16.2356C4.63414 14.8088 6.56233 14.0036 8.57546 13.9966H15.4673C17.4804 14.0036 19.4086 14.8088 20.8288 16.2356C22.249 17.6625 23.0452 19.5944 23.0428 21.6075V22.0002H0.99999ZM1.79361 21.2148H22.2482C22.1498 19.4804 21.393 17.849 20.1325 16.6536C18.8719 15.4583 17.2026 14.7892 15.4655 14.7829H8.57363C6.83693 14.7899 5.16835 15.4593 3.90837 16.6546C2.6484 17.8498 1.89201 19.4808 1.79361 21.2148Z" fill="black"/>
<path d="M0.99999 22.0002V21.6075C0.997571 19.5944 1.79378 17.6625 3.21396 16.2356C4.63414 14.8088 6.56233 14.0036 8.57546 13.9966H15.4673C17.4804 14.0036 19.4086 14.8088 20.8288 16.2356C22.249 17.6625 23.0452 19.5944 23.0428 21.6075V22.0002H0.99999ZM1.79361 21.2148H22.2482C22.1498 19.4804 21.393 17.849 20.1325 16.6536C18.8719 15.4583 17.2026 14.7892 15.4655 14.7829H8.57363C6.83693 14.7899 5.16835 15.4593 3.90837 16.6546C2.6484 17.8498 1.89201 19.4808 1.79361 21.2148Z" fill="black" fill-opacity="0.2"/>
<path d="M0.99999 22.0002V21.6075C0.997571 19.5944 1.79378 17.6625 3.21396 16.2356C4.63414 14.8088 6.56233 14.0036 8.57546 13.9966H15.4673C17.4804 14.0036 19.4086 14.8088 20.8288 16.2356C22.249 17.6625 23.0452 19.5944 23.0428 21.6075V22.0002H0.99999ZM1.79361 21.2148H22.2482C22.1498 19.4804 21.393 17.849 20.1325 16.6536C18.8719 15.4583 17.2026 14.7892 15.4655 14.7829H8.57363C6.83693 14.7899 5.16835 15.4593 3.90837 16.6546C2.6484 17.8498 1.89201 19.4808 1.79361 21.2148Z" fill="black" fill-opacity="0.2"/>
<path d="M0.99999 22.0002V21.6075C0.997571 19.5944 1.79378 17.6625 3.21396 16.2356C4.63414 14.8088 6.56233 14.0036 8.57546 13.9966H15.4673C17.4804 14.0036 19.4086 14.8088 20.8288 16.2356C22.249 17.6625 23.0452 19.5944 23.0428 21.6075V22.0002H0.99999ZM1.79361 21.2148H22.2482C22.1498 19.4804 21.393 17.849 20.1325 16.6536C18.8719 15.4583 17.2026 14.7892 15.4655 14.7829H8.57363C6.83693 14.7899 5.16835 15.4593 3.90837 16.6546C2.6484 17.8498 1.89201 19.4808 1.79361 21.2148Z" fill="black" fill-opacity="0.2"/>
<path d="M0.99999 22.0002V21.6075C0.997571 19.5944 1.79378 17.6625 3.21396 16.2356C4.63414 14.8088 6.56233 14.0036 8.57546 13.9966H15.4673C17.4804 14.0036 19.4086 14.8088 20.8288 16.2356C22.249 17.6625 23.0452 19.5944 23.0428 21.6075V22.0002H0.99999ZM1.79361 21.2148H22.2482C22.1498 19.4804 21.393 17.849 20.1325 16.6536C18.8719 15.4583 17.2026 14.7892 15.4655 14.7829H8.57363C6.83693 14.7899 5.16835 15.4593 3.90837 16.6546C2.6484 17.8498 1.89201 19.4808 1.79361 21.2148Z" fill="black" fill-opacity="0.2"/>
<path d="M0.99999 22.0002V21.6075C0.997571 19.5944 1.79378 17.6625 3.21396 16.2356C4.63414 14.8088 6.56233 14.0036 8.57546 13.9966H15.4673C17.4804 14.0036 19.4086 14.8088 20.8288 16.2356C22.249 17.6625 23.0452 19.5944 23.0428 21.6075V22.0002H0.99999ZM1.79361 21.2148H22.2482C22.1498 19.4804 21.393 17.849 20.1325 16.6536C18.8719 15.4583 17.2026 14.7892 15.4655 14.7829H8.57363C6.83693 14.7899 5.16835 15.4593 3.90837 16.6546C2.6484 17.8498 1.89201 19.4808 1.79361 21.2148Z" fill="black" fill-opacity="0.2"/>
<path d="M0.99999 22.0002V21.6075C0.997571 19.5944 1.79378 17.6625 3.21396 16.2356C4.63414 14.8088 6.56233 14.0036 8.57546 13.9966H15.4673C17.4804 14.0036 19.4086 14.8088 20.8288 16.2356C22.249 17.6625 23.0452 19.5944 23.0428 21.6075V22.0002H0.99999ZM1.79361 21.2148H22.2482C22.1498 19.4804 21.393 17.849 20.1325 16.6536C18.8719 15.4583 17.2026 14.7892 15.4655 14.7829H8.57363C6.83693 14.7899 5.16835 15.4593 3.90837 16.6546C2.6484 17.8498 1.89201 19.4808 1.79361 21.2148Z" fill="black" fill-opacity="0.2"/>
<path d="M0.99999 22.0002V21.6075C0.997571 19.5944 1.79378 17.6625 3.21396 16.2356C4.63414 14.8088 6.56233 14.0036 8.57546 13.9966H15.4673C17.4804 14.0036 19.4086 14.8088 20.8288 16.2356C22.249 17.6625 23.0452 19.5944 23.0428 21.6075V22.0002H0.99999ZM1.79361 21.2148H22.2482C22.1498 19.4804 21.393 17.849 20.1325 16.6536C18.8719 15.4583 17.2026 14.7892 15.4655 14.7829H8.57363C6.83693 14.7899 5.16835 15.4593 3.90837 16.6546C2.6484 17.8498 1.89201 19.4808 1.79361 21.2148Z" fill="black" fill-opacity="0.2"/>
<path d="M0.99999 22.0002V21.6075C0.997571 19.5944 1.79378 17.6625 3.21396 16.2356C4.63414 14.8088 6.56233 14.0036 8.57546 13.9966H15.4673C17.4804 14.0036 19.4086 14.8088 20.8288 16.2356C22.249 17.6625 23.0452 19.5944 23.0428 21.6075V22.0002H0.99999ZM1.79361 21.2148H22.2482C22.1498 19.4804 21.393 17.849 20.1325 16.6536C18.8719 15.4583 17.2026 14.7892 15.4655 14.7829H8.57363C6.83693 14.7899 5.16835 15.4593 3.90837 16.6546C2.6484 17.8498 1.89201 19.4808 1.79361 21.2148Z" fill="black" fill-opacity="0.2"/>
<path d="M0.99999 22.0002V21.6075C0.997571 19.5944 1.79378 17.6625 3.21396 16.2356C4.63414 14.8088 6.56233 14.0036 8.57546 13.9966H15.4673C17.4804 14.0036 19.4086 14.8088 20.8288 16.2356C22.249 17.6625 23.0452 19.5944 23.0428 21.6075V22.0002H0.99999ZM1.79361 21.2148H22.2482C22.1498 19.4804 21.393 17.849 20.1325 16.6536C18.8719 15.4583 17.2026 14.7892 15.4655 14.7829H8.57363C6.83693 14.7899 5.16835 15.4593 3.90837 16.6546C2.6484 17.8498 1.89201 19.4808 1.79361 21.2148Z" fill="black" fill-opacity="0.2"/>
<path fill-rule="evenodd" clip-rule="evenodd" d="M8.57373 13.4966L8.57546 13.4966L15.469 13.4966C17.6146 13.504 19.6696 14.3622 21.1832 15.8829C22.6968 17.4036 23.5453 19.4625 23.5428 21.6081V22.5002H0.49999V21.6078C0.49999 21.6077 0.49999 21.6079 0.49999 21.6078L0.99999 21.6075V22.0002H1.49999V21.7148H22.5428V22.0002H23.0428V21.6075V21.5002H22.7652L22.7474 21.1864C22.6457 19.3947 21.8894 17.7053 20.6264 16.4371C20.5772 16.3877 20.5273 16.3389 20.4765 16.2908C19.1235 15.0078 17.3318 14.2897 15.4673 14.283L8.57645 14.2829L8.57363 14.2829L8.57163 14.283C6.70757 14.2904 4.91663 15.0089 3.56426 16.2918C3.51405 16.3394 3.46459 16.3877 3.41588 16.4366C2.15259 17.7049 1.39611 19.3945 1.29442 21.1864L1.27661 21.5002H0.99999V21.6075L0.49999 21.6078C0.497492 19.4624 1.34606 17.4035 2.85958 15.8829C4.37318 14.3622 6.42818 13.504 8.57373 13.4966ZM1.50066 21.5002H22.5421C22.5407 21.3995 22.5372 21.2989 22.5315 21.1987C22.434 19.4666 21.7049 17.8246 20.4744 16.5884C20.4265 16.5403 20.3781 16.4929 20.329 16.4464C19.0178 15.2023 17.279 14.5031 15.4665 14.4966L15.4673 14.283C15.4673 14.283 15.4673 14.283 15.4673 14.283L15.4665 14.4966C15.4662 14.4966 15.4668 14.4966 15.4665 14.4966H8.57634C8.57606 14.4966 8.57663 14.4966 8.57634 14.4966C8.57544 14.4966 8.57453 14.4966 8.57363 14.4966C8.57325 14.4966 8.57287 14.4966 8.57249 14.4966C6.76061 14.5041 5.0227 15.2037 3.71224 16.4478C3.66368 16.4939 3.61571 16.5408 3.56834 16.5884C2.33786 17.8246 1.60877 19.4667 1.51123 21.1987C1.50558 21.299 1.50205 21.3995 1.50066 21.5002ZM15.4665 14.4966C15.4662 14.4966 15.4668 14.4966 15.4665 14.4966V14.4966ZM8.57463 15.2829C6.96565 15.2896 5.41982 15.9099 4.25249 17.0173C3.21383 18.0026 2.54447 19.3075 2.34512 20.7148H21.6967C21.4973 19.3071 20.8276 18.0018 19.7884 17.0164C18.6205 15.909 17.074 15.289 15.4645 15.2829H8.57463Z" fill="black"/>
<path fill-rule="evenodd" clip-rule="evenodd" d="M8.57373 13.4966L8.57546 13.4966L15.469 13.4966C17.6146 13.504 19.6696 14.3622 21.1832 15.8829C22.6968 17.4036 23.5453 19.4625 23.5428 21.6081V22.5002H0.49999V21.6078C0.49999 21.6077 0.49999 21.6079 0.49999 21.6078L0.99999 21.6075V22.0002H1.49999V21.7148H22.5428V22.0002H23.0428V21.6075V21.5002H22.7652L22.7474 21.1864C22.6457 19.3947 21.8894 17.7053 20.6264 16.4371C20.5772 16.3877 20.5273 16.3389 20.4765 16.2908C19.1235 15.0078 17.3318 14.2897 15.4673 14.283L8.57645 14.2829L8.57363 14.2829L8.57163 14.283C6.70757 14.2904 4.91663 15.0089 3.56426 16.2918C3.51405 16.3394 3.46459 16.3877 3.41588 16.4366C2.15259 17.7049 1.39611 19.3945 1.29442 21.1864L1.27661 21.5002H0.99999V21.6075L0.49999 21.6078C0.497492 19.4624 1.34606 17.4035 2.85958 15.8829C4.37318 14.3622 6.42818 13.504 8.57373 13.4966ZM1.50066 21.5002H22.5421C22.5407 21.3995 22.5372 21.2989 22.5315 21.1987C22.434 19.4666 21.7049 17.8246 20.4744 16.5884C20.4265 16.5403 20.3781 16.4929 20.329 16.4464C19.0178 15.2023 17.279 14.5031 15.4665 14.4966L15.4673 14.283C15.4673 14.283 15.4673 14.283 15.4673 14.283L15.4665 14.4966C15.4662 14.4966 15.4668 14.4966 15.4665 14.4966H8.57634C8.57606 14.4966 8.57663 14.4966 8.57634 14.4966C8.57544 14.4966 8.57453 14.4966 8.57363 14.4966C8.57325 14.4966 8.57287 14.4966 8.57249 14.4966C6.76061 14.5041 5.0227 15.2037 3.71224 16.4478C3.66368 16.4939 3.61571 16.5408 3.56834 16.5884C2.33786 17.8246 1.60877 19.4667 1.51123 21.1987C1.50558 21.299 1.50205 21.3995 1.50066 21.5002ZM15.4665 14.4966C15.4662 14.4966 15.4668 14.4966 15.4665 14.4966V14.4966ZM8.57463 15.2829C6.96565 15.2896 5.41982 15.9099 4.25249 17.0173C3.21383 18.0026 2.54447 19.3075 2.34512 20.7148H21.6967C21.4973 19.3071 20.8276 18.0018 19.7884 17.0164C18.6205 15.909 17.074 15.289 15.4645 15.2829H8.57463Z" fill="black" fill-opacity="0.2"/>
<path fill-rule="evenodd" clip-rule="evenodd" d="M8.57373 13.4966L8.57546 13.4966L15.469 13.4966C17.6146 13.504 19.6696 14.3622 21.1832 15.8829C22.6968 17.4036 23.5453 19.4625 23.5428 21.6081V22.5002H0.49999V21.6078C0.49999 21.6077 0.49999 21.6079 0.49999 21.6078L0.99999 21.6075V22.0002H1.49999V21.7148H22.5428V22.0002H23.0428V21.6075V21.5002H22.7652L22.7474 21.1864C22.6457 19.3947 21.8894 17.7053 20.6264 16.4371C20.5772 16.3877 20.5273 16.3389 20.4765 16.2908C19.1235 15.0078 17.3318 14.2897 15.4673 14.283L8.57645 14.2829L8.57363 14.2829L8.57163 14.283C6.70757 14.2904 4.91663 15.0089 3.56426 16.2918C3.51405 16.3394 3.46459 16.3877 3.41588 16.4366C2.15259 17.7049 1.39611 19.3945 1.29442 21.1864L1.27661 21.5002H0.99999V21.6075L0.49999 21.6078C0.497492 19.4624 1.34606 17.4035 2.85958 15.8829C4.37318 14.3622 6.42818 13.504 8.57373 13.4966ZM1.50066 21.5002H22.5421C22.5407 21.3995 22.5372 21.2989 22.5315 21.1987C22.434 19.4666 21.7049 17.8246 20.4744 16.5884C20.4265 16.5403 20.3781 16.4929 20.329 16.4464C19.0178 15.2023 17.279 14.5031 15.4665 14.4966L15.4673 14.283C15.4673 14.283 15.4673 14.283 15.4673 14.283L15.4665 14.4966C15.4662 14.4966 15.4668 14.4966 15.4665 14.4966H8.57634C8.57606 14.4966 8.57663 14.4966 8.57634 14.4966C8.57544 14.4966 8.57453 14.4966 8.57363 14.4966C8.57325 14.4966 8.57287 14.4966 8.57249 14.4966C6.76061 14.5041 5.0227 15.2037 3.71224 16.4478C3.66368 16.4939 3.61571 16.5408 3.56834 16.5884C2.33786 17.8246 1.60877 19.4667 1.51123 21.1987C1.50558 21.299 1.50205 21.3995 1.50066 21.5002ZM15.4665 14.4966C15.4662 14.4966 15.4668 14.4966 15.4665 14.4966V14.4966ZM8.57463 15.2829C6.96565 15.2896 5.41982 15.9099 4.25249 17.0173C3.21383 18.0026 2.54447 19.3075 2.34512 20.7148H21.6967C21.4973 19.3071 20.8276 18.0018 19.7884 17.0164C18.6205 15.909 17.074 15.289 15.4645 15.2829H8.57463Z" fill="black" fill-opacity="0.2"/>
<path fill-rule="evenodd" clip-rule="evenodd" d="M8.57373 13.4966L8.57546 13.4966L15.469 13.4966C17.6146 13.504 19.6696 14.3622 21.1832 15.8829C22.6968 17.4036 23.5453 19.4625 23.5428 21.6081V22.5002H0.49999V21.6078C0.49999 21.6077 0.49999 21.6079 0.49999 21.6078L0.99999 21.6075V22.0002H1.49999V21.7148H22.5428V22.0002H23.0428V21.6075V21.5002H22.7652L22.7474 21.1864C22.6457 19.3947 21.8894 17.7053 20.6264 16.4371C20.5772 16.3877 20.5273 16.3389 20.4765 16.2908C19.1235 15.0078 17.3318 14.2897 15.4673 14.283L8.57645 14.2829L8.57363 14.2829L8.57163 14.283C6.70757 14.2904 4.91663 15.0089 3.56426 16.2918C3.51405 16.3394 3.46459 16.3877 3.41588 16.4366C2.15259 17.7049 1.39611 19.3945 1.29442 21.1864L1.27661 21.5002H0.99999V21.6075L0.49999 21.6078C0.497492 19.4624 1.34606 17.4035 2.85958 15.8829C4.37318 14.3622 6.42818 13.504 8.57373 13.4966ZM1.50066 21.5002H22.5421C22.5407 21.3995 22.5372 21.2989 22.5315 21.1987C22.434 19.4666 21.7049 17.8246 20.4744 16.5884C20.4265 16.5403 20.3781 16.4929 20.329 16.4464C19.0178 15.2023 17.279 14.5031 15.4665 14.4966L15.4673 14.283C15.4673 14.283 15.4673 14.283 15.4673 14.283L15.4665 14.4966C15.4662 14.4966 15.4668 14.4966 15.4665 14.4966H8.57634C8.57606 14.4966 8.57663 14.4966 8.57634 14.4966C8.57544 14.4966 8.57453 14.4966 8.57363 14.4966C8.57325 14.4966 8.57287 14.4966 8.57249 14.4966C6.76061 14.5041 5.0227 15.2037 3.71224 16.4478C3.66368 16.4939 3.61571 16.5408 3.56834 16.5884C2.33786 17.8246 1.60877 19.4667 1.51123 21.1987C1.50558 21.299 1.50205 21.3995 1.50066 21.5002ZM15.4665 14.4966C15.4662 14.4966 15.4668 14.4966 15.4665 14.4966V14.4966ZM8.57463 15.2829C6.96565 15.2896 5.41982 15.9099 4.25249 17.0173C3.21383 18.0026 2.54447 19.3075 2.34512 20.7148H21.6967C21.4973 19.3071 20.8276 18.0018 19.7884 17.0164C18.6205 15.909 17.074 15.289 15.4645 15.2829H8.57463Z" fill="black" fill-opacity="0.2"/>
<path fill-rule="evenodd" clip-rule="evenodd" d="M8.57373 13.4966L8.57546 13.4966L15.469 13.4966C17.6146 13.504 19.6696 14.3622 21.1832 15.8829C22.6968 17.4036 23.5453 19.4625 23.5428 21.6081V22.5002H0.49999V21.6078C0.49999 21.6077 0.49999 21.6079 0.49999 21.6078L0.99999 21.6075V22.0002H1.49999V21.7148H22.5428V22.0002H23.0428V21.6075V21.5002H22.7652L22.7474 21.1864C22.6457 19.3947 21.8894 17.7053 20.6264 16.4371C20.5772 16.3877 20.5273 16.3389 20.4765 16.2908C19.1235 15.0078 17.3318 14.2897 15.4673 14.283L8.57645 14.2829L8.57363 14.2829L8.57163 14.283C6.70757 14.2904 4.91663 15.0089 3.56426 16.2918C3.51405 16.3394 3.46459 16.3877 3.41588 16.4366C2.15259 17.7049 1.39611 19.3945 1.29442 21.1864L1.27661 21.5002H0.99999V21.6075L0.49999 21.6078C0.497492 19.4624 1.34606 17.4035 2.85958 15.8829C4.37318 14.3622 6.42818 13.504 8.57373 13.4966ZM1.50066 21.5002H22.5421C22.5407 21.3995 22.5372 21.2989 22.5315 21.1987C22.434 19.4666 21.7049 17.8246 20.4744 16.5884C20.4265 16.5403 20.3781 16.4929 20.329 16.4464C19.0178 15.2023 17.279 14.5031 15.4665 14.4966L15.4673 14.283C15.4673 14.283 15.4673 14.283 15.4673 14.283L15.4665 14.4966C15.4662 14.4966 15.4668 14.4966 15.4665 14.4966H8.57634C8.57606 14.4966 8.57663 14.4966 8.57634 14.4966C8.57544 14.4966 8.57453 14.4966 8.57363 14.4966C8.57325 14.4966 8.57287 14.4966 8.57249 14.4966C6.76061 14.5041 5.0227 15.2037 3.71224 16.4478C3.66368 16.4939 3.61571 16.5408 3.56834 16.5884C2.33786 17.8246 1.60877 19.4667 1.51123 21.1987C1.50558 21.299 1.50205 21.3995 1.50066 21.5002ZM15.4665 14.4966C15.4662 14.4966 15.4668 14.4966 15.4665 14.4966V14.4966ZM8.57463 15.2829C6.96565 15.2896 5.41982 15.9099 4.25249 17.0173C3.21383 18.0026 2.54447 19.3075 2.34512 20.7148H21.6967C21.4973 19.3071 20.8276 18.0018 19.7884 17.0164C18.6205 15.909 17.074 15.289 15.4645 15.2829H8.57463Z" fill="black" fill-opacity="0.2"/>
<path fill-rule="evenodd" clip-rule="evenodd" d="M8.57373 13.4966L8.57546 13.4966L15.469 13.4966C17.6146 13.504 19.6696 14.3622 21.1832 15.8829C22.6968 17.4036 23.5453 19.4625 23.5428 21.6081V22.5002H0.49999V21.6078C0.49999 21.6077 0.49999 21.6079 0.49999 21.6078L0.99999 21.6075V22.0002H1.49999V21.7148H22.5428V22.0002H23.0428V21.6075V21.5002H22.7652L22.7474 21.1864C22.6457 19.3947 21.8894 17.7053 20.6264 16.4371C20.5772 16.3877 20.5273 16.3389 20.4765 16.2908C19.1235 15.0078 17.3318 14.2897 15.4673 14.283L8.57645 14.2829L8.57363 14.2829L8.57163 14.283C6.70757 14.2904 4.91663 15.0089 3.56426 16.2918C3.51405 16.3394 3.46459 16.3877 3.41588 16.4366C2.15259 17.7049 1.39611 19.3945 1.29442 21.1864L1.27661 21.5002H0.99999V21.6075L0.49999 21.6078C0.497492 19.4624 1.34606 17.4035 2.85958 15.8829C4.37318 14.3622 6.42818 13.504 8.57373 13.4966ZM1.50066 21.5002H22.5421C22.5407 21.3995 22.5372 21.2989 22.5315 21.1987C22.434 19.4666 21.7049 17.8246 20.4744 16.5884C20.4265 16.5403 20.3781 16.4929 20.329 16.4464C19.0178 15.2023 17.279 14.5031 15.4665 14.4966L15.4673 14.283C15.4673 14.283 15.4673 14.283 15.4673 14.283L15.4665 14.4966C15.4662 14.4966 15.4668 14.4966 15.4665 14.4966H8.57634C8.57606 14.4966 8.57663 14.4966 8.57634 14.4966C8.57544 14.4966 8.57453 14.4966 8.57363 14.4966C8.57325 14.4966 8.57287 14.4966 8.57249 14.4966C6.76061 14.5041 5.0227 15.2037 3.71224 16.4478C3.66368 16.4939 3.61571 16.5408 3.56834 16.5884C2.33786 17.8246 1.60877 19.4667 1.51123 21.1987C1.50558 21.299 1.50205 21.3995 1.50066 21.5002ZM15.4665 14.4966C15.4662 14.4966 15.4668 14.4966 15.4665 14.4966V14.4966ZM8.57463 15.2829C6.96565 15.2896 5.41982 15.9099 4.25249 17.0173C3.21383 18.0026 2.54447 19.3075 2.34512 20.7148H21.6967C21.4973 19.3071 20.8276 18.0018 19.7884 17.0164C18.6205 15.909 17.074 15.289 15.4645 15.2829H8.57463Z" fill="black" fill-opacity="0.2"/>
<path fill-rule="evenodd" clip-rule="evenodd" d="M8.57373 13.4966L8.57546 13.4966L15.469 13.4966C17.6146 13.504 19.6696 14.3622 21.1832 15.8829C22.6968 17.4036 23.5453 19.4625 23.5428 21.6081V22.5002H0.49999V21.6078C0.49999 21.6077 0.49999 21.6079 0.49999 21.6078L0.99999 21.6075V22.0002H1.49999V21.7148H22.5428V22.0002H23.0428V21.6075V21.5002H22.7652L22.7474 21.1864C22.6457 19.3947 21.8894 17.7053 20.6264 16.4371C20.5772 16.3877 20.5273 16.3389 20.4765 16.2908C19.1235 15.0078 17.3318 14.2897 15.4673 14.283L8.57645 14.2829L8.57363 14.2829L8.57163 14.283C6.70757 14.2904 4.91663 15.0089 3.56426 16.2918C3.51405 16.3394 3.46459 16.3877 3.41588 16.4366C2.15259 17.7049 1.39611 19.3945 1.29442 21.1864L1.27661 21.5002H0.99999V21.6075L0.49999 21.6078C0.497492 19.4624 1.34606 17.4035 2.85958 15.8829C4.37318 14.3622 6.42818 13.504 8.57373 13.4966ZM1.50066 21.5002H22.5421C22.5407 21.3995 22.5372 21.2989 22.5315 21.1987C22.434 19.4666 21.7049 17.8246 20.4744 16.5884C20.4265 16.5403 20.3781 16.4929 20.329 16.4464C19.0178 15.2023 17.279 14.5031 15.4665 14.4966L15.4673 14.283C15.4673 14.283 15.4673 14.283 15.4673 14.283L15.4665 14.4966C15.4662 14.4966 15.4668 14.4966 15.4665 14.4966H8.57634C8.57606 14.4966 8.57663 14.4966 8.57634 14.4966C8.57544 14.4966 8.57453 14.4966 8.57363 14.4966C8.57325 14.4966 8.57287 14.4966 8.57249 14.4966C6.76061 14.5041 5.0227 15.2037 3.71224 16.4478C3.66368 16.4939 3.61571 16.5408 3.56834 16.5884C2.33786 17.8246 1.60877 19.4667 1.51123 21.1987C1.50558 21.299 1.50205 21.3995 1.50066 21.5002ZM15.4665 14.4966C15.4662 14.4966 15.4668 14.4966 15.4665 14.4966V14.4966ZM8.57463 15.2829C6.96565 15.2896 5.41982 15.9099 4.25249 17.0173C3.21383 18.0026 2.54447 19.3075 2.34512 20.7148H21.6967C21.4973 19.3071 20.8276 18.0018 19.7884 17.0164C18.6205 15.909 17.074 15.289 15.4645 15.2829H8.57463Z" fill="black" fill-opacity="0.2"/>
<path fill-rule="evenodd" clip-rule="evenodd" d="M8.57373 13.4966L8.57546 13.4966L15.469 13.4966C17.6146 13.504 19.6696 14.3622 21.1832 15.8829C22.6968 17.4036 23.5453 19.4625 23.5428 21.6081V22.5002H0.49999V21.6078C0.49999 21.6077 0.49999 21.6079 0.49999 21.6078L0.99999 21.6075V22.0002H1.49999V21.7148H22.5428V22.0002H23.0428V21.6075V21.5002H22.7652L22.7474 21.1864C22.6457 19.3947 21.8894 17.7053 20.6264 16.4371C20.5772 16.3877 20.5273 16.3389 20.4765 16.2908C19.1235 15.0078 17.3318 14.2897 15.4673 14.283L8.57645 14.2829L8.57363 14.2829L8.57163 14.283C6.70757 14.2904 4.91663 15.0089 3.56426 16.2918C3.51405 16.3394 3.46459 16.3877 3.41588 16.4366C2.15259 17.7049 1.39611 19.3945 1.29442 21.1864L1.27661 21.5002H0.99999V21.6075L0.49999 21.6078C0.497492 19.4624 1.34606 17.4035 2.85958 15.8829C4.37318 14.3622 6.42818 13.504 8.57373 13.4966ZM1.50066 21.5002H22.5421C22.5407 21.3995 22.5372 21.2989 22.5315 21.1987C22.434 19.4666 21.7049 17.8246 20.4744 16.5884C20.4265 16.5403 20.3781 16.4929 20.329 16.4464C19.0178 15.2023 17.279 14.5031 15.4665 14.4966L15.4673 14.283C15.4673 14.283 15.4673 14.283 15.4673 14.283L15.4665 14.4966C15.4662 14.4966 15.4668 14.4966 15.4665 14.4966H8.57634C8.57606 14.4966 8.57663 14.4966 8.57634 14.4966C8.57544 14.4966 8.57453 14.4966 8.57363 14.4966C8.57325 14.4966 8.57287 14.4966 8.57249 14.4966C6.76061 14.5041 5.0227 15.2037 3.71224 16.4478C3.66368 16.4939 3.61571 16.5408 3.56834 16.5884C2.33786 17.8246 1.60877 19.4667 1.51123 21.1987C1.50558 21.299 1.50205 21.3995 1.50066 21.5002ZM15.4665 14.4966C15.4662 14.4966 15.4668 14.4966 15.4665 14.4966V14.4966ZM8.57463 15.2829C6.96565 15.2896 5.41982 15.9099 4.25249 17.0173C3.21383 18.0026 2.54447 19.3075 2.34512 20.7148H21.6967C21.4973 19.3071 20.8276 18.0018 19.7884 17.0164C18.6205 15.909 17.074 15.289 15.4645 15.2829H8.57463Z" fill="black" fill-opacity="0.2"/>
<path fill-rule="evenodd" clip-rule="evenodd" d="M8.57373 13.4966L8.57546 13.4966L15.469 13.4966C17.6146 13.504 19.6696 14.3622 21.1832 15.8829C22.6968 17.4036 23.5453 19.4625 23.5428 21.6081V22.5002H0.49999V21.6078C0.49999 21.6077 0.49999 21.6079 0.49999 21.6078L0.99999 21.6075V22.0002H1.49999V21.7148H22.5428V22.0002H23.0428V21.6075V21.5002H22.7652L22.7474 21.1864C22.6457 19.3947 21.8894 17.7053 20.6264 16.4371C20.5772 16.3877 20.5273 16.3389 20.4765 16.2908C19.1235 15.0078 17.3318 14.2897 15.4673 14.283L8.57645 14.2829L8.57363 14.2829L8.57163 14.283C6.70757 14.2904 4.91663 15.0089 3.56426 16.2918C3.51405 16.3394 3.46459 16.3877 3.41588 16.4366C2.15259 17.7049 1.39611 19.3945 1.29442 21.1864L1.27661 21.5002H0.99999V21.6075L0.49999 21.6078C0.497492 19.4624 1.34606 17.4035 2.85958 15.8829C4.37318 14.3622 6.42818 13.504 8.57373 13.4966ZM1.50066 21.5002H22.5421C22.5407 21.3995 22.5372 21.2989 22.5315 21.1987C22.434 19.4666 21.7049 17.8246 20.4744 16.5884C20.4265 16.5403 20.3781 16.4929 20.329 16.4464C19.0178 15.2023 17.279 14.5031 15.4665 14.4966L15.4673 14.283C15.4673 14.283 15.4673 14.283 15.4673 14.283L15.4665 14.4966C15.4662 14.4966 15.4668 14.4966 15.4665 14.4966H8.57634C8.57606 14.4966 8.57663 14.4966 8.57634 14.4966C8.57544 14.4966 8.57453 14.4966 8.57363 14.4966C8.57325 14.4966 8.57287 14.4966 8.57249 14.4966C6.76061 14.5041 5.0227 15.2037 3.71224 16.4478C3.66368 16.4939 3.61571 16.5408 3.56834 16.5884C2.33786 17.8246 1.60877 19.4667 1.51123 21.1987C1.50558 21.299 1.50205 21.3995 1.50066 21.5002ZM15.4665 14.4966C15.4662 14.4966 15.4668 14.4966 15.4665 14.4966V14.4966ZM8.57463 15.2829C6.96565 15.2896 5.41982 15.9099 4.25249 17.0173C3.21383 18.0026 2.54447 19.3075 2.34512 20.7148H21.6967C21.4973 19.3071 20.8276 18.0018 19.7884 17.0164C18.6205 15.909 17.074 15.289 15.4645 15.2829H8.57463Z" fill="black" fill-opacity="0.2"/>
<path fill-rule="evenodd" clip-rule="evenodd" d="M8.57373 13.4966L8.57546 13.4966L15.469 13.4966C17.6146 13.504 19.6696 14.3622 21.1832 15.8829C22.6968 17.4036 23.5453 19.4625 23.5428 21.6081V22.5002H0.49999V21.6078C0.49999 21.6077 0.49999 21.6079 0.49999 21.6078L0.99999 21.6075V22.0002H1.49999V21.7148H22.5428V22.0002H23.0428V21.6075V21.5002H22.7652L22.7474 21.1864C22.6457 19.3947 21.8894 17.7053 20.6264 16.4371C20.5772 16.3877 20.5273 16.3389 20.4765 16.2908C19.1235 15.0078 17.3318 14.2897 15.4673 14.283L8.57645 14.2829L8.57363 14.2829L8.57163 14.283C6.70757 14.2904 4.91663 15.0089 3.56426 16.2918C3.51405 16.3394 3.46459 16.3877 3.41588 16.4366C2.15259 17.7049 1.39611 19.3945 1.29442 21.1864L1.27661 21.5002H0.99999V21.6075L0.49999 21.6078C0.497492 19.4624 1.34606 17.4035 2.85958 15.8829C4.37318 14.3622 6.42818 13.504 8.57373 13.4966ZM1.50066 21.5002H22.5421C22.5407 21.3995 22.5372 21.2989 22.5315 21.1987C22.434 19.4666 21.7049 17.8246 20.4744 16.5884C20.4265 16.5403 20.3781 16.4929 20.329 16.4464C19.0178 15.2023 17.279 14.5031 15.4665 14.4966L15.4673 14.283C15.4673 14.283 15.4673 14.283 15.4673 14.283L15.4665 14.4966C15.4662 14.4966 15.4668 14.4966 15.4665 14.4966H8.57634C8.57606 14.4966 8.57663 14.4966 8.57634 14.4966C8.57544 14.4966 8.57453 14.4966 8.57363 14.4966C8.57325 14.4966 8.57287 14.4966 8.57249 14.4966C6.76061 14.5041 5.0227 15.2037 3.71224 16.4478C3.66368 16.4939 3.61571 16.5408 3.56834 16.5884C2.33786 17.8246 1.60877 19.4667 1.51123 21.1987C1.50558 21.299 1.50205 21.3995 1.50066 21.5002ZM15.4665 14.4966C15.4662 14.4966 15.4668 14.4966 15.4665 14.4966V14.4966ZM8.57463 15.2829C6.96565 15.2896 5.41982 15.9099 4.25249 17.0173C3.21383 18.0026 2.54447 19.3075 2.34512 20.7148H21.6967C21.4973 19.3071 20.8276 18.0018 19.7884 17.0164C18.6205 15.909 17.074 15.289 15.4645 15.2829H8.57463Z" fill="black" fill-opacity="0.2"/>
<path d="M12.2147 14.8746C10.9415 14.8746 9.69688 14.497 8.63828 13.7897C7.57967 13.0824 6.75461 12.077 6.26739 10.9007C5.78017 9.72447 5.65268 8.43014 5.90107 7.18143C6.14945 5.93272 6.7625 4.78571 7.66277 3.88544C8.56304 2.98517 9.71007 2.37208 10.9588 2.12369C12.2075 1.87531 13.5018 2.00279 14.6781 2.49001C15.8544 2.97723 16.8597 3.80232 17.5671 4.86092C18.2744 5.91953 18.6519 7.16411 18.6519 8.43728C18.65 10.144 17.9711 11.7802 16.7643 12.987C15.5575 14.1938 13.9213 14.8726 12.2147 14.8746ZM12.2147 2.78364C11.0968 2.78364 10.0041 3.11511 9.07468 3.73614C8.14524 4.35718 7.42082 5.23987 6.99304 6.27261C6.56527 7.30534 6.45331 8.44174 6.67139 9.53808C6.88946 10.6344 7.42776 11.6415 8.21819 12.4319C9.00861 13.2223 10.0157 13.7606 11.112 13.9787C12.2084 14.1968 13.3447 14.0848 14.3775 13.6571C15.4102 13.2293 16.2929 12.5049 16.9139 11.5755C17.535 10.646 17.8665 9.55329 17.8665 8.43547C17.8643 6.93734 17.2681 5.50122 16.2086 4.44206C15.1491 3.38289 13.7128 2.78714 12.2147 2.78546V2.78364Z" fill="black"/>
<path d="M12.2147 14.8746C10.9415 14.8746 9.69688 14.497 8.63828 13.7897C7.57967 13.0824 6.75461 12.077 6.26739 10.9007C5.78017 9.72447 5.65268 8.43014 5.90107 7.18143C6.14945 5.93272 6.7625 4.78571 7.66277 3.88544C8.56304 2.98517 9.71007 2.37208 10.9588 2.12369C12.2075 1.87531 13.5018 2.00279 14.6781 2.49001C15.8544 2.97723 16.8597 3.80232 17.5671 4.86092C18.2744 5.91953 18.6519 7.16411 18.6519 8.43728C18.65 10.144 17.9711 11.7802 16.7643 12.987C15.5575 14.1938 13.9213 14.8726 12.2147 14.8746ZM12.2147 2.78364C11.0968 2.78364 10.0041 3.11511 9.07468 3.73614C8.14524 4.35718 7.42082 5.23987 6.99304 6.27261C6.56527 7.30534 6.45331 8.44174 6.67139 9.53808C6.88946 10.6344 7.42776 11.6415 8.21819 12.4319C9.00861 13.2223 10.0157 13.7606 11.112 13.9787C12.2084 14.1968 13.3447 14.0848 14.3775 13.6571C15.4102 13.2293 16.2929 12.5049 16.9139 11.5755C17.535 10.646 17.8665 9.55329 17.8665 8.43547C17.8643 6.93734 17.2681 5.50122 16.2086 4.44206C15.1491 3.38289 13.7128 2.78714 12.2147 2.78546V2.78364Z" fill="black" fill-opacity="0.2"/>
<path d="M12.2147 14.8746C10.9415 14.8746 9.69688 14.497 8.63828 13.7897C7.57967 13.0824 6.75461 12.077 6.26739 10.9007C5.78017 9.72447 5.65268 8.43014 5.90107 7.18143C6.14945 5.93272 6.7625 4.78571 7.66277 3.88544C8.56304 2.98517 9.71007 2.37208 10.9588 2.12369C12.2075 1.87531 13.5018 2.00279 14.6781 2.49001C15.8544 2.97723 16.8597 3.80232 17.5671 4.86092C18.2744 5.91953 18.6519 7.16411 18.6519 8.43728C18.65 10.144 17.9711 11.7802 16.7643 12.987C15.5575 14.1938 13.9213 14.8726 12.2147 14.8746ZM12.2147 2.78364C11.0968 2.78364 10.0041 3.11511 9.07468 3.73614C8.14524 4.35718 7.42082 5.23987 6.99304 6.27261C6.56527 7.30534 6.45331 8.44174 6.67139 9.53808C6.88946 10.6344 7.42776 11.6415 8.21819 12.4319C9.00861 13.2223 10.0157 13.7606 11.112 13.9787C12.2084 14.1968 13.3447 14.0848 14.3775 13.6571C15.4102 13.2293 16.2929 12.5049 16.9139 11.5755C17.535 10.646 17.8665 9.55329 17.8665 8.43547C17.8643 6.93734 17.2681 5.50122 16.2086 4.44206C15.1491 3.38289 13.7128 2.78714 12.2147 2.78546V2.78364Z" fill="black" fill-opacity="0.2"/>
<path d="M12.2147 14.8746C10.9415 14.8746 9.69688 14.497 8.63828 13.7897C7.57967 13.0824 6.75461 12.077 6.26739 10.9007C5.78017 9.72447 5.65268 8.43014 5.90107 7.18143C6.14945 5.93272 6.7625 4.78571 7.66277 3.88544C8.56304 2.98517 9.71007 2.37208 10.9588 2.12369C12.2075 1.87531 13.5018 2.00279 14.6781 2.49001C15.8544 2.97723 16.8597 3.80232 17.5671 4.86092C18.2744 5.91953 18.6519 7.16411 18.6519 8.43728C18.65 10.144 17.9711 11.7802 16.7643 12.987C15.5575 14.1938 13.9213 14.8726 12.2147 14.8746ZM12.2147 2.78364C11.0968 2.78364 10.0041 3.11511 9.07468 3.73614C8.14524 4.35718 7.42082 5.23987 6.99304 6.27261C6.56527 7.30534 6.45331 8.44174 6.67139 9.53808C6.88946 10.6344 7.42776 11.6415 8.21819 12.4319C9.00861 13.2223 10.0157 13.7606 11.112 13.9787C12.2084 14.1968 13.3447 14.0848 14.3775 13.6571C15.4102 13.2293 16.2929 12.5049 16.9139 11.5755C17.535 10.646 17.8665 9.55329 17.8665 8.43547C17.8643 6.93734 17.2681 5.50122 16.2086 4.44206C15.1491 3.38289 13.7128 2.78714 12.2147 2.78546V2.78364Z" fill="black" fill-opacity="0.2"/>
<path d="M12.2147 14.8746C10.9415 14.8746 9.69688 14.497 8.63828 13.7897C7.57967 13.0824 6.75461 12.077 6.26739 10.9007C5.78017 9.72447 5.65268 8.43014 5.90107 7.18143C6.14945 5.93272 6.7625 4.78571 7.66277 3.88544C8.56304 2.98517 9.71007 2.37208 10.9588 2.12369C12.2075 1.87531 13.5018 2.00279 14.6781 2.49001C15.8544 2.97723 16.8597 3.80232 17.5671 4.86092C18.2744 5.91953 18.6519 7.16411 18.6519 8.43728C18.65 10.144 17.9711 11.7802 16.7643 12.987C15.5575 14.1938 13.9213 14.8726 12.2147 14.8746ZM12.2147 2.78364C11.0968 2.78364 10.0041 3.11511 9.07468 3.73614C8.14524 4.35718 7.42082 5.23987 6.99304 6.27261C6.56527 7.30534 6.45331 8.44174 6.67139 9.53808C6.88946 10.6344 7.42776 11.6415 8.21819 12.4319C9.00861 13.2223 10.0157 13.7606 11.112 13.9787C12.2084 14.1968 13.3447 14.0848 14.3775 13.6571C15.4102 13.2293 16.2929 12.5049 16.9139 11.5755C17.535 10.646 17.8665 9.55329 17.8665 8.43547C17.8643 6.93734 17.2681 5.50122 16.2086 4.44206C15.1491 3.38289 13.7128 2.78714 12.2147 2.78546V2.78364Z" fill="black" fill-opacity="0.2"/>
<path d="M12.2147 14.8746C10.9415 14.8746 9.69688 14.497 8.63828 13.7897C7.57967 13.0824 6.75461 12.077 6.26739 10.9007C5.78017 9.72447 5.65268 8.43014 5.90107 7.18143C6.14945 5.93272 6.7625 4.78571 7.66277 3.88544C8.56304 2.98517 9.71007 2.37208 10.9588 2.12369C12.2075 1.87531 13.5018 2.00279 14.6781 2.49001C15.8544 2.97723 16.8597 3.80232 17.5671 4.86092C18.2744 5.91953 18.6519 7.16411 18.6519 8.43728C18.65 10.144 17.9711 11.7802 16.7643 12.987C15.5575 14.1938 13.9213 14.8726 12.2147 14.8746ZM12.2147 2.78364C11.0968 2.78364 10.0041 3.11511 9.07468 3.73614C8.14524 4.35718 7.42082 5.23987 6.99304 6.27261C6.56527 7.30534 6.45331 8.44174 6.67139 9.53808C6.88946 10.6344 7.42776 11.6415 8.21819 12.4319C9.00861 13.2223 10.0157 13.7606 11.112 13.9787C12.2084 14.1968 13.3447 14.0848 14.3775 13.6571C15.4102 13.2293 16.2929 12.5049 16.9139 11.5755C17.535 10.646 17.8665 9.55329 17.8665 8.43547C17.8643 6.93734 17.2681 5.50122 16.2086 4.44206C15.1491 3.38289 13.7128 2.78714 12.2147 2.78546V2.78364Z" fill="black" fill-opacity="0.2"/>
<path d="M12.2147 14.8746C10.9415 14.8746 9.69688 14.497 8.63828 13.7897C7.57967 13.0824 6.75461 12.077 6.26739 10.9007C5.78017 9.72447 5.65268 8.43014 5.90107 7.18143C6.14945 5.93272 6.7625 4.78571 7.66277 3.88544C8.56304 2.98517 9.71007 2.37208 10.9588 2.12369C12.2075 1.87531 13.5018 2.00279 14.6781 2.49001C15.8544 2.97723 16.8597 3.80232 17.5671 4.86092C18.2744 5.91953 18.6519 7.16411 18.6519 8.43728C18.65 10.144 17.9711 11.7802 16.7643 12.987C15.5575 14.1938 13.9213 14.8726 12.2147 14.8746ZM12.2147 2.78364C11.0968 2.78364 10.0041 3.11511 9.07468 3.73614C8.14524 4.35718 7.42082 5.23987 6.99304 6.27261C6.56527 7.30534 6.45331 8.44174 6.67139 9.53808C6.88946 10.6344 7.42776 11.6415 8.21819 12.4319C9.00861 13.2223 10.0157 13.7606 11.112 13.9787C12.2084 14.1968 13.3447 14.0848 14.3775 13.6571C15.4102 13.2293 16.2929 12.5049 16.9139 11.5755C17.535 10.646 17.8665 9.55329 17.8665 8.43547C17.8643 6.93734 17.2681 5.50122 16.2086 4.44206C15.1491 3.38289 13.7128 2.78714 12.2147 2.78546V2.78364Z" fill="black" fill-opacity="0.2"/>
<path d="M12.2147 14.8746C10.9415 14.8746 9.69688 14.497 8.63828 13.7897C7.57967 13.0824 6.75461 12.077 6.26739 10.9007C5.78017 9.72447 5.65268 8.43014 5.90107 7.18143C6.14945 5.93272 6.7625 4.78571 7.66277 3.88544C8.56304 2.98517 9.71007 2.37208 10.9588 2.12369C12.2075 1.87531 13.5018 2.00279 14.6781 2.49001C15.8544 2.97723 16.8597 3.80232 17.5671 4.86092C18.2744 5.91953 18.6519 7.16411 18.6519 8.43728C18.65 10.144 17.9711 11.7802 16.7643 12.987C15.5575 14.1938 13.9213 14.8726 12.2147 14.8746ZM12.2147 2.78364C11.0968 2.78364 10.0041 3.11511 9.07468 3.73614C8.14524 4.35718 7.42082 5.23987 6.99304 6.27261C6.56527 7.30534 6.45331 8.44174 6.67139 9.53808C6.88946 10.6344 7.42776 11.6415 8.21819 12.4319C9.00861 13.2223 10.0157 13.7606 11.112 13.9787C12.2084 14.1968 13.3447 14.0848 14.3775 13.6571C15.4102 13.2293 16.2929 12.5049 16.9139 11.5755C17.535 10.646 17.8665 9.55329 17.8665 8.43547C17.8643 6.93734 17.2681 5.50122 16.2086 4.44206C15.1491 3.38289 13.7128 2.78714 12.2147 2.78546V2.78364Z" fill="black" fill-opacity="0.2"/>
<path d="M12.2147 14.8746C10.9415 14.8746 9.69688 14.497 8.63828 13.7897C7.57967 13.0824 6.75461 12.077 6.26739 10.9007C5.78017 9.72447 5.65268 8.43014 5.90107 7.18143C6.14945 5.93272 6.7625 4.78571 7.66277 3.88544C8.56304 2.98517 9.71007 2.37208 10.9588 2.12369C12.2075 1.87531 13.5018 2.00279 14.6781 2.49001C15.8544 2.97723 16.8597 3.80232 17.5671 4.86092C18.2744 5.91953 18.6519 7.16411 18.6519 8.43728C18.65 10.144 17.9711 11.7802 16.7643 12.987C15.5575 14.1938 13.9213 14.8726 12.2147 14.8746ZM12.2147 2.78364C11.0968 2.78364 10.0041 3.11511 9.07468 3.73614C8.14524 4.35718 7.42082 5.23987 6.99304 6.27261C6.56527 7.30534 6.45331 8.44174 6.67139 9.53808C6.88946 10.6344 7.42776 11.6415 8.21819 12.4319C9.00861 13.2223 10.0157 13.7606 11.112 13.9787C12.2084 14.1968 13.3447 14.0848 14.3775 13.6571C15.4102 13.2293 16.2929 12.5049 16.9139 11.5755C17.535 10.646 17.8665 9.55329 17.8665 8.43547C17.8643 6.93734 17.2681 5.50122 16.2086 4.44206C15.1491 3.38289 13.7128 2.78714 12.2147 2.78546V2.78364Z" fill="black" fill-opacity="0.2"/>
<path d="M12.2147 14.8746C10.9415 14.8746 9.69688 14.497 8.63828 13.7897C7.57967 13.0824 6.75461 12.077 6.26739 10.9007C5.78017 9.72447 5.65268 8.43014 5.90107 7.18143C6.14945 5.93272 6.7625 4.78571 7.66277 3.88544C8.56304 2.98517 9.71007 2.37208 10.9588 2.12369C12.2075 1.87531 13.5018 2.00279 14.6781 2.49001C15.8544 2.97723 16.8597 3.80232 17.5671 4.86092C18.2744 5.91953 18.6519 7.16411 18.6519 8.43728C18.65 10.144 17.9711 11.7802 16.7643 12.987C15.5575 14.1938 13.9213 14.8726 12.2147 14.8746ZM12.2147 2.78364C11.0968 2.78364 10.0041 3.11511 9.07468 3.73614C8.14524 4.35718 7.42082 5.23987 6.99304 6.27261C6.56527 7.30534 6.45331 8.44174 6.67139 9.53808C6.88946 10.6344 7.42776 11.6415 8.21819 12.4319C9.00861 13.2223 10.0157 13.7606 11.112 13.9787C12.2084 14.1968 13.3447 14.0848 14.3775 13.6571C15.4102 13.2293 16.2929 12.5049 16.9139 11.5755C17.535 10.646 17.8665 9.55329 17.8665 8.43547C17.8643 6.93734 17.2681 5.50122 16.2086 4.44206C15.1491 3.38289 13.7128 2.78714 12.2147 2.78546V2.78364Z" fill="black" fill-opacity="0.2"/>
<path fill-rule="evenodd" clip-rule="evenodd" d="M12.0834 3.28531C11.1104 3.3101 10.1633 3.61012 9.35246 4.15188C8.50525 4.71797 7.84491 5.52258 7.45498 6.46395C7.06505 7.40533 6.963 8.44119 7.16178 9.44054C7.36056 10.4399 7.85124 11.3579 8.57174 12.0784C9.29223 12.7989 10.2102 13.2895 11.2096 13.4883C12.2089 13.6871 13.2448 13.5851 14.1861 13.1951C15.1275 12.8052 15.9321 12.1449 16.4982 11.2977C17.0643 10.4505 17.3665 9.45445 17.3665 8.43556C17.3643 7.07004 16.8208 5.76109 15.8551 4.79567C14.8892 3.8301 13.5798 3.28699 12.2141 3.28546L12.0834 3.28531ZM10.8612 1.6333C12.2069 1.36562 13.6018 1.50301 14.8694 2.02807C16.1371 2.55314 17.2205 3.44231 17.9828 4.58314C18.7451 5.72397 19.1519 7.06522 19.1519 8.43728V8.43785C19.1499 10.277 18.4183 12.0401 17.1179 13.3406C15.8175 14.641 14.0543 15.3725 12.2152 15.3746H12.2147C10.8426 15.3746 9.50132 14.9677 8.36049 14.2054C7.21966 13.4431 6.33051 12.3597 5.80545 11.0921C5.28038 9.82445 5.143 8.42959 5.41067 7.08389C5.67835 5.7382 6.33901 4.50209 7.30921 3.53189C8.27941 2.56169 9.51554 1.90098 10.8612 1.6333Z" fill="black"/>
<path fill-rule="evenodd" clip-rule="evenodd" d="M12.0834 3.28531C11.1104 3.3101 10.1633 3.61012 9.35246 4.15188C8.50525 4.71797 7.84491 5.52258 7.45498 6.46395C7.06505 7.40533 6.963 8.44119 7.16178 9.44054C7.36056 10.4399 7.85124 11.3579 8.57174 12.0784C9.29223 12.7989 10.2102 13.2895 11.2096 13.4883C12.2089 13.6871 13.2448 13.5851 14.1861 13.1951C15.1275 12.8052 15.9321 12.1449 16.4982 11.2977C17.0643 10.4505 17.3665 9.45445 17.3665 8.43556C17.3643 7.07004 16.8208 5.76109 15.8551 4.79567C14.8892 3.8301 13.5798 3.28699 12.2141 3.28546L12.0834 3.28531ZM10.8612 1.6333C12.2069 1.36562 13.6018 1.50301 14.8694 2.02807C16.1371 2.55314 17.2205 3.44231 17.9828 4.58314C18.7451 5.72397 19.1519 7.06522 19.1519 8.43728V8.43785C19.1499 10.277 18.4183 12.0401 17.1179 13.3406C15.8175 14.641 14.0543 15.3725 12.2152 15.3746H12.2147C10.8426 15.3746 9.50132 14.9677 8.36049 14.2054C7.21966 13.4431 6.33051 12.3597 5.80545 11.0921C5.28038 9.82445 5.143 8.42959 5.41067 7.08389C5.67835 5.7382 6.33901 4.50209 7.30921 3.53189C8.27941 2.56169 9.51554 1.90098 10.8612 1.6333Z" fill="black" fill-opacity="0.2"/>
<path fill-rule="evenodd" clip-rule="evenodd" d="M12.0834 3.28531C11.1104 3.3101 10.1633 3.61012 9.35246 4.15188C8.50525 4.71797 7.84491 5.52258 7.45498 6.46395C7.06505 7.40533 6.963 8.44119 7.16178 9.44054C7.36056 10.4399 7.85124 11.3579 8.57174 12.0784C9.29223 12.7989 10.2102 13.2895 11.2096 13.4883C12.2089 13.6871 13.2448 13.5851 14.1861 13.1951C15.1275 12.8052 15.9321 12.1449 16.4982 11.2977C17.0643 10.4505 17.3665 9.45445 17.3665 8.43556C17.3643 7.07004 16.8208 5.76109 15.8551 4.79567C14.8892 3.8301 13.5798 3.28699 12.2141 3.28546L12.0834 3.28531ZM10.8612 1.6333C12.2069 1.36562 13.6018 1.50301 14.8694 2.02807C16.1371 2.55314 17.2205 3.44231 17.9828 4.58314C18.7451 5.72397 19.1519 7.06522 19.1519 8.43728V8.43785C19.1499 10.277 18.4183 12.0401 17.1179 13.3406C15.8175 14.641 14.0543 15.3725 12.2152 15.3746H12.2147C10.8426 15.3746 9.50132 14.9677 8.36049 14.2054C7.21966 13.4431 6.33051 12.3597 5.80545 11.0921C5.28038 9.82445 5.143 8.42959 5.41067 7.08389C5.67835 5.7382 6.33901 4.50209 7.30921 3.53189C8.27941 2.56169 9.51554 1.90098 10.8612 1.6333Z" fill="black" fill-opacity="0.2"/>
<path fill-rule="evenodd" clip-rule="evenodd" d="M12.0834 3.28531C11.1104 3.3101 10.1633 3.61012 9.35246 4.15188C8.50525 4.71797 7.84491 5.52258 7.45498 6.46395C7.06505 7.40533 6.963 8.44119 7.16178 9.44054C7.36056 10.4399 7.85124 11.3579 8.57174 12.0784C9.29223 12.7989 10.2102 13.2895 11.2096 13.4883C12.2089 13.6871 13.2448 13.5851 14.1861 13.1951C15.1275 12.8052 15.9321 12.1449 16.4982 11.2977C17.0643 10.4505 17.3665 9.45445 17.3665 8.43556C17.3643 7.07004 16.8208 5.76109 15.8551 4.79567C14.8892 3.8301 13.5798 3.28699 12.2141 3.28546L12.0834 3.28531ZM10.8612 1.6333C12.2069 1.36562 13.6018 1.50301 14.8694 2.02807C16.1371 2.55314 17.2205 3.44231 17.9828 4.58314C18.7451 5.72397 19.1519 7.06522 19.1519 8.43728V8.43785C19.1499 10.277 18.4183 12.0401 17.1179 13.3406C15.8175 14.641 14.0543 15.3725 12.2152 15.3746H12.2147C10.8426 15.3746 9.50132 14.9677 8.36049 14.2054C7.21966 13.4431 6.33051 12.3597 5.80545 11.0921C5.28038 9.82445 5.143 8.42959 5.41067 7.08389C5.67835 5.7382 6.33901 4.50209 7.30921 3.53189C8.27941 2.56169 9.51554 1.90098 10.8612 1.6333Z" fill="black" fill-opacity="0.2"/>
<path fill-rule="evenodd" clip-rule="evenodd" d="M12.0834 3.28531C11.1104 3.3101 10.1633 3.61012 9.35246 4.15188C8.50525 4.71797 7.84491 5.52258 7.45498 6.46395C7.06505 7.40533 6.963 8.44119 7.16178 9.44054C7.36056 10.4399 7.85124 11.3579 8.57174 12.0784C9.29223 12.7989 10.2102 13.2895 11.2096 13.4883C12.2089 13.6871 13.2448 13.5851 14.1861 13.1951C15.1275 12.8052 15.9321 12.1449 16.4982 11.2977C17.0643 10.4505 17.3665 9.45445 17.3665 8.43556C17.3643 7.07004 16.8208 5.76109 15.8551 4.79567C14.8892 3.8301 13.5798 3.28699 12.2141 3.28546L12.0834 3.28531ZM10.8612 1.6333C12.2069 1.36562 13.6018 1.50301 14.8694 2.02807C16.1371 2.55314 17.2205 3.44231 17.9828 4.58314C18.7451 5.72397 19.1519 7.06522 19.1519 8.43728V8.43785C19.1499 10.277 18.4183 12.0401 17.1179 13.3406C15.8175 14.641 14.0543 15.3725 12.2152 15.3746H12.2147C10.8426 15.3746 9.50132 14.9677 8.36049 14.2054C7.21966 13.4431 6.33051 12.3597 5.80545 11.0921C5.28038 9.82445 5.143 8.42959 5.41067 7.08389C5.67835 5.7382 6.33901 4.50209 7.30921 3.53189C8.27941 2.56169 9.51554 1.90098 10.8612 1.6333Z" fill="black" fill-opacity="0.2"/>
<path fill-rule="evenodd" clip-rule="evenodd" d="M12.0834 3.28531C11.1104 3.3101 10.1633 3.61012 9.35246 4.15188C8.50525 4.71797 7.84491 5.52258 7.45498 6.46395C7.06505 7.40533 6.963 8.44119 7.16178 9.44054C7.36056 10.4399 7.85124 11.3579 8.57174 12.0784C9.29223 12.7989 10.2102 13.2895 11.2096 13.4883C12.2089 13.6871 13.2448 13.5851 14.1861 13.1951C15.1275 12.8052 15.9321 12.1449 16.4982 11.2977C17.0643 10.4505 17.3665 9.45445 17.3665 8.43556C17.3643 7.07004 16.8208 5.76109 15.8551 4.79567C14.8892 3.8301 13.5798 3.28699 12.2141 3.28546L12.0834 3.28531ZM10.8612 1.6333C12.2069 1.36562 13.6018 1.50301 14.8694 2.02807C16.1371 2.55314 17.2205 3.44231 17.9828 4.58314C18.7451 5.72397 19.1519 7.06522 19.1519 8.43728V8.43785C19.1499 10.277 18.4183 12.0401 17.1179 13.3406C15.8175 14.641 14.0543 15.3725 12.2152 15.3746H12.2147C10.8426 15.3746 9.50132 14.9677 8.36049 14.2054C7.21966 13.4431 6.33051 12.3597 5.80545 11.0921C5.28038 9.82445 5.143 8.42959 5.41067 7.08389C5.67835 5.7382 6.33901 4.50209 7.30921 3.53189C8.27941 2.56169 9.51554 1.90098 10.8612 1.6333Z" fill="black" fill-opacity="0.2"/>
<path fill-rule="evenodd" clip-rule="evenodd" d="M12.0834 3.28531C11.1104 3.3101 10.1633 3.61012 9.35246 4.15188C8.50525 4.71797 7.84491 5.52258 7.45498 6.46395C7.06505 7.40533 6.963 8.44119 7.16178 9.44054C7.36056 10.4399 7.85124 11.3579 8.57174 12.0784C9.29223 12.7989 10.2102 13.2895 11.2096 13.4883C12.2089 13.6871 13.2448 13.5851 14.1861 13.1951C15.1275 12.8052 15.9321 12.1449 16.4982 11.2977C17.0643 10.4505 17.3665 9.45445 17.3665 8.43556C17.3643 7.07004 16.8208 5.76109 15.8551 4.79567C14.8892 3.8301 13.5798 3.28699 12.2141 3.28546L12.0834 3.28531ZM10.8612 1.6333C12.2069 1.36562 13.6018 1.50301 14.8694 2.02807C16.1371 2.55314 17.2205 3.44231 17.9828 4.58314C18.7451 5.72397 19.1519 7.06522 19.1519 8.43728V8.43785C19.1499 10.277 18.4183 12.0401 17.1179 13.3406C15.8175 14.641 14.0543 15.3725 12.2152 15.3746H12.2147C10.8426 15.3746 9.50132 14.9677 8.36049 14.2054C7.21966 13.4431 6.33051 12.3597 5.80545 11.0921C5.28038 9.82445 5.143 8.42959 5.41067 7.08389C5.67835 5.7382 6.33901 4.50209 7.30921 3.53189C8.27941 2.56169 9.51554 1.90098 10.8612 1.6333Z" fill="black" fill-opacity="0.2"/>
<path fill-rule="evenodd" clip-rule="evenodd" d="M12.0834 3.28531C11.1104 3.3101 10.1633 3.61012 9.35246 4.15188C8.50525 4.71797 7.84491 5.52258 7.45498 6.46395C7.06505 7.40533 6.963 8.44119 7.16178 9.44054C7.36056 10.4399 7.85124 11.3579 8.57174 12.0784C9.29223 12.7989 10.2102 13.2895 11.2096 13.4883C12.2089 13.6871 13.2448 13.5851 14.1861 13.1951C15.1275 12.8052 15.9321 12.1449 16.4982 11.2977C17.0643 10.4505 17.3665 9.45445 17.3665 8.43556C17.3643 7.07004 16.8208 5.76109 15.8551 4.79567C14.8892 3.8301 13.5798 3.28699 12.2141 3.28546L12.0834 3.28531ZM10.8612 1.6333C12.2069 1.36562 13.6018 1.50301 14.8694 2.02807C16.1371 2.55314 17.2205 3.44231 17.9828 4.58314C18.7451 5.72397 19.1519 7.06522 19.1519 8.43728V8.43785C19.1499 10.277 18.4183 12.0401 17.1179 13.3406C15.8175 14.641 14.0543 15.3725 12.2152 15.3746H12.2147C10.8426 15.3746 9.50132 14.9677 8.36049 14.2054C7.21966 13.4431 6.33051 12.3597 5.80545 11.0921C5.28038 9.82445 5.143 8.42959 5.41067 7.08389C5.67835 5.7382 6.33901 4.50209 7.30921 3.53189C8.27941 2.56169 9.51554 1.90098 10.8612 1.6333Z" fill="black" fill-opacity="0.2"/>
<path fill-rule="evenodd" clip-rule="evenodd" d="M12.0834 3.28531C11.1104 3.3101 10.1633 3.61012 9.35246 4.15188C8.50525 4.71797 7.84491 5.52258 7.45498 6.46395C7.06505 7.40533 6.963 8.44119 7.16178 9.44054C7.36056 10.4399 7.85124 11.3579 8.57174 12.0784C9.29223 12.7989 10.2102 13.2895 11.2096 13.4883C12.2089 13.6871 13.2448 13.5851 14.1861 13.1951C15.1275 12.8052 15.9321 12.1449 16.4982 11.2977C17.0643 10.4505 17.3665 9.45445 17.3665 8.43556C17.3643 7.07004 16.8208 5.76109 15.8551 4.79567C14.8892 3.8301 13.5798 3.28699 12.2141 3.28546L12.0834 3.28531ZM10.8612 1.6333C12.2069 1.36562 13.6018 1.50301 14.8694 2.02807C16.1371 2.55314 17.2205 3.44231 17.9828 4.58314C18.7451 5.72397 19.1519 7.06522 19.1519 8.43728V8.43785C19.1499 10.277 18.4183 12.0401 17.1179 13.3406C15.8175 14.641 14.0543 15.3725 12.2152 15.3746H12.2147C10.8426 15.3746 9.50132 14.9677 8.36049 14.2054C7.21966 13.4431 6.33051 12.3597 5.80545 11.0921C5.28038 9.82445 5.143 8.42959 5.41067 7.08389C5.67835 5.7382 6.33901 4.50209 7.30921 3.53189C8.27941 2.56169 9.51554 1.90098 10.8612 1.6333Z" fill="black" fill-opacity="0.2"/>
<path fill-rule="evenodd" clip-rule="evenodd" d="M12.0834 3.28531C11.1104 3.3101 10.1633 3.61012 9.35246 4.15188C8.50525 4.71797 7.84491 5.52258 7.45498 6.46395C7.06505 7.40533 6.963 8.44119 7.16178 9.44054C7.36056 10.4399 7.85124 11.3579 8.57174 12.0784C9.29223 12.7989 10.2102 13.2895 11.2096 13.4883C12.2089 13.6871 13.2448 13.5851 14.1861 13.1951C15.1275 12.8052 15.9321 12.1449 16.4982 11.2977C17.0643 10.4505 17.3665 9.45445 17.3665 8.43556C17.3643 7.07004 16.8208 5.76109 15.8551 4.79567C14.8892 3.8301 13.5798 3.28699 12.2141 3.28546L12.0834 3.28531ZM10.8612 1.6333C12.2069 1.36562 13.6018 1.50301 14.8694 2.02807C16.1371 2.55314 17.2205 3.44231 17.9828 4.58314C18.7451 5.72397 19.1519 7.06522 19.1519 8.43728V8.43785C19.1499 10.277 18.4183 12.0401 17.1179 13.3406C15.8175 14.641 14.0543 15.3725 12.2152 15.3746H12.2147C10.8426 15.3746 9.50132 14.9677 8.36049 14.2054C7.21966 13.4431 6.33051 12.3597 5.80545 11.0921C5.28038 9.82445 5.143 8.42959 5.41067 7.08389C5.67835 5.7382 6.33901 4.50209 7.30921 3.53189C8.27941 2.56169 9.51554 1.90098 10.8612 1.6333Z" fill="black" fill-opacity="0.2"/>
</svg>
