<svg width="24" height="24" viewBox="0 0 24 24" fill="none" xmlns="http://www.w3.org/2000/svg">
<path fill-rule="evenodd" clip-rule="evenodd" d="M23.2351 14.427L11.7881 5.43864L0.736145 14.4499L3.26386 17.5501L11.8351 10.5614L20.7649 17.573L23.2351 14.427Z" fill="black"/>
<path fill-rule="evenodd" clip-rule="evenodd" d="M23.2351 14.427L11.7881 5.43864L0.736145 14.4499L3.26386 17.5501L11.8351 10.5614L20.7649 17.573L23.2351 14.427Z" fill="black" fill-opacity="0.2"/>
<path fill-rule="evenodd" clip-rule="evenodd" d="M23.2351 14.427L11.7881 5.43864L0.736145 14.4499L3.26386 17.5501L11.8351 10.5614L20.7649 17.573L23.2351 14.427Z" fill="black" fill-opacity="0.2"/>
<path fill-rule="evenodd" clip-rule="evenodd" d="M23.2351 14.427L11.7881 5.43864L0.736145 14.4499L3.26386 17.5501L11.8351 10.5614L20.7649 17.573L23.2351 14.427Z" fill="black" fill-opacity="0.2"/>
<path fill-rule="evenodd" clip-rule="evenodd" d="M23.2351 14.427L11.7881 5.43864L0.736145 14.4499L3.26386 17.5501L11.8351 10.5614L20.7649 17.573L23.2351 14.427Z" fill="black" fill-opacity="0.2"/>
<path fill-rule="evenodd" clip-rule="evenodd" d="M23.2351 14.427L11.7881 5.43864L0.736145 14.4499L3.26386 17.5501L11.8351 10.5614L20.7649 17.573L23.2351 14.427Z" fill="black" fill-opacity="0.2"/>
<path fill-rule="evenodd" clip-rule="evenodd" d="M23.2351 14.427L11.7881 5.43864L0.736145 14.4499L3.26386 17.5501L11.8351 10.5614L20.7649 17.573L23.2351 14.427Z" fill="black" fill-opacity="0.2"/>
<path fill-rule="evenodd" clip-rule="evenodd" d="M23.2351 14.427L11.7881 5.43864L0.736145 14.4499L3.26386 17.5501L11.8351 10.5614L20.7649 17.573L23.2351 14.427Z" fill="black" fill-opacity="0.2"/>
<path fill-rule="evenodd" clip-rule="evenodd" d="M23.2351 14.427L11.7881 5.43864L0.736145 14.4499L3.26386 17.5501L11.8351 10.5614L20.7649 17.573L23.2351 14.427Z" fill="black" fill-opacity="0.2"/>
<path fill-rule="evenodd" clip-rule="evenodd" d="M23.2351 14.427L11.7881 5.43864L0.736145 14.4499L3.26386 17.5501L11.8351 10.5614L20.7649 17.573L23.2351 14.427Z" fill="black" fill-opacity="0.2"/>
</svg>
