<svg width="24" height="24" viewBox="0 0 24 24" fill="none" xmlns="http://www.w3.org/2000/svg">
<g clip-path="url(#clip0_414_2754)">
<path fill-rule="evenodd" clip-rule="evenodd" d="M19.8413 11.2288H23.3266L23.326 11.2282C23.509 11.2328 23.6826 11.3097 23.8089 11.4421C23.9352 11.5745 24.0039 11.7515 23.9998 11.9344V23.1639C24.0039 23.3468 23.9352 23.5239 23.8089 23.6562C23.6826 23.7886 23.509 23.8655 23.326 23.8701H0.67395C0.491041 23.8655 0.317411 23.7886 0.191107 23.6562C0.0648036 23.5239 -0.0038598 23.3468 0.00016768 23.1639V0.70619C-0.0038598 0.523269 0.0648036 0.346214 0.191107 0.213836C0.317411 0.0814593 0.491041 0.00456157 0.67395 0H11.9994C12.1823 0.00456157 12.356 0.0814593 12.4823 0.213836C12.6086 0.346214 12.6772 0.523269 12.6732 0.70619V3.35815C13.2309 3.51511 13.7306 3.83152 14.111 4.26852C14.4914 4.70552 14.7359 5.2441 14.8145 5.81812C14.9458 6.55751 14.8 7.31935 14.4049 7.958C14.0099 8.59665 13.3934 9.06733 12.6732 9.28007V11.2288H15.4847C15.6676 11.2334 15.8413 11.3103 15.9676 11.4427C16.0939 11.5751 16.1625 11.7521 16.1585 11.935C16.1414 12.143 16.1676 12.3523 16.2354 12.5497C16.3032 12.747 16.4112 12.9282 16.5526 13.0817C16.694 13.2352 16.8657 13.3577 17.0568 13.4415C17.2479 13.5253 17.4543 13.5686 17.663 13.5686C17.8717 13.5686 18.0781 13.5253 18.2693 13.4415C18.4604 13.3577 18.632 13.2352 18.7734 13.0817C18.9148 12.9282 19.0228 12.747 19.0906 12.5497C19.1585 12.3523 19.1846 12.143 19.1675 11.935C19.1635 11.7521 19.2321 11.5751 19.3584 11.4427C19.4847 11.3103 19.6584 11.2334 19.8413 11.2288ZM13.0888 5.19479C12.807 4.8888 12.4156 4.70674 12 4.68833L12.0006 4.68653C11.8177 4.68197 11.644 4.60507 11.5177 4.4727C11.3914 4.34032 11.3228 4.16327 11.3268 3.98034V1.41118H1.34773V11.23H3.12672C3.24132 10.6631 3.52056 10.1426 3.92952 9.73368C4.33848 9.32472 4.85898 9.04547 5.42587 8.93088C5.78256 8.86686 6.1485 8.8753 6.50186 8.95571C6.85522 9.03611 7.18879 9.18682 7.48267 9.39887C8.09192 9.84192 8.5167 10.4938 8.67602 11.23H11.3262V8.66088C11.3222 8.47796 11.3909 8.3009 11.5172 8.16853C11.6435 8.03615 11.8171 7.95925 12 7.95469C12.4156 7.93629 12.807 7.75422 13.0888 7.44824C13.3706 7.14225 13.52 6.7372 13.5042 6.32151C13.52 5.90582 13.3706 5.50077 13.0888 5.19479ZM10.9308 18.6592C11.2091 18.9617 11.5909 19.1487 12.0006 19.1829L12 19.1823C12.1829 19.1869 12.3565 19.2638 12.4828 19.3962C12.6091 19.5285 12.6778 19.7056 12.6738 19.8885V22.4577H22.6529V12.6406H20.4383C20.3237 13.2075 20.0444 13.728 19.6355 14.137C19.2265 14.5459 18.706 14.8252 18.1391 14.9398C17.7824 15.0038 17.4165 14.9954 17.0631 14.915C16.7098 14.8346 16.3762 14.6838 16.0824 14.4718C15.4731 14.0287 15.0483 13.3769 14.889 12.6406H12.6744V15.2098C12.6784 15.3927 12.6097 15.5698 12.4834 15.7021C12.3571 15.8345 12.1835 15.9114 12.0006 15.916C11.5909 15.9502 11.2091 16.1372 10.9308 16.4397C10.6525 16.7423 10.498 17.1384 10.498 17.5495C10.498 17.9605 10.6525 18.3566 10.9308 18.6592ZM4.47377 11.3198C4.40595 11.5172 4.37977 11.7264 4.39691 11.9344C4.40094 12.1174 4.33286 12.2944 4.20655 12.4268C4.08025 12.5592 3.90662 12.6361 3.72371 12.6406H1.34773V22.4601H11.3268V20.5113C10.7691 20.3544 10.2693 20.0379 9.88893 19.6009C9.50853 19.1639 9.26401 18.6254 9.18541 18.0513C9.05416 17.312 9.20002 16.5501 9.59505 15.9115C9.99009 15.2728 10.6066 14.8021 11.3268 14.5894V12.6406H8.07966C7.89675 12.6361 7.72312 12.5592 7.59681 12.4268C7.47051 12.2944 7.40185 12.1174 7.40587 11.9344C7.42301 11.7264 7.39684 11.5172 7.32901 11.3198C7.26118 11.1224 7.15314 10.9413 7.01176 10.7878C6.87039 10.6343 6.69873 10.5118 6.50761 10.428C6.31649 10.3441 6.11008 10.3009 5.90139 10.3009C5.6927 10.3009 5.48626 10.3441 5.29514 10.428C5.10401 10.5118 4.93236 10.6343 4.79098 10.7878C4.64961 10.9413 4.5416 11.1224 4.47377 11.3198ZM18.7511 5.66403C19.2178 5.49905 19.6301 5.20896 19.943 4.82548C20.256 4.442 20.4574 3.97987 20.5255 3.48962C20.5935 2.99936 20.5255 2.49984 20.3288 2.04563C20.1322 1.59143 19.8144 1.20003 19.4103 0.914206C19.0062 0.628383 18.5314 0.459136 18.0376 0.424962C17.5438 0.390788 17.0501 0.493003 16.6105 0.720434C16.1709 0.947866 15.8023 1.29176 15.5449 1.71454C15.2875 2.13732 15.1513 2.62271 15.1512 3.11767C15.1512 3.19723 15.1828 3.27353 15.239 3.32979C15.2953 3.38605 15.3716 3.41766 15.4512 3.41766H16.6512C16.7307 3.41766 16.8071 3.38605 16.8633 3.32979C16.9196 3.27353 16.9512 3.19723 16.9512 3.11767C16.9512 2.93966 17.004 2.76566 17.1028 2.61766C17.2017 2.46966 17.3423 2.3543 17.5067 2.28619C17.6712 2.21807 17.8522 2.20024 18.0267 2.23497C18.2013 2.2697 18.3617 2.35541 18.4875 2.48128C18.6134 2.60714 18.6991 2.76751 18.7339 2.94209C18.7686 3.11667 18.7507 3.29762 18.6826 3.46208C18.6145 3.62653 18.4992 3.76709 18.3512 3.86598C18.2032 3.96487 18.0292 4.01765 17.8512 4.01765C17.6125 4.01765 17.3835 4.11247 17.2148 4.28125C17.046 4.45003 16.9512 4.67895 16.9512 4.91764V7.6176C16.9512 7.69717 16.9828 7.77347 17.039 7.82973C17.0953 7.88599 17.1716 7.9176 17.2512 7.9176H18.4511C18.5307 7.9176 18.607 7.88599 18.6633 7.82973C18.7195 7.77347 18.7511 7.69717 18.7511 7.6176V5.66403ZM17.8517 8.51868C17.6737 8.51868 17.4997 8.57147 17.3517 8.67036C17.2037 8.76925 17.0883 8.90981 17.0202 9.07426C16.9521 9.23871 16.9343 9.41966 16.969 9.59424C17.0037 9.76882 17.0894 9.92919 17.2153 10.0551C17.3412 10.1809 17.5015 10.2666 17.6761 10.3014C17.8507 10.3361 18.0316 10.3183 18.1961 10.2501C18.3605 10.182 18.5011 10.0667 18.6 9.91867C18.6989 9.77067 18.7517 9.59666 18.7517 9.41866C18.7517 9.17997 18.6569 8.95106 18.4881 8.78228C18.3193 8.6135 18.0904 8.51868 17.8517 8.51868Z" fill="black"/>
<path fill-rule="evenodd" clip-rule="evenodd" d="M19.8413 11.2288H23.3266L23.326 11.2282C23.509 11.2328 23.6826 11.3097 23.8089 11.4421C23.9352 11.5745 24.0039 11.7515 23.9998 11.9344V23.1639C24.0039 23.3468 23.9352 23.5239 23.8089 23.6562C23.6826 23.7886 23.509 23.8655 23.326 23.8701H0.67395C0.491041 23.8655 0.317411 23.7886 0.191107 23.6562C0.0648036 23.5239 -0.0038598 23.3468 0.00016768 23.1639V0.70619C-0.0038598 0.523269 0.0648036 0.346214 0.191107 0.213836C0.317411 0.0814593 0.491041 0.00456157 0.67395 0H11.9994C12.1823 0.00456157 12.356 0.0814593 12.4823 0.213836C12.6086 0.346214 12.6772 0.523269 12.6732 0.70619V3.35815C13.2309 3.51511 13.7306 3.83152 14.111 4.26852C14.4914 4.70552 14.7359 5.2441 14.8145 5.81812C14.9458 6.55751 14.8 7.31935 14.4049 7.958C14.0099 8.59665 13.3934 9.06733 12.6732 9.28007V11.2288H15.4847C15.6676 11.2334 15.8413 11.3103 15.9676 11.4427C16.0939 11.5751 16.1625 11.7521 16.1585 11.935C16.1414 12.143 16.1676 12.3523 16.2354 12.5497C16.3032 12.747 16.4112 12.9282 16.5526 13.0817C16.694 13.2352 16.8657 13.3577 17.0568 13.4415C17.2479 13.5253 17.4543 13.5686 17.663 13.5686C17.8717 13.5686 18.0781 13.5253 18.2693 13.4415C18.4604 13.3577 18.632 13.2352 18.7734 13.0817C18.9148 12.9282 19.0228 12.747 19.0906 12.5497C19.1585 12.3523 19.1846 12.143 19.1675 11.935C19.1635 11.7521 19.2321 11.5751 19.3584 11.4427C19.4847 11.3103 19.6584 11.2334 19.8413 11.2288ZM13.0888 5.19479C12.807 4.8888 12.4156 4.70674 12 4.68833L12.0006 4.68653C11.8177 4.68197 11.644 4.60507 11.5177 4.4727C11.3914 4.34032 11.3228 4.16327 11.3268 3.98034V1.41118H1.34773V11.23H3.12672C3.24132 10.6631 3.52056 10.1426 3.92952 9.73368C4.33848 9.32472 4.85898 9.04547 5.42587 8.93088C5.78256 8.86686 6.1485 8.8753 6.50186 8.95571C6.85522 9.03611 7.18879 9.18682 7.48267 9.39887C8.09192 9.84192 8.5167 10.4938 8.67602 11.23H11.3262V8.66088C11.3222 8.47796 11.3909 8.3009 11.5172 8.16853C11.6435 8.03615 11.8171 7.95925 12 7.95469C12.4156 7.93629 12.807 7.75422 13.0888 7.44824C13.3706 7.14225 13.52 6.7372 13.5042 6.32151C13.52 5.90582 13.3706 5.50077 13.0888 5.19479ZM10.9308 18.6592C11.2091 18.9617 11.5909 19.1487 12.0006 19.1829L12 19.1823C12.1829 19.1869 12.3565 19.2638 12.4828 19.3962C12.6091 19.5285 12.6778 19.7056 12.6738 19.8885V22.4577H22.6529V12.6406H20.4383C20.3237 13.2075 20.0444 13.728 19.6355 14.137C19.2265 14.5459 18.706 14.8252 18.1391 14.9398C17.7824 15.0038 17.4165 14.9954 17.0631 14.915C16.7098 14.8346 16.3762 14.6838 16.0824 14.4718C15.4731 14.0287 15.0483 13.3769 14.889 12.6406H12.6744V15.2098C12.6784 15.3927 12.6097 15.5698 12.4834 15.7021C12.3571 15.8345 12.1835 15.9114 12.0006 15.916C11.5909 15.9502 11.2091 16.1372 10.9308 16.4397C10.6525 16.7423 10.498 17.1384 10.498 17.5495C10.498 17.9605 10.6525 18.3566 10.9308 18.6592ZM4.47377 11.3198C4.40595 11.5172 4.37977 11.7264 4.39691 11.9344C4.40094 12.1174 4.33286 12.2944 4.20655 12.4268C4.08025 12.5592 3.90662 12.6361 3.72371 12.6406H1.34773V22.4601H11.3268V20.5113C10.7691 20.3544 10.2693 20.0379 9.88893 19.6009C9.50853 19.1639 9.26401 18.6254 9.18541 18.0513C9.05416 17.312 9.20002 16.5501 9.59505 15.9115C9.99009 15.2728 10.6066 14.8021 11.3268 14.5894V12.6406H8.07966C7.89675 12.6361 7.72312 12.5592 7.59681 12.4268C7.47051 12.2944 7.40185 12.1174 7.40587 11.9344C7.42301 11.7264 7.39684 11.5172 7.32901 11.3198C7.26118 11.1224 7.15314 10.9413 7.01176 10.7878C6.87039 10.6343 6.69873 10.5118 6.50761 10.428C6.31649 10.3441 6.11008 10.3009 5.90139 10.3009C5.6927 10.3009 5.48626 10.3441 5.29514 10.428C5.10401 10.5118 4.93236 10.6343 4.79098 10.7878C4.64961 10.9413 4.5416 11.1224 4.47377 11.3198ZM18.7511 5.66403C19.2178 5.49905 19.6301 5.20896 19.943 4.82548C20.256 4.442 20.4574 3.97987 20.5255 3.48962C20.5935 2.99936 20.5255 2.49984 20.3288 2.04563C20.1322 1.59143 19.8144 1.20003 19.4103 0.914206C19.0062 0.628383 18.5314 0.459136 18.0376 0.424962C17.5438 0.390788 17.0501 0.493003 16.6105 0.720434C16.1709 0.947866 15.8023 1.29176 15.5449 1.71454C15.2875 2.13732 15.1513 2.62271 15.1512 3.11767C15.1512 3.19723 15.1828 3.27353 15.239 3.32979C15.2953 3.38605 15.3716 3.41766 15.4512 3.41766H16.6512C16.7307 3.41766 16.8071 3.38605 16.8633 3.32979C16.9196 3.27353 16.9512 3.19723 16.9512 3.11767C16.9512 2.93966 17.004 2.76566 17.1028 2.61766C17.2017 2.46966 17.3423 2.3543 17.5067 2.28619C17.6712 2.21807 17.8522 2.20024 18.0267 2.23497C18.2013 2.2697 18.3617 2.35541 18.4875 2.48128C18.6134 2.60714 18.6991 2.76751 18.7339 2.94209C18.7686 3.11667 18.7507 3.29762 18.6826 3.46208C18.6145 3.62653 18.4992 3.76709 18.3512 3.86598C18.2032 3.96487 18.0292 4.01765 17.8512 4.01765C17.6125 4.01765 17.3835 4.11247 17.2148 4.28125C17.046 4.45003 16.9512 4.67895 16.9512 4.91764V7.6176C16.9512 7.69717 16.9828 7.77347 17.039 7.82973C17.0953 7.88599 17.1716 7.9176 17.2512 7.9176H18.4511C18.5307 7.9176 18.607 7.88599 18.6633 7.82973C18.7195 7.77347 18.7511 7.69717 18.7511 7.6176V5.66403ZM17.8517 8.51868C17.6737 8.51868 17.4997 8.57147 17.3517 8.67036C17.2037 8.76925 17.0883 8.90981 17.0202 9.07426C16.9521 9.23871 16.9343 9.41966 16.969 9.59424C17.0037 9.76882 17.0894 9.92919 17.2153 10.0551C17.3412 10.1809 17.5015 10.2666 17.6761 10.3014C17.8507 10.3361 18.0316 10.3183 18.1961 10.2501C18.3605 10.182 18.5011 10.0667 18.6 9.91867C18.6989 9.77067 18.7517 9.59666 18.7517 9.41866C18.7517 9.17997 18.6569 8.95106 18.4881 8.78228C18.3193 8.6135 18.0904 8.51868 17.8517 8.51868Z" fill="black" fill-opacity="0.2"/>
<path fill-rule="evenodd" clip-rule="evenodd" d="M19.8413 11.2288H23.3266L23.326 11.2282C23.509 11.2328 23.6826 11.3097 23.8089 11.4421C23.9352 11.5745 24.0039 11.7515 23.9998 11.9344V23.1639C24.0039 23.3468 23.9352 23.5239 23.8089 23.6562C23.6826 23.7886 23.509 23.8655 23.326 23.8701H0.67395C0.491041 23.8655 0.317411 23.7886 0.191107 23.6562C0.0648036 23.5239 -0.0038598 23.3468 0.00016768 23.1639V0.70619C-0.0038598 0.523269 0.0648036 0.346214 0.191107 0.213836C0.317411 0.0814593 0.491041 0.00456157 0.67395 0H11.9994C12.1823 0.00456157 12.356 0.0814593 12.4823 0.213836C12.6086 0.346214 12.6772 0.523269 12.6732 0.70619V3.35815C13.2309 3.51511 13.7306 3.83152 14.111 4.26852C14.4914 4.70552 14.7359 5.2441 14.8145 5.81812C14.9458 6.55751 14.8 7.31935 14.4049 7.958C14.0099 8.59665 13.3934 9.06733 12.6732 9.28007V11.2288H15.4847C15.6676 11.2334 15.8413 11.3103 15.9676 11.4427C16.0939 11.5751 16.1625 11.7521 16.1585 11.935C16.1414 12.143 16.1676 12.3523 16.2354 12.5497C16.3032 12.747 16.4112 12.9282 16.5526 13.0817C16.694 13.2352 16.8657 13.3577 17.0568 13.4415C17.2479 13.5253 17.4543 13.5686 17.663 13.5686C17.8717 13.5686 18.0781 13.5253 18.2693 13.4415C18.4604 13.3577 18.632 13.2352 18.7734 13.0817C18.9148 12.9282 19.0228 12.747 19.0906 12.5497C19.1585 12.3523 19.1846 12.143 19.1675 11.935C19.1635 11.7521 19.2321 11.5751 19.3584 11.4427C19.4847 11.3103 19.6584 11.2334 19.8413 11.2288ZM13.0888 5.19479C12.807 4.8888 12.4156 4.70674 12 4.68833L12.0006 4.68653C11.8177 4.68197 11.644 4.60507 11.5177 4.4727C11.3914 4.34032 11.3228 4.16327 11.3268 3.98034V1.41118H1.34773V11.23H3.12672C3.24132 10.6631 3.52056 10.1426 3.92952 9.73368C4.33848 9.32472 4.85898 9.04547 5.42587 8.93088C5.78256 8.86686 6.1485 8.8753 6.50186 8.95571C6.85522 9.03611 7.18879 9.18682 7.48267 9.39887C8.09192 9.84192 8.5167 10.4938 8.67602 11.23H11.3262V8.66088C11.3222 8.47796 11.3909 8.3009 11.5172 8.16853C11.6435 8.03615 11.8171 7.95925 12 7.95469C12.4156 7.93629 12.807 7.75422 13.0888 7.44824C13.3706 7.14225 13.52 6.7372 13.5042 6.32151C13.52 5.90582 13.3706 5.50077 13.0888 5.19479ZM10.9308 18.6592C11.2091 18.9617 11.5909 19.1487 12.0006 19.1829L12 19.1823C12.1829 19.1869 12.3565 19.2638 12.4828 19.3962C12.6091 19.5285 12.6778 19.7056 12.6738 19.8885V22.4577H22.6529V12.6406H20.4383C20.3237 13.2075 20.0444 13.728 19.6355 14.137C19.2265 14.5459 18.706 14.8252 18.1391 14.9398C17.7824 15.0038 17.4165 14.9954 17.0631 14.915C16.7098 14.8346 16.3762 14.6838 16.0824 14.4718C15.4731 14.0287 15.0483 13.3769 14.889 12.6406H12.6744V15.2098C12.6784 15.3927 12.6097 15.5698 12.4834 15.7021C12.3571 15.8345 12.1835 15.9114 12.0006 15.916C11.5909 15.9502 11.2091 16.1372 10.9308 16.4397C10.6525 16.7423 10.498 17.1384 10.498 17.5495C10.498 17.9605 10.6525 18.3566 10.9308 18.6592ZM4.47377 11.3198C4.40595 11.5172 4.37977 11.7264 4.39691 11.9344C4.40094 12.1174 4.33286 12.2944 4.20655 12.4268C4.08025 12.5592 3.90662 12.6361 3.72371 12.6406H1.34773V22.4601H11.3268V20.5113C10.7691 20.3544 10.2693 20.0379 9.88893 19.6009C9.50853 19.1639 9.26401 18.6254 9.18541 18.0513C9.05416 17.312 9.20002 16.5501 9.59505 15.9115C9.99009 15.2728 10.6066 14.8021 11.3268 14.5894V12.6406H8.07966C7.89675 12.6361 7.72312 12.5592 7.59681 12.4268C7.47051 12.2944 7.40185 12.1174 7.40587 11.9344C7.42301 11.7264 7.39684 11.5172 7.32901 11.3198C7.26118 11.1224 7.15314 10.9413 7.01176 10.7878C6.87039 10.6343 6.69873 10.5118 6.50761 10.428C6.31649 10.3441 6.11008 10.3009 5.90139 10.3009C5.6927 10.3009 5.48626 10.3441 5.29514 10.428C5.10401 10.5118 4.93236 10.6343 4.79098 10.7878C4.64961 10.9413 4.5416 11.1224 4.47377 11.3198ZM18.7511 5.66403C19.2178 5.49905 19.6301 5.20896 19.943 4.82548C20.256 4.442 20.4574 3.97987 20.5255 3.48962C20.5935 2.99936 20.5255 2.49984 20.3288 2.04563C20.1322 1.59143 19.8144 1.20003 19.4103 0.914206C19.0062 0.628383 18.5314 0.459136 18.0376 0.424962C17.5438 0.390788 17.0501 0.493003 16.6105 0.720434C16.1709 0.947866 15.8023 1.29176 15.5449 1.71454C15.2875 2.13732 15.1513 2.62271 15.1512 3.11767C15.1512 3.19723 15.1828 3.27353 15.239 3.32979C15.2953 3.38605 15.3716 3.41766 15.4512 3.41766H16.6512C16.7307 3.41766 16.8071 3.38605 16.8633 3.32979C16.9196 3.27353 16.9512 3.19723 16.9512 3.11767C16.9512 2.93966 17.004 2.76566 17.1028 2.61766C17.2017 2.46966 17.3423 2.3543 17.5067 2.28619C17.6712 2.21807 17.8522 2.20024 18.0267 2.23497C18.2013 2.2697 18.3617 2.35541 18.4875 2.48128C18.6134 2.60714 18.6991 2.76751 18.7339 2.94209C18.7686 3.11667 18.7507 3.29762 18.6826 3.46208C18.6145 3.62653 18.4992 3.76709 18.3512 3.86598C18.2032 3.96487 18.0292 4.01765 17.8512 4.01765C17.6125 4.01765 17.3835 4.11247 17.2148 4.28125C17.046 4.45003 16.9512 4.67895 16.9512 4.91764V7.6176C16.9512 7.69717 16.9828 7.77347 17.039 7.82973C17.0953 7.88599 17.1716 7.9176 17.2512 7.9176H18.4511C18.5307 7.9176 18.607 7.88599 18.6633 7.82973C18.7195 7.77347 18.7511 7.69717 18.7511 7.6176V5.66403ZM17.8517 8.51868C17.6737 8.51868 17.4997 8.57147 17.3517 8.67036C17.2037 8.76925 17.0883 8.90981 17.0202 9.07426C16.9521 9.23871 16.9343 9.41966 16.969 9.59424C17.0037 9.76882 17.0894 9.92919 17.2153 10.0551C17.3412 10.1809 17.5015 10.2666 17.6761 10.3014C17.8507 10.3361 18.0316 10.3183 18.1961 10.2501C18.3605 10.182 18.5011 10.0667 18.6 9.91867C18.6989 9.77067 18.7517 9.59666 18.7517 9.41866C18.7517 9.17997 18.6569 8.95106 18.4881 8.78228C18.3193 8.6135 18.0904 8.51868 17.8517 8.51868Z" fill="black" fill-opacity="0.2"/>
<path fill-rule="evenodd" clip-rule="evenodd" d="M19.8413 11.2288H23.3266L23.326 11.2282C23.509 11.2328 23.6826 11.3097 23.8089 11.4421C23.9352 11.5745 24.0039 11.7515 23.9998 11.9344V23.1639C24.0039 23.3468 23.9352 23.5239 23.8089 23.6562C23.6826 23.7886 23.509 23.8655 23.326 23.8701H0.67395C0.491041 23.8655 0.317411 23.7886 0.191107 23.6562C0.0648036 23.5239 -0.0038598 23.3468 0.00016768 23.1639V0.70619C-0.0038598 0.523269 0.0648036 0.346214 0.191107 0.213836C0.317411 0.0814593 0.491041 0.00456157 0.67395 0H11.9994C12.1823 0.00456157 12.356 0.0814593 12.4823 0.213836C12.6086 0.346214 12.6772 0.523269 12.6732 0.70619V3.35815C13.2309 3.51511 13.7306 3.83152 14.111 4.26852C14.4914 4.70552 14.7359 5.2441 14.8145 5.81812C14.9458 6.55751 14.8 7.31935 14.4049 7.958C14.0099 8.59665 13.3934 9.06733 12.6732 9.28007V11.2288H15.4847C15.6676 11.2334 15.8413 11.3103 15.9676 11.4427C16.0939 11.5751 16.1625 11.7521 16.1585 11.935C16.1414 12.143 16.1676 12.3523 16.2354 12.5497C16.3032 12.747 16.4112 12.9282 16.5526 13.0817C16.694 13.2352 16.8657 13.3577 17.0568 13.4415C17.2479 13.5253 17.4543 13.5686 17.663 13.5686C17.8717 13.5686 18.0781 13.5253 18.2693 13.4415C18.4604 13.3577 18.632 13.2352 18.7734 13.0817C18.9148 12.9282 19.0228 12.747 19.0906 12.5497C19.1585 12.3523 19.1846 12.143 19.1675 11.935C19.1635 11.7521 19.2321 11.5751 19.3584 11.4427C19.4847 11.3103 19.6584 11.2334 19.8413 11.2288ZM13.0888 5.19479C12.807 4.8888 12.4156 4.70674 12 4.68833L12.0006 4.68653C11.8177 4.68197 11.644 4.60507 11.5177 4.4727C11.3914 4.34032 11.3228 4.16327 11.3268 3.98034V1.41118H1.34773V11.23H3.12672C3.24132 10.6631 3.52056 10.1426 3.92952 9.73368C4.33848 9.32472 4.85898 9.04547 5.42587 8.93088C5.78256 8.86686 6.1485 8.8753 6.50186 8.95571C6.85522 9.03611 7.18879 9.18682 7.48267 9.39887C8.09192 9.84192 8.5167 10.4938 8.67602 11.23H11.3262V8.66088C11.3222 8.47796 11.3909 8.3009 11.5172 8.16853C11.6435 8.03615 11.8171 7.95925 12 7.95469C12.4156 7.93629 12.807 7.75422 13.0888 7.44824C13.3706 7.14225 13.52 6.7372 13.5042 6.32151C13.52 5.90582 13.3706 5.50077 13.0888 5.19479ZM10.9308 18.6592C11.2091 18.9617 11.5909 19.1487 12.0006 19.1829L12 19.1823C12.1829 19.1869 12.3565 19.2638 12.4828 19.3962C12.6091 19.5285 12.6778 19.7056 12.6738 19.8885V22.4577H22.6529V12.6406H20.4383C20.3237 13.2075 20.0444 13.728 19.6355 14.137C19.2265 14.5459 18.706 14.8252 18.1391 14.9398C17.7824 15.0038 17.4165 14.9954 17.0631 14.915C16.7098 14.8346 16.3762 14.6838 16.0824 14.4718C15.4731 14.0287 15.0483 13.3769 14.889 12.6406H12.6744V15.2098C12.6784 15.3927 12.6097 15.5698 12.4834 15.7021C12.3571 15.8345 12.1835 15.9114 12.0006 15.916C11.5909 15.9502 11.2091 16.1372 10.9308 16.4397C10.6525 16.7423 10.498 17.1384 10.498 17.5495C10.498 17.9605 10.6525 18.3566 10.9308 18.6592ZM4.47377 11.3198C4.40595 11.5172 4.37977 11.7264 4.39691 11.9344C4.40094 12.1174 4.33286 12.2944 4.20655 12.4268C4.08025 12.5592 3.90662 12.6361 3.72371 12.6406H1.34773V22.4601H11.3268V20.5113C10.7691 20.3544 10.2693 20.0379 9.88893 19.6009C9.50853 19.1639 9.26401 18.6254 9.18541 18.0513C9.05416 17.312 9.20002 16.5501 9.59505 15.9115C9.99009 15.2728 10.6066 14.8021 11.3268 14.5894V12.6406H8.07966C7.89675 12.6361 7.72312 12.5592 7.59681 12.4268C7.47051 12.2944 7.40185 12.1174 7.40587 11.9344C7.42301 11.7264 7.39684 11.5172 7.32901 11.3198C7.26118 11.1224 7.15314 10.9413 7.01176 10.7878C6.87039 10.6343 6.69873 10.5118 6.50761 10.428C6.31649 10.3441 6.11008 10.3009 5.90139 10.3009C5.6927 10.3009 5.48626 10.3441 5.29514 10.428C5.10401 10.5118 4.93236 10.6343 4.79098 10.7878C4.64961 10.9413 4.5416 11.1224 4.47377 11.3198ZM18.7511 5.66403C19.2178 5.49905 19.6301 5.20896 19.943 4.82548C20.256 4.442 20.4574 3.97987 20.5255 3.48962C20.5935 2.99936 20.5255 2.49984 20.3288 2.04563C20.1322 1.59143 19.8144 1.20003 19.4103 0.914206C19.0062 0.628383 18.5314 0.459136 18.0376 0.424962C17.5438 0.390788 17.0501 0.493003 16.6105 0.720434C16.1709 0.947866 15.8023 1.29176 15.5449 1.71454C15.2875 2.13732 15.1513 2.62271 15.1512 3.11767C15.1512 3.19723 15.1828 3.27353 15.239 3.32979C15.2953 3.38605 15.3716 3.41766 15.4512 3.41766H16.6512C16.7307 3.41766 16.8071 3.38605 16.8633 3.32979C16.9196 3.27353 16.9512 3.19723 16.9512 3.11767C16.9512 2.93966 17.004 2.76566 17.1028 2.61766C17.2017 2.46966 17.3423 2.3543 17.5067 2.28619C17.6712 2.21807 17.8522 2.20024 18.0267 2.23497C18.2013 2.2697 18.3617 2.35541 18.4875 2.48128C18.6134 2.60714 18.6991 2.76751 18.7339 2.94209C18.7686 3.11667 18.7507 3.29762 18.6826 3.46208C18.6145 3.62653 18.4992 3.76709 18.3512 3.86598C18.2032 3.96487 18.0292 4.01765 17.8512 4.01765C17.6125 4.01765 17.3835 4.11247 17.2148 4.28125C17.046 4.45003 16.9512 4.67895 16.9512 4.91764V7.6176C16.9512 7.69717 16.9828 7.77347 17.039 7.82973C17.0953 7.88599 17.1716 7.9176 17.2512 7.9176H18.4511C18.5307 7.9176 18.607 7.88599 18.6633 7.82973C18.7195 7.77347 18.7511 7.69717 18.7511 7.6176V5.66403ZM17.8517 8.51868C17.6737 8.51868 17.4997 8.57147 17.3517 8.67036C17.2037 8.76925 17.0883 8.90981 17.0202 9.07426C16.9521 9.23871 16.9343 9.41966 16.969 9.59424C17.0037 9.76882 17.0894 9.92919 17.2153 10.0551C17.3412 10.1809 17.5015 10.2666 17.6761 10.3014C17.8507 10.3361 18.0316 10.3183 18.1961 10.2501C18.3605 10.182 18.5011 10.0667 18.6 9.91867C18.6989 9.77067 18.7517 9.59666 18.7517 9.41866C18.7517 9.17997 18.6569 8.95106 18.4881 8.78228C18.3193 8.6135 18.0904 8.51868 17.8517 8.51868Z" fill="black" fill-opacity="0.2"/>
<path fill-rule="evenodd" clip-rule="evenodd" d="M19.8413 11.2288H23.3266L23.326 11.2282C23.509 11.2328 23.6826 11.3097 23.8089 11.4421C23.9352 11.5745 24.0039 11.7515 23.9998 11.9344V23.1639C24.0039 23.3468 23.9352 23.5239 23.8089 23.6562C23.6826 23.7886 23.509 23.8655 23.326 23.8701H0.67395C0.491041 23.8655 0.317411 23.7886 0.191107 23.6562C0.0648036 23.5239 -0.0038598 23.3468 0.00016768 23.1639V0.70619C-0.0038598 0.523269 0.0648036 0.346214 0.191107 0.213836C0.317411 0.0814593 0.491041 0.00456157 0.67395 0H11.9994C12.1823 0.00456157 12.356 0.0814593 12.4823 0.213836C12.6086 0.346214 12.6772 0.523269 12.6732 0.70619V3.35815C13.2309 3.51511 13.7306 3.83152 14.111 4.26852C14.4914 4.70552 14.7359 5.2441 14.8145 5.81812C14.9458 6.55751 14.8 7.31935 14.4049 7.958C14.0099 8.59665 13.3934 9.06733 12.6732 9.28007V11.2288H15.4847C15.6676 11.2334 15.8413 11.3103 15.9676 11.4427C16.0939 11.5751 16.1625 11.7521 16.1585 11.935C16.1414 12.143 16.1676 12.3523 16.2354 12.5497C16.3032 12.747 16.4112 12.9282 16.5526 13.0817C16.694 13.2352 16.8657 13.3577 17.0568 13.4415C17.2479 13.5253 17.4543 13.5686 17.663 13.5686C17.8717 13.5686 18.0781 13.5253 18.2693 13.4415C18.4604 13.3577 18.632 13.2352 18.7734 13.0817C18.9148 12.9282 19.0228 12.747 19.0906 12.5497C19.1585 12.3523 19.1846 12.143 19.1675 11.935C19.1635 11.7521 19.2321 11.5751 19.3584 11.4427C19.4847 11.3103 19.6584 11.2334 19.8413 11.2288ZM13.0888 5.19479C12.807 4.8888 12.4156 4.70674 12 4.68833L12.0006 4.68653C11.8177 4.68197 11.644 4.60507 11.5177 4.4727C11.3914 4.34032 11.3228 4.16327 11.3268 3.98034V1.41118H1.34773V11.23H3.12672C3.24132 10.6631 3.52056 10.1426 3.92952 9.73368C4.33848 9.32472 4.85898 9.04547 5.42587 8.93088C5.78256 8.86686 6.1485 8.8753 6.50186 8.95571C6.85522 9.03611 7.18879 9.18682 7.48267 9.39887C8.09192 9.84192 8.5167 10.4938 8.67602 11.23H11.3262V8.66088C11.3222 8.47796 11.3909 8.3009 11.5172 8.16853C11.6435 8.03615 11.8171 7.95925 12 7.95469C12.4156 7.93629 12.807 7.75422 13.0888 7.44824C13.3706 7.14225 13.52 6.7372 13.5042 6.32151C13.52 5.90582 13.3706 5.50077 13.0888 5.19479ZM10.9308 18.6592C11.2091 18.9617 11.5909 19.1487 12.0006 19.1829L12 19.1823C12.1829 19.1869 12.3565 19.2638 12.4828 19.3962C12.6091 19.5285 12.6778 19.7056 12.6738 19.8885V22.4577H22.6529V12.6406H20.4383C20.3237 13.2075 20.0444 13.728 19.6355 14.137C19.2265 14.5459 18.706 14.8252 18.1391 14.9398C17.7824 15.0038 17.4165 14.9954 17.0631 14.915C16.7098 14.8346 16.3762 14.6838 16.0824 14.4718C15.4731 14.0287 15.0483 13.3769 14.889 12.6406H12.6744V15.2098C12.6784 15.3927 12.6097 15.5698 12.4834 15.7021C12.3571 15.8345 12.1835 15.9114 12.0006 15.916C11.5909 15.9502 11.2091 16.1372 10.9308 16.4397C10.6525 16.7423 10.498 17.1384 10.498 17.5495C10.498 17.9605 10.6525 18.3566 10.9308 18.6592ZM4.47377 11.3198C4.40595 11.5172 4.37977 11.7264 4.39691 11.9344C4.40094 12.1174 4.33286 12.2944 4.20655 12.4268C4.08025 12.5592 3.90662 12.6361 3.72371 12.6406H1.34773V22.4601H11.3268V20.5113C10.7691 20.3544 10.2693 20.0379 9.88893 19.6009C9.50853 19.1639 9.26401 18.6254 9.18541 18.0513C9.05416 17.312 9.20002 16.5501 9.59505 15.9115C9.99009 15.2728 10.6066 14.8021 11.3268 14.5894V12.6406H8.07966C7.89675 12.6361 7.72312 12.5592 7.59681 12.4268C7.47051 12.2944 7.40185 12.1174 7.40587 11.9344C7.42301 11.7264 7.39684 11.5172 7.32901 11.3198C7.26118 11.1224 7.15314 10.9413 7.01176 10.7878C6.87039 10.6343 6.69873 10.5118 6.50761 10.428C6.31649 10.3441 6.11008 10.3009 5.90139 10.3009C5.6927 10.3009 5.48626 10.3441 5.29514 10.428C5.10401 10.5118 4.93236 10.6343 4.79098 10.7878C4.64961 10.9413 4.5416 11.1224 4.47377 11.3198ZM18.7511 5.66403C19.2178 5.49905 19.6301 5.20896 19.943 4.82548C20.256 4.442 20.4574 3.97987 20.5255 3.48962C20.5935 2.99936 20.5255 2.49984 20.3288 2.04563C20.1322 1.59143 19.8144 1.20003 19.4103 0.914206C19.0062 0.628383 18.5314 0.459136 18.0376 0.424962C17.5438 0.390788 17.0501 0.493003 16.6105 0.720434C16.1709 0.947866 15.8023 1.29176 15.5449 1.71454C15.2875 2.13732 15.1513 2.62271 15.1512 3.11767C15.1512 3.19723 15.1828 3.27353 15.239 3.32979C15.2953 3.38605 15.3716 3.41766 15.4512 3.41766H16.6512C16.7307 3.41766 16.8071 3.38605 16.8633 3.32979C16.9196 3.27353 16.9512 3.19723 16.9512 3.11767C16.9512 2.93966 17.004 2.76566 17.1028 2.61766C17.2017 2.46966 17.3423 2.3543 17.5067 2.28619C17.6712 2.21807 17.8522 2.20024 18.0267 2.23497C18.2013 2.2697 18.3617 2.35541 18.4875 2.48128C18.6134 2.60714 18.6991 2.76751 18.7339 2.94209C18.7686 3.11667 18.7507 3.29762 18.6826 3.46208C18.6145 3.62653 18.4992 3.76709 18.3512 3.86598C18.2032 3.96487 18.0292 4.01765 17.8512 4.01765C17.6125 4.01765 17.3835 4.11247 17.2148 4.28125C17.046 4.45003 16.9512 4.67895 16.9512 4.91764V7.6176C16.9512 7.69717 16.9828 7.77347 17.039 7.82973C17.0953 7.88599 17.1716 7.9176 17.2512 7.9176H18.4511C18.5307 7.9176 18.607 7.88599 18.6633 7.82973C18.7195 7.77347 18.7511 7.69717 18.7511 7.6176V5.66403ZM17.8517 8.51868C17.6737 8.51868 17.4997 8.57147 17.3517 8.67036C17.2037 8.76925 17.0883 8.90981 17.0202 9.07426C16.9521 9.23871 16.9343 9.41966 16.969 9.59424C17.0037 9.76882 17.0894 9.92919 17.2153 10.0551C17.3412 10.1809 17.5015 10.2666 17.6761 10.3014C17.8507 10.3361 18.0316 10.3183 18.1961 10.2501C18.3605 10.182 18.5011 10.0667 18.6 9.91867C18.6989 9.77067 18.7517 9.59666 18.7517 9.41866C18.7517 9.17997 18.6569 8.95106 18.4881 8.78228C18.3193 8.6135 18.0904 8.51868 17.8517 8.51868Z" fill="black" fill-opacity="0.2"/>
<path fill-rule="evenodd" clip-rule="evenodd" d="M19.8413 11.2288H23.3266L23.326 11.2282C23.509 11.2328 23.6826 11.3097 23.8089 11.4421C23.9352 11.5745 24.0039 11.7515 23.9998 11.9344V23.1639C24.0039 23.3468 23.9352 23.5239 23.8089 23.6562C23.6826 23.7886 23.509 23.8655 23.326 23.8701H0.67395C0.491041 23.8655 0.317411 23.7886 0.191107 23.6562C0.0648036 23.5239 -0.0038598 23.3468 0.00016768 23.1639V0.70619C-0.0038598 0.523269 0.0648036 0.346214 0.191107 0.213836C0.317411 0.0814593 0.491041 0.00456157 0.67395 0H11.9994C12.1823 0.00456157 12.356 0.0814593 12.4823 0.213836C12.6086 0.346214 12.6772 0.523269 12.6732 0.70619V3.35815C13.2309 3.51511 13.7306 3.83152 14.111 4.26852C14.4914 4.70552 14.7359 5.2441 14.8145 5.81812C14.9458 6.55751 14.8 7.31935 14.4049 7.958C14.0099 8.59665 13.3934 9.06733 12.6732 9.28007V11.2288H15.4847C15.6676 11.2334 15.8413 11.3103 15.9676 11.4427C16.0939 11.5751 16.1625 11.7521 16.1585 11.935C16.1414 12.143 16.1676 12.3523 16.2354 12.5497C16.3032 12.747 16.4112 12.9282 16.5526 13.0817C16.694 13.2352 16.8657 13.3577 17.0568 13.4415C17.2479 13.5253 17.4543 13.5686 17.663 13.5686C17.8717 13.5686 18.0781 13.5253 18.2693 13.4415C18.4604 13.3577 18.632 13.2352 18.7734 13.0817C18.9148 12.9282 19.0228 12.747 19.0906 12.5497C19.1585 12.3523 19.1846 12.143 19.1675 11.935C19.1635 11.7521 19.2321 11.5751 19.3584 11.4427C19.4847 11.3103 19.6584 11.2334 19.8413 11.2288ZM13.0888 5.19479C12.807 4.8888 12.4156 4.70674 12 4.68833L12.0006 4.68653C11.8177 4.68197 11.644 4.60507 11.5177 4.4727C11.3914 4.34032 11.3228 4.16327 11.3268 3.98034V1.41118H1.34773V11.23H3.12672C3.24132 10.6631 3.52056 10.1426 3.92952 9.73368C4.33848 9.32472 4.85898 9.04547 5.42587 8.93088C5.78256 8.86686 6.1485 8.8753 6.50186 8.95571C6.85522 9.03611 7.18879 9.18682 7.48267 9.39887C8.09192 9.84192 8.5167 10.4938 8.67602 11.23H11.3262V8.66088C11.3222 8.47796 11.3909 8.3009 11.5172 8.16853C11.6435 8.03615 11.8171 7.95925 12 7.95469C12.4156 7.93629 12.807 7.75422 13.0888 7.44824C13.3706 7.14225 13.52 6.7372 13.5042 6.32151C13.52 5.90582 13.3706 5.50077 13.0888 5.19479ZM10.9308 18.6592C11.2091 18.9617 11.5909 19.1487 12.0006 19.1829L12 19.1823C12.1829 19.1869 12.3565 19.2638 12.4828 19.3962C12.6091 19.5285 12.6778 19.7056 12.6738 19.8885V22.4577H22.6529V12.6406H20.4383C20.3237 13.2075 20.0444 13.728 19.6355 14.137C19.2265 14.5459 18.706 14.8252 18.1391 14.9398C17.7824 15.0038 17.4165 14.9954 17.0631 14.915C16.7098 14.8346 16.3762 14.6838 16.0824 14.4718C15.4731 14.0287 15.0483 13.3769 14.889 12.6406H12.6744V15.2098C12.6784 15.3927 12.6097 15.5698 12.4834 15.7021C12.3571 15.8345 12.1835 15.9114 12.0006 15.916C11.5909 15.9502 11.2091 16.1372 10.9308 16.4397C10.6525 16.7423 10.498 17.1384 10.498 17.5495C10.498 17.9605 10.6525 18.3566 10.9308 18.6592ZM4.47377 11.3198C4.40595 11.5172 4.37977 11.7264 4.39691 11.9344C4.40094 12.1174 4.33286 12.2944 4.20655 12.4268C4.08025 12.5592 3.90662 12.6361 3.72371 12.6406H1.34773V22.4601H11.3268V20.5113C10.7691 20.3544 10.2693 20.0379 9.88893 19.6009C9.50853 19.1639 9.26401 18.6254 9.18541 18.0513C9.05416 17.312 9.20002 16.5501 9.59505 15.9115C9.99009 15.2728 10.6066 14.8021 11.3268 14.5894V12.6406H8.07966C7.89675 12.6361 7.72312 12.5592 7.59681 12.4268C7.47051 12.2944 7.40185 12.1174 7.40587 11.9344C7.42301 11.7264 7.39684 11.5172 7.32901 11.3198C7.26118 11.1224 7.15314 10.9413 7.01176 10.7878C6.87039 10.6343 6.69873 10.5118 6.50761 10.428C6.31649 10.3441 6.11008 10.3009 5.90139 10.3009C5.6927 10.3009 5.48626 10.3441 5.29514 10.428C5.10401 10.5118 4.93236 10.6343 4.79098 10.7878C4.64961 10.9413 4.5416 11.1224 4.47377 11.3198ZM18.7511 5.66403C19.2178 5.49905 19.6301 5.20896 19.943 4.82548C20.256 4.442 20.4574 3.97987 20.5255 3.48962C20.5935 2.99936 20.5255 2.49984 20.3288 2.04563C20.1322 1.59143 19.8144 1.20003 19.4103 0.914206C19.0062 0.628383 18.5314 0.459136 18.0376 0.424962C17.5438 0.390788 17.0501 0.493003 16.6105 0.720434C16.1709 0.947866 15.8023 1.29176 15.5449 1.71454C15.2875 2.13732 15.1513 2.62271 15.1512 3.11767C15.1512 3.19723 15.1828 3.27353 15.239 3.32979C15.2953 3.38605 15.3716 3.41766 15.4512 3.41766H16.6512C16.7307 3.41766 16.8071 3.38605 16.8633 3.32979C16.9196 3.27353 16.9512 3.19723 16.9512 3.11767C16.9512 2.93966 17.004 2.76566 17.1028 2.61766C17.2017 2.46966 17.3423 2.3543 17.5067 2.28619C17.6712 2.21807 17.8522 2.20024 18.0267 2.23497C18.2013 2.2697 18.3617 2.35541 18.4875 2.48128C18.6134 2.60714 18.6991 2.76751 18.7339 2.94209C18.7686 3.11667 18.7507 3.29762 18.6826 3.46208C18.6145 3.62653 18.4992 3.76709 18.3512 3.86598C18.2032 3.96487 18.0292 4.01765 17.8512 4.01765C17.6125 4.01765 17.3835 4.11247 17.2148 4.28125C17.046 4.45003 16.9512 4.67895 16.9512 4.91764V7.6176C16.9512 7.69717 16.9828 7.77347 17.039 7.82973C17.0953 7.88599 17.1716 7.9176 17.2512 7.9176H18.4511C18.5307 7.9176 18.607 7.88599 18.6633 7.82973C18.7195 7.77347 18.7511 7.69717 18.7511 7.6176V5.66403ZM17.8517 8.51868C17.6737 8.51868 17.4997 8.57147 17.3517 8.67036C17.2037 8.76925 17.0883 8.90981 17.0202 9.07426C16.9521 9.23871 16.9343 9.41966 16.969 9.59424C17.0037 9.76882 17.0894 9.92919 17.2153 10.0551C17.3412 10.1809 17.5015 10.2666 17.6761 10.3014C17.8507 10.3361 18.0316 10.3183 18.1961 10.2501C18.3605 10.182 18.5011 10.0667 18.6 9.91867C18.6989 9.77067 18.7517 9.59666 18.7517 9.41866C18.7517 9.17997 18.6569 8.95106 18.4881 8.78228C18.3193 8.6135 18.0904 8.51868 17.8517 8.51868Z" fill="black" fill-opacity="0.2"/>
<path fill-rule="evenodd" clip-rule="evenodd" d="M19.8413 11.2288H23.3266L23.326 11.2282C23.509 11.2328 23.6826 11.3097 23.8089 11.4421C23.9352 11.5745 24.0039 11.7515 23.9998 11.9344V23.1639C24.0039 23.3468 23.9352 23.5239 23.8089 23.6562C23.6826 23.7886 23.509 23.8655 23.326 23.8701H0.67395C0.491041 23.8655 0.317411 23.7886 0.191107 23.6562C0.0648036 23.5239 -0.0038598 23.3468 0.00016768 23.1639V0.70619C-0.0038598 0.523269 0.0648036 0.346214 0.191107 0.213836C0.317411 0.0814593 0.491041 0.00456157 0.67395 0H11.9994C12.1823 0.00456157 12.356 0.0814593 12.4823 0.213836C12.6086 0.346214 12.6772 0.523269 12.6732 0.70619V3.35815C13.2309 3.51511 13.7306 3.83152 14.111 4.26852C14.4914 4.70552 14.7359 5.2441 14.8145 5.81812C14.9458 6.55751 14.8 7.31935 14.4049 7.958C14.0099 8.59665 13.3934 9.06733 12.6732 9.28007V11.2288H15.4847C15.6676 11.2334 15.8413 11.3103 15.9676 11.4427C16.0939 11.5751 16.1625 11.7521 16.1585 11.935C16.1414 12.143 16.1676 12.3523 16.2354 12.5497C16.3032 12.747 16.4112 12.9282 16.5526 13.0817C16.694 13.2352 16.8657 13.3577 17.0568 13.4415C17.2479 13.5253 17.4543 13.5686 17.663 13.5686C17.8717 13.5686 18.0781 13.5253 18.2693 13.4415C18.4604 13.3577 18.632 13.2352 18.7734 13.0817C18.9148 12.9282 19.0228 12.747 19.0906 12.5497C19.1585 12.3523 19.1846 12.143 19.1675 11.935C19.1635 11.7521 19.2321 11.5751 19.3584 11.4427C19.4847 11.3103 19.6584 11.2334 19.8413 11.2288ZM13.0888 5.19479C12.807 4.8888 12.4156 4.70674 12 4.68833L12.0006 4.68653C11.8177 4.68197 11.644 4.60507 11.5177 4.4727C11.3914 4.34032 11.3228 4.16327 11.3268 3.98034V1.41118H1.34773V11.23H3.12672C3.24132 10.6631 3.52056 10.1426 3.92952 9.73368C4.33848 9.32472 4.85898 9.04547 5.42587 8.93088C5.78256 8.86686 6.1485 8.8753 6.50186 8.95571C6.85522 9.03611 7.18879 9.18682 7.48267 9.39887C8.09192 9.84192 8.5167 10.4938 8.67602 11.23H11.3262V8.66088C11.3222 8.47796 11.3909 8.3009 11.5172 8.16853C11.6435 8.03615 11.8171 7.95925 12 7.95469C12.4156 7.93629 12.807 7.75422 13.0888 7.44824C13.3706 7.14225 13.52 6.7372 13.5042 6.32151C13.52 5.90582 13.3706 5.50077 13.0888 5.19479ZM10.9308 18.6592C11.2091 18.9617 11.5909 19.1487 12.0006 19.1829L12 19.1823C12.1829 19.1869 12.3565 19.2638 12.4828 19.3962C12.6091 19.5285 12.6778 19.7056 12.6738 19.8885V22.4577H22.6529V12.6406H20.4383C20.3237 13.2075 20.0444 13.728 19.6355 14.137C19.2265 14.5459 18.706 14.8252 18.1391 14.9398C17.7824 15.0038 17.4165 14.9954 17.0631 14.915C16.7098 14.8346 16.3762 14.6838 16.0824 14.4718C15.4731 14.0287 15.0483 13.3769 14.889 12.6406H12.6744V15.2098C12.6784 15.3927 12.6097 15.5698 12.4834 15.7021C12.3571 15.8345 12.1835 15.9114 12.0006 15.916C11.5909 15.9502 11.2091 16.1372 10.9308 16.4397C10.6525 16.7423 10.498 17.1384 10.498 17.5495C10.498 17.9605 10.6525 18.3566 10.9308 18.6592ZM4.47377 11.3198C4.40595 11.5172 4.37977 11.7264 4.39691 11.9344C4.40094 12.1174 4.33286 12.2944 4.20655 12.4268C4.08025 12.5592 3.90662 12.6361 3.72371 12.6406H1.34773V22.4601H11.3268V20.5113C10.7691 20.3544 10.2693 20.0379 9.88893 19.6009C9.50853 19.1639 9.26401 18.6254 9.18541 18.0513C9.05416 17.312 9.20002 16.5501 9.59505 15.9115C9.99009 15.2728 10.6066 14.8021 11.3268 14.5894V12.6406H8.07966C7.89675 12.6361 7.72312 12.5592 7.59681 12.4268C7.47051 12.2944 7.40185 12.1174 7.40587 11.9344C7.42301 11.7264 7.39684 11.5172 7.32901 11.3198C7.26118 11.1224 7.15314 10.9413 7.01176 10.7878C6.87039 10.6343 6.69873 10.5118 6.50761 10.428C6.31649 10.3441 6.11008 10.3009 5.90139 10.3009C5.6927 10.3009 5.48626 10.3441 5.29514 10.428C5.10401 10.5118 4.93236 10.6343 4.79098 10.7878C4.64961 10.9413 4.5416 11.1224 4.47377 11.3198ZM18.7511 5.66403C19.2178 5.49905 19.6301 5.20896 19.943 4.82548C20.256 4.442 20.4574 3.97987 20.5255 3.48962C20.5935 2.99936 20.5255 2.49984 20.3288 2.04563C20.1322 1.59143 19.8144 1.20003 19.4103 0.914206C19.0062 0.628383 18.5314 0.459136 18.0376 0.424962C17.5438 0.390788 17.0501 0.493003 16.6105 0.720434C16.1709 0.947866 15.8023 1.29176 15.5449 1.71454C15.2875 2.13732 15.1513 2.62271 15.1512 3.11767C15.1512 3.19723 15.1828 3.27353 15.239 3.32979C15.2953 3.38605 15.3716 3.41766 15.4512 3.41766H16.6512C16.7307 3.41766 16.8071 3.38605 16.8633 3.32979C16.9196 3.27353 16.9512 3.19723 16.9512 3.11767C16.9512 2.93966 17.004 2.76566 17.1028 2.61766C17.2017 2.46966 17.3423 2.3543 17.5067 2.28619C17.6712 2.21807 17.8522 2.20024 18.0267 2.23497C18.2013 2.2697 18.3617 2.35541 18.4875 2.48128C18.6134 2.60714 18.6991 2.76751 18.7339 2.94209C18.7686 3.11667 18.7507 3.29762 18.6826 3.46208C18.6145 3.62653 18.4992 3.76709 18.3512 3.86598C18.2032 3.96487 18.0292 4.01765 17.8512 4.01765C17.6125 4.01765 17.3835 4.11247 17.2148 4.28125C17.046 4.45003 16.9512 4.67895 16.9512 4.91764V7.6176C16.9512 7.69717 16.9828 7.77347 17.039 7.82973C17.0953 7.88599 17.1716 7.9176 17.2512 7.9176H18.4511C18.5307 7.9176 18.607 7.88599 18.6633 7.82973C18.7195 7.77347 18.7511 7.69717 18.7511 7.6176V5.66403ZM17.8517 8.51868C17.6737 8.51868 17.4997 8.57147 17.3517 8.67036C17.2037 8.76925 17.0883 8.90981 17.0202 9.07426C16.9521 9.23871 16.9343 9.41966 16.969 9.59424C17.0037 9.76882 17.0894 9.92919 17.2153 10.0551C17.3412 10.1809 17.5015 10.2666 17.6761 10.3014C17.8507 10.3361 18.0316 10.3183 18.1961 10.2501C18.3605 10.182 18.5011 10.0667 18.6 9.91867C18.6989 9.77067 18.7517 9.59666 18.7517 9.41866C18.7517 9.17997 18.6569 8.95106 18.4881 8.78228C18.3193 8.6135 18.0904 8.51868 17.8517 8.51868Z" fill="black" fill-opacity="0.2"/>
<path fill-rule="evenodd" clip-rule="evenodd" d="M19.8413 11.2288H23.3266L23.326 11.2282C23.509 11.2328 23.6826 11.3097 23.8089 11.4421C23.9352 11.5745 24.0039 11.7515 23.9998 11.9344V23.1639C24.0039 23.3468 23.9352 23.5239 23.8089 23.6562C23.6826 23.7886 23.509 23.8655 23.326 23.8701H0.67395C0.491041 23.8655 0.317411 23.7886 0.191107 23.6562C0.0648036 23.5239 -0.0038598 23.3468 0.00016768 23.1639V0.70619C-0.0038598 0.523269 0.0648036 0.346214 0.191107 0.213836C0.317411 0.0814593 0.491041 0.00456157 0.67395 0H11.9994C12.1823 0.00456157 12.356 0.0814593 12.4823 0.213836C12.6086 0.346214 12.6772 0.523269 12.6732 0.70619V3.35815C13.2309 3.51511 13.7306 3.83152 14.111 4.26852C14.4914 4.70552 14.7359 5.2441 14.8145 5.81812C14.9458 6.55751 14.8 7.31935 14.4049 7.958C14.0099 8.59665 13.3934 9.06733 12.6732 9.28007V11.2288H15.4847C15.6676 11.2334 15.8413 11.3103 15.9676 11.4427C16.0939 11.5751 16.1625 11.7521 16.1585 11.935C16.1414 12.143 16.1676 12.3523 16.2354 12.5497C16.3032 12.747 16.4112 12.9282 16.5526 13.0817C16.694 13.2352 16.8657 13.3577 17.0568 13.4415C17.2479 13.5253 17.4543 13.5686 17.663 13.5686C17.8717 13.5686 18.0781 13.5253 18.2693 13.4415C18.4604 13.3577 18.632 13.2352 18.7734 13.0817C18.9148 12.9282 19.0228 12.747 19.0906 12.5497C19.1585 12.3523 19.1846 12.143 19.1675 11.935C19.1635 11.7521 19.2321 11.5751 19.3584 11.4427C19.4847 11.3103 19.6584 11.2334 19.8413 11.2288ZM13.0888 5.19479C12.807 4.8888 12.4156 4.70674 12 4.68833L12.0006 4.68653C11.8177 4.68197 11.644 4.60507 11.5177 4.4727C11.3914 4.34032 11.3228 4.16327 11.3268 3.98034V1.41118H1.34773V11.23H3.12672C3.24132 10.6631 3.52056 10.1426 3.92952 9.73368C4.33848 9.32472 4.85898 9.04547 5.42587 8.93088C5.78256 8.86686 6.1485 8.8753 6.50186 8.95571C6.85522 9.03611 7.18879 9.18682 7.48267 9.39887C8.09192 9.84192 8.5167 10.4938 8.67602 11.23H11.3262V8.66088C11.3222 8.47796 11.3909 8.3009 11.5172 8.16853C11.6435 8.03615 11.8171 7.95925 12 7.95469C12.4156 7.93629 12.807 7.75422 13.0888 7.44824C13.3706 7.14225 13.52 6.7372 13.5042 6.32151C13.52 5.90582 13.3706 5.50077 13.0888 5.19479ZM10.9308 18.6592C11.2091 18.9617 11.5909 19.1487 12.0006 19.1829L12 19.1823C12.1829 19.1869 12.3565 19.2638 12.4828 19.3962C12.6091 19.5285 12.6778 19.7056 12.6738 19.8885V22.4577H22.6529V12.6406H20.4383C20.3237 13.2075 20.0444 13.728 19.6355 14.137C19.2265 14.5459 18.706 14.8252 18.1391 14.9398C17.7824 15.0038 17.4165 14.9954 17.0631 14.915C16.7098 14.8346 16.3762 14.6838 16.0824 14.4718C15.4731 14.0287 15.0483 13.3769 14.889 12.6406H12.6744V15.2098C12.6784 15.3927 12.6097 15.5698 12.4834 15.7021C12.3571 15.8345 12.1835 15.9114 12.0006 15.916C11.5909 15.9502 11.2091 16.1372 10.9308 16.4397C10.6525 16.7423 10.498 17.1384 10.498 17.5495C10.498 17.9605 10.6525 18.3566 10.9308 18.6592ZM4.47377 11.3198C4.40595 11.5172 4.37977 11.7264 4.39691 11.9344C4.40094 12.1174 4.33286 12.2944 4.20655 12.4268C4.08025 12.5592 3.90662 12.6361 3.72371 12.6406H1.34773V22.4601H11.3268V20.5113C10.7691 20.3544 10.2693 20.0379 9.88893 19.6009C9.50853 19.1639 9.26401 18.6254 9.18541 18.0513C9.05416 17.312 9.20002 16.5501 9.59505 15.9115C9.99009 15.2728 10.6066 14.8021 11.3268 14.5894V12.6406H8.07966C7.89675 12.6361 7.72312 12.5592 7.59681 12.4268C7.47051 12.2944 7.40185 12.1174 7.40587 11.9344C7.42301 11.7264 7.39684 11.5172 7.32901 11.3198C7.26118 11.1224 7.15314 10.9413 7.01176 10.7878C6.87039 10.6343 6.69873 10.5118 6.50761 10.428C6.31649 10.3441 6.11008 10.3009 5.90139 10.3009C5.6927 10.3009 5.48626 10.3441 5.29514 10.428C5.10401 10.5118 4.93236 10.6343 4.79098 10.7878C4.64961 10.9413 4.5416 11.1224 4.47377 11.3198ZM18.7511 5.66403C19.2178 5.49905 19.6301 5.20896 19.943 4.82548C20.256 4.442 20.4574 3.97987 20.5255 3.48962C20.5935 2.99936 20.5255 2.49984 20.3288 2.04563C20.1322 1.59143 19.8144 1.20003 19.4103 0.914206C19.0062 0.628383 18.5314 0.459136 18.0376 0.424962C17.5438 0.390788 17.0501 0.493003 16.6105 0.720434C16.1709 0.947866 15.8023 1.29176 15.5449 1.71454C15.2875 2.13732 15.1513 2.62271 15.1512 3.11767C15.1512 3.19723 15.1828 3.27353 15.239 3.32979C15.2953 3.38605 15.3716 3.41766 15.4512 3.41766H16.6512C16.7307 3.41766 16.8071 3.38605 16.8633 3.32979C16.9196 3.27353 16.9512 3.19723 16.9512 3.11767C16.9512 2.93966 17.004 2.76566 17.1028 2.61766C17.2017 2.46966 17.3423 2.3543 17.5067 2.28619C17.6712 2.21807 17.8522 2.20024 18.0267 2.23497C18.2013 2.2697 18.3617 2.35541 18.4875 2.48128C18.6134 2.60714 18.6991 2.76751 18.7339 2.94209C18.7686 3.11667 18.7507 3.29762 18.6826 3.46208C18.6145 3.62653 18.4992 3.76709 18.3512 3.86598C18.2032 3.96487 18.0292 4.01765 17.8512 4.01765C17.6125 4.01765 17.3835 4.11247 17.2148 4.28125C17.046 4.45003 16.9512 4.67895 16.9512 4.91764V7.6176C16.9512 7.69717 16.9828 7.77347 17.039 7.82973C17.0953 7.88599 17.1716 7.9176 17.2512 7.9176H18.4511C18.5307 7.9176 18.607 7.88599 18.6633 7.82973C18.7195 7.77347 18.7511 7.69717 18.7511 7.6176V5.66403ZM17.8517 8.51868C17.6737 8.51868 17.4997 8.57147 17.3517 8.67036C17.2037 8.76925 17.0883 8.90981 17.0202 9.07426C16.9521 9.23871 16.9343 9.41966 16.969 9.59424C17.0037 9.76882 17.0894 9.92919 17.2153 10.0551C17.3412 10.1809 17.5015 10.2666 17.6761 10.3014C17.8507 10.3361 18.0316 10.3183 18.1961 10.2501C18.3605 10.182 18.5011 10.0667 18.6 9.91867C18.6989 9.77067 18.7517 9.59666 18.7517 9.41866C18.7517 9.17997 18.6569 8.95106 18.4881 8.78228C18.3193 8.6135 18.0904 8.51868 17.8517 8.51868Z" fill="black" fill-opacity="0.2"/>
<path fill-rule="evenodd" clip-rule="evenodd" d="M19.8413 11.2288H23.3266L23.326 11.2282C23.509 11.2328 23.6826 11.3097 23.8089 11.4421C23.9352 11.5745 24.0039 11.7515 23.9998 11.9344V23.1639C24.0039 23.3468 23.9352 23.5239 23.8089 23.6562C23.6826 23.7886 23.509 23.8655 23.326 23.8701H0.67395C0.491041 23.8655 0.317411 23.7886 0.191107 23.6562C0.0648036 23.5239 -0.0038598 23.3468 0.00016768 23.1639V0.70619C-0.0038598 0.523269 0.0648036 0.346214 0.191107 0.213836C0.317411 0.0814593 0.491041 0.00456157 0.67395 0H11.9994C12.1823 0.00456157 12.356 0.0814593 12.4823 0.213836C12.6086 0.346214 12.6772 0.523269 12.6732 0.70619V3.35815C13.2309 3.51511 13.7306 3.83152 14.111 4.26852C14.4914 4.70552 14.7359 5.2441 14.8145 5.81812C14.9458 6.55751 14.8 7.31935 14.4049 7.958C14.0099 8.59665 13.3934 9.06733 12.6732 9.28007V11.2288H15.4847C15.6676 11.2334 15.8413 11.3103 15.9676 11.4427C16.0939 11.5751 16.1625 11.7521 16.1585 11.935C16.1414 12.143 16.1676 12.3523 16.2354 12.5497C16.3032 12.747 16.4112 12.9282 16.5526 13.0817C16.694 13.2352 16.8657 13.3577 17.0568 13.4415C17.2479 13.5253 17.4543 13.5686 17.663 13.5686C17.8717 13.5686 18.0781 13.5253 18.2693 13.4415C18.4604 13.3577 18.632 13.2352 18.7734 13.0817C18.9148 12.9282 19.0228 12.747 19.0906 12.5497C19.1585 12.3523 19.1846 12.143 19.1675 11.935C19.1635 11.7521 19.2321 11.5751 19.3584 11.4427C19.4847 11.3103 19.6584 11.2334 19.8413 11.2288ZM13.0888 5.19479C12.807 4.8888 12.4156 4.70674 12 4.68833L12.0006 4.68653C11.8177 4.68197 11.644 4.60507 11.5177 4.4727C11.3914 4.34032 11.3228 4.16327 11.3268 3.98034V1.41118H1.34773V11.23H3.12672C3.24132 10.6631 3.52056 10.1426 3.92952 9.73368C4.33848 9.32472 4.85898 9.04547 5.42587 8.93088C5.78256 8.86686 6.1485 8.8753 6.50186 8.95571C6.85522 9.03611 7.18879 9.18682 7.48267 9.39887C8.09192 9.84192 8.5167 10.4938 8.67602 11.23H11.3262V8.66088C11.3222 8.47796 11.3909 8.3009 11.5172 8.16853C11.6435 8.03615 11.8171 7.95925 12 7.95469C12.4156 7.93629 12.807 7.75422 13.0888 7.44824C13.3706 7.14225 13.52 6.7372 13.5042 6.32151C13.52 5.90582 13.3706 5.50077 13.0888 5.19479ZM10.9308 18.6592C11.2091 18.9617 11.5909 19.1487 12.0006 19.1829L12 19.1823C12.1829 19.1869 12.3565 19.2638 12.4828 19.3962C12.6091 19.5285 12.6778 19.7056 12.6738 19.8885V22.4577H22.6529V12.6406H20.4383C20.3237 13.2075 20.0444 13.728 19.6355 14.137C19.2265 14.5459 18.706 14.8252 18.1391 14.9398C17.7824 15.0038 17.4165 14.9954 17.0631 14.915C16.7098 14.8346 16.3762 14.6838 16.0824 14.4718C15.4731 14.0287 15.0483 13.3769 14.889 12.6406H12.6744V15.2098C12.6784 15.3927 12.6097 15.5698 12.4834 15.7021C12.3571 15.8345 12.1835 15.9114 12.0006 15.916C11.5909 15.9502 11.2091 16.1372 10.9308 16.4397C10.6525 16.7423 10.498 17.1384 10.498 17.5495C10.498 17.9605 10.6525 18.3566 10.9308 18.6592ZM4.47377 11.3198C4.40595 11.5172 4.37977 11.7264 4.39691 11.9344C4.40094 12.1174 4.33286 12.2944 4.20655 12.4268C4.08025 12.5592 3.90662 12.6361 3.72371 12.6406H1.34773V22.4601H11.3268V20.5113C10.7691 20.3544 10.2693 20.0379 9.88893 19.6009C9.50853 19.1639 9.26401 18.6254 9.18541 18.0513C9.05416 17.312 9.20002 16.5501 9.59505 15.9115C9.99009 15.2728 10.6066 14.8021 11.3268 14.5894V12.6406H8.07966C7.89675 12.6361 7.72312 12.5592 7.59681 12.4268C7.47051 12.2944 7.40185 12.1174 7.40587 11.9344C7.42301 11.7264 7.39684 11.5172 7.32901 11.3198C7.26118 11.1224 7.15314 10.9413 7.01176 10.7878C6.87039 10.6343 6.69873 10.5118 6.50761 10.428C6.31649 10.3441 6.11008 10.3009 5.90139 10.3009C5.6927 10.3009 5.48626 10.3441 5.29514 10.428C5.10401 10.5118 4.93236 10.6343 4.79098 10.7878C4.64961 10.9413 4.5416 11.1224 4.47377 11.3198ZM18.7511 5.66403C19.2178 5.49905 19.6301 5.20896 19.943 4.82548C20.256 4.442 20.4574 3.97987 20.5255 3.48962C20.5935 2.99936 20.5255 2.49984 20.3288 2.04563C20.1322 1.59143 19.8144 1.20003 19.4103 0.914206C19.0062 0.628383 18.5314 0.459136 18.0376 0.424962C17.5438 0.390788 17.0501 0.493003 16.6105 0.720434C16.1709 0.947866 15.8023 1.29176 15.5449 1.71454C15.2875 2.13732 15.1513 2.62271 15.1512 3.11767C15.1512 3.19723 15.1828 3.27353 15.239 3.32979C15.2953 3.38605 15.3716 3.41766 15.4512 3.41766H16.6512C16.7307 3.41766 16.8071 3.38605 16.8633 3.32979C16.9196 3.27353 16.9512 3.19723 16.9512 3.11767C16.9512 2.93966 17.004 2.76566 17.1028 2.61766C17.2017 2.46966 17.3423 2.3543 17.5067 2.28619C17.6712 2.21807 17.8522 2.20024 18.0267 2.23497C18.2013 2.2697 18.3617 2.35541 18.4875 2.48128C18.6134 2.60714 18.6991 2.76751 18.7339 2.94209C18.7686 3.11667 18.7507 3.29762 18.6826 3.46208C18.6145 3.62653 18.4992 3.76709 18.3512 3.86598C18.2032 3.96487 18.0292 4.01765 17.8512 4.01765C17.6125 4.01765 17.3835 4.11247 17.2148 4.28125C17.046 4.45003 16.9512 4.67895 16.9512 4.91764V7.6176C16.9512 7.69717 16.9828 7.77347 17.039 7.82973C17.0953 7.88599 17.1716 7.9176 17.2512 7.9176H18.4511C18.5307 7.9176 18.607 7.88599 18.6633 7.82973C18.7195 7.77347 18.7511 7.69717 18.7511 7.6176V5.66403ZM17.8517 8.51868C17.6737 8.51868 17.4997 8.57147 17.3517 8.67036C17.2037 8.76925 17.0883 8.90981 17.0202 9.07426C16.9521 9.23871 16.9343 9.41966 16.969 9.59424C17.0037 9.76882 17.0894 9.92919 17.2153 10.0551C17.3412 10.1809 17.5015 10.2666 17.6761 10.3014C17.8507 10.3361 18.0316 10.3183 18.1961 10.2501C18.3605 10.182 18.5011 10.0667 18.6 9.91867C18.6989 9.77067 18.7517 9.59666 18.7517 9.41866C18.7517 9.17997 18.6569 8.95106 18.4881 8.78228C18.3193 8.6135 18.0904 8.51868 17.8517 8.51868Z" fill="black" fill-opacity="0.2"/>
<path fill-rule="evenodd" clip-rule="evenodd" d="M19.8413 11.2288H23.3266L23.326 11.2282C23.509 11.2328 23.6826 11.3097 23.8089 11.4421C23.9352 11.5745 24.0039 11.7515 23.9998 11.9344V23.1639C24.0039 23.3468 23.9352 23.5239 23.8089 23.6562C23.6826 23.7886 23.509 23.8655 23.326 23.8701H0.67395C0.491041 23.8655 0.317411 23.7886 0.191107 23.6562C0.0648036 23.5239 -0.0038598 23.3468 0.00016768 23.1639V0.70619C-0.0038598 0.523269 0.0648036 0.346214 0.191107 0.213836C0.317411 0.0814593 0.491041 0.00456157 0.67395 0H11.9994C12.1823 0.00456157 12.356 0.0814593 12.4823 0.213836C12.6086 0.346214 12.6772 0.523269 12.6732 0.70619V3.35815C13.2309 3.51511 13.7306 3.83152 14.111 4.26852C14.4914 4.70552 14.7359 5.2441 14.8145 5.81812C14.9458 6.55751 14.8 7.31935 14.4049 7.958C14.0099 8.59665 13.3934 9.06733 12.6732 9.28007V11.2288H15.4847C15.6676 11.2334 15.8413 11.3103 15.9676 11.4427C16.0939 11.5751 16.1625 11.7521 16.1585 11.935C16.1414 12.143 16.1676 12.3523 16.2354 12.5497C16.3032 12.747 16.4112 12.9282 16.5526 13.0817C16.694 13.2352 16.8657 13.3577 17.0568 13.4415C17.2479 13.5253 17.4543 13.5686 17.663 13.5686C17.8717 13.5686 18.0781 13.5253 18.2693 13.4415C18.4604 13.3577 18.632 13.2352 18.7734 13.0817C18.9148 12.9282 19.0228 12.747 19.0906 12.5497C19.1585 12.3523 19.1846 12.143 19.1675 11.935C19.1635 11.7521 19.2321 11.5751 19.3584 11.4427C19.4847 11.3103 19.6584 11.2334 19.8413 11.2288ZM13.0888 5.19479C12.807 4.8888 12.4156 4.70674 12 4.68833L12.0006 4.68653C11.8177 4.68197 11.644 4.60507 11.5177 4.4727C11.3914 4.34032 11.3228 4.16327 11.3268 3.98034V1.41118H1.34773V11.23H3.12672C3.24132 10.6631 3.52056 10.1426 3.92952 9.73368C4.33848 9.32472 4.85898 9.04547 5.42587 8.93088C5.78256 8.86686 6.1485 8.8753 6.50186 8.95571C6.85522 9.03611 7.18879 9.18682 7.48267 9.39887C8.09192 9.84192 8.5167 10.4938 8.67602 11.23H11.3262V8.66088C11.3222 8.47796 11.3909 8.3009 11.5172 8.16853C11.6435 8.03615 11.8171 7.95925 12 7.95469C12.4156 7.93629 12.807 7.75422 13.0888 7.44824C13.3706 7.14225 13.52 6.7372 13.5042 6.32151C13.52 5.90582 13.3706 5.50077 13.0888 5.19479ZM10.9308 18.6592C11.2091 18.9617 11.5909 19.1487 12.0006 19.1829L12 19.1823C12.1829 19.1869 12.3565 19.2638 12.4828 19.3962C12.6091 19.5285 12.6778 19.7056 12.6738 19.8885V22.4577H22.6529V12.6406H20.4383C20.3237 13.2075 20.0444 13.728 19.6355 14.137C19.2265 14.5459 18.706 14.8252 18.1391 14.9398C17.7824 15.0038 17.4165 14.9954 17.0631 14.915C16.7098 14.8346 16.3762 14.6838 16.0824 14.4718C15.4731 14.0287 15.0483 13.3769 14.889 12.6406H12.6744V15.2098C12.6784 15.3927 12.6097 15.5698 12.4834 15.7021C12.3571 15.8345 12.1835 15.9114 12.0006 15.916C11.5909 15.9502 11.2091 16.1372 10.9308 16.4397C10.6525 16.7423 10.498 17.1384 10.498 17.5495C10.498 17.9605 10.6525 18.3566 10.9308 18.6592ZM4.47377 11.3198C4.40595 11.5172 4.37977 11.7264 4.39691 11.9344C4.40094 12.1174 4.33286 12.2944 4.20655 12.4268C4.08025 12.5592 3.90662 12.6361 3.72371 12.6406H1.34773V22.4601H11.3268V20.5113C10.7691 20.3544 10.2693 20.0379 9.88893 19.6009C9.50853 19.1639 9.26401 18.6254 9.18541 18.0513C9.05416 17.312 9.20002 16.5501 9.59505 15.9115C9.99009 15.2728 10.6066 14.8021 11.3268 14.5894V12.6406H8.07966C7.89675 12.6361 7.72312 12.5592 7.59681 12.4268C7.47051 12.2944 7.40185 12.1174 7.40587 11.9344C7.42301 11.7264 7.39684 11.5172 7.32901 11.3198C7.26118 11.1224 7.15314 10.9413 7.01176 10.7878C6.87039 10.6343 6.69873 10.5118 6.50761 10.428C6.31649 10.3441 6.11008 10.3009 5.90139 10.3009C5.6927 10.3009 5.48626 10.3441 5.29514 10.428C5.10401 10.5118 4.93236 10.6343 4.79098 10.7878C4.64961 10.9413 4.5416 11.1224 4.47377 11.3198ZM18.7511 5.66403C19.2178 5.49905 19.6301 5.20896 19.943 4.82548C20.256 4.442 20.4574 3.97987 20.5255 3.48962C20.5935 2.99936 20.5255 2.49984 20.3288 2.04563C20.1322 1.59143 19.8144 1.20003 19.4103 0.914206C19.0062 0.628383 18.5314 0.459136 18.0376 0.424962C17.5438 0.390788 17.0501 0.493003 16.6105 0.720434C16.1709 0.947866 15.8023 1.29176 15.5449 1.71454C15.2875 2.13732 15.1513 2.62271 15.1512 3.11767C15.1512 3.19723 15.1828 3.27353 15.239 3.32979C15.2953 3.38605 15.3716 3.41766 15.4512 3.41766H16.6512C16.7307 3.41766 16.8071 3.38605 16.8633 3.32979C16.9196 3.27353 16.9512 3.19723 16.9512 3.11767C16.9512 2.93966 17.004 2.76566 17.1028 2.61766C17.2017 2.46966 17.3423 2.3543 17.5067 2.28619C17.6712 2.21807 17.8522 2.20024 18.0267 2.23497C18.2013 2.2697 18.3617 2.35541 18.4875 2.48128C18.6134 2.60714 18.6991 2.76751 18.7339 2.94209C18.7686 3.11667 18.7507 3.29762 18.6826 3.46208C18.6145 3.62653 18.4992 3.76709 18.3512 3.86598C18.2032 3.96487 18.0292 4.01765 17.8512 4.01765C17.6125 4.01765 17.3835 4.11247 17.2148 4.28125C17.046 4.45003 16.9512 4.67895 16.9512 4.91764V7.6176C16.9512 7.69717 16.9828 7.77347 17.039 7.82973C17.0953 7.88599 17.1716 7.9176 17.2512 7.9176H18.4511C18.5307 7.9176 18.607 7.88599 18.6633 7.82973C18.7195 7.77347 18.7511 7.69717 18.7511 7.6176V5.66403ZM17.8517 8.51868C17.6737 8.51868 17.4997 8.57147 17.3517 8.67036C17.2037 8.76925 17.0883 8.90981 17.0202 9.07426C16.9521 9.23871 16.9343 9.41966 16.969 9.59424C17.0037 9.76882 17.0894 9.92919 17.2153 10.0551C17.3412 10.1809 17.5015 10.2666 17.6761 10.3014C17.8507 10.3361 18.0316 10.3183 18.1961 10.2501C18.3605 10.182 18.5011 10.0667 18.6 9.91867C18.6989 9.77067 18.7517 9.59666 18.7517 9.41866C18.7517 9.17997 18.6569 8.95106 18.4881 8.78228C18.3193 8.6135 18.0904 8.51868 17.8517 8.51868Z" fill="black" fill-opacity="0.2"/>
</g>
<defs>
<clipPath id="clip0_414_2754">
<rect width="24" height="24" fill="white"/>
</clipPath>
</defs>
</svg>
