<svg width="32" height="32" viewBox="0 0 32 32" fill="none" xmlns="http://www.w3.org/2000/svg">
<path fill-rule="evenodd" clip-rule="evenodd" d="M16 3C23.1797 3 29 8.8203 29 16C29 23.1797 23.1797 29 16 29C8.8203 29 3 23.1797 3 16C3 8.8203 8.8203 3 16 3ZM31 16C31 7.71573 24.2843 1 16 1C7.71573 1 1 7.71573 1 16C1 24.2843 7.71573 31 16 31C24.2843 31 31 24.2843 31 16ZM13.7046 8.73281C13.2804 9.08638 13.223 9.71694 13.5766 10.1412L18.1991 15.6883L13.5766 21.2353C13.223 21.6596 13.2804 22.2901 13.7046 22.6437C14.1289 22.9973 14.7595 22.9399 15.1131 22.5157L20.2691 16.3284C20.5781 15.9576 20.5781 15.4189 20.2691 15.0481L15.1131 8.86085C14.7595 8.43657 14.1289 8.37925 13.7046 8.73281Z" fill="black"/>
<path fill-rule="evenodd" clip-rule="evenodd" d="M16 3C23.1797 3 29 8.8203 29 16C29 23.1797 23.1797 29 16 29C8.8203 29 3 23.1797 3 16C3 8.8203 8.8203 3 16 3ZM31 16C31 7.71573 24.2843 1 16 1C7.71573 1 1 7.71573 1 16C1 24.2843 7.71573 31 16 31C24.2843 31 31 24.2843 31 16ZM13.7046 8.73281C13.2804 9.08638 13.223 9.71694 13.5766 10.1412L18.1991 15.6883L13.5766 21.2353C13.223 21.6596 13.2804 22.2901 13.7046 22.6437C14.1289 22.9973 14.7595 22.9399 15.1131 22.5157L20.2691 16.3284C20.5781 15.9576 20.5781 15.4189 20.2691 15.0481L15.1131 8.86085C14.7595 8.43657 14.1289 8.37925 13.7046 8.73281Z" fill="black" fill-opacity="0.2"/>
<path fill-rule="evenodd" clip-rule="evenodd" d="M16 3C23.1797 3 29 8.8203 29 16C29 23.1797 23.1797 29 16 29C8.8203 29 3 23.1797 3 16C3 8.8203 8.8203 3 16 3ZM31 16C31 7.71573 24.2843 1 16 1C7.71573 1 1 7.71573 1 16C1 24.2843 7.71573 31 16 31C24.2843 31 31 24.2843 31 16ZM13.7046 8.73281C13.2804 9.08638 13.223 9.71694 13.5766 10.1412L18.1991 15.6883L13.5766 21.2353C13.223 21.6596 13.2804 22.2901 13.7046 22.6437C14.1289 22.9973 14.7595 22.9399 15.1131 22.5157L20.2691 16.3284C20.5781 15.9576 20.5781 15.4189 20.2691 15.0481L15.1131 8.86085C14.7595 8.43657 14.1289 8.37925 13.7046 8.73281Z" fill="black" fill-opacity="0.2"/>
<path fill-rule="evenodd" clip-rule="evenodd" d="M16 3C23.1797 3 29 8.8203 29 16C29 23.1797 23.1797 29 16 29C8.8203 29 3 23.1797 3 16C3 8.8203 8.8203 3 16 3ZM31 16C31 7.71573 24.2843 1 16 1C7.71573 1 1 7.71573 1 16C1 24.2843 7.71573 31 16 31C24.2843 31 31 24.2843 31 16ZM13.7046 8.73281C13.2804 9.08638 13.223 9.71694 13.5766 10.1412L18.1991 15.6883L13.5766 21.2353C13.223 21.6596 13.2804 22.2901 13.7046 22.6437C14.1289 22.9973 14.7595 22.9399 15.1131 22.5157L20.2691 16.3284C20.5781 15.9576 20.5781 15.4189 20.2691 15.0481L15.1131 8.86085C14.7595 8.43657 14.1289 8.37925 13.7046 8.73281Z" fill="black" fill-opacity="0.2"/>
<path fill-rule="evenodd" clip-rule="evenodd" d="M16 3C23.1797 3 29 8.8203 29 16C29 23.1797 23.1797 29 16 29C8.8203 29 3 23.1797 3 16C3 8.8203 8.8203 3 16 3ZM31 16C31 7.71573 24.2843 1 16 1C7.71573 1 1 7.71573 1 16C1 24.2843 7.71573 31 16 31C24.2843 31 31 24.2843 31 16ZM13.7046 8.73281C13.2804 9.08638 13.223 9.71694 13.5766 10.1412L18.1991 15.6883L13.5766 21.2353C13.223 21.6596 13.2804 22.2901 13.7046 22.6437C14.1289 22.9973 14.7595 22.9399 15.1131 22.5157L20.2691 16.3284C20.5781 15.9576 20.5781 15.4189 20.2691 15.0481L15.1131 8.86085C14.7595 8.43657 14.1289 8.37925 13.7046 8.73281Z" fill="black" fill-opacity="0.2"/>
<path fill-rule="evenodd" clip-rule="evenodd" d="M16 3C23.1797 3 29 8.8203 29 16C29 23.1797 23.1797 29 16 29C8.8203 29 3 23.1797 3 16C3 8.8203 8.8203 3 16 3ZM31 16C31 7.71573 24.2843 1 16 1C7.71573 1 1 7.71573 1 16C1 24.2843 7.71573 31 16 31C24.2843 31 31 24.2843 31 16ZM13.7046 8.73281C13.2804 9.08638 13.223 9.71694 13.5766 10.1412L18.1991 15.6883L13.5766 21.2353C13.223 21.6596 13.2804 22.2901 13.7046 22.6437C14.1289 22.9973 14.7595 22.9399 15.1131 22.5157L20.2691 16.3284C20.5781 15.9576 20.5781 15.4189 20.2691 15.0481L15.1131 8.86085C14.7595 8.43657 14.1289 8.37925 13.7046 8.73281Z" fill="black" fill-opacity="0.2"/>
<path fill-rule="evenodd" clip-rule="evenodd" d="M16 3C23.1797 3 29 8.8203 29 16C29 23.1797 23.1797 29 16 29C8.8203 29 3 23.1797 3 16C3 8.8203 8.8203 3 16 3ZM31 16C31 7.71573 24.2843 1 16 1C7.71573 1 1 7.71573 1 16C1 24.2843 7.71573 31 16 31C24.2843 31 31 24.2843 31 16ZM13.7046 8.73281C13.2804 9.08638 13.223 9.71694 13.5766 10.1412L18.1991 15.6883L13.5766 21.2353C13.223 21.6596 13.2804 22.2901 13.7046 22.6437C14.1289 22.9973 14.7595 22.9399 15.1131 22.5157L20.2691 16.3284C20.5781 15.9576 20.5781 15.4189 20.2691 15.0481L15.1131 8.86085C14.7595 8.43657 14.1289 8.37925 13.7046 8.73281Z" fill="black" fill-opacity="0.2"/>
<path fill-rule="evenodd" clip-rule="evenodd" d="M16 3C23.1797 3 29 8.8203 29 16C29 23.1797 23.1797 29 16 29C8.8203 29 3 23.1797 3 16C3 8.8203 8.8203 3 16 3ZM31 16C31 7.71573 24.2843 1 16 1C7.71573 1 1 7.71573 1 16C1 24.2843 7.71573 31 16 31C24.2843 31 31 24.2843 31 16ZM13.7046 8.73281C13.2804 9.08638 13.223 9.71694 13.5766 10.1412L18.1991 15.6883L13.5766 21.2353C13.223 21.6596 13.2804 22.2901 13.7046 22.6437C14.1289 22.9973 14.7595 22.9399 15.1131 22.5157L20.2691 16.3284C20.5781 15.9576 20.5781 15.4189 20.2691 15.0481L15.1131 8.86085C14.7595 8.43657 14.1289 8.37925 13.7046 8.73281Z" fill="black" fill-opacity="0.2"/>
<path fill-rule="evenodd" clip-rule="evenodd" d="M16 3C23.1797 3 29 8.8203 29 16C29 23.1797 23.1797 29 16 29C8.8203 29 3 23.1797 3 16C3 8.8203 8.8203 3 16 3ZM31 16C31 7.71573 24.2843 1 16 1C7.71573 1 1 7.71573 1 16C1 24.2843 7.71573 31 16 31C24.2843 31 31 24.2843 31 16ZM13.7046 8.73281C13.2804 9.08638 13.223 9.71694 13.5766 10.1412L18.1991 15.6883L13.5766 21.2353C13.223 21.6596 13.2804 22.2901 13.7046 22.6437C14.1289 22.9973 14.7595 22.9399 15.1131 22.5157L20.2691 16.3284C20.5781 15.9576 20.5781 15.4189 20.2691 15.0481L15.1131 8.86085C14.7595 8.43657 14.1289 8.37925 13.7046 8.73281Z" fill="black" fill-opacity="0.2"/>
<path fill-rule="evenodd" clip-rule="evenodd" d="M16 3C23.1797 3 29 8.8203 29 16C29 23.1797 23.1797 29 16 29C8.8203 29 3 23.1797 3 16C3 8.8203 8.8203 3 16 3ZM31 16C31 7.71573 24.2843 1 16 1C7.71573 1 1 7.71573 1 16C1 24.2843 7.71573 31 16 31C24.2843 31 31 24.2843 31 16ZM13.7046 8.73281C13.2804 9.08638 13.223 9.71694 13.5766 10.1412L18.1991 15.6883L13.5766 21.2353C13.223 21.6596 13.2804 22.2901 13.7046 22.6437C14.1289 22.9973 14.7595 22.9399 15.1131 22.5157L20.2691 16.3284C20.5781 15.9576 20.5781 15.4189 20.2691 15.0481L15.1131 8.86085C14.7595 8.43657 14.1289 8.37925 13.7046 8.73281Z" fill="black" fill-opacity="0.2"/>
</svg>
