<svg width="32" height="32" viewBox="0 0 32 32" fill="none" xmlns="http://www.w3.org/2000/svg">
<g clip-path="url(#clip0_300_152)">
<path d="M15.9899 13.0675C15.4113 13.0679 14.8458 13.2398 14.3648 13.5615C13.8839 13.8833 13.5091 14.3403 13.2878 14.8749C13.0666 15.4096 13.0089 15.9978 13.1218 16.5653C13.2348 17.1328 13.5134 17.6541 13.9226 18.0632C14.3317 18.4724 14.853 18.7511 15.4205 18.864C15.988 18.977 16.5762 18.9192 17.1109 18.698C17.6455 18.4767 18.1026 18.102 18.4243 17.621C18.746 17.1401 18.9179 16.5746 18.9183 15.9959C18.9183 15.2193 18.6098 14.4744 18.0606 13.9252C17.5114 13.376 16.7666 13.0675 15.9899 13.0675Z" fill="black"/>
<path d="M15.9899 13.0675C15.4113 13.0679 14.8458 13.2398 14.3648 13.5615C13.8839 13.8833 13.5091 14.3403 13.2878 14.8749C13.0666 15.4096 13.0089 15.9978 13.1218 16.5653C13.2348 17.1328 13.5134 17.6541 13.9226 18.0632C14.3317 18.4724 14.853 18.7511 15.4205 18.864C15.988 18.977 16.5762 18.9192 17.1109 18.698C17.6455 18.4767 18.1026 18.102 18.4243 17.621C18.746 17.1401 18.9179 16.5746 18.9183 15.9959C18.9183 15.2193 18.6098 14.4744 18.0606 13.9252C17.5114 13.376 16.7666 13.0675 15.9899 13.0675Z" fill="black" fill-opacity="0.2"/>
<path d="M15.9899 13.0675C15.4113 13.0679 14.8458 13.2398 14.3648 13.5615C13.8839 13.8833 13.5091 14.3403 13.2878 14.8749C13.0666 15.4096 13.0089 15.9978 13.1218 16.5653C13.2348 17.1328 13.5134 17.6541 13.9226 18.0632C14.3317 18.4724 14.853 18.7511 15.4205 18.864C15.988 18.977 16.5762 18.9192 17.1109 18.698C17.6455 18.4767 18.1026 18.102 18.4243 17.621C18.746 17.1401 18.9179 16.5746 18.9183 15.9959C18.9183 15.2193 18.6098 14.4744 18.0606 13.9252C17.5114 13.376 16.7666 13.0675 15.9899 13.0675Z" fill="black" fill-opacity="0.2"/>
<path d="M15.9899 13.0675C15.4113 13.0679 14.8458 13.2398 14.3648 13.5615C13.8839 13.8833 13.5091 14.3403 13.2878 14.8749C13.0666 15.4096 13.0089 15.9978 13.1218 16.5653C13.2348 17.1328 13.5134 17.6541 13.9226 18.0632C14.3317 18.4724 14.853 18.7511 15.4205 18.864C15.988 18.977 16.5762 18.9192 17.1109 18.698C17.6455 18.4767 18.1026 18.102 18.4243 17.621C18.746 17.1401 18.9179 16.5746 18.9183 15.9959C18.9183 15.2193 18.6098 14.4744 18.0606 13.9252C17.5114 13.376 16.7666 13.0675 15.9899 13.0675Z" fill="black" fill-opacity="0.2"/>
<path d="M15.9899 13.0675C15.4113 13.0679 14.8458 13.2398 14.3648 13.5615C13.8839 13.8833 13.5091 14.3403 13.2878 14.8749C13.0666 15.4096 13.0089 15.9978 13.1218 16.5653C13.2348 17.1328 13.5134 17.6541 13.9226 18.0632C14.3317 18.4724 14.853 18.7511 15.4205 18.864C15.988 18.977 16.5762 18.9192 17.1109 18.698C17.6455 18.4767 18.1026 18.102 18.4243 17.621C18.746 17.1401 18.9179 16.5746 18.9183 15.9959C18.9183 15.2193 18.6098 14.4744 18.0606 13.9252C17.5114 13.376 16.7666 13.0675 15.9899 13.0675Z" fill="black" fill-opacity="0.2"/>
<path d="M15.9899 13.0675C15.4113 13.0679 14.8458 13.2398 14.3648 13.5615C13.8839 13.8833 13.5091 14.3403 13.2878 14.8749C13.0666 15.4096 13.0089 15.9978 13.1218 16.5653C13.2348 17.1328 13.5134 17.6541 13.9226 18.0632C14.3317 18.4724 14.853 18.7511 15.4205 18.864C15.988 18.977 16.5762 18.9192 17.1109 18.698C17.6455 18.4767 18.1026 18.102 18.4243 17.621C18.746 17.1401 18.9179 16.5746 18.9183 15.9959C18.9183 15.2193 18.6098 14.4744 18.0606 13.9252C17.5114 13.376 16.7666 13.0675 15.9899 13.0675Z" fill="black" fill-opacity="0.2"/>
<path d="M15.9899 13.0675C15.4113 13.0679 14.8458 13.2398 14.3648 13.5615C13.8839 13.8833 13.5091 14.3403 13.2878 14.8749C13.0666 15.4096 13.0089 15.9978 13.1218 16.5653C13.2348 17.1328 13.5134 17.6541 13.9226 18.0632C14.3317 18.4724 14.853 18.7511 15.4205 18.864C15.988 18.977 16.5762 18.9192 17.1109 18.698C17.6455 18.4767 18.1026 18.102 18.4243 17.621C18.746 17.1401 18.9179 16.5746 18.9183 15.9959C18.9183 15.2193 18.6098 14.4744 18.0606 13.9252C17.5114 13.376 16.7666 13.0675 15.9899 13.0675Z" fill="black" fill-opacity="0.2"/>
<path d="M15.9899 13.0675C15.4113 13.0679 14.8458 13.2398 14.3648 13.5615C13.8839 13.8833 13.5091 14.3403 13.2878 14.8749C13.0666 15.4096 13.0089 15.9978 13.1218 16.5653C13.2348 17.1328 13.5134 17.6541 13.9226 18.0632C14.3317 18.4724 14.853 18.7511 15.4205 18.864C15.988 18.977 16.5762 18.9192 17.1109 18.698C17.6455 18.4767 18.1026 18.102 18.4243 17.621C18.746 17.1401 18.9179 16.5746 18.9183 15.9959C18.9183 15.2193 18.6098 14.4744 18.0606 13.9252C17.5114 13.376 16.7666 13.0675 15.9899 13.0675Z" fill="black" fill-opacity="0.2"/>
<path d="M15.9899 13.0675C15.4113 13.0679 14.8458 13.2398 14.3648 13.5615C13.8839 13.8833 13.5091 14.3403 13.2878 14.8749C13.0666 15.4096 13.0089 15.9978 13.1218 16.5653C13.2348 17.1328 13.5134 17.6541 13.9226 18.0632C14.3317 18.4724 14.853 18.7511 15.4205 18.864C15.988 18.977 16.5762 18.9192 17.1109 18.698C17.6455 18.4767 18.1026 18.102 18.4243 17.621C18.746 17.1401 18.9179 16.5746 18.9183 15.9959C18.9183 15.2193 18.6098 14.4744 18.0606 13.9252C17.5114 13.376 16.7666 13.0675 15.9899 13.0675Z" fill="black" fill-opacity="0.2"/>
<path d="M15.9899 13.0675C15.4113 13.0679 14.8458 13.2398 14.3648 13.5615C13.8839 13.8833 13.5091 14.3403 13.2878 14.8749C13.0666 15.4096 13.0089 15.9978 13.1218 16.5653C13.2348 17.1328 13.5134 17.6541 13.9226 18.0632C14.3317 18.4724 14.853 18.7511 15.4205 18.864C15.988 18.977 16.5762 18.9192 17.1109 18.698C17.6455 18.4767 18.1026 18.102 18.4243 17.621C18.746 17.1401 18.9179 16.5746 18.9183 15.9959C18.9183 15.2193 18.6098 14.4744 18.0606 13.9252C17.5114 13.376 16.7666 13.0675 15.9899 13.0675Z" fill="black" fill-opacity="0.2"/>
<path d="M22.8342 10.8213C22.6893 10.4414 22.4658 10.0964 22.1783 9.80893C21.8908 9.52142 21.5458 9.29789 21.1659 9.15294C20.6449 8.95949 20.0942 8.85812 19.5384 8.85339C18.6139 8.81246 18.3353 8.80248 15.99 8.80248C13.6446 8.80248 13.371 8.81246 12.4465 8.85339C11.8892 8.85877 11.337 8.96011 10.814 9.15294C10.4339 9.29453 10.0899 9.51853 9.80664 9.8089C9.51431 10.0925 9.29006 10.4386 9.15069 10.8213C8.95846 11.3425 8.85552 11.8924 8.84617 12.4478C8.80524 13.3723 8.79425 13.6519 8.79425 15.9962C8.79425 18.3406 8.80524 18.6151 8.84617 19.5397C8.855 20.0971 8.95795 20.649 9.15069 21.1721C9.2901 21.5534 9.51441 21.8979 9.80664 22.1796C10.087 22.4734 10.4319 22.6979 10.814 22.8355C11.3365 23.0308 11.8888 23.1338 12.4465 23.1401C13.371 23.181 13.6496 23.191 15.99 23.191C18.3303 23.191 18.6139 23.181 19.5384 23.1401C20.0946 23.1345 20.6454 23.0314 21.1659 22.8355C21.5494 22.6979 21.8959 22.4734 22.1783 22.1796C22.4688 21.8964 22.6928 21.5524 22.8342 21.1721C23.0272 20.6493 23.1286 20.097 23.1338 19.5397C23.1797 18.6151 23.1857 18.3416 23.1857 15.9962C23.1857 13.6509 23.1807 13.3723 23.1338 12.4478C23.1281 11.8925 23.0267 11.3423 22.8342 10.8213ZM15.9909 20.5012C15.0995 20.5008 14.2283 20.236 13.4873 19.7404C12.7463 19.2448 12.1689 18.5406 11.8282 17.7169C11.4875 16.8931 11.3987 15.9869 11.5731 15.1126C11.7475 14.2384 12.1771 13.4356 12.8078 12.8056C13.4385 12.1756 14.2419 11.7468 15.1163 11.5734C15.9907 11.4 16.8969 11.4898 17.7202 11.8314C18.5436 12.173 19.2472 12.7512 19.742 13.4927C20.2367 14.2342 20.5005 15.1058 20.4999 15.9972C20.5002 16.5891 20.3837 17.1753 20.1571 17.7221C19.9305 18.269 19.5983 18.7657 19.1795 19.184C18.7607 19.6023 18.2635 19.9338 17.7163 20.1597C17.1692 20.3855 16.5829 20.5012 15.9909 20.5002V20.5012ZM20.6756 12.3659C20.4674 12.3657 20.2639 12.3038 20.0908 12.188C19.9177 12.0721 19.7829 11.9076 19.7033 11.7152C19.6237 11.5228 19.6029 11.3111 19.6436 11.1068C19.6842 10.9026 19.7845 10.715 19.9318 10.5677C20.0791 10.4205 20.2666 10.3202 20.4709 10.2795C20.6751 10.2388 20.8869 10.2596 21.0793 10.3392C21.2717 10.4188 21.4362 10.5536 21.5521 10.7267C21.6679 10.8998 21.7298 11.1033 21.73 11.3116C21.729 11.5909 21.6175 11.8584 21.42 12.0559C21.2225 12.2534 20.9549 12.3649 20.6756 12.3659Z" fill="black"/>
<path d="M22.8342 10.8213C22.6893 10.4414 22.4658 10.0964 22.1783 9.80893C21.8908 9.52142 21.5458 9.29789 21.1659 9.15294C20.6449 8.95949 20.0942 8.85812 19.5384 8.85339C18.6139 8.81246 18.3353 8.80248 15.99 8.80248C13.6446 8.80248 13.371 8.81246 12.4465 8.85339C11.8892 8.85877 11.337 8.96011 10.814 9.15294C10.4339 9.29453 10.0899 9.51853 9.80664 9.8089C9.51431 10.0925 9.29006 10.4386 9.15069 10.8213C8.95846 11.3425 8.85552 11.8924 8.84617 12.4478C8.80524 13.3723 8.79425 13.6519 8.79425 15.9962C8.79425 18.3406 8.80524 18.6151 8.84617 19.5397C8.855 20.0971 8.95795 20.649 9.15069 21.1721C9.2901 21.5534 9.51441 21.8979 9.80664 22.1796C10.087 22.4734 10.4319 22.6979 10.814 22.8355C11.3365 23.0308 11.8888 23.1338 12.4465 23.1401C13.371 23.181 13.6496 23.191 15.99 23.191C18.3303 23.191 18.6139 23.181 19.5384 23.1401C20.0946 23.1345 20.6454 23.0314 21.1659 22.8355C21.5494 22.6979 21.8959 22.4734 22.1783 22.1796C22.4688 21.8964 22.6928 21.5524 22.8342 21.1721C23.0272 20.6493 23.1286 20.097 23.1338 19.5397C23.1797 18.6151 23.1857 18.3416 23.1857 15.9962C23.1857 13.6509 23.1807 13.3723 23.1338 12.4478C23.1281 11.8925 23.0267 11.3423 22.8342 10.8213ZM15.9909 20.5012C15.0995 20.5008 14.2283 20.236 13.4873 19.7404C12.7463 19.2448 12.1689 18.5406 11.8282 17.7169C11.4875 16.8931 11.3987 15.9869 11.5731 15.1126C11.7475 14.2384 12.1771 13.4356 12.8078 12.8056C13.4385 12.1756 14.2419 11.7468 15.1163 11.5734C15.9907 11.4 16.8969 11.4898 17.7202 11.8314C18.5436 12.173 19.2472 12.7512 19.742 13.4927C20.2367 14.2342 20.5005 15.1058 20.4999 15.9972C20.5002 16.5891 20.3837 17.1753 20.1571 17.7221C19.9305 18.269 19.5983 18.7657 19.1795 19.184C18.7607 19.6023 18.2635 19.9338 17.7163 20.1597C17.1692 20.3855 16.5829 20.5012 15.9909 20.5002V20.5012ZM20.6756 12.3659C20.4674 12.3657 20.2639 12.3038 20.0908 12.188C19.9177 12.0721 19.7829 11.9076 19.7033 11.7152C19.6237 11.5228 19.6029 11.3111 19.6436 11.1068C19.6842 10.9026 19.7845 10.715 19.9318 10.5677C20.0791 10.4205 20.2666 10.3202 20.4709 10.2795C20.6751 10.2388 20.8869 10.2596 21.0793 10.3392C21.2717 10.4188 21.4362 10.5536 21.5521 10.7267C21.6679 10.8998 21.7298 11.1033 21.73 11.3116C21.729 11.5909 21.6175 11.8584 21.42 12.0559C21.2225 12.2534 20.9549 12.3649 20.6756 12.3659Z" fill="black" fill-opacity="0.2"/>
<path d="M22.8342 10.8213C22.6893 10.4414 22.4658 10.0964 22.1783 9.80893C21.8908 9.52142 21.5458 9.29789 21.1659 9.15294C20.6449 8.95949 20.0942 8.85812 19.5384 8.85339C18.6139 8.81246 18.3353 8.80248 15.99 8.80248C13.6446 8.80248 13.371 8.81246 12.4465 8.85339C11.8892 8.85877 11.337 8.96011 10.814 9.15294C10.4339 9.29453 10.0899 9.51853 9.80664 9.8089C9.51431 10.0925 9.29006 10.4386 9.15069 10.8213C8.95846 11.3425 8.85552 11.8924 8.84617 12.4478C8.80524 13.3723 8.79425 13.6519 8.79425 15.9962C8.79425 18.3406 8.80524 18.6151 8.84617 19.5397C8.855 20.0971 8.95795 20.649 9.15069 21.1721C9.2901 21.5534 9.51441 21.8979 9.80664 22.1796C10.087 22.4734 10.4319 22.6979 10.814 22.8355C11.3365 23.0308 11.8888 23.1338 12.4465 23.1401C13.371 23.181 13.6496 23.191 15.99 23.191C18.3303 23.191 18.6139 23.181 19.5384 23.1401C20.0946 23.1345 20.6454 23.0314 21.1659 22.8355C21.5494 22.6979 21.8959 22.4734 22.1783 22.1796C22.4688 21.8964 22.6928 21.5524 22.8342 21.1721C23.0272 20.6493 23.1286 20.097 23.1338 19.5397C23.1797 18.6151 23.1857 18.3416 23.1857 15.9962C23.1857 13.6509 23.1807 13.3723 23.1338 12.4478C23.1281 11.8925 23.0267 11.3423 22.8342 10.8213ZM15.9909 20.5012C15.0995 20.5008 14.2283 20.236 13.4873 19.7404C12.7463 19.2448 12.1689 18.5406 11.8282 17.7169C11.4875 16.8931 11.3987 15.9869 11.5731 15.1126C11.7475 14.2384 12.1771 13.4356 12.8078 12.8056C13.4385 12.1756 14.2419 11.7468 15.1163 11.5734C15.9907 11.4 16.8969 11.4898 17.7202 11.8314C18.5436 12.173 19.2472 12.7512 19.742 13.4927C20.2367 14.2342 20.5005 15.1058 20.4999 15.9972C20.5002 16.5891 20.3837 17.1753 20.1571 17.7221C19.9305 18.269 19.5983 18.7657 19.1795 19.184C18.7607 19.6023 18.2635 19.9338 17.7163 20.1597C17.1692 20.3855 16.5829 20.5012 15.9909 20.5002V20.5012ZM20.6756 12.3659C20.4674 12.3657 20.2639 12.3038 20.0908 12.188C19.9177 12.0721 19.7829 11.9076 19.7033 11.7152C19.6237 11.5228 19.6029 11.3111 19.6436 11.1068C19.6842 10.9026 19.7845 10.715 19.9318 10.5677C20.0791 10.4205 20.2666 10.3202 20.4709 10.2795C20.6751 10.2388 20.8869 10.2596 21.0793 10.3392C21.2717 10.4188 21.4362 10.5536 21.5521 10.7267C21.6679 10.8998 21.7298 11.1033 21.73 11.3116C21.729 11.5909 21.6175 11.8584 21.42 12.0559C21.2225 12.2534 20.9549 12.3649 20.6756 12.3659Z" fill="black" fill-opacity="0.2"/>
<path d="M22.8342 10.8213C22.6893 10.4414 22.4658 10.0964 22.1783 9.80893C21.8908 9.52142 21.5458 9.29789 21.1659 9.15294C20.6449 8.95949 20.0942 8.85812 19.5384 8.85339C18.6139 8.81246 18.3353 8.80248 15.99 8.80248C13.6446 8.80248 13.371 8.81246 12.4465 8.85339C11.8892 8.85877 11.337 8.96011 10.814 9.15294C10.4339 9.29453 10.0899 9.51853 9.80664 9.8089C9.51431 10.0925 9.29006 10.4386 9.15069 10.8213C8.95846 11.3425 8.85552 11.8924 8.84617 12.4478C8.80524 13.3723 8.79425 13.6519 8.79425 15.9962C8.79425 18.3406 8.80524 18.6151 8.84617 19.5397C8.855 20.0971 8.95795 20.649 9.15069 21.1721C9.2901 21.5534 9.51441 21.8979 9.80664 22.1796C10.087 22.4734 10.4319 22.6979 10.814 22.8355C11.3365 23.0308 11.8888 23.1338 12.4465 23.1401C13.371 23.181 13.6496 23.191 15.99 23.191C18.3303 23.191 18.6139 23.181 19.5384 23.1401C20.0946 23.1345 20.6454 23.0314 21.1659 22.8355C21.5494 22.6979 21.8959 22.4734 22.1783 22.1796C22.4688 21.8964 22.6928 21.5524 22.8342 21.1721C23.0272 20.6493 23.1286 20.097 23.1338 19.5397C23.1797 18.6151 23.1857 18.3416 23.1857 15.9962C23.1857 13.6509 23.1807 13.3723 23.1338 12.4478C23.1281 11.8925 23.0267 11.3423 22.8342 10.8213ZM15.9909 20.5012C15.0995 20.5008 14.2283 20.236 13.4873 19.7404C12.7463 19.2448 12.1689 18.5406 11.8282 17.7169C11.4875 16.8931 11.3987 15.9869 11.5731 15.1126C11.7475 14.2384 12.1771 13.4356 12.8078 12.8056C13.4385 12.1756 14.2419 11.7468 15.1163 11.5734C15.9907 11.4 16.8969 11.4898 17.7202 11.8314C18.5436 12.173 19.2472 12.7512 19.742 13.4927C20.2367 14.2342 20.5005 15.1058 20.4999 15.9972C20.5002 16.5891 20.3837 17.1753 20.1571 17.7221C19.9305 18.269 19.5983 18.7657 19.1795 19.184C18.7607 19.6023 18.2635 19.9338 17.7163 20.1597C17.1692 20.3855 16.5829 20.5012 15.9909 20.5002V20.5012ZM20.6756 12.3659C20.4674 12.3657 20.2639 12.3038 20.0908 12.188C19.9177 12.0721 19.7829 11.9076 19.7033 11.7152C19.6237 11.5228 19.6029 11.3111 19.6436 11.1068C19.6842 10.9026 19.7845 10.715 19.9318 10.5677C20.0791 10.4205 20.2666 10.3202 20.4709 10.2795C20.6751 10.2388 20.8869 10.2596 21.0793 10.3392C21.2717 10.4188 21.4362 10.5536 21.5521 10.7267C21.6679 10.8998 21.7298 11.1033 21.73 11.3116C21.729 11.5909 21.6175 11.8584 21.42 12.0559C21.2225 12.2534 20.9549 12.3649 20.6756 12.3659Z" fill="black" fill-opacity="0.2"/>
<path d="M22.8342 10.8213C22.6893 10.4414 22.4658 10.0964 22.1783 9.80893C21.8908 9.52142 21.5458 9.29789 21.1659 9.15294C20.6449 8.95949 20.0942 8.85812 19.5384 8.85339C18.6139 8.81246 18.3353 8.80248 15.99 8.80248C13.6446 8.80248 13.371 8.81246 12.4465 8.85339C11.8892 8.85877 11.337 8.96011 10.814 9.15294C10.4339 9.29453 10.0899 9.51853 9.80664 9.8089C9.51431 10.0925 9.29006 10.4386 9.15069 10.8213C8.95846 11.3425 8.85552 11.8924 8.84617 12.4478C8.80524 13.3723 8.79425 13.6519 8.79425 15.9962C8.79425 18.3406 8.80524 18.6151 8.84617 19.5397C8.855 20.0971 8.95795 20.649 9.15069 21.1721C9.2901 21.5534 9.51441 21.8979 9.80664 22.1796C10.087 22.4734 10.4319 22.6979 10.814 22.8355C11.3365 23.0308 11.8888 23.1338 12.4465 23.1401C13.371 23.181 13.6496 23.191 15.99 23.191C18.3303 23.191 18.6139 23.181 19.5384 23.1401C20.0946 23.1345 20.6454 23.0314 21.1659 22.8355C21.5494 22.6979 21.8959 22.4734 22.1783 22.1796C22.4688 21.8964 22.6928 21.5524 22.8342 21.1721C23.0272 20.6493 23.1286 20.097 23.1338 19.5397C23.1797 18.6151 23.1857 18.3416 23.1857 15.9962C23.1857 13.6509 23.1807 13.3723 23.1338 12.4478C23.1281 11.8925 23.0267 11.3423 22.8342 10.8213ZM15.9909 20.5012C15.0995 20.5008 14.2283 20.236 13.4873 19.7404C12.7463 19.2448 12.1689 18.5406 11.8282 17.7169C11.4875 16.8931 11.3987 15.9869 11.5731 15.1126C11.7475 14.2384 12.1771 13.4356 12.8078 12.8056C13.4385 12.1756 14.2419 11.7468 15.1163 11.5734C15.9907 11.4 16.8969 11.4898 17.7202 11.8314C18.5436 12.173 19.2472 12.7512 19.742 13.4927C20.2367 14.2342 20.5005 15.1058 20.4999 15.9972C20.5002 16.5891 20.3837 17.1753 20.1571 17.7221C19.9305 18.269 19.5983 18.7657 19.1795 19.184C18.7607 19.6023 18.2635 19.9338 17.7163 20.1597C17.1692 20.3855 16.5829 20.5012 15.9909 20.5002V20.5012ZM20.6756 12.3659C20.4674 12.3657 20.2639 12.3038 20.0908 12.188C19.9177 12.0721 19.7829 11.9076 19.7033 11.7152C19.6237 11.5228 19.6029 11.3111 19.6436 11.1068C19.6842 10.9026 19.7845 10.715 19.9318 10.5677C20.0791 10.4205 20.2666 10.3202 20.4709 10.2795C20.6751 10.2388 20.8869 10.2596 21.0793 10.3392C21.2717 10.4188 21.4362 10.5536 21.5521 10.7267C21.6679 10.8998 21.7298 11.1033 21.73 11.3116C21.729 11.5909 21.6175 11.8584 21.42 12.0559C21.2225 12.2534 20.9549 12.3649 20.6756 12.3659Z" fill="black" fill-opacity="0.2"/>
<path d="M22.8342 10.8213C22.6893 10.4414 22.4658 10.0964 22.1783 9.80893C21.8908 9.52142 21.5458 9.29789 21.1659 9.15294C20.6449 8.95949 20.0942 8.85812 19.5384 8.85339C18.6139 8.81246 18.3353 8.80248 15.99 8.80248C13.6446 8.80248 13.371 8.81246 12.4465 8.85339C11.8892 8.85877 11.337 8.96011 10.814 9.15294C10.4339 9.29453 10.0899 9.51853 9.80664 9.8089C9.51431 10.0925 9.29006 10.4386 9.15069 10.8213C8.95846 11.3425 8.85552 11.8924 8.84617 12.4478C8.80524 13.3723 8.79425 13.6519 8.79425 15.9962C8.79425 18.3406 8.80524 18.6151 8.84617 19.5397C8.855 20.0971 8.95795 20.649 9.15069 21.1721C9.2901 21.5534 9.51441 21.8979 9.80664 22.1796C10.087 22.4734 10.4319 22.6979 10.814 22.8355C11.3365 23.0308 11.8888 23.1338 12.4465 23.1401C13.371 23.181 13.6496 23.191 15.99 23.191C18.3303 23.191 18.6139 23.181 19.5384 23.1401C20.0946 23.1345 20.6454 23.0314 21.1659 22.8355C21.5494 22.6979 21.8959 22.4734 22.1783 22.1796C22.4688 21.8964 22.6928 21.5524 22.8342 21.1721C23.0272 20.6493 23.1286 20.097 23.1338 19.5397C23.1797 18.6151 23.1857 18.3416 23.1857 15.9962C23.1857 13.6509 23.1807 13.3723 23.1338 12.4478C23.1281 11.8925 23.0267 11.3423 22.8342 10.8213ZM15.9909 20.5012C15.0995 20.5008 14.2283 20.236 13.4873 19.7404C12.7463 19.2448 12.1689 18.5406 11.8282 17.7169C11.4875 16.8931 11.3987 15.9869 11.5731 15.1126C11.7475 14.2384 12.1771 13.4356 12.8078 12.8056C13.4385 12.1756 14.2419 11.7468 15.1163 11.5734C15.9907 11.4 16.8969 11.4898 17.7202 11.8314C18.5436 12.173 19.2472 12.7512 19.742 13.4927C20.2367 14.2342 20.5005 15.1058 20.4999 15.9972C20.5002 16.5891 20.3837 17.1753 20.1571 17.7221C19.9305 18.269 19.5983 18.7657 19.1795 19.184C18.7607 19.6023 18.2635 19.9338 17.7163 20.1597C17.1692 20.3855 16.5829 20.5012 15.9909 20.5002V20.5012ZM20.6756 12.3659C20.4674 12.3657 20.2639 12.3038 20.0908 12.188C19.9177 12.0721 19.7829 11.9076 19.7033 11.7152C19.6237 11.5228 19.6029 11.3111 19.6436 11.1068C19.6842 10.9026 19.7845 10.715 19.9318 10.5677C20.0791 10.4205 20.2666 10.3202 20.4709 10.2795C20.6751 10.2388 20.8869 10.2596 21.0793 10.3392C21.2717 10.4188 21.4362 10.5536 21.5521 10.7267C21.6679 10.8998 21.7298 11.1033 21.73 11.3116C21.729 11.5909 21.6175 11.8584 21.42 12.0559C21.2225 12.2534 20.9549 12.3649 20.6756 12.3659Z" fill="black" fill-opacity="0.2"/>
<path d="M22.8342 10.8213C22.6893 10.4414 22.4658 10.0964 22.1783 9.80893C21.8908 9.52142 21.5458 9.29789 21.1659 9.15294C20.6449 8.95949 20.0942 8.85812 19.5384 8.85339C18.6139 8.81246 18.3353 8.80248 15.99 8.80248C13.6446 8.80248 13.371 8.81246 12.4465 8.85339C11.8892 8.85877 11.337 8.96011 10.814 9.15294C10.4339 9.29453 10.0899 9.51853 9.80664 9.8089C9.51431 10.0925 9.29006 10.4386 9.15069 10.8213C8.95846 11.3425 8.85552 11.8924 8.84617 12.4478C8.80524 13.3723 8.79425 13.6519 8.79425 15.9962C8.79425 18.3406 8.80524 18.6151 8.84617 19.5397C8.855 20.0971 8.95795 20.649 9.15069 21.1721C9.2901 21.5534 9.51441 21.8979 9.80664 22.1796C10.087 22.4734 10.4319 22.6979 10.814 22.8355C11.3365 23.0308 11.8888 23.1338 12.4465 23.1401C13.371 23.181 13.6496 23.191 15.99 23.191C18.3303 23.191 18.6139 23.181 19.5384 23.1401C20.0946 23.1345 20.6454 23.0314 21.1659 22.8355C21.5494 22.6979 21.8959 22.4734 22.1783 22.1796C22.4688 21.8964 22.6928 21.5524 22.8342 21.1721C23.0272 20.6493 23.1286 20.097 23.1338 19.5397C23.1797 18.6151 23.1857 18.3416 23.1857 15.9962C23.1857 13.6509 23.1807 13.3723 23.1338 12.4478C23.1281 11.8925 23.0267 11.3423 22.8342 10.8213ZM15.9909 20.5012C15.0995 20.5008 14.2283 20.236 13.4873 19.7404C12.7463 19.2448 12.1689 18.5406 11.8282 17.7169C11.4875 16.8931 11.3987 15.9869 11.5731 15.1126C11.7475 14.2384 12.1771 13.4356 12.8078 12.8056C13.4385 12.1756 14.2419 11.7468 15.1163 11.5734C15.9907 11.4 16.8969 11.4898 17.7202 11.8314C18.5436 12.173 19.2472 12.7512 19.742 13.4927C20.2367 14.2342 20.5005 15.1058 20.4999 15.9972C20.5002 16.5891 20.3837 17.1753 20.1571 17.7221C19.9305 18.269 19.5983 18.7657 19.1795 19.184C18.7607 19.6023 18.2635 19.9338 17.7163 20.1597C17.1692 20.3855 16.5829 20.5012 15.9909 20.5002V20.5012ZM20.6756 12.3659C20.4674 12.3657 20.2639 12.3038 20.0908 12.188C19.9177 12.0721 19.7829 11.9076 19.7033 11.7152C19.6237 11.5228 19.6029 11.3111 19.6436 11.1068C19.6842 10.9026 19.7845 10.715 19.9318 10.5677C20.0791 10.4205 20.2666 10.3202 20.4709 10.2795C20.6751 10.2388 20.8869 10.2596 21.0793 10.3392C21.2717 10.4188 21.4362 10.5536 21.5521 10.7267C21.6679 10.8998 21.7298 11.1033 21.73 11.3116C21.729 11.5909 21.6175 11.8584 21.42 12.0559C21.2225 12.2534 20.9549 12.3649 20.6756 12.3659Z" fill="black" fill-opacity="0.2"/>
<path d="M22.8342 10.8213C22.6893 10.4414 22.4658 10.0964 22.1783 9.80893C21.8908 9.52142 21.5458 9.29789 21.1659 9.15294C20.6449 8.95949 20.0942 8.85812 19.5384 8.85339C18.6139 8.81246 18.3353 8.80248 15.99 8.80248C13.6446 8.80248 13.371 8.81246 12.4465 8.85339C11.8892 8.85877 11.337 8.96011 10.814 9.15294C10.4339 9.29453 10.0899 9.51853 9.80664 9.8089C9.51431 10.0925 9.29006 10.4386 9.15069 10.8213C8.95846 11.3425 8.85552 11.8924 8.84617 12.4478C8.80524 13.3723 8.79425 13.6519 8.79425 15.9962C8.79425 18.3406 8.80524 18.6151 8.84617 19.5397C8.855 20.0971 8.95795 20.649 9.15069 21.1721C9.2901 21.5534 9.51441 21.8979 9.80664 22.1796C10.087 22.4734 10.4319 22.6979 10.814 22.8355C11.3365 23.0308 11.8888 23.1338 12.4465 23.1401C13.371 23.181 13.6496 23.191 15.99 23.191C18.3303 23.191 18.6139 23.181 19.5384 23.1401C20.0946 23.1345 20.6454 23.0314 21.1659 22.8355C21.5494 22.6979 21.8959 22.4734 22.1783 22.1796C22.4688 21.8964 22.6928 21.5524 22.8342 21.1721C23.0272 20.6493 23.1286 20.097 23.1338 19.5397C23.1797 18.6151 23.1857 18.3416 23.1857 15.9962C23.1857 13.6509 23.1807 13.3723 23.1338 12.4478C23.1281 11.8925 23.0267 11.3423 22.8342 10.8213ZM15.9909 20.5012C15.0995 20.5008 14.2283 20.236 13.4873 19.7404C12.7463 19.2448 12.1689 18.5406 11.8282 17.7169C11.4875 16.8931 11.3987 15.9869 11.5731 15.1126C11.7475 14.2384 12.1771 13.4356 12.8078 12.8056C13.4385 12.1756 14.2419 11.7468 15.1163 11.5734C15.9907 11.4 16.8969 11.4898 17.7202 11.8314C18.5436 12.173 19.2472 12.7512 19.742 13.4927C20.2367 14.2342 20.5005 15.1058 20.4999 15.9972C20.5002 16.5891 20.3837 17.1753 20.1571 17.7221C19.9305 18.269 19.5983 18.7657 19.1795 19.184C18.7607 19.6023 18.2635 19.9338 17.7163 20.1597C17.1692 20.3855 16.5829 20.5012 15.9909 20.5002V20.5012ZM20.6756 12.3659C20.4674 12.3657 20.2639 12.3038 20.0908 12.188C19.9177 12.0721 19.7829 11.9076 19.7033 11.7152C19.6237 11.5228 19.6029 11.3111 19.6436 11.1068C19.6842 10.9026 19.7845 10.715 19.9318 10.5677C20.0791 10.4205 20.2666 10.3202 20.4709 10.2795C20.6751 10.2388 20.8869 10.2596 21.0793 10.3392C21.2717 10.4188 21.4362 10.5536 21.5521 10.7267C21.6679 10.8998 21.7298 11.1033 21.73 11.3116C21.729 11.5909 21.6175 11.8584 21.42 12.0559C21.2225 12.2534 20.9549 12.3649 20.6756 12.3659Z" fill="black" fill-opacity="0.2"/>
<path d="M22.8342 10.8213C22.6893 10.4414 22.4658 10.0964 22.1783 9.80893C21.8908 9.52142 21.5458 9.29789 21.1659 9.15294C20.6449 8.95949 20.0942 8.85812 19.5384 8.85339C18.6139 8.81246 18.3353 8.80248 15.99 8.80248C13.6446 8.80248 13.371 8.81246 12.4465 8.85339C11.8892 8.85877 11.337 8.96011 10.814 9.15294C10.4339 9.29453 10.0899 9.51853 9.80664 9.8089C9.51431 10.0925 9.29006 10.4386 9.15069 10.8213C8.95846 11.3425 8.85552 11.8924 8.84617 12.4478C8.80524 13.3723 8.79425 13.6519 8.79425 15.9962C8.79425 18.3406 8.80524 18.6151 8.84617 19.5397C8.855 20.0971 8.95795 20.649 9.15069 21.1721C9.2901 21.5534 9.51441 21.8979 9.80664 22.1796C10.087 22.4734 10.4319 22.6979 10.814 22.8355C11.3365 23.0308 11.8888 23.1338 12.4465 23.1401C13.371 23.181 13.6496 23.191 15.99 23.191C18.3303 23.191 18.6139 23.181 19.5384 23.1401C20.0946 23.1345 20.6454 23.0314 21.1659 22.8355C21.5494 22.6979 21.8959 22.4734 22.1783 22.1796C22.4688 21.8964 22.6928 21.5524 22.8342 21.1721C23.0272 20.6493 23.1286 20.097 23.1338 19.5397C23.1797 18.6151 23.1857 18.3416 23.1857 15.9962C23.1857 13.6509 23.1807 13.3723 23.1338 12.4478C23.1281 11.8925 23.0267 11.3423 22.8342 10.8213ZM15.9909 20.5012C15.0995 20.5008 14.2283 20.236 13.4873 19.7404C12.7463 19.2448 12.1689 18.5406 11.8282 17.7169C11.4875 16.8931 11.3987 15.9869 11.5731 15.1126C11.7475 14.2384 12.1771 13.4356 12.8078 12.8056C13.4385 12.1756 14.2419 11.7468 15.1163 11.5734C15.9907 11.4 16.8969 11.4898 17.7202 11.8314C18.5436 12.173 19.2472 12.7512 19.742 13.4927C20.2367 14.2342 20.5005 15.1058 20.4999 15.9972C20.5002 16.5891 20.3837 17.1753 20.1571 17.7221C19.9305 18.269 19.5983 18.7657 19.1795 19.184C18.7607 19.6023 18.2635 19.9338 17.7163 20.1597C17.1692 20.3855 16.5829 20.5012 15.9909 20.5002V20.5012ZM20.6756 12.3659C20.4674 12.3657 20.2639 12.3038 20.0908 12.188C19.9177 12.0721 19.7829 11.9076 19.7033 11.7152C19.6237 11.5228 19.6029 11.3111 19.6436 11.1068C19.6842 10.9026 19.7845 10.715 19.9318 10.5677C20.0791 10.4205 20.2666 10.3202 20.4709 10.2795C20.6751 10.2388 20.8869 10.2596 21.0793 10.3392C21.2717 10.4188 21.4362 10.5536 21.5521 10.7267C21.6679 10.8998 21.7298 11.1033 21.73 11.3116C21.729 11.5909 21.6175 11.8584 21.42 12.0559C21.2225 12.2534 20.9549 12.3649 20.6756 12.3659Z" fill="black" fill-opacity="0.2"/>
<path d="M22.8342 10.8213C22.6893 10.4414 22.4658 10.0964 22.1783 9.80893C21.8908 9.52142 21.5458 9.29789 21.1659 9.15294C20.6449 8.95949 20.0942 8.85812 19.5384 8.85339C18.6139 8.81246 18.3353 8.80248 15.99 8.80248C13.6446 8.80248 13.371 8.81246 12.4465 8.85339C11.8892 8.85877 11.337 8.96011 10.814 9.15294C10.4339 9.29453 10.0899 9.51853 9.80664 9.8089C9.51431 10.0925 9.29006 10.4386 9.15069 10.8213C8.95846 11.3425 8.85552 11.8924 8.84617 12.4478C8.80524 13.3723 8.79425 13.6519 8.79425 15.9962C8.79425 18.3406 8.80524 18.6151 8.84617 19.5397C8.855 20.0971 8.95795 20.649 9.15069 21.1721C9.2901 21.5534 9.51441 21.8979 9.80664 22.1796C10.087 22.4734 10.4319 22.6979 10.814 22.8355C11.3365 23.0308 11.8888 23.1338 12.4465 23.1401C13.371 23.181 13.6496 23.191 15.99 23.191C18.3303 23.191 18.6139 23.181 19.5384 23.1401C20.0946 23.1345 20.6454 23.0314 21.1659 22.8355C21.5494 22.6979 21.8959 22.4734 22.1783 22.1796C22.4688 21.8964 22.6928 21.5524 22.8342 21.1721C23.0272 20.6493 23.1286 20.097 23.1338 19.5397C23.1797 18.6151 23.1857 18.3416 23.1857 15.9962C23.1857 13.6509 23.1807 13.3723 23.1338 12.4478C23.1281 11.8925 23.0267 11.3423 22.8342 10.8213ZM15.9909 20.5012C15.0995 20.5008 14.2283 20.236 13.4873 19.7404C12.7463 19.2448 12.1689 18.5406 11.8282 17.7169C11.4875 16.8931 11.3987 15.9869 11.5731 15.1126C11.7475 14.2384 12.1771 13.4356 12.8078 12.8056C13.4385 12.1756 14.2419 11.7468 15.1163 11.5734C15.9907 11.4 16.8969 11.4898 17.7202 11.8314C18.5436 12.173 19.2472 12.7512 19.742 13.4927C20.2367 14.2342 20.5005 15.1058 20.4999 15.9972C20.5002 16.5891 20.3837 17.1753 20.1571 17.7221C19.9305 18.269 19.5983 18.7657 19.1795 19.184C18.7607 19.6023 18.2635 19.9338 17.7163 20.1597C17.1692 20.3855 16.5829 20.5012 15.9909 20.5002V20.5012ZM20.6756 12.3659C20.4674 12.3657 20.2639 12.3038 20.0908 12.188C19.9177 12.0721 19.7829 11.9076 19.7033 11.7152C19.6237 11.5228 19.6029 11.3111 19.6436 11.1068C19.6842 10.9026 19.7845 10.715 19.9318 10.5677C20.0791 10.4205 20.2666 10.3202 20.4709 10.2795C20.6751 10.2388 20.8869 10.2596 21.0793 10.3392C21.2717 10.4188 21.4362 10.5536 21.5521 10.7267C21.6679 10.8998 21.7298 11.1033 21.73 11.3116C21.729 11.5909 21.6175 11.8584 21.42 12.0559C21.2225 12.2534 20.9549 12.3649 20.6756 12.3659Z" fill="black" fill-opacity="0.2"/>
<path d="M27.3073 4.67993C24.6885 2.06412 21.2438 0.437171 17.56 0.0762648C13.8763 -0.284641 10.1813 0.642812 7.10466 2.70064C4.02801 4.75847 1.76001 7.81936 0.687022 11.3618C-0.385963 14.9043 -0.197542 18.7092 1.22018 22.1283C2.63791 25.5475 5.19724 28.3693 8.46215 30.1131C11.7271 31.8569 15.4956 32.4148 19.1256 31.6917C22.7557 30.9686 26.0228 29.0093 28.3703 26.1475C30.7179 23.2858 32.0006 19.6986 31.9999 15.9972C32.0027 13.8946 31.5895 11.8121 30.7842 9.86978C29.9788 7.92747 28.7972 6.16367 27.3073 4.67993ZM24.7143 19.6136C24.7006 20.3428 24.5629 21.0643 24.307 21.7472C24.088 22.3336 23.7423 22.8644 23.2945 23.3018C22.8549 23.7473 22.3243 24.0926 21.739 24.3142C21.0582 24.5704 20.3386 24.7085 19.6113 24.7226C18.6768 24.7635 18.3772 24.7745 15.991 24.7745C13.6047 24.7745 13.3102 24.7635 12.3756 24.7226C11.6464 24.7085 10.9249 24.5704 10.242 24.3142C9.65818 24.0901 9.12839 23.7451 8.68739 23.3018C8.24262 22.8618 7.89714 22.3317 7.67402 21.7472C7.42062 21.0636 7.28292 20.3425 7.26663 19.6136C7.2257 18.679 7.21471 18.3795 7.21471 15.9982C7.21471 13.617 7.2257 13.3174 7.26663 12.3769C7.28293 11.6499 7.42064 10.9308 7.67402 10.2492C7.89585 9.66406 8.24151 9.13376 8.68739 8.69465C9.1256 8.24792 9.65618 7.90237 10.242 7.68223C10.9249 7.42608 11.6464 7.28799 12.3756 7.27387C13.3102 7.23293 13.6097 7.22195 15.991 7.22195C18.3722 7.22195 18.6768 7.23293 19.6113 7.27387C20.3386 7.28801 21.0581 7.42611 21.739 7.68223C22.3223 7.9075 22.8521 8.25225 23.2943 8.69432C23.7365 9.13638 24.0815 9.66601 24.307 10.2492C24.5629 10.9301 24.7006 11.6497 24.7143 12.3769C24.7612 13.3174 24.7662 13.611 24.7662 15.9982C24.7662 18.3855 24.7612 18.678 24.7143 19.6136Z" fill="black"/>
<path d="M27.3073 4.67993C24.6885 2.06412 21.2438 0.437171 17.56 0.0762648C13.8763 -0.284641 10.1813 0.642812 7.10466 2.70064C4.02801 4.75847 1.76001 7.81936 0.687022 11.3618C-0.385963 14.9043 -0.197542 18.7092 1.22018 22.1283C2.63791 25.5475 5.19724 28.3693 8.46215 30.1131C11.7271 31.8569 15.4956 32.4148 19.1256 31.6917C22.7557 30.9686 26.0228 29.0093 28.3703 26.1475C30.7179 23.2858 32.0006 19.6986 31.9999 15.9972C32.0027 13.8946 31.5895 11.8121 30.7842 9.86978C29.9788 7.92747 28.7972 6.16367 27.3073 4.67993ZM24.7143 19.6136C24.7006 20.3428 24.5629 21.0643 24.307 21.7472C24.088 22.3336 23.7423 22.8644 23.2945 23.3018C22.8549 23.7473 22.3243 24.0926 21.739 24.3142C21.0582 24.5704 20.3386 24.7085 19.6113 24.7226C18.6768 24.7635 18.3772 24.7745 15.991 24.7745C13.6047 24.7745 13.3102 24.7635 12.3756 24.7226C11.6464 24.7085 10.9249 24.5704 10.242 24.3142C9.65818 24.0901 9.12839 23.7451 8.68739 23.3018C8.24262 22.8618 7.89714 22.3317 7.67402 21.7472C7.42062 21.0636 7.28292 20.3425 7.26663 19.6136C7.2257 18.679 7.21471 18.3795 7.21471 15.9982C7.21471 13.617 7.2257 13.3174 7.26663 12.3769C7.28293 11.6499 7.42064 10.9308 7.67402 10.2492C7.89585 9.66406 8.24151 9.13376 8.68739 8.69465C9.1256 8.24792 9.65618 7.90237 10.242 7.68223C10.9249 7.42608 11.6464 7.28799 12.3756 7.27387C13.3102 7.23293 13.6097 7.22195 15.991 7.22195C18.3722 7.22195 18.6768 7.23293 19.6113 7.27387C20.3386 7.28801 21.0581 7.42611 21.739 7.68223C22.3223 7.9075 22.8521 8.25225 23.2943 8.69432C23.7365 9.13638 24.0815 9.66601 24.307 10.2492C24.5629 10.9301 24.7006 11.6497 24.7143 12.3769C24.7612 13.3174 24.7662 13.611 24.7662 15.9982C24.7662 18.3855 24.7612 18.678 24.7143 19.6136Z" fill="black" fill-opacity="0.2"/>
<path d="M27.3073 4.67993C24.6885 2.06412 21.2438 0.437171 17.56 0.0762648C13.8763 -0.284641 10.1813 0.642812 7.10466 2.70064C4.02801 4.75847 1.76001 7.81936 0.687022 11.3618C-0.385963 14.9043 -0.197542 18.7092 1.22018 22.1283C2.63791 25.5475 5.19724 28.3693 8.46215 30.1131C11.7271 31.8569 15.4956 32.4148 19.1256 31.6917C22.7557 30.9686 26.0228 29.0093 28.3703 26.1475C30.7179 23.2858 32.0006 19.6986 31.9999 15.9972C32.0027 13.8946 31.5895 11.8121 30.7842 9.86978C29.9788 7.92747 28.7972 6.16367 27.3073 4.67993ZM24.7143 19.6136C24.7006 20.3428 24.5629 21.0643 24.307 21.7472C24.088 22.3336 23.7423 22.8644 23.2945 23.3018C22.8549 23.7473 22.3243 24.0926 21.739 24.3142C21.0582 24.5704 20.3386 24.7085 19.6113 24.7226C18.6768 24.7635 18.3772 24.7745 15.991 24.7745C13.6047 24.7745 13.3102 24.7635 12.3756 24.7226C11.6464 24.7085 10.9249 24.5704 10.242 24.3142C9.65818 24.0901 9.12839 23.7451 8.68739 23.3018C8.24262 22.8618 7.89714 22.3317 7.67402 21.7472C7.42062 21.0636 7.28292 20.3425 7.26663 19.6136C7.2257 18.679 7.21471 18.3795 7.21471 15.9982C7.21471 13.617 7.2257 13.3174 7.26663 12.3769C7.28293 11.6499 7.42064 10.9308 7.67402 10.2492C7.89585 9.66406 8.24151 9.13376 8.68739 8.69465C9.1256 8.24792 9.65618 7.90237 10.242 7.68223C10.9249 7.42608 11.6464 7.28799 12.3756 7.27387C13.3102 7.23293 13.6097 7.22195 15.991 7.22195C18.3722 7.22195 18.6768 7.23293 19.6113 7.27387C20.3386 7.28801 21.0581 7.42611 21.739 7.68223C22.3223 7.9075 22.8521 8.25225 23.2943 8.69432C23.7365 9.13638 24.0815 9.66601 24.307 10.2492C24.5629 10.9301 24.7006 11.6497 24.7143 12.3769C24.7612 13.3174 24.7662 13.611 24.7662 15.9982C24.7662 18.3855 24.7612 18.678 24.7143 19.6136Z" fill="black" fill-opacity="0.2"/>
<path d="M27.3073 4.67993C24.6885 2.06412 21.2438 0.437171 17.56 0.0762648C13.8763 -0.284641 10.1813 0.642812 7.10466 2.70064C4.02801 4.75847 1.76001 7.81936 0.687022 11.3618C-0.385963 14.9043 -0.197542 18.7092 1.22018 22.1283C2.63791 25.5475 5.19724 28.3693 8.46215 30.1131C11.7271 31.8569 15.4956 32.4148 19.1256 31.6917C22.7557 30.9686 26.0228 29.0093 28.3703 26.1475C30.7179 23.2858 32.0006 19.6986 31.9999 15.9972C32.0027 13.8946 31.5895 11.8121 30.7842 9.86978C29.9788 7.92747 28.7972 6.16367 27.3073 4.67993ZM24.7143 19.6136C24.7006 20.3428 24.5629 21.0643 24.307 21.7472C24.088 22.3336 23.7423 22.8644 23.2945 23.3018C22.8549 23.7473 22.3243 24.0926 21.739 24.3142C21.0582 24.5704 20.3386 24.7085 19.6113 24.7226C18.6768 24.7635 18.3772 24.7745 15.991 24.7745C13.6047 24.7745 13.3102 24.7635 12.3756 24.7226C11.6464 24.7085 10.9249 24.5704 10.242 24.3142C9.65818 24.0901 9.12839 23.7451 8.68739 23.3018C8.24262 22.8618 7.89714 22.3317 7.67402 21.7472C7.42062 21.0636 7.28292 20.3425 7.26663 19.6136C7.2257 18.679 7.21471 18.3795 7.21471 15.9982C7.21471 13.617 7.2257 13.3174 7.26663 12.3769C7.28293 11.6499 7.42064 10.9308 7.67402 10.2492C7.89585 9.66406 8.24151 9.13376 8.68739 8.69465C9.1256 8.24792 9.65618 7.90237 10.242 7.68223C10.9249 7.42608 11.6464 7.28799 12.3756 7.27387C13.3102 7.23293 13.6097 7.22195 15.991 7.22195C18.3722 7.22195 18.6768 7.23293 19.6113 7.27387C20.3386 7.28801 21.0581 7.42611 21.739 7.68223C22.3223 7.9075 22.8521 8.25225 23.2943 8.69432C23.7365 9.13638 24.0815 9.66601 24.307 10.2492C24.5629 10.9301 24.7006 11.6497 24.7143 12.3769C24.7612 13.3174 24.7662 13.611 24.7662 15.9982C24.7662 18.3855 24.7612 18.678 24.7143 19.6136Z" fill="black" fill-opacity="0.2"/>
<path d="M27.3073 4.67993C24.6885 2.06412 21.2438 0.437171 17.56 0.0762648C13.8763 -0.284641 10.1813 0.642812 7.10466 2.70064C4.02801 4.75847 1.76001 7.81936 0.687022 11.3618C-0.385963 14.9043 -0.197542 18.7092 1.22018 22.1283C2.63791 25.5475 5.19724 28.3693 8.46215 30.1131C11.7271 31.8569 15.4956 32.4148 19.1256 31.6917C22.7557 30.9686 26.0228 29.0093 28.3703 26.1475C30.7179 23.2858 32.0006 19.6986 31.9999 15.9972C32.0027 13.8946 31.5895 11.8121 30.7842 9.86978C29.9788 7.92747 28.7972 6.16367 27.3073 4.67993ZM24.7143 19.6136C24.7006 20.3428 24.5629 21.0643 24.307 21.7472C24.088 22.3336 23.7423 22.8644 23.2945 23.3018C22.8549 23.7473 22.3243 24.0926 21.739 24.3142C21.0582 24.5704 20.3386 24.7085 19.6113 24.7226C18.6768 24.7635 18.3772 24.7745 15.991 24.7745C13.6047 24.7745 13.3102 24.7635 12.3756 24.7226C11.6464 24.7085 10.9249 24.5704 10.242 24.3142C9.65818 24.0901 9.12839 23.7451 8.68739 23.3018C8.24262 22.8618 7.89714 22.3317 7.67402 21.7472C7.42062 21.0636 7.28292 20.3425 7.26663 19.6136C7.2257 18.679 7.21471 18.3795 7.21471 15.9982C7.21471 13.617 7.2257 13.3174 7.26663 12.3769C7.28293 11.6499 7.42064 10.9308 7.67402 10.2492C7.89585 9.66406 8.24151 9.13376 8.68739 8.69465C9.1256 8.24792 9.65618 7.90237 10.242 7.68223C10.9249 7.42608 11.6464 7.28799 12.3756 7.27387C13.3102 7.23293 13.6097 7.22195 15.991 7.22195C18.3722 7.22195 18.6768 7.23293 19.6113 7.27387C20.3386 7.28801 21.0581 7.42611 21.739 7.68223C22.3223 7.9075 22.8521 8.25225 23.2943 8.69432C23.7365 9.13638 24.0815 9.66601 24.307 10.2492C24.5629 10.9301 24.7006 11.6497 24.7143 12.3769C24.7612 13.3174 24.7662 13.611 24.7662 15.9982C24.7662 18.3855 24.7612 18.678 24.7143 19.6136Z" fill="black" fill-opacity="0.2"/>
<path d="M27.3073 4.67993C24.6885 2.06412 21.2438 0.437171 17.56 0.0762648C13.8763 -0.284641 10.1813 0.642812 7.10466 2.70064C4.02801 4.75847 1.76001 7.81936 0.687022 11.3618C-0.385963 14.9043 -0.197542 18.7092 1.22018 22.1283C2.63791 25.5475 5.19724 28.3693 8.46215 30.1131C11.7271 31.8569 15.4956 32.4148 19.1256 31.6917C22.7557 30.9686 26.0228 29.0093 28.3703 26.1475C30.7179 23.2858 32.0006 19.6986 31.9999 15.9972C32.0027 13.8946 31.5895 11.8121 30.7842 9.86978C29.9788 7.92747 28.7972 6.16367 27.3073 4.67993ZM24.7143 19.6136C24.7006 20.3428 24.5629 21.0643 24.307 21.7472C24.088 22.3336 23.7423 22.8644 23.2945 23.3018C22.8549 23.7473 22.3243 24.0926 21.739 24.3142C21.0582 24.5704 20.3386 24.7085 19.6113 24.7226C18.6768 24.7635 18.3772 24.7745 15.991 24.7745C13.6047 24.7745 13.3102 24.7635 12.3756 24.7226C11.6464 24.7085 10.9249 24.5704 10.242 24.3142C9.65818 24.0901 9.12839 23.7451 8.68739 23.3018C8.24262 22.8618 7.89714 22.3317 7.67402 21.7472C7.42062 21.0636 7.28292 20.3425 7.26663 19.6136C7.2257 18.679 7.21471 18.3795 7.21471 15.9982C7.21471 13.617 7.2257 13.3174 7.26663 12.3769C7.28293 11.6499 7.42064 10.9308 7.67402 10.2492C7.89585 9.66406 8.24151 9.13376 8.68739 8.69465C9.1256 8.24792 9.65618 7.90237 10.242 7.68223C10.9249 7.42608 11.6464 7.28799 12.3756 7.27387C13.3102 7.23293 13.6097 7.22195 15.991 7.22195C18.3722 7.22195 18.6768 7.23293 19.6113 7.27387C20.3386 7.28801 21.0581 7.42611 21.739 7.68223C22.3223 7.9075 22.8521 8.25225 23.2943 8.69432C23.7365 9.13638 24.0815 9.66601 24.307 10.2492C24.5629 10.9301 24.7006 11.6497 24.7143 12.3769C24.7612 13.3174 24.7662 13.611 24.7662 15.9982C24.7662 18.3855 24.7612 18.678 24.7143 19.6136Z" fill="black" fill-opacity="0.2"/>
<path d="M27.3073 4.67993C24.6885 2.06412 21.2438 0.437171 17.56 0.0762648C13.8763 -0.284641 10.1813 0.642812 7.10466 2.70064C4.02801 4.75847 1.76001 7.81936 0.687022 11.3618C-0.385963 14.9043 -0.197542 18.7092 1.22018 22.1283C2.63791 25.5475 5.19724 28.3693 8.46215 30.1131C11.7271 31.8569 15.4956 32.4148 19.1256 31.6917C22.7557 30.9686 26.0228 29.0093 28.3703 26.1475C30.7179 23.2858 32.0006 19.6986 31.9999 15.9972C32.0027 13.8946 31.5895 11.8121 30.7842 9.86978C29.9788 7.92747 28.7972 6.16367 27.3073 4.67993ZM24.7143 19.6136C24.7006 20.3428 24.5629 21.0643 24.307 21.7472C24.088 22.3336 23.7423 22.8644 23.2945 23.3018C22.8549 23.7473 22.3243 24.0926 21.739 24.3142C21.0582 24.5704 20.3386 24.7085 19.6113 24.7226C18.6768 24.7635 18.3772 24.7745 15.991 24.7745C13.6047 24.7745 13.3102 24.7635 12.3756 24.7226C11.6464 24.7085 10.9249 24.5704 10.242 24.3142C9.65818 24.0901 9.12839 23.7451 8.68739 23.3018C8.24262 22.8618 7.89714 22.3317 7.67402 21.7472C7.42062 21.0636 7.28292 20.3425 7.26663 19.6136C7.2257 18.679 7.21471 18.3795 7.21471 15.9982C7.21471 13.617 7.2257 13.3174 7.26663 12.3769C7.28293 11.6499 7.42064 10.9308 7.67402 10.2492C7.89585 9.66406 8.24151 9.13376 8.68739 8.69465C9.1256 8.24792 9.65618 7.90237 10.242 7.68223C10.9249 7.42608 11.6464 7.28799 12.3756 7.27387C13.3102 7.23293 13.6097 7.22195 15.991 7.22195C18.3722 7.22195 18.6768 7.23293 19.6113 7.27387C20.3386 7.28801 21.0581 7.42611 21.739 7.68223C22.3223 7.9075 22.8521 8.25225 23.2943 8.69432C23.7365 9.13638 24.0815 9.66601 24.307 10.2492C24.5629 10.9301 24.7006 11.6497 24.7143 12.3769C24.7612 13.3174 24.7662 13.611 24.7662 15.9982C24.7662 18.3855 24.7612 18.678 24.7143 19.6136Z" fill="black" fill-opacity="0.2"/>
<path d="M27.3073 4.67993C24.6885 2.06412 21.2438 0.437171 17.56 0.0762648C13.8763 -0.284641 10.1813 0.642812 7.10466 2.70064C4.02801 4.75847 1.76001 7.81936 0.687022 11.3618C-0.385963 14.9043 -0.197542 18.7092 1.22018 22.1283C2.63791 25.5475 5.19724 28.3693 8.46215 30.1131C11.7271 31.8569 15.4956 32.4148 19.1256 31.6917C22.7557 30.9686 26.0228 29.0093 28.3703 26.1475C30.7179 23.2858 32.0006 19.6986 31.9999 15.9972C32.0027 13.8946 31.5895 11.8121 30.7842 9.86978C29.9788 7.92747 28.7972 6.16367 27.3073 4.67993ZM24.7143 19.6136C24.7006 20.3428 24.5629 21.0643 24.307 21.7472C24.088 22.3336 23.7423 22.8644 23.2945 23.3018C22.8549 23.7473 22.3243 24.0926 21.739 24.3142C21.0582 24.5704 20.3386 24.7085 19.6113 24.7226C18.6768 24.7635 18.3772 24.7745 15.991 24.7745C13.6047 24.7745 13.3102 24.7635 12.3756 24.7226C11.6464 24.7085 10.9249 24.5704 10.242 24.3142C9.65818 24.0901 9.12839 23.7451 8.68739 23.3018C8.24262 22.8618 7.89714 22.3317 7.67402 21.7472C7.42062 21.0636 7.28292 20.3425 7.26663 19.6136C7.2257 18.679 7.21471 18.3795 7.21471 15.9982C7.21471 13.617 7.2257 13.3174 7.26663 12.3769C7.28293 11.6499 7.42064 10.9308 7.67402 10.2492C7.89585 9.66406 8.24151 9.13376 8.68739 8.69465C9.1256 8.24792 9.65618 7.90237 10.242 7.68223C10.9249 7.42608 11.6464 7.28799 12.3756 7.27387C13.3102 7.23293 13.6097 7.22195 15.991 7.22195C18.3722 7.22195 18.6768 7.23293 19.6113 7.27387C20.3386 7.28801 21.0581 7.42611 21.739 7.68223C22.3223 7.9075 22.8521 8.25225 23.2943 8.69432C23.7365 9.13638 24.0815 9.66601 24.307 10.2492C24.5629 10.9301 24.7006 11.6497 24.7143 12.3769C24.7612 13.3174 24.7662 13.611 24.7662 15.9982C24.7662 18.3855 24.7612 18.678 24.7143 19.6136Z" fill="black" fill-opacity="0.2"/>
<path d="M27.3073 4.67993C24.6885 2.06412 21.2438 0.437171 17.56 0.0762648C13.8763 -0.284641 10.1813 0.642812 7.10466 2.70064C4.02801 4.75847 1.76001 7.81936 0.687022 11.3618C-0.385963 14.9043 -0.197542 18.7092 1.22018 22.1283C2.63791 25.5475 5.19724 28.3693 8.46215 30.1131C11.7271 31.8569 15.4956 32.4148 19.1256 31.6917C22.7557 30.9686 26.0228 29.0093 28.3703 26.1475C30.7179 23.2858 32.0006 19.6986 31.9999 15.9972C32.0027 13.8946 31.5895 11.8121 30.7842 9.86978C29.9788 7.92747 28.7972 6.16367 27.3073 4.67993ZM24.7143 19.6136C24.7006 20.3428 24.5629 21.0643 24.307 21.7472C24.088 22.3336 23.7423 22.8644 23.2945 23.3018C22.8549 23.7473 22.3243 24.0926 21.739 24.3142C21.0582 24.5704 20.3386 24.7085 19.6113 24.7226C18.6768 24.7635 18.3772 24.7745 15.991 24.7745C13.6047 24.7745 13.3102 24.7635 12.3756 24.7226C11.6464 24.7085 10.9249 24.5704 10.242 24.3142C9.65818 24.0901 9.12839 23.7451 8.68739 23.3018C8.24262 22.8618 7.89714 22.3317 7.67402 21.7472C7.42062 21.0636 7.28292 20.3425 7.26663 19.6136C7.2257 18.679 7.21471 18.3795 7.21471 15.9982C7.21471 13.617 7.2257 13.3174 7.26663 12.3769C7.28293 11.6499 7.42064 10.9308 7.67402 10.2492C7.89585 9.66406 8.24151 9.13376 8.68739 8.69465C9.1256 8.24792 9.65618 7.90237 10.242 7.68223C10.9249 7.42608 11.6464 7.28799 12.3756 7.27387C13.3102 7.23293 13.6097 7.22195 15.991 7.22195C18.3722 7.22195 18.6768 7.23293 19.6113 7.27387C20.3386 7.28801 21.0581 7.42611 21.739 7.68223C22.3223 7.9075 22.8521 8.25225 23.2943 8.69432C23.7365 9.13638 24.0815 9.66601 24.307 10.2492C24.5629 10.9301 24.7006 11.6497 24.7143 12.3769C24.7612 13.3174 24.7662 13.611 24.7662 15.9982C24.7662 18.3855 24.7612 18.678 24.7143 19.6136Z" fill="black" fill-opacity="0.2"/>
<path d="M27.3073 4.67993C24.6885 2.06412 21.2438 0.437171 17.56 0.0762648C13.8763 -0.284641 10.1813 0.642812 7.10466 2.70064C4.02801 4.75847 1.76001 7.81936 0.687022 11.3618C-0.385963 14.9043 -0.197542 18.7092 1.22018 22.1283C2.63791 25.5475 5.19724 28.3693 8.46215 30.1131C11.7271 31.8569 15.4956 32.4148 19.1256 31.6917C22.7557 30.9686 26.0228 29.0093 28.3703 26.1475C30.7179 23.2858 32.0006 19.6986 31.9999 15.9972C32.0027 13.8946 31.5895 11.8121 30.7842 9.86978C29.9788 7.92747 28.7972 6.16367 27.3073 4.67993ZM24.7143 19.6136C24.7006 20.3428 24.5629 21.0643 24.307 21.7472C24.088 22.3336 23.7423 22.8644 23.2945 23.3018C22.8549 23.7473 22.3243 24.0926 21.739 24.3142C21.0582 24.5704 20.3386 24.7085 19.6113 24.7226C18.6768 24.7635 18.3772 24.7745 15.991 24.7745C13.6047 24.7745 13.3102 24.7635 12.3756 24.7226C11.6464 24.7085 10.9249 24.5704 10.242 24.3142C9.65818 24.0901 9.12839 23.7451 8.68739 23.3018C8.24262 22.8618 7.89714 22.3317 7.67402 21.7472C7.42062 21.0636 7.28292 20.3425 7.26663 19.6136C7.2257 18.679 7.21471 18.3795 7.21471 15.9982C7.21471 13.617 7.2257 13.3174 7.26663 12.3769C7.28293 11.6499 7.42064 10.9308 7.67402 10.2492C7.89585 9.66406 8.24151 9.13376 8.68739 8.69465C9.1256 8.24792 9.65618 7.90237 10.242 7.68223C10.9249 7.42608 11.6464 7.28799 12.3756 7.27387C13.3102 7.23293 13.6097 7.22195 15.991 7.22195C18.3722 7.22195 18.6768 7.23293 19.6113 7.27387C20.3386 7.28801 21.0581 7.42611 21.739 7.68223C22.3223 7.9075 22.8521 8.25225 23.2943 8.69432C23.7365 9.13638 24.0815 9.66601 24.307 10.2492C24.5629 10.9301 24.7006 11.6497 24.7143 12.3769C24.7612 13.3174 24.7662 13.611 24.7662 15.9982C24.7662 18.3855 24.7612 18.678 24.7143 19.6136Z" fill="black" fill-opacity="0.2"/>
</g>
<defs>
<clipPath id="clip0_300_152">
<rect width="32" height="32" fill="white"/>
</clipPath>
</defs>
</svg>
