<svg width="32" height="32" viewBox="0 0 32 32" fill="none" xmlns="http://www.w3.org/2000/svg">
<path fill-rule="evenodd" clip-rule="evenodd" d="M32 9H0V13H32V9ZM32 18H0V22H32V18Z" fill="black"/>
<path fill-rule="evenodd" clip-rule="evenodd" d="M32 9H0V13H32V9ZM32 18H0V22H32V18Z" fill="black" fill-opacity="0.2"/>
<path fill-rule="evenodd" clip-rule="evenodd" d="M32 9H0V13H32V9ZM32 18H0V22H32V18Z" fill="black" fill-opacity="0.2"/>
<path fill-rule="evenodd" clip-rule="evenodd" d="M32 9H0V13H32V9ZM32 18H0V22H32V18Z" fill="black" fill-opacity="0.2"/>
<path fill-rule="evenodd" clip-rule="evenodd" d="M32 9H0V13H32V9ZM32 18H0V22H32V18Z" fill="black" fill-opacity="0.2"/>
<path fill-rule="evenodd" clip-rule="evenodd" d="M32 9H0V13H32V9ZM32 18H0V22H32V18Z" fill="black" fill-opacity="0.2"/>
<path fill-rule="evenodd" clip-rule="evenodd" d="M32 9H0V13H32V9ZM32 18H0V22H32V18Z" fill="black" fill-opacity="0.2"/>
<path fill-rule="evenodd" clip-rule="evenodd" d="M32 9H0V13H32V9ZM32 18H0V22H32V18Z" fill="black" fill-opacity="0.2"/>
<path fill-rule="evenodd" clip-rule="evenodd" d="M32 9H0V13H32V9ZM32 18H0V22H32V18Z" fill="black" fill-opacity="0.2"/>
<path fill-rule="evenodd" clip-rule="evenodd" d="M32 9H0V13H32V9ZM32 18H0V22H32V18Z" fill="black" fill-opacity="0.2"/>
</svg>
