<svg width="24" height="24" viewBox="0 0 24 24" fill="none" xmlns="http://www.w3.org/2000/svg">
<g clip-path="url(#clip0_409_2264)">
<path fill-rule="evenodd" clip-rule="evenodd" d="M6.66619 18.277C8.1918 19.4617 10.0685 20.1045 12 20.1041C13.9315 20.1045 15.8082 19.4617 17.3338 18.277L23.1681 13.7535C23.4285 13.5529 23.639 13.2949 23.7833 12.9997C23.9275 12.7044 24.0017 12.3798 24 12.0512C24.0017 11.7226 23.9275 11.398 23.7833 11.1027C23.639 10.8075 23.4285 10.5495 23.1681 10.3489L17.3338 5.82537C15.8076 4.64213 13.9312 4 12 4C10.0688 4 8.19244 4.64213 6.66619 5.82537L0.831881 10.3489C0.571545 10.5495 0.361031 10.8075 0.216743 11.1027C0.0724583 11.398 -0.00170708 11.7226 2.86102e-05 12.0512C-0.00170708 12.3798 0.0724583 12.7044 0.216743 12.9997C0.361031 13.2949 0.571545 13.5529 0.831881 13.7535L6.66619 18.277ZM12 19.2117C10.266 19.2117 8.58117 18.635 7.21091 17.5723L1.37661 13.0488C1.22463 12.9318 1.10165 12.7813 1.01722 12.6091C0.932787 12.4369 0.889166 12.2476 0.889751 12.0558C0.889166 11.864 0.932787 11.6746 1.01722 11.5024C1.10165 11.3302 1.22463 11.1798 1.37661 11.0628L7.21091 6.53919C8.58117 5.47651 10.266 4.89977 12 4.89977C13.7341 4.89977 15.4188 5.47651 16.7891 6.53919L22.6234 11.0628C22.7754 11.1798 22.8983 11.3302 22.9828 11.5024C23.0672 11.6746 23.1108 11.864 23.1102 12.0558C23.1108 12.2476 23.0672 12.4369 22.9828 12.6091C22.8983 12.7813 22.7754 12.9318 22.6234 13.0488L16.7891 17.5723C15.4188 18.635 13.7341 19.2117 12 19.2117ZM7.81784 16.24C8.92728 17.349 10.4312 17.9728 11.9999 17.9746C13.5686 17.9728 15.0725 17.349 16.182 16.24C17.2914 15.131 17.9158 13.6273 17.9182 12.0586C17.9164 10.4895 17.2923 8.98522 16.1828 7.87571C15.0733 6.76621 13.569 6.14212 11.9999 6.14032C10.4308 6.14212 8.92655 6.76621 7.81705 7.87571C6.70754 8.98522 6.08343 10.4895 6.08162 12.0586C6.08403 13.6273 6.7084 15.131 7.81784 16.24ZM8.44665 8.50469C9.389 7.56191 10.6669 7.03155 11.9999 7.03004C13.3329 7.03155 14.6108 7.56191 15.5532 8.50469C16.4955 9.44746 17.0253 10.7256 17.0262 12.0586C17.0247 13.3912 16.4946 14.6688 15.5524 15.611C14.6101 16.5533 13.3325 17.0834 11.9999 17.0849C10.6673 17.0834 9.38973 16.5533 8.44744 15.611C7.50516 14.6688 6.97513 13.3912 6.97363 12.0586C6.97453 10.7256 7.5043 9.44746 8.44665 8.50469Z" fill="black"/>
<path fill-rule="evenodd" clip-rule="evenodd" d="M6.66619 18.277C8.1918 19.4617 10.0685 20.1045 12 20.1041C13.9315 20.1045 15.8082 19.4617 17.3338 18.277L23.1681 13.7535C23.4285 13.5529 23.639 13.2949 23.7833 12.9997C23.9275 12.7044 24.0017 12.3798 24 12.0512C24.0017 11.7226 23.9275 11.398 23.7833 11.1027C23.639 10.8075 23.4285 10.5495 23.1681 10.3489L17.3338 5.82537C15.8076 4.64213 13.9312 4 12 4C10.0688 4 8.19244 4.64213 6.66619 5.82537L0.831881 10.3489C0.571545 10.5495 0.361031 10.8075 0.216743 11.1027C0.0724583 11.398 -0.00170708 11.7226 2.86102e-05 12.0512C-0.00170708 12.3798 0.0724583 12.7044 0.216743 12.9997C0.361031 13.2949 0.571545 13.5529 0.831881 13.7535L6.66619 18.277ZM12 19.2117C10.266 19.2117 8.58117 18.635 7.21091 17.5723L1.37661 13.0488C1.22463 12.9318 1.10165 12.7813 1.01722 12.6091C0.932787 12.4369 0.889166 12.2476 0.889751 12.0558C0.889166 11.864 0.932787 11.6746 1.01722 11.5024C1.10165 11.3302 1.22463 11.1798 1.37661 11.0628L7.21091 6.53919C8.58117 5.47651 10.266 4.89977 12 4.89977C13.7341 4.89977 15.4188 5.47651 16.7891 6.53919L22.6234 11.0628C22.7754 11.1798 22.8983 11.3302 22.9828 11.5024C23.0672 11.6746 23.1108 11.864 23.1102 12.0558C23.1108 12.2476 23.0672 12.4369 22.9828 12.6091C22.8983 12.7813 22.7754 12.9318 22.6234 13.0488L16.7891 17.5723C15.4188 18.635 13.7341 19.2117 12 19.2117ZM7.81784 16.24C8.92728 17.349 10.4312 17.9728 11.9999 17.9746C13.5686 17.9728 15.0725 17.349 16.182 16.24C17.2914 15.131 17.9158 13.6273 17.9182 12.0586C17.9164 10.4895 17.2923 8.98522 16.1828 7.87571C15.0733 6.76621 13.569 6.14212 11.9999 6.14032C10.4308 6.14212 8.92655 6.76621 7.81705 7.87571C6.70754 8.98522 6.08343 10.4895 6.08162 12.0586C6.08403 13.6273 6.7084 15.131 7.81784 16.24ZM8.44665 8.50469C9.389 7.56191 10.6669 7.03155 11.9999 7.03004C13.3329 7.03155 14.6108 7.56191 15.5532 8.50469C16.4955 9.44746 17.0253 10.7256 17.0262 12.0586C17.0247 13.3912 16.4946 14.6688 15.5524 15.611C14.6101 16.5533 13.3325 17.0834 11.9999 17.0849C10.6673 17.0834 9.38973 16.5533 8.44744 15.611C7.50516 14.6688 6.97513 13.3912 6.97363 12.0586C6.97453 10.7256 7.5043 9.44746 8.44665 8.50469Z" fill="black" fill-opacity="0.2"/>
<path fill-rule="evenodd" clip-rule="evenodd" d="M6.66619 18.277C8.1918 19.4617 10.0685 20.1045 12 20.1041C13.9315 20.1045 15.8082 19.4617 17.3338 18.277L23.1681 13.7535C23.4285 13.5529 23.639 13.2949 23.7833 12.9997C23.9275 12.7044 24.0017 12.3798 24 12.0512C24.0017 11.7226 23.9275 11.398 23.7833 11.1027C23.639 10.8075 23.4285 10.5495 23.1681 10.3489L17.3338 5.82537C15.8076 4.64213 13.9312 4 12 4C10.0688 4 8.19244 4.64213 6.66619 5.82537L0.831881 10.3489C0.571545 10.5495 0.361031 10.8075 0.216743 11.1027C0.0724583 11.398 -0.00170708 11.7226 2.86102e-05 12.0512C-0.00170708 12.3798 0.0724583 12.7044 0.216743 12.9997C0.361031 13.2949 0.571545 13.5529 0.831881 13.7535L6.66619 18.277ZM12 19.2117C10.266 19.2117 8.58117 18.635 7.21091 17.5723L1.37661 13.0488C1.22463 12.9318 1.10165 12.7813 1.01722 12.6091C0.932787 12.4369 0.889166 12.2476 0.889751 12.0558C0.889166 11.864 0.932787 11.6746 1.01722 11.5024C1.10165 11.3302 1.22463 11.1798 1.37661 11.0628L7.21091 6.53919C8.58117 5.47651 10.266 4.89977 12 4.89977C13.7341 4.89977 15.4188 5.47651 16.7891 6.53919L22.6234 11.0628C22.7754 11.1798 22.8983 11.3302 22.9828 11.5024C23.0672 11.6746 23.1108 11.864 23.1102 12.0558C23.1108 12.2476 23.0672 12.4369 22.9828 12.6091C22.8983 12.7813 22.7754 12.9318 22.6234 13.0488L16.7891 17.5723C15.4188 18.635 13.7341 19.2117 12 19.2117ZM7.81784 16.24C8.92728 17.349 10.4312 17.9728 11.9999 17.9746C13.5686 17.9728 15.0725 17.349 16.182 16.24C17.2914 15.131 17.9158 13.6273 17.9182 12.0586C17.9164 10.4895 17.2923 8.98522 16.1828 7.87571C15.0733 6.76621 13.569 6.14212 11.9999 6.14032C10.4308 6.14212 8.92655 6.76621 7.81705 7.87571C6.70754 8.98522 6.08343 10.4895 6.08162 12.0586C6.08403 13.6273 6.7084 15.131 7.81784 16.24ZM8.44665 8.50469C9.389 7.56191 10.6669 7.03155 11.9999 7.03004C13.3329 7.03155 14.6108 7.56191 15.5532 8.50469C16.4955 9.44746 17.0253 10.7256 17.0262 12.0586C17.0247 13.3912 16.4946 14.6688 15.5524 15.611C14.6101 16.5533 13.3325 17.0834 11.9999 17.0849C10.6673 17.0834 9.38973 16.5533 8.44744 15.611C7.50516 14.6688 6.97513 13.3912 6.97363 12.0586C6.97453 10.7256 7.5043 9.44746 8.44665 8.50469Z" fill="black" fill-opacity="0.2"/>
<path fill-rule="evenodd" clip-rule="evenodd" d="M6.66619 18.277C8.1918 19.4617 10.0685 20.1045 12 20.1041C13.9315 20.1045 15.8082 19.4617 17.3338 18.277L23.1681 13.7535C23.4285 13.5529 23.639 13.2949 23.7833 12.9997C23.9275 12.7044 24.0017 12.3798 24 12.0512C24.0017 11.7226 23.9275 11.398 23.7833 11.1027C23.639 10.8075 23.4285 10.5495 23.1681 10.3489L17.3338 5.82537C15.8076 4.64213 13.9312 4 12 4C10.0688 4 8.19244 4.64213 6.66619 5.82537L0.831881 10.3489C0.571545 10.5495 0.361031 10.8075 0.216743 11.1027C0.0724583 11.398 -0.00170708 11.7226 2.86102e-05 12.0512C-0.00170708 12.3798 0.0724583 12.7044 0.216743 12.9997C0.361031 13.2949 0.571545 13.5529 0.831881 13.7535L6.66619 18.277ZM12 19.2117C10.266 19.2117 8.58117 18.635 7.21091 17.5723L1.37661 13.0488C1.22463 12.9318 1.10165 12.7813 1.01722 12.6091C0.932787 12.4369 0.889166 12.2476 0.889751 12.0558C0.889166 11.864 0.932787 11.6746 1.01722 11.5024C1.10165 11.3302 1.22463 11.1798 1.37661 11.0628L7.21091 6.53919C8.58117 5.47651 10.266 4.89977 12 4.89977C13.7341 4.89977 15.4188 5.47651 16.7891 6.53919L22.6234 11.0628C22.7754 11.1798 22.8983 11.3302 22.9828 11.5024C23.0672 11.6746 23.1108 11.864 23.1102 12.0558C23.1108 12.2476 23.0672 12.4369 22.9828 12.6091C22.8983 12.7813 22.7754 12.9318 22.6234 13.0488L16.7891 17.5723C15.4188 18.635 13.7341 19.2117 12 19.2117ZM7.81784 16.24C8.92728 17.349 10.4312 17.9728 11.9999 17.9746C13.5686 17.9728 15.0725 17.349 16.182 16.24C17.2914 15.131 17.9158 13.6273 17.9182 12.0586C17.9164 10.4895 17.2923 8.98522 16.1828 7.87571C15.0733 6.76621 13.569 6.14212 11.9999 6.14032C10.4308 6.14212 8.92655 6.76621 7.81705 7.87571C6.70754 8.98522 6.08343 10.4895 6.08162 12.0586C6.08403 13.6273 6.7084 15.131 7.81784 16.24ZM8.44665 8.50469C9.389 7.56191 10.6669 7.03155 11.9999 7.03004C13.3329 7.03155 14.6108 7.56191 15.5532 8.50469C16.4955 9.44746 17.0253 10.7256 17.0262 12.0586C17.0247 13.3912 16.4946 14.6688 15.5524 15.611C14.6101 16.5533 13.3325 17.0834 11.9999 17.0849C10.6673 17.0834 9.38973 16.5533 8.44744 15.611C7.50516 14.6688 6.97513 13.3912 6.97363 12.0586C6.97453 10.7256 7.5043 9.44746 8.44665 8.50469Z" fill="black" fill-opacity="0.2"/>
<path fill-rule="evenodd" clip-rule="evenodd" d="M6.66619 18.277C8.1918 19.4617 10.0685 20.1045 12 20.1041C13.9315 20.1045 15.8082 19.4617 17.3338 18.277L23.1681 13.7535C23.4285 13.5529 23.639 13.2949 23.7833 12.9997C23.9275 12.7044 24.0017 12.3798 24 12.0512C24.0017 11.7226 23.9275 11.398 23.7833 11.1027C23.639 10.8075 23.4285 10.5495 23.1681 10.3489L17.3338 5.82537C15.8076 4.64213 13.9312 4 12 4C10.0688 4 8.19244 4.64213 6.66619 5.82537L0.831881 10.3489C0.571545 10.5495 0.361031 10.8075 0.216743 11.1027C0.0724583 11.398 -0.00170708 11.7226 2.86102e-05 12.0512C-0.00170708 12.3798 0.0724583 12.7044 0.216743 12.9997C0.361031 13.2949 0.571545 13.5529 0.831881 13.7535L6.66619 18.277ZM12 19.2117C10.266 19.2117 8.58117 18.635 7.21091 17.5723L1.37661 13.0488C1.22463 12.9318 1.10165 12.7813 1.01722 12.6091C0.932787 12.4369 0.889166 12.2476 0.889751 12.0558C0.889166 11.864 0.932787 11.6746 1.01722 11.5024C1.10165 11.3302 1.22463 11.1798 1.37661 11.0628L7.21091 6.53919C8.58117 5.47651 10.266 4.89977 12 4.89977C13.7341 4.89977 15.4188 5.47651 16.7891 6.53919L22.6234 11.0628C22.7754 11.1798 22.8983 11.3302 22.9828 11.5024C23.0672 11.6746 23.1108 11.864 23.1102 12.0558C23.1108 12.2476 23.0672 12.4369 22.9828 12.6091C22.8983 12.7813 22.7754 12.9318 22.6234 13.0488L16.7891 17.5723C15.4188 18.635 13.7341 19.2117 12 19.2117ZM7.81784 16.24C8.92728 17.349 10.4312 17.9728 11.9999 17.9746C13.5686 17.9728 15.0725 17.349 16.182 16.24C17.2914 15.131 17.9158 13.6273 17.9182 12.0586C17.9164 10.4895 17.2923 8.98522 16.1828 7.87571C15.0733 6.76621 13.569 6.14212 11.9999 6.14032C10.4308 6.14212 8.92655 6.76621 7.81705 7.87571C6.70754 8.98522 6.08343 10.4895 6.08162 12.0586C6.08403 13.6273 6.7084 15.131 7.81784 16.24ZM8.44665 8.50469C9.389 7.56191 10.6669 7.03155 11.9999 7.03004C13.3329 7.03155 14.6108 7.56191 15.5532 8.50469C16.4955 9.44746 17.0253 10.7256 17.0262 12.0586C17.0247 13.3912 16.4946 14.6688 15.5524 15.611C14.6101 16.5533 13.3325 17.0834 11.9999 17.0849C10.6673 17.0834 9.38973 16.5533 8.44744 15.611C7.50516 14.6688 6.97513 13.3912 6.97363 12.0586C6.97453 10.7256 7.5043 9.44746 8.44665 8.50469Z" fill="black" fill-opacity="0.2"/>
<path fill-rule="evenodd" clip-rule="evenodd" d="M6.66619 18.277C8.1918 19.4617 10.0685 20.1045 12 20.1041C13.9315 20.1045 15.8082 19.4617 17.3338 18.277L23.1681 13.7535C23.4285 13.5529 23.639 13.2949 23.7833 12.9997C23.9275 12.7044 24.0017 12.3798 24 12.0512C24.0017 11.7226 23.9275 11.398 23.7833 11.1027C23.639 10.8075 23.4285 10.5495 23.1681 10.3489L17.3338 5.82537C15.8076 4.64213 13.9312 4 12 4C10.0688 4 8.19244 4.64213 6.66619 5.82537L0.831881 10.3489C0.571545 10.5495 0.361031 10.8075 0.216743 11.1027C0.0724583 11.398 -0.00170708 11.7226 2.86102e-05 12.0512C-0.00170708 12.3798 0.0724583 12.7044 0.216743 12.9997C0.361031 13.2949 0.571545 13.5529 0.831881 13.7535L6.66619 18.277ZM12 19.2117C10.266 19.2117 8.58117 18.635 7.21091 17.5723L1.37661 13.0488C1.22463 12.9318 1.10165 12.7813 1.01722 12.6091C0.932787 12.4369 0.889166 12.2476 0.889751 12.0558C0.889166 11.864 0.932787 11.6746 1.01722 11.5024C1.10165 11.3302 1.22463 11.1798 1.37661 11.0628L7.21091 6.53919C8.58117 5.47651 10.266 4.89977 12 4.89977C13.7341 4.89977 15.4188 5.47651 16.7891 6.53919L22.6234 11.0628C22.7754 11.1798 22.8983 11.3302 22.9828 11.5024C23.0672 11.6746 23.1108 11.864 23.1102 12.0558C23.1108 12.2476 23.0672 12.4369 22.9828 12.6091C22.8983 12.7813 22.7754 12.9318 22.6234 13.0488L16.7891 17.5723C15.4188 18.635 13.7341 19.2117 12 19.2117ZM7.81784 16.24C8.92728 17.349 10.4312 17.9728 11.9999 17.9746C13.5686 17.9728 15.0725 17.349 16.182 16.24C17.2914 15.131 17.9158 13.6273 17.9182 12.0586C17.9164 10.4895 17.2923 8.98522 16.1828 7.87571C15.0733 6.76621 13.569 6.14212 11.9999 6.14032C10.4308 6.14212 8.92655 6.76621 7.81705 7.87571C6.70754 8.98522 6.08343 10.4895 6.08162 12.0586C6.08403 13.6273 6.7084 15.131 7.81784 16.24ZM8.44665 8.50469C9.389 7.56191 10.6669 7.03155 11.9999 7.03004C13.3329 7.03155 14.6108 7.56191 15.5532 8.50469C16.4955 9.44746 17.0253 10.7256 17.0262 12.0586C17.0247 13.3912 16.4946 14.6688 15.5524 15.611C14.6101 16.5533 13.3325 17.0834 11.9999 17.0849C10.6673 17.0834 9.38973 16.5533 8.44744 15.611C7.50516 14.6688 6.97513 13.3912 6.97363 12.0586C6.97453 10.7256 7.5043 9.44746 8.44665 8.50469Z" fill="black" fill-opacity="0.2"/>
<path fill-rule="evenodd" clip-rule="evenodd" d="M6.66619 18.277C8.1918 19.4617 10.0685 20.1045 12 20.1041C13.9315 20.1045 15.8082 19.4617 17.3338 18.277L23.1681 13.7535C23.4285 13.5529 23.639 13.2949 23.7833 12.9997C23.9275 12.7044 24.0017 12.3798 24 12.0512C24.0017 11.7226 23.9275 11.398 23.7833 11.1027C23.639 10.8075 23.4285 10.5495 23.1681 10.3489L17.3338 5.82537C15.8076 4.64213 13.9312 4 12 4C10.0688 4 8.19244 4.64213 6.66619 5.82537L0.831881 10.3489C0.571545 10.5495 0.361031 10.8075 0.216743 11.1027C0.0724583 11.398 -0.00170708 11.7226 2.86102e-05 12.0512C-0.00170708 12.3798 0.0724583 12.7044 0.216743 12.9997C0.361031 13.2949 0.571545 13.5529 0.831881 13.7535L6.66619 18.277ZM12 19.2117C10.266 19.2117 8.58117 18.635 7.21091 17.5723L1.37661 13.0488C1.22463 12.9318 1.10165 12.7813 1.01722 12.6091C0.932787 12.4369 0.889166 12.2476 0.889751 12.0558C0.889166 11.864 0.932787 11.6746 1.01722 11.5024C1.10165 11.3302 1.22463 11.1798 1.37661 11.0628L7.21091 6.53919C8.58117 5.47651 10.266 4.89977 12 4.89977C13.7341 4.89977 15.4188 5.47651 16.7891 6.53919L22.6234 11.0628C22.7754 11.1798 22.8983 11.3302 22.9828 11.5024C23.0672 11.6746 23.1108 11.864 23.1102 12.0558C23.1108 12.2476 23.0672 12.4369 22.9828 12.6091C22.8983 12.7813 22.7754 12.9318 22.6234 13.0488L16.7891 17.5723C15.4188 18.635 13.7341 19.2117 12 19.2117ZM7.81784 16.24C8.92728 17.349 10.4312 17.9728 11.9999 17.9746C13.5686 17.9728 15.0725 17.349 16.182 16.24C17.2914 15.131 17.9158 13.6273 17.9182 12.0586C17.9164 10.4895 17.2923 8.98522 16.1828 7.87571C15.0733 6.76621 13.569 6.14212 11.9999 6.14032C10.4308 6.14212 8.92655 6.76621 7.81705 7.87571C6.70754 8.98522 6.08343 10.4895 6.08162 12.0586C6.08403 13.6273 6.7084 15.131 7.81784 16.24ZM8.44665 8.50469C9.389 7.56191 10.6669 7.03155 11.9999 7.03004C13.3329 7.03155 14.6108 7.56191 15.5532 8.50469C16.4955 9.44746 17.0253 10.7256 17.0262 12.0586C17.0247 13.3912 16.4946 14.6688 15.5524 15.611C14.6101 16.5533 13.3325 17.0834 11.9999 17.0849C10.6673 17.0834 9.38973 16.5533 8.44744 15.611C7.50516 14.6688 6.97513 13.3912 6.97363 12.0586C6.97453 10.7256 7.5043 9.44746 8.44665 8.50469Z" fill="black" fill-opacity="0.2"/>
<path fill-rule="evenodd" clip-rule="evenodd" d="M6.66619 18.277C8.1918 19.4617 10.0685 20.1045 12 20.1041C13.9315 20.1045 15.8082 19.4617 17.3338 18.277L23.1681 13.7535C23.4285 13.5529 23.639 13.2949 23.7833 12.9997C23.9275 12.7044 24.0017 12.3798 24 12.0512C24.0017 11.7226 23.9275 11.398 23.7833 11.1027C23.639 10.8075 23.4285 10.5495 23.1681 10.3489L17.3338 5.82537C15.8076 4.64213 13.9312 4 12 4C10.0688 4 8.19244 4.64213 6.66619 5.82537L0.831881 10.3489C0.571545 10.5495 0.361031 10.8075 0.216743 11.1027C0.0724583 11.398 -0.00170708 11.7226 2.86102e-05 12.0512C-0.00170708 12.3798 0.0724583 12.7044 0.216743 12.9997C0.361031 13.2949 0.571545 13.5529 0.831881 13.7535L6.66619 18.277ZM12 19.2117C10.266 19.2117 8.58117 18.635 7.21091 17.5723L1.37661 13.0488C1.22463 12.9318 1.10165 12.7813 1.01722 12.6091C0.932787 12.4369 0.889166 12.2476 0.889751 12.0558C0.889166 11.864 0.932787 11.6746 1.01722 11.5024C1.10165 11.3302 1.22463 11.1798 1.37661 11.0628L7.21091 6.53919C8.58117 5.47651 10.266 4.89977 12 4.89977C13.7341 4.89977 15.4188 5.47651 16.7891 6.53919L22.6234 11.0628C22.7754 11.1798 22.8983 11.3302 22.9828 11.5024C23.0672 11.6746 23.1108 11.864 23.1102 12.0558C23.1108 12.2476 23.0672 12.4369 22.9828 12.6091C22.8983 12.7813 22.7754 12.9318 22.6234 13.0488L16.7891 17.5723C15.4188 18.635 13.7341 19.2117 12 19.2117ZM7.81784 16.24C8.92728 17.349 10.4312 17.9728 11.9999 17.9746C13.5686 17.9728 15.0725 17.349 16.182 16.24C17.2914 15.131 17.9158 13.6273 17.9182 12.0586C17.9164 10.4895 17.2923 8.98522 16.1828 7.87571C15.0733 6.76621 13.569 6.14212 11.9999 6.14032C10.4308 6.14212 8.92655 6.76621 7.81705 7.87571C6.70754 8.98522 6.08343 10.4895 6.08162 12.0586C6.08403 13.6273 6.7084 15.131 7.81784 16.24ZM8.44665 8.50469C9.389 7.56191 10.6669 7.03155 11.9999 7.03004C13.3329 7.03155 14.6108 7.56191 15.5532 8.50469C16.4955 9.44746 17.0253 10.7256 17.0262 12.0586C17.0247 13.3912 16.4946 14.6688 15.5524 15.611C14.6101 16.5533 13.3325 17.0834 11.9999 17.0849C10.6673 17.0834 9.38973 16.5533 8.44744 15.611C7.50516 14.6688 6.97513 13.3912 6.97363 12.0586C6.97453 10.7256 7.5043 9.44746 8.44665 8.50469Z" fill="black" fill-opacity="0.2"/>
<path fill-rule="evenodd" clip-rule="evenodd" d="M6.66619 18.277C8.1918 19.4617 10.0685 20.1045 12 20.1041C13.9315 20.1045 15.8082 19.4617 17.3338 18.277L23.1681 13.7535C23.4285 13.5529 23.639 13.2949 23.7833 12.9997C23.9275 12.7044 24.0017 12.3798 24 12.0512C24.0017 11.7226 23.9275 11.398 23.7833 11.1027C23.639 10.8075 23.4285 10.5495 23.1681 10.3489L17.3338 5.82537C15.8076 4.64213 13.9312 4 12 4C10.0688 4 8.19244 4.64213 6.66619 5.82537L0.831881 10.3489C0.571545 10.5495 0.361031 10.8075 0.216743 11.1027C0.0724583 11.398 -0.00170708 11.7226 2.86102e-05 12.0512C-0.00170708 12.3798 0.0724583 12.7044 0.216743 12.9997C0.361031 13.2949 0.571545 13.5529 0.831881 13.7535L6.66619 18.277ZM12 19.2117C10.266 19.2117 8.58117 18.635 7.21091 17.5723L1.37661 13.0488C1.22463 12.9318 1.10165 12.7813 1.01722 12.6091C0.932787 12.4369 0.889166 12.2476 0.889751 12.0558C0.889166 11.864 0.932787 11.6746 1.01722 11.5024C1.10165 11.3302 1.22463 11.1798 1.37661 11.0628L7.21091 6.53919C8.58117 5.47651 10.266 4.89977 12 4.89977C13.7341 4.89977 15.4188 5.47651 16.7891 6.53919L22.6234 11.0628C22.7754 11.1798 22.8983 11.3302 22.9828 11.5024C23.0672 11.6746 23.1108 11.864 23.1102 12.0558C23.1108 12.2476 23.0672 12.4369 22.9828 12.6091C22.8983 12.7813 22.7754 12.9318 22.6234 13.0488L16.7891 17.5723C15.4188 18.635 13.7341 19.2117 12 19.2117ZM7.81784 16.24C8.92728 17.349 10.4312 17.9728 11.9999 17.9746C13.5686 17.9728 15.0725 17.349 16.182 16.24C17.2914 15.131 17.9158 13.6273 17.9182 12.0586C17.9164 10.4895 17.2923 8.98522 16.1828 7.87571C15.0733 6.76621 13.569 6.14212 11.9999 6.14032C10.4308 6.14212 8.92655 6.76621 7.81705 7.87571C6.70754 8.98522 6.08343 10.4895 6.08162 12.0586C6.08403 13.6273 6.7084 15.131 7.81784 16.24ZM8.44665 8.50469C9.389 7.56191 10.6669 7.03155 11.9999 7.03004C13.3329 7.03155 14.6108 7.56191 15.5532 8.50469C16.4955 9.44746 17.0253 10.7256 17.0262 12.0586C17.0247 13.3912 16.4946 14.6688 15.5524 15.611C14.6101 16.5533 13.3325 17.0834 11.9999 17.0849C10.6673 17.0834 9.38973 16.5533 8.44744 15.611C7.50516 14.6688 6.97513 13.3912 6.97363 12.0586C6.97453 10.7256 7.5043 9.44746 8.44665 8.50469Z" fill="black" fill-opacity="0.2"/>
<path fill-rule="evenodd" clip-rule="evenodd" d="M6.66619 18.277C8.1918 19.4617 10.0685 20.1045 12 20.1041C13.9315 20.1045 15.8082 19.4617 17.3338 18.277L23.1681 13.7535C23.4285 13.5529 23.639 13.2949 23.7833 12.9997C23.9275 12.7044 24.0017 12.3798 24 12.0512C24.0017 11.7226 23.9275 11.398 23.7833 11.1027C23.639 10.8075 23.4285 10.5495 23.1681 10.3489L17.3338 5.82537C15.8076 4.64213 13.9312 4 12 4C10.0688 4 8.19244 4.64213 6.66619 5.82537L0.831881 10.3489C0.571545 10.5495 0.361031 10.8075 0.216743 11.1027C0.0724583 11.398 -0.00170708 11.7226 2.86102e-05 12.0512C-0.00170708 12.3798 0.0724583 12.7044 0.216743 12.9997C0.361031 13.2949 0.571545 13.5529 0.831881 13.7535L6.66619 18.277ZM12 19.2117C10.266 19.2117 8.58117 18.635 7.21091 17.5723L1.37661 13.0488C1.22463 12.9318 1.10165 12.7813 1.01722 12.6091C0.932787 12.4369 0.889166 12.2476 0.889751 12.0558C0.889166 11.864 0.932787 11.6746 1.01722 11.5024C1.10165 11.3302 1.22463 11.1798 1.37661 11.0628L7.21091 6.53919C8.58117 5.47651 10.266 4.89977 12 4.89977C13.7341 4.89977 15.4188 5.47651 16.7891 6.53919L22.6234 11.0628C22.7754 11.1798 22.8983 11.3302 22.9828 11.5024C23.0672 11.6746 23.1108 11.864 23.1102 12.0558C23.1108 12.2476 23.0672 12.4369 22.9828 12.6091C22.8983 12.7813 22.7754 12.9318 22.6234 13.0488L16.7891 17.5723C15.4188 18.635 13.7341 19.2117 12 19.2117ZM7.81784 16.24C8.92728 17.349 10.4312 17.9728 11.9999 17.9746C13.5686 17.9728 15.0725 17.349 16.182 16.24C17.2914 15.131 17.9158 13.6273 17.9182 12.0586C17.9164 10.4895 17.2923 8.98522 16.1828 7.87571C15.0733 6.76621 13.569 6.14212 11.9999 6.14032C10.4308 6.14212 8.92655 6.76621 7.81705 7.87571C6.70754 8.98522 6.08343 10.4895 6.08162 12.0586C6.08403 13.6273 6.7084 15.131 7.81784 16.24ZM8.44665 8.50469C9.389 7.56191 10.6669 7.03155 11.9999 7.03004C13.3329 7.03155 14.6108 7.56191 15.5532 8.50469C16.4955 9.44746 17.0253 10.7256 17.0262 12.0586C17.0247 13.3912 16.4946 14.6688 15.5524 15.611C14.6101 16.5533 13.3325 17.0834 11.9999 17.0849C10.6673 17.0834 9.38973 16.5533 8.44744 15.611C7.50516 14.6688 6.97513 13.3912 6.97363 12.0586C6.97453 10.7256 7.5043 9.44746 8.44665 8.50469Z" fill="black" fill-opacity="0.2"/>
</g>
<defs>
<clipPath id="clip0_409_2264">
<rect width="24" height="24" fill="white" transform="matrix(-1 0 0 1 24 0)"/>
</clipPath>
</defs>
</svg>
