<svg width="24" height="24" viewBox="0 0 24 24" fill="none" xmlns="http://www.w3.org/2000/svg">
<g clip-path="url(#clip0_243_69)">
<path d="M21.843 1.00191H21.829C19.1191 0.987728 16.4334 1.51363 13.929 2.54891C13.214 2.85917 12.5345 3.24539 11.902 3.70091C8.93323 1.90173 5.5213 0.966669 2.05004 1.00091H2.02801C1.88725 1.00154 1.74816 1.03127 1.61944 1.08823C1.49072 1.14519 1.37515 1.22815 1.28002 1.33191C1.09936 1.52809 0.999396 1.78521 1.00005 2.05191V20.1679C0.997334 20.4354 1.09789 20.6937 1.28082 20.8889C1.46374 21.0841 1.71492 21.2012 1.98205 21.2159C7.90705 21.4899 10.882 22.5529 11.647 22.8729L11.955 23.0009L12.2551 22.8619C13.1551 22.4529 15.881 21.4729 21.891 21.2149C22.159 21.2015 22.4113 21.0849 22.5951 20.8895C22.7789 20.6941 22.8799 20.4351 22.877 20.1669V2.05291C22.8783 1.91595 22.8526 1.78008 22.8013 1.65308C22.75 1.52608 22.6742 1.41045 22.5782 1.31281C22.4821 1.21518 22.3677 1.13746 22.2416 1.08411C22.1154 1.03076 21.98 1.00282 21.843 1.00191ZM22.106 20.1679C22.108 20.2388 22.0829 20.3077 22.0356 20.3605C21.9884 20.4133 21.9227 20.4461 21.852 20.4519C15.74 20.7149 12.906 21.7219 11.931 22.1679C10.912 21.7449 7.85703 20.7239 2.00903 20.4539C1.93857 20.4478 1.87314 20.415 1.8261 20.3622C1.77906 20.3094 1.75398 20.2406 1.75604 20.1699V2.05391C1.75358 1.98126 1.77977 1.91057 1.82897 1.85706C1.87817 1.80356 1.94644 1.77154 2.01904 1.76791H2.02404C5.38314 1.72085 8.68632 2.63024 11.548 4.38991V20.5599C11.548 20.6614 11.5884 20.7586 11.6601 20.8304C11.7318 20.9021 11.8291 20.9424 11.9305 20.9424C12.032 20.9424 12.1292 20.9021 12.201 20.8304C12.2727 20.7586 12.313 20.6614 12.313 20.5599V4.34191C12.9091 3.90728 13.5518 3.54035 14.2291 3.24791C16.6421 2.25343 19.2292 1.75028 21.839 1.76791C21.9117 1.77128 21.9802 1.80323 22.0294 1.85679C22.0787 1.91035 22.1048 1.98119 22.102 2.05391L22.106 20.1679Z" fill="#333333"/>
<path d="M21.843 1.00191H21.829C19.1191 0.987728 16.4334 1.51363 13.929 2.54891C13.214 2.85917 12.5345 3.24539 11.902 3.70091C8.93323 1.90173 5.5213 0.966669 2.05004 1.00091H2.02801C1.88725 1.00154 1.74816 1.03127 1.61944 1.08823C1.49072 1.14519 1.37515 1.22815 1.28002 1.33191C1.09936 1.52809 0.999396 1.78521 1.00005 2.05191V20.1679C0.997334 20.4354 1.09789 20.6937 1.28082 20.8889C1.46374 21.0841 1.71492 21.2012 1.98205 21.2159C7.90705 21.4899 10.882 22.5529 11.647 22.8729L11.955 23.0009L12.2551 22.8619C13.1551 22.4529 15.881 21.4729 21.891 21.2149C22.159 21.2015 22.4113 21.0849 22.5951 20.8895C22.7789 20.6941 22.8799 20.4351 22.877 20.1669V2.05291C22.8783 1.91595 22.8526 1.78008 22.8013 1.65308C22.75 1.52608 22.6742 1.41045 22.5782 1.31281C22.4821 1.21518 22.3677 1.13746 22.2416 1.08411C22.1154 1.03076 21.98 1.00282 21.843 1.00191ZM22.106 20.1679C22.108 20.2388 22.0829 20.3077 22.0356 20.3605C21.9884 20.4133 21.9227 20.4461 21.852 20.4519C15.74 20.7149 12.906 21.7219 11.931 22.1679C10.912 21.7449 7.85703 20.7239 2.00903 20.4539C1.93857 20.4478 1.87314 20.415 1.8261 20.3622C1.77906 20.3094 1.75398 20.2406 1.75604 20.1699V2.05391C1.75358 1.98126 1.77977 1.91057 1.82897 1.85706C1.87817 1.80356 1.94644 1.77154 2.01904 1.76791H2.02404C5.38314 1.72085 8.68632 2.63024 11.548 4.38991V20.5599C11.548 20.6614 11.5884 20.7586 11.6601 20.8304C11.7318 20.9021 11.8291 20.9424 11.9305 20.9424C12.032 20.9424 12.1292 20.9021 12.201 20.8304C12.2727 20.7586 12.313 20.6614 12.313 20.5599V4.34191C12.9091 3.90728 13.5518 3.54035 14.2291 3.24791C16.6421 2.25343 19.2292 1.75028 21.839 1.76791C21.9117 1.77128 21.9802 1.80323 22.0294 1.85679C22.0787 1.91035 22.1048 1.98119 22.102 2.05391L22.106 20.1679Z" fill="black" fill-opacity="0.2"/>
<path d="M21.843 1.00191H21.829C19.1191 0.987728 16.4334 1.51363 13.929 2.54891C13.214 2.85917 12.5345 3.24539 11.902 3.70091C8.93323 1.90173 5.5213 0.966669 2.05004 1.00091H2.02801C1.88725 1.00154 1.74816 1.03127 1.61944 1.08823C1.49072 1.14519 1.37515 1.22815 1.28002 1.33191C1.09936 1.52809 0.999396 1.78521 1.00005 2.05191V20.1679C0.997334 20.4354 1.09789 20.6937 1.28082 20.8889C1.46374 21.0841 1.71492 21.2012 1.98205 21.2159C7.90705 21.4899 10.882 22.5529 11.647 22.8729L11.955 23.0009L12.2551 22.8619C13.1551 22.4529 15.881 21.4729 21.891 21.2149C22.159 21.2015 22.4113 21.0849 22.5951 20.8895C22.7789 20.6941 22.8799 20.4351 22.877 20.1669V2.05291C22.8783 1.91595 22.8526 1.78008 22.8013 1.65308C22.75 1.52608 22.6742 1.41045 22.5782 1.31281C22.4821 1.21518 22.3677 1.13746 22.2416 1.08411C22.1154 1.03076 21.98 1.00282 21.843 1.00191ZM22.106 20.1679C22.108 20.2388 22.0829 20.3077 22.0356 20.3605C21.9884 20.4133 21.9227 20.4461 21.852 20.4519C15.74 20.7149 12.906 21.7219 11.931 22.1679C10.912 21.7449 7.85703 20.7239 2.00903 20.4539C1.93857 20.4478 1.87314 20.415 1.8261 20.3622C1.77906 20.3094 1.75398 20.2406 1.75604 20.1699V2.05391C1.75358 1.98126 1.77977 1.91057 1.82897 1.85706C1.87817 1.80356 1.94644 1.77154 2.01904 1.76791H2.02404C5.38314 1.72085 8.68632 2.63024 11.548 4.38991V20.5599C11.548 20.6614 11.5884 20.7586 11.6601 20.8304C11.7318 20.9021 11.8291 20.9424 11.9305 20.9424C12.032 20.9424 12.1292 20.9021 12.201 20.8304C12.2727 20.7586 12.313 20.6614 12.313 20.5599V4.34191C12.9091 3.90728 13.5518 3.54035 14.2291 3.24791C16.6421 2.25343 19.2292 1.75028 21.839 1.76791C21.9117 1.77128 21.9802 1.80323 22.0294 1.85679C22.0787 1.91035 22.1048 1.98119 22.102 2.05391L22.106 20.1679Z" fill="black" fill-opacity="0.2"/>
<path d="M21.843 1.00191H21.829C19.1191 0.987728 16.4334 1.51363 13.929 2.54891C13.214 2.85917 12.5345 3.24539 11.902 3.70091C8.93323 1.90173 5.5213 0.966669 2.05004 1.00091H2.02801C1.88725 1.00154 1.74816 1.03127 1.61944 1.08823C1.49072 1.14519 1.37515 1.22815 1.28002 1.33191C1.09936 1.52809 0.999396 1.78521 1.00005 2.05191V20.1679C0.997334 20.4354 1.09789 20.6937 1.28082 20.8889C1.46374 21.0841 1.71492 21.2012 1.98205 21.2159C7.90705 21.4899 10.882 22.5529 11.647 22.8729L11.955 23.0009L12.2551 22.8619C13.1551 22.4529 15.881 21.4729 21.891 21.2149C22.159 21.2015 22.4113 21.0849 22.5951 20.8895C22.7789 20.6941 22.8799 20.4351 22.877 20.1669V2.05291C22.8783 1.91595 22.8526 1.78008 22.8013 1.65308C22.75 1.52608 22.6742 1.41045 22.5782 1.31281C22.4821 1.21518 22.3677 1.13746 22.2416 1.08411C22.1154 1.03076 21.98 1.00282 21.843 1.00191ZM22.106 20.1679C22.108 20.2388 22.0829 20.3077 22.0356 20.3605C21.9884 20.4133 21.9227 20.4461 21.852 20.4519C15.74 20.7149 12.906 21.7219 11.931 22.1679C10.912 21.7449 7.85703 20.7239 2.00903 20.4539C1.93857 20.4478 1.87314 20.415 1.8261 20.3622C1.77906 20.3094 1.75398 20.2406 1.75604 20.1699V2.05391C1.75358 1.98126 1.77977 1.91057 1.82897 1.85706C1.87817 1.80356 1.94644 1.77154 2.01904 1.76791H2.02404C5.38314 1.72085 8.68632 2.63024 11.548 4.38991V20.5599C11.548 20.6614 11.5884 20.7586 11.6601 20.8304C11.7318 20.9021 11.8291 20.9424 11.9305 20.9424C12.032 20.9424 12.1292 20.9021 12.201 20.8304C12.2727 20.7586 12.313 20.6614 12.313 20.5599V4.34191C12.9091 3.90728 13.5518 3.54035 14.2291 3.24791C16.6421 2.25343 19.2292 1.75028 21.839 1.76791C21.9117 1.77128 21.9802 1.80323 22.0294 1.85679C22.0787 1.91035 22.1048 1.98119 22.102 2.05391L22.106 20.1679Z" fill="black" fill-opacity="0.2"/>
<path d="M21.843 1.00191H21.829C19.1191 0.987728 16.4334 1.51363 13.929 2.54891C13.214 2.85917 12.5345 3.24539 11.902 3.70091C8.93323 1.90173 5.5213 0.966669 2.05004 1.00091H2.02801C1.88725 1.00154 1.74816 1.03127 1.61944 1.08823C1.49072 1.14519 1.37515 1.22815 1.28002 1.33191C1.09936 1.52809 0.999396 1.78521 1.00005 2.05191V20.1679C0.997334 20.4354 1.09789 20.6937 1.28082 20.8889C1.46374 21.0841 1.71492 21.2012 1.98205 21.2159C7.90705 21.4899 10.882 22.5529 11.647 22.8729L11.955 23.0009L12.2551 22.8619C13.1551 22.4529 15.881 21.4729 21.891 21.2149C22.159 21.2015 22.4113 21.0849 22.5951 20.8895C22.7789 20.6941 22.8799 20.4351 22.877 20.1669V2.05291C22.8783 1.91595 22.8526 1.78008 22.8013 1.65308C22.75 1.52608 22.6742 1.41045 22.5782 1.31281C22.4821 1.21518 22.3677 1.13746 22.2416 1.08411C22.1154 1.03076 21.98 1.00282 21.843 1.00191ZM22.106 20.1679C22.108 20.2388 22.0829 20.3077 22.0356 20.3605C21.9884 20.4133 21.9227 20.4461 21.852 20.4519C15.74 20.7149 12.906 21.7219 11.931 22.1679C10.912 21.7449 7.85703 20.7239 2.00903 20.4539C1.93857 20.4478 1.87314 20.415 1.8261 20.3622C1.77906 20.3094 1.75398 20.2406 1.75604 20.1699V2.05391C1.75358 1.98126 1.77977 1.91057 1.82897 1.85706C1.87817 1.80356 1.94644 1.77154 2.01904 1.76791H2.02404C5.38314 1.72085 8.68632 2.63024 11.548 4.38991V20.5599C11.548 20.6614 11.5884 20.7586 11.6601 20.8304C11.7318 20.9021 11.8291 20.9424 11.9305 20.9424C12.032 20.9424 12.1292 20.9021 12.201 20.8304C12.2727 20.7586 12.313 20.6614 12.313 20.5599V4.34191C12.9091 3.90728 13.5518 3.54035 14.2291 3.24791C16.6421 2.25343 19.2292 1.75028 21.839 1.76791C21.9117 1.77128 21.9802 1.80323 22.0294 1.85679C22.0787 1.91035 22.1048 1.98119 22.102 2.05391L22.106 20.1679Z" fill="black" fill-opacity="0.2"/>
<path d="M21.843 1.00191H21.829C19.1191 0.987728 16.4334 1.51363 13.929 2.54891C13.214 2.85917 12.5345 3.24539 11.902 3.70091C8.93323 1.90173 5.5213 0.966669 2.05004 1.00091H2.02801C1.88725 1.00154 1.74816 1.03127 1.61944 1.08823C1.49072 1.14519 1.37515 1.22815 1.28002 1.33191C1.09936 1.52809 0.999396 1.78521 1.00005 2.05191V20.1679C0.997334 20.4354 1.09789 20.6937 1.28082 20.8889C1.46374 21.0841 1.71492 21.2012 1.98205 21.2159C7.90705 21.4899 10.882 22.5529 11.647 22.8729L11.955 23.0009L12.2551 22.8619C13.1551 22.4529 15.881 21.4729 21.891 21.2149C22.159 21.2015 22.4113 21.0849 22.5951 20.8895C22.7789 20.6941 22.8799 20.4351 22.877 20.1669V2.05291C22.8783 1.91595 22.8526 1.78008 22.8013 1.65308C22.75 1.52608 22.6742 1.41045 22.5782 1.31281C22.4821 1.21518 22.3677 1.13746 22.2416 1.08411C22.1154 1.03076 21.98 1.00282 21.843 1.00191ZM22.106 20.1679C22.108 20.2388 22.0829 20.3077 22.0356 20.3605C21.9884 20.4133 21.9227 20.4461 21.852 20.4519C15.74 20.7149 12.906 21.7219 11.931 22.1679C10.912 21.7449 7.85703 20.7239 2.00903 20.4539C1.93857 20.4478 1.87314 20.415 1.8261 20.3622C1.77906 20.3094 1.75398 20.2406 1.75604 20.1699V2.05391C1.75358 1.98126 1.77977 1.91057 1.82897 1.85706C1.87817 1.80356 1.94644 1.77154 2.01904 1.76791H2.02404C5.38314 1.72085 8.68632 2.63024 11.548 4.38991V20.5599C11.548 20.6614 11.5884 20.7586 11.6601 20.8304C11.7318 20.9021 11.8291 20.9424 11.9305 20.9424C12.032 20.9424 12.1292 20.9021 12.201 20.8304C12.2727 20.7586 12.313 20.6614 12.313 20.5599V4.34191C12.9091 3.90728 13.5518 3.54035 14.2291 3.24791C16.6421 2.25343 19.2292 1.75028 21.839 1.76791C21.9117 1.77128 21.9802 1.80323 22.0294 1.85679C22.0787 1.91035 22.1048 1.98119 22.102 2.05391L22.106 20.1679Z" fill="black" fill-opacity="0.2"/>
<path d="M21.843 1.00191H21.829C19.1191 0.987728 16.4334 1.51363 13.929 2.54891C13.214 2.85917 12.5345 3.24539 11.902 3.70091C8.93323 1.90173 5.5213 0.966669 2.05004 1.00091H2.02801C1.88725 1.00154 1.74816 1.03127 1.61944 1.08823C1.49072 1.14519 1.37515 1.22815 1.28002 1.33191C1.09936 1.52809 0.999396 1.78521 1.00005 2.05191V20.1679C0.997334 20.4354 1.09789 20.6937 1.28082 20.8889C1.46374 21.0841 1.71492 21.2012 1.98205 21.2159C7.90705 21.4899 10.882 22.5529 11.647 22.8729L11.955 23.0009L12.2551 22.8619C13.1551 22.4529 15.881 21.4729 21.891 21.2149C22.159 21.2015 22.4113 21.0849 22.5951 20.8895C22.7789 20.6941 22.8799 20.4351 22.877 20.1669V2.05291C22.8783 1.91595 22.8526 1.78008 22.8013 1.65308C22.75 1.52608 22.6742 1.41045 22.5782 1.31281C22.4821 1.21518 22.3677 1.13746 22.2416 1.08411C22.1154 1.03076 21.98 1.00282 21.843 1.00191ZM22.106 20.1679C22.108 20.2388 22.0829 20.3077 22.0356 20.3605C21.9884 20.4133 21.9227 20.4461 21.852 20.4519C15.74 20.7149 12.906 21.7219 11.931 22.1679C10.912 21.7449 7.85703 20.7239 2.00903 20.4539C1.93857 20.4478 1.87314 20.415 1.8261 20.3622C1.77906 20.3094 1.75398 20.2406 1.75604 20.1699V2.05391C1.75358 1.98126 1.77977 1.91057 1.82897 1.85706C1.87817 1.80356 1.94644 1.77154 2.01904 1.76791H2.02404C5.38314 1.72085 8.68632 2.63024 11.548 4.38991V20.5599C11.548 20.6614 11.5884 20.7586 11.6601 20.8304C11.7318 20.9021 11.8291 20.9424 11.9305 20.9424C12.032 20.9424 12.1292 20.9021 12.201 20.8304C12.2727 20.7586 12.313 20.6614 12.313 20.5599V4.34191C12.9091 3.90728 13.5518 3.54035 14.2291 3.24791C16.6421 2.25343 19.2292 1.75028 21.839 1.76791C21.9117 1.77128 21.9802 1.80323 22.0294 1.85679C22.0787 1.91035 22.1048 1.98119 22.102 2.05391L22.106 20.1679Z" stroke="#333333"/>
<path d="M21.843 1.00191H21.829C19.1191 0.987728 16.4334 1.51363 13.929 2.54891C13.214 2.85917 12.5345 3.24539 11.902 3.70091C8.93323 1.90173 5.5213 0.966669 2.05004 1.00091H2.02801C1.88725 1.00154 1.74816 1.03127 1.61944 1.08823C1.49072 1.14519 1.37515 1.22815 1.28002 1.33191C1.09936 1.52809 0.999396 1.78521 1.00005 2.05191V20.1679C0.997334 20.4354 1.09789 20.6937 1.28082 20.8889C1.46374 21.0841 1.71492 21.2012 1.98205 21.2159C7.90705 21.4899 10.882 22.5529 11.647 22.8729L11.955 23.0009L12.2551 22.8619C13.1551 22.4529 15.881 21.4729 21.891 21.2149C22.159 21.2015 22.4113 21.0849 22.5951 20.8895C22.7789 20.6941 22.8799 20.4351 22.877 20.1669V2.05291C22.8783 1.91595 22.8526 1.78008 22.8013 1.65308C22.75 1.52608 22.6742 1.41045 22.5782 1.31281C22.4821 1.21518 22.3677 1.13746 22.2416 1.08411C22.1154 1.03076 21.98 1.00282 21.843 1.00191ZM22.106 20.1679C22.108 20.2388 22.0829 20.3077 22.0356 20.3605C21.9884 20.4133 21.9227 20.4461 21.852 20.4519C15.74 20.7149 12.906 21.7219 11.931 22.1679C10.912 21.7449 7.85703 20.7239 2.00903 20.4539C1.93857 20.4478 1.87314 20.415 1.8261 20.3622C1.77906 20.3094 1.75398 20.2406 1.75604 20.1699V2.05391C1.75358 1.98126 1.77977 1.91057 1.82897 1.85706C1.87817 1.80356 1.94644 1.77154 2.01904 1.76791H2.02404C5.38314 1.72085 8.68632 2.63024 11.548 4.38991V20.5599C11.548 20.6614 11.5884 20.7586 11.6601 20.8304C11.7318 20.9021 11.8291 20.9424 11.9305 20.9424C12.032 20.9424 12.1292 20.9021 12.201 20.8304C12.2727 20.7586 12.313 20.6614 12.313 20.5599V4.34191C12.9091 3.90728 13.5518 3.54035 14.2291 3.24791C16.6421 2.25343 19.2292 1.75028 21.839 1.76791C21.9117 1.77128 21.9802 1.80323 22.0294 1.85679C22.0787 1.91035 22.1048 1.98119 22.102 2.05391L22.106 20.1679Z" stroke="black" stroke-opacity="0.2"/>
<path d="M21.843 1.00191H21.829C19.1191 0.987728 16.4334 1.51363 13.929 2.54891C13.214 2.85917 12.5345 3.24539 11.902 3.70091C8.93323 1.90173 5.5213 0.966669 2.05004 1.00091H2.02801C1.88725 1.00154 1.74816 1.03127 1.61944 1.08823C1.49072 1.14519 1.37515 1.22815 1.28002 1.33191C1.09936 1.52809 0.999396 1.78521 1.00005 2.05191V20.1679C0.997334 20.4354 1.09789 20.6937 1.28082 20.8889C1.46374 21.0841 1.71492 21.2012 1.98205 21.2159C7.90705 21.4899 10.882 22.5529 11.647 22.8729L11.955 23.0009L12.2551 22.8619C13.1551 22.4529 15.881 21.4729 21.891 21.2149C22.159 21.2015 22.4113 21.0849 22.5951 20.8895C22.7789 20.6941 22.8799 20.4351 22.877 20.1669V2.05291C22.8783 1.91595 22.8526 1.78008 22.8013 1.65308C22.75 1.52608 22.6742 1.41045 22.5782 1.31281C22.4821 1.21518 22.3677 1.13746 22.2416 1.08411C22.1154 1.03076 21.98 1.00282 21.843 1.00191ZM22.106 20.1679C22.108 20.2388 22.0829 20.3077 22.0356 20.3605C21.9884 20.4133 21.9227 20.4461 21.852 20.4519C15.74 20.7149 12.906 21.7219 11.931 22.1679C10.912 21.7449 7.85703 20.7239 2.00903 20.4539C1.93857 20.4478 1.87314 20.415 1.8261 20.3622C1.77906 20.3094 1.75398 20.2406 1.75604 20.1699V2.05391C1.75358 1.98126 1.77977 1.91057 1.82897 1.85706C1.87817 1.80356 1.94644 1.77154 2.01904 1.76791H2.02404C5.38314 1.72085 8.68632 2.63024 11.548 4.38991V20.5599C11.548 20.6614 11.5884 20.7586 11.6601 20.8304C11.7318 20.9021 11.8291 20.9424 11.9305 20.9424C12.032 20.9424 12.1292 20.9021 12.201 20.8304C12.2727 20.7586 12.313 20.6614 12.313 20.5599V4.34191C12.9091 3.90728 13.5518 3.54035 14.2291 3.24791C16.6421 2.25343 19.2292 1.75028 21.839 1.76791C21.9117 1.77128 21.9802 1.80323 22.0294 1.85679C22.0787 1.91035 22.1048 1.98119 22.102 2.05391L22.106 20.1679Z" stroke="black" stroke-opacity="0.2"/>
<path d="M21.843 1.00191H21.829C19.1191 0.987728 16.4334 1.51363 13.929 2.54891C13.214 2.85917 12.5345 3.24539 11.902 3.70091C8.93323 1.90173 5.5213 0.966669 2.05004 1.00091H2.02801C1.88725 1.00154 1.74816 1.03127 1.61944 1.08823C1.49072 1.14519 1.37515 1.22815 1.28002 1.33191C1.09936 1.52809 0.999396 1.78521 1.00005 2.05191V20.1679C0.997334 20.4354 1.09789 20.6937 1.28082 20.8889C1.46374 21.0841 1.71492 21.2012 1.98205 21.2159C7.90705 21.4899 10.882 22.5529 11.647 22.8729L11.955 23.0009L12.2551 22.8619C13.1551 22.4529 15.881 21.4729 21.891 21.2149C22.159 21.2015 22.4113 21.0849 22.5951 20.8895C22.7789 20.6941 22.8799 20.4351 22.877 20.1669V2.05291C22.8783 1.91595 22.8526 1.78008 22.8013 1.65308C22.75 1.52608 22.6742 1.41045 22.5782 1.31281C22.4821 1.21518 22.3677 1.13746 22.2416 1.08411C22.1154 1.03076 21.98 1.00282 21.843 1.00191ZM22.106 20.1679C22.108 20.2388 22.0829 20.3077 22.0356 20.3605C21.9884 20.4133 21.9227 20.4461 21.852 20.4519C15.74 20.7149 12.906 21.7219 11.931 22.1679C10.912 21.7449 7.85703 20.7239 2.00903 20.4539C1.93857 20.4478 1.87314 20.415 1.8261 20.3622C1.77906 20.3094 1.75398 20.2406 1.75604 20.1699V2.05391C1.75358 1.98126 1.77977 1.91057 1.82897 1.85706C1.87817 1.80356 1.94644 1.77154 2.01904 1.76791H2.02404C5.38314 1.72085 8.68632 2.63024 11.548 4.38991V20.5599C11.548 20.6614 11.5884 20.7586 11.6601 20.8304C11.7318 20.9021 11.8291 20.9424 11.9305 20.9424C12.032 20.9424 12.1292 20.9021 12.201 20.8304C12.2727 20.7586 12.313 20.6614 12.313 20.5599V4.34191C12.9091 3.90728 13.5518 3.54035 14.2291 3.24791C16.6421 2.25343 19.2292 1.75028 21.839 1.76791C21.9117 1.77128 21.9802 1.80323 22.0294 1.85679C22.0787 1.91035 22.1048 1.98119 22.102 2.05391L22.106 20.1679Z" stroke="black" stroke-opacity="0.2"/>
<path d="M21.843 1.00191H21.829C19.1191 0.987728 16.4334 1.51363 13.929 2.54891C13.214 2.85917 12.5345 3.24539 11.902 3.70091C8.93323 1.90173 5.5213 0.966669 2.05004 1.00091H2.02801C1.88725 1.00154 1.74816 1.03127 1.61944 1.08823C1.49072 1.14519 1.37515 1.22815 1.28002 1.33191C1.09936 1.52809 0.999396 1.78521 1.00005 2.05191V20.1679C0.997334 20.4354 1.09789 20.6937 1.28082 20.8889C1.46374 21.0841 1.71492 21.2012 1.98205 21.2159C7.90705 21.4899 10.882 22.5529 11.647 22.8729L11.955 23.0009L12.2551 22.8619C13.1551 22.4529 15.881 21.4729 21.891 21.2149C22.159 21.2015 22.4113 21.0849 22.5951 20.8895C22.7789 20.6941 22.8799 20.4351 22.877 20.1669V2.05291C22.8783 1.91595 22.8526 1.78008 22.8013 1.65308C22.75 1.52608 22.6742 1.41045 22.5782 1.31281C22.4821 1.21518 22.3677 1.13746 22.2416 1.08411C22.1154 1.03076 21.98 1.00282 21.843 1.00191ZM22.106 20.1679C22.108 20.2388 22.0829 20.3077 22.0356 20.3605C21.9884 20.4133 21.9227 20.4461 21.852 20.4519C15.74 20.7149 12.906 21.7219 11.931 22.1679C10.912 21.7449 7.85703 20.7239 2.00903 20.4539C1.93857 20.4478 1.87314 20.415 1.8261 20.3622C1.77906 20.3094 1.75398 20.2406 1.75604 20.1699V2.05391C1.75358 1.98126 1.77977 1.91057 1.82897 1.85706C1.87817 1.80356 1.94644 1.77154 2.01904 1.76791H2.02404C5.38314 1.72085 8.68632 2.63024 11.548 4.38991V20.5599C11.548 20.6614 11.5884 20.7586 11.6601 20.8304C11.7318 20.9021 11.8291 20.9424 11.9305 20.9424C12.032 20.9424 12.1292 20.9021 12.201 20.8304C12.2727 20.7586 12.313 20.6614 12.313 20.5599V4.34191C12.9091 3.90728 13.5518 3.54035 14.2291 3.24791C16.6421 2.25343 19.2292 1.75028 21.839 1.76791C21.9117 1.77128 21.9802 1.80323 22.0294 1.85679C22.0787 1.91035 22.1048 1.98119 22.102 2.05391L22.106 20.1679Z" stroke="black" stroke-opacity="0.2"/>
<path d="M21.843 1.00191H21.829C19.1191 0.987728 16.4334 1.51363 13.929 2.54891C13.214 2.85917 12.5345 3.24539 11.902 3.70091C8.93323 1.90173 5.5213 0.966669 2.05004 1.00091H2.02801C1.88725 1.00154 1.74816 1.03127 1.61944 1.08823C1.49072 1.14519 1.37515 1.22815 1.28002 1.33191C1.09936 1.52809 0.999396 1.78521 1.00005 2.05191V20.1679C0.997334 20.4354 1.09789 20.6937 1.28082 20.8889C1.46374 21.0841 1.71492 21.2012 1.98205 21.2159C7.90705 21.4899 10.882 22.5529 11.647 22.8729L11.955 23.0009L12.2551 22.8619C13.1551 22.4529 15.881 21.4729 21.891 21.2149C22.159 21.2015 22.4113 21.0849 22.5951 20.8895C22.7789 20.6941 22.8799 20.4351 22.877 20.1669V2.05291C22.8783 1.91595 22.8526 1.78008 22.8013 1.65308C22.75 1.52608 22.6742 1.41045 22.5782 1.31281C22.4821 1.21518 22.3677 1.13746 22.2416 1.08411C22.1154 1.03076 21.98 1.00282 21.843 1.00191ZM22.106 20.1679C22.108 20.2388 22.0829 20.3077 22.0356 20.3605C21.9884 20.4133 21.9227 20.4461 21.852 20.4519C15.74 20.7149 12.906 21.7219 11.931 22.1679C10.912 21.7449 7.85703 20.7239 2.00903 20.4539C1.93857 20.4478 1.87314 20.415 1.8261 20.3622C1.77906 20.3094 1.75398 20.2406 1.75604 20.1699V2.05391C1.75358 1.98126 1.77977 1.91057 1.82897 1.85706C1.87817 1.80356 1.94644 1.77154 2.01904 1.76791H2.02404C5.38314 1.72085 8.68632 2.63024 11.548 4.38991V20.5599C11.548 20.6614 11.5884 20.7586 11.6601 20.8304C11.7318 20.9021 11.8291 20.9424 11.9305 20.9424C12.032 20.9424 12.1292 20.9021 12.201 20.8304C12.2727 20.7586 12.313 20.6614 12.313 20.5599V4.34191C12.9091 3.90728 13.5518 3.54035 14.2291 3.24791C16.6421 2.25343 19.2292 1.75028 21.839 1.76791C21.9117 1.77128 21.9802 1.80323 22.0294 1.85679C22.0787 1.91035 22.1048 1.98119 22.102 2.05391L22.106 20.1679Z" stroke="black" stroke-opacity="0.2"/>
</g>
<defs>
<clipPath id="clip0_243_69">
<rect width="24" height="24" fill="white"/>
</clipPath>
</defs>
</svg>
