<svg width="32" height="32" viewBox="0 0 32 32" fill="none" xmlns="http://www.w3.org/2000/svg">
<path fill-rule="evenodd" clip-rule="evenodd" d="M22.43 4.84495C21.9044 4.32272 21.1779 4 20.375 4H6.81255C5.20746 4 3.90631 5.29146 3.90631 6.88461C3.90631 7.41664 4.33983 7.84614 4.87506 7.84614H13.5896C14.2206 7.84614 14.8438 7.69656 15.3998 7.40047C17.4327 6.31784 19.6887 5.83124 21.9479 5.93725C22.5239 5.96424 22.8589 5.27067 22.43 4.84495ZM21.3437 7.84619C15.4678 7.84619 10.6875 12.5909 10.6875 18.4231C10.6875 24.2552 15.4678 29 21.3437 29C27.2196 29 31.9999 24.2552 31.9999 18.4231C31.9999 12.5909 27.2196 7.84619 21.3437 7.84619ZM20.375 16.0192C20.91 16.0192 21.3437 16.4498 21.3437 16.9808C21.3437 17.5118 20.91 17.9423 20.375 17.9423H18.4609C18.4305 18.2646 18.4289 18.5648 18.4609 18.9038H20.375C20.91 18.9038 21.3437 19.3344 21.3437 19.8654C21.3437 20.3964 20.91 20.8269 20.375 20.8269H19.0828C19.7015 21.8344 20.5602 22.2692 21.3437 22.2692C22.2815 22.2692 22.9982 21.4642 23.4344 20.7888C23.7231 20.3418 24.3223 20.2116 24.7727 20.4982C25.2231 20.7848 25.3542 21.3795 25.0655 21.8266C22.5641 25.7002 18.3134 24.4223 16.936 20.8269H16.5C15.965 20.8269 15.5312 20.3964 15.5312 19.8654C15.5312 19.3344 15.965 18.9038 16.5 18.9038C16.502 18.9038 16.5038 18.9039 16.5054 18.904C16.5061 18.9041 16.5068 18.9042 16.5075 18.9042L16.5075 18.9042C16.5113 18.9045 16.5139 18.9047 16.5156 18.9035C16.5192 18.901 16.5184 18.8922 16.5158 18.8641C16.511 18.8117 16.5 18.6925 16.5 18.4231C16.5 18.1538 16.5109 18.0346 16.5157 17.9822C16.5183 17.954 16.5191 17.9451 16.5155 17.9426C16.5138 17.9415 16.5113 17.9417 16.5075 17.942C16.5054 17.9421 16.5029 17.9423 16.5 17.9423C15.965 17.9423 15.5312 17.5118 15.5312 16.9808C15.5312 16.4498 15.965 16.0192 16.5 16.0192H16.936C18.3137 12.4232 22.5624 11.1434 25.0655 15.0196C25.3543 15.4667 25.2232 16.0614 24.7727 16.348C24.3224 16.6346 23.7231 16.5045 23.4344 16.0573C22.9982 15.382 22.2815 14.5769 21.3437 14.5769C20.5608 14.5769 19.7018 15.0112 19.0828 16.0192H20.375ZM8.96541 16.1105C9.02142 15.8136 8.79443 15.5386 8.49006 15.5386H6.81255C5.20746 15.5386 3.90631 16.83 3.90631 18.4232C3.90631 18.9552 4.33983 19.3847 4.87506 19.3847H7.79825C8.30896 19.3847 8.75005 18.9794 8.75005 18.4232C8.75005 17.633 8.8241 16.86 8.96541 16.1105ZM1.96881 12.6539C1.96881 11.0607 3.26996 9.76929 4.87505 9.76929H11.1835C11.5913 9.76929 11.8159 10.2385 11.559 10.5529C10.9318 11.3204 10.3944 12.163 9.96243 13.065C9.80168 13.4007 9.46177 13.6154 9.08729 13.6154H2.93756C2.40233 13.6154 1.96881 13.1859 1.96881 12.6539ZM3.90624 21.3076H8.34377C8.77201 21.3076 9.14952 21.5868 9.27159 21.9943C10.006 24.4447 11.4774 26.5804 13.4309 28.1479C13.7844 28.4316 13.578 28.9999 13.1234 28.9999H3.90624C2.30115 28.9999 1 27.7084 1 26.1153V24.1922C1 22.5991 2.30115 21.3076 3.90624 21.3076Z" fill="black"/>
<path fill-rule="evenodd" clip-rule="evenodd" d="M22.43 4.84495C21.9044 4.32272 21.1779 4 20.375 4H6.81255C5.20746 4 3.90631 5.29146 3.90631 6.88461C3.90631 7.41664 4.33983 7.84614 4.87506 7.84614H13.5896C14.2206 7.84614 14.8438 7.69656 15.3998 7.40047C17.4327 6.31784 19.6887 5.83124 21.9479 5.93725C22.5239 5.96424 22.8589 5.27067 22.43 4.84495ZM21.3437 7.84619C15.4678 7.84619 10.6875 12.5909 10.6875 18.4231C10.6875 24.2552 15.4678 29 21.3437 29C27.2196 29 31.9999 24.2552 31.9999 18.4231C31.9999 12.5909 27.2196 7.84619 21.3437 7.84619ZM20.375 16.0192C20.91 16.0192 21.3437 16.4498 21.3437 16.9808C21.3437 17.5118 20.91 17.9423 20.375 17.9423H18.4609C18.4305 18.2646 18.4289 18.5648 18.4609 18.9038H20.375C20.91 18.9038 21.3437 19.3344 21.3437 19.8654C21.3437 20.3964 20.91 20.8269 20.375 20.8269H19.0828C19.7015 21.8344 20.5602 22.2692 21.3437 22.2692C22.2815 22.2692 22.9982 21.4642 23.4344 20.7888C23.7231 20.3418 24.3223 20.2116 24.7727 20.4982C25.2231 20.7848 25.3542 21.3795 25.0655 21.8266C22.5641 25.7002 18.3134 24.4223 16.936 20.8269H16.5C15.965 20.8269 15.5312 20.3964 15.5312 19.8654C15.5312 19.3344 15.965 18.9038 16.5 18.9038C16.502 18.9038 16.5038 18.9039 16.5054 18.904C16.5061 18.9041 16.5068 18.9042 16.5075 18.9042L16.5075 18.9042C16.5113 18.9045 16.5139 18.9047 16.5156 18.9035C16.5192 18.901 16.5184 18.8922 16.5158 18.8641C16.511 18.8117 16.5 18.6925 16.5 18.4231C16.5 18.1538 16.5109 18.0346 16.5157 17.9822C16.5183 17.954 16.5191 17.9451 16.5155 17.9426C16.5138 17.9415 16.5113 17.9417 16.5075 17.942C16.5054 17.9421 16.5029 17.9423 16.5 17.9423C15.965 17.9423 15.5312 17.5118 15.5312 16.9808C15.5312 16.4498 15.965 16.0192 16.5 16.0192H16.936C18.3137 12.4232 22.5624 11.1434 25.0655 15.0196C25.3543 15.4667 25.2232 16.0614 24.7727 16.348C24.3224 16.6346 23.7231 16.5045 23.4344 16.0573C22.9982 15.382 22.2815 14.5769 21.3437 14.5769C20.5608 14.5769 19.7018 15.0112 19.0828 16.0192H20.375ZM8.96541 16.1105C9.02142 15.8136 8.79443 15.5386 8.49006 15.5386H6.81255C5.20746 15.5386 3.90631 16.83 3.90631 18.4232C3.90631 18.9552 4.33983 19.3847 4.87506 19.3847H7.79825C8.30896 19.3847 8.75005 18.9794 8.75005 18.4232C8.75005 17.633 8.8241 16.86 8.96541 16.1105ZM1.96881 12.6539C1.96881 11.0607 3.26996 9.76929 4.87505 9.76929H11.1835C11.5913 9.76929 11.8159 10.2385 11.559 10.5529C10.9318 11.3204 10.3944 12.163 9.96243 13.065C9.80168 13.4007 9.46177 13.6154 9.08729 13.6154H2.93756C2.40233 13.6154 1.96881 13.1859 1.96881 12.6539ZM3.90624 21.3076H8.34377C8.77201 21.3076 9.14952 21.5868 9.27159 21.9943C10.006 24.4447 11.4774 26.5804 13.4309 28.1479C13.7844 28.4316 13.578 28.9999 13.1234 28.9999H3.90624C2.30115 28.9999 1 27.7084 1 26.1153V24.1922C1 22.5991 2.30115 21.3076 3.90624 21.3076Z" fill="black" fill-opacity="0.2"/>
<path fill-rule="evenodd" clip-rule="evenodd" d="M22.43 4.84495C21.9044 4.32272 21.1779 4 20.375 4H6.81255C5.20746 4 3.90631 5.29146 3.90631 6.88461C3.90631 7.41664 4.33983 7.84614 4.87506 7.84614H13.5896C14.2206 7.84614 14.8438 7.69656 15.3998 7.40047C17.4327 6.31784 19.6887 5.83124 21.9479 5.93725C22.5239 5.96424 22.8589 5.27067 22.43 4.84495ZM21.3437 7.84619C15.4678 7.84619 10.6875 12.5909 10.6875 18.4231C10.6875 24.2552 15.4678 29 21.3437 29C27.2196 29 31.9999 24.2552 31.9999 18.4231C31.9999 12.5909 27.2196 7.84619 21.3437 7.84619ZM20.375 16.0192C20.91 16.0192 21.3437 16.4498 21.3437 16.9808C21.3437 17.5118 20.91 17.9423 20.375 17.9423H18.4609C18.4305 18.2646 18.4289 18.5648 18.4609 18.9038H20.375C20.91 18.9038 21.3437 19.3344 21.3437 19.8654C21.3437 20.3964 20.91 20.8269 20.375 20.8269H19.0828C19.7015 21.8344 20.5602 22.2692 21.3437 22.2692C22.2815 22.2692 22.9982 21.4642 23.4344 20.7888C23.7231 20.3418 24.3223 20.2116 24.7727 20.4982C25.2231 20.7848 25.3542 21.3795 25.0655 21.8266C22.5641 25.7002 18.3134 24.4223 16.936 20.8269H16.5C15.965 20.8269 15.5312 20.3964 15.5312 19.8654C15.5312 19.3344 15.965 18.9038 16.5 18.9038C16.502 18.9038 16.5038 18.9039 16.5054 18.904C16.5061 18.9041 16.5068 18.9042 16.5075 18.9042L16.5075 18.9042C16.5113 18.9045 16.5139 18.9047 16.5156 18.9035C16.5192 18.901 16.5184 18.8922 16.5158 18.8641C16.511 18.8117 16.5 18.6925 16.5 18.4231C16.5 18.1538 16.5109 18.0346 16.5157 17.9822C16.5183 17.954 16.5191 17.9451 16.5155 17.9426C16.5138 17.9415 16.5113 17.9417 16.5075 17.942C16.5054 17.9421 16.5029 17.9423 16.5 17.9423C15.965 17.9423 15.5312 17.5118 15.5312 16.9808C15.5312 16.4498 15.965 16.0192 16.5 16.0192H16.936C18.3137 12.4232 22.5624 11.1434 25.0655 15.0196C25.3543 15.4667 25.2232 16.0614 24.7727 16.348C24.3224 16.6346 23.7231 16.5045 23.4344 16.0573C22.9982 15.382 22.2815 14.5769 21.3437 14.5769C20.5608 14.5769 19.7018 15.0112 19.0828 16.0192H20.375ZM8.96541 16.1105C9.02142 15.8136 8.79443 15.5386 8.49006 15.5386H6.81255C5.20746 15.5386 3.90631 16.83 3.90631 18.4232C3.90631 18.9552 4.33983 19.3847 4.87506 19.3847H7.79825C8.30896 19.3847 8.75005 18.9794 8.75005 18.4232C8.75005 17.633 8.8241 16.86 8.96541 16.1105ZM1.96881 12.6539C1.96881 11.0607 3.26996 9.76929 4.87505 9.76929H11.1835C11.5913 9.76929 11.8159 10.2385 11.559 10.5529C10.9318 11.3204 10.3944 12.163 9.96243 13.065C9.80168 13.4007 9.46177 13.6154 9.08729 13.6154H2.93756C2.40233 13.6154 1.96881 13.1859 1.96881 12.6539ZM3.90624 21.3076H8.34377C8.77201 21.3076 9.14952 21.5868 9.27159 21.9943C10.006 24.4447 11.4774 26.5804 13.4309 28.1479C13.7844 28.4316 13.578 28.9999 13.1234 28.9999H3.90624C2.30115 28.9999 1 27.7084 1 26.1153V24.1922C1 22.5991 2.30115 21.3076 3.90624 21.3076Z" fill="black" fill-opacity="0.2"/>
<path fill-rule="evenodd" clip-rule="evenodd" d="M22.43 4.84495C21.9044 4.32272 21.1779 4 20.375 4H6.81255C5.20746 4 3.90631 5.29146 3.90631 6.88461C3.90631 7.41664 4.33983 7.84614 4.87506 7.84614H13.5896C14.2206 7.84614 14.8438 7.69656 15.3998 7.40047C17.4327 6.31784 19.6887 5.83124 21.9479 5.93725C22.5239 5.96424 22.8589 5.27067 22.43 4.84495ZM21.3437 7.84619C15.4678 7.84619 10.6875 12.5909 10.6875 18.4231C10.6875 24.2552 15.4678 29 21.3437 29C27.2196 29 31.9999 24.2552 31.9999 18.4231C31.9999 12.5909 27.2196 7.84619 21.3437 7.84619ZM20.375 16.0192C20.91 16.0192 21.3437 16.4498 21.3437 16.9808C21.3437 17.5118 20.91 17.9423 20.375 17.9423H18.4609C18.4305 18.2646 18.4289 18.5648 18.4609 18.9038H20.375C20.91 18.9038 21.3437 19.3344 21.3437 19.8654C21.3437 20.3964 20.91 20.8269 20.375 20.8269H19.0828C19.7015 21.8344 20.5602 22.2692 21.3437 22.2692C22.2815 22.2692 22.9982 21.4642 23.4344 20.7888C23.7231 20.3418 24.3223 20.2116 24.7727 20.4982C25.2231 20.7848 25.3542 21.3795 25.0655 21.8266C22.5641 25.7002 18.3134 24.4223 16.936 20.8269H16.5C15.965 20.8269 15.5312 20.3964 15.5312 19.8654C15.5312 19.3344 15.965 18.9038 16.5 18.9038C16.502 18.9038 16.5038 18.9039 16.5054 18.904C16.5061 18.9041 16.5068 18.9042 16.5075 18.9042L16.5075 18.9042C16.5113 18.9045 16.5139 18.9047 16.5156 18.9035C16.5192 18.901 16.5184 18.8922 16.5158 18.8641C16.511 18.8117 16.5 18.6925 16.5 18.4231C16.5 18.1538 16.5109 18.0346 16.5157 17.9822C16.5183 17.954 16.5191 17.9451 16.5155 17.9426C16.5138 17.9415 16.5113 17.9417 16.5075 17.942C16.5054 17.9421 16.5029 17.9423 16.5 17.9423C15.965 17.9423 15.5312 17.5118 15.5312 16.9808C15.5312 16.4498 15.965 16.0192 16.5 16.0192H16.936C18.3137 12.4232 22.5624 11.1434 25.0655 15.0196C25.3543 15.4667 25.2232 16.0614 24.7727 16.348C24.3224 16.6346 23.7231 16.5045 23.4344 16.0573C22.9982 15.382 22.2815 14.5769 21.3437 14.5769C20.5608 14.5769 19.7018 15.0112 19.0828 16.0192H20.375ZM8.96541 16.1105C9.02142 15.8136 8.79443 15.5386 8.49006 15.5386H6.81255C5.20746 15.5386 3.90631 16.83 3.90631 18.4232C3.90631 18.9552 4.33983 19.3847 4.87506 19.3847H7.79825C8.30896 19.3847 8.75005 18.9794 8.75005 18.4232C8.75005 17.633 8.8241 16.86 8.96541 16.1105ZM1.96881 12.6539C1.96881 11.0607 3.26996 9.76929 4.87505 9.76929H11.1835C11.5913 9.76929 11.8159 10.2385 11.559 10.5529C10.9318 11.3204 10.3944 12.163 9.96243 13.065C9.80168 13.4007 9.46177 13.6154 9.08729 13.6154H2.93756C2.40233 13.6154 1.96881 13.1859 1.96881 12.6539ZM3.90624 21.3076H8.34377C8.77201 21.3076 9.14952 21.5868 9.27159 21.9943C10.006 24.4447 11.4774 26.5804 13.4309 28.1479C13.7844 28.4316 13.578 28.9999 13.1234 28.9999H3.90624C2.30115 28.9999 1 27.7084 1 26.1153V24.1922C1 22.5991 2.30115 21.3076 3.90624 21.3076Z" fill="black" fill-opacity="0.2"/>
<path fill-rule="evenodd" clip-rule="evenodd" d="M22.43 4.84495C21.9044 4.32272 21.1779 4 20.375 4H6.81255C5.20746 4 3.90631 5.29146 3.90631 6.88461C3.90631 7.41664 4.33983 7.84614 4.87506 7.84614H13.5896C14.2206 7.84614 14.8438 7.69656 15.3998 7.40047C17.4327 6.31784 19.6887 5.83124 21.9479 5.93725C22.5239 5.96424 22.8589 5.27067 22.43 4.84495ZM21.3437 7.84619C15.4678 7.84619 10.6875 12.5909 10.6875 18.4231C10.6875 24.2552 15.4678 29 21.3437 29C27.2196 29 31.9999 24.2552 31.9999 18.4231C31.9999 12.5909 27.2196 7.84619 21.3437 7.84619ZM20.375 16.0192C20.91 16.0192 21.3437 16.4498 21.3437 16.9808C21.3437 17.5118 20.91 17.9423 20.375 17.9423H18.4609C18.4305 18.2646 18.4289 18.5648 18.4609 18.9038H20.375C20.91 18.9038 21.3437 19.3344 21.3437 19.8654C21.3437 20.3964 20.91 20.8269 20.375 20.8269H19.0828C19.7015 21.8344 20.5602 22.2692 21.3437 22.2692C22.2815 22.2692 22.9982 21.4642 23.4344 20.7888C23.7231 20.3418 24.3223 20.2116 24.7727 20.4982C25.2231 20.7848 25.3542 21.3795 25.0655 21.8266C22.5641 25.7002 18.3134 24.4223 16.936 20.8269H16.5C15.965 20.8269 15.5312 20.3964 15.5312 19.8654C15.5312 19.3344 15.965 18.9038 16.5 18.9038C16.502 18.9038 16.5038 18.9039 16.5054 18.904C16.5061 18.9041 16.5068 18.9042 16.5075 18.9042L16.5075 18.9042C16.5113 18.9045 16.5139 18.9047 16.5156 18.9035C16.5192 18.901 16.5184 18.8922 16.5158 18.8641C16.511 18.8117 16.5 18.6925 16.5 18.4231C16.5 18.1538 16.5109 18.0346 16.5157 17.9822C16.5183 17.954 16.5191 17.9451 16.5155 17.9426C16.5138 17.9415 16.5113 17.9417 16.5075 17.942C16.5054 17.9421 16.5029 17.9423 16.5 17.9423C15.965 17.9423 15.5312 17.5118 15.5312 16.9808C15.5312 16.4498 15.965 16.0192 16.5 16.0192H16.936C18.3137 12.4232 22.5624 11.1434 25.0655 15.0196C25.3543 15.4667 25.2232 16.0614 24.7727 16.348C24.3224 16.6346 23.7231 16.5045 23.4344 16.0573C22.9982 15.382 22.2815 14.5769 21.3437 14.5769C20.5608 14.5769 19.7018 15.0112 19.0828 16.0192H20.375ZM8.96541 16.1105C9.02142 15.8136 8.79443 15.5386 8.49006 15.5386H6.81255C5.20746 15.5386 3.90631 16.83 3.90631 18.4232C3.90631 18.9552 4.33983 19.3847 4.87506 19.3847H7.79825C8.30896 19.3847 8.75005 18.9794 8.75005 18.4232C8.75005 17.633 8.8241 16.86 8.96541 16.1105ZM1.96881 12.6539C1.96881 11.0607 3.26996 9.76929 4.87505 9.76929H11.1835C11.5913 9.76929 11.8159 10.2385 11.559 10.5529C10.9318 11.3204 10.3944 12.163 9.96243 13.065C9.80168 13.4007 9.46177 13.6154 9.08729 13.6154H2.93756C2.40233 13.6154 1.96881 13.1859 1.96881 12.6539ZM3.90624 21.3076H8.34377C8.77201 21.3076 9.14952 21.5868 9.27159 21.9943C10.006 24.4447 11.4774 26.5804 13.4309 28.1479C13.7844 28.4316 13.578 28.9999 13.1234 28.9999H3.90624C2.30115 28.9999 1 27.7084 1 26.1153V24.1922C1 22.5991 2.30115 21.3076 3.90624 21.3076Z" fill="black" fill-opacity="0.2"/>
<path fill-rule="evenodd" clip-rule="evenodd" d="M22.43 4.84495C21.9044 4.32272 21.1779 4 20.375 4H6.81255C5.20746 4 3.90631 5.29146 3.90631 6.88461C3.90631 7.41664 4.33983 7.84614 4.87506 7.84614H13.5896C14.2206 7.84614 14.8438 7.69656 15.3998 7.40047C17.4327 6.31784 19.6887 5.83124 21.9479 5.93725C22.5239 5.96424 22.8589 5.27067 22.43 4.84495ZM21.3437 7.84619C15.4678 7.84619 10.6875 12.5909 10.6875 18.4231C10.6875 24.2552 15.4678 29 21.3437 29C27.2196 29 31.9999 24.2552 31.9999 18.4231C31.9999 12.5909 27.2196 7.84619 21.3437 7.84619ZM20.375 16.0192C20.91 16.0192 21.3437 16.4498 21.3437 16.9808C21.3437 17.5118 20.91 17.9423 20.375 17.9423H18.4609C18.4305 18.2646 18.4289 18.5648 18.4609 18.9038H20.375C20.91 18.9038 21.3437 19.3344 21.3437 19.8654C21.3437 20.3964 20.91 20.8269 20.375 20.8269H19.0828C19.7015 21.8344 20.5602 22.2692 21.3437 22.2692C22.2815 22.2692 22.9982 21.4642 23.4344 20.7888C23.7231 20.3418 24.3223 20.2116 24.7727 20.4982C25.2231 20.7848 25.3542 21.3795 25.0655 21.8266C22.5641 25.7002 18.3134 24.4223 16.936 20.8269H16.5C15.965 20.8269 15.5312 20.3964 15.5312 19.8654C15.5312 19.3344 15.965 18.9038 16.5 18.9038C16.502 18.9038 16.5038 18.9039 16.5054 18.904C16.5061 18.9041 16.5068 18.9042 16.5075 18.9042L16.5075 18.9042C16.5113 18.9045 16.5139 18.9047 16.5156 18.9035C16.5192 18.901 16.5184 18.8922 16.5158 18.8641C16.511 18.8117 16.5 18.6925 16.5 18.4231C16.5 18.1538 16.5109 18.0346 16.5157 17.9822C16.5183 17.954 16.5191 17.9451 16.5155 17.9426C16.5138 17.9415 16.5113 17.9417 16.5075 17.942C16.5054 17.9421 16.5029 17.9423 16.5 17.9423C15.965 17.9423 15.5312 17.5118 15.5312 16.9808C15.5312 16.4498 15.965 16.0192 16.5 16.0192H16.936C18.3137 12.4232 22.5624 11.1434 25.0655 15.0196C25.3543 15.4667 25.2232 16.0614 24.7727 16.348C24.3224 16.6346 23.7231 16.5045 23.4344 16.0573C22.9982 15.382 22.2815 14.5769 21.3437 14.5769C20.5608 14.5769 19.7018 15.0112 19.0828 16.0192H20.375ZM8.96541 16.1105C9.02142 15.8136 8.79443 15.5386 8.49006 15.5386H6.81255C5.20746 15.5386 3.90631 16.83 3.90631 18.4232C3.90631 18.9552 4.33983 19.3847 4.87506 19.3847H7.79825C8.30896 19.3847 8.75005 18.9794 8.75005 18.4232C8.75005 17.633 8.8241 16.86 8.96541 16.1105ZM1.96881 12.6539C1.96881 11.0607 3.26996 9.76929 4.87505 9.76929H11.1835C11.5913 9.76929 11.8159 10.2385 11.559 10.5529C10.9318 11.3204 10.3944 12.163 9.96243 13.065C9.80168 13.4007 9.46177 13.6154 9.08729 13.6154H2.93756C2.40233 13.6154 1.96881 13.1859 1.96881 12.6539ZM3.90624 21.3076H8.34377C8.77201 21.3076 9.14952 21.5868 9.27159 21.9943C10.006 24.4447 11.4774 26.5804 13.4309 28.1479C13.7844 28.4316 13.578 28.9999 13.1234 28.9999H3.90624C2.30115 28.9999 1 27.7084 1 26.1153V24.1922C1 22.5991 2.30115 21.3076 3.90624 21.3076Z" fill="black" fill-opacity="0.2"/>
<path fill-rule="evenodd" clip-rule="evenodd" d="M22.43 4.84495C21.9044 4.32272 21.1779 4 20.375 4H6.81255C5.20746 4 3.90631 5.29146 3.90631 6.88461C3.90631 7.41664 4.33983 7.84614 4.87506 7.84614H13.5896C14.2206 7.84614 14.8438 7.69656 15.3998 7.40047C17.4327 6.31784 19.6887 5.83124 21.9479 5.93725C22.5239 5.96424 22.8589 5.27067 22.43 4.84495ZM21.3437 7.84619C15.4678 7.84619 10.6875 12.5909 10.6875 18.4231C10.6875 24.2552 15.4678 29 21.3437 29C27.2196 29 31.9999 24.2552 31.9999 18.4231C31.9999 12.5909 27.2196 7.84619 21.3437 7.84619ZM20.375 16.0192C20.91 16.0192 21.3437 16.4498 21.3437 16.9808C21.3437 17.5118 20.91 17.9423 20.375 17.9423H18.4609C18.4305 18.2646 18.4289 18.5648 18.4609 18.9038H20.375C20.91 18.9038 21.3437 19.3344 21.3437 19.8654C21.3437 20.3964 20.91 20.8269 20.375 20.8269H19.0828C19.7015 21.8344 20.5602 22.2692 21.3437 22.2692C22.2815 22.2692 22.9982 21.4642 23.4344 20.7888C23.7231 20.3418 24.3223 20.2116 24.7727 20.4982C25.2231 20.7848 25.3542 21.3795 25.0655 21.8266C22.5641 25.7002 18.3134 24.4223 16.936 20.8269H16.5C15.965 20.8269 15.5312 20.3964 15.5312 19.8654C15.5312 19.3344 15.965 18.9038 16.5 18.9038C16.502 18.9038 16.5038 18.9039 16.5054 18.904C16.5061 18.9041 16.5068 18.9042 16.5075 18.9042L16.5075 18.9042C16.5113 18.9045 16.5139 18.9047 16.5156 18.9035C16.5192 18.901 16.5184 18.8922 16.5158 18.8641C16.511 18.8117 16.5 18.6925 16.5 18.4231C16.5 18.1538 16.5109 18.0346 16.5157 17.9822C16.5183 17.954 16.5191 17.9451 16.5155 17.9426C16.5138 17.9415 16.5113 17.9417 16.5075 17.942C16.5054 17.9421 16.5029 17.9423 16.5 17.9423C15.965 17.9423 15.5312 17.5118 15.5312 16.9808C15.5312 16.4498 15.965 16.0192 16.5 16.0192H16.936C18.3137 12.4232 22.5624 11.1434 25.0655 15.0196C25.3543 15.4667 25.2232 16.0614 24.7727 16.348C24.3224 16.6346 23.7231 16.5045 23.4344 16.0573C22.9982 15.382 22.2815 14.5769 21.3437 14.5769C20.5608 14.5769 19.7018 15.0112 19.0828 16.0192H20.375ZM8.96541 16.1105C9.02142 15.8136 8.79443 15.5386 8.49006 15.5386H6.81255C5.20746 15.5386 3.90631 16.83 3.90631 18.4232C3.90631 18.9552 4.33983 19.3847 4.87506 19.3847H7.79825C8.30896 19.3847 8.75005 18.9794 8.75005 18.4232C8.75005 17.633 8.8241 16.86 8.96541 16.1105ZM1.96881 12.6539C1.96881 11.0607 3.26996 9.76929 4.87505 9.76929H11.1835C11.5913 9.76929 11.8159 10.2385 11.559 10.5529C10.9318 11.3204 10.3944 12.163 9.96243 13.065C9.80168 13.4007 9.46177 13.6154 9.08729 13.6154H2.93756C2.40233 13.6154 1.96881 13.1859 1.96881 12.6539ZM3.90624 21.3076H8.34377C8.77201 21.3076 9.14952 21.5868 9.27159 21.9943C10.006 24.4447 11.4774 26.5804 13.4309 28.1479C13.7844 28.4316 13.578 28.9999 13.1234 28.9999H3.90624C2.30115 28.9999 1 27.7084 1 26.1153V24.1922C1 22.5991 2.30115 21.3076 3.90624 21.3076Z" fill="black" fill-opacity="0.2"/>
<path fill-rule="evenodd" clip-rule="evenodd" d="M22.43 4.84495C21.9044 4.32272 21.1779 4 20.375 4H6.81255C5.20746 4 3.90631 5.29146 3.90631 6.88461C3.90631 7.41664 4.33983 7.84614 4.87506 7.84614H13.5896C14.2206 7.84614 14.8438 7.69656 15.3998 7.40047C17.4327 6.31784 19.6887 5.83124 21.9479 5.93725C22.5239 5.96424 22.8589 5.27067 22.43 4.84495ZM21.3437 7.84619C15.4678 7.84619 10.6875 12.5909 10.6875 18.4231C10.6875 24.2552 15.4678 29 21.3437 29C27.2196 29 31.9999 24.2552 31.9999 18.4231C31.9999 12.5909 27.2196 7.84619 21.3437 7.84619ZM20.375 16.0192C20.91 16.0192 21.3437 16.4498 21.3437 16.9808C21.3437 17.5118 20.91 17.9423 20.375 17.9423H18.4609C18.4305 18.2646 18.4289 18.5648 18.4609 18.9038H20.375C20.91 18.9038 21.3437 19.3344 21.3437 19.8654C21.3437 20.3964 20.91 20.8269 20.375 20.8269H19.0828C19.7015 21.8344 20.5602 22.2692 21.3437 22.2692C22.2815 22.2692 22.9982 21.4642 23.4344 20.7888C23.7231 20.3418 24.3223 20.2116 24.7727 20.4982C25.2231 20.7848 25.3542 21.3795 25.0655 21.8266C22.5641 25.7002 18.3134 24.4223 16.936 20.8269H16.5C15.965 20.8269 15.5312 20.3964 15.5312 19.8654C15.5312 19.3344 15.965 18.9038 16.5 18.9038C16.502 18.9038 16.5038 18.9039 16.5054 18.904C16.5061 18.9041 16.5068 18.9042 16.5075 18.9042L16.5075 18.9042C16.5113 18.9045 16.5139 18.9047 16.5156 18.9035C16.5192 18.901 16.5184 18.8922 16.5158 18.8641C16.511 18.8117 16.5 18.6925 16.5 18.4231C16.5 18.1538 16.5109 18.0346 16.5157 17.9822C16.5183 17.954 16.5191 17.9451 16.5155 17.9426C16.5138 17.9415 16.5113 17.9417 16.5075 17.942C16.5054 17.9421 16.5029 17.9423 16.5 17.9423C15.965 17.9423 15.5312 17.5118 15.5312 16.9808C15.5312 16.4498 15.965 16.0192 16.5 16.0192H16.936C18.3137 12.4232 22.5624 11.1434 25.0655 15.0196C25.3543 15.4667 25.2232 16.0614 24.7727 16.348C24.3224 16.6346 23.7231 16.5045 23.4344 16.0573C22.9982 15.382 22.2815 14.5769 21.3437 14.5769C20.5608 14.5769 19.7018 15.0112 19.0828 16.0192H20.375ZM8.96541 16.1105C9.02142 15.8136 8.79443 15.5386 8.49006 15.5386H6.81255C5.20746 15.5386 3.90631 16.83 3.90631 18.4232C3.90631 18.9552 4.33983 19.3847 4.87506 19.3847H7.79825C8.30896 19.3847 8.75005 18.9794 8.75005 18.4232C8.75005 17.633 8.8241 16.86 8.96541 16.1105ZM1.96881 12.6539C1.96881 11.0607 3.26996 9.76929 4.87505 9.76929H11.1835C11.5913 9.76929 11.8159 10.2385 11.559 10.5529C10.9318 11.3204 10.3944 12.163 9.96243 13.065C9.80168 13.4007 9.46177 13.6154 9.08729 13.6154H2.93756C2.40233 13.6154 1.96881 13.1859 1.96881 12.6539ZM3.90624 21.3076H8.34377C8.77201 21.3076 9.14952 21.5868 9.27159 21.9943C10.006 24.4447 11.4774 26.5804 13.4309 28.1479C13.7844 28.4316 13.578 28.9999 13.1234 28.9999H3.90624C2.30115 28.9999 1 27.7084 1 26.1153V24.1922C1 22.5991 2.30115 21.3076 3.90624 21.3076Z" fill="black" fill-opacity="0.2"/>
<path fill-rule="evenodd" clip-rule="evenodd" d="M22.43 4.84495C21.9044 4.32272 21.1779 4 20.375 4H6.81255C5.20746 4 3.90631 5.29146 3.90631 6.88461C3.90631 7.41664 4.33983 7.84614 4.87506 7.84614H13.5896C14.2206 7.84614 14.8438 7.69656 15.3998 7.40047C17.4327 6.31784 19.6887 5.83124 21.9479 5.93725C22.5239 5.96424 22.8589 5.27067 22.43 4.84495ZM21.3437 7.84619C15.4678 7.84619 10.6875 12.5909 10.6875 18.4231C10.6875 24.2552 15.4678 29 21.3437 29C27.2196 29 31.9999 24.2552 31.9999 18.4231C31.9999 12.5909 27.2196 7.84619 21.3437 7.84619ZM20.375 16.0192C20.91 16.0192 21.3437 16.4498 21.3437 16.9808C21.3437 17.5118 20.91 17.9423 20.375 17.9423H18.4609C18.4305 18.2646 18.4289 18.5648 18.4609 18.9038H20.375C20.91 18.9038 21.3437 19.3344 21.3437 19.8654C21.3437 20.3964 20.91 20.8269 20.375 20.8269H19.0828C19.7015 21.8344 20.5602 22.2692 21.3437 22.2692C22.2815 22.2692 22.9982 21.4642 23.4344 20.7888C23.7231 20.3418 24.3223 20.2116 24.7727 20.4982C25.2231 20.7848 25.3542 21.3795 25.0655 21.8266C22.5641 25.7002 18.3134 24.4223 16.936 20.8269H16.5C15.965 20.8269 15.5312 20.3964 15.5312 19.8654C15.5312 19.3344 15.965 18.9038 16.5 18.9038C16.502 18.9038 16.5038 18.9039 16.5054 18.904C16.5061 18.9041 16.5068 18.9042 16.5075 18.9042L16.5075 18.9042C16.5113 18.9045 16.5139 18.9047 16.5156 18.9035C16.5192 18.901 16.5184 18.8922 16.5158 18.8641C16.511 18.8117 16.5 18.6925 16.5 18.4231C16.5 18.1538 16.5109 18.0346 16.5157 17.9822C16.5183 17.954 16.5191 17.9451 16.5155 17.9426C16.5138 17.9415 16.5113 17.9417 16.5075 17.942C16.5054 17.9421 16.5029 17.9423 16.5 17.9423C15.965 17.9423 15.5312 17.5118 15.5312 16.9808C15.5312 16.4498 15.965 16.0192 16.5 16.0192H16.936C18.3137 12.4232 22.5624 11.1434 25.0655 15.0196C25.3543 15.4667 25.2232 16.0614 24.7727 16.348C24.3224 16.6346 23.7231 16.5045 23.4344 16.0573C22.9982 15.382 22.2815 14.5769 21.3437 14.5769C20.5608 14.5769 19.7018 15.0112 19.0828 16.0192H20.375ZM8.96541 16.1105C9.02142 15.8136 8.79443 15.5386 8.49006 15.5386H6.81255C5.20746 15.5386 3.90631 16.83 3.90631 18.4232C3.90631 18.9552 4.33983 19.3847 4.87506 19.3847H7.79825C8.30896 19.3847 8.75005 18.9794 8.75005 18.4232C8.75005 17.633 8.8241 16.86 8.96541 16.1105ZM1.96881 12.6539C1.96881 11.0607 3.26996 9.76929 4.87505 9.76929H11.1835C11.5913 9.76929 11.8159 10.2385 11.559 10.5529C10.9318 11.3204 10.3944 12.163 9.96243 13.065C9.80168 13.4007 9.46177 13.6154 9.08729 13.6154H2.93756C2.40233 13.6154 1.96881 13.1859 1.96881 12.6539ZM3.90624 21.3076H8.34377C8.77201 21.3076 9.14952 21.5868 9.27159 21.9943C10.006 24.4447 11.4774 26.5804 13.4309 28.1479C13.7844 28.4316 13.578 28.9999 13.1234 28.9999H3.90624C2.30115 28.9999 1 27.7084 1 26.1153V24.1922C1 22.5991 2.30115 21.3076 3.90624 21.3076Z" fill="black" fill-opacity="0.2"/>
<path fill-rule="evenodd" clip-rule="evenodd" d="M22.43 4.84495C21.9044 4.32272 21.1779 4 20.375 4H6.81255C5.20746 4 3.90631 5.29146 3.90631 6.88461C3.90631 7.41664 4.33983 7.84614 4.87506 7.84614H13.5896C14.2206 7.84614 14.8438 7.69656 15.3998 7.40047C17.4327 6.31784 19.6887 5.83124 21.9479 5.93725C22.5239 5.96424 22.8589 5.27067 22.43 4.84495ZM21.3437 7.84619C15.4678 7.84619 10.6875 12.5909 10.6875 18.4231C10.6875 24.2552 15.4678 29 21.3437 29C27.2196 29 31.9999 24.2552 31.9999 18.4231C31.9999 12.5909 27.2196 7.84619 21.3437 7.84619ZM20.375 16.0192C20.91 16.0192 21.3437 16.4498 21.3437 16.9808C21.3437 17.5118 20.91 17.9423 20.375 17.9423H18.4609C18.4305 18.2646 18.4289 18.5648 18.4609 18.9038H20.375C20.91 18.9038 21.3437 19.3344 21.3437 19.8654C21.3437 20.3964 20.91 20.8269 20.375 20.8269H19.0828C19.7015 21.8344 20.5602 22.2692 21.3437 22.2692C22.2815 22.2692 22.9982 21.4642 23.4344 20.7888C23.7231 20.3418 24.3223 20.2116 24.7727 20.4982C25.2231 20.7848 25.3542 21.3795 25.0655 21.8266C22.5641 25.7002 18.3134 24.4223 16.936 20.8269H16.5C15.965 20.8269 15.5312 20.3964 15.5312 19.8654C15.5312 19.3344 15.965 18.9038 16.5 18.9038C16.502 18.9038 16.5038 18.9039 16.5054 18.904C16.5061 18.9041 16.5068 18.9042 16.5075 18.9042L16.5075 18.9042C16.5113 18.9045 16.5139 18.9047 16.5156 18.9035C16.5192 18.901 16.5184 18.8922 16.5158 18.8641C16.511 18.8117 16.5 18.6925 16.5 18.4231C16.5 18.1538 16.5109 18.0346 16.5157 17.9822C16.5183 17.954 16.5191 17.9451 16.5155 17.9426C16.5138 17.9415 16.5113 17.9417 16.5075 17.942C16.5054 17.9421 16.5029 17.9423 16.5 17.9423C15.965 17.9423 15.5312 17.5118 15.5312 16.9808C15.5312 16.4498 15.965 16.0192 16.5 16.0192H16.936C18.3137 12.4232 22.5624 11.1434 25.0655 15.0196C25.3543 15.4667 25.2232 16.0614 24.7727 16.348C24.3224 16.6346 23.7231 16.5045 23.4344 16.0573C22.9982 15.382 22.2815 14.5769 21.3437 14.5769C20.5608 14.5769 19.7018 15.0112 19.0828 16.0192H20.375ZM8.96541 16.1105C9.02142 15.8136 8.79443 15.5386 8.49006 15.5386H6.81255C5.20746 15.5386 3.90631 16.83 3.90631 18.4232C3.90631 18.9552 4.33983 19.3847 4.87506 19.3847H7.79825C8.30896 19.3847 8.75005 18.9794 8.75005 18.4232C8.75005 17.633 8.8241 16.86 8.96541 16.1105ZM1.96881 12.6539C1.96881 11.0607 3.26996 9.76929 4.87505 9.76929H11.1835C11.5913 9.76929 11.8159 10.2385 11.559 10.5529C10.9318 11.3204 10.3944 12.163 9.96243 13.065C9.80168 13.4007 9.46177 13.6154 9.08729 13.6154H2.93756C2.40233 13.6154 1.96881 13.1859 1.96881 12.6539ZM3.90624 21.3076H8.34377C8.77201 21.3076 9.14952 21.5868 9.27159 21.9943C10.006 24.4447 11.4774 26.5804 13.4309 28.1479C13.7844 28.4316 13.578 28.9999 13.1234 28.9999H3.90624C2.30115 28.9999 1 27.7084 1 26.1153V24.1922C1 22.5991 2.30115 21.3076 3.90624 21.3076Z" fill="black" fill-opacity="0.2"/>
</svg>
