<svg width="32" height="32" viewBox="0 0 32 32" fill="none" xmlns="http://www.w3.org/2000/svg">
<path fill-rule="evenodd" clip-rule="evenodd" d="M8.91166 1C8.61805 1 8.34336 1.14678 8.18026 1.39141L4.92487 6.27344H13.3657V1H8.91166ZM20.3987 8.03125V14.3008C20.3987 14.6252 20.2202 14.923 19.9343 15.0759C19.652 15.2272 19.3043 15.2136 19.032 15.0321L16.8823 13.5996L14.7326 15.0321C14.463 15.2106 14.1154 15.2286 13.8303 15.0759C13.5445 14.9231 13.3659 14.6253 13.3659 14.3008V8.03125H4.51636V17.0263C5.37529 17.2014 6.14397 17.6274 6.74187 18.2246L7.02915 18.0249C8.37182 17.0928 9.94369 16.6002 11.5757 16.6002C13.4902 16.6002 15.3343 17.2928 16.7697 18.5511C16.8899 18.6524 17.0521 18.6953 17.1578 18.6953H20.4574C22.3607 18.6953 23.8853 20.1656 23.9703 22.0616L26.6359 18.9854C27.3295 18.2322 28.2678 17.8235 29.2483 17.8183V8.03125H20.3987ZM15.1238 1H18.6402V6.27344H15.1238V1ZM15.124 8.03125V12.6589L16.3946 11.8117C16.6899 11.6143 17.0745 11.6143 17.3698 11.8117L18.6404 12.6589V8.03125H15.124ZM24.8526 1C25.1462 1 25.421 1.14678 25.5841 1.39141L28.8394 6.27344H20.3986V1H24.8526ZM30.7426 20.4006C30.6372 20.2248 30.4966 20.0841 30.3383 19.9611C29.691 19.395 28.6004 19.4485 27.9648 20.1369L23.9737 24.7424C23.4309 25.3622 22.7908 25.7268 21.9167 25.7268H14.9777C14.4854 25.7268 14.0986 25.34 14.0986 24.8479C14.0986 24.3556 14.4854 23.969 14.9777 23.969H20.4574C21.4244 23.969 22.2156 23.178 22.2156 22.2112V22.1936C22.198 21.2268 21.4244 20.4533 20.4574 20.4533H17.1579C16.6306 20.4533 16.0657 20.2598 15.6107 19.8732C13.4657 17.9923 10.3361 17.8693 8.0329 19.469V30.2795C9.7735 30.7541 11.5668 31.0002 13.3777 31.0002H21.3365C23.2704 31.0002 25.099 30.0861 26.2594 28.5392L30.4791 22.9142C31.0946 22.1062 31.1411 20.9983 30.7426 20.4006ZM1.87909 18.6953H3.63727C5.09159 18.6953 6.27455 19.8781 6.27455 21.332V28.3633C6.27455 29.8172 5.09153 31 3.63727 31H1.87909C1.39319 31 1 30.6069 1 30.1211V19.5742C1 19.0884 1.39319 18.6953 1.87909 18.6953Z" fill="black"/>
<path fill-rule="evenodd" clip-rule="evenodd" d="M8.91166 1C8.61805 1 8.34336 1.14678 8.18026 1.39141L4.92487 6.27344H13.3657V1H8.91166ZM20.3987 8.03125V14.3008C20.3987 14.6252 20.2202 14.923 19.9343 15.0759C19.652 15.2272 19.3043 15.2136 19.032 15.0321L16.8823 13.5996L14.7326 15.0321C14.463 15.2106 14.1154 15.2286 13.8303 15.0759C13.5445 14.9231 13.3659 14.6253 13.3659 14.3008V8.03125H4.51636V17.0263C5.37529 17.2014 6.14397 17.6274 6.74187 18.2246L7.02915 18.0249C8.37182 17.0928 9.94369 16.6002 11.5757 16.6002C13.4902 16.6002 15.3343 17.2928 16.7697 18.5511C16.8899 18.6524 17.0521 18.6953 17.1578 18.6953H20.4574C22.3607 18.6953 23.8853 20.1656 23.9703 22.0616L26.6359 18.9854C27.3295 18.2322 28.2678 17.8235 29.2483 17.8183V8.03125H20.3987ZM15.1238 1H18.6402V6.27344H15.1238V1ZM15.124 8.03125V12.6589L16.3946 11.8117C16.6899 11.6143 17.0745 11.6143 17.3698 11.8117L18.6404 12.6589V8.03125H15.124ZM24.8526 1C25.1462 1 25.421 1.14678 25.5841 1.39141L28.8394 6.27344H20.3986V1H24.8526ZM30.7426 20.4006C30.6372 20.2248 30.4966 20.0841 30.3383 19.9611C29.691 19.395 28.6004 19.4485 27.9648 20.1369L23.9737 24.7424C23.4309 25.3622 22.7908 25.7268 21.9167 25.7268H14.9777C14.4854 25.7268 14.0986 25.34 14.0986 24.8479C14.0986 24.3556 14.4854 23.969 14.9777 23.969H20.4574C21.4244 23.969 22.2156 23.178 22.2156 22.2112V22.1936C22.198 21.2268 21.4244 20.4533 20.4574 20.4533H17.1579C16.6306 20.4533 16.0657 20.2598 15.6107 19.8732C13.4657 17.9923 10.3361 17.8693 8.0329 19.469V30.2795C9.7735 30.7541 11.5668 31.0002 13.3777 31.0002H21.3365C23.2704 31.0002 25.099 30.0861 26.2594 28.5392L30.4791 22.9142C31.0946 22.1062 31.1411 20.9983 30.7426 20.4006ZM1.87909 18.6953H3.63727C5.09159 18.6953 6.27455 19.8781 6.27455 21.332V28.3633C6.27455 29.8172 5.09153 31 3.63727 31H1.87909C1.39319 31 1 30.6069 1 30.1211V19.5742C1 19.0884 1.39319 18.6953 1.87909 18.6953Z" fill="black" fill-opacity="0.2"/>
<path fill-rule="evenodd" clip-rule="evenodd" d="M8.91166 1C8.61805 1 8.34336 1.14678 8.18026 1.39141L4.92487 6.27344H13.3657V1H8.91166ZM20.3987 8.03125V14.3008C20.3987 14.6252 20.2202 14.923 19.9343 15.0759C19.652 15.2272 19.3043 15.2136 19.032 15.0321L16.8823 13.5996L14.7326 15.0321C14.463 15.2106 14.1154 15.2286 13.8303 15.0759C13.5445 14.9231 13.3659 14.6253 13.3659 14.3008V8.03125H4.51636V17.0263C5.37529 17.2014 6.14397 17.6274 6.74187 18.2246L7.02915 18.0249C8.37182 17.0928 9.94369 16.6002 11.5757 16.6002C13.4902 16.6002 15.3343 17.2928 16.7697 18.5511C16.8899 18.6524 17.0521 18.6953 17.1578 18.6953H20.4574C22.3607 18.6953 23.8853 20.1656 23.9703 22.0616L26.6359 18.9854C27.3295 18.2322 28.2678 17.8235 29.2483 17.8183V8.03125H20.3987ZM15.1238 1H18.6402V6.27344H15.1238V1ZM15.124 8.03125V12.6589L16.3946 11.8117C16.6899 11.6143 17.0745 11.6143 17.3698 11.8117L18.6404 12.6589V8.03125H15.124ZM24.8526 1C25.1462 1 25.421 1.14678 25.5841 1.39141L28.8394 6.27344H20.3986V1H24.8526ZM30.7426 20.4006C30.6372 20.2248 30.4966 20.0841 30.3383 19.9611C29.691 19.395 28.6004 19.4485 27.9648 20.1369L23.9737 24.7424C23.4309 25.3622 22.7908 25.7268 21.9167 25.7268H14.9777C14.4854 25.7268 14.0986 25.34 14.0986 24.8479C14.0986 24.3556 14.4854 23.969 14.9777 23.969H20.4574C21.4244 23.969 22.2156 23.178 22.2156 22.2112V22.1936C22.198 21.2268 21.4244 20.4533 20.4574 20.4533H17.1579C16.6306 20.4533 16.0657 20.2598 15.6107 19.8732C13.4657 17.9923 10.3361 17.8693 8.0329 19.469V30.2795C9.7735 30.7541 11.5668 31.0002 13.3777 31.0002H21.3365C23.2704 31.0002 25.099 30.0861 26.2594 28.5392L30.4791 22.9142C31.0946 22.1062 31.1411 20.9983 30.7426 20.4006ZM1.87909 18.6953H3.63727C5.09159 18.6953 6.27455 19.8781 6.27455 21.332V28.3633C6.27455 29.8172 5.09153 31 3.63727 31H1.87909C1.39319 31 1 30.6069 1 30.1211V19.5742C1 19.0884 1.39319 18.6953 1.87909 18.6953Z" fill="black" fill-opacity="0.2"/>
<path fill-rule="evenodd" clip-rule="evenodd" d="M8.91166 1C8.61805 1 8.34336 1.14678 8.18026 1.39141L4.92487 6.27344H13.3657V1H8.91166ZM20.3987 8.03125V14.3008C20.3987 14.6252 20.2202 14.923 19.9343 15.0759C19.652 15.2272 19.3043 15.2136 19.032 15.0321L16.8823 13.5996L14.7326 15.0321C14.463 15.2106 14.1154 15.2286 13.8303 15.0759C13.5445 14.9231 13.3659 14.6253 13.3659 14.3008V8.03125H4.51636V17.0263C5.37529 17.2014 6.14397 17.6274 6.74187 18.2246L7.02915 18.0249C8.37182 17.0928 9.94369 16.6002 11.5757 16.6002C13.4902 16.6002 15.3343 17.2928 16.7697 18.5511C16.8899 18.6524 17.0521 18.6953 17.1578 18.6953H20.4574C22.3607 18.6953 23.8853 20.1656 23.9703 22.0616L26.6359 18.9854C27.3295 18.2322 28.2678 17.8235 29.2483 17.8183V8.03125H20.3987ZM15.1238 1H18.6402V6.27344H15.1238V1ZM15.124 8.03125V12.6589L16.3946 11.8117C16.6899 11.6143 17.0745 11.6143 17.3698 11.8117L18.6404 12.6589V8.03125H15.124ZM24.8526 1C25.1462 1 25.421 1.14678 25.5841 1.39141L28.8394 6.27344H20.3986V1H24.8526ZM30.7426 20.4006C30.6372 20.2248 30.4966 20.0841 30.3383 19.9611C29.691 19.395 28.6004 19.4485 27.9648 20.1369L23.9737 24.7424C23.4309 25.3622 22.7908 25.7268 21.9167 25.7268H14.9777C14.4854 25.7268 14.0986 25.34 14.0986 24.8479C14.0986 24.3556 14.4854 23.969 14.9777 23.969H20.4574C21.4244 23.969 22.2156 23.178 22.2156 22.2112V22.1936C22.198 21.2268 21.4244 20.4533 20.4574 20.4533H17.1579C16.6306 20.4533 16.0657 20.2598 15.6107 19.8732C13.4657 17.9923 10.3361 17.8693 8.0329 19.469V30.2795C9.7735 30.7541 11.5668 31.0002 13.3777 31.0002H21.3365C23.2704 31.0002 25.099 30.0861 26.2594 28.5392L30.4791 22.9142C31.0946 22.1062 31.1411 20.9983 30.7426 20.4006ZM1.87909 18.6953H3.63727C5.09159 18.6953 6.27455 19.8781 6.27455 21.332V28.3633C6.27455 29.8172 5.09153 31 3.63727 31H1.87909C1.39319 31 1 30.6069 1 30.1211V19.5742C1 19.0884 1.39319 18.6953 1.87909 18.6953Z" fill="black" fill-opacity="0.2"/>
<path fill-rule="evenodd" clip-rule="evenodd" d="M8.91166 1C8.61805 1 8.34336 1.14678 8.18026 1.39141L4.92487 6.27344H13.3657V1H8.91166ZM20.3987 8.03125V14.3008C20.3987 14.6252 20.2202 14.923 19.9343 15.0759C19.652 15.2272 19.3043 15.2136 19.032 15.0321L16.8823 13.5996L14.7326 15.0321C14.463 15.2106 14.1154 15.2286 13.8303 15.0759C13.5445 14.9231 13.3659 14.6253 13.3659 14.3008V8.03125H4.51636V17.0263C5.37529 17.2014 6.14397 17.6274 6.74187 18.2246L7.02915 18.0249C8.37182 17.0928 9.94369 16.6002 11.5757 16.6002C13.4902 16.6002 15.3343 17.2928 16.7697 18.5511C16.8899 18.6524 17.0521 18.6953 17.1578 18.6953H20.4574C22.3607 18.6953 23.8853 20.1656 23.9703 22.0616L26.6359 18.9854C27.3295 18.2322 28.2678 17.8235 29.2483 17.8183V8.03125H20.3987ZM15.1238 1H18.6402V6.27344H15.1238V1ZM15.124 8.03125V12.6589L16.3946 11.8117C16.6899 11.6143 17.0745 11.6143 17.3698 11.8117L18.6404 12.6589V8.03125H15.124ZM24.8526 1C25.1462 1 25.421 1.14678 25.5841 1.39141L28.8394 6.27344H20.3986V1H24.8526ZM30.7426 20.4006C30.6372 20.2248 30.4966 20.0841 30.3383 19.9611C29.691 19.395 28.6004 19.4485 27.9648 20.1369L23.9737 24.7424C23.4309 25.3622 22.7908 25.7268 21.9167 25.7268H14.9777C14.4854 25.7268 14.0986 25.34 14.0986 24.8479C14.0986 24.3556 14.4854 23.969 14.9777 23.969H20.4574C21.4244 23.969 22.2156 23.178 22.2156 22.2112V22.1936C22.198 21.2268 21.4244 20.4533 20.4574 20.4533H17.1579C16.6306 20.4533 16.0657 20.2598 15.6107 19.8732C13.4657 17.9923 10.3361 17.8693 8.0329 19.469V30.2795C9.7735 30.7541 11.5668 31.0002 13.3777 31.0002H21.3365C23.2704 31.0002 25.099 30.0861 26.2594 28.5392L30.4791 22.9142C31.0946 22.1062 31.1411 20.9983 30.7426 20.4006ZM1.87909 18.6953H3.63727C5.09159 18.6953 6.27455 19.8781 6.27455 21.332V28.3633C6.27455 29.8172 5.09153 31 3.63727 31H1.87909C1.39319 31 1 30.6069 1 30.1211V19.5742C1 19.0884 1.39319 18.6953 1.87909 18.6953Z" fill="black" fill-opacity="0.2"/>
<path fill-rule="evenodd" clip-rule="evenodd" d="M8.91166 1C8.61805 1 8.34336 1.14678 8.18026 1.39141L4.92487 6.27344H13.3657V1H8.91166ZM20.3987 8.03125V14.3008C20.3987 14.6252 20.2202 14.923 19.9343 15.0759C19.652 15.2272 19.3043 15.2136 19.032 15.0321L16.8823 13.5996L14.7326 15.0321C14.463 15.2106 14.1154 15.2286 13.8303 15.0759C13.5445 14.9231 13.3659 14.6253 13.3659 14.3008V8.03125H4.51636V17.0263C5.37529 17.2014 6.14397 17.6274 6.74187 18.2246L7.02915 18.0249C8.37182 17.0928 9.94369 16.6002 11.5757 16.6002C13.4902 16.6002 15.3343 17.2928 16.7697 18.5511C16.8899 18.6524 17.0521 18.6953 17.1578 18.6953H20.4574C22.3607 18.6953 23.8853 20.1656 23.9703 22.0616L26.6359 18.9854C27.3295 18.2322 28.2678 17.8235 29.2483 17.8183V8.03125H20.3987ZM15.1238 1H18.6402V6.27344H15.1238V1ZM15.124 8.03125V12.6589L16.3946 11.8117C16.6899 11.6143 17.0745 11.6143 17.3698 11.8117L18.6404 12.6589V8.03125H15.124ZM24.8526 1C25.1462 1 25.421 1.14678 25.5841 1.39141L28.8394 6.27344H20.3986V1H24.8526ZM30.7426 20.4006C30.6372 20.2248 30.4966 20.0841 30.3383 19.9611C29.691 19.395 28.6004 19.4485 27.9648 20.1369L23.9737 24.7424C23.4309 25.3622 22.7908 25.7268 21.9167 25.7268H14.9777C14.4854 25.7268 14.0986 25.34 14.0986 24.8479C14.0986 24.3556 14.4854 23.969 14.9777 23.969H20.4574C21.4244 23.969 22.2156 23.178 22.2156 22.2112V22.1936C22.198 21.2268 21.4244 20.4533 20.4574 20.4533H17.1579C16.6306 20.4533 16.0657 20.2598 15.6107 19.8732C13.4657 17.9923 10.3361 17.8693 8.0329 19.469V30.2795C9.7735 30.7541 11.5668 31.0002 13.3777 31.0002H21.3365C23.2704 31.0002 25.099 30.0861 26.2594 28.5392L30.4791 22.9142C31.0946 22.1062 31.1411 20.9983 30.7426 20.4006ZM1.87909 18.6953H3.63727C5.09159 18.6953 6.27455 19.8781 6.27455 21.332V28.3633C6.27455 29.8172 5.09153 31 3.63727 31H1.87909C1.39319 31 1 30.6069 1 30.1211V19.5742C1 19.0884 1.39319 18.6953 1.87909 18.6953Z" fill="black" fill-opacity="0.2"/>
<path fill-rule="evenodd" clip-rule="evenodd" d="M8.91166 1C8.61805 1 8.34336 1.14678 8.18026 1.39141L4.92487 6.27344H13.3657V1H8.91166ZM20.3987 8.03125V14.3008C20.3987 14.6252 20.2202 14.923 19.9343 15.0759C19.652 15.2272 19.3043 15.2136 19.032 15.0321L16.8823 13.5996L14.7326 15.0321C14.463 15.2106 14.1154 15.2286 13.8303 15.0759C13.5445 14.9231 13.3659 14.6253 13.3659 14.3008V8.03125H4.51636V17.0263C5.37529 17.2014 6.14397 17.6274 6.74187 18.2246L7.02915 18.0249C8.37182 17.0928 9.94369 16.6002 11.5757 16.6002C13.4902 16.6002 15.3343 17.2928 16.7697 18.5511C16.8899 18.6524 17.0521 18.6953 17.1578 18.6953H20.4574C22.3607 18.6953 23.8853 20.1656 23.9703 22.0616L26.6359 18.9854C27.3295 18.2322 28.2678 17.8235 29.2483 17.8183V8.03125H20.3987ZM15.1238 1H18.6402V6.27344H15.1238V1ZM15.124 8.03125V12.6589L16.3946 11.8117C16.6899 11.6143 17.0745 11.6143 17.3698 11.8117L18.6404 12.6589V8.03125H15.124ZM24.8526 1C25.1462 1 25.421 1.14678 25.5841 1.39141L28.8394 6.27344H20.3986V1H24.8526ZM30.7426 20.4006C30.6372 20.2248 30.4966 20.0841 30.3383 19.9611C29.691 19.395 28.6004 19.4485 27.9648 20.1369L23.9737 24.7424C23.4309 25.3622 22.7908 25.7268 21.9167 25.7268H14.9777C14.4854 25.7268 14.0986 25.34 14.0986 24.8479C14.0986 24.3556 14.4854 23.969 14.9777 23.969H20.4574C21.4244 23.969 22.2156 23.178 22.2156 22.2112V22.1936C22.198 21.2268 21.4244 20.4533 20.4574 20.4533H17.1579C16.6306 20.4533 16.0657 20.2598 15.6107 19.8732C13.4657 17.9923 10.3361 17.8693 8.0329 19.469V30.2795C9.7735 30.7541 11.5668 31.0002 13.3777 31.0002H21.3365C23.2704 31.0002 25.099 30.0861 26.2594 28.5392L30.4791 22.9142C31.0946 22.1062 31.1411 20.9983 30.7426 20.4006ZM1.87909 18.6953H3.63727C5.09159 18.6953 6.27455 19.8781 6.27455 21.332V28.3633C6.27455 29.8172 5.09153 31 3.63727 31H1.87909C1.39319 31 1 30.6069 1 30.1211V19.5742C1 19.0884 1.39319 18.6953 1.87909 18.6953Z" fill="black" fill-opacity="0.2"/>
<path fill-rule="evenodd" clip-rule="evenodd" d="M8.91166 1C8.61805 1 8.34336 1.14678 8.18026 1.39141L4.92487 6.27344H13.3657V1H8.91166ZM20.3987 8.03125V14.3008C20.3987 14.6252 20.2202 14.923 19.9343 15.0759C19.652 15.2272 19.3043 15.2136 19.032 15.0321L16.8823 13.5996L14.7326 15.0321C14.463 15.2106 14.1154 15.2286 13.8303 15.0759C13.5445 14.9231 13.3659 14.6253 13.3659 14.3008V8.03125H4.51636V17.0263C5.37529 17.2014 6.14397 17.6274 6.74187 18.2246L7.02915 18.0249C8.37182 17.0928 9.94369 16.6002 11.5757 16.6002C13.4902 16.6002 15.3343 17.2928 16.7697 18.5511C16.8899 18.6524 17.0521 18.6953 17.1578 18.6953H20.4574C22.3607 18.6953 23.8853 20.1656 23.9703 22.0616L26.6359 18.9854C27.3295 18.2322 28.2678 17.8235 29.2483 17.8183V8.03125H20.3987ZM15.1238 1H18.6402V6.27344H15.1238V1ZM15.124 8.03125V12.6589L16.3946 11.8117C16.6899 11.6143 17.0745 11.6143 17.3698 11.8117L18.6404 12.6589V8.03125H15.124ZM24.8526 1C25.1462 1 25.421 1.14678 25.5841 1.39141L28.8394 6.27344H20.3986V1H24.8526ZM30.7426 20.4006C30.6372 20.2248 30.4966 20.0841 30.3383 19.9611C29.691 19.395 28.6004 19.4485 27.9648 20.1369L23.9737 24.7424C23.4309 25.3622 22.7908 25.7268 21.9167 25.7268H14.9777C14.4854 25.7268 14.0986 25.34 14.0986 24.8479C14.0986 24.3556 14.4854 23.969 14.9777 23.969H20.4574C21.4244 23.969 22.2156 23.178 22.2156 22.2112V22.1936C22.198 21.2268 21.4244 20.4533 20.4574 20.4533H17.1579C16.6306 20.4533 16.0657 20.2598 15.6107 19.8732C13.4657 17.9923 10.3361 17.8693 8.0329 19.469V30.2795C9.7735 30.7541 11.5668 31.0002 13.3777 31.0002H21.3365C23.2704 31.0002 25.099 30.0861 26.2594 28.5392L30.4791 22.9142C31.0946 22.1062 31.1411 20.9983 30.7426 20.4006ZM1.87909 18.6953H3.63727C5.09159 18.6953 6.27455 19.8781 6.27455 21.332V28.3633C6.27455 29.8172 5.09153 31 3.63727 31H1.87909C1.39319 31 1 30.6069 1 30.1211V19.5742C1 19.0884 1.39319 18.6953 1.87909 18.6953Z" fill="black" fill-opacity="0.2"/>
<path fill-rule="evenodd" clip-rule="evenodd" d="M8.91166 1C8.61805 1 8.34336 1.14678 8.18026 1.39141L4.92487 6.27344H13.3657V1H8.91166ZM20.3987 8.03125V14.3008C20.3987 14.6252 20.2202 14.923 19.9343 15.0759C19.652 15.2272 19.3043 15.2136 19.032 15.0321L16.8823 13.5996L14.7326 15.0321C14.463 15.2106 14.1154 15.2286 13.8303 15.0759C13.5445 14.9231 13.3659 14.6253 13.3659 14.3008V8.03125H4.51636V17.0263C5.37529 17.2014 6.14397 17.6274 6.74187 18.2246L7.02915 18.0249C8.37182 17.0928 9.94369 16.6002 11.5757 16.6002C13.4902 16.6002 15.3343 17.2928 16.7697 18.5511C16.8899 18.6524 17.0521 18.6953 17.1578 18.6953H20.4574C22.3607 18.6953 23.8853 20.1656 23.9703 22.0616L26.6359 18.9854C27.3295 18.2322 28.2678 17.8235 29.2483 17.8183V8.03125H20.3987ZM15.1238 1H18.6402V6.27344H15.1238V1ZM15.124 8.03125V12.6589L16.3946 11.8117C16.6899 11.6143 17.0745 11.6143 17.3698 11.8117L18.6404 12.6589V8.03125H15.124ZM24.8526 1C25.1462 1 25.421 1.14678 25.5841 1.39141L28.8394 6.27344H20.3986V1H24.8526ZM30.7426 20.4006C30.6372 20.2248 30.4966 20.0841 30.3383 19.9611C29.691 19.395 28.6004 19.4485 27.9648 20.1369L23.9737 24.7424C23.4309 25.3622 22.7908 25.7268 21.9167 25.7268H14.9777C14.4854 25.7268 14.0986 25.34 14.0986 24.8479C14.0986 24.3556 14.4854 23.969 14.9777 23.969H20.4574C21.4244 23.969 22.2156 23.178 22.2156 22.2112V22.1936C22.198 21.2268 21.4244 20.4533 20.4574 20.4533H17.1579C16.6306 20.4533 16.0657 20.2598 15.6107 19.8732C13.4657 17.9923 10.3361 17.8693 8.0329 19.469V30.2795C9.7735 30.7541 11.5668 31.0002 13.3777 31.0002H21.3365C23.2704 31.0002 25.099 30.0861 26.2594 28.5392L30.4791 22.9142C31.0946 22.1062 31.1411 20.9983 30.7426 20.4006ZM1.87909 18.6953H3.63727C5.09159 18.6953 6.27455 19.8781 6.27455 21.332V28.3633C6.27455 29.8172 5.09153 31 3.63727 31H1.87909C1.39319 31 1 30.6069 1 30.1211V19.5742C1 19.0884 1.39319 18.6953 1.87909 18.6953Z" fill="black" fill-opacity="0.2"/>
<path fill-rule="evenodd" clip-rule="evenodd" d="M8.91166 1C8.61805 1 8.34336 1.14678 8.18026 1.39141L4.92487 6.27344H13.3657V1H8.91166ZM20.3987 8.03125V14.3008C20.3987 14.6252 20.2202 14.923 19.9343 15.0759C19.652 15.2272 19.3043 15.2136 19.032 15.0321L16.8823 13.5996L14.7326 15.0321C14.463 15.2106 14.1154 15.2286 13.8303 15.0759C13.5445 14.9231 13.3659 14.6253 13.3659 14.3008V8.03125H4.51636V17.0263C5.37529 17.2014 6.14397 17.6274 6.74187 18.2246L7.02915 18.0249C8.37182 17.0928 9.94369 16.6002 11.5757 16.6002C13.4902 16.6002 15.3343 17.2928 16.7697 18.5511C16.8899 18.6524 17.0521 18.6953 17.1578 18.6953H20.4574C22.3607 18.6953 23.8853 20.1656 23.9703 22.0616L26.6359 18.9854C27.3295 18.2322 28.2678 17.8235 29.2483 17.8183V8.03125H20.3987ZM15.1238 1H18.6402V6.27344H15.1238V1ZM15.124 8.03125V12.6589L16.3946 11.8117C16.6899 11.6143 17.0745 11.6143 17.3698 11.8117L18.6404 12.6589V8.03125H15.124ZM24.8526 1C25.1462 1 25.421 1.14678 25.5841 1.39141L28.8394 6.27344H20.3986V1H24.8526ZM30.7426 20.4006C30.6372 20.2248 30.4966 20.0841 30.3383 19.9611C29.691 19.395 28.6004 19.4485 27.9648 20.1369L23.9737 24.7424C23.4309 25.3622 22.7908 25.7268 21.9167 25.7268H14.9777C14.4854 25.7268 14.0986 25.34 14.0986 24.8479C14.0986 24.3556 14.4854 23.969 14.9777 23.969H20.4574C21.4244 23.969 22.2156 23.178 22.2156 22.2112V22.1936C22.198 21.2268 21.4244 20.4533 20.4574 20.4533H17.1579C16.6306 20.4533 16.0657 20.2598 15.6107 19.8732C13.4657 17.9923 10.3361 17.8693 8.0329 19.469V30.2795C9.7735 30.7541 11.5668 31.0002 13.3777 31.0002H21.3365C23.2704 31.0002 25.099 30.0861 26.2594 28.5392L30.4791 22.9142C31.0946 22.1062 31.1411 20.9983 30.7426 20.4006ZM1.87909 18.6953H3.63727C5.09159 18.6953 6.27455 19.8781 6.27455 21.332V28.3633C6.27455 29.8172 5.09153 31 3.63727 31H1.87909C1.39319 31 1 30.6069 1 30.1211V19.5742C1 19.0884 1.39319 18.6953 1.87909 18.6953Z" fill="black" fill-opacity="0.2"/>
</svg>
