<svg width="24" height="24" viewBox="0 0 24 24" fill="none" xmlns="http://www.w3.org/2000/svg">
<g clip-path="url(#clip0_414_2643)">
<path fill-rule="evenodd" clip-rule="evenodd" d="M0 13.071V1.1718C0 0.86102 0.123457 0.562968 0.343212 0.343212C0.562968 0.123457 0.86102 0 1.1718 0H22.8282C23.139 0 23.437 0.123457 23.6568 0.343212C23.8766 0.562968 24 0.86102 24 1.1718V11.58L17.3454 9.08701L12.7704 12.1374L8.9202 9.8274L7.35 10.3974L6.837 8.988L9.0798 8.175L12.729 10.365L17.154 7.4154L22.5 9.42V1.5H1.5V10.929L2.6076 10.5264L3.12 11.9358L0 13.071ZM9.07979 11.9222L12.729 14.1122L17.154 11.1626L24 13.73V22.8278C24 23.1386 23.8765 23.4367 23.6568 23.6564C23.437 23.8762 23.139 23.9996 22.8282 23.9996H1.17179C0.861008 23.9996 0.562956 23.8762 0.343201 23.6564C0.123446 23.4367 -1.14441e-05 23.1386 -1.14441e-05 22.8278V15.2246L2.89979 14.1698L3.41219 15.5786L1.49999 16.2746V22.4996H22.5V14.7692L17.346 12.8366L12.771 15.887L8.92079 13.577L7.64219 14.042L7.12919 12.6326L9.07979 11.9222ZM5.42779 9.50082L4.01818 10.0137L4.53084 11.4227L5.94044 10.9099L5.42779 9.50082ZM4.3223 13.5838L5.7319 13.071L6.24455 14.48L4.83495 14.9929L4.3223 13.5838Z" fill="black"/>
<path fill-rule="evenodd" clip-rule="evenodd" d="M0 13.071V1.1718C0 0.86102 0.123457 0.562968 0.343212 0.343212C0.562968 0.123457 0.86102 0 1.1718 0H22.8282C23.139 0 23.437 0.123457 23.6568 0.343212C23.8766 0.562968 24 0.86102 24 1.1718V11.58L17.3454 9.08701L12.7704 12.1374L8.9202 9.8274L7.35 10.3974L6.837 8.988L9.0798 8.175L12.729 10.365L17.154 7.4154L22.5 9.42V1.5H1.5V10.929L2.6076 10.5264L3.12 11.9358L0 13.071ZM9.07979 11.9222L12.729 14.1122L17.154 11.1626L24 13.73V22.8278C24 23.1386 23.8765 23.4367 23.6568 23.6564C23.437 23.8762 23.139 23.9996 22.8282 23.9996H1.17179C0.861008 23.9996 0.562956 23.8762 0.343201 23.6564C0.123446 23.4367 -1.14441e-05 23.1386 -1.14441e-05 22.8278V15.2246L2.89979 14.1698L3.41219 15.5786L1.49999 16.2746V22.4996H22.5V14.7692L17.346 12.8366L12.771 15.887L8.92079 13.577L7.64219 14.042L7.12919 12.6326L9.07979 11.9222ZM5.42779 9.50082L4.01818 10.0137L4.53084 11.4227L5.94044 10.9099L5.42779 9.50082ZM4.3223 13.5838L5.7319 13.071L6.24455 14.48L4.83495 14.9929L4.3223 13.5838Z" fill="black" fill-opacity="0.2"/>
<path fill-rule="evenodd" clip-rule="evenodd" d="M0 13.071V1.1718C0 0.86102 0.123457 0.562968 0.343212 0.343212C0.562968 0.123457 0.86102 0 1.1718 0H22.8282C23.139 0 23.437 0.123457 23.6568 0.343212C23.8766 0.562968 24 0.86102 24 1.1718V11.58L17.3454 9.08701L12.7704 12.1374L8.9202 9.8274L7.35 10.3974L6.837 8.988L9.0798 8.175L12.729 10.365L17.154 7.4154L22.5 9.42V1.5H1.5V10.929L2.6076 10.5264L3.12 11.9358L0 13.071ZM9.07979 11.9222L12.729 14.1122L17.154 11.1626L24 13.73V22.8278C24 23.1386 23.8765 23.4367 23.6568 23.6564C23.437 23.8762 23.139 23.9996 22.8282 23.9996H1.17179C0.861008 23.9996 0.562956 23.8762 0.343201 23.6564C0.123446 23.4367 -1.14441e-05 23.1386 -1.14441e-05 22.8278V15.2246L2.89979 14.1698L3.41219 15.5786L1.49999 16.2746V22.4996H22.5V14.7692L17.346 12.8366L12.771 15.887L8.92079 13.577L7.64219 14.042L7.12919 12.6326L9.07979 11.9222ZM5.42779 9.50082L4.01818 10.0137L4.53084 11.4227L5.94044 10.9099L5.42779 9.50082ZM4.3223 13.5838L5.7319 13.071L6.24455 14.48L4.83495 14.9929L4.3223 13.5838Z" fill="black" fill-opacity="0.2"/>
<path fill-rule="evenodd" clip-rule="evenodd" d="M0 13.071V1.1718C0 0.86102 0.123457 0.562968 0.343212 0.343212C0.562968 0.123457 0.86102 0 1.1718 0H22.8282C23.139 0 23.437 0.123457 23.6568 0.343212C23.8766 0.562968 24 0.86102 24 1.1718V11.58L17.3454 9.08701L12.7704 12.1374L8.9202 9.8274L7.35 10.3974L6.837 8.988L9.0798 8.175L12.729 10.365L17.154 7.4154L22.5 9.42V1.5H1.5V10.929L2.6076 10.5264L3.12 11.9358L0 13.071ZM9.07979 11.9222L12.729 14.1122L17.154 11.1626L24 13.73V22.8278C24 23.1386 23.8765 23.4367 23.6568 23.6564C23.437 23.8762 23.139 23.9996 22.8282 23.9996H1.17179C0.861008 23.9996 0.562956 23.8762 0.343201 23.6564C0.123446 23.4367 -1.14441e-05 23.1386 -1.14441e-05 22.8278V15.2246L2.89979 14.1698L3.41219 15.5786L1.49999 16.2746V22.4996H22.5V14.7692L17.346 12.8366L12.771 15.887L8.92079 13.577L7.64219 14.042L7.12919 12.6326L9.07979 11.9222ZM5.42779 9.50082L4.01818 10.0137L4.53084 11.4227L5.94044 10.9099L5.42779 9.50082ZM4.3223 13.5838L5.7319 13.071L6.24455 14.48L4.83495 14.9929L4.3223 13.5838Z" fill="black" fill-opacity="0.2"/>
<path fill-rule="evenodd" clip-rule="evenodd" d="M0 13.071V1.1718C0 0.86102 0.123457 0.562968 0.343212 0.343212C0.562968 0.123457 0.86102 0 1.1718 0H22.8282C23.139 0 23.437 0.123457 23.6568 0.343212C23.8766 0.562968 24 0.86102 24 1.1718V11.58L17.3454 9.08701L12.7704 12.1374L8.9202 9.8274L7.35 10.3974L6.837 8.988L9.0798 8.175L12.729 10.365L17.154 7.4154L22.5 9.42V1.5H1.5V10.929L2.6076 10.5264L3.12 11.9358L0 13.071ZM9.07979 11.9222L12.729 14.1122L17.154 11.1626L24 13.73V22.8278C24 23.1386 23.8765 23.4367 23.6568 23.6564C23.437 23.8762 23.139 23.9996 22.8282 23.9996H1.17179C0.861008 23.9996 0.562956 23.8762 0.343201 23.6564C0.123446 23.4367 -1.14441e-05 23.1386 -1.14441e-05 22.8278V15.2246L2.89979 14.1698L3.41219 15.5786L1.49999 16.2746V22.4996H22.5V14.7692L17.346 12.8366L12.771 15.887L8.92079 13.577L7.64219 14.042L7.12919 12.6326L9.07979 11.9222ZM5.42779 9.50082L4.01818 10.0137L4.53084 11.4227L5.94044 10.9099L5.42779 9.50082ZM4.3223 13.5838L5.7319 13.071L6.24455 14.48L4.83495 14.9929L4.3223 13.5838Z" fill="black" fill-opacity="0.2"/>
<path fill-rule="evenodd" clip-rule="evenodd" d="M0 13.071V1.1718C0 0.86102 0.123457 0.562968 0.343212 0.343212C0.562968 0.123457 0.86102 0 1.1718 0H22.8282C23.139 0 23.437 0.123457 23.6568 0.343212C23.8766 0.562968 24 0.86102 24 1.1718V11.58L17.3454 9.08701L12.7704 12.1374L8.9202 9.8274L7.35 10.3974L6.837 8.988L9.0798 8.175L12.729 10.365L17.154 7.4154L22.5 9.42V1.5H1.5V10.929L2.6076 10.5264L3.12 11.9358L0 13.071ZM9.07979 11.9222L12.729 14.1122L17.154 11.1626L24 13.73V22.8278C24 23.1386 23.8765 23.4367 23.6568 23.6564C23.437 23.8762 23.139 23.9996 22.8282 23.9996H1.17179C0.861008 23.9996 0.562956 23.8762 0.343201 23.6564C0.123446 23.4367 -1.14441e-05 23.1386 -1.14441e-05 22.8278V15.2246L2.89979 14.1698L3.41219 15.5786L1.49999 16.2746V22.4996H22.5V14.7692L17.346 12.8366L12.771 15.887L8.92079 13.577L7.64219 14.042L7.12919 12.6326L9.07979 11.9222ZM5.42779 9.50082L4.01818 10.0137L4.53084 11.4227L5.94044 10.9099L5.42779 9.50082ZM4.3223 13.5838L5.7319 13.071L6.24455 14.48L4.83495 14.9929L4.3223 13.5838Z" fill="black" fill-opacity="0.2"/>
<path fill-rule="evenodd" clip-rule="evenodd" d="M0 13.071V1.1718C0 0.86102 0.123457 0.562968 0.343212 0.343212C0.562968 0.123457 0.86102 0 1.1718 0H22.8282C23.139 0 23.437 0.123457 23.6568 0.343212C23.8766 0.562968 24 0.86102 24 1.1718V11.58L17.3454 9.08701L12.7704 12.1374L8.9202 9.8274L7.35 10.3974L6.837 8.988L9.0798 8.175L12.729 10.365L17.154 7.4154L22.5 9.42V1.5H1.5V10.929L2.6076 10.5264L3.12 11.9358L0 13.071ZM9.07979 11.9222L12.729 14.1122L17.154 11.1626L24 13.73V22.8278C24 23.1386 23.8765 23.4367 23.6568 23.6564C23.437 23.8762 23.139 23.9996 22.8282 23.9996H1.17179C0.861008 23.9996 0.562956 23.8762 0.343201 23.6564C0.123446 23.4367 -1.14441e-05 23.1386 -1.14441e-05 22.8278V15.2246L2.89979 14.1698L3.41219 15.5786L1.49999 16.2746V22.4996H22.5V14.7692L17.346 12.8366L12.771 15.887L8.92079 13.577L7.64219 14.042L7.12919 12.6326L9.07979 11.9222ZM5.42779 9.50082L4.01818 10.0137L4.53084 11.4227L5.94044 10.9099L5.42779 9.50082ZM4.3223 13.5838L5.7319 13.071L6.24455 14.48L4.83495 14.9929L4.3223 13.5838Z" fill="black" fill-opacity="0.2"/>
<path fill-rule="evenodd" clip-rule="evenodd" d="M0 13.071V1.1718C0 0.86102 0.123457 0.562968 0.343212 0.343212C0.562968 0.123457 0.86102 0 1.1718 0H22.8282C23.139 0 23.437 0.123457 23.6568 0.343212C23.8766 0.562968 24 0.86102 24 1.1718V11.58L17.3454 9.08701L12.7704 12.1374L8.9202 9.8274L7.35 10.3974L6.837 8.988L9.0798 8.175L12.729 10.365L17.154 7.4154L22.5 9.42V1.5H1.5V10.929L2.6076 10.5264L3.12 11.9358L0 13.071ZM9.07979 11.9222L12.729 14.1122L17.154 11.1626L24 13.73V22.8278C24 23.1386 23.8765 23.4367 23.6568 23.6564C23.437 23.8762 23.139 23.9996 22.8282 23.9996H1.17179C0.861008 23.9996 0.562956 23.8762 0.343201 23.6564C0.123446 23.4367 -1.14441e-05 23.1386 -1.14441e-05 22.8278V15.2246L2.89979 14.1698L3.41219 15.5786L1.49999 16.2746V22.4996H22.5V14.7692L17.346 12.8366L12.771 15.887L8.92079 13.577L7.64219 14.042L7.12919 12.6326L9.07979 11.9222ZM5.42779 9.50082L4.01818 10.0137L4.53084 11.4227L5.94044 10.9099L5.42779 9.50082ZM4.3223 13.5838L5.7319 13.071L6.24455 14.48L4.83495 14.9929L4.3223 13.5838Z" fill="black" fill-opacity="0.2"/>
<path fill-rule="evenodd" clip-rule="evenodd" d="M0 13.071V1.1718C0 0.86102 0.123457 0.562968 0.343212 0.343212C0.562968 0.123457 0.86102 0 1.1718 0H22.8282C23.139 0 23.437 0.123457 23.6568 0.343212C23.8766 0.562968 24 0.86102 24 1.1718V11.58L17.3454 9.08701L12.7704 12.1374L8.9202 9.8274L7.35 10.3974L6.837 8.988L9.0798 8.175L12.729 10.365L17.154 7.4154L22.5 9.42V1.5H1.5V10.929L2.6076 10.5264L3.12 11.9358L0 13.071ZM9.07979 11.9222L12.729 14.1122L17.154 11.1626L24 13.73V22.8278C24 23.1386 23.8765 23.4367 23.6568 23.6564C23.437 23.8762 23.139 23.9996 22.8282 23.9996H1.17179C0.861008 23.9996 0.562956 23.8762 0.343201 23.6564C0.123446 23.4367 -1.14441e-05 23.1386 -1.14441e-05 22.8278V15.2246L2.89979 14.1698L3.41219 15.5786L1.49999 16.2746V22.4996H22.5V14.7692L17.346 12.8366L12.771 15.887L8.92079 13.577L7.64219 14.042L7.12919 12.6326L9.07979 11.9222ZM5.42779 9.50082L4.01818 10.0137L4.53084 11.4227L5.94044 10.9099L5.42779 9.50082ZM4.3223 13.5838L5.7319 13.071L6.24455 14.48L4.83495 14.9929L4.3223 13.5838Z" fill="black" fill-opacity="0.2"/>
<path fill-rule="evenodd" clip-rule="evenodd" d="M0 13.071V1.1718C0 0.86102 0.123457 0.562968 0.343212 0.343212C0.562968 0.123457 0.86102 0 1.1718 0H22.8282C23.139 0 23.437 0.123457 23.6568 0.343212C23.8766 0.562968 24 0.86102 24 1.1718V11.58L17.3454 9.08701L12.7704 12.1374L8.9202 9.8274L7.35 10.3974L6.837 8.988L9.0798 8.175L12.729 10.365L17.154 7.4154L22.5 9.42V1.5H1.5V10.929L2.6076 10.5264L3.12 11.9358L0 13.071ZM9.07979 11.9222L12.729 14.1122L17.154 11.1626L24 13.73V22.8278C24 23.1386 23.8765 23.4367 23.6568 23.6564C23.437 23.8762 23.139 23.9996 22.8282 23.9996H1.17179C0.861008 23.9996 0.562956 23.8762 0.343201 23.6564C0.123446 23.4367 -1.14441e-05 23.1386 -1.14441e-05 22.8278V15.2246L2.89979 14.1698L3.41219 15.5786L1.49999 16.2746V22.4996H22.5V14.7692L17.346 12.8366L12.771 15.887L8.92079 13.577L7.64219 14.042L7.12919 12.6326L9.07979 11.9222ZM5.42779 9.50082L4.01818 10.0137L4.53084 11.4227L5.94044 10.9099L5.42779 9.50082ZM4.3223 13.5838L5.7319 13.071L6.24455 14.48L4.83495 14.9929L4.3223 13.5838Z" fill="black" fill-opacity="0.2"/>
</g>
<defs>
<clipPath id="clip0_414_2643">
<rect width="24" height="24" fill="white"/>
</clipPath>
</defs>
</svg>
