<svg width="16" height="16" viewBox="0 0 16 16" fill="none" xmlns="http://www.w3.org/2000/svg">
<g clip-path="url(#clip0_401_12026)">
<path fill-rule="evenodd" clip-rule="evenodd" d="M8 1.5C4.41015 1.5 1.5 4.41015 1.5 8C1.5 11.5899 4.41015 14.5 8 14.5C11.5899 14.5 14.5 11.5899 14.5 8C14.5 4.41015 11.5899 1.5 8 1.5ZM0.5 8C0.5 3.85786 3.85786 0.5 8 0.5C12.1421 0.5 15.5 3.85786 15.5 8C15.5 12.1421 12.1421 15.5 8 15.5C3.85786 15.5 0.5 12.1421 0.5 8ZM9.14768 4.36641C9.35981 4.54319 9.38848 4.85847 9.21169 5.07061L6.90043 7.84413L9.21169 10.6177C9.38848 10.8298 9.35981 11.1451 9.14768 11.3219C8.93554 11.4986 8.62026 11.47 8.44347 11.2578L5.86546 8.16422C5.71094 7.9788 5.71094 7.70946 5.86546 7.52404L8.44347 4.43042C8.62026 4.21829 8.93554 4.18962 9.14768 4.36641Z" fill="black"/>
<path fill-rule="evenodd" clip-rule="evenodd" d="M8 1.5C4.41015 1.5 1.5 4.41015 1.5 8C1.5 11.5899 4.41015 14.5 8 14.5C11.5899 14.5 14.5 11.5899 14.5 8C14.5 4.41015 11.5899 1.5 8 1.5ZM0.5 8C0.5 3.85786 3.85786 0.5 8 0.5C12.1421 0.5 15.5 3.85786 15.5 8C15.5 12.1421 12.1421 15.5 8 15.5C3.85786 15.5 0.5 12.1421 0.5 8ZM9.14768 4.36641C9.35981 4.54319 9.38848 4.85847 9.21169 5.07061L6.90043 7.84413L9.21169 10.6177C9.38848 10.8298 9.35981 11.1451 9.14768 11.3219C8.93554 11.4986 8.62026 11.47 8.44347 11.2578L5.86546 8.16422C5.71094 7.9788 5.71094 7.70946 5.86546 7.52404L8.44347 4.43042C8.62026 4.21829 8.93554 4.18962 9.14768 4.36641Z" fill="black" fill-opacity="0.2"/>
<path fill-rule="evenodd" clip-rule="evenodd" d="M8 1.5C4.41015 1.5 1.5 4.41015 1.5 8C1.5 11.5899 4.41015 14.5 8 14.5C11.5899 14.5 14.5 11.5899 14.5 8C14.5 4.41015 11.5899 1.5 8 1.5ZM0.5 8C0.5 3.85786 3.85786 0.5 8 0.5C12.1421 0.5 15.5 3.85786 15.5 8C15.5 12.1421 12.1421 15.5 8 15.5C3.85786 15.5 0.5 12.1421 0.5 8ZM9.14768 4.36641C9.35981 4.54319 9.38848 4.85847 9.21169 5.07061L6.90043 7.84413L9.21169 10.6177C9.38848 10.8298 9.35981 11.1451 9.14768 11.3219C8.93554 11.4986 8.62026 11.47 8.44347 11.2578L5.86546 8.16422C5.71094 7.9788 5.71094 7.70946 5.86546 7.52404L8.44347 4.43042C8.62026 4.21829 8.93554 4.18962 9.14768 4.36641Z" fill="black" fill-opacity="0.2"/>
<path fill-rule="evenodd" clip-rule="evenodd" d="M8 1.5C4.41015 1.5 1.5 4.41015 1.5 8C1.5 11.5899 4.41015 14.5 8 14.5C11.5899 14.5 14.5 11.5899 14.5 8C14.5 4.41015 11.5899 1.5 8 1.5ZM0.5 8C0.5 3.85786 3.85786 0.5 8 0.5C12.1421 0.5 15.5 3.85786 15.5 8C15.5 12.1421 12.1421 15.5 8 15.5C3.85786 15.5 0.5 12.1421 0.5 8ZM9.14768 4.36641C9.35981 4.54319 9.38848 4.85847 9.21169 5.07061L6.90043 7.84413L9.21169 10.6177C9.38848 10.8298 9.35981 11.1451 9.14768 11.3219C8.93554 11.4986 8.62026 11.47 8.44347 11.2578L5.86546 8.16422C5.71094 7.9788 5.71094 7.70946 5.86546 7.52404L8.44347 4.43042C8.62026 4.21829 8.93554 4.18962 9.14768 4.36641Z" fill="black" fill-opacity="0.2"/>
<path fill-rule="evenodd" clip-rule="evenodd" d="M8 1.5C4.41015 1.5 1.5 4.41015 1.5 8C1.5 11.5899 4.41015 14.5 8 14.5C11.5899 14.5 14.5 11.5899 14.5 8C14.5 4.41015 11.5899 1.5 8 1.5ZM0.5 8C0.5 3.85786 3.85786 0.5 8 0.5C12.1421 0.5 15.5 3.85786 15.5 8C15.5 12.1421 12.1421 15.5 8 15.5C3.85786 15.5 0.5 12.1421 0.5 8ZM9.14768 4.36641C9.35981 4.54319 9.38848 4.85847 9.21169 5.07061L6.90043 7.84413L9.21169 10.6177C9.38848 10.8298 9.35981 11.1451 9.14768 11.3219C8.93554 11.4986 8.62026 11.47 8.44347 11.2578L5.86546 8.16422C5.71094 7.9788 5.71094 7.70946 5.86546 7.52404L8.44347 4.43042C8.62026 4.21829 8.93554 4.18962 9.14768 4.36641Z" fill="black" fill-opacity="0.2"/>
<path fill-rule="evenodd" clip-rule="evenodd" d="M8 1.5C4.41015 1.5 1.5 4.41015 1.5 8C1.5 11.5899 4.41015 14.5 8 14.5C11.5899 14.5 14.5 11.5899 14.5 8C14.5 4.41015 11.5899 1.5 8 1.5ZM0.5 8C0.5 3.85786 3.85786 0.5 8 0.5C12.1421 0.5 15.5 3.85786 15.5 8C15.5 12.1421 12.1421 15.5 8 15.5C3.85786 15.5 0.5 12.1421 0.5 8ZM9.14768 4.36641C9.35981 4.54319 9.38848 4.85847 9.21169 5.07061L6.90043 7.84413L9.21169 10.6177C9.38848 10.8298 9.35981 11.1451 9.14768 11.3219C8.93554 11.4986 8.62026 11.47 8.44347 11.2578L5.86546 8.16422C5.71094 7.9788 5.71094 7.70946 5.86546 7.52404L8.44347 4.43042C8.62026 4.21829 8.93554 4.18962 9.14768 4.36641Z" fill="black" fill-opacity="0.2"/>
<path fill-rule="evenodd" clip-rule="evenodd" d="M8 1.5C4.41015 1.5 1.5 4.41015 1.5 8C1.5 11.5899 4.41015 14.5 8 14.5C11.5899 14.5 14.5 11.5899 14.5 8C14.5 4.41015 11.5899 1.5 8 1.5ZM0.5 8C0.5 3.85786 3.85786 0.5 8 0.5C12.1421 0.5 15.5 3.85786 15.5 8C15.5 12.1421 12.1421 15.5 8 15.5C3.85786 15.5 0.5 12.1421 0.5 8ZM9.14768 4.36641C9.35981 4.54319 9.38848 4.85847 9.21169 5.07061L6.90043 7.84413L9.21169 10.6177C9.38848 10.8298 9.35981 11.1451 9.14768 11.3219C8.93554 11.4986 8.62026 11.47 8.44347 11.2578L5.86546 8.16422C5.71094 7.9788 5.71094 7.70946 5.86546 7.52404L8.44347 4.43042C8.62026 4.21829 8.93554 4.18962 9.14768 4.36641Z" fill="black" fill-opacity="0.2"/>
<path fill-rule="evenodd" clip-rule="evenodd" d="M8 1.5C4.41015 1.5 1.5 4.41015 1.5 8C1.5 11.5899 4.41015 14.5 8 14.5C11.5899 14.5 14.5 11.5899 14.5 8C14.5 4.41015 11.5899 1.5 8 1.5ZM0.5 8C0.5 3.85786 3.85786 0.5 8 0.5C12.1421 0.5 15.5 3.85786 15.5 8C15.5 12.1421 12.1421 15.5 8 15.5C3.85786 15.5 0.5 12.1421 0.5 8ZM9.14768 4.36641C9.35981 4.54319 9.38848 4.85847 9.21169 5.07061L6.90043 7.84413L9.21169 10.6177C9.38848 10.8298 9.35981 11.1451 9.14768 11.3219C8.93554 11.4986 8.62026 11.47 8.44347 11.2578L5.86546 8.16422C5.71094 7.9788 5.71094 7.70946 5.86546 7.52404L8.44347 4.43042C8.62026 4.21829 8.93554 4.18962 9.14768 4.36641Z" fill="black" fill-opacity="0.2"/>
<path fill-rule="evenodd" clip-rule="evenodd" d="M8 1.5C4.41015 1.5 1.5 4.41015 1.5 8C1.5 11.5899 4.41015 14.5 8 14.5C11.5899 14.5 14.5 11.5899 14.5 8C14.5 4.41015 11.5899 1.5 8 1.5ZM0.5 8C0.5 3.85786 3.85786 0.5 8 0.5C12.1421 0.5 15.5 3.85786 15.5 8C15.5 12.1421 12.1421 15.5 8 15.5C3.85786 15.5 0.5 12.1421 0.5 8ZM9.14768 4.36641C9.35981 4.54319 9.38848 4.85847 9.21169 5.07061L6.90043 7.84413L9.21169 10.6177C9.38848 10.8298 9.35981 11.1451 9.14768 11.3219C8.93554 11.4986 8.62026 11.47 8.44347 11.2578L5.86546 8.16422C5.71094 7.9788 5.71094 7.70946 5.86546 7.52404L8.44347 4.43042C8.62026 4.21829 8.93554 4.18962 9.14768 4.36641Z" fill="black" fill-opacity="0.2"/>
<path fill-rule="evenodd" clip-rule="evenodd" d="M8 1.5C4.41015 1.5 1.5 4.41015 1.5 8C1.5 11.5899 4.41015 14.5 8 14.5C11.5899 14.5 14.5 11.5899 14.5 8C14.5 4.41015 11.5899 1.5 8 1.5ZM0.5 8C0.5 3.85786 3.85786 0.5 8 0.5C12.1421 0.5 15.5 3.85786 15.5 8C15.5 12.1421 12.1421 15.5 8 15.5C3.85786 15.5 0.5 12.1421 0.5 8ZM9.14768 4.36641C9.35981 4.54319 9.38848 4.85847 9.21169 5.07061L6.90043 7.84413L9.21169 10.6177C9.38848 10.8298 9.35981 11.1451 9.14768 11.3219C8.93554 11.4986 8.62026 11.47 8.44347 11.2578L5.86546 8.16422C5.71094 7.9788 5.71094 7.70946 5.86546 7.52404L8.44347 4.43042C8.62026 4.21829 8.93554 4.18962 9.14768 4.36641Z" fill="black" fill-opacity="0.2"/>
</g>
<defs>
<clipPath id="clip0_401_12026">
<rect width="16" height="16" fill="white" transform="matrix(-1 0 0 -1 16 16)"/>
</clipPath>
</defs>
</svg>
