<svg width="24" height="24" viewBox="0 0 24 24" fill="none" xmlns="http://www.w3.org/2000/svg">
<path fill-rule="evenodd" clip-rule="evenodd" d="M22.2138 4.75H1.78619C1.51161 4.75043 1.24801 4.8597 1.05385 5.05386C0.85969 5.24802 0.750421 5.51162 0.749988 5.7862L0.749939 9.36392L0.750037 9.36886C0.75298 9.51778 0.786988 9.66445 0.849885 9.79947C0.912781 9.93448 1.00307 10.055 1.11518 10.1531L1.12228 10.1588C1.32436 10.323 1.57965 10.407 1.83954 10.3952L1.94791 10.3955L1.96062 10.3948C2.02923 10.3913 2.09796 10.3916 2.16657 10.3951L2.17824 10.3952C2.73715 10.3975 3.27223 10.6218 3.66577 11.0187C4.0593 11.4156 4.27907 11.9525 4.27671 12.5114C4.27435 13.0703 4.05006 13.6054 3.65318 13.9989C3.25631 14.3925 2.71935 14.6122 2.16044 14.6099L2.15898 14.6099H1.87295C1.59233 14.5922 1.31549 14.6836 1.10076 14.8656L1.09401 14.8717C0.986439 14.9698 0.900345 15.0891 0.841141 15.2221C0.781936 15.3551 0.750897 15.4989 0.749988 15.6445L0.749988 19.1433C0.750422 19.4179 0.859785 19.681 1.05406 19.875C1.24834 20.069 1.51166 20.1779 1.78619 20.1779H22.2138C22.3499 20.1779 22.4846 20.1511 22.6103 20.099C22.736 20.047 22.8503 19.9706 22.9465 19.8744C23.0427 19.7782 23.119 19.664 23.1711 19.5382C23.2232 19.4125 23.25 19.2778 23.25 19.1417L23.25 15.5652L23.25 15.5617C23.2478 15.4121 23.2141 15.2646 23.1511 15.1289C23.088 14.9932 22.997 14.8723 22.884 14.7742L22.8789 14.7701C22.6775 14.6043 22.4215 14.5197 22.1611 14.5328L22.0533 14.5324L22.0394 14.5331C21.9716 14.5369 21.9036 14.5369 21.8358 14.5331L21.8286 14.5327L21.8214 14.5328C21.2923 14.5339 20.7821 14.336 20.3922 13.9784C20.0023 13.6207 19.7612 13.1295 19.7168 12.6022C19.6724 12.075 19.8279 11.5504 20.1525 11.1325C20.4387 10.7641 20.8379 10.5025 21.286 10.3859L21.8481 10.3504H22.1228C22.2607 10.3609 22.3993 10.3444 22.5309 10.3017C22.6663 10.2578 22.7914 10.1872 22.8989 10.094L22.9026 10.0906C23.0109 9.99274 23.0977 9.87337 23.1573 9.74011C23.2169 9.60685 23.248 9.46263 23.2487 9.31664L23.2487 9.31541V5.7862C23.2487 5.51167 23.1398 5.24835 22.9458 5.05408C22.7519 4.8598 22.4883 4.75043 22.2138 4.75ZM2.82115 8.3355V6.82116H21.1776V8.34244C20.2362 8.49246 19.3715 8.95917 18.7285 9.66892C18.0348 10.4346 17.648 11.4294 17.6422 12.4626L17.6422 12.465C17.6467 13.4991 18.0329 14.4952 18.7267 15.262C19.3699 15.9728 20.2354 16.4403 21.1776 16.5904V18.1117H2.82115V16.5924C3.76487 16.445 4.63222 15.9781 5.27583 15.2662C5.97024 14.498 6.35472 13.4994 6.35472 12.464C6.35472 11.4285 5.97024 10.4299 5.27583 9.66175C4.63222 8.94983 3.76487 8.4829 2.82115 8.3355Z" fill="black"/>
<path fill-rule="evenodd" clip-rule="evenodd" d="M22.2138 4.75H1.78619C1.51161 4.75043 1.24801 4.8597 1.05385 5.05386C0.85969 5.24802 0.750421 5.51162 0.749988 5.7862L0.749939 9.36392L0.750037 9.36886C0.75298 9.51778 0.786988 9.66445 0.849885 9.79947C0.912781 9.93448 1.00307 10.055 1.11518 10.1531L1.12228 10.1588C1.32436 10.323 1.57965 10.407 1.83954 10.3952L1.94791 10.3955L1.96062 10.3948C2.02923 10.3913 2.09796 10.3916 2.16657 10.3951L2.17824 10.3952C2.73715 10.3975 3.27223 10.6218 3.66577 11.0187C4.0593 11.4156 4.27907 11.9525 4.27671 12.5114C4.27435 13.0703 4.05006 13.6054 3.65318 13.9989C3.25631 14.3925 2.71935 14.6122 2.16044 14.6099L2.15898 14.6099H1.87295C1.59233 14.5922 1.31549 14.6836 1.10076 14.8656L1.09401 14.8717C0.986439 14.9698 0.900345 15.0891 0.841141 15.2221C0.781936 15.3551 0.750897 15.4989 0.749988 15.6445L0.749988 19.1433C0.750422 19.4179 0.859785 19.681 1.05406 19.875C1.24834 20.069 1.51166 20.1779 1.78619 20.1779H22.2138C22.3499 20.1779 22.4846 20.1511 22.6103 20.099C22.736 20.047 22.8503 19.9706 22.9465 19.8744C23.0427 19.7782 23.119 19.664 23.1711 19.5382C23.2232 19.4125 23.25 19.2778 23.25 19.1417L23.25 15.5652L23.25 15.5617C23.2478 15.4121 23.2141 15.2646 23.1511 15.1289C23.088 14.9932 22.997 14.8723 22.884 14.7742L22.8789 14.7701C22.6775 14.6043 22.4215 14.5197 22.1611 14.5328L22.0533 14.5324L22.0394 14.5331C21.9716 14.5369 21.9036 14.5369 21.8358 14.5331L21.8286 14.5327L21.8214 14.5328C21.2923 14.5339 20.7821 14.336 20.3922 13.9784C20.0023 13.6207 19.7612 13.1295 19.7168 12.6022C19.6724 12.075 19.8279 11.5504 20.1525 11.1325C20.4387 10.7641 20.8379 10.5025 21.286 10.3859L21.8481 10.3504H22.1228C22.2607 10.3609 22.3993 10.3444 22.5309 10.3017C22.6663 10.2578 22.7914 10.1872 22.8989 10.094L22.9026 10.0906C23.0109 9.99274 23.0977 9.87337 23.1573 9.74011C23.2169 9.60685 23.248 9.46263 23.2487 9.31664L23.2487 9.31541V5.7862C23.2487 5.51167 23.1398 5.24835 22.9458 5.05408C22.7519 4.8598 22.4883 4.75043 22.2138 4.75ZM2.82115 8.3355V6.82116H21.1776V8.34244C20.2362 8.49246 19.3715 8.95917 18.7285 9.66892C18.0348 10.4346 17.648 11.4294 17.6422 12.4626L17.6422 12.465C17.6467 13.4991 18.0329 14.4952 18.7267 15.262C19.3699 15.9728 20.2354 16.4403 21.1776 16.5904V18.1117H2.82115V16.5924C3.76487 16.445 4.63222 15.9781 5.27583 15.2662C5.97024 14.498 6.35472 13.4994 6.35472 12.464C6.35472 11.4285 5.97024 10.4299 5.27583 9.66175C4.63222 8.94983 3.76487 8.4829 2.82115 8.3355Z" fill="black" fill-opacity="0.2"/>
<path fill-rule="evenodd" clip-rule="evenodd" d="M22.2138 4.75H1.78619C1.51161 4.75043 1.24801 4.8597 1.05385 5.05386C0.85969 5.24802 0.750421 5.51162 0.749988 5.7862L0.749939 9.36392L0.750037 9.36886C0.75298 9.51778 0.786988 9.66445 0.849885 9.79947C0.912781 9.93448 1.00307 10.055 1.11518 10.1531L1.12228 10.1588C1.32436 10.323 1.57965 10.407 1.83954 10.3952L1.94791 10.3955L1.96062 10.3948C2.02923 10.3913 2.09796 10.3916 2.16657 10.3951L2.17824 10.3952C2.73715 10.3975 3.27223 10.6218 3.66577 11.0187C4.0593 11.4156 4.27907 11.9525 4.27671 12.5114C4.27435 13.0703 4.05006 13.6054 3.65318 13.9989C3.25631 14.3925 2.71935 14.6122 2.16044 14.6099L2.15898 14.6099H1.87295C1.59233 14.5922 1.31549 14.6836 1.10076 14.8656L1.09401 14.8717C0.986439 14.9698 0.900345 15.0891 0.841141 15.2221C0.781936 15.3551 0.750897 15.4989 0.749988 15.6445L0.749988 19.1433C0.750422 19.4179 0.859785 19.681 1.05406 19.875C1.24834 20.069 1.51166 20.1779 1.78619 20.1779H22.2138C22.3499 20.1779 22.4846 20.1511 22.6103 20.099C22.736 20.047 22.8503 19.9706 22.9465 19.8744C23.0427 19.7782 23.119 19.664 23.1711 19.5382C23.2232 19.4125 23.25 19.2778 23.25 19.1417L23.25 15.5652L23.25 15.5617C23.2478 15.4121 23.2141 15.2646 23.1511 15.1289C23.088 14.9932 22.997 14.8723 22.884 14.7742L22.8789 14.7701C22.6775 14.6043 22.4215 14.5197 22.1611 14.5328L22.0533 14.5324L22.0394 14.5331C21.9716 14.5369 21.9036 14.5369 21.8358 14.5331L21.8286 14.5327L21.8214 14.5328C21.2923 14.5339 20.7821 14.336 20.3922 13.9784C20.0023 13.6207 19.7612 13.1295 19.7168 12.6022C19.6724 12.075 19.8279 11.5504 20.1525 11.1325C20.4387 10.7641 20.8379 10.5025 21.286 10.3859L21.8481 10.3504H22.1228C22.2607 10.3609 22.3993 10.3444 22.5309 10.3017C22.6663 10.2578 22.7914 10.1872 22.8989 10.094L22.9026 10.0906C23.0109 9.99274 23.0977 9.87337 23.1573 9.74011C23.2169 9.60685 23.248 9.46263 23.2487 9.31664L23.2487 9.31541V5.7862C23.2487 5.51167 23.1398 5.24835 22.9458 5.05408C22.7519 4.8598 22.4883 4.75043 22.2138 4.75ZM2.82115 8.3355V6.82116H21.1776V8.34244C20.2362 8.49246 19.3715 8.95917 18.7285 9.66892C18.0348 10.4346 17.648 11.4294 17.6422 12.4626L17.6422 12.465C17.6467 13.4991 18.0329 14.4952 18.7267 15.262C19.3699 15.9728 20.2354 16.4403 21.1776 16.5904V18.1117H2.82115V16.5924C3.76487 16.445 4.63222 15.9781 5.27583 15.2662C5.97024 14.498 6.35472 13.4994 6.35472 12.464C6.35472 11.4285 5.97024 10.4299 5.27583 9.66175C4.63222 8.94983 3.76487 8.4829 2.82115 8.3355Z" fill="black" fill-opacity="0.2"/>
<path fill-rule="evenodd" clip-rule="evenodd" d="M22.2138 4.75H1.78619C1.51161 4.75043 1.24801 4.8597 1.05385 5.05386C0.85969 5.24802 0.750421 5.51162 0.749988 5.7862L0.749939 9.36392L0.750037 9.36886C0.75298 9.51778 0.786988 9.66445 0.849885 9.79947C0.912781 9.93448 1.00307 10.055 1.11518 10.1531L1.12228 10.1588C1.32436 10.323 1.57965 10.407 1.83954 10.3952L1.94791 10.3955L1.96062 10.3948C2.02923 10.3913 2.09796 10.3916 2.16657 10.3951L2.17824 10.3952C2.73715 10.3975 3.27223 10.6218 3.66577 11.0187C4.0593 11.4156 4.27907 11.9525 4.27671 12.5114C4.27435 13.0703 4.05006 13.6054 3.65318 13.9989C3.25631 14.3925 2.71935 14.6122 2.16044 14.6099L2.15898 14.6099H1.87295C1.59233 14.5922 1.31549 14.6836 1.10076 14.8656L1.09401 14.8717C0.986439 14.9698 0.900345 15.0891 0.841141 15.2221C0.781936 15.3551 0.750897 15.4989 0.749988 15.6445L0.749988 19.1433C0.750422 19.4179 0.859785 19.681 1.05406 19.875C1.24834 20.069 1.51166 20.1779 1.78619 20.1779H22.2138C22.3499 20.1779 22.4846 20.1511 22.6103 20.099C22.736 20.047 22.8503 19.9706 22.9465 19.8744C23.0427 19.7782 23.119 19.664 23.1711 19.5382C23.2232 19.4125 23.25 19.2778 23.25 19.1417L23.25 15.5652L23.25 15.5617C23.2478 15.4121 23.2141 15.2646 23.1511 15.1289C23.088 14.9932 22.997 14.8723 22.884 14.7742L22.8789 14.7701C22.6775 14.6043 22.4215 14.5197 22.1611 14.5328L22.0533 14.5324L22.0394 14.5331C21.9716 14.5369 21.9036 14.5369 21.8358 14.5331L21.8286 14.5327L21.8214 14.5328C21.2923 14.5339 20.7821 14.336 20.3922 13.9784C20.0023 13.6207 19.7612 13.1295 19.7168 12.6022C19.6724 12.075 19.8279 11.5504 20.1525 11.1325C20.4387 10.7641 20.8379 10.5025 21.286 10.3859L21.8481 10.3504H22.1228C22.2607 10.3609 22.3993 10.3444 22.5309 10.3017C22.6663 10.2578 22.7914 10.1872 22.8989 10.094L22.9026 10.0906C23.0109 9.99274 23.0977 9.87337 23.1573 9.74011C23.2169 9.60685 23.248 9.46263 23.2487 9.31664L23.2487 9.31541V5.7862C23.2487 5.51167 23.1398 5.24835 22.9458 5.05408C22.7519 4.8598 22.4883 4.75043 22.2138 4.75ZM2.82115 8.3355V6.82116H21.1776V8.34244C20.2362 8.49246 19.3715 8.95917 18.7285 9.66892C18.0348 10.4346 17.648 11.4294 17.6422 12.4626L17.6422 12.465C17.6467 13.4991 18.0329 14.4952 18.7267 15.262C19.3699 15.9728 20.2354 16.4403 21.1776 16.5904V18.1117H2.82115V16.5924C3.76487 16.445 4.63222 15.9781 5.27583 15.2662C5.97024 14.498 6.35472 13.4994 6.35472 12.464C6.35472 11.4285 5.97024 10.4299 5.27583 9.66175C4.63222 8.94983 3.76487 8.4829 2.82115 8.3355Z" fill="black" fill-opacity="0.2"/>
<path fill-rule="evenodd" clip-rule="evenodd" d="M22.2138 4.75H1.78619C1.51161 4.75043 1.24801 4.8597 1.05385 5.05386C0.85969 5.24802 0.750421 5.51162 0.749988 5.7862L0.749939 9.36392L0.750037 9.36886C0.75298 9.51778 0.786988 9.66445 0.849885 9.79947C0.912781 9.93448 1.00307 10.055 1.11518 10.1531L1.12228 10.1588C1.32436 10.323 1.57965 10.407 1.83954 10.3952L1.94791 10.3955L1.96062 10.3948C2.02923 10.3913 2.09796 10.3916 2.16657 10.3951L2.17824 10.3952C2.73715 10.3975 3.27223 10.6218 3.66577 11.0187C4.0593 11.4156 4.27907 11.9525 4.27671 12.5114C4.27435 13.0703 4.05006 13.6054 3.65318 13.9989C3.25631 14.3925 2.71935 14.6122 2.16044 14.6099L2.15898 14.6099H1.87295C1.59233 14.5922 1.31549 14.6836 1.10076 14.8656L1.09401 14.8717C0.986439 14.9698 0.900345 15.0891 0.841141 15.2221C0.781936 15.3551 0.750897 15.4989 0.749988 15.6445L0.749988 19.1433C0.750422 19.4179 0.859785 19.681 1.05406 19.875C1.24834 20.069 1.51166 20.1779 1.78619 20.1779H22.2138C22.3499 20.1779 22.4846 20.1511 22.6103 20.099C22.736 20.047 22.8503 19.9706 22.9465 19.8744C23.0427 19.7782 23.119 19.664 23.1711 19.5382C23.2232 19.4125 23.25 19.2778 23.25 19.1417L23.25 15.5652L23.25 15.5617C23.2478 15.4121 23.2141 15.2646 23.1511 15.1289C23.088 14.9932 22.997 14.8723 22.884 14.7742L22.8789 14.7701C22.6775 14.6043 22.4215 14.5197 22.1611 14.5328L22.0533 14.5324L22.0394 14.5331C21.9716 14.5369 21.9036 14.5369 21.8358 14.5331L21.8286 14.5327L21.8214 14.5328C21.2923 14.5339 20.7821 14.336 20.3922 13.9784C20.0023 13.6207 19.7612 13.1295 19.7168 12.6022C19.6724 12.075 19.8279 11.5504 20.1525 11.1325C20.4387 10.7641 20.8379 10.5025 21.286 10.3859L21.8481 10.3504H22.1228C22.2607 10.3609 22.3993 10.3444 22.5309 10.3017C22.6663 10.2578 22.7914 10.1872 22.8989 10.094L22.9026 10.0906C23.0109 9.99274 23.0977 9.87337 23.1573 9.74011C23.2169 9.60685 23.248 9.46263 23.2487 9.31664L23.2487 9.31541V5.7862C23.2487 5.51167 23.1398 5.24835 22.9458 5.05408C22.7519 4.8598 22.4883 4.75043 22.2138 4.75ZM2.82115 8.3355V6.82116H21.1776V8.34244C20.2362 8.49246 19.3715 8.95917 18.7285 9.66892C18.0348 10.4346 17.648 11.4294 17.6422 12.4626L17.6422 12.465C17.6467 13.4991 18.0329 14.4952 18.7267 15.262C19.3699 15.9728 20.2354 16.4403 21.1776 16.5904V18.1117H2.82115V16.5924C3.76487 16.445 4.63222 15.9781 5.27583 15.2662C5.97024 14.498 6.35472 13.4994 6.35472 12.464C6.35472 11.4285 5.97024 10.4299 5.27583 9.66175C4.63222 8.94983 3.76487 8.4829 2.82115 8.3355Z" fill="black" fill-opacity="0.2"/>
<path fill-rule="evenodd" clip-rule="evenodd" d="M22.2138 4.75H1.78619C1.51161 4.75043 1.24801 4.8597 1.05385 5.05386C0.85969 5.24802 0.750421 5.51162 0.749988 5.7862L0.749939 9.36392L0.750037 9.36886C0.75298 9.51778 0.786988 9.66445 0.849885 9.79947C0.912781 9.93448 1.00307 10.055 1.11518 10.1531L1.12228 10.1588C1.32436 10.323 1.57965 10.407 1.83954 10.3952L1.94791 10.3955L1.96062 10.3948C2.02923 10.3913 2.09796 10.3916 2.16657 10.3951L2.17824 10.3952C2.73715 10.3975 3.27223 10.6218 3.66577 11.0187C4.0593 11.4156 4.27907 11.9525 4.27671 12.5114C4.27435 13.0703 4.05006 13.6054 3.65318 13.9989C3.25631 14.3925 2.71935 14.6122 2.16044 14.6099L2.15898 14.6099H1.87295C1.59233 14.5922 1.31549 14.6836 1.10076 14.8656L1.09401 14.8717C0.986439 14.9698 0.900345 15.0891 0.841141 15.2221C0.781936 15.3551 0.750897 15.4989 0.749988 15.6445L0.749988 19.1433C0.750422 19.4179 0.859785 19.681 1.05406 19.875C1.24834 20.069 1.51166 20.1779 1.78619 20.1779H22.2138C22.3499 20.1779 22.4846 20.1511 22.6103 20.099C22.736 20.047 22.8503 19.9706 22.9465 19.8744C23.0427 19.7782 23.119 19.664 23.1711 19.5382C23.2232 19.4125 23.25 19.2778 23.25 19.1417L23.25 15.5652L23.25 15.5617C23.2478 15.4121 23.2141 15.2646 23.1511 15.1289C23.088 14.9932 22.997 14.8723 22.884 14.7742L22.8789 14.7701C22.6775 14.6043 22.4215 14.5197 22.1611 14.5328L22.0533 14.5324L22.0394 14.5331C21.9716 14.5369 21.9036 14.5369 21.8358 14.5331L21.8286 14.5327L21.8214 14.5328C21.2923 14.5339 20.7821 14.336 20.3922 13.9784C20.0023 13.6207 19.7612 13.1295 19.7168 12.6022C19.6724 12.075 19.8279 11.5504 20.1525 11.1325C20.4387 10.7641 20.8379 10.5025 21.286 10.3859L21.8481 10.3504H22.1228C22.2607 10.3609 22.3993 10.3444 22.5309 10.3017C22.6663 10.2578 22.7914 10.1872 22.8989 10.094L22.9026 10.0906C23.0109 9.99274 23.0977 9.87337 23.1573 9.74011C23.2169 9.60685 23.248 9.46263 23.2487 9.31664L23.2487 9.31541V5.7862C23.2487 5.51167 23.1398 5.24835 22.9458 5.05408C22.7519 4.8598 22.4883 4.75043 22.2138 4.75ZM2.82115 8.3355V6.82116H21.1776V8.34244C20.2362 8.49246 19.3715 8.95917 18.7285 9.66892C18.0348 10.4346 17.648 11.4294 17.6422 12.4626L17.6422 12.465C17.6467 13.4991 18.0329 14.4952 18.7267 15.262C19.3699 15.9728 20.2354 16.4403 21.1776 16.5904V18.1117H2.82115V16.5924C3.76487 16.445 4.63222 15.9781 5.27583 15.2662C5.97024 14.498 6.35472 13.4994 6.35472 12.464C6.35472 11.4285 5.97024 10.4299 5.27583 9.66175C4.63222 8.94983 3.76487 8.4829 2.82115 8.3355Z" fill="black" fill-opacity="0.2"/>
<path fill-rule="evenodd" clip-rule="evenodd" d="M22.2138 4.75H1.78619C1.51161 4.75043 1.24801 4.8597 1.05385 5.05386C0.85969 5.24802 0.750421 5.51162 0.749988 5.7862L0.749939 9.36392L0.750037 9.36886C0.75298 9.51778 0.786988 9.66445 0.849885 9.79947C0.912781 9.93448 1.00307 10.055 1.11518 10.1531L1.12228 10.1588C1.32436 10.323 1.57965 10.407 1.83954 10.3952L1.94791 10.3955L1.96062 10.3948C2.02923 10.3913 2.09796 10.3916 2.16657 10.3951L2.17824 10.3952C2.73715 10.3975 3.27223 10.6218 3.66577 11.0187C4.0593 11.4156 4.27907 11.9525 4.27671 12.5114C4.27435 13.0703 4.05006 13.6054 3.65318 13.9989C3.25631 14.3925 2.71935 14.6122 2.16044 14.6099L2.15898 14.6099H1.87295C1.59233 14.5922 1.31549 14.6836 1.10076 14.8656L1.09401 14.8717C0.986439 14.9698 0.900345 15.0891 0.841141 15.2221C0.781936 15.3551 0.750897 15.4989 0.749988 15.6445L0.749988 19.1433C0.750422 19.4179 0.859785 19.681 1.05406 19.875C1.24834 20.069 1.51166 20.1779 1.78619 20.1779H22.2138C22.3499 20.1779 22.4846 20.1511 22.6103 20.099C22.736 20.047 22.8503 19.9706 22.9465 19.8744C23.0427 19.7782 23.119 19.664 23.1711 19.5382C23.2232 19.4125 23.25 19.2778 23.25 19.1417L23.25 15.5652L23.25 15.5617C23.2478 15.4121 23.2141 15.2646 23.1511 15.1289C23.088 14.9932 22.997 14.8723 22.884 14.7742L22.8789 14.7701C22.6775 14.6043 22.4215 14.5197 22.1611 14.5328L22.0533 14.5324L22.0394 14.5331C21.9716 14.5369 21.9036 14.5369 21.8358 14.5331L21.8286 14.5327L21.8214 14.5328C21.2923 14.5339 20.7821 14.336 20.3922 13.9784C20.0023 13.6207 19.7612 13.1295 19.7168 12.6022C19.6724 12.075 19.8279 11.5504 20.1525 11.1325C20.4387 10.7641 20.8379 10.5025 21.286 10.3859L21.8481 10.3504H22.1228C22.2607 10.3609 22.3993 10.3444 22.5309 10.3017C22.6663 10.2578 22.7914 10.1872 22.8989 10.094L22.9026 10.0906C23.0109 9.99274 23.0977 9.87337 23.1573 9.74011C23.2169 9.60685 23.248 9.46263 23.2487 9.31664L23.2487 9.31541V5.7862C23.2487 5.51167 23.1398 5.24835 22.9458 5.05408C22.7519 4.8598 22.4883 4.75043 22.2138 4.75ZM2.82115 8.3355V6.82116H21.1776V8.34244C20.2362 8.49246 19.3715 8.95917 18.7285 9.66892C18.0348 10.4346 17.648 11.4294 17.6422 12.4626L17.6422 12.465C17.6467 13.4991 18.0329 14.4952 18.7267 15.262C19.3699 15.9728 20.2354 16.4403 21.1776 16.5904V18.1117H2.82115V16.5924C3.76487 16.445 4.63222 15.9781 5.27583 15.2662C5.97024 14.498 6.35472 13.4994 6.35472 12.464C6.35472 11.4285 5.97024 10.4299 5.27583 9.66175C4.63222 8.94983 3.76487 8.4829 2.82115 8.3355Z" fill="black" fill-opacity="0.2"/>
<path fill-rule="evenodd" clip-rule="evenodd" d="M22.2138 4.75H1.78619C1.51161 4.75043 1.24801 4.8597 1.05385 5.05386C0.85969 5.24802 0.750421 5.51162 0.749988 5.7862L0.749939 9.36392L0.750037 9.36886C0.75298 9.51778 0.786988 9.66445 0.849885 9.79947C0.912781 9.93448 1.00307 10.055 1.11518 10.1531L1.12228 10.1588C1.32436 10.323 1.57965 10.407 1.83954 10.3952L1.94791 10.3955L1.96062 10.3948C2.02923 10.3913 2.09796 10.3916 2.16657 10.3951L2.17824 10.3952C2.73715 10.3975 3.27223 10.6218 3.66577 11.0187C4.0593 11.4156 4.27907 11.9525 4.27671 12.5114C4.27435 13.0703 4.05006 13.6054 3.65318 13.9989C3.25631 14.3925 2.71935 14.6122 2.16044 14.6099L2.15898 14.6099H1.87295C1.59233 14.5922 1.31549 14.6836 1.10076 14.8656L1.09401 14.8717C0.986439 14.9698 0.900345 15.0891 0.841141 15.2221C0.781936 15.3551 0.750897 15.4989 0.749988 15.6445L0.749988 19.1433C0.750422 19.4179 0.859785 19.681 1.05406 19.875C1.24834 20.069 1.51166 20.1779 1.78619 20.1779H22.2138C22.3499 20.1779 22.4846 20.1511 22.6103 20.099C22.736 20.047 22.8503 19.9706 22.9465 19.8744C23.0427 19.7782 23.119 19.664 23.1711 19.5382C23.2232 19.4125 23.25 19.2778 23.25 19.1417L23.25 15.5652L23.25 15.5617C23.2478 15.4121 23.2141 15.2646 23.1511 15.1289C23.088 14.9932 22.997 14.8723 22.884 14.7742L22.8789 14.7701C22.6775 14.6043 22.4215 14.5197 22.1611 14.5328L22.0533 14.5324L22.0394 14.5331C21.9716 14.5369 21.9036 14.5369 21.8358 14.5331L21.8286 14.5327L21.8214 14.5328C21.2923 14.5339 20.7821 14.336 20.3922 13.9784C20.0023 13.6207 19.7612 13.1295 19.7168 12.6022C19.6724 12.075 19.8279 11.5504 20.1525 11.1325C20.4387 10.7641 20.8379 10.5025 21.286 10.3859L21.8481 10.3504H22.1228C22.2607 10.3609 22.3993 10.3444 22.5309 10.3017C22.6663 10.2578 22.7914 10.1872 22.8989 10.094L22.9026 10.0906C23.0109 9.99274 23.0977 9.87337 23.1573 9.74011C23.2169 9.60685 23.248 9.46263 23.2487 9.31664L23.2487 9.31541V5.7862C23.2487 5.51167 23.1398 5.24835 22.9458 5.05408C22.7519 4.8598 22.4883 4.75043 22.2138 4.75ZM2.82115 8.3355V6.82116H21.1776V8.34244C20.2362 8.49246 19.3715 8.95917 18.7285 9.66892C18.0348 10.4346 17.648 11.4294 17.6422 12.4626L17.6422 12.465C17.6467 13.4991 18.0329 14.4952 18.7267 15.262C19.3699 15.9728 20.2354 16.4403 21.1776 16.5904V18.1117H2.82115V16.5924C3.76487 16.445 4.63222 15.9781 5.27583 15.2662C5.97024 14.498 6.35472 13.4994 6.35472 12.464C6.35472 11.4285 5.97024 10.4299 5.27583 9.66175C4.63222 8.94983 3.76487 8.4829 2.82115 8.3355Z" fill="black" fill-opacity="0.2"/>
<path fill-rule="evenodd" clip-rule="evenodd" d="M22.2138 4.75H1.78619C1.51161 4.75043 1.24801 4.8597 1.05385 5.05386C0.85969 5.24802 0.750421 5.51162 0.749988 5.7862L0.749939 9.36392L0.750037 9.36886C0.75298 9.51778 0.786988 9.66445 0.849885 9.79947C0.912781 9.93448 1.00307 10.055 1.11518 10.1531L1.12228 10.1588C1.32436 10.323 1.57965 10.407 1.83954 10.3952L1.94791 10.3955L1.96062 10.3948C2.02923 10.3913 2.09796 10.3916 2.16657 10.3951L2.17824 10.3952C2.73715 10.3975 3.27223 10.6218 3.66577 11.0187C4.0593 11.4156 4.27907 11.9525 4.27671 12.5114C4.27435 13.0703 4.05006 13.6054 3.65318 13.9989C3.25631 14.3925 2.71935 14.6122 2.16044 14.6099L2.15898 14.6099H1.87295C1.59233 14.5922 1.31549 14.6836 1.10076 14.8656L1.09401 14.8717C0.986439 14.9698 0.900345 15.0891 0.841141 15.2221C0.781936 15.3551 0.750897 15.4989 0.749988 15.6445L0.749988 19.1433C0.750422 19.4179 0.859785 19.681 1.05406 19.875C1.24834 20.069 1.51166 20.1779 1.78619 20.1779H22.2138C22.3499 20.1779 22.4846 20.1511 22.6103 20.099C22.736 20.047 22.8503 19.9706 22.9465 19.8744C23.0427 19.7782 23.119 19.664 23.1711 19.5382C23.2232 19.4125 23.25 19.2778 23.25 19.1417L23.25 15.5652L23.25 15.5617C23.2478 15.4121 23.2141 15.2646 23.1511 15.1289C23.088 14.9932 22.997 14.8723 22.884 14.7742L22.8789 14.7701C22.6775 14.6043 22.4215 14.5197 22.1611 14.5328L22.0533 14.5324L22.0394 14.5331C21.9716 14.5369 21.9036 14.5369 21.8358 14.5331L21.8286 14.5327L21.8214 14.5328C21.2923 14.5339 20.7821 14.336 20.3922 13.9784C20.0023 13.6207 19.7612 13.1295 19.7168 12.6022C19.6724 12.075 19.8279 11.5504 20.1525 11.1325C20.4387 10.7641 20.8379 10.5025 21.286 10.3859L21.8481 10.3504H22.1228C22.2607 10.3609 22.3993 10.3444 22.5309 10.3017C22.6663 10.2578 22.7914 10.1872 22.8989 10.094L22.9026 10.0906C23.0109 9.99274 23.0977 9.87337 23.1573 9.74011C23.2169 9.60685 23.248 9.46263 23.2487 9.31664L23.2487 9.31541V5.7862C23.2487 5.51167 23.1398 5.24835 22.9458 5.05408C22.7519 4.8598 22.4883 4.75043 22.2138 4.75ZM2.82115 8.3355V6.82116H21.1776V8.34244C20.2362 8.49246 19.3715 8.95917 18.7285 9.66892C18.0348 10.4346 17.648 11.4294 17.6422 12.4626L17.6422 12.465C17.6467 13.4991 18.0329 14.4952 18.7267 15.262C19.3699 15.9728 20.2354 16.4403 21.1776 16.5904V18.1117H2.82115V16.5924C3.76487 16.445 4.63222 15.9781 5.27583 15.2662C5.97024 14.498 6.35472 13.4994 6.35472 12.464C6.35472 11.4285 5.97024 10.4299 5.27583 9.66175C4.63222 8.94983 3.76487 8.4829 2.82115 8.3355Z" fill="black" fill-opacity="0.2"/>
<path fill-rule="evenodd" clip-rule="evenodd" d="M22.2138 4.75H1.78619C1.51161 4.75043 1.24801 4.8597 1.05385 5.05386C0.85969 5.24802 0.750421 5.51162 0.749988 5.7862L0.749939 9.36392L0.750037 9.36886C0.75298 9.51778 0.786988 9.66445 0.849885 9.79947C0.912781 9.93448 1.00307 10.055 1.11518 10.1531L1.12228 10.1588C1.32436 10.323 1.57965 10.407 1.83954 10.3952L1.94791 10.3955L1.96062 10.3948C2.02923 10.3913 2.09796 10.3916 2.16657 10.3951L2.17824 10.3952C2.73715 10.3975 3.27223 10.6218 3.66577 11.0187C4.0593 11.4156 4.27907 11.9525 4.27671 12.5114C4.27435 13.0703 4.05006 13.6054 3.65318 13.9989C3.25631 14.3925 2.71935 14.6122 2.16044 14.6099L2.15898 14.6099H1.87295C1.59233 14.5922 1.31549 14.6836 1.10076 14.8656L1.09401 14.8717C0.986439 14.9698 0.900345 15.0891 0.841141 15.2221C0.781936 15.3551 0.750897 15.4989 0.749988 15.6445L0.749988 19.1433C0.750422 19.4179 0.859785 19.681 1.05406 19.875C1.24834 20.069 1.51166 20.1779 1.78619 20.1779H22.2138C22.3499 20.1779 22.4846 20.1511 22.6103 20.099C22.736 20.047 22.8503 19.9706 22.9465 19.8744C23.0427 19.7782 23.119 19.664 23.1711 19.5382C23.2232 19.4125 23.25 19.2778 23.25 19.1417L23.25 15.5652L23.25 15.5617C23.2478 15.4121 23.2141 15.2646 23.1511 15.1289C23.088 14.9932 22.997 14.8723 22.884 14.7742L22.8789 14.7701C22.6775 14.6043 22.4215 14.5197 22.1611 14.5328L22.0533 14.5324L22.0394 14.5331C21.9716 14.5369 21.9036 14.5369 21.8358 14.5331L21.8286 14.5327L21.8214 14.5328C21.2923 14.5339 20.7821 14.336 20.3922 13.9784C20.0023 13.6207 19.7612 13.1295 19.7168 12.6022C19.6724 12.075 19.8279 11.5504 20.1525 11.1325C20.4387 10.7641 20.8379 10.5025 21.286 10.3859L21.8481 10.3504H22.1228C22.2607 10.3609 22.3993 10.3444 22.5309 10.3017C22.6663 10.2578 22.7914 10.1872 22.8989 10.094L22.9026 10.0906C23.0109 9.99274 23.0977 9.87337 23.1573 9.74011C23.2169 9.60685 23.248 9.46263 23.2487 9.31664L23.2487 9.31541V5.7862C23.2487 5.51167 23.1398 5.24835 22.9458 5.05408C22.7519 4.8598 22.4883 4.75043 22.2138 4.75ZM2.82115 8.3355V6.82116H21.1776V8.34244C20.2362 8.49246 19.3715 8.95917 18.7285 9.66892C18.0348 10.4346 17.648 11.4294 17.6422 12.4626L17.6422 12.465C17.6467 13.4991 18.0329 14.4952 18.7267 15.262C19.3699 15.9728 20.2354 16.4403 21.1776 16.5904V18.1117H2.82115V16.5924C3.76487 16.445 4.63222 15.9781 5.27583 15.2662C5.97024 14.498 6.35472 13.4994 6.35472 12.464C6.35472 11.4285 5.97024 10.4299 5.27583 9.66175C4.63222 8.94983 3.76487 8.4829 2.82115 8.3355Z" fill="black" fill-opacity="0.2"/>
</svg>
