<svg width="24" height="24" viewBox="0 0 24 24" fill="none" xmlns="http://www.w3.org/2000/svg">
<path fill-rule="evenodd" clip-rule="evenodd" d="M9.49893 0.675913L19.6908 12.2136L9.47385 23.3519L6.52614 20.6481L14.3092 12.1632L6.50107 3.32409L9.49893 0.675913Z" fill="black"/>
<path fill-rule="evenodd" clip-rule="evenodd" d="M9.49893 0.675913L19.6908 12.2136L9.47385 23.3519L6.52614 20.6481L14.3092 12.1632L6.50107 3.32409L9.49893 0.675913Z" fill="black" fill-opacity="0.2"/>
<path fill-rule="evenodd" clip-rule="evenodd" d="M9.49893 0.675913L19.6908 12.2136L9.47385 23.3519L6.52614 20.6481L14.3092 12.1632L6.50107 3.32409L9.49893 0.675913Z" fill="black" fill-opacity="0.2"/>
<path fill-rule="evenodd" clip-rule="evenodd" d="M9.49893 0.675913L19.6908 12.2136L9.47385 23.3519L6.52614 20.6481L14.3092 12.1632L6.50107 3.32409L9.49893 0.675913Z" fill="black" fill-opacity="0.2"/>
<path fill-rule="evenodd" clip-rule="evenodd" d="M9.49893 0.675913L19.6908 12.2136L9.47385 23.3519L6.52614 20.6481L14.3092 12.1632L6.50107 3.32409L9.49893 0.675913Z" fill="black" fill-opacity="0.2"/>
<path fill-rule="evenodd" clip-rule="evenodd" d="M9.49893 0.675913L19.6908 12.2136L9.47385 23.3519L6.52614 20.6481L14.3092 12.1632L6.50107 3.32409L9.49893 0.675913Z" fill="black" fill-opacity="0.2"/>
<path fill-rule="evenodd" clip-rule="evenodd" d="M9.49893 0.675913L19.6908 12.2136L9.47385 23.3519L6.52614 20.6481L14.3092 12.1632L6.50107 3.32409L9.49893 0.675913Z" fill="black" fill-opacity="0.2"/>
<path fill-rule="evenodd" clip-rule="evenodd" d="M9.49893 0.675913L19.6908 12.2136L9.47385 23.3519L6.52614 20.6481L14.3092 12.1632L6.50107 3.32409L9.49893 0.675913Z" fill="black" fill-opacity="0.2"/>
<path fill-rule="evenodd" clip-rule="evenodd" d="M9.49893 0.675913L19.6908 12.2136L9.47385 23.3519L6.52614 20.6481L14.3092 12.1632L6.50107 3.32409L9.49893 0.675913Z" fill="black" fill-opacity="0.2"/>
<path fill-rule="evenodd" clip-rule="evenodd" d="M9.49893 0.675913L19.6908 12.2136L9.47385 23.3519L6.52614 20.6481L14.3092 12.1632L6.50107 3.32409L9.49893 0.675913Z" fill="black" fill-opacity="0.2"/>
</svg>
