<svg width="24" height="24" viewBox="0 0 24 24" fill="none" xmlns="http://www.w3.org/2000/svg">
<g clip-path="url(#clip0_365_1053)">
<path d="M12 0C9.62655 2.6287e-08 7.3064 0.703833 5.33298 2.02249C3.35955 3.34114 1.82148 5.21539 0.91328 7.40821C0.00508099 9.60103 -0.232455 12.0139 0.230713 14.3417C0.69388 16.6696 1.83695 18.8078 3.51535 20.4859C5.19376 22.1641 7.33213 23.3068 9.66002 23.7696C11.9879 24.2325 14.4008 23.9946 16.5934 23.086C18.7861 22.1775 20.6601 20.6392 21.9785 18.6655C23.2969 16.6919 24.0004 14.3717 24 11.9982C23.9991 8.81607 22.7344 5.76456 20.4841 3.51461C18.2338 1.26466 15.1821 0.000473392 12 0ZM12 5.32222C12.4021 5.32222 12.7951 5.44147 13.1294 5.66487C13.4636 5.88828 13.7241 6.20581 13.8779 6.57729C14.0317 6.94878 14.0718 7.35753 13.9933 7.75183C13.9147 8.14614 13.7209 8.50828 13.4365 8.79245C13.1521 9.07662 12.7898 9.27005 12.3954 9.34827C12.001 9.42649 11.5923 9.38599 11.221 9.23188C10.8496 9.07778 10.5323 8.817 10.3092 8.48253C10.0861 8.14806 9.96721 7.75493 9.96756 7.35288C9.96803 6.81415 10.1824 6.29765 10.5635 5.91688C10.9446 5.53611 11.4613 5.32222 12 5.32222ZM14.7129 17.6115C14.7129 17.7655 14.6518 17.9131 14.5429 18.022C14.434 18.1308 14.2864 18.192 14.1325 18.192H9.87112C9.71717 18.192 9.56953 18.1308 9.46068 18.022C9.35183 17.9131 9.29067 17.7655 9.29067 17.6115V16.4507C9.29067 16.2967 9.35183 16.1491 9.46068 16.0402C9.56953 15.9314 9.71717 15.8702 9.87112 15.8702H10.4516V12.7733H9.87112C9.71717 12.7733 9.56953 12.7122 9.46068 12.6033C9.35183 12.4945 9.29067 12.3468 9.29067 12.1929V11.032C9.29067 10.8781 9.35183 10.7304 9.46068 10.6216C9.56953 10.5127 9.71717 10.4516 9.87112 10.4516H12.968C13.1219 10.4516 13.2696 10.5127 13.3784 10.6216C13.4873 10.7304 13.5484 10.8781 13.5484 11.032V15.8702H14.1289C14.2828 15.8702 14.4305 15.9314 14.5393 16.0402C14.6482 16.1491 14.7093 16.2967 14.7093 16.4507L14.7129 17.6115Z" fill="black"/>
<path d="M12 0C9.62655 2.6287e-08 7.3064 0.703833 5.33298 2.02249C3.35955 3.34114 1.82148 5.21539 0.91328 7.40821C0.00508099 9.60103 -0.232455 12.0139 0.230713 14.3417C0.69388 16.6696 1.83695 18.8078 3.51535 20.4859C5.19376 22.1641 7.33213 23.3068 9.66002 23.7696C11.9879 24.2325 14.4008 23.9946 16.5934 23.086C18.7861 22.1775 20.6601 20.6392 21.9785 18.6655C23.2969 16.6919 24.0004 14.3717 24 11.9982C23.9991 8.81607 22.7344 5.76456 20.4841 3.51461C18.2338 1.26466 15.1821 0.000473392 12 0ZM12 5.32222C12.4021 5.32222 12.7951 5.44147 13.1294 5.66487C13.4636 5.88828 13.7241 6.20581 13.8779 6.57729C14.0317 6.94878 14.0718 7.35753 13.9933 7.75183C13.9147 8.14614 13.7209 8.50828 13.4365 8.79245C13.1521 9.07662 12.7898 9.27005 12.3954 9.34827C12.001 9.42649 11.5923 9.38599 11.221 9.23188C10.8496 9.07778 10.5323 8.817 10.3092 8.48253C10.0861 8.14806 9.96721 7.75493 9.96756 7.35288C9.96803 6.81415 10.1824 6.29765 10.5635 5.91688C10.9446 5.53611 11.4613 5.32222 12 5.32222ZM14.7129 17.6115C14.7129 17.7655 14.6518 17.9131 14.5429 18.022C14.434 18.1308 14.2864 18.192 14.1325 18.192H9.87112C9.71717 18.192 9.56953 18.1308 9.46068 18.022C9.35183 17.9131 9.29067 17.7655 9.29067 17.6115V16.4507C9.29067 16.2967 9.35183 16.1491 9.46068 16.0402C9.56953 15.9314 9.71717 15.8702 9.87112 15.8702H10.4516V12.7733H9.87112C9.71717 12.7733 9.56953 12.7122 9.46068 12.6033C9.35183 12.4945 9.29067 12.3468 9.29067 12.1929V11.032C9.29067 10.8781 9.35183 10.7304 9.46068 10.6216C9.56953 10.5127 9.71717 10.4516 9.87112 10.4516H12.968C13.1219 10.4516 13.2696 10.5127 13.3784 10.6216C13.4873 10.7304 13.5484 10.8781 13.5484 11.032V15.8702H14.1289C14.2828 15.8702 14.4305 15.9314 14.5393 16.0402C14.6482 16.1491 14.7093 16.2967 14.7093 16.4507L14.7129 17.6115Z" fill="black" fill-opacity="0.2"/>
<path d="M12 0C9.62655 2.6287e-08 7.3064 0.703833 5.33298 2.02249C3.35955 3.34114 1.82148 5.21539 0.91328 7.40821C0.00508099 9.60103 -0.232455 12.0139 0.230713 14.3417C0.69388 16.6696 1.83695 18.8078 3.51535 20.4859C5.19376 22.1641 7.33213 23.3068 9.66002 23.7696C11.9879 24.2325 14.4008 23.9946 16.5934 23.086C18.7861 22.1775 20.6601 20.6392 21.9785 18.6655C23.2969 16.6919 24.0004 14.3717 24 11.9982C23.9991 8.81607 22.7344 5.76456 20.4841 3.51461C18.2338 1.26466 15.1821 0.000473392 12 0ZM12 5.32222C12.4021 5.32222 12.7951 5.44147 13.1294 5.66487C13.4636 5.88828 13.7241 6.20581 13.8779 6.57729C14.0317 6.94878 14.0718 7.35753 13.9933 7.75183C13.9147 8.14614 13.7209 8.50828 13.4365 8.79245C13.1521 9.07662 12.7898 9.27005 12.3954 9.34827C12.001 9.42649 11.5923 9.38599 11.221 9.23188C10.8496 9.07778 10.5323 8.817 10.3092 8.48253C10.0861 8.14806 9.96721 7.75493 9.96756 7.35288C9.96803 6.81415 10.1824 6.29765 10.5635 5.91688C10.9446 5.53611 11.4613 5.32222 12 5.32222ZM14.7129 17.6115C14.7129 17.7655 14.6518 17.9131 14.5429 18.022C14.434 18.1308 14.2864 18.192 14.1325 18.192H9.87112C9.71717 18.192 9.56953 18.1308 9.46068 18.022C9.35183 17.9131 9.29067 17.7655 9.29067 17.6115V16.4507C9.29067 16.2967 9.35183 16.1491 9.46068 16.0402C9.56953 15.9314 9.71717 15.8702 9.87112 15.8702H10.4516V12.7733H9.87112C9.71717 12.7733 9.56953 12.7122 9.46068 12.6033C9.35183 12.4945 9.29067 12.3468 9.29067 12.1929V11.032C9.29067 10.8781 9.35183 10.7304 9.46068 10.6216C9.56953 10.5127 9.71717 10.4516 9.87112 10.4516H12.968C13.1219 10.4516 13.2696 10.5127 13.3784 10.6216C13.4873 10.7304 13.5484 10.8781 13.5484 11.032V15.8702H14.1289C14.2828 15.8702 14.4305 15.9314 14.5393 16.0402C14.6482 16.1491 14.7093 16.2967 14.7093 16.4507L14.7129 17.6115Z" fill="black" fill-opacity="0.2"/>
<path d="M12 0C9.62655 2.6287e-08 7.3064 0.703833 5.33298 2.02249C3.35955 3.34114 1.82148 5.21539 0.91328 7.40821C0.00508099 9.60103 -0.232455 12.0139 0.230713 14.3417C0.69388 16.6696 1.83695 18.8078 3.51535 20.4859C5.19376 22.1641 7.33213 23.3068 9.66002 23.7696C11.9879 24.2325 14.4008 23.9946 16.5934 23.086C18.7861 22.1775 20.6601 20.6392 21.9785 18.6655C23.2969 16.6919 24.0004 14.3717 24 11.9982C23.9991 8.81607 22.7344 5.76456 20.4841 3.51461C18.2338 1.26466 15.1821 0.000473392 12 0ZM12 5.32222C12.4021 5.32222 12.7951 5.44147 13.1294 5.66487C13.4636 5.88828 13.7241 6.20581 13.8779 6.57729C14.0317 6.94878 14.0718 7.35753 13.9933 7.75183C13.9147 8.14614 13.7209 8.50828 13.4365 8.79245C13.1521 9.07662 12.7898 9.27005 12.3954 9.34827C12.001 9.42649 11.5923 9.38599 11.221 9.23188C10.8496 9.07778 10.5323 8.817 10.3092 8.48253C10.0861 8.14806 9.96721 7.75493 9.96756 7.35288C9.96803 6.81415 10.1824 6.29765 10.5635 5.91688C10.9446 5.53611 11.4613 5.32222 12 5.32222ZM14.7129 17.6115C14.7129 17.7655 14.6518 17.9131 14.5429 18.022C14.434 18.1308 14.2864 18.192 14.1325 18.192H9.87112C9.71717 18.192 9.56953 18.1308 9.46068 18.022C9.35183 17.9131 9.29067 17.7655 9.29067 17.6115V16.4507C9.29067 16.2967 9.35183 16.1491 9.46068 16.0402C9.56953 15.9314 9.71717 15.8702 9.87112 15.8702H10.4516V12.7733H9.87112C9.71717 12.7733 9.56953 12.7122 9.46068 12.6033C9.35183 12.4945 9.29067 12.3468 9.29067 12.1929V11.032C9.29067 10.8781 9.35183 10.7304 9.46068 10.6216C9.56953 10.5127 9.71717 10.4516 9.87112 10.4516H12.968C13.1219 10.4516 13.2696 10.5127 13.3784 10.6216C13.4873 10.7304 13.5484 10.8781 13.5484 11.032V15.8702H14.1289C14.2828 15.8702 14.4305 15.9314 14.5393 16.0402C14.6482 16.1491 14.7093 16.2967 14.7093 16.4507L14.7129 17.6115Z" fill="black" fill-opacity="0.2"/>
<path d="M12 0C9.62655 2.6287e-08 7.3064 0.703833 5.33298 2.02249C3.35955 3.34114 1.82148 5.21539 0.91328 7.40821C0.00508099 9.60103 -0.232455 12.0139 0.230713 14.3417C0.69388 16.6696 1.83695 18.8078 3.51535 20.4859C5.19376 22.1641 7.33213 23.3068 9.66002 23.7696C11.9879 24.2325 14.4008 23.9946 16.5934 23.086C18.7861 22.1775 20.6601 20.6392 21.9785 18.6655C23.2969 16.6919 24.0004 14.3717 24 11.9982C23.9991 8.81607 22.7344 5.76456 20.4841 3.51461C18.2338 1.26466 15.1821 0.000473392 12 0ZM12 5.32222C12.4021 5.32222 12.7951 5.44147 13.1294 5.66487C13.4636 5.88828 13.7241 6.20581 13.8779 6.57729C14.0317 6.94878 14.0718 7.35753 13.9933 7.75183C13.9147 8.14614 13.7209 8.50828 13.4365 8.79245C13.1521 9.07662 12.7898 9.27005 12.3954 9.34827C12.001 9.42649 11.5923 9.38599 11.221 9.23188C10.8496 9.07778 10.5323 8.817 10.3092 8.48253C10.0861 8.14806 9.96721 7.75493 9.96756 7.35288C9.96803 6.81415 10.1824 6.29765 10.5635 5.91688C10.9446 5.53611 11.4613 5.32222 12 5.32222ZM14.7129 17.6115C14.7129 17.7655 14.6518 17.9131 14.5429 18.022C14.434 18.1308 14.2864 18.192 14.1325 18.192H9.87112C9.71717 18.192 9.56953 18.1308 9.46068 18.022C9.35183 17.9131 9.29067 17.7655 9.29067 17.6115V16.4507C9.29067 16.2967 9.35183 16.1491 9.46068 16.0402C9.56953 15.9314 9.71717 15.8702 9.87112 15.8702H10.4516V12.7733H9.87112C9.71717 12.7733 9.56953 12.7122 9.46068 12.6033C9.35183 12.4945 9.29067 12.3468 9.29067 12.1929V11.032C9.29067 10.8781 9.35183 10.7304 9.46068 10.6216C9.56953 10.5127 9.71717 10.4516 9.87112 10.4516H12.968C13.1219 10.4516 13.2696 10.5127 13.3784 10.6216C13.4873 10.7304 13.5484 10.8781 13.5484 11.032V15.8702H14.1289C14.2828 15.8702 14.4305 15.9314 14.5393 16.0402C14.6482 16.1491 14.7093 16.2967 14.7093 16.4507L14.7129 17.6115Z" fill="black" fill-opacity="0.2"/>
<path d="M12 0C9.62655 2.6287e-08 7.3064 0.703833 5.33298 2.02249C3.35955 3.34114 1.82148 5.21539 0.91328 7.40821C0.00508099 9.60103 -0.232455 12.0139 0.230713 14.3417C0.69388 16.6696 1.83695 18.8078 3.51535 20.4859C5.19376 22.1641 7.33213 23.3068 9.66002 23.7696C11.9879 24.2325 14.4008 23.9946 16.5934 23.086C18.7861 22.1775 20.6601 20.6392 21.9785 18.6655C23.2969 16.6919 24.0004 14.3717 24 11.9982C23.9991 8.81607 22.7344 5.76456 20.4841 3.51461C18.2338 1.26466 15.1821 0.000473392 12 0ZM12 5.32222C12.4021 5.32222 12.7951 5.44147 13.1294 5.66487C13.4636 5.88828 13.7241 6.20581 13.8779 6.57729C14.0317 6.94878 14.0718 7.35753 13.9933 7.75183C13.9147 8.14614 13.7209 8.50828 13.4365 8.79245C13.1521 9.07662 12.7898 9.27005 12.3954 9.34827C12.001 9.42649 11.5923 9.38599 11.221 9.23188C10.8496 9.07778 10.5323 8.817 10.3092 8.48253C10.0861 8.14806 9.96721 7.75493 9.96756 7.35288C9.96803 6.81415 10.1824 6.29765 10.5635 5.91688C10.9446 5.53611 11.4613 5.32222 12 5.32222ZM14.7129 17.6115C14.7129 17.7655 14.6518 17.9131 14.5429 18.022C14.434 18.1308 14.2864 18.192 14.1325 18.192H9.87112C9.71717 18.192 9.56953 18.1308 9.46068 18.022C9.35183 17.9131 9.29067 17.7655 9.29067 17.6115V16.4507C9.29067 16.2967 9.35183 16.1491 9.46068 16.0402C9.56953 15.9314 9.71717 15.8702 9.87112 15.8702H10.4516V12.7733H9.87112C9.71717 12.7733 9.56953 12.7122 9.46068 12.6033C9.35183 12.4945 9.29067 12.3468 9.29067 12.1929V11.032C9.29067 10.8781 9.35183 10.7304 9.46068 10.6216C9.56953 10.5127 9.71717 10.4516 9.87112 10.4516H12.968C13.1219 10.4516 13.2696 10.5127 13.3784 10.6216C13.4873 10.7304 13.5484 10.8781 13.5484 11.032V15.8702H14.1289C14.2828 15.8702 14.4305 15.9314 14.5393 16.0402C14.6482 16.1491 14.7093 16.2967 14.7093 16.4507L14.7129 17.6115Z" fill="black" fill-opacity="0.2"/>
<path d="M12 0C9.62655 2.6287e-08 7.3064 0.703833 5.33298 2.02249C3.35955 3.34114 1.82148 5.21539 0.91328 7.40821C0.00508099 9.60103 -0.232455 12.0139 0.230713 14.3417C0.69388 16.6696 1.83695 18.8078 3.51535 20.4859C5.19376 22.1641 7.33213 23.3068 9.66002 23.7696C11.9879 24.2325 14.4008 23.9946 16.5934 23.086C18.7861 22.1775 20.6601 20.6392 21.9785 18.6655C23.2969 16.6919 24.0004 14.3717 24 11.9982C23.9991 8.81607 22.7344 5.76456 20.4841 3.51461C18.2338 1.26466 15.1821 0.000473392 12 0ZM12 5.32222C12.4021 5.32222 12.7951 5.44147 13.1294 5.66487C13.4636 5.88828 13.7241 6.20581 13.8779 6.57729C14.0317 6.94878 14.0718 7.35753 13.9933 7.75183C13.9147 8.14614 13.7209 8.50828 13.4365 8.79245C13.1521 9.07662 12.7898 9.27005 12.3954 9.34827C12.001 9.42649 11.5923 9.38599 11.221 9.23188C10.8496 9.07778 10.5323 8.817 10.3092 8.48253C10.0861 8.14806 9.96721 7.75493 9.96756 7.35288C9.96803 6.81415 10.1824 6.29765 10.5635 5.91688C10.9446 5.53611 11.4613 5.32222 12 5.32222ZM14.7129 17.6115C14.7129 17.7655 14.6518 17.9131 14.5429 18.022C14.434 18.1308 14.2864 18.192 14.1325 18.192H9.87112C9.71717 18.192 9.56953 18.1308 9.46068 18.022C9.35183 17.9131 9.29067 17.7655 9.29067 17.6115V16.4507C9.29067 16.2967 9.35183 16.1491 9.46068 16.0402C9.56953 15.9314 9.71717 15.8702 9.87112 15.8702H10.4516V12.7733H9.87112C9.71717 12.7733 9.56953 12.7122 9.46068 12.6033C9.35183 12.4945 9.29067 12.3468 9.29067 12.1929V11.032C9.29067 10.8781 9.35183 10.7304 9.46068 10.6216C9.56953 10.5127 9.71717 10.4516 9.87112 10.4516H12.968C13.1219 10.4516 13.2696 10.5127 13.3784 10.6216C13.4873 10.7304 13.5484 10.8781 13.5484 11.032V15.8702H14.1289C14.2828 15.8702 14.4305 15.9314 14.5393 16.0402C14.6482 16.1491 14.7093 16.2967 14.7093 16.4507L14.7129 17.6115Z" fill="black" fill-opacity="0.2"/>
<path d="M12 0C9.62655 2.6287e-08 7.3064 0.703833 5.33298 2.02249C3.35955 3.34114 1.82148 5.21539 0.91328 7.40821C0.00508099 9.60103 -0.232455 12.0139 0.230713 14.3417C0.69388 16.6696 1.83695 18.8078 3.51535 20.4859C5.19376 22.1641 7.33213 23.3068 9.66002 23.7696C11.9879 24.2325 14.4008 23.9946 16.5934 23.086C18.7861 22.1775 20.6601 20.6392 21.9785 18.6655C23.2969 16.6919 24.0004 14.3717 24 11.9982C23.9991 8.81607 22.7344 5.76456 20.4841 3.51461C18.2338 1.26466 15.1821 0.000473392 12 0ZM12 5.32222C12.4021 5.32222 12.7951 5.44147 13.1294 5.66487C13.4636 5.88828 13.7241 6.20581 13.8779 6.57729C14.0317 6.94878 14.0718 7.35753 13.9933 7.75183C13.9147 8.14614 13.7209 8.50828 13.4365 8.79245C13.1521 9.07662 12.7898 9.27005 12.3954 9.34827C12.001 9.42649 11.5923 9.38599 11.221 9.23188C10.8496 9.07778 10.5323 8.817 10.3092 8.48253C10.0861 8.14806 9.96721 7.75493 9.96756 7.35288C9.96803 6.81415 10.1824 6.29765 10.5635 5.91688C10.9446 5.53611 11.4613 5.32222 12 5.32222ZM14.7129 17.6115C14.7129 17.7655 14.6518 17.9131 14.5429 18.022C14.434 18.1308 14.2864 18.192 14.1325 18.192H9.87112C9.71717 18.192 9.56953 18.1308 9.46068 18.022C9.35183 17.9131 9.29067 17.7655 9.29067 17.6115V16.4507C9.29067 16.2967 9.35183 16.1491 9.46068 16.0402C9.56953 15.9314 9.71717 15.8702 9.87112 15.8702H10.4516V12.7733H9.87112C9.71717 12.7733 9.56953 12.7122 9.46068 12.6033C9.35183 12.4945 9.29067 12.3468 9.29067 12.1929V11.032C9.29067 10.8781 9.35183 10.7304 9.46068 10.6216C9.56953 10.5127 9.71717 10.4516 9.87112 10.4516H12.968C13.1219 10.4516 13.2696 10.5127 13.3784 10.6216C13.4873 10.7304 13.5484 10.8781 13.5484 11.032V15.8702H14.1289C14.2828 15.8702 14.4305 15.9314 14.5393 16.0402C14.6482 16.1491 14.7093 16.2967 14.7093 16.4507L14.7129 17.6115Z" fill="black" fill-opacity="0.2"/>
<path d="M12 0C9.62655 2.6287e-08 7.3064 0.703833 5.33298 2.02249C3.35955 3.34114 1.82148 5.21539 0.91328 7.40821C0.00508099 9.60103 -0.232455 12.0139 0.230713 14.3417C0.69388 16.6696 1.83695 18.8078 3.51535 20.4859C5.19376 22.1641 7.33213 23.3068 9.66002 23.7696C11.9879 24.2325 14.4008 23.9946 16.5934 23.086C18.7861 22.1775 20.6601 20.6392 21.9785 18.6655C23.2969 16.6919 24.0004 14.3717 24 11.9982C23.9991 8.81607 22.7344 5.76456 20.4841 3.51461C18.2338 1.26466 15.1821 0.000473392 12 0ZM12 5.32222C12.4021 5.32222 12.7951 5.44147 13.1294 5.66487C13.4636 5.88828 13.7241 6.20581 13.8779 6.57729C14.0317 6.94878 14.0718 7.35753 13.9933 7.75183C13.9147 8.14614 13.7209 8.50828 13.4365 8.79245C13.1521 9.07662 12.7898 9.27005 12.3954 9.34827C12.001 9.42649 11.5923 9.38599 11.221 9.23188C10.8496 9.07778 10.5323 8.817 10.3092 8.48253C10.0861 8.14806 9.96721 7.75493 9.96756 7.35288C9.96803 6.81415 10.1824 6.29765 10.5635 5.91688C10.9446 5.53611 11.4613 5.32222 12 5.32222ZM14.7129 17.6115C14.7129 17.7655 14.6518 17.9131 14.5429 18.022C14.434 18.1308 14.2864 18.192 14.1325 18.192H9.87112C9.71717 18.192 9.56953 18.1308 9.46068 18.022C9.35183 17.9131 9.29067 17.7655 9.29067 17.6115V16.4507C9.29067 16.2967 9.35183 16.1491 9.46068 16.0402C9.56953 15.9314 9.71717 15.8702 9.87112 15.8702H10.4516V12.7733H9.87112C9.71717 12.7733 9.56953 12.7122 9.46068 12.6033C9.35183 12.4945 9.29067 12.3468 9.29067 12.1929V11.032C9.29067 10.8781 9.35183 10.7304 9.46068 10.6216C9.56953 10.5127 9.71717 10.4516 9.87112 10.4516H12.968C13.1219 10.4516 13.2696 10.5127 13.3784 10.6216C13.4873 10.7304 13.5484 10.8781 13.5484 11.032V15.8702H14.1289C14.2828 15.8702 14.4305 15.9314 14.5393 16.0402C14.6482 16.1491 14.7093 16.2967 14.7093 16.4507L14.7129 17.6115Z" fill="black" fill-opacity="0.2"/>
<path d="M12 0C9.62655 2.6287e-08 7.3064 0.703833 5.33298 2.02249C3.35955 3.34114 1.82148 5.21539 0.91328 7.40821C0.00508099 9.60103 -0.232455 12.0139 0.230713 14.3417C0.69388 16.6696 1.83695 18.8078 3.51535 20.4859C5.19376 22.1641 7.33213 23.3068 9.66002 23.7696C11.9879 24.2325 14.4008 23.9946 16.5934 23.086C18.7861 22.1775 20.6601 20.6392 21.9785 18.6655C23.2969 16.6919 24.0004 14.3717 24 11.9982C23.9991 8.81607 22.7344 5.76456 20.4841 3.51461C18.2338 1.26466 15.1821 0.000473392 12 0ZM12 5.32222C12.4021 5.32222 12.7951 5.44147 13.1294 5.66487C13.4636 5.88828 13.7241 6.20581 13.8779 6.57729C14.0317 6.94878 14.0718 7.35753 13.9933 7.75183C13.9147 8.14614 13.7209 8.50828 13.4365 8.79245C13.1521 9.07662 12.7898 9.27005 12.3954 9.34827C12.001 9.42649 11.5923 9.38599 11.221 9.23188C10.8496 9.07778 10.5323 8.817 10.3092 8.48253C10.0861 8.14806 9.96721 7.75493 9.96756 7.35288C9.96803 6.81415 10.1824 6.29765 10.5635 5.91688C10.9446 5.53611 11.4613 5.32222 12 5.32222ZM14.7129 17.6115C14.7129 17.7655 14.6518 17.9131 14.5429 18.022C14.434 18.1308 14.2864 18.192 14.1325 18.192H9.87112C9.71717 18.192 9.56953 18.1308 9.46068 18.022C9.35183 17.9131 9.29067 17.7655 9.29067 17.6115V16.4507C9.29067 16.2967 9.35183 16.1491 9.46068 16.0402C9.56953 15.9314 9.71717 15.8702 9.87112 15.8702H10.4516V12.7733H9.87112C9.71717 12.7733 9.56953 12.7122 9.46068 12.6033C9.35183 12.4945 9.29067 12.3468 9.29067 12.1929V11.032C9.29067 10.8781 9.35183 10.7304 9.46068 10.6216C9.56953 10.5127 9.71717 10.4516 9.87112 10.4516H12.968C13.1219 10.4516 13.2696 10.5127 13.3784 10.6216C13.4873 10.7304 13.5484 10.8781 13.5484 11.032V15.8702H14.1289C14.2828 15.8702 14.4305 15.9314 14.5393 16.0402C14.6482 16.1491 14.7093 16.2967 14.7093 16.4507L14.7129 17.6115Z" fill="black" fill-opacity="0.2"/>
</g>
<defs>
<clipPath id="clip0_365_1053">
<rect width="24" height="24" fill="white"/>
</clipPath>
</defs>
</svg>
