<svg width="24" height="24" viewBox="0 0 24 24" fill="none" xmlns="http://www.w3.org/2000/svg">
<path fill-rule="evenodd" clip-rule="evenodd" d="M0.999988 1.29999C0.613388 1.29999 0.299988 1.61339 0.299988 1.99999C0.299988 2.38659 0.613388 2.69999 0.999988 2.69999H4.26317L5.11567 7.2571C5.11721 7.26641 5.11894 7.27565 5.12085 7.28483L6.73026 15.8881C6.8293 16.5071 7.14416 17.0713 7.6193 17.4807C8.09735 17.8926 8.70642 18.1208 9.33741 18.1244L9.3415 18.1245H18.6828L18.6867 18.1244C19.3178 18.1209 19.9271 17.8928 20.4053 17.4809C20.8814 17.0709 21.1966 16.5053 21.2951 15.8849L22.8318 7.26432C22.8682 7.06039 22.8123 6.85084 22.6793 6.69203C22.5463 6.53322 22.3498 6.44148 22.1427 6.44148H6.38738L5.53243 1.87127C5.47047 1.54006 5.18133 1.29999 4.84437 1.29999H0.999988ZM8.10821 15.6404L6.64927 7.84148H21.3069L19.9156 15.6463L19.913 15.6615C19.8672 15.9564 19.7178 16.2254 19.4916 16.4202C19.2659 16.6145 18.9785 16.7224 18.6807 16.7245H9.3437C9.04598 16.7223 8.75869 16.6144 8.5331 16.42C8.30703 16.2253 8.15769 15.9564 8.11183 15.6615C8.11073 15.6545 8.10952 15.6474 8.10821 15.6404ZM8.63756 21.2963C8.61916 21.2963 8.60117 21.3017 8.58586 21.3119C8.57055 21.3221 8.55862 21.3367 8.55157 21.3536C8.54452 21.3706 8.54267 21.3893 8.54625 21.4074C8.54983 21.4254 8.55869 21.442 8.57169 21.455C8.5847 21.4681 8.60127 21.4769 8.61932 21.4805C8.63736 21.4841 8.65607 21.4823 8.67307 21.4752C8.69007 21.4682 8.70461 21.4563 8.71483 21.441C8.72505 21.4257 8.73051 21.4077 8.73051 21.3893C8.73051 21.3646 8.72072 21.341 8.70329 21.3235C8.68586 21.3061 8.66222 21.2963 8.63756 21.2963ZM7.80878 20.1474C8.05444 19.9835 8.3432 19.8961 8.63854 19.8963C9.03433 19.8965 9.41382 20.054 9.69359 20.3339C9.97335 20.6139 10.1305 20.9935 10.1305 21.3893C10.1305 21.6846 10.0429 21.9733 9.87882 22.2189C9.71471 22.4644 9.48147 22.6558 9.2086 22.7688C8.93573 22.8817 8.63548 22.9112 8.34583 22.8535C8.05618 22.7959 7.79015 22.6535 7.58139 22.4446C7.37263 22.2357 7.23052 21.9696 7.17303 21.6799C7.11554 21.3902 7.14526 21.09 7.25842 20.8172C7.37159 20.5444 7.56312 20.3113 7.80878 20.1474ZM19.7639 21.2963C19.7455 21.2963 19.7275 21.3017 19.7122 21.3119C19.6969 21.3221 19.6849 21.3367 19.6779 21.3536C19.6708 21.3706 19.669 21.3893 19.6726 21.4074C19.6761 21.4254 19.685 21.442 19.698 21.455C19.711 21.4681 19.7276 21.4769 19.7456 21.4805C19.7637 21.4841 19.7824 21.4823 19.7994 21.4752C19.8164 21.4682 19.8309 21.4563 19.8411 21.441C19.8514 21.4257 19.8568 21.4077 19.8568 21.3893C19.8568 21.3646 19.847 21.341 19.8296 21.3235C19.8122 21.3061 19.7885 21.2963 19.7639 21.2963ZM18.9351 20.1474C19.1808 19.9834 19.4695 19.8961 19.7649 19.8963C20.1606 19.8965 20.5401 20.054 20.8199 20.3339C21.0997 20.6139 21.2568 20.9935 21.2568 21.3893C21.2568 21.6846 21.1692 21.9733 21.0051 22.2189C20.841 22.4644 20.6078 22.6558 20.3349 22.7688C20.062 22.8817 19.7618 22.9112 19.4721 22.8535C19.1825 22.7959 18.9165 22.6535 18.7077 22.4446C18.4989 22.2357 18.3568 21.9696 18.2993 21.6799C18.2419 21.3902 18.2716 21.09 18.3847 20.8172C18.4979 20.5444 18.6894 20.3113 18.9351 20.1474Z" fill="black"/>
<path fill-rule="evenodd" clip-rule="evenodd" d="M0.999988 1.29999C0.613388 1.29999 0.299988 1.61339 0.299988 1.99999C0.299988 2.38659 0.613388 2.69999 0.999988 2.69999H4.26317L5.11567 7.2571C5.11721 7.26641 5.11894 7.27565 5.12085 7.28483L6.73026 15.8881C6.8293 16.5071 7.14416 17.0713 7.6193 17.4807C8.09735 17.8926 8.70642 18.1208 9.33741 18.1244L9.3415 18.1245H18.6828L18.6867 18.1244C19.3178 18.1209 19.9271 17.8928 20.4053 17.4809C20.8814 17.0709 21.1966 16.5053 21.2951 15.8849L22.8318 7.26432C22.8682 7.06039 22.8123 6.85084 22.6793 6.69203C22.5463 6.53322 22.3498 6.44148 22.1427 6.44148H6.38738L5.53243 1.87127C5.47047 1.54006 5.18133 1.29999 4.84437 1.29999H0.999988ZM8.10821 15.6404L6.64927 7.84148H21.3069L19.9156 15.6463L19.913 15.6615C19.8672 15.9564 19.7178 16.2254 19.4916 16.4202C19.2659 16.6145 18.9785 16.7224 18.6807 16.7245H9.3437C9.04598 16.7223 8.75869 16.6144 8.5331 16.42C8.30703 16.2253 8.15769 15.9564 8.11183 15.6615C8.11073 15.6545 8.10952 15.6474 8.10821 15.6404ZM8.63756 21.2963C8.61916 21.2963 8.60117 21.3017 8.58586 21.3119C8.57055 21.3221 8.55862 21.3367 8.55157 21.3536C8.54452 21.3706 8.54267 21.3893 8.54625 21.4074C8.54983 21.4254 8.55869 21.442 8.57169 21.455C8.5847 21.4681 8.60127 21.4769 8.61932 21.4805C8.63736 21.4841 8.65607 21.4823 8.67307 21.4752C8.69007 21.4682 8.70461 21.4563 8.71483 21.441C8.72505 21.4257 8.73051 21.4077 8.73051 21.3893C8.73051 21.3646 8.72072 21.341 8.70329 21.3235C8.68586 21.3061 8.66222 21.2963 8.63756 21.2963ZM7.80878 20.1474C8.05444 19.9835 8.3432 19.8961 8.63854 19.8963C9.03433 19.8965 9.41382 20.054 9.69359 20.3339C9.97335 20.6139 10.1305 20.9935 10.1305 21.3893C10.1305 21.6846 10.0429 21.9733 9.87882 22.2189C9.71471 22.4644 9.48147 22.6558 9.2086 22.7688C8.93573 22.8817 8.63548 22.9112 8.34583 22.8535C8.05618 22.7959 7.79015 22.6535 7.58139 22.4446C7.37263 22.2357 7.23052 21.9696 7.17303 21.6799C7.11554 21.3902 7.14526 21.09 7.25842 20.8172C7.37159 20.5444 7.56312 20.3113 7.80878 20.1474ZM19.7639 21.2963C19.7455 21.2963 19.7275 21.3017 19.7122 21.3119C19.6969 21.3221 19.6849 21.3367 19.6779 21.3536C19.6708 21.3706 19.669 21.3893 19.6726 21.4074C19.6761 21.4254 19.685 21.442 19.698 21.455C19.711 21.4681 19.7276 21.4769 19.7456 21.4805C19.7637 21.4841 19.7824 21.4823 19.7994 21.4752C19.8164 21.4682 19.8309 21.4563 19.8411 21.441C19.8514 21.4257 19.8568 21.4077 19.8568 21.3893C19.8568 21.3646 19.847 21.341 19.8296 21.3235C19.8122 21.3061 19.7885 21.2963 19.7639 21.2963ZM18.9351 20.1474C19.1808 19.9834 19.4695 19.8961 19.7649 19.8963C20.1606 19.8965 20.5401 20.054 20.8199 20.3339C21.0997 20.6139 21.2568 20.9935 21.2568 21.3893C21.2568 21.6846 21.1692 21.9733 21.0051 22.2189C20.841 22.4644 20.6078 22.6558 20.3349 22.7688C20.062 22.8817 19.7618 22.9112 19.4721 22.8535C19.1825 22.7959 18.9165 22.6535 18.7077 22.4446C18.4989 22.2357 18.3568 21.9696 18.2993 21.6799C18.2419 21.3902 18.2716 21.09 18.3847 20.8172C18.4979 20.5444 18.6894 20.3113 18.9351 20.1474Z" fill="black" fill-opacity="0.2"/>
<path fill-rule="evenodd" clip-rule="evenodd" d="M0.999988 1.29999C0.613388 1.29999 0.299988 1.61339 0.299988 1.99999C0.299988 2.38659 0.613388 2.69999 0.999988 2.69999H4.26317L5.11567 7.2571C5.11721 7.26641 5.11894 7.27565 5.12085 7.28483L6.73026 15.8881C6.8293 16.5071 7.14416 17.0713 7.6193 17.4807C8.09735 17.8926 8.70642 18.1208 9.33741 18.1244L9.3415 18.1245H18.6828L18.6867 18.1244C19.3178 18.1209 19.9271 17.8928 20.4053 17.4809C20.8814 17.0709 21.1966 16.5053 21.2951 15.8849L22.8318 7.26432C22.8682 7.06039 22.8123 6.85084 22.6793 6.69203C22.5463 6.53322 22.3498 6.44148 22.1427 6.44148H6.38738L5.53243 1.87127C5.47047 1.54006 5.18133 1.29999 4.84437 1.29999H0.999988ZM8.10821 15.6404L6.64927 7.84148H21.3069L19.9156 15.6463L19.913 15.6615C19.8672 15.9564 19.7178 16.2254 19.4916 16.4202C19.2659 16.6145 18.9785 16.7224 18.6807 16.7245H9.3437C9.04598 16.7223 8.75869 16.6144 8.5331 16.42C8.30703 16.2253 8.15769 15.9564 8.11183 15.6615C8.11073 15.6545 8.10952 15.6474 8.10821 15.6404ZM8.63756 21.2963C8.61916 21.2963 8.60117 21.3017 8.58586 21.3119C8.57055 21.3221 8.55862 21.3367 8.55157 21.3536C8.54452 21.3706 8.54267 21.3893 8.54625 21.4074C8.54983 21.4254 8.55869 21.442 8.57169 21.455C8.5847 21.4681 8.60127 21.4769 8.61932 21.4805C8.63736 21.4841 8.65607 21.4823 8.67307 21.4752C8.69007 21.4682 8.70461 21.4563 8.71483 21.441C8.72505 21.4257 8.73051 21.4077 8.73051 21.3893C8.73051 21.3646 8.72072 21.341 8.70329 21.3235C8.68586 21.3061 8.66222 21.2963 8.63756 21.2963ZM7.80878 20.1474C8.05444 19.9835 8.3432 19.8961 8.63854 19.8963C9.03433 19.8965 9.41382 20.054 9.69359 20.3339C9.97335 20.6139 10.1305 20.9935 10.1305 21.3893C10.1305 21.6846 10.0429 21.9733 9.87882 22.2189C9.71471 22.4644 9.48147 22.6558 9.2086 22.7688C8.93573 22.8817 8.63548 22.9112 8.34583 22.8535C8.05618 22.7959 7.79015 22.6535 7.58139 22.4446C7.37263 22.2357 7.23052 21.9696 7.17303 21.6799C7.11554 21.3902 7.14526 21.09 7.25842 20.8172C7.37159 20.5444 7.56312 20.3113 7.80878 20.1474ZM19.7639 21.2963C19.7455 21.2963 19.7275 21.3017 19.7122 21.3119C19.6969 21.3221 19.6849 21.3367 19.6779 21.3536C19.6708 21.3706 19.669 21.3893 19.6726 21.4074C19.6761 21.4254 19.685 21.442 19.698 21.455C19.711 21.4681 19.7276 21.4769 19.7456 21.4805C19.7637 21.4841 19.7824 21.4823 19.7994 21.4752C19.8164 21.4682 19.8309 21.4563 19.8411 21.441C19.8514 21.4257 19.8568 21.4077 19.8568 21.3893C19.8568 21.3646 19.847 21.341 19.8296 21.3235C19.8122 21.3061 19.7885 21.2963 19.7639 21.2963ZM18.9351 20.1474C19.1808 19.9834 19.4695 19.8961 19.7649 19.8963C20.1606 19.8965 20.5401 20.054 20.8199 20.3339C21.0997 20.6139 21.2568 20.9935 21.2568 21.3893C21.2568 21.6846 21.1692 21.9733 21.0051 22.2189C20.841 22.4644 20.6078 22.6558 20.3349 22.7688C20.062 22.8817 19.7618 22.9112 19.4721 22.8535C19.1825 22.7959 18.9165 22.6535 18.7077 22.4446C18.4989 22.2357 18.3568 21.9696 18.2993 21.6799C18.2419 21.3902 18.2716 21.09 18.3847 20.8172C18.4979 20.5444 18.6894 20.3113 18.9351 20.1474Z" fill="black" fill-opacity="0.2"/>
<path fill-rule="evenodd" clip-rule="evenodd" d="M0.999988 1.29999C0.613388 1.29999 0.299988 1.61339 0.299988 1.99999C0.299988 2.38659 0.613388 2.69999 0.999988 2.69999H4.26317L5.11567 7.2571C5.11721 7.26641 5.11894 7.27565 5.12085 7.28483L6.73026 15.8881C6.8293 16.5071 7.14416 17.0713 7.6193 17.4807C8.09735 17.8926 8.70642 18.1208 9.33741 18.1244L9.3415 18.1245H18.6828L18.6867 18.1244C19.3178 18.1209 19.9271 17.8928 20.4053 17.4809C20.8814 17.0709 21.1966 16.5053 21.2951 15.8849L22.8318 7.26432C22.8682 7.06039 22.8123 6.85084 22.6793 6.69203C22.5463 6.53322 22.3498 6.44148 22.1427 6.44148H6.38738L5.53243 1.87127C5.47047 1.54006 5.18133 1.29999 4.84437 1.29999H0.999988ZM8.10821 15.6404L6.64927 7.84148H21.3069L19.9156 15.6463L19.913 15.6615C19.8672 15.9564 19.7178 16.2254 19.4916 16.4202C19.2659 16.6145 18.9785 16.7224 18.6807 16.7245H9.3437C9.04598 16.7223 8.75869 16.6144 8.5331 16.42C8.30703 16.2253 8.15769 15.9564 8.11183 15.6615C8.11073 15.6545 8.10952 15.6474 8.10821 15.6404ZM8.63756 21.2963C8.61916 21.2963 8.60117 21.3017 8.58586 21.3119C8.57055 21.3221 8.55862 21.3367 8.55157 21.3536C8.54452 21.3706 8.54267 21.3893 8.54625 21.4074C8.54983 21.4254 8.55869 21.442 8.57169 21.455C8.5847 21.4681 8.60127 21.4769 8.61932 21.4805C8.63736 21.4841 8.65607 21.4823 8.67307 21.4752C8.69007 21.4682 8.70461 21.4563 8.71483 21.441C8.72505 21.4257 8.73051 21.4077 8.73051 21.3893C8.73051 21.3646 8.72072 21.341 8.70329 21.3235C8.68586 21.3061 8.66222 21.2963 8.63756 21.2963ZM7.80878 20.1474C8.05444 19.9835 8.3432 19.8961 8.63854 19.8963C9.03433 19.8965 9.41382 20.054 9.69359 20.3339C9.97335 20.6139 10.1305 20.9935 10.1305 21.3893C10.1305 21.6846 10.0429 21.9733 9.87882 22.2189C9.71471 22.4644 9.48147 22.6558 9.2086 22.7688C8.93573 22.8817 8.63548 22.9112 8.34583 22.8535C8.05618 22.7959 7.79015 22.6535 7.58139 22.4446C7.37263 22.2357 7.23052 21.9696 7.17303 21.6799C7.11554 21.3902 7.14526 21.09 7.25842 20.8172C7.37159 20.5444 7.56312 20.3113 7.80878 20.1474ZM19.7639 21.2963C19.7455 21.2963 19.7275 21.3017 19.7122 21.3119C19.6969 21.3221 19.6849 21.3367 19.6779 21.3536C19.6708 21.3706 19.669 21.3893 19.6726 21.4074C19.6761 21.4254 19.685 21.442 19.698 21.455C19.711 21.4681 19.7276 21.4769 19.7456 21.4805C19.7637 21.4841 19.7824 21.4823 19.7994 21.4752C19.8164 21.4682 19.8309 21.4563 19.8411 21.441C19.8514 21.4257 19.8568 21.4077 19.8568 21.3893C19.8568 21.3646 19.847 21.341 19.8296 21.3235C19.8122 21.3061 19.7885 21.2963 19.7639 21.2963ZM18.9351 20.1474C19.1808 19.9834 19.4695 19.8961 19.7649 19.8963C20.1606 19.8965 20.5401 20.054 20.8199 20.3339C21.0997 20.6139 21.2568 20.9935 21.2568 21.3893C21.2568 21.6846 21.1692 21.9733 21.0051 22.2189C20.841 22.4644 20.6078 22.6558 20.3349 22.7688C20.062 22.8817 19.7618 22.9112 19.4721 22.8535C19.1825 22.7959 18.9165 22.6535 18.7077 22.4446C18.4989 22.2357 18.3568 21.9696 18.2993 21.6799C18.2419 21.3902 18.2716 21.09 18.3847 20.8172C18.4979 20.5444 18.6894 20.3113 18.9351 20.1474Z" fill="black" fill-opacity="0.2"/>
<path fill-rule="evenodd" clip-rule="evenodd" d="M0.999988 1.29999C0.613388 1.29999 0.299988 1.61339 0.299988 1.99999C0.299988 2.38659 0.613388 2.69999 0.999988 2.69999H4.26317L5.11567 7.2571C5.11721 7.26641 5.11894 7.27565 5.12085 7.28483L6.73026 15.8881C6.8293 16.5071 7.14416 17.0713 7.6193 17.4807C8.09735 17.8926 8.70642 18.1208 9.33741 18.1244L9.3415 18.1245H18.6828L18.6867 18.1244C19.3178 18.1209 19.9271 17.8928 20.4053 17.4809C20.8814 17.0709 21.1966 16.5053 21.2951 15.8849L22.8318 7.26432C22.8682 7.06039 22.8123 6.85084 22.6793 6.69203C22.5463 6.53322 22.3498 6.44148 22.1427 6.44148H6.38738L5.53243 1.87127C5.47047 1.54006 5.18133 1.29999 4.84437 1.29999H0.999988ZM8.10821 15.6404L6.64927 7.84148H21.3069L19.9156 15.6463L19.913 15.6615C19.8672 15.9564 19.7178 16.2254 19.4916 16.4202C19.2659 16.6145 18.9785 16.7224 18.6807 16.7245H9.3437C9.04598 16.7223 8.75869 16.6144 8.5331 16.42C8.30703 16.2253 8.15769 15.9564 8.11183 15.6615C8.11073 15.6545 8.10952 15.6474 8.10821 15.6404ZM8.63756 21.2963C8.61916 21.2963 8.60117 21.3017 8.58586 21.3119C8.57055 21.3221 8.55862 21.3367 8.55157 21.3536C8.54452 21.3706 8.54267 21.3893 8.54625 21.4074C8.54983 21.4254 8.55869 21.442 8.57169 21.455C8.5847 21.4681 8.60127 21.4769 8.61932 21.4805C8.63736 21.4841 8.65607 21.4823 8.67307 21.4752C8.69007 21.4682 8.70461 21.4563 8.71483 21.441C8.72505 21.4257 8.73051 21.4077 8.73051 21.3893C8.73051 21.3646 8.72072 21.341 8.70329 21.3235C8.68586 21.3061 8.66222 21.2963 8.63756 21.2963ZM7.80878 20.1474C8.05444 19.9835 8.3432 19.8961 8.63854 19.8963C9.03433 19.8965 9.41382 20.054 9.69359 20.3339C9.97335 20.6139 10.1305 20.9935 10.1305 21.3893C10.1305 21.6846 10.0429 21.9733 9.87882 22.2189C9.71471 22.4644 9.48147 22.6558 9.2086 22.7688C8.93573 22.8817 8.63548 22.9112 8.34583 22.8535C8.05618 22.7959 7.79015 22.6535 7.58139 22.4446C7.37263 22.2357 7.23052 21.9696 7.17303 21.6799C7.11554 21.3902 7.14526 21.09 7.25842 20.8172C7.37159 20.5444 7.56312 20.3113 7.80878 20.1474ZM19.7639 21.2963C19.7455 21.2963 19.7275 21.3017 19.7122 21.3119C19.6969 21.3221 19.6849 21.3367 19.6779 21.3536C19.6708 21.3706 19.669 21.3893 19.6726 21.4074C19.6761 21.4254 19.685 21.442 19.698 21.455C19.711 21.4681 19.7276 21.4769 19.7456 21.4805C19.7637 21.4841 19.7824 21.4823 19.7994 21.4752C19.8164 21.4682 19.8309 21.4563 19.8411 21.441C19.8514 21.4257 19.8568 21.4077 19.8568 21.3893C19.8568 21.3646 19.847 21.341 19.8296 21.3235C19.8122 21.3061 19.7885 21.2963 19.7639 21.2963ZM18.9351 20.1474C19.1808 19.9834 19.4695 19.8961 19.7649 19.8963C20.1606 19.8965 20.5401 20.054 20.8199 20.3339C21.0997 20.6139 21.2568 20.9935 21.2568 21.3893C21.2568 21.6846 21.1692 21.9733 21.0051 22.2189C20.841 22.4644 20.6078 22.6558 20.3349 22.7688C20.062 22.8817 19.7618 22.9112 19.4721 22.8535C19.1825 22.7959 18.9165 22.6535 18.7077 22.4446C18.4989 22.2357 18.3568 21.9696 18.2993 21.6799C18.2419 21.3902 18.2716 21.09 18.3847 20.8172C18.4979 20.5444 18.6894 20.3113 18.9351 20.1474Z" fill="black" fill-opacity="0.2"/>
<path fill-rule="evenodd" clip-rule="evenodd" d="M0.999988 1.29999C0.613388 1.29999 0.299988 1.61339 0.299988 1.99999C0.299988 2.38659 0.613388 2.69999 0.999988 2.69999H4.26317L5.11567 7.2571C5.11721 7.26641 5.11894 7.27565 5.12085 7.28483L6.73026 15.8881C6.8293 16.5071 7.14416 17.0713 7.6193 17.4807C8.09735 17.8926 8.70642 18.1208 9.33741 18.1244L9.3415 18.1245H18.6828L18.6867 18.1244C19.3178 18.1209 19.9271 17.8928 20.4053 17.4809C20.8814 17.0709 21.1966 16.5053 21.2951 15.8849L22.8318 7.26432C22.8682 7.06039 22.8123 6.85084 22.6793 6.69203C22.5463 6.53322 22.3498 6.44148 22.1427 6.44148H6.38738L5.53243 1.87127C5.47047 1.54006 5.18133 1.29999 4.84437 1.29999H0.999988ZM8.10821 15.6404L6.64927 7.84148H21.3069L19.9156 15.6463L19.913 15.6615C19.8672 15.9564 19.7178 16.2254 19.4916 16.4202C19.2659 16.6145 18.9785 16.7224 18.6807 16.7245H9.3437C9.04598 16.7223 8.75869 16.6144 8.5331 16.42C8.30703 16.2253 8.15769 15.9564 8.11183 15.6615C8.11073 15.6545 8.10952 15.6474 8.10821 15.6404ZM8.63756 21.2963C8.61916 21.2963 8.60117 21.3017 8.58586 21.3119C8.57055 21.3221 8.55862 21.3367 8.55157 21.3536C8.54452 21.3706 8.54267 21.3893 8.54625 21.4074C8.54983 21.4254 8.55869 21.442 8.57169 21.455C8.5847 21.4681 8.60127 21.4769 8.61932 21.4805C8.63736 21.4841 8.65607 21.4823 8.67307 21.4752C8.69007 21.4682 8.70461 21.4563 8.71483 21.441C8.72505 21.4257 8.73051 21.4077 8.73051 21.3893C8.73051 21.3646 8.72072 21.341 8.70329 21.3235C8.68586 21.3061 8.66222 21.2963 8.63756 21.2963ZM7.80878 20.1474C8.05444 19.9835 8.3432 19.8961 8.63854 19.8963C9.03433 19.8965 9.41382 20.054 9.69359 20.3339C9.97335 20.6139 10.1305 20.9935 10.1305 21.3893C10.1305 21.6846 10.0429 21.9733 9.87882 22.2189C9.71471 22.4644 9.48147 22.6558 9.2086 22.7688C8.93573 22.8817 8.63548 22.9112 8.34583 22.8535C8.05618 22.7959 7.79015 22.6535 7.58139 22.4446C7.37263 22.2357 7.23052 21.9696 7.17303 21.6799C7.11554 21.3902 7.14526 21.09 7.25842 20.8172C7.37159 20.5444 7.56312 20.3113 7.80878 20.1474ZM19.7639 21.2963C19.7455 21.2963 19.7275 21.3017 19.7122 21.3119C19.6969 21.3221 19.6849 21.3367 19.6779 21.3536C19.6708 21.3706 19.669 21.3893 19.6726 21.4074C19.6761 21.4254 19.685 21.442 19.698 21.455C19.711 21.4681 19.7276 21.4769 19.7456 21.4805C19.7637 21.4841 19.7824 21.4823 19.7994 21.4752C19.8164 21.4682 19.8309 21.4563 19.8411 21.441C19.8514 21.4257 19.8568 21.4077 19.8568 21.3893C19.8568 21.3646 19.847 21.341 19.8296 21.3235C19.8122 21.3061 19.7885 21.2963 19.7639 21.2963ZM18.9351 20.1474C19.1808 19.9834 19.4695 19.8961 19.7649 19.8963C20.1606 19.8965 20.5401 20.054 20.8199 20.3339C21.0997 20.6139 21.2568 20.9935 21.2568 21.3893C21.2568 21.6846 21.1692 21.9733 21.0051 22.2189C20.841 22.4644 20.6078 22.6558 20.3349 22.7688C20.062 22.8817 19.7618 22.9112 19.4721 22.8535C19.1825 22.7959 18.9165 22.6535 18.7077 22.4446C18.4989 22.2357 18.3568 21.9696 18.2993 21.6799C18.2419 21.3902 18.2716 21.09 18.3847 20.8172C18.4979 20.5444 18.6894 20.3113 18.9351 20.1474Z" fill="black" fill-opacity="0.2"/>
<path fill-rule="evenodd" clip-rule="evenodd" d="M0.999988 1.29999C0.613388 1.29999 0.299988 1.61339 0.299988 1.99999C0.299988 2.38659 0.613388 2.69999 0.999988 2.69999H4.26317L5.11567 7.2571C5.11721 7.26641 5.11894 7.27565 5.12085 7.28483L6.73026 15.8881C6.8293 16.5071 7.14416 17.0713 7.6193 17.4807C8.09735 17.8926 8.70642 18.1208 9.33741 18.1244L9.3415 18.1245H18.6828L18.6867 18.1244C19.3178 18.1209 19.9271 17.8928 20.4053 17.4809C20.8814 17.0709 21.1966 16.5053 21.2951 15.8849L22.8318 7.26432C22.8682 7.06039 22.8123 6.85084 22.6793 6.69203C22.5463 6.53322 22.3498 6.44148 22.1427 6.44148H6.38738L5.53243 1.87127C5.47047 1.54006 5.18133 1.29999 4.84437 1.29999H0.999988ZM8.10821 15.6404L6.64927 7.84148H21.3069L19.9156 15.6463L19.913 15.6615C19.8672 15.9564 19.7178 16.2254 19.4916 16.4202C19.2659 16.6145 18.9785 16.7224 18.6807 16.7245H9.3437C9.04598 16.7223 8.75869 16.6144 8.5331 16.42C8.30703 16.2253 8.15769 15.9564 8.11183 15.6615C8.11073 15.6545 8.10952 15.6474 8.10821 15.6404ZM8.63756 21.2963C8.61916 21.2963 8.60117 21.3017 8.58586 21.3119C8.57055 21.3221 8.55862 21.3367 8.55157 21.3536C8.54452 21.3706 8.54267 21.3893 8.54625 21.4074C8.54983 21.4254 8.55869 21.442 8.57169 21.455C8.5847 21.4681 8.60127 21.4769 8.61932 21.4805C8.63736 21.4841 8.65607 21.4823 8.67307 21.4752C8.69007 21.4682 8.70461 21.4563 8.71483 21.441C8.72505 21.4257 8.73051 21.4077 8.73051 21.3893C8.73051 21.3646 8.72072 21.341 8.70329 21.3235C8.68586 21.3061 8.66222 21.2963 8.63756 21.2963ZM7.80878 20.1474C8.05444 19.9835 8.3432 19.8961 8.63854 19.8963C9.03433 19.8965 9.41382 20.054 9.69359 20.3339C9.97335 20.6139 10.1305 20.9935 10.1305 21.3893C10.1305 21.6846 10.0429 21.9733 9.87882 22.2189C9.71471 22.4644 9.48147 22.6558 9.2086 22.7688C8.93573 22.8817 8.63548 22.9112 8.34583 22.8535C8.05618 22.7959 7.79015 22.6535 7.58139 22.4446C7.37263 22.2357 7.23052 21.9696 7.17303 21.6799C7.11554 21.3902 7.14526 21.09 7.25842 20.8172C7.37159 20.5444 7.56312 20.3113 7.80878 20.1474ZM19.7639 21.2963C19.7455 21.2963 19.7275 21.3017 19.7122 21.3119C19.6969 21.3221 19.6849 21.3367 19.6779 21.3536C19.6708 21.3706 19.669 21.3893 19.6726 21.4074C19.6761 21.4254 19.685 21.442 19.698 21.455C19.711 21.4681 19.7276 21.4769 19.7456 21.4805C19.7637 21.4841 19.7824 21.4823 19.7994 21.4752C19.8164 21.4682 19.8309 21.4563 19.8411 21.441C19.8514 21.4257 19.8568 21.4077 19.8568 21.3893C19.8568 21.3646 19.847 21.341 19.8296 21.3235C19.8122 21.3061 19.7885 21.2963 19.7639 21.2963ZM18.9351 20.1474C19.1808 19.9834 19.4695 19.8961 19.7649 19.8963C20.1606 19.8965 20.5401 20.054 20.8199 20.3339C21.0997 20.6139 21.2568 20.9935 21.2568 21.3893C21.2568 21.6846 21.1692 21.9733 21.0051 22.2189C20.841 22.4644 20.6078 22.6558 20.3349 22.7688C20.062 22.8817 19.7618 22.9112 19.4721 22.8535C19.1825 22.7959 18.9165 22.6535 18.7077 22.4446C18.4989 22.2357 18.3568 21.9696 18.2993 21.6799C18.2419 21.3902 18.2716 21.09 18.3847 20.8172C18.4979 20.5444 18.6894 20.3113 18.9351 20.1474Z" fill="black" fill-opacity="0.2"/>
<path fill-rule="evenodd" clip-rule="evenodd" d="M0.999988 1.29999C0.613388 1.29999 0.299988 1.61339 0.299988 1.99999C0.299988 2.38659 0.613388 2.69999 0.999988 2.69999H4.26317L5.11567 7.2571C5.11721 7.26641 5.11894 7.27565 5.12085 7.28483L6.73026 15.8881C6.8293 16.5071 7.14416 17.0713 7.6193 17.4807C8.09735 17.8926 8.70642 18.1208 9.33741 18.1244L9.3415 18.1245H18.6828L18.6867 18.1244C19.3178 18.1209 19.9271 17.8928 20.4053 17.4809C20.8814 17.0709 21.1966 16.5053 21.2951 15.8849L22.8318 7.26432C22.8682 7.06039 22.8123 6.85084 22.6793 6.69203C22.5463 6.53322 22.3498 6.44148 22.1427 6.44148H6.38738L5.53243 1.87127C5.47047 1.54006 5.18133 1.29999 4.84437 1.29999H0.999988ZM8.10821 15.6404L6.64927 7.84148H21.3069L19.9156 15.6463L19.913 15.6615C19.8672 15.9564 19.7178 16.2254 19.4916 16.4202C19.2659 16.6145 18.9785 16.7224 18.6807 16.7245H9.3437C9.04598 16.7223 8.75869 16.6144 8.5331 16.42C8.30703 16.2253 8.15769 15.9564 8.11183 15.6615C8.11073 15.6545 8.10952 15.6474 8.10821 15.6404ZM8.63756 21.2963C8.61916 21.2963 8.60117 21.3017 8.58586 21.3119C8.57055 21.3221 8.55862 21.3367 8.55157 21.3536C8.54452 21.3706 8.54267 21.3893 8.54625 21.4074C8.54983 21.4254 8.55869 21.442 8.57169 21.455C8.5847 21.4681 8.60127 21.4769 8.61932 21.4805C8.63736 21.4841 8.65607 21.4823 8.67307 21.4752C8.69007 21.4682 8.70461 21.4563 8.71483 21.441C8.72505 21.4257 8.73051 21.4077 8.73051 21.3893C8.73051 21.3646 8.72072 21.341 8.70329 21.3235C8.68586 21.3061 8.66222 21.2963 8.63756 21.2963ZM7.80878 20.1474C8.05444 19.9835 8.3432 19.8961 8.63854 19.8963C9.03433 19.8965 9.41382 20.054 9.69359 20.3339C9.97335 20.6139 10.1305 20.9935 10.1305 21.3893C10.1305 21.6846 10.0429 21.9733 9.87882 22.2189C9.71471 22.4644 9.48147 22.6558 9.2086 22.7688C8.93573 22.8817 8.63548 22.9112 8.34583 22.8535C8.05618 22.7959 7.79015 22.6535 7.58139 22.4446C7.37263 22.2357 7.23052 21.9696 7.17303 21.6799C7.11554 21.3902 7.14526 21.09 7.25842 20.8172C7.37159 20.5444 7.56312 20.3113 7.80878 20.1474ZM19.7639 21.2963C19.7455 21.2963 19.7275 21.3017 19.7122 21.3119C19.6969 21.3221 19.6849 21.3367 19.6779 21.3536C19.6708 21.3706 19.669 21.3893 19.6726 21.4074C19.6761 21.4254 19.685 21.442 19.698 21.455C19.711 21.4681 19.7276 21.4769 19.7456 21.4805C19.7637 21.4841 19.7824 21.4823 19.7994 21.4752C19.8164 21.4682 19.8309 21.4563 19.8411 21.441C19.8514 21.4257 19.8568 21.4077 19.8568 21.3893C19.8568 21.3646 19.847 21.341 19.8296 21.3235C19.8122 21.3061 19.7885 21.2963 19.7639 21.2963ZM18.9351 20.1474C19.1808 19.9834 19.4695 19.8961 19.7649 19.8963C20.1606 19.8965 20.5401 20.054 20.8199 20.3339C21.0997 20.6139 21.2568 20.9935 21.2568 21.3893C21.2568 21.6846 21.1692 21.9733 21.0051 22.2189C20.841 22.4644 20.6078 22.6558 20.3349 22.7688C20.062 22.8817 19.7618 22.9112 19.4721 22.8535C19.1825 22.7959 18.9165 22.6535 18.7077 22.4446C18.4989 22.2357 18.3568 21.9696 18.2993 21.6799C18.2419 21.3902 18.2716 21.09 18.3847 20.8172C18.4979 20.5444 18.6894 20.3113 18.9351 20.1474Z" fill="black" fill-opacity="0.2"/>
<path fill-rule="evenodd" clip-rule="evenodd" d="M0.999988 1.29999C0.613388 1.29999 0.299988 1.61339 0.299988 1.99999C0.299988 2.38659 0.613388 2.69999 0.999988 2.69999H4.26317L5.11567 7.2571C5.11721 7.26641 5.11894 7.27565 5.12085 7.28483L6.73026 15.8881C6.8293 16.5071 7.14416 17.0713 7.6193 17.4807C8.09735 17.8926 8.70642 18.1208 9.33741 18.1244L9.3415 18.1245H18.6828L18.6867 18.1244C19.3178 18.1209 19.9271 17.8928 20.4053 17.4809C20.8814 17.0709 21.1966 16.5053 21.2951 15.8849L22.8318 7.26432C22.8682 7.06039 22.8123 6.85084 22.6793 6.69203C22.5463 6.53322 22.3498 6.44148 22.1427 6.44148H6.38738L5.53243 1.87127C5.47047 1.54006 5.18133 1.29999 4.84437 1.29999H0.999988ZM8.10821 15.6404L6.64927 7.84148H21.3069L19.9156 15.6463L19.913 15.6615C19.8672 15.9564 19.7178 16.2254 19.4916 16.4202C19.2659 16.6145 18.9785 16.7224 18.6807 16.7245H9.3437C9.04598 16.7223 8.75869 16.6144 8.5331 16.42C8.30703 16.2253 8.15769 15.9564 8.11183 15.6615C8.11073 15.6545 8.10952 15.6474 8.10821 15.6404ZM8.63756 21.2963C8.61916 21.2963 8.60117 21.3017 8.58586 21.3119C8.57055 21.3221 8.55862 21.3367 8.55157 21.3536C8.54452 21.3706 8.54267 21.3893 8.54625 21.4074C8.54983 21.4254 8.55869 21.442 8.57169 21.455C8.5847 21.4681 8.60127 21.4769 8.61932 21.4805C8.63736 21.4841 8.65607 21.4823 8.67307 21.4752C8.69007 21.4682 8.70461 21.4563 8.71483 21.441C8.72505 21.4257 8.73051 21.4077 8.73051 21.3893C8.73051 21.3646 8.72072 21.341 8.70329 21.3235C8.68586 21.3061 8.66222 21.2963 8.63756 21.2963ZM7.80878 20.1474C8.05444 19.9835 8.3432 19.8961 8.63854 19.8963C9.03433 19.8965 9.41382 20.054 9.69359 20.3339C9.97335 20.6139 10.1305 20.9935 10.1305 21.3893C10.1305 21.6846 10.0429 21.9733 9.87882 22.2189C9.71471 22.4644 9.48147 22.6558 9.2086 22.7688C8.93573 22.8817 8.63548 22.9112 8.34583 22.8535C8.05618 22.7959 7.79015 22.6535 7.58139 22.4446C7.37263 22.2357 7.23052 21.9696 7.17303 21.6799C7.11554 21.3902 7.14526 21.09 7.25842 20.8172C7.37159 20.5444 7.56312 20.3113 7.80878 20.1474ZM19.7639 21.2963C19.7455 21.2963 19.7275 21.3017 19.7122 21.3119C19.6969 21.3221 19.6849 21.3367 19.6779 21.3536C19.6708 21.3706 19.669 21.3893 19.6726 21.4074C19.6761 21.4254 19.685 21.442 19.698 21.455C19.711 21.4681 19.7276 21.4769 19.7456 21.4805C19.7637 21.4841 19.7824 21.4823 19.7994 21.4752C19.8164 21.4682 19.8309 21.4563 19.8411 21.441C19.8514 21.4257 19.8568 21.4077 19.8568 21.3893C19.8568 21.3646 19.847 21.341 19.8296 21.3235C19.8122 21.3061 19.7885 21.2963 19.7639 21.2963ZM18.9351 20.1474C19.1808 19.9834 19.4695 19.8961 19.7649 19.8963C20.1606 19.8965 20.5401 20.054 20.8199 20.3339C21.0997 20.6139 21.2568 20.9935 21.2568 21.3893C21.2568 21.6846 21.1692 21.9733 21.0051 22.2189C20.841 22.4644 20.6078 22.6558 20.3349 22.7688C20.062 22.8817 19.7618 22.9112 19.4721 22.8535C19.1825 22.7959 18.9165 22.6535 18.7077 22.4446C18.4989 22.2357 18.3568 21.9696 18.2993 21.6799C18.2419 21.3902 18.2716 21.09 18.3847 20.8172C18.4979 20.5444 18.6894 20.3113 18.9351 20.1474Z" fill="black" fill-opacity="0.2"/>
<path fill-rule="evenodd" clip-rule="evenodd" d="M0.999988 1.29999C0.613388 1.29999 0.299988 1.61339 0.299988 1.99999C0.299988 2.38659 0.613388 2.69999 0.999988 2.69999H4.26317L5.11567 7.2571C5.11721 7.26641 5.11894 7.27565 5.12085 7.28483L6.73026 15.8881C6.8293 16.5071 7.14416 17.0713 7.6193 17.4807C8.09735 17.8926 8.70642 18.1208 9.33741 18.1244L9.3415 18.1245H18.6828L18.6867 18.1244C19.3178 18.1209 19.9271 17.8928 20.4053 17.4809C20.8814 17.0709 21.1966 16.5053 21.2951 15.8849L22.8318 7.26432C22.8682 7.06039 22.8123 6.85084 22.6793 6.69203C22.5463 6.53322 22.3498 6.44148 22.1427 6.44148H6.38738L5.53243 1.87127C5.47047 1.54006 5.18133 1.29999 4.84437 1.29999H0.999988ZM8.10821 15.6404L6.64927 7.84148H21.3069L19.9156 15.6463L19.913 15.6615C19.8672 15.9564 19.7178 16.2254 19.4916 16.4202C19.2659 16.6145 18.9785 16.7224 18.6807 16.7245H9.3437C9.04598 16.7223 8.75869 16.6144 8.5331 16.42C8.30703 16.2253 8.15769 15.9564 8.11183 15.6615C8.11073 15.6545 8.10952 15.6474 8.10821 15.6404ZM8.63756 21.2963C8.61916 21.2963 8.60117 21.3017 8.58586 21.3119C8.57055 21.3221 8.55862 21.3367 8.55157 21.3536C8.54452 21.3706 8.54267 21.3893 8.54625 21.4074C8.54983 21.4254 8.55869 21.442 8.57169 21.455C8.5847 21.4681 8.60127 21.4769 8.61932 21.4805C8.63736 21.4841 8.65607 21.4823 8.67307 21.4752C8.69007 21.4682 8.70461 21.4563 8.71483 21.441C8.72505 21.4257 8.73051 21.4077 8.73051 21.3893C8.73051 21.3646 8.72072 21.341 8.70329 21.3235C8.68586 21.3061 8.66222 21.2963 8.63756 21.2963ZM7.80878 20.1474C8.05444 19.9835 8.3432 19.8961 8.63854 19.8963C9.03433 19.8965 9.41382 20.054 9.69359 20.3339C9.97335 20.6139 10.1305 20.9935 10.1305 21.3893C10.1305 21.6846 10.0429 21.9733 9.87882 22.2189C9.71471 22.4644 9.48147 22.6558 9.2086 22.7688C8.93573 22.8817 8.63548 22.9112 8.34583 22.8535C8.05618 22.7959 7.79015 22.6535 7.58139 22.4446C7.37263 22.2357 7.23052 21.9696 7.17303 21.6799C7.11554 21.3902 7.14526 21.09 7.25842 20.8172C7.37159 20.5444 7.56312 20.3113 7.80878 20.1474ZM19.7639 21.2963C19.7455 21.2963 19.7275 21.3017 19.7122 21.3119C19.6969 21.3221 19.6849 21.3367 19.6779 21.3536C19.6708 21.3706 19.669 21.3893 19.6726 21.4074C19.6761 21.4254 19.685 21.442 19.698 21.455C19.711 21.4681 19.7276 21.4769 19.7456 21.4805C19.7637 21.4841 19.7824 21.4823 19.7994 21.4752C19.8164 21.4682 19.8309 21.4563 19.8411 21.441C19.8514 21.4257 19.8568 21.4077 19.8568 21.3893C19.8568 21.3646 19.847 21.341 19.8296 21.3235C19.8122 21.3061 19.7885 21.2963 19.7639 21.2963ZM18.9351 20.1474C19.1808 19.9834 19.4695 19.8961 19.7649 19.8963C20.1606 19.8965 20.5401 20.054 20.8199 20.3339C21.0997 20.6139 21.2568 20.9935 21.2568 21.3893C21.2568 21.6846 21.1692 21.9733 21.0051 22.2189C20.841 22.4644 20.6078 22.6558 20.3349 22.7688C20.062 22.8817 19.7618 22.9112 19.4721 22.8535C19.1825 22.7959 18.9165 22.6535 18.7077 22.4446C18.4989 22.2357 18.3568 21.9696 18.2993 21.6799C18.2419 21.3902 18.2716 21.09 18.3847 20.8172C18.4979 20.5444 18.6894 20.3113 18.9351 20.1474Z" fill="black" fill-opacity="0.2"/>
</svg>
