<svg width="24" height="24" viewBox="0 0 24 24" fill="none" xmlns="http://www.w3.org/2000/svg">
<path fill-rule="evenodd" clip-rule="evenodd" d="M17.5199 3.18573V11.7764C18.5463 11.8566 19.5342 12.202 20.3869 12.7788C21.2396 13.3557 21.9279 14.1441 22.3842 15.0669C22.8406 15.9897 23.0494 17.0153 22.9902 18.0431C22.931 19.0708 22.6058 20.0656 22.0465 20.9299C21.4872 21.7942 20.713 22.4984 19.7997 22.9735C18.8864 23.4486 17.8653 23.6783 16.8365 23.6401C15.8078 23.6019 14.8066 23.2971 13.931 22.7556C13.0555 22.2141 12.3356 21.4544 11.8419 20.551H3.37529C3.01068 20.5506 2.66112 20.4055 2.40329 20.1477C2.14547 19.8899 2.00043 19.5403 2 19.1757V3.18573C2.00029 2.82092 2.14533 2.47114 2.40329 2.21318C2.66125 1.95523 3.01103 1.81018 3.37584 1.80989H6.35872V1.07546C6.35872 1.01469 6.3707 0.954511 6.39398 0.898372C6.41725 0.842233 6.45136 0.791232 6.49436 0.748285C6.53735 0.705338 6.58839 0.671288 6.64456 0.648081C6.70073 0.624874 6.76092 0.612966 6.82169 0.613037H12.6961C12.7568 0.612966 12.817 0.624874 12.8732 0.648081C12.9294 0.671288 12.9804 0.705338 13.0234 0.748285C13.0664 0.791232 13.1005 0.842233 13.1238 0.898372C13.1471 0.954511 13.159 1.01469 13.159 1.07546V1.80989H16.1446C16.5093 1.81032 16.859 1.95543 17.1168 2.21338C17.3747 2.47132 17.5196 2.82102 17.5199 3.18573ZM12.2347 1.53788H7.28411V3.01055H12.2347V1.53788ZM12.6972 3.93539H6.82223C6.76146 3.93547 6.70127 3.92356 6.6451 3.90035C6.58894 3.87714 6.5379 3.84309 6.4949 3.80015C6.4519 3.7572 6.41779 3.7062 6.39452 3.65006C6.37125 3.59392 6.35927 3.53375 6.35927 3.47297V2.73473H5.24891V4.86676H8.01582C8.07659 4.86676 8.13677 4.87874 8.19291 4.90202C8.24905 4.92529 8.30005 4.9594 8.343 5.0024C8.38594 5.04539 8.41999 5.09644 8.4432 5.1526C8.46641 5.20877 8.47831 5.26896 8.47824 5.32973C8.48515 5.66488 8.62314 5.98397 8.8626 6.21855C9.10207 6.45313 9.42393 6.58451 9.75915 6.58451C10.0944 6.58451 10.4162 6.45313 10.6557 6.21855C10.8952 5.98397 11.0331 5.66488 11.0401 5.32973C11.04 5.26896 11.0519 5.20877 11.0751 5.1526C11.0983 5.09644 11.1324 5.04539 11.1753 5.0024C11.2182 4.9594 11.2692 4.92529 11.3254 4.90202C11.3815 4.87874 11.4417 4.86676 11.5025 4.86676H14.271V2.73473H13.1601V3.47297C13.1601 3.53375 13.1481 3.59392 13.1249 3.65006C13.1016 3.7062 13.0675 3.7572 13.0245 3.80015C12.9815 3.84309 12.9304 3.87714 12.8743 3.90035C12.8181 3.92356 12.7579 3.93547 12.6972 3.93539ZM3.05786 19.4937C3.14221 19.578 3.25656 19.6255 3.37584 19.6256H11.4377C11.1404 18.7682 11.044 17.8539 11.156 16.9533C11.268 16.0527 11.5854 15.1899 12.0837 14.4314C12.582 13.6729 13.2479 13.0391 14.03 12.5787C14.8121 12.1184 15.6895 11.8439 16.5945 11.7764V3.18519C16.5945 3.06581 16.5472 2.95132 16.4628 2.86686C16.3784 2.7824 16.264 2.73488 16.1446 2.73473H15.1926V5.32973C15.1926 5.39046 15.1806 5.45059 15.1574 5.50669C15.1342 5.56279 15.1001 5.61377 15.0572 5.65671C15.0142 5.69965 14.9632 5.73371 14.9071 5.75695C14.851 5.78019 14.7909 5.79215 14.7302 5.79215H11.9181C11.8116 6.28517 11.5394 6.72684 11.1469 7.04361C10.7544 7.36038 10.2652 7.53315 9.76078 7.53315C9.25638 7.53315 8.7672 7.36038 8.37468 7.04361C7.98215 6.72684 7.70997 6.28517 7.60345 5.79215H4.78649C4.72572 5.79222 4.66553 5.78031 4.60937 5.75711C4.5532 5.7339 4.50216 5.69985 4.45916 5.6569C4.41616 5.61396 4.38205 5.56296 4.35878 5.50682C4.33551 5.45068 4.32353 5.3905 4.32353 5.32973V2.73473H3.37584C3.31668 2.7348 3.25812 2.74653 3.2035 2.76923C3.14887 2.79193 3.09926 2.82517 3.05748 2.86705C3.0157 2.90893 2.98258 2.95863 2.96001 3.01331C2.93744 3.06799 2.92586 3.12657 2.92593 3.18573V19.1757C2.92607 19.295 2.97352 19.4093 3.05786 19.4937ZM14.2667 21.8723C15.0922 22.4237 16.0626 22.7179 17.0553 22.7178L17.0542 22.7157C18.3853 22.7142 19.6613 22.1848 20.6025 21.2437C21.5437 20.3025 22.0731 19.0264 22.0745 17.6954C22.074 16.7027 21.7791 15.7324 21.2272 14.9073C20.6752 14.0821 19.8911 13.4392 18.9737 13.0597C18.0564 12.6802 17.0472 12.5812 16.0736 12.7752C15.1001 12.9693 14.2059 13.4476 13.5042 14.1498C12.8024 14.852 12.3247 15.7465 12.1313 16.7202C11.9379 17.6939 12.0375 18.703 12.4176 19.6201C12.7977 20.5372 13.4412 21.3209 14.2667 21.8723ZM19.5839 15.2025C19.5841 15.2026 19.5843 15.2025 19.5846 15.2024L19.5848 15.203L19.5839 15.2025ZM18.9887 15.29C19.0516 15.1804 19.1549 15.1002 19.2764 15.0676C19.3977 15.035 19.5267 15.0527 19.635 15.1165C19.7434 15.1809 19.8221 15.2854 19.8537 15.4079C19.8854 15.5304 19.8681 15.6607 19.8055 15.7704L17.4669 19.8593C17.4293 19.9249 17.3767 19.9808 17.3135 20.0219C17.2502 20.0631 17.1782 20.0884 17.1032 20.0956C17.0282 20.1028 16.9527 20.0917 16.8829 20.0633C16.8131 20.0349 16.7511 19.9901 16.7019 19.9327L14.9487 17.881C14.906 17.8342 14.873 17.7793 14.8516 17.7195C14.83 17.6592 14.8205 17.5951 14.8237 17.531C14.8269 17.4669 14.8428 17.4041 14.8704 17.3463C14.8981 17.2885 14.9369 17.2368 14.9848 17.1944C15.0326 17.152 15.0885 17.1198 15.149 17.0998C15.2096 17.0797 15.2735 17.0723 15.337 17.078C15.4005 17.0838 15.4622 17.1024 15.5182 17.1329C15.5738 17.1631 15.6227 17.2041 15.6622 17.2536L16.9822 18.798L18.9887 15.29ZM14.4243 9.82711H6.02891C5.90954 9.80941 5.80051 9.74941 5.72168 9.65803C5.64285 9.56666 5.59949 9.45 5.59949 9.32933C5.59949 9.20865 5.64285 9.09199 5.72168 9.00062C5.80051 8.90924 5.90954 8.84924 6.02891 8.83154H14.4243C14.5437 8.84924 14.6527 8.90924 14.7315 9.00062C14.8104 9.09199 14.8537 9.20865 14.8537 9.32933C14.8537 9.45 14.8104 9.56666 14.7315 9.65803C14.6527 9.74941 14.5437 9.80941 14.4243 9.82711ZM10.2012 12.6113H5.9845C5.87414 12.6398 5.77638 12.7042 5.70658 12.7943C5.63678 12.8844 5.59891 12.9951 5.59891 13.1091C5.59891 13.2231 5.63678 13.3338 5.70658 13.4239C5.77638 13.514 5.87414 13.5784 5.9845 13.6069H10.2012C10.3116 13.5784 10.4094 13.514 10.4792 13.4239C10.549 13.3338 10.5868 13.2231 10.5868 13.1091C10.5868 12.9951 10.549 12.8844 10.4792 12.7943C10.4094 12.7042 10.3116 12.6398 10.2012 12.6113ZM5.94512 16.3914H8.57058C8.76208 16.3914 8.91658 16.6139 8.91658 16.8892C8.91658 17.1644 8.76154 17.387 8.57058 17.387H5.94512C5.75362 17.387 5.59912 17.1644 5.59912 16.8892C5.59912 16.6139 5.75417 16.3914 5.94512 16.3914Z" fill="black"/>
<path fill-rule="evenodd" clip-rule="evenodd" d="M17.5199 3.18573V11.7764C18.5463 11.8566 19.5342 12.202 20.3869 12.7788C21.2396 13.3557 21.9279 14.1441 22.3842 15.0669C22.8406 15.9897 23.0494 17.0153 22.9902 18.0431C22.931 19.0708 22.6058 20.0656 22.0465 20.9299C21.4872 21.7942 20.713 22.4984 19.7997 22.9735C18.8864 23.4486 17.8653 23.6783 16.8365 23.6401C15.8078 23.6019 14.8066 23.2971 13.931 22.7556C13.0555 22.2141 12.3356 21.4544 11.8419 20.551H3.37529C3.01068 20.5506 2.66112 20.4055 2.40329 20.1477C2.14547 19.8899 2.00043 19.5403 2 19.1757V3.18573C2.00029 2.82092 2.14533 2.47114 2.40329 2.21318C2.66125 1.95523 3.01103 1.81018 3.37584 1.80989H6.35872V1.07546C6.35872 1.01469 6.3707 0.954511 6.39398 0.898372C6.41725 0.842233 6.45136 0.791232 6.49436 0.748285C6.53735 0.705338 6.58839 0.671288 6.64456 0.648081C6.70073 0.624874 6.76092 0.612966 6.82169 0.613037H12.6961C12.7568 0.612966 12.817 0.624874 12.8732 0.648081C12.9294 0.671288 12.9804 0.705338 13.0234 0.748285C13.0664 0.791232 13.1005 0.842233 13.1238 0.898372C13.1471 0.954511 13.159 1.01469 13.159 1.07546V1.80989H16.1446C16.5093 1.81032 16.859 1.95543 17.1168 2.21338C17.3747 2.47132 17.5196 2.82102 17.5199 3.18573ZM12.2347 1.53788H7.28411V3.01055H12.2347V1.53788ZM12.6972 3.93539H6.82223C6.76146 3.93547 6.70127 3.92356 6.6451 3.90035C6.58894 3.87714 6.5379 3.84309 6.4949 3.80015C6.4519 3.7572 6.41779 3.7062 6.39452 3.65006C6.37125 3.59392 6.35927 3.53375 6.35927 3.47297V2.73473H5.24891V4.86676H8.01582C8.07659 4.86676 8.13677 4.87874 8.19291 4.90202C8.24905 4.92529 8.30005 4.9594 8.343 5.0024C8.38594 5.04539 8.41999 5.09644 8.4432 5.1526C8.46641 5.20877 8.47831 5.26896 8.47824 5.32973C8.48515 5.66488 8.62314 5.98397 8.8626 6.21855C9.10207 6.45313 9.42393 6.58451 9.75915 6.58451C10.0944 6.58451 10.4162 6.45313 10.6557 6.21855C10.8952 5.98397 11.0331 5.66488 11.0401 5.32973C11.04 5.26896 11.0519 5.20877 11.0751 5.1526C11.0983 5.09644 11.1324 5.04539 11.1753 5.0024C11.2182 4.9594 11.2692 4.92529 11.3254 4.90202C11.3815 4.87874 11.4417 4.86676 11.5025 4.86676H14.271V2.73473H13.1601V3.47297C13.1601 3.53375 13.1481 3.59392 13.1249 3.65006C13.1016 3.7062 13.0675 3.7572 13.0245 3.80015C12.9815 3.84309 12.9304 3.87714 12.8743 3.90035C12.8181 3.92356 12.7579 3.93547 12.6972 3.93539ZM3.05786 19.4937C3.14221 19.578 3.25656 19.6255 3.37584 19.6256H11.4377C11.1404 18.7682 11.044 17.8539 11.156 16.9533C11.268 16.0527 11.5854 15.1899 12.0837 14.4314C12.582 13.6729 13.2479 13.0391 14.03 12.5787C14.8121 12.1184 15.6895 11.8439 16.5945 11.7764V3.18519C16.5945 3.06581 16.5472 2.95132 16.4628 2.86686C16.3784 2.7824 16.264 2.73488 16.1446 2.73473H15.1926V5.32973C15.1926 5.39046 15.1806 5.45059 15.1574 5.50669C15.1342 5.56279 15.1001 5.61377 15.0572 5.65671C15.0142 5.69965 14.9632 5.73371 14.9071 5.75695C14.851 5.78019 14.7909 5.79215 14.7302 5.79215H11.9181C11.8116 6.28517 11.5394 6.72684 11.1469 7.04361C10.7544 7.36038 10.2652 7.53315 9.76078 7.53315C9.25638 7.53315 8.7672 7.36038 8.37468 7.04361C7.98215 6.72684 7.70997 6.28517 7.60345 5.79215H4.78649C4.72572 5.79222 4.66553 5.78031 4.60937 5.75711C4.5532 5.7339 4.50216 5.69985 4.45916 5.6569C4.41616 5.61396 4.38205 5.56296 4.35878 5.50682C4.33551 5.45068 4.32353 5.3905 4.32353 5.32973V2.73473H3.37584C3.31668 2.7348 3.25812 2.74653 3.2035 2.76923C3.14887 2.79193 3.09926 2.82517 3.05748 2.86705C3.0157 2.90893 2.98258 2.95863 2.96001 3.01331C2.93744 3.06799 2.92586 3.12657 2.92593 3.18573V19.1757C2.92607 19.295 2.97352 19.4093 3.05786 19.4937ZM14.2667 21.8723C15.0922 22.4237 16.0626 22.7179 17.0553 22.7178L17.0542 22.7157C18.3853 22.7142 19.6613 22.1848 20.6025 21.2437C21.5437 20.3025 22.0731 19.0264 22.0745 17.6954C22.074 16.7027 21.7791 15.7324 21.2272 14.9073C20.6752 14.0821 19.8911 13.4392 18.9737 13.0597C18.0564 12.6802 17.0472 12.5812 16.0736 12.7752C15.1001 12.9693 14.2059 13.4476 13.5042 14.1498C12.8024 14.852 12.3247 15.7465 12.1313 16.7202C11.9379 17.6939 12.0375 18.703 12.4176 19.6201C12.7977 20.5372 13.4412 21.3209 14.2667 21.8723ZM19.5839 15.2025C19.5841 15.2026 19.5843 15.2025 19.5846 15.2024L19.5848 15.203L19.5839 15.2025ZM18.9887 15.29C19.0516 15.1804 19.1549 15.1002 19.2764 15.0676C19.3977 15.035 19.5267 15.0527 19.635 15.1165C19.7434 15.1809 19.8221 15.2854 19.8537 15.4079C19.8854 15.5304 19.8681 15.6607 19.8055 15.7704L17.4669 19.8593C17.4293 19.9249 17.3767 19.9808 17.3135 20.0219C17.2502 20.0631 17.1782 20.0884 17.1032 20.0956C17.0282 20.1028 16.9527 20.0917 16.8829 20.0633C16.8131 20.0349 16.7511 19.9901 16.7019 19.9327L14.9487 17.881C14.906 17.8342 14.873 17.7793 14.8516 17.7195C14.83 17.6592 14.8205 17.5951 14.8237 17.531C14.8269 17.4669 14.8428 17.4041 14.8704 17.3463C14.8981 17.2885 14.9369 17.2368 14.9848 17.1944C15.0326 17.152 15.0885 17.1198 15.149 17.0998C15.2096 17.0797 15.2735 17.0723 15.337 17.078C15.4005 17.0838 15.4622 17.1024 15.5182 17.1329C15.5738 17.1631 15.6227 17.2041 15.6622 17.2536L16.9822 18.798L18.9887 15.29ZM14.4243 9.82711H6.02891C5.90954 9.80941 5.80051 9.74941 5.72168 9.65803C5.64285 9.56666 5.59949 9.45 5.59949 9.32933C5.59949 9.20865 5.64285 9.09199 5.72168 9.00062C5.80051 8.90924 5.90954 8.84924 6.02891 8.83154H14.4243C14.5437 8.84924 14.6527 8.90924 14.7315 9.00062C14.8104 9.09199 14.8537 9.20865 14.8537 9.32933C14.8537 9.45 14.8104 9.56666 14.7315 9.65803C14.6527 9.74941 14.5437 9.80941 14.4243 9.82711ZM10.2012 12.6113H5.9845C5.87414 12.6398 5.77638 12.7042 5.70658 12.7943C5.63678 12.8844 5.59891 12.9951 5.59891 13.1091C5.59891 13.2231 5.63678 13.3338 5.70658 13.4239C5.77638 13.514 5.87414 13.5784 5.9845 13.6069H10.2012C10.3116 13.5784 10.4094 13.514 10.4792 13.4239C10.549 13.3338 10.5868 13.2231 10.5868 13.1091C10.5868 12.9951 10.549 12.8844 10.4792 12.7943C10.4094 12.7042 10.3116 12.6398 10.2012 12.6113ZM5.94512 16.3914H8.57058C8.76208 16.3914 8.91658 16.6139 8.91658 16.8892C8.91658 17.1644 8.76154 17.387 8.57058 17.387H5.94512C5.75362 17.387 5.59912 17.1644 5.59912 16.8892C5.59912 16.6139 5.75417 16.3914 5.94512 16.3914Z" fill="black" fill-opacity="0.2"/>
<path fill-rule="evenodd" clip-rule="evenodd" d="M17.5199 3.18573V11.7764C18.5463 11.8566 19.5342 12.202 20.3869 12.7788C21.2396 13.3557 21.9279 14.1441 22.3842 15.0669C22.8406 15.9897 23.0494 17.0153 22.9902 18.0431C22.931 19.0708 22.6058 20.0656 22.0465 20.9299C21.4872 21.7942 20.713 22.4984 19.7997 22.9735C18.8864 23.4486 17.8653 23.6783 16.8365 23.6401C15.8078 23.6019 14.8066 23.2971 13.931 22.7556C13.0555 22.2141 12.3356 21.4544 11.8419 20.551H3.37529C3.01068 20.5506 2.66112 20.4055 2.40329 20.1477C2.14547 19.8899 2.00043 19.5403 2 19.1757V3.18573C2.00029 2.82092 2.14533 2.47114 2.40329 2.21318C2.66125 1.95523 3.01103 1.81018 3.37584 1.80989H6.35872V1.07546C6.35872 1.01469 6.3707 0.954511 6.39398 0.898372C6.41725 0.842233 6.45136 0.791232 6.49436 0.748285C6.53735 0.705338 6.58839 0.671288 6.64456 0.648081C6.70073 0.624874 6.76092 0.612966 6.82169 0.613037H12.6961C12.7568 0.612966 12.817 0.624874 12.8732 0.648081C12.9294 0.671288 12.9804 0.705338 13.0234 0.748285C13.0664 0.791232 13.1005 0.842233 13.1238 0.898372C13.1471 0.954511 13.159 1.01469 13.159 1.07546V1.80989H16.1446C16.5093 1.81032 16.859 1.95543 17.1168 2.21338C17.3747 2.47132 17.5196 2.82102 17.5199 3.18573ZM12.2347 1.53788H7.28411V3.01055H12.2347V1.53788ZM12.6972 3.93539H6.82223C6.76146 3.93547 6.70127 3.92356 6.6451 3.90035C6.58894 3.87714 6.5379 3.84309 6.4949 3.80015C6.4519 3.7572 6.41779 3.7062 6.39452 3.65006C6.37125 3.59392 6.35927 3.53375 6.35927 3.47297V2.73473H5.24891V4.86676H8.01582C8.07659 4.86676 8.13677 4.87874 8.19291 4.90202C8.24905 4.92529 8.30005 4.9594 8.343 5.0024C8.38594 5.04539 8.41999 5.09644 8.4432 5.1526C8.46641 5.20877 8.47831 5.26896 8.47824 5.32973C8.48515 5.66488 8.62314 5.98397 8.8626 6.21855C9.10207 6.45313 9.42393 6.58451 9.75915 6.58451C10.0944 6.58451 10.4162 6.45313 10.6557 6.21855C10.8952 5.98397 11.0331 5.66488 11.0401 5.32973C11.04 5.26896 11.0519 5.20877 11.0751 5.1526C11.0983 5.09644 11.1324 5.04539 11.1753 5.0024C11.2182 4.9594 11.2692 4.92529 11.3254 4.90202C11.3815 4.87874 11.4417 4.86676 11.5025 4.86676H14.271V2.73473H13.1601V3.47297C13.1601 3.53375 13.1481 3.59392 13.1249 3.65006C13.1016 3.7062 13.0675 3.7572 13.0245 3.80015C12.9815 3.84309 12.9304 3.87714 12.8743 3.90035C12.8181 3.92356 12.7579 3.93547 12.6972 3.93539ZM3.05786 19.4937C3.14221 19.578 3.25656 19.6255 3.37584 19.6256H11.4377C11.1404 18.7682 11.044 17.8539 11.156 16.9533C11.268 16.0527 11.5854 15.1899 12.0837 14.4314C12.582 13.6729 13.2479 13.0391 14.03 12.5787C14.8121 12.1184 15.6895 11.8439 16.5945 11.7764V3.18519C16.5945 3.06581 16.5472 2.95132 16.4628 2.86686C16.3784 2.7824 16.264 2.73488 16.1446 2.73473H15.1926V5.32973C15.1926 5.39046 15.1806 5.45059 15.1574 5.50669C15.1342 5.56279 15.1001 5.61377 15.0572 5.65671C15.0142 5.69965 14.9632 5.73371 14.9071 5.75695C14.851 5.78019 14.7909 5.79215 14.7302 5.79215H11.9181C11.8116 6.28517 11.5394 6.72684 11.1469 7.04361C10.7544 7.36038 10.2652 7.53315 9.76078 7.53315C9.25638 7.53315 8.7672 7.36038 8.37468 7.04361C7.98215 6.72684 7.70997 6.28517 7.60345 5.79215H4.78649C4.72572 5.79222 4.66553 5.78031 4.60937 5.75711C4.5532 5.7339 4.50216 5.69985 4.45916 5.6569C4.41616 5.61396 4.38205 5.56296 4.35878 5.50682C4.33551 5.45068 4.32353 5.3905 4.32353 5.32973V2.73473H3.37584C3.31668 2.7348 3.25812 2.74653 3.2035 2.76923C3.14887 2.79193 3.09926 2.82517 3.05748 2.86705C3.0157 2.90893 2.98258 2.95863 2.96001 3.01331C2.93744 3.06799 2.92586 3.12657 2.92593 3.18573V19.1757C2.92607 19.295 2.97352 19.4093 3.05786 19.4937ZM14.2667 21.8723C15.0922 22.4237 16.0626 22.7179 17.0553 22.7178L17.0542 22.7157C18.3853 22.7142 19.6613 22.1848 20.6025 21.2437C21.5437 20.3025 22.0731 19.0264 22.0745 17.6954C22.074 16.7027 21.7791 15.7324 21.2272 14.9073C20.6752 14.0821 19.8911 13.4392 18.9737 13.0597C18.0564 12.6802 17.0472 12.5812 16.0736 12.7752C15.1001 12.9693 14.2059 13.4476 13.5042 14.1498C12.8024 14.852 12.3247 15.7465 12.1313 16.7202C11.9379 17.6939 12.0375 18.703 12.4176 19.6201C12.7977 20.5372 13.4412 21.3209 14.2667 21.8723ZM19.5839 15.2025C19.5841 15.2026 19.5843 15.2025 19.5846 15.2024L19.5848 15.203L19.5839 15.2025ZM18.9887 15.29C19.0516 15.1804 19.1549 15.1002 19.2764 15.0676C19.3977 15.035 19.5267 15.0527 19.635 15.1165C19.7434 15.1809 19.8221 15.2854 19.8537 15.4079C19.8854 15.5304 19.8681 15.6607 19.8055 15.7704L17.4669 19.8593C17.4293 19.9249 17.3767 19.9808 17.3135 20.0219C17.2502 20.0631 17.1782 20.0884 17.1032 20.0956C17.0282 20.1028 16.9527 20.0917 16.8829 20.0633C16.8131 20.0349 16.7511 19.9901 16.7019 19.9327L14.9487 17.881C14.906 17.8342 14.873 17.7793 14.8516 17.7195C14.83 17.6592 14.8205 17.5951 14.8237 17.531C14.8269 17.4669 14.8428 17.4041 14.8704 17.3463C14.8981 17.2885 14.9369 17.2368 14.9848 17.1944C15.0326 17.152 15.0885 17.1198 15.149 17.0998C15.2096 17.0797 15.2735 17.0723 15.337 17.078C15.4005 17.0838 15.4622 17.1024 15.5182 17.1329C15.5738 17.1631 15.6227 17.2041 15.6622 17.2536L16.9822 18.798L18.9887 15.29ZM14.4243 9.82711H6.02891C5.90954 9.80941 5.80051 9.74941 5.72168 9.65803C5.64285 9.56666 5.59949 9.45 5.59949 9.32933C5.59949 9.20865 5.64285 9.09199 5.72168 9.00062C5.80051 8.90924 5.90954 8.84924 6.02891 8.83154H14.4243C14.5437 8.84924 14.6527 8.90924 14.7315 9.00062C14.8104 9.09199 14.8537 9.20865 14.8537 9.32933C14.8537 9.45 14.8104 9.56666 14.7315 9.65803C14.6527 9.74941 14.5437 9.80941 14.4243 9.82711ZM10.2012 12.6113H5.9845C5.87414 12.6398 5.77638 12.7042 5.70658 12.7943C5.63678 12.8844 5.59891 12.9951 5.59891 13.1091C5.59891 13.2231 5.63678 13.3338 5.70658 13.4239C5.77638 13.514 5.87414 13.5784 5.9845 13.6069H10.2012C10.3116 13.5784 10.4094 13.514 10.4792 13.4239C10.549 13.3338 10.5868 13.2231 10.5868 13.1091C10.5868 12.9951 10.549 12.8844 10.4792 12.7943C10.4094 12.7042 10.3116 12.6398 10.2012 12.6113ZM5.94512 16.3914H8.57058C8.76208 16.3914 8.91658 16.6139 8.91658 16.8892C8.91658 17.1644 8.76154 17.387 8.57058 17.387H5.94512C5.75362 17.387 5.59912 17.1644 5.59912 16.8892C5.59912 16.6139 5.75417 16.3914 5.94512 16.3914Z" fill="black" fill-opacity="0.2"/>
<path fill-rule="evenodd" clip-rule="evenodd" d="M17.5199 3.18573V11.7764C18.5463 11.8566 19.5342 12.202 20.3869 12.7788C21.2396 13.3557 21.9279 14.1441 22.3842 15.0669C22.8406 15.9897 23.0494 17.0153 22.9902 18.0431C22.931 19.0708 22.6058 20.0656 22.0465 20.9299C21.4872 21.7942 20.713 22.4984 19.7997 22.9735C18.8864 23.4486 17.8653 23.6783 16.8365 23.6401C15.8078 23.6019 14.8066 23.2971 13.931 22.7556C13.0555 22.2141 12.3356 21.4544 11.8419 20.551H3.37529C3.01068 20.5506 2.66112 20.4055 2.40329 20.1477C2.14547 19.8899 2.00043 19.5403 2 19.1757V3.18573C2.00029 2.82092 2.14533 2.47114 2.40329 2.21318C2.66125 1.95523 3.01103 1.81018 3.37584 1.80989H6.35872V1.07546C6.35872 1.01469 6.3707 0.954511 6.39398 0.898372C6.41725 0.842233 6.45136 0.791232 6.49436 0.748285C6.53735 0.705338 6.58839 0.671288 6.64456 0.648081C6.70073 0.624874 6.76092 0.612966 6.82169 0.613037H12.6961C12.7568 0.612966 12.817 0.624874 12.8732 0.648081C12.9294 0.671288 12.9804 0.705338 13.0234 0.748285C13.0664 0.791232 13.1005 0.842233 13.1238 0.898372C13.1471 0.954511 13.159 1.01469 13.159 1.07546V1.80989H16.1446C16.5093 1.81032 16.859 1.95543 17.1168 2.21338C17.3747 2.47132 17.5196 2.82102 17.5199 3.18573ZM12.2347 1.53788H7.28411V3.01055H12.2347V1.53788ZM12.6972 3.93539H6.82223C6.76146 3.93547 6.70127 3.92356 6.6451 3.90035C6.58894 3.87714 6.5379 3.84309 6.4949 3.80015C6.4519 3.7572 6.41779 3.7062 6.39452 3.65006C6.37125 3.59392 6.35927 3.53375 6.35927 3.47297V2.73473H5.24891V4.86676H8.01582C8.07659 4.86676 8.13677 4.87874 8.19291 4.90202C8.24905 4.92529 8.30005 4.9594 8.343 5.0024C8.38594 5.04539 8.41999 5.09644 8.4432 5.1526C8.46641 5.20877 8.47831 5.26896 8.47824 5.32973C8.48515 5.66488 8.62314 5.98397 8.8626 6.21855C9.10207 6.45313 9.42393 6.58451 9.75915 6.58451C10.0944 6.58451 10.4162 6.45313 10.6557 6.21855C10.8952 5.98397 11.0331 5.66488 11.0401 5.32973C11.04 5.26896 11.0519 5.20877 11.0751 5.1526C11.0983 5.09644 11.1324 5.04539 11.1753 5.0024C11.2182 4.9594 11.2692 4.92529 11.3254 4.90202C11.3815 4.87874 11.4417 4.86676 11.5025 4.86676H14.271V2.73473H13.1601V3.47297C13.1601 3.53375 13.1481 3.59392 13.1249 3.65006C13.1016 3.7062 13.0675 3.7572 13.0245 3.80015C12.9815 3.84309 12.9304 3.87714 12.8743 3.90035C12.8181 3.92356 12.7579 3.93547 12.6972 3.93539ZM3.05786 19.4937C3.14221 19.578 3.25656 19.6255 3.37584 19.6256H11.4377C11.1404 18.7682 11.044 17.8539 11.156 16.9533C11.268 16.0527 11.5854 15.1899 12.0837 14.4314C12.582 13.6729 13.2479 13.0391 14.03 12.5787C14.8121 12.1184 15.6895 11.8439 16.5945 11.7764V3.18519C16.5945 3.06581 16.5472 2.95132 16.4628 2.86686C16.3784 2.7824 16.264 2.73488 16.1446 2.73473H15.1926V5.32973C15.1926 5.39046 15.1806 5.45059 15.1574 5.50669C15.1342 5.56279 15.1001 5.61377 15.0572 5.65671C15.0142 5.69965 14.9632 5.73371 14.9071 5.75695C14.851 5.78019 14.7909 5.79215 14.7302 5.79215H11.9181C11.8116 6.28517 11.5394 6.72684 11.1469 7.04361C10.7544 7.36038 10.2652 7.53315 9.76078 7.53315C9.25638 7.53315 8.7672 7.36038 8.37468 7.04361C7.98215 6.72684 7.70997 6.28517 7.60345 5.79215H4.78649C4.72572 5.79222 4.66553 5.78031 4.60937 5.75711C4.5532 5.7339 4.50216 5.69985 4.45916 5.6569C4.41616 5.61396 4.38205 5.56296 4.35878 5.50682C4.33551 5.45068 4.32353 5.3905 4.32353 5.32973V2.73473H3.37584C3.31668 2.7348 3.25812 2.74653 3.2035 2.76923C3.14887 2.79193 3.09926 2.82517 3.05748 2.86705C3.0157 2.90893 2.98258 2.95863 2.96001 3.01331C2.93744 3.06799 2.92586 3.12657 2.92593 3.18573V19.1757C2.92607 19.295 2.97352 19.4093 3.05786 19.4937ZM14.2667 21.8723C15.0922 22.4237 16.0626 22.7179 17.0553 22.7178L17.0542 22.7157C18.3853 22.7142 19.6613 22.1848 20.6025 21.2437C21.5437 20.3025 22.0731 19.0264 22.0745 17.6954C22.074 16.7027 21.7791 15.7324 21.2272 14.9073C20.6752 14.0821 19.8911 13.4392 18.9737 13.0597C18.0564 12.6802 17.0472 12.5812 16.0736 12.7752C15.1001 12.9693 14.2059 13.4476 13.5042 14.1498C12.8024 14.852 12.3247 15.7465 12.1313 16.7202C11.9379 17.6939 12.0375 18.703 12.4176 19.6201C12.7977 20.5372 13.4412 21.3209 14.2667 21.8723ZM19.5839 15.2025C19.5841 15.2026 19.5843 15.2025 19.5846 15.2024L19.5848 15.203L19.5839 15.2025ZM18.9887 15.29C19.0516 15.1804 19.1549 15.1002 19.2764 15.0676C19.3977 15.035 19.5267 15.0527 19.635 15.1165C19.7434 15.1809 19.8221 15.2854 19.8537 15.4079C19.8854 15.5304 19.8681 15.6607 19.8055 15.7704L17.4669 19.8593C17.4293 19.9249 17.3767 19.9808 17.3135 20.0219C17.2502 20.0631 17.1782 20.0884 17.1032 20.0956C17.0282 20.1028 16.9527 20.0917 16.8829 20.0633C16.8131 20.0349 16.7511 19.9901 16.7019 19.9327L14.9487 17.881C14.906 17.8342 14.873 17.7793 14.8516 17.7195C14.83 17.6592 14.8205 17.5951 14.8237 17.531C14.8269 17.4669 14.8428 17.4041 14.8704 17.3463C14.8981 17.2885 14.9369 17.2368 14.9848 17.1944C15.0326 17.152 15.0885 17.1198 15.149 17.0998C15.2096 17.0797 15.2735 17.0723 15.337 17.078C15.4005 17.0838 15.4622 17.1024 15.5182 17.1329C15.5738 17.1631 15.6227 17.2041 15.6622 17.2536L16.9822 18.798L18.9887 15.29ZM14.4243 9.82711H6.02891C5.90954 9.80941 5.80051 9.74941 5.72168 9.65803C5.64285 9.56666 5.59949 9.45 5.59949 9.32933C5.59949 9.20865 5.64285 9.09199 5.72168 9.00062C5.80051 8.90924 5.90954 8.84924 6.02891 8.83154H14.4243C14.5437 8.84924 14.6527 8.90924 14.7315 9.00062C14.8104 9.09199 14.8537 9.20865 14.8537 9.32933C14.8537 9.45 14.8104 9.56666 14.7315 9.65803C14.6527 9.74941 14.5437 9.80941 14.4243 9.82711ZM10.2012 12.6113H5.9845C5.87414 12.6398 5.77638 12.7042 5.70658 12.7943C5.63678 12.8844 5.59891 12.9951 5.59891 13.1091C5.59891 13.2231 5.63678 13.3338 5.70658 13.4239C5.77638 13.514 5.87414 13.5784 5.9845 13.6069H10.2012C10.3116 13.5784 10.4094 13.514 10.4792 13.4239C10.549 13.3338 10.5868 13.2231 10.5868 13.1091C10.5868 12.9951 10.549 12.8844 10.4792 12.7943C10.4094 12.7042 10.3116 12.6398 10.2012 12.6113ZM5.94512 16.3914H8.57058C8.76208 16.3914 8.91658 16.6139 8.91658 16.8892C8.91658 17.1644 8.76154 17.387 8.57058 17.387H5.94512C5.75362 17.387 5.59912 17.1644 5.59912 16.8892C5.59912 16.6139 5.75417 16.3914 5.94512 16.3914Z" fill="black" fill-opacity="0.2"/>
<path fill-rule="evenodd" clip-rule="evenodd" d="M17.5199 3.18573V11.7764C18.5463 11.8566 19.5342 12.202 20.3869 12.7788C21.2396 13.3557 21.9279 14.1441 22.3842 15.0669C22.8406 15.9897 23.0494 17.0153 22.9902 18.0431C22.931 19.0708 22.6058 20.0656 22.0465 20.9299C21.4872 21.7942 20.713 22.4984 19.7997 22.9735C18.8864 23.4486 17.8653 23.6783 16.8365 23.6401C15.8078 23.6019 14.8066 23.2971 13.931 22.7556C13.0555 22.2141 12.3356 21.4544 11.8419 20.551H3.37529C3.01068 20.5506 2.66112 20.4055 2.40329 20.1477C2.14547 19.8899 2.00043 19.5403 2 19.1757V3.18573C2.00029 2.82092 2.14533 2.47114 2.40329 2.21318C2.66125 1.95523 3.01103 1.81018 3.37584 1.80989H6.35872V1.07546C6.35872 1.01469 6.3707 0.954511 6.39398 0.898372C6.41725 0.842233 6.45136 0.791232 6.49436 0.748285C6.53735 0.705338 6.58839 0.671288 6.64456 0.648081C6.70073 0.624874 6.76092 0.612966 6.82169 0.613037H12.6961C12.7568 0.612966 12.817 0.624874 12.8732 0.648081C12.9294 0.671288 12.9804 0.705338 13.0234 0.748285C13.0664 0.791232 13.1005 0.842233 13.1238 0.898372C13.1471 0.954511 13.159 1.01469 13.159 1.07546V1.80989H16.1446C16.5093 1.81032 16.859 1.95543 17.1168 2.21338C17.3747 2.47132 17.5196 2.82102 17.5199 3.18573ZM12.2347 1.53788H7.28411V3.01055H12.2347V1.53788ZM12.6972 3.93539H6.82223C6.76146 3.93547 6.70127 3.92356 6.6451 3.90035C6.58894 3.87714 6.5379 3.84309 6.4949 3.80015C6.4519 3.7572 6.41779 3.7062 6.39452 3.65006C6.37125 3.59392 6.35927 3.53375 6.35927 3.47297V2.73473H5.24891V4.86676H8.01582C8.07659 4.86676 8.13677 4.87874 8.19291 4.90202C8.24905 4.92529 8.30005 4.9594 8.343 5.0024C8.38594 5.04539 8.41999 5.09644 8.4432 5.1526C8.46641 5.20877 8.47831 5.26896 8.47824 5.32973C8.48515 5.66488 8.62314 5.98397 8.8626 6.21855C9.10207 6.45313 9.42393 6.58451 9.75915 6.58451C10.0944 6.58451 10.4162 6.45313 10.6557 6.21855C10.8952 5.98397 11.0331 5.66488 11.0401 5.32973C11.04 5.26896 11.0519 5.20877 11.0751 5.1526C11.0983 5.09644 11.1324 5.04539 11.1753 5.0024C11.2182 4.9594 11.2692 4.92529 11.3254 4.90202C11.3815 4.87874 11.4417 4.86676 11.5025 4.86676H14.271V2.73473H13.1601V3.47297C13.1601 3.53375 13.1481 3.59392 13.1249 3.65006C13.1016 3.7062 13.0675 3.7572 13.0245 3.80015C12.9815 3.84309 12.9304 3.87714 12.8743 3.90035C12.8181 3.92356 12.7579 3.93547 12.6972 3.93539ZM3.05786 19.4937C3.14221 19.578 3.25656 19.6255 3.37584 19.6256H11.4377C11.1404 18.7682 11.044 17.8539 11.156 16.9533C11.268 16.0527 11.5854 15.1899 12.0837 14.4314C12.582 13.6729 13.2479 13.0391 14.03 12.5787C14.8121 12.1184 15.6895 11.8439 16.5945 11.7764V3.18519C16.5945 3.06581 16.5472 2.95132 16.4628 2.86686C16.3784 2.7824 16.264 2.73488 16.1446 2.73473H15.1926V5.32973C15.1926 5.39046 15.1806 5.45059 15.1574 5.50669C15.1342 5.56279 15.1001 5.61377 15.0572 5.65671C15.0142 5.69965 14.9632 5.73371 14.9071 5.75695C14.851 5.78019 14.7909 5.79215 14.7302 5.79215H11.9181C11.8116 6.28517 11.5394 6.72684 11.1469 7.04361C10.7544 7.36038 10.2652 7.53315 9.76078 7.53315C9.25638 7.53315 8.7672 7.36038 8.37468 7.04361C7.98215 6.72684 7.70997 6.28517 7.60345 5.79215H4.78649C4.72572 5.79222 4.66553 5.78031 4.60937 5.75711C4.5532 5.7339 4.50216 5.69985 4.45916 5.6569C4.41616 5.61396 4.38205 5.56296 4.35878 5.50682C4.33551 5.45068 4.32353 5.3905 4.32353 5.32973V2.73473H3.37584C3.31668 2.7348 3.25812 2.74653 3.2035 2.76923C3.14887 2.79193 3.09926 2.82517 3.05748 2.86705C3.0157 2.90893 2.98258 2.95863 2.96001 3.01331C2.93744 3.06799 2.92586 3.12657 2.92593 3.18573V19.1757C2.92607 19.295 2.97352 19.4093 3.05786 19.4937ZM14.2667 21.8723C15.0922 22.4237 16.0626 22.7179 17.0553 22.7178L17.0542 22.7157C18.3853 22.7142 19.6613 22.1848 20.6025 21.2437C21.5437 20.3025 22.0731 19.0264 22.0745 17.6954C22.074 16.7027 21.7791 15.7324 21.2272 14.9073C20.6752 14.0821 19.8911 13.4392 18.9737 13.0597C18.0564 12.6802 17.0472 12.5812 16.0736 12.7752C15.1001 12.9693 14.2059 13.4476 13.5042 14.1498C12.8024 14.852 12.3247 15.7465 12.1313 16.7202C11.9379 17.6939 12.0375 18.703 12.4176 19.6201C12.7977 20.5372 13.4412 21.3209 14.2667 21.8723ZM19.5839 15.2025C19.5841 15.2026 19.5843 15.2025 19.5846 15.2024L19.5848 15.203L19.5839 15.2025ZM18.9887 15.29C19.0516 15.1804 19.1549 15.1002 19.2764 15.0676C19.3977 15.035 19.5267 15.0527 19.635 15.1165C19.7434 15.1809 19.8221 15.2854 19.8537 15.4079C19.8854 15.5304 19.8681 15.6607 19.8055 15.7704L17.4669 19.8593C17.4293 19.9249 17.3767 19.9808 17.3135 20.0219C17.2502 20.0631 17.1782 20.0884 17.1032 20.0956C17.0282 20.1028 16.9527 20.0917 16.8829 20.0633C16.8131 20.0349 16.7511 19.9901 16.7019 19.9327L14.9487 17.881C14.906 17.8342 14.873 17.7793 14.8516 17.7195C14.83 17.6592 14.8205 17.5951 14.8237 17.531C14.8269 17.4669 14.8428 17.4041 14.8704 17.3463C14.8981 17.2885 14.9369 17.2368 14.9848 17.1944C15.0326 17.152 15.0885 17.1198 15.149 17.0998C15.2096 17.0797 15.2735 17.0723 15.337 17.078C15.4005 17.0838 15.4622 17.1024 15.5182 17.1329C15.5738 17.1631 15.6227 17.2041 15.6622 17.2536L16.9822 18.798L18.9887 15.29ZM14.4243 9.82711H6.02891C5.90954 9.80941 5.80051 9.74941 5.72168 9.65803C5.64285 9.56666 5.59949 9.45 5.59949 9.32933C5.59949 9.20865 5.64285 9.09199 5.72168 9.00062C5.80051 8.90924 5.90954 8.84924 6.02891 8.83154H14.4243C14.5437 8.84924 14.6527 8.90924 14.7315 9.00062C14.8104 9.09199 14.8537 9.20865 14.8537 9.32933C14.8537 9.45 14.8104 9.56666 14.7315 9.65803C14.6527 9.74941 14.5437 9.80941 14.4243 9.82711ZM10.2012 12.6113H5.9845C5.87414 12.6398 5.77638 12.7042 5.70658 12.7943C5.63678 12.8844 5.59891 12.9951 5.59891 13.1091C5.59891 13.2231 5.63678 13.3338 5.70658 13.4239C5.77638 13.514 5.87414 13.5784 5.9845 13.6069H10.2012C10.3116 13.5784 10.4094 13.514 10.4792 13.4239C10.549 13.3338 10.5868 13.2231 10.5868 13.1091C10.5868 12.9951 10.549 12.8844 10.4792 12.7943C10.4094 12.7042 10.3116 12.6398 10.2012 12.6113ZM5.94512 16.3914H8.57058C8.76208 16.3914 8.91658 16.6139 8.91658 16.8892C8.91658 17.1644 8.76154 17.387 8.57058 17.387H5.94512C5.75362 17.387 5.59912 17.1644 5.59912 16.8892C5.59912 16.6139 5.75417 16.3914 5.94512 16.3914Z" fill="black" fill-opacity="0.2"/>
<path fill-rule="evenodd" clip-rule="evenodd" d="M17.5199 3.18573V11.7764C18.5463 11.8566 19.5342 12.202 20.3869 12.7788C21.2396 13.3557 21.9279 14.1441 22.3842 15.0669C22.8406 15.9897 23.0494 17.0153 22.9902 18.0431C22.931 19.0708 22.6058 20.0656 22.0465 20.9299C21.4872 21.7942 20.713 22.4984 19.7997 22.9735C18.8864 23.4486 17.8653 23.6783 16.8365 23.6401C15.8078 23.6019 14.8066 23.2971 13.931 22.7556C13.0555 22.2141 12.3356 21.4544 11.8419 20.551H3.37529C3.01068 20.5506 2.66112 20.4055 2.40329 20.1477C2.14547 19.8899 2.00043 19.5403 2 19.1757V3.18573C2.00029 2.82092 2.14533 2.47114 2.40329 2.21318C2.66125 1.95523 3.01103 1.81018 3.37584 1.80989H6.35872V1.07546C6.35872 1.01469 6.3707 0.954511 6.39398 0.898372C6.41725 0.842233 6.45136 0.791232 6.49436 0.748285C6.53735 0.705338 6.58839 0.671288 6.64456 0.648081C6.70073 0.624874 6.76092 0.612966 6.82169 0.613037H12.6961C12.7568 0.612966 12.817 0.624874 12.8732 0.648081C12.9294 0.671288 12.9804 0.705338 13.0234 0.748285C13.0664 0.791232 13.1005 0.842233 13.1238 0.898372C13.1471 0.954511 13.159 1.01469 13.159 1.07546V1.80989H16.1446C16.5093 1.81032 16.859 1.95543 17.1168 2.21338C17.3747 2.47132 17.5196 2.82102 17.5199 3.18573ZM12.2347 1.53788H7.28411V3.01055H12.2347V1.53788ZM12.6972 3.93539H6.82223C6.76146 3.93547 6.70127 3.92356 6.6451 3.90035C6.58894 3.87714 6.5379 3.84309 6.4949 3.80015C6.4519 3.7572 6.41779 3.7062 6.39452 3.65006C6.37125 3.59392 6.35927 3.53375 6.35927 3.47297V2.73473H5.24891V4.86676H8.01582C8.07659 4.86676 8.13677 4.87874 8.19291 4.90202C8.24905 4.92529 8.30005 4.9594 8.343 5.0024C8.38594 5.04539 8.41999 5.09644 8.4432 5.1526C8.46641 5.20877 8.47831 5.26896 8.47824 5.32973C8.48515 5.66488 8.62314 5.98397 8.8626 6.21855C9.10207 6.45313 9.42393 6.58451 9.75915 6.58451C10.0944 6.58451 10.4162 6.45313 10.6557 6.21855C10.8952 5.98397 11.0331 5.66488 11.0401 5.32973C11.04 5.26896 11.0519 5.20877 11.0751 5.1526C11.0983 5.09644 11.1324 5.04539 11.1753 5.0024C11.2182 4.9594 11.2692 4.92529 11.3254 4.90202C11.3815 4.87874 11.4417 4.86676 11.5025 4.86676H14.271V2.73473H13.1601V3.47297C13.1601 3.53375 13.1481 3.59392 13.1249 3.65006C13.1016 3.7062 13.0675 3.7572 13.0245 3.80015C12.9815 3.84309 12.9304 3.87714 12.8743 3.90035C12.8181 3.92356 12.7579 3.93547 12.6972 3.93539ZM3.05786 19.4937C3.14221 19.578 3.25656 19.6255 3.37584 19.6256H11.4377C11.1404 18.7682 11.044 17.8539 11.156 16.9533C11.268 16.0527 11.5854 15.1899 12.0837 14.4314C12.582 13.6729 13.2479 13.0391 14.03 12.5787C14.8121 12.1184 15.6895 11.8439 16.5945 11.7764V3.18519C16.5945 3.06581 16.5472 2.95132 16.4628 2.86686C16.3784 2.7824 16.264 2.73488 16.1446 2.73473H15.1926V5.32973C15.1926 5.39046 15.1806 5.45059 15.1574 5.50669C15.1342 5.56279 15.1001 5.61377 15.0572 5.65671C15.0142 5.69965 14.9632 5.73371 14.9071 5.75695C14.851 5.78019 14.7909 5.79215 14.7302 5.79215H11.9181C11.8116 6.28517 11.5394 6.72684 11.1469 7.04361C10.7544 7.36038 10.2652 7.53315 9.76078 7.53315C9.25638 7.53315 8.7672 7.36038 8.37468 7.04361C7.98215 6.72684 7.70997 6.28517 7.60345 5.79215H4.78649C4.72572 5.79222 4.66553 5.78031 4.60937 5.75711C4.5532 5.7339 4.50216 5.69985 4.45916 5.6569C4.41616 5.61396 4.38205 5.56296 4.35878 5.50682C4.33551 5.45068 4.32353 5.3905 4.32353 5.32973V2.73473H3.37584C3.31668 2.7348 3.25812 2.74653 3.2035 2.76923C3.14887 2.79193 3.09926 2.82517 3.05748 2.86705C3.0157 2.90893 2.98258 2.95863 2.96001 3.01331C2.93744 3.06799 2.92586 3.12657 2.92593 3.18573V19.1757C2.92607 19.295 2.97352 19.4093 3.05786 19.4937ZM14.2667 21.8723C15.0922 22.4237 16.0626 22.7179 17.0553 22.7178L17.0542 22.7157C18.3853 22.7142 19.6613 22.1848 20.6025 21.2437C21.5437 20.3025 22.0731 19.0264 22.0745 17.6954C22.074 16.7027 21.7791 15.7324 21.2272 14.9073C20.6752 14.0821 19.8911 13.4392 18.9737 13.0597C18.0564 12.6802 17.0472 12.5812 16.0736 12.7752C15.1001 12.9693 14.2059 13.4476 13.5042 14.1498C12.8024 14.852 12.3247 15.7465 12.1313 16.7202C11.9379 17.6939 12.0375 18.703 12.4176 19.6201C12.7977 20.5372 13.4412 21.3209 14.2667 21.8723ZM19.5839 15.2025C19.5841 15.2026 19.5843 15.2025 19.5846 15.2024L19.5848 15.203L19.5839 15.2025ZM18.9887 15.29C19.0516 15.1804 19.1549 15.1002 19.2764 15.0676C19.3977 15.035 19.5267 15.0527 19.635 15.1165C19.7434 15.1809 19.8221 15.2854 19.8537 15.4079C19.8854 15.5304 19.8681 15.6607 19.8055 15.7704L17.4669 19.8593C17.4293 19.9249 17.3767 19.9808 17.3135 20.0219C17.2502 20.0631 17.1782 20.0884 17.1032 20.0956C17.0282 20.1028 16.9527 20.0917 16.8829 20.0633C16.8131 20.0349 16.7511 19.9901 16.7019 19.9327L14.9487 17.881C14.906 17.8342 14.873 17.7793 14.8516 17.7195C14.83 17.6592 14.8205 17.5951 14.8237 17.531C14.8269 17.4669 14.8428 17.4041 14.8704 17.3463C14.8981 17.2885 14.9369 17.2368 14.9848 17.1944C15.0326 17.152 15.0885 17.1198 15.149 17.0998C15.2096 17.0797 15.2735 17.0723 15.337 17.078C15.4005 17.0838 15.4622 17.1024 15.5182 17.1329C15.5738 17.1631 15.6227 17.2041 15.6622 17.2536L16.9822 18.798L18.9887 15.29ZM14.4243 9.82711H6.02891C5.90954 9.80941 5.80051 9.74941 5.72168 9.65803C5.64285 9.56666 5.59949 9.45 5.59949 9.32933C5.59949 9.20865 5.64285 9.09199 5.72168 9.00062C5.80051 8.90924 5.90954 8.84924 6.02891 8.83154H14.4243C14.5437 8.84924 14.6527 8.90924 14.7315 9.00062C14.8104 9.09199 14.8537 9.20865 14.8537 9.32933C14.8537 9.45 14.8104 9.56666 14.7315 9.65803C14.6527 9.74941 14.5437 9.80941 14.4243 9.82711ZM10.2012 12.6113H5.9845C5.87414 12.6398 5.77638 12.7042 5.70658 12.7943C5.63678 12.8844 5.59891 12.9951 5.59891 13.1091C5.59891 13.2231 5.63678 13.3338 5.70658 13.4239C5.77638 13.514 5.87414 13.5784 5.9845 13.6069H10.2012C10.3116 13.5784 10.4094 13.514 10.4792 13.4239C10.549 13.3338 10.5868 13.2231 10.5868 13.1091C10.5868 12.9951 10.549 12.8844 10.4792 12.7943C10.4094 12.7042 10.3116 12.6398 10.2012 12.6113ZM5.94512 16.3914H8.57058C8.76208 16.3914 8.91658 16.6139 8.91658 16.8892C8.91658 17.1644 8.76154 17.387 8.57058 17.387H5.94512C5.75362 17.387 5.59912 17.1644 5.59912 16.8892C5.59912 16.6139 5.75417 16.3914 5.94512 16.3914Z" fill="black" fill-opacity="0.2"/>
<path fill-rule="evenodd" clip-rule="evenodd" d="M17.5199 3.18573V11.7764C18.5463 11.8566 19.5342 12.202 20.3869 12.7788C21.2396 13.3557 21.9279 14.1441 22.3842 15.0669C22.8406 15.9897 23.0494 17.0153 22.9902 18.0431C22.931 19.0708 22.6058 20.0656 22.0465 20.9299C21.4872 21.7942 20.713 22.4984 19.7997 22.9735C18.8864 23.4486 17.8653 23.6783 16.8365 23.6401C15.8078 23.6019 14.8066 23.2971 13.931 22.7556C13.0555 22.2141 12.3356 21.4544 11.8419 20.551H3.37529C3.01068 20.5506 2.66112 20.4055 2.40329 20.1477C2.14547 19.8899 2.00043 19.5403 2 19.1757V3.18573C2.00029 2.82092 2.14533 2.47114 2.40329 2.21318C2.66125 1.95523 3.01103 1.81018 3.37584 1.80989H6.35872V1.07546C6.35872 1.01469 6.3707 0.954511 6.39398 0.898372C6.41725 0.842233 6.45136 0.791232 6.49436 0.748285C6.53735 0.705338 6.58839 0.671288 6.64456 0.648081C6.70073 0.624874 6.76092 0.612966 6.82169 0.613037H12.6961C12.7568 0.612966 12.817 0.624874 12.8732 0.648081C12.9294 0.671288 12.9804 0.705338 13.0234 0.748285C13.0664 0.791232 13.1005 0.842233 13.1238 0.898372C13.1471 0.954511 13.159 1.01469 13.159 1.07546V1.80989H16.1446C16.5093 1.81032 16.859 1.95543 17.1168 2.21338C17.3747 2.47132 17.5196 2.82102 17.5199 3.18573ZM12.2347 1.53788H7.28411V3.01055H12.2347V1.53788ZM12.6972 3.93539H6.82223C6.76146 3.93547 6.70127 3.92356 6.6451 3.90035C6.58894 3.87714 6.5379 3.84309 6.4949 3.80015C6.4519 3.7572 6.41779 3.7062 6.39452 3.65006C6.37125 3.59392 6.35927 3.53375 6.35927 3.47297V2.73473H5.24891V4.86676H8.01582C8.07659 4.86676 8.13677 4.87874 8.19291 4.90202C8.24905 4.92529 8.30005 4.9594 8.343 5.0024C8.38594 5.04539 8.41999 5.09644 8.4432 5.1526C8.46641 5.20877 8.47831 5.26896 8.47824 5.32973C8.48515 5.66488 8.62314 5.98397 8.8626 6.21855C9.10207 6.45313 9.42393 6.58451 9.75915 6.58451C10.0944 6.58451 10.4162 6.45313 10.6557 6.21855C10.8952 5.98397 11.0331 5.66488 11.0401 5.32973C11.04 5.26896 11.0519 5.20877 11.0751 5.1526C11.0983 5.09644 11.1324 5.04539 11.1753 5.0024C11.2182 4.9594 11.2692 4.92529 11.3254 4.90202C11.3815 4.87874 11.4417 4.86676 11.5025 4.86676H14.271V2.73473H13.1601V3.47297C13.1601 3.53375 13.1481 3.59392 13.1249 3.65006C13.1016 3.7062 13.0675 3.7572 13.0245 3.80015C12.9815 3.84309 12.9304 3.87714 12.8743 3.90035C12.8181 3.92356 12.7579 3.93547 12.6972 3.93539ZM3.05786 19.4937C3.14221 19.578 3.25656 19.6255 3.37584 19.6256H11.4377C11.1404 18.7682 11.044 17.8539 11.156 16.9533C11.268 16.0527 11.5854 15.1899 12.0837 14.4314C12.582 13.6729 13.2479 13.0391 14.03 12.5787C14.8121 12.1184 15.6895 11.8439 16.5945 11.7764V3.18519C16.5945 3.06581 16.5472 2.95132 16.4628 2.86686C16.3784 2.7824 16.264 2.73488 16.1446 2.73473H15.1926V5.32973C15.1926 5.39046 15.1806 5.45059 15.1574 5.50669C15.1342 5.56279 15.1001 5.61377 15.0572 5.65671C15.0142 5.69965 14.9632 5.73371 14.9071 5.75695C14.851 5.78019 14.7909 5.79215 14.7302 5.79215H11.9181C11.8116 6.28517 11.5394 6.72684 11.1469 7.04361C10.7544 7.36038 10.2652 7.53315 9.76078 7.53315C9.25638 7.53315 8.7672 7.36038 8.37468 7.04361C7.98215 6.72684 7.70997 6.28517 7.60345 5.79215H4.78649C4.72572 5.79222 4.66553 5.78031 4.60937 5.75711C4.5532 5.7339 4.50216 5.69985 4.45916 5.6569C4.41616 5.61396 4.38205 5.56296 4.35878 5.50682C4.33551 5.45068 4.32353 5.3905 4.32353 5.32973V2.73473H3.37584C3.31668 2.7348 3.25812 2.74653 3.2035 2.76923C3.14887 2.79193 3.09926 2.82517 3.05748 2.86705C3.0157 2.90893 2.98258 2.95863 2.96001 3.01331C2.93744 3.06799 2.92586 3.12657 2.92593 3.18573V19.1757C2.92607 19.295 2.97352 19.4093 3.05786 19.4937ZM14.2667 21.8723C15.0922 22.4237 16.0626 22.7179 17.0553 22.7178L17.0542 22.7157C18.3853 22.7142 19.6613 22.1848 20.6025 21.2437C21.5437 20.3025 22.0731 19.0264 22.0745 17.6954C22.074 16.7027 21.7791 15.7324 21.2272 14.9073C20.6752 14.0821 19.8911 13.4392 18.9737 13.0597C18.0564 12.6802 17.0472 12.5812 16.0736 12.7752C15.1001 12.9693 14.2059 13.4476 13.5042 14.1498C12.8024 14.852 12.3247 15.7465 12.1313 16.7202C11.9379 17.6939 12.0375 18.703 12.4176 19.6201C12.7977 20.5372 13.4412 21.3209 14.2667 21.8723ZM19.5839 15.2025C19.5841 15.2026 19.5843 15.2025 19.5846 15.2024L19.5848 15.203L19.5839 15.2025ZM18.9887 15.29C19.0516 15.1804 19.1549 15.1002 19.2764 15.0676C19.3977 15.035 19.5267 15.0527 19.635 15.1165C19.7434 15.1809 19.8221 15.2854 19.8537 15.4079C19.8854 15.5304 19.8681 15.6607 19.8055 15.7704L17.4669 19.8593C17.4293 19.9249 17.3767 19.9808 17.3135 20.0219C17.2502 20.0631 17.1782 20.0884 17.1032 20.0956C17.0282 20.1028 16.9527 20.0917 16.8829 20.0633C16.8131 20.0349 16.7511 19.9901 16.7019 19.9327L14.9487 17.881C14.906 17.8342 14.873 17.7793 14.8516 17.7195C14.83 17.6592 14.8205 17.5951 14.8237 17.531C14.8269 17.4669 14.8428 17.4041 14.8704 17.3463C14.8981 17.2885 14.9369 17.2368 14.9848 17.1944C15.0326 17.152 15.0885 17.1198 15.149 17.0998C15.2096 17.0797 15.2735 17.0723 15.337 17.078C15.4005 17.0838 15.4622 17.1024 15.5182 17.1329C15.5738 17.1631 15.6227 17.2041 15.6622 17.2536L16.9822 18.798L18.9887 15.29ZM14.4243 9.82711H6.02891C5.90954 9.80941 5.80051 9.74941 5.72168 9.65803C5.64285 9.56666 5.59949 9.45 5.59949 9.32933C5.59949 9.20865 5.64285 9.09199 5.72168 9.00062C5.80051 8.90924 5.90954 8.84924 6.02891 8.83154H14.4243C14.5437 8.84924 14.6527 8.90924 14.7315 9.00062C14.8104 9.09199 14.8537 9.20865 14.8537 9.32933C14.8537 9.45 14.8104 9.56666 14.7315 9.65803C14.6527 9.74941 14.5437 9.80941 14.4243 9.82711ZM10.2012 12.6113H5.9845C5.87414 12.6398 5.77638 12.7042 5.70658 12.7943C5.63678 12.8844 5.59891 12.9951 5.59891 13.1091C5.59891 13.2231 5.63678 13.3338 5.70658 13.4239C5.77638 13.514 5.87414 13.5784 5.9845 13.6069H10.2012C10.3116 13.5784 10.4094 13.514 10.4792 13.4239C10.549 13.3338 10.5868 13.2231 10.5868 13.1091C10.5868 12.9951 10.549 12.8844 10.4792 12.7943C10.4094 12.7042 10.3116 12.6398 10.2012 12.6113ZM5.94512 16.3914H8.57058C8.76208 16.3914 8.91658 16.6139 8.91658 16.8892C8.91658 17.1644 8.76154 17.387 8.57058 17.387H5.94512C5.75362 17.387 5.59912 17.1644 5.59912 16.8892C5.59912 16.6139 5.75417 16.3914 5.94512 16.3914Z" fill="black" fill-opacity="0.2"/>
<path fill-rule="evenodd" clip-rule="evenodd" d="M17.5199 3.18573V11.7764C18.5463 11.8566 19.5342 12.202 20.3869 12.7788C21.2396 13.3557 21.9279 14.1441 22.3842 15.0669C22.8406 15.9897 23.0494 17.0153 22.9902 18.0431C22.931 19.0708 22.6058 20.0656 22.0465 20.9299C21.4872 21.7942 20.713 22.4984 19.7997 22.9735C18.8864 23.4486 17.8653 23.6783 16.8365 23.6401C15.8078 23.6019 14.8066 23.2971 13.931 22.7556C13.0555 22.2141 12.3356 21.4544 11.8419 20.551H3.37529C3.01068 20.5506 2.66112 20.4055 2.40329 20.1477C2.14547 19.8899 2.00043 19.5403 2 19.1757V3.18573C2.00029 2.82092 2.14533 2.47114 2.40329 2.21318C2.66125 1.95523 3.01103 1.81018 3.37584 1.80989H6.35872V1.07546C6.35872 1.01469 6.3707 0.954511 6.39398 0.898372C6.41725 0.842233 6.45136 0.791232 6.49436 0.748285C6.53735 0.705338 6.58839 0.671288 6.64456 0.648081C6.70073 0.624874 6.76092 0.612966 6.82169 0.613037H12.6961C12.7568 0.612966 12.817 0.624874 12.8732 0.648081C12.9294 0.671288 12.9804 0.705338 13.0234 0.748285C13.0664 0.791232 13.1005 0.842233 13.1238 0.898372C13.1471 0.954511 13.159 1.01469 13.159 1.07546V1.80989H16.1446C16.5093 1.81032 16.859 1.95543 17.1168 2.21338C17.3747 2.47132 17.5196 2.82102 17.5199 3.18573ZM12.2347 1.53788H7.28411V3.01055H12.2347V1.53788ZM12.6972 3.93539H6.82223C6.76146 3.93547 6.70127 3.92356 6.6451 3.90035C6.58894 3.87714 6.5379 3.84309 6.4949 3.80015C6.4519 3.7572 6.41779 3.7062 6.39452 3.65006C6.37125 3.59392 6.35927 3.53375 6.35927 3.47297V2.73473H5.24891V4.86676H8.01582C8.07659 4.86676 8.13677 4.87874 8.19291 4.90202C8.24905 4.92529 8.30005 4.9594 8.343 5.0024C8.38594 5.04539 8.41999 5.09644 8.4432 5.1526C8.46641 5.20877 8.47831 5.26896 8.47824 5.32973C8.48515 5.66488 8.62314 5.98397 8.8626 6.21855C9.10207 6.45313 9.42393 6.58451 9.75915 6.58451C10.0944 6.58451 10.4162 6.45313 10.6557 6.21855C10.8952 5.98397 11.0331 5.66488 11.0401 5.32973C11.04 5.26896 11.0519 5.20877 11.0751 5.1526C11.0983 5.09644 11.1324 5.04539 11.1753 5.0024C11.2182 4.9594 11.2692 4.92529 11.3254 4.90202C11.3815 4.87874 11.4417 4.86676 11.5025 4.86676H14.271V2.73473H13.1601V3.47297C13.1601 3.53375 13.1481 3.59392 13.1249 3.65006C13.1016 3.7062 13.0675 3.7572 13.0245 3.80015C12.9815 3.84309 12.9304 3.87714 12.8743 3.90035C12.8181 3.92356 12.7579 3.93547 12.6972 3.93539ZM3.05786 19.4937C3.14221 19.578 3.25656 19.6255 3.37584 19.6256H11.4377C11.1404 18.7682 11.044 17.8539 11.156 16.9533C11.268 16.0527 11.5854 15.1899 12.0837 14.4314C12.582 13.6729 13.2479 13.0391 14.03 12.5787C14.8121 12.1184 15.6895 11.8439 16.5945 11.7764V3.18519C16.5945 3.06581 16.5472 2.95132 16.4628 2.86686C16.3784 2.7824 16.264 2.73488 16.1446 2.73473H15.1926V5.32973C15.1926 5.39046 15.1806 5.45059 15.1574 5.50669C15.1342 5.56279 15.1001 5.61377 15.0572 5.65671C15.0142 5.69965 14.9632 5.73371 14.9071 5.75695C14.851 5.78019 14.7909 5.79215 14.7302 5.79215H11.9181C11.8116 6.28517 11.5394 6.72684 11.1469 7.04361C10.7544 7.36038 10.2652 7.53315 9.76078 7.53315C9.25638 7.53315 8.7672 7.36038 8.37468 7.04361C7.98215 6.72684 7.70997 6.28517 7.60345 5.79215H4.78649C4.72572 5.79222 4.66553 5.78031 4.60937 5.75711C4.5532 5.7339 4.50216 5.69985 4.45916 5.6569C4.41616 5.61396 4.38205 5.56296 4.35878 5.50682C4.33551 5.45068 4.32353 5.3905 4.32353 5.32973V2.73473H3.37584C3.31668 2.7348 3.25812 2.74653 3.2035 2.76923C3.14887 2.79193 3.09926 2.82517 3.05748 2.86705C3.0157 2.90893 2.98258 2.95863 2.96001 3.01331C2.93744 3.06799 2.92586 3.12657 2.92593 3.18573V19.1757C2.92607 19.295 2.97352 19.4093 3.05786 19.4937ZM14.2667 21.8723C15.0922 22.4237 16.0626 22.7179 17.0553 22.7178L17.0542 22.7157C18.3853 22.7142 19.6613 22.1848 20.6025 21.2437C21.5437 20.3025 22.0731 19.0264 22.0745 17.6954C22.074 16.7027 21.7791 15.7324 21.2272 14.9073C20.6752 14.0821 19.8911 13.4392 18.9737 13.0597C18.0564 12.6802 17.0472 12.5812 16.0736 12.7752C15.1001 12.9693 14.2059 13.4476 13.5042 14.1498C12.8024 14.852 12.3247 15.7465 12.1313 16.7202C11.9379 17.6939 12.0375 18.703 12.4176 19.6201C12.7977 20.5372 13.4412 21.3209 14.2667 21.8723ZM19.5839 15.2025C19.5841 15.2026 19.5843 15.2025 19.5846 15.2024L19.5848 15.203L19.5839 15.2025ZM18.9887 15.29C19.0516 15.1804 19.1549 15.1002 19.2764 15.0676C19.3977 15.035 19.5267 15.0527 19.635 15.1165C19.7434 15.1809 19.8221 15.2854 19.8537 15.4079C19.8854 15.5304 19.8681 15.6607 19.8055 15.7704L17.4669 19.8593C17.4293 19.9249 17.3767 19.9808 17.3135 20.0219C17.2502 20.0631 17.1782 20.0884 17.1032 20.0956C17.0282 20.1028 16.9527 20.0917 16.8829 20.0633C16.8131 20.0349 16.7511 19.9901 16.7019 19.9327L14.9487 17.881C14.906 17.8342 14.873 17.7793 14.8516 17.7195C14.83 17.6592 14.8205 17.5951 14.8237 17.531C14.8269 17.4669 14.8428 17.4041 14.8704 17.3463C14.8981 17.2885 14.9369 17.2368 14.9848 17.1944C15.0326 17.152 15.0885 17.1198 15.149 17.0998C15.2096 17.0797 15.2735 17.0723 15.337 17.078C15.4005 17.0838 15.4622 17.1024 15.5182 17.1329C15.5738 17.1631 15.6227 17.2041 15.6622 17.2536L16.9822 18.798L18.9887 15.29ZM14.4243 9.82711H6.02891C5.90954 9.80941 5.80051 9.74941 5.72168 9.65803C5.64285 9.56666 5.59949 9.45 5.59949 9.32933C5.59949 9.20865 5.64285 9.09199 5.72168 9.00062C5.80051 8.90924 5.90954 8.84924 6.02891 8.83154H14.4243C14.5437 8.84924 14.6527 8.90924 14.7315 9.00062C14.8104 9.09199 14.8537 9.20865 14.8537 9.32933C14.8537 9.45 14.8104 9.56666 14.7315 9.65803C14.6527 9.74941 14.5437 9.80941 14.4243 9.82711ZM10.2012 12.6113H5.9845C5.87414 12.6398 5.77638 12.7042 5.70658 12.7943C5.63678 12.8844 5.59891 12.9951 5.59891 13.1091C5.59891 13.2231 5.63678 13.3338 5.70658 13.4239C5.77638 13.514 5.87414 13.5784 5.9845 13.6069H10.2012C10.3116 13.5784 10.4094 13.514 10.4792 13.4239C10.549 13.3338 10.5868 13.2231 10.5868 13.1091C10.5868 12.9951 10.549 12.8844 10.4792 12.7943C10.4094 12.7042 10.3116 12.6398 10.2012 12.6113ZM5.94512 16.3914H8.57058C8.76208 16.3914 8.91658 16.6139 8.91658 16.8892C8.91658 17.1644 8.76154 17.387 8.57058 17.387H5.94512C5.75362 17.387 5.59912 17.1644 5.59912 16.8892C5.59912 16.6139 5.75417 16.3914 5.94512 16.3914Z" fill="black" fill-opacity="0.2"/>
<path fill-rule="evenodd" clip-rule="evenodd" d="M17.5199 3.18573V11.7764C18.5463 11.8566 19.5342 12.202 20.3869 12.7788C21.2396 13.3557 21.9279 14.1441 22.3842 15.0669C22.8406 15.9897 23.0494 17.0153 22.9902 18.0431C22.931 19.0708 22.6058 20.0656 22.0465 20.9299C21.4872 21.7942 20.713 22.4984 19.7997 22.9735C18.8864 23.4486 17.8653 23.6783 16.8365 23.6401C15.8078 23.6019 14.8066 23.2971 13.931 22.7556C13.0555 22.2141 12.3356 21.4544 11.8419 20.551H3.37529C3.01068 20.5506 2.66112 20.4055 2.40329 20.1477C2.14547 19.8899 2.00043 19.5403 2 19.1757V3.18573C2.00029 2.82092 2.14533 2.47114 2.40329 2.21318C2.66125 1.95523 3.01103 1.81018 3.37584 1.80989H6.35872V1.07546C6.35872 1.01469 6.3707 0.954511 6.39398 0.898372C6.41725 0.842233 6.45136 0.791232 6.49436 0.748285C6.53735 0.705338 6.58839 0.671288 6.64456 0.648081C6.70073 0.624874 6.76092 0.612966 6.82169 0.613037H12.6961C12.7568 0.612966 12.817 0.624874 12.8732 0.648081C12.9294 0.671288 12.9804 0.705338 13.0234 0.748285C13.0664 0.791232 13.1005 0.842233 13.1238 0.898372C13.1471 0.954511 13.159 1.01469 13.159 1.07546V1.80989H16.1446C16.5093 1.81032 16.859 1.95543 17.1168 2.21338C17.3747 2.47132 17.5196 2.82102 17.5199 3.18573ZM12.2347 1.53788H7.28411V3.01055H12.2347V1.53788ZM12.6972 3.93539H6.82223C6.76146 3.93547 6.70127 3.92356 6.6451 3.90035C6.58894 3.87714 6.5379 3.84309 6.4949 3.80015C6.4519 3.7572 6.41779 3.7062 6.39452 3.65006C6.37125 3.59392 6.35927 3.53375 6.35927 3.47297V2.73473H5.24891V4.86676H8.01582C8.07659 4.86676 8.13677 4.87874 8.19291 4.90202C8.24905 4.92529 8.30005 4.9594 8.343 5.0024C8.38594 5.04539 8.41999 5.09644 8.4432 5.1526C8.46641 5.20877 8.47831 5.26896 8.47824 5.32973C8.48515 5.66488 8.62314 5.98397 8.8626 6.21855C9.10207 6.45313 9.42393 6.58451 9.75915 6.58451C10.0944 6.58451 10.4162 6.45313 10.6557 6.21855C10.8952 5.98397 11.0331 5.66488 11.0401 5.32973C11.04 5.26896 11.0519 5.20877 11.0751 5.1526C11.0983 5.09644 11.1324 5.04539 11.1753 5.0024C11.2182 4.9594 11.2692 4.92529 11.3254 4.90202C11.3815 4.87874 11.4417 4.86676 11.5025 4.86676H14.271V2.73473H13.1601V3.47297C13.1601 3.53375 13.1481 3.59392 13.1249 3.65006C13.1016 3.7062 13.0675 3.7572 13.0245 3.80015C12.9815 3.84309 12.9304 3.87714 12.8743 3.90035C12.8181 3.92356 12.7579 3.93547 12.6972 3.93539ZM3.05786 19.4937C3.14221 19.578 3.25656 19.6255 3.37584 19.6256H11.4377C11.1404 18.7682 11.044 17.8539 11.156 16.9533C11.268 16.0527 11.5854 15.1899 12.0837 14.4314C12.582 13.6729 13.2479 13.0391 14.03 12.5787C14.8121 12.1184 15.6895 11.8439 16.5945 11.7764V3.18519C16.5945 3.06581 16.5472 2.95132 16.4628 2.86686C16.3784 2.7824 16.264 2.73488 16.1446 2.73473H15.1926V5.32973C15.1926 5.39046 15.1806 5.45059 15.1574 5.50669C15.1342 5.56279 15.1001 5.61377 15.0572 5.65671C15.0142 5.69965 14.9632 5.73371 14.9071 5.75695C14.851 5.78019 14.7909 5.79215 14.7302 5.79215H11.9181C11.8116 6.28517 11.5394 6.72684 11.1469 7.04361C10.7544 7.36038 10.2652 7.53315 9.76078 7.53315C9.25638 7.53315 8.7672 7.36038 8.37468 7.04361C7.98215 6.72684 7.70997 6.28517 7.60345 5.79215H4.78649C4.72572 5.79222 4.66553 5.78031 4.60937 5.75711C4.5532 5.7339 4.50216 5.69985 4.45916 5.6569C4.41616 5.61396 4.38205 5.56296 4.35878 5.50682C4.33551 5.45068 4.32353 5.3905 4.32353 5.32973V2.73473H3.37584C3.31668 2.7348 3.25812 2.74653 3.2035 2.76923C3.14887 2.79193 3.09926 2.82517 3.05748 2.86705C3.0157 2.90893 2.98258 2.95863 2.96001 3.01331C2.93744 3.06799 2.92586 3.12657 2.92593 3.18573V19.1757C2.92607 19.295 2.97352 19.4093 3.05786 19.4937ZM14.2667 21.8723C15.0922 22.4237 16.0626 22.7179 17.0553 22.7178L17.0542 22.7157C18.3853 22.7142 19.6613 22.1848 20.6025 21.2437C21.5437 20.3025 22.0731 19.0264 22.0745 17.6954C22.074 16.7027 21.7791 15.7324 21.2272 14.9073C20.6752 14.0821 19.8911 13.4392 18.9737 13.0597C18.0564 12.6802 17.0472 12.5812 16.0736 12.7752C15.1001 12.9693 14.2059 13.4476 13.5042 14.1498C12.8024 14.852 12.3247 15.7465 12.1313 16.7202C11.9379 17.6939 12.0375 18.703 12.4176 19.6201C12.7977 20.5372 13.4412 21.3209 14.2667 21.8723ZM19.5839 15.2025C19.5841 15.2026 19.5843 15.2025 19.5846 15.2024L19.5848 15.203L19.5839 15.2025ZM18.9887 15.29C19.0516 15.1804 19.1549 15.1002 19.2764 15.0676C19.3977 15.035 19.5267 15.0527 19.635 15.1165C19.7434 15.1809 19.8221 15.2854 19.8537 15.4079C19.8854 15.5304 19.8681 15.6607 19.8055 15.7704L17.4669 19.8593C17.4293 19.9249 17.3767 19.9808 17.3135 20.0219C17.2502 20.0631 17.1782 20.0884 17.1032 20.0956C17.0282 20.1028 16.9527 20.0917 16.8829 20.0633C16.8131 20.0349 16.7511 19.9901 16.7019 19.9327L14.9487 17.881C14.906 17.8342 14.873 17.7793 14.8516 17.7195C14.83 17.6592 14.8205 17.5951 14.8237 17.531C14.8269 17.4669 14.8428 17.4041 14.8704 17.3463C14.8981 17.2885 14.9369 17.2368 14.9848 17.1944C15.0326 17.152 15.0885 17.1198 15.149 17.0998C15.2096 17.0797 15.2735 17.0723 15.337 17.078C15.4005 17.0838 15.4622 17.1024 15.5182 17.1329C15.5738 17.1631 15.6227 17.2041 15.6622 17.2536L16.9822 18.798L18.9887 15.29ZM14.4243 9.82711H6.02891C5.90954 9.80941 5.80051 9.74941 5.72168 9.65803C5.64285 9.56666 5.59949 9.45 5.59949 9.32933C5.59949 9.20865 5.64285 9.09199 5.72168 9.00062C5.80051 8.90924 5.90954 8.84924 6.02891 8.83154H14.4243C14.5437 8.84924 14.6527 8.90924 14.7315 9.00062C14.8104 9.09199 14.8537 9.20865 14.8537 9.32933C14.8537 9.45 14.8104 9.56666 14.7315 9.65803C14.6527 9.74941 14.5437 9.80941 14.4243 9.82711ZM10.2012 12.6113H5.9845C5.87414 12.6398 5.77638 12.7042 5.70658 12.7943C5.63678 12.8844 5.59891 12.9951 5.59891 13.1091C5.59891 13.2231 5.63678 13.3338 5.70658 13.4239C5.77638 13.514 5.87414 13.5784 5.9845 13.6069H10.2012C10.3116 13.5784 10.4094 13.514 10.4792 13.4239C10.549 13.3338 10.5868 13.2231 10.5868 13.1091C10.5868 12.9951 10.549 12.8844 10.4792 12.7943C10.4094 12.7042 10.3116 12.6398 10.2012 12.6113ZM5.94512 16.3914H8.57058C8.76208 16.3914 8.91658 16.6139 8.91658 16.8892C8.91658 17.1644 8.76154 17.387 8.57058 17.387H5.94512C5.75362 17.387 5.59912 17.1644 5.59912 16.8892C5.59912 16.6139 5.75417 16.3914 5.94512 16.3914Z" fill="black" fill-opacity="0.2"/>
<path fill-rule="evenodd" clip-rule="evenodd" d="M17.5199 3.18573V11.7764C18.5463 11.8566 19.5342 12.202 20.3869 12.7788C21.2396 13.3557 21.9279 14.1441 22.3842 15.0669C22.8406 15.9897 23.0494 17.0153 22.9902 18.0431C22.931 19.0708 22.6058 20.0656 22.0465 20.9299C21.4872 21.7942 20.713 22.4984 19.7997 22.9735C18.8864 23.4486 17.8653 23.6783 16.8365 23.6401C15.8078 23.6019 14.8066 23.2971 13.931 22.7556C13.0555 22.2141 12.3356 21.4544 11.8419 20.551H3.37529C3.01068 20.5506 2.66112 20.4055 2.40329 20.1477C2.14547 19.8899 2.00043 19.5403 2 19.1757V3.18573C2.00029 2.82092 2.14533 2.47114 2.40329 2.21318C2.66125 1.95523 3.01103 1.81018 3.37584 1.80989H6.35872V1.07546C6.35872 1.01469 6.3707 0.954511 6.39398 0.898372C6.41725 0.842233 6.45136 0.791232 6.49436 0.748285C6.53735 0.705338 6.58839 0.671288 6.64456 0.648081C6.70073 0.624874 6.76092 0.612966 6.82169 0.613037H12.6961C12.7568 0.612966 12.817 0.624874 12.8732 0.648081C12.9294 0.671288 12.9804 0.705338 13.0234 0.748285C13.0664 0.791232 13.1005 0.842233 13.1238 0.898372C13.1471 0.954511 13.159 1.01469 13.159 1.07546V1.80989H16.1446C16.5093 1.81032 16.859 1.95543 17.1168 2.21338C17.3747 2.47132 17.5196 2.82102 17.5199 3.18573ZM12.2347 1.53788H7.28411V3.01055H12.2347V1.53788ZM12.6972 3.93539H6.82223C6.76146 3.93547 6.70127 3.92356 6.6451 3.90035C6.58894 3.87714 6.5379 3.84309 6.4949 3.80015C6.4519 3.7572 6.41779 3.7062 6.39452 3.65006C6.37125 3.59392 6.35927 3.53375 6.35927 3.47297V2.73473H5.24891V4.86676H8.01582C8.07659 4.86676 8.13677 4.87874 8.19291 4.90202C8.24905 4.92529 8.30005 4.9594 8.343 5.0024C8.38594 5.04539 8.41999 5.09644 8.4432 5.1526C8.46641 5.20877 8.47831 5.26896 8.47824 5.32973C8.48515 5.66488 8.62314 5.98397 8.8626 6.21855C9.10207 6.45313 9.42393 6.58451 9.75915 6.58451C10.0944 6.58451 10.4162 6.45313 10.6557 6.21855C10.8952 5.98397 11.0331 5.66488 11.0401 5.32973C11.04 5.26896 11.0519 5.20877 11.0751 5.1526C11.0983 5.09644 11.1324 5.04539 11.1753 5.0024C11.2182 4.9594 11.2692 4.92529 11.3254 4.90202C11.3815 4.87874 11.4417 4.86676 11.5025 4.86676H14.271V2.73473H13.1601V3.47297C13.1601 3.53375 13.1481 3.59392 13.1249 3.65006C13.1016 3.7062 13.0675 3.7572 13.0245 3.80015C12.9815 3.84309 12.9304 3.87714 12.8743 3.90035C12.8181 3.92356 12.7579 3.93547 12.6972 3.93539ZM3.05786 19.4937C3.14221 19.578 3.25656 19.6255 3.37584 19.6256H11.4377C11.1404 18.7682 11.044 17.8539 11.156 16.9533C11.268 16.0527 11.5854 15.1899 12.0837 14.4314C12.582 13.6729 13.2479 13.0391 14.03 12.5787C14.8121 12.1184 15.6895 11.8439 16.5945 11.7764V3.18519C16.5945 3.06581 16.5472 2.95132 16.4628 2.86686C16.3784 2.7824 16.264 2.73488 16.1446 2.73473H15.1926V5.32973C15.1926 5.39046 15.1806 5.45059 15.1574 5.50669C15.1342 5.56279 15.1001 5.61377 15.0572 5.65671C15.0142 5.69965 14.9632 5.73371 14.9071 5.75695C14.851 5.78019 14.7909 5.79215 14.7302 5.79215H11.9181C11.8116 6.28517 11.5394 6.72684 11.1469 7.04361C10.7544 7.36038 10.2652 7.53315 9.76078 7.53315C9.25638 7.53315 8.7672 7.36038 8.37468 7.04361C7.98215 6.72684 7.70997 6.28517 7.60345 5.79215H4.78649C4.72572 5.79222 4.66553 5.78031 4.60937 5.75711C4.5532 5.7339 4.50216 5.69985 4.45916 5.6569C4.41616 5.61396 4.38205 5.56296 4.35878 5.50682C4.33551 5.45068 4.32353 5.3905 4.32353 5.32973V2.73473H3.37584C3.31668 2.7348 3.25812 2.74653 3.2035 2.76923C3.14887 2.79193 3.09926 2.82517 3.05748 2.86705C3.0157 2.90893 2.98258 2.95863 2.96001 3.01331C2.93744 3.06799 2.92586 3.12657 2.92593 3.18573V19.1757C2.92607 19.295 2.97352 19.4093 3.05786 19.4937ZM14.2667 21.8723C15.0922 22.4237 16.0626 22.7179 17.0553 22.7178L17.0542 22.7157C18.3853 22.7142 19.6613 22.1848 20.6025 21.2437C21.5437 20.3025 22.0731 19.0264 22.0745 17.6954C22.074 16.7027 21.7791 15.7324 21.2272 14.9073C20.6752 14.0821 19.8911 13.4392 18.9737 13.0597C18.0564 12.6802 17.0472 12.5812 16.0736 12.7752C15.1001 12.9693 14.2059 13.4476 13.5042 14.1498C12.8024 14.852 12.3247 15.7465 12.1313 16.7202C11.9379 17.6939 12.0375 18.703 12.4176 19.6201C12.7977 20.5372 13.4412 21.3209 14.2667 21.8723ZM19.5839 15.2025C19.5841 15.2026 19.5843 15.2025 19.5846 15.2024L19.5848 15.203L19.5839 15.2025ZM18.9887 15.29C19.0516 15.1804 19.1549 15.1002 19.2764 15.0676C19.3977 15.035 19.5267 15.0527 19.635 15.1165C19.7434 15.1809 19.8221 15.2854 19.8537 15.4079C19.8854 15.5304 19.8681 15.6607 19.8055 15.7704L17.4669 19.8593C17.4293 19.9249 17.3767 19.9808 17.3135 20.0219C17.2502 20.0631 17.1782 20.0884 17.1032 20.0956C17.0282 20.1028 16.9527 20.0917 16.8829 20.0633C16.8131 20.0349 16.7511 19.9901 16.7019 19.9327L14.9487 17.881C14.906 17.8342 14.873 17.7793 14.8516 17.7195C14.83 17.6592 14.8205 17.5951 14.8237 17.531C14.8269 17.4669 14.8428 17.4041 14.8704 17.3463C14.8981 17.2885 14.9369 17.2368 14.9848 17.1944C15.0326 17.152 15.0885 17.1198 15.149 17.0998C15.2096 17.0797 15.2735 17.0723 15.337 17.078C15.4005 17.0838 15.4622 17.1024 15.5182 17.1329C15.5738 17.1631 15.6227 17.2041 15.6622 17.2536L16.9822 18.798L18.9887 15.29ZM14.4243 9.82711H6.02891C5.90954 9.80941 5.80051 9.74941 5.72168 9.65803C5.64285 9.56666 5.59949 9.45 5.59949 9.32933C5.59949 9.20865 5.64285 9.09199 5.72168 9.00062C5.80051 8.90924 5.90954 8.84924 6.02891 8.83154H14.4243C14.5437 8.84924 14.6527 8.90924 14.7315 9.00062C14.8104 9.09199 14.8537 9.20865 14.8537 9.32933C14.8537 9.45 14.8104 9.56666 14.7315 9.65803C14.6527 9.74941 14.5437 9.80941 14.4243 9.82711ZM10.2012 12.6113H5.9845C5.87414 12.6398 5.77638 12.7042 5.70658 12.7943C5.63678 12.8844 5.59891 12.9951 5.59891 13.1091C5.59891 13.2231 5.63678 13.3338 5.70658 13.4239C5.77638 13.514 5.87414 13.5784 5.9845 13.6069H10.2012C10.3116 13.5784 10.4094 13.514 10.4792 13.4239C10.549 13.3338 10.5868 13.2231 10.5868 13.1091C10.5868 12.9951 10.549 12.8844 10.4792 12.7943C10.4094 12.7042 10.3116 12.6398 10.2012 12.6113ZM5.94512 16.3914H8.57058C8.76208 16.3914 8.91658 16.6139 8.91658 16.8892C8.91658 17.1644 8.76154 17.387 8.57058 17.387H5.94512C5.75362 17.387 5.59912 17.1644 5.59912 16.8892C5.59912 16.6139 5.75417 16.3914 5.94512 16.3914Z" fill="black" fill-opacity="0.2"/>
</svg>
