<svg width="24" height="24" viewBox="0 0 24 24" fill="none" xmlns="http://www.w3.org/2000/svg">
<mask id="path-1-inside-1_314_310" fill="white">
<path fill-rule="evenodd" clip-rule="evenodd" d="M19.1767 2.65304H4.84375C4.62455 2.65304 4.41427 2.56593 4.25927 2.41093C4.10427 2.25593 4.01723 2.04572 4.01723 1.82652C4.01723 1.60731 4.10427 1.39695 4.25927 1.24195C4.41427 1.08695 4.62455 1 4.84375 1H19.1767C19.3959 1 19.6061 1.08695 19.7611 1.24195C19.9161 1.39695 20.0032 1.60731 20.0032 1.82652C20.0032 2.04572 19.9161 2.25593 19.7611 2.41093C19.6061 2.56593 19.3959 2.65304 19.1767 2.65304ZM3.71302 4.94634H20.3072C20.5207 4.93793 20.7228 4.84722 20.8709 4.69313C21.0191 4.53905 21.1018 4.33356 21.1018 4.11982C21.1018 3.90608 21.0191 3.70059 20.8709 3.54651C20.7228 3.39243 20.5207 3.30171 20.3072 3.2933H3.71302C3.49945 3.30171 3.29738 3.39243 3.14924 3.54651C3.00111 3.70059 2.91839 3.90608 2.91839 4.11982C2.91839 4.33356 3.00111 4.53905 3.14924 4.69313C3.29738 4.84722 3.49945 4.93793 3.71302 4.94634ZM21.4368 7.24103H2.58009C2.36651 7.23263 2.16452 7.14191 2.01639 6.98783C1.86825 6.83375 1.78553 6.62826 1.78553 6.41452C1.78553 6.20078 1.86825 5.99529 2.01639 5.8412C2.16452 5.68712 2.36651 5.59641 2.58009 5.588H21.4368C21.6504 5.59641 21.8524 5.68712 22.0005 5.8412C22.1487 5.99529 22.2314 6.20078 22.2314 6.41452C22.2314 6.62826 22.1487 6.83375 22.0005 6.98783C21.8524 7.14191 21.6504 7.23263 21.4368 7.24103ZM1 23.5456V7.93974H23.0232V23.5456H1ZM2.65304 9.59419V21.8963H21.3651V9.59419H2.65304Z"/>
</mask>
<path fill-rule="evenodd" clip-rule="evenodd" d="M19.1767 2.65304H4.84375C4.62455 2.65304 4.41427 2.56593 4.25927 2.41093C4.10427 2.25593 4.01723 2.04572 4.01723 1.82652C4.01723 1.60731 4.10427 1.39695 4.25927 1.24195C4.41427 1.08695 4.62455 1 4.84375 1H19.1767C19.3959 1 19.6061 1.08695 19.7611 1.24195C19.9161 1.39695 20.0032 1.60731 20.0032 1.82652C20.0032 2.04572 19.9161 2.25593 19.7611 2.41093C19.6061 2.56593 19.3959 2.65304 19.1767 2.65304ZM3.71302 4.94634H20.3072C20.5207 4.93793 20.7228 4.84722 20.8709 4.69313C21.0191 4.53905 21.1018 4.33356 21.1018 4.11982C21.1018 3.90608 21.0191 3.70059 20.8709 3.54651C20.7228 3.39243 20.5207 3.30171 20.3072 3.2933H3.71302C3.49945 3.30171 3.29738 3.39243 3.14924 3.54651C3.00111 3.70059 2.91839 3.90608 2.91839 4.11982C2.91839 4.33356 3.00111 4.53905 3.14924 4.69313C3.29738 4.84722 3.49945 4.93793 3.71302 4.94634ZM21.4368 7.24103H2.58009C2.36651 7.23263 2.16452 7.14191 2.01639 6.98783C1.86825 6.83375 1.78553 6.62826 1.78553 6.41452C1.78553 6.20078 1.86825 5.99529 2.01639 5.8412C2.16452 5.68712 2.36651 5.59641 2.58009 5.588H21.4368C21.6504 5.59641 21.8524 5.68712 22.0005 5.8412C22.1487 5.99529 22.2314 6.20078 22.2314 6.41452C22.2314 6.62826 22.1487 6.83375 22.0005 6.98783C21.8524 7.14191 21.6504 7.23263 21.4368 7.24103ZM1 23.5456V7.93974H23.0232V23.5456H1ZM2.65304 9.59419V21.8963H21.3651V9.59419H2.65304Z" fill="black"/>
<path fill-rule="evenodd" clip-rule="evenodd" d="M19.1767 2.65304H4.84375C4.62455 2.65304 4.41427 2.56593 4.25927 2.41093C4.10427 2.25593 4.01723 2.04572 4.01723 1.82652C4.01723 1.60731 4.10427 1.39695 4.25927 1.24195C4.41427 1.08695 4.62455 1 4.84375 1H19.1767C19.3959 1 19.6061 1.08695 19.7611 1.24195C19.9161 1.39695 20.0032 1.60731 20.0032 1.82652C20.0032 2.04572 19.9161 2.25593 19.7611 2.41093C19.6061 2.56593 19.3959 2.65304 19.1767 2.65304ZM3.71302 4.94634H20.3072C20.5207 4.93793 20.7228 4.84722 20.8709 4.69313C21.0191 4.53905 21.1018 4.33356 21.1018 4.11982C21.1018 3.90608 21.0191 3.70059 20.8709 3.54651C20.7228 3.39243 20.5207 3.30171 20.3072 3.2933H3.71302C3.49945 3.30171 3.29738 3.39243 3.14924 3.54651C3.00111 3.70059 2.91839 3.90608 2.91839 4.11982C2.91839 4.33356 3.00111 4.53905 3.14924 4.69313C3.29738 4.84722 3.49945 4.93793 3.71302 4.94634ZM21.4368 7.24103H2.58009C2.36651 7.23263 2.16452 7.14191 2.01639 6.98783C1.86825 6.83375 1.78553 6.62826 1.78553 6.41452C1.78553 6.20078 1.86825 5.99529 2.01639 5.8412C2.16452 5.68712 2.36651 5.59641 2.58009 5.588H21.4368C21.6504 5.59641 21.8524 5.68712 22.0005 5.8412C22.1487 5.99529 22.2314 6.20078 22.2314 6.41452C22.2314 6.62826 22.1487 6.83375 22.0005 6.98783C21.8524 7.14191 21.6504 7.23263 21.4368 7.24103ZM1 23.5456V7.93974H23.0232V23.5456H1ZM2.65304 9.59419V21.8963H21.3651V9.59419H2.65304Z" fill="black" fill-opacity="0.2"/>
<path fill-rule="evenodd" clip-rule="evenodd" d="M19.1767 2.65304H4.84375C4.62455 2.65304 4.41427 2.56593 4.25927 2.41093C4.10427 2.25593 4.01723 2.04572 4.01723 1.82652C4.01723 1.60731 4.10427 1.39695 4.25927 1.24195C4.41427 1.08695 4.62455 1 4.84375 1H19.1767C19.3959 1 19.6061 1.08695 19.7611 1.24195C19.9161 1.39695 20.0032 1.60731 20.0032 1.82652C20.0032 2.04572 19.9161 2.25593 19.7611 2.41093C19.6061 2.56593 19.3959 2.65304 19.1767 2.65304ZM3.71302 4.94634H20.3072C20.5207 4.93793 20.7228 4.84722 20.8709 4.69313C21.0191 4.53905 21.1018 4.33356 21.1018 4.11982C21.1018 3.90608 21.0191 3.70059 20.8709 3.54651C20.7228 3.39243 20.5207 3.30171 20.3072 3.2933H3.71302C3.49945 3.30171 3.29738 3.39243 3.14924 3.54651C3.00111 3.70059 2.91839 3.90608 2.91839 4.11982C2.91839 4.33356 3.00111 4.53905 3.14924 4.69313C3.29738 4.84722 3.49945 4.93793 3.71302 4.94634ZM21.4368 7.24103H2.58009C2.36651 7.23263 2.16452 7.14191 2.01639 6.98783C1.86825 6.83375 1.78553 6.62826 1.78553 6.41452C1.78553 6.20078 1.86825 5.99529 2.01639 5.8412C2.16452 5.68712 2.36651 5.59641 2.58009 5.588H21.4368C21.6504 5.59641 21.8524 5.68712 22.0005 5.8412C22.1487 5.99529 22.2314 6.20078 22.2314 6.41452C22.2314 6.62826 22.1487 6.83375 22.0005 6.98783C21.8524 7.14191 21.6504 7.23263 21.4368 7.24103ZM1 23.5456V7.93974H23.0232V23.5456H1ZM2.65304 9.59419V21.8963H21.3651V9.59419H2.65304Z" fill="black" fill-opacity="0.2"/>
<path fill-rule="evenodd" clip-rule="evenodd" d="M19.1767 2.65304H4.84375C4.62455 2.65304 4.41427 2.56593 4.25927 2.41093C4.10427 2.25593 4.01723 2.04572 4.01723 1.82652C4.01723 1.60731 4.10427 1.39695 4.25927 1.24195C4.41427 1.08695 4.62455 1 4.84375 1H19.1767C19.3959 1 19.6061 1.08695 19.7611 1.24195C19.9161 1.39695 20.0032 1.60731 20.0032 1.82652C20.0032 2.04572 19.9161 2.25593 19.7611 2.41093C19.6061 2.56593 19.3959 2.65304 19.1767 2.65304ZM3.71302 4.94634H20.3072C20.5207 4.93793 20.7228 4.84722 20.8709 4.69313C21.0191 4.53905 21.1018 4.33356 21.1018 4.11982C21.1018 3.90608 21.0191 3.70059 20.8709 3.54651C20.7228 3.39243 20.5207 3.30171 20.3072 3.2933H3.71302C3.49945 3.30171 3.29738 3.39243 3.14924 3.54651C3.00111 3.70059 2.91839 3.90608 2.91839 4.11982C2.91839 4.33356 3.00111 4.53905 3.14924 4.69313C3.29738 4.84722 3.49945 4.93793 3.71302 4.94634ZM21.4368 7.24103H2.58009C2.36651 7.23263 2.16452 7.14191 2.01639 6.98783C1.86825 6.83375 1.78553 6.62826 1.78553 6.41452C1.78553 6.20078 1.86825 5.99529 2.01639 5.8412C2.16452 5.68712 2.36651 5.59641 2.58009 5.588H21.4368C21.6504 5.59641 21.8524 5.68712 22.0005 5.8412C22.1487 5.99529 22.2314 6.20078 22.2314 6.41452C22.2314 6.62826 22.1487 6.83375 22.0005 6.98783C21.8524 7.14191 21.6504 7.23263 21.4368 7.24103ZM1 23.5456V7.93974H23.0232V23.5456H1ZM2.65304 9.59419V21.8963H21.3651V9.59419H2.65304Z" fill="black" fill-opacity="0.2"/>
<path fill-rule="evenodd" clip-rule="evenodd" d="M19.1767 2.65304H4.84375C4.62455 2.65304 4.41427 2.56593 4.25927 2.41093C4.10427 2.25593 4.01723 2.04572 4.01723 1.82652C4.01723 1.60731 4.10427 1.39695 4.25927 1.24195C4.41427 1.08695 4.62455 1 4.84375 1H19.1767C19.3959 1 19.6061 1.08695 19.7611 1.24195C19.9161 1.39695 20.0032 1.60731 20.0032 1.82652C20.0032 2.04572 19.9161 2.25593 19.7611 2.41093C19.6061 2.56593 19.3959 2.65304 19.1767 2.65304ZM3.71302 4.94634H20.3072C20.5207 4.93793 20.7228 4.84722 20.8709 4.69313C21.0191 4.53905 21.1018 4.33356 21.1018 4.11982C21.1018 3.90608 21.0191 3.70059 20.8709 3.54651C20.7228 3.39243 20.5207 3.30171 20.3072 3.2933H3.71302C3.49945 3.30171 3.29738 3.39243 3.14924 3.54651C3.00111 3.70059 2.91839 3.90608 2.91839 4.11982C2.91839 4.33356 3.00111 4.53905 3.14924 4.69313C3.29738 4.84722 3.49945 4.93793 3.71302 4.94634ZM21.4368 7.24103H2.58009C2.36651 7.23263 2.16452 7.14191 2.01639 6.98783C1.86825 6.83375 1.78553 6.62826 1.78553 6.41452C1.78553 6.20078 1.86825 5.99529 2.01639 5.8412C2.16452 5.68712 2.36651 5.59641 2.58009 5.588H21.4368C21.6504 5.59641 21.8524 5.68712 22.0005 5.8412C22.1487 5.99529 22.2314 6.20078 22.2314 6.41452C22.2314 6.62826 22.1487 6.83375 22.0005 6.98783C21.8524 7.14191 21.6504 7.23263 21.4368 7.24103ZM1 23.5456V7.93974H23.0232V23.5456H1ZM2.65304 9.59419V21.8963H21.3651V9.59419H2.65304Z" fill="black" fill-opacity="0.2"/>
<path fill-rule="evenodd" clip-rule="evenodd" d="M19.1767 2.65304H4.84375C4.62455 2.65304 4.41427 2.56593 4.25927 2.41093C4.10427 2.25593 4.01723 2.04572 4.01723 1.82652C4.01723 1.60731 4.10427 1.39695 4.25927 1.24195C4.41427 1.08695 4.62455 1 4.84375 1H19.1767C19.3959 1 19.6061 1.08695 19.7611 1.24195C19.9161 1.39695 20.0032 1.60731 20.0032 1.82652C20.0032 2.04572 19.9161 2.25593 19.7611 2.41093C19.6061 2.56593 19.3959 2.65304 19.1767 2.65304ZM3.71302 4.94634H20.3072C20.5207 4.93793 20.7228 4.84722 20.8709 4.69313C21.0191 4.53905 21.1018 4.33356 21.1018 4.11982C21.1018 3.90608 21.0191 3.70059 20.8709 3.54651C20.7228 3.39243 20.5207 3.30171 20.3072 3.2933H3.71302C3.49945 3.30171 3.29738 3.39243 3.14924 3.54651C3.00111 3.70059 2.91839 3.90608 2.91839 4.11982C2.91839 4.33356 3.00111 4.53905 3.14924 4.69313C3.29738 4.84722 3.49945 4.93793 3.71302 4.94634ZM21.4368 7.24103H2.58009C2.36651 7.23263 2.16452 7.14191 2.01639 6.98783C1.86825 6.83375 1.78553 6.62826 1.78553 6.41452C1.78553 6.20078 1.86825 5.99529 2.01639 5.8412C2.16452 5.68712 2.36651 5.59641 2.58009 5.588H21.4368C21.6504 5.59641 21.8524 5.68712 22.0005 5.8412C22.1487 5.99529 22.2314 6.20078 22.2314 6.41452C22.2314 6.62826 22.1487 6.83375 22.0005 6.98783C21.8524 7.14191 21.6504 7.23263 21.4368 7.24103ZM1 23.5456V7.93974H23.0232V23.5456H1ZM2.65304 9.59419V21.8963H21.3651V9.59419H2.65304Z" fill="black" fill-opacity="0.2"/>
<path fill-rule="evenodd" clip-rule="evenodd" d="M19.1767 2.65304H4.84375C4.62455 2.65304 4.41427 2.56593 4.25927 2.41093C4.10427 2.25593 4.01723 2.04572 4.01723 1.82652C4.01723 1.60731 4.10427 1.39695 4.25927 1.24195C4.41427 1.08695 4.62455 1 4.84375 1H19.1767C19.3959 1 19.6061 1.08695 19.7611 1.24195C19.9161 1.39695 20.0032 1.60731 20.0032 1.82652C20.0032 2.04572 19.9161 2.25593 19.7611 2.41093C19.6061 2.56593 19.3959 2.65304 19.1767 2.65304ZM3.71302 4.94634H20.3072C20.5207 4.93793 20.7228 4.84722 20.8709 4.69313C21.0191 4.53905 21.1018 4.33356 21.1018 4.11982C21.1018 3.90608 21.0191 3.70059 20.8709 3.54651C20.7228 3.39243 20.5207 3.30171 20.3072 3.2933H3.71302C3.49945 3.30171 3.29738 3.39243 3.14924 3.54651C3.00111 3.70059 2.91839 3.90608 2.91839 4.11982C2.91839 4.33356 3.00111 4.53905 3.14924 4.69313C3.29738 4.84722 3.49945 4.93793 3.71302 4.94634ZM21.4368 7.24103H2.58009C2.36651 7.23263 2.16452 7.14191 2.01639 6.98783C1.86825 6.83375 1.78553 6.62826 1.78553 6.41452C1.78553 6.20078 1.86825 5.99529 2.01639 5.8412C2.16452 5.68712 2.36651 5.59641 2.58009 5.588H21.4368C21.6504 5.59641 21.8524 5.68712 22.0005 5.8412C22.1487 5.99529 22.2314 6.20078 22.2314 6.41452C22.2314 6.62826 22.1487 6.83375 22.0005 6.98783C21.8524 7.14191 21.6504 7.23263 21.4368 7.24103ZM1 23.5456V7.93974H23.0232V23.5456H1ZM2.65304 9.59419V21.8963H21.3651V9.59419H2.65304Z" fill="black" fill-opacity="0.2"/>
<path fill-rule="evenodd" clip-rule="evenodd" d="M19.1767 2.65304H4.84375C4.62455 2.65304 4.41427 2.56593 4.25927 2.41093C4.10427 2.25593 4.01723 2.04572 4.01723 1.82652C4.01723 1.60731 4.10427 1.39695 4.25927 1.24195C4.41427 1.08695 4.62455 1 4.84375 1H19.1767C19.3959 1 19.6061 1.08695 19.7611 1.24195C19.9161 1.39695 20.0032 1.60731 20.0032 1.82652C20.0032 2.04572 19.9161 2.25593 19.7611 2.41093C19.6061 2.56593 19.3959 2.65304 19.1767 2.65304ZM3.71302 4.94634H20.3072C20.5207 4.93793 20.7228 4.84722 20.8709 4.69313C21.0191 4.53905 21.1018 4.33356 21.1018 4.11982C21.1018 3.90608 21.0191 3.70059 20.8709 3.54651C20.7228 3.39243 20.5207 3.30171 20.3072 3.2933H3.71302C3.49945 3.30171 3.29738 3.39243 3.14924 3.54651C3.00111 3.70059 2.91839 3.90608 2.91839 4.11982C2.91839 4.33356 3.00111 4.53905 3.14924 4.69313C3.29738 4.84722 3.49945 4.93793 3.71302 4.94634ZM21.4368 7.24103H2.58009C2.36651 7.23263 2.16452 7.14191 2.01639 6.98783C1.86825 6.83375 1.78553 6.62826 1.78553 6.41452C1.78553 6.20078 1.86825 5.99529 2.01639 5.8412C2.16452 5.68712 2.36651 5.59641 2.58009 5.588H21.4368C21.6504 5.59641 21.8524 5.68712 22.0005 5.8412C22.1487 5.99529 22.2314 6.20078 22.2314 6.41452C22.2314 6.62826 22.1487 6.83375 22.0005 6.98783C21.8524 7.14191 21.6504 7.23263 21.4368 7.24103ZM1 23.5456V7.93974H23.0232V23.5456H1ZM2.65304 9.59419V21.8963H21.3651V9.59419H2.65304Z" fill="black" fill-opacity="0.2"/>
<path fill-rule="evenodd" clip-rule="evenodd" d="M19.1767 2.65304H4.84375C4.62455 2.65304 4.41427 2.56593 4.25927 2.41093C4.10427 2.25593 4.01723 2.04572 4.01723 1.82652C4.01723 1.60731 4.10427 1.39695 4.25927 1.24195C4.41427 1.08695 4.62455 1 4.84375 1H19.1767C19.3959 1 19.6061 1.08695 19.7611 1.24195C19.9161 1.39695 20.0032 1.60731 20.0032 1.82652C20.0032 2.04572 19.9161 2.25593 19.7611 2.41093C19.6061 2.56593 19.3959 2.65304 19.1767 2.65304ZM3.71302 4.94634H20.3072C20.5207 4.93793 20.7228 4.84722 20.8709 4.69313C21.0191 4.53905 21.1018 4.33356 21.1018 4.11982C21.1018 3.90608 21.0191 3.70059 20.8709 3.54651C20.7228 3.39243 20.5207 3.30171 20.3072 3.2933H3.71302C3.49945 3.30171 3.29738 3.39243 3.14924 3.54651C3.00111 3.70059 2.91839 3.90608 2.91839 4.11982C2.91839 4.33356 3.00111 4.53905 3.14924 4.69313C3.29738 4.84722 3.49945 4.93793 3.71302 4.94634ZM21.4368 7.24103H2.58009C2.36651 7.23263 2.16452 7.14191 2.01639 6.98783C1.86825 6.83375 1.78553 6.62826 1.78553 6.41452C1.78553 6.20078 1.86825 5.99529 2.01639 5.8412C2.16452 5.68712 2.36651 5.59641 2.58009 5.588H21.4368C21.6504 5.59641 21.8524 5.68712 22.0005 5.8412C22.1487 5.99529 22.2314 6.20078 22.2314 6.41452C22.2314 6.62826 22.1487 6.83375 22.0005 6.98783C21.8524 7.14191 21.6504 7.23263 21.4368 7.24103ZM1 23.5456V7.93974H23.0232V23.5456H1ZM2.65304 9.59419V21.8963H21.3651V9.59419H2.65304Z" fill="black" fill-opacity="0.2"/>
<path fill-rule="evenodd" clip-rule="evenodd" d="M19.1767 2.65304H4.84375C4.62455 2.65304 4.41427 2.56593 4.25927 2.41093C4.10427 2.25593 4.01723 2.04572 4.01723 1.82652C4.01723 1.60731 4.10427 1.39695 4.25927 1.24195C4.41427 1.08695 4.62455 1 4.84375 1H19.1767C19.3959 1 19.6061 1.08695 19.7611 1.24195C19.9161 1.39695 20.0032 1.60731 20.0032 1.82652C20.0032 2.04572 19.9161 2.25593 19.7611 2.41093C19.6061 2.56593 19.3959 2.65304 19.1767 2.65304ZM3.71302 4.94634H20.3072C20.5207 4.93793 20.7228 4.84722 20.8709 4.69313C21.0191 4.53905 21.1018 4.33356 21.1018 4.11982C21.1018 3.90608 21.0191 3.70059 20.8709 3.54651C20.7228 3.39243 20.5207 3.30171 20.3072 3.2933H3.71302C3.49945 3.30171 3.29738 3.39243 3.14924 3.54651C3.00111 3.70059 2.91839 3.90608 2.91839 4.11982C2.91839 4.33356 3.00111 4.53905 3.14924 4.69313C3.29738 4.84722 3.49945 4.93793 3.71302 4.94634ZM21.4368 7.24103H2.58009C2.36651 7.23263 2.16452 7.14191 2.01639 6.98783C1.86825 6.83375 1.78553 6.62826 1.78553 6.41452C1.78553 6.20078 1.86825 5.99529 2.01639 5.8412C2.16452 5.68712 2.36651 5.59641 2.58009 5.588H21.4368C21.6504 5.59641 21.8524 5.68712 22.0005 5.8412C22.1487 5.99529 22.2314 6.20078 22.2314 6.41452C22.2314 6.62826 22.1487 6.83375 22.0005 6.98783C21.8524 7.14191 21.6504 7.23263 21.4368 7.24103ZM1 23.5456V7.93974H23.0232V23.5456H1ZM2.65304 9.59419V21.8963H21.3651V9.59419H2.65304Z" fill="black" fill-opacity="0.2"/>
<path d="M4.25927 2.41093L4.96637 1.70382L4.96637 1.70382L4.25927 2.41093ZM4.25927 1.24195L4.96637 1.94906L4.96637 1.94906L4.25927 1.24195ZM19.7611 1.24195L19.054 1.94906L19.7611 1.24195ZM19.7611 2.41093L20.4682 3.11803V3.11803L19.7611 2.41093ZM20.3072 4.94634V5.94634H20.3268L20.3465 5.94557L20.3072 4.94634ZM3.71302 4.94634L3.67368 5.94557L3.69335 5.94634H3.71302V4.94634ZM20.8709 4.69313L20.1501 4.00007L20.1501 4.00008L20.8709 4.69313ZM20.8709 3.54651L20.1501 4.23957L20.1501 4.23957L20.8709 3.54651ZM20.3072 3.2933L20.3465 2.29408L20.3268 2.2933H20.3072V3.2933ZM3.71302 3.2933V2.2933H3.69335L3.67368 2.29408L3.71302 3.2933ZM3.14924 3.54651L2.42836 2.85345L2.42836 2.85345L3.14924 3.54651ZM3.14924 4.69313L2.42836 5.38619L3.14924 4.69313ZM2.58009 7.24103L2.54075 8.24026L2.56041 8.24103H2.58009V7.24103ZM21.4368 7.24103V8.24103H21.4565L21.4762 8.24026L21.4368 7.24103ZM2.01639 6.98783L1.29551 7.68089L1.29551 7.68089L2.01639 6.98783ZM2.01639 5.8412L2.73727 6.53426L2.73727 6.53426L2.01639 5.8412ZM2.58009 5.588V4.588H2.56041L2.54075 4.58877L2.58009 5.588ZM21.4368 5.588L21.4762 4.58877L21.4565 4.588H21.4368V5.588ZM22.0005 6.98783L22.7214 7.68089L22.7214 7.68089L22.0005 6.98783ZM1 7.93974V6.93974H0V7.93974H1ZM1 23.5456H0V24.5456H1V23.5456ZM23.0232 7.93974H24.0232V6.93974H23.0232V7.93974ZM23.0232 23.5456V24.5456H24.0232V23.5456H23.0232ZM2.65304 21.8963H1.65304V22.8963H2.65304V21.8963ZM2.65304 9.59419V8.59419H1.65304V9.59419H2.65304ZM21.3651 21.8963V22.8963H22.3651V21.8963H21.3651ZM21.3651 9.59419H22.3651V8.59419H21.3651V9.59419ZM4.84375 3.65304H19.1767V1.65304H4.84375V3.65304ZM3.55216 3.11803C3.89468 3.46055 4.35931 3.65304 4.84375 3.65304V1.65304C4.88979 1.65304 4.93385 1.6713 4.96637 1.70382L3.55216 3.11803ZM3.01723 1.82652C3.01723 2.31082 3.20954 2.77541 3.55216 3.11803L4.96637 1.70382C4.99899 1.73644 5.01723 1.78062 5.01723 1.82652H3.01723ZM3.55216 0.534847C3.2094 0.877609 3.01723 1.34242 3.01723 1.82652H5.01723C5.01723 1.87221 4.99913 1.9163 4.96637 1.94906L3.55216 0.534847ZM4.84375 0C4.35979 0 3.89502 0.191984 3.55216 0.534847L4.96637 1.94906C4.93351 1.98192 4.8893 2 4.84375 2V0ZM19.1767 0H4.84375V2H19.1767V0ZM20.4682 0.534846C20.1254 0.192054 19.6607 0 19.1767 0V2C19.131 2 19.0868 1.98185 19.054 1.94906L20.4682 0.534846ZM21.0032 1.82652C21.0032 1.34218 20.8108 0.877439 20.4682 0.534846L19.054 1.94906C19.0214 1.91647 19.0032 1.87245 19.0032 1.82652H21.0032ZM20.4682 3.11803C20.8107 2.77558 21.0032 2.31106 21.0032 1.82652H19.0032C19.0032 1.78038 19.0215 1.73627 19.054 1.70382L20.4682 3.11803ZM19.1767 3.65304C19.6612 3.65304 20.1258 3.46048 20.4682 3.11803L19.054 1.70382C19.0864 1.67137 19.1306 1.65304 19.1767 1.65304V3.65304ZM20.3072 3.94634H3.71302V5.94634H20.3072V3.94634ZM20.1501 4.00008C20.1811 3.96775 20.2234 3.94887 20.2678 3.94712L20.3465 5.94557C20.8181 5.927 21.2645 5.72668 21.5918 5.38619L20.1501 4.00008ZM20.1018 4.11982C20.1018 4.07527 20.119 4.03235 20.1501 4.00007L21.5918 5.3862C21.9191 5.04575 22.1018 4.59185 22.1018 4.11982H20.1018ZM20.1501 4.23957C20.119 4.20729 20.1018 4.16437 20.1018 4.11982H22.1018C22.1018 3.64779 21.9191 3.19389 21.5918 2.85345L20.1501 4.23957ZM20.2678 4.29253C20.2234 4.29078 20.1811 4.27189 20.1501 4.23957L21.5918 2.85345C21.2645 2.51297 20.8181 2.31264 20.3465 2.29408L20.2678 4.29253ZM3.71302 4.2933H20.3072V2.2933H3.71302V4.2933ZM3.87012 4.23957C3.83905 4.27189 3.79682 4.29078 3.75236 4.29253L3.67368 2.29408C3.20208 2.31264 2.75571 2.51297 2.42836 2.85345L3.87012 4.23957ZM3.91839 4.11982C3.91839 4.16437 3.90116 4.20729 3.87013 4.23957L2.42836 2.85345C2.10106 3.1939 1.91839 3.64779 1.91839 4.11982H3.91839ZM3.87012 4.00007C3.90116 4.03236 3.91839 4.07527 3.91839 4.11982H1.91839C1.91839 4.59185 2.10106 5.04575 2.42836 5.38619L3.87012 4.00007ZM3.75236 3.94712C3.79682 3.94887 3.83905 3.96775 3.87012 4.00007L2.42836 5.38619C2.75571 5.72668 3.20208 5.927 3.67368 5.94557L3.75236 3.94712ZM2.58009 8.24103H21.4368V6.24103H2.58009V8.24103ZM1.29551 7.68089C1.62278 8.02129 2.06903 8.22169 2.54075 8.24026L2.61942 6.24181C2.66399 6.24356 2.70627 6.26252 2.73727 6.29477L1.29551 7.68089ZM0.78553 6.41452C0.78553 6.88655 0.968201 7.34044 1.29551 7.68089L2.73727 6.29477C2.7683 6.32705 2.78553 6.36997 2.78553 6.41452H0.78553ZM1.29551 5.14814C0.9682 5.48859 0.78553 5.94249 0.78553 6.41452H2.78553C2.78553 6.45907 2.7683 6.50198 2.73727 6.53426L1.29551 5.14814ZM2.54075 4.58877C2.06903 4.60734 1.62278 4.80774 1.29551 5.14815L2.73727 6.53426C2.70627 6.56651 2.66399 6.58547 2.61942 6.58722L2.54075 4.58877ZM21.4368 4.588H2.58009V6.588H21.4368V4.588ZM22.7214 5.14815C22.3941 4.80774 21.9479 4.60734 21.4762 4.58877L21.3975 6.58722C21.3529 6.58547 21.3107 6.56651 21.2797 6.53426L22.7214 5.14815ZM23.2314 6.41452C23.2314 5.94249 23.0487 5.48859 22.7214 5.14815L21.2797 6.53426C21.2486 6.50198 21.2314 6.45907 21.2314 6.41452H23.2314ZM22.7214 7.68089C23.0487 7.34044 23.2314 6.88655 23.2314 6.41452H21.2314C21.2314 6.36997 21.2486 6.32705 21.2797 6.29477L22.7214 7.68089ZM21.4762 8.24026C21.9479 8.22169 22.3941 8.02129 22.7214 7.68089L21.2797 6.29477C21.3107 6.26252 21.3529 6.24356 21.3975 6.24181L21.4762 8.24026ZM0 7.93974V23.5456H2V7.93974H0ZM23.0232 6.93974H1V8.93974H23.0232V6.93974ZM24.0232 23.5456V7.93974H22.0232V23.5456H24.0232ZM1 24.5456H23.0232V22.5456H1V24.5456ZM3.65304 21.8963V9.59419H1.65304V21.8963H3.65304ZM21.3651 20.8963H2.65304V22.8963H21.3651V20.8963ZM20.3651 9.59419V21.8963H22.3651V9.59419H20.3651ZM2.65304 10.5942H21.3651V8.59419H2.65304V10.5942Z" fill="black" mask="url(#path-1-inside-1_314_310)"/>
<path d="M4.25927 2.41093L4.96637 1.70382L4.96637 1.70382L4.25927 2.41093ZM4.25927 1.24195L4.96637 1.94906L4.96637 1.94906L4.25927 1.24195ZM19.7611 1.24195L19.054 1.94906L19.7611 1.24195ZM19.7611 2.41093L20.4682 3.11803V3.11803L19.7611 2.41093ZM20.3072 4.94634V5.94634H20.3268L20.3465 5.94557L20.3072 4.94634ZM3.71302 4.94634L3.67368 5.94557L3.69335 5.94634H3.71302V4.94634ZM20.8709 4.69313L20.1501 4.00007L20.1501 4.00008L20.8709 4.69313ZM20.8709 3.54651L20.1501 4.23957L20.1501 4.23957L20.8709 3.54651ZM20.3072 3.2933L20.3465 2.29408L20.3268 2.2933H20.3072V3.2933ZM3.71302 3.2933V2.2933H3.69335L3.67368 2.29408L3.71302 3.2933ZM3.14924 3.54651L2.42836 2.85345L2.42836 2.85345L3.14924 3.54651ZM3.14924 4.69313L2.42836 5.38619L3.14924 4.69313ZM2.58009 7.24103L2.54075 8.24026L2.56041 8.24103H2.58009V7.24103ZM21.4368 7.24103V8.24103H21.4565L21.4762 8.24026L21.4368 7.24103ZM2.01639 6.98783L1.29551 7.68089L1.29551 7.68089L2.01639 6.98783ZM2.01639 5.8412L2.73727 6.53426L2.73727 6.53426L2.01639 5.8412ZM2.58009 5.588V4.588H2.56041L2.54075 4.58877L2.58009 5.588ZM21.4368 5.588L21.4762 4.58877L21.4565 4.588H21.4368V5.588ZM22.0005 6.98783L22.7214 7.68089L22.7214 7.68089L22.0005 6.98783ZM1 7.93974V6.93974H0V7.93974H1ZM1 23.5456H0V24.5456H1V23.5456ZM23.0232 7.93974H24.0232V6.93974H23.0232V7.93974ZM23.0232 23.5456V24.5456H24.0232V23.5456H23.0232ZM2.65304 21.8963H1.65304V22.8963H2.65304V21.8963ZM2.65304 9.59419V8.59419H1.65304V9.59419H2.65304ZM21.3651 21.8963V22.8963H22.3651V21.8963H21.3651ZM21.3651 9.59419H22.3651V8.59419H21.3651V9.59419ZM4.84375 3.65304H19.1767V1.65304H4.84375V3.65304ZM3.55216 3.11803C3.89468 3.46055 4.35931 3.65304 4.84375 3.65304V1.65304C4.88979 1.65304 4.93385 1.6713 4.96637 1.70382L3.55216 3.11803ZM3.01723 1.82652C3.01723 2.31082 3.20954 2.77541 3.55216 3.11803L4.96637 1.70382C4.99899 1.73644 5.01723 1.78062 5.01723 1.82652H3.01723ZM3.55216 0.534847C3.2094 0.877609 3.01723 1.34242 3.01723 1.82652H5.01723C5.01723 1.87221 4.99913 1.9163 4.96637 1.94906L3.55216 0.534847ZM4.84375 0C4.35979 0 3.89502 0.191984 3.55216 0.534847L4.96637 1.94906C4.93351 1.98192 4.8893 2 4.84375 2V0ZM19.1767 0H4.84375V2H19.1767V0ZM20.4682 0.534846C20.1254 0.192054 19.6607 0 19.1767 0V2C19.131 2 19.0868 1.98185 19.054 1.94906L20.4682 0.534846ZM21.0032 1.82652C21.0032 1.34218 20.8108 0.877439 20.4682 0.534846L19.054 1.94906C19.0214 1.91647 19.0032 1.87245 19.0032 1.82652H21.0032ZM20.4682 3.11803C20.8107 2.77558 21.0032 2.31106 21.0032 1.82652H19.0032C19.0032 1.78038 19.0215 1.73627 19.054 1.70382L20.4682 3.11803ZM19.1767 3.65304C19.6612 3.65304 20.1258 3.46048 20.4682 3.11803L19.054 1.70382C19.0864 1.67137 19.1306 1.65304 19.1767 1.65304V3.65304ZM20.3072 3.94634H3.71302V5.94634H20.3072V3.94634ZM20.1501 4.00008C20.1811 3.96775 20.2234 3.94887 20.2678 3.94712L20.3465 5.94557C20.8181 5.927 21.2645 5.72668 21.5918 5.38619L20.1501 4.00008ZM20.1018 4.11982C20.1018 4.07527 20.119 4.03235 20.1501 4.00007L21.5918 5.3862C21.9191 5.04575 22.1018 4.59185 22.1018 4.11982H20.1018ZM20.1501 4.23957C20.119 4.20729 20.1018 4.16437 20.1018 4.11982H22.1018C22.1018 3.64779 21.9191 3.19389 21.5918 2.85345L20.1501 4.23957ZM20.2678 4.29253C20.2234 4.29078 20.1811 4.27189 20.1501 4.23957L21.5918 2.85345C21.2645 2.51297 20.8181 2.31264 20.3465 2.29408L20.2678 4.29253ZM3.71302 4.2933H20.3072V2.2933H3.71302V4.2933ZM3.87012 4.23957C3.83905 4.27189 3.79682 4.29078 3.75236 4.29253L3.67368 2.29408C3.20208 2.31264 2.75571 2.51297 2.42836 2.85345L3.87012 4.23957ZM3.91839 4.11982C3.91839 4.16437 3.90116 4.20729 3.87013 4.23957L2.42836 2.85345C2.10106 3.1939 1.91839 3.64779 1.91839 4.11982H3.91839ZM3.87012 4.00007C3.90116 4.03236 3.91839 4.07527 3.91839 4.11982H1.91839C1.91839 4.59185 2.10106 5.04575 2.42836 5.38619L3.87012 4.00007ZM3.75236 3.94712C3.79682 3.94887 3.83905 3.96775 3.87012 4.00007L2.42836 5.38619C2.75571 5.72668 3.20208 5.927 3.67368 5.94557L3.75236 3.94712ZM2.58009 8.24103H21.4368V6.24103H2.58009V8.24103ZM1.29551 7.68089C1.62278 8.02129 2.06903 8.22169 2.54075 8.24026L2.61942 6.24181C2.66399 6.24356 2.70627 6.26252 2.73727 6.29477L1.29551 7.68089ZM0.78553 6.41452C0.78553 6.88655 0.968201 7.34044 1.29551 7.68089L2.73727 6.29477C2.7683 6.32705 2.78553 6.36997 2.78553 6.41452H0.78553ZM1.29551 5.14814C0.9682 5.48859 0.78553 5.94249 0.78553 6.41452H2.78553C2.78553 6.45907 2.7683 6.50198 2.73727 6.53426L1.29551 5.14814ZM2.54075 4.58877C2.06903 4.60734 1.62278 4.80774 1.29551 5.14815L2.73727 6.53426C2.70627 6.56651 2.66399 6.58547 2.61942 6.58722L2.54075 4.58877ZM21.4368 4.588H2.58009V6.588H21.4368V4.588ZM22.7214 5.14815C22.3941 4.80774 21.9479 4.60734 21.4762 4.58877L21.3975 6.58722C21.3529 6.58547 21.3107 6.56651 21.2797 6.53426L22.7214 5.14815ZM23.2314 6.41452C23.2314 5.94249 23.0487 5.48859 22.7214 5.14815L21.2797 6.53426C21.2486 6.50198 21.2314 6.45907 21.2314 6.41452H23.2314ZM22.7214 7.68089C23.0487 7.34044 23.2314 6.88655 23.2314 6.41452H21.2314C21.2314 6.36997 21.2486 6.32705 21.2797 6.29477L22.7214 7.68089ZM21.4762 8.24026C21.9479 8.22169 22.3941 8.02129 22.7214 7.68089L21.2797 6.29477C21.3107 6.26252 21.3529 6.24356 21.3975 6.24181L21.4762 8.24026ZM0 7.93974V23.5456H2V7.93974H0ZM23.0232 6.93974H1V8.93974H23.0232V6.93974ZM24.0232 23.5456V7.93974H22.0232V23.5456H24.0232ZM1 24.5456H23.0232V22.5456H1V24.5456ZM3.65304 21.8963V9.59419H1.65304V21.8963H3.65304ZM21.3651 20.8963H2.65304V22.8963H21.3651V20.8963ZM20.3651 9.59419V21.8963H22.3651V9.59419H20.3651ZM2.65304 10.5942H21.3651V8.59419H2.65304V10.5942Z" fill="black" fill-opacity="0.2" mask="url(#path-1-inside-1_314_310)"/>
<path d="M4.25927 2.41093L4.96637 1.70382L4.96637 1.70382L4.25927 2.41093ZM4.25927 1.24195L4.96637 1.94906L4.96637 1.94906L4.25927 1.24195ZM19.7611 1.24195L19.054 1.94906L19.7611 1.24195ZM19.7611 2.41093L20.4682 3.11803V3.11803L19.7611 2.41093ZM20.3072 4.94634V5.94634H20.3268L20.3465 5.94557L20.3072 4.94634ZM3.71302 4.94634L3.67368 5.94557L3.69335 5.94634H3.71302V4.94634ZM20.8709 4.69313L20.1501 4.00007L20.1501 4.00008L20.8709 4.69313ZM20.8709 3.54651L20.1501 4.23957L20.1501 4.23957L20.8709 3.54651ZM20.3072 3.2933L20.3465 2.29408L20.3268 2.2933H20.3072V3.2933ZM3.71302 3.2933V2.2933H3.69335L3.67368 2.29408L3.71302 3.2933ZM3.14924 3.54651L2.42836 2.85345L2.42836 2.85345L3.14924 3.54651ZM3.14924 4.69313L2.42836 5.38619L3.14924 4.69313ZM2.58009 7.24103L2.54075 8.24026L2.56041 8.24103H2.58009V7.24103ZM21.4368 7.24103V8.24103H21.4565L21.4762 8.24026L21.4368 7.24103ZM2.01639 6.98783L1.29551 7.68089L1.29551 7.68089L2.01639 6.98783ZM2.01639 5.8412L2.73727 6.53426L2.73727 6.53426L2.01639 5.8412ZM2.58009 5.588V4.588H2.56041L2.54075 4.58877L2.58009 5.588ZM21.4368 5.588L21.4762 4.58877L21.4565 4.588H21.4368V5.588ZM22.0005 6.98783L22.7214 7.68089L22.7214 7.68089L22.0005 6.98783ZM1 7.93974V6.93974H0V7.93974H1ZM1 23.5456H0V24.5456H1V23.5456ZM23.0232 7.93974H24.0232V6.93974H23.0232V7.93974ZM23.0232 23.5456V24.5456H24.0232V23.5456H23.0232ZM2.65304 21.8963H1.65304V22.8963H2.65304V21.8963ZM2.65304 9.59419V8.59419H1.65304V9.59419H2.65304ZM21.3651 21.8963V22.8963H22.3651V21.8963H21.3651ZM21.3651 9.59419H22.3651V8.59419H21.3651V9.59419ZM4.84375 3.65304H19.1767V1.65304H4.84375V3.65304ZM3.55216 3.11803C3.89468 3.46055 4.35931 3.65304 4.84375 3.65304V1.65304C4.88979 1.65304 4.93385 1.6713 4.96637 1.70382L3.55216 3.11803ZM3.01723 1.82652C3.01723 2.31082 3.20954 2.77541 3.55216 3.11803L4.96637 1.70382C4.99899 1.73644 5.01723 1.78062 5.01723 1.82652H3.01723ZM3.55216 0.534847C3.2094 0.877609 3.01723 1.34242 3.01723 1.82652H5.01723C5.01723 1.87221 4.99913 1.9163 4.96637 1.94906L3.55216 0.534847ZM4.84375 0C4.35979 0 3.89502 0.191984 3.55216 0.534847L4.96637 1.94906C4.93351 1.98192 4.8893 2 4.84375 2V0ZM19.1767 0H4.84375V2H19.1767V0ZM20.4682 0.534846C20.1254 0.192054 19.6607 0 19.1767 0V2C19.131 2 19.0868 1.98185 19.054 1.94906L20.4682 0.534846ZM21.0032 1.82652C21.0032 1.34218 20.8108 0.877439 20.4682 0.534846L19.054 1.94906C19.0214 1.91647 19.0032 1.87245 19.0032 1.82652H21.0032ZM20.4682 3.11803C20.8107 2.77558 21.0032 2.31106 21.0032 1.82652H19.0032C19.0032 1.78038 19.0215 1.73627 19.054 1.70382L20.4682 3.11803ZM19.1767 3.65304C19.6612 3.65304 20.1258 3.46048 20.4682 3.11803L19.054 1.70382C19.0864 1.67137 19.1306 1.65304 19.1767 1.65304V3.65304ZM20.3072 3.94634H3.71302V5.94634H20.3072V3.94634ZM20.1501 4.00008C20.1811 3.96775 20.2234 3.94887 20.2678 3.94712L20.3465 5.94557C20.8181 5.927 21.2645 5.72668 21.5918 5.38619L20.1501 4.00008ZM20.1018 4.11982C20.1018 4.07527 20.119 4.03235 20.1501 4.00007L21.5918 5.3862C21.9191 5.04575 22.1018 4.59185 22.1018 4.11982H20.1018ZM20.1501 4.23957C20.119 4.20729 20.1018 4.16437 20.1018 4.11982H22.1018C22.1018 3.64779 21.9191 3.19389 21.5918 2.85345L20.1501 4.23957ZM20.2678 4.29253C20.2234 4.29078 20.1811 4.27189 20.1501 4.23957L21.5918 2.85345C21.2645 2.51297 20.8181 2.31264 20.3465 2.29408L20.2678 4.29253ZM3.71302 4.2933H20.3072V2.2933H3.71302V4.2933ZM3.87012 4.23957C3.83905 4.27189 3.79682 4.29078 3.75236 4.29253L3.67368 2.29408C3.20208 2.31264 2.75571 2.51297 2.42836 2.85345L3.87012 4.23957ZM3.91839 4.11982C3.91839 4.16437 3.90116 4.20729 3.87013 4.23957L2.42836 2.85345C2.10106 3.1939 1.91839 3.64779 1.91839 4.11982H3.91839ZM3.87012 4.00007C3.90116 4.03236 3.91839 4.07527 3.91839 4.11982H1.91839C1.91839 4.59185 2.10106 5.04575 2.42836 5.38619L3.87012 4.00007ZM3.75236 3.94712C3.79682 3.94887 3.83905 3.96775 3.87012 4.00007L2.42836 5.38619C2.75571 5.72668 3.20208 5.927 3.67368 5.94557L3.75236 3.94712ZM2.58009 8.24103H21.4368V6.24103H2.58009V8.24103ZM1.29551 7.68089C1.62278 8.02129 2.06903 8.22169 2.54075 8.24026L2.61942 6.24181C2.66399 6.24356 2.70627 6.26252 2.73727 6.29477L1.29551 7.68089ZM0.78553 6.41452C0.78553 6.88655 0.968201 7.34044 1.29551 7.68089L2.73727 6.29477C2.7683 6.32705 2.78553 6.36997 2.78553 6.41452H0.78553ZM1.29551 5.14814C0.9682 5.48859 0.78553 5.94249 0.78553 6.41452H2.78553C2.78553 6.45907 2.7683 6.50198 2.73727 6.53426L1.29551 5.14814ZM2.54075 4.58877C2.06903 4.60734 1.62278 4.80774 1.29551 5.14815L2.73727 6.53426C2.70627 6.56651 2.66399 6.58547 2.61942 6.58722L2.54075 4.58877ZM21.4368 4.588H2.58009V6.588H21.4368V4.588ZM22.7214 5.14815C22.3941 4.80774 21.9479 4.60734 21.4762 4.58877L21.3975 6.58722C21.3529 6.58547 21.3107 6.56651 21.2797 6.53426L22.7214 5.14815ZM23.2314 6.41452C23.2314 5.94249 23.0487 5.48859 22.7214 5.14815L21.2797 6.53426C21.2486 6.50198 21.2314 6.45907 21.2314 6.41452H23.2314ZM22.7214 7.68089C23.0487 7.34044 23.2314 6.88655 23.2314 6.41452H21.2314C21.2314 6.36997 21.2486 6.32705 21.2797 6.29477L22.7214 7.68089ZM21.4762 8.24026C21.9479 8.22169 22.3941 8.02129 22.7214 7.68089L21.2797 6.29477C21.3107 6.26252 21.3529 6.24356 21.3975 6.24181L21.4762 8.24026ZM0 7.93974V23.5456H2V7.93974H0ZM23.0232 6.93974H1V8.93974H23.0232V6.93974ZM24.0232 23.5456V7.93974H22.0232V23.5456H24.0232ZM1 24.5456H23.0232V22.5456H1V24.5456ZM3.65304 21.8963V9.59419H1.65304V21.8963H3.65304ZM21.3651 20.8963H2.65304V22.8963H21.3651V20.8963ZM20.3651 9.59419V21.8963H22.3651V9.59419H20.3651ZM2.65304 10.5942H21.3651V8.59419H2.65304V10.5942Z" fill="black" fill-opacity="0.2" mask="url(#path-1-inside-1_314_310)"/>
<path d="M4.25927 2.41093L4.96637 1.70382L4.96637 1.70382L4.25927 2.41093ZM4.25927 1.24195L4.96637 1.94906L4.96637 1.94906L4.25927 1.24195ZM19.7611 1.24195L19.054 1.94906L19.7611 1.24195ZM19.7611 2.41093L20.4682 3.11803V3.11803L19.7611 2.41093ZM20.3072 4.94634V5.94634H20.3268L20.3465 5.94557L20.3072 4.94634ZM3.71302 4.94634L3.67368 5.94557L3.69335 5.94634H3.71302V4.94634ZM20.8709 4.69313L20.1501 4.00007L20.1501 4.00008L20.8709 4.69313ZM20.8709 3.54651L20.1501 4.23957L20.1501 4.23957L20.8709 3.54651ZM20.3072 3.2933L20.3465 2.29408L20.3268 2.2933H20.3072V3.2933ZM3.71302 3.2933V2.2933H3.69335L3.67368 2.29408L3.71302 3.2933ZM3.14924 3.54651L2.42836 2.85345L2.42836 2.85345L3.14924 3.54651ZM3.14924 4.69313L2.42836 5.38619L3.14924 4.69313ZM2.58009 7.24103L2.54075 8.24026L2.56041 8.24103H2.58009V7.24103ZM21.4368 7.24103V8.24103H21.4565L21.4762 8.24026L21.4368 7.24103ZM2.01639 6.98783L1.29551 7.68089L1.29551 7.68089L2.01639 6.98783ZM2.01639 5.8412L2.73727 6.53426L2.73727 6.53426L2.01639 5.8412ZM2.58009 5.588V4.588H2.56041L2.54075 4.58877L2.58009 5.588ZM21.4368 5.588L21.4762 4.58877L21.4565 4.588H21.4368V5.588ZM22.0005 6.98783L22.7214 7.68089L22.7214 7.68089L22.0005 6.98783ZM1 7.93974V6.93974H0V7.93974H1ZM1 23.5456H0V24.5456H1V23.5456ZM23.0232 7.93974H24.0232V6.93974H23.0232V7.93974ZM23.0232 23.5456V24.5456H24.0232V23.5456H23.0232ZM2.65304 21.8963H1.65304V22.8963H2.65304V21.8963ZM2.65304 9.59419V8.59419H1.65304V9.59419H2.65304ZM21.3651 21.8963V22.8963H22.3651V21.8963H21.3651ZM21.3651 9.59419H22.3651V8.59419H21.3651V9.59419ZM4.84375 3.65304H19.1767V1.65304H4.84375V3.65304ZM3.55216 3.11803C3.89468 3.46055 4.35931 3.65304 4.84375 3.65304V1.65304C4.88979 1.65304 4.93385 1.6713 4.96637 1.70382L3.55216 3.11803ZM3.01723 1.82652C3.01723 2.31082 3.20954 2.77541 3.55216 3.11803L4.96637 1.70382C4.99899 1.73644 5.01723 1.78062 5.01723 1.82652H3.01723ZM3.55216 0.534847C3.2094 0.877609 3.01723 1.34242 3.01723 1.82652H5.01723C5.01723 1.87221 4.99913 1.9163 4.96637 1.94906L3.55216 0.534847ZM4.84375 0C4.35979 0 3.89502 0.191984 3.55216 0.534847L4.96637 1.94906C4.93351 1.98192 4.8893 2 4.84375 2V0ZM19.1767 0H4.84375V2H19.1767V0ZM20.4682 0.534846C20.1254 0.192054 19.6607 0 19.1767 0V2C19.131 2 19.0868 1.98185 19.054 1.94906L20.4682 0.534846ZM21.0032 1.82652C21.0032 1.34218 20.8108 0.877439 20.4682 0.534846L19.054 1.94906C19.0214 1.91647 19.0032 1.87245 19.0032 1.82652H21.0032ZM20.4682 3.11803C20.8107 2.77558 21.0032 2.31106 21.0032 1.82652H19.0032C19.0032 1.78038 19.0215 1.73627 19.054 1.70382L20.4682 3.11803ZM19.1767 3.65304C19.6612 3.65304 20.1258 3.46048 20.4682 3.11803L19.054 1.70382C19.0864 1.67137 19.1306 1.65304 19.1767 1.65304V3.65304ZM20.3072 3.94634H3.71302V5.94634H20.3072V3.94634ZM20.1501 4.00008C20.1811 3.96775 20.2234 3.94887 20.2678 3.94712L20.3465 5.94557C20.8181 5.927 21.2645 5.72668 21.5918 5.38619L20.1501 4.00008ZM20.1018 4.11982C20.1018 4.07527 20.119 4.03235 20.1501 4.00007L21.5918 5.3862C21.9191 5.04575 22.1018 4.59185 22.1018 4.11982H20.1018ZM20.1501 4.23957C20.119 4.20729 20.1018 4.16437 20.1018 4.11982H22.1018C22.1018 3.64779 21.9191 3.19389 21.5918 2.85345L20.1501 4.23957ZM20.2678 4.29253C20.2234 4.29078 20.1811 4.27189 20.1501 4.23957L21.5918 2.85345C21.2645 2.51297 20.8181 2.31264 20.3465 2.29408L20.2678 4.29253ZM3.71302 4.2933H20.3072V2.2933H3.71302V4.2933ZM3.87012 4.23957C3.83905 4.27189 3.79682 4.29078 3.75236 4.29253L3.67368 2.29408C3.20208 2.31264 2.75571 2.51297 2.42836 2.85345L3.87012 4.23957ZM3.91839 4.11982C3.91839 4.16437 3.90116 4.20729 3.87013 4.23957L2.42836 2.85345C2.10106 3.1939 1.91839 3.64779 1.91839 4.11982H3.91839ZM3.87012 4.00007C3.90116 4.03236 3.91839 4.07527 3.91839 4.11982H1.91839C1.91839 4.59185 2.10106 5.04575 2.42836 5.38619L3.87012 4.00007ZM3.75236 3.94712C3.79682 3.94887 3.83905 3.96775 3.87012 4.00007L2.42836 5.38619C2.75571 5.72668 3.20208 5.927 3.67368 5.94557L3.75236 3.94712ZM2.58009 8.24103H21.4368V6.24103H2.58009V8.24103ZM1.29551 7.68089C1.62278 8.02129 2.06903 8.22169 2.54075 8.24026L2.61942 6.24181C2.66399 6.24356 2.70627 6.26252 2.73727 6.29477L1.29551 7.68089ZM0.78553 6.41452C0.78553 6.88655 0.968201 7.34044 1.29551 7.68089L2.73727 6.29477C2.7683 6.32705 2.78553 6.36997 2.78553 6.41452H0.78553ZM1.29551 5.14814C0.9682 5.48859 0.78553 5.94249 0.78553 6.41452H2.78553C2.78553 6.45907 2.7683 6.50198 2.73727 6.53426L1.29551 5.14814ZM2.54075 4.58877C2.06903 4.60734 1.62278 4.80774 1.29551 5.14815L2.73727 6.53426C2.70627 6.56651 2.66399 6.58547 2.61942 6.58722L2.54075 4.58877ZM21.4368 4.588H2.58009V6.588H21.4368V4.588ZM22.7214 5.14815C22.3941 4.80774 21.9479 4.60734 21.4762 4.58877L21.3975 6.58722C21.3529 6.58547 21.3107 6.56651 21.2797 6.53426L22.7214 5.14815ZM23.2314 6.41452C23.2314 5.94249 23.0487 5.48859 22.7214 5.14815L21.2797 6.53426C21.2486 6.50198 21.2314 6.45907 21.2314 6.41452H23.2314ZM22.7214 7.68089C23.0487 7.34044 23.2314 6.88655 23.2314 6.41452H21.2314C21.2314 6.36997 21.2486 6.32705 21.2797 6.29477L22.7214 7.68089ZM21.4762 8.24026C21.9479 8.22169 22.3941 8.02129 22.7214 7.68089L21.2797 6.29477C21.3107 6.26252 21.3529 6.24356 21.3975 6.24181L21.4762 8.24026ZM0 7.93974V23.5456H2V7.93974H0ZM23.0232 6.93974H1V8.93974H23.0232V6.93974ZM24.0232 23.5456V7.93974H22.0232V23.5456H24.0232ZM1 24.5456H23.0232V22.5456H1V24.5456ZM3.65304 21.8963V9.59419H1.65304V21.8963H3.65304ZM21.3651 20.8963H2.65304V22.8963H21.3651V20.8963ZM20.3651 9.59419V21.8963H22.3651V9.59419H20.3651ZM2.65304 10.5942H21.3651V8.59419H2.65304V10.5942Z" fill="black" fill-opacity="0.2" mask="url(#path-1-inside-1_314_310)"/>
<path d="M4.25927 2.41093L4.96637 1.70382L4.96637 1.70382L4.25927 2.41093ZM4.25927 1.24195L4.96637 1.94906L4.96637 1.94906L4.25927 1.24195ZM19.7611 1.24195L19.054 1.94906L19.7611 1.24195ZM19.7611 2.41093L20.4682 3.11803V3.11803L19.7611 2.41093ZM20.3072 4.94634V5.94634H20.3268L20.3465 5.94557L20.3072 4.94634ZM3.71302 4.94634L3.67368 5.94557L3.69335 5.94634H3.71302V4.94634ZM20.8709 4.69313L20.1501 4.00007L20.1501 4.00008L20.8709 4.69313ZM20.8709 3.54651L20.1501 4.23957L20.1501 4.23957L20.8709 3.54651ZM20.3072 3.2933L20.3465 2.29408L20.3268 2.2933H20.3072V3.2933ZM3.71302 3.2933V2.2933H3.69335L3.67368 2.29408L3.71302 3.2933ZM3.14924 3.54651L2.42836 2.85345L2.42836 2.85345L3.14924 3.54651ZM3.14924 4.69313L2.42836 5.38619L3.14924 4.69313ZM2.58009 7.24103L2.54075 8.24026L2.56041 8.24103H2.58009V7.24103ZM21.4368 7.24103V8.24103H21.4565L21.4762 8.24026L21.4368 7.24103ZM2.01639 6.98783L1.29551 7.68089L1.29551 7.68089L2.01639 6.98783ZM2.01639 5.8412L2.73727 6.53426L2.73727 6.53426L2.01639 5.8412ZM2.58009 5.588V4.588H2.56041L2.54075 4.58877L2.58009 5.588ZM21.4368 5.588L21.4762 4.58877L21.4565 4.588H21.4368V5.588ZM22.0005 6.98783L22.7214 7.68089L22.7214 7.68089L22.0005 6.98783ZM1 7.93974V6.93974H0V7.93974H1ZM1 23.5456H0V24.5456H1V23.5456ZM23.0232 7.93974H24.0232V6.93974H23.0232V7.93974ZM23.0232 23.5456V24.5456H24.0232V23.5456H23.0232ZM2.65304 21.8963H1.65304V22.8963H2.65304V21.8963ZM2.65304 9.59419V8.59419H1.65304V9.59419H2.65304ZM21.3651 21.8963V22.8963H22.3651V21.8963H21.3651ZM21.3651 9.59419H22.3651V8.59419H21.3651V9.59419ZM4.84375 3.65304H19.1767V1.65304H4.84375V3.65304ZM3.55216 3.11803C3.89468 3.46055 4.35931 3.65304 4.84375 3.65304V1.65304C4.88979 1.65304 4.93385 1.6713 4.96637 1.70382L3.55216 3.11803ZM3.01723 1.82652C3.01723 2.31082 3.20954 2.77541 3.55216 3.11803L4.96637 1.70382C4.99899 1.73644 5.01723 1.78062 5.01723 1.82652H3.01723ZM3.55216 0.534847C3.2094 0.877609 3.01723 1.34242 3.01723 1.82652H5.01723C5.01723 1.87221 4.99913 1.9163 4.96637 1.94906L3.55216 0.534847ZM4.84375 0C4.35979 0 3.89502 0.191984 3.55216 0.534847L4.96637 1.94906C4.93351 1.98192 4.8893 2 4.84375 2V0ZM19.1767 0H4.84375V2H19.1767V0ZM20.4682 0.534846C20.1254 0.192054 19.6607 0 19.1767 0V2C19.131 2 19.0868 1.98185 19.054 1.94906L20.4682 0.534846ZM21.0032 1.82652C21.0032 1.34218 20.8108 0.877439 20.4682 0.534846L19.054 1.94906C19.0214 1.91647 19.0032 1.87245 19.0032 1.82652H21.0032ZM20.4682 3.11803C20.8107 2.77558 21.0032 2.31106 21.0032 1.82652H19.0032C19.0032 1.78038 19.0215 1.73627 19.054 1.70382L20.4682 3.11803ZM19.1767 3.65304C19.6612 3.65304 20.1258 3.46048 20.4682 3.11803L19.054 1.70382C19.0864 1.67137 19.1306 1.65304 19.1767 1.65304V3.65304ZM20.3072 3.94634H3.71302V5.94634H20.3072V3.94634ZM20.1501 4.00008C20.1811 3.96775 20.2234 3.94887 20.2678 3.94712L20.3465 5.94557C20.8181 5.927 21.2645 5.72668 21.5918 5.38619L20.1501 4.00008ZM20.1018 4.11982C20.1018 4.07527 20.119 4.03235 20.1501 4.00007L21.5918 5.3862C21.9191 5.04575 22.1018 4.59185 22.1018 4.11982H20.1018ZM20.1501 4.23957C20.119 4.20729 20.1018 4.16437 20.1018 4.11982H22.1018C22.1018 3.64779 21.9191 3.19389 21.5918 2.85345L20.1501 4.23957ZM20.2678 4.29253C20.2234 4.29078 20.1811 4.27189 20.1501 4.23957L21.5918 2.85345C21.2645 2.51297 20.8181 2.31264 20.3465 2.29408L20.2678 4.29253ZM3.71302 4.2933H20.3072V2.2933H3.71302V4.2933ZM3.87012 4.23957C3.83905 4.27189 3.79682 4.29078 3.75236 4.29253L3.67368 2.29408C3.20208 2.31264 2.75571 2.51297 2.42836 2.85345L3.87012 4.23957ZM3.91839 4.11982C3.91839 4.16437 3.90116 4.20729 3.87013 4.23957L2.42836 2.85345C2.10106 3.1939 1.91839 3.64779 1.91839 4.11982H3.91839ZM3.87012 4.00007C3.90116 4.03236 3.91839 4.07527 3.91839 4.11982H1.91839C1.91839 4.59185 2.10106 5.04575 2.42836 5.38619L3.87012 4.00007ZM3.75236 3.94712C3.79682 3.94887 3.83905 3.96775 3.87012 4.00007L2.42836 5.38619C2.75571 5.72668 3.20208 5.927 3.67368 5.94557L3.75236 3.94712ZM2.58009 8.24103H21.4368V6.24103H2.58009V8.24103ZM1.29551 7.68089C1.62278 8.02129 2.06903 8.22169 2.54075 8.24026L2.61942 6.24181C2.66399 6.24356 2.70627 6.26252 2.73727 6.29477L1.29551 7.68089ZM0.78553 6.41452C0.78553 6.88655 0.968201 7.34044 1.29551 7.68089L2.73727 6.29477C2.7683 6.32705 2.78553 6.36997 2.78553 6.41452H0.78553ZM1.29551 5.14814C0.9682 5.48859 0.78553 5.94249 0.78553 6.41452H2.78553C2.78553 6.45907 2.7683 6.50198 2.73727 6.53426L1.29551 5.14814ZM2.54075 4.58877C2.06903 4.60734 1.62278 4.80774 1.29551 5.14815L2.73727 6.53426C2.70627 6.56651 2.66399 6.58547 2.61942 6.58722L2.54075 4.58877ZM21.4368 4.588H2.58009V6.588H21.4368V4.588ZM22.7214 5.14815C22.3941 4.80774 21.9479 4.60734 21.4762 4.58877L21.3975 6.58722C21.3529 6.58547 21.3107 6.56651 21.2797 6.53426L22.7214 5.14815ZM23.2314 6.41452C23.2314 5.94249 23.0487 5.48859 22.7214 5.14815L21.2797 6.53426C21.2486 6.50198 21.2314 6.45907 21.2314 6.41452H23.2314ZM22.7214 7.68089C23.0487 7.34044 23.2314 6.88655 23.2314 6.41452H21.2314C21.2314 6.36997 21.2486 6.32705 21.2797 6.29477L22.7214 7.68089ZM21.4762 8.24026C21.9479 8.22169 22.3941 8.02129 22.7214 7.68089L21.2797 6.29477C21.3107 6.26252 21.3529 6.24356 21.3975 6.24181L21.4762 8.24026ZM0 7.93974V23.5456H2V7.93974H0ZM23.0232 6.93974H1V8.93974H23.0232V6.93974ZM24.0232 23.5456V7.93974H22.0232V23.5456H24.0232ZM1 24.5456H23.0232V22.5456H1V24.5456ZM3.65304 21.8963V9.59419H1.65304V21.8963H3.65304ZM21.3651 20.8963H2.65304V22.8963H21.3651V20.8963ZM20.3651 9.59419V21.8963H22.3651V9.59419H20.3651ZM2.65304 10.5942H21.3651V8.59419H2.65304V10.5942Z" fill="black" fill-opacity="0.2" mask="url(#path-1-inside-1_314_310)"/>
<path d="M4.25927 2.41093L4.96637 1.70382L4.96637 1.70382L4.25927 2.41093ZM4.25927 1.24195L4.96637 1.94906L4.96637 1.94906L4.25927 1.24195ZM19.7611 1.24195L19.054 1.94906L19.7611 1.24195ZM19.7611 2.41093L20.4682 3.11803V3.11803L19.7611 2.41093ZM20.3072 4.94634V5.94634H20.3268L20.3465 5.94557L20.3072 4.94634ZM3.71302 4.94634L3.67368 5.94557L3.69335 5.94634H3.71302V4.94634ZM20.8709 4.69313L20.1501 4.00007L20.1501 4.00008L20.8709 4.69313ZM20.8709 3.54651L20.1501 4.23957L20.1501 4.23957L20.8709 3.54651ZM20.3072 3.2933L20.3465 2.29408L20.3268 2.2933H20.3072V3.2933ZM3.71302 3.2933V2.2933H3.69335L3.67368 2.29408L3.71302 3.2933ZM3.14924 3.54651L2.42836 2.85345L2.42836 2.85345L3.14924 3.54651ZM3.14924 4.69313L2.42836 5.38619L3.14924 4.69313ZM2.58009 7.24103L2.54075 8.24026L2.56041 8.24103H2.58009V7.24103ZM21.4368 7.24103V8.24103H21.4565L21.4762 8.24026L21.4368 7.24103ZM2.01639 6.98783L1.29551 7.68089L1.29551 7.68089L2.01639 6.98783ZM2.01639 5.8412L2.73727 6.53426L2.73727 6.53426L2.01639 5.8412ZM2.58009 5.588V4.588H2.56041L2.54075 4.58877L2.58009 5.588ZM21.4368 5.588L21.4762 4.58877L21.4565 4.588H21.4368V5.588ZM22.0005 6.98783L22.7214 7.68089L22.7214 7.68089L22.0005 6.98783ZM1 7.93974V6.93974H0V7.93974H1ZM1 23.5456H0V24.5456H1V23.5456ZM23.0232 7.93974H24.0232V6.93974H23.0232V7.93974ZM23.0232 23.5456V24.5456H24.0232V23.5456H23.0232ZM2.65304 21.8963H1.65304V22.8963H2.65304V21.8963ZM2.65304 9.59419V8.59419H1.65304V9.59419H2.65304ZM21.3651 21.8963V22.8963H22.3651V21.8963H21.3651ZM21.3651 9.59419H22.3651V8.59419H21.3651V9.59419ZM4.84375 3.65304H19.1767V1.65304H4.84375V3.65304ZM3.55216 3.11803C3.89468 3.46055 4.35931 3.65304 4.84375 3.65304V1.65304C4.88979 1.65304 4.93385 1.6713 4.96637 1.70382L3.55216 3.11803ZM3.01723 1.82652C3.01723 2.31082 3.20954 2.77541 3.55216 3.11803L4.96637 1.70382C4.99899 1.73644 5.01723 1.78062 5.01723 1.82652H3.01723ZM3.55216 0.534847C3.2094 0.877609 3.01723 1.34242 3.01723 1.82652H5.01723C5.01723 1.87221 4.99913 1.9163 4.96637 1.94906L3.55216 0.534847ZM4.84375 0C4.35979 0 3.89502 0.191984 3.55216 0.534847L4.96637 1.94906C4.93351 1.98192 4.8893 2 4.84375 2V0ZM19.1767 0H4.84375V2H19.1767V0ZM20.4682 0.534846C20.1254 0.192054 19.6607 0 19.1767 0V2C19.131 2 19.0868 1.98185 19.054 1.94906L20.4682 0.534846ZM21.0032 1.82652C21.0032 1.34218 20.8108 0.877439 20.4682 0.534846L19.054 1.94906C19.0214 1.91647 19.0032 1.87245 19.0032 1.82652H21.0032ZM20.4682 3.11803C20.8107 2.77558 21.0032 2.31106 21.0032 1.82652H19.0032C19.0032 1.78038 19.0215 1.73627 19.054 1.70382L20.4682 3.11803ZM19.1767 3.65304C19.6612 3.65304 20.1258 3.46048 20.4682 3.11803L19.054 1.70382C19.0864 1.67137 19.1306 1.65304 19.1767 1.65304V3.65304ZM20.3072 3.94634H3.71302V5.94634H20.3072V3.94634ZM20.1501 4.00008C20.1811 3.96775 20.2234 3.94887 20.2678 3.94712L20.3465 5.94557C20.8181 5.927 21.2645 5.72668 21.5918 5.38619L20.1501 4.00008ZM20.1018 4.11982C20.1018 4.07527 20.119 4.03235 20.1501 4.00007L21.5918 5.3862C21.9191 5.04575 22.1018 4.59185 22.1018 4.11982H20.1018ZM20.1501 4.23957C20.119 4.20729 20.1018 4.16437 20.1018 4.11982H22.1018C22.1018 3.64779 21.9191 3.19389 21.5918 2.85345L20.1501 4.23957ZM20.2678 4.29253C20.2234 4.29078 20.1811 4.27189 20.1501 4.23957L21.5918 2.85345C21.2645 2.51297 20.8181 2.31264 20.3465 2.29408L20.2678 4.29253ZM3.71302 4.2933H20.3072V2.2933H3.71302V4.2933ZM3.87012 4.23957C3.83905 4.27189 3.79682 4.29078 3.75236 4.29253L3.67368 2.29408C3.20208 2.31264 2.75571 2.51297 2.42836 2.85345L3.87012 4.23957ZM3.91839 4.11982C3.91839 4.16437 3.90116 4.20729 3.87013 4.23957L2.42836 2.85345C2.10106 3.1939 1.91839 3.64779 1.91839 4.11982H3.91839ZM3.87012 4.00007C3.90116 4.03236 3.91839 4.07527 3.91839 4.11982H1.91839C1.91839 4.59185 2.10106 5.04575 2.42836 5.38619L3.87012 4.00007ZM3.75236 3.94712C3.79682 3.94887 3.83905 3.96775 3.87012 4.00007L2.42836 5.38619C2.75571 5.72668 3.20208 5.927 3.67368 5.94557L3.75236 3.94712ZM2.58009 8.24103H21.4368V6.24103H2.58009V8.24103ZM1.29551 7.68089C1.62278 8.02129 2.06903 8.22169 2.54075 8.24026L2.61942 6.24181C2.66399 6.24356 2.70627 6.26252 2.73727 6.29477L1.29551 7.68089ZM0.78553 6.41452C0.78553 6.88655 0.968201 7.34044 1.29551 7.68089L2.73727 6.29477C2.7683 6.32705 2.78553 6.36997 2.78553 6.41452H0.78553ZM1.29551 5.14814C0.9682 5.48859 0.78553 5.94249 0.78553 6.41452H2.78553C2.78553 6.45907 2.7683 6.50198 2.73727 6.53426L1.29551 5.14814ZM2.54075 4.58877C2.06903 4.60734 1.62278 4.80774 1.29551 5.14815L2.73727 6.53426C2.70627 6.56651 2.66399 6.58547 2.61942 6.58722L2.54075 4.58877ZM21.4368 4.588H2.58009V6.588H21.4368V4.588ZM22.7214 5.14815C22.3941 4.80774 21.9479 4.60734 21.4762 4.58877L21.3975 6.58722C21.3529 6.58547 21.3107 6.56651 21.2797 6.53426L22.7214 5.14815ZM23.2314 6.41452C23.2314 5.94249 23.0487 5.48859 22.7214 5.14815L21.2797 6.53426C21.2486 6.50198 21.2314 6.45907 21.2314 6.41452H23.2314ZM22.7214 7.68089C23.0487 7.34044 23.2314 6.88655 23.2314 6.41452H21.2314C21.2314 6.36997 21.2486 6.32705 21.2797 6.29477L22.7214 7.68089ZM21.4762 8.24026C21.9479 8.22169 22.3941 8.02129 22.7214 7.68089L21.2797 6.29477C21.3107 6.26252 21.3529 6.24356 21.3975 6.24181L21.4762 8.24026ZM0 7.93974V23.5456H2V7.93974H0ZM23.0232 6.93974H1V8.93974H23.0232V6.93974ZM24.0232 23.5456V7.93974H22.0232V23.5456H24.0232ZM1 24.5456H23.0232V22.5456H1V24.5456ZM3.65304 21.8963V9.59419H1.65304V21.8963H3.65304ZM21.3651 20.8963H2.65304V22.8963H21.3651V20.8963ZM20.3651 9.59419V21.8963H22.3651V9.59419H20.3651ZM2.65304 10.5942H21.3651V8.59419H2.65304V10.5942Z" fill="black" fill-opacity="0.2" mask="url(#path-1-inside-1_314_310)"/>
<path d="M4.25927 2.41093L4.96637 1.70382L4.96637 1.70382L4.25927 2.41093ZM4.25927 1.24195L4.96637 1.94906L4.96637 1.94906L4.25927 1.24195ZM19.7611 1.24195L19.054 1.94906L19.7611 1.24195ZM19.7611 2.41093L20.4682 3.11803V3.11803L19.7611 2.41093ZM20.3072 4.94634V5.94634H20.3268L20.3465 5.94557L20.3072 4.94634ZM3.71302 4.94634L3.67368 5.94557L3.69335 5.94634H3.71302V4.94634ZM20.8709 4.69313L20.1501 4.00007L20.1501 4.00008L20.8709 4.69313ZM20.8709 3.54651L20.1501 4.23957L20.1501 4.23957L20.8709 3.54651ZM20.3072 3.2933L20.3465 2.29408L20.3268 2.2933H20.3072V3.2933ZM3.71302 3.2933V2.2933H3.69335L3.67368 2.29408L3.71302 3.2933ZM3.14924 3.54651L2.42836 2.85345L2.42836 2.85345L3.14924 3.54651ZM3.14924 4.69313L2.42836 5.38619L3.14924 4.69313ZM2.58009 7.24103L2.54075 8.24026L2.56041 8.24103H2.58009V7.24103ZM21.4368 7.24103V8.24103H21.4565L21.4762 8.24026L21.4368 7.24103ZM2.01639 6.98783L1.29551 7.68089L1.29551 7.68089L2.01639 6.98783ZM2.01639 5.8412L2.73727 6.53426L2.73727 6.53426L2.01639 5.8412ZM2.58009 5.588V4.588H2.56041L2.54075 4.58877L2.58009 5.588ZM21.4368 5.588L21.4762 4.58877L21.4565 4.588H21.4368V5.588ZM22.0005 6.98783L22.7214 7.68089L22.7214 7.68089L22.0005 6.98783ZM1 7.93974V6.93974H0V7.93974H1ZM1 23.5456H0V24.5456H1V23.5456ZM23.0232 7.93974H24.0232V6.93974H23.0232V7.93974ZM23.0232 23.5456V24.5456H24.0232V23.5456H23.0232ZM2.65304 21.8963H1.65304V22.8963H2.65304V21.8963ZM2.65304 9.59419V8.59419H1.65304V9.59419H2.65304ZM21.3651 21.8963V22.8963H22.3651V21.8963H21.3651ZM21.3651 9.59419H22.3651V8.59419H21.3651V9.59419ZM4.84375 3.65304H19.1767V1.65304H4.84375V3.65304ZM3.55216 3.11803C3.89468 3.46055 4.35931 3.65304 4.84375 3.65304V1.65304C4.88979 1.65304 4.93385 1.6713 4.96637 1.70382L3.55216 3.11803ZM3.01723 1.82652C3.01723 2.31082 3.20954 2.77541 3.55216 3.11803L4.96637 1.70382C4.99899 1.73644 5.01723 1.78062 5.01723 1.82652H3.01723ZM3.55216 0.534847C3.2094 0.877609 3.01723 1.34242 3.01723 1.82652H5.01723C5.01723 1.87221 4.99913 1.9163 4.96637 1.94906L3.55216 0.534847ZM4.84375 0C4.35979 0 3.89502 0.191984 3.55216 0.534847L4.96637 1.94906C4.93351 1.98192 4.8893 2 4.84375 2V0ZM19.1767 0H4.84375V2H19.1767V0ZM20.4682 0.534846C20.1254 0.192054 19.6607 0 19.1767 0V2C19.131 2 19.0868 1.98185 19.054 1.94906L20.4682 0.534846ZM21.0032 1.82652C21.0032 1.34218 20.8108 0.877439 20.4682 0.534846L19.054 1.94906C19.0214 1.91647 19.0032 1.87245 19.0032 1.82652H21.0032ZM20.4682 3.11803C20.8107 2.77558 21.0032 2.31106 21.0032 1.82652H19.0032C19.0032 1.78038 19.0215 1.73627 19.054 1.70382L20.4682 3.11803ZM19.1767 3.65304C19.6612 3.65304 20.1258 3.46048 20.4682 3.11803L19.054 1.70382C19.0864 1.67137 19.1306 1.65304 19.1767 1.65304V3.65304ZM20.3072 3.94634H3.71302V5.94634H20.3072V3.94634ZM20.1501 4.00008C20.1811 3.96775 20.2234 3.94887 20.2678 3.94712L20.3465 5.94557C20.8181 5.927 21.2645 5.72668 21.5918 5.38619L20.1501 4.00008ZM20.1018 4.11982C20.1018 4.07527 20.119 4.03235 20.1501 4.00007L21.5918 5.3862C21.9191 5.04575 22.1018 4.59185 22.1018 4.11982H20.1018ZM20.1501 4.23957C20.119 4.20729 20.1018 4.16437 20.1018 4.11982H22.1018C22.1018 3.64779 21.9191 3.19389 21.5918 2.85345L20.1501 4.23957ZM20.2678 4.29253C20.2234 4.29078 20.1811 4.27189 20.1501 4.23957L21.5918 2.85345C21.2645 2.51297 20.8181 2.31264 20.3465 2.29408L20.2678 4.29253ZM3.71302 4.2933H20.3072V2.2933H3.71302V4.2933ZM3.87012 4.23957C3.83905 4.27189 3.79682 4.29078 3.75236 4.29253L3.67368 2.29408C3.20208 2.31264 2.75571 2.51297 2.42836 2.85345L3.87012 4.23957ZM3.91839 4.11982C3.91839 4.16437 3.90116 4.20729 3.87013 4.23957L2.42836 2.85345C2.10106 3.1939 1.91839 3.64779 1.91839 4.11982H3.91839ZM3.87012 4.00007C3.90116 4.03236 3.91839 4.07527 3.91839 4.11982H1.91839C1.91839 4.59185 2.10106 5.04575 2.42836 5.38619L3.87012 4.00007ZM3.75236 3.94712C3.79682 3.94887 3.83905 3.96775 3.87012 4.00007L2.42836 5.38619C2.75571 5.72668 3.20208 5.927 3.67368 5.94557L3.75236 3.94712ZM2.58009 8.24103H21.4368V6.24103H2.58009V8.24103ZM1.29551 7.68089C1.62278 8.02129 2.06903 8.22169 2.54075 8.24026L2.61942 6.24181C2.66399 6.24356 2.70627 6.26252 2.73727 6.29477L1.29551 7.68089ZM0.78553 6.41452C0.78553 6.88655 0.968201 7.34044 1.29551 7.68089L2.73727 6.29477C2.7683 6.32705 2.78553 6.36997 2.78553 6.41452H0.78553ZM1.29551 5.14814C0.9682 5.48859 0.78553 5.94249 0.78553 6.41452H2.78553C2.78553 6.45907 2.7683 6.50198 2.73727 6.53426L1.29551 5.14814ZM2.54075 4.58877C2.06903 4.60734 1.62278 4.80774 1.29551 5.14815L2.73727 6.53426C2.70627 6.56651 2.66399 6.58547 2.61942 6.58722L2.54075 4.58877ZM21.4368 4.588H2.58009V6.588H21.4368V4.588ZM22.7214 5.14815C22.3941 4.80774 21.9479 4.60734 21.4762 4.58877L21.3975 6.58722C21.3529 6.58547 21.3107 6.56651 21.2797 6.53426L22.7214 5.14815ZM23.2314 6.41452C23.2314 5.94249 23.0487 5.48859 22.7214 5.14815L21.2797 6.53426C21.2486 6.50198 21.2314 6.45907 21.2314 6.41452H23.2314ZM22.7214 7.68089C23.0487 7.34044 23.2314 6.88655 23.2314 6.41452H21.2314C21.2314 6.36997 21.2486 6.32705 21.2797 6.29477L22.7214 7.68089ZM21.4762 8.24026C21.9479 8.22169 22.3941 8.02129 22.7214 7.68089L21.2797 6.29477C21.3107 6.26252 21.3529 6.24356 21.3975 6.24181L21.4762 8.24026ZM0 7.93974V23.5456H2V7.93974H0ZM23.0232 6.93974H1V8.93974H23.0232V6.93974ZM24.0232 23.5456V7.93974H22.0232V23.5456H24.0232ZM1 24.5456H23.0232V22.5456H1V24.5456ZM3.65304 21.8963V9.59419H1.65304V21.8963H3.65304ZM21.3651 20.8963H2.65304V22.8963H21.3651V20.8963ZM20.3651 9.59419V21.8963H22.3651V9.59419H20.3651ZM2.65304 10.5942H21.3651V8.59419H2.65304V10.5942Z" fill="black" fill-opacity="0.2" mask="url(#path-1-inside-1_314_310)"/>
<path d="M4.25927 2.41093L4.96637 1.70382L4.96637 1.70382L4.25927 2.41093ZM4.25927 1.24195L4.96637 1.94906L4.96637 1.94906L4.25927 1.24195ZM19.7611 1.24195L19.054 1.94906L19.7611 1.24195ZM19.7611 2.41093L20.4682 3.11803V3.11803L19.7611 2.41093ZM20.3072 4.94634V5.94634H20.3268L20.3465 5.94557L20.3072 4.94634ZM3.71302 4.94634L3.67368 5.94557L3.69335 5.94634H3.71302V4.94634ZM20.8709 4.69313L20.1501 4.00007L20.1501 4.00008L20.8709 4.69313ZM20.8709 3.54651L20.1501 4.23957L20.1501 4.23957L20.8709 3.54651ZM20.3072 3.2933L20.3465 2.29408L20.3268 2.2933H20.3072V3.2933ZM3.71302 3.2933V2.2933H3.69335L3.67368 2.29408L3.71302 3.2933ZM3.14924 3.54651L2.42836 2.85345L2.42836 2.85345L3.14924 3.54651ZM3.14924 4.69313L2.42836 5.38619L3.14924 4.69313ZM2.58009 7.24103L2.54075 8.24026L2.56041 8.24103H2.58009V7.24103ZM21.4368 7.24103V8.24103H21.4565L21.4762 8.24026L21.4368 7.24103ZM2.01639 6.98783L1.29551 7.68089L1.29551 7.68089L2.01639 6.98783ZM2.01639 5.8412L2.73727 6.53426L2.73727 6.53426L2.01639 5.8412ZM2.58009 5.588V4.588H2.56041L2.54075 4.58877L2.58009 5.588ZM21.4368 5.588L21.4762 4.58877L21.4565 4.588H21.4368V5.588ZM22.0005 6.98783L22.7214 7.68089L22.7214 7.68089L22.0005 6.98783ZM1 7.93974V6.93974H0V7.93974H1ZM1 23.5456H0V24.5456H1V23.5456ZM23.0232 7.93974H24.0232V6.93974H23.0232V7.93974ZM23.0232 23.5456V24.5456H24.0232V23.5456H23.0232ZM2.65304 21.8963H1.65304V22.8963H2.65304V21.8963ZM2.65304 9.59419V8.59419H1.65304V9.59419H2.65304ZM21.3651 21.8963V22.8963H22.3651V21.8963H21.3651ZM21.3651 9.59419H22.3651V8.59419H21.3651V9.59419ZM4.84375 3.65304H19.1767V1.65304H4.84375V3.65304ZM3.55216 3.11803C3.89468 3.46055 4.35931 3.65304 4.84375 3.65304V1.65304C4.88979 1.65304 4.93385 1.6713 4.96637 1.70382L3.55216 3.11803ZM3.01723 1.82652C3.01723 2.31082 3.20954 2.77541 3.55216 3.11803L4.96637 1.70382C4.99899 1.73644 5.01723 1.78062 5.01723 1.82652H3.01723ZM3.55216 0.534847C3.2094 0.877609 3.01723 1.34242 3.01723 1.82652H5.01723C5.01723 1.87221 4.99913 1.9163 4.96637 1.94906L3.55216 0.534847ZM4.84375 0C4.35979 0 3.89502 0.191984 3.55216 0.534847L4.96637 1.94906C4.93351 1.98192 4.8893 2 4.84375 2V0ZM19.1767 0H4.84375V2H19.1767V0ZM20.4682 0.534846C20.1254 0.192054 19.6607 0 19.1767 0V2C19.131 2 19.0868 1.98185 19.054 1.94906L20.4682 0.534846ZM21.0032 1.82652C21.0032 1.34218 20.8108 0.877439 20.4682 0.534846L19.054 1.94906C19.0214 1.91647 19.0032 1.87245 19.0032 1.82652H21.0032ZM20.4682 3.11803C20.8107 2.77558 21.0032 2.31106 21.0032 1.82652H19.0032C19.0032 1.78038 19.0215 1.73627 19.054 1.70382L20.4682 3.11803ZM19.1767 3.65304C19.6612 3.65304 20.1258 3.46048 20.4682 3.11803L19.054 1.70382C19.0864 1.67137 19.1306 1.65304 19.1767 1.65304V3.65304ZM20.3072 3.94634H3.71302V5.94634H20.3072V3.94634ZM20.1501 4.00008C20.1811 3.96775 20.2234 3.94887 20.2678 3.94712L20.3465 5.94557C20.8181 5.927 21.2645 5.72668 21.5918 5.38619L20.1501 4.00008ZM20.1018 4.11982C20.1018 4.07527 20.119 4.03235 20.1501 4.00007L21.5918 5.3862C21.9191 5.04575 22.1018 4.59185 22.1018 4.11982H20.1018ZM20.1501 4.23957C20.119 4.20729 20.1018 4.16437 20.1018 4.11982H22.1018C22.1018 3.64779 21.9191 3.19389 21.5918 2.85345L20.1501 4.23957ZM20.2678 4.29253C20.2234 4.29078 20.1811 4.27189 20.1501 4.23957L21.5918 2.85345C21.2645 2.51297 20.8181 2.31264 20.3465 2.29408L20.2678 4.29253ZM3.71302 4.2933H20.3072V2.2933H3.71302V4.2933ZM3.87012 4.23957C3.83905 4.27189 3.79682 4.29078 3.75236 4.29253L3.67368 2.29408C3.20208 2.31264 2.75571 2.51297 2.42836 2.85345L3.87012 4.23957ZM3.91839 4.11982C3.91839 4.16437 3.90116 4.20729 3.87013 4.23957L2.42836 2.85345C2.10106 3.1939 1.91839 3.64779 1.91839 4.11982H3.91839ZM3.87012 4.00007C3.90116 4.03236 3.91839 4.07527 3.91839 4.11982H1.91839C1.91839 4.59185 2.10106 5.04575 2.42836 5.38619L3.87012 4.00007ZM3.75236 3.94712C3.79682 3.94887 3.83905 3.96775 3.87012 4.00007L2.42836 5.38619C2.75571 5.72668 3.20208 5.927 3.67368 5.94557L3.75236 3.94712ZM2.58009 8.24103H21.4368V6.24103H2.58009V8.24103ZM1.29551 7.68089C1.62278 8.02129 2.06903 8.22169 2.54075 8.24026L2.61942 6.24181C2.66399 6.24356 2.70627 6.26252 2.73727 6.29477L1.29551 7.68089ZM0.78553 6.41452C0.78553 6.88655 0.968201 7.34044 1.29551 7.68089L2.73727 6.29477C2.7683 6.32705 2.78553 6.36997 2.78553 6.41452H0.78553ZM1.29551 5.14814C0.9682 5.48859 0.78553 5.94249 0.78553 6.41452H2.78553C2.78553 6.45907 2.7683 6.50198 2.73727 6.53426L1.29551 5.14814ZM2.54075 4.58877C2.06903 4.60734 1.62278 4.80774 1.29551 5.14815L2.73727 6.53426C2.70627 6.56651 2.66399 6.58547 2.61942 6.58722L2.54075 4.58877ZM21.4368 4.588H2.58009V6.588H21.4368V4.588ZM22.7214 5.14815C22.3941 4.80774 21.9479 4.60734 21.4762 4.58877L21.3975 6.58722C21.3529 6.58547 21.3107 6.56651 21.2797 6.53426L22.7214 5.14815ZM23.2314 6.41452C23.2314 5.94249 23.0487 5.48859 22.7214 5.14815L21.2797 6.53426C21.2486 6.50198 21.2314 6.45907 21.2314 6.41452H23.2314ZM22.7214 7.68089C23.0487 7.34044 23.2314 6.88655 23.2314 6.41452H21.2314C21.2314 6.36997 21.2486 6.32705 21.2797 6.29477L22.7214 7.68089ZM21.4762 8.24026C21.9479 8.22169 22.3941 8.02129 22.7214 7.68089L21.2797 6.29477C21.3107 6.26252 21.3529 6.24356 21.3975 6.24181L21.4762 8.24026ZM0 7.93974V23.5456H2V7.93974H0ZM23.0232 6.93974H1V8.93974H23.0232V6.93974ZM24.0232 23.5456V7.93974H22.0232V23.5456H24.0232ZM1 24.5456H23.0232V22.5456H1V24.5456ZM3.65304 21.8963V9.59419H1.65304V21.8963H3.65304ZM21.3651 20.8963H2.65304V22.8963H21.3651V20.8963ZM20.3651 9.59419V21.8963H22.3651V9.59419H20.3651ZM2.65304 10.5942H21.3651V8.59419H2.65304V10.5942Z" fill="black" fill-opacity="0.2" mask="url(#path-1-inside-1_314_310)"/>
<path d="M4.25927 2.41093L4.96637 1.70382L4.96637 1.70382L4.25927 2.41093ZM4.25927 1.24195L4.96637 1.94906L4.96637 1.94906L4.25927 1.24195ZM19.7611 1.24195L19.054 1.94906L19.7611 1.24195ZM19.7611 2.41093L20.4682 3.11803V3.11803L19.7611 2.41093ZM20.3072 4.94634V5.94634H20.3268L20.3465 5.94557L20.3072 4.94634ZM3.71302 4.94634L3.67368 5.94557L3.69335 5.94634H3.71302V4.94634ZM20.8709 4.69313L20.1501 4.00007L20.1501 4.00008L20.8709 4.69313ZM20.8709 3.54651L20.1501 4.23957L20.1501 4.23957L20.8709 3.54651ZM20.3072 3.2933L20.3465 2.29408L20.3268 2.2933H20.3072V3.2933ZM3.71302 3.2933V2.2933H3.69335L3.67368 2.29408L3.71302 3.2933ZM3.14924 3.54651L2.42836 2.85345L2.42836 2.85345L3.14924 3.54651ZM3.14924 4.69313L2.42836 5.38619L3.14924 4.69313ZM2.58009 7.24103L2.54075 8.24026L2.56041 8.24103H2.58009V7.24103ZM21.4368 7.24103V8.24103H21.4565L21.4762 8.24026L21.4368 7.24103ZM2.01639 6.98783L1.29551 7.68089L1.29551 7.68089L2.01639 6.98783ZM2.01639 5.8412L2.73727 6.53426L2.73727 6.53426L2.01639 5.8412ZM2.58009 5.588V4.588H2.56041L2.54075 4.58877L2.58009 5.588ZM21.4368 5.588L21.4762 4.58877L21.4565 4.588H21.4368V5.588ZM22.0005 6.98783L22.7214 7.68089L22.7214 7.68089L22.0005 6.98783ZM1 7.93974V6.93974H0V7.93974H1ZM1 23.5456H0V24.5456H1V23.5456ZM23.0232 7.93974H24.0232V6.93974H23.0232V7.93974ZM23.0232 23.5456V24.5456H24.0232V23.5456H23.0232ZM2.65304 21.8963H1.65304V22.8963H2.65304V21.8963ZM2.65304 9.59419V8.59419H1.65304V9.59419H2.65304ZM21.3651 21.8963V22.8963H22.3651V21.8963H21.3651ZM21.3651 9.59419H22.3651V8.59419H21.3651V9.59419ZM4.84375 3.65304H19.1767V1.65304H4.84375V3.65304ZM3.55216 3.11803C3.89468 3.46055 4.35931 3.65304 4.84375 3.65304V1.65304C4.88979 1.65304 4.93385 1.6713 4.96637 1.70382L3.55216 3.11803ZM3.01723 1.82652C3.01723 2.31082 3.20954 2.77541 3.55216 3.11803L4.96637 1.70382C4.99899 1.73644 5.01723 1.78062 5.01723 1.82652H3.01723ZM3.55216 0.534847C3.2094 0.877609 3.01723 1.34242 3.01723 1.82652H5.01723C5.01723 1.87221 4.99913 1.9163 4.96637 1.94906L3.55216 0.534847ZM4.84375 0C4.35979 0 3.89502 0.191984 3.55216 0.534847L4.96637 1.94906C4.93351 1.98192 4.8893 2 4.84375 2V0ZM19.1767 0H4.84375V2H19.1767V0ZM20.4682 0.534846C20.1254 0.192054 19.6607 0 19.1767 0V2C19.131 2 19.0868 1.98185 19.054 1.94906L20.4682 0.534846ZM21.0032 1.82652C21.0032 1.34218 20.8108 0.877439 20.4682 0.534846L19.054 1.94906C19.0214 1.91647 19.0032 1.87245 19.0032 1.82652H21.0032ZM20.4682 3.11803C20.8107 2.77558 21.0032 2.31106 21.0032 1.82652H19.0032C19.0032 1.78038 19.0215 1.73627 19.054 1.70382L20.4682 3.11803ZM19.1767 3.65304C19.6612 3.65304 20.1258 3.46048 20.4682 3.11803L19.054 1.70382C19.0864 1.67137 19.1306 1.65304 19.1767 1.65304V3.65304ZM20.3072 3.94634H3.71302V5.94634H20.3072V3.94634ZM20.1501 4.00008C20.1811 3.96775 20.2234 3.94887 20.2678 3.94712L20.3465 5.94557C20.8181 5.927 21.2645 5.72668 21.5918 5.38619L20.1501 4.00008ZM20.1018 4.11982C20.1018 4.07527 20.119 4.03235 20.1501 4.00007L21.5918 5.3862C21.9191 5.04575 22.1018 4.59185 22.1018 4.11982H20.1018ZM20.1501 4.23957C20.119 4.20729 20.1018 4.16437 20.1018 4.11982H22.1018C22.1018 3.64779 21.9191 3.19389 21.5918 2.85345L20.1501 4.23957ZM20.2678 4.29253C20.2234 4.29078 20.1811 4.27189 20.1501 4.23957L21.5918 2.85345C21.2645 2.51297 20.8181 2.31264 20.3465 2.29408L20.2678 4.29253ZM3.71302 4.2933H20.3072V2.2933H3.71302V4.2933ZM3.87012 4.23957C3.83905 4.27189 3.79682 4.29078 3.75236 4.29253L3.67368 2.29408C3.20208 2.31264 2.75571 2.51297 2.42836 2.85345L3.87012 4.23957ZM3.91839 4.11982C3.91839 4.16437 3.90116 4.20729 3.87013 4.23957L2.42836 2.85345C2.10106 3.1939 1.91839 3.64779 1.91839 4.11982H3.91839ZM3.87012 4.00007C3.90116 4.03236 3.91839 4.07527 3.91839 4.11982H1.91839C1.91839 4.59185 2.10106 5.04575 2.42836 5.38619L3.87012 4.00007ZM3.75236 3.94712C3.79682 3.94887 3.83905 3.96775 3.87012 4.00007L2.42836 5.38619C2.75571 5.72668 3.20208 5.927 3.67368 5.94557L3.75236 3.94712ZM2.58009 8.24103H21.4368V6.24103H2.58009V8.24103ZM1.29551 7.68089C1.62278 8.02129 2.06903 8.22169 2.54075 8.24026L2.61942 6.24181C2.66399 6.24356 2.70627 6.26252 2.73727 6.29477L1.29551 7.68089ZM0.78553 6.41452C0.78553 6.88655 0.968201 7.34044 1.29551 7.68089L2.73727 6.29477C2.7683 6.32705 2.78553 6.36997 2.78553 6.41452H0.78553ZM1.29551 5.14814C0.9682 5.48859 0.78553 5.94249 0.78553 6.41452H2.78553C2.78553 6.45907 2.7683 6.50198 2.73727 6.53426L1.29551 5.14814ZM2.54075 4.58877C2.06903 4.60734 1.62278 4.80774 1.29551 5.14815L2.73727 6.53426C2.70627 6.56651 2.66399 6.58547 2.61942 6.58722L2.54075 4.58877ZM21.4368 4.588H2.58009V6.588H21.4368V4.588ZM22.7214 5.14815C22.3941 4.80774 21.9479 4.60734 21.4762 4.58877L21.3975 6.58722C21.3529 6.58547 21.3107 6.56651 21.2797 6.53426L22.7214 5.14815ZM23.2314 6.41452C23.2314 5.94249 23.0487 5.48859 22.7214 5.14815L21.2797 6.53426C21.2486 6.50198 21.2314 6.45907 21.2314 6.41452H23.2314ZM22.7214 7.68089C23.0487 7.34044 23.2314 6.88655 23.2314 6.41452H21.2314C21.2314 6.36997 21.2486 6.32705 21.2797 6.29477L22.7214 7.68089ZM21.4762 8.24026C21.9479 8.22169 22.3941 8.02129 22.7214 7.68089L21.2797 6.29477C21.3107 6.26252 21.3529 6.24356 21.3975 6.24181L21.4762 8.24026ZM0 7.93974V23.5456H2V7.93974H0ZM23.0232 6.93974H1V8.93974H23.0232V6.93974ZM24.0232 23.5456V7.93974H22.0232V23.5456H24.0232ZM1 24.5456H23.0232V22.5456H1V24.5456ZM3.65304 21.8963V9.59419H1.65304V21.8963H3.65304ZM21.3651 20.8963H2.65304V22.8963H21.3651V20.8963ZM20.3651 9.59419V21.8963H22.3651V9.59419H20.3651ZM2.65304 10.5942H21.3651V8.59419H2.65304V10.5942Z" fill="black" fill-opacity="0.2" mask="url(#path-1-inside-1_314_310)"/>
<path d="M4.25927 2.41093L4.96637 1.70382L4.96637 1.70382L4.25927 2.41093ZM4.25927 1.24195L4.96637 1.94906L4.96637 1.94906L4.25927 1.24195ZM19.7611 1.24195L19.054 1.94906L19.7611 1.24195ZM19.7611 2.41093L20.4682 3.11803V3.11803L19.7611 2.41093ZM20.3072 4.94634V5.94634H20.3268L20.3465 5.94557L20.3072 4.94634ZM3.71302 4.94634L3.67368 5.94557L3.69335 5.94634H3.71302V4.94634ZM20.8709 4.69313L20.1501 4.00007L20.1501 4.00008L20.8709 4.69313ZM20.8709 3.54651L20.1501 4.23957L20.1501 4.23957L20.8709 3.54651ZM20.3072 3.2933L20.3465 2.29408L20.3268 2.2933H20.3072V3.2933ZM3.71302 3.2933V2.2933H3.69335L3.67368 2.29408L3.71302 3.2933ZM3.14924 3.54651L2.42836 2.85345L2.42836 2.85345L3.14924 3.54651ZM3.14924 4.69313L2.42836 5.38619L3.14924 4.69313ZM2.58009 7.24103L2.54075 8.24026L2.56041 8.24103H2.58009V7.24103ZM21.4368 7.24103V8.24103H21.4565L21.4762 8.24026L21.4368 7.24103ZM2.01639 6.98783L1.29551 7.68089L1.29551 7.68089L2.01639 6.98783ZM2.01639 5.8412L2.73727 6.53426L2.73727 6.53426L2.01639 5.8412ZM2.58009 5.588V4.588H2.56041L2.54075 4.58877L2.58009 5.588ZM21.4368 5.588L21.4762 4.58877L21.4565 4.588H21.4368V5.588ZM22.0005 6.98783L22.7214 7.68089L22.7214 7.68089L22.0005 6.98783ZM1 7.93974V6.93974H0V7.93974H1ZM1 23.5456H0V24.5456H1V23.5456ZM23.0232 7.93974H24.0232V6.93974H23.0232V7.93974ZM23.0232 23.5456V24.5456H24.0232V23.5456H23.0232ZM2.65304 21.8963H1.65304V22.8963H2.65304V21.8963ZM2.65304 9.59419V8.59419H1.65304V9.59419H2.65304ZM21.3651 21.8963V22.8963H22.3651V21.8963H21.3651ZM21.3651 9.59419H22.3651V8.59419H21.3651V9.59419ZM4.84375 3.65304H19.1767V1.65304H4.84375V3.65304ZM3.55216 3.11803C3.89468 3.46055 4.35931 3.65304 4.84375 3.65304V1.65304C4.88979 1.65304 4.93385 1.6713 4.96637 1.70382L3.55216 3.11803ZM3.01723 1.82652C3.01723 2.31082 3.20954 2.77541 3.55216 3.11803L4.96637 1.70382C4.99899 1.73644 5.01723 1.78062 5.01723 1.82652H3.01723ZM3.55216 0.534847C3.2094 0.877609 3.01723 1.34242 3.01723 1.82652H5.01723C5.01723 1.87221 4.99913 1.9163 4.96637 1.94906L3.55216 0.534847ZM4.84375 0C4.35979 0 3.89502 0.191984 3.55216 0.534847L4.96637 1.94906C4.93351 1.98192 4.8893 2 4.84375 2V0ZM19.1767 0H4.84375V2H19.1767V0ZM20.4682 0.534846C20.1254 0.192054 19.6607 0 19.1767 0V2C19.131 2 19.0868 1.98185 19.054 1.94906L20.4682 0.534846ZM21.0032 1.82652C21.0032 1.34218 20.8108 0.877439 20.4682 0.534846L19.054 1.94906C19.0214 1.91647 19.0032 1.87245 19.0032 1.82652H21.0032ZM20.4682 3.11803C20.8107 2.77558 21.0032 2.31106 21.0032 1.82652H19.0032C19.0032 1.78038 19.0215 1.73627 19.054 1.70382L20.4682 3.11803ZM19.1767 3.65304C19.6612 3.65304 20.1258 3.46048 20.4682 3.11803L19.054 1.70382C19.0864 1.67137 19.1306 1.65304 19.1767 1.65304V3.65304ZM20.3072 3.94634H3.71302V5.94634H20.3072V3.94634ZM20.1501 4.00008C20.1811 3.96775 20.2234 3.94887 20.2678 3.94712L20.3465 5.94557C20.8181 5.927 21.2645 5.72668 21.5918 5.38619L20.1501 4.00008ZM20.1018 4.11982C20.1018 4.07527 20.119 4.03235 20.1501 4.00007L21.5918 5.3862C21.9191 5.04575 22.1018 4.59185 22.1018 4.11982H20.1018ZM20.1501 4.23957C20.119 4.20729 20.1018 4.16437 20.1018 4.11982H22.1018C22.1018 3.64779 21.9191 3.19389 21.5918 2.85345L20.1501 4.23957ZM20.2678 4.29253C20.2234 4.29078 20.1811 4.27189 20.1501 4.23957L21.5918 2.85345C21.2645 2.51297 20.8181 2.31264 20.3465 2.29408L20.2678 4.29253ZM3.71302 4.2933H20.3072V2.2933H3.71302V4.2933ZM3.87012 4.23957C3.83905 4.27189 3.79682 4.29078 3.75236 4.29253L3.67368 2.29408C3.20208 2.31264 2.75571 2.51297 2.42836 2.85345L3.87012 4.23957ZM3.91839 4.11982C3.91839 4.16437 3.90116 4.20729 3.87013 4.23957L2.42836 2.85345C2.10106 3.1939 1.91839 3.64779 1.91839 4.11982H3.91839ZM3.87012 4.00007C3.90116 4.03236 3.91839 4.07527 3.91839 4.11982H1.91839C1.91839 4.59185 2.10106 5.04575 2.42836 5.38619L3.87012 4.00007ZM3.75236 3.94712C3.79682 3.94887 3.83905 3.96775 3.87012 4.00007L2.42836 5.38619C2.75571 5.72668 3.20208 5.927 3.67368 5.94557L3.75236 3.94712ZM2.58009 8.24103H21.4368V6.24103H2.58009V8.24103ZM1.29551 7.68089C1.62278 8.02129 2.06903 8.22169 2.54075 8.24026L2.61942 6.24181C2.66399 6.24356 2.70627 6.26252 2.73727 6.29477L1.29551 7.68089ZM0.78553 6.41452C0.78553 6.88655 0.968201 7.34044 1.29551 7.68089L2.73727 6.29477C2.7683 6.32705 2.78553 6.36997 2.78553 6.41452H0.78553ZM1.29551 5.14814C0.9682 5.48859 0.78553 5.94249 0.78553 6.41452H2.78553C2.78553 6.45907 2.7683 6.50198 2.73727 6.53426L1.29551 5.14814ZM2.54075 4.58877C2.06903 4.60734 1.62278 4.80774 1.29551 5.14815L2.73727 6.53426C2.70627 6.56651 2.66399 6.58547 2.61942 6.58722L2.54075 4.58877ZM21.4368 4.588H2.58009V6.588H21.4368V4.588ZM22.7214 5.14815C22.3941 4.80774 21.9479 4.60734 21.4762 4.58877L21.3975 6.58722C21.3529 6.58547 21.3107 6.56651 21.2797 6.53426L22.7214 5.14815ZM23.2314 6.41452C23.2314 5.94249 23.0487 5.48859 22.7214 5.14815L21.2797 6.53426C21.2486 6.50198 21.2314 6.45907 21.2314 6.41452H23.2314ZM22.7214 7.68089C23.0487 7.34044 23.2314 6.88655 23.2314 6.41452H21.2314C21.2314 6.36997 21.2486 6.32705 21.2797 6.29477L22.7214 7.68089ZM21.4762 8.24026C21.9479 8.22169 22.3941 8.02129 22.7214 7.68089L21.2797 6.29477C21.3107 6.26252 21.3529 6.24356 21.3975 6.24181L21.4762 8.24026ZM0 7.93974V23.5456H2V7.93974H0ZM23.0232 6.93974H1V8.93974H23.0232V6.93974ZM24.0232 23.5456V7.93974H22.0232V23.5456H24.0232ZM1 24.5456H23.0232V22.5456H1V24.5456ZM3.65304 21.8963V9.59419H1.65304V21.8963H3.65304ZM21.3651 20.8963H2.65304V22.8963H21.3651V20.8963ZM20.3651 9.59419V21.8963H22.3651V9.59419H20.3651ZM2.65304 10.5942H21.3651V8.59419H2.65304V10.5942Z" fill="black" fill-opacity="0.2" mask="url(#path-1-inside-1_314_310)"/>
</svg>
