<svg width="24" height="24" viewBox="0 0 24 24" fill="none" xmlns="http://www.w3.org/2000/svg">
<path fill-rule="evenodd" clip-rule="evenodd" d="M0.747036 2.74704C0.905206 2.58887 1.11973 2.5 1.34343 2.5H4.65848C4.95794 2.50106 5.25 2.59311 5.49595 2.76395C5.74167 2.93464 5.92977 3.17592 6.03534 3.45587C6.03525 3.45562 6.03543 3.45611 6.03534 3.45587L7.09318 6.24088H21.8397C22.0781 6.24094 22.3131 6.29888 22.5242 6.40974C22.7353 6.5206 22.9163 6.68106 23.0517 6.87731C23.1871 7.07356 23.2728 7.29975 23.3015 7.53647C23.3302 7.77318 23.301 8.01331 23.2164 8.23622L20.8707 14.4122L20.8701 14.4137C20.763 14.6928 20.5739 14.9328 20.3277 15.1021C20.0814 15.2715 19.7896 15.3622 19.4908 15.3623H10.5546L11.3352 17.4163H19.8082L19.8201 17.4168C20.3816 17.4436 20.9175 17.66 21.3402 18.0305C21.763 18.4011 22.0476 18.904 22.1478 19.4572C22.2479 20.0103 22.1576 20.5811 21.8915 21.0764C21.6255 21.5716 21.1994 21.962 20.6829 22.184C20.1664 22.4059 19.5899 22.4462 19.0476 22.2983C18.5052 22.1504 18.029 21.823 17.6966 21.3696C17.3643 20.9162 17.1954 20.3635 17.2176 19.8018C17.2271 19.5622 17.2711 19.3271 17.3468 19.1031H12.9033C12.9766 19.318 13.0206 19.5433 13.033 19.773C13.0627 20.3256 12.9074 20.8723 12.5917 21.3267C12.276 21.7812 11.8179 22.1176 11.2898 22.2826C10.7616 22.4477 10.1935 22.4321 9.67523 22.2382C9.15694 22.0444 8.718 21.6834 8.42776 21.2123C8.13753 20.7412 8.01252 20.1868 8.07253 19.6367C8.13253 19.0866 8.3741 18.5722 8.75908 18.1747C9.00036 17.9256 9.28935 17.7313 9.60635 17.6019L8.59086 14.9288C8.57133 14.8938 8.55434 14.8573 8.54002 14.8198L5.71507 7.38251C5.70203 7.34771 5.69133 7.31212 5.683 7.276L4.50996 4.18687H1.34343C1.11973 4.18687 0.905206 4.09801 0.747036 3.93984C0.588859 3.78166 0.5 3.56713 0.5 3.34344C0.5 3.11975 0.588859 2.90521 0.747036 2.74704ZM20.4974 19.9013C20.4974 20.0597 20.4504 20.2145 20.3625 20.3462C20.2745 20.4778 20.1495 20.5805 20.0032 20.6411C19.8569 20.7017 19.6959 20.7176 19.5406 20.6867C19.3853 20.6559 19.2426 20.5797 19.1306 20.4677C19.0186 20.3558 18.9423 20.2132 18.9113 20.0579C18.8804 19.9026 18.8961 19.7416 18.9567 19.5953C19.0172 19.4489 19.1197 19.3238 19.2514 19.2358C19.3829 19.1478 19.5375 19.1007 19.6958 19.1006C19.9084 19.1008 20.1122 19.1854 20.2625 19.3358C20.4129 19.4863 20.4974 19.6903 20.4974 19.903L21.1875 19.903M21.5302 7.92775L19.3468 13.6763H9.91793L7.73407 7.92775H21.5302ZM10.8563 19.1623C10.71 19.1017 10.549 19.0859 10.3937 19.1168C10.2384 19.1478 10.0958 19.224 9.98386 19.336C9.87191 19.4479 9.79565 19.5905 9.76474 19.7458C9.73382 19.9011 9.74963 20.0621 9.81018 20.2084C9.87072 20.3547 9.97327 20.4797 10.1049 20.5678C10.2364 20.6557 10.391 20.7028 10.5492 20.703C10.7627 20.7027 10.9663 20.6184 11.116 20.4686C11.2664 20.3181 11.3509 20.1141 11.3508 19.9013C11.3507 19.7431 11.3036 19.5885 11.2157 19.457C11.1276 19.3254 11.0026 19.2228 10.8563 19.1623Z" fill="#333333"/>
<path fill-rule="evenodd" clip-rule="evenodd" d="M0.747036 2.74704C0.905206 2.58887 1.11973 2.5 1.34343 2.5H4.65848C4.95794 2.50106 5.25 2.59311 5.49595 2.76395C5.74167 2.93464 5.92977 3.17592 6.03534 3.45587C6.03525 3.45562 6.03543 3.45611 6.03534 3.45587L7.09318 6.24088H21.8397C22.0781 6.24094 22.3131 6.29888 22.5242 6.40974C22.7353 6.5206 22.9163 6.68106 23.0517 6.87731C23.1871 7.07356 23.2728 7.29975 23.3015 7.53647C23.3302 7.77318 23.301 8.01331 23.2164 8.23622L20.8707 14.4122L20.8701 14.4137C20.763 14.6928 20.5739 14.9328 20.3277 15.1021C20.0814 15.2715 19.7896 15.3622 19.4908 15.3623H10.5546L11.3352 17.4163H19.8082L19.8201 17.4168C20.3816 17.4436 20.9175 17.66 21.3402 18.0305C21.763 18.4011 22.0476 18.904 22.1478 19.4572C22.2479 20.0103 22.1576 20.5811 21.8915 21.0764C21.6255 21.5716 21.1994 21.962 20.6829 22.184C20.1664 22.4059 19.5899 22.4462 19.0476 22.2983C18.5052 22.1504 18.029 21.823 17.6966 21.3696C17.3643 20.9162 17.1954 20.3635 17.2176 19.8018C17.2271 19.5622 17.2711 19.3271 17.3468 19.1031H12.9033C12.9766 19.318 13.0206 19.5433 13.033 19.773C13.0627 20.3256 12.9074 20.8723 12.5917 21.3267C12.276 21.7812 11.8179 22.1176 11.2898 22.2826C10.7616 22.4477 10.1935 22.4321 9.67523 22.2382C9.15694 22.0444 8.718 21.6834 8.42776 21.2123C8.13753 20.7412 8.01252 20.1868 8.07253 19.6367C8.13253 19.0866 8.3741 18.5722 8.75908 18.1747C9.00036 17.9256 9.28935 17.7313 9.60635 17.6019L8.59086 14.9288C8.57133 14.8938 8.55434 14.8573 8.54002 14.8198L5.71507 7.38251C5.70203 7.34771 5.69133 7.31212 5.683 7.276L4.50996 4.18687H1.34343C1.11973 4.18687 0.905206 4.09801 0.747036 3.93984C0.588859 3.78166 0.5 3.56713 0.5 3.34344C0.5 3.11975 0.588859 2.90521 0.747036 2.74704ZM20.4974 19.9013C20.4974 20.0597 20.4504 20.2145 20.3625 20.3462C20.2745 20.4778 20.1495 20.5805 20.0032 20.6411C19.8569 20.7017 19.6959 20.7176 19.5406 20.6867C19.3853 20.6559 19.2426 20.5797 19.1306 20.4677C19.0186 20.3558 18.9423 20.2132 18.9113 20.0579C18.8804 19.9026 18.8961 19.7416 18.9567 19.5953C19.0172 19.4489 19.1197 19.3238 19.2514 19.2358C19.3829 19.1478 19.5375 19.1007 19.6958 19.1006C19.9084 19.1008 20.1122 19.1854 20.2625 19.3358C20.4129 19.4863 20.4974 19.6903 20.4974 19.903L21.1875 19.903M21.5302 7.92775L19.3468 13.6763H9.91793L7.73407 7.92775H21.5302ZM10.8563 19.1623C10.71 19.1017 10.549 19.0859 10.3937 19.1168C10.2384 19.1478 10.0958 19.224 9.98386 19.336C9.87191 19.4479 9.79565 19.5905 9.76474 19.7458C9.73382 19.9011 9.74963 20.0621 9.81018 20.2084C9.87072 20.3547 9.97327 20.4797 10.1049 20.5678C10.2364 20.6557 10.391 20.7028 10.5492 20.703C10.7627 20.7027 10.9663 20.6184 11.116 20.4686C11.2664 20.3181 11.3509 20.1141 11.3508 19.9013C11.3507 19.7431 11.3036 19.5885 11.2157 19.457C11.1276 19.3254 11.0026 19.2228 10.8563 19.1623Z" fill="black" fill-opacity="0.2"/>
<path fill-rule="evenodd" clip-rule="evenodd" d="M0.747036 2.74704C0.905206 2.58887 1.11973 2.5 1.34343 2.5H4.65848C4.95794 2.50106 5.25 2.59311 5.49595 2.76395C5.74167 2.93464 5.92977 3.17592 6.03534 3.45587C6.03525 3.45562 6.03543 3.45611 6.03534 3.45587L7.09318 6.24088H21.8397C22.0781 6.24094 22.3131 6.29888 22.5242 6.40974C22.7353 6.5206 22.9163 6.68106 23.0517 6.87731C23.1871 7.07356 23.2728 7.29975 23.3015 7.53647C23.3302 7.77318 23.301 8.01331 23.2164 8.23622L20.8707 14.4122L20.8701 14.4137C20.763 14.6928 20.5739 14.9328 20.3277 15.1021C20.0814 15.2715 19.7896 15.3622 19.4908 15.3623H10.5546L11.3352 17.4163H19.8082L19.8201 17.4168C20.3816 17.4436 20.9175 17.66 21.3402 18.0305C21.763 18.4011 22.0476 18.904 22.1478 19.4572C22.2479 20.0103 22.1576 20.5811 21.8915 21.0764C21.6255 21.5716 21.1994 21.962 20.6829 22.184C20.1664 22.4059 19.5899 22.4462 19.0476 22.2983C18.5052 22.1504 18.029 21.823 17.6966 21.3696C17.3643 20.9162 17.1954 20.3635 17.2176 19.8018C17.2271 19.5622 17.2711 19.3271 17.3468 19.1031H12.9033C12.9766 19.318 13.0206 19.5433 13.033 19.773C13.0627 20.3256 12.9074 20.8723 12.5917 21.3267C12.276 21.7812 11.8179 22.1176 11.2898 22.2826C10.7616 22.4477 10.1935 22.4321 9.67523 22.2382C9.15694 22.0444 8.718 21.6834 8.42776 21.2123C8.13753 20.7412 8.01252 20.1868 8.07253 19.6367C8.13253 19.0866 8.3741 18.5722 8.75908 18.1747C9.00036 17.9256 9.28935 17.7313 9.60635 17.6019L8.59086 14.9288C8.57133 14.8938 8.55434 14.8573 8.54002 14.8198L5.71507 7.38251C5.70203 7.34771 5.69133 7.31212 5.683 7.276L4.50996 4.18687H1.34343C1.11973 4.18687 0.905206 4.09801 0.747036 3.93984C0.588859 3.78166 0.5 3.56713 0.5 3.34344C0.5 3.11975 0.588859 2.90521 0.747036 2.74704ZM20.4974 19.9013C20.4974 20.0597 20.4504 20.2145 20.3625 20.3462C20.2745 20.4778 20.1495 20.5805 20.0032 20.6411C19.8569 20.7017 19.6959 20.7176 19.5406 20.6867C19.3853 20.6559 19.2426 20.5797 19.1306 20.4677C19.0186 20.3558 18.9423 20.2132 18.9113 20.0579C18.8804 19.9026 18.8961 19.7416 18.9567 19.5953C19.0172 19.4489 19.1197 19.3238 19.2514 19.2358C19.3829 19.1478 19.5375 19.1007 19.6958 19.1006C19.9084 19.1008 20.1122 19.1854 20.2625 19.3358C20.4129 19.4863 20.4974 19.6903 20.4974 19.903L21.1875 19.903M21.5302 7.92775L19.3468 13.6763H9.91793L7.73407 7.92775H21.5302ZM10.8563 19.1623C10.71 19.1017 10.549 19.0859 10.3937 19.1168C10.2384 19.1478 10.0958 19.224 9.98386 19.336C9.87191 19.4479 9.79565 19.5905 9.76474 19.7458C9.73382 19.9011 9.74963 20.0621 9.81018 20.2084C9.87072 20.3547 9.97327 20.4797 10.1049 20.5678C10.2364 20.6557 10.391 20.7028 10.5492 20.703C10.7627 20.7027 10.9663 20.6184 11.116 20.4686C11.2664 20.3181 11.3509 20.1141 11.3508 19.9013C11.3507 19.7431 11.3036 19.5885 11.2157 19.457C11.1276 19.3254 11.0026 19.2228 10.8563 19.1623Z" fill="black" fill-opacity="0.2"/>
<path fill-rule="evenodd" clip-rule="evenodd" d="M0.747036 2.74704C0.905206 2.58887 1.11973 2.5 1.34343 2.5H4.65848C4.95794 2.50106 5.25 2.59311 5.49595 2.76395C5.74167 2.93464 5.92977 3.17592 6.03534 3.45587C6.03525 3.45562 6.03543 3.45611 6.03534 3.45587L7.09318 6.24088H21.8397C22.0781 6.24094 22.3131 6.29888 22.5242 6.40974C22.7353 6.5206 22.9163 6.68106 23.0517 6.87731C23.1871 7.07356 23.2728 7.29975 23.3015 7.53647C23.3302 7.77318 23.301 8.01331 23.2164 8.23622L20.8707 14.4122L20.8701 14.4137C20.763 14.6928 20.5739 14.9328 20.3277 15.1021C20.0814 15.2715 19.7896 15.3622 19.4908 15.3623H10.5546L11.3352 17.4163H19.8082L19.8201 17.4168C20.3816 17.4436 20.9175 17.66 21.3402 18.0305C21.763 18.4011 22.0476 18.904 22.1478 19.4572C22.2479 20.0103 22.1576 20.5811 21.8915 21.0764C21.6255 21.5716 21.1994 21.962 20.6829 22.184C20.1664 22.4059 19.5899 22.4462 19.0476 22.2983C18.5052 22.1504 18.029 21.823 17.6966 21.3696C17.3643 20.9162 17.1954 20.3635 17.2176 19.8018C17.2271 19.5622 17.2711 19.3271 17.3468 19.1031H12.9033C12.9766 19.318 13.0206 19.5433 13.033 19.773C13.0627 20.3256 12.9074 20.8723 12.5917 21.3267C12.276 21.7812 11.8179 22.1176 11.2898 22.2826C10.7616 22.4477 10.1935 22.4321 9.67523 22.2382C9.15694 22.0444 8.718 21.6834 8.42776 21.2123C8.13753 20.7412 8.01252 20.1868 8.07253 19.6367C8.13253 19.0866 8.3741 18.5722 8.75908 18.1747C9.00036 17.9256 9.28935 17.7313 9.60635 17.6019L8.59086 14.9288C8.57133 14.8938 8.55434 14.8573 8.54002 14.8198L5.71507 7.38251C5.70203 7.34771 5.69133 7.31212 5.683 7.276L4.50996 4.18687H1.34343C1.11973 4.18687 0.905206 4.09801 0.747036 3.93984C0.588859 3.78166 0.5 3.56713 0.5 3.34344C0.5 3.11975 0.588859 2.90521 0.747036 2.74704ZM20.4974 19.9013C20.4974 20.0597 20.4504 20.2145 20.3625 20.3462C20.2745 20.4778 20.1495 20.5805 20.0032 20.6411C19.8569 20.7017 19.6959 20.7176 19.5406 20.6867C19.3853 20.6559 19.2426 20.5797 19.1306 20.4677C19.0186 20.3558 18.9423 20.2132 18.9113 20.0579C18.8804 19.9026 18.8961 19.7416 18.9567 19.5953C19.0172 19.4489 19.1197 19.3238 19.2514 19.2358C19.3829 19.1478 19.5375 19.1007 19.6958 19.1006C19.9084 19.1008 20.1122 19.1854 20.2625 19.3358C20.4129 19.4863 20.4974 19.6903 20.4974 19.903L21.1875 19.903M21.5302 7.92775L19.3468 13.6763H9.91793L7.73407 7.92775H21.5302ZM10.8563 19.1623C10.71 19.1017 10.549 19.0859 10.3937 19.1168C10.2384 19.1478 10.0958 19.224 9.98386 19.336C9.87191 19.4479 9.79565 19.5905 9.76474 19.7458C9.73382 19.9011 9.74963 20.0621 9.81018 20.2084C9.87072 20.3547 9.97327 20.4797 10.1049 20.5678C10.2364 20.6557 10.391 20.7028 10.5492 20.703C10.7627 20.7027 10.9663 20.6184 11.116 20.4686C11.2664 20.3181 11.3509 20.1141 11.3508 19.9013C11.3507 19.7431 11.3036 19.5885 11.2157 19.457C11.1276 19.3254 11.0026 19.2228 10.8563 19.1623Z" fill="black" fill-opacity="0.2"/>
<path fill-rule="evenodd" clip-rule="evenodd" d="M0.747036 2.74704C0.905206 2.58887 1.11973 2.5 1.34343 2.5H4.65848C4.95794 2.50106 5.25 2.59311 5.49595 2.76395C5.74167 2.93464 5.92977 3.17592 6.03534 3.45587C6.03525 3.45562 6.03543 3.45611 6.03534 3.45587L7.09318 6.24088H21.8397C22.0781 6.24094 22.3131 6.29888 22.5242 6.40974C22.7353 6.5206 22.9163 6.68106 23.0517 6.87731C23.1871 7.07356 23.2728 7.29975 23.3015 7.53647C23.3302 7.77318 23.301 8.01331 23.2164 8.23622L20.8707 14.4122L20.8701 14.4137C20.763 14.6928 20.5739 14.9328 20.3277 15.1021C20.0814 15.2715 19.7896 15.3622 19.4908 15.3623H10.5546L11.3352 17.4163H19.8082L19.8201 17.4168C20.3816 17.4436 20.9175 17.66 21.3402 18.0305C21.763 18.4011 22.0476 18.904 22.1478 19.4572C22.2479 20.0103 22.1576 20.5811 21.8915 21.0764C21.6255 21.5716 21.1994 21.962 20.6829 22.184C20.1664 22.4059 19.5899 22.4462 19.0476 22.2983C18.5052 22.1504 18.029 21.823 17.6966 21.3696C17.3643 20.9162 17.1954 20.3635 17.2176 19.8018C17.2271 19.5622 17.2711 19.3271 17.3468 19.1031H12.9033C12.9766 19.318 13.0206 19.5433 13.033 19.773C13.0627 20.3256 12.9074 20.8723 12.5917 21.3267C12.276 21.7812 11.8179 22.1176 11.2898 22.2826C10.7616 22.4477 10.1935 22.4321 9.67523 22.2382C9.15694 22.0444 8.718 21.6834 8.42776 21.2123C8.13753 20.7412 8.01252 20.1868 8.07253 19.6367C8.13253 19.0866 8.3741 18.5722 8.75908 18.1747C9.00036 17.9256 9.28935 17.7313 9.60635 17.6019L8.59086 14.9288C8.57133 14.8938 8.55434 14.8573 8.54002 14.8198L5.71507 7.38251C5.70203 7.34771 5.69133 7.31212 5.683 7.276L4.50996 4.18687H1.34343C1.11973 4.18687 0.905206 4.09801 0.747036 3.93984C0.588859 3.78166 0.5 3.56713 0.5 3.34344C0.5 3.11975 0.588859 2.90521 0.747036 2.74704ZM20.4974 19.9013C20.4974 20.0597 20.4504 20.2145 20.3625 20.3462C20.2745 20.4778 20.1495 20.5805 20.0032 20.6411C19.8569 20.7017 19.6959 20.7176 19.5406 20.6867C19.3853 20.6559 19.2426 20.5797 19.1306 20.4677C19.0186 20.3558 18.9423 20.2132 18.9113 20.0579C18.8804 19.9026 18.8961 19.7416 18.9567 19.5953C19.0172 19.4489 19.1197 19.3238 19.2514 19.2358C19.3829 19.1478 19.5375 19.1007 19.6958 19.1006C19.9084 19.1008 20.1122 19.1854 20.2625 19.3358C20.4129 19.4863 20.4974 19.6903 20.4974 19.903L21.1875 19.903M21.5302 7.92775L19.3468 13.6763H9.91793L7.73407 7.92775H21.5302ZM10.8563 19.1623C10.71 19.1017 10.549 19.0859 10.3937 19.1168C10.2384 19.1478 10.0958 19.224 9.98386 19.336C9.87191 19.4479 9.79565 19.5905 9.76474 19.7458C9.73382 19.9011 9.74963 20.0621 9.81018 20.2084C9.87072 20.3547 9.97327 20.4797 10.1049 20.5678C10.2364 20.6557 10.391 20.7028 10.5492 20.703C10.7627 20.7027 10.9663 20.6184 11.116 20.4686C11.2664 20.3181 11.3509 20.1141 11.3508 19.9013C11.3507 19.7431 11.3036 19.5885 11.2157 19.457C11.1276 19.3254 11.0026 19.2228 10.8563 19.1623Z" fill="black" fill-opacity="0.2"/>
<path fill-rule="evenodd" clip-rule="evenodd" d="M0.747036 2.74704C0.905206 2.58887 1.11973 2.5 1.34343 2.5H4.65848C4.95794 2.50106 5.25 2.59311 5.49595 2.76395C5.74167 2.93464 5.92977 3.17592 6.03534 3.45587C6.03525 3.45562 6.03543 3.45611 6.03534 3.45587L7.09318 6.24088H21.8397C22.0781 6.24094 22.3131 6.29888 22.5242 6.40974C22.7353 6.5206 22.9163 6.68106 23.0517 6.87731C23.1871 7.07356 23.2728 7.29975 23.3015 7.53647C23.3302 7.77318 23.301 8.01331 23.2164 8.23622L20.8707 14.4122L20.8701 14.4137C20.763 14.6928 20.5739 14.9328 20.3277 15.1021C20.0814 15.2715 19.7896 15.3622 19.4908 15.3623H10.5546L11.3352 17.4163H19.8082L19.8201 17.4168C20.3816 17.4436 20.9175 17.66 21.3402 18.0305C21.763 18.4011 22.0476 18.904 22.1478 19.4572C22.2479 20.0103 22.1576 20.5811 21.8915 21.0764C21.6255 21.5716 21.1994 21.962 20.6829 22.184C20.1664 22.4059 19.5899 22.4462 19.0476 22.2983C18.5052 22.1504 18.029 21.823 17.6966 21.3696C17.3643 20.9162 17.1954 20.3635 17.2176 19.8018C17.2271 19.5622 17.2711 19.3271 17.3468 19.1031H12.9033C12.9766 19.318 13.0206 19.5433 13.033 19.773C13.0627 20.3256 12.9074 20.8723 12.5917 21.3267C12.276 21.7812 11.8179 22.1176 11.2898 22.2826C10.7616 22.4477 10.1935 22.4321 9.67523 22.2382C9.15694 22.0444 8.718 21.6834 8.42776 21.2123C8.13753 20.7412 8.01252 20.1868 8.07253 19.6367C8.13253 19.0866 8.3741 18.5722 8.75908 18.1747C9.00036 17.9256 9.28935 17.7313 9.60635 17.6019L8.59086 14.9288C8.57133 14.8938 8.55434 14.8573 8.54002 14.8198L5.71507 7.38251C5.70203 7.34771 5.69133 7.31212 5.683 7.276L4.50996 4.18687H1.34343C1.11973 4.18687 0.905206 4.09801 0.747036 3.93984C0.588859 3.78166 0.5 3.56713 0.5 3.34344C0.5 3.11975 0.588859 2.90521 0.747036 2.74704ZM20.4974 19.9013C20.4974 20.0597 20.4504 20.2145 20.3625 20.3462C20.2745 20.4778 20.1495 20.5805 20.0032 20.6411C19.8569 20.7017 19.6959 20.7176 19.5406 20.6867C19.3853 20.6559 19.2426 20.5797 19.1306 20.4677C19.0186 20.3558 18.9423 20.2132 18.9113 20.0579C18.8804 19.9026 18.8961 19.7416 18.9567 19.5953C19.0172 19.4489 19.1197 19.3238 19.2514 19.2358C19.3829 19.1478 19.5375 19.1007 19.6958 19.1006C19.9084 19.1008 20.1122 19.1854 20.2625 19.3358C20.4129 19.4863 20.4974 19.6903 20.4974 19.903L21.1875 19.903M21.5302 7.92775L19.3468 13.6763H9.91793L7.73407 7.92775H21.5302ZM10.8563 19.1623C10.71 19.1017 10.549 19.0859 10.3937 19.1168C10.2384 19.1478 10.0958 19.224 9.98386 19.336C9.87191 19.4479 9.79565 19.5905 9.76474 19.7458C9.73382 19.9011 9.74963 20.0621 9.81018 20.2084C9.87072 20.3547 9.97327 20.4797 10.1049 20.5678C10.2364 20.6557 10.391 20.7028 10.5492 20.703C10.7627 20.7027 10.9663 20.6184 11.116 20.4686C11.2664 20.3181 11.3509 20.1141 11.3508 19.9013C11.3507 19.7431 11.3036 19.5885 11.2157 19.457C11.1276 19.3254 11.0026 19.2228 10.8563 19.1623Z" fill="black" fill-opacity="0.2"/>
</svg>
