<svg width="24" height="24" viewBox="0 0 24 24" fill="none" xmlns="http://www.w3.org/2000/svg">
<g clip-path="url(#clip0_664_4556)">
<path d="M12 0C5.37188 0 0 5.37188 0 12C0 18.6281 5.37188 24 12 24C18.6281 24 24 18.6281 24 12C24 5.37188 18.6281 0 12 0ZM14.6437 14.3438L10.1156 18.8719C9.52969 19.4578 8.57812 19.4578 7.9875 18.8719L5.13281 16.0172C4.54688 15.4313 4.54688 14.4797 5.13281 13.8891L7.29375 11.7281C7.55156 11.4703 7.97344 11.4703 8.23125 11.7281C8.48906 11.9859 8.48906 12.4078 8.23125 12.6656L6.25781 14.6391C6.08437 14.8125 6.08437 15.0938 6.25781 15.2672L8.7375 17.7469C8.91094 17.9203 9.19219 17.9203 9.36563 17.7469L13.5234 13.5891C13.6969 13.4156 13.6969 13.1344 13.5234 12.9609L12.3609 11.7984C12.1031 11.5406 12.1031 11.1187 12.3609 10.8609C12.6188 10.6031 13.0406 10.6031 13.2984 10.8609L14.6484 12.2109C15.2344 12.7969 15.2344 13.7531 14.6484 14.3391L14.6437 14.3438ZM18.8625 10.1109L16.7016 12.2719C16.4437 12.5297 16.0219 12.5297 15.7641 12.2719C15.5062 12.0141 15.5062 11.5969 15.7641 11.3344L17.7375 9.36094C17.9109 9.1875 17.9109 8.90625 17.7375 8.73281L15.2578 6.25312C15.0844 6.07969 14.8031 6.07969 14.6297 6.25312L10.4719 10.4109C10.2984 10.5844 10.2984 10.8656 10.4719 11.0391L11.6344 12.2016C11.8922 12.4594 11.8922 12.8812 11.6344 13.1391C11.3766 13.3969 10.9547 13.3969 10.6969 13.1391L9.34687 11.7891C8.76094 11.2031 8.76094 10.2516 9.34687 9.66094L13.8797 5.12813C14.4656 4.54219 15.4172 4.54219 16.0078 5.12813L18.8625 7.98281C19.4484 8.56875 19.4484 9.52031 18.8625 10.1063V10.1109Z" fill="black"/>
<path d="M12 0C5.37188 0 0 5.37188 0 12C0 18.6281 5.37188 24 12 24C18.6281 24 24 18.6281 24 12C24 5.37188 18.6281 0 12 0ZM14.6437 14.3438L10.1156 18.8719C9.52969 19.4578 8.57812 19.4578 7.9875 18.8719L5.13281 16.0172C4.54688 15.4313 4.54688 14.4797 5.13281 13.8891L7.29375 11.7281C7.55156 11.4703 7.97344 11.4703 8.23125 11.7281C8.48906 11.9859 8.48906 12.4078 8.23125 12.6656L6.25781 14.6391C6.08437 14.8125 6.08437 15.0938 6.25781 15.2672L8.7375 17.7469C8.91094 17.9203 9.19219 17.9203 9.36563 17.7469L13.5234 13.5891C13.6969 13.4156 13.6969 13.1344 13.5234 12.9609L12.3609 11.7984C12.1031 11.5406 12.1031 11.1187 12.3609 10.8609C12.6188 10.6031 13.0406 10.6031 13.2984 10.8609L14.6484 12.2109C15.2344 12.7969 15.2344 13.7531 14.6484 14.3391L14.6437 14.3438ZM18.8625 10.1109L16.7016 12.2719C16.4437 12.5297 16.0219 12.5297 15.7641 12.2719C15.5062 12.0141 15.5062 11.5969 15.7641 11.3344L17.7375 9.36094C17.9109 9.1875 17.9109 8.90625 17.7375 8.73281L15.2578 6.25312C15.0844 6.07969 14.8031 6.07969 14.6297 6.25312L10.4719 10.4109C10.2984 10.5844 10.2984 10.8656 10.4719 11.0391L11.6344 12.2016C11.8922 12.4594 11.8922 12.8812 11.6344 13.1391C11.3766 13.3969 10.9547 13.3969 10.6969 13.1391L9.34687 11.7891C8.76094 11.2031 8.76094 10.2516 9.34687 9.66094L13.8797 5.12813C14.4656 4.54219 15.4172 4.54219 16.0078 5.12813L18.8625 7.98281C19.4484 8.56875 19.4484 9.52031 18.8625 10.1063V10.1109Z" fill="black" fill-opacity="0.2"/>
<path d="M12 0C5.37188 0 0 5.37188 0 12C0 18.6281 5.37188 24 12 24C18.6281 24 24 18.6281 24 12C24 5.37188 18.6281 0 12 0ZM14.6437 14.3438L10.1156 18.8719C9.52969 19.4578 8.57812 19.4578 7.9875 18.8719L5.13281 16.0172C4.54688 15.4313 4.54688 14.4797 5.13281 13.8891L7.29375 11.7281C7.55156 11.4703 7.97344 11.4703 8.23125 11.7281C8.48906 11.9859 8.48906 12.4078 8.23125 12.6656L6.25781 14.6391C6.08437 14.8125 6.08437 15.0938 6.25781 15.2672L8.7375 17.7469C8.91094 17.9203 9.19219 17.9203 9.36563 17.7469L13.5234 13.5891C13.6969 13.4156 13.6969 13.1344 13.5234 12.9609L12.3609 11.7984C12.1031 11.5406 12.1031 11.1187 12.3609 10.8609C12.6188 10.6031 13.0406 10.6031 13.2984 10.8609L14.6484 12.2109C15.2344 12.7969 15.2344 13.7531 14.6484 14.3391L14.6437 14.3438ZM18.8625 10.1109L16.7016 12.2719C16.4437 12.5297 16.0219 12.5297 15.7641 12.2719C15.5062 12.0141 15.5062 11.5969 15.7641 11.3344L17.7375 9.36094C17.9109 9.1875 17.9109 8.90625 17.7375 8.73281L15.2578 6.25312C15.0844 6.07969 14.8031 6.07969 14.6297 6.25312L10.4719 10.4109C10.2984 10.5844 10.2984 10.8656 10.4719 11.0391L11.6344 12.2016C11.8922 12.4594 11.8922 12.8812 11.6344 13.1391C11.3766 13.3969 10.9547 13.3969 10.6969 13.1391L9.34687 11.7891C8.76094 11.2031 8.76094 10.2516 9.34687 9.66094L13.8797 5.12813C14.4656 4.54219 15.4172 4.54219 16.0078 5.12813L18.8625 7.98281C19.4484 8.56875 19.4484 9.52031 18.8625 10.1063V10.1109Z" fill="black" fill-opacity="0.2"/>
<path d="M12 0C5.37188 0 0 5.37188 0 12C0 18.6281 5.37188 24 12 24C18.6281 24 24 18.6281 24 12C24 5.37188 18.6281 0 12 0ZM14.6437 14.3438L10.1156 18.8719C9.52969 19.4578 8.57812 19.4578 7.9875 18.8719L5.13281 16.0172C4.54688 15.4313 4.54688 14.4797 5.13281 13.8891L7.29375 11.7281C7.55156 11.4703 7.97344 11.4703 8.23125 11.7281C8.48906 11.9859 8.48906 12.4078 8.23125 12.6656L6.25781 14.6391C6.08437 14.8125 6.08437 15.0938 6.25781 15.2672L8.7375 17.7469C8.91094 17.9203 9.19219 17.9203 9.36563 17.7469L13.5234 13.5891C13.6969 13.4156 13.6969 13.1344 13.5234 12.9609L12.3609 11.7984C12.1031 11.5406 12.1031 11.1187 12.3609 10.8609C12.6188 10.6031 13.0406 10.6031 13.2984 10.8609L14.6484 12.2109C15.2344 12.7969 15.2344 13.7531 14.6484 14.3391L14.6437 14.3438ZM18.8625 10.1109L16.7016 12.2719C16.4437 12.5297 16.0219 12.5297 15.7641 12.2719C15.5062 12.0141 15.5062 11.5969 15.7641 11.3344L17.7375 9.36094C17.9109 9.1875 17.9109 8.90625 17.7375 8.73281L15.2578 6.25312C15.0844 6.07969 14.8031 6.07969 14.6297 6.25312L10.4719 10.4109C10.2984 10.5844 10.2984 10.8656 10.4719 11.0391L11.6344 12.2016C11.8922 12.4594 11.8922 12.8812 11.6344 13.1391C11.3766 13.3969 10.9547 13.3969 10.6969 13.1391L9.34687 11.7891C8.76094 11.2031 8.76094 10.2516 9.34687 9.66094L13.8797 5.12813C14.4656 4.54219 15.4172 4.54219 16.0078 5.12813L18.8625 7.98281C19.4484 8.56875 19.4484 9.52031 18.8625 10.1063V10.1109Z" fill="black" fill-opacity="0.2"/>
<path d="M12 0C5.37188 0 0 5.37188 0 12C0 18.6281 5.37188 24 12 24C18.6281 24 24 18.6281 24 12C24 5.37188 18.6281 0 12 0ZM14.6437 14.3438L10.1156 18.8719C9.52969 19.4578 8.57812 19.4578 7.9875 18.8719L5.13281 16.0172C4.54688 15.4313 4.54688 14.4797 5.13281 13.8891L7.29375 11.7281C7.55156 11.4703 7.97344 11.4703 8.23125 11.7281C8.48906 11.9859 8.48906 12.4078 8.23125 12.6656L6.25781 14.6391C6.08437 14.8125 6.08437 15.0938 6.25781 15.2672L8.7375 17.7469C8.91094 17.9203 9.19219 17.9203 9.36563 17.7469L13.5234 13.5891C13.6969 13.4156 13.6969 13.1344 13.5234 12.9609L12.3609 11.7984C12.1031 11.5406 12.1031 11.1187 12.3609 10.8609C12.6188 10.6031 13.0406 10.6031 13.2984 10.8609L14.6484 12.2109C15.2344 12.7969 15.2344 13.7531 14.6484 14.3391L14.6437 14.3438ZM18.8625 10.1109L16.7016 12.2719C16.4437 12.5297 16.0219 12.5297 15.7641 12.2719C15.5062 12.0141 15.5062 11.5969 15.7641 11.3344L17.7375 9.36094C17.9109 9.1875 17.9109 8.90625 17.7375 8.73281L15.2578 6.25312C15.0844 6.07969 14.8031 6.07969 14.6297 6.25312L10.4719 10.4109C10.2984 10.5844 10.2984 10.8656 10.4719 11.0391L11.6344 12.2016C11.8922 12.4594 11.8922 12.8812 11.6344 13.1391C11.3766 13.3969 10.9547 13.3969 10.6969 13.1391L9.34687 11.7891C8.76094 11.2031 8.76094 10.2516 9.34687 9.66094L13.8797 5.12813C14.4656 4.54219 15.4172 4.54219 16.0078 5.12813L18.8625 7.98281C19.4484 8.56875 19.4484 9.52031 18.8625 10.1063V10.1109Z" fill="black" fill-opacity="0.2"/>
<path d="M12 0C5.37188 0 0 5.37188 0 12C0 18.6281 5.37188 24 12 24C18.6281 24 24 18.6281 24 12C24 5.37188 18.6281 0 12 0ZM14.6437 14.3438L10.1156 18.8719C9.52969 19.4578 8.57812 19.4578 7.9875 18.8719L5.13281 16.0172C4.54688 15.4313 4.54688 14.4797 5.13281 13.8891L7.29375 11.7281C7.55156 11.4703 7.97344 11.4703 8.23125 11.7281C8.48906 11.9859 8.48906 12.4078 8.23125 12.6656L6.25781 14.6391C6.08437 14.8125 6.08437 15.0938 6.25781 15.2672L8.7375 17.7469C8.91094 17.9203 9.19219 17.9203 9.36563 17.7469L13.5234 13.5891C13.6969 13.4156 13.6969 13.1344 13.5234 12.9609L12.3609 11.7984C12.1031 11.5406 12.1031 11.1187 12.3609 10.8609C12.6188 10.6031 13.0406 10.6031 13.2984 10.8609L14.6484 12.2109C15.2344 12.7969 15.2344 13.7531 14.6484 14.3391L14.6437 14.3438ZM18.8625 10.1109L16.7016 12.2719C16.4437 12.5297 16.0219 12.5297 15.7641 12.2719C15.5062 12.0141 15.5062 11.5969 15.7641 11.3344L17.7375 9.36094C17.9109 9.1875 17.9109 8.90625 17.7375 8.73281L15.2578 6.25312C15.0844 6.07969 14.8031 6.07969 14.6297 6.25312L10.4719 10.4109C10.2984 10.5844 10.2984 10.8656 10.4719 11.0391L11.6344 12.2016C11.8922 12.4594 11.8922 12.8812 11.6344 13.1391C11.3766 13.3969 10.9547 13.3969 10.6969 13.1391L9.34687 11.7891C8.76094 11.2031 8.76094 10.2516 9.34687 9.66094L13.8797 5.12813C14.4656 4.54219 15.4172 4.54219 16.0078 5.12813L18.8625 7.98281C19.4484 8.56875 19.4484 9.52031 18.8625 10.1063V10.1109Z" fill="black" fill-opacity="0.2"/>
<path d="M12 0C5.37188 0 0 5.37188 0 12C0 18.6281 5.37188 24 12 24C18.6281 24 24 18.6281 24 12C24 5.37188 18.6281 0 12 0ZM14.6437 14.3438L10.1156 18.8719C9.52969 19.4578 8.57812 19.4578 7.9875 18.8719L5.13281 16.0172C4.54688 15.4313 4.54688 14.4797 5.13281 13.8891L7.29375 11.7281C7.55156 11.4703 7.97344 11.4703 8.23125 11.7281C8.48906 11.9859 8.48906 12.4078 8.23125 12.6656L6.25781 14.6391C6.08437 14.8125 6.08437 15.0938 6.25781 15.2672L8.7375 17.7469C8.91094 17.9203 9.19219 17.9203 9.36563 17.7469L13.5234 13.5891C13.6969 13.4156 13.6969 13.1344 13.5234 12.9609L12.3609 11.7984C12.1031 11.5406 12.1031 11.1187 12.3609 10.8609C12.6188 10.6031 13.0406 10.6031 13.2984 10.8609L14.6484 12.2109C15.2344 12.7969 15.2344 13.7531 14.6484 14.3391L14.6437 14.3438ZM18.8625 10.1109L16.7016 12.2719C16.4437 12.5297 16.0219 12.5297 15.7641 12.2719C15.5062 12.0141 15.5062 11.5969 15.7641 11.3344L17.7375 9.36094C17.9109 9.1875 17.9109 8.90625 17.7375 8.73281L15.2578 6.25312C15.0844 6.07969 14.8031 6.07969 14.6297 6.25312L10.4719 10.4109C10.2984 10.5844 10.2984 10.8656 10.4719 11.0391L11.6344 12.2016C11.8922 12.4594 11.8922 12.8812 11.6344 13.1391C11.3766 13.3969 10.9547 13.3969 10.6969 13.1391L9.34687 11.7891C8.76094 11.2031 8.76094 10.2516 9.34687 9.66094L13.8797 5.12813C14.4656 4.54219 15.4172 4.54219 16.0078 5.12813L18.8625 7.98281C19.4484 8.56875 19.4484 9.52031 18.8625 10.1063V10.1109Z" fill="black" fill-opacity="0.2"/>
<path d="M12 0C5.37188 0 0 5.37188 0 12C0 18.6281 5.37188 24 12 24C18.6281 24 24 18.6281 24 12C24 5.37188 18.6281 0 12 0ZM14.6437 14.3438L10.1156 18.8719C9.52969 19.4578 8.57812 19.4578 7.9875 18.8719L5.13281 16.0172C4.54688 15.4313 4.54688 14.4797 5.13281 13.8891L7.29375 11.7281C7.55156 11.4703 7.97344 11.4703 8.23125 11.7281C8.48906 11.9859 8.48906 12.4078 8.23125 12.6656L6.25781 14.6391C6.08437 14.8125 6.08437 15.0938 6.25781 15.2672L8.7375 17.7469C8.91094 17.9203 9.19219 17.9203 9.36563 17.7469L13.5234 13.5891C13.6969 13.4156 13.6969 13.1344 13.5234 12.9609L12.3609 11.7984C12.1031 11.5406 12.1031 11.1187 12.3609 10.8609C12.6188 10.6031 13.0406 10.6031 13.2984 10.8609L14.6484 12.2109C15.2344 12.7969 15.2344 13.7531 14.6484 14.3391L14.6437 14.3438ZM18.8625 10.1109L16.7016 12.2719C16.4437 12.5297 16.0219 12.5297 15.7641 12.2719C15.5062 12.0141 15.5062 11.5969 15.7641 11.3344L17.7375 9.36094C17.9109 9.1875 17.9109 8.90625 17.7375 8.73281L15.2578 6.25312C15.0844 6.07969 14.8031 6.07969 14.6297 6.25312L10.4719 10.4109C10.2984 10.5844 10.2984 10.8656 10.4719 11.0391L11.6344 12.2016C11.8922 12.4594 11.8922 12.8812 11.6344 13.1391C11.3766 13.3969 10.9547 13.3969 10.6969 13.1391L9.34687 11.7891C8.76094 11.2031 8.76094 10.2516 9.34687 9.66094L13.8797 5.12813C14.4656 4.54219 15.4172 4.54219 16.0078 5.12813L18.8625 7.98281C19.4484 8.56875 19.4484 9.52031 18.8625 10.1063V10.1109Z" fill="black" fill-opacity="0.2"/>
<path d="M12 0C5.37188 0 0 5.37188 0 12C0 18.6281 5.37188 24 12 24C18.6281 24 24 18.6281 24 12C24 5.37188 18.6281 0 12 0ZM14.6437 14.3438L10.1156 18.8719C9.52969 19.4578 8.57812 19.4578 7.9875 18.8719L5.13281 16.0172C4.54688 15.4313 4.54688 14.4797 5.13281 13.8891L7.29375 11.7281C7.55156 11.4703 7.97344 11.4703 8.23125 11.7281C8.48906 11.9859 8.48906 12.4078 8.23125 12.6656L6.25781 14.6391C6.08437 14.8125 6.08437 15.0938 6.25781 15.2672L8.7375 17.7469C8.91094 17.9203 9.19219 17.9203 9.36563 17.7469L13.5234 13.5891C13.6969 13.4156 13.6969 13.1344 13.5234 12.9609L12.3609 11.7984C12.1031 11.5406 12.1031 11.1187 12.3609 10.8609C12.6188 10.6031 13.0406 10.6031 13.2984 10.8609L14.6484 12.2109C15.2344 12.7969 15.2344 13.7531 14.6484 14.3391L14.6437 14.3438ZM18.8625 10.1109L16.7016 12.2719C16.4437 12.5297 16.0219 12.5297 15.7641 12.2719C15.5062 12.0141 15.5062 11.5969 15.7641 11.3344L17.7375 9.36094C17.9109 9.1875 17.9109 8.90625 17.7375 8.73281L15.2578 6.25312C15.0844 6.07969 14.8031 6.07969 14.6297 6.25312L10.4719 10.4109C10.2984 10.5844 10.2984 10.8656 10.4719 11.0391L11.6344 12.2016C11.8922 12.4594 11.8922 12.8812 11.6344 13.1391C11.3766 13.3969 10.9547 13.3969 10.6969 13.1391L9.34687 11.7891C8.76094 11.2031 8.76094 10.2516 9.34687 9.66094L13.8797 5.12813C14.4656 4.54219 15.4172 4.54219 16.0078 5.12813L18.8625 7.98281C19.4484 8.56875 19.4484 9.52031 18.8625 10.1063V10.1109Z" fill="black" fill-opacity="0.2"/>
<path d="M12 0C5.37188 0 0 5.37188 0 12C0 18.6281 5.37188 24 12 24C18.6281 24 24 18.6281 24 12C24 5.37188 18.6281 0 12 0ZM14.6437 14.3438L10.1156 18.8719C9.52969 19.4578 8.57812 19.4578 7.9875 18.8719L5.13281 16.0172C4.54688 15.4313 4.54688 14.4797 5.13281 13.8891L7.29375 11.7281C7.55156 11.4703 7.97344 11.4703 8.23125 11.7281C8.48906 11.9859 8.48906 12.4078 8.23125 12.6656L6.25781 14.6391C6.08437 14.8125 6.08437 15.0938 6.25781 15.2672L8.7375 17.7469C8.91094 17.9203 9.19219 17.9203 9.36563 17.7469L13.5234 13.5891C13.6969 13.4156 13.6969 13.1344 13.5234 12.9609L12.3609 11.7984C12.1031 11.5406 12.1031 11.1187 12.3609 10.8609C12.6188 10.6031 13.0406 10.6031 13.2984 10.8609L14.6484 12.2109C15.2344 12.7969 15.2344 13.7531 14.6484 14.3391L14.6437 14.3438ZM18.8625 10.1109L16.7016 12.2719C16.4437 12.5297 16.0219 12.5297 15.7641 12.2719C15.5062 12.0141 15.5062 11.5969 15.7641 11.3344L17.7375 9.36094C17.9109 9.1875 17.9109 8.90625 17.7375 8.73281L15.2578 6.25312C15.0844 6.07969 14.8031 6.07969 14.6297 6.25312L10.4719 10.4109C10.2984 10.5844 10.2984 10.8656 10.4719 11.0391L11.6344 12.2016C11.8922 12.4594 11.8922 12.8812 11.6344 13.1391C11.3766 13.3969 10.9547 13.3969 10.6969 13.1391L9.34687 11.7891C8.76094 11.2031 8.76094 10.2516 9.34687 9.66094L13.8797 5.12813C14.4656 4.54219 15.4172 4.54219 16.0078 5.12813L18.8625 7.98281C19.4484 8.56875 19.4484 9.52031 18.8625 10.1063V10.1109Z" fill="black" fill-opacity="0.2"/>
</g>
<defs>
<clipPath id="clip0_664_4556">
<rect width="24" height="24" fill="white"/>
</clipPath>
</defs>
</svg>
