<svg width="32" height="32" viewBox="0 0 32 32" fill="none" xmlns="http://www.w3.org/2000/svg">
<path fill-rule="evenodd" clip-rule="evenodd" d="M12.8 9H0V13.3333H12.8V9ZM12.8 17.6667H0V22H12.8V17.6667ZM19.2 9H32V13.3333H19.2V9ZM32 17.6667H19.2V22.0001H32V17.6667Z" fill="black"/>
<path fill-rule="evenodd" clip-rule="evenodd" d="M12.8 9H0V13.3333H12.8V9ZM12.8 17.6667H0V22H12.8V17.6667ZM19.2 9H32V13.3333H19.2V9ZM32 17.6667H19.2V22.0001H32V17.6667Z" fill="black" fill-opacity="0.2"/>
<path fill-rule="evenodd" clip-rule="evenodd" d="M12.8 9H0V13.3333H12.8V9ZM12.8 17.6667H0V22H12.8V17.6667ZM19.2 9H32V13.3333H19.2V9ZM32 17.6667H19.2V22.0001H32V17.6667Z" fill="black" fill-opacity="0.2"/>
<path fill-rule="evenodd" clip-rule="evenodd" d="M12.8 9H0V13.3333H12.8V9ZM12.8 17.6667H0V22H12.8V17.6667ZM19.2 9H32V13.3333H19.2V9ZM32 17.6667H19.2V22.0001H32V17.6667Z" fill="black" fill-opacity="0.2"/>
<path fill-rule="evenodd" clip-rule="evenodd" d="M12.8 9H0V13.3333H12.8V9ZM12.8 17.6667H0V22H12.8V17.6667ZM19.2 9H32V13.3333H19.2V9ZM32 17.6667H19.2V22.0001H32V17.6667Z" fill="black" fill-opacity="0.2"/>
<path fill-rule="evenodd" clip-rule="evenodd" d="M12.8 9H0V13.3333H12.8V9ZM12.8 17.6667H0V22H12.8V17.6667ZM19.2 9H32V13.3333H19.2V9ZM32 17.6667H19.2V22.0001H32V17.6667Z" fill="black" fill-opacity="0.2"/>
<path fill-rule="evenodd" clip-rule="evenodd" d="M12.8 9H0V13.3333H12.8V9ZM12.8 17.6667H0V22H12.8V17.6667ZM19.2 9H32V13.3333H19.2V9ZM32 17.6667H19.2V22.0001H32V17.6667Z" fill="black" fill-opacity="0.2"/>
<path fill-rule="evenodd" clip-rule="evenodd" d="M12.8 9H0V13.3333H12.8V9ZM12.8 17.6667H0V22H12.8V17.6667ZM19.2 9H32V13.3333H19.2V9ZM32 17.6667H19.2V22.0001H32V17.6667Z" fill="black" fill-opacity="0.2"/>
<path fill-rule="evenodd" clip-rule="evenodd" d="M12.8 9H0V13.3333H12.8V9ZM12.8 17.6667H0V22H12.8V17.6667ZM19.2 9H32V13.3333H19.2V9ZM32 17.6667H19.2V22.0001H32V17.6667Z" fill="black" fill-opacity="0.2"/>
<path fill-rule="evenodd" clip-rule="evenodd" d="M12.8 9H0V13.3333H12.8V9ZM12.8 17.6667H0V22H12.8V17.6667ZM19.2 9H32V13.3333H19.2V9ZM32 17.6667H19.2V22.0001H32V17.6667Z" fill="black" fill-opacity="0.2"/>
</svg>
