<svg width="16" height="16" viewBox="0 0 16 16" fill="none" xmlns="http://www.w3.org/2000/svg">
<g clip-path="url(#clip0_664_4275)">
<path d="M6 7.59986L8.07716 10L15 2" stroke="black" stroke-width="1.5" stroke-linecap="round" stroke-linejoin="round"/>
<path d="M6 7.59986L8.07716 10L15 2" stroke="black" stroke-opacity="0.2" stroke-width="1.5" stroke-linecap="round" stroke-linejoin="round"/>
<path d="M6 7.59986L8.07716 10L15 2" stroke="black" stroke-opacity="0.2" stroke-width="1.5" stroke-linecap="round" stroke-linejoin="round"/>
<path d="M6 7.59986L8.07716 10L15 2" stroke="black" stroke-opacity="0.2" stroke-width="1.5" stroke-linecap="round" stroke-linejoin="round"/>
<path d="M6 7.59986L8.07716 10L15 2" stroke="black" stroke-opacity="0.2" stroke-width="1.5" stroke-linecap="round" stroke-linejoin="round"/>
<path d="M6 7.59986L8.07716 10L15 2" stroke="black" stroke-opacity="0.2" stroke-width="1.5" stroke-linecap="round" stroke-linejoin="round"/>
<path d="M6 7.59986L8.07716 10L15 2" stroke="black" stroke-opacity="0.2" stroke-width="1.5" stroke-linecap="round" stroke-linejoin="round"/>
<path d="M6 7.59986L8.07716 10L15 2" stroke="black" stroke-opacity="0.2" stroke-width="1.5" stroke-linecap="round" stroke-linejoin="round"/>
<path d="M6 7.59986L8.07716 10L15 2" stroke="black" stroke-opacity="0.2" stroke-width="1.5" stroke-linecap="round" stroke-linejoin="round"/>
<path d="M6 7.59986L8.07716 10L15 2" stroke="black" stroke-opacity="0.2" stroke-width="1.5" stroke-linecap="round" stroke-linejoin="round"/>
<path d="M14 7.99965V13.4441C14.0002 13.6483 13.9629 13.8506 13.8904 14.0393C13.8179 14.228 13.7116 14.3995 13.5775 14.544C13.4434 14.6884 13.2841 14.8031 13.1088 14.8813C12.9334 14.9596 12.7455 14.9999 12.5557 15H2.4443C2.25449 14.9999 2.06656 14.9596 1.89124 14.8813C1.71592 14.8031 1.55665 14.6884 1.42252 14.544C1.2884 14.3995 1.18205 14.228 1.10955 14.0393C1.03705 13.8506 0.999829 13.6483 1 13.4441V2.55587C0.999829 2.35167 1.03705 2.14944 1.10955 1.96073C1.18205 1.77202 1.2884 1.60052 1.42252 1.45604C1.55665 1.31155 1.71592 1.19691 1.89124 1.11866C2.06656 1.04041 2.25449 1.00009 2.4443 1H10.3893" stroke="black" stroke-width="1.5" stroke-linecap="round" stroke-linejoin="round"/>
<path d="M14 7.99965V13.4441C14.0002 13.6483 13.9629 13.8506 13.8904 14.0393C13.8179 14.228 13.7116 14.3995 13.5775 14.544C13.4434 14.6884 13.2841 14.8031 13.1088 14.8813C12.9334 14.9596 12.7455 14.9999 12.5557 15H2.4443C2.25449 14.9999 2.06656 14.9596 1.89124 14.8813C1.71592 14.8031 1.55665 14.6884 1.42252 14.544C1.2884 14.3995 1.18205 14.228 1.10955 14.0393C1.03705 13.8506 0.999829 13.6483 1 13.4441V2.55587C0.999829 2.35167 1.03705 2.14944 1.10955 1.96073C1.18205 1.77202 1.2884 1.60052 1.42252 1.45604C1.55665 1.31155 1.71592 1.19691 1.89124 1.11866C2.06656 1.04041 2.25449 1.00009 2.4443 1H10.3893" stroke="black" stroke-opacity="0.2" stroke-width="1.5" stroke-linecap="round" stroke-linejoin="round"/>
<path d="M14 7.99965V13.4441C14.0002 13.6483 13.9629 13.8506 13.8904 14.0393C13.8179 14.228 13.7116 14.3995 13.5775 14.544C13.4434 14.6884 13.2841 14.8031 13.1088 14.8813C12.9334 14.9596 12.7455 14.9999 12.5557 15H2.4443C2.25449 14.9999 2.06656 14.9596 1.89124 14.8813C1.71592 14.8031 1.55665 14.6884 1.42252 14.544C1.2884 14.3995 1.18205 14.228 1.10955 14.0393C1.03705 13.8506 0.999829 13.6483 1 13.4441V2.55587C0.999829 2.35167 1.03705 2.14944 1.10955 1.96073C1.18205 1.77202 1.2884 1.60052 1.42252 1.45604C1.55665 1.31155 1.71592 1.19691 1.89124 1.11866C2.06656 1.04041 2.25449 1.00009 2.4443 1H10.3893" stroke="black" stroke-opacity="0.2" stroke-width="1.5" stroke-linecap="round" stroke-linejoin="round"/>
<path d="M14 7.99965V13.4441C14.0002 13.6483 13.9629 13.8506 13.8904 14.0393C13.8179 14.228 13.7116 14.3995 13.5775 14.544C13.4434 14.6884 13.2841 14.8031 13.1088 14.8813C12.9334 14.9596 12.7455 14.9999 12.5557 15H2.4443C2.25449 14.9999 2.06656 14.9596 1.89124 14.8813C1.71592 14.8031 1.55665 14.6884 1.42252 14.544C1.2884 14.3995 1.18205 14.228 1.10955 14.0393C1.03705 13.8506 0.999829 13.6483 1 13.4441V2.55587C0.999829 2.35167 1.03705 2.14944 1.10955 1.96073C1.18205 1.77202 1.2884 1.60052 1.42252 1.45604C1.55665 1.31155 1.71592 1.19691 1.89124 1.11866C2.06656 1.04041 2.25449 1.00009 2.4443 1H10.3893" stroke="black" stroke-opacity="0.2" stroke-width="1.5" stroke-linecap="round" stroke-linejoin="round"/>
<path d="M14 7.99965V13.4441C14.0002 13.6483 13.9629 13.8506 13.8904 14.0393C13.8179 14.228 13.7116 14.3995 13.5775 14.544C13.4434 14.6884 13.2841 14.8031 13.1088 14.8813C12.9334 14.9596 12.7455 14.9999 12.5557 15H2.4443C2.25449 14.9999 2.06656 14.9596 1.89124 14.8813C1.71592 14.8031 1.55665 14.6884 1.42252 14.544C1.2884 14.3995 1.18205 14.228 1.10955 14.0393C1.03705 13.8506 0.999829 13.6483 1 13.4441V2.55587C0.999829 2.35167 1.03705 2.14944 1.10955 1.96073C1.18205 1.77202 1.2884 1.60052 1.42252 1.45604C1.55665 1.31155 1.71592 1.19691 1.89124 1.11866C2.06656 1.04041 2.25449 1.00009 2.4443 1H10.3893" stroke="black" stroke-opacity="0.2" stroke-width="1.5" stroke-linecap="round" stroke-linejoin="round"/>
<path d="M14 7.99965V13.4441C14.0002 13.6483 13.9629 13.8506 13.8904 14.0393C13.8179 14.228 13.7116 14.3995 13.5775 14.544C13.4434 14.6884 13.2841 14.8031 13.1088 14.8813C12.9334 14.9596 12.7455 14.9999 12.5557 15H2.4443C2.25449 14.9999 2.06656 14.9596 1.89124 14.8813C1.71592 14.8031 1.55665 14.6884 1.42252 14.544C1.2884 14.3995 1.18205 14.228 1.10955 14.0393C1.03705 13.8506 0.999829 13.6483 1 13.4441V2.55587C0.999829 2.35167 1.03705 2.14944 1.10955 1.96073C1.18205 1.77202 1.2884 1.60052 1.42252 1.45604C1.55665 1.31155 1.71592 1.19691 1.89124 1.11866C2.06656 1.04041 2.25449 1.00009 2.4443 1H10.3893" stroke="black" stroke-opacity="0.2" stroke-width="1.5" stroke-linecap="round" stroke-linejoin="round"/>
<path d="M14 7.99965V13.4441C14.0002 13.6483 13.9629 13.8506 13.8904 14.0393C13.8179 14.228 13.7116 14.3995 13.5775 14.544C13.4434 14.6884 13.2841 14.8031 13.1088 14.8813C12.9334 14.9596 12.7455 14.9999 12.5557 15H2.4443C2.25449 14.9999 2.06656 14.9596 1.89124 14.8813C1.71592 14.8031 1.55665 14.6884 1.42252 14.544C1.2884 14.3995 1.18205 14.228 1.10955 14.0393C1.03705 13.8506 0.999829 13.6483 1 13.4441V2.55587C0.999829 2.35167 1.03705 2.14944 1.10955 1.96073C1.18205 1.77202 1.2884 1.60052 1.42252 1.45604C1.55665 1.31155 1.71592 1.19691 1.89124 1.11866C2.06656 1.04041 2.25449 1.00009 2.4443 1H10.3893" stroke="black" stroke-opacity="0.2" stroke-width="1.5" stroke-linecap="round" stroke-linejoin="round"/>
<path d="M14 7.99965V13.4441C14.0002 13.6483 13.9629 13.8506 13.8904 14.0393C13.8179 14.228 13.7116 14.3995 13.5775 14.544C13.4434 14.6884 13.2841 14.8031 13.1088 14.8813C12.9334 14.9596 12.7455 14.9999 12.5557 15H2.4443C2.25449 14.9999 2.06656 14.9596 1.89124 14.8813C1.71592 14.8031 1.55665 14.6884 1.42252 14.544C1.2884 14.3995 1.18205 14.228 1.10955 14.0393C1.03705 13.8506 0.999829 13.6483 1 13.4441V2.55587C0.999829 2.35167 1.03705 2.14944 1.10955 1.96073C1.18205 1.77202 1.2884 1.60052 1.42252 1.45604C1.55665 1.31155 1.71592 1.19691 1.89124 1.11866C2.06656 1.04041 2.25449 1.00009 2.4443 1H10.3893" stroke="black" stroke-opacity="0.2" stroke-width="1.5" stroke-linecap="round" stroke-linejoin="round"/>
<path d="M14 7.99965V13.4441C14.0002 13.6483 13.9629 13.8506 13.8904 14.0393C13.8179 14.228 13.7116 14.3995 13.5775 14.544C13.4434 14.6884 13.2841 14.8031 13.1088 14.8813C12.9334 14.9596 12.7455 14.9999 12.5557 15H2.4443C2.25449 14.9999 2.06656 14.9596 1.89124 14.8813C1.71592 14.8031 1.55665 14.6884 1.42252 14.544C1.2884 14.3995 1.18205 14.228 1.10955 14.0393C1.03705 13.8506 0.999829 13.6483 1 13.4441V2.55587C0.999829 2.35167 1.03705 2.14944 1.10955 1.96073C1.18205 1.77202 1.2884 1.60052 1.42252 1.45604C1.55665 1.31155 1.71592 1.19691 1.89124 1.11866C2.06656 1.04041 2.25449 1.00009 2.4443 1H10.3893" stroke="black" stroke-opacity="0.2" stroke-width="1.5" stroke-linecap="round" stroke-linejoin="round"/>
<path d="M14 7.99965V13.4441C14.0002 13.6483 13.9629 13.8506 13.8904 14.0393C13.8179 14.228 13.7116 14.3995 13.5775 14.544C13.4434 14.6884 13.2841 14.8031 13.1088 14.8813C12.9334 14.9596 12.7455 14.9999 12.5557 15H2.4443C2.25449 14.9999 2.06656 14.9596 1.89124 14.8813C1.71592 14.8031 1.55665 14.6884 1.42252 14.544C1.2884 14.3995 1.18205 14.228 1.10955 14.0393C1.03705 13.8506 0.999829 13.6483 1 13.4441V2.55587C0.999829 2.35167 1.03705 2.14944 1.10955 1.96073C1.18205 1.77202 1.2884 1.60052 1.42252 1.45604C1.55665 1.31155 1.71592 1.19691 1.89124 1.11866C2.06656 1.04041 2.25449 1.00009 2.4443 1H10.3893" stroke="black" stroke-opacity="0.2" stroke-width="1.5" stroke-linecap="round" stroke-linejoin="round"/>
</g>
<defs>
<clipPath id="clip0_664_4275">
<rect width="16" height="16" fill="white"/>
</clipPath>
</defs>
</svg>
