<svg width="24" height="24" viewBox="0 0 24 24" fill="none" xmlns="http://www.w3.org/2000/svg">
<g clip-path="url(#clip0_664_4587)">
<path d="M20.2409 12.8128C19.8554 12.8128 19.5662 13.0996 19.5662 13.4821V18.5498C19.5662 19.6016 19.1807 20.6534 18.4096 21.3227C17.6385 22.0877 16.6747 22.4701 15.6144 22.4701H5.39759C4.33735 22.4701 3.27711 22.0877 2.60241 21.3227C1.83132 20.5578 1.44578 19.6016 1.44578 18.5498V5.35459C1.44578 4.30279 1.83132 3.251 2.60241 2.58168C3.37349 1.81674 4.33735 1.43427 5.39759 1.43427H13.5903C13.9759 1.43427 14.265 1.14741 14.265 0.764945C14.265 0.382475 13.9759 0.0956234 13.5903 0.0956234H5.39759C3.9518 0.0956234 2.60241 0.669329 1.54217 1.6255C0.481927 2.6773 0 4.01594 0 5.4502V18.6454C0 20.0797 0.578312 21.4183 1.54217 22.4701C2.60241 23.5219 3.9518 24 5.39759 24H15.6144C17.0602 24 18.4096 23.4263 19.4699 22.4701C20.5301 21.4183 21.012 20.0797 21.012 18.6454V13.5777C21.012 13.1952 20.7229 12.9084 20.3373 12.9084L20.2409 12.8128Z" fill="black"/>
<path d="M20.2409 12.8128C19.8554 12.8128 19.5662 13.0996 19.5662 13.4821V18.5498C19.5662 19.6016 19.1807 20.6534 18.4096 21.3227C17.6385 22.0877 16.6747 22.4701 15.6144 22.4701H5.39759C4.33735 22.4701 3.27711 22.0877 2.60241 21.3227C1.83132 20.5578 1.44578 19.6016 1.44578 18.5498V5.35459C1.44578 4.30279 1.83132 3.251 2.60241 2.58168C3.37349 1.81674 4.33735 1.43427 5.39759 1.43427H13.5903C13.9759 1.43427 14.265 1.14741 14.265 0.764945C14.265 0.382475 13.9759 0.0956234 13.5903 0.0956234H5.39759C3.9518 0.0956234 2.60241 0.669329 1.54217 1.6255C0.481927 2.6773 0 4.01594 0 5.4502V18.6454C0 20.0797 0.578312 21.4183 1.54217 22.4701C2.60241 23.5219 3.9518 24 5.39759 24H15.6144C17.0602 24 18.4096 23.4263 19.4699 22.4701C20.5301 21.4183 21.012 20.0797 21.012 18.6454V13.5777C21.012 13.1952 20.7229 12.9084 20.3373 12.9084L20.2409 12.8128Z" fill="black" fill-opacity="0.2"/>
<path d="M20.2409 12.8128C19.8554 12.8128 19.5662 13.0996 19.5662 13.4821V18.5498C19.5662 19.6016 19.1807 20.6534 18.4096 21.3227C17.6385 22.0877 16.6747 22.4701 15.6144 22.4701H5.39759C4.33735 22.4701 3.27711 22.0877 2.60241 21.3227C1.83132 20.5578 1.44578 19.6016 1.44578 18.5498V5.35459C1.44578 4.30279 1.83132 3.251 2.60241 2.58168C3.37349 1.81674 4.33735 1.43427 5.39759 1.43427H13.5903C13.9759 1.43427 14.265 1.14741 14.265 0.764945C14.265 0.382475 13.9759 0.0956234 13.5903 0.0956234H5.39759C3.9518 0.0956234 2.60241 0.669329 1.54217 1.6255C0.481927 2.6773 0 4.01594 0 5.4502V18.6454C0 20.0797 0.578312 21.4183 1.54217 22.4701C2.60241 23.5219 3.9518 24 5.39759 24H15.6144C17.0602 24 18.4096 23.4263 19.4699 22.4701C20.5301 21.4183 21.012 20.0797 21.012 18.6454V13.5777C21.012 13.1952 20.7229 12.9084 20.3373 12.9084L20.2409 12.8128Z" fill="black" fill-opacity="0.2"/>
<path d="M20.2409 12.8128C19.8554 12.8128 19.5662 13.0996 19.5662 13.4821V18.5498C19.5662 19.6016 19.1807 20.6534 18.4096 21.3227C17.6385 22.0877 16.6747 22.4701 15.6144 22.4701H5.39759C4.33735 22.4701 3.27711 22.0877 2.60241 21.3227C1.83132 20.5578 1.44578 19.6016 1.44578 18.5498V5.35459C1.44578 4.30279 1.83132 3.251 2.60241 2.58168C3.37349 1.81674 4.33735 1.43427 5.39759 1.43427H13.5903C13.9759 1.43427 14.265 1.14741 14.265 0.764945C14.265 0.382475 13.9759 0.0956234 13.5903 0.0956234H5.39759C3.9518 0.0956234 2.60241 0.669329 1.54217 1.6255C0.481927 2.6773 0 4.01594 0 5.4502V18.6454C0 20.0797 0.578312 21.4183 1.54217 22.4701C2.60241 23.5219 3.9518 24 5.39759 24H15.6144C17.0602 24 18.4096 23.4263 19.4699 22.4701C20.5301 21.4183 21.012 20.0797 21.012 18.6454V13.5777C21.012 13.1952 20.7229 12.9084 20.3373 12.9084L20.2409 12.8128Z" fill="black" fill-opacity="0.2"/>
<path d="M20.2409 12.8128C19.8554 12.8128 19.5662 13.0996 19.5662 13.4821V18.5498C19.5662 19.6016 19.1807 20.6534 18.4096 21.3227C17.6385 22.0877 16.6747 22.4701 15.6144 22.4701H5.39759C4.33735 22.4701 3.27711 22.0877 2.60241 21.3227C1.83132 20.5578 1.44578 19.6016 1.44578 18.5498V5.35459C1.44578 4.30279 1.83132 3.251 2.60241 2.58168C3.37349 1.81674 4.33735 1.43427 5.39759 1.43427H13.5903C13.9759 1.43427 14.265 1.14741 14.265 0.764945C14.265 0.382475 13.9759 0.0956234 13.5903 0.0956234H5.39759C3.9518 0.0956234 2.60241 0.669329 1.54217 1.6255C0.481927 2.6773 0 4.01594 0 5.4502V18.6454C0 20.0797 0.578312 21.4183 1.54217 22.4701C2.60241 23.5219 3.9518 24 5.39759 24H15.6144C17.0602 24 18.4096 23.4263 19.4699 22.4701C20.5301 21.4183 21.012 20.0797 21.012 18.6454V13.5777C21.012 13.1952 20.7229 12.9084 20.3373 12.9084L20.2409 12.8128Z" fill="black" fill-opacity="0.2"/>
<path d="M20.2409 12.8128C19.8554 12.8128 19.5662 13.0996 19.5662 13.4821V18.5498C19.5662 19.6016 19.1807 20.6534 18.4096 21.3227C17.6385 22.0877 16.6747 22.4701 15.6144 22.4701H5.39759C4.33735 22.4701 3.27711 22.0877 2.60241 21.3227C1.83132 20.5578 1.44578 19.6016 1.44578 18.5498V5.35459C1.44578 4.30279 1.83132 3.251 2.60241 2.58168C3.37349 1.81674 4.33735 1.43427 5.39759 1.43427H13.5903C13.9759 1.43427 14.265 1.14741 14.265 0.764945C14.265 0.382475 13.9759 0.0956234 13.5903 0.0956234H5.39759C3.9518 0.0956234 2.60241 0.669329 1.54217 1.6255C0.481927 2.6773 0 4.01594 0 5.4502V18.6454C0 20.0797 0.578312 21.4183 1.54217 22.4701C2.60241 23.5219 3.9518 24 5.39759 24H15.6144C17.0602 24 18.4096 23.4263 19.4699 22.4701C20.5301 21.4183 21.012 20.0797 21.012 18.6454V13.5777C21.012 13.1952 20.7229 12.9084 20.3373 12.9084L20.2409 12.8128Z" fill="black" fill-opacity="0.2"/>
<path d="M20.2409 12.8128C19.8554 12.8128 19.5662 13.0996 19.5662 13.4821V18.5498C19.5662 19.6016 19.1807 20.6534 18.4096 21.3227C17.6385 22.0877 16.6747 22.4701 15.6144 22.4701H5.39759C4.33735 22.4701 3.27711 22.0877 2.60241 21.3227C1.83132 20.5578 1.44578 19.6016 1.44578 18.5498V5.35459C1.44578 4.30279 1.83132 3.251 2.60241 2.58168C3.37349 1.81674 4.33735 1.43427 5.39759 1.43427H13.5903C13.9759 1.43427 14.265 1.14741 14.265 0.764945C14.265 0.382475 13.9759 0.0956234 13.5903 0.0956234H5.39759C3.9518 0.0956234 2.60241 0.669329 1.54217 1.6255C0.481927 2.6773 0 4.01594 0 5.4502V18.6454C0 20.0797 0.578312 21.4183 1.54217 22.4701C2.60241 23.5219 3.9518 24 5.39759 24H15.6144C17.0602 24 18.4096 23.4263 19.4699 22.4701C20.5301 21.4183 21.012 20.0797 21.012 18.6454V13.5777C21.012 13.1952 20.7229 12.9084 20.3373 12.9084L20.2409 12.8128Z" fill="black" fill-opacity="0.2"/>
<path d="M20.2409 12.8128C19.8554 12.8128 19.5662 13.0996 19.5662 13.4821V18.5498C19.5662 19.6016 19.1807 20.6534 18.4096 21.3227C17.6385 22.0877 16.6747 22.4701 15.6144 22.4701H5.39759C4.33735 22.4701 3.27711 22.0877 2.60241 21.3227C1.83132 20.5578 1.44578 19.6016 1.44578 18.5498V5.35459C1.44578 4.30279 1.83132 3.251 2.60241 2.58168C3.37349 1.81674 4.33735 1.43427 5.39759 1.43427H13.5903C13.9759 1.43427 14.265 1.14741 14.265 0.764945C14.265 0.382475 13.9759 0.0956234 13.5903 0.0956234H5.39759C3.9518 0.0956234 2.60241 0.669329 1.54217 1.6255C0.481927 2.6773 0 4.01594 0 5.4502V18.6454C0 20.0797 0.578312 21.4183 1.54217 22.4701C2.60241 23.5219 3.9518 24 5.39759 24H15.6144C17.0602 24 18.4096 23.4263 19.4699 22.4701C20.5301 21.4183 21.012 20.0797 21.012 18.6454V13.5777C21.012 13.1952 20.7229 12.9084 20.3373 12.9084L20.2409 12.8128Z" fill="black" fill-opacity="0.2"/>
<path d="M20.2409 12.8128C19.8554 12.8128 19.5662 13.0996 19.5662 13.4821V18.5498C19.5662 19.6016 19.1807 20.6534 18.4096 21.3227C17.6385 22.0877 16.6747 22.4701 15.6144 22.4701H5.39759C4.33735 22.4701 3.27711 22.0877 2.60241 21.3227C1.83132 20.5578 1.44578 19.6016 1.44578 18.5498V5.35459C1.44578 4.30279 1.83132 3.251 2.60241 2.58168C3.37349 1.81674 4.33735 1.43427 5.39759 1.43427H13.5903C13.9759 1.43427 14.265 1.14741 14.265 0.764945C14.265 0.382475 13.9759 0.0956234 13.5903 0.0956234H5.39759C3.9518 0.0956234 2.60241 0.669329 1.54217 1.6255C0.481927 2.6773 0 4.01594 0 5.4502V18.6454C0 20.0797 0.578312 21.4183 1.54217 22.4701C2.60241 23.5219 3.9518 24 5.39759 24H15.6144C17.0602 24 18.4096 23.4263 19.4699 22.4701C20.5301 21.4183 21.012 20.0797 21.012 18.6454V13.5777C21.012 13.1952 20.7229 12.9084 20.3373 12.9084L20.2409 12.8128Z" fill="black" fill-opacity="0.2"/>
<path d="M20.2409 12.8128C19.8554 12.8128 19.5662 13.0996 19.5662 13.4821V18.5498C19.5662 19.6016 19.1807 20.6534 18.4096 21.3227C17.6385 22.0877 16.6747 22.4701 15.6144 22.4701H5.39759C4.33735 22.4701 3.27711 22.0877 2.60241 21.3227C1.83132 20.5578 1.44578 19.6016 1.44578 18.5498V5.35459C1.44578 4.30279 1.83132 3.251 2.60241 2.58168C3.37349 1.81674 4.33735 1.43427 5.39759 1.43427H13.5903C13.9759 1.43427 14.265 1.14741 14.265 0.764945C14.265 0.382475 13.9759 0.0956234 13.5903 0.0956234H5.39759C3.9518 0.0956234 2.60241 0.669329 1.54217 1.6255C0.481927 2.6773 0 4.01594 0 5.4502V18.6454C0 20.0797 0.578312 21.4183 1.54217 22.4701C2.60241 23.5219 3.9518 24 5.39759 24H15.6144C17.0602 24 18.4096 23.4263 19.4699 22.4701C20.5301 21.4183 21.012 20.0797 21.012 18.6454V13.5777C21.012 13.1952 20.7229 12.9084 20.3373 12.9084L20.2409 12.8128Z" fill="black" fill-opacity="0.2"/>
<path d="M21.7831 0.860558C20.6265 -0.286853 18.6024 -0.286853 17.4458 0.860558L5.59037 12.6215C5.49399 12.7171 5.3976 12.9084 5.3976 13.004L4.62652 18.4542C4.62652 18.6454 4.62652 18.9323 4.81929 19.0279C5.01206 19.2191 5.20483 19.2191 5.3976 19.2191L10.8916 18.4542C11.0843 18.4542 11.1807 18.4542 11.2771 18.2629L23.1325 6.50199C23.7108 5.92829 24 5.16335 24 4.39841C24 3.63347 23.7108 2.86853 23.1325 2.29482L21.7831 0.956176V0.860558ZM10.506 17.1155L6.16869 17.6892L6.747 13.3865L15.5181 4.68526L19.2771 8.41434L10.506 17.1155ZM22.1687 5.54582L20.241 7.45817L16.4819 3.72908L18.4096 1.81673C19.0843 1.24303 20.1446 1.14741 20.7229 1.81673L22.0723 3.15538C22.3614 3.44223 22.5542 3.92032 22.5542 4.30279C22.5542 4.68526 22.3614 5.16335 22.0723 5.4502L22.1687 5.54582Z" fill="black"/>
<path d="M21.7831 0.860558C20.6265 -0.286853 18.6024 -0.286853 17.4458 0.860558L5.59037 12.6215C5.49399 12.7171 5.3976 12.9084 5.3976 13.004L4.62652 18.4542C4.62652 18.6454 4.62652 18.9323 4.81929 19.0279C5.01206 19.2191 5.20483 19.2191 5.3976 19.2191L10.8916 18.4542C11.0843 18.4542 11.1807 18.4542 11.2771 18.2629L23.1325 6.50199C23.7108 5.92829 24 5.16335 24 4.39841C24 3.63347 23.7108 2.86853 23.1325 2.29482L21.7831 0.956176V0.860558ZM10.506 17.1155L6.16869 17.6892L6.747 13.3865L15.5181 4.68526L19.2771 8.41434L10.506 17.1155ZM22.1687 5.54582L20.241 7.45817L16.4819 3.72908L18.4096 1.81673C19.0843 1.24303 20.1446 1.14741 20.7229 1.81673L22.0723 3.15538C22.3614 3.44223 22.5542 3.92032 22.5542 4.30279C22.5542 4.68526 22.3614 5.16335 22.0723 5.4502L22.1687 5.54582Z" fill="black" fill-opacity="0.2"/>
<path d="M21.7831 0.860558C20.6265 -0.286853 18.6024 -0.286853 17.4458 0.860558L5.59037 12.6215C5.49399 12.7171 5.3976 12.9084 5.3976 13.004L4.62652 18.4542C4.62652 18.6454 4.62652 18.9323 4.81929 19.0279C5.01206 19.2191 5.20483 19.2191 5.3976 19.2191L10.8916 18.4542C11.0843 18.4542 11.1807 18.4542 11.2771 18.2629L23.1325 6.50199C23.7108 5.92829 24 5.16335 24 4.39841C24 3.63347 23.7108 2.86853 23.1325 2.29482L21.7831 0.956176V0.860558ZM10.506 17.1155L6.16869 17.6892L6.747 13.3865L15.5181 4.68526L19.2771 8.41434L10.506 17.1155ZM22.1687 5.54582L20.241 7.45817L16.4819 3.72908L18.4096 1.81673C19.0843 1.24303 20.1446 1.14741 20.7229 1.81673L22.0723 3.15538C22.3614 3.44223 22.5542 3.92032 22.5542 4.30279C22.5542 4.68526 22.3614 5.16335 22.0723 5.4502L22.1687 5.54582Z" fill="black" fill-opacity="0.2"/>
<path d="M21.7831 0.860558C20.6265 -0.286853 18.6024 -0.286853 17.4458 0.860558L5.59037 12.6215C5.49399 12.7171 5.3976 12.9084 5.3976 13.004L4.62652 18.4542C4.62652 18.6454 4.62652 18.9323 4.81929 19.0279C5.01206 19.2191 5.20483 19.2191 5.3976 19.2191L10.8916 18.4542C11.0843 18.4542 11.1807 18.4542 11.2771 18.2629L23.1325 6.50199C23.7108 5.92829 24 5.16335 24 4.39841C24 3.63347 23.7108 2.86853 23.1325 2.29482L21.7831 0.956176V0.860558ZM10.506 17.1155L6.16869 17.6892L6.747 13.3865L15.5181 4.68526L19.2771 8.41434L10.506 17.1155ZM22.1687 5.54582L20.241 7.45817L16.4819 3.72908L18.4096 1.81673C19.0843 1.24303 20.1446 1.14741 20.7229 1.81673L22.0723 3.15538C22.3614 3.44223 22.5542 3.92032 22.5542 4.30279C22.5542 4.68526 22.3614 5.16335 22.0723 5.4502L22.1687 5.54582Z" fill="black" fill-opacity="0.2"/>
<path d="M21.7831 0.860558C20.6265 -0.286853 18.6024 -0.286853 17.4458 0.860558L5.59037 12.6215C5.49399 12.7171 5.3976 12.9084 5.3976 13.004L4.62652 18.4542C4.62652 18.6454 4.62652 18.9323 4.81929 19.0279C5.01206 19.2191 5.20483 19.2191 5.3976 19.2191L10.8916 18.4542C11.0843 18.4542 11.1807 18.4542 11.2771 18.2629L23.1325 6.50199C23.7108 5.92829 24 5.16335 24 4.39841C24 3.63347 23.7108 2.86853 23.1325 2.29482L21.7831 0.956176V0.860558ZM10.506 17.1155L6.16869 17.6892L6.747 13.3865L15.5181 4.68526L19.2771 8.41434L10.506 17.1155ZM22.1687 5.54582L20.241 7.45817L16.4819 3.72908L18.4096 1.81673C19.0843 1.24303 20.1446 1.14741 20.7229 1.81673L22.0723 3.15538C22.3614 3.44223 22.5542 3.92032 22.5542 4.30279C22.5542 4.68526 22.3614 5.16335 22.0723 5.4502L22.1687 5.54582Z" fill="black" fill-opacity="0.2"/>
<path d="M21.7831 0.860558C20.6265 -0.286853 18.6024 -0.286853 17.4458 0.860558L5.59037 12.6215C5.49399 12.7171 5.3976 12.9084 5.3976 13.004L4.62652 18.4542C4.62652 18.6454 4.62652 18.9323 4.81929 19.0279C5.01206 19.2191 5.20483 19.2191 5.3976 19.2191L10.8916 18.4542C11.0843 18.4542 11.1807 18.4542 11.2771 18.2629L23.1325 6.50199C23.7108 5.92829 24 5.16335 24 4.39841C24 3.63347 23.7108 2.86853 23.1325 2.29482L21.7831 0.956176V0.860558ZM10.506 17.1155L6.16869 17.6892L6.747 13.3865L15.5181 4.68526L19.2771 8.41434L10.506 17.1155ZM22.1687 5.54582L20.241 7.45817L16.4819 3.72908L18.4096 1.81673C19.0843 1.24303 20.1446 1.14741 20.7229 1.81673L22.0723 3.15538C22.3614 3.44223 22.5542 3.92032 22.5542 4.30279C22.5542 4.68526 22.3614 5.16335 22.0723 5.4502L22.1687 5.54582Z" fill="black" fill-opacity="0.2"/>
<path d="M21.7831 0.860558C20.6265 -0.286853 18.6024 -0.286853 17.4458 0.860558L5.59037 12.6215C5.49399 12.7171 5.3976 12.9084 5.3976 13.004L4.62652 18.4542C4.62652 18.6454 4.62652 18.9323 4.81929 19.0279C5.01206 19.2191 5.20483 19.2191 5.3976 19.2191L10.8916 18.4542C11.0843 18.4542 11.1807 18.4542 11.2771 18.2629L23.1325 6.50199C23.7108 5.92829 24 5.16335 24 4.39841C24 3.63347 23.7108 2.86853 23.1325 2.29482L21.7831 0.956176V0.860558ZM10.506 17.1155L6.16869 17.6892L6.747 13.3865L15.5181 4.68526L19.2771 8.41434L10.506 17.1155ZM22.1687 5.54582L20.241 7.45817L16.4819 3.72908L18.4096 1.81673C19.0843 1.24303 20.1446 1.14741 20.7229 1.81673L22.0723 3.15538C22.3614 3.44223 22.5542 3.92032 22.5542 4.30279C22.5542 4.68526 22.3614 5.16335 22.0723 5.4502L22.1687 5.54582Z" fill="black" fill-opacity="0.2"/>
<path d="M21.7831 0.860558C20.6265 -0.286853 18.6024 -0.286853 17.4458 0.860558L5.59037 12.6215C5.49399 12.7171 5.3976 12.9084 5.3976 13.004L4.62652 18.4542C4.62652 18.6454 4.62652 18.9323 4.81929 19.0279C5.01206 19.2191 5.20483 19.2191 5.3976 19.2191L10.8916 18.4542C11.0843 18.4542 11.1807 18.4542 11.2771 18.2629L23.1325 6.50199C23.7108 5.92829 24 5.16335 24 4.39841C24 3.63347 23.7108 2.86853 23.1325 2.29482L21.7831 0.956176V0.860558ZM10.506 17.1155L6.16869 17.6892L6.747 13.3865L15.5181 4.68526L19.2771 8.41434L10.506 17.1155ZM22.1687 5.54582L20.241 7.45817L16.4819 3.72908L18.4096 1.81673C19.0843 1.24303 20.1446 1.14741 20.7229 1.81673L22.0723 3.15538C22.3614 3.44223 22.5542 3.92032 22.5542 4.30279C22.5542 4.68526 22.3614 5.16335 22.0723 5.4502L22.1687 5.54582Z" fill="black" fill-opacity="0.2"/>
<path d="M21.7831 0.860558C20.6265 -0.286853 18.6024 -0.286853 17.4458 0.860558L5.59037 12.6215C5.49399 12.7171 5.3976 12.9084 5.3976 13.004L4.62652 18.4542C4.62652 18.6454 4.62652 18.9323 4.81929 19.0279C5.01206 19.2191 5.20483 19.2191 5.3976 19.2191L10.8916 18.4542C11.0843 18.4542 11.1807 18.4542 11.2771 18.2629L23.1325 6.50199C23.7108 5.92829 24 5.16335 24 4.39841C24 3.63347 23.7108 2.86853 23.1325 2.29482L21.7831 0.956176V0.860558ZM10.506 17.1155L6.16869 17.6892L6.747 13.3865L15.5181 4.68526L19.2771 8.41434L10.506 17.1155ZM22.1687 5.54582L20.241 7.45817L16.4819 3.72908L18.4096 1.81673C19.0843 1.24303 20.1446 1.14741 20.7229 1.81673L22.0723 3.15538C22.3614 3.44223 22.5542 3.92032 22.5542 4.30279C22.5542 4.68526 22.3614 5.16335 22.0723 5.4502L22.1687 5.54582Z" fill="black" fill-opacity="0.2"/>
<path d="M21.7831 0.860558C20.6265 -0.286853 18.6024 -0.286853 17.4458 0.860558L5.59037 12.6215C5.49399 12.7171 5.3976 12.9084 5.3976 13.004L4.62652 18.4542C4.62652 18.6454 4.62652 18.9323 4.81929 19.0279C5.01206 19.2191 5.20483 19.2191 5.3976 19.2191L10.8916 18.4542C11.0843 18.4542 11.1807 18.4542 11.2771 18.2629L23.1325 6.50199C23.7108 5.92829 24 5.16335 24 4.39841C24 3.63347 23.7108 2.86853 23.1325 2.29482L21.7831 0.956176V0.860558ZM10.506 17.1155L6.16869 17.6892L6.747 13.3865L15.5181 4.68526L19.2771 8.41434L10.506 17.1155ZM22.1687 5.54582L20.241 7.45817L16.4819 3.72908L18.4096 1.81673C19.0843 1.24303 20.1446 1.14741 20.7229 1.81673L22.0723 3.15538C22.3614 3.44223 22.5542 3.92032 22.5542 4.30279C22.5542 4.68526 22.3614 5.16335 22.0723 5.4502L22.1687 5.54582Z" fill="black" fill-opacity="0.2"/>
<path d="M14.8434 10.1355L16 8.98806C16.2892 8.7012 16.2892 8.31873 16 8.03188C15.9036 7.93626 15.7108 7.84065 15.5181 7.84065C15.3253 7.84065 15.1325 7.84065 15.0361 8.03188L13.8795 9.17929C13.5904 9.46614 13.5904 9.84862 13.8795 10.1355C14.1687 10.4223 14.5542 10.4223 14.8434 10.1355Z" fill="black"/>
<path d="M14.8434 10.1355L16 8.98806C16.2892 8.7012 16.2892 8.31873 16 8.03188C15.9036 7.93626 15.7108 7.84065 15.5181 7.84065C15.3253 7.84065 15.1325 7.84065 15.0361 8.03188L13.8795 9.17929C13.5904 9.46614 13.5904 9.84862 13.8795 10.1355C14.1687 10.4223 14.5542 10.4223 14.8434 10.1355Z" fill="black" fill-opacity="0.2"/>
<path d="M14.8434 10.1355L16 8.98806C16.2892 8.7012 16.2892 8.31873 16 8.03188C15.9036 7.93626 15.7108 7.84065 15.5181 7.84065C15.3253 7.84065 15.1325 7.84065 15.0361 8.03188L13.8795 9.17929C13.5904 9.46614 13.5904 9.84862 13.8795 10.1355C14.1687 10.4223 14.5542 10.4223 14.8434 10.1355Z" fill="black" fill-opacity="0.2"/>
<path d="M14.8434 10.1355L16 8.98806C16.2892 8.7012 16.2892 8.31873 16 8.03188C15.9036 7.93626 15.7108 7.84065 15.5181 7.84065C15.3253 7.84065 15.1325 7.84065 15.0361 8.03188L13.8795 9.17929C13.5904 9.46614 13.5904 9.84862 13.8795 10.1355C14.1687 10.4223 14.5542 10.4223 14.8434 10.1355Z" fill="black" fill-opacity="0.2"/>
<path d="M14.8434 10.1355L16 8.98806C16.2892 8.7012 16.2892 8.31873 16 8.03188C15.9036 7.93626 15.7108 7.84065 15.5181 7.84065C15.3253 7.84065 15.1325 7.84065 15.0361 8.03188L13.8795 9.17929C13.5904 9.46614 13.5904 9.84862 13.8795 10.1355C14.1687 10.4223 14.5542 10.4223 14.8434 10.1355Z" fill="black" fill-opacity="0.2"/>
<path d="M14.8434 10.1355L16 8.98806C16.2892 8.7012 16.2892 8.31873 16 8.03188C15.9036 7.93626 15.7108 7.84065 15.5181 7.84065C15.3253 7.84065 15.1325 7.84065 15.0361 8.03188L13.8795 9.17929C13.5904 9.46614 13.5904 9.84862 13.8795 10.1355C14.1687 10.4223 14.5542 10.4223 14.8434 10.1355Z" fill="black" fill-opacity="0.2"/>
<path d="M14.8434 10.1355L16 8.98806C16.2892 8.7012 16.2892 8.31873 16 8.03188C15.9036 7.93626 15.7108 7.84065 15.5181 7.84065C15.3253 7.84065 15.1325 7.84065 15.0361 8.03188L13.8795 9.17929C13.5904 9.46614 13.5904 9.84862 13.8795 10.1355C14.1687 10.4223 14.5542 10.4223 14.8434 10.1355Z" fill="black" fill-opacity="0.2"/>
<path d="M14.8434 10.1355L16 8.98806C16.2892 8.7012 16.2892 8.31873 16 8.03188C15.9036 7.93626 15.7108 7.84065 15.5181 7.84065C15.3253 7.84065 15.1325 7.84065 15.0361 8.03188L13.8795 9.17929C13.5904 9.46614 13.5904 9.84862 13.8795 10.1355C14.1687 10.4223 14.5542 10.4223 14.8434 10.1355Z" fill="black" fill-opacity="0.2"/>
<path d="M14.8434 10.1355L16 8.98806C16.2892 8.7012 16.2892 8.31873 16 8.03188C15.9036 7.93626 15.7108 7.84065 15.5181 7.84065C15.3253 7.84065 15.1325 7.84065 15.0361 8.03188L13.8795 9.17929C13.5904 9.46614 13.5904 9.84862 13.8795 10.1355C14.1687 10.4223 14.5542 10.4223 14.8434 10.1355Z" fill="black" fill-opacity="0.2"/>
<path d="M14.8434 10.1355L16 8.98806C16.2892 8.7012 16.2892 8.31873 16 8.03188C15.9036 7.93626 15.7108 7.84065 15.5181 7.84065C15.3253 7.84065 15.1325 7.84065 15.0361 8.03188L13.8795 9.17929C13.5904 9.46614 13.5904 9.84862 13.8795 10.1355C14.1687 10.4223 14.5542 10.4223 14.8434 10.1355Z" fill="black" fill-opacity="0.2"/>
</g>
<defs>
<clipPath id="clip0_664_4587">
<rect width="24" height="24" fill="white"/>
</clipPath>
</defs>
</svg>
