<svg width="32" height="32" viewBox="0 0 32 32" fill="none" xmlns="http://www.w3.org/2000/svg">
<g clip-path="url(#clip0_314_219)">
<path fill-rule="evenodd" clip-rule="evenodd" d="M29.3033 24.8894C31.0616 22.2581 32 19.1646 32 16C31.9994 11.7571 30.3138 7.68821 27.3139 4.68783C24.3139 1.68745 20.2452 0.00126211 16.0024 0C12.8378 -0.000471589 9.74411 0.937509 7.11261 2.69533C4.48112 4.45314 2.42998 6.95184 1.21862 9.87541C0.00724983 12.799 -0.30994 16.0161 0.307152 19.12C0.924246 22.2238 2.44791 25.075 4.68545 27.3129C6.923 29.5507 9.77392 31.0748 12.8777 31.6924C15.9814 32.3099 19.1986 31.9932 22.1224 30.7823C25.0461 29.5714 27.5451 27.5206 29.3033 24.8894ZM7.72201 15.9439L20.1323 4.88033L22.1286 7.11967L12.278 15.9014L22.1075 24.3402L20.1533 26.6164L7.72201 15.9439Z" fill="black"/>
<path fill-rule="evenodd" clip-rule="evenodd" d="M29.3033 24.8894C31.0616 22.2581 32 19.1646 32 16C31.9994 11.7571 30.3138 7.68821 27.3139 4.68783C24.3139 1.68745 20.2452 0.00126211 16.0024 0C12.8378 -0.000471589 9.74411 0.937509 7.11261 2.69533C4.48112 4.45314 2.42998 6.95184 1.21862 9.87541C0.00724983 12.799 -0.30994 16.0161 0.307152 19.12C0.924246 22.2238 2.44791 25.075 4.68545 27.3129C6.923 29.5507 9.77392 31.0748 12.8777 31.6924C15.9814 32.3099 19.1986 31.9932 22.1224 30.7823C25.0461 29.5714 27.5451 27.5206 29.3033 24.8894ZM7.72201 15.9439L20.1323 4.88033L22.1286 7.11967L12.278 15.9014L22.1075 24.3402L20.1533 26.6164L7.72201 15.9439Z" fill="black" fill-opacity="0.2"/>
<path fill-rule="evenodd" clip-rule="evenodd" d="M29.3033 24.8894C31.0616 22.2581 32 19.1646 32 16C31.9994 11.7571 30.3138 7.68821 27.3139 4.68783C24.3139 1.68745 20.2452 0.00126211 16.0024 0C12.8378 -0.000471589 9.74411 0.937509 7.11261 2.69533C4.48112 4.45314 2.42998 6.95184 1.21862 9.87541C0.00724983 12.799 -0.30994 16.0161 0.307152 19.12C0.924246 22.2238 2.44791 25.075 4.68545 27.3129C6.923 29.5507 9.77392 31.0748 12.8777 31.6924C15.9814 32.3099 19.1986 31.9932 22.1224 30.7823C25.0461 29.5714 27.5451 27.5206 29.3033 24.8894ZM7.72201 15.9439L20.1323 4.88033L22.1286 7.11967L12.278 15.9014L22.1075 24.3402L20.1533 26.6164L7.72201 15.9439Z" fill="black" fill-opacity="0.2"/>
<path fill-rule="evenodd" clip-rule="evenodd" d="M29.3033 24.8894C31.0616 22.2581 32 19.1646 32 16C31.9994 11.7571 30.3138 7.68821 27.3139 4.68783C24.3139 1.68745 20.2452 0.00126211 16.0024 0C12.8378 -0.000471589 9.74411 0.937509 7.11261 2.69533C4.48112 4.45314 2.42998 6.95184 1.21862 9.87541C0.00724983 12.799 -0.30994 16.0161 0.307152 19.12C0.924246 22.2238 2.44791 25.075 4.68545 27.3129C6.923 29.5507 9.77392 31.0748 12.8777 31.6924C15.9814 32.3099 19.1986 31.9932 22.1224 30.7823C25.0461 29.5714 27.5451 27.5206 29.3033 24.8894ZM7.72201 15.9439L20.1323 4.88033L22.1286 7.11967L12.278 15.9014L22.1075 24.3402L20.1533 26.6164L7.72201 15.9439Z" fill="black" fill-opacity="0.2"/>
<path fill-rule="evenodd" clip-rule="evenodd" d="M29.3033 24.8894C31.0616 22.2581 32 19.1646 32 16C31.9994 11.7571 30.3138 7.68821 27.3139 4.68783C24.3139 1.68745 20.2452 0.00126211 16.0024 0C12.8378 -0.000471589 9.74411 0.937509 7.11261 2.69533C4.48112 4.45314 2.42998 6.95184 1.21862 9.87541C0.00724983 12.799 -0.30994 16.0161 0.307152 19.12C0.924246 22.2238 2.44791 25.075 4.68545 27.3129C6.923 29.5507 9.77392 31.0748 12.8777 31.6924C15.9814 32.3099 19.1986 31.9932 22.1224 30.7823C25.0461 29.5714 27.5451 27.5206 29.3033 24.8894ZM7.72201 15.9439L20.1323 4.88033L22.1286 7.11967L12.278 15.9014L22.1075 24.3402L20.1533 26.6164L7.72201 15.9439Z" fill="black" fill-opacity="0.2"/>
<path fill-rule="evenodd" clip-rule="evenodd" d="M29.3033 24.8894C31.0616 22.2581 32 19.1646 32 16C31.9994 11.7571 30.3138 7.68821 27.3139 4.68783C24.3139 1.68745 20.2452 0.00126211 16.0024 0C12.8378 -0.000471589 9.74411 0.937509 7.11261 2.69533C4.48112 4.45314 2.42998 6.95184 1.21862 9.87541C0.00724983 12.799 -0.30994 16.0161 0.307152 19.12C0.924246 22.2238 2.44791 25.075 4.68545 27.3129C6.923 29.5507 9.77392 31.0748 12.8777 31.6924C15.9814 32.3099 19.1986 31.9932 22.1224 30.7823C25.0461 29.5714 27.5451 27.5206 29.3033 24.8894ZM7.72201 15.9439L20.1323 4.88033L22.1286 7.11967L12.278 15.9014L22.1075 24.3402L20.1533 26.6164L7.72201 15.9439Z" fill="black" fill-opacity="0.2"/>
<path fill-rule="evenodd" clip-rule="evenodd" d="M29.3033 24.8894C31.0616 22.2581 32 19.1646 32 16C31.9994 11.7571 30.3138 7.68821 27.3139 4.68783C24.3139 1.68745 20.2452 0.00126211 16.0024 0C12.8378 -0.000471589 9.74411 0.937509 7.11261 2.69533C4.48112 4.45314 2.42998 6.95184 1.21862 9.87541C0.00724983 12.799 -0.30994 16.0161 0.307152 19.12C0.924246 22.2238 2.44791 25.075 4.68545 27.3129C6.923 29.5507 9.77392 31.0748 12.8777 31.6924C15.9814 32.3099 19.1986 31.9932 22.1224 30.7823C25.0461 29.5714 27.5451 27.5206 29.3033 24.8894ZM7.72201 15.9439L20.1323 4.88033L22.1286 7.11967L12.278 15.9014L22.1075 24.3402L20.1533 26.6164L7.72201 15.9439Z" fill="black" fill-opacity="0.2"/>
<path fill-rule="evenodd" clip-rule="evenodd" d="M29.3033 24.8894C31.0616 22.2581 32 19.1646 32 16C31.9994 11.7571 30.3138 7.68821 27.3139 4.68783C24.3139 1.68745 20.2452 0.00126211 16.0024 0C12.8378 -0.000471589 9.74411 0.937509 7.11261 2.69533C4.48112 4.45314 2.42998 6.95184 1.21862 9.87541C0.00724983 12.799 -0.30994 16.0161 0.307152 19.12C0.924246 22.2238 2.44791 25.075 4.68545 27.3129C6.923 29.5507 9.77392 31.0748 12.8777 31.6924C15.9814 32.3099 19.1986 31.9932 22.1224 30.7823C25.0461 29.5714 27.5451 27.5206 29.3033 24.8894ZM7.72201 15.9439L20.1323 4.88033L22.1286 7.11967L12.278 15.9014L22.1075 24.3402L20.1533 26.6164L7.72201 15.9439Z" fill="black" fill-opacity="0.2"/>
<path fill-rule="evenodd" clip-rule="evenodd" d="M29.3033 24.8894C31.0616 22.2581 32 19.1646 32 16C31.9994 11.7571 30.3138 7.68821 27.3139 4.68783C24.3139 1.68745 20.2452 0.00126211 16.0024 0C12.8378 -0.000471589 9.74411 0.937509 7.11261 2.69533C4.48112 4.45314 2.42998 6.95184 1.21862 9.87541C0.00724983 12.799 -0.30994 16.0161 0.307152 19.12C0.924246 22.2238 2.44791 25.075 4.68545 27.3129C6.923 29.5507 9.77392 31.0748 12.8777 31.6924C15.9814 32.3099 19.1986 31.9932 22.1224 30.7823C25.0461 29.5714 27.5451 27.5206 29.3033 24.8894ZM7.72201 15.9439L20.1323 4.88033L22.1286 7.11967L12.278 15.9014L22.1075 24.3402L20.1533 26.6164L7.72201 15.9439Z" fill="black" fill-opacity="0.2"/>
<path fill-rule="evenodd" clip-rule="evenodd" d="M29.3033 24.8894C31.0616 22.2581 32 19.1646 32 16C31.9994 11.7571 30.3138 7.68821 27.3139 4.68783C24.3139 1.68745 20.2452 0.00126211 16.0024 0C12.8378 -0.000471589 9.74411 0.937509 7.11261 2.69533C4.48112 4.45314 2.42998 6.95184 1.21862 9.87541C0.00724983 12.799 -0.30994 16.0161 0.307152 19.12C0.924246 22.2238 2.44791 25.075 4.68545 27.3129C6.923 29.5507 9.77392 31.0748 12.8777 31.6924C15.9814 32.3099 19.1986 31.9932 22.1224 30.7823C25.0461 29.5714 27.5451 27.5206 29.3033 24.8894ZM7.72201 15.9439L20.1323 4.88033L22.1286 7.11967L12.278 15.9014L22.1075 24.3402L20.1533 26.6164L7.72201 15.9439Z" fill="black" fill-opacity="0.2"/>
</g>
<defs>
<clipPath id="clip0_314_219">
<rect width="32" height="32" fill="white" transform="matrix(-1 0 0 1 32 0)"/>
</clipPath>
</defs>
</svg>
