<svg width="24" height="24" viewBox="0 0 24 24" fill="none" xmlns="http://www.w3.org/2000/svg">
<g clip-path="url(#clip0_365_1067)">
<path fill-rule="evenodd" clip-rule="evenodd" d="M15.1989 2.85611C14.8764 2.29221 14.4105 1.82356 13.8486 1.49761C13.2866 1.17167 12.6485 1 11.9989 1C11.3493 1 10.7112 1.17167 10.1492 1.49761C9.58729 1.82356 9.12145 2.29221 8.7989 2.85611L0.483474 17.4132C0.164103 17.9736 -0.00259757 18.608 3.06019e-05 19.253C0.00265878 19.898 0.174524 20.531 0.498451 21.0887C0.822378 21.6465 1.28702 22.1095 1.84594 22.4314C2.40486 22.7533 3.03848 22.9229 3.68348 22.9232H20.3143C20.9599 22.9233 21.5941 22.7538 22.1536 22.4317C22.713 22.1095 23.1781 21.6461 23.5021 21.0878C23.8261 20.5294 23.9978 19.8958 24 19.2502C24.0021 18.6047 23.8347 17.9699 23.5143 17.4094L15.1989 2.85611ZM22.1774 20.3182C21.9882 20.6444 21.7166 20.9152 21.3899 21.1034C21.0631 21.2917 20.6927 21.3908 20.3156 21.3909H3.68348C3.30627 21.391 2.93565 21.292 2.60874 21.1038C2.28184 20.9155 2.01012 20.6447 1.8208 20.3185C1.63148 19.9922 1.53121 19.6219 1.53002 19.2447C1.52884 18.8675 1.62678 18.4966 1.81404 18.1692L10.1295 3.61206C10.3177 3.28244 10.5898 3.00846 10.9181 2.8179C11.2464 2.62734 11.6193 2.52697 11.9989 2.52697C12.3785 2.52697 12.7514 2.62734 13.0797 2.8179C13.408 3.00846 13.6801 3.28244 13.8683 3.61206L22.1838 18.1692C22.371 18.4966 22.469 18.8674 22.4679 19.2446C22.4668 19.6217 22.3666 19.992 22.1774 20.3182ZM11.9988 19.0845C12.7322 19.0845 13.3268 18.4899 13.3268 17.7565C13.3268 17.023 12.7322 16.4285 11.9988 16.4285C11.2653 16.4285 10.6707 17.023 10.6707 17.7565C10.6707 18.4899 11.2653 19.0845 11.9988 19.0845ZM12.2921 15.5652C12.1991 15.6037 12.0995 15.6235 11.9989 15.6235C11.8982 15.6235 11.7986 15.6037 11.7057 15.5652C11.6127 15.5267 11.5282 15.4703 11.4571 15.3991C11.386 15.328 11.3295 15.2435 11.291 15.1506C11.2525 15.0576 11.2327 14.958 11.2327 14.8574V7.5584C11.2327 7.3552 11.3134 7.16032 11.4571 7.01664C11.6008 6.87296 11.7957 6.79224 11.9989 6.79224C12.2021 6.79224 12.3969 6.87296 12.5406 7.01664C12.6843 7.16032 12.765 7.3552 12.765 7.5584V14.8574C12.765 14.958 12.7452 15.0576 12.7067 15.1506C12.6682 15.2435 12.6118 15.328 12.5406 15.3991C12.4695 15.4703 12.385 15.5267 12.2921 15.5652Z" fill="#333333"/>
<path fill-rule="evenodd" clip-rule="evenodd" d="M15.1989 2.85611C14.8764 2.29221 14.4105 1.82356 13.8486 1.49761C13.2866 1.17167 12.6485 1 11.9989 1C11.3493 1 10.7112 1.17167 10.1492 1.49761C9.58729 1.82356 9.12145 2.29221 8.7989 2.85611L0.483474 17.4132C0.164103 17.9736 -0.00259757 18.608 3.06019e-05 19.253C0.00265878 19.898 0.174524 20.531 0.498451 21.0887C0.822378 21.6465 1.28702 22.1095 1.84594 22.4314C2.40486 22.7533 3.03848 22.9229 3.68348 22.9232H20.3143C20.9599 22.9233 21.5941 22.7538 22.1536 22.4317C22.713 22.1095 23.1781 21.6461 23.5021 21.0878C23.8261 20.5294 23.9978 19.8958 24 19.2502C24.0021 18.6047 23.8347 17.9699 23.5143 17.4094L15.1989 2.85611ZM22.1774 20.3182C21.9882 20.6444 21.7166 20.9152 21.3899 21.1034C21.0631 21.2917 20.6927 21.3908 20.3156 21.3909H3.68348C3.30627 21.391 2.93565 21.292 2.60874 21.1038C2.28184 20.9155 2.01012 20.6447 1.8208 20.3185C1.63148 19.9922 1.53121 19.6219 1.53002 19.2447C1.52884 18.8675 1.62678 18.4966 1.81404 18.1692L10.1295 3.61206C10.3177 3.28244 10.5898 3.00846 10.9181 2.8179C11.2464 2.62734 11.6193 2.52697 11.9989 2.52697C12.3785 2.52697 12.7514 2.62734 13.0797 2.8179C13.408 3.00846 13.6801 3.28244 13.8683 3.61206L22.1838 18.1692C22.371 18.4966 22.469 18.8674 22.4679 19.2446C22.4668 19.6217 22.3666 19.992 22.1774 20.3182ZM11.9988 19.0845C12.7322 19.0845 13.3268 18.4899 13.3268 17.7565C13.3268 17.023 12.7322 16.4285 11.9988 16.4285C11.2653 16.4285 10.6707 17.023 10.6707 17.7565C10.6707 18.4899 11.2653 19.0845 11.9988 19.0845ZM12.2921 15.5652C12.1991 15.6037 12.0995 15.6235 11.9989 15.6235C11.8982 15.6235 11.7986 15.6037 11.7057 15.5652C11.6127 15.5267 11.5282 15.4703 11.4571 15.3991C11.386 15.328 11.3295 15.2435 11.291 15.1506C11.2525 15.0576 11.2327 14.958 11.2327 14.8574V7.5584C11.2327 7.3552 11.3134 7.16032 11.4571 7.01664C11.6008 6.87296 11.7957 6.79224 11.9989 6.79224C12.2021 6.79224 12.3969 6.87296 12.5406 7.01664C12.6843 7.16032 12.765 7.3552 12.765 7.5584V14.8574C12.765 14.958 12.7452 15.0576 12.7067 15.1506C12.6682 15.2435 12.6118 15.328 12.5406 15.3991C12.4695 15.4703 12.385 15.5267 12.2921 15.5652Z" fill="black" fill-opacity="0.2"/>
<path fill-rule="evenodd" clip-rule="evenodd" d="M15.1989 2.85611C14.8764 2.29221 14.4105 1.82356 13.8486 1.49761C13.2866 1.17167 12.6485 1 11.9989 1C11.3493 1 10.7112 1.17167 10.1492 1.49761C9.58729 1.82356 9.12145 2.29221 8.7989 2.85611L0.483474 17.4132C0.164103 17.9736 -0.00259757 18.608 3.06019e-05 19.253C0.00265878 19.898 0.174524 20.531 0.498451 21.0887C0.822378 21.6465 1.28702 22.1095 1.84594 22.4314C2.40486 22.7533 3.03848 22.9229 3.68348 22.9232H20.3143C20.9599 22.9233 21.5941 22.7538 22.1536 22.4317C22.713 22.1095 23.1781 21.6461 23.5021 21.0878C23.8261 20.5294 23.9978 19.8958 24 19.2502C24.0021 18.6047 23.8347 17.9699 23.5143 17.4094L15.1989 2.85611ZM22.1774 20.3182C21.9882 20.6444 21.7166 20.9152 21.3899 21.1034C21.0631 21.2917 20.6927 21.3908 20.3156 21.3909H3.68348C3.30627 21.391 2.93565 21.292 2.60874 21.1038C2.28184 20.9155 2.01012 20.6447 1.8208 20.3185C1.63148 19.9922 1.53121 19.6219 1.53002 19.2447C1.52884 18.8675 1.62678 18.4966 1.81404 18.1692L10.1295 3.61206C10.3177 3.28244 10.5898 3.00846 10.9181 2.8179C11.2464 2.62734 11.6193 2.52697 11.9989 2.52697C12.3785 2.52697 12.7514 2.62734 13.0797 2.8179C13.408 3.00846 13.6801 3.28244 13.8683 3.61206L22.1838 18.1692C22.371 18.4966 22.469 18.8674 22.4679 19.2446C22.4668 19.6217 22.3666 19.992 22.1774 20.3182ZM11.9988 19.0845C12.7322 19.0845 13.3268 18.4899 13.3268 17.7565C13.3268 17.023 12.7322 16.4285 11.9988 16.4285C11.2653 16.4285 10.6707 17.023 10.6707 17.7565C10.6707 18.4899 11.2653 19.0845 11.9988 19.0845ZM12.2921 15.5652C12.1991 15.6037 12.0995 15.6235 11.9989 15.6235C11.8982 15.6235 11.7986 15.6037 11.7057 15.5652C11.6127 15.5267 11.5282 15.4703 11.4571 15.3991C11.386 15.328 11.3295 15.2435 11.291 15.1506C11.2525 15.0576 11.2327 14.958 11.2327 14.8574V7.5584C11.2327 7.3552 11.3134 7.16032 11.4571 7.01664C11.6008 6.87296 11.7957 6.79224 11.9989 6.79224C12.2021 6.79224 12.3969 6.87296 12.5406 7.01664C12.6843 7.16032 12.765 7.3552 12.765 7.5584V14.8574C12.765 14.958 12.7452 15.0576 12.7067 15.1506C12.6682 15.2435 12.6118 15.328 12.5406 15.3991C12.4695 15.4703 12.385 15.5267 12.2921 15.5652Z" fill="black" fill-opacity="0.2"/>
<path fill-rule="evenodd" clip-rule="evenodd" d="M15.1989 2.85611C14.8764 2.29221 14.4105 1.82356 13.8486 1.49761C13.2866 1.17167 12.6485 1 11.9989 1C11.3493 1 10.7112 1.17167 10.1492 1.49761C9.58729 1.82356 9.12145 2.29221 8.7989 2.85611L0.483474 17.4132C0.164103 17.9736 -0.00259757 18.608 3.06019e-05 19.253C0.00265878 19.898 0.174524 20.531 0.498451 21.0887C0.822378 21.6465 1.28702 22.1095 1.84594 22.4314C2.40486 22.7533 3.03848 22.9229 3.68348 22.9232H20.3143C20.9599 22.9233 21.5941 22.7538 22.1536 22.4317C22.713 22.1095 23.1781 21.6461 23.5021 21.0878C23.8261 20.5294 23.9978 19.8958 24 19.2502C24.0021 18.6047 23.8347 17.9699 23.5143 17.4094L15.1989 2.85611ZM22.1774 20.3182C21.9882 20.6444 21.7166 20.9152 21.3899 21.1034C21.0631 21.2917 20.6927 21.3908 20.3156 21.3909H3.68348C3.30627 21.391 2.93565 21.292 2.60874 21.1038C2.28184 20.9155 2.01012 20.6447 1.8208 20.3185C1.63148 19.9922 1.53121 19.6219 1.53002 19.2447C1.52884 18.8675 1.62678 18.4966 1.81404 18.1692L10.1295 3.61206C10.3177 3.28244 10.5898 3.00846 10.9181 2.8179C11.2464 2.62734 11.6193 2.52697 11.9989 2.52697C12.3785 2.52697 12.7514 2.62734 13.0797 2.8179C13.408 3.00846 13.6801 3.28244 13.8683 3.61206L22.1838 18.1692C22.371 18.4966 22.469 18.8674 22.4679 19.2446C22.4668 19.6217 22.3666 19.992 22.1774 20.3182ZM11.9988 19.0845C12.7322 19.0845 13.3268 18.4899 13.3268 17.7565C13.3268 17.023 12.7322 16.4285 11.9988 16.4285C11.2653 16.4285 10.6707 17.023 10.6707 17.7565C10.6707 18.4899 11.2653 19.0845 11.9988 19.0845ZM12.2921 15.5652C12.1991 15.6037 12.0995 15.6235 11.9989 15.6235C11.8982 15.6235 11.7986 15.6037 11.7057 15.5652C11.6127 15.5267 11.5282 15.4703 11.4571 15.3991C11.386 15.328 11.3295 15.2435 11.291 15.1506C11.2525 15.0576 11.2327 14.958 11.2327 14.8574V7.5584C11.2327 7.3552 11.3134 7.16032 11.4571 7.01664C11.6008 6.87296 11.7957 6.79224 11.9989 6.79224C12.2021 6.79224 12.3969 6.87296 12.5406 7.01664C12.6843 7.16032 12.765 7.3552 12.765 7.5584V14.8574C12.765 14.958 12.7452 15.0576 12.7067 15.1506C12.6682 15.2435 12.6118 15.328 12.5406 15.3991C12.4695 15.4703 12.385 15.5267 12.2921 15.5652Z" fill="black" fill-opacity="0.2"/>
<path fill-rule="evenodd" clip-rule="evenodd" d="M15.1989 2.85611C14.8764 2.29221 14.4105 1.82356 13.8486 1.49761C13.2866 1.17167 12.6485 1 11.9989 1C11.3493 1 10.7112 1.17167 10.1492 1.49761C9.58729 1.82356 9.12145 2.29221 8.7989 2.85611L0.483474 17.4132C0.164103 17.9736 -0.00259757 18.608 3.06019e-05 19.253C0.00265878 19.898 0.174524 20.531 0.498451 21.0887C0.822378 21.6465 1.28702 22.1095 1.84594 22.4314C2.40486 22.7533 3.03848 22.9229 3.68348 22.9232H20.3143C20.9599 22.9233 21.5941 22.7538 22.1536 22.4317C22.713 22.1095 23.1781 21.6461 23.5021 21.0878C23.8261 20.5294 23.9978 19.8958 24 19.2502C24.0021 18.6047 23.8347 17.9699 23.5143 17.4094L15.1989 2.85611ZM22.1774 20.3182C21.9882 20.6444 21.7166 20.9152 21.3899 21.1034C21.0631 21.2917 20.6927 21.3908 20.3156 21.3909H3.68348C3.30627 21.391 2.93565 21.292 2.60874 21.1038C2.28184 20.9155 2.01012 20.6447 1.8208 20.3185C1.63148 19.9922 1.53121 19.6219 1.53002 19.2447C1.52884 18.8675 1.62678 18.4966 1.81404 18.1692L10.1295 3.61206C10.3177 3.28244 10.5898 3.00846 10.9181 2.8179C11.2464 2.62734 11.6193 2.52697 11.9989 2.52697C12.3785 2.52697 12.7514 2.62734 13.0797 2.8179C13.408 3.00846 13.6801 3.28244 13.8683 3.61206L22.1838 18.1692C22.371 18.4966 22.469 18.8674 22.4679 19.2446C22.4668 19.6217 22.3666 19.992 22.1774 20.3182ZM11.9988 19.0845C12.7322 19.0845 13.3268 18.4899 13.3268 17.7565C13.3268 17.023 12.7322 16.4285 11.9988 16.4285C11.2653 16.4285 10.6707 17.023 10.6707 17.7565C10.6707 18.4899 11.2653 19.0845 11.9988 19.0845ZM12.2921 15.5652C12.1991 15.6037 12.0995 15.6235 11.9989 15.6235C11.8982 15.6235 11.7986 15.6037 11.7057 15.5652C11.6127 15.5267 11.5282 15.4703 11.4571 15.3991C11.386 15.328 11.3295 15.2435 11.291 15.1506C11.2525 15.0576 11.2327 14.958 11.2327 14.8574V7.5584C11.2327 7.3552 11.3134 7.16032 11.4571 7.01664C11.6008 6.87296 11.7957 6.79224 11.9989 6.79224C12.2021 6.79224 12.3969 6.87296 12.5406 7.01664C12.6843 7.16032 12.765 7.3552 12.765 7.5584V14.8574C12.765 14.958 12.7452 15.0576 12.7067 15.1506C12.6682 15.2435 12.6118 15.328 12.5406 15.3991C12.4695 15.4703 12.385 15.5267 12.2921 15.5652Z" fill="black" fill-opacity="0.2"/>
<path fill-rule="evenodd" clip-rule="evenodd" d="M15.1989 2.85611C14.8764 2.29221 14.4105 1.82356 13.8486 1.49761C13.2866 1.17167 12.6485 1 11.9989 1C11.3493 1 10.7112 1.17167 10.1492 1.49761C9.58729 1.82356 9.12145 2.29221 8.7989 2.85611L0.483474 17.4132C0.164103 17.9736 -0.00259757 18.608 3.06019e-05 19.253C0.00265878 19.898 0.174524 20.531 0.498451 21.0887C0.822378 21.6465 1.28702 22.1095 1.84594 22.4314C2.40486 22.7533 3.03848 22.9229 3.68348 22.9232H20.3143C20.9599 22.9233 21.5941 22.7538 22.1536 22.4317C22.713 22.1095 23.1781 21.6461 23.5021 21.0878C23.8261 20.5294 23.9978 19.8958 24 19.2502C24.0021 18.6047 23.8347 17.9699 23.5143 17.4094L15.1989 2.85611ZM22.1774 20.3182C21.9882 20.6444 21.7166 20.9152 21.3899 21.1034C21.0631 21.2917 20.6927 21.3908 20.3156 21.3909H3.68348C3.30627 21.391 2.93565 21.292 2.60874 21.1038C2.28184 20.9155 2.01012 20.6447 1.8208 20.3185C1.63148 19.9922 1.53121 19.6219 1.53002 19.2447C1.52884 18.8675 1.62678 18.4966 1.81404 18.1692L10.1295 3.61206C10.3177 3.28244 10.5898 3.00846 10.9181 2.8179C11.2464 2.62734 11.6193 2.52697 11.9989 2.52697C12.3785 2.52697 12.7514 2.62734 13.0797 2.8179C13.408 3.00846 13.6801 3.28244 13.8683 3.61206L22.1838 18.1692C22.371 18.4966 22.469 18.8674 22.4679 19.2446C22.4668 19.6217 22.3666 19.992 22.1774 20.3182ZM11.9988 19.0845C12.7322 19.0845 13.3268 18.4899 13.3268 17.7565C13.3268 17.023 12.7322 16.4285 11.9988 16.4285C11.2653 16.4285 10.6707 17.023 10.6707 17.7565C10.6707 18.4899 11.2653 19.0845 11.9988 19.0845ZM12.2921 15.5652C12.1991 15.6037 12.0995 15.6235 11.9989 15.6235C11.8982 15.6235 11.7986 15.6037 11.7057 15.5652C11.6127 15.5267 11.5282 15.4703 11.4571 15.3991C11.386 15.328 11.3295 15.2435 11.291 15.1506C11.2525 15.0576 11.2327 14.958 11.2327 14.8574V7.5584C11.2327 7.3552 11.3134 7.16032 11.4571 7.01664C11.6008 6.87296 11.7957 6.79224 11.9989 6.79224C12.2021 6.79224 12.3969 6.87296 12.5406 7.01664C12.6843 7.16032 12.765 7.3552 12.765 7.5584V14.8574C12.765 14.958 12.7452 15.0576 12.7067 15.1506C12.6682 15.2435 12.6118 15.328 12.5406 15.3991C12.4695 15.4703 12.385 15.5267 12.2921 15.5652Z" fill="black" fill-opacity="0.2"/>
</g>
<defs>
<clipPath id="clip0_365_1067">
<rect width="24" height="24" fill="white"/>
</clipPath>
</defs>
</svg>
