<svg width="24" height="24" viewBox="0 0 24 24" fill="none" xmlns="http://www.w3.org/2000/svg">
<path fill-rule="evenodd" clip-rule="evenodd" d="M4.54352 22.0556C4.59421 22.0834 4.65109 22.0981 4.70892 22.0982L4.7066 22.0988C4.77413 22.0984 4.84005 22.0782 4.89617 22.0407L11.5359 17.6583H20.6117C21.2449 17.6576 21.8519 17.4057 22.2996 16.958C22.7474 16.5102 22.9992 15.9032 23 15.27V5.3883C22.9992 4.75512 22.7474 4.14809 22.2996 3.70037C21.8519 3.25264 21.2449 3.00077 20.6117 3H3.3883C2.75582 3.00077 2.14941 3.25208 1.7018 3.69892C1.25419 4.14577 1.00185 4.75175 1 5.38422V15.27C1.00031 15.9035 1.25197 16.511 1.69975 16.9591C2.14753 17.4072 2.75481 17.6593 3.3883 17.6601H6.22436L4.39665 21.6086C4.37236 21.6611 4.36167 21.7188 4.36555 21.7765C4.36944 21.8342 4.38777 21.89 4.41887 21.9388C4.44997 21.9876 4.49284 22.0277 4.54352 22.0556ZM2.18784 4.18709C2.50653 3.86829 2.93869 3.68898 3.38946 3.68852L20.6129 3.68445C21.0635 3.68491 21.4956 3.86414 21.8143 4.18281C22.133 4.50148 22.3122 4.93356 22.3126 5.38422V15.27C22.3122 15.7208 22.133 16.1529 21.8143 16.4717C21.4957 16.7904 21.0636 16.9698 20.6129 16.9704H11.433C11.3655 16.9708 11.2996 16.9911 11.2434 17.0285L5.53119 20.7991L7.07454 17.4589C7.09886 17.4064 7.10957 17.3487 7.1057 17.291C7.10182 17.2333 7.08348 17.1775 7.05237 17.1288C7.02125 17.0801 6.97837 17.04 6.92766 17.0122C6.87696 16.9844 6.82008 16.9698 6.76227 16.9698H3.38946C2.93879 16.9694 2.50671 16.7901 2.18804 16.4714C1.86937 16.1528 1.69014 15.7207 1.68968 15.27V5.38888C1.68999 4.93811 1.86915 4.50588 2.18784 4.18709ZM7.93807 9.62391C7.77368 9.51407 7.58042 9.45544 7.38271 9.45544C7.11759 9.45544 6.86333 9.56076 6.67586 9.74823C6.4884 9.9357 6.38308 10.19 6.38308 10.4551C6.38308 10.6528 6.44171 10.8461 6.55155 11.0104C6.66139 11.1748 6.81751 11.303 7.00017 11.3786C7.18282 11.4543 7.38382 11.4741 7.57773 11.4355C7.77164 11.3969 7.94975 11.3017 8.08955 11.1619C8.22936 11.0221 8.32456 10.844 8.36313 10.6501C8.4017 10.4562 8.38191 10.2552 8.30625 10.0725C8.23059 9.88987 8.10246 9.73375 7.93807 9.62391ZM12.0884 9.45544C12.2861 9.45544 12.4794 9.51407 12.6438 9.62391C12.8082 9.73375 12.9363 9.88987 13.012 10.0725C13.0876 10.2552 13.1074 10.4562 13.0688 10.6501C13.0303 10.844 12.9351 11.0221 12.7953 11.1619C12.6555 11.3017 12.4773 11.3969 12.2834 11.4355C12.0895 11.4741 11.8885 11.4543 11.7059 11.3786C11.5232 11.303 11.3671 11.1748 11.2573 11.0104C11.1474 10.8461 11.0888 10.6528 11.0888 10.4551C11.0888 10.19 11.1941 9.9357 11.3816 9.74823C11.569 9.56076 11.8233 9.45544 12.0884 9.45544ZM17.2371 9.62391C17.0727 9.51407 16.8794 9.45544 16.6817 9.45544C16.4166 9.45544 16.1623 9.56076 15.9748 9.74823C15.7874 9.9357 15.6821 10.19 15.6821 10.4551C15.6821 10.6528 15.7407 10.8461 15.8505 11.0104C15.9604 11.1748 16.1165 11.303 16.2992 11.3786C16.4818 11.4543 16.6828 11.4741 16.8767 11.4355C17.0706 11.3969 17.2487 11.3017 17.3885 11.1619C17.5283 11.0221 17.6235 10.844 17.6621 10.6501C17.7007 10.4562 17.6809 10.2552 17.6052 10.0725C17.5296 9.88987 17.4014 9.73375 17.2371 9.62391Z" fill="black"/>
<path fill-rule="evenodd" clip-rule="evenodd" d="M4.54352 22.0556C4.59421 22.0834 4.65109 22.0981 4.70892 22.0982L4.7066 22.0988C4.77413 22.0984 4.84005 22.0782 4.89617 22.0407L11.5359 17.6583H20.6117C21.2449 17.6576 21.8519 17.4057 22.2996 16.958C22.7474 16.5102 22.9992 15.9032 23 15.27V5.3883C22.9992 4.75512 22.7474 4.14809 22.2996 3.70037C21.8519 3.25264 21.2449 3.00077 20.6117 3H3.3883C2.75582 3.00077 2.14941 3.25208 1.7018 3.69892C1.25419 4.14577 1.00185 4.75175 1 5.38422V15.27C1.00031 15.9035 1.25197 16.511 1.69975 16.9591C2.14753 17.4072 2.75481 17.6593 3.3883 17.6601H6.22436L4.39665 21.6086C4.37236 21.6611 4.36167 21.7188 4.36555 21.7765C4.36944 21.8342 4.38777 21.89 4.41887 21.9388C4.44997 21.9876 4.49284 22.0277 4.54352 22.0556ZM2.18784 4.18709C2.50653 3.86829 2.93869 3.68898 3.38946 3.68852L20.6129 3.68445C21.0635 3.68491 21.4956 3.86414 21.8143 4.18281C22.133 4.50148 22.3122 4.93356 22.3126 5.38422V15.27C22.3122 15.7208 22.133 16.1529 21.8143 16.4717C21.4957 16.7904 21.0636 16.9698 20.6129 16.9704H11.433C11.3655 16.9708 11.2996 16.9911 11.2434 17.0285L5.53119 20.7991L7.07454 17.4589C7.09886 17.4064 7.10957 17.3487 7.1057 17.291C7.10182 17.2333 7.08348 17.1775 7.05237 17.1288C7.02125 17.0801 6.97837 17.04 6.92766 17.0122C6.87696 16.9844 6.82008 16.9698 6.76227 16.9698H3.38946C2.93879 16.9694 2.50671 16.7901 2.18804 16.4714C1.86937 16.1528 1.69014 15.7207 1.68968 15.27V5.38888C1.68999 4.93811 1.86915 4.50588 2.18784 4.18709ZM7.93807 9.62391C7.77368 9.51407 7.58042 9.45544 7.38271 9.45544C7.11759 9.45544 6.86333 9.56076 6.67586 9.74823C6.4884 9.9357 6.38308 10.19 6.38308 10.4551C6.38308 10.6528 6.44171 10.8461 6.55155 11.0104C6.66139 11.1748 6.81751 11.303 7.00017 11.3786C7.18282 11.4543 7.38382 11.4741 7.57773 11.4355C7.77164 11.3969 7.94975 11.3017 8.08955 11.1619C8.22936 11.0221 8.32456 10.844 8.36313 10.6501C8.4017 10.4562 8.38191 10.2552 8.30625 10.0725C8.23059 9.88987 8.10246 9.73375 7.93807 9.62391ZM12.0884 9.45544C12.2861 9.45544 12.4794 9.51407 12.6438 9.62391C12.8082 9.73375 12.9363 9.88987 13.012 10.0725C13.0876 10.2552 13.1074 10.4562 13.0688 10.6501C13.0303 10.844 12.9351 11.0221 12.7953 11.1619C12.6555 11.3017 12.4773 11.3969 12.2834 11.4355C12.0895 11.4741 11.8885 11.4543 11.7059 11.3786C11.5232 11.303 11.3671 11.1748 11.2573 11.0104C11.1474 10.8461 11.0888 10.6528 11.0888 10.4551C11.0888 10.19 11.1941 9.9357 11.3816 9.74823C11.569 9.56076 11.8233 9.45544 12.0884 9.45544ZM17.2371 9.62391C17.0727 9.51407 16.8794 9.45544 16.6817 9.45544C16.4166 9.45544 16.1623 9.56076 15.9748 9.74823C15.7874 9.9357 15.6821 10.19 15.6821 10.4551C15.6821 10.6528 15.7407 10.8461 15.8505 11.0104C15.9604 11.1748 16.1165 11.303 16.2992 11.3786C16.4818 11.4543 16.6828 11.4741 16.8767 11.4355C17.0706 11.3969 17.2487 11.3017 17.3885 11.1619C17.5283 11.0221 17.6235 10.844 17.6621 10.6501C17.7007 10.4562 17.6809 10.2552 17.6052 10.0725C17.5296 9.88987 17.4014 9.73375 17.2371 9.62391Z" fill="black" fill-opacity="0.2"/>
<path fill-rule="evenodd" clip-rule="evenodd" d="M4.54352 22.0556C4.59421 22.0834 4.65109 22.0981 4.70892 22.0982L4.7066 22.0988C4.77413 22.0984 4.84005 22.0782 4.89617 22.0407L11.5359 17.6583H20.6117C21.2449 17.6576 21.8519 17.4057 22.2996 16.958C22.7474 16.5102 22.9992 15.9032 23 15.27V5.3883C22.9992 4.75512 22.7474 4.14809 22.2996 3.70037C21.8519 3.25264 21.2449 3.00077 20.6117 3H3.3883C2.75582 3.00077 2.14941 3.25208 1.7018 3.69892C1.25419 4.14577 1.00185 4.75175 1 5.38422V15.27C1.00031 15.9035 1.25197 16.511 1.69975 16.9591C2.14753 17.4072 2.75481 17.6593 3.3883 17.6601H6.22436L4.39665 21.6086C4.37236 21.6611 4.36167 21.7188 4.36555 21.7765C4.36944 21.8342 4.38777 21.89 4.41887 21.9388C4.44997 21.9876 4.49284 22.0277 4.54352 22.0556ZM2.18784 4.18709C2.50653 3.86829 2.93869 3.68898 3.38946 3.68852L20.6129 3.68445C21.0635 3.68491 21.4956 3.86414 21.8143 4.18281C22.133 4.50148 22.3122 4.93356 22.3126 5.38422V15.27C22.3122 15.7208 22.133 16.1529 21.8143 16.4717C21.4957 16.7904 21.0636 16.9698 20.6129 16.9704H11.433C11.3655 16.9708 11.2996 16.9911 11.2434 17.0285L5.53119 20.7991L7.07454 17.4589C7.09886 17.4064 7.10957 17.3487 7.1057 17.291C7.10182 17.2333 7.08348 17.1775 7.05237 17.1288C7.02125 17.0801 6.97837 17.04 6.92766 17.0122C6.87696 16.9844 6.82008 16.9698 6.76227 16.9698H3.38946C2.93879 16.9694 2.50671 16.7901 2.18804 16.4714C1.86937 16.1528 1.69014 15.7207 1.68968 15.27V5.38888C1.68999 4.93811 1.86915 4.50588 2.18784 4.18709ZM7.93807 9.62391C7.77368 9.51407 7.58042 9.45544 7.38271 9.45544C7.11759 9.45544 6.86333 9.56076 6.67586 9.74823C6.4884 9.9357 6.38308 10.19 6.38308 10.4551C6.38308 10.6528 6.44171 10.8461 6.55155 11.0104C6.66139 11.1748 6.81751 11.303 7.00017 11.3786C7.18282 11.4543 7.38382 11.4741 7.57773 11.4355C7.77164 11.3969 7.94975 11.3017 8.08955 11.1619C8.22936 11.0221 8.32456 10.844 8.36313 10.6501C8.4017 10.4562 8.38191 10.2552 8.30625 10.0725C8.23059 9.88987 8.10246 9.73375 7.93807 9.62391ZM12.0884 9.45544C12.2861 9.45544 12.4794 9.51407 12.6438 9.62391C12.8082 9.73375 12.9363 9.88987 13.012 10.0725C13.0876 10.2552 13.1074 10.4562 13.0688 10.6501C13.0303 10.844 12.9351 11.0221 12.7953 11.1619C12.6555 11.3017 12.4773 11.3969 12.2834 11.4355C12.0895 11.4741 11.8885 11.4543 11.7059 11.3786C11.5232 11.303 11.3671 11.1748 11.2573 11.0104C11.1474 10.8461 11.0888 10.6528 11.0888 10.4551C11.0888 10.19 11.1941 9.9357 11.3816 9.74823C11.569 9.56076 11.8233 9.45544 12.0884 9.45544ZM17.2371 9.62391C17.0727 9.51407 16.8794 9.45544 16.6817 9.45544C16.4166 9.45544 16.1623 9.56076 15.9748 9.74823C15.7874 9.9357 15.6821 10.19 15.6821 10.4551C15.6821 10.6528 15.7407 10.8461 15.8505 11.0104C15.9604 11.1748 16.1165 11.303 16.2992 11.3786C16.4818 11.4543 16.6828 11.4741 16.8767 11.4355C17.0706 11.3969 17.2487 11.3017 17.3885 11.1619C17.5283 11.0221 17.6235 10.844 17.6621 10.6501C17.7007 10.4562 17.6809 10.2552 17.6052 10.0725C17.5296 9.88987 17.4014 9.73375 17.2371 9.62391Z" fill="black" fill-opacity="0.2"/>
<path fill-rule="evenodd" clip-rule="evenodd" d="M4.54352 22.0556C4.59421 22.0834 4.65109 22.0981 4.70892 22.0982L4.7066 22.0988C4.77413 22.0984 4.84005 22.0782 4.89617 22.0407L11.5359 17.6583H20.6117C21.2449 17.6576 21.8519 17.4057 22.2996 16.958C22.7474 16.5102 22.9992 15.9032 23 15.27V5.3883C22.9992 4.75512 22.7474 4.14809 22.2996 3.70037C21.8519 3.25264 21.2449 3.00077 20.6117 3H3.3883C2.75582 3.00077 2.14941 3.25208 1.7018 3.69892C1.25419 4.14577 1.00185 4.75175 1 5.38422V15.27C1.00031 15.9035 1.25197 16.511 1.69975 16.9591C2.14753 17.4072 2.75481 17.6593 3.3883 17.6601H6.22436L4.39665 21.6086C4.37236 21.6611 4.36167 21.7188 4.36555 21.7765C4.36944 21.8342 4.38777 21.89 4.41887 21.9388C4.44997 21.9876 4.49284 22.0277 4.54352 22.0556ZM2.18784 4.18709C2.50653 3.86829 2.93869 3.68898 3.38946 3.68852L20.6129 3.68445C21.0635 3.68491 21.4956 3.86414 21.8143 4.18281C22.133 4.50148 22.3122 4.93356 22.3126 5.38422V15.27C22.3122 15.7208 22.133 16.1529 21.8143 16.4717C21.4957 16.7904 21.0636 16.9698 20.6129 16.9704H11.433C11.3655 16.9708 11.2996 16.9911 11.2434 17.0285L5.53119 20.7991L7.07454 17.4589C7.09886 17.4064 7.10957 17.3487 7.1057 17.291C7.10182 17.2333 7.08348 17.1775 7.05237 17.1288C7.02125 17.0801 6.97837 17.04 6.92766 17.0122C6.87696 16.9844 6.82008 16.9698 6.76227 16.9698H3.38946C2.93879 16.9694 2.50671 16.7901 2.18804 16.4714C1.86937 16.1528 1.69014 15.7207 1.68968 15.27V5.38888C1.68999 4.93811 1.86915 4.50588 2.18784 4.18709ZM7.93807 9.62391C7.77368 9.51407 7.58042 9.45544 7.38271 9.45544C7.11759 9.45544 6.86333 9.56076 6.67586 9.74823C6.4884 9.9357 6.38308 10.19 6.38308 10.4551C6.38308 10.6528 6.44171 10.8461 6.55155 11.0104C6.66139 11.1748 6.81751 11.303 7.00017 11.3786C7.18282 11.4543 7.38382 11.4741 7.57773 11.4355C7.77164 11.3969 7.94975 11.3017 8.08955 11.1619C8.22936 11.0221 8.32456 10.844 8.36313 10.6501C8.4017 10.4562 8.38191 10.2552 8.30625 10.0725C8.23059 9.88987 8.10246 9.73375 7.93807 9.62391ZM12.0884 9.45544C12.2861 9.45544 12.4794 9.51407 12.6438 9.62391C12.8082 9.73375 12.9363 9.88987 13.012 10.0725C13.0876 10.2552 13.1074 10.4562 13.0688 10.6501C13.0303 10.844 12.9351 11.0221 12.7953 11.1619C12.6555 11.3017 12.4773 11.3969 12.2834 11.4355C12.0895 11.4741 11.8885 11.4543 11.7059 11.3786C11.5232 11.303 11.3671 11.1748 11.2573 11.0104C11.1474 10.8461 11.0888 10.6528 11.0888 10.4551C11.0888 10.19 11.1941 9.9357 11.3816 9.74823C11.569 9.56076 11.8233 9.45544 12.0884 9.45544ZM17.2371 9.62391C17.0727 9.51407 16.8794 9.45544 16.6817 9.45544C16.4166 9.45544 16.1623 9.56076 15.9748 9.74823C15.7874 9.9357 15.6821 10.19 15.6821 10.4551C15.6821 10.6528 15.7407 10.8461 15.8505 11.0104C15.9604 11.1748 16.1165 11.303 16.2992 11.3786C16.4818 11.4543 16.6828 11.4741 16.8767 11.4355C17.0706 11.3969 17.2487 11.3017 17.3885 11.1619C17.5283 11.0221 17.6235 10.844 17.6621 10.6501C17.7007 10.4562 17.6809 10.2552 17.6052 10.0725C17.5296 9.88987 17.4014 9.73375 17.2371 9.62391Z" fill="black" fill-opacity="0.2"/>
<path fill-rule="evenodd" clip-rule="evenodd" d="M4.54352 22.0556C4.59421 22.0834 4.65109 22.0981 4.70892 22.0982L4.7066 22.0988C4.77413 22.0984 4.84005 22.0782 4.89617 22.0407L11.5359 17.6583H20.6117C21.2449 17.6576 21.8519 17.4057 22.2996 16.958C22.7474 16.5102 22.9992 15.9032 23 15.27V5.3883C22.9992 4.75512 22.7474 4.14809 22.2996 3.70037C21.8519 3.25264 21.2449 3.00077 20.6117 3H3.3883C2.75582 3.00077 2.14941 3.25208 1.7018 3.69892C1.25419 4.14577 1.00185 4.75175 1 5.38422V15.27C1.00031 15.9035 1.25197 16.511 1.69975 16.9591C2.14753 17.4072 2.75481 17.6593 3.3883 17.6601H6.22436L4.39665 21.6086C4.37236 21.6611 4.36167 21.7188 4.36555 21.7765C4.36944 21.8342 4.38777 21.89 4.41887 21.9388C4.44997 21.9876 4.49284 22.0277 4.54352 22.0556ZM2.18784 4.18709C2.50653 3.86829 2.93869 3.68898 3.38946 3.68852L20.6129 3.68445C21.0635 3.68491 21.4956 3.86414 21.8143 4.18281C22.133 4.50148 22.3122 4.93356 22.3126 5.38422V15.27C22.3122 15.7208 22.133 16.1529 21.8143 16.4717C21.4957 16.7904 21.0636 16.9698 20.6129 16.9704H11.433C11.3655 16.9708 11.2996 16.9911 11.2434 17.0285L5.53119 20.7991L7.07454 17.4589C7.09886 17.4064 7.10957 17.3487 7.1057 17.291C7.10182 17.2333 7.08348 17.1775 7.05237 17.1288C7.02125 17.0801 6.97837 17.04 6.92766 17.0122C6.87696 16.9844 6.82008 16.9698 6.76227 16.9698H3.38946C2.93879 16.9694 2.50671 16.7901 2.18804 16.4714C1.86937 16.1528 1.69014 15.7207 1.68968 15.27V5.38888C1.68999 4.93811 1.86915 4.50588 2.18784 4.18709ZM7.93807 9.62391C7.77368 9.51407 7.58042 9.45544 7.38271 9.45544C7.11759 9.45544 6.86333 9.56076 6.67586 9.74823C6.4884 9.9357 6.38308 10.19 6.38308 10.4551C6.38308 10.6528 6.44171 10.8461 6.55155 11.0104C6.66139 11.1748 6.81751 11.303 7.00017 11.3786C7.18282 11.4543 7.38382 11.4741 7.57773 11.4355C7.77164 11.3969 7.94975 11.3017 8.08955 11.1619C8.22936 11.0221 8.32456 10.844 8.36313 10.6501C8.4017 10.4562 8.38191 10.2552 8.30625 10.0725C8.23059 9.88987 8.10246 9.73375 7.93807 9.62391ZM12.0884 9.45544C12.2861 9.45544 12.4794 9.51407 12.6438 9.62391C12.8082 9.73375 12.9363 9.88987 13.012 10.0725C13.0876 10.2552 13.1074 10.4562 13.0688 10.6501C13.0303 10.844 12.9351 11.0221 12.7953 11.1619C12.6555 11.3017 12.4773 11.3969 12.2834 11.4355C12.0895 11.4741 11.8885 11.4543 11.7059 11.3786C11.5232 11.303 11.3671 11.1748 11.2573 11.0104C11.1474 10.8461 11.0888 10.6528 11.0888 10.4551C11.0888 10.19 11.1941 9.9357 11.3816 9.74823C11.569 9.56076 11.8233 9.45544 12.0884 9.45544ZM17.2371 9.62391C17.0727 9.51407 16.8794 9.45544 16.6817 9.45544C16.4166 9.45544 16.1623 9.56076 15.9748 9.74823C15.7874 9.9357 15.6821 10.19 15.6821 10.4551C15.6821 10.6528 15.7407 10.8461 15.8505 11.0104C15.9604 11.1748 16.1165 11.303 16.2992 11.3786C16.4818 11.4543 16.6828 11.4741 16.8767 11.4355C17.0706 11.3969 17.2487 11.3017 17.3885 11.1619C17.5283 11.0221 17.6235 10.844 17.6621 10.6501C17.7007 10.4562 17.6809 10.2552 17.6052 10.0725C17.5296 9.88987 17.4014 9.73375 17.2371 9.62391Z" fill="black" fill-opacity="0.2"/>
<path fill-rule="evenodd" clip-rule="evenodd" d="M4.54352 22.0556C4.59421 22.0834 4.65109 22.0981 4.70892 22.0982L4.7066 22.0988C4.77413 22.0984 4.84005 22.0782 4.89617 22.0407L11.5359 17.6583H20.6117C21.2449 17.6576 21.8519 17.4057 22.2996 16.958C22.7474 16.5102 22.9992 15.9032 23 15.27V5.3883C22.9992 4.75512 22.7474 4.14809 22.2996 3.70037C21.8519 3.25264 21.2449 3.00077 20.6117 3H3.3883C2.75582 3.00077 2.14941 3.25208 1.7018 3.69892C1.25419 4.14577 1.00185 4.75175 1 5.38422V15.27C1.00031 15.9035 1.25197 16.511 1.69975 16.9591C2.14753 17.4072 2.75481 17.6593 3.3883 17.6601H6.22436L4.39665 21.6086C4.37236 21.6611 4.36167 21.7188 4.36555 21.7765C4.36944 21.8342 4.38777 21.89 4.41887 21.9388C4.44997 21.9876 4.49284 22.0277 4.54352 22.0556ZM2.18784 4.18709C2.50653 3.86829 2.93869 3.68898 3.38946 3.68852L20.6129 3.68445C21.0635 3.68491 21.4956 3.86414 21.8143 4.18281C22.133 4.50148 22.3122 4.93356 22.3126 5.38422V15.27C22.3122 15.7208 22.133 16.1529 21.8143 16.4717C21.4957 16.7904 21.0636 16.9698 20.6129 16.9704H11.433C11.3655 16.9708 11.2996 16.9911 11.2434 17.0285L5.53119 20.7991L7.07454 17.4589C7.09886 17.4064 7.10957 17.3487 7.1057 17.291C7.10182 17.2333 7.08348 17.1775 7.05237 17.1288C7.02125 17.0801 6.97837 17.04 6.92766 17.0122C6.87696 16.9844 6.82008 16.9698 6.76227 16.9698H3.38946C2.93879 16.9694 2.50671 16.7901 2.18804 16.4714C1.86937 16.1528 1.69014 15.7207 1.68968 15.27V5.38888C1.68999 4.93811 1.86915 4.50588 2.18784 4.18709ZM7.93807 9.62391C7.77368 9.51407 7.58042 9.45544 7.38271 9.45544C7.11759 9.45544 6.86333 9.56076 6.67586 9.74823C6.4884 9.9357 6.38308 10.19 6.38308 10.4551C6.38308 10.6528 6.44171 10.8461 6.55155 11.0104C6.66139 11.1748 6.81751 11.303 7.00017 11.3786C7.18282 11.4543 7.38382 11.4741 7.57773 11.4355C7.77164 11.3969 7.94975 11.3017 8.08955 11.1619C8.22936 11.0221 8.32456 10.844 8.36313 10.6501C8.4017 10.4562 8.38191 10.2552 8.30625 10.0725C8.23059 9.88987 8.10246 9.73375 7.93807 9.62391ZM12.0884 9.45544C12.2861 9.45544 12.4794 9.51407 12.6438 9.62391C12.8082 9.73375 12.9363 9.88987 13.012 10.0725C13.0876 10.2552 13.1074 10.4562 13.0688 10.6501C13.0303 10.844 12.9351 11.0221 12.7953 11.1619C12.6555 11.3017 12.4773 11.3969 12.2834 11.4355C12.0895 11.4741 11.8885 11.4543 11.7059 11.3786C11.5232 11.303 11.3671 11.1748 11.2573 11.0104C11.1474 10.8461 11.0888 10.6528 11.0888 10.4551C11.0888 10.19 11.1941 9.9357 11.3816 9.74823C11.569 9.56076 11.8233 9.45544 12.0884 9.45544ZM17.2371 9.62391C17.0727 9.51407 16.8794 9.45544 16.6817 9.45544C16.4166 9.45544 16.1623 9.56076 15.9748 9.74823C15.7874 9.9357 15.6821 10.19 15.6821 10.4551C15.6821 10.6528 15.7407 10.8461 15.8505 11.0104C15.9604 11.1748 16.1165 11.303 16.2992 11.3786C16.4818 11.4543 16.6828 11.4741 16.8767 11.4355C17.0706 11.3969 17.2487 11.3017 17.3885 11.1619C17.5283 11.0221 17.6235 10.844 17.6621 10.6501C17.7007 10.4562 17.6809 10.2552 17.6052 10.0725C17.5296 9.88987 17.4014 9.73375 17.2371 9.62391Z" fill="black" fill-opacity="0.2"/>
<path fill-rule="evenodd" clip-rule="evenodd" d="M4.54352 22.0556C4.59421 22.0834 4.65109 22.0981 4.70892 22.0982L4.7066 22.0988C4.77413 22.0984 4.84005 22.0782 4.89617 22.0407L11.5359 17.6583H20.6117C21.2449 17.6576 21.8519 17.4057 22.2996 16.958C22.7474 16.5102 22.9992 15.9032 23 15.27V5.3883C22.9992 4.75512 22.7474 4.14809 22.2996 3.70037C21.8519 3.25264 21.2449 3.00077 20.6117 3H3.3883C2.75582 3.00077 2.14941 3.25208 1.7018 3.69892C1.25419 4.14577 1.00185 4.75175 1 5.38422V15.27C1.00031 15.9035 1.25197 16.511 1.69975 16.9591C2.14753 17.4072 2.75481 17.6593 3.3883 17.6601H6.22436L4.39665 21.6086C4.37236 21.6611 4.36167 21.7188 4.36555 21.7765C4.36944 21.8342 4.38777 21.89 4.41887 21.9388C4.44997 21.9876 4.49284 22.0277 4.54352 22.0556ZM2.18784 4.18709C2.50653 3.86829 2.93869 3.68898 3.38946 3.68852L20.6129 3.68445C21.0635 3.68491 21.4956 3.86414 21.8143 4.18281C22.133 4.50148 22.3122 4.93356 22.3126 5.38422V15.27C22.3122 15.7208 22.133 16.1529 21.8143 16.4717C21.4957 16.7904 21.0636 16.9698 20.6129 16.9704H11.433C11.3655 16.9708 11.2996 16.9911 11.2434 17.0285L5.53119 20.7991L7.07454 17.4589C7.09886 17.4064 7.10957 17.3487 7.1057 17.291C7.10182 17.2333 7.08348 17.1775 7.05237 17.1288C7.02125 17.0801 6.97837 17.04 6.92766 17.0122C6.87696 16.9844 6.82008 16.9698 6.76227 16.9698H3.38946C2.93879 16.9694 2.50671 16.7901 2.18804 16.4714C1.86937 16.1528 1.69014 15.7207 1.68968 15.27V5.38888C1.68999 4.93811 1.86915 4.50588 2.18784 4.18709ZM7.93807 9.62391C7.77368 9.51407 7.58042 9.45544 7.38271 9.45544C7.11759 9.45544 6.86333 9.56076 6.67586 9.74823C6.4884 9.9357 6.38308 10.19 6.38308 10.4551C6.38308 10.6528 6.44171 10.8461 6.55155 11.0104C6.66139 11.1748 6.81751 11.303 7.00017 11.3786C7.18282 11.4543 7.38382 11.4741 7.57773 11.4355C7.77164 11.3969 7.94975 11.3017 8.08955 11.1619C8.22936 11.0221 8.32456 10.844 8.36313 10.6501C8.4017 10.4562 8.38191 10.2552 8.30625 10.0725C8.23059 9.88987 8.10246 9.73375 7.93807 9.62391ZM12.0884 9.45544C12.2861 9.45544 12.4794 9.51407 12.6438 9.62391C12.8082 9.73375 12.9363 9.88987 13.012 10.0725C13.0876 10.2552 13.1074 10.4562 13.0688 10.6501C13.0303 10.844 12.9351 11.0221 12.7953 11.1619C12.6555 11.3017 12.4773 11.3969 12.2834 11.4355C12.0895 11.4741 11.8885 11.4543 11.7059 11.3786C11.5232 11.303 11.3671 11.1748 11.2573 11.0104C11.1474 10.8461 11.0888 10.6528 11.0888 10.4551C11.0888 10.19 11.1941 9.9357 11.3816 9.74823C11.569 9.56076 11.8233 9.45544 12.0884 9.45544ZM17.2371 9.62391C17.0727 9.51407 16.8794 9.45544 16.6817 9.45544C16.4166 9.45544 16.1623 9.56076 15.9748 9.74823C15.7874 9.9357 15.6821 10.19 15.6821 10.4551C15.6821 10.6528 15.7407 10.8461 15.8505 11.0104C15.9604 11.1748 16.1165 11.303 16.2992 11.3786C16.4818 11.4543 16.6828 11.4741 16.8767 11.4355C17.0706 11.3969 17.2487 11.3017 17.3885 11.1619C17.5283 11.0221 17.6235 10.844 17.6621 10.6501C17.7007 10.4562 17.6809 10.2552 17.6052 10.0725C17.5296 9.88987 17.4014 9.73375 17.2371 9.62391Z" fill="black" fill-opacity="0.2"/>
<path fill-rule="evenodd" clip-rule="evenodd" d="M4.54352 22.0556C4.59421 22.0834 4.65109 22.0981 4.70892 22.0982L4.7066 22.0988C4.77413 22.0984 4.84005 22.0782 4.89617 22.0407L11.5359 17.6583H20.6117C21.2449 17.6576 21.8519 17.4057 22.2996 16.958C22.7474 16.5102 22.9992 15.9032 23 15.27V5.3883C22.9992 4.75512 22.7474 4.14809 22.2996 3.70037C21.8519 3.25264 21.2449 3.00077 20.6117 3H3.3883C2.75582 3.00077 2.14941 3.25208 1.7018 3.69892C1.25419 4.14577 1.00185 4.75175 1 5.38422V15.27C1.00031 15.9035 1.25197 16.511 1.69975 16.9591C2.14753 17.4072 2.75481 17.6593 3.3883 17.6601H6.22436L4.39665 21.6086C4.37236 21.6611 4.36167 21.7188 4.36555 21.7765C4.36944 21.8342 4.38777 21.89 4.41887 21.9388C4.44997 21.9876 4.49284 22.0277 4.54352 22.0556ZM2.18784 4.18709C2.50653 3.86829 2.93869 3.68898 3.38946 3.68852L20.6129 3.68445C21.0635 3.68491 21.4956 3.86414 21.8143 4.18281C22.133 4.50148 22.3122 4.93356 22.3126 5.38422V15.27C22.3122 15.7208 22.133 16.1529 21.8143 16.4717C21.4957 16.7904 21.0636 16.9698 20.6129 16.9704H11.433C11.3655 16.9708 11.2996 16.9911 11.2434 17.0285L5.53119 20.7991L7.07454 17.4589C7.09886 17.4064 7.10957 17.3487 7.1057 17.291C7.10182 17.2333 7.08348 17.1775 7.05237 17.1288C7.02125 17.0801 6.97837 17.04 6.92766 17.0122C6.87696 16.9844 6.82008 16.9698 6.76227 16.9698H3.38946C2.93879 16.9694 2.50671 16.7901 2.18804 16.4714C1.86937 16.1528 1.69014 15.7207 1.68968 15.27V5.38888C1.68999 4.93811 1.86915 4.50588 2.18784 4.18709ZM7.93807 9.62391C7.77368 9.51407 7.58042 9.45544 7.38271 9.45544C7.11759 9.45544 6.86333 9.56076 6.67586 9.74823C6.4884 9.9357 6.38308 10.19 6.38308 10.4551C6.38308 10.6528 6.44171 10.8461 6.55155 11.0104C6.66139 11.1748 6.81751 11.303 7.00017 11.3786C7.18282 11.4543 7.38382 11.4741 7.57773 11.4355C7.77164 11.3969 7.94975 11.3017 8.08955 11.1619C8.22936 11.0221 8.32456 10.844 8.36313 10.6501C8.4017 10.4562 8.38191 10.2552 8.30625 10.0725C8.23059 9.88987 8.10246 9.73375 7.93807 9.62391ZM12.0884 9.45544C12.2861 9.45544 12.4794 9.51407 12.6438 9.62391C12.8082 9.73375 12.9363 9.88987 13.012 10.0725C13.0876 10.2552 13.1074 10.4562 13.0688 10.6501C13.0303 10.844 12.9351 11.0221 12.7953 11.1619C12.6555 11.3017 12.4773 11.3969 12.2834 11.4355C12.0895 11.4741 11.8885 11.4543 11.7059 11.3786C11.5232 11.303 11.3671 11.1748 11.2573 11.0104C11.1474 10.8461 11.0888 10.6528 11.0888 10.4551C11.0888 10.19 11.1941 9.9357 11.3816 9.74823C11.569 9.56076 11.8233 9.45544 12.0884 9.45544ZM17.2371 9.62391C17.0727 9.51407 16.8794 9.45544 16.6817 9.45544C16.4166 9.45544 16.1623 9.56076 15.9748 9.74823C15.7874 9.9357 15.6821 10.19 15.6821 10.4551C15.6821 10.6528 15.7407 10.8461 15.8505 11.0104C15.9604 11.1748 16.1165 11.303 16.2992 11.3786C16.4818 11.4543 16.6828 11.4741 16.8767 11.4355C17.0706 11.3969 17.2487 11.3017 17.3885 11.1619C17.5283 11.0221 17.6235 10.844 17.6621 10.6501C17.7007 10.4562 17.6809 10.2552 17.6052 10.0725C17.5296 9.88987 17.4014 9.73375 17.2371 9.62391Z" fill="black" fill-opacity="0.2"/>
<path fill-rule="evenodd" clip-rule="evenodd" d="M4.54352 22.0556C4.59421 22.0834 4.65109 22.0981 4.70892 22.0982L4.7066 22.0988C4.77413 22.0984 4.84005 22.0782 4.89617 22.0407L11.5359 17.6583H20.6117C21.2449 17.6576 21.8519 17.4057 22.2996 16.958C22.7474 16.5102 22.9992 15.9032 23 15.27V5.3883C22.9992 4.75512 22.7474 4.14809 22.2996 3.70037C21.8519 3.25264 21.2449 3.00077 20.6117 3H3.3883C2.75582 3.00077 2.14941 3.25208 1.7018 3.69892C1.25419 4.14577 1.00185 4.75175 1 5.38422V15.27C1.00031 15.9035 1.25197 16.511 1.69975 16.9591C2.14753 17.4072 2.75481 17.6593 3.3883 17.6601H6.22436L4.39665 21.6086C4.37236 21.6611 4.36167 21.7188 4.36555 21.7765C4.36944 21.8342 4.38777 21.89 4.41887 21.9388C4.44997 21.9876 4.49284 22.0277 4.54352 22.0556ZM2.18784 4.18709C2.50653 3.86829 2.93869 3.68898 3.38946 3.68852L20.6129 3.68445C21.0635 3.68491 21.4956 3.86414 21.8143 4.18281C22.133 4.50148 22.3122 4.93356 22.3126 5.38422V15.27C22.3122 15.7208 22.133 16.1529 21.8143 16.4717C21.4957 16.7904 21.0636 16.9698 20.6129 16.9704H11.433C11.3655 16.9708 11.2996 16.9911 11.2434 17.0285L5.53119 20.7991L7.07454 17.4589C7.09886 17.4064 7.10957 17.3487 7.1057 17.291C7.10182 17.2333 7.08348 17.1775 7.05237 17.1288C7.02125 17.0801 6.97837 17.04 6.92766 17.0122C6.87696 16.9844 6.82008 16.9698 6.76227 16.9698H3.38946C2.93879 16.9694 2.50671 16.7901 2.18804 16.4714C1.86937 16.1528 1.69014 15.7207 1.68968 15.27V5.38888C1.68999 4.93811 1.86915 4.50588 2.18784 4.18709ZM7.93807 9.62391C7.77368 9.51407 7.58042 9.45544 7.38271 9.45544C7.11759 9.45544 6.86333 9.56076 6.67586 9.74823C6.4884 9.9357 6.38308 10.19 6.38308 10.4551C6.38308 10.6528 6.44171 10.8461 6.55155 11.0104C6.66139 11.1748 6.81751 11.303 7.00017 11.3786C7.18282 11.4543 7.38382 11.4741 7.57773 11.4355C7.77164 11.3969 7.94975 11.3017 8.08955 11.1619C8.22936 11.0221 8.32456 10.844 8.36313 10.6501C8.4017 10.4562 8.38191 10.2552 8.30625 10.0725C8.23059 9.88987 8.10246 9.73375 7.93807 9.62391ZM12.0884 9.45544C12.2861 9.45544 12.4794 9.51407 12.6438 9.62391C12.8082 9.73375 12.9363 9.88987 13.012 10.0725C13.0876 10.2552 13.1074 10.4562 13.0688 10.6501C13.0303 10.844 12.9351 11.0221 12.7953 11.1619C12.6555 11.3017 12.4773 11.3969 12.2834 11.4355C12.0895 11.4741 11.8885 11.4543 11.7059 11.3786C11.5232 11.303 11.3671 11.1748 11.2573 11.0104C11.1474 10.8461 11.0888 10.6528 11.0888 10.4551C11.0888 10.19 11.1941 9.9357 11.3816 9.74823C11.569 9.56076 11.8233 9.45544 12.0884 9.45544ZM17.2371 9.62391C17.0727 9.51407 16.8794 9.45544 16.6817 9.45544C16.4166 9.45544 16.1623 9.56076 15.9748 9.74823C15.7874 9.9357 15.6821 10.19 15.6821 10.4551C15.6821 10.6528 15.7407 10.8461 15.8505 11.0104C15.9604 11.1748 16.1165 11.303 16.2992 11.3786C16.4818 11.4543 16.6828 11.4741 16.8767 11.4355C17.0706 11.3969 17.2487 11.3017 17.3885 11.1619C17.5283 11.0221 17.6235 10.844 17.6621 10.6501C17.7007 10.4562 17.6809 10.2552 17.6052 10.0725C17.5296 9.88987 17.4014 9.73375 17.2371 9.62391Z" fill="black" fill-opacity="0.2"/>
<path fill-rule="evenodd" clip-rule="evenodd" d="M4.54352 22.0556C4.59421 22.0834 4.65109 22.0981 4.70892 22.0982L4.7066 22.0988C4.77413 22.0984 4.84005 22.0782 4.89617 22.0407L11.5359 17.6583H20.6117C21.2449 17.6576 21.8519 17.4057 22.2996 16.958C22.7474 16.5102 22.9992 15.9032 23 15.27V5.3883C22.9992 4.75512 22.7474 4.14809 22.2996 3.70037C21.8519 3.25264 21.2449 3.00077 20.6117 3H3.3883C2.75582 3.00077 2.14941 3.25208 1.7018 3.69892C1.25419 4.14577 1.00185 4.75175 1 5.38422V15.27C1.00031 15.9035 1.25197 16.511 1.69975 16.9591C2.14753 17.4072 2.75481 17.6593 3.3883 17.6601H6.22436L4.39665 21.6086C4.37236 21.6611 4.36167 21.7188 4.36555 21.7765C4.36944 21.8342 4.38777 21.89 4.41887 21.9388C4.44997 21.9876 4.49284 22.0277 4.54352 22.0556ZM2.18784 4.18709C2.50653 3.86829 2.93869 3.68898 3.38946 3.68852L20.6129 3.68445C21.0635 3.68491 21.4956 3.86414 21.8143 4.18281C22.133 4.50148 22.3122 4.93356 22.3126 5.38422V15.27C22.3122 15.7208 22.133 16.1529 21.8143 16.4717C21.4957 16.7904 21.0636 16.9698 20.6129 16.9704H11.433C11.3655 16.9708 11.2996 16.9911 11.2434 17.0285L5.53119 20.7991L7.07454 17.4589C7.09886 17.4064 7.10957 17.3487 7.1057 17.291C7.10182 17.2333 7.08348 17.1775 7.05237 17.1288C7.02125 17.0801 6.97837 17.04 6.92766 17.0122C6.87696 16.9844 6.82008 16.9698 6.76227 16.9698H3.38946C2.93879 16.9694 2.50671 16.7901 2.18804 16.4714C1.86937 16.1528 1.69014 15.7207 1.68968 15.27V5.38888C1.68999 4.93811 1.86915 4.50588 2.18784 4.18709ZM7.93807 9.62391C7.77368 9.51407 7.58042 9.45544 7.38271 9.45544C7.11759 9.45544 6.86333 9.56076 6.67586 9.74823C6.4884 9.9357 6.38308 10.19 6.38308 10.4551C6.38308 10.6528 6.44171 10.8461 6.55155 11.0104C6.66139 11.1748 6.81751 11.303 7.00017 11.3786C7.18282 11.4543 7.38382 11.4741 7.57773 11.4355C7.77164 11.3969 7.94975 11.3017 8.08955 11.1619C8.22936 11.0221 8.32456 10.844 8.36313 10.6501C8.4017 10.4562 8.38191 10.2552 8.30625 10.0725C8.23059 9.88987 8.10246 9.73375 7.93807 9.62391ZM12.0884 9.45544C12.2861 9.45544 12.4794 9.51407 12.6438 9.62391C12.8082 9.73375 12.9363 9.88987 13.012 10.0725C13.0876 10.2552 13.1074 10.4562 13.0688 10.6501C13.0303 10.844 12.9351 11.0221 12.7953 11.1619C12.6555 11.3017 12.4773 11.3969 12.2834 11.4355C12.0895 11.4741 11.8885 11.4543 11.7059 11.3786C11.5232 11.303 11.3671 11.1748 11.2573 11.0104C11.1474 10.8461 11.0888 10.6528 11.0888 10.4551C11.0888 10.19 11.1941 9.9357 11.3816 9.74823C11.569 9.56076 11.8233 9.45544 12.0884 9.45544ZM17.2371 9.62391C17.0727 9.51407 16.8794 9.45544 16.6817 9.45544C16.4166 9.45544 16.1623 9.56076 15.9748 9.74823C15.7874 9.9357 15.6821 10.19 15.6821 10.4551C15.6821 10.6528 15.7407 10.8461 15.8505 11.0104C15.9604 11.1748 16.1165 11.303 16.2992 11.3786C16.4818 11.4543 16.6828 11.4741 16.8767 11.4355C17.0706 11.3969 17.2487 11.3017 17.3885 11.1619C17.5283 11.0221 17.6235 10.844 17.6621 10.6501C17.7007 10.4562 17.6809 10.2552 17.6052 10.0725C17.5296 9.88987 17.4014 9.73375 17.2371 9.62391Z" fill="black" fill-opacity="0.2"/>
</svg>
