<svg width="24" height="24" viewBox="0 0 24 24" fill="none" xmlns="http://www.w3.org/2000/svg">
<path d="M14.2656 22.1235C14.8833 22.7918 16 22.3547 16 21.4447V3.55525C16 2.64525 14.8833 2.20823 14.2656 2.8765L6.44457 11.3385C6.15991 11.6466 6 12.0644 6 12.5C6 12.9356 6.15991 13.3534 6.44457 13.6615L14.2656 22.1235Z" fill="black"/>
<path d="M14.2656 22.1235C14.8833 22.7918 16 22.3547 16 21.4447V3.55525C16 2.64525 14.8833 2.20823 14.2656 2.8765L6.44457 11.3385C6.15991 11.6466 6 12.0644 6 12.5C6 12.9356 6.15991 13.3534 6.44457 13.6615L14.2656 22.1235Z" fill="black" fill-opacity="0.2"/>
<path d="M14.2656 22.1235C14.8833 22.7918 16 22.3547 16 21.4447V3.55525C16 2.64525 14.8833 2.20823 14.2656 2.8765L6.44457 11.3385C6.15991 11.6466 6 12.0644 6 12.5C6 12.9356 6.15991 13.3534 6.44457 13.6615L14.2656 22.1235Z" fill="black" fill-opacity="0.2"/>
<path d="M14.2656 22.1235C14.8833 22.7918 16 22.3547 16 21.4447V3.55525C16 2.64525 14.8833 2.20823 14.2656 2.8765L6.44457 11.3385C6.15991 11.6466 6 12.0644 6 12.5C6 12.9356 6.15991 13.3534 6.44457 13.6615L14.2656 22.1235Z" fill="black" fill-opacity="0.2"/>
<path d="M14.2656 22.1235C14.8833 22.7918 16 22.3547 16 21.4447V3.55525C16 2.64525 14.8833 2.20823 14.2656 2.8765L6.44457 11.3385C6.15991 11.6466 6 12.0644 6 12.5C6 12.9356 6.15991 13.3534 6.44457 13.6615L14.2656 22.1235Z" fill="black" fill-opacity="0.2"/>
<path d="M14.2656 22.1235C14.8833 22.7918 16 22.3547 16 21.4447V3.55525C16 2.64525 14.8833 2.20823 14.2656 2.8765L6.44457 11.3385C6.15991 11.6466 6 12.0644 6 12.5C6 12.9356 6.15991 13.3534 6.44457 13.6615L14.2656 22.1235Z" fill="black" fill-opacity="0.2"/>
<path d="M14.2656 22.1235C14.8833 22.7918 16 22.3547 16 21.4447V3.55525C16 2.64525 14.8833 2.20823 14.2656 2.8765L6.44457 11.3385C6.15991 11.6466 6 12.0644 6 12.5C6 12.9356 6.15991 13.3534 6.44457 13.6615L14.2656 22.1235Z" fill="black" fill-opacity="0.2"/>
<path d="M14.2656 22.1235C14.8833 22.7918 16 22.3547 16 21.4447V3.55525C16 2.64525 14.8833 2.20823 14.2656 2.8765L6.44457 11.3385C6.15991 11.6466 6 12.0644 6 12.5C6 12.9356 6.15991 13.3534 6.44457 13.6615L14.2656 22.1235Z" fill="black" fill-opacity="0.2"/>
<path d="M14.2656 22.1235C14.8833 22.7918 16 22.3547 16 21.4447V3.55525C16 2.64525 14.8833 2.20823 14.2656 2.8765L6.44457 11.3385C6.15991 11.6466 6 12.0644 6 12.5C6 12.9356 6.15991 13.3534 6.44457 13.6615L14.2656 22.1235Z" fill="black" fill-opacity="0.2"/>
<path d="M14.2656 22.1235C14.8833 22.7918 16 22.3547 16 21.4447V3.55525C16 2.64525 14.8833 2.20823 14.2656 2.8765L6.44457 11.3385C6.15991 11.6466 6 12.0644 6 12.5C6 12.9356 6.15991 13.3534 6.44457 13.6615L14.2656 22.1235Z" fill="black" fill-opacity="0.2"/>
</svg>
