<svg width="16" height="16" viewBox="0 0 16 16" fill="none" xmlns="http://www.w3.org/2000/svg">
<path fill-rule="evenodd" clip-rule="evenodd" d="M1.25 11.4001H14.75C15.4404 11.4001 16 11.9261 16 12.5751C16 13.224 15.4404 13.7501 14.75 13.7501H1.25C0.559644 13.7501 0 13.224 0 12.5751C0 11.9261 0.559644 11.4001 1.25 11.4001ZM14.75 6.6999H1.25C0.559644 6.6999 0 7.22596 0 7.8749C0 8.52383 0.559644 9.0499 1.25 9.0499H14.75C15.4404 9.0499 16 8.52383 16 7.8749C16 7.22596 15.4404 6.6999 14.75 6.6999ZM1.25 2H14.75C15.0815 2 15.3995 2.12379 15.6339 2.34415C15.8683 2.5645 16 2.86337 16 3.175C16 3.48663 15.8683 3.78549 15.6339 4.00585C15.3995 4.2262 15.0815 4.35 14.75 4.35H1.25C0.918479 4.35 0.600537 4.2262 0.366117 4.00585C0.131696 3.78549 0 3.48663 0 3.175C0 2.86337 0.131696 2.5645 0.366117 2.34415C0.600537 2.12379 0.918479 2 1.25 2Z" fill="black"/>
<path fill-rule="evenodd" clip-rule="evenodd" d="M1.25 11.4001H14.75C15.4404 11.4001 16 11.9261 16 12.5751C16 13.224 15.4404 13.7501 14.75 13.7501H1.25C0.559644 13.7501 0 13.224 0 12.5751C0 11.9261 0.559644 11.4001 1.25 11.4001ZM14.75 6.6999H1.25C0.559644 6.6999 0 7.22596 0 7.8749C0 8.52383 0.559644 9.0499 1.25 9.0499H14.75C15.4404 9.0499 16 8.52383 16 7.8749C16 7.22596 15.4404 6.6999 14.75 6.6999ZM1.25 2H14.75C15.0815 2 15.3995 2.12379 15.6339 2.34415C15.8683 2.5645 16 2.86337 16 3.175C16 3.48663 15.8683 3.78549 15.6339 4.00585C15.3995 4.2262 15.0815 4.35 14.75 4.35H1.25C0.918479 4.35 0.600537 4.2262 0.366117 4.00585C0.131696 3.78549 0 3.48663 0 3.175C0 2.86337 0.131696 2.5645 0.366117 2.34415C0.600537 2.12379 0.918479 2 1.25 2Z" fill="black" fill-opacity="0.2"/>
<path fill-rule="evenodd" clip-rule="evenodd" d="M1.25 11.4001H14.75C15.4404 11.4001 16 11.9261 16 12.5751C16 13.224 15.4404 13.7501 14.75 13.7501H1.25C0.559644 13.7501 0 13.224 0 12.5751C0 11.9261 0.559644 11.4001 1.25 11.4001ZM14.75 6.6999H1.25C0.559644 6.6999 0 7.22596 0 7.8749C0 8.52383 0.559644 9.0499 1.25 9.0499H14.75C15.4404 9.0499 16 8.52383 16 7.8749C16 7.22596 15.4404 6.6999 14.75 6.6999ZM1.25 2H14.75C15.0815 2 15.3995 2.12379 15.6339 2.34415C15.8683 2.5645 16 2.86337 16 3.175C16 3.48663 15.8683 3.78549 15.6339 4.00585C15.3995 4.2262 15.0815 4.35 14.75 4.35H1.25C0.918479 4.35 0.600537 4.2262 0.366117 4.00585C0.131696 3.78549 0 3.48663 0 3.175C0 2.86337 0.131696 2.5645 0.366117 2.34415C0.600537 2.12379 0.918479 2 1.25 2Z" fill="black" fill-opacity="0.2"/>
<path fill-rule="evenodd" clip-rule="evenodd" d="M1.25 11.4001H14.75C15.4404 11.4001 16 11.9261 16 12.5751C16 13.224 15.4404 13.7501 14.75 13.7501H1.25C0.559644 13.7501 0 13.224 0 12.5751C0 11.9261 0.559644 11.4001 1.25 11.4001ZM14.75 6.6999H1.25C0.559644 6.6999 0 7.22596 0 7.8749C0 8.52383 0.559644 9.0499 1.25 9.0499H14.75C15.4404 9.0499 16 8.52383 16 7.8749C16 7.22596 15.4404 6.6999 14.75 6.6999ZM1.25 2H14.75C15.0815 2 15.3995 2.12379 15.6339 2.34415C15.8683 2.5645 16 2.86337 16 3.175C16 3.48663 15.8683 3.78549 15.6339 4.00585C15.3995 4.2262 15.0815 4.35 14.75 4.35H1.25C0.918479 4.35 0.600537 4.2262 0.366117 4.00585C0.131696 3.78549 0 3.48663 0 3.175C0 2.86337 0.131696 2.5645 0.366117 2.34415C0.600537 2.12379 0.918479 2 1.25 2Z" fill="black" fill-opacity="0.2"/>
<path fill-rule="evenodd" clip-rule="evenodd" d="M1.25 11.4001H14.75C15.4404 11.4001 16 11.9261 16 12.5751C16 13.224 15.4404 13.7501 14.75 13.7501H1.25C0.559644 13.7501 0 13.224 0 12.5751C0 11.9261 0.559644 11.4001 1.25 11.4001ZM14.75 6.6999H1.25C0.559644 6.6999 0 7.22596 0 7.8749C0 8.52383 0.559644 9.0499 1.25 9.0499H14.75C15.4404 9.0499 16 8.52383 16 7.8749C16 7.22596 15.4404 6.6999 14.75 6.6999ZM1.25 2H14.75C15.0815 2 15.3995 2.12379 15.6339 2.34415C15.8683 2.5645 16 2.86337 16 3.175C16 3.48663 15.8683 3.78549 15.6339 4.00585C15.3995 4.2262 15.0815 4.35 14.75 4.35H1.25C0.918479 4.35 0.600537 4.2262 0.366117 4.00585C0.131696 3.78549 0 3.48663 0 3.175C0 2.86337 0.131696 2.5645 0.366117 2.34415C0.600537 2.12379 0.918479 2 1.25 2Z" fill="black" fill-opacity="0.2"/>
<path fill-rule="evenodd" clip-rule="evenodd" d="M1.25 11.4001H14.75C15.4404 11.4001 16 11.9261 16 12.5751C16 13.224 15.4404 13.7501 14.75 13.7501H1.25C0.559644 13.7501 0 13.224 0 12.5751C0 11.9261 0.559644 11.4001 1.25 11.4001ZM14.75 6.6999H1.25C0.559644 6.6999 0 7.22596 0 7.8749C0 8.52383 0.559644 9.0499 1.25 9.0499H14.75C15.4404 9.0499 16 8.52383 16 7.8749C16 7.22596 15.4404 6.6999 14.75 6.6999ZM1.25 2H14.75C15.0815 2 15.3995 2.12379 15.6339 2.34415C15.8683 2.5645 16 2.86337 16 3.175C16 3.48663 15.8683 3.78549 15.6339 4.00585C15.3995 4.2262 15.0815 4.35 14.75 4.35H1.25C0.918479 4.35 0.600537 4.2262 0.366117 4.00585C0.131696 3.78549 0 3.48663 0 3.175C0 2.86337 0.131696 2.5645 0.366117 2.34415C0.600537 2.12379 0.918479 2 1.25 2Z" fill="black" fill-opacity="0.2"/>
<path fill-rule="evenodd" clip-rule="evenodd" d="M1.25 11.4001H14.75C15.4404 11.4001 16 11.9261 16 12.5751C16 13.224 15.4404 13.7501 14.75 13.7501H1.25C0.559644 13.7501 0 13.224 0 12.5751C0 11.9261 0.559644 11.4001 1.25 11.4001ZM14.75 6.6999H1.25C0.559644 6.6999 0 7.22596 0 7.8749C0 8.52383 0.559644 9.0499 1.25 9.0499H14.75C15.4404 9.0499 16 8.52383 16 7.8749C16 7.22596 15.4404 6.6999 14.75 6.6999ZM1.25 2H14.75C15.0815 2 15.3995 2.12379 15.6339 2.34415C15.8683 2.5645 16 2.86337 16 3.175C16 3.48663 15.8683 3.78549 15.6339 4.00585C15.3995 4.2262 15.0815 4.35 14.75 4.35H1.25C0.918479 4.35 0.600537 4.2262 0.366117 4.00585C0.131696 3.78549 0 3.48663 0 3.175C0 2.86337 0.131696 2.5645 0.366117 2.34415C0.600537 2.12379 0.918479 2 1.25 2Z" fill="black" fill-opacity="0.2"/>
<path fill-rule="evenodd" clip-rule="evenodd" d="M1.25 11.4001H14.75C15.4404 11.4001 16 11.9261 16 12.5751C16 13.224 15.4404 13.7501 14.75 13.7501H1.25C0.559644 13.7501 0 13.224 0 12.5751C0 11.9261 0.559644 11.4001 1.25 11.4001ZM14.75 6.6999H1.25C0.559644 6.6999 0 7.22596 0 7.8749C0 8.52383 0.559644 9.0499 1.25 9.0499H14.75C15.4404 9.0499 16 8.52383 16 7.8749C16 7.22596 15.4404 6.6999 14.75 6.6999ZM1.25 2H14.75C15.0815 2 15.3995 2.12379 15.6339 2.34415C15.8683 2.5645 16 2.86337 16 3.175C16 3.48663 15.8683 3.78549 15.6339 4.00585C15.3995 4.2262 15.0815 4.35 14.75 4.35H1.25C0.918479 4.35 0.600537 4.2262 0.366117 4.00585C0.131696 3.78549 0 3.48663 0 3.175C0 2.86337 0.131696 2.5645 0.366117 2.34415C0.600537 2.12379 0.918479 2 1.25 2Z" fill="black" fill-opacity="0.2"/>
<path fill-rule="evenodd" clip-rule="evenodd" d="M1.25 11.4001H14.75C15.4404 11.4001 16 11.9261 16 12.5751C16 13.224 15.4404 13.7501 14.75 13.7501H1.25C0.559644 13.7501 0 13.224 0 12.5751C0 11.9261 0.559644 11.4001 1.25 11.4001ZM14.75 6.6999H1.25C0.559644 6.6999 0 7.22596 0 7.8749C0 8.52383 0.559644 9.0499 1.25 9.0499H14.75C15.4404 9.0499 16 8.52383 16 7.8749C16 7.22596 15.4404 6.6999 14.75 6.6999ZM1.25 2H14.75C15.0815 2 15.3995 2.12379 15.6339 2.34415C15.8683 2.5645 16 2.86337 16 3.175C16 3.48663 15.8683 3.78549 15.6339 4.00585C15.3995 4.2262 15.0815 4.35 14.75 4.35H1.25C0.918479 4.35 0.600537 4.2262 0.366117 4.00585C0.131696 3.78549 0 3.48663 0 3.175C0 2.86337 0.131696 2.5645 0.366117 2.34415C0.600537 2.12379 0.918479 2 1.25 2Z" fill="black" fill-opacity="0.2"/>
<path fill-rule="evenodd" clip-rule="evenodd" d="M1.25 11.4001H14.75C15.4404 11.4001 16 11.9261 16 12.5751C16 13.224 15.4404 13.7501 14.75 13.7501H1.25C0.559644 13.7501 0 13.224 0 12.5751C0 11.9261 0.559644 11.4001 1.25 11.4001ZM14.75 6.6999H1.25C0.559644 6.6999 0 7.22596 0 7.8749C0 8.52383 0.559644 9.0499 1.25 9.0499H14.75C15.4404 9.0499 16 8.52383 16 7.8749C16 7.22596 15.4404 6.6999 14.75 6.6999ZM1.25 2H14.75C15.0815 2 15.3995 2.12379 15.6339 2.34415C15.8683 2.5645 16 2.86337 16 3.175C16 3.48663 15.8683 3.78549 15.6339 4.00585C15.3995 4.2262 15.0815 4.35 14.75 4.35H1.25C0.918479 4.35 0.600537 4.2262 0.366117 4.00585C0.131696 3.78549 0 3.48663 0 3.175C0 2.86337 0.131696 2.5645 0.366117 2.34415C0.600537 2.12379 0.918479 2 1.25 2Z" fill="black" fill-opacity="0.2"/>
</svg>
